<?xml version="1.0" encoding="UTF-8" standalone="no"?>
<!DOCTYPE svg PUBLIC "-//W3C//DTD SVG 1.1//EN"
 "http://www.w3.org/Graphics/SVG/1.1/DTD/svg11.dtd">
<!-- Generated by graphviz version 2.38.0 (20140413.2041)
 -->
<!-- Title: Cpl/Dm/Mp/Bool.h Pages: 1 -->
<svg width="1827pt" height="352pt"
 viewBox="0.00 0.00 1826.80 352.00" xmlns="http://www.w3.org/2000/svg" xmlns:xlink="http://www.w3.org/1999/xlink">
<g id="graph0" class="graph" transform="scale(1 1) rotate(0) translate(4 348)">
<title>Cpl/Dm/Mp/Bool.h</title>
<polygon fill="white" stroke="none" points="-4,4 -4,-348 1822.8,-348 1822.8,4 -4,4"/>
<!-- Node1 -->
<g id="node1" class="node"><title>Node1</title>
<g id="a_node1"><a xlink:title=" ">
<polygon fill="#bfbfbf" stroke="black" points="1013.8,-324.5 1013.8,-343.5 1109.8,-343.5 1109.8,-324.5 1013.8,-324.5"/>
<text text-anchor="middle" x="1061.8" y="-331.5" font-family="Helvetica,sans-Serif" font-size="10.00">Cpl/Dm/Mp/Bool.h</text>
</a>
</g>
</g>
<!-- Node2 -->
<g id="node2" class="node"><title>Node2</title>
<g id="a_node2"><a xlink:href="_control_8h.html" target="_top" xlink:title=" ">
<polygon fill="white" stroke="black" points="207.303,-263 207.303,-282 344.303,-282 344.303,-263 207.303,-263"/>
<text text-anchor="middle" x="275.803" y="-270" font-family="Helvetica,sans-Serif" font-size="10.00">Storm/Component/Control.h</text>
</a>
</g>
</g>
<!-- Node1&#45;&gt;Node2 -->
<g id="edge1" class="edge"><title>Node1&#45;&gt;Node2</title>
<path fill="none" stroke="midnightblue" d="M1003.25,-328.568C860.817,-317.785 496.764,-290.227 344.442,-278.696"/>
<polygon fill="midnightblue" stroke="midnightblue" points="1003.29,-332.08 1013.52,-329.345 1003.82,-325.1 1003.29,-332.08"/>
</g>
<!-- Node11 -->
<g id="node11" class="node"><title>Node11</title>
<g id="a_node11"><a xlink:href="_fan_control_8h.html" target="_top" xlink:title=" ">
<polygon fill="white" stroke="black" points="784.803,-62 784.803,-81 938.803,-81 938.803,-62 784.803,-62"/>
<text text-anchor="middle" x="861.803" y="-69" font-family="Helvetica,sans-Serif" font-size="10.00">Storm/Component/FanControl.h</text>
</a>
</g>
</g>
<!-- Node1&#45;&gt;Node11 -->
<g id="edge17" class="edge"><title>Node1&#45;&gt;Node11</title>
<path fill="none" stroke="midnightblue" d="M1040.31,-318.477C1001.7,-291.155 920.898,-228.137 880.803,-154 867.671,-129.719 863.566,-96.5864 862.322,-81.1164"/>
<polygon fill="midnightblue" stroke="midnightblue" points="1038.54,-321.504 1048.74,-324.347 1042.54,-315.76 1038.54,-321.504"/>
</g>
<!-- Node12 -->
<g id="node12" class="node"><title>Node12</title>
<g id="a_node12"><a xlink:href="_component_2_hvac_relay_outputs_8h.html" target="_top" xlink:title=" ">
<polygon fill="white" stroke="black" points="889.803,-123.5 889.803,-153.5 1035.8,-153.5 1035.8,-123.5 889.803,-123.5"/>
<text text-anchor="start" x="897.803" y="-141.5" font-family="Helvetica,sans-Serif" font-size="10.00">Storm/Component/HvacRelay</text>
<text text-anchor="middle" x="962.803" y="-130.5" font-family="Helvetica,sans-Serif" font-size="10.00">Outputs.h</text>
</a>
</g>
</g>
<!-- Node1&#45;&gt;Node12 -->
<g id="edge19" class="edge"><title>Node1&#45;&gt;Node12</title>
<path fill="none" stroke="midnightblue" d="M1048.29,-316.385C1041.93,-308.135 1034.51,-297.848 1028.8,-288 1001.63,-241.14 978.091,-181.039 968.02,-153.917"/>
<polygon fill="midnightblue" stroke="midnightblue" points="1045.69,-318.744 1054.64,-324.419 1051.19,-314.403 1045.69,-318.744"/>
</g>
<!-- Node13 -->
<g id="node13" class="node"><title>Node13</title>
<g id="a_node13"><a xlink:href="_idt_selection_8h.html" target="_top" xlink:title=" ">
<polygon fill="white" stroke="black" points="994.803,-62 994.803,-81 1152.8,-81 1152.8,-62 994.803,-62"/>
<text text-anchor="middle" x="1073.8" y="-69" font-family="Helvetica,sans-Serif" font-size="10.00">Storm/Component/IdtSelection.h</text>
</a>
</g>
</g>
<!-- Node1&#45;&gt;Node13 -->
<g id="edge21" class="edge"><title>Node1&#45;&gt;Node13</title>
<path fill="none" stroke="midnightblue" d="M1061.19,-314.189C1060.45,-286.831 1059.54,-234.475 1061.8,-190 1063.89,-149.042 1070.04,-100.365 1072.63,-81.0281"/>
<polygon fill="midnightblue" stroke="midnightblue" points="1057.7,-314.396 1061.49,-324.287 1064.7,-314.187 1057.7,-314.396"/>
</g>
<!-- Node14 -->
<g id="node14" class="node"><title>Node14</title>
<g id="a_node14"><a xlink:href="_component_2_operating_mode_8h.html" target="_top" xlink:title=" ">
<polygon fill="white" stroke="black" points="1070.8,-190.5 1070.8,-220.5 1210.8,-220.5 1210.8,-190.5 1070.8,-190.5"/>
<text text-anchor="start" x="1078.8" y="-208.5" font-family="Helvetica,sans-Serif" font-size="10.00">Storm/Component/Operating</text>
<text text-anchor="middle" x="1140.8" y="-197.5" font-family="Helvetica,sans-Serif" font-size="10.00">Mode.h</text>
</a>
</g>
</g>
<!-- Node1&#45;&gt;Node14 -->
<g id="edge23" class="edge"><title>Node1&#45;&gt;Node14</title>
<path fill="none" stroke="midnightblue" d="M1070.09,-315.182C1077.66,-299.462 1089.51,-276.14 1101.8,-257 1110.07,-244.139 1120.75,-230.469 1128.85,-220.599"/>
<polygon fill="midnightblue" stroke="midnightblue" points="1066.89,-313.758 1065.78,-324.294 1073.22,-316.754 1066.89,-313.758"/>
</g>
<!-- Node15 -->
<g id="node15" class="node"><title>Node15</title>
<g id="a_node15"><a xlink:href="_pi_8h.html" target="_top" xlink:title=" ">
<polygon fill="white" stroke="black" points="1110.8,-263 1110.8,-282 1226.8,-282 1226.8,-263 1110.8,-263"/>
<text text-anchor="middle" x="1168.8" y="-270" font-family="Helvetica,sans-Serif" font-size="10.00">Storm/Component/Pi.h</text>
</a>
</g>
</g>
<!-- Node1&#45;&gt;Node15 -->
<g id="edge25" class="edge"><title>Node1&#45;&gt;Node15</title>
<path fill="none" stroke="midnightblue" d="M1085.98,-319.556C1106.69,-308.042 1135.87,-291.811 1153.5,-282.009"/>
<polygon fill="midnightblue" stroke="midnightblue" points="1084.17,-316.556 1077.13,-324.475 1087.57,-322.674 1084.17,-316.556"/>
</g>
<!-- Node16 -->
<g id="node16" class="node"><title>Node16</title>
<g id="a_node16"><a xlink:href="_pi_pre_process_8h.html" target="_top" xlink:title=" ">
<polygon fill="white" stroke="black" points="509.303,-129 509.303,-148 676.303,-148 676.303,-129 509.303,-129"/>
<text text-anchor="middle" x="592.803" y="-136" font-family="Helvetica,sans-Serif" font-size="10.00">Storm/Component/PiPreProcess.h</text>
</a>
</g>
</g>
<!-- Node1&#45;&gt;Node16 -->
<g id="edge27" class="edge"><title>Node1&#45;&gt;Node16</title>
<path fill="none" stroke="midnightblue" d="M1003.88,-325.942C959.988,-319.383 898.755,-307.604 847.803,-288 746.916,-249.183 639.104,-173.472 604.319,-148.054"/>
<polygon fill="midnightblue" stroke="midnightblue" points="1003.4,-329.41 1013.8,-327.381 1004.41,-322.483 1003.4,-329.41"/>
</g>
<!-- Node17 -->
<g id="node17" class="node"><title>Node17</title>
<g id="a_node17"><a xlink:href="_model_points_8h.html" target="_top" xlink:title="This file defines all of the Model Points for the Thermostat Application.">
<polygon fill="white" stroke="black" points="1314.3,-263 1314.3,-282 1475.3,-282 1475.3,-263 1314.3,-263"/>
<text text-anchor="middle" x="1394.8" y="-270" font-family="Helvetica,sans-Serif" font-size="10.00">Storm/Thermostat/ModelPoints.h</text>
</a>
</g>
</g>
<!-- Node1&#45;&gt;Node17 -->
<g id="edge31" class="edge"><title>Node1&#45;&gt;Node17</title>
<path fill="none" stroke="midnightblue" d="M1119.51,-322.688C1183.98,-311.17 1287.13,-292.738 1347.18,-282.009"/>
<polygon fill="midnightblue" stroke="midnightblue" points="1118.74,-319.271 1109.51,-324.475 1119.97,-326.162 1118.74,-319.271"/>
</g>
<!-- Node22 -->
<g id="node22" class="node"><title>Node22</title>
<g id="a_node22"><a xlink:href="_sim_house_2_model_points_8h.html" target="_top" xlink:title="This file defines test/simulation specific Model Points for the Thermostat Application.">
<polygon fill="white" stroke="black" points="1648.3,-257.5 1648.3,-287.5 1791.3,-287.5 1791.3,-257.5 1648.3,-257.5"/>
<text text-anchor="start" x="1656.3" y="-275.5" font-family="Helvetica,sans-Serif" font-size="10.00">Storm/Thermostat/SimHouse</text>
<text text-anchor="middle" x="1719.8" y="-264.5" font-family="Helvetica,sans-Serif" font-size="10.00">/ModelPoints.h</text>
</a>
</g>
</g>
<!-- Node1&#45;&gt;Node22 -->
<g id="edge36" class="edge"><title>Node1&#45;&gt;Node22</title>
<path fill="none" stroke="midnightblue" d="M1119.84,-330.383C1224.08,-325.26 1449.76,-312.231 1638.8,-288 1641.78,-287.619 1644.81,-287.202 1647.87,-286.759"/>
<polygon fill="midnightblue" stroke="midnightblue" points="1119.66,-326.888 1109.84,-330.869 1120,-333.88 1119.66,-326.888"/>
</g>
<!-- Node23 -->
<g id="node23" class="node"><title>Node23</title>
<g id="a_node23"><a xlink:href="_ui_2_pico_display_2_model_points_8h.html" target="_top" xlink:title="This file defines the Model Points that are UI specific for the Thermostat Application.">
<polygon fill="white" stroke="black" points="1493.3,-257.5 1493.3,-287.5 1630.3,-287.5 1630.3,-257.5 1493.3,-257.5"/>
<text text-anchor="start" x="1501.3" y="-275.5" font-family="Helvetica,sans-Serif" font-size="10.00">Storm/Thermostat/Ui</text>
<text text-anchor="middle" x="1561.8" y="-264.5" font-family="Helvetica,sans-Serif" font-size="10.00">/PicoDisplay/ModelPoints.h</text>
</a>
</g>
</g>
<!-- Node1&#45;&gt;Node23 -->
<g id="edge37" class="edge"><title>Node1&#45;&gt;Node23</title>
<path fill="none" stroke="midnightblue" d="M1120.12,-328.222C1201.72,-321.21 1354.46,-306.89 1483.8,-288 1486.8,-287.562 1489.86,-287.092 1492.95,-286.6"/>
<polygon fill="midnightblue" stroke="midnightblue" points="1119.72,-324.744 1110.05,-329.081 1120.32,-331.718 1119.72,-324.744"/>
</g>
<!-- Node3 -->
<g id="node3" class="node"><title>Node3</title>
<g id="a_node3"><a xlink:href="_cooling_8h.html" target="_top" xlink:title=" ">
<polygon fill="white" stroke="black" points="20.3028,-123.5 20.3028,-153.5 165.303,-153.5 165.303,-123.5 20.3028,-123.5"/>
<text text-anchor="start" x="28.3028" y="-141.5" font-family="Helvetica,sans-Serif" font-size="10.00">Storm/Component/Equipment</text>
<text text-anchor="middle" x="92.8028" y="-130.5" font-family="Helvetica,sans-Serif" font-size="10.00">/Cooling.h</text>
</a>
</g>
</g>
<!-- Node2&#45;&gt;Node3 -->
<g id="edge2" class="edge"><title>Node2&#45;&gt;Node3</title>
<path fill="none" stroke="midnightblue" d="M223.656,-260.259C197.264,-252.574 165.995,-240.208 142.803,-221 120.558,-202.577 105.453,-171.547 98.0594,-153.558"/>
<polygon fill="midnightblue" stroke="midnightblue" points="222.934,-263.691 233.505,-262.98 224.798,-256.944 222.934,-263.691"/>
</g>
<!-- Node4 -->
<g id="node4" class="node"><title>Node4</title>
<g id="a_node4"><a xlink:href="_algorithm_8h.html" target="_top" xlink:title=" ">
<polygon fill="white" stroke="black" points="568.803,-0.5 568.803,-19.5 716.803,-19.5 716.803,-0.5 568.803,-0.5"/>
<text text-anchor="middle" x="642.803" y="-7.5" font-family="Helvetica,sans-Serif" font-size="10.00">Storm/Thermostat/Algorithm.h</text>
</a>
</g>
</g>
<!-- Node2&#45;&gt;Node4 -->
<g id="edge16" class="edge"><title>Node2&#45;&gt;Node4</title>
<path fill="none" stroke="midnightblue" d="M206.872,-261.176C111.991,-243.824 -41.5244,-202.625 10.8028,-123 71.2736,-30.9827 415.016,-14.2896 568.637,-11.4612"/>
<polygon fill="midnightblue" stroke="midnightblue" points="206.539,-264.671 216.997,-262.978 207.765,-257.78 206.539,-264.671"/>
</g>
<!-- Node5 -->
<g id="node5" class="node"><title>Node5</title>
<g id="a_node5"><a xlink:href="_indoor_heating_8h.html" target="_top" xlink:title=" ">
<polygon fill="white" stroke="black" points="183.303,-123.5 183.303,-153.5 328.303,-153.5 328.303,-123.5 183.303,-123.5"/>
<text text-anchor="start" x="191.303" y="-141.5" font-family="Helvetica,sans-Serif" font-size="10.00">Storm/Component/Equipment</text>
<text text-anchor="middle" x="255.803" y="-130.5" font-family="Helvetica,sans-Serif" font-size="10.00">/IndoorHeating.h</text>
</a>
</g>
</g>
<!-- Node2&#45;&gt;Node5 -->
<g id="edge4" class="edge"><title>Node2&#45;&gt;Node5</title>
<path fill="none" stroke="midnightblue" d="M289.471,-254.696C301.205,-238.118 314.9,-212.119 305.803,-190 299.749,-175.281 287.1,-162.573 276.04,-153.587"/>
<polygon fill="midnightblue" stroke="midnightblue" points="286.545,-252.763 283.311,-262.853 292.131,-256.982 286.545,-252.763"/>
</g>
<!-- Node6 -->
<g id="node6" class="node"><title>Node6</title>
<g id="a_node6"><a xlink:href="_off_8h.html" target="_top" xlink:title=" ">
<polygon fill="white" stroke="black" points="621.303,-56.5 621.303,-86.5 766.303,-86.5 766.303,-56.5 621.303,-56.5"/>
<text text-anchor="start" x="629.303" y="-74.5" font-family="Helvetica,sans-Serif" font-size="10.00">Storm/Component/Equipment</text>
<text text-anchor="middle" x="693.803" y="-63.5" font-family="Helvetica,sans-Serif" font-size="10.00">/Off.h</text>
</a>
</g>
</g>
<!-- Node2&#45;&gt;Node6 -->
<g id="edge6" class="edge"><title>Node2&#45;&gt;Node6</title>
<path fill="none" stroke="midnightblue" d="M343.24,-261.345C447.607,-244.178 640.846,-206.133 684.803,-154 700.678,-135.172 699.207,-104.572 696.584,-86.7087"/>
<polygon fill="midnightblue" stroke="midnightblue" points="342.427,-257.931 333.118,-262.99 343.55,-264.84 342.427,-257.931"/>
</g>
<!-- Node7 -->
<g id="node7" class="node"><title>Node7</title>
<g id="a_node7"><a xlink:href="_stage_api_8h.html" target="_top" xlink:title=" ">
<polygon fill="white" stroke="black" points="152.303,-190.5 152.303,-220.5 297.303,-220.5 297.303,-190.5 152.303,-190.5"/>
<text text-anchor="start" x="160.303" y="-208.5" font-family="Helvetica,sans-Serif" font-size="10.00">Storm/Component/Equipment</text>
<text text-anchor="middle" x="224.803" y="-197.5" font-family="Helvetica,sans-Serif" font-size="10.00">/StageApi.h</text>
</a>
</g>
</g>
<!-- Node2&#45;&gt;Node7 -->
<g id="edge8" class="edge"><title>Node2&#45;&gt;Node7</title>
<path fill="none" stroke="midnightblue" d="M262.6,-254.673C254.3,-244.094 243.714,-230.602 235.857,-220.589"/>
<polygon fill="midnightblue" stroke="midnightblue" points="259.998,-257.027 268.925,-262.734 265.505,-252.706 259.998,-257.027"/>
</g>
<!-- Node3&#45;&gt;Node4 -->
<g id="edge3" class="edge"><title>Node3&#45;&gt;Node4</title>
<path fill="none" stroke="midnightblue" d="M119.639,-117.562C147.067,-98.3172 191.644,-70.0844 234.803,-56 347.262,-19.2998 485.428,-11.274 568.676,-10.1668"/>
<polygon fill="midnightblue" stroke="midnightblue" points="117.471,-114.81 111.36,-123.466 121.535,-120.51 117.471,-114.81"/>
</g>
<!-- Node5&#45;&gt;Node4 -->
<g id="edge5" class="edge"><title>Node5&#45;&gt;Node4</title>
<path fill="none" stroke="midnightblue" d="M244.692,-114.177C237.89,-96.1029 232.884,-71.59 246.803,-56 267.799,-32.483 459.601,-19.6432 568.37,-14.197"/>
<polygon fill="midnightblue" stroke="midnightblue" points="241.479,-115.566 248.547,-123.458 247.943,-112.881 241.479,-115.566"/>
</g>
<!-- Node6&#45;&gt;Node4 -->
<g id="edge7" class="edge"><title>Node6&#45;&gt;Node4</title>
<path fill="none" stroke="midnightblue" d="M675.12,-48.7037C666.491,-38.636 656.737,-27.2567 650.224,-19.6578"/>
<polygon fill="midnightblue" stroke="midnightblue" points="672.551,-51.0845 681.717,-56.3993 677.866,-46.529 672.551,-51.0845"/>
</g>
<!-- Node7&#45;&gt;Node3 -->
<g id="edge9" class="edge"><title>Node7&#45;&gt;Node3</title>
<path fill="none" stroke="midnightblue" d="M186.936,-185.853C166.065,-175.576 140.577,-163.025 121.389,-153.577"/>
<polygon fill="midnightblue" stroke="midnightblue" points="185.643,-189.118 196.161,-190.396 188.736,-182.838 185.643,-189.118"/>
</g>
<!-- Node7&#45;&gt;Node5 -->
<g id="edge10" class="edge"><title>Node7&#45;&gt;Node5</title>
<path fill="none" stroke="midnightblue" d="M235.875,-181.283C240.292,-172.022 245.233,-161.663 249.089,-153.577"/>
<polygon fill="midnightblue" stroke="midnightblue" points="232.675,-179.863 231.529,-190.396 238.993,-182.877 232.675,-179.863"/>
</g>
<!-- Node8 -->
<g id="node8" class="node"><title>Node8</title>
<g id="a_node8"><a xlink:href="_storm_2_component_2_equipment_2_stage_2_basic_8h.html" target="_top" xlink:title=" ">
<polygon fill="white" stroke="black" points="346.303,-123.5 346.303,-153.5 491.303,-153.5 491.303,-123.5 346.303,-123.5"/>
<text text-anchor="start" x="354.303" y="-141.5" font-family="Helvetica,sans-Serif" font-size="10.00">Storm/Component/Equipment</text>
<text text-anchor="middle" x="418.803" y="-130.5" font-family="Helvetica,sans-Serif" font-size="10.00">/Stage/Basic.h</text>
</a>
</g>
</g>
<!-- Node7&#45;&gt;Node8 -->
<g id="edge11" class="edge"><title>Node7&#45;&gt;Node8</title>
<path fill="none" stroke="midnightblue" d="M276.76,-187.092C308.077,-176.599 347.446,-163.408 376.79,-153.577"/>
<polygon fill="midnightblue" stroke="midnightblue" points="275.268,-183.9 266.898,-190.396 277.492,-190.538 275.268,-183.9"/>
</g>
<!-- Node9 -->
<g id="node9" class="node"><title>Node9</title>
<g id="a_node9"><a xlink:href="_basic_cooling_8h.html" target="_top" xlink:title=" ">
<polygon fill="white" stroke="black" points="256.303,-56.5 256.303,-86.5 401.303,-86.5 401.303,-56.5 256.303,-56.5"/>
<text text-anchor="start" x="264.303" y="-74.5" font-family="Helvetica,sans-Serif" font-size="10.00">Storm/Component/Equipment</text>
<text text-anchor="middle" x="328.803" y="-63.5" font-family="Helvetica,sans-Serif" font-size="10.00">/Stage/BasicCooling.h</text>
</a>
</g>
</g>
<!-- Node8&#45;&gt;Node9 -->
<g id="edge12" class="edge"><title>Node8&#45;&gt;Node9</title>
<path fill="none" stroke="midnightblue" d="M391.043,-117.451C377.197,-107.452 360.787,-95.5995 348.293,-86.5765"/>
<polygon fill="midnightblue" stroke="midnightblue" points="389.118,-120.378 399.274,-123.396 393.217,-114.704 389.118,-120.378"/>
</g>
<!-- Node10 -->
<g id="node10" class="node"><title>Node10</title>
<g id="a_node10"><a xlink:href="_basic_indoor_heat_8h.html" target="_top" xlink:title=" ">
<polygon fill="white" stroke="black" points="419.303,-56.5 419.303,-86.5 564.303,-86.5 564.303,-56.5 419.303,-56.5"/>
<text text-anchor="start" x="427.303" y="-74.5" font-family="Helvetica,sans-Serif" font-size="10.00">Storm/Component/Equipment</text>
<text text-anchor="middle" x="491.803" y="-63.5" font-family="Helvetica,sans-Serif" font-size="10.00">/Stage/BasicIndoorHeat.h</text>
</a>
</g>
</g>
<!-- Node8&#45;&gt;Node10 -->
<g id="edge14" class="edge"><title>Node8&#45;&gt;Node10</title>
<path fill="none" stroke="midnightblue" d="M442.278,-116.598C453.3,-106.783 466.147,-95.3442 475.994,-86.5765"/>
<polygon fill="midnightblue" stroke="midnightblue" points="439.784,-114.132 434.643,-123.396 444.439,-119.36 439.784,-114.132"/>
</g>
<!-- Node9&#45;&gt;Node4 -->
<g id="edge13" class="edge"><title>Node9&#45;&gt;Node4</title>
<path fill="none" stroke="midnightblue" d="M411.761,-54.7803C471.251,-43.5075 549.137,-28.7488 597.564,-19.5724"/>
<polygon fill="midnightblue" stroke="midnightblue" points="410.804,-51.3993 401.63,-56.7 412.107,-58.2769 410.804,-51.3993"/>
</g>
<!-- Node10&#45;&gt;Node4 -->
<g id="edge15" class="edge"><title>Node10&#45;&gt;Node4</title>
<path fill="none" stroke="midnightblue" d="M537.082,-52.6583C564.776,-41.7455 598.969,-28.2724 620.831,-19.6578"/>
<polygon fill="midnightblue" stroke="midnightblue" points="535.608,-49.4769 527.588,-56.3993 538.175,-55.9895 535.608,-49.4769"/>
</g>
<!-- Node11&#45;&gt;Node4 -->
<g id="edge18" class="edge"><title>Node11&#45;&gt;Node4</title>
<path fill="none" stroke="midnightblue" d="M820.662,-59.3225C778.121,-47.7645 712.637,-29.9732 674.122,-19.5091"/>
<polygon fill="midnightblue" stroke="midnightblue" points="819.858,-62.7307 830.425,-61.9751 821.693,-55.9756 819.858,-62.7307"/>
</g>
<!-- Node12&#45;&gt;Node4 -->
<g id="edge20" class="edge"><title>Node12&#45;&gt;Node4</title>
<path fill="none" stroke="midnightblue" d="M965.25,-113.22C965.656,-94.9116 962.876,-70.5472 947.803,-56 915.74,-25.0565 796.366,-15.3284 716.817,-12.3084"/>
<polygon fill="midnightblue" stroke="midnightblue" points="961.742,-113.26 964.689,-123.437 968.732,-113.643 961.742,-113.26"/>
</g>
<!-- Node13&#45;&gt;Node4 -->
<g id="edge22" class="edge"><title>Node13&#45;&gt;Node4</title>
<path fill="none" stroke="midnightblue" d="M1010.11,-60.3769C1000.3,-58.8735 990.285,-57.3703 980.803,-56 887.059,-42.4534 778.464,-28.2619 710.2,-19.5233"/>
<polygon fill="midnightblue" stroke="midnightblue" points="1009.81,-63.8719 1020.23,-61.9381 1010.88,-56.9538 1009.81,-63.8719"/>
</g>
<!-- Node14&#45;&gt;Node4 -->
<g id="edge24" class="edge"><title>Node14&#45;&gt;Node4</title>
<path fill="none" stroke="midnightblue" d="M1154.04,-181.346C1170.6,-148.958 1193.22,-90.2605 1161.8,-56 1132.37,-23.9004 853.387,-14.6294 717.064,-12.0064"/>
<polygon fill="midnightblue" stroke="midnightblue" points="1150.78,-180.026 1149.16,-190.497 1156.95,-183.32 1150.78,-180.026"/>
</g>
<!-- Node15&#45;&gt;Node4 -->
<g id="edge26" class="edge"><title>Node15&#45;&gt;Node4</title>
<path fill="none" stroke="midnightblue" d="M1190.25,-256.848C1201.33,-247.932 1213.76,-235.479 1219.8,-221 1241.38,-169.28 1228.78,-93.554 1183.8,-56 1148.76,-26.7423 856.875,-15.9951 716.996,-12.4985"/>
<polygon fill="midnightblue" stroke="midnightblue" points="1188.04,-254.132 1182.17,-262.953 1192.26,-259.717 1188.04,-254.132"/>
</g>
<!-- Node16&#45;&gt;Node4 -->
<g id="edge30" class="edge"><title>Node16&#45;&gt;Node4</title>
<path fill="none" stroke="midnightblue" d="M595.204,-118.328C597.802,-101.39 602.832,-76.2987 611.803,-56 617.862,-42.29 628.25,-28.3618 635.316,-19.7073"/>
<polygon fill="midnightblue" stroke="midnightblue" points="591.687,-118.205 593.775,-128.592 598.621,-119.17 591.687,-118.205"/>
</g>
<!-- Node16&#45;&gt;Node9 -->
<g id="edge28" class="edge"><title>Node16&#45;&gt;Node9</title>
<path fill="none" stroke="midnightblue" d="M548.035,-126.478C503.346,-115.475 434.503,-98.5246 385.905,-86.5592"/>
<polygon fill="midnightblue" stroke="midnightblue" points="547.471,-129.943 558.018,-128.936 549.145,-123.146 547.471,-129.943"/>
</g>
<!-- Node16&#45;&gt;Node10 -->
<g id="edge29" class="edge"><title>Node16&#45;&gt;Node10</title>
<path fill="none" stroke="midnightblue" d="M570.509,-123.153C553.607,-112.275 530.498,-97.4029 513.695,-86.589"/>
<polygon fill="midnightblue" stroke="midnightblue" points="568.878,-126.265 579.182,-128.734 572.667,-120.379 568.878,-126.265"/>
</g>
<!-- Node18 -->
<g id="node18" class="node"><title>Node18</title>
<g id="a_node18"><a xlink:href="_installer_record_8h_source.html" target="_top" xlink:title=" ">
<polygon fill="white" stroke="black" points="1267.3,-190.5 1267.3,-220.5 1386.3,-220.5 1386.3,-190.5 1267.3,-190.5"/>
<text text-anchor="start" x="1275.3" y="-208.5" font-family="Helvetica,sans-Serif" font-size="10.00">Storm/Thermostat/Main</text>
<text text-anchor="middle" x="1326.8" y="-197.5" font-family="Helvetica,sans-Serif" font-size="10.00">/InstallerRecord.h</text>
</a>
</g>
</g>
<!-- Node17&#45;&gt;Node18 -->
<g id="edge32" class="edge"><title>Node17&#45;&gt;Node18</title>
<path fill="none" stroke="midnightblue" d="M1378.19,-255.617C1366.98,-244.907 1352.33,-230.902 1341.54,-220.589"/>
<polygon fill="midnightblue" stroke="midnightblue" points="1375.98,-258.354 1385.63,-262.734 1380.82,-253.294 1375.98,-258.354"/>
</g>
<!-- Node19 -->
<g id="node19" class="node"><title>Node19</title>
<g id="a_node19"><a xlink:href="_run_time_record_8h_source.html" target="_top" xlink:title=" ">
<polygon fill="white" stroke="black" points="1404.3,-190.5 1404.3,-220.5 1523.3,-220.5 1523.3,-190.5 1404.3,-190.5"/>
<text text-anchor="start" x="1412.3" y="-208.5" font-family="Helvetica,sans-Serif" font-size="10.00">Storm/Thermostat/Main</text>
<text text-anchor="middle" x="1463.8" y="-197.5" font-family="Helvetica,sans-Serif" font-size="10.00">/RunTimeRecord.h</text>
</a>
</g>
</g>
<!-- Node17&#45;&gt;Node19 -->
<g id="edge33" class="edge"><title>Node17&#45;&gt;Node19</title>
<path fill="none" stroke="midnightblue" d="M1411.66,-255.617C1423.03,-244.907 1437.9,-230.902 1448.85,-220.589"/>
<polygon fill="midnightblue" stroke="midnightblue" points="1408.99,-253.329 1404.11,-262.734 1413.79,-258.424 1408.99,-253.329"/>
</g>
<!-- Node20 -->
<g id="node20" class="node"><title>Node20</title>
<g id="a_node20"><a xlink:href="_user_record_8h_source.html" target="_top" xlink:title=" ">
<polygon fill="white" stroke="black" points="1541.3,-190.5 1541.3,-220.5 1660.3,-220.5 1660.3,-190.5 1541.3,-190.5"/>
<text text-anchor="start" x="1549.3" y="-208.5" font-family="Helvetica,sans-Serif" font-size="10.00">Storm/Thermostat/Main</text>
<text text-anchor="middle" x="1600.8" y="-197.5" font-family="Helvetica,sans-Serif" font-size="10.00">/UserRecord.h</text>
</a>
</g>
</g>
<!-- Node17&#45;&gt;Node20 -->
<g id="edge34" class="edge"><title>Node17&#45;&gt;Node20</title>
<path fill="none" stroke="midnightblue" d="M1431.96,-259.775C1466.89,-248.753 1519.22,-232.244 1556.34,-220.528"/>
<polygon fill="midnightblue" stroke="midnightblue" points="1430.64,-256.522 1422.16,-262.869 1432.75,-263.197 1430.64,-256.522"/>
</g>
<!-- Node21 -->
<g id="node21" class="node"><title>Node21</title>
<g id="a_node21"><a xlink:href="_event_monitor_8h_source.html" target="_top" xlink:title=" ">
<polygon fill="white" stroke="black" points="1678.8,-190.5 1678.8,-220.5 1818.8,-220.5 1818.8,-190.5 1678.8,-190.5"/>
<text text-anchor="start" x="1686.8" y="-208.5" font-family="Helvetica,sans-Serif" font-size="10.00">Storm/Thermostat/Ui</text>
<text text-anchor="middle" x="1748.8" y="-197.5" font-family="Helvetica,sans-Serif" font-size="10.00">/PicoDisplay/EventMonitor.h</text>
</a>
</g>
</g>
<!-- Node17&#45;&gt;Node21 -->
<g id="edge35" class="edge"><title>Node17&#45;&gt;Node21</title>
<path fill="none" stroke="midnightblue" d="M1451.39,-261.109C1513.1,-249.779 1611.92,-231.634 1678.54,-219.401"/>
<polygon fill="midnightblue" stroke="midnightblue" points="1450.65,-257.687 1441.45,-262.936 1451.91,-264.572 1450.65,-257.687"/>
</g>
<!-- Node23&#45;&gt;Node21 -->
<g id="edge38" class="edge"><title>Node23&#45;&gt;Node21</title>
<path fill="none" stroke="midnightblue" d="M1611.89,-254.092C1642.07,-243.599 1680.02,-230.408 1708.31,-220.577"/>
<polygon fill="midnightblue" stroke="midnightblue" points="1610.68,-250.807 1602.38,-257.396 1612.97,-257.419 1610.68,-250.807"/>
</g>
</g>
</svg>
