<?xml version="1.0" encoding="UTF-8" standalone="no"?>
<!DOCTYPE svg PUBLIC "-//W3C//DTD SVG 1.1//EN"
 "http://www.w3.org/Graphics/SVG/1.1/DTD/svg11.dtd">
<!-- Generated by graphviz version 2.38.0 (20140413.2041)
 -->
<!-- Title: Bsp/Api.h Pages: 1 -->
<svg width="502pt" height="95pt"
 viewBox="0.00 0.00 501.50 95.00" xmlns="http://www.w3.org/2000/svg" xmlns:xlink="http://www.w3.org/1999/xlink">
<g id="graph0" class="graph" transform="scale(1 1) rotate(0) translate(4 91)">
<title>Bsp/Api.h</title>
<polygon fill="white" stroke="none" points="-4,4 -4,-91 497.5,-91 497.5,4 -4,4"/>
<!-- Node1 -->
<g id="node1" class="node"><title>Node1</title>
<g id="a_node1"><a xlink:title="This file defines the common/generic interfaces that all Colony.">
<polygon fill="#bfbfbf" stroke="black" points="181,-67.5 181,-86.5 240,-86.5 240,-67.5 181,-67.5"/>
<text text-anchor="middle" x="210.5" y="-74.5" font-family="Helvetica,sans-Serif" font-size="10.00">Bsp/Api.h</text>
</a>
</g>
</g>
<!-- Node2 -->
<g id="node2" class="node"><title>Node2</title>
<g id="a_node2"><a xlink:href="_execution_8h.html" target="_top" xlink:title="This file defines a common/generic interface for restarting, rebooting, etc.">
<polygon fill="white" stroke="black" points="0,-6 0,-25 89,-25 89,-6 0,-6"/>
<text text-anchor="middle" x="44.5" y="-13" font-family="Helvetica,sans-Serif" font-size="10.00">Bsp/Execution.h</text>
</a>
</g>
</g>
<!-- Node1&#45;&gt;Node2 -->
<g id="edge1" class="edge"><title>Node1&#45;&gt;Node2</title>
<path fill="none" stroke="midnightblue" d="M177.252,-64.0828C144.984,-52.517 96.8176,-35.2524 68.2396,-25.0091"/>
<polygon fill="midnightblue" stroke="midnightblue" points="176.122,-67.3956 186.716,-67.4751 178.484,-60.8061 176.122,-67.3956"/>
</g>
<!-- Node3 -->
<g id="node3" class="node"><title>Node3</title>
<g id="a_node3"><a xlink:href="_watch_dog_8h.html" target="_top" xlink:title="This file defines a common/generic interface for managing the application&#39;s and/or platform&#39;s watchdo...">
<polygon fill="white" stroke="black" points="107.5,-6 107.5,-25 197.5,-25 197.5,-6 107.5,-6"/>
<text text-anchor="middle" x="152.5" y="-13" font-family="Helvetica,sans-Serif" font-size="10.00">Bsp/WatchDog.h</text>
</a>
</g>
</g>
<!-- Node1&#45;&gt;Node3 -->
<g id="edge2" class="edge"><title>Node1&#45;&gt;Node3</title>
<path fill="none" stroke="midnightblue" d="M194.901,-59.9975C183.923,-48.7356 169.661,-34.1044 160.795,-25.0091"/>
<polygon fill="midnightblue" stroke="midnightblue" points="192.703,-62.7574 202.19,-67.4751 197.716,-57.8712 192.703,-62.7574"/>
</g>
<!-- Node4 -->
<g id="node4" class="node"><title>Node4</title>
<g id="a_node4"><a xlink:href="_serial_2_r_p2040_2_uart_2_input_output_8h.html" target="_top" xlink:title=" ">
<polygon fill="white" stroke="black" points="216,-0.5 216,-30.5 323,-30.5 323,-0.5 216,-0.5"/>
<text text-anchor="start" x="224" y="-18.5" font-family="Helvetica,sans-Serif" font-size="10.00">Cpl/Io/Serial/RP2040</text>
<text text-anchor="middle" x="269.5" y="-7.5" font-family="Helvetica,sans-Serif" font-size="10.00">/Uart/InputOutput.h</text>
</a>
</g>
</g>
<!-- Node1&#45;&gt;Node4 -->
<g id="edge3" class="edge"><title>Node1&#45;&gt;Node4</title>
<path fill="none" stroke="midnightblue" d="M226,-60.369C235.178,-51.1127 246.711,-39.4824 255.595,-30.523"/>
<polygon fill="midnightblue" stroke="midnightblue" points="223.509,-57.9098 218.953,-67.4751 228.48,-62.8387 223.509,-57.9098"/>
</g>
<!-- Node5 -->
<g id="node5" class="node"><title>Node5</title>
<g id="a_node5"><a xlink:href="_console_8h.html" target="_top" xlink:title="This interface provides a &#39;Console&#39; replacement for SDK&#39;s stdio.">
<polygon fill="white" stroke="black" points="341.5,-6 341.5,-25 493.5,-25 493.5,-6 341.5,-6"/>
<text text-anchor="middle" x="417.5" y="-13" font-family="Helvetica,sans-Serif" font-size="10.00">Cpl/System/RP2040/Console.h</text>
</a>
</g>
</g>
<!-- Node1&#45;&gt;Node5 -->
<g id="edge4" class="edge"><title>Node1&#45;&gt;Node5</title>
<path fill="none" stroke="midnightblue" d="M249.897,-64.6759C290.119,-53.1144 351.646,-35.429 387.897,-25.0091"/>
<polygon fill="midnightblue" stroke="midnightblue" points="248.802,-61.3487 240.158,-67.4751 250.736,-68.0763 248.802,-61.3487"/>
</g>
</g>
</svg>
