<?xml version="1.0" encoding="UTF-8" standalone="no"?>
<!DOCTYPE svg PUBLIC "-//W3C//DTD SVG 1.1//EN"
 "http://www.w3.org/Graphics/SVG/1.1/DTD/svg11.dtd">
<!-- Generated by graphviz version 2.38.0 (20140413.2041)
 -->
<!-- Title: Bsp/RP2040/Pico/gcc/Api.h Pages: 1 -->
<svg width="366pt" height="95pt"
 viewBox="0.00 0.00 366.00 95.00" xmlns="http://www.w3.org/2000/svg" xmlns:xlink="http://www.w3.org/1999/xlink">
<g id="graph0" class="graph" transform="scale(1 1) rotate(0) translate(4 91)">
<title>Bsp/RP2040/Pico/gcc/Api.h</title>
<polygon fill="white" stroke="none" points="-4,4 -4,-91 362,-91 362,4 -4,4"/>
<!-- Node1 -->
<g id="node1" class="node"><title>Node1</title>
<g id="a_node1"><a xlink:title="This BSP is developed/build with a &#39;just&#45;in&#45;time&#39; approach.">
<polygon fill="#bfbfbf" stroke="black" points="123,-56.5 123,-86.5 236,-86.5 236,-56.5 123,-56.5"/>
<text text-anchor="start" x="131" y="-74.5" font-family="Helvetica,sans-Serif" font-size="10.00">Bsp/RP2040/Pico/gcc</text>
<text text-anchor="middle" x="179.5" y="-63.5" font-family="Helvetica,sans-Serif" font-size="10.00">/Api.h</text>
</a>
</g>
</g>
<!-- Node2 -->
<g id="node2" class="node"><title>Node2</title>
<g id="a_node2"><a xlink:title=" ">
<polygon fill="white" stroke="#bfbfbf" points="0,-0.5 0,-19.5 85,-19.5 85,-0.5 0,-0.5"/>
<text text-anchor="middle" x="42.5" y="-7.5" font-family="Helvetica,sans-Serif" font-size="10.00">colony_config.h</text>
</a>
</g>
</g>
<!-- Node1&#45;&gt;Node2 -->
<g id="edge1" class="edge"><title>Node1&#45;&gt;Node2</title>
<path fill="none" stroke="midnightblue" d="M147.033,-56.3993C124.149,-46.4608 93.7655,-33.2649 71.6556,-23.6625"/>
<polygon fill="midnightblue" stroke="midnightblue" points="73.0013,-20.4311 62.4347,-19.6578 70.2127,-26.8517 73.0013,-20.4311"/>
</g>
<!-- Node3 -->
<g id="node3" class="node"><title>Node3</title>
<g id="a_node3"><a xlink:title=" ">
<polygon fill="white" stroke="#bfbfbf" points="103,-0.5 103,-19.5 170,-19.5 170,-0.5 103,-0.5"/>
<text text-anchor="middle" x="136.5" y="-7.5" font-family="Helvetica,sans-Serif" font-size="10.00">pico/sync.h</text>
</a>
</g>
</g>
<!-- Node1&#45;&gt;Node3 -->
<g id="edge2" class="edge"><title>Node1&#45;&gt;Node3</title>
<path fill="none" stroke="midnightblue" d="M169.31,-56.3993C163.126,-47.8424 155.197,-36.8708 148.682,-27.857"/>
<polygon fill="midnightblue" stroke="midnightblue" points="151.451,-25.7127 142.757,-19.6578 145.778,-29.8129 151.451,-25.7127"/>
</g>
<!-- Node4 -->
<g id="node4" class="node"><title>Node4</title>
<g id="a_node4"><a xlink:title=" ">
<polygon fill="white" stroke="#bfbfbf" points="188,-0.5 188,-19.5 257,-19.5 257,-0.5 188,-0.5"/>
<text text-anchor="middle" x="222.5" y="-7.5" font-family="Helvetica,sans-Serif" font-size="10.00">pico/stdlib.h</text>
</a>
</g>
</g>
<!-- Node1&#45;&gt;Node4 -->
<g id="edge3" class="edge"><title>Node1&#45;&gt;Node4</title>
<path fill="none" stroke="midnightblue" d="M189.69,-56.3993C195.874,-47.8424 203.803,-36.8708 210.318,-27.857"/>
<polygon fill="midnightblue" stroke="midnightblue" points="213.222,-29.8129 216.243,-19.6578 207.549,-25.7127 213.222,-29.8129"/>
</g>
<!-- Node5 -->
<g id="node5" class="node"><title>Node5</title>
<g id="a_node5"><a xlink:title=" ">
<polygon fill="white" stroke="#bfbfbf" points="275,-0.5 275,-19.5 358,-19.5 358,-0.5 275,-0.5"/>
<text text-anchor="middle" x="316.5" y="-7.5" font-family="Helvetica,sans-Serif" font-size="10.00">hardware/uart.h</text>
</a>
</g>
</g>
<!-- Node1&#45;&gt;Node5 -->
<g id="edge4" class="edge"><title>Node1&#45;&gt;Node5</title>
<path fill="none" stroke="midnightblue" d="M211.967,-56.3993C234.851,-46.4608 265.234,-33.2649 287.344,-23.6625"/>
<polygon fill="midnightblue" stroke="midnightblue" points="288.787,-26.8517 296.565,-19.6578 285.999,-20.4311 288.787,-26.8517"/>
</g>
</g>
</svg>
