<?xml version="1.0" encoding="UTF-8" standalone="no"?>
<!DOCTYPE svg PUBLIC "-//W3C//DTD SVG 1.1//EN"
 "http://www.w3.org/Graphics/SVG/1.1/DTD/svg11.dtd">
<!-- Generated by graphviz version 2.38.0 (20140413.2041)
 -->
<!-- Title: Cpl/Persistent/Chunk.h Pages: 1 -->
<svg width="790pt" height="285pt"
 viewBox="0.00 0.00 789.50 285.00" xmlns="http://www.w3.org/2000/svg" xmlns:xlink="http://www.w3.org/1999/xlink">
<g id="graph0" class="graph" transform="scale(1 1) rotate(0) translate(4 281)">
<title>Cpl/Persistent/Chunk.h</title>
<polygon fill="white" stroke="none" points="-4,4 -4,-281 785.5,-281 785.5,4 -4,4"/>
<!-- Node1 -->
<g id="node1" class="node"><title>Node1</title>
<g id="a_node1"><a xlink:title=" ">
<polygon fill="#bfbfbf" stroke="black" points="445,-257.5 445,-276.5 562,-276.5 562,-257.5 445,-257.5"/>
<text text-anchor="middle" x="503.5" y="-264.5" font-family="Helvetica,sans-Serif" font-size="10.00">Cpl/Persistent/Chunk.h</text>
</a>
</g>
</g>
<!-- Node2 -->
<g id="node2" class="node"><title>Node2</title>
<g id="a_node2"><a xlink:href="_dm_2_persistent_2_record_8h.html" target="_top" xlink:title=" ">
<polygon fill="white" stroke="black" points="127.5,-201.5 127.5,-220.5 265.5,-220.5 265.5,-201.5 127.5,-201.5"/>
<text text-anchor="middle" x="196.5" y="-208.5" font-family="Helvetica,sans-Serif" font-size="10.00">Cpl/Dm/Persistent/Record.h</text>
</a>
</g>
</g>
<!-- Node1&#45;&gt;Node2 -->
<g id="edge1" class="edge"><title>Node1&#45;&gt;Node2</title>
<path fill="none" stroke="midnightblue" d="M444.739,-255.664C386.722,-245.459 299.053,-230.039 244.917,-220.516"/>
<polygon fill="midnightblue" stroke="midnightblue" points="444.4,-259.158 454.855,-257.444 445.612,-252.264 444.4,-259.158"/>
</g>
<!-- Node6 -->
<g id="node6" class="node"><title>Node6</title>
<g id="a_node6"><a xlink:href="_crc_chunk_8h.html" target="_top" xlink:title=" ">
<polygon fill="white" stroke="black" points="283.5,-201.5 283.5,-220.5 415.5,-220.5 415.5,-201.5 283.5,-201.5"/>
<text text-anchor="middle" x="349.5" y="-208.5" font-family="Helvetica,sans-Serif" font-size="10.00">Cpl/Persistent/CrcChunk.h</text>
</a>
</g>
</g>
<!-- Node1&#45;&gt;Node6 -->
<g id="edge5" class="edge"><title>Node1&#45;&gt;Node6</title>
<path fill="none" stroke="midnightblue" d="M469.389,-254.039C440.413,-243.879 399.538,-229.546 373.788,-220.516"/>
<polygon fill="midnightblue" stroke="midnightblue" points="468.503,-257.437 479.098,-257.444 470.82,-250.832 468.503,-257.437"/>
</g>
<!-- Node7 -->
<g id="node7" class="node"><title>Node7</title>
<g id="a_node7"><a xlink:href="_data_record_8h.html" target="_top" xlink:title=" ">
<polygon fill="white" stroke="black" points="433.5,-201.5 433.5,-220.5 573.5,-220.5 573.5,-201.5 433.5,-201.5"/>
<text text-anchor="middle" x="503.5" y="-208.5" font-family="Helvetica,sans-Serif" font-size="10.00">Cpl/Persistent/DataRecord.h</text>
</a>
</g>
</g>
<!-- Node1&#45;&gt;Node7 -->
<g id="edge6" class="edge"><title>Node1&#45;&gt;Node7</title>
<path fill="none" stroke="midnightblue" d="M503.5,-246.805C503.5,-237.91 503.5,-227.78 503.5,-220.751"/>
<polygon fill="midnightblue" stroke="midnightblue" points="500,-247.083 503.5,-257.083 507,-247.083 500,-247.083"/>
</g>
<!-- Node9 -->
<g id="node9" class="node"><title>Node9</title>
<g id="a_node9"><a xlink:href="_indexed_entry_record_8h.html" target="_top" xlink:title=" ">
<polygon fill="white" stroke="black" points="482,-67.5 482,-97.5 621,-97.5 621,-67.5 482,-67.5"/>
<text text-anchor="start" x="490" y="-85.5" font-family="Helvetica,sans-Serif" font-size="10.00">Cpl/Persistent/IndexedEntry</text>
<text text-anchor="middle" x="551.5" y="-74.5" font-family="Helvetica,sans-Serif" font-size="10.00">Record.h</text>
</a>
</g>
</g>
<!-- Node1&#45;&gt;Node9 -->
<g id="edge10" class="edge"><title>Node1&#45;&gt;Node9</title>
<path fill="none" stroke="midnightblue" d="M542.705,-253.46C557.922,-246.457 573.764,-236.03 582.5,-221 601.931,-187.57 593.01,-171.211 582.5,-134 578.697,-120.536 570.186,-107.125 563.042,-97.5106"/>
<polygon fill="midnightblue" stroke="midnightblue" points="541.238,-250.28 533.381,-257.387 543.955,-256.731 541.238,-250.28"/>
</g>
<!-- Node11 -->
<g id="node11" class="node"><title>Node11</title>
<g id="a_node11"><a xlink:href="_mirrored_chunk_8h.html" target="_top" xlink:title=" ">
<polygon fill="white" stroke="black" points="629.5,-201.5 629.5,-220.5 781.5,-220.5 781.5,-201.5 629.5,-201.5"/>
<text text-anchor="middle" x="705.5" y="-208.5" font-family="Helvetica,sans-Serif" font-size="10.00">Cpl/Persistent/MirroredChunk.h</text>
</a>
</g>
</g>
<!-- Node1&#45;&gt;Node11 -->
<g id="edge11" class="edge"><title>Node1&#45;&gt;Node11</title>
<path fill="none" stroke="midnightblue" d="M545.288,-254.829C583.427,-244.633 638.981,-229.782 673.642,-220.516"/>
<polygon fill="midnightblue" stroke="midnightblue" points="544.264,-251.48 535.508,-257.444 546.072,-258.242 544.264,-251.48"/>
</g>
<!-- Node3 -->
<g id="node3" class="node"><title>Node3</title>
<g id="a_node3"><a xlink:href="_installer_record_8h_source.html" target="_top" xlink:title=" ">
<polygon fill="white" stroke="black" points="0,-134.5 0,-164.5 119,-164.5 119,-134.5 0,-134.5"/>
<text text-anchor="start" x="8" y="-152.5" font-family="Helvetica,sans-Serif" font-size="10.00">Storm/Thermostat/Main</text>
<text text-anchor="middle" x="59.5" y="-141.5" font-family="Helvetica,sans-Serif" font-size="10.00">/InstallerRecord.h</text>
</a>
</g>
</g>
<!-- Node2&#45;&gt;Node3 -->
<g id="edge2" class="edge"><title>Node2&#45;&gt;Node3</title>
<path fill="none" stroke="midnightblue" d="M167.628,-197.461C145.437,-187.823 114.79,-174.513 91.7882,-164.523"/>
<polygon fill="midnightblue" stroke="midnightblue" points="166.305,-200.702 176.871,-201.475 169.093,-194.281 166.305,-200.702"/>
</g>
<!-- Node4 -->
<g id="node4" class="node"><title>Node4</title>
<g id="a_node4"><a xlink:href="_run_time_record_8h_source.html" target="_top" xlink:title=" ">
<polygon fill="white" stroke="black" points="137,-134.5 137,-164.5 256,-164.5 256,-134.5 137,-134.5"/>
<text text-anchor="start" x="145" y="-152.5" font-family="Helvetica,sans-Serif" font-size="10.00">Storm/Thermostat/Main</text>
<text text-anchor="middle" x="196.5" y="-141.5" font-family="Helvetica,sans-Serif" font-size="10.00">/RunTimeRecord.h</text>
</a>
</g>
</g>
<!-- Node2&#45;&gt;Node4 -->
<g id="edge3" class="edge"><title>Node2&#45;&gt;Node4</title>
<path fill="none" stroke="midnightblue" d="M196.5,-191.235C196.5,-182.586 196.5,-172.497 196.5,-164.523"/>
<polygon fill="midnightblue" stroke="midnightblue" points="193,-191.475 196.5,-201.475 200,-191.475 193,-191.475"/>
</g>
<!-- Node5 -->
<g id="node5" class="node"><title>Node5</title>
<g id="a_node5"><a xlink:href="_user_record_8h_source.html" target="_top" xlink:title=" ">
<polygon fill="white" stroke="black" points="274,-134.5 274,-164.5 393,-164.5 393,-134.5 274,-134.5"/>
<text text-anchor="start" x="282" y="-152.5" font-family="Helvetica,sans-Serif" font-size="10.00">Storm/Thermostat/Main</text>
<text text-anchor="middle" x="333.5" y="-141.5" font-family="Helvetica,sans-Serif" font-size="10.00">/UserRecord.h</text>
</a>
</g>
</g>
<!-- Node2&#45;&gt;Node5 -->
<g id="edge4" class="edge"><title>Node2&#45;&gt;Node5</title>
<path fill="none" stroke="midnightblue" d="M225.372,-197.461C247.563,-187.823 278.21,-174.513 301.212,-164.523"/>
<polygon fill="midnightblue" stroke="midnightblue" points="223.907,-194.281 216.129,-201.475 226.695,-200.702 223.907,-194.281"/>
</g>
<!-- Node8 -->
<g id="node8" class="node"><title>Node8</title>
<g id="a_node8"><a xlink:href="_index_record_8h.html" target="_top" xlink:title=" ">
<polygon fill="white" stroke="black" points="429.5,-140 429.5,-159 573.5,-159 573.5,-140 429.5,-140"/>
<text text-anchor="middle" x="501.5" y="-147" font-family="Helvetica,sans-Serif" font-size="10.00">Cpl/Persistent/IndexRecord.h</text>
</a>
</g>
</g>
<!-- Node7&#45;&gt;Node8 -->
<g id="edge7" class="edge"><title>Node7&#45;&gt;Node8</title>
<path fill="none" stroke="midnightblue" d="M502.872,-191.317C502.508,-180.496 502.068,-167.398 501.786,-159.009"/>
<polygon fill="midnightblue" stroke="midnightblue" points="499.379,-191.598 503.213,-201.475 506.375,-191.363 499.379,-191.598"/>
</g>
<!-- Node8&#45;&gt;Node9 -->
<g id="edge8" class="edge"><title>Node8&#45;&gt;Node9</title>
<path fill="none" stroke="midnightblue" d="M514.444,-131.673C522.582,-121.094 532.96,-107.602 540.662,-97.589"/>
<polygon fill="midnightblue" stroke="midnightblue" points="511.566,-129.674 508.243,-139.734 517.115,-133.942 511.566,-129.674"/>
</g>
<!-- Node10 -->
<g id="node10" class="node"><title>Node10</title>
<g id="a_node10"><a xlink:href="_indexed_entry_server_8h.html" target="_top" xlink:title=" ">
<polygon fill="white" stroke="black" points="482,-0.5 482,-30.5 621,-30.5 621,-0.5 482,-0.5"/>
<text text-anchor="start" x="490" y="-18.5" font-family="Helvetica,sans-Serif" font-size="10.00">Cpl/Persistent/IndexedEntry</text>
<text text-anchor="middle" x="551.5" y="-7.5" font-family="Helvetica,sans-Serif" font-size="10.00">Server.h</text>
</a>
</g>
</g>
<!-- Node9&#45;&gt;Node10 -->
<g id="edge9" class="edge"><title>Node9&#45;&gt;Node10</title>
<path fill="none" stroke="midnightblue" d="M551.5,-57.1081C551.5,-48.1539 551.5,-38.3227 551.5,-30.5765"/>
<polygon fill="midnightblue" stroke="midnightblue" points="548,-57.3959 551.5,-67.396 555,-57.396 548,-57.3959"/>
</g>
</g>
</svg>
