<?xml version="1.0" encoding="UTF-8" standalone="no"?>
<!DOCTYPE svg PUBLIC "-//W3C//DTD SVG 1.1//EN"
 "http://www.w3.org/Graphics/SVG/1.1/DTD/svg11.dtd">
<!-- Generated by graphviz version 2.38.0 (20140413.2041)
 -->
<!-- Title: Cpl/TShell/Cmd/Command.h Pages: 1 -->
<svg width="942pt" height="151pt"
 viewBox="0.00 0.00 941.50 151.00" xmlns="http://www.w3.org/2000/svg" xmlns:xlink="http://www.w3.org/1999/xlink">
<g id="graph0" class="graph" transform="scale(1 1) rotate(0) translate(4 147)">
<title>Cpl/TShell/Cmd/Command.h</title>
<polygon fill="white" stroke="none" points="-4,4 -4,-147 937.5,-147 937.5,4 -4,4"/>
<!-- Node1 -->
<g id="node1" class="node"><title>Node1</title>
<g id="a_node1"><a xlink:title=" ">
<polygon fill="#bfbfbf" stroke="black" points="381,-123.5 381,-142.5 521,-142.5 521,-123.5 381,-123.5"/>
<text text-anchor="middle" x="451" y="-130.5" font-family="Helvetica,sans-Serif" font-size="10.00">Cpl/TShell/Cmd/Command.h</text>
</a>
</g>
</g>
<!-- Node2 -->
<g id="node2" class="node"><title>Node2</title>
<g id="a_node2"><a xlink:href="_dm_8h.html" target="_top" xlink:title=" ">
<polygon fill="white" stroke="black" points="0,-67.5 0,-86.5 106,-86.5 106,-67.5 0,-67.5"/>
<text text-anchor="middle" x="53" y="-74.5" font-family="Helvetica,sans-Serif" font-size="10.00">Cpl/Dm/TShell/Dm.h</text>
</a>
</g>
</g>
<!-- Node1&#45;&gt;Node2 -->
<g id="edge1" class="edge"><title>Node1&#45;&gt;Node2</title>
<path fill="none" stroke="midnightblue" d="M376.27,-122.144C308.363,-113.144 205.429,-99.394 116,-87 112.826,-86.5602 109.563,-86.1045 106.272,-85.6422"/>
<polygon fill="midnightblue" stroke="midnightblue" points="376.071,-125.648 386.444,-123.491 376.99,-118.708 376.071,-125.648"/>
</g>
<!-- Node3 -->
<g id="node3" class="node"><title>Node3</title>
<g id="a_node3"><a xlink:href="_bye_8h.html" target="_top" xlink:title=" ">
<polygon fill="white" stroke="black" points="124.5,-67.5 124.5,-86.5 237.5,-86.5 237.5,-67.5 124.5,-67.5"/>
<text text-anchor="middle" x="181" y="-74.5" font-family="Helvetica,sans-Serif" font-size="10.00">Cpl/TShell/Cmd/Bye.h</text>
</a>
</g>
</g>
<!-- Node1&#45;&gt;Node3 -->
<g id="edge2" class="edge"><title>Node1&#45;&gt;Node3</title>
<path fill="none" stroke="midnightblue" d="M398.367,-121.473C347.339,-111.268 270.897,-95.9794 223.582,-86.5164"/>
<polygon fill="midnightblue" stroke="midnightblue" points="397.725,-124.914 408.218,-123.444 399.098,-118.05 397.725,-124.914"/>
</g>
<!-- Node4 -->
<g id="node4" class="node"><title>Node4</title>
<g id="a_node4"><a xlink:href="_help_8h.html" target="_top" xlink:title=" ">
<polygon fill="white" stroke="black" points="256,-67.5 256,-86.5 372,-86.5 372,-67.5 256,-67.5"/>
<text text-anchor="middle" x="314" y="-74.5" font-family="Helvetica,sans-Serif" font-size="10.00">Cpl/TShell/Cmd/Help.h</text>
</a>
</g>
</g>
<!-- Node1&#45;&gt;Node4 -->
<g id="edge3" class="edge"><title>Node1&#45;&gt;Node4</title>
<path fill="none" stroke="midnightblue" d="M419.977,-119.772C394.243,-109.629 358.314,-95.4669 335.606,-86.5164"/>
<polygon fill="midnightblue" stroke="midnightblue" points="418.705,-123.033 429.292,-123.444 421.272,-116.52 418.705,-123.033"/>
</g>
<!-- Node5 -->
<g id="node5" class="node"><title>Node5</title>
<g id="a_node5"><a xlink:href="_t_print_8h.html" target="_top" xlink:title=" ">
<polygon fill="white" stroke="black" points="390,-67.5 390,-86.5 512,-86.5 512,-67.5 390,-67.5"/>
<text text-anchor="middle" x="451" y="-74.5" font-family="Helvetica,sans-Serif" font-size="10.00">Cpl/TShell/Cmd/TPrint.h</text>
</a>
</g>
</g>
<!-- Node1&#45;&gt;Node5 -->
<g id="edge4" class="edge"><title>Node1&#45;&gt;Node5</title>
<path fill="none" stroke="midnightblue" d="M451,-112.805C451,-103.91 451,-93.7798 451,-86.7511"/>
<polygon fill="midnightblue" stroke="midnightblue" points="447.5,-113.083 451,-123.083 454.5,-113.083 447.5,-113.083"/>
</g>
<!-- Node6 -->
<g id="node6" class="node"><title>Node6</title>
<g id="a_node6"><a xlink:href="_threads_8h.html" target="_top" xlink:title=" ">
<polygon fill="white" stroke="black" points="530.5,-67.5 530.5,-86.5 661.5,-86.5 661.5,-67.5 530.5,-67.5"/>
<text text-anchor="middle" x="596" y="-74.5" font-family="Helvetica,sans-Serif" font-size="10.00">Cpl/TShell/Cmd/Threads.h</text>
</a>
</g>
</g>
<!-- Node1&#45;&gt;Node6 -->
<g id="edge5" class="edge"><title>Node1&#45;&gt;Node6</title>
<path fill="none" stroke="midnightblue" d="M483.475,-119.906C510.736,-109.754 548.992,-95.5063 573.132,-86.5164"/>
<polygon fill="midnightblue" stroke="midnightblue" points="482.125,-116.674 473.976,-123.444 484.568,-123.233 482.125,-116.674"/>
</g>
<!-- Node9 -->
<g id="node9" class="node"><title>Node9</title>
<g id="a_node9"><a xlink:href="_tick_8h.html" target="_top" xlink:title=" ">
<polygon fill="white" stroke="black" points="679.5,-67.5 679.5,-86.5 794.5,-86.5 794.5,-67.5 679.5,-67.5"/>
<text text-anchor="middle" x="737" y="-74.5" font-family="Helvetica,sans-Serif" font-size="10.00">Cpl/TShell/Cmd/Tick.h</text>
</a>
</g>
</g>
<!-- Node1&#45;&gt;Node9 -->
<g id="edge8" class="edge"><title>Node1&#45;&gt;Node9</title>
<path fill="none" stroke="midnightblue" d="M506.414,-121.537C560.466,-111.332 641.671,-95.9992 691.894,-86.5164"/>
<polygon fill="midnightblue" stroke="midnightblue" points="505.495,-118.149 496.318,-123.444 506.793,-125.027 505.495,-118.149"/>
</g>
<!-- Node10 -->
<g id="node10" class="node"><title>Node10</title>
<g id="a_node10"><a xlink:href="_t_shell_2_cmd_2_trace_8h.html" target="_top" xlink:title=" ">
<polygon fill="white" stroke="black" points="812.5,-67.5 812.5,-86.5 933.5,-86.5 933.5,-67.5 812.5,-67.5"/>
<text text-anchor="middle" x="873" y="-74.5" font-family="Helvetica,sans-Serif" font-size="10.00">Cpl/TShell/Cmd/Trace.h</text>
</a>
</g>
</g>
<!-- Node1&#45;&gt;Node10 -->
<g id="edge9" class="edge"><title>Node1&#45;&gt;Node10</title>
<path fill="none" stroke="midnightblue" d="M528.626,-122.17C600.154,-113.097 709.244,-99.2194 804,-87 806.756,-86.6446 809.573,-86.2805 812.419,-85.912"/>
<polygon fill="midnightblue" stroke="midnightblue" points="527.831,-118.743 518.351,-123.473 528.712,-125.687 527.831,-118.743"/>
</g>
<!-- Node7 -->
<g id="node7" class="node"><title>Node7</title>
<g id="a_node7"><a xlink:href="_free_r_t_o_s_2_threads_8h.html" target="_top" xlink:title=" ">
<polygon fill="white" stroke="black" points="457,-0.5 457,-30.5 591,-30.5 591,-0.5 457,-0.5"/>
<text text-anchor="start" x="465" y="-18.5" font-family="Helvetica,sans-Serif" font-size="10.00">Cpl/TShell/Cmd/FreeRTOS</text>
<text text-anchor="middle" x="524" y="-7.5" font-family="Helvetica,sans-Serif" font-size="10.00">/Threads.h</text>
</a>
</g>
</g>
<!-- Node6&#45;&gt;Node7 -->
<g id="edge6" class="edge"><title>Node6&#45;&gt;Node7</title>
<path fill="none" stroke="midnightblue" d="M577.754,-60.9215C566.449,-51.579 552.027,-39.6616 540.969,-30.523"/>
<polygon fill="midnightblue" stroke="midnightblue" points="575.746,-63.8028 585.684,-67.4751 580.205,-58.4069 575.746,-63.8028"/>
</g>
<!-- Node8 -->
<g id="node8" class="node"><title>Node8</title>
<g id="a_node8"><a xlink:href="_win32_2_threads_8h.html" target="_top" xlink:title=" ">
<polygon fill="white" stroke="black" points="609.5,-0.5 609.5,-30.5 724.5,-30.5 724.5,-0.5 609.5,-0.5"/>
<text text-anchor="start" x="617.5" y="-18.5" font-family="Helvetica,sans-Serif" font-size="10.00">Cpl/TShell/Cmd/Win32</text>
<text text-anchor="middle" x="667" y="-7.5" font-family="Helvetica,sans-Serif" font-size="10.00">/Threads.h</text>
</a>
</g>
</g>
<!-- Node6&#45;&gt;Node8 -->
<g id="edge7" class="edge"><title>Node6&#45;&gt;Node8</title>
<path fill="none" stroke="midnightblue" d="M613.993,-60.9215C625.141,-51.579 639.362,-39.6616 650.267,-30.523"/>
<polygon fill="midnightblue" stroke="midnightblue" points="611.589,-58.3694 606.173,-67.4751 616.085,-63.7346 611.589,-58.3694"/>
</g>
</g>
</svg>
