<?xml version="1.0" encoding="UTF-8" standalone="no"?>
<!DOCTYPE svg PUBLIC "-//W3C//DTD SVG 1.1//EN"
 "http://www.w3.org/Graphics/SVG/1.1/DTD/svg11.dtd">
<!-- Generated by graphviz version 2.38.0 (20140413.2041)
 -->
<!-- Title: Cpl/TShell/Cmd/Command.h Pages: 1 -->
<svg width="1621pt" height="162pt"
 viewBox="0.00 0.00 1620.50 162.00" xmlns="http://www.w3.org/2000/svg" xmlns:xlink="http://www.w3.org/1999/xlink">
<g id="graph0" class="graph" transform="scale(1 1) rotate(0) translate(4 158)">
<title>Cpl/TShell/Cmd/Command.h</title>
<polygon fill="white" stroke="none" points="-4,4 -4,-158 1616.5,-158 1616.5,4 -4,4"/>
<!-- Node1 -->
<g id="node1" class="node"><title>Node1</title>
<g id="a_node1"><a xlink:title=" ">
<polygon fill="#bfbfbf" stroke="black" points="735,-134.5 735,-153.5 875,-153.5 875,-134.5 735,-134.5"/>
<text text-anchor="middle" x="805" y="-141.5" font-family="Helvetica,sans-Serif" font-size="10.00">Cpl/TShell/Cmd/Command.h</text>
</a>
</g>
</g>
<!-- Node2 -->
<g id="node2" class="node"><title>Node2</title>
<g id="a_node2"><a xlink:href="_dm_8h.html" target="_top" xlink:title=" ">
<polygon fill="white" stroke="black" points="0,-73 0,-92 106,-92 106,-73 0,-73"/>
<text text-anchor="middle" x="53" y="-80" font-family="Helvetica,sans-Serif" font-size="10.00">Cpl/Dm/TShell/Dm.h</text>
</a>
</g>
</g>
<!-- Node1&#45;&gt;Node2 -->
<g id="edge1" class="edge"><title>Node1&#45;&gt;Node2</title>
<path fill="none" stroke="midnightblue" d="M724.488,-141.935C595.428,-139.288 334.537,-130.072 116,-98 106.006,-96.5333 95.2524,-94.3057 85.5086,-92.0335"/>
<polygon fill="midnightblue" stroke="midnightblue" points="724.612,-145.438 734.679,-142.136 724.75,-138.439 724.612,-145.438"/>
</g>
<!-- Node3 -->
<g id="node3" class="node"><title>Node3</title>
<g id="a_node3"><a xlink:href="_bye_8h.html" target="_top" xlink:title=" ">
<polygon fill="white" stroke="black" points="124.5,-73 124.5,-92 237.5,-92 237.5,-73 124.5,-73"/>
<text text-anchor="middle" x="181" y="-80" font-family="Helvetica,sans-Serif" font-size="10.00">Cpl/TShell/Cmd/Bye.h</text>
</a>
</g>
</g>
<!-- Node1&#45;&gt;Node3 -->
<g id="edge2" class="edge"><title>Node1&#45;&gt;Node3</title>
<path fill="none" stroke="midnightblue" d="M724.375,-139.936C615.534,-135.017 415.776,-123.226 247,-98 236.79,-96.4739 225.8,-94.2836 215.773,-92.0661"/>
<polygon fill="midnightblue" stroke="midnightblue" points="724.475,-143.444 734.621,-140.391 724.786,-136.451 724.475,-143.444"/>
</g>
<!-- Node4 -->
<g id="node4" class="node"><title>Node4</title>
<g id="a_node4"><a xlink:href="_help_8h.html" target="_top" xlink:title=" ">
<polygon fill="white" stroke="black" points="256,-73 256,-92 372,-92 372,-73 256,-73"/>
<text text-anchor="middle" x="314" y="-80" font-family="Helvetica,sans-Serif" font-size="10.00">Cpl/TShell/Cmd/Help.h</text>
</a>
</g>
</g>
<!-- Node1&#45;&gt;Node4 -->
<g id="edge3" class="edge"><title>Node1&#45;&gt;Node4</title>
<path fill="none" stroke="midnightblue" d="M724.761,-137.067C639.242,-130.142 500.041,-117.142 381,-98 370.895,-96.3751 360.018,-94.2055 350.028,-92.0406"/>
<polygon fill="midnightblue" stroke="midnightblue" points="724.671,-140.571 734.919,-137.882 725.231,-133.594 724.671,-140.571"/>
</g>
<!-- Node5 -->
<g id="node5" class="node"><title>Node5</title>
<g id="a_node5"><a xlink:href="_t_print_8h.html" target="_top" xlink:title=" ">
<polygon fill="white" stroke="black" points="390,-73 390,-92 512,-92 512,-73 390,-73"/>
<text text-anchor="middle" x="451" y="-80" font-family="Helvetica,sans-Serif" font-size="10.00">Cpl/TShell/Cmd/TPrint.h</text>
</a>
</g>
</g>
<!-- Node1&#45;&gt;Node5 -->
<g id="edge4" class="edge"><title>Node1&#45;&gt;Node5</title>
<path fill="none" stroke="midnightblue" d="M736.565,-132.976C679.161,-124.362 595.075,-111.265 522,-98 511.973,-96.1799 501.184,-94.0599 491.118,-92.0121"/>
<polygon fill="midnightblue" stroke="midnightblue" points="736.201,-136.46 746.608,-134.478 737.236,-129.537 736.201,-136.46"/>
</g>
<!-- Node6 -->
<g id="node6" class="node"><title>Node6</title>
<g id="a_node6"><a xlink:href="_threads_8h.html" target="_top" xlink:title=" ">
<polygon fill="white" stroke="black" points="530.5,-73 530.5,-92 661.5,-92 661.5,-73 530.5,-73"/>
<text text-anchor="middle" x="596" y="-80" font-family="Helvetica,sans-Serif" font-size="10.00">Cpl/TShell/Cmd/Threads.h</text>
</a>
</g>
</g>
<!-- Node1&#45;&gt;Node6 -->
<g id="edge5" class="edge"><title>Node1&#45;&gt;Node6</title>
<path fill="none" stroke="midnightblue" d="M765.223,-131.676C724.612,-120.114 662.49,-102.429 625.889,-92.0091"/>
<polygon fill="midnightblue" stroke="midnightblue" points="764.479,-135.103 775.055,-134.475 766.396,-128.371 764.479,-135.103"/>
</g>
<!-- Node9 -->
<g id="node9" class="node"><title>Node9</title>
<g id="a_node9"><a xlink:href="_tick_8h.html" target="_top" xlink:title=" ">
<polygon fill="white" stroke="black" points="679.5,-73 679.5,-92 794.5,-92 794.5,-73 679.5,-73"/>
<text text-anchor="middle" x="737" y="-80" font-family="Helvetica,sans-Serif" font-size="10.00">Cpl/TShell/Cmd/Tick.h</text>
</a>
</g>
</g>
<!-- Node1&#45;&gt;Node9 -->
<g id="edge8" class="edge"><title>Node1&#45;&gt;Node9</title>
<path fill="none" stroke="midnightblue" d="M787.457,-127.65C774.492,-116.306 757.321,-101.281 746.725,-92.0091"/>
<polygon fill="midnightblue" stroke="midnightblue" points="785.427,-130.524 795.257,-134.475 790.036,-125.256 785.427,-130.524"/>
</g>
<!-- Node10 -->
<g id="node10" class="node"><title>Node10</title>
<g id="a_node10"><a xlink:href="_t_shell_2_cmd_2_trace_8h.html" target="_top" xlink:title=" ">
<polygon fill="white" stroke="black" points="812.5,-73 812.5,-92 933.5,-92 933.5,-73 812.5,-73"/>
<text text-anchor="middle" x="873" y="-80" font-family="Helvetica,sans-Serif" font-size="10.00">Cpl/TShell/Cmd/Trace.h</text>
</a>
</g>
</g>
<!-- Node1&#45;&gt;Node10 -->
<g id="edge9" class="edge"><title>Node1&#45;&gt;Node10</title>
<path fill="none" stroke="midnightblue" d="M822.543,-127.65C835.508,-116.306 852.679,-101.281 863.275,-92.0091"/>
<polygon fill="midnightblue" stroke="midnightblue" points="819.964,-125.256 814.743,-134.475 824.573,-130.524 819.964,-125.256"/>
</g>
<!-- Node11 -->
<g id="node11" class="node"><title>Node11</title>
<g id="a_node11"><a xlink:href="_state_8h.html" target="_top" xlink:title=" ">
<polygon fill="white" stroke="black" points="952,-73 952,-92 1060,-92 1060,-73 952,-73"/>
<text text-anchor="middle" x="1006" y="-80" font-family="Helvetica,sans-Serif" font-size="10.00">Storm/TShell/State.h</text>
</a>
</g>
</g>
<!-- Node1&#45;&gt;Node11 -->
<g id="edge10" class="edge"><title>Node1&#45;&gt;Node11</title>
<path fill="none" stroke="midnightblue" d="M843.752,-131.529C882.817,-119.965 942.204,-102.385 977.255,-92.0091"/>
<polygon fill="midnightblue" stroke="midnightblue" points="842.394,-128.281 833.798,-134.475 844.381,-134.993 842.394,-128.281"/>
</g>
<!-- Node12 -->
<g id="node12" class="node"><title>Node12</title>
<g id="a_node12"><a xlink:href="_user_8h.html" target="_top" xlink:title=" ">
<polygon fill="white" stroke="black" points="1078.5,-73 1078.5,-92 1183.5,-92 1183.5,-73 1078.5,-73"/>
<text text-anchor="middle" x="1131" y="-80" font-family="Helvetica,sans-Serif" font-size="10.00">Storm/TShell/User.h</text>
</a>
</g>
</g>
<!-- Node1&#45;&gt;Node12 -->
<g id="edge11" class="edge"><title>Node1&#45;&gt;Node12</title>
<path fill="none" stroke="midnightblue" d="M870.85,-132.917C924.384,-124.446 1001.78,-111.576 1069,-98 1077.89,-96.2055 1087.44,-94.0729 1096.32,-92.0029"/>
<polygon fill="midnightblue" stroke="midnightblue" points="870.14,-129.486 860.806,-134.499 871.229,-136.401 870.14,-129.486"/>
</g>
<!-- Node13 -->
<g id="node13" class="node"><title>Node13</title>
<g id="a_node13"><a xlink:href="_t_shell_2_white_box_8h.html" target="_top" xlink:title=" ">
<polygon fill="white" stroke="black" points="1201.5,-73 1201.5,-92 1328.5,-92 1328.5,-73 1201.5,-73"/>
<text text-anchor="middle" x="1265" y="-80" font-family="Helvetica,sans-Serif" font-size="10.00">Storm/TShell/WhiteBox.h</text>
</a>
</g>
</g>
<!-- Node1&#45;&gt;Node13 -->
<g id="edge12" class="edge"><title>Node1&#45;&gt;Node13</title>
<path fill="none" stroke="midnightblue" d="M885.656,-135.622C964.321,-127.96 1087.24,-114.753 1193,-98 1203.58,-96.3243 1214.97,-94.1871 1225.5,-92.0717"/>
<polygon fill="midnightblue" stroke="midnightblue" points="884.95,-132.174 875.333,-136.62 885.624,-139.141 884.95,-132.174"/>
</g>
<!-- Node14 -->
<g id="node14" class="node"><title>Node14</title>
<g id="a_node14"><a xlink:href="filter_8h.html" target="_top" xlink:title=" ">
<polygon fill="white" stroke="black" points="1347,-73 1347,-92 1451,-92 1451,-73 1347,-73"/>
<text text-anchor="middle" x="1399" y="-80" font-family="Helvetica,sans-Serif" font-size="10.00">Storm/TShell/filter.h</text>
</a>
</g>
</g>
<!-- Node1&#45;&gt;Node14 -->
<g id="edge13" class="edge"><title>Node1&#45;&gt;Node14</title>
<path fill="none" stroke="midnightblue" d="M885.429,-139.948C990.173,-135.12 1178.71,-123.51 1338,-98 1347.57,-96.468 1357.85,-94.2487 1367.2,-92.0051"/>
<polygon fill="midnightblue" stroke="midnightblue" points="885.08,-136.46 875.248,-140.408 885.396,-143.453 885.08,-136.46"/>
</g>
<!-- Node15 -->
<g id="node15" class="node"><title>Node15</title>
<g id="a_node15"><a xlink:href="_cmd_8h.html" target="_top" xlink:title=" ">
<polygon fill="white" stroke="black" points="1469.5,-67.5 1469.5,-97.5 1612.5,-97.5 1612.5,-67.5 1469.5,-67.5"/>
<text text-anchor="start" x="1477.5" y="-85.5" font-family="Helvetica,sans-Serif" font-size="10.00">Storm/Thermostat/SimHouse</text>
<text text-anchor="middle" x="1541" y="-74.5" font-family="Helvetica,sans-Serif" font-size="10.00">/Cmd.h</text>
</a>
</g>
</g>
<!-- Node1&#45;&gt;Node15 -->
<g id="edge14" class="edge"><title>Node1&#45;&gt;Node15</title>
<path fill="none" stroke="midnightblue" d="M885.179,-140.296C1008.91,-135.492 1253.69,-123.476 1460,-98 1462.98,-97.6323 1466.01,-97.2274 1469.07,-96.7938"/>
<polygon fill="midnightblue" stroke="midnightblue" points="884.892,-136.805 875.034,-140.685 885.16,-143.799 884.892,-136.805"/>
</g>
<!-- Node7 -->
<g id="node7" class="node"><title>Node7</title>
<g id="a_node7"><a xlink:href="_free_r_t_o_s_2_threads_8h.html" target="_top" xlink:title=" ">
<polygon fill="white" stroke="black" points="457,-0.5 457,-30.5 591,-30.5 591,-0.5 457,-0.5"/>
<text text-anchor="start" x="465" y="-18.5" font-family="Helvetica,sans-Serif" font-size="10.00">Cpl/TShell/Cmd/FreeRTOS</text>
<text text-anchor="middle" x="524" y="-7.5" font-family="Helvetica,sans-Serif" font-size="10.00">/Threads.h</text>
</a>
</g>
</g>
<!-- Node6&#45;&gt;Node7 -->
<g id="edge6" class="edge"><title>Node6&#45;&gt;Node7</title>
<path fill="none" stroke="midnightblue" d="M578.751,-65.928C566.844,-55.1788 551.141,-41.0024 539.606,-30.589"/>
<polygon fill="midnightblue" stroke="midnightblue" points="576.522,-68.6307 586.29,-72.7338 581.212,-63.4348 576.522,-68.6307"/>
</g>
<!-- Node8 -->
<g id="node8" class="node"><title>Node8</title>
<g id="a_node8"><a xlink:href="_win32_2_threads_8h.html" target="_top" xlink:title=" ">
<polygon fill="white" stroke="black" points="609.5,-0.5 609.5,-30.5 724.5,-30.5 724.5,-0.5 609.5,-0.5"/>
<text text-anchor="start" x="617.5" y="-18.5" font-family="Helvetica,sans-Serif" font-size="10.00">Cpl/TShell/Cmd/Win32</text>
<text text-anchor="middle" x="667" y="-7.5" font-family="Helvetica,sans-Serif" font-size="10.00">/Threads.h</text>
</a>
</g>
</g>
<!-- Node6&#45;&gt;Node8 -->
<g id="edge7" class="edge"><title>Node6&#45;&gt;Node8</title>
<path fill="none" stroke="midnightblue" d="M613.009,-65.928C624.751,-55.1788 640.236,-41.0024 651.61,-30.589"/>
<polygon fill="midnightblue" stroke="midnightblue" points="610.588,-63.3997 605.575,-72.7338 615.315,-68.5628 610.588,-63.3997"/>
</g>
</g>
</svg>
