<?xml version="1.0" encoding="UTF-8" standalone="no"?>
<!DOCTYPE svg PUBLIC "-//W3C//DTD SVG 1.1//EN"
 "http://www.w3.org/Graphics/SVG/1.1/DTD/svg11.dtd">
<!-- Generated by graphviz version 2.38.0 (20140413.2041)
 -->
<!-- Title: Cpl/TShell/Context_.h Pages: 1 -->
<svg width="1901pt" height="218pt"
 viewBox="0.00 0.00 1901.00 218.00" xmlns="http://www.w3.org/2000/svg" xmlns:xlink="http://www.w3.org/1999/xlink">
<g id="graph0" class="graph" transform="scale(1 1) rotate(0) translate(4 214)">
<title>Cpl/TShell/Context_.h</title>
<polygon fill="white" stroke="none" points="-4,4 -4,-214 1897,-214 1897,4 -4,4"/>
<!-- Node1 -->
<g id="node1" class="node"><title>Node1</title>
<g id="a_node1"><a xlink:title=" ">
<polygon fill="#bfbfbf" stroke="black" points="1221,-190.5 1221,-209.5 1333,-209.5 1333,-190.5 1221,-190.5"/>
<text text-anchor="middle" x="1277" y="-197.5" font-family="Helvetica,sans-Serif" font-size="10.00">Cpl/TShell/Context_.h</text>
</a>
</g>
</g>
<!-- Node2 -->
<g id="node2" class="node"><title>Node2</title>
<g id="a_node2"><a xlink:href="_cmd_2_command_8h.html" target="_top" xlink:title=" ">
<polygon fill="white" stroke="black" points="803,-134.5 803,-153.5 943,-153.5 943,-134.5 803,-134.5"/>
<text text-anchor="middle" x="873" y="-141.5" font-family="Helvetica,sans-Serif" font-size="10.00">Cpl/TShell/Cmd/Command.h</text>
</a>
</g>
</g>
<!-- Node1&#45;&gt;Node2 -->
<g id="edge1" class="edge"><title>Node1&#45;&gt;Node2</title>
<path fill="none" stroke="midnightblue" d="M1210.91,-190.166C1135.05,-180.026 1011.51,-163.513 936.681,-153.512"/>
<polygon fill="midnightblue" stroke="midnightblue" points="1210.45,-193.636 1220.83,-191.492 1211.38,-186.697 1210.45,-193.636"/>
</g>
<!-- Node17 -->
<g id="node17" class="node"><title>Node17</title>
<g id="a_node17"><a xlink:href="_processor_8h.html" target="_top" xlink:title=" ">
<polygon fill="white" stroke="black" points="1622.5,-134.5 1622.5,-153.5 1739.5,-153.5 1739.5,-134.5 1622.5,-134.5"/>
<text text-anchor="middle" x="1681" y="-141.5" font-family="Helvetica,sans-Serif" font-size="10.00">Cpl/TShell/Processor.h</text>
</a>
</g>
</g>
<!-- Node1&#45;&gt;Node17 -->
<g id="edge16" class="edge"><title>Node1&#45;&gt;Node17</title>
<path fill="none" stroke="midnightblue" d="M1343.32,-190.136C1420.92,-179.763 1548.22,-162.748 1622.36,-152.839"/>
<polygon fill="midnightblue" stroke="midnightblue" points="1342.62,-186.697 1333.17,-191.492 1343.55,-193.636 1342.62,-186.697"/>
</g>
<!-- Node3 -->
<g id="node3" class="node"><title>Node3</title>
<g id="a_node3"><a xlink:href="_dm_8h.html" target="_top" xlink:title=" ">
<polygon fill="white" stroke="black" points="0,-73 0,-92 106,-92 106,-73 0,-73"/>
<text text-anchor="middle" x="53" y="-80" font-family="Helvetica,sans-Serif" font-size="10.00">Cpl/Dm/TShell/Dm.h</text>
</a>
</g>
</g>
<!-- Node2&#45;&gt;Node3 -->
<g id="edge2" class="edge"><title>Node2&#45;&gt;Node3</title>
<path fill="none" stroke="midnightblue" d="M792.707,-142.715C653.843,-141.224 360.153,-133.678 115,-98 105.045,-96.5513 94.3337,-94.3003 84.661,-92.0005"/>
<polygon fill="midnightblue" stroke="midnightblue" points="792.804,-146.216 802.838,-142.816 792.874,-139.216 792.804,-146.216"/>
</g>
<!-- Node4 -->
<g id="node4" class="node"><title>Node4</title>
<g id="a_node4"><a xlink:href="_bye_8h.html" target="_top" xlink:title=" ">
<polygon fill="white" stroke="black" points="124.5,-73 124.5,-92 237.5,-92 237.5,-73 124.5,-73"/>
<text text-anchor="middle" x="181" y="-80" font-family="Helvetica,sans-Serif" font-size="10.00">Cpl/TShell/Cmd/Bye.h</text>
</a>
</g>
</g>
<!-- Node2&#45;&gt;Node4 -->
<g id="edge3" class="edge"><title>Node2&#45;&gt;Node4</title>
<path fill="none" stroke="midnightblue" d="M792.537,-140.931C672.986,-137.019 441.627,-126.224 247,-98 236.667,-96.5016 225.542,-94.2925 215.424,-92.0479"/>
<polygon fill="midnightblue" stroke="midnightblue" points="792.595,-144.434 802.702,-141.256 792.819,-137.438 792.595,-144.434"/>
</g>
<!-- Node5 -->
<g id="node5" class="node"><title>Node5</title>
<g id="a_node5"><a xlink:href="_help_8h.html" target="_top" xlink:title=" ">
<polygon fill="white" stroke="black" points="256,-73 256,-92 372,-92 372,-73 256,-73"/>
<text text-anchor="middle" x="314" y="-80" font-family="Helvetica,sans-Serif" font-size="10.00">Cpl/TShell/Cmd/Help.h</text>
</a>
</g>
</g>
<!-- Node2&#45;&gt;Node5 -->
<g id="edge4" class="edge"><title>Node2&#45;&gt;Node5</title>
<path fill="none" stroke="midnightblue" d="M792.503,-138.658C694.767,-132.692 525.116,-120.101 381,-98 370.766,-96.4305 359.749,-94.2531 349.665,-92.0623"/>
<polygon fill="midnightblue" stroke="midnightblue" points="792.412,-142.159 802.604,-139.267 792.833,-135.172 792.412,-142.159"/>
</g>
<!-- Node6 -->
<g id="node6" class="node"><title>Node6</title>
<g id="a_node6"><a xlink:href="_t_print_8h.html" target="_top" xlink:title=" ">
<polygon fill="white" stroke="black" points="390,-73 390,-92 512,-92 512,-73 390,-73"/>
<text text-anchor="middle" x="451" y="-80" font-family="Helvetica,sans-Serif" font-size="10.00">Cpl/TShell/Cmd/TPrint.h</text>
</a>
</g>
</g>
<!-- Node2&#45;&gt;Node6 -->
<g id="edge5" class="edge"><title>Node2&#45;&gt;Node6</title>
<path fill="none" stroke="midnightblue" d="M792.69,-134.518C721.176,-126.54 613.811,-113.521 521,-98 510.718,-96.2804 499.647,-94.1282 489.411,-92.0123"/>
<polygon fill="midnightblue" stroke="midnightblue" points="792.65,-138.035 802.975,-135.658 793.421,-131.077 792.65,-138.035"/>
</g>
<!-- Node7 -->
<g id="node7" class="node"><title>Node7</title>
<g id="a_node7"><a xlink:href="_threads_8h.html" target="_top" xlink:title=" ">
<polygon fill="white" stroke="black" points="530.5,-73 530.5,-92 661.5,-92 661.5,-73 530.5,-73"/>
<text text-anchor="middle" x="596" y="-80" font-family="Helvetica,sans-Serif" font-size="10.00">Cpl/TShell/Cmd/Threads.h</text>
</a>
</g>
</g>
<!-- Node2&#45;&gt;Node7 -->
<g id="edge6" class="edge"><title>Node2&#45;&gt;Node7</title>
<path fill="none" stroke="midnightblue" d="M823.328,-132.33C769.609,-120.792 685.048,-102.628 635.614,-92.0091"/>
<polygon fill="midnightblue" stroke="midnightblue" points="822.801,-135.797 833.313,-134.475 824.271,-128.953 822.801,-135.797"/>
</g>
<!-- Node10 -->
<g id="node10" class="node"><title>Node10</title>
<g id="a_node10"><a xlink:href="_tick_8h.html" target="_top" xlink:title=" ">
<polygon fill="white" stroke="black" points="679.5,-73 679.5,-92 794.5,-92 794.5,-73 679.5,-73"/>
<text text-anchor="middle" x="737" y="-80" font-family="Helvetica,sans-Serif" font-size="10.00">Cpl/TShell/Cmd/Tick.h</text>
</a>
</g>
</g>
<!-- Node2&#45;&gt;Node10 -->
<g id="edge9" class="edge"><title>Node2&#45;&gt;Node10</title>
<path fill="none" stroke="midnightblue" d="M844.034,-130.327C817.631,-118.776 779.358,-102.032 756.449,-92.0091"/>
<polygon fill="midnightblue" stroke="midnightblue" points="842.95,-133.673 853.515,-134.475 845.756,-127.26 842.95,-133.673"/>
</g>
<!-- Node11 -->
<g id="node11" class="node"><title>Node11</title>
<g id="a_node11"><a xlink:href="_t_shell_2_cmd_2_trace_8h.html" target="_top" xlink:title=" ">
<polygon fill="white" stroke="black" points="812.5,-73 812.5,-92 933.5,-92 933.5,-73 812.5,-73"/>
<text text-anchor="middle" x="873" y="-80" font-family="Helvetica,sans-Serif" font-size="10.00">Cpl/TShell/Cmd/Trace.h</text>
</a>
</g>
</g>
<!-- Node2&#45;&gt;Node11 -->
<g id="edge10" class="edge"><title>Node2&#45;&gt;Node11</title>
<path fill="none" stroke="midnightblue" d="M873,-124.317C873,-113.496 873,-100.398 873,-92.0091"/>
<polygon fill="midnightblue" stroke="midnightblue" points="869.5,-124.475 873,-134.475 876.5,-124.475 869.5,-124.475"/>
</g>
<!-- Node12 -->
<g id="node12" class="node"><title>Node12</title>
<g id="a_node12"><a xlink:href="_state_8h.html" target="_top" xlink:title=" ">
<polygon fill="white" stroke="black" points="952,-73 952,-92 1060,-92 1060,-73 952,-73"/>
<text text-anchor="middle" x="1006" y="-80" font-family="Helvetica,sans-Serif" font-size="10.00">Storm/TShell/State.h</text>
</a>
</g>
</g>
<!-- Node2&#45;&gt;Node12 -->
<g id="edge11" class="edge"><title>Node2&#45;&gt;Node12</title>
<path fill="none" stroke="midnightblue" d="M901.327,-130.327C927.147,-118.776 964.576,-102.032 986.98,-92.0091"/>
<polygon fill="midnightblue" stroke="midnightblue" points="899.755,-127.197 892.056,-134.475 902.613,-133.586 899.755,-127.197"/>
</g>
<!-- Node13 -->
<g id="node13" class="node"><title>Node13</title>
<g id="a_node13"><a xlink:href="_user_8h.html" target="_top" xlink:title=" ">
<polygon fill="white" stroke="black" points="1078.5,-73 1078.5,-92 1183.5,-92 1183.5,-73 1078.5,-73"/>
<text text-anchor="middle" x="1131" y="-80" font-family="Helvetica,sans-Serif" font-size="10.00">Storm/TShell/User.h</text>
</a>
</g>
</g>
<!-- Node2&#45;&gt;Node13 -->
<g id="edge12" class="edge"><title>Node2&#45;&gt;Node13</title>
<path fill="none" stroke="midnightblue" d="M920.518,-132.147C960.218,-123.066 1018.31,-109.746 1069,-98 1077.29,-96.0785 1086.21,-94.001 1094.62,-92.0354"/>
<polygon fill="midnightblue" stroke="midnightblue" points="919.553,-128.777 910.585,-134.418 921.114,-135.601 919.553,-128.777"/>
</g>
<!-- Node14 -->
<g id="node14" class="node"><title>Node14</title>
<g id="a_node14"><a xlink:href="_t_shell_2_white_box_8h.html" target="_top" xlink:title=" ">
<polygon fill="white" stroke="black" points="1201.5,-73 1201.5,-92 1328.5,-92 1328.5,-73 1201.5,-73"/>
<text text-anchor="middle" x="1265" y="-80" font-family="Helvetica,sans-Serif" font-size="10.00">Storm/TShell/WhiteBox.h</text>
</a>
</g>
</g>
<!-- Node2&#45;&gt;Node14 -->
<g id="edge13" class="edge"><title>Node2&#45;&gt;Node14</title>
<path fill="none" stroke="midnightblue" d="M951.434,-133.179C1016.12,-124.781 1110.22,-111.88 1192,-98 1202.45,-96.2272 1213.69,-94.1024 1224.15,-92.033"/>
<polygon fill="midnightblue" stroke="midnightblue" points="950.779,-129.735 941.311,-134.488 951.677,-136.677 950.779,-129.735"/>
</g>
<!-- Node15 -->
<g id="node15" class="node"><title>Node15</title>
<g id="a_node15"><a xlink:href="filter_8h.html" target="_top" xlink:title=" ">
<polygon fill="white" stroke="black" points="1347,-73 1347,-92 1451,-92 1451,-73 1347,-73"/>
<text text-anchor="middle" x="1399" y="-80" font-family="Helvetica,sans-Serif" font-size="10.00">Storm/TShell/filter.h</text>
</a>
</g>
</g>
<!-- Node2&#45;&gt;Node15 -->
<g id="edge14" class="edge"><title>Node2&#45;&gt;Node15</title>
<path fill="none" stroke="midnightblue" d="M953.294,-138.578C1046.33,-132.682 1204.01,-120.3 1338,-98 1347.45,-96.4273 1357.61,-94.2225 1366.88,-92.0059"/>
<polygon fill="midnightblue" stroke="midnightblue" points="952.871,-135.098 943.109,-139.214 953.307,-142.084 952.871,-135.098"/>
</g>
<!-- Node16 -->
<g id="node16" class="node"><title>Node16</title>
<g id="a_node16"><a xlink:href="_cmd_8h.html" target="_top" xlink:title=" ">
<polygon fill="white" stroke="black" points="1469.5,-67.5 1469.5,-97.5 1612.5,-97.5 1612.5,-67.5 1469.5,-67.5"/>
<text text-anchor="start" x="1477.5" y="-85.5" font-family="Helvetica,sans-Serif" font-size="10.00">Storm/Thermostat/SimHouse</text>
<text text-anchor="middle" x="1541" y="-74.5" font-family="Helvetica,sans-Serif" font-size="10.00">/Cmd.h</text>
</a>
</g>
</g>
<!-- Node2&#45;&gt;Node16 -->
<g id="edge15" class="edge"><title>Node2&#45;&gt;Node16</title>
<path fill="none" stroke="midnightblue" d="M953.581,-139.393C1066.95,-133.736 1279.83,-120.973 1460,-98 1462.98,-97.6205 1466.01,-97.2058 1469.07,-96.764"/>
<polygon fill="midnightblue" stroke="midnightblue" points="953.074,-135.914 943.259,-139.903 953.419,-142.906 953.074,-135.914"/>
</g>
<!-- Node8 -->
<g id="node8" class="node"><title>Node8</title>
<g id="a_node8"><a xlink:href="_free_r_t_o_s_2_threads_8h.html" target="_top" xlink:title=" ">
<polygon fill="white" stroke="black" points="457,-0.5 457,-30.5 591,-30.5 591,-0.5 457,-0.5"/>
<text text-anchor="start" x="465" y="-18.5" font-family="Helvetica,sans-Serif" font-size="10.00">Cpl/TShell/Cmd/FreeRTOS</text>
<text text-anchor="middle" x="524" y="-7.5" font-family="Helvetica,sans-Serif" font-size="10.00">/Threads.h</text>
</a>
</g>
</g>
<!-- Node7&#45;&gt;Node8 -->
<g id="edge7" class="edge"><title>Node7&#45;&gt;Node8</title>
<path fill="none" stroke="midnightblue" d="M578.751,-65.928C566.844,-55.1788 551.141,-41.0024 539.606,-30.589"/>
<polygon fill="midnightblue" stroke="midnightblue" points="576.522,-68.6307 586.29,-72.7338 581.212,-63.4348 576.522,-68.6307"/>
</g>
<!-- Node9 -->
<g id="node9" class="node"><title>Node9</title>
<g id="a_node9"><a xlink:href="_win32_2_threads_8h.html" target="_top" xlink:title=" ">
<polygon fill="white" stroke="black" points="609.5,-0.5 609.5,-30.5 724.5,-30.5 724.5,-0.5 609.5,-0.5"/>
<text text-anchor="start" x="617.5" y="-18.5" font-family="Helvetica,sans-Serif" font-size="10.00">Cpl/TShell/Cmd/Win32</text>
<text text-anchor="middle" x="667" y="-7.5" font-family="Helvetica,sans-Serif" font-size="10.00">/Threads.h</text>
</a>
</g>
</g>
<!-- Node7&#45;&gt;Node9 -->
<g id="edge8" class="edge"><title>Node7&#45;&gt;Node9</title>
<path fill="none" stroke="midnightblue" d="M613.009,-65.928C624.751,-55.1788 640.236,-41.0024 651.61,-30.589"/>
<polygon fill="midnightblue" stroke="midnightblue" points="610.588,-63.3997 605.575,-72.7338 615.315,-68.5628 610.588,-63.3997"/>
</g>
<!-- Node18 -->
<g id="node18" class="node"><title>Node18</title>
<g id="a_node18"><a xlink:href="_cpl_2_t_shell_2_maker_8h.html" target="_top" xlink:title=" ">
<polygon fill="white" stroke="black" points="1631,-73 1631,-92 1731,-92 1731,-73 1631,-73"/>
<text text-anchor="middle" x="1681" y="-80" font-family="Helvetica,sans-Serif" font-size="10.00">Cpl/TShell/Maker.h</text>
</a>
</g>
</g>
<!-- Node17&#45;&gt;Node18 -->
<g id="edge17" class="edge"><title>Node17&#45;&gt;Node18</title>
<path fill="none" stroke="midnightblue" d="M1681,-124.317C1681,-113.496 1681,-100.398 1681,-92.0091"/>
<polygon fill="midnightblue" stroke="midnightblue" points="1677.5,-124.475 1681,-134.475 1684.5,-124.475 1677.5,-124.475"/>
</g>
<!-- Node19 -->
<g id="node19" class="node"><title>Node19</title>
<g id="a_node19"><a xlink:href="_polled_processor_8h.html" target="_top" xlink:title=" ">
<polygon fill="white" stroke="black" points="1749,-73 1749,-92 1893,-92 1893,-73 1749,-73"/>
<text text-anchor="middle" x="1821" y="-80" font-family="Helvetica,sans-Serif" font-size="10.00">Cpl/TShell/PolledProcessor.h</text>
</a>
</g>
</g>
<!-- Node17&#45;&gt;Node19 -->
<g id="edge18" class="edge"><title>Node17&#45;&gt;Node19</title>
<path fill="none" stroke="midnightblue" d="M1710.46,-130.48C1737.65,-118.924 1777.29,-102.076 1800.98,-92.0091"/>
<polygon fill="midnightblue" stroke="midnightblue" points="1708.89,-127.342 1701.06,-134.475 1711.63,-133.785 1708.89,-127.342"/>
</g>
<!-- Node20 -->
<g id="node20" class="node"><title>Node20</title>
<g id="a_node20"><a xlink:href="_polled_maker_8h.html" target="_top" xlink:title=" ">
<polygon fill="white" stroke="black" points="1757.5,-6 1757.5,-25 1884.5,-25 1884.5,-6 1757.5,-6"/>
<text text-anchor="middle" x="1821" y="-13" font-family="Helvetica,sans-Serif" font-size="10.00">Cpl/TShell/PolledMaker.h</text>
</a>
</g>
</g>
<!-- Node19&#45;&gt;Node20 -->
<g id="edge19" class="edge"><title>Node19&#45;&gt;Node20</title>
<path fill="none" stroke="midnightblue" d="M1821,-62.537C1821,-50.1703 1821,-34.6198 1821,-25.1273"/>
<polygon fill="midnightblue" stroke="midnightblue" points="1817.5,-62.7338 1821,-72.7338 1824.5,-62.7338 1817.5,-62.7338"/>
</g>
</g>
</svg>
