<?xml version="1.0" encoding="UTF-8" standalone="no"?>
<!DOCTYPE svg PUBLIC "-//W3C//DTD SVG 1.1//EN"
 "http://www.w3.org/Graphics/SVG/1.1/DTD/svg11.dtd">
<!-- Generated by graphviz version 2.38.0 (20140413.2041)
 -->
<!-- Title: Cpl/System/RP2040/Console.h Pages: 1 -->
<svg width="540pt" height="364pt"
 viewBox="0.00 0.00 540.00 364.00" xmlns="http://www.w3.org/2000/svg" xmlns:xlink="http://www.w3.org/1999/xlink">
<g id="graph0" class="graph" transform="scale(1 1) rotate(0) translate(4 360)">
<title>Cpl/System/RP2040/Console.h</title>
<polygon fill="white" stroke="none" points="-4,4 -4,-360 536,-360 536,4 -4,4"/>
<!-- Node1 -->
<g id="node1" class="node"><title>Node1</title>
<g id="a_node1"><a xlink:title="This interface provides a &#39;Console&#39; replacement for SDK&#39;s stdio.">
<polygon fill="#bfbfbf" stroke="black" points="0,-336.5 0,-355.5 152,-355.5 152,-336.5 0,-336.5"/>
<text text-anchor="middle" x="76" y="-343.5" font-family="Helvetica,sans-Serif" font-size="10.00">Cpl/System/RP2040/Console.h</text>
</a>
</g>
</g>
<!-- Node2 -->
<g id="node2" class="node"><title>Node2</title>
<g id="a_node2"><a xlink:title=" ">
<polygon fill="white" stroke="#bfbfbf" points="33.5,-0.5 33.5,-19.5 118.5,-19.5 118.5,-0.5 33.5,-0.5"/>
<text text-anchor="middle" x="76" y="-7.5" font-family="Helvetica,sans-Serif" font-size="10.00">colony_config.h</text>
</a>
</g>
</g>
<!-- Node1&#45;&gt;Node2 -->
<g id="edge1" class="edge"><title>Node1&#45;&gt;Node2</title>
<path fill="none" stroke="midnightblue" d="M67.69,-336.411C51.6525,-318.887 18,-277.099 18,-235 18,-235 18,-235 18,-121 18,-84.1633 43.7652,-47.5652 60.9504,-27.2515"/>
<polygon fill="midnightblue" stroke="midnightblue" points="63.7134,-29.4097 67.69,-19.5894 58.4573,-24.7864 63.7134,-29.4097"/>
</g>
<!-- Node3 -->
<g id="node3" class="node"><title>Node3</title>
<g id="a_node3"><a xlink:href="_input_output_8h.html" target="_top" xlink:title=" ">
<polygon fill="white" stroke="black" points="217,-280.5 217,-299.5 321,-299.5 321,-280.5 217,-280.5"/>
<text text-anchor="middle" x="269" y="-287.5" font-family="Helvetica,sans-Serif" font-size="10.00">Cpl/Io/InputOutput.h</text>
</a>
</g>
</g>
<!-- Node1&#45;&gt;Node3 -->
<g id="edge2" class="edge"><title>Node1&#45;&gt;Node3</title>
<path fill="none" stroke="midnightblue" d="M106.581,-336.444C139.615,-327.201 192.388,-312.436 228.766,-302.257"/>
<polygon fill="midnightblue" stroke="midnightblue" points="229.875,-305.582 238.562,-299.516 227.988,-298.84 229.875,-305.582"/>
</g>
<!-- Node17 -->
<g id="node17" class="node"><title>Node17</title>
<g id="a_node17"><a xlink:href="_bsp_2_api_8h.html" target="_top" xlink:title="This file defines the common/generic interfaces that all Colony.">
<polygon fill="white" stroke="black" points="46.5,-112.5 46.5,-131.5 105.5,-131.5 105.5,-112.5 46.5,-112.5"/>
<text text-anchor="middle" x="76" y="-119.5" font-family="Helvetica,sans-Serif" font-size="10.00">Bsp/Api.h</text>
</a>
</g>
</g>
<!-- Node1&#45;&gt;Node17 -->
<g id="edge23" class="edge"><title>Node1&#45;&gt;Node17</title>
<path fill="none" stroke="midnightblue" d="M76,-336.297C76,-303.633 76,-187.866 76,-141.957"/>
<polygon fill="midnightblue" stroke="midnightblue" points="79.5001,-141.884 76,-131.884 72.5001,-141.884 79.5001,-141.884"/>
</g>
<!-- Node4 -->
<g id="node4" class="node"><title>Node4</title>
<g id="a_node4"><a xlink:href="_input_8h.html" target="_top" xlink:title=" ">
<polygon fill="white" stroke="black" points="330.5,-224.5 330.5,-243.5 405.5,-243.5 405.5,-224.5 330.5,-224.5"/>
<text text-anchor="middle" x="368" y="-231.5" font-family="Helvetica,sans-Serif" font-size="10.00">Cpl/Io/Input.h</text>
</a>
</g>
</g>
<!-- Node3&#45;&gt;Node4 -->
<g id="edge3" class="edge"><title>Node3&#45;&gt;Node4</title>
<path fill="none" stroke="midnightblue" d="M284.906,-280.324C300.638,-271.743 324.942,-258.486 343.209,-248.522"/>
<polygon fill="midnightblue" stroke="midnightblue" points="345.03,-251.516 352.133,-243.655 341.678,-245.37 345.03,-251.516"/>
</g>
<!-- Node16 -->
<g id="node16" class="node"><title>Node16</title>
<g id="a_node16"><a xlink:href="_output_8h.html" target="_top" xlink:title=" ">
<polygon fill="white" stroke="black" points="227.5,-224.5 227.5,-243.5 310.5,-243.5 310.5,-224.5 227.5,-224.5"/>
<text text-anchor="middle" x="269" y="-231.5" font-family="Helvetica,sans-Serif" font-size="10.00">Cpl/Io/Output.h</text>
</a>
</g>
</g>
<!-- Node3&#45;&gt;Node16 -->
<g id="edge18" class="edge"><title>Node3&#45;&gt;Node16</title>
<path fill="none" stroke="midnightblue" d="M269,-280.083C269,-273.006 269,-262.861 269,-253.986"/>
<polygon fill="midnightblue" stroke="midnightblue" points="272.5,-253.751 269,-243.751 265.5,-253.751 272.5,-253.751"/>
</g>
<!-- Node5 -->
<g id="node5" class="node"><title>Node5</title>
<g id="a_node5"><a xlink:href="_string_8h.html" target="_top" xlink:title=" ">
<polygon fill="white" stroke="black" points="223,-168.5 223,-187.5 313,-187.5 313,-168.5 223,-168.5"/>
<text text-anchor="middle" x="268" y="-175.5" font-family="Helvetica,sans-Serif" font-size="10.00">Cpl/Text/String.h</text>
</a>
</g>
</g>
<!-- Node4&#45;&gt;Node5 -->
<g id="edge4" class="edge"><title>Node4&#45;&gt;Node5</title>
<path fill="none" stroke="midnightblue" d="M351.933,-224.324C336.042,-215.743 311.493,-202.486 293.042,-192.522"/>
<polygon fill="midnightblue" stroke="midnightblue" points="294.489,-189.326 284.027,-187.655 291.163,-195.486 294.489,-189.326"/>
</g>
<!-- Node13 -->
<g id="node13" class="node"><title>Node13</title>
<g id="a_node13"><a xlink:href="_close_8h.html" target="_top" xlink:title=" ">
<polygon fill="white" stroke="black" points="331,-168.5 331,-187.5 409,-187.5 409,-168.5 331,-168.5"/>
<text text-anchor="middle" x="370" y="-175.5" font-family="Helvetica,sans-Serif" font-size="10.00">Cpl/Io/Close.h</text>
</a>
</g>
</g>
<!-- Node4&#45;&gt;Node13 -->
<g id="edge15" class="edge"><title>Node4&#45;&gt;Node13</title>
<path fill="none" stroke="midnightblue" d="M368.33,-224.083C368.592,-217.006 368.968,-206.861 369.297,-197.986"/>
<polygon fill="midnightblue" stroke="midnightblue" points="372.803,-197.874 369.676,-187.751 365.808,-197.615 372.803,-197.874"/>
</g>
<!-- Node15 -->
<g id="node15" class="node"><title>Node15</title>
<g id="a_node15"><a xlink:href="_is_eos_8h.html" target="_top" xlink:title=" ">
<polygon fill="white" stroke="black" points="427.5,-168.5 427.5,-187.5 506.5,-187.5 506.5,-168.5 427.5,-168.5"/>
<text text-anchor="middle" x="467" y="-175.5" font-family="Helvetica,sans-Serif" font-size="10.00">Cpl/Io/IsEos.h</text>
</a>
</g>
</g>
<!-- Node4&#45;&gt;Node15 -->
<g id="edge17" class="edge"><title>Node4&#45;&gt;Node15</title>
<path fill="none" stroke="midnightblue" d="M383.906,-224.324C399.638,-215.743 423.942,-202.486 442.209,-192.522"/>
<polygon fill="midnightblue" stroke="midnightblue" points="444.03,-195.516 451.133,-187.655 440.678,-189.37 444.03,-195.516"/>
</g>
<!-- Node6 -->
<g id="node6" class="node"><title>Node6</title>
<g id="a_node6"><a xlink:title=" ">
<polygon fill="white" stroke="#bfbfbf" points="134.5,-56.5 134.5,-75.5 211.5,-75.5 211.5,-56.5 134.5,-56.5"/>
<text text-anchor="middle" x="173" y="-63.5" font-family="Helvetica,sans-Serif" font-size="10.00">colony_map.h</text>
</a>
</g>
</g>
<!-- Node5&#45;&gt;Node6 -->
<g id="edge5" class="edge"><title>Node5&#45;&gt;Node6</title>
<path fill="none" stroke="midnightblue" d="M258.682,-168.366C249.326,-159.541 234.664,-145.284 223,-132 209.262,-116.354 194.902,-97.3702 185.115,-83.9693"/>
<polygon fill="midnightblue" stroke="midnightblue" points="187.827,-81.7477 179.133,-75.6931 182.154,-85.8481 187.827,-81.7477"/>
</g>
<!-- Node7 -->
<g id="node7" class="node"><title>Node7</title>
<g id="a_node7"><a xlink:href="_key_8h.html" target="_top" xlink:title=" ">
<polygon fill="white" stroke="black" points="232,-112.5 232,-131.5 336,-131.5 336,-112.5 232,-112.5"/>
<text text-anchor="middle" x="284" y="-119.5" font-family="Helvetica,sans-Serif" font-size="10.00">Cpl/Container/Key.h</text>
</a>
</g>
</g>
<!-- Node5&#45;&gt;Node7 -->
<g id="edge6" class="edge"><title>Node5&#45;&gt;Node7</title>
<path fill="none" stroke="midnightblue" d="M265.476,-168.083C266.1,-160.77 268.822,-150.181 272.223,-141.103"/>
<polygon fill="midnightblue" stroke="midnightblue" points="275.511,-142.318 276.276,-131.751 269.088,-139.535 275.511,-142.318"/>
</g>
<!-- Node11 -->
<g id="node11" class="node"><title>Node11</title>
<g id="a_node11"><a xlink:title=" ">
<polygon fill="white" stroke="#bfbfbf" points="124,-112.5 124,-131.5 176,-131.5 176,-112.5 124,-112.5"/>
<text text-anchor="middle" x="150" y="-119.5" font-family="Helvetica,sans-Serif" font-size="10.00">stdarg.h</text>
</a>
</g>
</g>
<!-- Node5&#45;&gt;Node11 -->
<g id="edge13" class="edge"><title>Node5&#45;&gt;Node11</title>
<path fill="none" stroke="midnightblue" d="M249.303,-168.444C230.056,-159.636 199.848,-145.812 177.8,-135.722"/>
<polygon fill="midnightblue" stroke="midnightblue" points="179.16,-132.495 168.61,-131.516 176.247,-138.86 179.16,-132.495"/>
</g>
<!-- Node12 -->
<g id="node12" class="node"><title>Node12</title>
<g id="a_node12"><a xlink:title=" ">
<polygon fill="white" stroke="#bfbfbf" points="354,-112.5 354,-131.5 408,-131.5 408,-112.5 354,-112.5"/>
<text text-anchor="middle" x="381" y="-119.5" font-family="Helvetica,sans-Serif" font-size="10.00">iostream</text>
</a>
</g>
</g>
<!-- Node5&#45;&gt;Node12 -->
<g id="edge14" class="edge"><title>Node5&#45;&gt;Node12</title>
<path fill="none" stroke="midnightblue" d="M285.905,-168.444C304.254,-159.675 333.005,-145.935 354.094,-135.858"/>
<polygon fill="midnightblue" stroke="midnightblue" points="355.665,-138.986 363.179,-131.516 352.647,-132.67 355.665,-138.986"/>
</g>
<!-- Node7&#45;&gt;Node5 -->
<g id="edge11" class="edge"><title>Node7&#45;&gt;Node5</title>
<path fill="none" stroke="midnightblue" d="M286.538,-131.751C285.946,-139.014 283.245,-149.589 279.854,-158.69"/>
<polygon fill="midnightblue" stroke="midnightblue" points="276.55,-157.514 275.808,-168.083 282.979,-160.283 276.55,-157.514"/>
</g>
<!-- Node7&#45;&gt;Node6 -->
<g id="edge12" class="edge"><title>Node7&#45;&gt;Node6</title>
<path fill="none" stroke="midnightblue" d="M266.166,-112.324C248.284,-103.625 220.525,-90.1202 199.954,-80.113"/>
<polygon fill="midnightblue" stroke="midnightblue" points="201.313,-76.8819 190.79,-75.6545 198.251,-83.1765 201.313,-76.8819"/>
</g>
<!-- Node8 -->
<g id="node8" class="node"><title>Node8</title>
<g id="a_node8"><a xlink:href="_fatal_error_8h.html" target="_top" xlink:title=" ">
<polygon fill="white" stroke="black" points="297,-56.5 297,-75.5 419,-75.5 419,-56.5 297,-56.5"/>
<text text-anchor="middle" x="358" y="-63.5" font-family="Helvetica,sans-Serif" font-size="10.00">Cpl/System/FatalError.h</text>
</a>
</g>
</g>
<!-- Node7&#45;&gt;Node8 -->
<g id="edge7" class="edge"><title>Node7&#45;&gt;Node8</title>
<path fill="none" stroke="midnightblue" d="M295.889,-112.324C307.15,-104.107 324.287,-91.6017 337.709,-81.8069"/>
<polygon fill="midnightblue" stroke="midnightblue" points="339.88,-84.5559 345.894,-75.8339 335.753,-78.9014 339.88,-84.5559"/>
</g>
<!-- Node10 -->
<g id="node10" class="node"><title>Node10</title>
<g id="a_node10"><a xlink:title=" ">
<polygon fill="white" stroke="#bfbfbf" points="229.5,-56.5 229.5,-75.5 278.5,-75.5 278.5,-56.5 229.5,-56.5"/>
<text text-anchor="middle" x="254" y="-63.5" font-family="Helvetica,sans-Serif" font-size="10.00">stdint.h</text>
</a>
</g>
</g>
<!-- Node7&#45;&gt;Node10 -->
<g id="edge10" class="edge"><title>Node7&#45;&gt;Node10</title>
<path fill="none" stroke="midnightblue" d="M279.046,-112.083C274.896,-104.613 268.847,-93.7244 263.733,-84.5199"/>
<polygon fill="midnightblue" stroke="midnightblue" points="266.778,-82.7929 258.862,-75.7511 260.659,-86.1924 266.778,-82.7929"/>
</g>
<!-- Node8&#45;&gt;Node2 -->
<g id="edge9" class="edge"><title>Node8&#45;&gt;Node2</title>
<path fill="none" stroke="midnightblue" d="M313.316,-56.4435C263.126,-46.8326 181.747,-31.2494 128.548,-21.0623"/>
<polygon fill="midnightblue" stroke="midnightblue" points="129.109,-17.6062 118.629,-19.1629 127.792,-24.4813 129.109,-17.6062"/>
</g>
<!-- Node9 -->
<g id="node9" class="node"><title>Node9</title>
<g id="a_node9"><a xlink:title=" ">
<polygon fill="white" stroke="#bfbfbf" points="332,-0.5 332,-19.5 384,-19.5 384,-0.5 332,-0.5"/>
<text text-anchor="middle" x="358" y="-7.5" font-family="Helvetica,sans-Serif" font-size="10.00">stddef.h</text>
</a>
</g>
</g>
<!-- Node8&#45;&gt;Node9 -->
<g id="edge8" class="edge"><title>Node8&#45;&gt;Node9</title>
<path fill="none" stroke="midnightblue" d="M358,-56.083C358,-49.0059 358,-38.8611 358,-29.9865"/>
<polygon fill="midnightblue" stroke="midnightblue" points="361.5,-29.751 358,-19.7511 354.5,-29.7511 361.5,-29.751"/>
</g>
<!-- Node14 -->
<g id="node14" class="node"><title>Node14</title>
<g id="a_node14"><a xlink:href="_item_8h.html" target="_top" xlink:title=" ">
<polygon fill="white" stroke="black" points="426,-112.5 426,-131.5 532,-131.5 532,-112.5 426,-112.5"/>
<text text-anchor="middle" x="479" y="-119.5" font-family="Helvetica,sans-Serif" font-size="10.00">Cpl/Container/Item.h</text>
</a>
</g>
</g>
<!-- Node13&#45;&gt;Node14 -->
<g id="edge16" class="edge"><title>Node13&#45;&gt;Node14</title>
<path fill="none" stroke="midnightblue" d="M387.513,-168.324C405.072,-159.625 432.331,-146.12 452.531,-136.113"/>
<polygon fill="midnightblue" stroke="midnightblue" points="454.124,-139.23 461.531,-131.655 451.016,-132.958 454.124,-139.23"/>
</g>
<!-- Node16&#45;&gt;Node5 -->
<g id="edge19" class="edge"><title>Node16&#45;&gt;Node5</title>
<path fill="none" stroke="midnightblue" d="M268.835,-224.083C268.704,-217.006 268.516,-206.861 268.352,-197.986"/>
<polygon fill="midnightblue" stroke="midnightblue" points="271.847,-197.685 268.162,-187.751 264.848,-197.814 271.847,-197.685"/>
</g>
<!-- Node16&#45;&gt;Node11 -->
<g id="edge22" class="edge"><title>Node16&#45;&gt;Node11</title>
<path fill="none" stroke="midnightblue" d="M257.751,-224.374C246.423,-215.555 228.585,-201.302 214,-188 196.558,-172.092 177.73,-152.672 165.042,-139.223"/>
<polygon fill="midnightblue" stroke="midnightblue" points="167.394,-136.613 158.004,-131.706 162.284,-141.398 167.394,-136.613"/>
</g>
<!-- Node16&#45;&gt;Node13 -->
<g id="edge20" class="edge"><title>Node16&#45;&gt;Node13</title>
<path fill="none" stroke="midnightblue" d="M285.227,-224.324C301.351,-215.703 326.3,-202.364 344.964,-192.386"/>
<polygon fill="midnightblue" stroke="midnightblue" points="346.644,-195.456 353.813,-187.655 343.344,-189.283 346.644,-195.456"/>
</g>
<!-- Node16&#45;&gt;Node15 -->
<g id="edge21" class="edge"><title>Node16&#45;&gt;Node15</title>
<path fill="none" stroke="midnightblue" d="M300.374,-224.444C334.263,-215.201 388.403,-200.436 425.724,-190.257"/>
<polygon fill="midnightblue" stroke="midnightblue" points="427.046,-193.524 435.773,-187.516 425.205,-186.771 427.046,-193.524"/>
</g>
<!-- Node17&#45;&gt;Node2 -->
<g id="edge24" class="edge"><title>Node17&#45;&gt;Node2</title>
<path fill="none" stroke="midnightblue" d="M76,-112.368C76,-94.617 76,-53.6664 76,-29.5974"/>
<polygon fill="midnightblue" stroke="midnightblue" points="79.5001,-29.5914 76,-19.5914 72.5001,-29.5915 79.5001,-29.5914"/>
</g>
<!-- Node17&#45;&gt;Node6 -->
<g id="edge25" class="edge"><title>Node17&#45;&gt;Node6</title>
<path fill="none" stroke="midnightblue" d="M91.5847,-112.324C106.999,-103.743 130.812,-90.486 148.71,-80.5224"/>
<polygon fill="midnightblue" stroke="midnightblue" points="150.419,-83.5767 157.454,-75.6545 147.014,-77.4606 150.419,-83.5767"/>
</g>
</g>
</svg>
