<?xml version="1.0" encoding="UTF-8" standalone="no"?>
<!DOCTYPE svg PUBLIC "-//W3C//DTD SVG 1.1//EN"
 "http://www.w3.org/Graphics/SVG/1.1/DTD/svg11.dtd">
<!-- Generated by graphviz version 2.38.0 (20140413.2041)
 -->
<!-- Title: Storm/Constants.h Pages: 1 -->
<svg width="1660pt" height="464pt"
 viewBox="0.00 0.00 1659.50 464.00" xmlns="http://www.w3.org/2000/svg" xmlns:xlink="http://www.w3.org/1999/xlink">
<g id="graph0" class="graph" transform="scale(1 1) rotate(0) translate(4 460)">
<title>Storm/Constants.h</title>
<polygon fill="white" stroke="none" points="-4,4 -4,-460 1655.5,-460 1655.5,4 -4,4"/>
<!-- Node1 -->
<g id="node1" class="node"><title>Node1</title>
<g id="a_node1"><a xlink:title="This file provides magic constants that NOT component specific, i.e.">
<polygon fill="#bfbfbf" stroke="black" points="541.5,-436.5 541.5,-455.5 639.5,-455.5 639.5,-436.5 541.5,-436.5"/>
<text text-anchor="middle" x="590.5" y="-443.5" font-family="Helvetica,sans-Serif" font-size="10.00">Storm/Constants.h</text>
</a>
</g>
</g>
<!-- Node2 -->
<g id="node2" class="node"><title>Node2</title>
<g id="a_node2"><a xlink:href="_installer_record_8h_source.html" target="_top" xlink:title=" ">
<polygon fill="white" stroke="black" points="0,-190.5 0,-220.5 119,-220.5 119,-190.5 0,-190.5"/>
<text text-anchor="start" x="8" y="-208.5" font-family="Helvetica,sans-Serif" font-size="10.00">Storm/Thermostat/Main</text>
<text text-anchor="middle" x="59.5" y="-197.5" font-family="Helvetica,sans-Serif" font-size="10.00">/InstallerRecord.h</text>
</a>
</g>
</g>
<!-- Node1&#45;&gt;Node2 -->
<g id="edge1" class="edge"><title>Node1&#45;&gt;Node2</title>
<path fill="none" stroke="midnightblue" d="M534.562,-434.297C499.651,-426.723 454.159,-415.208 415.5,-400 281.956,-347.468 135.184,-255.784 81.0683,-220.705"/>
<polygon fill="midnightblue" stroke="midnightblue" points="534.065,-437.77 544.574,-436.425 535.52,-430.923 534.065,-437.77"/>
</g>
<!-- Node3 -->
<g id="node3" class="node"><title>Node3</title>
<g id="a_node3"><a xlink:href="_type_2_hvac_relay_outputs_8h.html" target="_top" xlink:title=" ">
<polygon fill="white" stroke="black" points="425,-380.5 425,-399.5 586,-399.5 586,-380.5 425,-380.5"/>
<text text-anchor="middle" x="505.5" y="-387.5" font-family="Helvetica,sans-Serif" font-size="10.00">Storm/Type/HvacRelayOutputs.h</text>
</a>
</g>
</g>
<!-- Node1&#45;&gt;Node3 -->
<g id="edge2" class="edge"><title>Node1&#45;&gt;Node3</title>
<path fill="none" stroke="midnightblue" d="M568.306,-430.901C552.72,-420.999 532.37,-408.071 519.123,-399.655"/>
<polygon fill="midnightblue" stroke="midnightblue" points="566.526,-433.916 576.843,-436.324 570.279,-428.007 566.526,-433.916"/>
</g>
<!-- Node11 -->
<g id="node11" class="node"><title>Node11</title>
<g id="a_node11"><a xlink:href="_system_config_8h.html" target="_top" xlink:title=" ">
<polygon fill="white" stroke="black" points="770.5,-380.5 770.5,-399.5 910.5,-399.5 910.5,-380.5 770.5,-380.5"/>
<text text-anchor="middle" x="840.5" y="-387.5" font-family="Helvetica,sans-Serif" font-size="10.00">Storm/Type/SystemConfig.h</text>
</a>
</g>
</g>
<!-- Node1&#45;&gt;Node11 -->
<g id="edge11" class="edge"><title>Node1&#45;&gt;Node11</title>
<path fill="none" stroke="midnightblue" d="M640.123,-434.281C687.366,-424.077 757.536,-408.92 801.072,-399.516"/>
<polygon fill="midnightblue" stroke="midnightblue" points="639.149,-430.911 630.113,-436.444 640.627,-437.753 639.149,-430.911"/>
</g>
<!-- Node25 -->
<g id="node25" class="node"><title>Node25</title>
<g id="a_node25"><a xlink:href="_virtual_outputs_8h.html" target="_top" xlink:title=" ">
<polygon fill="white" stroke="black" points="606,-380.5 606,-399.5 747,-399.5 747,-380.5 606,-380.5"/>
<text text-anchor="middle" x="676.5" y="-387.5" font-family="Helvetica,sans-Serif" font-size="10.00">Storm/Type/VirtualOutputs.h</text>
</a>
</g>
</g>
<!-- Node1&#45;&gt;Node25 -->
<g id="edge41" class="edge"><title>Node1&#45;&gt;Node25</title>
<path fill="none" stroke="midnightblue" d="M612.955,-430.901C628.724,-420.999 649.314,-408.071 662.717,-399.655"/>
<polygon fill="midnightblue" stroke="midnightblue" points="610.925,-428.042 604.317,-436.324 614.648,-433.97 610.925,-428.042"/>
</g>
<!-- Node4 -->
<g id="node4" class="node"><title>Node4</title>
<g id="a_node4"><a xlink:href="_mp_hvac_relay_outputs_8h.html" target="_top" xlink:title=" ">
<polygon fill="white" stroke="black" points="419,-324.5 419,-343.5 586,-343.5 586,-324.5 419,-324.5"/>
<text text-anchor="middle" x="502.5" y="-331.5" font-family="Helvetica,sans-Serif" font-size="10.00">Storm/Dm/MpHvacRelayOutputs.h</text>
</a>
</g>
</g>
<!-- Node3&#45;&gt;Node4 -->
<g id="edge3" class="edge"><title>Node3&#45;&gt;Node4</title>
<path fill="none" stroke="midnightblue" d="M504.434,-369.805C503.939,-360.91 503.377,-350.78 502.986,-343.751"/>
<polygon fill="midnightblue" stroke="midnightblue" points="500.955,-370.293 505.005,-380.083 507.944,-369.904 500.955,-370.293"/>
</g>
<!-- Node5 -->
<g id="node5" class="node"><title>Node5</title>
<g id="a_node5"><a xlink:href="_component_2_hvac_relay_outputs_8h.html" target="_top" xlink:title=" ">
<polygon fill="white" stroke="black" points="605.5,-257.5 605.5,-287.5 751.5,-287.5 751.5,-257.5 605.5,-257.5"/>
<text text-anchor="start" x="613.5" y="-275.5" font-family="Helvetica,sans-Serif" font-size="10.00">Storm/Component/HvacRelay</text>
<text text-anchor="middle" x="678.5" y="-264.5" font-family="Helvetica,sans-Serif" font-size="10.00">Outputs.h</text>
</a>
</g>
</g>
<!-- Node4&#45;&gt;Node5 -->
<g id="edge4" class="edge"><title>Node4&#45;&gt;Node5</title>
<path fill="none" stroke="midnightblue" d="M537.315,-321.23C565.973,-311.542 606.676,-297.782 637.02,-287.523"/>
<polygon fill="midnightblue" stroke="midnightblue" points="536.069,-317.957 527.717,-324.475 538.311,-324.588 536.069,-317.957"/>
</g>
<!-- Node7 -->
<g id="node7" class="node"><title>Node7</title>
<g id="a_node7"><a xlink:href="_model_points_8h.html" target="_top" xlink:title="This file defines all of the Model Points for the Thermostat Application.">
<polygon fill="white" stroke="black" points="388,-263 388,-282 549,-282 549,-263 388,-263"/>
<text text-anchor="middle" x="468.5" y="-270" font-family="Helvetica,sans-Serif" font-size="10.00">Storm/Thermostat/ModelPoints.h</text>
</a>
</g>
</g>
<!-- Node4&#45;&gt;Node7 -->
<g id="edge6" class="edge"><title>Node4&#45;&gt;Node7</title>
<path fill="none" stroke="midnightblue" d="M492.598,-315.671C486.276,-304.608 478.358,-290.751 473.362,-282.009"/>
<polygon fill="midnightblue" stroke="midnightblue" points="489.628,-317.529 497.629,-324.475 495.706,-314.056 489.628,-317.529"/>
</g>
<!-- Node6 -->
<g id="node6" class="node"><title>Node6</title>
<g id="a_node6"><a xlink:href="_algorithm_8h.html" target="_top" xlink:title=" ">
<polygon fill="white" stroke="black" points="921.5,-0.5 921.5,-19.5 1069.5,-19.5 1069.5,-0.5 921.5,-0.5"/>
<text text-anchor="middle" x="995.5" y="-7.5" font-family="Helvetica,sans-Serif" font-size="10.00">Storm/Thermostat/Algorithm.h</text>
</a>
</g>
</g>
<!-- Node5&#45;&gt;Node6 -->
<g id="edge5" class="edge"><title>Node5&#45;&gt;Node6</title>
<path fill="none" stroke="midnightblue" d="M674.322,-247.572C668.057,-203.068 661.928,-107.43 713.5,-56 741.979,-27.5996 847.635,-17.1229 921.2,-13.2584"/>
<polygon fill="midnightblue" stroke="midnightblue" points="670.867,-248.13 675.842,-257.484 677.786,-247.069 670.867,-248.13"/>
</g>
<!-- Node7&#45;&gt;Node2 -->
<g id="edge7" class="edge"><title>Node7&#45;&gt;Node2</title>
<path fill="none" stroke="midnightblue" d="M392.657,-261.664C323.405,-252.352 218.298,-237.387 127.5,-221 124.768,-220.507 121.978,-219.985 119.162,-219.444"/>
<polygon fill="midnightblue" stroke="midnightblue" points="392.233,-265.138 402.609,-262.996 393.162,-258.2 392.233,-265.138"/>
</g>
<!-- Node8 -->
<g id="node8" class="node"><title>Node8</title>
<g id="a_node8"><a xlink:href="_run_time_record_8h_source.html" target="_top" xlink:title=" ">
<polygon fill="white" stroke="black" points="137,-190.5 137,-220.5 256,-220.5 256,-190.5 137,-190.5"/>
<text text-anchor="start" x="145" y="-208.5" font-family="Helvetica,sans-Serif" font-size="10.00">Storm/Thermostat/Main</text>
<text text-anchor="middle" x="196.5" y="-197.5" font-family="Helvetica,sans-Serif" font-size="10.00">/RunTimeRecord.h</text>
</a>
</g>
</g>
<!-- Node7&#45;&gt;Node8 -->
<g id="edge8" class="edge"><title>Node7&#45;&gt;Node8</title>
<path fill="none" stroke="midnightblue" d="M422.666,-260.547C376.631,-249.546 305.509,-232.55 255.332,-220.559"/>
<polygon fill="midnightblue" stroke="midnightblue" points="422.121,-264.015 432.661,-262.936 423.748,-257.207 422.121,-264.015"/>
</g>
<!-- Node9 -->
<g id="node9" class="node"><title>Node9</title>
<g id="a_node9"><a xlink:href="_user_record_8h_source.html" target="_top" xlink:title=" ">
<polygon fill="white" stroke="black" points="274,-190.5 274,-220.5 393,-220.5 393,-190.5 274,-190.5"/>
<text text-anchor="start" x="282" y="-208.5" font-family="Helvetica,sans-Serif" font-size="10.00">Storm/Thermostat/Main</text>
<text text-anchor="middle" x="333.5" y="-197.5" font-family="Helvetica,sans-Serif" font-size="10.00">/UserRecord.h</text>
</a>
</g>
</g>
<!-- Node7&#45;&gt;Node9 -->
<g id="edge9" class="edge"><title>Node7&#45;&gt;Node9</title>
<path fill="none" stroke="midnightblue" d="M441.445,-258.474C418.623,-247.485 386.027,-231.791 362.635,-220.528"/>
<polygon fill="midnightblue" stroke="midnightblue" points="440.045,-261.684 450.573,-262.869 443.081,-255.377 440.045,-261.684"/>
</g>
<!-- Node10 -->
<g id="node10" class="node"><title>Node10</title>
<g id="a_node10"><a xlink:href="_event_monitor_8h_source.html" target="_top" xlink:title=" ">
<polygon fill="white" stroke="black" points="411.5,-190.5 411.5,-220.5 551.5,-220.5 551.5,-190.5 411.5,-190.5"/>
<text text-anchor="start" x="419.5" y="-208.5" font-family="Helvetica,sans-Serif" font-size="10.00">Storm/Thermostat/Ui</text>
<text text-anchor="middle" x="481.5" y="-197.5" font-family="Helvetica,sans-Serif" font-size="10.00">/PicoDisplay/EventMonitor.h</text>
</a>
</g>
</g>
<!-- Node7&#45;&gt;Node10 -->
<g id="edge10" class="edge"><title>Node7&#45;&gt;Node10</title>
<path fill="none" stroke="midnightblue" d="M472.252,-252.739C474.303,-242.487 476.8,-230.001 478.682,-220.589"/>
<polygon fill="midnightblue" stroke="midnightblue" points="468.782,-252.242 470.253,-262.734 475.647,-253.614 468.782,-252.242"/>
</g>
<!-- Node12 -->
<g id="node12" class="node"><title>Node12</title>
<g id="a_node12"><a xlink:href="_mp_system_config_8h.html" target="_top" xlink:title=" ">
<polygon fill="white" stroke="black" points="855,-324.5 855,-343.5 1002,-343.5 1002,-324.5 855,-324.5"/>
<text text-anchor="middle" x="928.5" y="-331.5" font-family="Helvetica,sans-Serif" font-size="10.00">Storm/Dm/MpSystemConfig.h</text>
</a>
</g>
</g>
<!-- Node11&#45;&gt;Node12 -->
<g id="edge12" class="edge"><title>Node11&#45;&gt;Node12</title>
<path fill="none" stroke="midnightblue" d="M863.477,-374.901C879.613,-364.999 900.681,-352.071 914.396,-343.655"/>
<polygon fill="midnightblue" stroke="midnightblue" points="861.331,-372.111 854.639,-380.324 864.993,-378.077 861.331,-372.111"/>
</g>
<!-- Node12&#45;&gt;Node5 -->
<g id="edge31" class="edge"><title>Node12&#45;&gt;Node5</title>
<path fill="none" stroke="midnightblue" d="M882.732,-322.107C841.887,-312.386 781.841,-298.095 737.42,-287.523"/>
<polygon fill="midnightblue" stroke="midnightblue" points="882.142,-325.565 892.681,-324.475 883.763,-318.755 882.142,-325.565"/>
</g>
<!-- Node12&#45;&gt;Node7 -->
<g id="edge40" class="edge"><title>Node12&#45;&gt;Node7</title>
<path fill="none" stroke="midnightblue" d="M852.592,-323.181C763.847,-311.703 618.426,-292.893 534.285,-282.009"/>
<polygon fill="midnightblue" stroke="midnightblue" points="852.227,-326.663 862.593,-324.475 853.125,-319.721 852.227,-326.663"/>
</g>
<!-- Node13 -->
<g id="node13" class="node"><title>Node13</title>
<g id="a_node13"><a xlink:href="_control_8h.html" target="_top" xlink:title=" ">
<polygon fill="white" stroke="black" points="942,-263 942,-282 1079,-282 1079,-263 942,-263"/>
<text text-anchor="middle" x="1010.5" y="-270" font-family="Helvetica,sans-Serif" font-size="10.00">Storm/Component/Control.h</text>
</a>
</g>
</g>
<!-- Node12&#45;&gt;Node13 -->
<g id="edge13" class="edge"><title>Node12&#45;&gt;Node13</title>
<path fill="none" stroke="midnightblue" d="M948.767,-318.294C964.497,-306.88 985.752,-291.458 998.773,-282.009"/>
<polygon fill="midnightblue" stroke="midnightblue" points="946.287,-315.769 940.249,-324.475 950.398,-321.435 946.287,-315.769"/>
</g>
<!-- Node21 -->
<g id="node21" class="node"><title>Node21</title>
<g id="a_node21"><a xlink:href="_fan_control_8h.html" target="_top" xlink:title=" ">
<polygon fill="white" stroke="black" points="769.5,-263 769.5,-282 923.5,-282 923.5,-263 769.5,-263"/>
<text text-anchor="middle" x="846.5" y="-270" font-family="Helvetica,sans-Serif" font-size="10.00">Storm/Component/FanControl.h</text>
</a>
</g>
</g>
<!-- Node12&#45;&gt;Node21 -->
<g id="edge29" class="edge"><title>Node12&#45;&gt;Node21</title>
<path fill="none" stroke="midnightblue" d="M908.233,-318.294C892.503,-306.88 871.248,-291.458 858.227,-282.009"/>
<polygon fill="midnightblue" stroke="midnightblue" points="906.602,-321.435 916.751,-324.475 910.713,-315.769 906.602,-321.435"/>
</g>
<!-- Node22 -->
<g id="node22" class="node"><title>Node22</title>
<g id="a_node22"><a xlink:href="_component_2_operating_mode_8h.html" target="_top" xlink:title=" ">
<polygon fill="white" stroke="black" points="1423.5,-56.5 1423.5,-86.5 1563.5,-86.5 1563.5,-56.5 1423.5,-56.5"/>
<text text-anchor="start" x="1431.5" y="-74.5" font-family="Helvetica,sans-Serif" font-size="10.00">Storm/Component/Operating</text>
<text text-anchor="middle" x="1493.5" y="-63.5" font-family="Helvetica,sans-Serif" font-size="10.00">Mode.h</text>
</a>
</g>
</g>
<!-- Node12&#45;&gt;Node22 -->
<g id="edge32" class="edge"><title>Node12&#45;&gt;Node22</title>
<path fill="none" stroke="midnightblue" d="M989.278,-322.648C1031.78,-314.777 1089.63,-302.792 1139.5,-288 1298.79,-240.75 1390.25,-287.987 1488.5,-154 1502.92,-134.338 1500.22,-104.306 1496.9,-86.715"/>
<polygon fill="midnightblue" stroke="midnightblue" points="988.571,-319.22 979.364,-324.462 989.831,-326.105 988.571,-319.22"/>
</g>
<!-- Node23 -->
<g id="node23" class="node"><title>Node23</title>
<g id="a_node23"><a xlink:href="_pi_8h.html" target="_top" xlink:title=" ">
<polygon fill="white" stroke="black" points="1535.5,-129 1535.5,-148 1651.5,-148 1651.5,-129 1535.5,-129"/>
<text text-anchor="middle" x="1593.5" y="-136" font-family="Helvetica,sans-Serif" font-size="10.00">Storm/Component/Pi.h</text>
</a>
</g>
</g>
<!-- Node12&#45;&gt;Node23 -->
<g id="edge34" class="edge"><title>Node12&#45;&gt;Node23</title>
<path fill="none" stroke="midnightblue" d="M1012.39,-331.224C1165.97,-327.307 1480.43,-315.948 1521.5,-288 1571.72,-253.826 1588.14,-174.413 1592.3,-148.124"/>
<polygon fill="midnightblue" stroke="midnightblue" points="1011.97,-327.734 1002.06,-331.483 1012.14,-334.732 1011.97,-327.734"/>
</g>
<!-- Node24 -->
<g id="node24" class="node"><title>Node24</title>
<g id="a_node24"><a xlink:href="_pi_pre_process_8h.html" target="_top" xlink:title=" ">
<polygon fill="white" stroke="black" points="1312,-129 1312,-148 1479,-148 1479,-129 1312,-129"/>
<text text-anchor="middle" x="1395.5" y="-136" font-family="Helvetica,sans-Serif" font-size="10.00">Storm/Component/PiPreProcess.h</text>
</a>
</g>
</g>
<!-- Node12&#45;&gt;Node24 -->
<g id="edge36" class="edge"><title>Node12&#45;&gt;Node24</title>
<path fill="none" stroke="midnightblue" d="M975.382,-322.012C1007.42,-313.952 1050.59,-302 1087.5,-288 1203.78,-243.895 1336.01,-172.525 1380.22,-148.053"/>
<polygon fill="midnightblue" stroke="midnightblue" points="974.258,-318.685 965.394,-324.489 975.943,-325.479 974.258,-318.685"/>
</g>
<!-- Node13&#45;&gt;Node6 -->
<g id="edge28" class="edge"><title>Node13&#45;&gt;Node6</title>
<path fill="none" stroke="midnightblue" d="M965.742,-260.006C917.464,-244.855 843.489,-212.939 813.5,-154 807.252,-141.72 805.891,-134.486 813.5,-123 836.158,-88.7978 863.8,-108.888 898.5,-87 916.075,-75.9137 917.295,-69.0072 933.5,-56 950.096,-42.6795 970.166,-28.4315 982.884,-19.6187"/>
<polygon fill="midnightblue" stroke="midnightblue" points="964.747,-263.361 975.332,-262.902 966.771,-256.66 964.747,-263.361"/>
</g>
<!-- Node14 -->
<g id="node14" class="node"><title>Node14</title>
<g id="a_node14"><a xlink:href="_cooling_8h.html" target="_top" xlink:title=" ">
<polygon fill="white" stroke="black" points="823,-123.5 823,-153.5 968,-153.5 968,-123.5 823,-123.5"/>
<text text-anchor="start" x="831" y="-141.5" font-family="Helvetica,sans-Serif" font-size="10.00">Storm/Component/Equipment</text>
<text text-anchor="middle" x="895.5" y="-130.5" font-family="Helvetica,sans-Serif" font-size="10.00">/Cooling.h</text>
</a>
</g>
</g>
<!-- Node13&#45;&gt;Node14 -->
<g id="edge14" class="edge"><title>Node13&#45;&gt;Node14</title>
<path fill="none" stroke="midnightblue" d="M978.736,-258.663C961.278,-250.216 940.408,-237.63 926.5,-221 909.796,-201.026 901.544,-171.102 897.927,-153.614"/>
<polygon fill="midnightblue" stroke="midnightblue" points="977.47,-261.933 988.017,-262.93 980.393,-255.573 977.47,-261.933"/>
</g>
<!-- Node15 -->
<g id="node15" class="node"><title>Node15</title>
<g id="a_node15"><a xlink:href="_indoor_heating_8h.html" target="_top" xlink:title=" ">
<polygon fill="white" stroke="black" points="986,-123.5 986,-153.5 1131,-153.5 1131,-123.5 986,-123.5"/>
<text text-anchor="start" x="994" y="-141.5" font-family="Helvetica,sans-Serif" font-size="10.00">Storm/Component/Equipment</text>
<text text-anchor="middle" x="1058.5" y="-130.5" font-family="Helvetica,sans-Serif" font-size="10.00">/IndoorHeating.h</text>
</a>
</g>
</g>
<!-- Node13&#45;&gt;Node15 -->
<g id="edge16" class="edge"><title>Node13&#45;&gt;Node15</title>
<path fill="none" stroke="midnightblue" d="M1045.26,-258.636C1061.81,-250.545 1080.02,-238.306 1089.5,-221 1101.79,-198.561 1084.34,-170.23 1071.07,-153.566"/>
<polygon fill="midnightblue" stroke="midnightblue" points="1043.45,-255.613 1035.78,-262.927 1046.34,-261.99 1043.45,-255.613"/>
</g>
<!-- Node16 -->
<g id="node16" class="node"><title>Node16</title>
<g id="a_node16"><a xlink:href="_off_8h.html" target="_top" xlink:title=" ">
<polygon fill="white" stroke="black" points="745,-56.5 745,-86.5 890,-86.5 890,-56.5 745,-56.5"/>
<text text-anchor="start" x="753" y="-74.5" font-family="Helvetica,sans-Serif" font-size="10.00">Storm/Component/Equipment</text>
<text text-anchor="middle" x="817.5" y="-63.5" font-family="Helvetica,sans-Serif" font-size="10.00">/Off.h</text>
</a>
</g>
</g>
<!-- Node13&#45;&gt;Node16 -->
<g id="edge18" class="edge"><title>Node13&#45;&gt;Node16</title>
<path fill="none" stroke="midnightblue" d="M954.976,-261.11C888.698,-248.443 786.029,-227.875 780.5,-221 753.203,-187.059 766.958,-164.397 780.5,-123 785.028,-109.158 794.954,-95.9703 803.385,-86.5447"/>
<polygon fill="midnightblue" stroke="midnightblue" points="954.4,-264.563 964.878,-262.995 955.709,-257.686 954.4,-264.563"/>
</g>
<!-- Node17 -->
<g id="node17" class="node"><title>Node17</title>
<g id="a_node17"><a xlink:href="_stage_api_8h.html" target="_top" xlink:title=" ">
<polygon fill="white" stroke="black" points="936,-190.5 936,-220.5 1081,-220.5 1081,-190.5 936,-190.5"/>
<text text-anchor="start" x="944" y="-208.5" font-family="Helvetica,sans-Serif" font-size="10.00">Storm/Component/Equipment</text>
<text text-anchor="middle" x="1008.5" y="-197.5" font-family="Helvetica,sans-Serif" font-size="10.00">/StageApi.h</text>
</a>
</g>
</g>
<!-- Node13&#45;&gt;Node17 -->
<g id="edge20" class="edge"><title>Node13&#45;&gt;Node17</title>
<path fill="none" stroke="midnightblue" d="M1009.91,-252.411C1009.6,-242.222 1009.22,-229.901 1008.93,-220.589"/>
<polygon fill="midnightblue" stroke="midnightblue" points="1006.42,-252.846 1010.23,-262.734 1013.42,-252.631 1006.42,-252.846"/>
</g>
<!-- Node14&#45;&gt;Node6 -->
<g id="edge15" class="edge"><title>Node14&#45;&gt;Node6</title>
<path fill="none" stroke="midnightblue" d="M912.994,-115.37C935.371,-87.0638 973.076,-39.3661 988.553,-19.7885"/>
<polygon fill="midnightblue" stroke="midnightblue" points="910.04,-113.464 906.584,-123.479 915.531,-117.805 910.04,-113.464"/>
</g>
<!-- Node15&#45;&gt;Node6 -->
<g id="edge17" class="edge"><title>Node15&#45;&gt;Node6</title>
<path fill="none" stroke="midnightblue" d="M1046.93,-114.262C1032.77,-85.8349 1009.5,-39.113 999.877,-19.7885"/>
<polygon fill="midnightblue" stroke="midnightblue" points="1043.93,-116.088 1051.52,-123.479 1050.19,-112.967 1043.93,-116.088"/>
</g>
<!-- Node16&#45;&gt;Node6 -->
<g id="edge19" class="edge"><title>Node16&#45;&gt;Node6</title>
<path fill="none" stroke="midnightblue" d="M869.201,-53.2179C902.243,-42.173 943.659,-28.3289 969.859,-19.5709"/>
<polygon fill="midnightblue" stroke="midnightblue" points="868.058,-49.9095 859.684,-56.3993 870.277,-56.5485 868.058,-49.9095"/>
</g>
<!-- Node17&#45;&gt;Node14 -->
<g id="edge21" class="edge"><title>Node17&#45;&gt;Node14</title>
<path fill="none" stroke="midnightblue" d="M975.114,-185.296C957.432,-175.125 936.102,-162.855 919.971,-153.577"/>
<polygon fill="midnightblue" stroke="midnightblue" points="973.567,-188.444 983.981,-190.396 977.058,-182.376 973.567,-188.444"/>
</g>
<!-- Node17&#45;&gt;Node15 -->
<g id="edge22" class="edge"><title>Node17&#45;&gt;Node15</title>
<path fill="none" stroke="midnightblue" d="M1025.46,-182.447C1032.81,-172.899 1041.19,-162.004 1047.67,-153.577"/>
<polygon fill="midnightblue" stroke="midnightblue" points="1022.67,-180.336 1019.35,-190.396 1028.22,-184.604 1022.67,-180.336"/>
</g>
<!-- Node18 -->
<g id="node18" class="node"><title>Node18</title>
<g id="a_node18"><a xlink:href="_storm_2_component_2_equipment_2_stage_2_basic_8h.html" target="_top" xlink:title=" ">
<polygon fill="white" stroke="black" points="1149,-123.5 1149,-153.5 1294,-153.5 1294,-123.5 1149,-123.5"/>
<text text-anchor="start" x="1157" y="-141.5" font-family="Helvetica,sans-Serif" font-size="10.00">Storm/Component/Equipment</text>
<text text-anchor="middle" x="1221.5" y="-130.5" font-family="Helvetica,sans-Serif" font-size="10.00">/Stage/Basic.h</text>
</a>
</g>
</g>
<!-- Node17&#45;&gt;Node18 -->
<g id="edge23" class="edge"><title>Node17&#45;&gt;Node18</title>
<path fill="none" stroke="midnightblue" d="M1064.39,-187.444C1098.92,-176.908 1142.69,-163.549 1175.26,-153.611"/>
<polygon fill="midnightblue" stroke="midnightblue" points="1063,-184.21 1054.46,-190.476 1065.04,-190.905 1063,-184.21"/>
</g>
<!-- Node19 -->
<g id="node19" class="node"><title>Node19</title>
<g id="a_node19"><a xlink:href="_basic_cooling_8h.html" target="_top" xlink:title=" ">
<polygon fill="white" stroke="black" points="1053,-56.5 1053,-86.5 1198,-86.5 1198,-56.5 1053,-56.5"/>
<text text-anchor="start" x="1061" y="-74.5" font-family="Helvetica,sans-Serif" font-size="10.00">Storm/Component/Equipment</text>
<text text-anchor="middle" x="1125.5" y="-63.5" font-family="Helvetica,sans-Serif" font-size="10.00">/Stage/BasicCooling.h</text>
</a>
</g>
</g>
<!-- Node18&#45;&gt;Node19 -->
<g id="edge24" class="edge"><title>Node18&#45;&gt;Node19</title>
<path fill="none" stroke="midnightblue" d="M1192.31,-117.734C1177.45,-107.676 1159.74,-95.6847 1146.29,-86.5765"/>
<polygon fill="midnightblue" stroke="midnightblue" points="1190.43,-120.688 1200.67,-123.396 1194.35,-114.891 1190.43,-120.688"/>
</g>
<!-- Node20 -->
<g id="node20" class="node"><title>Node20</title>
<g id="a_node20"><a xlink:href="_basic_indoor_heat_8h.html" target="_top" xlink:title=" ">
<polygon fill="white" stroke="black" points="1216,-56.5 1216,-86.5 1361,-86.5 1361,-56.5 1216,-56.5"/>
<text text-anchor="start" x="1224" y="-74.5" font-family="Helvetica,sans-Serif" font-size="10.00">Storm/Component/Equipment</text>
<text text-anchor="middle" x="1288.5" y="-63.5" font-family="Helvetica,sans-Serif" font-size="10.00">/Stage/BasicIndoorHeat.h</text>
</a>
</g>
</g>
<!-- Node18&#45;&gt;Node20 -->
<g id="edge26" class="edge"><title>Node18&#45;&gt;Node20</title>
<path fill="none" stroke="midnightblue" d="M1243.34,-116.311C1253.39,-106.561 1265.04,-95.259 1273.99,-86.5765"/>
<polygon fill="midnightblue" stroke="midnightblue" points="1240.78,-113.921 1236.04,-123.396 1245.65,-118.945 1240.78,-113.921"/>
</g>
<!-- Node19&#45;&gt;Node6 -->
<g id="edge25" class="edge"><title>Node19&#45;&gt;Node6</title>
<path fill="none" stroke="midnightblue" d="M1085.58,-52.2281C1061.91,-41.3933 1032.99,-28.1596 1014.42,-19.6578"/>
<polygon fill="midnightblue" stroke="midnightblue" points="1084.14,-55.42 1094.69,-56.3993 1087.06,-49.055 1084.14,-55.42"/>
</g>
<!-- Node20&#45;&gt;Node6 -->
<g id="edge27" class="edge"><title>Node20&#45;&gt;Node6</title>
<path fill="none" stroke="midnightblue" d="M1209.63,-54.4845C1154.18,-43.2232 1082.16,-28.5981 1037.39,-19.5064"/>
<polygon fill="midnightblue" stroke="midnightblue" points="1208.94,-57.9145 1219.43,-56.4747 1210.33,-51.0545 1208.94,-57.9145"/>
</g>
<!-- Node21&#45;&gt;Node6 -->
<g id="edge30" class="edge"><title>Node21&#45;&gt;Node6</title>
<path fill="none" stroke="midnightblue" d="M811.43,-258.79C793.808,-250.637 773.668,-238.293 761.5,-221 718.778,-160.286 687.691,-112.794 735.5,-56 758.88,-28.226 852.976,-17.594 921.259,-13.5241"/>
<polygon fill="midnightblue" stroke="midnightblue" points="810.327,-262.126 820.894,-262.893 813.111,-255.704 810.327,-262.126"/>
</g>
<!-- Node22&#45;&gt;Node6 -->
<g id="edge33" class="edge"><title>Node22&#45;&gt;Node6</title>
<path fill="none" stroke="midnightblue" d="M1412.81,-56.7526C1411.02,-56.4946 1409.25,-56.2433 1407.5,-56 1289.73,-39.6537 1152.33,-25.6601 1069.71,-17.793"/>
<polygon fill="midnightblue" stroke="midnightblue" points="1412.74,-60.2815 1423.15,-58.296 1413.78,-53.3582 1412.74,-60.2815"/>
</g>
<!-- Node23&#45;&gt;Node6 -->
<g id="edge35" class="edge"><title>Node23&#45;&gt;Node6</title>
<path fill="none" stroke="midnightblue" d="M1594.42,-118.846C1594.24,-99.8986 1590.66,-71.2399 1572.5,-56 1534.79,-24.3495 1216.6,-14.7856 1069.51,-12.0412"/>
<polygon fill="midnightblue" stroke="midnightblue" points="1590.92,-118.872 1594.21,-128.943 1597.92,-119.018 1590.92,-118.872"/>
</g>
<!-- Node24&#45;&gt;Node6 -->
<g id="edge39" class="edge"><title>Node24&#45;&gt;Node6</title>
<path fill="none" stroke="midnightblue" d="M1395.31,-118.91C1394.04,-100.017 1388.92,-71.4011 1370.5,-56 1326.23,-18.9907 1165.58,-11.5997 1069.51,-10.5944"/>
<polygon fill="midnightblue" stroke="midnightblue" points="1391.81,-119.115 1395.69,-128.976 1398.81,-118.851 1391.81,-119.115"/>
</g>
<!-- Node24&#45;&gt;Node19 -->
<g id="edge37" class="edge"><title>Node24&#45;&gt;Node19</title>
<path fill="none" stroke="midnightblue" d="M1350,-126.547C1304.31,-115.546 1233.71,-98.5498 1183.9,-86.5592"/>
<polygon fill="midnightblue" stroke="midnightblue" points="1349.38,-129.998 1359.92,-128.936 1351.02,-123.192 1349.38,-129.998"/>
</g>
<!-- Node24&#45;&gt;Node20 -->
<g id="edge38" class="edge"><title>Node24&#45;&gt;Node20</title>
<path fill="none" stroke="midnightblue" d="M1372.38,-123.454C1354.43,-112.551 1329.66,-97.503 1311.69,-86.589"/>
<polygon fill="midnightblue" stroke="midnightblue" points="1370.71,-126.533 1381.07,-128.734 1374.34,-120.551 1370.71,-126.533"/>
</g>
<!-- Node26 -->
<g id="node26" class="node"><title>Node26</title>
<g id="a_node26"><a xlink:href="_mp_virtual_outputs_8h.html" target="_top" xlink:title=" ">
<polygon fill="white" stroke="black" points="604.5,-324.5 604.5,-343.5 752.5,-343.5 752.5,-324.5 604.5,-324.5"/>
<text text-anchor="middle" x="678.5" y="-331.5" font-family="Helvetica,sans-Serif" font-size="10.00">Storm/Dm/MpVirtualOutputs.h</text>
</a>
</g>
</g>
<!-- Node25&#45;&gt;Node26 -->
<g id="edge42" class="edge"><title>Node25&#45;&gt;Node26</title>
<path fill="none" stroke="midnightblue" d="M677.211,-369.805C677.54,-360.91 677.916,-350.78 678.176,-343.751"/>
<polygon fill="midnightblue" stroke="midnightblue" points="673.703,-369.96 676.83,-380.083 680.698,-370.219 673.703,-369.96"/>
</g>
<!-- Node26&#45;&gt;Node5 -->
<g id="edge47" class="edge"><title>Node26&#45;&gt;Node5</title>
<path fill="none" stroke="midnightblue" d="M678.5,-314.235C678.5,-305.586 678.5,-295.497 678.5,-287.523"/>
<polygon fill="midnightblue" stroke="midnightblue" points="675,-314.475 678.5,-324.475 682,-314.475 675,-314.475"/>
</g>
<!-- Node26&#45;&gt;Node7 -->
<g id="edge48" class="edge"><title>Node26&#45;&gt;Node7</title>
<path fill="none" stroke="midnightblue" d="M638.532,-321.676C597.727,-310.114 535.308,-292.429 498.532,-282.009"/>
<polygon fill="midnightblue" stroke="midnightblue" points="637.837,-325.116 648.412,-324.475 639.745,-318.382 637.837,-325.116"/>
</g>
<!-- Node26&#45;&gt;Node13 -->
<g id="edge45" class="edge"><title>Node26&#45;&gt;Node13</title>
<path fill="none" stroke="midnightblue" d="M737.165,-322.751C788.663,-313.72 865.578,-300.148 932.5,-288 942.935,-286.106 954.15,-284.039 964.73,-282.075"/>
<polygon fill="midnightblue" stroke="midnightblue" points="736.461,-319.321 727.215,-324.495 737.669,-326.216 736.461,-319.321"/>
</g>
<!-- Node26&#45;&gt;Node21 -->
<g id="edge46" class="edge"><title>Node26&#45;&gt;Node21</title>
<path fill="none" stroke="midnightblue" d="M712.149,-321.083C744.805,-309.517 793.552,-292.252 822.474,-282.009"/>
<polygon fill="midnightblue" stroke="midnightblue" points="710.828,-317.837 702.57,-324.475 713.165,-324.436 710.828,-317.837"/>
</g>
<!-- Node27 -->
<g id="node27" class="node"><title>Node27</title>
<g id="a_node27"><a xlink:href="_air_filter_monitor_8h.html" target="_top" xlink:title=" ">
<polygon fill="white" stroke="black" points="516.5,-56.5 516.5,-86.5 648.5,-86.5 648.5,-56.5 516.5,-56.5"/>
<text text-anchor="start" x="524.5" y="-74.5" font-family="Helvetica,sans-Serif" font-size="10.00">Storm/Component/AirFilter</text>
<text text-anchor="middle" x="582.5" y="-63.5" font-family="Helvetica,sans-Serif" font-size="10.00">Monitor.h</text>
</a>
</g>
</g>
<!-- Node26&#45;&gt;Node27 -->
<g id="edge43" class="edge"><title>Node26&#45;&gt;Node27</title>
<path fill="none" stroke="midnightblue" d="M638.329,-320.516C622.623,-313.523 606.105,-303.088 596.5,-288 555.126,-223.005 571.155,-123.493 579.089,-86.7617"/>
<polygon fill="midnightblue" stroke="midnightblue" points="637.352,-323.897 647.933,-324.436 639.997,-317.416 637.352,-323.897"/>
</g>
<!-- Node27&#45;&gt;Node6 -->
<g id="edge44" class="edge"><title>Node27&#45;&gt;Node6</title>
<path fill="none" stroke="midnightblue" d="M658.649,-56.9282C660.619,-56.6114 662.572,-56.3014 664.5,-56 755.031,-41.8476 859.897,-28.0232 926.919,-19.5128"/>
<polygon fill="midnightblue" stroke="midnightblue" points="658,-53.4878 648.699,-58.5606 659.133,-60.3954 658,-53.4878"/>
</g>
</g>
</svg>
