<?xml version="1.0" encoding="UTF-8" standalone="no"?>
<!DOCTYPE svg PUBLIC "-//W3C//DTD SVG 1.1//EN"
 "http://www.w3.org/Graphics/SVG/1.1/DTD/svg11.dtd">
<!-- Generated by graphviz version 2.38.0 (20140413.2041)
 -->
<!-- Title: Storm/Type/Cph.h Pages: 1 -->
<svg width="1553pt" height="464pt"
 viewBox="0.00 0.00 1553.35 464.00" xmlns="http://www.w3.org/2000/svg" xmlns:xlink="http://www.w3.org/1999/xlink">
<g id="graph0" class="graph" transform="scale(1 1) rotate(0) translate(4 460)">
<title>Storm/Type/Cph.h</title>
<polygon fill="white" stroke="none" points="-4,4 -4,-460 1549.35,-460 1549.35,4 -4,4"/>
<!-- Node1 -->
<g id="node1" class="node"><title>Node1</title>
<g id="a_node1"><a xlink:title=" ">
<polygon fill="#bfbfbf" stroke="black" points="718.346,-436.5 718.346,-455.5 814.346,-455.5 814.346,-436.5 718.346,-436.5"/>
<text text-anchor="middle" x="766.346" y="-443.5" font-family="Helvetica,sans-Serif" font-size="10.00">Storm/Type/Cph.h</text>
</a>
</g>
</g>
<!-- Node2 -->
<g id="node2" class="node"><title>Node2</title>
<g id="a_node2"><a xlink:href="_comfort_config_8h.html" target="_top" xlink:title=" ">
<polygon fill="white" stroke="black" points="534.846,-380.5 534.846,-399.5 675.846,-399.5 675.846,-380.5 534.846,-380.5"/>
<text text-anchor="middle" x="605.346" y="-387.5" font-family="Helvetica,sans-Serif" font-size="10.00">Storm/Type/ComfortConfig.h</text>
</a>
</g>
</g>
<!-- Node1&#45;&gt;Node2 -->
<g id="edge1" class="edge"><title>Node1&#45;&gt;Node2</title>
<path fill="none" stroke="midnightblue" d="M731.081,-433.172C700.765,-423.004 657.775,-408.585 630.737,-399.516"/>
<polygon fill="midnightblue" stroke="midnightblue" points="730.241,-436.582 740.835,-436.444 732.467,-429.945 730.241,-436.582"/>
</g>
<!-- Node20 -->
<g id="node20" class="node"><title>Node20</title>
<g id="a_node20"><a xlink:href="_system_config_8h.html" target="_top" xlink:title=" ">
<polygon fill="white" stroke="black" points="696.346,-380.5 696.346,-399.5 836.346,-399.5 836.346,-380.5 696.346,-380.5"/>
<text text-anchor="middle" x="766.346" y="-387.5" font-family="Helvetica,sans-Serif" font-size="10.00">Storm/Type/SystemConfig.h</text>
</a>
</g>
</g>
<!-- Node1&#45;&gt;Node20 -->
<g id="edge28" class="edge"><title>Node1&#45;&gt;Node20</title>
<path fill="none" stroke="midnightblue" d="M766.346,-425.805C766.346,-416.91 766.346,-406.78 766.346,-399.751"/>
<polygon fill="midnightblue" stroke="midnightblue" points="762.846,-426.083 766.346,-436.083 769.846,-426.083 762.846,-426.083"/>
</g>
<!-- Node25 -->
<g id="node25" class="node"><title>Node25</title>
<g id="a_node25"><a xlink:href="_duty_cycle_8h.html" target="_top" xlink:title=" ">
<polygon fill="white" stroke="black" points="854.346,-380.5 854.346,-399.5 976.346,-399.5 976.346,-380.5 854.346,-380.5"/>
<text text-anchor="middle" x="915.346" y="-387.5" font-family="Helvetica,sans-Serif" font-size="10.00">Storm/Utils/DutyCycle.h</text>
</a>
</g>
</g>
<!-- Node1&#45;&gt;Node25 -->
<g id="edge42" class="edge"><title>Node1&#45;&gt;Node25</title>
<path fill="none" stroke="midnightblue" d="M799.716,-432.906C827.729,-422.754 867.041,-408.506 891.847,-399.516"/>
<polygon fill="midnightblue" stroke="midnightblue" points="798.164,-429.746 789.955,-436.444 800.549,-436.327 798.164,-429.746"/>
</g>
<!-- Node3 -->
<g id="node3" class="node"><title>Node3</title>
<g id="a_node3"><a xlink:href="_mp_comfort_config_8h.html" target="_top" xlink:title=" ">
<polygon fill="white" stroke="black" points="528.346,-324.5 528.346,-343.5 676.346,-343.5 676.346,-324.5 528.346,-324.5"/>
<text text-anchor="middle" x="602.346" y="-331.5" font-family="Helvetica,sans-Serif" font-size="10.00">Storm/Dm/MpComfortConfig.h</text>
</a>
</g>
</g>
<!-- Node2&#45;&gt;Node3 -->
<g id="edge2" class="edge"><title>Node2&#45;&gt;Node3</title>
<path fill="none" stroke="midnightblue" d="M604.279,-369.805C603.785,-360.91 603.222,-350.78 602.832,-343.751"/>
<polygon fill="midnightblue" stroke="midnightblue" points="600.801,-370.293 604.85,-380.083 607.79,-369.904 600.801,-370.293"/>
</g>
<!-- Node4 -->
<g id="node4" class="node"><title>Node4</title>
<g id="a_node4"><a xlink:href="_control_8h.html" target="_top" xlink:title=" ">
<polygon fill="white" stroke="black" points="699.846,-263 699.846,-282 836.846,-282 836.846,-263 699.846,-263"/>
<text text-anchor="middle" x="768.346" y="-270" font-family="Helvetica,sans-Serif" font-size="10.00">Storm/Component/Control.h</text>
</a>
</g>
</g>
<!-- Node3&#45;&gt;Node4 -->
<g id="edge3" class="edge"><title>Node3&#45;&gt;Node4</title>
<path fill="none" stroke="midnightblue" d="M635.594,-321.083C667.861,-309.517 716.028,-292.252 744.606,-282.009"/>
<polygon fill="midnightblue" stroke="midnightblue" points="634.362,-317.806 626.129,-324.475 636.724,-324.396 634.362,-317.806"/>
</g>
<!-- Node13 -->
<g id="node13" class="node"><title>Node13</title>
<g id="a_node13"><a xlink:href="_fan_control_8h.html" target="_top" xlink:title=" ">
<polygon fill="white" stroke="black" points="185.346,-263 185.346,-282 339.346,-282 339.346,-263 185.346,-263"/>
<text text-anchor="middle" x="262.346" y="-270" font-family="Helvetica,sans-Serif" font-size="10.00">Storm/Component/FanControl.h</text>
</a>
</g>
</g>
<!-- Node3&#45;&gt;Node13 -->
<g id="edge19" class="edge"><title>Node3&#45;&gt;Node13</title>
<path fill="none" stroke="midnightblue" d="M543.42,-322.688C477.603,-311.17 372.277,-292.738 310.969,-282.009"/>
<polygon fill="midnightblue" stroke="midnightblue" points="543.178,-326.199 553.632,-324.475 544.385,-319.304 543.178,-326.199"/>
</g>
<!-- Node14 -->
<g id="node14" class="node"><title>Node14</title>
<g id="a_node14"><a xlink:href="_component_2_operating_mode_8h.html" target="_top" xlink:title=" ">
<polygon fill="white" stroke="black" points="537.346,-257.5 537.346,-287.5 677.346,-287.5 677.346,-257.5 537.346,-257.5"/>
<text text-anchor="start" x="545.346" y="-275.5" font-family="Helvetica,sans-Serif" font-size="10.00">Storm/Component/Operating</text>
<text text-anchor="middle" x="607.346" y="-264.5" font-family="Helvetica,sans-Serif" font-size="10.00">Mode.h</text>
</a>
</g>
</g>
<!-- Node3&#45;&gt;Node14 -->
<g id="edge21" class="edge"><title>Node3&#45;&gt;Node14</title>
<path fill="none" stroke="midnightblue" d="M603.922,-314.235C604.649,-305.586 605.497,-295.497 606.167,-287.523"/>
<polygon fill="midnightblue" stroke="midnightblue" points="600.412,-314.217 603.062,-324.475 607.387,-314.803 600.412,-314.217"/>
</g>
<!-- Node15 -->
<g id="node15" class="node"><title>Node15</title>
<g id="a_node15"><a xlink:href="_model_points_8h.html" target="_top" xlink:title="This file defines all of the Model Points for the Thermostat Application.">
<polygon fill="white" stroke="black" points="357.846,-263 357.846,-282 518.846,-282 518.846,-263 357.846,-263"/>
<text text-anchor="middle" x="438.346" y="-270" font-family="Helvetica,sans-Serif" font-size="10.00">Storm/Thermostat/ModelPoints.h</text>
</a>
</g>
</g>
<!-- Node3&#45;&gt;Node15 -->
<g id="edge23" class="edge"><title>Node3&#45;&gt;Node15</title>
<path fill="none" stroke="midnightblue" d="M569.085,-320.933C537.209,-309.368 489.911,-292.208 461.799,-282.009"/>
<polygon fill="midnightblue" stroke="midnightblue" points="568.254,-324.355 578.848,-324.475 570.642,-317.774 568.254,-324.355"/>
</g>
<!-- Node5 -->
<g id="node5" class="node"><title>Node5</title>
<g id="a_node5"><a xlink:href="_cooling_8h.html" target="_top" xlink:title=" ">
<polygon fill="white" stroke="black" points="765.846,-123.5 765.846,-153.5 910.846,-153.5 910.846,-123.5 765.846,-123.5"/>
<text text-anchor="start" x="773.846" y="-141.5" font-family="Helvetica,sans-Serif" font-size="10.00">Storm/Component/Equipment</text>
<text text-anchor="middle" x="838.346" y="-130.5" font-family="Helvetica,sans-Serif" font-size="10.00">/Cooling.h</text>
</a>
</g>
</g>
<!-- Node4&#45;&gt;Node5 -->
<g id="edge4" class="edge"><title>Node4&#45;&gt;Node5</title>
<path fill="none" stroke="midnightblue" d="M808.683,-259.162C826.94,-251.336 846.763,-239.172 857.346,-221 869.775,-199.657 857.318,-170.72 847.546,-153.687"/>
<polygon fill="midnightblue" stroke="midnightblue" points="807.342,-255.929 799.336,-262.869 809.922,-262.436 807.342,-255.929"/>
</g>
<!-- Node6 -->
<g id="node6" class="node"><title>Node6</title>
<g id="a_node6"><a xlink:href="_algorithm_8h.html" target="_top" xlink:title=" ">
<polygon fill="white" stroke="black" points="798.346,-0.5 798.346,-19.5 946.346,-19.5 946.346,-0.5 798.346,-0.5"/>
<text text-anchor="middle" x="872.346" y="-7.5" font-family="Helvetica,sans-Serif" font-size="10.00">Storm/Thermostat/Algorithm.h</text>
</a>
</g>
</g>
<!-- Node4&#45;&gt;Node6 -->
<g id="edge18" class="edge"><title>Node4&#45;&gt;Node6</title>
<path fill="none" stroke="midnightblue" d="M805.484,-259.439C827.23,-251.081 854.271,-238.324 874.346,-221 901.502,-197.564 908.892,-188.314 919.346,-154 923.361,-140.82 923.817,-136.032 919.346,-123 912.767,-103.827 900.217,-105.225 891.346,-87 880.274,-64.2546 875.261,-34.4413 873.347,-19.8377"/>
<polygon fill="midnightblue" stroke="midnightblue" points="804.081,-256.226 795.91,-262.971 806.503,-262.794 804.081,-256.226"/>
</g>
<!-- Node7 -->
<g id="node7" class="node"><title>Node7</title>
<g id="a_node7"><a xlink:href="_indoor_heating_8h.html" target="_top" xlink:title=" ">
<polygon fill="white" stroke="black" points="602.846,-123.5 602.846,-153.5 747.846,-153.5 747.846,-123.5 602.846,-123.5"/>
<text text-anchor="start" x="610.846" y="-141.5" font-family="Helvetica,sans-Serif" font-size="10.00">Storm/Component/Equipment</text>
<text text-anchor="middle" x="675.346" y="-130.5" font-family="Helvetica,sans-Serif" font-size="10.00">/IndoorHeating.h</text>
</a>
</g>
</g>
<!-- Node4&#45;&gt;Node7 -->
<g id="edge6" class="edge"><title>Node4&#45;&gt;Node7</title>
<path fill="none" stroke="midnightblue" d="M738.999,-258.142C723.483,-249.631 705.408,-237.153 694.346,-221 680.307,-200.502 676.546,-171.024 675.596,-153.709"/>
<polygon fill="midnightblue" stroke="midnightblue" points="737.754,-261.438 748.244,-262.926 740.971,-255.221 737.754,-261.438"/>
</g>
<!-- Node8 -->
<g id="node8" class="node"><title>Node8</title>
<g id="a_node8"><a xlink:href="_off_8h.html" target="_top" xlink:title=" ">
<polygon fill="white" stroke="black" points="439.846,-123.5 439.846,-153.5 584.846,-153.5 584.846,-123.5 439.846,-123.5"/>
<text text-anchor="start" x="447.846" y="-141.5" font-family="Helvetica,sans-Serif" font-size="10.00">Storm/Component/Equipment</text>
<text text-anchor="middle" x="512.346" y="-130.5" font-family="Helvetica,sans-Serif" font-size="10.00">/Off.h</text>
</a>
</g>
</g>
<!-- Node4&#45;&gt;Node8 -->
<g id="edge8" class="edge"><title>Node4&#45;&gt;Node8</title>
<path fill="none" stroke="midnightblue" d="M742.997,-257.968C712.372,-241.667 659.238,-213.535 613.346,-190 589.098,-177.565 561.405,-163.745 541.158,-153.711"/>
<polygon fill="midnightblue" stroke="midnightblue" points="741.641,-261.211 752.112,-262.825 744.932,-255.034 741.641,-261.211"/>
</g>
<!-- Node9 -->
<g id="node9" class="node"><title>Node9</title>
<g id="a_node9"><a xlink:href="_stage_api_8h.html" target="_top" xlink:title=" ">
<polygon fill="white" stroke="black" points="703.846,-190.5 703.846,-220.5 848.846,-220.5 848.846,-190.5 703.846,-190.5"/>
<text text-anchor="start" x="711.846" y="-208.5" font-family="Helvetica,sans-Serif" font-size="10.00">Storm/Component/Equipment</text>
<text text-anchor="middle" x="776.346" y="-197.5" font-family="Helvetica,sans-Serif" font-size="10.00">/StageApi.h</text>
</a>
</g>
</g>
<!-- Node4&#45;&gt;Node9 -->
<g id="edge10" class="edge"><title>Node4&#45;&gt;Node9</title>
<path fill="none" stroke="midnightblue" d="M770.655,-252.739C771.916,-242.487 773.453,-230.001 774.612,-220.589"/>
<polygon fill="midnightblue" stroke="midnightblue" points="767.172,-252.381 769.424,-262.734 774.12,-253.236 767.172,-252.381"/>
</g>
<!-- Node5&#45;&gt;Node6 -->
<g id="edge5" class="edge"><title>Node5&#45;&gt;Node6</title>
<path fill="none" stroke="midnightblue" d="M843.828,-113.504C847.649,-97.2168 853,-75.2294 858.346,-56 861.895,-43.2296 866.559,-28.6014 869.505,-19.5806"/>
<polygon fill="midnightblue" stroke="midnightblue" points="840.407,-112.765 841.554,-123.298 847.225,-114.348 840.407,-112.765"/>
</g>
<!-- Node7&#45;&gt;Node6 -->
<g id="edge7" class="edge"><title>Node7&#45;&gt;Node6</title>
<path fill="none" stroke="midnightblue" d="M705.632,-118.052C749.042,-90.1771 827.185,-39.999 858.659,-19.7885"/>
<polygon fill="midnightblue" stroke="midnightblue" points="703.704,-115.131 697.181,-123.479 707.486,-121.021 703.704,-115.131"/>
</g>
<!-- Node8&#45;&gt;Node6 -->
<g id="edge9" class="edge"><title>Node8&#45;&gt;Node6</title>
<path fill="none" stroke="midnightblue" d="M561.875,-120.096C640.041,-92.6291 789.144,-40.2362 847.785,-19.6303"/>
<polygon fill="midnightblue" stroke="midnightblue" points="560.521,-116.862 552.247,-123.479 562.842,-123.466 560.521,-116.862"/>
</g>
<!-- Node9&#45;&gt;Node5 -->
<g id="edge11" class="edge"><title>Node9&#45;&gt;Node5</title>
<path fill="none" stroke="midnightblue" d="M796.83,-183.024C806.068,-173.34 816.718,-162.174 824.919,-153.577"/>
<polygon fill="midnightblue" stroke="midnightblue" points="794.168,-180.744 789.799,-190.396 799.233,-185.576 794.168,-180.744"/>
</g>
<!-- Node9&#45;&gt;Node7 -->
<g id="edge12" class="edge"><title>Node9&#45;&gt;Node7</title>
<path fill="none" stroke="midnightblue" d="M745.632,-184.734C730.003,-174.676 711.371,-162.685 697.218,-153.577"/>
<polygon fill="midnightblue" stroke="midnightblue" points="744.127,-187.927 754.43,-190.396 747.915,-182.041 744.127,-187.927"/>
</g>
<!-- Node10 -->
<g id="node10" class="node"><title>Node10</title>
<g id="a_node10"><a xlink:href="_storm_2_component_2_equipment_2_stage_2_basic_8h.html" target="_top" xlink:title=" ">
<polygon fill="white" stroke="black" points="967.846,-123.5 967.846,-153.5 1112.85,-153.5 1112.85,-123.5 967.846,-123.5"/>
<text text-anchor="start" x="975.846" y="-141.5" font-family="Helvetica,sans-Serif" font-size="10.00">Storm/Component/Equipment</text>
<text text-anchor="middle" x="1040.35" y="-130.5" font-family="Helvetica,sans-Serif" font-size="10.00">/Stage/Basic.h</text>
</a>
</g>
</g>
<!-- Node9&#45;&gt;Node10 -->
<g id="edge13" class="edge"><title>Node9&#45;&gt;Node10</title>
<path fill="none" stroke="midnightblue" d="M843.152,-188.052C886.312,-177.425 941.888,-163.741 983.034,-153.611"/>
<polygon fill="midnightblue" stroke="midnightblue" points="842.178,-184.687 833.305,-190.476 843.851,-191.484 842.178,-184.687"/>
</g>
<!-- Node11 -->
<g id="node11" class="node"><title>Node11</title>
<g id="a_node11"><a xlink:href="_basic_cooling_8h.html" target="_top" xlink:title=" ">
<polygon fill="white" stroke="black" points="1063.85,-56.5 1063.85,-86.5 1208.85,-86.5 1208.85,-56.5 1063.85,-56.5"/>
<text text-anchor="start" x="1071.85" y="-74.5" font-family="Helvetica,sans-Serif" font-size="10.00">Storm/Component/Equipment</text>
<text text-anchor="middle" x="1136.35" y="-63.5" font-family="Helvetica,sans-Serif" font-size="10.00">/Stage/BasicCooling.h</text>
</a>
</g>
</g>
<!-- Node10&#45;&gt;Node11 -->
<g id="edge14" class="edge"><title>Node10&#45;&gt;Node11</title>
<path fill="none" stroke="midnightblue" d="M1069.54,-117.734C1084.39,-107.676 1102.1,-95.6847 1115.56,-86.5765"/>
<polygon fill="midnightblue" stroke="midnightblue" points="1067.49,-114.891 1061.18,-123.396 1071.42,-120.688 1067.49,-114.891"/>
</g>
<!-- Node12 -->
<g id="node12" class="node"><title>Node12</title>
<g id="a_node12"><a xlink:href="_basic_indoor_heat_8h.html" target="_top" xlink:title=" ">
<polygon fill="white" stroke="black" points="900.846,-56.5 900.846,-86.5 1045.85,-86.5 1045.85,-56.5 900.846,-56.5"/>
<text text-anchor="start" x="908.846" y="-74.5" font-family="Helvetica,sans-Serif" font-size="10.00">Storm/Component/Equipment</text>
<text text-anchor="middle" x="973.346" y="-63.5" font-family="Helvetica,sans-Serif" font-size="10.00">/Stage/BasicIndoorHeat.h</text>
</a>
</g>
</g>
<!-- Node10&#45;&gt;Node12 -->
<g id="edge16" class="edge"><title>Node10&#45;&gt;Node12</title>
<path fill="none" stroke="midnightblue" d="M1018.51,-116.311C1008.45,-106.561 996.805,-95.259 987.855,-86.5765"/>
<polygon fill="midnightblue" stroke="midnightblue" points="1016.19,-118.945 1025.81,-123.396 1021.07,-113.921 1016.19,-118.945"/>
</g>
<!-- Node11&#45;&gt;Node6 -->
<g id="edge15" class="edge"><title>Node11&#45;&gt;Node6</title>
<path fill="none" stroke="midnightblue" d="M1064.35,-54.2743C1014.51,-43.0418 950.177,-28.5416 910.088,-19.5064"/>
<polygon fill="midnightblue" stroke="midnightblue" points="1063.59,-57.6903 1074.12,-56.4747 1065.13,-50.8616 1063.59,-57.6903"/>
</g>
<!-- Node12&#45;&gt;Node6 -->
<g id="edge17" class="edge"><title>Node12&#45;&gt;Node6</title>
<path fill="none" stroke="midnightblue" d="M940.361,-51.0688C922.357,-40.4624 900.963,-27.8586 887.042,-19.6578"/>
<polygon fill="midnightblue" stroke="midnightblue" points="939.017,-54.3391 949.41,-56.3993 942.57,-48.3079 939.017,-54.3391"/>
</g>
<!-- Node13&#45;&gt;Node6 -->
<g id="edge20" class="edge"><title>Node13&#45;&gt;Node6</title>
<path fill="none" stroke="midnightblue" d="M175.087,-271.009C85.1601,-267.265 -35.8637,-251.225 10.3455,-190 105.3,-64.1896 606.771,-24.9131 798.093,-14.3988"/>
<polygon fill="midnightblue" stroke="midnightblue" points="175.211,-274.516 185.334,-271.39 175.47,-267.521 175.211,-274.516"/>
</g>
<!-- Node14&#45;&gt;Node6 -->
<g id="edge22" class="edge"><title>Node14&#45;&gt;Node6</title>
<path fill="none" stroke="midnightblue" d="M605.528,-247.297C602.862,-229.031 596.326,-204.686 580.346,-190 529.865,-143.608 472.792,-207.84 430.346,-154 421.815,-143.18 422.103,-134.04 430.346,-123 473.973,-64.5617 683.76,-32.2259 797.928,-18.6907"/>
<polygon fill="midnightblue" stroke="midnightblue" points="602.081,-247.959 606.715,-257.487 609.034,-247.149 602.081,-247.959"/>
</g>
<!-- Node16 -->
<g id="node16" class="node"><title>Node16</title>
<g id="a_node16"><a xlink:href="_installer_record_8h_source.html" target="_top" xlink:title=" ">
<polygon fill="white" stroke="black" points="19.8455,-190.5 19.8455,-220.5 138.846,-220.5 138.846,-190.5 19.8455,-190.5"/>
<text text-anchor="start" x="27.8455" y="-208.5" font-family="Helvetica,sans-Serif" font-size="10.00">Storm/Thermostat/Main</text>
<text text-anchor="middle" x="79.3455" y="-197.5" font-family="Helvetica,sans-Serif" font-size="10.00">/InstallerRecord.h</text>
</a>
</g>
</g>
<!-- Node15&#45;&gt;Node16 -->
<g id="edge24" class="edge"><title>Node15&#45;&gt;Node16</title>
<path fill="none" stroke="midnightblue" d="M375.751,-261.348C316.734,-251.609 225.87,-236.18 147.346,-221 144.62,-220.473 141.835,-219.924 139.023,-219.36"/>
<polygon fill="midnightblue" stroke="midnightblue" points="375.229,-264.81 385.665,-262.981 376.366,-257.903 375.229,-264.81"/>
</g>
<!-- Node17 -->
<g id="node17" class="node"><title>Node17</title>
<g id="a_node17"><a xlink:href="_run_time_record_8h_source.html" target="_top" xlink:title=" ">
<polygon fill="white" stroke="black" points="156.846,-190.5 156.846,-220.5 275.846,-220.5 275.846,-190.5 156.846,-190.5"/>
<text text-anchor="start" x="164.846" y="-208.5" font-family="Helvetica,sans-Serif" font-size="10.00">Storm/Thermostat/Main</text>
<text text-anchor="middle" x="216.346" y="-197.5" font-family="Helvetica,sans-Serif" font-size="10.00">/RunTimeRecord.h</text>
</a>
</g>
</g>
<!-- Node15&#45;&gt;Node17 -->
<g id="edge25" class="edge"><title>Node15&#45;&gt;Node17</title>
<path fill="none" stroke="midnightblue" d="M399.265,-260.058C361.626,-249.037 304.613,-232.344 264.257,-220.528"/>
<polygon fill="midnightblue" stroke="midnightblue" points="398.285,-263.417 408.866,-262.869 400.252,-256.699 398.285,-263.417"/>
</g>
<!-- Node18 -->
<g id="node18" class="node"><title>Node18</title>
<g id="a_node18"><a xlink:href="_user_record_8h_source.html" target="_top" xlink:title=" ">
<polygon fill="white" stroke="black" points="293.846,-190.5 293.846,-220.5 412.846,-220.5 412.846,-190.5 293.846,-190.5"/>
<text text-anchor="start" x="301.846" y="-208.5" font-family="Helvetica,sans-Serif" font-size="10.00">Storm/Thermostat/Main</text>
<text text-anchor="middle" x="353.346" y="-197.5" font-family="Helvetica,sans-Serif" font-size="10.00">/UserRecord.h</text>
</a>
</g>
</g>
<!-- Node15&#45;&gt;Node18 -->
<g id="edge26" class="edge"><title>Node15&#45;&gt;Node18</title>
<path fill="none" stroke="midnightblue" d="M418.788,-256.544C404.64,-245.725 385.649,-231.203 371.77,-220.589"/>
<polygon fill="midnightblue" stroke="midnightblue" points="416.812,-259.44 426.882,-262.734 421.065,-253.879 416.812,-259.44"/>
</g>
<!-- Node19 -->
<g id="node19" class="node"><title>Node19</title>
<g id="a_node19"><a xlink:href="_event_monitor_8h_source.html" target="_top" xlink:title=" ">
<polygon fill="white" stroke="black" points="431.346,-190.5 431.346,-220.5 571.346,-220.5 571.346,-190.5 431.346,-190.5"/>
<text text-anchor="start" x="439.346" y="-208.5" font-family="Helvetica,sans-Serif" font-size="10.00">Storm/Thermostat/Ui</text>
<text text-anchor="middle" x="501.346" y="-197.5" font-family="Helvetica,sans-Serif" font-size="10.00">/PicoDisplay/EventMonitor.h</text>
</a>
</g>
</g>
<!-- Node15&#45;&gt;Node19 -->
<g id="edge27" class="edge"><title>Node15&#45;&gt;Node19</title>
<path fill="none" stroke="midnightblue" d="M454.043,-255.304C464.384,-244.635 477.791,-230.802 487.69,-220.589"/>
<polygon fill="midnightblue" stroke="midnightblue" points="451.289,-253.117 446.842,-262.734 456.315,-257.989 451.289,-253.117"/>
</g>
<!-- Node21 -->
<g id="node21" class="node"><title>Node21</title>
<g id="a_node21"><a xlink:href="_mp_system_config_8h.html" target="_top" xlink:title=" ">
<polygon fill="white" stroke="black" points="694.846,-324.5 694.846,-343.5 841.846,-343.5 841.846,-324.5 694.846,-324.5"/>
<text text-anchor="middle" x="768.346" y="-331.5" font-family="Helvetica,sans-Serif" font-size="10.00">Storm/Dm/MpSystemConfig.h</text>
</a>
</g>
</g>
<!-- Node20&#45;&gt;Node21 -->
<g id="edge29" class="edge"><title>Node20&#45;&gt;Node21</title>
<path fill="none" stroke="midnightblue" d="M767.056,-369.805C767.386,-360.91 767.761,-350.78 768.021,-343.751"/>
<polygon fill="midnightblue" stroke="midnightblue" points="763.548,-369.96 766.676,-380.083 770.544,-370.219 763.548,-369.96"/>
</g>
<!-- Node21&#45;&gt;Node4 -->
<g id="edge30" class="edge"><title>Node21&#45;&gt;Node4</title>
<path fill="none" stroke="midnightblue" d="M768.346,-314.317C768.346,-303.496 768.346,-290.398 768.346,-282.009"/>
<polygon fill="midnightblue" stroke="midnightblue" points="764.846,-314.475 768.346,-324.475 771.846,-314.475 764.846,-314.475"/>
</g>
<!-- Node21&#45;&gt;Node13 -->
<g id="edge31" class="edge"><title>Node21&#45;&gt;Node13</title>
<path fill="none" stroke="midnightblue" d="M684.497,-323.916C533.896,-307.899 494.364,-308.09 348.346,-288 335.896,-286.287 322.478,-284.161 310.03,-282.069"/>
<polygon fill="midnightblue" stroke="midnightblue" points="684.264,-327.411 694.58,-324.995 685.009,-320.451 684.264,-327.411"/>
</g>
<!-- Node21&#45;&gt;Node14 -->
<g id="edge34" class="edge"><title>Node21&#45;&gt;Node14</title>
<path fill="none" stroke="midnightblue" d="M735.809,-320.976C709.632,-311.302 672.806,-297.692 645.29,-287.523"/>
<polygon fill="midnightblue" stroke="midnightblue" points="734.685,-324.292 745.278,-324.475 737.112,-317.726 734.685,-324.292"/>
</g>
<!-- Node21&#45;&gt;Node15 -->
<g id="edge41" class="edge"><title>Node21&#45;&gt;Node15</title>
<path fill="none" stroke="midnightblue" d="M711.154,-322.688C647.271,-311.17 545.044,-292.738 485.539,-282.009"/>
<polygon fill="midnightblue" stroke="midnightblue" points="710.602,-326.145 721.065,-324.475 711.844,-319.256 710.602,-326.145"/>
</g>
<!-- Node22 -->
<g id="node22" class="node"><title>Node22</title>
<g id="a_node22"><a xlink:href="_component_2_hvac_relay_outputs_8h.html" target="_top" xlink:title=" ">
<polygon fill="white" stroke="black" points="1265.35,-56.5 1265.35,-86.5 1411.35,-86.5 1411.35,-56.5 1265.35,-56.5"/>
<text text-anchor="start" x="1273.35" y="-74.5" font-family="Helvetica,sans-Serif" font-size="10.00">Storm/Component/HvacRelay</text>
<text text-anchor="middle" x="1338.35" y="-63.5" font-family="Helvetica,sans-Serif" font-size="10.00">Outputs.h</text>
</a>
</g>
</g>
<!-- Node21&#45;&gt;Node22 -->
<g id="edge32" class="edge"><title>Node21&#45;&gt;Node22</title>
<path fill="none" stroke="midnightblue" d="M852.285,-327.081C968.896,-314.507 1179.81,-275.378 1306.35,-154 1325.43,-135.69 1333.36,-104.619 1336.47,-86.5932"/>
<polygon fill="midnightblue" stroke="midnightblue" points="851.575,-323.636 841.989,-328.148 852.297,-330.598 851.575,-323.636"/>
</g>
<!-- Node23 -->
<g id="node23" class="node"><title>Node23</title>
<g id="a_node23"><a xlink:href="_pi_8h.html" target="_top" xlink:title=" ">
<polygon fill="white" stroke="black" points="1429.35,-62 1429.35,-81 1545.35,-81 1545.35,-62 1429.35,-62"/>
<text text-anchor="middle" x="1487.35" y="-69" font-family="Helvetica,sans-Serif" font-size="10.00">Storm/Component/Pi.h</text>
</a>
</g>
</g>
<!-- Node21&#45;&gt;Node23 -->
<g id="edge35" class="edge"><title>Node21&#45;&gt;Node23</title>
<path fill="none" stroke="midnightblue" d="M852.021,-329.318C922.619,-324.501 1025.73,-313.422 1112.35,-288 1179.3,-268.349 1193.24,-254.709 1254.35,-221 1341.71,-172.803 1440.92,-104.893 1475.06,-81.1211"/>
<polygon fill="midnightblue" stroke="midnightblue" points="851.596,-325.838 841.847,-329.984 852.054,-332.823 851.596,-325.838"/>
</g>
<!-- Node24 -->
<g id="node24" class="node"><title>Node24</title>
<g id="a_node24"><a xlink:href="_pi_pre_process_8h.html" target="_top" xlink:title=" ">
<polygon fill="white" stroke="black" points="1130.85,-129 1130.85,-148 1297.85,-148 1297.85,-129 1130.85,-129"/>
<text text-anchor="middle" x="1214.35" y="-136" font-family="Helvetica,sans-Serif" font-size="10.00">Storm/Component/PiPreProcess.h</text>
</a>
</g>
</g>
<!-- Node21&#45;&gt;Node24 -->
<g id="edge37" class="edge"><title>Node21&#45;&gt;Node24</title>
<path fill="none" stroke="midnightblue" d="M797.298,-320.439C881.296,-283.996 1123.6,-178.872 1194.58,-148.075"/>
<polygon fill="midnightblue" stroke="midnightblue" points="795.866,-317.245 788.085,-324.436 798.652,-323.667 795.866,-317.245"/>
</g>
<!-- Node22&#45;&gt;Node6 -->
<g id="edge33" class="edge"><title>Node22&#45;&gt;Node6</title>
<path fill="none" stroke="midnightblue" d="M1255.21,-56.558C1253.91,-56.3686 1252.62,-56.1824 1251.35,-56 1145.73,-40.9378 1023.06,-27.0225 946.555,-18.7689"/>
<polygon fill="midnightblue" stroke="midnightblue" points="1254.87,-60.0465 1265.28,-58.0672 1255.91,-53.1238 1254.87,-60.0465"/>
</g>
<!-- Node23&#45;&gt;Node6 -->
<g id="edge36" class="edge"><title>Node23&#45;&gt;Node6</title>
<path fill="none" stroke="midnightblue" d="M1441.77,-59.7983C1434.62,-58.3644 1427.31,-57.0344 1420.35,-56 1252.04,-30.9875 1052.43,-18.99 946.711,-14.0097"/>
<polygon fill="midnightblue" stroke="midnightblue" points="1441.53,-63.3254 1452.04,-61.9512 1442.97,-56.4743 1441.53,-63.3254"/>
</g>
<!-- Node24&#45;&gt;Node6 -->
<g id="edge40" class="edge"><title>Node24&#45;&gt;Node6</title>
<path fill="none" stroke="midnightblue" d="M1221.55,-119.066C1227.35,-100.776 1232.34,-73.0766 1217.35,-56 1199.76,-35.9718 1042.43,-22.1701 946.408,-15.5294"/>
<polygon fill="midnightblue" stroke="midnightblue" points="1218.21,-118.001 1218.18,-128.596 1224.81,-120.334 1218.21,-118.001"/>
</g>
<!-- Node24&#45;&gt;Node11 -->
<g id="edge38" class="edge"><title>Node24&#45;&gt;Node11</title>
<path fill="none" stroke="midnightblue" d="M1196.03,-122.237C1183.09,-111.452 1165.87,-97.1025 1153.25,-86.589"/>
<polygon fill="midnightblue" stroke="midnightblue" points="1193.9,-125.021 1203.83,-128.734 1198.38,-119.643 1193.9,-125.021"/>
</g>
<!-- Node24&#45;&gt;Node12 -->
<g id="edge39" class="edge"><title>Node24&#45;&gt;Node12</title>
<path fill="none" stroke="midnightblue" d="M1172.44,-126.198C1131.59,-115.179 1069.35,-98.3944 1025.36,-86.5281"/>
<polygon fill="midnightblue" stroke="midnightblue" points="1171.78,-129.644 1182.34,-128.869 1173.6,-122.885 1171.78,-129.644"/>
</g>
</g>
</svg>
