<?xml version="1.0" encoding="UTF-8" standalone="no"?>
<!DOCTYPE svg PUBLIC "-//W3C//DTD SVG 1.1//EN"
 "http://www.w3.org/Graphics/SVG/1.1/DTD/svg11.dtd">
<!-- Generated by graphviz version 2.38.0 (20140413.2041)
 -->
<!-- Title: Cpl/TShell/Maker.h Pages: 1 -->
<svg width="1345pt" height="532pt"
 viewBox="0.00 0.00 1344.65 532.00" xmlns="http://www.w3.org/2000/svg" xmlns:xlink="http://www.w3.org/1999/xlink">
<g id="graph0" class="graph" transform="scale(1 1) rotate(0) translate(4 528)">
<title>Cpl/TShell/Maker.h</title>
<polygon fill="white" stroke="none" points="-4,4 -4,-528 1340.65,-528 1340.65,4 -4,4"/>
<!-- Node1 -->
<g id="node1" class="node"><title>Node1</title>
<g id="a_node1"><a xlink:title=" ">
<polygon fill="#bfbfbf" stroke="black" points="464.647,-504.5 464.647,-523.5 564.647,-523.5 564.647,-504.5 464.647,-504.5"/>
<text text-anchor="middle" x="514.647" y="-511.5" font-family="Helvetica,sans-Serif" font-size="10.00">Cpl/TShell/Maker.h</text>
</a>
</g>
</g>
<!-- Node2 -->
<g id="node2" class="node"><title>Node2</title>
<g id="a_node2"><a xlink:href="_processor_8h.html" target="_top" xlink:title=" ">
<polygon fill="white" stroke="black" points="623.147,-448.5 623.147,-467.5 740.147,-467.5 740.147,-448.5 623.147,-448.5"/>
<text text-anchor="middle" x="681.647" y="-455.5" font-family="Helvetica,sans-Serif" font-size="10.00">Cpl/TShell/Processor.h</text>
</a>
</g>
</g>
<!-- Node1&#45;&gt;Node2 -->
<g id="edge1" class="edge"><title>Node1&#45;&gt;Node2</title>
<path fill="none" stroke="midnightblue" d="M541.108,-504.444C569.325,-495.32 614.187,-480.813 645.615,-470.651"/>
<polygon fill="midnightblue" stroke="midnightblue" points="646.871,-473.923 655.309,-467.516 644.717,-467.263 646.871,-473.923"/>
</g>
<!-- Node36 -->
<g id="node36" class="node"><title>Node36</title>
<g id="a_node36"><a xlink:href="_line_decoder_8h.html" target="_top" xlink:title=" ">
<polygon fill="white" stroke="black" points="319.147,-448.5 319.147,-467.5 468.147,-467.5 468.147,-448.5 319.147,-448.5"/>
<text text-anchor="middle" x="393.647" y="-455.5" font-family="Helvetica,sans-Serif" font-size="10.00">Cpl/Text/Frame/LineDecoder.h</text>
</a>
</g>
</g>
<!-- Node1&#45;&gt;Node36 -->
<g id="edge54" class="edge"><title>Node1&#45;&gt;Node36</title>
<path fill="none" stroke="midnightblue" d="M495.474,-504.444C475.737,-495.636 444.761,-481.812 422.153,-471.722"/>
<polygon fill="midnightblue" stroke="midnightblue" points="423.288,-468.396 412.73,-467.516 420.435,-474.788 423.288,-468.396"/>
</g>
<!-- Node37 -->
<g id="node37" class="node"><title>Node37</title>
<g id="a_node37"><a xlink:href="_cpl_2_system_2_private___8h.html" target="_top" xlink:title="This file contains a collection of classes, interfaces, etc.">
<polygon fill="white" stroke="black" points="457.147,-336.5 457.147,-355.5 572.147,-355.5 572.147,-336.5 457.147,-336.5"/>
<text text-anchor="middle" x="514.647" y="-343.5" font-family="Helvetica,sans-Serif" font-size="10.00">Cpl/System/Private_.h</text>
</a>
</g>
</g>
<!-- Node1&#45;&gt;Node37 -->
<g id="edge56" class="edge"><title>Node1&#45;&gt;Node37</title>
<path fill="none" stroke="midnightblue" d="M514.647,-504.075C514.647,-477.945 514.647,-401.211 514.647,-365.577"/>
<polygon fill="midnightblue" stroke="midnightblue" points="518.147,-365.568 514.647,-355.568 511.147,-365.568 518.147,-365.568"/>
</g>
<!-- Node3 -->
<g id="node3" class="node"><title>Node3</title>
<g id="a_node3"><a xlink:title=" ">
<polygon fill="white" stroke="#bfbfbf" points="1091.15,-0.5 1091.15,-19.5 1176.15,-19.5 1176.15,-0.5 1091.15,-0.5"/>
<text text-anchor="middle" x="1133.65" y="-7.5" font-family="Helvetica,sans-Serif" font-size="10.00">colony_config.h</text>
</a>
</g>
</g>
<!-- Node2&#45;&gt;Node3 -->
<g id="edge2" class="edge"><title>Node2&#45;&gt;Node3</title>
<path fill="none" stroke="midnightblue" d="M740.35,-453.291C901.12,-442.355 1336.65,-407.176 1336.65,-347 1336.65,-347 1336.65,-347 1336.65,-121 1336.65,-52.604 1246.46,-26.5153 1186.32,-16.7213"/>
<polygon fill="midnightblue" stroke="midnightblue" points="1186.62,-13.2266 1176.2,-15.1801 1185.56,-20.1467 1186.62,-13.2266"/>
</g>
<!-- Node4 -->
<g id="node4" class="node"><title>Node4</title>
<g id="a_node4"><a xlink:href="_context___8h.html" target="_top" xlink:title=" ">
<polygon fill="white" stroke="black" points="802.647,-392.5 802.647,-411.5 914.647,-411.5 914.647,-392.5 802.647,-392.5"/>
<text text-anchor="middle" x="858.647" y="-399.5" font-family="Helvetica,sans-Serif" font-size="10.00">Cpl/TShell/Context_.h</text>
</a>
</g>
</g>
<!-- Node2&#45;&gt;Node4 -->
<g id="edge3" class="edge"><title>Node2&#45;&gt;Node4</title>
<path fill="none" stroke="midnightblue" d="M709.693,-448.444C739.728,-439.28 787.56,-424.688 820.889,-414.519"/>
<polygon fill="midnightblue" stroke="midnightblue" points="822.188,-417.782 830.732,-411.516 820.145,-411.087 822.188,-417.782"/>
</g>
<!-- Node24 -->
<g id="node24" class="node"><title>Node24</title>
<g id="a_node24"><a xlink:href="_mutex_8h.html" target="_top" xlink:title=" ">
<polygon fill="white" stroke="black" points="28.6466,-280.5 28.6466,-299.5 134.647,-299.5 134.647,-280.5 28.6466,-280.5"/>
<text text-anchor="middle" x="81.6466" y="-287.5" font-family="Helvetica,sans-Serif" font-size="10.00">Cpl/System/Mutex.h</text>
</a>
</g>
</g>
<!-- Node2&#45;&gt;Node24 -->
<g id="edge35" class="edge"><title>Node2&#45;&gt;Node24</title>
<path fill="none" stroke="midnightblue" d="M633.668,-448.448C552.792,-433.461 384.64,-399.831 246.647,-356 197.849,-340.5 142.823,-317.709 110.252,-303.64"/>
<polygon fill="midnightblue" stroke="midnightblue" points="111.462,-300.35 100.896,-299.572 108.671,-306.769 111.462,-300.35"/>
</g>
<!-- Node25 -->
<g id="node25" class="node"><title>Node25</title>
<g id="a_node25"><a xlink:href="_cpl_2_system_2_api_8h.html" target="_top" xlink:title=" ">
<polygon fill="white" stroke="black" points="598.147,-392.5 598.147,-411.5 691.147,-411.5 691.147,-392.5 598.147,-392.5"/>
<text text-anchor="middle" x="644.647" y="-399.5" font-family="Helvetica,sans-Serif" font-size="10.00">Cpl/System/Api.h</text>
</a>
</g>
</g>
<!-- Node2&#45;&gt;Node25 -->
<g id="edge37" class="edge"><title>Node2&#45;&gt;Node25</title>
<path fill="none" stroke="midnightblue" d="M675.537,-448.083C670.364,-440.534 662.8,-429.495 656.452,-420.23"/>
<polygon fill="midnightblue" stroke="midnightblue" points="659.182,-418.022 650.643,-411.751 653.408,-421.979 659.182,-418.022"/>
</g>
<!-- Node26 -->
<g id="node26" class="node"><title>Node26</title>
<g id="a_node26"><a xlink:href="_f_string_8h.html" target="_top" xlink:title=" ">
<polygon fill="white" stroke="black" points="1130.65,-336.5 1130.65,-355.5 1226.65,-355.5 1226.65,-336.5 1130.65,-336.5"/>
<text text-anchor="middle" x="1178.65" y="-343.5" font-family="Helvetica,sans-Serif" font-size="10.00">Cpl/Text/FString.h</text>
</a>
</g>
</g>
<!-- Node2&#45;&gt;Node26 -->
<g id="edge38" class="edge"><title>Node2&#45;&gt;Node26</title>
<path fill="none" stroke="midnightblue" d="M732.832,-448.488C781.949,-440.083 858.123,-426.427 923.647,-412 999.826,-395.227 1087.82,-371.915 1137.98,-358.246"/>
<polygon fill="midnightblue" stroke="midnightblue" points="1139.07,-361.577 1147.79,-355.564 1137.22,-354.825 1139.07,-361.577"/>
</g>
<!-- Node29 -->
<g id="node29" class="node"><title>Node29</title>
<g id="a_node29"><a xlink:href="_stream_encoder_8h.html" target="_top" xlink:title=" ">
<polygon fill="white" stroke="black" points="638.147,-336.5 638.147,-355.5 801.147,-355.5 801.147,-336.5 638.147,-336.5"/>
<text text-anchor="middle" x="719.647" y="-343.5" font-family="Helvetica,sans-Serif" font-size="10.00">Cpl/Text/Frame/StreamEncoder.h</text>
</a>
</g>
</g>
<!-- Node2&#45;&gt;Node29 -->
<g id="edge44" class="edge"><title>Node2&#45;&gt;Node29</title>
<path fill="none" stroke="midnightblue" d="M685.309,-448.453C689.105,-439.459 695.107,-424.853 699.647,-412 705.114,-396.518 710.543,-378.676 714.362,-365.606"/>
<polygon fill="midnightblue" stroke="midnightblue" points="717.752,-366.485 717.157,-355.907 711.025,-364.547 717.752,-366.485"/>
</g>
<!-- Node33 -->
<g id="node33" class="node"><title>Node33</title>
<g id="a_node33"><a xlink:href="_stream_decoder_8h.html" target="_top" xlink:title=" ">
<polygon fill="white" stroke="black" points="256.147,-336.5 256.147,-355.5 419.147,-355.5 419.147,-336.5 256.147,-336.5"/>
<text text-anchor="middle" x="337.647" y="-343.5" font-family="Helvetica,sans-Serif" font-size="10.00">Cpl/Text/Frame/StreamDecoder.h</text>
</a>
</g>
</g>
<!-- Node2&#45;&gt;Node33 -->
<g id="edge49" class="edge"><title>Node2&#45;&gt;Node33</title>
<path fill="none" stroke="midnightblue" d="M654.94,-448.46C593.853,-428.926 443.857,-380.963 374.241,-358.702"/>
<polygon fill="midnightblue" stroke="midnightblue" points="375.165,-355.322 364.574,-355.61 373.032,-361.99 375.165,-355.322"/>
</g>
<!-- Node5 -->
<g id="node5" class="node"><title>Node5</title>
<g id="a_node5"><a xlink:href="_processor_api_8h.html" target="_top" xlink:title=" ">
<polygon fill="white" stroke="black" points="541.147,-280.5 541.147,-299.5 672.147,-299.5 672.147,-280.5 541.147,-280.5"/>
<text text-anchor="middle" x="606.647" y="-287.5" font-family="Helvetica,sans-Serif" font-size="10.00">Cpl/TShell/ProcessorApi.h</text>
</a>
</g>
</g>
<!-- Node4&#45;&gt;Node5 -->
<g id="edge4" class="edge"><title>Node4&#45;&gt;Node5</title>
<path fill="none" stroke="midnightblue" d="M854.618,-392.267C847.604,-378.088 831.755,-350.218 809.647,-336 787.774,-321.935 726.224,-309.448 676.585,-301.218"/>
<polygon fill="midnightblue" stroke="midnightblue" points="676.944,-297.731 666.512,-299.579 675.82,-304.64 676.944,-297.731"/>
</g>
<!-- Node19 -->
<g id="node19" class="node"><title>Node19</title>
<g id="a_node19"><a xlink:href="_command_8h.html" target="_top" xlink:title=" ">
<polygon fill="white" stroke="black" points="851.147,-280.5 851.147,-299.5 968.147,-299.5 968.147,-280.5 851.147,-280.5"/>
<text text-anchor="middle" x="909.647" y="-287.5" font-family="Helvetica,sans-Serif" font-size="10.00">Cpl/TShell/Command.h</text>
</a>
</g>
</g>
<!-- Node4&#45;&gt;Node19 -->
<g id="edge25" class="edge"><title>Node4&#45;&gt;Node19</title>
<path fill="none" stroke="midnightblue" d="M862.648,-392.368C870.953,-374.456 890.209,-332.923 901.325,-308.948"/>
<polygon fill="midnightblue" stroke="midnightblue" points="904.632,-310.136 905.663,-299.591 898.282,-307.192 904.632,-310.136"/>
</g>
<!-- Node22 -->
<g id="node22" class="node"><title>Node22</title>
<g id="a_node22"><a xlink:href="_map_8h.html" target="_top" xlink:title=" ">
<polygon fill="white" stroke="black" points="958.147,-336.5 958.147,-355.5 1063.15,-355.5 1063.15,-336.5 958.147,-336.5"/>
<text text-anchor="middle" x="1010.65" y="-343.5" font-family="Helvetica,sans-Serif" font-size="10.00">Cpl/Container/Map.h</text>
</a>
</g>
</g>
<!-- Node4&#45;&gt;Node22 -->
<g id="edge31" class="edge"><title>Node4&#45;&gt;Node22</title>
<path fill="none" stroke="midnightblue" d="M882.731,-392.444C908.191,-383.399 948.54,-369.064 977.106,-358.916"/>
<polygon fill="midnightblue" stroke="midnightblue" points="978.423,-362.162 986.674,-355.516 976.08,-355.566 978.423,-362.162"/>
</g>
<!-- Node6 -->
<g id="node6" class="node"><title>Node6</title>
<g id="a_node6"><a xlink:href="_input_8h.html" target="_top" xlink:title=" ">
<polygon fill="white" stroke="black" points="619.147,-224.5 619.147,-243.5 694.147,-243.5 694.147,-224.5 619.147,-224.5"/>
<text text-anchor="middle" x="656.647" y="-231.5" font-family="Helvetica,sans-Serif" font-size="10.00">Cpl/Io/Input.h</text>
</a>
</g>
</g>
<!-- Node5&#45;&gt;Node6 -->
<g id="edge5" class="edge"><title>Node5&#45;&gt;Node6</title>
<path fill="none" stroke="midnightblue" d="M614.903,-280.083C622.111,-272.298 632.756,-260.801 641.492,-251.367"/>
<polygon fill="midnightblue" stroke="midnightblue" points="644.318,-253.467 648.544,-243.751 639.181,-248.711 644.318,-253.467"/>
</g>
<!-- Node18 -->
<g id="node18" class="node"><title>Node18</title>
<g id="a_node18"><a xlink:href="_output_8h.html" target="_top" xlink:title=" ">
<polygon fill="white" stroke="black" points="751.147,-224.5 751.147,-243.5 834.147,-243.5 834.147,-224.5 751.147,-224.5"/>
<text text-anchor="middle" x="792.647" y="-231.5" font-family="Helvetica,sans-Serif" font-size="10.00">Cpl/Io/Output.h</text>
</a>
</g>
</g>
<!-- Node5&#45;&gt;Node18 -->
<g id="edge20" class="edge"><title>Node5&#45;&gt;Node18</title>
<path fill="none" stroke="midnightblue" d="M636.119,-280.444C667.818,-271.241 718.379,-256.562 753.421,-246.388"/>
<polygon fill="midnightblue" stroke="midnightblue" points="754.685,-249.666 763.312,-243.516 752.733,-242.943 754.685,-249.666"/>
</g>
<!-- Node7 -->
<g id="node7" class="node"><title>Node7</title>
<g id="a_node7"><a xlink:href="_string_8h.html" target="_top" xlink:title=" ">
<polygon fill="white" stroke="black" points="855.647,-168.5 855.647,-187.5 945.647,-187.5 945.647,-168.5 855.647,-168.5"/>
<text text-anchor="middle" x="900.647" y="-175.5" font-family="Helvetica,sans-Serif" font-size="10.00">Cpl/Text/String.h</text>
</a>
</g>
</g>
<!-- Node6&#45;&gt;Node7 -->
<g id="edge6" class="edge"><title>Node6&#45;&gt;Node7</title>
<path fill="none" stroke="midnightblue" d="M694.237,-224.681C736.705,-215.282 805.94,-199.96 852.374,-189.683"/>
<polygon fill="midnightblue" stroke="midnightblue" points="853.201,-193.085 862.208,-187.507 851.688,-186.25 853.201,-193.085"/>
</g>
<!-- Node15 -->
<g id="node15" class="node"><title>Node15</title>
<g id="a_node15"><a xlink:href="_close_8h.html" target="_top" xlink:title=" ">
<polygon fill="white" stroke="black" points="520.647,-168.5 520.647,-187.5 598.647,-187.5 598.647,-168.5 520.647,-168.5"/>
<text text-anchor="middle" x="559.647" y="-175.5" font-family="Helvetica,sans-Serif" font-size="10.00">Cpl/Io/Close.h</text>
</a>
</g>
</g>
<!-- Node6&#45;&gt;Node15 -->
<g id="edge17" class="edge"><title>Node6&#45;&gt;Node15</title>
<path fill="none" stroke="midnightblue" d="M641.062,-224.324C625.648,-215.743 601.834,-202.486 583.937,-192.522"/>
<polygon fill="midnightblue" stroke="midnightblue" points="585.632,-189.461 575.193,-187.655 582.228,-195.577 585.632,-189.461"/>
</g>
<!-- Node17 -->
<g id="node17" class="node"><title>Node17</title>
<g id="a_node17"><a xlink:href="_is_eos_8h.html" target="_top" xlink:title=" ">
<polygon fill="white" stroke="black" points="617.147,-168.5 617.147,-187.5 696.147,-187.5 696.147,-168.5 617.147,-168.5"/>
<text text-anchor="middle" x="656.647" y="-175.5" font-family="Helvetica,sans-Serif" font-size="10.00">Cpl/Io/IsEos.h</text>
</a>
</g>
</g>
<!-- Node6&#45;&gt;Node17 -->
<g id="edge19" class="edge"><title>Node6&#45;&gt;Node17</title>
<path fill="none" stroke="midnightblue" d="M656.647,-224.083C656.647,-217.006 656.647,-206.861 656.647,-197.986"/>
<polygon fill="midnightblue" stroke="midnightblue" points="660.147,-197.751 656.647,-187.751 653.147,-197.751 660.147,-197.751"/>
</g>
<!-- Node8 -->
<g id="node8" class="node"><title>Node8</title>
<g id="a_node8"><a xlink:title=" ">
<polygon fill="white" stroke="#bfbfbf" points="277.147,-56.5 277.147,-75.5 354.147,-75.5 354.147,-56.5 277.147,-56.5"/>
<text text-anchor="middle" x="315.647" y="-63.5" font-family="Helvetica,sans-Serif" font-size="10.00">colony_map.h</text>
</a>
</g>
</g>
<!-- Node7&#45;&gt;Node8 -->
<g id="edge7" class="edge"><title>Node7&#45;&gt;Node8</title>
<path fill="none" stroke="midnightblue" d="M862.197,-168.488C803.253,-155.558 686.944,-130.516 587.647,-112 509.847,-97.4925 419.079,-82.9531 364.549,-74.4749"/>
<polygon fill="midnightblue" stroke="midnightblue" points="364.889,-70.9858 354.471,-72.9128 363.817,-77.9032 364.889,-70.9858"/>
</g>
<!-- Node9 -->
<g id="node9" class="node"><title>Node9</title>
<g id="a_node9"><a xlink:href="_key_8h.html" target="_top" xlink:title=" ">
<polygon fill="white" stroke="black" points="737.647,-112.5 737.647,-131.5 841.647,-131.5 841.647,-112.5 737.647,-112.5"/>
<text text-anchor="middle" x="789.647" y="-119.5" font-family="Helvetica,sans-Serif" font-size="10.00">Cpl/Container/Key.h</text>
</a>
</g>
</g>
<!-- Node7&#45;&gt;Node9 -->
<g id="edge8" class="edge"><title>Node7&#45;&gt;Node9</title>
<path fill="none" stroke="midnightblue" d="M877.97,-168.444C858.292,-159.794 830.295,-146.306 811.016,-136.268"/>
<polygon fill="midnightblue" stroke="midnightblue" points="812.546,-133.118 802.073,-131.516 809.261,-139.3 812.546,-133.118"/>
</g>
<!-- Node13 -->
<g id="node13" class="node"><title>Node13</title>
<g id="a_node13"><a xlink:title=" ">
<polygon fill="white" stroke="#bfbfbf" points="931.647,-112.5 931.647,-131.5 983.647,-131.5 983.647,-112.5 931.647,-112.5"/>
<text text-anchor="middle" x="957.647" y="-119.5" font-family="Helvetica,sans-Serif" font-size="10.00">stdarg.h</text>
</a>
</g>
</g>
<!-- Node7&#45;&gt;Node13 -->
<g id="edge15" class="edge"><title>Node7&#45;&gt;Node13</title>
<path fill="none" stroke="midnightblue" d="M909.805,-168.324C918.148,-160.42 930.679,-148.548 940.823,-138.938"/>
<polygon fill="midnightblue" stroke="midnightblue" points="943.469,-141.252 948.322,-131.834 938.655,-136.171 943.469,-141.252"/>
</g>
<!-- Node14 -->
<g id="node14" class="node"><title>Node14</title>
<g id="a_node14"><a xlink:title=" ">
<polygon fill="white" stroke="#bfbfbf" points="859.647,-112.5 859.647,-131.5 913.647,-131.5 913.647,-112.5 859.647,-112.5"/>
<text text-anchor="middle" x="886.647" y="-119.5" font-family="Helvetica,sans-Serif" font-size="10.00">iostream</text>
</a>
</g>
</g>
<!-- Node7&#45;&gt;Node14 -->
<g id="edge16" class="edge"><title>Node7&#45;&gt;Node14</title>
<path fill="none" stroke="midnightblue" d="M898.335,-168.083C896.48,-160.927 893.811,-150.635 891.492,-141.691"/>
<polygon fill="midnightblue" stroke="midnightblue" points="894.813,-140.553 888.915,-131.751 888.037,-142.309 894.813,-140.553"/>
</g>
<!-- Node9&#45;&gt;Node7 -->
<g id="edge13" class="edge"><title>Node9&#45;&gt;Node7</title>
<path fill="none" stroke="midnightblue" d="M812.547,-131.655C832.12,-140.267 859.808,-153.605 879.005,-163.59"/>
<polygon fill="midnightblue" stroke="midnightblue" points="877.453,-166.729 887.927,-168.324 880.734,-160.545 877.453,-166.729"/>
</g>
<!-- Node9&#45;&gt;Node8 -->
<g id="edge14" class="edge"><title>Node9&#45;&gt;Node8</title>
<path fill="none" stroke="midnightblue" d="M737.564,-115.067C645.262,-104.551 454.256,-82.791 364.394,-72.5535"/>
<polygon fill="midnightblue" stroke="midnightblue" points="364.54,-69.0475 354.208,-71.393 363.747,-76.0025 364.54,-69.0475"/>
</g>
<!-- Node10 -->
<g id="node10" class="node"><title>Node10</title>
<g id="a_node10"><a xlink:href="_fatal_error_8h.html" target="_top" xlink:title=" ">
<polygon fill="white" stroke="black" points="728.647,-56.5 728.647,-75.5 850.647,-75.5 850.647,-56.5 728.647,-56.5"/>
<text text-anchor="middle" x="789.647" y="-63.5" font-family="Helvetica,sans-Serif" font-size="10.00">Cpl/System/FatalError.h</text>
</a>
</g>
</g>
<!-- Node9&#45;&gt;Node10 -->
<g id="edge9" class="edge"><title>Node9&#45;&gt;Node10</title>
<path fill="none" stroke="midnightblue" d="M789.647,-112.083C789.647,-105.006 789.647,-94.8611 789.647,-85.9865"/>
<polygon fill="midnightblue" stroke="midnightblue" points="793.147,-85.751 789.647,-75.7511 786.147,-85.7511 793.147,-85.751"/>
</g>
<!-- Node12 -->
<g id="node12" class="node"><title>Node12</title>
<g id="a_node12"><a xlink:title=" ">
<polygon fill="white" stroke="#bfbfbf" points="869.147,-56.5 869.147,-75.5 918.147,-75.5 918.147,-56.5 869.147,-56.5"/>
<text text-anchor="middle" x="893.647" y="-63.5" font-family="Helvetica,sans-Serif" font-size="10.00">stdint.h</text>
</a>
</g>
</g>
<!-- Node9&#45;&gt;Node12 -->
<g id="edge12" class="edge"><title>Node9&#45;&gt;Node12</title>
<path fill="none" stroke="midnightblue" d="M806.356,-112.324C822.959,-103.703 848.649,-90.3643 867.867,-80.3855"/>
<polygon fill="midnightblue" stroke="midnightblue" points="869.717,-83.3689 876.979,-75.6545 866.491,-77.1565 869.717,-83.3689"/>
</g>
<!-- Node10&#45;&gt;Node3 -->
<g id="edge11" class="edge"><title>Node10&#45;&gt;Node3</title>
<path fill="none" stroke="midnightblue" d="M844.154,-56.4435C909.163,-46.2387 1017.06,-29.3006 1081.17,-19.2382"/>
<polygon fill="midnightblue" stroke="midnightblue" points="1081.73,-22.6929 1091.06,-17.6844 1080.64,-15.7776 1081.73,-22.6929"/>
</g>
<!-- Node11 -->
<g id="node11" class="node"><title>Node11</title>
<g id="a_node11"><a xlink:title=" ">
<polygon fill="white" stroke="#bfbfbf" points="763.647,-0.5 763.647,-19.5 815.647,-19.5 815.647,-0.5 763.647,-0.5"/>
<text text-anchor="middle" x="789.647" y="-7.5" font-family="Helvetica,sans-Serif" font-size="10.00">stddef.h</text>
</a>
</g>
</g>
<!-- Node10&#45;&gt;Node11 -->
<g id="edge10" class="edge"><title>Node10&#45;&gt;Node11</title>
<path fill="none" stroke="midnightblue" d="M789.647,-56.083C789.647,-49.0059 789.647,-38.8611 789.647,-29.9865"/>
<polygon fill="midnightblue" stroke="midnightblue" points="793.147,-29.751 789.647,-19.7511 786.147,-29.7511 793.147,-29.751"/>
</g>
<!-- Node16 -->
<g id="node16" class="node"><title>Node16</title>
<g id="a_node16"><a xlink:href="_item_8h.html" target="_top" xlink:title=" ">
<polygon fill="white" stroke="black" points="472.647,-112.5 472.647,-131.5 578.647,-131.5 578.647,-112.5 472.647,-112.5"/>
<text text-anchor="middle" x="525.647" y="-119.5" font-family="Helvetica,sans-Serif" font-size="10.00">Cpl/Container/Item.h</text>
</a>
</g>
</g>
<!-- Node15&#45;&gt;Node16 -->
<g id="edge18" class="edge"><title>Node15&#45;&gt;Node16</title>
<path fill="none" stroke="midnightblue" d="M554.032,-168.083C549.279,-160.534 542.329,-149.495 536.495,-140.23"/>
<polygon fill="midnightblue" stroke="midnightblue" points="539.447,-138.349 531.157,-131.751 533.523,-142.078 539.447,-138.349"/>
</g>
<!-- Node18&#45;&gt;Node7 -->
<g id="edge21" class="edge"><title>Node18&#45;&gt;Node7</title>
<path fill="none" stroke="midnightblue" d="M809.999,-224.324C827.318,-215.664 854.162,-202.242 874.149,-192.249"/>
<polygon fill="midnightblue" stroke="midnightblue" points="875.959,-195.257 883.338,-187.655 872.828,-188.996 875.959,-195.257"/>
</g>
<!-- Node18&#45;&gt;Node13 -->
<g id="edge24" class="edge"><title>Node18&#45;&gt;Node13</title>
<path fill="none" stroke="midnightblue" d="M832.592,-224.461C878.013,-214.362 946.914,-197.701 954.647,-188 964.87,-175.175 964.462,-155.99 962.194,-141.784"/>
<polygon fill="midnightblue" stroke="midnightblue" points="965.561,-140.78 960.143,-131.676 958.701,-142.172 965.561,-140.78"/>
</g>
<!-- Node18&#45;&gt;Node15 -->
<g id="edge22" class="edge"><title>Node18&#45;&gt;Node15</title>
<path fill="none" stroke="midnightblue" d="M755.727,-224.444C715.251,-215.063 650.226,-199.993 606.262,-189.804"/>
<polygon fill="midnightblue" stroke="midnightblue" points="606.925,-186.365 596.393,-187.516 605.345,-193.184 606.925,-186.365"/>
</g>
<!-- Node18&#45;&gt;Node17 -->
<g id="edge23" class="edge"><title>Node18&#45;&gt;Node17</title>
<path fill="none" stroke="midnightblue" d="M771.097,-224.444C748.616,-215.517 713.159,-201.439 687.667,-191.317"/>
<polygon fill="midnightblue" stroke="midnightblue" points="688.681,-187.954 678.095,-187.516 686.098,-194.46 688.681,-187.954"/>
</g>
<!-- Node19&#45;&gt;Node18 -->
<g id="edge30" class="edge"><title>Node19&#45;&gt;Node18</title>
<path fill="none" stroke="midnightblue" d="M891.108,-280.444C872.024,-271.636 842.072,-257.812 820.211,-247.722"/>
<polygon fill="midnightblue" stroke="midnightblue" points="821.645,-244.529 811.099,-243.516 818.712,-250.885 821.645,-244.529"/>
</g>
<!-- Node20 -->
<g id="node20" class="node"><title>Node20</title>
<g id="a_node20"><a xlink:href="_map_item_8h.html" target="_top" xlink:title=" ">
<polygon fill="white" stroke="black" points="891.147,-224.5 891.147,-243.5 1016.15,-243.5 1016.15,-224.5 891.147,-224.5"/>
<text text-anchor="middle" x="953.647" y="-231.5" font-family="Helvetica,sans-Serif" font-size="10.00">Cpl/Container/MapItem.h</text>
</a>
</g>
</g>
<!-- Node19&#45;&gt;Node20 -->
<g id="edge26" class="edge"><title>Node19&#45;&gt;Node20</title>
<path fill="none" stroke="midnightblue" d="M916.912,-280.083C923.191,-272.377 932.434,-261.033 940.077,-251.653"/>
<polygon fill="midnightblue" stroke="midnightblue" points="942.913,-253.714 946.516,-243.751 937.486,-249.293 942.913,-253.714"/>
</g>
<!-- Node21 -->
<g id="node21" class="node"><title>Node21</title>
<g id="a_node21"><a xlink:href="_dict_item_8h.html" target="_top" xlink:title=" ">
<polygon fill="white" stroke="black" points="714.147,-168.5 714.147,-187.5 837.147,-187.5 837.147,-168.5 714.147,-168.5"/>
<text text-anchor="middle" x="775.647" y="-175.5" font-family="Helvetica,sans-Serif" font-size="10.00">Cpl/Container/DictItem.h</text>
</a>
</g>
</g>
<!-- Node20&#45;&gt;Node21 -->
<g id="edge27" class="edge"><title>Node20&#45;&gt;Node21</title>
<path fill="none" stroke="midnightblue" d="M925.442,-224.444C895.237,-215.28 847.135,-200.688 813.617,-190.519"/>
<polygon fill="midnightblue" stroke="midnightblue" points="814.305,-187.07 803.719,-187.516 812.273,-193.769 814.305,-187.07"/>
</g>
<!-- Node21&#45;&gt;Node9 -->
<g id="edge29" class="edge"><title>Node21&#45;&gt;Node9</title>
<path fill="none" stroke="midnightblue" d="M777.958,-168.083C779.814,-160.927 782.482,-150.635 784.801,-141.691"/>
<polygon fill="midnightblue" stroke="midnightblue" points="788.256,-142.309 787.378,-131.751 781.48,-140.553 788.256,-142.309"/>
</g>
<!-- Node21&#45;&gt;Node16 -->
<g id="edge28" class="edge"><title>Node21&#45;&gt;Node16</title>
<path fill="none" stroke="midnightblue" d="M736.033,-168.444C692.421,-159.023 622.247,-143.866 575.069,-133.675"/>
<polygon fill="midnightblue" stroke="midnightblue" points="575.588,-130.207 565.074,-131.516 574.11,-137.049 575.588,-130.207"/>
</g>
<!-- Node23 -->
<g id="node23" class="node"><title>Node23</title>
<g id="a_node23"><a xlink:href="_avl_tree___8h.html" target="_top" xlink:title=" ">
<polygon fill="white" stroke="black" points="1025.15,-280.5 1025.15,-299.5 1150.15,-299.5 1150.15,-280.5 1025.15,-280.5"/>
<text text-anchor="middle" x="1087.65" y="-287.5" font-family="Helvetica,sans-Serif" font-size="10.00">Cpl/Container/AvlTree_.h</text>
</a>
</g>
</g>
<!-- Node22&#45;&gt;Node23 -->
<g id="edge32" class="edge"><title>Node22&#45;&gt;Node23</title>
<path fill="none" stroke="midnightblue" d="M1023.02,-336.324C1034.81,-328.058 1052.78,-315.453 1066.78,-305.632"/>
<polygon fill="midnightblue" stroke="midnightblue" points="1069.13,-308.262 1075.31,-299.655 1065.11,-302.531 1069.13,-308.262"/>
</g>
<!-- Node23&#45;&gt;Node3 -->
<g id="edge33" class="edge"><title>Node23&#45;&gt;Node3</title>
<path fill="none" stroke="midnightblue" d="M1094.04,-280.391C1106.68,-262.498 1133.65,-219.572 1133.65,-179 1133.65,-179 1133.65,-179 1133.65,-121 1133.65,-88.948 1133.65,-51.6426 1133.65,-29.7489"/>
<polygon fill="midnightblue" stroke="midnightblue" points="1137.15,-29.5577 1133.65,-19.5578 1130.15,-29.5578 1137.15,-29.5577"/>
</g>
<!-- Node23&#45;&gt;Node20 -->
<g id="edge34" class="edge"><title>Node23&#45;&gt;Node20</title>
<path fill="none" stroke="midnightblue" d="M1066.41,-280.444C1044.26,-271.517 1009.33,-257.439 984.211,-247.317"/>
<polygon fill="midnightblue" stroke="midnightblue" points="985.363,-244.008 974.78,-243.516 982.747,-250.501 985.363,-244.008"/>
</g>
<!-- Node24&#45;&gt;Node8 -->
<g id="edge36" class="edge"><title>Node24&#45;&gt;Node8</title>
<path fill="none" stroke="midnightblue" d="M64.3006,-280.398C50.3691,-272.659 31.2734,-260.048 19.6466,-244 4.30845,-222.829 5.69543,-213.828 1.64658,-188 -4.36396,-149.659 11.3645,-131.962 44.6466,-112 81.3128,-90.0083 199.551,-76.7479 267.114,-70.7758"/>
<polygon fill="midnightblue" stroke="midnightblue" points="267.438,-74.2609 277.1,-69.9135 266.836,-67.2869 267.438,-74.2609"/>
</g>
<!-- Node26&#45;&gt;Node7 -->
<g id="edge43" class="edge"><title>Node26&#45;&gt;Node7</title>
<path fill="none" stroke="midnightblue" d="M1178.03,-336.478C1176.66,-323.086 1172.3,-296.901 1158.65,-280 1108.58,-218.007 1015.26,-193.953 955.646,-184.696"/>
<polygon fill="midnightblue" stroke="midnightblue" points="956.054,-181.218 945.652,-183.233 955.04,-188.144 956.054,-181.218"/>
</g>
<!-- Node27 -->
<g id="node27" class="node"><title>Node27</title>
<g id="a_node27"><a xlink:href="_f_string___8h.html" target="_top" xlink:title=" ">
<polygon fill="white" stroke="black" points="1207.15,-280.5 1207.15,-299.5 1308.15,-299.5 1308.15,-280.5 1207.15,-280.5"/>
<text text-anchor="middle" x="1257.65" y="-287.5" font-family="Helvetica,sans-Serif" font-size="10.00">Cpl/Text/FString_.h</text>
</a>
</g>
</g>
<!-- Node26&#45;&gt;Node27 -->
<g id="edge39" class="edge"><title>Node26&#45;&gt;Node27</title>
<path fill="none" stroke="midnightblue" d="M1191.34,-336.324C1203.55,-327.979 1222.23,-315.212 1236.65,-305.352"/>
<polygon fill="midnightblue" stroke="midnightblue" points="1238.7,-308.187 1244.99,-299.655 1234.75,-302.408 1238.7,-308.187"/>
</g>
<!-- Node27&#45;&gt;Node3 -->
<g id="edge40" class="edge"><title>Node27&#45;&gt;Node3</title>
<path fill="none" stroke="midnightblue" d="M1261.42,-280.351C1269.07,-262.034 1285.65,-217.821 1285.65,-179 1285.65,-179 1285.65,-179 1285.65,-121 1285.65,-67.4368 1222.93,-37.2997 1178.07,-22.5935"/>
<polygon fill="midnightblue" stroke="midnightblue" points="1179.11,-19.2497 1168.52,-19.6023 1177.02,-25.9301 1179.11,-19.2497"/>
</g>
<!-- Node28 -->
<g id="node28" class="node"><title>Node28</title>
<g id="a_node28"><a xlink:href="_text_2_string___8h.html" target="_top" xlink:title=" ">
<polygon fill="white" stroke="black" points="1162.15,-224.5 1162.15,-243.5 1257.15,-243.5 1257.15,-224.5 1162.15,-224.5"/>
<text text-anchor="middle" x="1209.65" y="-231.5" font-family="Helvetica,sans-Serif" font-size="10.00">Cpl/Text/String_.h</text>
</a>
</g>
</g>
<!-- Node27&#45;&gt;Node28 -->
<g id="edge41" class="edge"><title>Node27&#45;&gt;Node28</title>
<path fill="none" stroke="midnightblue" d="M1249.72,-280.083C1242.8,-272.298 1232.58,-260.801 1224.19,-251.367"/>
<polygon fill="midnightblue" stroke="midnightblue" points="1226.68,-248.9 1217.43,-243.751 1221.45,-253.55 1226.68,-248.9"/>
</g>
<!-- Node28&#45;&gt;Node7 -->
<g id="edge42" class="edge"><title>Node28&#45;&gt;Node7</title>
<path fill="none" stroke="midnightblue" d="M1162.04,-224.681C1106.47,-214.968 1014.69,-198.931 955.991,-188.672"/>
<polygon fill="midnightblue" stroke="midnightblue" points="956.243,-185.163 945.79,-186.889 955.038,-192.058 956.243,-185.163"/>
</g>
<!-- Node29&#45;&gt;Node18 -->
<g id="edge48" class="edge"><title>Node29&#45;&gt;Node18</title>
<path fill="none" stroke="midnightblue" d="M752.633,-336.438C771.109,-329.769 792.598,-318.453 803.647,-300 812.174,-285.759 807.508,-266.791 801.862,-253.024"/>
<polygon fill="midnightblue" stroke="midnightblue" points="804.918,-251.292 797.555,-243.674 798.56,-254.221 804.918,-251.292"/>
</g>
<!-- Node30 -->
<g id="node30" class="node"><title>Node30</title>
<g id="a_node30"><a xlink:href="_encoder___8h.html" target="_top" xlink:title=" ">
<polygon fill="white" stroke="black" points="347.147,-280.5 347.147,-299.5 484.147,-299.5 484.147,-280.5 347.147,-280.5"/>
<text text-anchor="middle" x="415.647" y="-287.5" font-family="Helvetica,sans-Serif" font-size="10.00">Cpl/Text/Frame/Encoder_.h</text>
</a>
</g>
</g>
<!-- Node29&#45;&gt;Node30 -->
<g id="edge45" class="edge"><title>Node29&#45;&gt;Node30</title>
<path fill="none" stroke="midnightblue" d="M671.477,-336.444C617.778,-326.905 530.96,-311.483 473.592,-301.293"/>
<polygon fill="midnightblue" stroke="midnightblue" points="474.049,-297.819 463.591,-299.516 472.825,-304.712 474.049,-297.819"/>
</g>
<!-- Node31 -->
<g id="node31" class="node"><title>Node31</title>
<g id="a_node31"><a xlink:href="_encoder_8h.html" target="_top" xlink:title=" ">
<polygon fill="white" stroke="black" points="305.147,-224.5 305.147,-243.5 436.147,-243.5 436.147,-224.5 305.147,-224.5"/>
<text text-anchor="middle" x="370.647" y="-231.5" font-family="Helvetica,sans-Serif" font-size="10.00">Cpl/Text/Frame/Encoder.h</text>
</a>
</g>
</g>
<!-- Node30&#45;&gt;Node31 -->
<g id="edge46" class="edge"><title>Node30&#45;&gt;Node31</title>
<path fill="none" stroke="midnightblue" d="M408.216,-280.083C401.794,-272.377 392.341,-261.033 384.524,-251.653"/>
<polygon fill="midnightblue" stroke="midnightblue" points="387.03,-249.193 377.939,-243.751 381.652,-253.674 387.03,-249.193"/>
</g>
<!-- Node32 -->
<g id="node32" class="node"><title>Node32</title>
<g id="a_node32"><a xlink:title=" ">
<polygon fill="white" stroke="#bfbfbf" points="416.647,-168.5 416.647,-187.5 464.647,-187.5 464.647,-168.5 416.647,-168.5"/>
<text text-anchor="middle" x="440.647" y="-175.5" font-family="Helvetica,sans-Serif" font-size="10.00">stdlib.h</text>
</a>
</g>
</g>
<!-- Node31&#45;&gt;Node32 -->
<g id="edge47" class="edge"><title>Node31&#45;&gt;Node32</title>
<path fill="none" stroke="midnightblue" d="M381.893,-224.324C392.444,-216.185 408.447,-203.839 421.089,-194.087"/>
<polygon fill="midnightblue" stroke="midnightblue" points="423.415,-196.713 429.195,-187.834 419.14,-191.171 423.415,-196.713"/>
</g>
<!-- Node33&#45;&gt;Node6 -->
<g id="edge53" class="edge"><title>Node33&#45;&gt;Node6</title>
<path fill="none" stroke="midnightblue" d="M334.399,-336.173C329.949,-322.363 323.961,-295.616 337.647,-280 376.027,-236.205 534.303,-252.109 609.005,-243.76"/>
<polygon fill="midnightblue" stroke="midnightblue" points="609.53,-247.221 618.97,-242.413 608.591,-240.285 609.53,-247.221"/>
</g>
<!-- Node34 -->
<g id="node34" class="node"><title>Node34</title>
<g id="a_node34"><a xlink:href="_decoder___8h.html" target="_top" xlink:title=" ">
<polygon fill="white" stroke="black" points="153.147,-280.5 153.147,-299.5 290.147,-299.5 290.147,-280.5 153.147,-280.5"/>
<text text-anchor="middle" x="221.647" y="-287.5" font-family="Helvetica,sans-Serif" font-size="10.00">Cpl/Text/Frame/Decoder_.h</text>
</a>
</g>
</g>
<!-- Node33&#45;&gt;Node34 -->
<g id="edge50" class="edge"><title>Node33&#45;&gt;Node34</title>
<path fill="none" stroke="midnightblue" d="M319.266,-336.444C300.43,-327.675 270.915,-313.935 249.267,-303.858"/>
<polygon fill="midnightblue" stroke="midnightblue" points="250.484,-300.564 239.941,-299.516 247.53,-306.91 250.484,-300.564"/>
</g>
<!-- Node35 -->
<g id="node35" class="node"><title>Node35</title>
<g id="a_node35"><a xlink:href="_decoder_8h.html" target="_top" xlink:title=" ">
<polygon fill="white" stroke="black" points="156.147,-224.5 156.147,-243.5 287.147,-243.5 287.147,-224.5 156.147,-224.5"/>
<text text-anchor="middle" x="221.647" y="-231.5" font-family="Helvetica,sans-Serif" font-size="10.00">Cpl/Text/Frame/Decoder.h</text>
</a>
</g>
</g>
<!-- Node34&#45;&gt;Node35 -->
<g id="edge51" class="edge"><title>Node34&#45;&gt;Node35</title>
<path fill="none" stroke="midnightblue" d="M221.647,-280.083C221.647,-273.006 221.647,-262.861 221.647,-253.986"/>
<polygon fill="midnightblue" stroke="midnightblue" points="225.147,-253.751 221.647,-243.751 218.147,-253.751 225.147,-253.751"/>
</g>
<!-- Node35&#45;&gt;Node32 -->
<g id="edge52" class="edge"><title>Node35&#45;&gt;Node32</title>
<path fill="none" stroke="midnightblue" d="M258.428,-224.432C293.951,-216.084 349.51,-202.835 406.598,-188.217"/>
<polygon fill="midnightblue" stroke="midnightblue" points="407.704,-191.547 416.517,-185.667 405.961,-184.767 407.704,-191.547"/>
</g>
<!-- Node36&#45;&gt;Node33 -->
<g id="edge55" class="edge"><title>Node36&#45;&gt;Node33</title>
<path fill="none" stroke="midnightblue" d="M389.252,-448.368C380.093,-430.376 358.799,-388.55 346.62,-364.627"/>
<polygon fill="midnightblue" stroke="midnightblue" points="349.676,-362.915 342.02,-355.591 343.438,-366.091 349.676,-362.915"/>
</g>
<!-- Node37&#45;&gt;Node7 -->
<g id="edge57" class="edge"><title>Node37&#45;&gt;Node7</title>
<path fill="none" stroke="midnightblue" d="M572.296,-339.948C694.206,-329.19 967.766,-304.619 976.647,-300 1012.09,-281.565 1047.58,-256.715 1024.65,-224 1008.98,-201.649 981.026,-190.356 955.621,-184.669"/>
<polygon fill="midnightblue" stroke="midnightblue" points="956.164,-181.209 945.673,-182.688 954.796,-188.074 956.164,-181.209"/>
</g>
<!-- Node37&#45;&gt;Node24 -->
<g id="edge58" class="edge"><title>Node37&#45;&gt;Node24</title>
<path fill="none" stroke="midnightblue" d="M457.076,-338.441C386.159,-330.266 261.726,-315.616 144.927,-300.145"/>
<polygon fill="midnightblue" stroke="midnightblue" points="145.109,-296.638 134.735,-298.79 144.187,-303.577 145.109,-296.638"/>
</g>
<!-- Node38 -->
<g id="node38" class="node"><title>Node38</title>
<g id="a_node38"><a xlink:href="_system_2_trace_8h.html" target="_top" xlink:title=" ">
<polygon fill="white" stroke="black" points="690.647,-280.5 690.647,-299.5 794.647,-299.5 794.647,-280.5 690.647,-280.5"/>
<text text-anchor="middle" x="742.647" y="-287.5" font-family="Helvetica,sans-Serif" font-size="10.00">Cpl/System/Trace.h</text>
</a>
</g>
</g>
<!-- Node37&#45;&gt;Node38 -->
<g id="edge59" class="edge"><title>Node37&#45;&gt;Node38</title>
<path fill="none" stroke="midnightblue" d="M550.774,-336.444C590.298,-327.083 653.743,-312.056 696.759,-301.868"/>
<polygon fill="midnightblue" stroke="midnightblue" points="697.764,-305.227 706.688,-299.516 696.151,-298.415 697.764,-305.227"/>
</g>
<!-- Node43 -->
<g id="node43" class="node"><title>Node43</title>
<g id="a_node43"><a xlink:href="_private_startup___8h.html" target="_top" xlink:title="This file contains a collection of classes, interfaces, etc.">
<polygon fill="white" stroke="black" points="454.647,-224.5 454.647,-243.5 600.647,-243.5 600.647,-224.5 454.647,-224.5"/>
<text text-anchor="middle" x="527.647" y="-231.5" font-family="Helvetica,sans-Serif" font-size="10.00">Cpl/System/PrivateStartup_.h</text>
</a>
</g>
</g>
<!-- Node37&#45;&gt;Node43 -->
<g id="edge70" class="edge"><title>Node37&#45;&gt;Node43</title>
<path fill="none" stroke="midnightblue" d="M515.667,-336.368C517.765,-318.617 522.604,-277.666 525.449,-253.597"/>
<polygon fill="midnightblue" stroke="midnightblue" points="528.933,-253.933 526.631,-243.591 521.982,-253.112 528.933,-253.933"/>
</g>
<!-- Node38&#45;&gt;Node3 -->
<g id="edge60" class="edge"><title>Node38&#45;&gt;Node3</title>
<path fill="none" stroke="midnightblue" d="M762.328,-280.498C782.594,-271.66 815.025,-257.287 842.647,-244 860.201,-235.556 863.902,-232.037 881.647,-224 921.267,-206.055 936.865,-212.727 972.647,-188 1039.49,-141.804 1098.18,-62.8638 1122.16,-28.1903"/>
<polygon fill="midnightblue" stroke="midnightblue" points="1125.24,-29.8837 1127.97,-19.6484 1119.45,-25.943 1125.24,-29.8837"/>
</g>
<!-- Node38&#45;&gt;Node7 -->
<g id="edge61" class="edge"><title>Node38&#45;&gt;Node7</title>
<path fill="none" stroke="midnightblue" d="M739.481,-280.398C735.117,-266.896 729.121,-240.563 741.647,-224 748.47,-214.978 807.234,-199.993 851.35,-189.816"/>
<polygon fill="midnightblue" stroke="midnightblue" points="852.391,-193.169 861.361,-187.531 850.833,-186.344 852.391,-193.169"/>
</g>
<!-- Node38&#45;&gt;Node18 -->
<g id="edge69" class="edge"><title>Node38&#45;&gt;Node18</title>
<path fill="none" stroke="midnightblue" d="M750.903,-280.083C758.111,-272.298 768.756,-260.801 777.492,-251.367"/>
<polygon fill="midnightblue" stroke="midnightblue" points="780.318,-253.467 784.544,-243.751 775.181,-248.711 780.318,-253.467"/>
</g>
<!-- Node39 -->
<g id="node39" class="node"><title>Node39</title>
<g id="a_node39"><a xlink:href="_thread_8h.html" target="_top" xlink:title=" ">
<polygon fill="white" stroke="black" points="29.1466,-224.5 29.1466,-243.5 138.147,-243.5 138.147,-224.5 29.1466,-224.5"/>
<text text-anchor="middle" x="83.6466" y="-231.5" font-family="Helvetica,sans-Serif" font-size="10.00">Cpl/System/Thread.h</text>
</a>
</g>
</g>
<!-- Node38&#45;&gt;Node39 -->
<g id="edge62" class="edge"><title>Node38&#45;&gt;Node39</title>
<path fill="none" stroke="midnightblue" d="M690.588,-281.147C687.227,-280.732 683.891,-280.344 680.647,-280 447.452,-255.251 384.978,-268.45 148.548,-244.126"/>
<polygon fill="midnightblue" stroke="midnightblue" points="148.56,-240.609 138.251,-243.055 147.835,-247.571 148.56,-240.609"/>
</g>
<!-- Node39&#45;&gt;Node8 -->
<g id="edge63" class="edge"><title>Node39&#45;&gt;Node8</title>
<path fill="none" stroke="midnightblue" d="M59.8886,-224.493C32.202,-213.229 -7.6858,-191.973 9.64658,-168 68.7276,-86.2833 196.309,-69.5684 266.641,-66.8315"/>
<polygon fill="midnightblue" stroke="midnightblue" points="267.115,-70.3187 277.003,-66.5137 266.9,-63.322 267.115,-70.3187"/>
</g>
<!-- Node39&#45;&gt;Node32 -->
<g id="edge68" class="edge"><title>Node39&#45;&gt;Node32</title>
<path fill="none" stroke="midnightblue" d="M138.28,-225.179C141.109,-224.779 143.911,-224.384 146.647,-224 259.437,-208.165 291.199,-211.265 406.644,-187.977"/>
<polygon fill="midnightblue" stroke="midnightblue" points="407.484,-191.377 416.582,-185.949 406.085,-184.519 407.484,-191.377"/>
</g>
<!-- Node40 -->
<g id="node40" class="node"><title>Node40</title>
<g id="a_node40"><a xlink:href="_runnable_8h.html" target="_top" xlink:title=" ">
<polygon fill="white" stroke="black" points="153.147,-168.5 153.147,-187.5 272.147,-187.5 272.147,-168.5 153.147,-168.5"/>
<text text-anchor="middle" x="212.647" y="-175.5" font-family="Helvetica,sans-Serif" font-size="10.00">Cpl/System/Runnable.h</text>
</a>
</g>
</g>
<!-- Node39&#45;&gt;Node40 -->
<g id="edge64" class="edge"><title>Node39&#45;&gt;Node40</title>
<path fill="none" stroke="midnightblue" d="M104.087,-224.444C125.317,-215.557 158.746,-201.563 182.902,-191.451"/>
<polygon fill="midnightblue" stroke="midnightblue" points="184.429,-194.606 192.302,-187.516 181.726,-188.149 184.429,-194.606"/>
</g>
<!-- Node41 -->
<g id="node41" class="node"><title>Node41</title>
<g id="a_node41"><a xlink:href="_signable_8h.html" target="_top" xlink:title=" ">
<polygon fill="white" stroke="black" points="18.6466,-168.5 18.6466,-187.5 134.647,-187.5 134.647,-168.5 18.6466,-168.5"/>
<text text-anchor="middle" x="76.6466" y="-175.5" font-family="Helvetica,sans-Serif" font-size="10.00">Cpl/System/Signable.h</text>
</a>
</g>
</g>
<!-- Node39&#45;&gt;Node41 -->
<g id="edge65" class="edge"><title>Node39&#45;&gt;Node41</title>
<path fill="none" stroke="midnightblue" d="M82.4907,-224.083C81.5631,-216.927 80.2289,-206.635 79.0695,-197.691"/>
<polygon fill="midnightblue" stroke="midnightblue" points="82.5376,-197.218 77.781,-187.751 75.5956,-198.118 82.5376,-197.218"/>
</g>
<!-- Node42 -->
<g id="node42" class="node"><title>Node42</title>
<g id="a_node42"><a xlink:href="_traverser_8h.html" target="_top" xlink:title=" ">
<polygon fill="white" stroke="black" points="290.647,-168.5 290.647,-187.5 398.647,-187.5 398.647,-168.5 290.647,-168.5"/>
<text text-anchor="middle" x="344.647" y="-175.5" font-family="Helvetica,sans-Serif" font-size="10.00">Cpl/Type/Traverser.h</text>
</a>
</g>
</g>
<!-- Node39&#45;&gt;Node42 -->
<g id="edge67" class="edge"><title>Node39&#45;&gt;Node42</title>
<path fill="none" stroke="midnightblue" d="M125.003,-224.444C170.725,-214.984 244.411,-199.738 293.668,-189.547"/>
<polygon fill="midnightblue" stroke="midnightblue" points="294.4,-192.97 303.484,-187.516 292.982,-186.115 294.4,-192.97"/>
</g>
<!-- Node41&#45;&gt;Node16 -->
<g id="edge66" class="edge"><title>Node41&#45;&gt;Node16</title>
<path fill="none" stroke="midnightblue" d="M134.744,-169.137C137.754,-168.748 140.736,-168.367 143.647,-168 255.648,-153.882 386.304,-138.787 462.138,-130.161"/>
<polygon fill="midnightblue" stroke="midnightblue" points="462.926,-133.594 472.468,-128.988 462.136,-126.639 462.926,-133.594"/>
</g>
<!-- Node43&#45;&gt;Node16 -->
<g id="edge71" class="edge"><title>Node43&#45;&gt;Node16</title>
<path fill="none" stroke="midnightblue" d="M523.535,-224.277C519.588,-215.383 513.902,-201.074 511.647,-188 508.918,-172.181 513.285,-154.368 517.844,-141.395"/>
<polygon fill="midnightblue" stroke="midnightblue" points="521.217,-142.375 521.567,-131.786 514.69,-139.846 521.217,-142.375"/>
</g>
</g>
</svg>
