<?xml version="1.0" encoding="UTF-8" standalone="no"?>
<!DOCTYPE svg PUBLIC "-//W3C//DTD SVG 1.1//EN"
 "http://www.w3.org/Graphics/SVG/1.1/DTD/svg11.dtd">
<!-- Generated by graphviz version 2.38.0 (20140413.2041)
 -->
<!-- Title: Cpl/Container/DList.h Pages: 1 -->
<svg width="2328pt" height="565pt"
 viewBox="0.00 0.00 2327.79 565.00" xmlns="http://www.w3.org/2000/svg" xmlns:xlink="http://www.w3.org/1999/xlink">
<g id="graph0" class="graph" transform="scale(1 1) rotate(0) translate(4 561)">
<title>Cpl/Container/DList.h</title>
<polygon fill="white" stroke="none" points="-4,4 -4,-561 2323.79,-561 2323.79,4 -4,4"/>
<!-- Node1 -->
<g id="node1" class="node"><title>Node1</title>
<g id="a_node1"><a xlink:title=" ">
<polygon fill="#bfbfbf" stroke="black" points="1292.5,-537.5 1292.5,-556.5 1401.5,-556.5 1401.5,-537.5 1292.5,-537.5"/>
<text text-anchor="middle" x="1347" y="-544.5" font-family="Helvetica,sans-Serif" font-size="10.00">Cpl/Container/DList.h</text>
</a>
</g>
</g>
<!-- Node2 -->
<g id="node2" class="node"><title>Node2</title>
<g id="a_node2"><a xlink:href="_hash_table___8h.html" target="_top" xlink:title=" ">
<polygon fill="white" stroke="black" points="1037,-481.5 1037,-500.5 1175,-500.5 1175,-481.5 1037,-481.5"/>
<text text-anchor="middle" x="1106" y="-488.5" font-family="Helvetica,sans-Serif" font-size="10.00">Cpl/Container/HashTable_.h</text>
</a>
</g>
</g>
<!-- Node1&#45;&gt;Node2 -->
<g id="edge1" class="edge"><title>Node1&#45;&gt;Node2</title>
<path fill="none" stroke="midnightblue" d="M1298.88,-535.217C1253.34,-525.013 1185.89,-509.901 1144.01,-500.516"/>
<polygon fill="midnightblue" stroke="midnightblue" points="1298.29,-538.672 1308.81,-537.444 1299.82,-531.842 1298.29,-538.672"/>
</g>
<!-- Node4 -->
<g id="node4" class="node"><title>Node4</title>
<g id="a_node4"><a xlink:href="_dm_2_event_loop_8h.html" target="_top" xlink:title=" ">
<polygon fill="white" stroke="black" points="1481.5,-369.5 1481.5,-388.5 1588.5,-388.5 1588.5,-369.5 1481.5,-369.5"/>
<text text-anchor="middle" x="1535" y="-376.5" font-family="Helvetica,sans-Serif" font-size="10.00">Cpl/Dm/EventLoop.h</text>
</a>
</g>
</g>
<!-- Node1&#45;&gt;Node4 -->
<g id="edge3" class="edge"><title>Node1&#45;&gt;Node4</title>
<path fill="none" stroke="midnightblue" d="M1367.79,-531.316C1379.74,-522.718 1394.92,-511.514 1408,-501 1437.46,-477.316 1444.6,-471.036 1472,-445 1492.51,-425.513 1515.32,-401.295 1527.06,-388.633"/>
<polygon fill="midnightblue" stroke="midnightblue" points="1365.48,-528.667 1359.38,-537.328 1369.55,-534.363 1365.48,-528.667"/>
</g>
<!-- Node20 -->
<g id="node20" class="node"><title>Node20</title>
<g id="a_node20"><a xlink:href="_model_point_common___8h.html" target="_top" xlink:title=" ">
<polygon fill="white" stroke="black" points="805.5,-257.5 805.5,-276.5 958.5,-276.5 958.5,-257.5 805.5,-257.5"/>
<text text-anchor="middle" x="882" y="-264.5" font-family="Helvetica,sans-Serif" font-size="10.00">Cpl/Dm/ModelPointCommon_.h</text>
</a>
</g>
</g>
<!-- Node1&#45;&gt;Node20 -->
<g id="edge49" class="edge"><title>Node1&#45;&gt;Node20</title>
<path fill="none" stroke="midnightblue" d="M1306.17,-534.154C1263.59,-518.995 1203,-488.243 1203,-436 1203,-436 1203,-436 1203,-378 1203,-324.023 1038.52,-290.958 945.036,-276.524"/>
<polygon fill="midnightblue" stroke="midnightblue" points="1305.16,-537.507 1315.75,-537.415 1307.41,-530.88 1305.16,-537.507"/>
</g>
<!-- Node38 -->
<g id="node38" class="node"><title>Node38</title>
<g id="a_node38"><a xlink:href="_pool___8h.html" target="_top" xlink:title=" ">
<polygon fill="white" stroke="black" points="1294.5,-481.5 1294.5,-500.5 1399.5,-500.5 1399.5,-481.5 1294.5,-481.5"/>
<text text-anchor="middle" x="1347" y="-488.5" font-family="Helvetica,sans-Serif" font-size="10.00">Cpl/Memory/Pool_.h</text>
</a>
</g>
</g>
<!-- Node1&#45;&gt;Node38 -->
<g id="edge50" class="edge"><title>Node1&#45;&gt;Node38</title>
<path fill="none" stroke="midnightblue" d="M1347,-526.805C1347,-517.91 1347,-507.78 1347,-500.751"/>
<polygon fill="midnightblue" stroke="midnightblue" points="1343.5,-527.083 1347,-537.083 1350.5,-527.083 1343.5,-527.083"/>
</g>
<!-- Node42 -->
<g id="node42" class="node"><title>Node42</title>
<g id="a_node42"><a xlink:href="_timer_manager_8h.html" target="_top" xlink:title=" ">
<polygon fill="white" stroke="black" points="1572.5,-481.5 1572.5,-500.5 1713.5,-500.5 1713.5,-481.5 1572.5,-481.5"/>
<text text-anchor="middle" x="1643" y="-488.5" font-family="Helvetica,sans-Serif" font-size="10.00">Cpl/System/TimerManager.h</text>
</a>
</g>
</g>
<!-- Node1&#45;&gt;Node42 -->
<g id="edge54" class="edge"><title>Node1&#45;&gt;Node42</title>
<path fill="none" stroke="midnightblue" d="M1404,-535.601C1459.94,-525.395 1544.23,-510.019 1596.32,-500.516"/>
<polygon fill="midnightblue" stroke="midnightblue" points="1403.11,-532.206 1393.9,-537.444 1404.37,-539.092 1403.11,-532.206"/>
</g>
<!-- Node3 -->
<g id="node3" class="node"><title>Node3</title>
<g id="a_node3"><a xlink:href="_dictionary_8h.html" target="_top" xlink:title=" ">
<polygon fill="white" stroke="black" points="1041,-425.5 1041,-444.5 1171,-444.5 1171,-425.5 1041,-425.5"/>
<text text-anchor="middle" x="1106" y="-432.5" font-family="Helvetica,sans-Serif" font-size="10.00">Cpl/Container/Dictionary.h</text>
</a>
</g>
</g>
<!-- Node2&#45;&gt;Node3 -->
<g id="edge2" class="edge"><title>Node2&#45;&gt;Node3</title>
<path fill="none" stroke="midnightblue" d="M1106,-470.805C1106,-461.91 1106,-451.78 1106,-444.751"/>
<polygon fill="midnightblue" stroke="midnightblue" points="1102.5,-471.083 1106,-481.083 1109.5,-471.083 1102.5,-471.083"/>
</g>
<!-- Node5 -->
<g id="node5" class="node"><title>Node5</title>
<g id="a_node5"><a xlink:href="_dm_2_mailbox_server_8h.html" target="_top" xlink:title=" ">
<polygon fill="white" stroke="black" points="1575,-313.5 1575,-332.5 1697,-332.5 1697,-313.5 1575,-313.5"/>
<text text-anchor="middle" x="1636" y="-320.5" font-family="Helvetica,sans-Serif" font-size="10.00">Cpl/Dm/MailboxServer.h</text>
</a>
</g>
</g>
<!-- Node4&#45;&gt;Node5 -->
<g id="edge4" class="edge"><title>Node4&#45;&gt;Node5</title>
<path fill="none" stroke="midnightblue" d="M1560.08,-364.59C1578.76,-354.605 1603.7,-341.267 1619.81,-332.655"/>
<polygon fill="midnightblue" stroke="midnightblue" points="1558.4,-361.522 1551.23,-369.324 1561.7,-367.696 1558.4,-361.522"/>
</g>
<!-- Node19 -->
<g id="node19" class="node"><title>Node19</title>
<g id="a_node19"><a xlink:href="_subscriber_8h.html" target="_top" xlink:title=" ">
<polygon fill="white" stroke="black" points="1257.5,-313.5 1257.5,-332.5 1364.5,-332.5 1364.5,-313.5 1257.5,-313.5"/>
<text text-anchor="middle" x="1311" y="-320.5" font-family="Helvetica,sans-Serif" font-size="10.00">Cpl/Dm/Subscriber.h</text>
</a>
</g>
</g>
<!-- Node4&#45;&gt;Node19 -->
<g id="edge26" class="edge"><title>Node4&#45;&gt;Node19</title>
<path fill="none" stroke="midnightblue" d="M1489.74,-367.088C1447.42,-356.887 1385.09,-341.861 1346.33,-332.516"/>
<polygon fill="midnightblue" stroke="midnightblue" points="1488.96,-370.502 1499.51,-369.444 1490.61,-363.697 1488.96,-370.502"/>
</g>
<!-- Node6 -->
<g id="node6" class="node"><title>Node6</title>
<g id="a_node6"><a xlink:href="_dm_2_periodic_scheduler_8h.html" target="_top" xlink:title=" ">
<polygon fill="white" stroke="black" points="2019.5,-257.5 2019.5,-276.5 2158.5,-276.5 2158.5,-257.5 2019.5,-257.5"/>
<text text-anchor="middle" x="2089" y="-264.5" font-family="Helvetica,sans-Serif" font-size="10.00">Cpl/Dm/PeriodicScheduler.h</text>
</a>
</g>
</g>
<!-- Node5&#45;&gt;Node6 -->
<g id="edge5" class="edge"><title>Node5&#45;&gt;Node6</title>
<path fill="none" stroke="midnightblue" d="M1707.3,-312.973C1823.17,-298.835 1944.84,-284.637 2019.27,-276.027"/>
<polygon fill="midnightblue" stroke="midnightblue" points="1706.69,-309.522 1697.19,-314.209 1707.54,-316.47 1706.69,-309.522"/>
</g>
<!-- Node7 -->
<g id="node7" class="node"><title>Node7</title>
<g id="a_node7"><a xlink:href="_chunk_8h.html" target="_top" xlink:title=" ">
<polygon fill="white" stroke="black" points="1719.5,-257.5 1719.5,-276.5 1836.5,-276.5 1836.5,-257.5 1719.5,-257.5"/>
<text text-anchor="middle" x="1778" y="-264.5" font-family="Helvetica,sans-Serif" font-size="10.00">Cpl/Persistent/Chunk.h</text>
</a>
</g>
</g>
<!-- Node5&#45;&gt;Node7 -->
<g id="edge6" class="edge"><title>Node5&#45;&gt;Node7</title>
<path fill="none" stroke="midnightblue" d="M1668.16,-309.772C1694.83,-299.629 1732.07,-285.467 1755.6,-276.516"/>
<polygon fill="midnightblue" stroke="midnightblue" points="1666.6,-306.618 1658.5,-313.444 1669.09,-313.16 1666.6,-306.618"/>
</g>
<!-- Node15 -->
<g id="node15" class="node"><title>Node15</title>
<g id="a_node15"><a xlink:href="_persistent_2_record_8h.html" target="_top" xlink:title=" ">
<polygon fill="white" stroke="black" points="1563,-257.5 1563,-276.5 1683,-276.5 1683,-257.5 1563,-257.5"/>
<text text-anchor="middle" x="1623" y="-264.5" font-family="Helvetica,sans-Serif" font-size="10.00">Cpl/Persistent/Record.h</text>
</a>
</g>
</g>
<!-- Node5&#45;&gt;Node15 -->
<g id="edge15" class="edge"><title>Node5&#45;&gt;Node15</title>
<path fill="none" stroke="midnightblue" d="M1631.45,-303.101C1629.29,-294.136 1626.82,-283.858 1625.11,-276.751"/>
<polygon fill="midnightblue" stroke="midnightblue" points="1628.11,-304.18 1633.85,-313.083 1634.92,-302.542 1628.11,-304.18"/>
</g>
<!-- Node16 -->
<g id="node16" class="node"><title>Node16</title>
<g id="a_node16"><a xlink:href="_record_server_8h.html" target="_top" xlink:title=" ">
<polygon fill="white" stroke="black" points="1404.5,-196 1404.5,-215 1553.5,-215 1553.5,-196 1404.5,-196"/>
<text text-anchor="middle" x="1479" y="-203" font-family="Helvetica,sans-Serif" font-size="10.00">Cpl/Persistent/RecordServer.h</text>
</a>
</g>
</g>
<!-- Node5&#45;&gt;Node16 -->
<g id="edge20" class="edge"><title>Node5&#45;&gt;Node16</title>
<path fill="none" stroke="midnightblue" d="M1608.21,-308.962C1591.82,-300.741 1571.02,-289.365 1554,-277 1527.11,-257.466 1499.7,-229.101 1486.72,-215.049"/>
<polygon fill="midnightblue" stroke="midnightblue" points="1606.77,-312.154 1617.29,-313.421 1609.86,-305.871 1606.77,-312.154"/>
</g>
<!-- Node17 -->
<g id="node17" class="node"><title>Node17</title>
<g id="a_node17"><a xlink:href="_region_media_8h.html" target="_top" xlink:title=" ">
<polygon fill="white" stroke="black" points="1855,-257.5 1855,-276.5 2001,-276.5 2001,-257.5 1855,-257.5"/>
<text text-anchor="middle" x="1928" y="-264.5" font-family="Helvetica,sans-Serif" font-size="10.00">Cpl/Persistent/RegionMedia.h</text>
</a>
</g>
</g>
<!-- Node5&#45;&gt;Node17 -->
<g id="edge21" class="edge"><title>Node5&#45;&gt;Node17</title>
<path fill="none" stroke="midnightblue" d="M1692.23,-311.601C1747.42,-301.395 1830.56,-286.019 1881.95,-276.516"/>
<polygon fill="midnightblue" stroke="midnightblue" points="1691.47,-308.183 1682.27,-313.444 1692.74,-315.067 1691.47,-308.183"/>
</g>
<!-- Node8 -->
<g id="node8" class="node"><title>Node8</title>
<g id="a_node8"><a xlink:href="_dm_2_persistent_2_record_8h.html" target="_top" xlink:title=" ">
<polygon fill="white" stroke="black" points="1431,-134.5 1431,-153.5 1569,-153.5 1569,-134.5 1431,-134.5"/>
<text text-anchor="middle" x="1500" y="-141.5" font-family="Helvetica,sans-Serif" font-size="10.00">Cpl/Dm/Persistent/Record.h</text>
</a>
</g>
</g>
<!-- Node7&#45;&gt;Node8 -->
<g id="edge7" class="edge"><title>Node7&#45;&gt;Node8</title>
<path fill="none" stroke="midnightblue" d="M1778.69,-247.382C1778.27,-229.99 1774.69,-204.584 1759,-190 1745.17,-177.143 1640.97,-162.103 1569.03,-153.075"/>
<polygon fill="midnightblue" stroke="midnightblue" points="1775.19,-247.432 1778.62,-257.459 1782.19,-247.486 1775.19,-247.432"/>
</g>
<!-- Node9 -->
<g id="node9" class="node"><title>Node9</title>
<g id="a_node9"><a xlink:href="_crc_chunk_8h.html" target="_top" xlink:title=" ">
<polygon fill="white" stroke="black" points="1844,-196 1844,-215 1976,-215 1976,-196 1844,-196"/>
<text text-anchor="middle" x="1910" y="-203" font-family="Helvetica,sans-Serif" font-size="10.00">Cpl/Persistent/CrcChunk.h</text>
</a>
</g>
</g>
<!-- Node7&#45;&gt;Node9 -->
<g id="edge8" class="edge"><title>Node7&#45;&gt;Node9</title>
<path fill="none" stroke="midnightblue" d="M1806.11,-253.327C1831.74,-241.776 1868.89,-225.032 1891.12,-215.009"/>
<polygon fill="midnightblue" stroke="midnightblue" points="1804.59,-250.175 1796.91,-257.475 1807.47,-256.556 1804.59,-250.175"/>
</g>
<!-- Node10 -->
<g id="node10" class="node"><title>Node10</title>
<g id="a_node10"><a xlink:href="_data_record_8h.html" target="_top" xlink:title=" ">
<polygon fill="white" stroke="black" points="1610,-196 1610,-215 1750,-215 1750,-196 1610,-196"/>
<text text-anchor="middle" x="1680" y="-203" font-family="Helvetica,sans-Serif" font-size="10.00">Cpl/Persistent/DataRecord.h</text>
</a>
</g>
</g>
<!-- Node7&#45;&gt;Node10 -->
<g id="edge9" class="edge"><title>Node7&#45;&gt;Node10</title>
<path fill="none" stroke="midnightblue" d="M1755.34,-252.244C1736.41,-240.75 1710.01,-224.723 1694.01,-215.009"/>
<polygon fill="midnightblue" stroke="midnightblue" points="1753.59,-255.277 1763.96,-257.475 1757.23,-249.294 1753.59,-255.277"/>
</g>
<!-- Node12 -->
<g id="node12" class="node"><title>Node12</title>
<g id="a_node12"><a xlink:href="_indexed_entry_record_8h.html" target="_top" xlink:title=" ">
<polygon fill="white" stroke="black" points="1610.5,-67.5 1610.5,-97.5 1749.5,-97.5 1749.5,-67.5 1610.5,-67.5"/>
<text text-anchor="start" x="1618.5" y="-85.5" font-family="Helvetica,sans-Serif" font-size="10.00">Cpl/Persistent/IndexedEntry</text>
<text text-anchor="middle" x="1680" y="-74.5" font-family="Helvetica,sans-Serif" font-size="10.00">Record.h</text>
</a>
</g>
</g>
<!-- Node7&#45;&gt;Node12 -->
<g id="edge13" class="edge"><title>Node7&#45;&gt;Node12</title>
<path fill="none" stroke="midnightblue" d="M1781.18,-247.466C1784.85,-219.611 1787.37,-166.736 1761,-134 1748.32,-118.256 1729.33,-106.049 1712.92,-97.5833"/>
<polygon fill="midnightblue" stroke="midnightblue" points="1777.7,-247.026 1779.67,-257.437 1784.63,-248.073 1777.7,-247.026"/>
</g>
<!-- Node14 -->
<g id="node14" class="node"><title>Node14</title>
<g id="a_node14"><a xlink:href="_mirrored_chunk_8h.html" target="_top" xlink:title=" ">
<polygon fill="white" stroke="black" points="1994,-196 1994,-215 2146,-215 2146,-196 1994,-196"/>
<text text-anchor="middle" x="2070" y="-203" font-family="Helvetica,sans-Serif" font-size="10.00">Cpl/Persistent/MirroredChunk.h</text>
</a>
</g>
</g>
<!-- Node7&#45;&gt;Node14 -->
<g id="edge14" class="edge"><title>Node7&#45;&gt;Node14</title>
<path fill="none" stroke="midnightblue" d="M1829.66,-255.474C1886.25,-243.943 1975.91,-225.672 2028.24,-215.009"/>
<polygon fill="midnightblue" stroke="midnightblue" points="1828.94,-252.049 1819.84,-257.475 1830.33,-258.908 1828.94,-252.049"/>
</g>
<!-- Node11 -->
<g id="node11" class="node"><title>Node11</title>
<g id="a_node11"><a xlink:href="_index_record_8h.html" target="_top" xlink:title=" ">
<polygon fill="white" stroke="black" points="1608,-134.5 1608,-153.5 1752,-153.5 1752,-134.5 1608,-134.5"/>
<text text-anchor="middle" x="1680" y="-141.5" font-family="Helvetica,sans-Serif" font-size="10.00">Cpl/Persistent/IndexRecord.h</text>
</a>
</g>
</g>
<!-- Node10&#45;&gt;Node11 -->
<g id="edge10" class="edge"><title>Node10&#45;&gt;Node11</title>
<path fill="none" stroke="midnightblue" d="M1680,-185.817C1680,-174.996 1680,-161.898 1680,-153.509"/>
<polygon fill="midnightblue" stroke="midnightblue" points="1676.5,-185.975 1680,-195.975 1683.5,-185.975 1676.5,-185.975"/>
</g>
<!-- Node11&#45;&gt;Node12 -->
<g id="edge11" class="edge"><title>Node11&#45;&gt;Node12</title>
<path fill="none" stroke="midnightblue" d="M1680,-124.235C1680,-115.586 1680,-105.497 1680,-97.523"/>
<polygon fill="midnightblue" stroke="midnightblue" points="1676.5,-124.475 1680,-134.475 1683.5,-124.475 1676.5,-124.475"/>
</g>
<!-- Node13 -->
<g id="node13" class="node"><title>Node13</title>
<g id="a_node13"><a xlink:href="_indexed_entry_server_8h.html" target="_top" xlink:title=" ">
<polygon fill="white" stroke="black" points="1241.5,-0.5 1241.5,-30.5 1380.5,-30.5 1380.5,-0.5 1241.5,-0.5"/>
<text text-anchor="start" x="1249.5" y="-18.5" font-family="Helvetica,sans-Serif" font-size="10.00">Cpl/Persistent/IndexedEntry</text>
<text text-anchor="middle" x="1311" y="-7.5" font-family="Helvetica,sans-Serif" font-size="10.00">Server.h</text>
</a>
</g>
</g>
<!-- Node12&#45;&gt;Node13 -->
<g id="edge12" class="edge"><title>Node12&#45;&gt;Node13</title>
<path fill="none" stroke="midnightblue" d="M1600.3,-67.46C1534.84,-55.9306 1443.07,-39.7639 1380.55,-28.7521"/>
<polygon fill="midnightblue" stroke="midnightblue" points="1599.7,-70.9096 1610.16,-69.1976 1600.92,-64.0158 1599.7,-70.9096"/>
</g>
<!-- Node15&#45;&gt;Node8 -->
<g id="edge16" class="edge"><title>Node15&#45;&gt;Node8</title>
<path fill="none" stroke="midnightblue" d="M1611.35,-248.961C1599.86,-232.804 1581.25,-208.34 1562,-190 1546.88,-175.597 1526.99,-161.935 1513.86,-153.522"/>
<polygon fill="midnightblue" stroke="midnightblue" points="1608.65,-251.212 1617.25,-257.406 1614.39,-247.203 1608.65,-251.212"/>
</g>
<!-- Node15&#45;&gt;Node10 -->
<g id="edge17" class="edge"><title>Node15&#45;&gt;Node10</title>
<path fill="none" stroke="midnightblue" d="M1638.33,-249.997C1649.12,-238.736 1663.14,-224.104 1671.85,-215.009"/>
<polygon fill="midnightblue" stroke="midnightblue" points="1635.56,-247.833 1631.17,-257.475 1640.61,-252.675 1635.56,-247.833"/>
</g>
<!-- Node15&#45;&gt;Node16 -->
<g id="edge18" class="edge"><title>Node15&#45;&gt;Node16</title>
<path fill="none" stroke="midnightblue" d="M1593.07,-253.631C1565.09,-242.072 1524.06,-225.12 1499.59,-215.009"/>
<polygon fill="midnightblue" stroke="midnightblue" points="1591.79,-256.891 1602.37,-257.475 1594.46,-250.422 1591.79,-256.891"/>
</g>
<!-- Node16&#45;&gt;Node8 -->
<g id="edge19" class="edge"><title>Node16&#45;&gt;Node8</title>
<path fill="none" stroke="midnightblue" d="M1485.35,-186.497C1489.22,-175.55 1493.97,-162.075 1497,-153.509"/>
<polygon fill="midnightblue" stroke="midnightblue" points="1482.04,-185.38 1482.01,-195.975 1488.64,-187.71 1482.04,-185.38"/>
</g>
<!-- Node17&#45;&gt;Node9 -->
<g id="edge22" class="edge"><title>Node17&#45;&gt;Node9</title>
<path fill="none" stroke="midnightblue" d="M1922.45,-247.657C1919.16,-236.772 1915.14,-223.486 1912.57,-215.009"/>
<polygon fill="midnightblue" stroke="midnightblue" points="1919.18,-248.917 1925.42,-257.475 1925.88,-246.89 1919.18,-248.917"/>
</g>
<!-- Node17&#45;&gt;Node12 -->
<g id="edge24" class="edge"><title>Node17&#45;&gt;Node12</title>
<path fill="none" stroke="midnightblue" d="M2011.14,-256.968C2123.57,-244.658 2310.5,-223.81 2313,-221 2322.16,-210.708 2321.9,-200.52 2313,-190 2241.39,-105.339 1898.61,-87.9453 1749.52,-84.3969"/>
<polygon fill="midnightblue" stroke="midnightblue" points="2010.73,-253.492 2001.17,-258.059 2011.49,-260.451 2010.73,-253.492"/>
</g>
<!-- Node17&#45;&gt;Node14 -->
<g id="edge25" class="edge"><title>Node17&#45;&gt;Node14</title>
<path fill="none" stroke="midnightblue" d="M1957.88,-253.48C1985.46,-241.924 2025.67,-225.076 2049.69,-215.009"/>
<polygon fill="midnightblue" stroke="midnightblue" points="1956.22,-250.382 1948.35,-257.475 1958.92,-256.839 1956.22,-250.382"/>
</g>
<!-- Node18 -->
<g id="node18" class="node"><title>Node18</title>
<g id="a_node18"><a xlink:href="_file_adapter_8h.html" target="_top" xlink:title=" ">
<polygon fill="white" stroke="black" points="2164.5,-196 2164.5,-215 2303.5,-215 2303.5,-196 2164.5,-196"/>
<text text-anchor="middle" x="2234" y="-203" font-family="Helvetica,sans-Serif" font-size="10.00">Cpl/Persistent/FileAdapter.h</text>
</a>
</g>
</g>
<!-- Node17&#45;&gt;Node18 -->
<g id="edge23" class="edge"><title>Node17&#45;&gt;Node18</title>
<path fill="none" stroke="midnightblue" d="M1981.77,-255.546C2041.05,-244.018 2135.29,-225.694 2190.24,-215.009"/>
<polygon fill="midnightblue" stroke="midnightblue" points="1980.99,-252.131 1971.84,-257.475 1982.33,-259.002 1980.99,-252.131"/>
</g>
<!-- Node19&#45;&gt;Node20 -->
<g id="edge27" class="edge"><title>Node19&#45;&gt;Node20</title>
<path fill="none" stroke="midnightblue" d="M1246.69,-313.905C1166.84,-303.854 1031.24,-286.785 949.798,-276.534"/>
<polygon fill="midnightblue" stroke="midnightblue" points="1246.74,-317.439 1257.1,-315.216 1247.62,-310.494 1246.74,-317.439"/>
</g>
<!-- Node37 -->
<g id="node37" class="node"><title>Node37</title>
<g id="a_node37"><a xlink:href="_subscriber_composer_8h.html" target="_top" xlink:title=" ">
<polygon fill="white" stroke="black" points="1235.5,-196 1235.5,-215 1386.5,-215 1386.5,-196 1235.5,-196"/>
<text text-anchor="middle" x="1311" y="-203" font-family="Helvetica,sans-Serif" font-size="10.00">Cpl/Dm/SubscriberComposer.h</text>
</a>
</g>
</g>
<!-- Node19&#45;&gt;Node37 -->
<g id="edge46" class="edge"><title>Node19&#45;&gt;Node37</title>
<path fill="none" stroke="midnightblue" d="M1311,-303.164C1311,-277.865 1311,-233.935 1311,-215.282"/>
<polygon fill="midnightblue" stroke="midnightblue" points="1307.5,-303.319 1311,-313.319 1314.5,-303.319 1307.5,-303.319"/>
</g>
<!-- Node21 -->
<g id="node21" class="node"><title>Node21</title>
<g id="a_node21"><a xlink:href="_array___8h.html" target="_top" xlink:title=" ">
<polygon fill="white" stroke="black" points="710.5,-196 710.5,-215 815.5,-215 815.5,-196 710.5,-196"/>
<text text-anchor="middle" x="763" y="-203" font-family="Helvetica,sans-Serif" font-size="10.00">Cpl/Dm/Mp/Array_.h</text>
</a>
</g>
</g>
<!-- Node20&#45;&gt;Node21 -->
<g id="edge28" class="edge"><title>Node20&#45;&gt;Node21</title>
<path fill="none" stroke="midnightblue" d="M855.733,-252.867C832.669,-241.335 799.798,-224.899 780.018,-215.009"/>
<polygon fill="midnightblue" stroke="midnightblue" points="854.441,-256.133 864.95,-257.475 857.571,-249.872 854.441,-256.133"/>
</g>
<!-- Node22 -->
<g id="node22" class="node"><title>Node22</title>
<g id="a_node22"><a xlink:href="_bool_8h.html" target="_top" xlink:title=" ">
<polygon fill="white" stroke="black" points="834,-196 834,-215 930,-215 930,-196 834,-196"/>
<text text-anchor="middle" x="882" y="-203" font-family="Helvetica,sans-Serif" font-size="10.00">Cpl/Dm/Mp/Bool.h</text>
</a>
</g>
</g>
<!-- Node20&#45;&gt;Node22 -->
<g id="edge29" class="edge"><title>Node20&#45;&gt;Node22</title>
<path fill="none" stroke="midnightblue" d="M882,-247.317C882,-236.496 882,-223.398 882,-215.009"/>
<polygon fill="midnightblue" stroke="midnightblue" points="878.5,-247.475 882,-257.475 885.5,-247.475 878.5,-247.475"/>
</g>
<!-- Node23 -->
<g id="node23" class="node"><title>Node23</title>
<g id="a_node23"><a xlink:href="_elapsed_precision_time_8h.html" target="_top" xlink:title=" ">
<polygon fill="white" stroke="black" points="948,-190.5 948,-220.5 1092,-220.5 1092,-190.5 948,-190.5"/>
<text text-anchor="start" x="956" y="-208.5" font-family="Helvetica,sans-Serif" font-size="10.00">Cpl/Dm/Mp/ElapsedPrecision</text>
<text text-anchor="middle" x="1020" y="-197.5" font-family="Helvetica,sans-Serif" font-size="10.00">Time.h</text>
</a>
</g>
</g>
<!-- Node20&#45;&gt;Node23 -->
<g id="edge30" class="edge"><title>Node20&#45;&gt;Node23</title>
<path fill="none" stroke="midnightblue" d="M911.083,-253.461C933.436,-243.823 964.307,-230.513 987.476,-220.523"/>
<polygon fill="midnightblue" stroke="midnightblue" points="909.569,-250.302 901.772,-257.475 912.341,-256.73 909.569,-250.302"/>
</g>
<!-- Node24 -->
<g id="node24" class="node"><title>Node24</title>
<g id="a_node24"><a xlink:href="_enum___8h.html" target="_top" xlink:title=" ">
<polygon fill="white" stroke="black" points="1110.5,-196 1110.5,-215 1217.5,-215 1217.5,-196 1110.5,-196"/>
<text text-anchor="middle" x="1164" y="-203" font-family="Helvetica,sans-Serif" font-size="10.00">Cpl/Dm/Mp/Enum_.h</text>
</a>
</g>
</g>
<!-- Node20&#45;&gt;Node24 -->
<g id="edge31" class="edge"><title>Node20&#45;&gt;Node24</title>
<path fill="none" stroke="midnightblue" d="M935.266,-255.42C979.659,-246.515 1044.53,-233.299 1101,-221 1109.66,-219.113 1118.98,-217.01 1127.72,-215.004"/>
<polygon fill="midnightblue" stroke="midnightblue" points="934.397,-252.024 925.279,-257.42 935.771,-258.888 934.397,-252.024"/>
</g>
<!-- Node25 -->
<g id="node25" class="node"><title>Node25</title>
<g id="a_node25"><a xlink:href="_numeric_8h.html" target="_top" xlink:title=" ">
<polygon fill="white" stroke="black" points="311.5,-196 311.5,-215 424.5,-215 424.5,-196 311.5,-196"/>
<text text-anchor="middle" x="368" y="-203" font-family="Helvetica,sans-Serif" font-size="10.00">Cpl/Dm/Mp/Numeric.h</text>
</a>
</g>
</g>
<!-- Node20&#45;&gt;Node25 -->
<g id="edge32" class="edge"><title>Node20&#45;&gt;Node25</title>
<path fill="none" stroke="midnightblue" d="M795.132,-260.388C704.395,-253.804 558.118,-241.151 433,-221 423.069,-219.401 412.381,-217.214 402.597,-215.023"/>
<polygon fill="midnightblue" stroke="midnightblue" points="795.147,-263.898 805.371,-261.122 795.647,-256.916 795.147,-263.898"/>
</g>
<!-- Node35 -->
<g id="node35" class="node"><title>Node35</title>
<g id="a_node35"><a xlink:href="_ref_counter_8h.html" target="_top" xlink:title=" ">
<polygon fill="white" stroke="black" points="442.5,-196 442.5,-215 567.5,-215 567.5,-196 442.5,-196"/>
<text text-anchor="middle" x="505" y="-203" font-family="Helvetica,sans-Serif" font-size="10.00">Cpl/Dm/Mp/RefCounter.h</text>
</a>
</g>
</g>
<!-- Node20&#45;&gt;Node35 -->
<g id="edge44" class="edge"><title>Node20&#45;&gt;Node35</title>
<path fill="none" stroke="midnightblue" d="M806.671,-256.108C744.619,-247.674 654.405,-234.76 576,-221 565.839,-219.217 554.903,-217.088 544.731,-215.018"/>
<polygon fill="midnightblue" stroke="midnightblue" points="806.387,-259.601 816.766,-257.474 807.326,-252.664 806.387,-259.601"/>
</g>
<!-- Node36 -->
<g id="node36" class="node"><title>Node36</title>
<g id="a_node36"><a xlink:href="_dm_2_mp_2_string___8h.html" target="_top" xlink:title=" ">
<polygon fill="white" stroke="black" points="585.5,-196 585.5,-215 692.5,-215 692.5,-196 585.5,-196"/>
<text text-anchor="middle" x="639" y="-203" font-family="Helvetica,sans-Serif" font-size="10.00">Cpl/Dm/Mp/String_.h</text>
</a>
</g>
</g>
<!-- Node20&#45;&gt;Node36 -->
<g id="edge45" class="edge"><title>Node20&#45;&gt;Node36</title>
<path fill="none" stroke="midnightblue" d="M837.244,-255.041C790.068,-243.49 716.758,-225.539 673.751,-215.009"/>
<polygon fill="midnightblue" stroke="midnightblue" points="836.639,-258.496 847.184,-257.475 838.303,-251.697 836.639,-258.496"/>
</g>
<!-- Node26 -->
<g id="node26" class="node"><title>Node26</title>
<g id="a_node26"><a xlink:href="_bit_array16_8h.html" target="_top" xlink:title=" ">
<polygon fill="white" stroke="black" points="114,-134.5 114,-153.5 236,-153.5 236,-134.5 114,-134.5"/>
<text text-anchor="middle" x="175" y="-141.5" font-family="Helvetica,sans-Serif" font-size="10.00">Cpl/Dm/Mp/BitArray16.h</text>
</a>
</g>
</g>
<!-- Node25&#45;&gt;Node26 -->
<g id="edge33" class="edge"><title>Node25&#45;&gt;Node26</title>
<path fill="none" stroke="midnightblue" d="M330.79,-193.029C293.28,-181.465 236.257,-163.885 202.601,-153.509"/>
<polygon fill="midnightblue" stroke="midnightblue" points="329.76,-196.374 340.348,-195.975 331.823,-189.684 329.76,-196.374"/>
</g>
<!-- Node27 -->
<g id="node27" class="node"><title>Node27</title>
<g id="a_node27"><a xlink:href="_double_8h.html" target="_top" xlink:title=" ">
<polygon fill="white" stroke="black" points="376.5,-134.5 376.5,-153.5 483.5,-153.5 483.5,-134.5 376.5,-134.5"/>
<text text-anchor="middle" x="430" y="-141.5" font-family="Helvetica,sans-Serif" font-size="10.00">Cpl/Dm/Mp/Double.h</text>
</a>
</g>
</g>
<!-- Node25&#45;&gt;Node27 -->
<g id="edge34" class="edge"><title>Node25&#45;&gt;Node27</title>
<path fill="none" stroke="midnightblue" d="M384.334,-188.825C396.113,-177.52 411.564,-162.693 421.133,-153.509"/>
<polygon fill="midnightblue" stroke="midnightblue" points="381.675,-186.526 376.883,-195.975 386.522,-191.576 381.675,-186.526"/>
</g>
<!-- Node28 -->
<g id="node28" class="node"><title>Node28</title>
<g id="a_node28"><a xlink:href="_float_8h.html" target="_top" xlink:title=" ">
<polygon fill="white" stroke="black" points="502,-134.5 502,-153.5 600,-153.5 600,-134.5 502,-134.5"/>
<text text-anchor="middle" x="551" y="-141.5" font-family="Helvetica,sans-Serif" font-size="10.00">Cpl/Dm/Mp/Float.h</text>
</a>
</g>
</g>
<!-- Node25&#45;&gt;Node28 -->
<g id="edge35" class="edge"><title>Node25&#45;&gt;Node28</title>
<path fill="none" stroke="midnightblue" d="M403.737,-192.881C439.308,-181.315 493.053,-163.841 524.829,-153.509"/>
<polygon fill="midnightblue" stroke="midnightblue" points="402.647,-189.555 394.219,-195.975 404.812,-196.211 402.647,-189.555"/>
</g>
<!-- Node29 -->
<g id="node29" class="node"><title>Node29</title>
<g id="a_node29"><a xlink:href="_int32_8h.html" target="_top" xlink:title=" ">
<polygon fill="white" stroke="black" points="618,-134.5 618,-153.5 716,-153.5 716,-134.5 618,-134.5"/>
<text text-anchor="middle" x="667" y="-141.5" font-family="Helvetica,sans-Serif" font-size="10.00">Cpl/Dm/Mp/Int32.h</text>
</a>
</g>
</g>
<!-- Node25&#45;&gt;Node29 -->
<g id="edge36" class="edge"><title>Node25&#45;&gt;Node29</title>
<path fill="none" stroke="midnightblue" d="M415.32,-193.773C421.266,-192.476 427.271,-191.19 433,-190 497.809,-176.543 573.013,-162.329 620.302,-153.561"/>
<polygon fill="midnightblue" stroke="midnightblue" points="414.437,-190.384 405.425,-195.953 415.944,-197.22 414.437,-190.384"/>
</g>
<!-- Node30 -->
<g id="node30" class="node"><title>Node30</title>
<g id="a_node30"><a xlink:href="_int64_8h.html" target="_top" xlink:title=" ">
<polygon fill="white" stroke="black" points="734,-134.5 734,-153.5 832,-153.5 832,-134.5 734,-134.5"/>
<text text-anchor="middle" x="783" y="-141.5" font-family="Helvetica,sans-Serif" font-size="10.00">Cpl/Dm/Mp/Int64.h</text>
</a>
</g>
</g>
<!-- Node25&#45;&gt;Node30 -->
<g id="edge37" class="edge"><title>Node25&#45;&gt;Node30</title>
<path fill="none" stroke="midnightblue" d="M413.424,-193.78C419.973,-192.406 426.645,-191.098 433,-190 561.852,-167.739 595.488,-172.027 725,-154 727.927,-153.593 730.935,-153.162 733.968,-152.719"/>
<polygon fill="midnightblue" stroke="midnightblue" points="412.33,-190.436 403.298,-195.974 413.812,-197.277 412.33,-190.436"/>
</g>
<!-- Node31 -->
<g id="node31" class="node"><title>Node31</title>
<g id="a_node31"><a xlink:href="_uint32_8h.html" target="_top" xlink:title=" ">
<polygon fill="white" stroke="black" points="254,-134.5 254,-153.5 358,-153.5 358,-134.5 254,-134.5"/>
<text text-anchor="middle" x="306" y="-141.5" font-family="Helvetica,sans-Serif" font-size="10.00">Cpl/Dm/Mp/Uint32.h</text>
</a>
</g>
</g>
<!-- Node25&#45;&gt;Node31 -->
<g id="edge38" class="edge"><title>Node25&#45;&gt;Node31</title>
<path fill="none" stroke="midnightblue" d="M351.666,-188.825C339.887,-177.52 324.436,-162.693 314.867,-153.509"/>
<polygon fill="midnightblue" stroke="midnightblue" points="349.478,-191.576 359.117,-195.975 354.325,-186.526 349.478,-191.576"/>
</g>
<!-- Node33 -->
<g id="node33" class="node"><title>Node33</title>
<g id="a_node33"><a xlink:href="_uint64_8h.html" target="_top" xlink:title=" ">
<polygon fill="white" stroke="black" points="1015,-134.5 1015,-153.5 1119,-153.5 1119,-134.5 1015,-134.5"/>
<text text-anchor="middle" x="1067" y="-141.5" font-family="Helvetica,sans-Serif" font-size="10.00">Cpl/Dm/Mp/Uint64.h</text>
</a>
</g>
</g>
<!-- Node25&#45;&gt;Node33 -->
<g id="edge41" class="edge"><title>Node25&#45;&gt;Node33</title>
<path fill="none" stroke="midnightblue" d="M411.962,-193.766C418.967,-192.324 426.159,-191 433,-190 544.915,-173.638 884.144,-154.624 1014.86,-147.698"/>
<polygon fill="midnightblue" stroke="midnightblue" points="410.931,-190.408 401.895,-195.94 412.408,-197.251 410.931,-190.408"/>
</g>
<!-- Node34 -->
<g id="node34" class="node"><title>Node34</title>
<g id="a_node34"><a xlink:href="_void_8h.html" target="_top" xlink:title=" ">
<polygon fill="white" stroke="black" points="0,-134.5 0,-153.5 96,-153.5 96,-134.5 0,-134.5"/>
<text text-anchor="middle" x="48" y="-141.5" font-family="Helvetica,sans-Serif" font-size="10.00">Cpl/Dm/Mp/Void.h</text>
</a>
</g>
</g>
<!-- Node25&#45;&gt;Node34 -->
<g id="edge43" class="edge"><title>Node25&#45;&gt;Node34</title>
<path fill="none" stroke="midnightblue" d="M312.158,-194.117C250.187,-182.594 151.347,-164.216 93.7631,-153.509"/>
<polygon fill="midnightblue" stroke="midnightblue" points="311.68,-197.588 322.152,-195.975 312.96,-190.706 311.68,-197.588"/>
</g>
<!-- Node32 -->
<g id="node32" class="node"><title>Node32</title>
<g id="a_node32"><a xlink:href="_ring_buffer_m_p_8h.html" target="_top" xlink:title=" ">
<polygon fill="white" stroke="black" points="684.5,-73 684.5,-92 831.5,-92 831.5,-73 684.5,-73"/>
<text text-anchor="middle" x="758" y="-80" font-family="Helvetica,sans-Serif" font-size="10.00">Cpl/Container/RingBufferMP.h</text>
</a>
</g>
</g>
<!-- Node31&#45;&gt;Node32 -->
<g id="edge39" class="edge"><title>Node31&#45;&gt;Node32</title>
<path fill="none" stroke="midnightblue" d="M368.221,-133.851C486.854,-117.502 613.071,-101.502 689.085,-92.0191"/>
<polygon fill="midnightblue" stroke="midnightblue" points="367.662,-130.394 358.235,-135.23 368.619,-137.329 367.662,-130.394"/>
</g>
<!-- Node32&#45;&gt;Node13 -->
<g id="edge40" class="edge"><title>Node32&#45;&gt;Node13</title>
<path fill="none" stroke="midnightblue" d="M840.54,-71.7982C949.475,-58.9939 1139.34,-36.6774 1241.38,-24.6827"/>
<polygon fill="midnightblue" stroke="midnightblue" points="840.102,-68.3255 830.579,-72.969 840.919,-75.2776 840.102,-68.3255"/>
</g>
<!-- Node33&#45;&gt;Node12 -->
<g id="edge42" class="edge"><title>Node33&#45;&gt;Node12</title>
<path fill="none" stroke="midnightblue" d="M1129.33,-136.95C1244.5,-125.771 1489.85,-101.956 1610.32,-90.263"/>
<polygon fill="midnightblue" stroke="midnightblue" points="1128.88,-133.477 1119.26,-137.927 1129.56,-140.445 1128.88,-133.477"/>
</g>
<!-- Node37&#45;&gt;Node8 -->
<g id="edge47" class="edge"><title>Node37&#45;&gt;Node8</title>
<path fill="none" stroke="midnightblue" d="M1347.91,-192.881C1384.65,-181.315 1440.15,-163.841 1472.97,-153.509"/>
<polygon fill="midnightblue" stroke="midnightblue" points="1346.57,-189.634 1338.08,-195.975 1348.67,-196.311 1346.57,-189.634"/>
</g>
<!-- Node37&#45;&gt;Node13 -->
<g id="edge48" class="edge"><title>Node37&#45;&gt;Node13</title>
<path fill="none" stroke="midnightblue" d="M1311,-185.881C1311,-148.328 1311,-64.2397 1311,-30.704"/>
<polygon fill="midnightblue" stroke="midnightblue" points="1307.5,-185.933 1311,-195.934 1314.5,-185.934 1307.5,-185.933"/>
</g>
<!-- Node39 -->
<g id="node39" class="node"><title>Node39</title>
<g id="a_node39"><a xlink:href="_h_pool_8h.html" target="_top" xlink:title=" ">
<polygon fill="white" stroke="black" points="1231.5,-425.5 1231.5,-444.5 1338.5,-444.5 1338.5,-425.5 1231.5,-425.5"/>
<text text-anchor="middle" x="1285" y="-432.5" font-family="Helvetica,sans-Serif" font-size="10.00">Cpl/Memory/HPool.h</text>
</a>
</g>
</g>
<!-- Node38&#45;&gt;Node39 -->
<g id="edge51" class="edge"><title>Node38&#45;&gt;Node39</title>
<path fill="none" stroke="midnightblue" d="M1329.25,-474.537C1318.19,-464.909 1304.37,-452.869 1295.14,-444.834"/>
<polygon fill="midnightblue" stroke="midnightblue" points="1327.2,-477.395 1337.04,-481.324 1331.8,-472.117 1327.2,-477.395"/>
</g>
<!-- Node40 -->
<g id="node40" class="node"><title>Node40</title>
<g id="a_node40"><a xlink:href="_s_pool_8h.html" target="_top" xlink:title=" ">
<polygon fill="white" stroke="black" points="1356.5,-425.5 1356.5,-444.5 1463.5,-444.5 1463.5,-425.5 1356.5,-425.5"/>
<text text-anchor="middle" x="1410" y="-432.5" font-family="Helvetica,sans-Serif" font-size="10.00">Cpl/Memory/SPool.h</text>
</a>
</g>
</g>
<!-- Node38&#45;&gt;Node40 -->
<g id="edge52" class="edge"><title>Node38&#45;&gt;Node40</title>
<path fill="none" stroke="midnightblue" d="M1365.04,-474.537C1376.27,-464.909 1390.32,-452.869 1399.69,-444.834"/>
<polygon fill="midnightblue" stroke="midnightblue" points="1362.44,-472.159 1357.12,-481.324 1366.99,-477.473 1362.44,-472.159"/>
</g>
<!-- Node41 -->
<g id="node41" class="node"><title>Node41</title>
<g id="a_node41"><a xlink:href="_stream_pool_8h.html" target="_top" xlink:title=" ">
<polygon fill="white" stroke="black" points="1325,-369.5 1325,-388.5 1463,-388.5 1463,-369.5 1325,-369.5"/>
<text text-anchor="middle" x="1394" y="-376.5" font-family="Helvetica,sans-Serif" font-size="10.00">Cpl/Io/Socket/StreamPool.h</text>
</a>
</g>
</g>
<!-- Node40&#45;&gt;Node41 -->
<g id="edge53" class="edge"><title>Node40&#45;&gt;Node41</title>
<path fill="none" stroke="midnightblue" d="M1404.49,-415.396C1401.81,-406.362 1398.72,-395.936 1396.59,-388.751"/>
<polygon fill="midnightblue" stroke="midnightblue" points="1401.16,-416.489 1407.36,-425.083 1407.87,-414.501 1401.16,-416.489"/>
</g>
<!-- Node43 -->
<g id="node43" class="node"><title>Node43</title>
<g id="a_node43"><a xlink:href="_system_2_event_loop_8h.html" target="_top" xlink:title=" ">
<polygon fill="white" stroke="black" points="1580.5,-425.5 1580.5,-444.5 1705.5,-444.5 1705.5,-425.5 1580.5,-425.5"/>
<text text-anchor="middle" x="1643" y="-432.5" font-family="Helvetica,sans-Serif" font-size="10.00">Cpl/System/EventLoop.h</text>
</a>
</g>
</g>
<!-- Node42&#45;&gt;Node43 -->
<g id="edge55" class="edge"><title>Node42&#45;&gt;Node43</title>
<path fill="none" stroke="midnightblue" d="M1643,-470.805C1643,-461.91 1643,-451.78 1643,-444.751"/>
<polygon fill="midnightblue" stroke="midnightblue" points="1639.5,-471.083 1643,-481.083 1646.5,-471.083 1639.5,-471.083"/>
</g>
<!-- Node47 -->
<g id="node47" class="node"><title>Node47</title>
<g id="a_node47"><a xlink:href="_timer_8h.html" target="_top" xlink:title=" ">
<polygon fill="white" stroke="black" points="1724,-425.5 1724,-444.5 1828,-444.5 1828,-425.5 1724,-425.5"/>
<text text-anchor="middle" x="1776" y="-432.5" font-family="Helvetica,sans-Serif" font-size="10.00">Cpl/System/Timer.h</text>
</a>
</g>
</g>
<!-- Node42&#45;&gt;Node47 -->
<g id="edge62" class="edge"><title>Node42&#45;&gt;Node47</title>
<path fill="none" stroke="midnightblue" d="M1673.45,-477.638C1698.41,-467.504 1733.08,-453.427 1755.02,-444.516"/>
<polygon fill="midnightblue" stroke="midnightblue" points="1672.02,-474.439 1664.07,-481.444 1674.66,-480.924 1672.02,-474.439"/>
</g>
<!-- Node43&#45;&gt;Node4 -->
<g id="edge56" class="edge"><title>Node43&#45;&gt;Node4</title>
<path fill="none" stroke="midnightblue" d="M1616.45,-420.726C1596.45,-410.727 1569.61,-397.307 1552.31,-388.655"/>
<polygon fill="midnightblue" stroke="midnightblue" points="1615.14,-423.982 1625.65,-425.324 1618.27,-417.721 1615.14,-423.982"/>
</g>
<!-- Node44 -->
<g id="node44" class="node"><title>Node44</title>
<g id="a_node44"><a xlink:href="_mailbox_8h.html" target="_top" xlink:title=" ">
<polygon fill="white" stroke="black" points="1607,-369.5 1607,-388.5 1697,-388.5 1697,-369.5 1607,-369.5"/>
<text text-anchor="middle" x="1652" y="-376.5" font-family="Helvetica,sans-Serif" font-size="10.00">Cpl/Itc/Mailbox.h</text>
</a>
</g>
</g>
<!-- Node43&#45;&gt;Node44 -->
<g id="edge57" class="edge"><title>Node43&#45;&gt;Node44</title>
<path fill="none" stroke="midnightblue" d="M1646.15,-415.101C1647.64,-406.136 1649.36,-395.858 1650.54,-388.751"/>
<polygon fill="midnightblue" stroke="midnightblue" points="1642.68,-414.644 1644.49,-425.083 1649.58,-415.794 1642.68,-414.644"/>
</g>
<!-- Node45 -->
<g id="node45" class="node"><title>Node45</title>
<g id="a_node45"><a xlink:href="_itc_2_mailbox_server_8h.html" target="_top" xlink:title=" ">
<polygon fill="white" stroke="black" points="1715.5,-313.5 1715.5,-332.5 1834.5,-332.5 1834.5,-313.5 1715.5,-313.5"/>
<text text-anchor="middle" x="1775" y="-320.5" font-family="Helvetica,sans-Serif" font-size="10.00">Cpl/Itc/MailboxServer.h</text>
</a>
</g>
</g>
<!-- Node43&#45;&gt;Node45 -->
<g id="edge61" class="edge"><title>Node43&#45;&gt;Node45</title>
<path fill="none" stroke="midnightblue" d="M1664.78,-419.521C1677.17,-411.023 1692.8,-399.85 1706,-389 1728.89,-370.192 1753.7,-345.698 1766.42,-332.812"/>
<polygon fill="midnightblue" stroke="midnightblue" points="1662.73,-416.684 1656.42,-425.193 1666.66,-422.478 1662.73,-416.684"/>
</g>
<!-- Node44&#45;&gt;Node5 -->
<g id="edge58" class="edge"><title>Node44&#45;&gt;Node5</title>
<path fill="none" stroke="midnightblue" d="M1646.49,-359.396C1643.81,-350.362 1640.72,-339.936 1638.59,-332.751"/>
<polygon fill="midnightblue" stroke="midnightblue" points="1643.16,-360.489 1649.36,-369.083 1649.87,-358.501 1643.16,-360.489"/>
</g>
<!-- Node44&#45;&gt;Node45 -->
<g id="edge59" class="edge"><title>Node44&#45;&gt;Node45</title>
<path fill="none" stroke="midnightblue" d="M1680.77,-365.368C1703.81,-355.255 1735.48,-341.349 1755.6,-332.516"/>
<polygon fill="midnightblue" stroke="midnightblue" points="1679.24,-362.219 1671.49,-369.444 1682.05,-368.628 1679.24,-362.219"/>
</g>
<!-- Node46 -->
<g id="node46" class="node"><title>Node46</title>
<g id="a_node46"><a xlink:href="_itc_2_periodic_scheduler_8h.html" target="_top" xlink:title=" ">
<polygon fill="white" stroke="black" points="2176.5,-257.5 2176.5,-276.5 2311.5,-276.5 2311.5,-257.5 2176.5,-257.5"/>
<text text-anchor="middle" x="2244" y="-264.5" font-family="Helvetica,sans-Serif" font-size="10.00">Cpl/Itc/PeriodicScheduler.h</text>
</a>
</g>
</g>
<!-- Node45&#45;&gt;Node46 -->
<g id="edge60" class="edge"><title>Node45&#45;&gt;Node46</title>
<path fill="none" stroke="midnightblue" d="M1844.86,-314.084C1923.44,-305.159 2054.9,-290.172 2168,-277 2170.77,-276.677 2173.6,-276.347 2176.46,-276.012"/>
<polygon fill="midnightblue" stroke="midnightblue" points="1844.14,-310.643 1834.6,-315.248 1844.93,-317.598 1844.14,-310.643"/>
</g>
</g>
</svg>
