<?xml version="1.0" encoding="UTF-8" standalone="no"?>
<!DOCTYPE svg PUBLIC "-//W3C//DTD SVG 1.1//EN"
 "http://www.w3.org/Graphics/SVG/1.1/DTD/svg11.dtd">
<!-- Generated by graphviz version 2.38.0 (20140413.2041)
 -->
<!-- Title: Cpl/Container/DictItem.h Pages: 1 -->
<svg width="1902pt" height="475pt"
 viewBox="0.00 0.00 1901.50 475.00" xmlns="http://www.w3.org/2000/svg" xmlns:xlink="http://www.w3.org/1999/xlink">
<g id="graph0" class="graph" transform="scale(1 1) rotate(0) translate(4 471)">
<title>Cpl/Container/DictItem.h</title>
<polygon fill="white" stroke="none" points="-4,4 -4,-471 1897.5,-471 1897.5,4 -4,4"/>
<!-- Node1 -->
<g id="node1" class="node"><title>Node1</title>
<g id="a_node1"><a xlink:title=" ">
<polygon fill="#bfbfbf" stroke="black" points="459,-447.5 459,-466.5 582,-466.5 582,-447.5 459,-447.5"/>
<text text-anchor="middle" x="520.5" y="-454.5" font-family="Helvetica,sans-Serif" font-size="10.00">Cpl/Container/DictItem.h</text>
</a>
</g>
</g>
<!-- Node2 -->
<g id="node2" class="node"><title>Node2</title>
<g id="a_node2"><a xlink:href="_hash_table___8h.html" target="_top" xlink:title=" ">
<polygon fill="white" stroke="black" points="342.5,-391.5 342.5,-410.5 480.5,-410.5 480.5,-391.5 342.5,-391.5"/>
<text text-anchor="middle" x="411.5" y="-398.5" font-family="Helvetica,sans-Serif" font-size="10.00">Cpl/Container/HashTable_.h</text>
</a>
</g>
</g>
<!-- Node1&#45;&gt;Node2 -->
<g id="edge1" class="edge"><title>Node1&#45;&gt;Node2</title>
<path fill="none" stroke="midnightblue" d="M493.981,-442.862C473.77,-432.849 446.513,-419.346 428.969,-410.655"/>
<polygon fill="midnightblue" stroke="midnightblue" points="492.473,-446.021 502.987,-447.324 495.58,-439.748 492.473,-446.021"/>
</g>
<!-- Node4 -->
<g id="node4" class="node"><title>Node4</title>
<g id="a_node4"><a xlink:href="_map_item_8h.html" target="_top" xlink:title=" ">
<polygon fill="white" stroke="black" points="567,-391.5 567,-410.5 692,-410.5 692,-391.5 567,-391.5"/>
<text text-anchor="middle" x="629.5" y="-398.5" font-family="Helvetica,sans-Serif" font-size="10.00">Cpl/Container/MapItem.h</text>
</a>
</g>
</g>
<!-- Node1&#45;&gt;Node4 -->
<g id="edge3" class="edge"><title>Node1&#45;&gt;Node4</title>
<path fill="none" stroke="midnightblue" d="M547.019,-442.862C567.23,-432.849 594.487,-419.346 612.031,-410.655"/>
<polygon fill="midnightblue" stroke="midnightblue" points="545.42,-439.748 538.013,-447.324 548.527,-446.021 545.42,-439.748"/>
</g>
<!-- Node3 -->
<g id="node3" class="node"><title>Node3</title>
<g id="a_node3"><a xlink:href="_dictionary_8h.html" target="_top" xlink:title=" ">
<polygon fill="white" stroke="black" points="277.5,-335.5 277.5,-354.5 407.5,-354.5 407.5,-335.5 277.5,-335.5"/>
<text text-anchor="middle" x="342.5" y="-342.5" font-family="Helvetica,sans-Serif" font-size="10.00">Cpl/Container/Dictionary.h</text>
</a>
</g>
</g>
<!-- Node2&#45;&gt;Node3 -->
<g id="edge2" class="edge"><title>Node2&#45;&gt;Node3</title>
<path fill="none" stroke="midnightblue" d="M392.462,-385.101C380.044,-375.382 364.257,-363.027 353.788,-354.834"/>
<polygon fill="midnightblue" stroke="midnightblue" points="390.382,-387.917 400.414,-391.324 394.696,-382.405 390.382,-387.917"/>
</g>
<!-- Node5 -->
<g id="node5" class="node"><title>Node5</title>
<g id="a_node5"><a xlink:href="_avl_tree___8h.html" target="_top" xlink:title=" ">
<polygon fill="white" stroke="black" points="684,-335.5 684,-354.5 809,-354.5 809,-335.5 684,-335.5"/>
<text text-anchor="middle" x="746.5" y="-342.5" font-family="Helvetica,sans-Serif" font-size="10.00">Cpl/Container/AvlTree_.h</text>
</a>
</g>
</g>
<!-- Node4&#45;&gt;Node5 -->
<g id="edge4" class="edge"><title>Node4&#45;&gt;Node5</title>
<path fill="none" stroke="midnightblue" d="M657.164,-387.232C679.049,-377.131 708.997,-363.309 728.048,-354.516"/>
<polygon fill="midnightblue" stroke="midnightblue" points="655.652,-384.075 648.039,-391.444 658.585,-390.431 655.652,-384.075"/>
</g>
<!-- Node33 -->
<g id="node33" class="node"><title>Node33</title>
<g id="a_node33"><a xlink:href="_command_8h.html" target="_top" xlink:title=" ">
<polygon fill="white" stroke="black" points="919,-274 919,-293 1036,-293 1036,-274 919,-274"/>
<text text-anchor="middle" x="977.5" y="-281" font-family="Helvetica,sans-Serif" font-size="10.00">Cpl/TShell/Command.h</text>
</a>
</g>
</g>
<!-- Node4&#45;&gt;Node33 -->
<g id="edge33" class="edge"><title>Node4&#45;&gt;Node33</title>
<path fill="none" stroke="midnightblue" d="M685.162,-389.426C722.975,-381.577 773.853,-369.706 817.5,-355 871.292,-336.876 931.871,-307.612 960.619,-293.154"/>
<polygon fill="midnightblue" stroke="midnightblue" points="684.448,-386 675.352,-391.433 685.851,-392.858 684.448,-386"/>
</g>
<!-- Node34 -->
<g id="node34" class="node"><title>Node34</title>
<g id="a_node34"><a xlink:href="_string_item_8h.html" target="_top" xlink:title=" ">
<polygon fill="white" stroke="black" points="425.5,-335.5 425.5,-354.5 535.5,-354.5 535.5,-335.5 425.5,-335.5"/>
<text text-anchor="middle" x="480.5" y="-342.5" font-family="Helvetica,sans-Serif" font-size="10.00">Cpl/Text/StringItem.h</text>
</a>
</g>
</g>
<!-- Node4&#45;&gt;Node34 -->
<g id="edge37" class="edge"><title>Node4&#45;&gt;Node34</title>
<path fill="none" stroke="midnightblue" d="M596.129,-387.906C568.116,-377.754 528.804,-363.506 503.999,-354.516"/>
<polygon fill="midnightblue" stroke="midnightblue" points="595.296,-391.327 605.891,-391.444 597.681,-384.746 595.296,-391.327"/>
</g>
<!-- Node38 -->
<g id="node38" class="node"><title>Node38</title>
<g id="a_node38"><a xlink:href="_rx_frame_handler_api_8h.html" target="_top" xlink:title=" ">
<polygon fill="white" stroke="black" points="556.5,-268.5 556.5,-298.5 702.5,-298.5 702.5,-268.5 556.5,-268.5"/>
<text text-anchor="start" x="564.5" y="-286.5" font-family="Helvetica,sans-Serif" font-size="10.00">Driver/TPipe/RxFrameHandler</text>
<text text-anchor="middle" x="629.5" y="-275.5" font-family="Helvetica,sans-Serif" font-size="10.00">Api.h</text>
</a>
</g>
</g>
<!-- Node4&#45;&gt;Node38 -->
<g id="edge41" class="edge"><title>Node4&#45;&gt;Node38</title>
<path fill="none" stroke="midnightblue" d="M629.5,-381.068C629.5,-357.904 629.5,-319.223 629.5,-298.545"/>
<polygon fill="midnightblue" stroke="midnightblue" points="626,-381.319 629.5,-391.319 633,-381.319 626,-381.319"/>
</g>
<!-- Node6 -->
<g id="node6" class="node"><title>Node6</title>
<g id="a_node6"><a xlink:href="_map_8h.html" target="_top" xlink:title=" ">
<polygon fill="white" stroke="black" points="721,-274 721,-293 826,-293 826,-274 721,-274"/>
<text text-anchor="middle" x="773.5" y="-281" font-family="Helvetica,sans-Serif" font-size="10.00">Cpl/Container/Map.h</text>
</a>
</g>
</g>
<!-- Node5&#45;&gt;Node6 -->
<g id="edge5" class="edge"><title>Node5&#45;&gt;Node6</title>
<path fill="none" stroke="midnightblue" d="M754.516,-326.335C759.511,-315.328 765.712,-301.663 769.639,-293.009"/>
<polygon fill="midnightblue" stroke="midnightblue" points="751.314,-324.922 750.368,-335.475 757.688,-327.815 751.314,-324.922"/>
</g>
<!-- Node7 -->
<g id="node7" class="node"><title>Node7</title>
<g id="a_node7"><a xlink:href="_cmd_2_command_8h.html" target="_top" xlink:title=" ">
<polygon fill="white" stroke="black" points="801.5,-140 801.5,-159 941.5,-159 941.5,-140 801.5,-140"/>
<text text-anchor="middle" x="871.5" y="-147" font-family="Helvetica,sans-Serif" font-size="10.00">Cpl/TShell/Cmd/Command.h</text>
</a>
</g>
</g>
<!-- Node6&#45;&gt;Node7 -->
<g id="edge6" class="edge"><title>Node6&#45;&gt;Node7</title>
<path fill="none" stroke="midnightblue" d="M786,-265.664C807.144,-237.183 849.225,-180.503 865.174,-159.021"/>
<polygon fill="midnightblue" stroke="midnightblue" points="783.081,-263.724 779.93,-273.839 788.701,-267.896 783.081,-263.724"/>
</g>
<!-- Node22 -->
<g id="node22" class="node"><title>Node22</title>
<g id="a_node22"><a xlink:href="_context___8h.html" target="_top" xlink:title=" ">
<polygon fill="white" stroke="black" points="854.5,-207 854.5,-226 966.5,-226 966.5,-207 854.5,-207"/>
<text text-anchor="middle" x="910.5" y="-214" font-family="Helvetica,sans-Serif" font-size="10.00">Cpl/TShell/Context_.h</text>
</a>
</g>
</g>
<!-- Node6&#45;&gt;Node22 -->
<g id="edge21" class="edge"><title>Node6&#45;&gt;Node22</title>
<path fill="none" stroke="midnightblue" d="M801.019,-269.444C828.154,-256.569 868.858,-237.257 892.232,-226.167"/>
<polygon fill="midnightblue" stroke="midnightblue" points="799.227,-266.42 791.693,-273.869 802.228,-272.744 799.227,-266.42"/>
</g>
<!-- Node27 -->
<g id="node27" class="node"><title>Node27</title>
<g id="a_node27"><a xlink:href="_driver_2_button_2_t_pipe_2_hal_8h.html" target="_top" xlink:title="This file defines the concrete implementation for the Button HAL that gets its raw inputs via a Drive...">
<polygon fill="white" stroke="black" points="403.5,-201.5 403.5,-231.5 505.5,-231.5 505.5,-201.5 403.5,-201.5"/>
<text text-anchor="start" x="411.5" y="-219.5" font-family="Helvetica,sans-Serif" font-size="10.00">Driver/Button/TPipe</text>
<text text-anchor="middle" x="454.5" y="-208.5" font-family="Helvetica,sans-Serif" font-size="10.00">/Hal.h</text>
</a>
</g>
</g>
<!-- Node6&#45;&gt;Node27 -->
<g id="edge27" class="edge"><title>Node6&#45;&gt;Node27</title>
<path fill="none" stroke="midnightblue" d="M728.393,-271.679C722.715,-270.397 716.979,-269.141 711.5,-268 624.363,-249.86 601.57,-250.461 514.5,-232 511.565,-231.378 508.554,-230.718 505.519,-230.037"/>
<polygon fill="midnightblue" stroke="midnightblue" points="727.953,-275.169 738.482,-273.995 729.519,-268.346 727.953,-275.169"/>
</g>
<!-- Node28 -->
<g id="node28" class="node"><title>Node28</title>
<g id="a_node28"><a xlink:href="_pipe_8h.html" target="_top" xlink:title=" ">
<polygon fill="white" stroke="black" points="524,-207 524,-226 625,-226 625,-207 524,-207"/>
<text text-anchor="middle" x="574.5" y="-214" font-family="Helvetica,sans-Serif" font-size="10.00">Driver/TPipe/Pipe.h</text>
</a>
</g>
</g>
<!-- Node6&#45;&gt;Node28 -->
<g id="edge28" class="edge"><title>Node6&#45;&gt;Node28</title>
<path fill="none" stroke="midnightblue" d="M737.323,-270.683C697.88,-257.8 635.722,-237.497 600.718,-226.064"/>
<polygon fill="midnightblue" stroke="midnightblue" points="736.482,-274.091 747.074,-273.869 738.655,-267.437 736.482,-274.091"/>
</g>
<!-- Node31 -->
<g id="node31" class="node"><title>Node31</title>
<g id="a_node31"><a xlink:href="_rx_frame_handler_8h.html" target="_top" xlink:title=" ">
<polygon fill="white" stroke="black" points="643,-207 643,-226 798,-226 798,-207 643,-207"/>
<text text-anchor="middle" x="720.5" y="-214" font-family="Helvetica,sans-Serif" font-size="10.00">Driver/TPipe/RxFrameHandler.h</text>
</a>
</g>
</g>
<!-- Node6&#45;&gt;Node31 -->
<g id="edge31" class="edge"><title>Node6&#45;&gt;Node31</title>
<path fill="none" stroke="midnightblue" d="M759.859,-265.77C749.525,-253.097 735.748,-236.201 727.535,-226.127"/>
<polygon fill="midnightblue" stroke="midnightblue" points="757.32,-268.195 766.352,-273.734 762.745,-263.772 757.32,-268.195"/>
</g>
<!-- Node32 -->
<g id="node32" class="node"><title>Node32</title>
<g id="a_node32"><a xlink:href="_main_8h.html" target="_top" xlink:title="This file defines the hardware/platform independent start&#45;up interface(s) for the Storm::Thermostat a...">
<polygon fill="white" stroke="black" points="985,-201.5 985,-231.5 1104,-231.5 1104,-201.5 985,-201.5"/>
<text text-anchor="start" x="993" y="-219.5" font-family="Helvetica,sans-Serif" font-size="10.00">Storm/Thermostat/Main</text>
<text text-anchor="middle" x="1044.5" y="-208.5" font-family="Helvetica,sans-Serif" font-size="10.00">/Main.h</text>
</a>
</g>
</g>
<!-- Node6&#45;&gt;Node32 -->
<g id="edge32" class="edge"><title>Node6&#45;&gt;Node32</title>
<path fill="none" stroke="midnightblue" d="M819.165,-271.547C865.032,-260.546 935.892,-243.55 985.884,-231.559"/>
<polygon fill="midnightblue" stroke="midnightblue" points="818.115,-268.2 809.207,-273.936 819.748,-275.007 818.115,-268.2"/>
</g>
<!-- Node8 -->
<g id="node8" class="node"><title>Node8</title>
<g id="a_node8"><a xlink:href="_dm_8h.html" target="_top" xlink:title=" ">
<polygon fill="white" stroke="black" points="818.5,-73 818.5,-92 924.5,-92 924.5,-73 818.5,-73"/>
<text text-anchor="middle" x="871.5" y="-80" font-family="Helvetica,sans-Serif" font-size="10.00">Cpl/Dm/TShell/Dm.h</text>
</a>
</g>
</g>
<!-- Node7&#45;&gt;Node8 -->
<g id="edge7" class="edge"><title>Node7&#45;&gt;Node8</title>
<path fill="none" stroke="midnightblue" d="M871.5,-129.537C871.5,-117.17 871.5,-101.62 871.5,-92.1273"/>
<polygon fill="midnightblue" stroke="midnightblue" points="868,-129.734 871.5,-139.734 875,-129.734 868,-129.734"/>
</g>
<!-- Node9 -->
<g id="node9" class="node"><title>Node9</title>
<g id="a_node9"><a xlink:href="_bye_8h.html" target="_top" xlink:title=" ">
<polygon fill="white" stroke="black" points="943,-73 943,-92 1056,-92 1056,-73 943,-73"/>
<text text-anchor="middle" x="999.5" y="-80" font-family="Helvetica,sans-Serif" font-size="10.00">Cpl/TShell/Cmd/Bye.h</text>
</a>
</g>
</g>
<!-- Node7&#45;&gt;Node9 -->
<g id="edge8" class="edge"><title>Node7&#45;&gt;Node9</title>
<path fill="none" stroke="midnightblue" d="M897.545,-135.274C922.897,-122.4 960.689,-103.209 982.432,-92.1672"/>
<polygon fill="midnightblue" stroke="midnightblue" points="895.829,-132.22 888.497,-139.869 898.998,-138.461 895.829,-132.22"/>
</g>
<!-- Node10 -->
<g id="node10" class="node"><title>Node10</title>
<g id="a_node10"><a xlink:href="_help_8h.html" target="_top" xlink:title=" ">
<polygon fill="white" stroke="black" points="1074.5,-73 1074.5,-92 1190.5,-92 1190.5,-73 1074.5,-73"/>
<text text-anchor="middle" x="1132.5" y="-80" font-family="Helvetica,sans-Serif" font-size="10.00">Cpl/TShell/Cmd/Help.h</text>
</a>
</g>
</g>
<!-- Node7&#45;&gt;Node10 -->
<g id="edge9" class="edge"><title>Node7&#45;&gt;Node10</title>
<path fill="none" stroke="midnightblue" d="M915.733,-137.484C967.216,-124.663 1051.15,-103.76 1098.03,-92.0834"/>
<polygon fill="midnightblue" stroke="midnightblue" points="914.747,-134.123 905.89,-139.936 916.439,-140.915 914.747,-134.123"/>
</g>
<!-- Node11 -->
<g id="node11" class="node"><title>Node11</title>
<g id="a_node11"><a xlink:href="_t_print_8h.html" target="_top" xlink:title=" ">
<polygon fill="white" stroke="black" points="1208.5,-73 1208.5,-92 1330.5,-92 1330.5,-73 1208.5,-73"/>
<text text-anchor="middle" x="1269.5" y="-80" font-family="Helvetica,sans-Serif" font-size="10.00">Cpl/TShell/Cmd/TPrint.h</text>
</a>
</g>
</g>
<!-- Node7&#45;&gt;Node11 -->
<g id="edge10" class="edge"><title>Node7&#45;&gt;Node11</title>
<path fill="none" stroke="midnightblue" d="M942.981,-138.577C1009.55,-129.08 1111.46,-113.886 1199.5,-98 1209.39,-96.215 1220.03,-94.108 1229.96,-92.0613"/>
<polygon fill="midnightblue" stroke="midnightblue" points="942.424,-135.121 933.016,-139.994 943.409,-142.051 942.424,-135.121"/>
</g>
<!-- Node12 -->
<g id="node12" class="node"><title>Node12</title>
<g id="a_node12"><a xlink:href="_threads_8h.html" target="_top" xlink:title=" ">
<polygon fill="white" stroke="black" points="1349,-73 1349,-92 1480,-92 1480,-73 1349,-73"/>
<text text-anchor="middle" x="1414.5" y="-80" font-family="Helvetica,sans-Serif" font-size="10.00">Cpl/TShell/Cmd/Threads.h</text>
</a>
</g>
</g>
<!-- Node7&#45;&gt;Node12 -->
<g id="edge11" class="edge"><title>Node7&#45;&gt;Node12</title>
<path fill="none" stroke="midnightblue" d="M951.734,-141.895C1045.15,-133.73 1203.97,-118.378 1339.5,-98 1350.65,-96.324 1362.66,-94.1624 1373.74,-92.0225"/>
<polygon fill="midnightblue" stroke="midnightblue" points="951.168,-138.431 941.508,-142.783 951.774,-145.405 951.168,-138.431"/>
</g>
<!-- Node15 -->
<g id="node15" class="node"><title>Node15</title>
<g id="a_node15"><a xlink:href="_tick_8h.html" target="_top" xlink:title=" ">
<polygon fill="white" stroke="black" points="1498,-73 1498,-92 1613,-92 1613,-73 1498,-73"/>
<text text-anchor="middle" x="1555.5" y="-80" font-family="Helvetica,sans-Serif" font-size="10.00">Cpl/TShell/Cmd/Tick.h</text>
</a>
</g>
</g>
<!-- Node7&#45;&gt;Node15 -->
<g id="edge14" class="edge"><title>Node7&#45;&gt;Node15</title>
<path fill="none" stroke="midnightblue" d="M951.746,-145.303C1069.84,-139.837 1297.14,-126.413 1488.5,-98 1498.86,-96.4619 1510.01,-94.2678 1520.19,-92.0506"/>
<polygon fill="midnightblue" stroke="midnightblue" points="951.533,-141.809 941.703,-145.761 951.852,-148.802 951.533,-141.809"/>
</g>
<!-- Node16 -->
<g id="node16" class="node"><title>Node16</title>
<g id="a_node16"><a xlink:href="_t_shell_2_cmd_2_trace_8h.html" target="_top" xlink:title=" ">
<polygon fill="white" stroke="black" points="0,-73 0,-92 121,-92 121,-73 0,-73"/>
<text text-anchor="middle" x="60.5" y="-80" font-family="Helvetica,sans-Serif" font-size="10.00">Cpl/TShell/Cmd/Trace.h</text>
</a>
</g>
</g>
<!-- Node7&#45;&gt;Node16 -->
<g id="edge15" class="edge"><title>Node7&#45;&gt;Node16</title>
<path fill="none" stroke="midnightblue" d="M797.485,-138.744C782.607,-136.99 767.069,-135.308 752.5,-134 476.702,-109.241 405.033,-134.18 130.5,-98 119.426,-96.5406 107.487,-94.3152 96.6592,-92.0427"/>
<polygon fill="midnightblue" stroke="midnightblue" points="797.313,-142.248 807.659,-139.965 798.148,-135.298 797.313,-142.248"/>
</g>
<!-- Node17 -->
<g id="node17" class="node"><title>Node17</title>
<g id="a_node17"><a xlink:href="_state_8h.html" target="_top" xlink:title=" ">
<polygon fill="white" stroke="black" points="139.5,-73 139.5,-92 247.5,-92 247.5,-73 139.5,-73"/>
<text text-anchor="middle" x="193.5" y="-80" font-family="Helvetica,sans-Serif" font-size="10.00">Storm/TShell/State.h</text>
</a>
</g>
</g>
<!-- Node7&#45;&gt;Node17 -->
<g id="edge16" class="edge"><title>Node7&#45;&gt;Node17</title>
<path fill="none" stroke="midnightblue" d="M796.436,-138.789C781.875,-137.065 766.722,-135.382 752.5,-134 532.512,-112.627 475.064,-130.884 256.5,-98 246.622,-96.5138 235.998,-94.3085 226.341,-92.0636"/>
<polygon fill="midnightblue" stroke="midnightblue" points="796.058,-142.269 806.404,-139.986 796.893,-135.319 796.058,-142.269"/>
</g>
<!-- Node18 -->
<g id="node18" class="node"><title>Node18</title>
<g id="a_node18"><a xlink:href="_user_8h.html" target="_top" xlink:title=" ">
<polygon fill="white" stroke="black" points="266,-73 266,-92 371,-92 371,-73 266,-73"/>
<text text-anchor="middle" x="318.5" y="-80" font-family="Helvetica,sans-Serif" font-size="10.00">Storm/TShell/User.h</text>
</a>
</g>
</g>
<!-- Node7&#45;&gt;Node18 -->
<g id="edge17" class="edge"><title>Node7&#45;&gt;Node18</title>
<path fill="none" stroke="midnightblue" d="M793.935,-138.764C780.141,-137.114 765.902,-135.463 752.5,-134 586.935,-115.926 543.792,-125.322 379.5,-98 370.051,-96.4285 359.89,-94.2241 350.623,-92.0075"/>
<polygon fill="midnightblue" stroke="midnightblue" points="793.536,-142.241 803.883,-139.963 794.373,-135.292 793.536,-142.241"/>
</g>
<!-- Node19 -->
<g id="node19" class="node"><title>Node19</title>
<g id="a_node19"><a xlink:href="_t_shell_2_white_box_8h.html" target="_top" xlink:title=" ">
<polygon fill="white" stroke="black" points="389,-73 389,-92 516,-92 516,-73 389,-73"/>
<text text-anchor="middle" x="452.5" y="-80" font-family="Helvetica,sans-Serif" font-size="10.00">Storm/TShell/WhiteBox.h</text>
</a>
</g>
</g>
<!-- Node7&#45;&gt;Node19 -->
<g id="edge18" class="edge"><title>Node7&#45;&gt;Node19</title>
<path fill="none" stroke="midnightblue" d="M796.216,-138.642C726.008,-129.181 618.445,-114.003 525.5,-98 515.186,-96.2241 504.09,-94.1204 493.74,-92.0741"/>
<polygon fill="midnightblue" stroke="midnightblue" points="795.92,-142.134 806.297,-139.996 796.852,-135.196 795.92,-142.134"/>
</g>
<!-- Node20 -->
<g id="node20" class="node"><title>Node20</title>
<g id="a_node20"><a xlink:href="filter_8h.html" target="_top" xlink:title=" ">
<polygon fill="white" stroke="black" points="534.5,-73 534.5,-92 638.5,-92 638.5,-73 534.5,-73"/>
<text text-anchor="middle" x="586.5" y="-80" font-family="Helvetica,sans-Serif" font-size="10.00">Storm/TShell/filter.h</text>
</a>
</g>
</g>
<!-- Node7&#45;&gt;Node20 -->
<g id="edge19" class="edge"><title>Node7&#45;&gt;Node20</title>
<path fill="none" stroke="midnightblue" d="M823.156,-137.771C777.764,-127.658 707.978,-112.005 647.5,-98 639.228,-96.0845 630.334,-93.9902 621.965,-92.0038"/>
<polygon fill="midnightblue" stroke="midnightblue" points="822.5,-141.211 833.021,-139.968 824.021,-134.378 822.5,-141.211"/>
</g>
<!-- Node21 -->
<g id="node21" class="node"><title>Node21</title>
<g id="a_node21"><a xlink:href="_cmd_8h.html" target="_top" xlink:title=" ">
<polygon fill="white" stroke="black" points="657,-67.5 657,-97.5 800,-97.5 800,-67.5 657,-67.5"/>
<text text-anchor="start" x="665" y="-85.5" font-family="Helvetica,sans-Serif" font-size="10.00">Storm/Thermostat/SimHouse</text>
<text text-anchor="middle" x="728.5" y="-74.5" font-family="Helvetica,sans-Serif" font-size="10.00">/Cmd.h</text>
</a>
</g>
</g>
<!-- Node7&#45;&gt;Node21 -->
<g id="edge20" class="edge"><title>Node7&#45;&gt;Node21</title>
<path fill="none" stroke="midnightblue" d="M843.165,-135.621C818.975,-124.625 784.251,-108.841 759.362,-97.5281"/>
<polygon fill="midnightblue" stroke="midnightblue" points="841.959,-138.917 852.511,-139.869 844.855,-132.544 841.959,-138.917"/>
</g>
<!-- Node13 -->
<g id="node13" class="node"><title>Node13</title>
<g id="a_node13"><a xlink:href="_free_r_t_o_s_2_threads_8h.html" target="_top" xlink:title=" ">
<polygon fill="white" stroke="black" points="1419.5,-0.5 1419.5,-30.5 1553.5,-30.5 1553.5,-0.5 1419.5,-0.5"/>
<text text-anchor="start" x="1427.5" y="-18.5" font-family="Helvetica,sans-Serif" font-size="10.00">Cpl/TShell/Cmd/FreeRTOS</text>
<text text-anchor="middle" x="1486.5" y="-7.5" font-family="Helvetica,sans-Serif" font-size="10.00">/Threads.h</text>
</a>
</g>
</g>
<!-- Node12&#45;&gt;Node13 -->
<g id="edge12" class="edge"><title>Node12&#45;&gt;Node13</title>
<path fill="none" stroke="midnightblue" d="M1431.75,-65.928C1443.66,-55.1788 1459.36,-41.0024 1470.89,-30.589"/>
<polygon fill="midnightblue" stroke="midnightblue" points="1429.29,-63.4348 1424.21,-72.7338 1433.98,-68.6307 1429.29,-63.4348"/>
</g>
<!-- Node14 -->
<g id="node14" class="node"><title>Node14</title>
<g id="a_node14"><a xlink:href="_win32_2_threads_8h.html" target="_top" xlink:title=" ">
<polygon fill="white" stroke="black" points="1286,-0.5 1286,-30.5 1401,-30.5 1401,-0.5 1286,-0.5"/>
<text text-anchor="start" x="1294" y="-18.5" font-family="Helvetica,sans-Serif" font-size="10.00">Cpl/TShell/Cmd/Win32</text>
<text text-anchor="middle" x="1343.5" y="-7.5" font-family="Helvetica,sans-Serif" font-size="10.00">/Threads.h</text>
</a>
</g>
</g>
<!-- Node12&#45;&gt;Node14 -->
<g id="edge13" class="edge"><title>Node12&#45;&gt;Node14</title>
<path fill="none" stroke="midnightblue" d="M1397.49,-65.928C1385.75,-55.1788 1370.26,-41.0024 1358.89,-30.589"/>
<polygon fill="midnightblue" stroke="midnightblue" points="1395.19,-68.5628 1404.92,-72.7338 1399.91,-63.3997 1395.19,-68.5628"/>
</g>
<!-- Node22&#45;&gt;Node7 -->
<g id="edge22" class="edge"><title>Node22&#45;&gt;Node7</title>
<path fill="none" stroke="midnightblue" d="M900.021,-198.035C892.47,-185.45 882.604,-169.007 876.676,-159.127"/>
<polygon fill="midnightblue" stroke="midnightblue" points="897.094,-199.96 905.24,-206.734 903.097,-196.358 897.094,-199.96"/>
</g>
<!-- Node23 -->
<g id="node23" class="node"><title>Node23</title>
<g id="a_node23"><a xlink:href="_processor_8h.html" target="_top" xlink:title=" ">
<polygon fill="white" stroke="black" points="1623,-140 1623,-159 1740,-159 1740,-140 1623,-140"/>
<text text-anchor="middle" x="1681.5" y="-147" font-family="Helvetica,sans-Serif" font-size="10.00">Cpl/TShell/Processor.h</text>
</a>
</g>
</g>
<!-- Node22&#45;&gt;Node23 -->
<g id="edge23" class="edge"><title>Node22&#45;&gt;Node23</title>
<path fill="none" stroke="midnightblue" d="M954.463,-204.77C961.468,-203.327 968.659,-202.002 975.5,-201 1213.81,-166.093 1501.05,-155.035 1622.61,-151.769"/>
<polygon fill="midnightblue" stroke="midnightblue" points="953.432,-201.411 944.395,-206.943 954.909,-208.254 953.432,-201.411"/>
</g>
<!-- Node24 -->
<g id="node24" class="node"><title>Node24</title>
<g id="a_node24"><a xlink:href="_cpl_2_t_shell_2_maker_8h.html" target="_top" xlink:title=" ">
<polygon fill="white" stroke="black" points="1631.5,-73 1631.5,-92 1731.5,-92 1731.5,-73 1631.5,-73"/>
<text text-anchor="middle" x="1681.5" y="-80" font-family="Helvetica,sans-Serif" font-size="10.00">Cpl/TShell/Maker.h</text>
</a>
</g>
</g>
<!-- Node23&#45;&gt;Node24 -->
<g id="edge24" class="edge"><title>Node23&#45;&gt;Node24</title>
<path fill="none" stroke="midnightblue" d="M1681.5,-129.537C1681.5,-117.17 1681.5,-101.62 1681.5,-92.1273"/>
<polygon fill="midnightblue" stroke="midnightblue" points="1678,-129.734 1681.5,-139.734 1685,-129.734 1678,-129.734"/>
</g>
<!-- Node25 -->
<g id="node25" class="node"><title>Node25</title>
<g id="a_node25"><a xlink:href="_polled_processor_8h.html" target="_top" xlink:title=" ">
<polygon fill="white" stroke="black" points="1749.5,-73 1749.5,-92 1893.5,-92 1893.5,-73 1749.5,-73"/>
<text text-anchor="middle" x="1821.5" y="-80" font-family="Helvetica,sans-Serif" font-size="10.00">Cpl/TShell/PolledProcessor.h</text>
</a>
</g>
</g>
<!-- Node23&#45;&gt;Node25 -->
<g id="edge25" class="edge"><title>Node23&#45;&gt;Node25</title>
<path fill="none" stroke="midnightblue" d="M1709.26,-135.613C1736.99,-122.739 1778.84,-103.306 1802.83,-92.1672"/>
<polygon fill="midnightblue" stroke="midnightblue" points="1707.69,-132.483 1700.09,-139.869 1710.63,-138.832 1707.69,-132.483"/>
</g>
<!-- Node26 -->
<g id="node26" class="node"><title>Node26</title>
<g id="a_node26"><a xlink:href="_polled_maker_8h.html" target="_top" xlink:title=" ">
<polygon fill="white" stroke="black" points="1758,-6 1758,-25 1885,-25 1885,-6 1758,-6"/>
<text text-anchor="middle" x="1821.5" y="-13" font-family="Helvetica,sans-Serif" font-size="10.00">Cpl/TShell/PolledMaker.h</text>
</a>
</g>
</g>
<!-- Node25&#45;&gt;Node26 -->
<g id="edge26" class="edge"><title>Node25&#45;&gt;Node26</title>
<path fill="none" stroke="midnightblue" d="M1821.5,-62.537C1821.5,-50.1703 1821.5,-34.6198 1821.5,-25.1273"/>
<polygon fill="midnightblue" stroke="midnightblue" points="1818,-62.7338 1821.5,-72.7338 1825,-62.7338 1818,-62.7338"/>
</g>
<!-- Node29 -->
<g id="node29" class="node"><title>Node29</title>
<g id="a_node29"><a xlink:href="_driver_2_pico_display_2_t_pipe_2_api_8h.html" target="_top" xlink:title="This file defines the interface for initializing the concrete implementation of the PicoDisplay drive...">
<polygon fill="white" stroke="black" points="520,-134.5 520,-164.5 617,-164.5 617,-134.5 520,-134.5"/>
<text text-anchor="start" x="528" y="-152.5" font-family="Helvetica,sans-Serif" font-size="10.00">Driver/PicoDisplay</text>
<text text-anchor="middle" x="568.5" y="-141.5" font-family="Helvetica,sans-Serif" font-size="10.00">/TPipe/Api.h</text>
</a>
</g>
</g>
<!-- Node28&#45;&gt;Node29 -->
<g id="edge29" class="edge"><title>Node28&#45;&gt;Node29</title>
<path fill="none" stroke="midnightblue" d="M572.768,-196.739C571.822,-186.487 570.669,-174.001 569.801,-164.589"/>
<polygon fill="midnightblue" stroke="midnightblue" points="569.286,-197.098 573.691,-206.734 576.257,-196.454 569.286,-197.098"/>
</g>
<!-- Node30 -->
<g id="node30" class="node"><title>Node30</title>
<g id="a_node30"><a xlink:href="_driver_2_t_pipe_2_maker_8h.html" target="_top" xlink:title=" ">
<polygon fill="white" stroke="black" points="635,-140 635,-159 744,-159 744,-140 635,-140"/>
<text text-anchor="middle" x="689.5" y="-147" font-family="Helvetica,sans-Serif" font-size="10.00">Driver/TPipe/Maker.h</text>
</a>
</g>
</g>
<!-- Node28&#45;&gt;Node30 -->
<g id="edge30" class="edge"><title>Node28&#45;&gt;Node30</title>
<path fill="none" stroke="midnightblue" d="M598.761,-201.787C621.553,-188.905 654.957,-170.024 674.236,-159.127"/>
<polygon fill="midnightblue" stroke="midnightblue" points="596.993,-198.766 590.009,-206.734 600.437,-204.86 596.993,-198.766"/>
</g>
<!-- Node33&#45;&gt;Node7 -->
<g id="edge34" class="edge"><title>Node33&#45;&gt;Node7</title>
<path fill="none" stroke="midnightblue" d="M1030.18,-271.494C1079.09,-258.876 1140.43,-235.395 1112.5,-201 1091.28,-174.868 1004.95,-161.776 941.654,-155.569"/>
<polygon fill="midnightblue" stroke="midnightblue" points="1029.15,-268.144 1020.29,-273.948 1030.84,-274.939 1029.15,-268.144"/>
</g>
<!-- Node33&#45;&gt;Node22 -->
<g id="edge35" class="edge"><title>Node33&#45;&gt;Node22</title>
<path fill="none" stroke="midnightblue" d="M961.004,-266.497C947.865,-253.75 929.976,-236.395 919.393,-226.127"/>
<polygon fill="midnightblue" stroke="midnightblue" points="958.85,-269.283 968.464,-273.734 963.724,-264.259 958.85,-269.283"/>
</g>
<!-- Node33&#45;&gt;Node32 -->
<g id="edge36" class="edge"><title>Node33&#45;&gt;Node32</title>
<path fill="none" stroke="midnightblue" d="M993.872,-266.617C1004.91,-255.907 1019.35,-241.902 1029.98,-231.589"/>
<polygon fill="midnightblue" stroke="midnightblue" points="991.276,-264.259 986.536,-273.734 996.15,-269.283 991.276,-264.259"/>
</g>
<!-- Node35 -->
<g id="node35" class="node"><title>Node35</title>
<g id="a_node35"><a xlink:href="_d_f_string_item_8h.html" target="_top" xlink:title=" ">
<polygon fill="white" stroke="black" points="148.5,-274 148.5,-293 270.5,-293 270.5,-274 148.5,-274"/>
<text text-anchor="middle" x="209.5" y="-281" font-family="Helvetica,sans-Serif" font-size="10.00">Cpl/Text/DFStringItem.h</text>
</a>
</g>
</g>
<!-- Node34&#45;&gt;Node35 -->
<g id="edge38" class="edge"><title>Node34&#45;&gt;Node35</title>
<path fill="none" stroke="midnightblue" d="M431.904,-333.33C379.349,-321.792 296.619,-303.628 248.256,-293.009"/>
<polygon fill="midnightblue" stroke="midnightblue" points="431.154,-336.749 441.672,-335.475 432.656,-329.912 431.154,-336.749"/>
</g>
<!-- Node36 -->
<g id="node36" class="node"><title>Node36</title>
<g id="a_node36"><a xlink:href="_d_string_item_8h.html" target="_top" xlink:title=" ">
<polygon fill="white" stroke="black" points="288.5,-274 288.5,-293 404.5,-293 404.5,-274 288.5,-274"/>
<text text-anchor="middle" x="346.5" y="-281" font-family="Helvetica,sans-Serif" font-size="10.00">Cpl/Text/DStringItem.h</text>
</a>
</g>
</g>
<!-- Node34&#45;&gt;Node36 -->
<g id="edge39" class="edge"><title>Node34&#45;&gt;Node36</title>
<path fill="none" stroke="midnightblue" d="M451.96,-331.327C425.945,-319.776 388.235,-303.032 365.663,-293.009"/>
<polygon fill="midnightblue" stroke="midnightblue" points="450.741,-334.616 461.301,-335.475 453.582,-328.218 450.741,-334.616"/>
</g>
<!-- Node37 -->
<g id="node37" class="node"><title>Node37</title>
<g id="a_node37"><a xlink:href="_f_string_item_8h.html" target="_top" xlink:title=" ">
<polygon fill="white" stroke="black" points="422.5,-274 422.5,-293 538.5,-293 538.5,-274 422.5,-274"/>
<text text-anchor="middle" x="480.5" y="-281" font-family="Helvetica,sans-Serif" font-size="10.00">Cpl/Text/FStringItem.h</text>
</a>
</g>
</g>
<!-- Node34&#45;&gt;Node37 -->
<g id="edge40" class="edge"><title>Node34&#45;&gt;Node37</title>
<path fill="none" stroke="midnightblue" d="M480.5,-325.317C480.5,-314.496 480.5,-301.398 480.5,-293.009"/>
<polygon fill="midnightblue" stroke="midnightblue" points="477,-325.475 480.5,-335.475 484,-325.475 477,-325.475"/>
</g>
<!-- Node38&#45;&gt;Node27 -->
<g id="edge42" class="edge"><title>Node38&#45;&gt;Node27</title>
<path fill="none" stroke="midnightblue" d="M581.896,-264.819C553.767,-254.371 518.639,-241.323 492.398,-231.577"/>
<polygon fill="midnightblue" stroke="midnightblue" points="580.935,-268.195 591.528,-268.396 583.372,-261.633 580.935,-268.195"/>
</g>
<!-- Node38&#45;&gt;Node28 -->
<g id="edge43" class="edge"><title>Node38&#45;&gt;Node28</title>
<path fill="none" stroke="midnightblue" d="M611.018,-260.657C601.039,-248.865 589.28,-234.967 581.857,-226.195"/>
<polygon fill="midnightblue" stroke="midnightblue" points="608.435,-263.023 617.566,-268.396 613.778,-258.501 608.435,-263.023"/>
</g>
<!-- Node38&#45;&gt;Node31 -->
<g id="edge44" class="edge"><title>Node38&#45;&gt;Node31</title>
<path fill="none" stroke="midnightblue" d="M657.772,-262.306C674.86,-250.1 695.752,-235.177 708.59,-226.007"/>
<polygon fill="midnightblue" stroke="midnightblue" points="655.349,-259.735 649.246,-268.396 659.417,-265.432 655.349,-259.735"/>
</g>
</g>
</svg>
