<?xml version="1.0" encoding="UTF-8" standalone="no"?>
<!DOCTYPE svg PUBLIC "-//W3C//DTD SVG 1.1//EN"
 "http://www.w3.org/Graphics/SVG/1.1/DTD/svg11.dtd">
<!-- Generated by graphviz version 2.38.0 (20140413.2041)
 -->
<!-- Title: Cpl/Container/DictItem.h Pages: 1 -->
<svg width="1223pt" height="431pt"
 viewBox="0.00 0.00 1222.50 431.00" xmlns="http://www.w3.org/2000/svg" xmlns:xlink="http://www.w3.org/1999/xlink">
<g id="graph0" class="graph" transform="scale(1 1) rotate(0) translate(4 427)">
<title>Cpl/Container/DictItem.h</title>
<polygon fill="white" stroke="none" points="-4,4 -4,-427 1218.5,-427 1218.5,4 -4,4"/>
<!-- Node1 -->
<g id="node1" class="node"><title>Node1</title>
<g id="a_node1"><a xlink:title=" ">
<polygon fill="#bfbfbf" stroke="black" points="458,-403.5 458,-422.5 581,-422.5 581,-403.5 458,-403.5"/>
<text text-anchor="middle" x="519.5" y="-410.5" font-family="Helvetica,sans-Serif" font-size="10.00">Cpl/Container/DictItem.h</text>
</a>
</g>
</g>
<!-- Node2 -->
<g id="node2" class="node"><title>Node2</title>
<g id="a_node2"><a xlink:href="_hash_table___8h.html" target="_top" xlink:title=" ">
<polygon fill="white" stroke="black" points="364.5,-347.5 364.5,-366.5 502.5,-366.5 502.5,-347.5 364.5,-347.5"/>
<text text-anchor="middle" x="433.5" y="-354.5" font-family="Helvetica,sans-Serif" font-size="10.00">Cpl/Container/HashTable_.h</text>
</a>
</g>
</g>
<!-- Node1&#45;&gt;Node2 -->
<g id="edge1" class="edge"><title>Node1&#45;&gt;Node2</title>
<path fill="none" stroke="midnightblue" d="M497.045,-397.901C481.276,-387.999 460.686,-375.071 447.283,-366.655"/>
<polygon fill="midnightblue" stroke="midnightblue" points="495.352,-400.97 505.683,-403.324 499.075,-395.042 495.352,-400.97"/>
</g>
<!-- Node4 -->
<g id="node4" class="node"><title>Node4</title>
<g id="a_node4"><a xlink:href="_map_item_8h.html" target="_top" xlink:title=" ">
<polygon fill="white" stroke="black" points="543,-347.5 543,-366.5 668,-366.5 668,-347.5 543,-347.5"/>
<text text-anchor="middle" x="605.5" y="-354.5" font-family="Helvetica,sans-Serif" font-size="10.00">Cpl/Container/MapItem.h</text>
</a>
</g>
</g>
<!-- Node1&#45;&gt;Node4 -->
<g id="edge3" class="edge"><title>Node1&#45;&gt;Node4</title>
<path fill="none" stroke="midnightblue" d="M541.955,-397.901C557.724,-387.999 578.314,-375.071 591.717,-366.655"/>
<polygon fill="midnightblue" stroke="midnightblue" points="539.925,-395.042 533.317,-403.324 543.648,-400.97 539.925,-395.042"/>
</g>
<!-- Node3 -->
<g id="node3" class="node"><title>Node3</title>
<g id="a_node3"><a xlink:href="_dictionary_8h.html" target="_top" xlink:title=" ">
<polygon fill="white" stroke="black" points="325.5,-291.5 325.5,-310.5 455.5,-310.5 455.5,-291.5 325.5,-291.5"/>
<text text-anchor="middle" x="390.5" y="-298.5" font-family="Helvetica,sans-Serif" font-size="10.00">Cpl/Container/Dictionary.h</text>
</a>
</g>
</g>
<!-- Node2&#45;&gt;Node3 -->
<g id="edge2" class="edge"><title>Node2&#45;&gt;Node3</title>
<path fill="none" stroke="midnightblue" d="M420.078,-339.144C412.586,-329.736 403.563,-318.405 397.468,-310.751"/>
<polygon fill="midnightblue" stroke="midnightblue" points="417.432,-341.44 426.399,-347.083 422.908,-337.08 417.432,-341.44"/>
</g>
<!-- Node5 -->
<g id="node5" class="node"><title>Node5</title>
<g id="a_node5"><a xlink:href="_avl_tree___8h.html" target="_top" xlink:title=" ">
<polygon fill="white" stroke="black" points="474,-291.5 474,-310.5 599,-310.5 599,-291.5 474,-291.5"/>
<text text-anchor="middle" x="536.5" y="-298.5" font-family="Helvetica,sans-Serif" font-size="10.00">Cpl/Container/AvlTree_.h</text>
</a>
</g>
</g>
<!-- Node4&#45;&gt;Node5 -->
<g id="edge4" class="edge"><title>Node4&#45;&gt;Node5</title>
<path fill="none" stroke="midnightblue" d="M586.462,-341.101C574.044,-331.382 558.257,-319.027 547.788,-310.834"/>
<polygon fill="midnightblue" stroke="midnightblue" points="584.382,-343.917 594.414,-347.324 588.696,-338.405 584.382,-343.917"/>
</g>
<!-- Node22 -->
<g id="node22" class="node"><title>Node22</title>
<g id="a_node22"><a xlink:href="_command_8h.html" target="_top" xlink:title=" ">
<polygon fill="white" stroke="black" points="569,-235.5 569,-254.5 686,-254.5 686,-235.5 569,-235.5"/>
<text text-anchor="middle" x="627.5" y="-242.5" font-family="Helvetica,sans-Serif" font-size="10.00">Cpl/TShell/Command.h</text>
</a>
</g>
</g>
<!-- Node4&#45;&gt;Node22 -->
<g id="edge22" class="edge"><title>Node4&#45;&gt;Node22</title>
<path fill="none" stroke="midnightblue" d="M609.23,-337.348C614.049,-313.254 622.238,-272.308 625.782,-254.591"/>
<polygon fill="midnightblue" stroke="midnightblue" points="605.756,-336.876 607.226,-347.368 612.62,-338.249 605.756,-336.876"/>
</g>
<!-- Node23 -->
<g id="node23" class="node"><title>Node23</title>
<g id="a_node23"><a xlink:href="_string_item_8h.html" target="_top" xlink:title=" ">
<polygon fill="white" stroke="black" points="774.5,-291.5 774.5,-310.5 884.5,-310.5 884.5,-291.5 774.5,-291.5"/>
<text text-anchor="middle" x="829.5" y="-298.5" font-family="Helvetica,sans-Serif" font-size="10.00">Cpl/Text/StringItem.h</text>
</a>
</g>
</g>
<!-- Node4&#45;&gt;Node23 -->
<g id="edge25" class="edge"><title>Node4&#45;&gt;Node23</title>
<path fill="none" stroke="midnightblue" d="M650.763,-345.088C693.082,-334.887 755.409,-319.861 794.173,-310.516"/>
<polygon fill="midnightblue" stroke="midnightblue" points="649.895,-341.697 640.993,-347.444 651.535,-348.502 649.895,-341.697"/>
</g>
<!-- Node6 -->
<g id="node6" class="node"><title>Node6</title>
<g id="a_node6"><a xlink:href="_map_8h.html" target="_top" xlink:title=" ">
<polygon fill="white" stroke="black" points="446,-235.5 446,-254.5 551,-254.5 551,-235.5 446,-235.5"/>
<text text-anchor="middle" x="498.5" y="-242.5" font-family="Helvetica,sans-Serif" font-size="10.00">Cpl/Container/Map.h</text>
</a>
</g>
</g>
<!-- Node5&#45;&gt;Node6 -->
<g id="edge5" class="edge"><title>Node5&#45;&gt;Node6</title>
<path fill="none" stroke="midnightblue" d="M524.435,-282.855C517.855,-273.505 509.989,-262.327 504.658,-254.751"/>
<polygon fill="midnightblue" stroke="midnightblue" points="521.608,-284.919 530.225,-291.083 527.332,-280.891 521.608,-284.919"/>
</g>
<!-- Node7 -->
<g id="node7" class="node"><title>Node7</title>
<g id="a_node7"><a xlink:href="_cmd_2_command_8h.html" target="_top" xlink:title=" ">
<polygon fill="white" stroke="black" points="451.5,-123.5 451.5,-142.5 591.5,-142.5 591.5,-123.5 451.5,-123.5"/>
<text text-anchor="middle" x="521.5" y="-130.5" font-family="Helvetica,sans-Serif" font-size="10.00">Cpl/TShell/Cmd/Command.h</text>
</a>
</g>
</g>
<!-- Node6&#45;&gt;Node7 -->
<g id="edge6" class="edge"><title>Node6&#45;&gt;Node7</title>
<path fill="none" stroke="midnightblue" d="M496.204,-225.297C495.145,-212.159 494.823,-194.274 498.5,-179 501.745,-165.522 509.745,-151.54 515.395,-142.809"/>
<polygon fill="midnightblue" stroke="midnightblue" points="492.742,-225.845 497.243,-235.437 499.706,-225.132 492.742,-225.845"/>
</g>
<!-- Node17 -->
<g id="node17" class="node"><title>Node17</title>
<g id="a_node17"><a xlink:href="_context___8h.html" target="_top" xlink:title=" ">
<polygon fill="white" stroke="black" points="507.5,-179.5 507.5,-198.5 619.5,-198.5 619.5,-179.5 507.5,-179.5"/>
<text text-anchor="middle" x="563.5" y="-186.5" font-family="Helvetica,sans-Serif" font-size="10.00">Cpl/TShell/Context_.h</text>
</a>
</g>
</g>
<!-- Node6&#45;&gt;Node17 -->
<g id="edge16" class="edge"><title>Node6&#45;&gt;Node17</title>
<path fill="none" stroke="midnightblue" d="M516.773,-228.82C528.418,-219.145 543.099,-206.948 552.867,-198.834"/>
<polygon fill="midnightblue" stroke="midnightblue" points="514.399,-226.242 508.943,-235.324 518.872,-231.626 514.399,-226.242"/>
</g>
<!-- Node8 -->
<g id="node8" class="node"><title>Node8</title>
<g id="a_node8"><a xlink:href="_dm_8h.html" target="_top" xlink:title=" ">
<polygon fill="white" stroke="black" points="139.5,-67.5 139.5,-86.5 245.5,-86.5 245.5,-67.5 139.5,-67.5"/>
<text text-anchor="middle" x="192.5" y="-74.5" font-family="Helvetica,sans-Serif" font-size="10.00">Cpl/Dm/TShell/Dm.h</text>
</a>
</g>
</g>
<!-- Node7&#45;&gt;Node8 -->
<g id="edge7" class="edge"><title>Node7&#45;&gt;Node8</title>
<path fill="none" stroke="midnightblue" d="M459.299,-121.791C397.132,-111.587 302.642,-96.078 244.387,-86.5164"/>
<polygon fill="midnightblue" stroke="midnightblue" points="458.934,-125.278 469.369,-123.444 460.068,-118.37 458.934,-125.278"/>
</g>
<!-- Node9 -->
<g id="node9" class="node"><title>Node9</title>
<g id="a_node9"><a xlink:href="_bye_8h.html" target="_top" xlink:title=" ">
<polygon fill="white" stroke="black" points="264,-67.5 264,-86.5 377,-86.5 377,-67.5 264,-67.5"/>
<text text-anchor="middle" x="320.5" y="-74.5" font-family="Helvetica,sans-Serif" font-size="10.00">Cpl/TShell/Cmd/Bye.h</text>
</a>
</g>
</g>
<!-- Node7&#45;&gt;Node9 -->
<g id="edge8" class="edge"><title>Node7&#45;&gt;Node9</title>
<path fill="none" stroke="midnightblue" d="M479.919,-120.829C441.969,-110.633 386.69,-95.7823 352.2,-86.5164"/>
<polygon fill="midnightblue" stroke="midnightblue" points="479.085,-124.229 489.651,-123.444 480.902,-117.469 479.085,-124.229"/>
</g>
<!-- Node10 -->
<g id="node10" class="node"><title>Node10</title>
<g id="a_node10"><a xlink:href="_help_8h.html" target="_top" xlink:title=" ">
<polygon fill="white" stroke="black" points="395.5,-67.5 395.5,-86.5 511.5,-86.5 511.5,-67.5 395.5,-67.5"/>
<text text-anchor="middle" x="453.5" y="-74.5" font-family="Helvetica,sans-Serif" font-size="10.00">Cpl/TShell/Cmd/Help.h</text>
</a>
</g>
</g>
<!-- Node7&#45;&gt;Node10 -->
<g id="edge9" class="edge"><title>Node7&#45;&gt;Node10</title>
<path fill="none" stroke="midnightblue" d="M502.738,-117.101C490.5,-107.382 474.941,-95.0269 464.624,-86.8339"/>
<polygon fill="midnightblue" stroke="midnightblue" points="500.567,-119.846 510.575,-123.324 504.92,-114.364 500.567,-119.846"/>
</g>
<!-- Node11 -->
<g id="node11" class="node"><title>Node11</title>
<g id="a_node11"><a xlink:href="_t_print_8h.html" target="_top" xlink:title=" ">
<polygon fill="white" stroke="black" points="529.5,-67.5 529.5,-86.5 651.5,-86.5 651.5,-67.5 529.5,-67.5"/>
<text text-anchor="middle" x="590.5" y="-74.5" font-family="Helvetica,sans-Serif" font-size="10.00">Cpl/TShell/Cmd/TPrint.h</text>
</a>
</g>
</g>
<!-- Node7&#45;&gt;Node11 -->
<g id="edge10" class="edge"><title>Node7&#45;&gt;Node11</title>
<path fill="none" stroke="midnightblue" d="M540.538,-117.101C552.956,-107.382 568.743,-95.0269 579.212,-86.8339"/>
<polygon fill="midnightblue" stroke="midnightblue" points="538.304,-114.405 532.586,-123.324 542.618,-119.917 538.304,-114.405"/>
</g>
<!-- Node12 -->
<g id="node12" class="node"><title>Node12</title>
<g id="a_node12"><a xlink:href="_threads_8h.html" target="_top" xlink:title=" ">
<polygon fill="white" stroke="black" points="670,-67.5 670,-86.5 801,-86.5 801,-67.5 670,-67.5"/>
<text text-anchor="middle" x="735.5" y="-74.5" font-family="Helvetica,sans-Serif" font-size="10.00">Cpl/TShell/Cmd/Threads.h</text>
</a>
</g>
</g>
<!-- Node7&#45;&gt;Node12 -->
<g id="edge11" class="edge"><title>Node7&#45;&gt;Node12</title>
<path fill="none" stroke="midnightblue" d="M565.255,-120.959C605.674,-110.76 664.873,-95.8217 701.75,-86.5164"/>
<polygon fill="midnightblue" stroke="midnightblue" points="564.249,-117.603 555.409,-123.444 565.961,-124.39 564.249,-117.603"/>
</g>
<!-- Node15 -->
<g id="node15" class="node"><title>Node15</title>
<g id="a_node15"><a xlink:href="_tick_8h.html" target="_top" xlink:title=" ">
<polygon fill="white" stroke="black" points="819,-67.5 819,-86.5 934,-86.5 934,-67.5 819,-67.5"/>
<text text-anchor="middle" x="876.5" y="-74.5" font-family="Helvetica,sans-Serif" font-size="10.00">Cpl/TShell/Cmd/Tick.h</text>
</a>
</g>
</g>
<!-- Node7&#45;&gt;Node15 -->
<g id="edge14" class="edge"><title>Node7&#45;&gt;Node15</title>
<path fill="none" stroke="midnightblue" d="M587.789,-121.917C654.855,-111.715 757.395,-96.1174 820.512,-86.5164"/>
<polygon fill="midnightblue" stroke="midnightblue" points="587.111,-118.479 577.751,-123.444 588.163,-125.4 587.111,-118.479"/>
</g>
<!-- Node16 -->
<g id="node16" class="node"><title>Node16</title>
<g id="a_node16"><a xlink:href="_t_shell_2_cmd_2_trace_8h.html" target="_top" xlink:title=" ">
<polygon fill="white" stroke="black" points="0,-67.5 0,-86.5 121,-86.5 121,-67.5 0,-67.5"/>
<text text-anchor="middle" x="60.5" y="-74.5" font-family="Helvetica,sans-Serif" font-size="10.00">Cpl/TShell/Cmd/Trace.h</text>
</a>
</g>
</g>
<!-- Node7&#45;&gt;Node16 -->
<g id="edge15" class="edge"><title>Node7&#45;&gt;Node16</title>
<path fill="none" stroke="midnightblue" d="M440.812,-123.03C361.725,-114.164 237.77,-100.068 130.5,-87 127.459,-86.6296 124.345,-86.2456 121.2,-85.8544"/>
<polygon fill="midnightblue" stroke="midnightblue" points="440.86,-126.557 451.187,-124.192 441.639,-119.601 440.86,-126.557"/>
</g>
<!-- Node13 -->
<g id="node13" class="node"><title>Node13</title>
<g id="a_node13"><a xlink:href="_free_r_t_o_s_2_threads_8h.html" target="_top" xlink:title=" ">
<polygon fill="white" stroke="black" points="738.5,-0.5 738.5,-30.5 872.5,-30.5 872.5,-0.5 738.5,-0.5"/>
<text text-anchor="start" x="746.5" y="-18.5" font-family="Helvetica,sans-Serif" font-size="10.00">Cpl/TShell/Cmd/FreeRTOS</text>
<text text-anchor="middle" x="805.5" y="-7.5" font-family="Helvetica,sans-Serif" font-size="10.00">/Threads.h</text>
</a>
</g>
</g>
<!-- Node12&#45;&gt;Node13 -->
<g id="edge12" class="edge"><title>Node12&#45;&gt;Node13</title>
<path fill="none" stroke="midnightblue" d="M753.239,-60.9215C764.231,-51.579 778.251,-39.6616 789.002,-30.523"/>
<polygon fill="midnightblue" stroke="midnightblue" points="750.882,-58.3318 745.529,-67.4751 755.415,-63.6654 750.882,-58.3318"/>
</g>
<!-- Node14 -->
<g id="node14" class="node"><title>Node14</title>
<g id="a_node14"><a xlink:href="_win32_2_threads_8h.html" target="_top" xlink:title=" ">
<polygon fill="white" stroke="black" points="605,-0.5 605,-30.5 720,-30.5 720,-0.5 605,-0.5"/>
<text text-anchor="start" x="613" y="-18.5" font-family="Helvetica,sans-Serif" font-size="10.00">Cpl/TShell/Cmd/Win32</text>
<text text-anchor="middle" x="662.5" y="-7.5" font-family="Helvetica,sans-Serif" font-size="10.00">/Threads.h</text>
</a>
</g>
</g>
<!-- Node12&#45;&gt;Node14 -->
<g id="edge13" class="edge"><title>Node12&#45;&gt;Node14</title>
<path fill="none" stroke="midnightblue" d="M717,-60.9215C705.538,-51.579 690.917,-39.6616 679.705,-30.523"/>
<polygon fill="midnightblue" stroke="midnightblue" points="715.078,-63.8701 725.041,-67.4751 719.501,-58.4442 715.078,-63.8701"/>
</g>
<!-- Node17&#45;&gt;Node7 -->
<g id="edge17" class="edge"><title>Node17&#45;&gt;Node7</title>
<path fill="none" stroke="midnightblue" d="M550.39,-171.144C543.072,-161.736 534.259,-150.405 528.306,-142.751"/>
<polygon fill="midnightblue" stroke="midnightblue" points="547.662,-173.338 556.565,-179.083 553.188,-169.041 547.662,-173.338"/>
</g>
<!-- Node18 -->
<g id="node18" class="node"><title>Node18</title>
<g id="a_node18"><a xlink:href="_processor_8h.html" target="_top" xlink:title=" ">
<polygon fill="white" stroke="black" points="966,-123.5 966,-142.5 1083,-142.5 1083,-123.5 966,-123.5"/>
<text text-anchor="middle" x="1024.5" y="-130.5" font-family="Helvetica,sans-Serif" font-size="10.00">Cpl/TShell/Processor.h</text>
</a>
</g>
</g>
<!-- Node17&#45;&gt;Node18 -->
<g id="edge18" class="edge"><title>Node17&#45;&gt;Node18</title>
<path fill="none" stroke="midnightblue" d="M629.672,-180.249C719.837,-169.687 879.891,-150.939 965.922,-140.862"/>
<polygon fill="midnightblue" stroke="midnightblue" points="629.092,-176.793 619.567,-181.433 629.906,-183.745 629.092,-176.793"/>
</g>
<!-- Node19 -->
<g id="node19" class="node"><title>Node19</title>
<g id="a_node19"><a xlink:href="_maker_8h.html" target="_top" xlink:title=" ">
<polygon fill="white" stroke="black" points="1114.5,-67.5 1114.5,-86.5 1214.5,-86.5 1214.5,-67.5 1114.5,-67.5"/>
<text text-anchor="middle" x="1164.5" y="-74.5" font-family="Helvetica,sans-Serif" font-size="10.00">Cpl/TShell/Maker.h</text>
</a>
</g>
</g>
<!-- Node18&#45;&gt;Node19 -->
<g id="edge19" class="edge"><title>Node18&#45;&gt;Node19</title>
<path fill="none" stroke="midnightblue" d="M1056.2,-119.772C1082.5,-109.629 1119.22,-95.4669 1142.42,-86.5164"/>
<polygon fill="midnightblue" stroke="midnightblue" points="1054.75,-116.579 1046.68,-123.444 1057.27,-123.11 1054.75,-116.579"/>
</g>
<!-- Node20 -->
<g id="node20" class="node"><title>Node20</title>
<g id="a_node20"><a xlink:href="_polled_processor_8h.html" target="_top" xlink:title=" ">
<polygon fill="white" stroke="black" points="952.5,-67.5 952.5,-86.5 1096.5,-86.5 1096.5,-67.5 952.5,-67.5"/>
<text text-anchor="middle" x="1024.5" y="-74.5" font-family="Helvetica,sans-Serif" font-size="10.00">Cpl/TShell/PolledProcessor.h</text>
</a>
</g>
</g>
<!-- Node18&#45;&gt;Node20 -->
<g id="edge20" class="edge"><title>Node18&#45;&gt;Node20</title>
<path fill="none" stroke="midnightblue" d="M1024.5,-112.805C1024.5,-103.91 1024.5,-93.7798 1024.5,-86.7511"/>
<polygon fill="midnightblue" stroke="midnightblue" points="1021,-113.083 1024.5,-123.083 1028,-113.083 1021,-113.083"/>
</g>
<!-- Node21 -->
<g id="node21" class="node"><title>Node21</title>
<g id="a_node21"><a xlink:href="_polled_maker_8h.html" target="_top" xlink:title=" ">
<polygon fill="white" stroke="black" points="961,-6 961,-25 1088,-25 1088,-6 961,-6"/>
<text text-anchor="middle" x="1024.5" y="-13" font-family="Helvetica,sans-Serif" font-size="10.00">Cpl/TShell/PolledMaker.h</text>
</a>
</g>
</g>
<!-- Node20&#45;&gt;Node21 -->
<g id="edge21" class="edge"><title>Node20&#45;&gt;Node21</title>
<path fill="none" stroke="midnightblue" d="M1024.5,-57.3165C1024.5,-46.4962 1024.5,-33.398 1024.5,-25.0091"/>
<polygon fill="midnightblue" stroke="midnightblue" points="1021,-57.4751 1024.5,-67.4751 1028,-57.4751 1021,-57.4751"/>
</g>
<!-- Node22&#45;&gt;Node7 -->
<g id="edge23" class="edge"><title>Node22&#45;&gt;Node7</title>
<path fill="none" stroke="midnightblue" d="M633.095,-225.222C636.06,-211.309 637.468,-192.501 628.5,-179 615.788,-159.864 593.179,-148.847 572.009,-142.513"/>
<polygon fill="midnightblue" stroke="midnightblue" points="629.646,-224.579 630.551,-235.135 636.427,-226.319 629.646,-224.579"/>
</g>
<!-- Node22&#45;&gt;Node17 -->
<g id="edge24" class="edge"><title>Node22&#45;&gt;Node17</title>
<path fill="none" stroke="midnightblue" d="M609.509,-228.82C598.042,-219.145 583.587,-206.948 573.97,-198.834"/>
<polygon fill="midnightblue" stroke="midnightblue" points="607.317,-231.55 617.217,-235.324 611.831,-226.2 607.317,-231.55"/>
</g>
<!-- Node24 -->
<g id="node24" class="node"><title>Node24</title>
<g id="a_node24"><a xlink:href="_d_f_string_item_8h.html" target="_top" xlink:title=" ">
<polygon fill="white" stroke="black" points="972.5,-235.5 972.5,-254.5 1094.5,-254.5 1094.5,-235.5 972.5,-235.5"/>
<text text-anchor="middle" x="1033.5" y="-242.5" font-family="Helvetica,sans-Serif" font-size="10.00">Cpl/Text/DFStringItem.h</text>
</a>
</g>
</g>
<!-- Node23&#45;&gt;Node24 -->
<g id="edge26" class="edge"><title>Node23&#45;&gt;Node24</title>
<path fill="none" stroke="midnightblue" d="M871.701,-288.829C910.218,-278.633 966.322,-263.782 1001.33,-254.516"/>
<polygon fill="midnightblue" stroke="midnightblue" points="870.596,-285.501 861.824,-291.444 872.387,-292.268 870.596,-285.501"/>
</g>
<!-- Node25 -->
<g id="node25" class="node"><title>Node25</title>
<g id="a_node25"><a xlink:href="_d_string_item_8h.html" target="_top" xlink:title=" ">
<polygon fill="white" stroke="black" points="704.5,-235.5 704.5,-254.5 820.5,-254.5 820.5,-235.5 704.5,-235.5"/>
<text text-anchor="middle" x="762.5" y="-242.5" font-family="Helvetica,sans-Serif" font-size="10.00">Cpl/Text/DStringItem.h</text>
</a>
</g>
</g>
<!-- Node23&#45;&gt;Node25 -->
<g id="edge27" class="edge"><title>Node23&#45;&gt;Node25</title>
<path fill="none" stroke="midnightblue" d="M810.665,-284.82C798.662,-275.145 783.528,-262.948 773.461,-254.834"/>
<polygon fill="midnightblue" stroke="midnightblue" points="808.753,-287.774 818.735,-291.324 813.146,-282.324 808.753,-287.774"/>
</g>
<!-- Node26 -->
<g id="node26" class="node"><title>Node26</title>
<g id="a_node26"><a xlink:href="_f_string_item_8h.html" target="_top" xlink:title=" ">
<polygon fill="white" stroke="black" points="838.5,-235.5 838.5,-254.5 954.5,-254.5 954.5,-235.5 838.5,-235.5"/>
<text text-anchor="middle" x="896.5" y="-242.5" font-family="Helvetica,sans-Serif" font-size="10.00">Cpl/Text/FStringItem.h</text>
</a>
</g>
</g>
<!-- Node23&#45;&gt;Node26 -->
<g id="edge28" class="edge"><title>Node23&#45;&gt;Node26</title>
<path fill="none" stroke="midnightblue" d="M848.335,-284.82C860.338,-275.145 875.472,-262.948 885.539,-254.834"/>
<polygon fill="midnightblue" stroke="midnightblue" points="845.854,-282.324 840.265,-291.324 850.247,-287.774 845.854,-282.324"/>
</g>
</g>
</svg>
