<?xml version="1.0" encoding="UTF-8" standalone="no"?>
<!DOCTYPE svg PUBLIC "-//W3C//DTD SVG 1.1//EN"
 "http://www.w3.org/Graphics/SVG/1.1/DTD/svg11.dtd">
<!-- Generated by graphviz version 2.38.0 (20140413.2041)
 -->
<!-- Title: Cpl/Dm/MailboxServer.h Pages: 1 -->
<svg width="984pt" height="330pt"
 viewBox="0.00 0.00 984.00 330.00" xmlns="http://www.w3.org/2000/svg" xmlns:xlink="http://www.w3.org/1999/xlink">
<g id="graph0" class="graph" transform="scale(1 1) rotate(0) translate(4 326)">
<title>Cpl/Dm/MailboxServer.h</title>
<polygon fill="white" stroke="none" points="-4,4 -4,-326 980,-326 980,4 -4,4"/>
<!-- Node1 -->
<g id="node1" class="node"><title>Node1</title>
<g id="a_node1"><a xlink:title=" ">
<polygon fill="#bfbfbf" stroke="black" points="194.5,-302.5 194.5,-321.5 316.5,-321.5 316.5,-302.5 194.5,-302.5"/>
<text text-anchor="middle" x="255.5" y="-309.5" font-family="Helvetica,sans-Serif" font-size="10.00">Cpl/Dm/MailboxServer.h</text>
</a>
</g>
</g>
<!-- Node2 -->
<g id="node2" class="node"><title>Node2</title>
<g id="a_node2"><a xlink:href="_dm_2_periodic_scheduler_8h.html" target="_top" xlink:title=" ">
<polygon fill="white" stroke="black" points="0,-246.5 0,-265.5 139,-265.5 139,-246.5 0,-246.5"/>
<text text-anchor="middle" x="69.5" y="-253.5" font-family="Helvetica,sans-Serif" font-size="10.00">Cpl/Dm/PeriodicScheduler.h</text>
</a>
</g>
</g>
<!-- Node1&#45;&gt;Node2 -->
<g id="edge1" class="edge"><title>Node1&#45;&gt;Node2</title>
<path fill="none" stroke="midnightblue" d="M216.122,-299.568C181.034,-289.381 130.479,-274.703 98.8344,-265.516"/>
<polygon fill="midnightblue" stroke="midnightblue" points="215.448,-303.017 226.028,-302.444 217.4,-296.294 215.448,-303.017"/>
</g>
<!-- Node3 -->
<g id="node3" class="node"><title>Node3</title>
<g id="a_node3"><a xlink:href="_chunk_8h.html" target="_top" xlink:title=" ">
<polygon fill="white" stroke="black" points="373,-246.5 373,-265.5 490,-265.5 490,-246.5 373,-246.5"/>
<text text-anchor="middle" x="431.5" y="-253.5" font-family="Helvetica,sans-Serif" font-size="10.00">Cpl/Persistent/Chunk.h</text>
</a>
</g>
</g>
<!-- Node1&#45;&gt;Node3 -->
<g id="edge2" class="edge"><title>Node1&#45;&gt;Node3</title>
<path fill="none" stroke="midnightblue" d="M293.189,-299.436C326.372,-289.255 373.928,-274.664 403.743,-265.516"/>
<polygon fill="midnightblue" stroke="midnightblue" points="291.921,-296.164 283.388,-302.444 293.975,-302.856 291.921,-296.164"/>
</g>
<!-- Node11 -->
<g id="node11" class="node"><title>Node11</title>
<g id="a_node11"><a xlink:href="_persistent_2_record_8h.html" target="_top" xlink:title=" ">
<polygon fill="white" stroke="black" points="195.5,-246.5 195.5,-265.5 315.5,-265.5 315.5,-246.5 195.5,-246.5"/>
<text text-anchor="middle" x="255.5" y="-253.5" font-family="Helvetica,sans-Serif" font-size="10.00">Cpl/Persistent/Record.h</text>
</a>
</g>
</g>
<!-- Node1&#45;&gt;Node11 -->
<g id="edge11" class="edge"><title>Node1&#45;&gt;Node11</title>
<path fill="none" stroke="midnightblue" d="M255.5,-291.805C255.5,-282.91 255.5,-272.78 255.5,-265.751"/>
<polygon fill="midnightblue" stroke="midnightblue" points="252,-292.083 255.5,-302.083 259,-292.083 252,-292.083"/>
</g>
<!-- Node12 -->
<g id="node12" class="node"><title>Node12</title>
<g id="a_node12"><a xlink:href="_record_server_8h.html" target="_top" xlink:title=" ">
<polygon fill="white" stroke="black" points="39,-190.5 39,-209.5 188,-209.5 188,-190.5 39,-190.5"/>
<text text-anchor="middle" x="113.5" y="-197.5" font-family="Helvetica,sans-Serif" font-size="10.00">Cpl/Persistent/RecordServer.h</text>
</a>
</g>
</g>
<!-- Node1&#45;&gt;Node12 -->
<g id="edge16" class="edge"><title>Node1&#45;&gt;Node12</title>
<path fill="none" stroke="midnightblue" d="M232.285,-297.073C218.614,-288.577 201.178,-277.221 186.5,-266 162.233,-247.449 136.002,-222.85 122.565,-209.88"/>
<polygon fill="midnightblue" stroke="midnightblue" points="230.715,-300.216 241.069,-302.462 234.376,-294.25 230.715,-300.216"/>
</g>
<!-- Node13 -->
<g id="node13" class="node"><title>Node13</title>
<g id="a_node13"><a xlink:href="_region_media_8h.html" target="_top" xlink:title=" ">
<polygon fill="white" stroke="black" points="641.5,-246.5 641.5,-265.5 787.5,-265.5 787.5,-246.5 641.5,-246.5"/>
<text text-anchor="middle" x="714.5" y="-253.5" font-family="Helvetica,sans-Serif" font-size="10.00">Cpl/Persistent/RegionMedia.h</text>
</a>
</g>
</g>
<!-- Node1&#45;&gt;Node13 -->
<g id="edge17" class="edge"><title>Node1&#45;&gt;Node13</title>
<path fill="none" stroke="midnightblue" d="M327.102,-302.576C412.924,-292.479 555.924,-275.656 642.099,-265.518"/>
<polygon fill="midnightblue" stroke="midnightblue" points="326.449,-299.129 316.927,-303.773 327.267,-306.081 326.449,-299.129"/>
</g>
<!-- Node4 -->
<g id="node4" class="node"><title>Node4</title>
<g id="a_node4"><a xlink:href="_dm_2_persistent_2_record_8h.html" target="_top" xlink:title=" ">
<polygon fill="white" stroke="black" points="122.5,-134.5 122.5,-153.5 260.5,-153.5 260.5,-134.5 122.5,-134.5"/>
<text text-anchor="middle" x="191.5" y="-141.5" font-family="Helvetica,sans-Serif" font-size="10.00">Cpl/Dm/Persistent/Record.h</text>
</a>
</g>
</g>
<!-- Node3&#45;&gt;Node4 -->
<g id="edge3" class="edge"><title>Node3&#45;&gt;Node4</title>
<path fill="none" stroke="midnightblue" d="M425.458,-236.644C419.617,-221.8 409.303,-201.534 393.5,-190 371.661,-174.061 305.686,-161.31 255.017,-153.508"/>
<polygon fill="midnightblue" stroke="midnightblue" points="422.252,-238.072 428.935,-246.293 428.837,-235.699 422.252,-238.072"/>
</g>
<!-- Node5 -->
<g id="node5" class="node"><title>Node5</title>
<g id="a_node5"><a xlink:href="_crc_chunk_8h.html" target="_top" xlink:title=" ">
<polygon fill="white" stroke="black" points="648.5,-190.5 648.5,-209.5 780.5,-209.5 780.5,-190.5 648.5,-190.5"/>
<text text-anchor="middle" x="714.5" y="-197.5" font-family="Helvetica,sans-Serif" font-size="10.00">Cpl/Persistent/CrcChunk.h</text>
</a>
</g>
</g>
<!-- Node3&#45;&gt;Node5 -->
<g id="edge4" class="edge"><title>Node3&#45;&gt;Node5</title>
<path fill="none" stroke="midnightblue" d="M486.333,-244.537C539.818,-234.332 620.171,-218.999 669.868,-209.516"/>
<polygon fill="midnightblue" stroke="midnightblue" points="485.509,-241.131 476.342,-246.444 486.821,-248.007 485.509,-241.131"/>
</g>
<!-- Node6 -->
<g id="node6" class="node"><title>Node6</title>
<g id="a_node6"><a xlink:href="_data_record_8h.html" target="_top" xlink:title=" ">
<polygon fill="white" stroke="black" points="244.5,-190.5 244.5,-209.5 384.5,-209.5 384.5,-190.5 244.5,-190.5"/>
<text text-anchor="middle" x="314.5" y="-197.5" font-family="Helvetica,sans-Serif" font-size="10.00">Cpl/Persistent/DataRecord.h</text>
</a>
</g>
</g>
<!-- Node3&#45;&gt;Node6 -->
<g id="edge5" class="edge"><title>Node3&#45;&gt;Node6</title>
<path fill="none" stroke="midnightblue" d="M403.836,-242.232C381.951,-232.131 352.003,-218.309 332.952,-209.516"/>
<polygon fill="midnightblue" stroke="midnightblue" points="402.415,-245.431 412.961,-246.444 405.348,-239.075 402.415,-245.431"/>
</g>
<!-- Node8 -->
<g id="node8" class="node"><title>Node8</title>
<g id="a_node8"><a xlink:href="_indexed_entry_record_8h.html" target="_top" xlink:title=" ">
<polygon fill="white" stroke="black" points="381,-67.5 381,-97.5 520,-97.5 520,-67.5 381,-67.5"/>
<text text-anchor="start" x="389" y="-85.5" font-family="Helvetica,sans-Serif" font-size="10.00">Cpl/Persistent/IndexedEntry</text>
<text text-anchor="middle" x="450.5" y="-74.5" font-family="Helvetica,sans-Serif" font-size="10.00">Record.h</text>
</a>
</g>
</g>
<!-- Node3&#45;&gt;Node8 -->
<g id="edge9" class="edge"><title>Node3&#45;&gt;Node8</title>
<path fill="none" stroke="midnightblue" d="M433.594,-236.095C437.432,-201.454 445.511,-128.534 448.924,-97.7228"/>
<polygon fill="midnightblue" stroke="midnightblue" points="430.091,-235.935 432.468,-246.26 437.048,-236.706 430.091,-235.935"/>
</g>
<!-- Node10 -->
<g id="node10" class="node"><title>Node10</title>
<g id="a_node10"><a xlink:href="_mirrored_chunk_8h.html" target="_top" xlink:title=" ">
<polygon fill="white" stroke="black" points="478.5,-190.5 478.5,-209.5 630.5,-209.5 630.5,-190.5 478.5,-190.5"/>
<text text-anchor="middle" x="554.5" y="-197.5" font-family="Helvetica,sans-Serif" font-size="10.00">Cpl/Persistent/MirroredChunk.h</text>
</a>
</g>
</g>
<!-- Node3&#45;&gt;Node10 -->
<g id="edge10" class="edge"><title>Node3&#45;&gt;Node10</title>
<path fill="none" stroke="midnightblue" d="M460.273,-242.368C483.307,-232.255 514.984,-218.349 535.101,-209.516"/>
<polygon fill="midnightblue" stroke="midnightblue" points="458.739,-239.219 450.99,-246.444 461.553,-245.628 458.739,-239.219"/>
</g>
<!-- Node7 -->
<g id="node7" class="node"><title>Node7</title>
<g id="a_node7"><a xlink:href="_index_record_8h.html" target="_top" xlink:title=" ">
<polygon fill="white" stroke="black" points="278.5,-134.5 278.5,-153.5 422.5,-153.5 422.5,-134.5 278.5,-134.5"/>
<text text-anchor="middle" x="350.5" y="-141.5" font-family="Helvetica,sans-Serif" font-size="10.00">Cpl/Persistent/IndexRecord.h</text>
</a>
</g>
</g>
<!-- Node6&#45;&gt;Node7 -->
<g id="edge6" class="edge"><title>Node6&#45;&gt;Node7</title>
<path fill="none" stroke="midnightblue" d="M326.123,-181.566C332.317,-172.275 339.668,-161.248 344.666,-153.751"/>
<polygon fill="midnightblue" stroke="midnightblue" points="323.08,-179.821 320.445,-190.083 328.904,-183.704 323.08,-179.821"/>
</g>
<!-- Node7&#45;&gt;Node8 -->
<g id="edge7" class="edge"><title>Node7&#45;&gt;Node8</title>
<path fill="none" stroke="midnightblue" d="M373.565,-129.276C389.569,-119.754 410.82,-107.11 426.932,-97.523"/>
<polygon fill="midnightblue" stroke="midnightblue" points="371.632,-126.354 364.828,-134.475 375.211,-132.37 371.632,-126.354"/>
</g>
<!-- Node9 -->
<g id="node9" class="node"><title>Node9</title>
<g id="a_node9"><a xlink:href="_indexed_entry_server_8h.html" target="_top" xlink:title=" ">
<polygon fill="white" stroke="black" points="381,-0.5 381,-30.5 520,-30.5 520,-0.5 381,-0.5"/>
<text text-anchor="start" x="389" y="-18.5" font-family="Helvetica,sans-Serif" font-size="10.00">Cpl/Persistent/IndexedEntry</text>
<text text-anchor="middle" x="450.5" y="-7.5" font-family="Helvetica,sans-Serif" font-size="10.00">Server.h</text>
</a>
</g>
</g>
<!-- Node8&#45;&gt;Node9 -->
<g id="edge8" class="edge"><title>Node8&#45;&gt;Node9</title>
<path fill="none" stroke="midnightblue" d="M450.5,-57.1081C450.5,-48.1539 450.5,-38.3227 450.5,-30.5765"/>
<polygon fill="midnightblue" stroke="midnightblue" points="447,-57.3959 450.5,-67.396 454,-57.396 447,-57.3959"/>
</g>
<!-- Node11&#45;&gt;Node4 -->
<g id="edge12" class="edge"><title>Node11&#45;&gt;Node4</title>
<path fill="none" stroke="midnightblue" d="M245.399,-237.64C231.496,-213.744 206.993,-171.629 196.499,-153.591"/>
<polygon fill="midnightblue" stroke="midnightblue" points="242.424,-239.485 250.478,-246.368 248.474,-235.965 242.424,-239.485"/>
</g>
<!-- Node11&#45;&gt;Node6 -->
<g id="edge13" class="edge"><title>Node11&#45;&gt;Node6</title>
<path fill="none" stroke="midnightblue" d="M272.395,-239.537C282.915,-229.909 296.069,-217.869 304.848,-209.834"/>
<polygon fill="midnightblue" stroke="midnightblue" points="269.993,-236.99 264.979,-246.324 274.719,-242.154 269.993,-236.99"/>
</g>
<!-- Node11&#45;&gt;Node12 -->
<g id="edge14" class="edge"><title>Node11&#45;&gt;Node12</title>
<path fill="none" stroke="midnightblue" d="M223.345,-242.772C196.672,-232.629 159.431,-218.467 135.895,-209.516"/>
<polygon fill="midnightblue" stroke="midnightblue" points="222.409,-246.16 233,-246.444 224.897,-239.618 222.409,-246.16"/>
</g>
<!-- Node12&#45;&gt;Node4 -->
<g id="edge15" class="edge"><title>Node12&#45;&gt;Node4</title>
<path fill="none" stroke="midnightblue" d="M134.268,-184.622C148.517,-174.757 166.956,-161.992 178.999,-153.655"/>
<polygon fill="midnightblue" stroke="midnightblue" points="132.262,-181.754 126.032,-190.324 136.246,-187.51 132.262,-181.754"/>
</g>
<!-- Node13&#45;&gt;Node5 -->
<g id="edge18" class="edge"><title>Node13&#45;&gt;Node5</title>
<path fill="none" stroke="midnightblue" d="M714.5,-235.805C714.5,-226.91 714.5,-216.78 714.5,-209.751"/>
<polygon fill="midnightblue" stroke="midnightblue" points="711,-236.083 714.5,-246.083 718,-236.083 711,-236.083"/>
</g>
<!-- Node13&#45;&gt;Node8 -->
<g id="edge20" class="edge"><title>Node13&#45;&gt;Node8</title>
<path fill="none" stroke="midnightblue" d="M748.632,-242.265C775.19,-230.365 805.119,-211.278 789.5,-190 757.422,-146.299 609.613,-112.407 520.096,-95.452"/>
<polygon fill="midnightblue" stroke="midnightblue" points="746.928,-239.186 739.09,-246.314 749.663,-245.629 746.928,-239.186"/>
</g>
<!-- Node13&#45;&gt;Node10 -->
<g id="edge21" class="edge"><title>Node13&#45;&gt;Node10</title>
<path fill="none" stroke="midnightblue" d="M679.454,-243.172C649.326,-233.004 606.604,-218.585 579.734,-209.516"/>
<polygon fill="midnightblue" stroke="midnightblue" points="678.553,-246.562 689.148,-246.444 680.792,-239.929 678.553,-246.562"/>
</g>
<!-- Node14 -->
<g id="node14" class="node"><title>Node14</title>
<g id="a_node14"><a xlink:href="_file_adapter_8h.html" target="_top" xlink:title=" ">
<polygon fill="white" stroke="black" points="837,-190.5 837,-209.5 976,-209.5 976,-190.5 837,-190.5"/>
<text text-anchor="middle" x="906.5" y="-197.5" font-family="Helvetica,sans-Serif" font-size="10.00">Cpl/Persistent/FileAdapter.h</text>
</a>
</g>
</g>
<!-- Node13&#45;&gt;Node14 -->
<g id="edge19" class="edge"><title>Node13&#45;&gt;Node14</title>
<path fill="none" stroke="midnightblue" d="M754.683,-243.699C790.919,-233.507 843.414,-218.743 876.219,-209.516"/>
<polygon fill="midnightblue" stroke="midnightblue" points="753.602,-240.367 744.923,-246.444 755.497,-247.105 753.602,-240.367"/>
</g>
</g>
</svg>
