<?xml version="1.0" encoding="UTF-8" standalone="no"?>
<!DOCTYPE svg PUBLIC "-//W3C//DTD SVG 1.1//EN"
 "http://www.w3.org/Graphics/SVG/1.1/DTD/svg11.dtd">
<!-- Generated by graphviz version 2.38.0 (20140413.2041)
 -->
<!-- Title: Cpl/Dm/EventLoop.h Pages: 1 -->
<svg width="2229pt" height="397pt"
 viewBox="0.00 0.00 2228.50 397.00" xmlns="http://www.w3.org/2000/svg" xmlns:xlink="http://www.w3.org/1999/xlink">
<g id="graph0" class="graph" transform="scale(1 1) rotate(0) translate(4 393)">
<title>Cpl/Dm/EventLoop.h</title>
<polygon fill="white" stroke="none" points="-4,4 -4,-393 2224.5,-393 2224.5,4 -4,4"/>
<!-- Node1 -->
<g id="node1" class="node"><title>Node1</title>
<g id="a_node1"><a xlink:title=" ">
<polygon fill="#bfbfbf" stroke="black" points="733,-369.5 733,-388.5 840,-388.5 840,-369.5 733,-369.5"/>
<text text-anchor="middle" x="786.5" y="-376.5" font-family="Helvetica,sans-Serif" font-size="10.00">Cpl/Dm/EventLoop.h</text>
</a>
</g>
</g>
<!-- Node2 -->
<g id="node2" class="node"><title>Node2</title>
<g id="a_node2"><a xlink:href="_dm_2_mailbox_server_8h.html" target="_top" xlink:title=" ">
<polygon fill="white" stroke="black" points="409.5,-313.5 409.5,-332.5 531.5,-332.5 531.5,-313.5 409.5,-313.5"/>
<text text-anchor="middle" x="470.5" y="-320.5" font-family="Helvetica,sans-Serif" font-size="10.00">Cpl/Dm/MailboxServer.h</text>
</a>
</g>
</g>
<!-- Node1&#45;&gt;Node2 -->
<g id="edge1" class="edge"><title>Node1&#45;&gt;Node2</title>
<path fill="none" stroke="midnightblue" d="M726.387,-367.727C666.672,-357.523 576.175,-342.058 520.337,-332.516"/>
<polygon fill="midnightblue" stroke="midnightblue" points="725.982,-371.209 736.429,-369.444 727.161,-364.309 725.982,-371.209"/>
</g>
<!-- Node16 -->
<g id="node16" class="node"><title>Node16</title>
<g id="a_node16"><a xlink:href="_subscriber_8h.html" target="_top" xlink:title=" ">
<polygon fill="white" stroke="black" points="977,-313.5 977,-332.5 1084,-332.5 1084,-313.5 977,-313.5"/>
<text text-anchor="middle" x="1030.5" y="-320.5" font-family="Helvetica,sans-Serif" font-size="10.00">Cpl/Dm/Subscriber.h</text>
</a>
</g>
</g>
<!-- Node1&#45;&gt;Node16 -->
<g id="edge23" class="edge"><title>Node1&#45;&gt;Node16</title>
<path fill="none" stroke="midnightblue" d="M834.932,-367.281C881.041,-357.077 949.527,-341.92 992.018,-332.516"/>
<polygon fill="midnightblue" stroke="midnightblue" points="834.17,-363.865 825.163,-369.444 835.683,-370.7 834.17,-363.865"/>
</g>
<!-- Node3 -->
<g id="node3" class="node"><title>Node3</title>
<g id="a_node3"><a xlink:href="_dm_2_periodic_scheduler_8h.html" target="_top" xlink:title=" ">
<polygon fill="white" stroke="black" points="474,-257.5 474,-276.5 613,-276.5 613,-257.5 474,-257.5"/>
<text text-anchor="middle" x="543.5" y="-264.5" font-family="Helvetica,sans-Serif" font-size="10.00">Cpl/Dm/PeriodicScheduler.h</text>
</a>
</g>
</g>
<!-- Node2&#45;&gt;Node3 -->
<g id="edge2" class="edge"><title>Node2&#45;&gt;Node3</title>
<path fill="none" stroke="midnightblue" d="M490.642,-307.101C503.779,-297.382 520.482,-285.027 531.558,-276.834"/>
<polygon fill="midnightblue" stroke="midnightblue" points="488.187,-304.563 482.229,-313.324 492.35,-310.191 488.187,-304.563"/>
</g>
<!-- Node4 -->
<g id="node4" class="node"><title>Node4</title>
<g id="a_node4"><a xlink:href="_chunk_8h.html" target="_top" xlink:title=" ">
<polygon fill="white" stroke="black" points="339,-257.5 339,-276.5 456,-276.5 456,-257.5 339,-257.5"/>
<text text-anchor="middle" x="397.5" y="-264.5" font-family="Helvetica,sans-Serif" font-size="10.00">Cpl/Persistent/Chunk.h</text>
</a>
</g>
</g>
<!-- Node2&#45;&gt;Node4 -->
<g id="edge3" class="edge"><title>Node2&#45;&gt;Node4</title>
<path fill="none" stroke="midnightblue" d="M450.358,-307.101C437.221,-297.382 420.518,-285.027 409.442,-276.834"/>
<polygon fill="midnightblue" stroke="midnightblue" points="448.65,-310.191 458.771,-313.324 452.813,-304.563 448.65,-310.191"/>
</g>
<!-- Node12 -->
<g id="node12" class="node"><title>Node12</title>
<g id="a_node12"><a xlink:href="_persistent_2_record_8h.html" target="_top" xlink:title=" ">
<polygon fill="white" stroke="black" points="172.5,-257.5 172.5,-276.5 292.5,-276.5 292.5,-257.5 172.5,-257.5"/>
<text text-anchor="middle" x="232.5" y="-264.5" font-family="Helvetica,sans-Serif" font-size="10.00">Cpl/Persistent/Record.h</text>
</a>
</g>
</g>
<!-- Node2&#45;&gt;Node12 -->
<g id="edge12" class="edge"><title>Node2&#45;&gt;Node12</title>
<path fill="none" stroke="midnightblue" d="M422.976,-311.217C378.004,-301.013 311.395,-285.901 270.035,-276.516"/>
<polygon fill="midnightblue" stroke="midnightblue" points="422.262,-314.644 432.788,-313.444 423.811,-307.818 422.262,-314.644"/>
</g>
<!-- Node13 -->
<g id="node13" class="node"><title>Node13</title>
<g id="a_node13"><a xlink:href="_record_server_8h.html" target="_top" xlink:title=" ">
<polygon fill="white" stroke="black" points="0,-196 0,-215 149,-215 149,-196 0,-196"/>
<text text-anchor="middle" x="74.5" y="-203" font-family="Helvetica,sans-Serif" font-size="10.00">Cpl/Persistent/RecordServer.h</text>
</a>
</g>
</g>
<!-- Node2&#45;&gt;Node13 -->
<g id="edge17" class="edge"><title>Node2&#45;&gt;Node13</title>
<path fill="none" stroke="midnightblue" d="M399.41,-321.928C335.297,-319.499 239.662,-309.897 163.5,-277 129.118,-262.149 96.7468,-230.508 82.3407,-215.18"/>
<polygon fill="midnightblue" stroke="midnightblue" points="399.311,-325.427 409.421,-322.259 399.542,-318.431 399.311,-325.427"/>
</g>
<!-- Node14 -->
<g id="node14" class="node"><title>Node14</title>
<g id="a_node14"><a xlink:href="_region_media_8h.html" target="_top" xlink:title=" ">
<polygon fill="white" stroke="black" points="631.5,-257.5 631.5,-276.5 777.5,-276.5 777.5,-257.5 631.5,-257.5"/>
<text text-anchor="middle" x="704.5" y="-264.5" font-family="Helvetica,sans-Serif" font-size="10.00">Cpl/Persistent/RegionMedia.h</text>
</a>
</g>
</g>
<!-- Node2&#45;&gt;Node14 -->
<g id="edge18" class="edge"><title>Node2&#45;&gt;Node14</title>
<path fill="none" stroke="midnightblue" d="M517.504,-311.153C561.717,-300.95 627.016,-285.881 667.595,-276.516"/>
<polygon fill="midnightblue" stroke="midnightblue" points="516.535,-307.784 507.578,-313.444 518.109,-314.605 516.535,-307.784"/>
</g>
<!-- Node5 -->
<g id="node5" class="node"><title>Node5</title>
<g id="a_node5"><a xlink:href="_dm_2_persistent_2_record_8h.html" target="_top" xlink:title=" ">
<polygon fill="white" stroke="black" points="245.5,-134.5 245.5,-153.5 383.5,-153.5 383.5,-134.5 245.5,-134.5"/>
<text text-anchor="middle" x="314.5" y="-141.5" font-family="Helvetica,sans-Serif" font-size="10.00">Cpl/Dm/Persistent/Record.h</text>
</a>
</g>
</g>
<!-- Node4&#45;&gt;Node5 -->
<g id="edge4" class="edge"><title>Node4&#45;&gt;Node5</title>
<path fill="none" stroke="midnightblue" d="M388.704,-248.023C380.645,-232.2 367.954,-208.815 354.5,-190 344.894,-176.566 331.908,-162.573 323.374,-153.829"/>
<polygon fill="midnightblue" stroke="midnightblue" points="385.691,-249.824 393.292,-257.205 391.953,-246.695 385.691,-249.824"/>
</g>
<!-- Node6 -->
<g id="node6" class="node"><title>Node6</title>
<g id="a_node6"><a xlink:href="_crc_chunk_8h.html" target="_top" xlink:title=" ">
<polygon fill="white" stroke="black" points="439.5,-196 439.5,-215 571.5,-215 571.5,-196 439.5,-196"/>
<text text-anchor="middle" x="505.5" y="-203" font-family="Helvetica,sans-Serif" font-size="10.00">Cpl/Persistent/CrcChunk.h</text>
</a>
</g>
</g>
<!-- Node4&#45;&gt;Node6 -->
<g id="edge5" class="edge"><title>Node4&#45;&gt;Node6</title>
<path fill="none" stroke="midnightblue" d="M421.902,-252.556C442.802,-241.042 472.263,-224.811 490.055,-215.009"/>
<polygon fill="midnightblue" stroke="midnightblue" points="420.044,-249.584 412.974,-257.475 423.421,-255.715 420.044,-249.584"/>
</g>
<!-- Node7 -->
<g id="node7" class="node"><title>Node7</title>
<g id="a_node7"><a xlink:href="_data_record_8h.html" target="_top" xlink:title=" ">
<polygon fill="white" stroke="black" points="205.5,-196 205.5,-215 345.5,-215 345.5,-196 205.5,-196"/>
<text text-anchor="middle" x="275.5" y="-203" font-family="Helvetica,sans-Serif" font-size="10.00">Cpl/Persistent/DataRecord.h</text>
</a>
</g>
</g>
<!-- Node4&#45;&gt;Node7 -->
<g id="edge6" class="edge"><title>Node4&#45;&gt;Node7</title>
<path fill="none" stroke="midnightblue" d="M370.887,-253.021C347.227,-241.482 313.317,-224.943 292.947,-215.009"/>
<polygon fill="midnightblue" stroke="midnightblue" points="369.498,-256.237 380.02,-257.475 372.567,-249.946 369.498,-256.237"/>
</g>
<!-- Node9 -->
<g id="node9" class="node"><title>Node9</title>
<g id="a_node9"><a xlink:href="_indexed_entry_record_8h.html" target="_top" xlink:title=" ">
<polygon fill="white" stroke="black" points="700,-67.5 700,-97.5 839,-97.5 839,-67.5 700,-67.5"/>
<text text-anchor="start" x="708" y="-85.5" font-family="Helvetica,sans-Serif" font-size="10.00">Cpl/Persistent/IndexedEntry</text>
<text text-anchor="middle" x="769.5" y="-74.5" font-family="Helvetica,sans-Serif" font-size="10.00">Record.h</text>
</a>
</g>
</g>
<!-- Node4&#45;&gt;Node9 -->
<g id="edge10" class="edge"><title>Node4&#45;&gt;Node9</title>
<path fill="none" stroke="midnightblue" d="M400.982,-247.366C405.14,-230.166 413.747,-205.076 430.5,-190 506.047,-122.013 624.758,-97.4246 699.787,-88.5335"/>
<polygon fill="midnightblue" stroke="midnightblue" points="397.517,-246.833 398.852,-257.344 404.363,-248.295 397.517,-246.833"/>
</g>
<!-- Node11 -->
<g id="node11" class="node"><title>Node11</title>
<g id="a_node11"><a xlink:href="_mirrored_chunk_8h.html" target="_top" xlink:title=" ">
<polygon fill="white" stroke="black" points="589.5,-196 589.5,-215 741.5,-215 741.5,-196 589.5,-196"/>
<text text-anchor="middle" x="665.5" y="-203" font-family="Helvetica,sans-Serif" font-size="10.00">Cpl/Persistent/MirroredChunk.h</text>
</a>
</g>
</g>
<!-- Node4&#45;&gt;Node11 -->
<g id="edge11" class="edge"><title>Node4&#45;&gt;Node11</title>
<path fill="none" stroke="midnightblue" d="M445.882,-255.258C497.871,-243.716 579.444,-225.606 627.173,-215.009"/>
<polygon fill="midnightblue" stroke="midnightblue" points="444.902,-251.891 435.898,-257.475 446.419,-258.724 444.902,-251.891"/>
</g>
<!-- Node8 -->
<g id="node8" class="node"><title>Node8</title>
<g id="a_node8"><a xlink:href="_index_record_8h.html" target="_top" xlink:title=" ">
<polygon fill="white" stroke="black" points="83.5,-134.5 83.5,-153.5 227.5,-153.5 227.5,-134.5 83.5,-134.5"/>
<text text-anchor="middle" x="155.5" y="-141.5" font-family="Helvetica,sans-Serif" font-size="10.00">Cpl/Persistent/IndexRecord.h</text>
</a>
</g>
</g>
<!-- Node7&#45;&gt;Node8 -->
<g id="edge7" class="edge"><title>Node7&#45;&gt;Node8</title>
<path fill="none" stroke="midnightblue" d="M249.323,-191.521C226.051,-179.982 192.697,-163.443 172.661,-153.509"/>
<polygon fill="midnightblue" stroke="midnightblue" points="247.793,-194.669 258.307,-195.975 250.903,-188.397 247.793,-194.669"/>
</g>
<!-- Node8&#45;&gt;Node9 -->
<g id="edge8" class="edge"><title>Node8&#45;&gt;Node9</title>
<path fill="none" stroke="midnightblue" d="M237.911,-133.868C409.87,-116.238 599.677,-98.7878 699.62,-89.7574"/>
<polygon fill="midnightblue" stroke="midnightblue" points="237.507,-130.391 227.917,-134.895 238.223,-137.354 237.507,-130.391"/>
</g>
<!-- Node10 -->
<g id="node10" class="node"><title>Node10</title>
<g id="a_node10"><a xlink:href="_indexed_entry_server_8h.html" target="_top" xlink:title=" ">
<polygon fill="white" stroke="black" points="961,-0.5 961,-30.5 1100,-30.5 1100,-0.5 961,-0.5"/>
<text text-anchor="start" x="969" y="-18.5" font-family="Helvetica,sans-Serif" font-size="10.00">Cpl/Persistent/IndexedEntry</text>
<text text-anchor="middle" x="1030.5" y="-7.5" font-family="Helvetica,sans-Serif" font-size="10.00">Server.h</text>
</a>
</g>
</g>
<!-- Node9&#45;&gt;Node10 -->
<g id="edge9" class="edge"><title>Node9&#45;&gt;Node10</title>
<path fill="none" stroke="midnightblue" d="M835.547,-65.0515C878.216,-54.425 933.161,-40.7414 973.839,-30.6109"/>
<polygon fill="midnightblue" stroke="midnightblue" points="834.67,-61.663 825.812,-67.476 836.361,-68.4556 834.67,-61.663"/>
</g>
<!-- Node12&#45;&gt;Node5 -->
<g id="edge13" class="edge"><title>Node12&#45;&gt;Node5</title>
<path fill="none" stroke="midnightblue" d="M215.068,-249.585C200.277,-233.615 183.381,-209.043 196.5,-190 209.685,-170.861 232.182,-159.856 254.019,-153.531"/>
<polygon fill="midnightblue" stroke="midnightblue" points="212.933,-252.404 222.441,-257.077 217.922,-247.494 212.933,-252.404"/>
</g>
<!-- Node12&#45;&gt;Node7 -->
<g id="edge14" class="edge"><title>Node12&#45;&gt;Node7</title>
<path fill="none" stroke="midnightblue" d="M244.542,-249.338C252.613,-238.169 262.905,-223.928 269.351,-215.009"/>
<polygon fill="midnightblue" stroke="midnightblue" points="241.682,-247.32 238.661,-257.475 247.355,-251.42 241.682,-247.32"/>
</g>
<!-- Node12&#45;&gt;Node13 -->
<g id="edge15" class="edge"><title>Node12&#45;&gt;Node13</title>
<path fill="none" stroke="midnightblue" d="M200.456,-253.933C169.747,-242.368 124.179,-225.208 97.0956,-215.009"/>
<polygon fill="midnightblue" stroke="midnightblue" points="199.271,-257.226 209.862,-257.475 201.738,-250.675 199.271,-257.226"/>
</g>
<!-- Node13&#45;&gt;Node5 -->
<g id="edge16" class="edge"><title>Node13&#45;&gt;Node5</title>
<path fill="none" stroke="midnightblue" d="M118.704,-193.541C165.297,-181.99 237.702,-164.039 280.178,-153.509"/>
<polygon fill="midnightblue" stroke="midnightblue" points="117.75,-190.172 108.886,-195.975 119.435,-196.966 117.75,-190.172"/>
</g>
<!-- Node14&#45;&gt;Node6 -->
<g id="edge19" class="edge"><title>Node14&#45;&gt;Node6</title>
<path fill="none" stroke="midnightblue" d="M666.133,-254.529C627.458,-242.965 568.661,-225.385 533.959,-215.009"/>
<polygon fill="midnightblue" stroke="midnightblue" points="665.405,-257.964 675.988,-257.475 667.41,-251.257 665.405,-257.964"/>
</g>
<!-- Node14&#45;&gt;Node9 -->
<g id="edge21" class="edge"><title>Node14&#45;&gt;Node9</title>
<path fill="none" stroke="midnightblue" d="M725.403,-250.804C734.611,-242.964 744.648,-232.61 750.5,-221 771.216,-179.898 771.596,-123.587 770.454,-97.6423"/>
<polygon fill="midnightblue" stroke="midnightblue" points="722.949,-248.285 717.323,-257.262 727.32,-253.753 722.949,-248.285"/>
</g>
<!-- Node14&#45;&gt;Node11 -->
<g id="edge22" class="edge"><title>Node14&#45;&gt;Node11</title>
<path fill="none" stroke="midnightblue" d="M693.36,-249.005C686.074,-237.888 676.865,-223.84 671.077,-215.009"/>
<polygon fill="midnightblue" stroke="midnightblue" points="690.503,-251.03 698.912,-257.475 696.357,-247.193 690.503,-251.03"/>
</g>
<!-- Node15 -->
<g id="node15" class="node"><title>Node15</title>
<g id="a_node15"><a xlink:href="_file_adapter_8h.html" target="_top" xlink:title=" ">
<polygon fill="white" stroke="black" points="798,-196 798,-215 937,-215 937,-196 798,-196"/>
<text text-anchor="middle" x="867.5" y="-203" font-family="Helvetica,sans-Serif" font-size="10.00">Cpl/Persistent/FileAdapter.h</text>
</a>
</g>
</g>
<!-- Node14&#45;&gt;Node15 -->
<g id="edge20" class="edge"><title>Node14&#45;&gt;Node15</title>
<path fill="none" stroke="midnightblue" d="M737.558,-253.933C769.239,-242.368 816.249,-225.208 844.189,-215.009"/>
<polygon fill="midnightblue" stroke="midnightblue" points="736.047,-250.758 727.854,-257.475 738.448,-257.334 736.047,-250.758"/>
</g>
<!-- Node17 -->
<g id="node17" class="node"><title>Node17</title>
<g id="a_node17"><a xlink:href="_model_point_common___8h.html" target="_top" xlink:title=" ">
<polygon fill="white" stroke="black" points="1427,-257.5 1427,-276.5 1580,-276.5 1580,-257.5 1427,-257.5"/>
<text text-anchor="middle" x="1503.5" y="-264.5" font-family="Helvetica,sans-Serif" font-size="10.00">Cpl/Dm/ModelPointCommon_.h</text>
</a>
</g>
</g>
<!-- Node16&#45;&gt;Node17 -->
<g id="edge24" class="edge"><title>Node16&#45;&gt;Node17</title>
<path fill="none" stroke="midnightblue" d="M1094.29,-314.717C1181.2,-304.795 1336.53,-287.062 1428.79,-276.53"/>
<polygon fill="midnightblue" stroke="midnightblue" points="1093.84,-311.246 1084.3,-315.858 1094.63,-318.201 1093.84,-311.246"/>
</g>
<!-- Node34 -->
<g id="node34" class="node"><title>Node34</title>
<g id="a_node34"><a xlink:href="_subscriber_composer_8h.html" target="_top" xlink:title=" ">
<polygon fill="white" stroke="black" points="955,-196 955,-215 1106,-215 1106,-196 955,-196"/>
<text text-anchor="middle" x="1030.5" y="-203" font-family="Helvetica,sans-Serif" font-size="10.00">Cpl/Dm/SubscriberComposer.h</text>
</a>
</g>
</g>
<!-- Node16&#45;&gt;Node34 -->
<g id="edge43" class="edge"><title>Node16&#45;&gt;Node34</title>
<path fill="none" stroke="midnightblue" d="M1030.5,-303.164C1030.5,-277.865 1030.5,-233.935 1030.5,-215.282"/>
<polygon fill="midnightblue" stroke="midnightblue" points="1027,-303.319 1030.5,-313.319 1034,-303.319 1027,-303.319"/>
</g>
<!-- Node18 -->
<g id="node18" class="node"><title>Node18</title>
<g id="a_node18"><a xlink:href="_array___8h.html" target="_top" xlink:title=" ">
<polygon fill="white" stroke="black" points="1392,-196 1392,-215 1497,-215 1497,-196 1392,-196"/>
<text text-anchor="middle" x="1444.5" y="-203" font-family="Helvetica,sans-Serif" font-size="10.00">Cpl/Dm/Mp/Array_.h</text>
</a>
</g>
</g>
<!-- Node17&#45;&gt;Node18 -->
<g id="edge25" class="edge"><title>Node17&#45;&gt;Node18</title>
<path fill="none" stroke="midnightblue" d="M1487.96,-250.325C1476.75,-239.02 1462.04,-224.193 1452.94,-215.009"/>
<polygon fill="midnightblue" stroke="midnightblue" points="1485.52,-252.839 1495.05,-257.475 1490.49,-247.91 1485.52,-252.839"/>
</g>
<!-- Node19 -->
<g id="node19" class="node"><title>Node19</title>
<g id="a_node19"><a xlink:href="_bool_8h.html" target="_top" xlink:title=" ">
<polygon fill="white" stroke="black" points="1515.5,-196 1515.5,-215 1611.5,-215 1611.5,-196 1515.5,-196"/>
<text text-anchor="middle" x="1563.5" y="-203" font-family="Helvetica,sans-Serif" font-size="10.00">Cpl/Dm/Mp/Bool.h</text>
</a>
</g>
</g>
<!-- Node17&#45;&gt;Node19 -->
<g id="edge26" class="edge"><title>Node17&#45;&gt;Node19</title>
<path fill="none" stroke="midnightblue" d="M1519.31,-250.325C1530.71,-239.02 1545.66,-224.193 1554.92,-215.009"/>
<polygon fill="midnightblue" stroke="midnightblue" points="1516.73,-247.948 1512.1,-257.475 1521.66,-252.919 1516.73,-247.948"/>
</g>
<!-- Node20 -->
<g id="node20" class="node"><title>Node20</title>
<g id="a_node20"><a xlink:href="_elapsed_precision_time_8h.html" target="_top" xlink:title=" ">
<polygon fill="white" stroke="black" points="1629.5,-190.5 1629.5,-220.5 1773.5,-220.5 1773.5,-190.5 1629.5,-190.5"/>
<text text-anchor="start" x="1637.5" y="-208.5" font-family="Helvetica,sans-Serif" font-size="10.00">Cpl/Dm/Mp/ElapsedPrecision</text>
<text text-anchor="middle" x="1701.5" y="-197.5" font-family="Helvetica,sans-Serif" font-size="10.00">Time.h</text>
</a>
</g>
</g>
<!-- Node17&#45;&gt;Node20 -->
<g id="edge27" class="edge"><title>Node17&#45;&gt;Node20</title>
<path fill="none" stroke="midnightblue" d="M1541.82,-254.483C1574.11,-244.782 1620.4,-230.871 1654.84,-220.523"/>
<polygon fill="midnightblue" stroke="midnightblue" points="1540.44,-251.245 1531.87,-257.475 1542.45,-257.949 1540.44,-251.245"/>
</g>
<!-- Node21 -->
<g id="node21" class="node"><title>Node21</title>
<g id="a_node21"><a xlink:href="_enum___8h.html" target="_top" xlink:title=" ">
<polygon fill="white" stroke="black" points="1923,-196 1923,-215 2030,-215 2030,-196 1923,-196"/>
<text text-anchor="middle" x="1976.5" y="-203" font-family="Helvetica,sans-Serif" font-size="10.00">Cpl/Dm/Mp/Enum_.h</text>
</a>
</g>
</g>
<!-- Node17&#45;&gt;Node21 -->
<g id="edge28" class="edge"><title>Node17&#45;&gt;Node21</title>
<path fill="none" stroke="midnightblue" d="M1590.21,-259.565C1673.68,-252.651 1803.28,-240.023 1914.5,-221 1923.87,-219.397 1933.94,-217.235 1943.19,-215.07"/>
<polygon fill="midnightblue" stroke="midnightblue" points="1589.69,-256.096 1580.01,-260.401 1590.26,-263.073 1589.69,-256.096"/>
</g>
<!-- Node22 -->
<g id="node22" class="node"><title>Node22</title>
<g id="a_node22"><a xlink:href="_numeric_8h.html" target="_top" xlink:title=" ">
<polygon fill="white" stroke="black" points="1792,-196 1792,-215 1905,-215 1905,-196 1792,-196"/>
<text text-anchor="middle" x="1848.5" y="-203" font-family="Helvetica,sans-Serif" font-size="10.00">Cpl/Dm/Mp/Numeric.h</text>
</a>
</g>
</g>
<!-- Node17&#45;&gt;Node22 -->
<g id="edge29" class="edge"><title>Node17&#45;&gt;Node22</title>
<path fill="none" stroke="midnightblue" d="M1572.36,-255.998C1628.94,-247.515 1711.11,-234.587 1782.5,-221 1791.84,-219.223 1801.87,-217.119 1811.23,-215.073"/>
<polygon fill="midnightblue" stroke="midnightblue" points="1571.83,-252.539 1562.45,-257.478 1572.86,-259.463 1571.83,-252.539"/>
</g>
<!-- Node32 -->
<g id="node32" class="node"><title>Node32</title>
<g id="a_node32"><a xlink:href="_ref_counter_8h.html" target="_top" xlink:title=" ">
<polygon fill="white" stroke="black" points="1124,-196 1124,-215 1249,-215 1249,-196 1124,-196"/>
<text text-anchor="middle" x="1186.5" y="-203" font-family="Helvetica,sans-Serif" font-size="10.00">Cpl/Dm/Mp/RefCounter.h</text>
</a>
</g>
</g>
<!-- Node17&#45;&gt;Node32 -->
<g id="edge41" class="edge"><title>Node17&#45;&gt;Node32</title>
<path fill="none" stroke="midnightblue" d="M1445.41,-255.72C1395.52,-246.809 1321.7,-233.427 1257.5,-221 1247.74,-219.111 1237.25,-217.008 1227.4,-215.001"/>
<polygon fill="midnightblue" stroke="midnightblue" points="1444.91,-259.186 1455.36,-257.496 1446.13,-252.295 1444.91,-259.186"/>
</g>
<!-- Node33 -->
<g id="node33" class="node"><title>Node33</title>
<g id="a_node33"><a xlink:href="_dm_2_mp_2_string___8h.html" target="_top" xlink:title=" ">
<polygon fill="white" stroke="black" points="1267,-196 1267,-215 1374,-215 1374,-196 1267,-196"/>
<text text-anchor="middle" x="1320.5" y="-203" font-family="Helvetica,sans-Serif" font-size="10.00">Cpl/Dm/Mp/String_.h</text>
</a>
</g>
</g>
<!-- Node17&#45;&gt;Node33 -->
<g id="edge42" class="edge"><title>Node17&#45;&gt;Node33</title>
<path fill="none" stroke="midnightblue" d="M1467.76,-254.381C1432.19,-242.815 1378.45,-225.341 1346.67,-215.009"/>
<polygon fill="midnightblue" stroke="midnightblue" points="1466.69,-257.711 1477.28,-257.475 1468.85,-251.055 1466.69,-257.711"/>
</g>
<!-- Node23 -->
<g id="node23" class="node"><title>Node23</title>
<g id="a_node23"><a xlink:href="_bit_array16_8h.html" target="_top" xlink:title=" ">
<polygon fill="white" stroke="black" points="1850.5,-134.5 1850.5,-153.5 1972.5,-153.5 1972.5,-134.5 1850.5,-134.5"/>
<text text-anchor="middle" x="1911.5" y="-141.5" font-family="Helvetica,sans-Serif" font-size="10.00">Cpl/Dm/Mp/BitArray16.h</text>
</a>
</g>
</g>
<!-- Node22&#45;&gt;Node23 -->
<g id="edge30" class="edge"><title>Node22&#45;&gt;Node23</title>
<path fill="none" stroke="midnightblue" d="M1865.1,-188.825C1877.07,-177.52 1892.77,-162.693 1902.49,-153.509"/>
<polygon fill="midnightblue" stroke="midnightblue" points="1862.39,-186.564 1857.53,-195.975 1867.2,-191.653 1862.39,-186.564"/>
</g>
<!-- Node24 -->
<g id="node24" class="node"><title>Node24</title>
<g id="a_node24"><a xlink:href="_double_8h.html" target="_top" xlink:title=" ">
<polygon fill="white" stroke="black" points="1991,-134.5 1991,-153.5 2098,-153.5 2098,-134.5 1991,-134.5"/>
<text text-anchor="middle" x="2044.5" y="-141.5" font-family="Helvetica,sans-Serif" font-size="10.00">Cpl/Dm/Mp/Double.h</text>
</a>
</g>
</g>
<!-- Node22&#45;&gt;Node24 -->
<g id="edge31" class="edge"><title>Node22&#45;&gt;Node24</title>
<path fill="none" stroke="midnightblue" d="M1886.29,-193.029C1924.38,-181.465 1982.29,-163.885 2016.47,-153.509"/>
<polygon fill="midnightblue" stroke="midnightblue" points="1885.13,-189.721 1876.58,-195.975 1887.17,-196.419 1885.13,-189.721"/>
</g>
<!-- Node25 -->
<g id="node25" class="node"><title>Node25</title>
<g id="a_node25"><a xlink:href="_float_8h.html" target="_top" xlink:title=" ">
<polygon fill="white" stroke="black" points="1388.5,-134.5 1388.5,-153.5 1486.5,-153.5 1486.5,-134.5 1388.5,-134.5"/>
<text text-anchor="middle" x="1437.5" y="-141.5" font-family="Helvetica,sans-Serif" font-size="10.00">Cpl/Dm/Mp/Float.h</text>
</a>
</g>
</g>
<!-- Node22&#45;&gt;Node25 -->
<g id="edge32" class="edge"><title>Node22&#45;&gt;Node25</title>
<path fill="none" stroke="midnightblue" d="M1802.84,-193.902C1796.04,-192.488 1789.1,-191.137 1782.5,-190 1655.81,-168.185 1622.81,-171.858 1495.5,-154 1492.57,-153.589 1489.57,-153.157 1486.53,-152.711"/>
<polygon fill="midnightblue" stroke="midnightblue" points="1802.14,-197.33 1812.65,-195.999 1803.6,-190.485 1802.14,-197.33"/>
</g>
<!-- Node26 -->
<g id="node26" class="node"><title>Node26</title>
<g id="a_node26"><a xlink:href="_int32_8h.html" target="_top" xlink:title=" ">
<polygon fill="white" stroke="black" points="1504.5,-134.5 1504.5,-153.5 1602.5,-153.5 1602.5,-134.5 1504.5,-134.5"/>
<text text-anchor="middle" x="1553.5" y="-141.5" font-family="Helvetica,sans-Serif" font-size="10.00">Cpl/Dm/Mp/Int32.h</text>
</a>
</g>
</g>
<!-- Node22&#45;&gt;Node26 -->
<g id="edge33" class="edge"><title>Node22&#45;&gt;Node26</title>
<path fill="none" stroke="midnightblue" d="M1800.44,-193.812C1794.41,-192.507 1788.31,-191.209 1782.5,-190 1718.64,-176.711 1644.53,-162.339 1598.32,-153.502"/>
<polygon fill="midnightblue" stroke="midnightblue" points="1799.97,-197.291 1810.49,-195.998 1801.46,-190.451 1799.97,-197.291"/>
</g>
<!-- Node27 -->
<g id="node27" class="node"><title>Node27</title>
<g id="a_node27"><a xlink:href="_int64_8h.html" target="_top" xlink:title=" ">
<polygon fill="white" stroke="black" points="1620.5,-134.5 1620.5,-153.5 1718.5,-153.5 1718.5,-134.5 1620.5,-134.5"/>
<text text-anchor="middle" x="1669.5" y="-141.5" font-family="Helvetica,sans-Serif" font-size="10.00">Cpl/Dm/Mp/Int64.h</text>
</a>
</g>
</g>
<!-- Node22&#45;&gt;Node27 -->
<g id="edge34" class="edge"><title>Node22&#45;&gt;Node27</title>
<path fill="none" stroke="midnightblue" d="M1813.1,-192.732C1778.3,-181.166 1726.05,-163.797 1695.1,-153.509"/>
<polygon fill="midnightblue" stroke="midnightblue" points="1812.26,-196.142 1822.85,-195.975 1814.47,-189.499 1812.26,-196.142"/>
</g>
<!-- Node28 -->
<g id="node28" class="node"><title>Node28</title>
<g id="a_node28"><a xlink:href="_uint32_8h.html" target="_top" xlink:title=" ">
<polygon fill="white" stroke="black" points="2116.5,-134.5 2116.5,-153.5 2220.5,-153.5 2220.5,-134.5 2116.5,-134.5"/>
<text text-anchor="middle" x="2168.5" y="-141.5" font-family="Helvetica,sans-Serif" font-size="10.00">Cpl/Dm/Mp/Uint32.h</text>
</a>
</g>
</g>
<!-- Node22&#45;&gt;Node28 -->
<g id="edge35" class="edge"><title>Node22&#45;&gt;Node28</title>
<path fill="none" stroke="midnightblue" d="M1896.31,-193.756C1902.42,-192.452 1908.6,-191.17 1914.5,-190 1984.35,-176.146 2065.41,-162.143 2116.82,-153.519"/>
<polygon fill="midnightblue" stroke="midnightblue" points="1895.17,-190.419 1886.14,-195.952 1896.65,-197.261 1895.17,-190.419"/>
</g>
<!-- Node30 -->
<g id="node30" class="node"><title>Node30</title>
<g id="a_node30"><a xlink:href="_uint64_8h.html" target="_top" xlink:title=" ">
<polygon fill="white" stroke="black" points="1194.5,-134.5 1194.5,-153.5 1298.5,-153.5 1298.5,-134.5 1194.5,-134.5"/>
<text text-anchor="middle" x="1246.5" y="-141.5" font-family="Helvetica,sans-Serif" font-size="10.00">Cpl/Dm/Mp/Uint64.h</text>
</a>
</g>
</g>
<!-- Node22&#45;&gt;Node30 -->
<g id="edge38" class="edge"><title>Node22&#45;&gt;Node30</title>
<path fill="none" stroke="midnightblue" d="M1803.6,-193.802C1796.57,-192.368 1789.36,-191.037 1782.5,-190 1690.05,-176.027 1414.27,-156.379 1298.53,-148.485"/>
<polygon fill="midnightblue" stroke="midnightblue" points="1803.21,-197.298 1813.72,-195.956 1804.67,-190.451 1803.21,-197.298"/>
</g>
<!-- Node31 -->
<g id="node31" class="node"><title>Node31</title>
<g id="a_node31"><a xlink:href="_void_8h.html" target="_top" xlink:title=" ">
<polygon fill="white" stroke="black" points="1736.5,-134.5 1736.5,-153.5 1832.5,-153.5 1832.5,-134.5 1736.5,-134.5"/>
<text text-anchor="middle" x="1784.5" y="-141.5" font-family="Helvetica,sans-Serif" font-size="10.00">Cpl/Dm/Mp/Void.h</text>
</a>
</g>
</g>
<!-- Node22&#45;&gt;Node31 -->
<g id="edge40" class="edge"><title>Node22&#45;&gt;Node31</title>
<path fill="none" stroke="midnightblue" d="M1831.99,-189.15C1819.79,-177.806 1803.63,-162.781 1793.65,-153.509"/>
<polygon fill="midnightblue" stroke="midnightblue" points="1829.62,-191.73 1839.33,-195.975 1834.39,-186.603 1829.62,-191.73"/>
</g>
<!-- Node29 -->
<g id="node29" class="node"><title>Node29</title>
<g id="a_node29"><a xlink:href="_ring_buffer_m_p_8h.html" target="_top" xlink:title=" ">
<polygon fill="white" stroke="black" points="1577,-73 1577,-92 1724,-92 1724,-73 1577,-73"/>
<text text-anchor="middle" x="1650.5" y="-80" font-family="Helvetica,sans-Serif" font-size="10.00">Cpl/Container/RingBufferMP.h</text>
</a>
</g>
</g>
<!-- Node28&#45;&gt;Node29 -->
<g id="edge36" class="edge"><title>Node28&#45;&gt;Node29</title>
<path fill="none" stroke="midnightblue" d="M2106.14,-133.864C1965.16,-115.815 1812.5,-99.7556 1724.21,-90.8106"/>
<polygon fill="midnightblue" stroke="midnightblue" points="2105.91,-137.362 2116.27,-135.167 2106.8,-130.42 2105.91,-137.362"/>
</g>
<!-- Node29&#45;&gt;Node10 -->
<g id="edge37" class="edge"><title>Node29&#45;&gt;Node10</title>
<path fill="none" stroke="midnightblue" d="M1566.79,-72.724C1443.4,-59.788 1214.94,-35.8368 1100.15,-23.8025"/>
<polygon fill="midnightblue" stroke="midnightblue" points="1566.63,-76.2266 1576.94,-73.7884 1567.36,-69.2647 1566.63,-76.2266"/>
</g>
<!-- Node30&#45;&gt;Node9 -->
<g id="edge39" class="edge"><title>Node30&#45;&gt;Node9</title>
<path fill="none" stroke="midnightblue" d="M1184.14,-135.221C1095.15,-124.121 932.251,-103.801 839.328,-92.2102"/>
<polygon fill="midnightblue" stroke="midnightblue" points="1183.73,-138.697 1194.09,-136.462 1184.6,-131.751 1183.73,-138.697"/>
</g>
<!-- Node34&#45;&gt;Node5 -->
<g id="edge44" class="edge"><title>Node34&#45;&gt;Node5</title>
<path fill="none" stroke="midnightblue" d="M975.093,-194.244C965.26,-192.654 955.097,-191.158 945.5,-190 742.148,-165.464 500.192,-152.795 383.806,-147.724"/>
<polygon fill="midnightblue" stroke="midnightblue" points="974.744,-197.735 985.184,-195.925 975.895,-190.83 974.744,-197.735"/>
</g>
<!-- Node34&#45;&gt;Node10 -->
<g id="edge45" class="edge"><title>Node34&#45;&gt;Node10</title>
<path fill="none" stroke="midnightblue" d="M1030.5,-185.881C1030.5,-148.328 1030.5,-64.2397 1030.5,-30.704"/>
<polygon fill="midnightblue" stroke="midnightblue" points="1027,-185.933 1030.5,-195.934 1034,-185.934 1027,-185.933"/>
</g>
</g>
</svg>
