<?xml version="1.0" encoding="UTF-8" standalone="no"?>
<!DOCTYPE svg PUBLIC "-//W3C//DTD SVG 1.1//EN"
 "http://www.w3.org/Graphics/SVG/1.1/DTD/svg11.dtd">
<!-- Generated by graphviz version 2.38.0 (20140413.2041)
 -->
<!-- Title: Cpl/Dm/MailboxServer.h Pages: 1 -->
<svg width="1155pt" height="352pt"
 viewBox="0.00 0.00 1154.50 352.00" xmlns="http://www.w3.org/2000/svg" xmlns:xlink="http://www.w3.org/1999/xlink">
<g id="graph0" class="graph" transform="scale(1 1) rotate(0) translate(4 348)">
<title>Cpl/Dm/MailboxServer.h</title>
<polygon fill="white" stroke="none" points="-4,4 -4,-348 1150.5,-348 1150.5,4 -4,4"/>
<!-- Node1 -->
<g id="node1" class="node"><title>Node1</title>
<g id="a_node1"><a xlink:title=" ">
<polygon fill="#bfbfbf" stroke="black" points="413.5,-324.5 413.5,-343.5 535.5,-343.5 535.5,-324.5 413.5,-324.5"/>
<text text-anchor="middle" x="474.5" y="-331.5" font-family="Helvetica,sans-Serif" font-size="10.00">Cpl/Dm/MailboxServer.h</text>
</a>
</g>
</g>
<!-- Node2 -->
<g id="node2" class="node"><title>Node2</title>
<g id="a_node2"><a xlink:href="_dm_2_periodic_scheduler_8h.html" target="_top" xlink:title=" ">
<polygon fill="white" stroke="black" points="82,-263 82,-282 221,-282 221,-263 82,-263"/>
<text text-anchor="middle" x="151.5" y="-270" font-family="Helvetica,sans-Serif" font-size="10.00">Cpl/Dm/PeriodicScheduler.h</text>
</a>
</g>
</g>
<!-- Node1&#45;&gt;Node2 -->
<g id="edge1" class="edge"><title>Node1&#45;&gt;Node2</title>
<path fill="none" stroke="midnightblue" d="M418.135,-322.617C355.583,-311.094 255.815,-292.716 197.692,-282.009"/>
<polygon fill="midnightblue" stroke="midnightblue" points="417.753,-326.105 428.222,-324.475 419.022,-319.221 417.753,-326.105"/>
</g>
<!-- Node3 -->
<g id="node3" class="node"><title>Node3</title>
<g id="a_node3"><a xlink:href="_chunk_8h.html" target="_top" xlink:title=" ">
<polygon fill="white" stroke="black" points="416,-263 416,-282 533,-282 533,-263 416,-263"/>
<text text-anchor="middle" x="474.5" y="-270" font-family="Helvetica,sans-Serif" font-size="10.00">Cpl/Persistent/Chunk.h</text>
</a>
</g>
</g>
<!-- Node1&#45;&gt;Node3 -->
<g id="edge2" class="edge"><title>Node1&#45;&gt;Node3</title>
<path fill="none" stroke="midnightblue" d="M474.5,-314.317C474.5,-303.496 474.5,-290.398 474.5,-282.009"/>
<polygon fill="midnightblue" stroke="midnightblue" points="471,-314.475 474.5,-324.475 478,-314.475 471,-314.475"/>
</g>
<!-- Node14 -->
<g id="node14" class="node"><title>Node14</title>
<g id="a_node14"><a xlink:href="_persistent_2_record_8h.html" target="_top" xlink:title=" ">
<polygon fill="white" stroke="black" points="277.5,-263 277.5,-282 397.5,-282 397.5,-263 277.5,-263"/>
<text text-anchor="middle" x="337.5" y="-270" font-family="Helvetica,sans-Serif" font-size="10.00">Cpl/Persistent/Record.h</text>
</a>
</g>
</g>
<!-- Node1&#45;&gt;Node14 -->
<g id="edge14" class="edge"><title>Node1&#45;&gt;Node14</title>
<path fill="none" stroke="midnightblue" d="M445.671,-320.48C419.064,-308.924 380.271,-292.076 357.092,-282.009"/>
<polygon fill="midnightblue" stroke="midnightblue" points="444.305,-323.702 454.871,-324.475 447.093,-317.281 444.305,-323.702"/>
</g>
<!-- Node15 -->
<g id="node15" class="node"><title>Node15</title>
<g id="a_node15"><a xlink:href="_record_server_8h.html" target="_top" xlink:title=" ">
<polygon fill="white" stroke="black" points="63,-196 63,-215 212,-215 212,-196 63,-196"/>
<text text-anchor="middle" x="137.5" y="-203" font-family="Helvetica,sans-Serif" font-size="10.00">Cpl/Persistent/RecordServer.h</text>
</a>
</g>
</g>
<!-- Node1&#45;&gt;Node15 -->
<g id="edge19" class="edge"><title>Node1&#45;&gt;Node15</title>
<path fill="none" stroke="midnightblue" d="M402.938,-325.528C362.07,-319.293 310.721,-308.049 268.5,-288 248.499,-278.502 247.938,-269.26 229.5,-257 204.769,-240.555 174.234,-224.579 155.312,-215.141"/>
<polygon fill="midnightblue" stroke="midnightblue" points="402.69,-329.029 413.091,-327.007 403.7,-322.102 402.69,-329.029"/>
</g>
<!-- Node16 -->
<g id="node16" class="node"><title>Node16</title>
<g id="a_node16"><a xlink:href="_region_media_8h.html" target="_top" xlink:title=" ">
<polygon fill="white" stroke="black" points="603.5,-263 603.5,-282 749.5,-282 749.5,-263 603.5,-263"/>
<text text-anchor="middle" x="676.5" y="-270" font-family="Helvetica,sans-Serif" font-size="10.00">Cpl/Persistent/RegionMedia.h</text>
</a>
</g>
</g>
<!-- Node1&#45;&gt;Node16 -->
<g id="edge20" class="edge"><title>Node1&#45;&gt;Node16</title>
<path fill="none" stroke="midnightblue" d="M513.195,-321.602C552.45,-310.04 612.312,-292.407 647.612,-282.009"/>
<polygon fill="midnightblue" stroke="midnightblue" points="512.045,-318.292 503.442,-324.475 514.023,-325.007 512.045,-318.292"/>
</g>
<!-- Node19 -->
<g id="node19" class="node"><title>Node19</title>
<g id="a_node19"><a xlink:href="_algorithm_8h.html" target="_top" xlink:title=" ">
<polygon fill="white" stroke="black" points="767.5,-263 767.5,-282 915.5,-282 915.5,-263 767.5,-263"/>
<text text-anchor="middle" x="841.5" y="-270" font-family="Helvetica,sans-Serif" font-size="10.00">Storm/Thermostat/Algorithm.h</text>
</a>
</g>
</g>
<!-- Node1&#45;&gt;Node19 -->
<g id="edge26" class="edge"><title>Node1&#45;&gt;Node19</title>
<path fill="none" stroke="midnightblue" d="M540.107,-322.906C597.7,-313.973 683.71,-300.457 758.5,-288 769.755,-286.125 781.856,-284.047 793.244,-282.063"/>
<polygon fill="midnightblue" stroke="midnightblue" points="539.396,-319.474 530.05,-324.464 540.467,-326.391 539.396,-319.474"/>
</g>
<!-- Node20 -->
<g id="node20" class="node"><title>Node20</title>
<g id="a_node20"><a xlink:href="_event_monitor_8h_source.html" target="_top" xlink:title=" ">
<polygon fill="white" stroke="black" points="933.5,-257.5 933.5,-287.5 1073.5,-287.5 1073.5,-257.5 933.5,-257.5"/>
<text text-anchor="start" x="941.5" y="-275.5" font-family="Helvetica,sans-Serif" font-size="10.00">Storm/Thermostat/Ui</text>
<text text-anchor="middle" x="1003.5" y="-264.5" font-family="Helvetica,sans-Serif" font-size="10.00">/PicoDisplay/EventMonitor.h</text>
</a>
</g>
</g>
<!-- Node1&#45;&gt;Node20 -->
<g id="edge27" class="edge"><title>Node1&#45;&gt;Node20</title>
<path fill="none" stroke="midnightblue" d="M545.805,-327.683C634.72,-320.636 791.258,-306.858 924.5,-288 927.399,-287.59 930.355,-287.149 933.337,-286.686"/>
<polygon fill="midnightblue" stroke="midnightblue" points="545.526,-324.194 535.831,-328.467 546.075,-331.172 545.526,-324.194"/>
</g>
<!-- Node4 -->
<g id="node4" class="node"><title>Node4</title>
<g id="a_node4"><a xlink:href="_dm_2_persistent_2_record_8h.html" target="_top" xlink:title=" ">
<polygon fill="white" stroke="black" points="130.5,-134.5 130.5,-153.5 268.5,-153.5 268.5,-134.5 130.5,-134.5"/>
<text text-anchor="middle" x="199.5" y="-141.5" font-family="Helvetica,sans-Serif" font-size="10.00">Cpl/Dm/Persistent/Record.h</text>
</a>
</g>
</g>
<!-- Node3&#45;&gt;Node4 -->
<g id="edge3" class="edge"><title>Node3&#45;&gt;Node4</title>
<path fill="none" stroke="midnightblue" d="M466.958,-253.702C458.003,-234.824 441.231,-205.617 417.5,-190 393.248,-174.041 322.37,-161.314 267.95,-153.522"/>
<polygon fill="midnightblue" stroke="midnightblue" points="463.834,-255.288 471.124,-262.976 470.219,-252.42 463.834,-255.288"/>
</g>
<!-- Node8 -->
<g id="node8" class="node"><title>Node8</title>
<g id="a_node8"><a xlink:href="_crc_chunk_8h.html" target="_top" xlink:title=" ">
<polygon fill="white" stroke="black" points="502.5,-196 502.5,-215 634.5,-215 634.5,-196 502.5,-196"/>
<text text-anchor="middle" x="568.5" y="-203" font-family="Helvetica,sans-Serif" font-size="10.00">Cpl/Persistent/CrcChunk.h</text>
</a>
</g>
</g>
<!-- Node3&#45;&gt;Node8 -->
<g id="edge7" class="edge"><title>Node3&#45;&gt;Node8</title>
<path fill="none" stroke="midnightblue" d="M495.585,-256.92C514.169,-244.069 540.615,-225.782 556.024,-215.127"/>
<polygon fill="midnightblue" stroke="midnightblue" points="493.412,-254.167 487.177,-262.734 497.393,-259.925 493.412,-254.167"/>
</g>
<!-- Node9 -->
<g id="node9" class="node"><title>Node9</title>
<g id="a_node9"><a xlink:href="_data_record_8h.html" target="_top" xlink:title=" ">
<polygon fill="white" stroke="black" points="268.5,-196 268.5,-215 408.5,-215 408.5,-196 268.5,-196"/>
<text text-anchor="middle" x="338.5" y="-203" font-family="Helvetica,sans-Serif" font-size="10.00">Cpl/Persistent/DataRecord.h</text>
</a>
</g>
</g>
<!-- Node3&#45;&gt;Node9 -->
<g id="edge8" class="edge"><title>Node3&#45;&gt;Node9</title>
<path fill="none" stroke="midnightblue" d="M447.182,-258.444C420.245,-245.569 379.838,-226.257 356.634,-215.167"/>
<polygon fill="midnightblue" stroke="midnightblue" points="445.908,-261.714 456.44,-262.869 448.927,-255.398 445.908,-261.714"/>
</g>
<!-- Node11 -->
<g id="node11" class="node"><title>Node11</title>
<g id="a_node11"><a xlink:href="_indexed_entry_record_8h.html" target="_top" xlink:title=" ">
<polygon fill="white" stroke="black" points="411,-67.5 411,-97.5 550,-97.5 550,-67.5 411,-67.5"/>
<text text-anchor="start" x="419" y="-85.5" font-family="Helvetica,sans-Serif" font-size="10.00">Cpl/Persistent/IndexedEntry</text>
<text text-anchor="middle" x="480.5" y="-74.5" font-family="Helvetica,sans-Serif" font-size="10.00">Record.h</text>
</a>
</g>
</g>
<!-- Node3&#45;&gt;Node11 -->
<g id="edge12" class="edge"><title>Node3&#45;&gt;Node11</title>
<path fill="none" stroke="midnightblue" d="M475.094,-252.881C476.293,-215.328 478.976,-131.24 480.047,-97.704"/>
<polygon fill="midnightblue" stroke="midnightblue" points="471.594,-252.827 474.773,-262.934 478.591,-253.05 471.594,-252.827"/>
</g>
<!-- Node13 -->
<g id="node13" class="node"><title>Node13</title>
<g id="a_node13"><a xlink:href="_mirrored_chunk_8h.html" target="_top" xlink:title=" ">
<polygon fill="white" stroke="black" points="652.5,-196 652.5,-215 804.5,-215 804.5,-196 652.5,-196"/>
<text text-anchor="middle" x="728.5" y="-203" font-family="Helvetica,sans-Serif" font-size="10.00">Cpl/Persistent/MirroredChunk.h</text>
</a>
</g>
</g>
<!-- Node3&#45;&gt;Node13 -->
<g id="edge13" class="edge"><title>Node3&#45;&gt;Node13</title>
<path fill="none" stroke="midnightblue" d="M517.86,-260.404C567.989,-247.576 649.423,-226.736 694.959,-215.083"/>
<polygon fill="midnightblue" stroke="midnightblue" points="516.787,-257.066 507.967,-262.936 518.523,-263.847 516.787,-257.066"/>
</g>
<!-- Node5 -->
<g id="node5" class="node"><title>Node5</title>
<g id="a_node5"><a xlink:href="_installer_record_8h_source.html" target="_top" xlink:title=" ">
<polygon fill="white" stroke="black" points="0,-67.5 0,-97.5 119,-97.5 119,-67.5 0,-67.5"/>
<text text-anchor="start" x="8" y="-85.5" font-family="Helvetica,sans-Serif" font-size="10.00">Storm/Thermostat/Main</text>
<text text-anchor="middle" x="59.5" y="-74.5" font-family="Helvetica,sans-Serif" font-size="10.00">/InstallerRecord.h</text>
</a>
</g>
</g>
<!-- Node4&#45;&gt;Node5 -->
<g id="edge4" class="edge"><title>Node4&#45;&gt;Node5</title>
<path fill="none" stroke="midnightblue" d="M169.995,-130.461C147.319,-120.823 116.001,-107.513 92.4952,-97.523"/>
<polygon fill="midnightblue" stroke="midnightblue" points="168.869,-133.785 179.441,-134.475 171.607,-127.342 168.869,-133.785"/>
</g>
<!-- Node6 -->
<g id="node6" class="node"><title>Node6</title>
<g id="a_node6"><a xlink:href="_run_time_record_8h_source.html" target="_top" xlink:title=" ">
<polygon fill="white" stroke="black" points="137,-67.5 137,-97.5 256,-97.5 256,-67.5 137,-67.5"/>
<text text-anchor="start" x="145" y="-85.5" font-family="Helvetica,sans-Serif" font-size="10.00">Storm/Thermostat/Main</text>
<text text-anchor="middle" x="196.5" y="-74.5" font-family="Helvetica,sans-Serif" font-size="10.00">/RunTimeRecord.h</text>
</a>
</g>
</g>
<!-- Node4&#45;&gt;Node6 -->
<g id="edge5" class="edge"><title>Node4&#45;&gt;Node6</title>
<path fill="none" stroke="midnightblue" d="M198.554,-124.235C198.118,-115.586 197.609,-105.497 197.207,-97.523"/>
<polygon fill="midnightblue" stroke="midnightblue" points="195.071,-124.664 199.07,-134.475 202.062,-124.312 195.071,-124.664"/>
</g>
<!-- Node7 -->
<g id="node7" class="node"><title>Node7</title>
<g id="a_node7"><a xlink:href="_user_record_8h_source.html" target="_top" xlink:title=" ">
<polygon fill="white" stroke="black" points="274,-67.5 274,-97.5 393,-97.5 393,-67.5 274,-67.5"/>
<text text-anchor="start" x="282" y="-85.5" font-family="Helvetica,sans-Serif" font-size="10.00">Storm/Thermostat/Main</text>
<text text-anchor="middle" x="333.5" y="-74.5" font-family="Helvetica,sans-Serif" font-size="10.00">/UserRecord.h</text>
</a>
</g>
</g>
<!-- Node4&#45;&gt;Node7 -->
<g id="edge6" class="edge"><title>Node4&#45;&gt;Node7</title>
<path fill="none" stroke="midnightblue" d="M228.033,-130.331C249.713,-120.704 279.522,-107.468 301.919,-97.523"/>
<polygon fill="midnightblue" stroke="midnightblue" points="226.418,-127.218 218.699,-134.475 229.259,-133.616 226.418,-127.218"/>
</g>
<!-- Node10 -->
<g id="node10" class="node"><title>Node10</title>
<g id="a_node10"><a xlink:href="_index_record_8h.html" target="_top" xlink:title=" ">
<polygon fill="white" stroke="black" points="298.5,-134.5 298.5,-153.5 442.5,-153.5 442.5,-134.5 298.5,-134.5"/>
<text text-anchor="middle" x="370.5" y="-141.5" font-family="Helvetica,sans-Serif" font-size="10.00">Cpl/Persistent/IndexRecord.h</text>
</a>
</g>
</g>
<!-- Node9&#45;&gt;Node10 -->
<g id="edge9" class="edge"><title>Node9&#45;&gt;Node10</title>
<path fill="none" stroke="midnightblue" d="M348.001,-186.835C353.92,-175.828 361.27,-162.163 365.924,-153.509"/>
<polygon fill="midnightblue" stroke="midnightblue" points="344.739,-185.51 343.085,-195.975 350.904,-188.826 344.739,-185.51"/>
</g>
<!-- Node10&#45;&gt;Node11 -->
<g id="edge10" class="edge"><title>Node10&#45;&gt;Node11</title>
<path fill="none" stroke="midnightblue" d="M395.38,-129.542C413.038,-119.991 436.686,-107.199 454.575,-97.523"/>
<polygon fill="midnightblue" stroke="midnightblue" points="393.391,-126.639 386.26,-134.475 396.721,-132.796 393.391,-126.639"/>
</g>
<!-- Node12 -->
<g id="node12" class="node"><title>Node12</title>
<g id="a_node12"><a xlink:href="_indexed_entry_server_8h.html" target="_top" xlink:title=" ">
<polygon fill="white" stroke="black" points="411,-0.5 411,-30.5 550,-30.5 550,-0.5 411,-0.5"/>
<text text-anchor="start" x="419" y="-18.5" font-family="Helvetica,sans-Serif" font-size="10.00">Cpl/Persistent/IndexedEntry</text>
<text text-anchor="middle" x="480.5" y="-7.5" font-family="Helvetica,sans-Serif" font-size="10.00">Server.h</text>
</a>
</g>
</g>
<!-- Node11&#45;&gt;Node12 -->
<g id="edge11" class="edge"><title>Node11&#45;&gt;Node12</title>
<path fill="none" stroke="midnightblue" d="M480.5,-57.1081C480.5,-48.1539 480.5,-38.3227 480.5,-30.5765"/>
<polygon fill="midnightblue" stroke="midnightblue" points="477,-57.3959 480.5,-67.396 484,-57.396 477,-57.3959"/>
</g>
<!-- Node14&#45;&gt;Node4 -->
<g id="edge15" class="edge"><title>Node14&#45;&gt;Node4</title>
<path fill="none" stroke="midnightblue" d="M312.041,-257.888C296.029,-248.658 275.455,-235.526 259.5,-221 236.13,-199.724 214.726,-168.71 205.005,-153.735"/>
<polygon fill="midnightblue" stroke="midnightblue" points="310.44,-261.003 320.872,-262.852 313.87,-254.901 310.44,-261.003"/>
</g>
<!-- Node14&#45;&gt;Node9 -->
<g id="edge16" class="edge"><title>Node14&#45;&gt;Node9</title>
<path fill="none" stroke="midnightblue" d="M337.792,-252.537C337.982,-240.17 338.221,-224.62 338.367,-215.127"/>
<polygon fill="midnightblue" stroke="midnightblue" points="334.289,-252.681 337.635,-262.734 341.288,-252.789 334.289,-252.681"/>
</g>
<!-- Node14&#45;&gt;Node15 -->
<g id="edge17" class="edge"><title>Node14&#45;&gt;Node15</title>
<path fill="none" stroke="midnightblue" d="M301.394,-259.765C261.765,-246.886 199.104,-226.521 163.85,-215.064"/>
<polygon fill="midnightblue" stroke="midnightblue" points="300.349,-263.106 310.942,-262.869 302.513,-256.449 300.349,-263.106"/>
</g>
<!-- Node15&#45;&gt;Node4 -->
<g id="edge18" class="edge"><title>Node15&#45;&gt;Node4</title>
<path fill="none" stroke="midnightblue" d="M153.834,-188.825C165.613,-177.52 181.064,-162.693 190.633,-153.509"/>
<polygon fill="midnightblue" stroke="midnightblue" points="151.175,-186.526 146.383,-195.975 156.022,-191.576 151.175,-186.526"/>
</g>
<!-- Node16&#45;&gt;Node8 -->
<g id="edge21" class="edge"><title>Node16&#45;&gt;Node8</title>
<path fill="none" stroke="midnightblue" d="M653.142,-257.442C631.754,-244.57 600.779,-225.927 582.835,-215.127"/>
<polygon fill="midnightblue" stroke="midnightblue" points="651.562,-260.576 661.935,-262.734 655.172,-254.578 651.562,-260.576"/>
</g>
<!-- Node16&#45;&gt;Node11 -->
<g id="edge23" class="edge"><title>Node16&#45;&gt;Node11</title>
<path fill="none" stroke="midnightblue" d="M731.738,-260.581C780.282,-248.384 839.454,-225.549 813.5,-190 782.184,-147.105 638.072,-113.088 550.011,-95.8561"/>
<polygon fill="midnightblue" stroke="midnightblue" points="730.791,-257.209 721.887,-262.952 732.429,-264.015 730.791,-257.209"/>
</g>
<!-- Node16&#45;&gt;Node13 -->
<g id="edge24" class="edge"><title>Node16&#45;&gt;Node13</title>
<path fill="none" stroke="midnightblue" d="M689.884,-254.77C700.022,-242.097 713.539,-225.201 721.598,-215.127"/>
<polygon fill="midnightblue" stroke="midnightblue" points="687.027,-252.739 683.513,-262.734 692.493,-257.112 687.027,-252.739"/>
</g>
<!-- Node17 -->
<g id="node17" class="node"><title>Node17</title>
<g id="a_node17"><a xlink:href="_file_adapter_8h.html" target="_top" xlink:title=" ">
<polygon fill="white" stroke="black" points="861,-196 861,-215 1000,-215 1000,-196 861,-196"/>
<text text-anchor="middle" x="930.5" y="-203" font-family="Helvetica,sans-Serif" font-size="10.00">Cpl/Persistent/FileAdapter.h</text>
</a>
</g>
</g>
<!-- Node16&#45;&gt;Node17 -->
<g id="edge22" class="edge"><title>Node16&#45;&gt;Node17</title>
<path fill="none" stroke="midnightblue" d="M719.86,-260.404C769.989,-247.576 851.423,-226.736 896.959,-215.083"/>
<polygon fill="midnightblue" stroke="midnightblue" points="718.787,-257.066 709.967,-262.936 720.523,-263.847 718.787,-257.066"/>
</g>
<!-- Node18 -->
<g id="node18" class="node"><title>Node18</title>
<g id="a_node18"><a xlink:href="_null_region_media_8h.html" target="_top" xlink:title=" ">
<polygon fill="white" stroke="black" points="1018.5,-190.5 1018.5,-220.5 1146.5,-220.5 1146.5,-190.5 1018.5,-190.5"/>
<text text-anchor="start" x="1026.5" y="-208.5" font-family="Helvetica,sans-Serif" font-size="10.00">Cpl/Persistent/NullRegion</text>
<text text-anchor="middle" x="1082.5" y="-197.5" font-family="Helvetica,sans-Serif" font-size="10.00">Media.h</text>
</a>
</g>
</g>
<!-- Node16&#45;&gt;Node18 -->
<g id="edge25" class="edge"><title>Node16&#45;&gt;Node18</title>
<path fill="none" stroke="midnightblue" d="M733.143,-261.236C741.634,-259.769 750.292,-258.314 758.5,-257 869.78,-239.186 898.413,-239.985 1009.5,-221 1012.43,-220.499 1015.42,-219.972 1018.44,-219.426"/>
<polygon fill="midnightblue" stroke="midnightblue" points="732.538,-257.789 723.288,-262.955 733.741,-264.684 732.538,-257.789"/>
</g>
</g>
</svg>
