<?xml version="1.0" encoding="UTF-8" standalone="no"?>
<!DOCTYPE svg PUBLIC "-//W3C//DTD SVG 1.1//EN"
 "http://www.w3.org/Graphics/SVG/1.1/DTD/svg11.dtd">
<!-- Generated by graphviz version 2.38.0 (20140413.2041)
 -->
<!-- Title: Driver/Button/TPipe/Hal.h Pages: 1 -->
<svg width="431pt" height="442pt"
 viewBox="0.00 0.00 431.00 442.00" xmlns="http://www.w3.org/2000/svg" xmlns:xlink="http://www.w3.org/1999/xlink">
<g id="graph0" class="graph" transform="scale(1 1) rotate(0) translate(4 438)">
<title>Driver/Button/TPipe/Hal.h</title>
<polygon fill="white" stroke="none" points="-4,4 -4,-438 427,-438 427,4 -4,4"/>
<!-- Node1 -->
<g id="node1" class="node"><title>Node1</title>
<g id="a_node1"><a xlink:title="This file defines the concrete implementation for the Button HAL that gets its raw inputs via a Drive...">
<polygon fill="#bfbfbf" stroke="black" points="119.5,-403.5 119.5,-433.5 221.5,-433.5 221.5,-403.5 119.5,-403.5"/>
<text text-anchor="start" x="127.5" y="-421.5" font-family="Helvetica,sans-Serif" font-size="10.00">Driver/Button/TPipe</text>
<text text-anchor="middle" x="170.5" y="-410.5" font-family="Helvetica,sans-Serif" font-size="10.00">/Hal.h</text>
</a>
</g>
</g>
<!-- Node2 -->
<g id="node2" class="node"><title>Node2</title>
<g id="a_node2"><a xlink:href="_driver_2_button_2_hal_8h.html" target="_top" xlink:title="This file defines a hardware abstraction layer (HAL) for accessing a digital Input that is being used...">
<polygon fill="white" stroke="black" points="9,-280.5 9,-299.5 108,-299.5 108,-280.5 9,-280.5"/>
<text text-anchor="middle" x="58.5" y="-287.5" font-family="Helvetica,sans-Serif" font-size="10.00">Driver/Button/Hal.h</text>
</a>
</g>
</g>
<!-- Node1&#45;&gt;Node2 -->
<g id="edge1" class="edge"><title>Node1&#45;&gt;Node2</title>
<path fill="none" stroke="midnightblue" d="M137.387,-403.327C120.837,-394.837 101.6,-382.635 88.5,-367 74.5846,-350.391 66.5945,-326.544 62.4129,-310.011"/>
<polygon fill="midnightblue" stroke="midnightblue" points="65.7442,-308.878 60.1004,-299.911 58.9207,-310.44 65.7442,-308.878"/>
</g>
<!-- Node4 -->
<g id="node4" class="node"><title>Node4</title>
<g id="a_node4"><a xlink:href="_map_8h.html" target="_top" xlink:title=" ">
<polygon fill="white" stroke="black" points="262,-342 262,-361 367,-361 367,-342 262,-342"/>
<text text-anchor="middle" x="314.5" y="-349" font-family="Helvetica,sans-Serif" font-size="10.00">Cpl/Container/Map.h</text>
</a>
</g>
</g>
<!-- Node1&#45;&gt;Node4 -->
<g id="edge3" class="edge"><title>Node1&#45;&gt;Node4</title>
<path fill="none" stroke="midnightblue" d="M201.746,-403.396C226.9,-392.041 261.951,-376.22 286.268,-365.244"/>
<polygon fill="midnightblue" stroke="midnightblue" points="287.979,-368.311 295.654,-361.007 285.099,-361.931 287.979,-368.311"/>
</g>
<!-- Node17 -->
<g id="node17" class="node"><title>Node17</title>
<g id="a_node17"><a xlink:href="_rx_frame_handler_api_8h.html" target="_top" xlink:title=" ">
<polygon fill="white" stroke="black" points="97.5,-336.5 97.5,-366.5 243.5,-366.5 243.5,-336.5 97.5,-336.5"/>
<text text-anchor="start" x="105.5" y="-354.5" font-family="Helvetica,sans-Serif" font-size="10.00">Driver/TPipe/RxFrameHandler</text>
<text text-anchor="middle" x="170.5" y="-343.5" font-family="Helvetica,sans-Serif" font-size="10.00">Api.h</text>
</a>
</g>
</g>
<!-- Node1&#45;&gt;Node17 -->
<g id="edge20" class="edge"><title>Node1&#45;&gt;Node17</title>
<path fill="none" stroke="midnightblue" d="M170.5,-403.396C170.5,-395.645 170.5,-385.812 170.5,-376.86"/>
<polygon fill="midnightblue" stroke="midnightblue" points="174,-376.576 170.5,-366.577 167,-376.577 174,-376.576"/>
</g>
<!-- Node3 -->
<g id="node3" class="node"><title>Node3</title>
<g id="a_node3"><a xlink:title=" ">
<polygon fill="white" stroke="#bfbfbf" points="0,-0.5 0,-19.5 77,-19.5 77,-0.5 0,-0.5"/>
<text text-anchor="middle" x="38.5" y="-7.5" font-family="Helvetica,sans-Serif" font-size="10.00">colony_map.h</text>
</a>
</g>
</g>
<!-- Node2&#45;&gt;Node3 -->
<g id="edge2" class="edge"><title>Node2&#45;&gt;Node3</title>
<path fill="none" stroke="midnightblue" d="M54.7238,-280.351C47.081,-262.034 30.5,-217.821 30.5,-179 30.5,-179 30.5,-179 30.5,-121 30.5,-88.8633 33.9386,-51.5843 36.307,-29.7187"/>
<polygon fill="midnightblue" stroke="midnightblue" points="39.8119,-29.8715 37.4541,-19.5424 32.8559,-29.0874 39.8119,-29.8715"/>
</g>
<!-- Node5 -->
<g id="node5" class="node"><title>Node5</title>
<g id="a_node5"><a xlink:href="_avl_tree___8h.html" target="_top" xlink:title=" ">
<polygon fill="white" stroke="black" points="252,-280.5 252,-299.5 377,-299.5 377,-280.5 252,-280.5"/>
<text text-anchor="middle" x="314.5" y="-287.5" font-family="Helvetica,sans-Serif" font-size="10.00">Cpl/Container/AvlTree_.h</text>
</a>
</g>
</g>
<!-- Node4&#45;&gt;Node5 -->
<g id="edge4" class="edge"><title>Node4&#45;&gt;Node5</title>
<path fill="none" stroke="midnightblue" d="M314.5,-341.975C314.5,-333.58 314.5,-320.481 314.5,-309.663"/>
<polygon fill="midnightblue" stroke="midnightblue" points="318,-309.509 314.5,-299.509 311,-309.509 318,-309.509"/>
</g>
<!-- Node6 -->
<g id="node6" class="node"><title>Node6</title>
<g id="a_node6"><a xlink:title=" ">
<polygon fill="white" stroke="#bfbfbf" points="338,-0.5 338,-19.5 423,-19.5 423,-0.5 338,-0.5"/>
<text text-anchor="middle" x="380.5" y="-7.5" font-family="Helvetica,sans-Serif" font-size="10.00">colony_config.h</text>
</a>
</g>
</g>
<!-- Node5&#45;&gt;Node6 -->
<g id="edge5" class="edge"><title>Node5&#45;&gt;Node6</title>
<path fill="none" stroke="midnightblue" d="M324.386,-280.402C343.023,-263.183 381.5,-222.38 381.5,-179 381.5,-179 381.5,-179 381.5,-121 381.5,-88.9467 381.07,-51.6417 380.774,-29.7484"/>
<polygon fill="midnightblue" stroke="midnightblue" points="384.271,-29.5073 380.631,-19.5575 377.272,-29.6058 384.271,-29.5073"/>
</g>
<!-- Node7 -->
<g id="node7" class="node"><title>Node7</title>
<g id="a_node7"><a xlink:href="_map_item_8h.html" target="_top" xlink:title=" ">
<polygon fill="white" stroke="black" points="126,-224.5 126,-243.5 251,-243.5 251,-224.5 126,-224.5"/>
<text text-anchor="middle" x="188.5" y="-231.5" font-family="Helvetica,sans-Serif" font-size="10.00">Cpl/Container/MapItem.h</text>
</a>
</g>
</g>
<!-- Node5&#45;&gt;Node7 -->
<g id="edge6" class="edge"><title>Node5&#45;&gt;Node7</title>
<path fill="none" stroke="midnightblue" d="M294.535,-280.444C273.891,-271.596 241.437,-257.687 217.868,-247.586"/>
<polygon fill="midnightblue" stroke="midnightblue" points="218.942,-244.239 208.372,-243.516 216.184,-250.673 218.942,-244.239"/>
</g>
<!-- Node8 -->
<g id="node8" class="node"><title>Node8</title>
<g id="a_node8"><a xlink:href="_dict_item_8h.html" target="_top" xlink:title=" ">
<polygon fill="white" stroke="black" points="127,-168.5 127,-187.5 250,-187.5 250,-168.5 127,-168.5"/>
<text text-anchor="middle" x="188.5" y="-175.5" font-family="Helvetica,sans-Serif" font-size="10.00">Cpl/Container/DictItem.h</text>
</a>
</g>
</g>
<!-- Node7&#45;&gt;Node8 -->
<g id="edge7" class="edge"><title>Node7&#45;&gt;Node8</title>
<path fill="none" stroke="midnightblue" d="M188.5,-224.083C188.5,-217.006 188.5,-206.861 188.5,-197.986"/>
<polygon fill="midnightblue" stroke="midnightblue" points="192,-197.751 188.5,-187.751 185,-197.751 192,-197.751"/>
</g>
<!-- Node9 -->
<g id="node9" class="node"><title>Node9</title>
<g id="a_node9"><a xlink:href="_item_8h.html" target="_top" xlink:title=" ">
<polygon fill="white" stroke="black" points="191.5,-112.5 191.5,-131.5 297.5,-131.5 297.5,-112.5 191.5,-112.5"/>
<text text-anchor="middle" x="244.5" y="-119.5" font-family="Helvetica,sans-Serif" font-size="10.00">Cpl/Container/Item.h</text>
</a>
</g>
</g>
<!-- Node8&#45;&gt;Node9 -->
<g id="edge8" class="edge"><title>Node8&#45;&gt;Node9</title>
<path fill="none" stroke="midnightblue" d="M197.497,-168.324C205.694,-160.42 218.006,-148.548 227.972,-138.938"/>
<polygon fill="midnightblue" stroke="midnightblue" points="230.57,-141.295 235.339,-131.834 225.711,-136.256 230.57,-141.295"/>
</g>
<!-- Node10 -->
<g id="node10" class="node"><title>Node10</title>
<g id="a_node10"><a xlink:href="_key_8h.html" target="_top" xlink:title=" ">
<polygon fill="white" stroke="black" points="69.5,-112.5 69.5,-131.5 173.5,-131.5 173.5,-112.5 69.5,-112.5"/>
<text text-anchor="middle" x="121.5" y="-119.5" font-family="Helvetica,sans-Serif" font-size="10.00">Cpl/Container/Key.h</text>
</a>
</g>
</g>
<!-- Node8&#45;&gt;Node10 -->
<g id="edge9" class="edge"><title>Node8&#45;&gt;Node10</title>
<path fill="none" stroke="midnightblue" d="M177.735,-168.324C167.734,-160.263 152.613,-148.077 140.57,-138.369"/>
<polygon fill="midnightblue" stroke="midnightblue" points="142.443,-135.384 132.461,-131.834 138.05,-140.834 142.443,-135.384"/>
</g>
<!-- Node10&#45;&gt;Node3 -->
<g id="edge19" class="edge"><title>Node10&#45;&gt;Node3</title>
<path fill="none" stroke="midnightblue" d="M114.979,-112.375C108.133,-103.319 97.0556,-88.6615 87.5,-76 75.1879,-59.6862 61.1483,-41.0597 51.2625,-27.9404"/>
<polygon fill="midnightblue" stroke="midnightblue" points="53.9675,-25.7142 45.1544,-19.8337 48.3768,-29.9266 53.9675,-25.7142"/>
</g>
<!-- Node11 -->
<g id="node11" class="node"><title>Node11</title>
<g id="a_node11"><a xlink:href="_fatal_error_8h.html" target="_top" xlink:title=" ">
<polygon fill="white" stroke="black" points="231.5,-56.5 231.5,-75.5 353.5,-75.5 353.5,-56.5 231.5,-56.5"/>
<text text-anchor="middle" x="292.5" y="-63.5" font-family="Helvetica,sans-Serif" font-size="10.00">Cpl/System/FatalError.h</text>
</a>
</g>
</g>
<!-- Node10&#45;&gt;Node11 -->
<g id="edge10" class="edge"><title>Node10&#45;&gt;Node11</title>
<path fill="none" stroke="midnightblue" d="M148.595,-112.444C177.488,-103.32 223.425,-88.8133 255.605,-78.6509"/>
<polygon fill="midnightblue" stroke="midnightblue" points="257.049,-81.8654 265.531,-75.5164 254.941,-75.1903 257.049,-81.8654"/>
</g>
<!-- Node13 -->
<g id="node13" class="node"><title>Node13</title>
<g id="a_node13"><a xlink:title=" ">
<polygon fill="white" stroke="#bfbfbf" points="164,-56.5 164,-75.5 213,-75.5 213,-56.5 164,-56.5"/>
<text text-anchor="middle" x="188.5" y="-63.5" font-family="Helvetica,sans-Serif" font-size="10.00">stdint.h</text>
</a>
</g>
</g>
<!-- Node10&#45;&gt;Node13 -->
<g id="edge13" class="edge"><title>Node10&#45;&gt;Node13</title>
<path fill="none" stroke="midnightblue" d="M132.265,-112.324C142.266,-104.263 157.387,-92.0765 169.43,-82.3695"/>
<polygon fill="midnightblue" stroke="midnightblue" points="171.95,-84.8343 177.539,-75.8339 167.557,-79.3841 171.95,-84.8343"/>
</g>
<!-- Node14 -->
<g id="node14" class="node"><title>Node14</title>
<g id="a_node14"><a xlink:href="_string_8h.html" target="_top" xlink:title=" ">
<polygon fill="white" stroke="black" points="97,-56.5 97,-75.5 146,-75.5 146,-56.5 97,-56.5"/>
<text text-anchor="middle" x="121.5" y="-63.5" font-family="Helvetica,sans-Serif" font-size="10.00">string.h</text>
</a>
</g>
</g>
<!-- Node10&#45;&gt;Node14 -->
<g id="edge14" class="edge"><title>Node10&#45;&gt;Node14</title>
<path fill="none" stroke="midnightblue" d="M116.334,-112.083C114.824,-104.927 114.394,-94.6353 115.042,-85.6911"/>
<polygon fill="midnightblue" stroke="midnightblue" points="118.515,-86.1262 116.369,-75.7511 111.577,-85.2002 118.515,-86.1262"/>
</g>
<!-- Node11&#45;&gt;Node6 -->
<g id="edge12" class="edge"><title>Node11&#45;&gt;Node6</title>
<path fill="none" stroke="midnightblue" d="M306.639,-56.324C320.366,-47.9002 341.436,-34.9709 357.564,-25.0741"/>
<polygon fill="midnightblue" stroke="midnightblue" points="359.704,-27.8678 366.396,-19.6545 356.043,-21.9016 359.704,-27.8678"/>
</g>
<!-- Node12 -->
<g id="node12" class="node"><title>Node12</title>
<g id="a_node12"><a xlink:title=" ">
<polygon fill="white" stroke="#bfbfbf" points="266.5,-0.5 266.5,-19.5 318.5,-19.5 318.5,-0.5 266.5,-0.5"/>
<text text-anchor="middle" x="292.5" y="-7.5" font-family="Helvetica,sans-Serif" font-size="10.00">stddef.h</text>
</a>
</g>
</g>
<!-- Node11&#45;&gt;Node12 -->
<g id="edge11" class="edge"><title>Node11&#45;&gt;Node12</title>
<path fill="none" stroke="midnightblue" d="M292.5,-56.083C292.5,-49.0059 292.5,-38.8611 292.5,-29.9865"/>
<polygon fill="midnightblue" stroke="midnightblue" points="296,-29.751 292.5,-19.7511 289,-29.7511 296,-29.751"/>
</g>
<!-- Node14&#45;&gt;Node3 -->
<g id="edge15" class="edge"><title>Node14&#45;&gt;Node3</title>
<path fill="none" stroke="midnightblue" d="M108.165,-56.324C95.338,-47.979 75.715,-35.2122 60.5602,-25.3524"/>
<polygon fill="midnightblue" stroke="midnightblue" points="62.0932,-22.1742 51.8023,-19.6545 58.2757,-28.0417 62.0932,-22.1742"/>
</g>
<!-- Node14&#45;&gt;Node10 -->
<g id="edge16" class="edge"><title>Node14&#45;&gt;Node10</title>
<path fill="none" stroke="midnightblue" d="M126.631,-75.7511C128.157,-82.8579 128.604,-93.1357 127.972,-102.101"/>
<polygon fill="midnightblue" stroke="midnightblue" points="124.493,-101.713 126.666,-112.083 131.434,-102.622 124.493,-101.713"/>
</g>
<!-- Node15 -->
<g id="node15" class="node"><title>Node15</title>
<g id="a_node15"><a xlink:title=" ">
<polygon fill="white" stroke="#bfbfbf" points="95.5,-0.5 95.5,-19.5 147.5,-19.5 147.5,-0.5 95.5,-0.5"/>
<text text-anchor="middle" x="121.5" y="-7.5" font-family="Helvetica,sans-Serif" font-size="10.00">stdarg.h</text>
</a>
</g>
</g>
<!-- Node14&#45;&gt;Node15 -->
<g id="edge17" class="edge"><title>Node14&#45;&gt;Node15</title>
<path fill="none" stroke="midnightblue" d="M121.5,-56.083C121.5,-49.0059 121.5,-38.8611 121.5,-29.9865"/>
<polygon fill="midnightblue" stroke="midnightblue" points="125,-29.751 121.5,-19.7511 118,-29.7511 125,-29.751"/>
</g>
<!-- Node16 -->
<g id="node16" class="node"><title>Node16</title>
<g id="a_node16"><a xlink:title=" ">
<polygon fill="white" stroke="#bfbfbf" points="165.5,-0.5 165.5,-19.5 219.5,-19.5 219.5,-0.5 165.5,-0.5"/>
<text text-anchor="middle" x="192.5" y="-7.5" font-family="Helvetica,sans-Serif" font-size="10.00">iostream</text>
</a>
</g>
</g>
<!-- Node14&#45;&gt;Node16 -->
<g id="edge18" class="edge"><title>Node14&#45;&gt;Node16</title>
<path fill="none" stroke="midnightblue" d="M132.907,-56.324C143.609,-48.1849 159.841,-35.8395 172.663,-26.0874"/>
<polygon fill="midnightblue" stroke="midnightblue" points="175.044,-28.6734 180.885,-19.8339 170.807,-23.1018 175.044,-28.6734"/>
</g>
<!-- Node17&#45;&gt;Node7 -->
<g id="edge21" class="edge"><title>Node17&#45;&gt;Node7</title>
<path fill="none" stroke="midnightblue" d="M172.707,-336.337C175.95,-315.527 182.007,-276.663 185.604,-253.583"/>
<polygon fill="midnightblue" stroke="midnightblue" points="189.067,-254.089 187.149,-243.669 182.151,-253.011 189.067,-254.089"/>
</g>
</g>
</svg>
