<?xml version="1.0" encoding="UTF-8" standalone="no"?>
<!DOCTYPE svg PUBLIC "-//W3C//DTD SVG 1.1//EN"
 "http://www.w3.org/Graphics/SVG/1.1/DTD/svg11.dtd">
<!-- Generated by graphviz version 2.38.0 (20140413.2041)
 -->
<!-- Title: Driver/Button/Hal.h Pages: 1 -->
<svg width="419pt" height="162pt"
 viewBox="0.00 0.00 418.50 162.00" xmlns="http://www.w3.org/2000/svg" xmlns:xlink="http://www.w3.org/1999/xlink">
<g id="graph0" class="graph" transform="scale(1 1) rotate(0) translate(4 158)">
<title>Driver/Button/Hal.h</title>
<polygon fill="white" stroke="none" points="-4,4 -4,-158 414.5,-158 414.5,4 -4,4"/>
<!-- Node1 -->
<g id="node1" class="node"><title>Node1</title>
<g id="a_node1"><a xlink:title="This file defines a hardware abstraction layer (HAL) for accessing a digital Input that is being used...">
<polygon fill="#bfbfbf" stroke="black" points="185,-134.5 185,-153.5 284,-153.5 284,-134.5 185,-134.5"/>
<text text-anchor="middle" x="234.5" y="-141.5" font-family="Helvetica,sans-Serif" font-size="10.00">Driver/Button/Hal.h</text>
</a>
</g>
</g>
<!-- Node2 -->
<g id="node2" class="node"><title>Node2</title>
<g id="a_node2"><a xlink:href="_polled_debounced_8h.html" target="_top" xlink:title=" ">
<polygon fill="white" stroke="black" points="0,-73 0,-92 161,-92 161,-73 0,-73"/>
<text text-anchor="middle" x="80.5" y="-80" font-family="Helvetica,sans-Serif" font-size="10.00">Driver/Button/PolledDebounced.h</text>
</a>
</g>
</g>
<!-- Node1&#45;&gt;Node2 -->
<g id="edge1" class="edge"><title>Node1&#45;&gt;Node2</title>
<path fill="none" stroke="midnightblue" d="M202.878,-130.782C172.951,-119.22 128.807,-102.164 102.524,-92.0091"/>
<polygon fill="midnightblue" stroke="midnightblue" points="201.846,-134.136 212.436,-134.475 204.369,-127.606 201.846,-134.136"/>
</g>
<!-- Node4 -->
<g id="node4" class="node"><title>Node4</title>
<g id="a_node4"><a xlink:href="_driver_2_button_2_r_p2040_2_hal_8h.html" target="_top" xlink:title="This file defines the concrete implementation for the Butotn HAL running on Raspberry PI RP2040 MCU.">
<polygon fill="white" stroke="black" points="179,-67.5 179,-97.5 290,-97.5 290,-67.5 179,-67.5"/>
<text text-anchor="start" x="187" y="-85.5" font-family="Helvetica,sans-Serif" font-size="10.00">Driver/Button/RP2040</text>
<text text-anchor="middle" x="234.5" y="-74.5" font-family="Helvetica,sans-Serif" font-size="10.00">/Hal.h</text>
</a>
</g>
</g>
<!-- Node1&#45;&gt;Node4 -->
<g id="edge3" class="edge"><title>Node1&#45;&gt;Node4</title>
<path fill="none" stroke="midnightblue" d="M234.5,-124.235C234.5,-115.586 234.5,-105.497 234.5,-97.523"/>
<polygon fill="midnightblue" stroke="midnightblue" points="231,-124.475 234.5,-134.475 238,-124.475 231,-124.475"/>
</g>
<!-- Node5 -->
<g id="node5" class="node"><title>Node5</title>
<g id="a_node5"><a xlink:href="_driver_2_button_2_t_pipe_2_hal_8h.html" target="_top" xlink:title="This file defines the concrete implementation for the Button HAL that gets its raw inputs via a Drive...">
<polygon fill="white" stroke="black" points="308.5,-67.5 308.5,-97.5 410.5,-97.5 410.5,-67.5 308.5,-67.5"/>
<text text-anchor="start" x="316.5" y="-85.5" font-family="Helvetica,sans-Serif" font-size="10.00">Driver/Button/TPipe</text>
<text text-anchor="middle" x="359.5" y="-74.5" font-family="Helvetica,sans-Serif" font-size="10.00">/Hal.h</text>
</a>
</g>
</g>
<!-- Node1&#45;&gt;Node5 -->
<g id="edge4" class="edge"><title>Node1&#45;&gt;Node5</title>
<path fill="none" stroke="midnightblue" d="M261.665,-130.07C281.841,-120.465 309.335,-107.378 330.04,-97.523"/>
<polygon fill="midnightblue" stroke="midnightblue" points="259.934,-127.017 252.409,-134.475 262.943,-133.337 259.934,-127.017"/>
</g>
<!-- Node3 -->
<g id="node3" class="node"><title>Node3</title>
<g id="a_node3"><a xlink:href="_driver_2_pico_display_2_api_8h.html" target="_top" xlink:title=" ">
<polygon fill="white" stroke="black" points="32,-0.5 32,-30.5 129,-30.5 129,-0.5 32,-0.5"/>
<text text-anchor="start" x="40" y="-18.5" font-family="Helvetica,sans-Serif" font-size="10.00">Driver/PicoDisplay</text>
<text text-anchor="middle" x="80.5" y="-7.5" font-family="Helvetica,sans-Serif" font-size="10.00">/Api.h</text>
</a>
</g>
</g>
<!-- Node2&#45;&gt;Node3 -->
<g id="edge2" class="edge"><title>Node2&#45;&gt;Node3</title>
<path fill="none" stroke="midnightblue" d="M80.5,-62.4107C80.5,-52.222 80.5,-39.901 80.5,-30.589"/>
<polygon fill="midnightblue" stroke="midnightblue" points="77.0001,-62.7338 80.5,-72.7338 84.0001,-62.7338 77.0001,-62.7338"/>
</g>
</g>
</svg>
