<?xml version="1.0" encoding="UTF-8" standalone="no"?>
<!DOCTYPE svg PUBLIC "-//W3C//DTD SVG 1.1//EN"
 "http://www.w3.org/Graphics/SVG/1.1/DTD/svg11.dtd">
<!-- Generated by graphviz version 2.38.0 (20140413.2041)
 -->
<!-- Title: Driver/PicoDisplay/TPipe/Api.h Pages: 1 -->
<svg width="998pt" height="498pt"
 viewBox="0.00 0.00 998.00 498.00" xmlns="http://www.w3.org/2000/svg" xmlns:xlink="http://www.w3.org/1999/xlink">
<g id="graph0" class="graph" transform="scale(1 1) rotate(0) translate(4 494)">
<title>Driver/PicoDisplay/TPipe/Api.h</title>
<polygon fill="white" stroke="none" points="-4,4 -4,-494 994,-494 994,4 -4,4"/>
<!-- Node1 -->
<g id="node1" class="node"><title>Node1</title>
<g id="a_node1"><a xlink:title="This file defines the interface for initializing the concrete implementation of the PicoDisplay drive...">
<polygon fill="#bfbfbf" stroke="black" points="498.5,-459.5 498.5,-489.5 595.5,-489.5 595.5,-459.5 498.5,-459.5"/>
<text text-anchor="start" x="506.5" y="-477.5" font-family="Helvetica,sans-Serif" font-size="10.00">Driver/PicoDisplay</text>
<text text-anchor="middle" x="547" y="-466.5" font-family="Helvetica,sans-Serif" font-size="10.00">/TPipe/Api.h</text>
</a>
</g>
</g>
<!-- Node2 -->
<g id="node2" class="node"><title>Node2</title>
<g id="a_node2"><a xlink:title=" ">
<polygon fill="white" stroke="#bfbfbf" points="61.5,-0.5 61.5,-19.5 146.5,-19.5 146.5,-0.5 61.5,-0.5"/>
<text text-anchor="middle" x="104" y="-7.5" font-family="Helvetica,sans-Serif" font-size="10.00">colony_config.h</text>
</a>
</g>
</g>
<!-- Node1&#45;&gt;Node2 -->
<g id="edge1" class="edge"><title>Node1&#45;&gt;Node2</title>
<path fill="none" stroke="midnightblue" d="M498.457,-473.04C364.586,-470.469 0,-454.138 0,-352.5 0,-352.5 0,-352.5 0,-121 0,-76.2232 46.0644,-42.3249 76.8789,-24.658"/>
<polygon fill="midnightblue" stroke="midnightblue" points="78.8109,-27.5898 85.8846,-19.7022 75.4361,-21.457 78.8109,-27.5898"/>
</g>
<!-- Node3 -->
<g id="node3" class="node"><title>Node3</title>
<g id="a_node3"><a xlink:href="_input_8h.html" target="_top" xlink:title=" ">
<polygon fill="white" stroke="black" points="586.5,-280.5 586.5,-299.5 661.5,-299.5 661.5,-280.5 586.5,-280.5"/>
<text text-anchor="middle" x="624" y="-287.5" font-family="Helvetica,sans-Serif" font-size="10.00">Cpl/Io/Input.h</text>
</a>
</g>
</g>
<!-- Node1&#45;&gt;Node3 -->
<g id="edge2" class="edge"><title>Node1&#45;&gt;Node3</title>
<path fill="none" stroke="midnightblue" d="M538.689,-459.314C531.419,-445.167 522.651,-422.756 527,-403 534.054,-370.956 536.791,-361.034 558,-336 568.82,-323.228 584.11,-312.496 597.248,-304.72"/>
<polygon fill="midnightblue" stroke="midnightblue" points="599.349,-307.553 606.34,-299.593 595.911,-301.456 599.349,-307.553"/>
</g>
<!-- Node15 -->
<g id="node15" class="node"><title>Node15</title>
<g id="a_node15"><a xlink:href="_output_8h.html" target="_top" xlink:title=" ">
<polygon fill="white" stroke="black" points="724.5,-280.5 724.5,-299.5 807.5,-299.5 807.5,-280.5 724.5,-280.5"/>
<text text-anchor="middle" x="766" y="-287.5" font-family="Helvetica,sans-Serif" font-size="10.00">Cpl/Io/Output.h</text>
</a>
</g>
</g>
<!-- Node1&#45;&gt;Node15 -->
<g id="edge17" class="edge"><title>Node1&#45;&gt;Node15</title>
<path fill="none" stroke="midnightblue" d="M595.768,-465.851C682.984,-451.067 859.955,-415.686 896,-367 904.198,-355.927 903.992,-347.223 896,-336 878.295,-311.135 845.867,-299.882 817.829,-294.846"/>
<polygon fill="midnightblue" stroke="midnightblue" points="818.156,-291.355 807.734,-293.259 817.069,-298.27 818.156,-291.355"/>
</g>
<!-- Node16 -->
<g id="node16" class="node"><title>Node16</title>
<g id="a_node16"><a xlink:href="_pipe_8h.html" target="_top" xlink:title=" ">
<polygon fill="white" stroke="black" points="536.5,-403.5 536.5,-422.5 637.5,-422.5 637.5,-403.5 536.5,-403.5"/>
<text text-anchor="middle" x="587" y="-410.5" font-family="Helvetica,sans-Serif" font-size="10.00">Driver/TPipe/Pipe.h</text>
</a>
</g>
</g>
<!-- Node1&#45;&gt;Node16 -->
<g id="edge22" class="edge"><title>Node1&#45;&gt;Node16</title>
<path fill="none" stroke="midnightblue" d="M556.479,-459.399C562.172,-450.932 569.454,-440.099 575.478,-431.139"/>
<polygon fill="midnightblue" stroke="midnightblue" points="578.505,-432.909 581.18,-422.658 572.696,-429.004 578.505,-432.909"/>
</g>
<!-- Node4 -->
<g id="node4" class="node"><title>Node4</title>
<g id="a_node4"><a xlink:href="_string_8h.html" target="_top" xlink:title=" ">
<polygon fill="white" stroke="black" points="775,-224.5 775,-243.5 865,-243.5 865,-224.5 775,-224.5"/>
<text text-anchor="middle" x="820" y="-231.5" font-family="Helvetica,sans-Serif" font-size="10.00">Cpl/Text/String.h</text>
</a>
</g>
</g>
<!-- Node3&#45;&gt;Node4 -->
<g id="edge3" class="edge"><title>Node3&#45;&gt;Node4</title>
<path fill="none" stroke="midnightblue" d="M655.057,-280.444C688.603,-271.201 742.197,-256.436 779.141,-246.257"/>
<polygon fill="midnightblue" stroke="midnightblue" points="780.377,-249.547 789.089,-243.516 778.518,-242.798 780.377,-249.547"/>
</g>
<!-- Node12 -->
<g id="node12" class="node"><title>Node12</title>
<g id="a_node12"><a xlink:href="_close_8h.html" target="_top" xlink:title=" ">
<polygon fill="white" stroke="black" points="581,-224.5 581,-243.5 659,-243.5 659,-224.5 581,-224.5"/>
<text text-anchor="middle" x="620" y="-231.5" font-family="Helvetica,sans-Serif" font-size="10.00">Cpl/Io/Close.h</text>
</a>
</g>
</g>
<!-- Node3&#45;&gt;Node12 -->
<g id="edge14" class="edge"><title>Node3&#45;&gt;Node12</title>
<path fill="none" stroke="midnightblue" d="M623.339,-280.083C622.815,-273.006 622.064,-262.861 621.406,-253.986"/>
<polygon fill="midnightblue" stroke="midnightblue" points="624.877,-253.465 620.648,-243.751 617.897,-253.982 624.877,-253.465"/>
</g>
<!-- Node14 -->
<g id="node14" class="node"><title>Node14</title>
<g id="a_node14"><a xlink:href="_is_eos_8h.html" target="_top" xlink:title=" ">
<polygon fill="white" stroke="black" points="677.5,-224.5 677.5,-243.5 756.5,-243.5 756.5,-224.5 677.5,-224.5"/>
<text text-anchor="middle" x="717" y="-231.5" font-family="Helvetica,sans-Serif" font-size="10.00">Cpl/Io/IsEos.h</text>
</a>
</g>
</g>
<!-- Node3&#45;&gt;Node14 -->
<g id="edge16" class="edge"><title>Node3&#45;&gt;Node14</title>
<path fill="none" stroke="midnightblue" d="M638.942,-280.324C653.585,-271.822 676.134,-258.729 693.238,-248.797"/>
<polygon fill="midnightblue" stroke="midnightblue" points="695.205,-251.703 702.095,-243.655 691.69,-245.649 695.205,-251.703"/>
</g>
<!-- Node5 -->
<g id="node5" class="node"><title>Node5</title>
<g id="a_node5"><a xlink:title=" ">
<polygon fill="white" stroke="#bfbfbf" points="800.5,-56.5 800.5,-75.5 877.5,-75.5 877.5,-56.5 800.5,-56.5"/>
<text text-anchor="middle" x="839" y="-63.5" font-family="Helvetica,sans-Serif" font-size="10.00">colony_map.h</text>
</a>
</g>
</g>
<!-- Node4&#45;&gt;Node5 -->
<g id="edge4" class="edge"><title>Node4&#45;&gt;Node5</title>
<path fill="none" stroke="midnightblue" d="M821.022,-224.075C824.012,-197.945 832.795,-121.211 836.874,-85.577"/>
<polygon fill="midnightblue" stroke="midnightblue" points="840.359,-85.9013 838.019,-75.5681 833.405,-85.1052 840.359,-85.9013"/>
</g>
<!-- Node6 -->
<g id="node6" class="node"><title>Node6</title>
<g id="a_node6"><a xlink:href="_key_8h.html" target="_top" xlink:title=" ">
<polygon fill="white" stroke="black" points="668,-112.5 668,-131.5 772,-131.5 772,-112.5 668,-112.5"/>
<text text-anchor="middle" x="720" y="-119.5" font-family="Helvetica,sans-Serif" font-size="10.00">Cpl/Container/Key.h</text>
</a>
</g>
</g>
<!-- Node4&#45;&gt;Node6 -->
<g id="edge5" class="edge"><title>Node4&#45;&gt;Node6</title>
<path fill="none" stroke="midnightblue" d="M792.338,-224.414C774.761,-216.838 753.116,-204.44 739,-188 727.505,-174.612 720.095,-155.79 717.394,-141.843"/>
<polygon fill="midnightblue" stroke="midnightblue" points="720.87,-141.434 716.248,-131.901 713.916,-142.236 720.87,-141.434"/>
</g>
<!-- Node10 -->
<g id="node10" class="node"><title>Node10</title>
<g id="a_node10"><a xlink:title=" ">
<polygon fill="white" stroke="#bfbfbf" points="867,-168.5 867,-187.5 919,-187.5 919,-168.5 867,-168.5"/>
<text text-anchor="middle" x="893" y="-175.5" font-family="Helvetica,sans-Serif" font-size="10.00">stdarg.h</text>
</a>
</g>
</g>
<!-- Node4&#45;&gt;Node10 -->
<g id="edge12" class="edge"><title>Node4&#45;&gt;Node10</title>
<path fill="none" stroke="midnightblue" d="M831.729,-224.324C842.837,-216.107 859.742,-203.602 872.983,-193.807"/>
<polygon fill="midnightblue" stroke="midnightblue" points="875.1,-196.595 881.058,-187.834 870.937,-190.967 875.1,-196.595"/>
</g>
<!-- Node11 -->
<g id="node11" class="node"><title>Node11</title>
<g id="a_node11"><a xlink:title=" ">
<polygon fill="white" stroke="#bfbfbf" points="757,-168.5 757,-187.5 811,-187.5 811,-168.5 757,-168.5"/>
<text text-anchor="middle" x="784" y="-175.5" font-family="Helvetica,sans-Serif" font-size="10.00">iostream</text>
</a>
</g>
</g>
<!-- Node4&#45;&gt;Node11 -->
<g id="edge13" class="edge"><title>Node4&#45;&gt;Node11</title>
<path fill="none" stroke="midnightblue" d="M814.055,-224.083C809.023,-216.534 801.663,-205.495 795.487,-196.23"/>
<polygon fill="midnightblue" stroke="midnightblue" points="798.293,-194.13 789.834,-187.751 792.469,-198.013 798.293,-194.13"/>
</g>
<!-- Node6&#45;&gt;Node4 -->
<g id="edge10" class="edge"><title>Node6&#45;&gt;Node4</title>
<path fill="none" stroke="midnightblue" d="M727.781,-131.901C734.426,-145.338 742.432,-171.033 757,-188 768.359,-201.229 784.593,-211.841 797.884,-219.429"/>
<polygon fill="midnightblue" stroke="midnightblue" points="796.482,-222.653 806.93,-224.414 799.861,-216.522 796.482,-222.653"/>
</g>
<!-- Node6&#45;&gt;Node5 -->
<g id="edge11" class="edge"><title>Node6&#45;&gt;Node5</title>
<path fill="none" stroke="midnightblue" d="M738.856,-112.444C758.266,-103.636 788.73,-89.8116 810.965,-79.722"/>
<polygon fill="midnightblue" stroke="midnightblue" points="812.572,-82.836 820.232,-75.5164 809.68,-76.4615 812.572,-82.836"/>
</g>
<!-- Node7 -->
<g id="node7" class="node"><title>Node7</title>
<g id="a_node7"><a xlink:href="_fatal_error_8h.html" target="_top" xlink:title=" ">
<polygon fill="white" stroke="black" points="343,-56.5 343,-75.5 465,-75.5 465,-56.5 343,-56.5"/>
<text text-anchor="middle" x="404" y="-63.5" font-family="Helvetica,sans-Serif" font-size="10.00">Cpl/System/FatalError.h</text>
</a>
</g>
</g>
<!-- Node6&#45;&gt;Node7 -->
<g id="edge6" class="edge"><title>Node6&#45;&gt;Node7</title>
<path fill="none" stroke="midnightblue" d="M669.929,-112.444C613.994,-102.885 523.492,-87.4195 463.863,-77.2298"/>
<polygon fill="midnightblue" stroke="midnightblue" points="464.284,-73.751 453.837,-75.5164 463.104,-80.6509 464.284,-73.751"/>
</g>
<!-- Node9 -->
<g id="node9" class="node"><title>Node9</title>
<g id="a_node9"><a xlink:title=" ">
<polygon fill="white" stroke="#bfbfbf" points="695.5,-56.5 695.5,-75.5 744.5,-75.5 744.5,-56.5 695.5,-56.5"/>
<text text-anchor="middle" x="720" y="-63.5" font-family="Helvetica,sans-Serif" font-size="10.00">stdint.h</text>
</a>
</g>
</g>
<!-- Node6&#45;&gt;Node9 -->
<g id="edge9" class="edge"><title>Node6&#45;&gt;Node9</title>
<path fill="none" stroke="midnightblue" d="M720,-112.083C720,-105.006 720,-94.8611 720,-85.9865"/>
<polygon fill="midnightblue" stroke="midnightblue" points="723.5,-85.751 720,-75.7511 716.5,-85.7511 723.5,-85.751"/>
</g>
<!-- Node7&#45;&gt;Node2 -->
<g id="edge8" class="edge"><title>Node7&#45;&gt;Node2</title>
<path fill="none" stroke="midnightblue" d="M356.464,-56.4435C302.181,-46.6727 213.606,-30.729 157.101,-20.5582"/>
<polygon fill="midnightblue" stroke="midnightblue" points="157.401,-17.056 146.939,-18.729 156.161,-23.9453 157.401,-17.056"/>
</g>
<!-- Node8 -->
<g id="node8" class="node"><title>Node8</title>
<g id="a_node8"><a xlink:title=" ">
<polygon fill="white" stroke="#bfbfbf" points="378,-0.5 378,-19.5 430,-19.5 430,-0.5 378,-0.5"/>
<text text-anchor="middle" x="404" y="-7.5" font-family="Helvetica,sans-Serif" font-size="10.00">stddef.h</text>
</a>
</g>
</g>
<!-- Node7&#45;&gt;Node8 -->
<g id="edge7" class="edge"><title>Node7&#45;&gt;Node8</title>
<path fill="none" stroke="midnightblue" d="M404,-56.083C404,-49.0059 404,-38.8611 404,-29.9865"/>
<polygon fill="midnightblue" stroke="midnightblue" points="407.5,-29.751 404,-19.7511 400.5,-29.7511 407.5,-29.751"/>
</g>
<!-- Node13 -->
<g id="node13" class="node"><title>Node13</title>
<g id="a_node13"><a xlink:href="_item_8h.html" target="_top" xlink:title=" ">
<polygon fill="white" stroke="black" points="436,-112.5 436,-131.5 542,-131.5 542,-112.5 436,-112.5"/>
<text text-anchor="middle" x="489" y="-119.5" font-family="Helvetica,sans-Serif" font-size="10.00">Cpl/Container/Item.h</text>
</a>
</g>
</g>
<!-- Node12&#45;&gt;Node13 -->
<g id="edge15" class="edge"><title>Node12&#45;&gt;Node13</title>
<path fill="none" stroke="midnightblue" d="M609.721,-224.368C587.528,-205.733 534.889,-161.532 507.023,-138.134"/>
<polygon fill="midnightblue" stroke="midnightblue" points="509.141,-135.342 499.232,-131.591 504.639,-140.702 509.141,-135.342"/>
</g>
<!-- Node15&#45;&gt;Node4 -->
<g id="edge18" class="edge"><title>Node15&#45;&gt;Node4</title>
<path fill="none" stroke="midnightblue" d="M774.917,-280.083C782.78,-272.22 794.431,-260.569 803.919,-251.081"/>
<polygon fill="midnightblue" stroke="midnightblue" points="806.653,-253.297 811.249,-243.751 801.703,-248.347 806.653,-253.297"/>
</g>
<!-- Node15&#45;&gt;Node10 -->
<g id="edge21" class="edge"><title>Node15&#45;&gt;Node10</title>
<path fill="none" stroke="midnightblue" d="M807.525,-280.877C830.079,-274.445 856.793,-263.22 874,-244 885.386,-231.282 889.968,-212.083 891.802,-197.845"/>
<polygon fill="midnightblue" stroke="midnightblue" points="895.303,-197.993 892.761,-187.708 888.335,-197.334 895.303,-197.993"/>
</g>
<!-- Node15&#45;&gt;Node12 -->
<g id="edge19" class="edge"><title>Node15&#45;&gt;Node12</title>
<path fill="none" stroke="midnightblue" d="M742.866,-280.444C718.518,-271.438 679.993,-257.189 652.577,-247.049"/>
<polygon fill="midnightblue" stroke="midnightblue" points="653.619,-243.703 643.026,-243.516 651.191,-250.268 653.619,-243.703"/>
</g>
<!-- Node15&#45;&gt;Node14 -->
<g id="edge20" class="edge"><title>Node15&#45;&gt;Node14</title>
<path fill="none" stroke="midnightblue" d="M757.909,-280.083C750.845,-272.298 740.412,-260.801 731.851,-251.367"/>
<polygon fill="midnightblue" stroke="midnightblue" points="734.253,-248.805 724.941,-243.751 729.069,-253.509 734.253,-248.805"/>
</g>
<!-- Node16&#45;&gt;Node3 -->
<g id="edge46" class="edge"><title>Node16&#45;&gt;Node3</title>
<path fill="none" stroke="midnightblue" d="M580.423,-403.197C570.416,-388.642 553.667,-358.898 565,-336 571.603,-322.659 584.265,-312.194 596.171,-304.726"/>
<polygon fill="midnightblue" stroke="midnightblue" points="598.118,-307.643 605.016,-299.602 594.609,-301.587 598.118,-307.643"/>
</g>
<!-- Node16&#45;&gt;Node15 -->
<g id="edge47" class="edge"><title>Node16&#45;&gt;Node15</title>
<path fill="none" stroke="midnightblue" d="M637.648,-410.35C672.628,-406.509 717.763,-395.764 746,-367 760.833,-351.891 765.032,-327.171 766.039,-310.046"/>
<polygon fill="midnightblue" stroke="midnightblue" points="769.549,-309.704 766.317,-299.614 762.552,-309.517 769.549,-309.704"/>
</g>
<!-- Node17 -->
<g id="node17" class="node"><title>Node17</title>
<g id="a_node17"><a xlink:href="_map_8h.html" target="_top" xlink:title=" ">
<polygon fill="white" stroke="black" points="28.5,-342 28.5,-361 133.5,-361 133.5,-342 28.5,-342"/>
<text text-anchor="middle" x="81" y="-349" font-family="Helvetica,sans-Serif" font-size="10.00">Cpl/Container/Map.h</text>
</a>
</g>
</g>
<!-- Node16&#45;&gt;Node17 -->
<g id="edge23" class="edge"><title>Node16&#45;&gt;Node17</title>
<path fill="none" stroke="midnightblue" d="M536.447,-409.003C453.749,-403.624 284.57,-390.628 143,-367 136.775,-365.961 130.242,-364.664 123.85,-363.276"/>
<polygon fill="midnightblue" stroke="midnightblue" points="124.509,-359.837 113.983,-361.044 122.964,-366.665 124.509,-359.837"/>
</g>
<!-- Node21 -->
<g id="node21" class="node"><title>Node21</title>
<g id="a_node21"><a xlink:href="_tx_8h.html" target="_top" xlink:title=" ">
<polygon fill="white" stroke="black" points="794.5,-342 794.5,-361 887.5,-361 887.5,-342 794.5,-342"/>
<text text-anchor="middle" x="841" y="-349" font-family="Helvetica,sans-Serif" font-size="10.00">Driver/TPipe/Tx.h</text>
</a>
</g>
</g>
<!-- Node16&#45;&gt;Node21 -->
<g id="edge30" class="edge"><title>Node16&#45;&gt;Node21</title>
<path fill="none" stroke="midnightblue" d="M624.01,-403.42C662.87,-394.401 725.746,-379.773 780,-367 784.972,-365.83 790.17,-364.601 795.345,-363.375"/>
<polygon fill="midnightblue" stroke="midnightblue" points="796.281,-366.75 805.203,-361.036 794.665,-359.939 796.281,-366.75"/>
</g>
<!-- Node22 -->
<g id="node22" class="node"><title>Node22</title>
<g id="a_node22"><a xlink:href="_rx_frame_handler_api_8h.html" target="_top" xlink:title=" ">
<polygon fill="white" stroke="black" points="152,-336.5 152,-366.5 298,-366.5 298,-336.5 152,-336.5"/>
<text text-anchor="start" x="160" y="-354.5" font-family="Helvetica,sans-Serif" font-size="10.00">Driver/TPipe/RxFrameHandler</text>
<text text-anchor="middle" x="225" y="-343.5" font-family="Helvetica,sans-Serif" font-size="10.00">Api.h</text>
</a>
</g>
</g>
<!-- Node16&#45;&gt;Node22 -->
<g id="edge32" class="edge"><title>Node16&#45;&gt;Node22</title>
<path fill="none" stroke="midnightblue" d="M536.378,-404.109C482.35,-395.632 393.968,-381.608 308.209,-367.19"/>
<polygon fill="midnightblue" stroke="midnightblue" points="308.75,-363.732 298.308,-365.522 307.587,-370.635 308.75,-363.732"/>
</g>
<!-- Node23 -->
<g id="node23" class="node"><title>Node23</title>
<g id="a_node23"><a xlink:href="_stream_decoder_8h.html" target="_top" xlink:title=" ">
<polygon fill="white" stroke="black" points="316.5,-342 316.5,-361 479.5,-361 479.5,-342 316.5,-342"/>
<text text-anchor="middle" x="398" y="-349" font-family="Helvetica,sans-Serif" font-size="10.00">Cpl/Text/Frame/StreamDecoder.h</text>
</a>
</g>
</g>
<!-- Node16&#45;&gt;Node23 -->
<g id="edge34" class="edge"><title>Node16&#45;&gt;Node23</title>
<path fill="none" stroke="midnightblue" d="M559.921,-403.475C527.08,-393.136 471.57,-375.661 434.852,-364.102"/>
<polygon fill="midnightblue" stroke="midnightblue" points="435.618,-360.674 425.029,-361.009 433.516,-367.35 435.618,-360.674"/>
</g>
<!-- Node27 -->
<g id="node27" class="node"><title>Node27</title>
<g id="a_node27"><a xlink:href="_stream_encoder_8h.html" target="_top" xlink:title=" ">
<polygon fill="white" stroke="black" points="574.5,-342 574.5,-361 737.5,-361 737.5,-342 574.5,-342"/>
<text text-anchor="middle" x="656" y="-349" font-family="Helvetica,sans-Serif" font-size="10.00">Cpl/Text/Frame/StreamEncoder.h</text>
</a>
</g>
</g>
<!-- Node16&#45;&gt;Node27 -->
<g id="edge39" class="edge"><title>Node16&#45;&gt;Node27</title>
<path fill="none" stroke="midnightblue" d="M596.886,-403.475C607.646,-394.197 625.071,-379.171 638.221,-367.831"/>
<polygon fill="midnightblue" stroke="midnightblue" points="640.845,-370.19 646.132,-361.009 636.273,-364.889 640.845,-370.19"/>
</g>
<!-- Node30 -->
<g id="node30" class="node"><title>Node30</title>
<g id="a_node30"><a xlink:href="_mutex_8h.html" target="_top" xlink:title=" ">
<polygon fill="white" stroke="black" points="884,-112.5 884,-131.5 990,-131.5 990,-112.5 884,-112.5"/>
<text text-anchor="middle" x="937" y="-119.5" font-family="Helvetica,sans-Serif" font-size="10.00">Cpl/System/Mutex.h</text>
</a>
</g>
</g>
<!-- Node16&#45;&gt;Node30 -->
<g id="edge44" class="edge"><title>Node16&#45;&gt;Node30</title>
<path fill="none" stroke="midnightblue" d="M637.619,-409.245C713.717,-404.34 853.246,-392.152 896,-367 932.623,-345.455 954,-333.49 954,-291 954,-291 954,-291 954,-233 954,-200.583 946.7,-163.415 941.667,-141.644"/>
<polygon fill="midnightblue" stroke="midnightblue" points="945.034,-140.674 939.293,-131.769 938.228,-142.31 945.034,-140.674"/>
</g>
<!-- Node18 -->
<g id="node18" class="node"><title>Node18</title>
<g id="a_node18"><a xlink:href="_avl_tree___8h.html" target="_top" xlink:title=" ">
<polygon fill="white" stroke="black" points="41.5,-280.5 41.5,-299.5 166.5,-299.5 166.5,-280.5 41.5,-280.5"/>
<text text-anchor="middle" x="104" y="-287.5" font-family="Helvetica,sans-Serif" font-size="10.00">Cpl/Container/AvlTree_.h</text>
</a>
</g>
</g>
<!-- Node17&#45;&gt;Node18 -->
<g id="edge24" class="edge"><title>Node17&#45;&gt;Node18</title>
<path fill="none" stroke="midnightblue" d="M84.2953,-341.975C87.6087,-333.404 92.8182,-319.927 97.0486,-308.983"/>
<polygon fill="midnightblue" stroke="midnightblue" points="100.37,-310.098 100.711,-299.509 93.8406,-307.575 100.37,-310.098"/>
</g>
<!-- Node18&#45;&gt;Node2 -->
<g id="edge25" class="edge"><title>Node18&#45;&gt;Node2</title>
<path fill="none" stroke="midnightblue" d="M104,-280.442C104,-261.936 104,-216.813 104,-179 104,-179 104,-179 104,-121 104,-88.948 104,-51.6426 104,-29.7489"/>
<polygon fill="midnightblue" stroke="midnightblue" points="107.5,-29.5577 104,-19.5578 100.5,-29.5578 107.5,-29.5577"/>
</g>
<!-- Node19 -->
<g id="node19" class="node"><title>Node19</title>
<g id="a_node19"><a xlink:href="_map_item_8h.html" target="_top" xlink:title=" ">
<polygon fill="white" stroke="black" points="139.5,-224.5 139.5,-243.5 264.5,-243.5 264.5,-224.5 139.5,-224.5"/>
<text text-anchor="middle" x="202" y="-231.5" font-family="Helvetica,sans-Serif" font-size="10.00">Cpl/Container/MapItem.h</text>
</a>
</g>
</g>
<!-- Node18&#45;&gt;Node19 -->
<g id="edge26" class="edge"><title>Node18&#45;&gt;Node19</title>
<path fill="none" stroke="midnightblue" d="M119.745,-280.324C135.319,-271.743 159.377,-258.486 177.459,-248.522"/>
<polygon fill="midnightblue" stroke="midnightblue" points="179.224,-251.546 186.294,-243.655 175.846,-245.415 179.224,-251.546"/>
</g>
<!-- Node20 -->
<g id="node20" class="node"><title>Node20</title>
<g id="a_node20"><a xlink:href="_dict_item_8h.html" target="_top" xlink:title=" ">
<polygon fill="white" stroke="black" points="331.5,-168.5 331.5,-187.5 454.5,-187.5 454.5,-168.5 331.5,-168.5"/>
<text text-anchor="middle" x="393" y="-175.5" font-family="Helvetica,sans-Serif" font-size="10.00">Cpl/Container/DictItem.h</text>
</a>
</g>
</g>
<!-- Node19&#45;&gt;Node20 -->
<g id="edge27" class="edge"><title>Node19&#45;&gt;Node20</title>
<path fill="none" stroke="midnightblue" d="M232.265,-224.444C264.955,-215.201 317.182,-200.436 353.183,-190.257"/>
<polygon fill="midnightblue" stroke="midnightblue" points="354.206,-193.605 362.877,-187.516 352.302,-186.869 354.206,-193.605"/>
</g>
<!-- Node20&#45;&gt;Node6 -->
<g id="edge29" class="edge"><title>Node20&#45;&gt;Node6</title>
<path fill="none" stroke="midnightblue" d="M444.814,-168.444C502.815,-158.865 596.736,-143.356 658.435,-133.167"/>
<polygon fill="midnightblue" stroke="midnightblue" points="659.132,-136.599 668.428,-131.516 657.992,-129.693 659.132,-136.599"/>
</g>
<!-- Node20&#45;&gt;Node13 -->
<g id="edge28" class="edge"><title>Node20&#45;&gt;Node13</title>
<path fill="none" stroke="midnightblue" d="M408.424,-168.324C423.54,-159.822 446.815,-146.729 464.471,-136.797"/>
<polygon fill="midnightblue" stroke="midnightblue" points="466.614,-139.608 473.614,-131.655 463.183,-133.507 466.614,-139.608"/>
</g>
<!-- Node21&#45;&gt;Node4 -->
<g id="edge31" class="edge"><title>Node21&#45;&gt;Node4</title>
<path fill="none" stroke="midnightblue" d="M839.422,-341.819C836.031,-323.173 827.99,-278.943 823.388,-253.632"/>
<polygon fill="midnightblue" stroke="midnightblue" points="826.829,-252.995 821.597,-243.782 819.942,-254.247 826.829,-252.995"/>
</g>
<!-- Node22&#45;&gt;Node19 -->
<g id="edge33" class="edge"><title>Node22&#45;&gt;Node19</title>
<path fill="none" stroke="midnightblue" d="M222.18,-336.337C218.036,-315.527 210.297,-276.663 205.701,-253.583"/>
<polygon fill="midnightblue" stroke="midnightblue" points="209.112,-252.793 203.726,-243.669 202.247,-254.16 209.112,-252.793"/>
</g>
<!-- Node23&#45;&gt;Node3 -->
<g id="edge38" class="edge"><title>Node23&#45;&gt;Node3</title>
<path fill="none" stroke="midnightblue" d="M430.38,-341.975C470.238,-331.482 538.019,-313.637 581.888,-302.087"/>
<polygon fill="midnightblue" stroke="midnightblue" points="582.9,-305.44 591.68,-299.509 581.118,-298.67 582.9,-305.44"/>
</g>
<!-- Node24 -->
<g id="node24" class="node"><title>Node24</title>
<g id="a_node24"><a xlink:href="_decoder___8h.html" target="_top" xlink:title=" ">
<polygon fill="white" stroke="black" points="276.5,-280.5 276.5,-299.5 413.5,-299.5 413.5,-280.5 276.5,-280.5"/>
<text text-anchor="middle" x="345" y="-287.5" font-family="Helvetica,sans-Serif" font-size="10.00">Cpl/Text/Frame/Decoder_.h</text>
</a>
</g>
</g>
<!-- Node23&#45;&gt;Node24 -->
<g id="edge35" class="edge"><title>Node23&#45;&gt;Node24</title>
<path fill="none" stroke="midnightblue" d="M390.406,-341.975C382.299,-332.873 369.265,-318.241 359.237,-306.983"/>
<polygon fill="midnightblue" stroke="midnightblue" points="361.844,-304.648 352.58,-299.509 356.617,-309.304 361.844,-304.648"/>
</g>
<!-- Node25 -->
<g id="node25" class="node"><title>Node25</title>
<g id="a_node25"><a xlink:href="_decoder_8h.html" target="_top" xlink:title=" ">
<polygon fill="white" stroke="black" points="282.5,-224.5 282.5,-243.5 413.5,-243.5 413.5,-224.5 282.5,-224.5"/>
<text text-anchor="middle" x="348" y="-231.5" font-family="Helvetica,sans-Serif" font-size="10.00">Cpl/Text/Frame/Decoder.h</text>
</a>
</g>
</g>
<!-- Node24&#45;&gt;Node25 -->
<g id="edge36" class="edge"><title>Node24&#45;&gt;Node25</title>
<path fill="none" stroke="midnightblue" d="M345.495,-280.083C345.889,-273.006 346.452,-262.861 346.945,-253.986"/>
<polygon fill="midnightblue" stroke="midnightblue" points="350.454,-253.93 347.514,-243.751 343.464,-253.542 350.454,-253.93"/>
</g>
<!-- Node26 -->
<g id="node26" class="node"><title>Node26</title>
<g id="a_node26"><a xlink:title=" ">
<polygon fill="white" stroke="#bfbfbf" points="473,-168.5 473,-187.5 521,-187.5 521,-168.5 473,-168.5"/>
<text text-anchor="middle" x="497" y="-175.5" font-family="Helvetica,sans-Serif" font-size="10.00">stdlib.h</text>
</a>
</g>
</g>
<!-- Node25&#45;&gt;Node26 -->
<g id="edge37" class="edge"><title>Node25&#45;&gt;Node26</title>
<path fill="none" stroke="midnightblue" d="M371.609,-224.444C396.458,-215.438 435.774,-201.189 463.754,-191.049"/>
<polygon fill="midnightblue" stroke="midnightblue" points="465.292,-194.214 473.501,-187.516 462.907,-187.633 465.292,-194.214"/>
</g>
<!-- Node27&#45;&gt;Node15 -->
<g id="edge43" class="edge"><title>Node27&#45;&gt;Node15</title>
<path fill="none" stroke="midnightblue" d="M671.76,-341.975C689.976,-332.122 720.173,-315.788 741.468,-304.27"/>
<polygon fill="midnightblue" stroke="midnightblue" points="743.138,-307.345 750.269,-299.509 739.808,-301.188 743.138,-307.345"/>
</g>
<!-- Node28 -->
<g id="node28" class="node"><title>Node28</title>
<g id="a_node28"><a xlink:href="_encoder___8h.html" target="_top" xlink:title=" ">
<polygon fill="white" stroke="black" points="431.5,-280.5 431.5,-299.5 568.5,-299.5 568.5,-280.5 431.5,-280.5"/>
<text text-anchor="middle" x="500" y="-287.5" font-family="Helvetica,sans-Serif" font-size="10.00">Cpl/Text/Frame/Encoder_.h</text>
</a>
</g>
</g>
<!-- Node27&#45;&gt;Node28 -->
<g id="edge40" class="edge"><title>Node27&#45;&gt;Node28</title>
<path fill="none" stroke="midnightblue" d="M633.649,-341.975C607.005,-331.813 562.286,-314.756 531.986,-303.2"/>
<polygon fill="midnightblue" stroke="midnightblue" points="532.9,-299.803 522.31,-299.509 530.406,-306.343 532.9,-299.803"/>
</g>
<!-- Node29 -->
<g id="node29" class="node"><title>Node29</title>
<g id="a_node29"><a xlink:href="_encoder_8h.html" target="_top" xlink:title=" ">
<polygon fill="white" stroke="black" points="431.5,-224.5 431.5,-243.5 562.5,-243.5 562.5,-224.5 431.5,-224.5"/>
<text text-anchor="middle" x="497" y="-231.5" font-family="Helvetica,sans-Serif" font-size="10.00">Cpl/Text/Frame/Encoder.h</text>
</a>
</g>
</g>
<!-- Node28&#45;&gt;Node29 -->
<g id="edge41" class="edge"><title>Node28&#45;&gt;Node29</title>
<path fill="none" stroke="midnightblue" d="M499.505,-280.083C499.111,-273.006 498.548,-262.861 498.055,-253.986"/>
<polygon fill="midnightblue" stroke="midnightblue" points="501.536,-253.542 497.486,-243.751 494.546,-253.93 501.536,-253.542"/>
</g>
<!-- Node29&#45;&gt;Node26 -->
<g id="edge42" class="edge"><title>Node29&#45;&gt;Node26</title>
<path fill="none" stroke="midnightblue" d="M497,-224.083C497,-217.006 497,-206.861 497,-197.986"/>
<polygon fill="midnightblue" stroke="midnightblue" points="500.5,-197.751 497,-187.751 493.5,-197.751 500.5,-197.751"/>
</g>
<!-- Node30&#45;&gt;Node5 -->
<g id="edge45" class="edge"><title>Node30&#45;&gt;Node5</title>
<path fill="none" stroke="midnightblue" d="M921.255,-112.324C905.681,-103.743 881.623,-90.486 863.541,-80.5224"/>
<polygon fill="midnightblue" stroke="midnightblue" points="865.154,-77.4152 854.706,-75.6545 861.776,-83.546 865.154,-77.4152"/>
</g>
</g>
</svg>
