<?xml version="1.0" encoding="UTF-8" standalone="no"?>
<!DOCTYPE svg PUBLIC "-//W3C//DTD SVG 1.1//EN"
 "http://www.w3.org/Graphics/SVG/1.1/DTD/svg11.dtd">
<!-- Generated by graphviz version 2.38.0 (20140413.2041)
 -->
<!-- Title: Driver/PicoDisplay/Api.h Pages: 1 -->
<svg width="560pt" height="218pt"
 viewBox="0.00 0.00 559.50 218.00" xmlns="http://www.w3.org/2000/svg" xmlns:xlink="http://www.w3.org/1999/xlink">
<g id="graph0" class="graph" transform="scale(1 1) rotate(0) translate(4 214)">
<title>Driver/PicoDisplay/Api.h</title>
<polygon fill="white" stroke="none" points="-4,4 -4,-214 555.5,-214 555.5,4 -4,4"/>
<!-- Node1 -->
<g id="node1" class="node"><title>Node1</title>
<g id="a_node1"><a xlink:title=" ">
<polygon fill="#bfbfbf" stroke="black" points="195,-179.5 195,-209.5 292,-209.5 292,-179.5 195,-179.5"/>
<text text-anchor="start" x="203" y="-197.5" font-family="Helvetica,sans-Serif" font-size="10.00">Driver/PicoDisplay</text>
<text text-anchor="middle" x="243.5" y="-186.5" font-family="Helvetica,sans-Serif" font-size="10.00">/Api.h</text>
</a>
</g>
</g>
<!-- Node2 -->
<g id="node2" class="node"><title>Node2</title>
<g id="a_node2"><a xlink:title=" ">
<polygon fill="white" stroke="#bfbfbf" points="0,-112.5 0,-142.5 113,-142.5 113,-112.5 0,-112.5"/>
<text text-anchor="start" x="8" y="-130.5" font-family="Helvetica,sans-Serif" font-size="10.00">libraries/pico_graphics</text>
<text text-anchor="middle" x="56.5" y="-119.5" font-family="Helvetica,sans-Serif" font-size="10.00">/pico_graphics.hpp</text>
</a>
</g>
</g>
<!-- Node1&#45;&gt;Node2 -->
<g id="edge1" class="edge"><title>Node1&#45;&gt;Node2</title>
<path fill="none" stroke="midnightblue" d="M202.924,-179.396C174.621,-169.558 136.671,-156.367 106.498,-145.879"/>
<polygon fill="midnightblue" stroke="midnightblue" points="107.592,-142.554 96.997,-142.577 105.294,-149.166 107.592,-142.554"/>
</g>
<!-- Node3 -->
<g id="node3" class="node"><title>Node3</title>
<g id="a_node3"><a xlink:title=" ">
<polygon fill="white" stroke="#bfbfbf" points="131,-118 131,-137 216,-137 216,-118 131,-118"/>
<text text-anchor="middle" x="173.5" y="-125" font-family="Helvetica,sans-Serif" font-size="10.00">colony_config.h</text>
</a>
</g>
</g>
<!-- Node1&#45;&gt;Node3 -->
<g id="edge2" class="edge"><title>Node1&#45;&gt;Node3</title>
<path fill="none" stroke="midnightblue" d="M228.311,-179.396C217.18,-169.06 202.064,-155.024 190.525,-144.309"/>
<polygon fill="midnightblue" stroke="midnightblue" points="192.573,-141.434 182.863,-137.195 187.81,-146.564 192.573,-141.434"/>
</g>
<!-- Node4 -->
<g id="node4" class="node"><title>Node4</title>
<g id="a_node4"><a xlink:href="_polled_debounced_8h.html" target="_top" xlink:title=" ">
<polygon fill="white" stroke="black" points="234,-118 234,-137 395,-137 395,-118 234,-118"/>
<text text-anchor="middle" x="314.5" y="-125" font-family="Helvetica,sans-Serif" font-size="10.00">Driver/Button/PolledDebounced.h</text>
</a>
</g>
</g>
<!-- Node1&#45;&gt;Node4 -->
<g id="edge3" class="edge"><title>Node1&#45;&gt;Node4</title>
<path fill="none" stroke="midnightblue" d="M258.906,-179.396C270.305,-168.96 285.826,-154.751 297.572,-143.998"/>
<polygon fill="midnightblue" stroke="midnightblue" points="299.99,-146.529 305.003,-137.195 295.264,-141.366 299.99,-146.529"/>
</g>
<!-- Node7 -->
<g id="node7" class="node"><title>Node7</title>
<g id="a_node7"><a xlink:href="_red_green_blue_8h.html" target="_top" xlink:title=" ">
<polygon fill="white" stroke="black" points="413.5,-118 413.5,-137 551.5,-137 551.5,-118 413.5,-118"/>
<text text-anchor="middle" x="482.5" y="-125" font-family="Helvetica,sans-Serif" font-size="10.00">Driver/LED/RedGreenBlue.h</text>
</a>
</g>
</g>
<!-- Node1&#45;&gt;Node7 -->
<g id="edge6" class="edge"><title>Node1&#45;&gt;Node7</title>
<path fill="none" stroke="midnightblue" d="M292.153,-180.268C336.032,-168.334 399.856,-150.976 441.277,-139.711"/>
<polygon fill="midnightblue" stroke="midnightblue" points="442.311,-143.057 451.042,-137.056 440.474,-136.303 442.311,-143.057"/>
</g>
<!-- Node5 -->
<g id="node5" class="node"><title>Node5</title>
<g id="a_node5"><a xlink:href="_driver_2_button_2_hal_8h.html" target="_top" xlink:title="This file defines a hardware abstraction layer (HAL) for accessing a digital Input that is being used...">
<polygon fill="white" stroke="black" points="265,-56.5 265,-75.5 364,-75.5 364,-56.5 265,-56.5"/>
<text text-anchor="middle" x="314.5" y="-63.5" font-family="Helvetica,sans-Serif" font-size="10.00">Driver/Button/Hal.h</text>
</a>
</g>
</g>
<!-- Node4&#45;&gt;Node5 -->
<g id="edge4" class="edge"><title>Node4&#45;&gt;Node5</title>
<path fill="none" stroke="midnightblue" d="M314.5,-117.975C314.5,-109.58 314.5,-96.4806 314.5,-85.6631"/>
<polygon fill="midnightblue" stroke="midnightblue" points="318,-85.5091 314.5,-75.5091 311,-85.5091 318,-85.5091"/>
</g>
<!-- Node6 -->
<g id="node6" class="node"><title>Node6</title>
<g id="a_node6"><a xlink:title=" ">
<polygon fill="white" stroke="#bfbfbf" points="276,-0.5 276,-19.5 353,-19.5 353,-0.5 276,-0.5"/>
<text text-anchor="middle" x="314.5" y="-7.5" font-family="Helvetica,sans-Serif" font-size="10.00">colony_map.h</text>
</a>
</g>
</g>
<!-- Node5&#45;&gt;Node6 -->
<g id="edge5" class="edge"><title>Node5&#45;&gt;Node6</title>
<path fill="none" stroke="midnightblue" d="M314.5,-56.083C314.5,-49.0059 314.5,-38.8611 314.5,-29.9865"/>
<polygon fill="midnightblue" stroke="midnightblue" points="318,-29.751 314.5,-19.7511 311,-29.7511 318,-29.751"/>
</g>
<!-- Node8 -->
<g id="node8" class="node"><title>Node8</title>
<g id="a_node8"><a xlink:title=" ">
<polygon fill="white" stroke="#bfbfbf" points="458,-56.5 458,-75.5 507,-75.5 507,-56.5 458,-56.5"/>
<text text-anchor="middle" x="482.5" y="-63.5" font-family="Helvetica,sans-Serif" font-size="10.00">stdint.h</text>
</a>
</g>
</g>
<!-- Node7&#45;&gt;Node8 -->
<g id="edge7" class="edge"><title>Node7&#45;&gt;Node8</title>
<path fill="none" stroke="midnightblue" d="M482.5,-117.975C482.5,-109.58 482.5,-96.4806 482.5,-85.6631"/>
<polygon fill="midnightblue" stroke="midnightblue" points="486,-85.5091 482.5,-75.5091 479,-85.5091 486,-85.5091"/>
</g>
</g>
</svg>
