<?xml version="1.0" encoding="UTF-8" standalone="no"?>
<!DOCTYPE svg PUBLIC "-//W3C//DTD SVG 1.1//EN"
 "http://www.w3.org/Graphics/SVG/1.1/DTD/svg11.dtd">
<!-- Generated by graphviz version 2.38.0 (20140413.2041)
 -->
<!-- Title: Driver/PicoDisplay/RP2040/Api.h Pages: 1 -->
<svg width="337pt" height="95pt"
 viewBox="0.00 0.00 337.00 95.00" xmlns="http://www.w3.org/2000/svg" xmlns:xlink="http://www.w3.org/1999/xlink">
<g id="graph0" class="graph" transform="scale(1 1) rotate(0) translate(4 91)">
<title>Driver/PicoDisplay/RP2040/Api.h</title>
<polygon fill="white" stroke="none" points="-4,4 -4,-91 333,-91 333,4 -4,4"/>
<!-- Node1 -->
<g id="node1" class="node"><title>Node1</title>
<g id="a_node1"><a xlink:title="This file defines the interface for initializing the concrete implementation of the PicoDisplay drive...">
<polygon fill="#bfbfbf" stroke="black" points="112,-56.5 112,-86.5 209,-86.5 209,-56.5 112,-56.5"/>
<text text-anchor="start" x="120" y="-74.5" font-family="Helvetica,sans-Serif" font-size="10.00">Driver/PicoDisplay</text>
<text text-anchor="middle" x="160.5" y="-63.5" font-family="Helvetica,sans-Serif" font-size="10.00">/RP2040/Api.h</text>
</a>
</g>
</g>
<!-- Node2 -->
<g id="node2" class="node"><title>Node2</title>
<g id="a_node2"><a xlink:title=" ">
<polygon fill="white" stroke="#bfbfbf" points="0,-0.5 0,-19.5 85,-19.5 85,-0.5 0,-0.5"/>
<text text-anchor="middle" x="42.5" y="-7.5" font-family="Helvetica,sans-Serif" font-size="10.00">colony_config.h</text>
</a>
</g>
</g>
<!-- Node1&#45;&gt;Node2 -->
<g id="edge1" class="edge"><title>Node1&#45;&gt;Node2</title>
<path fill="none" stroke="midnightblue" d="M132.536,-56.3993C113.179,-46.6391 87.5924,-33.7373 68.6437,-24.1826"/>
<polygon fill="midnightblue" stroke="midnightblue" points="70.175,-21.035 59.67,-19.6578 67.0233,-27.2854 70.175,-21.035"/>
</g>
<!-- Node3 -->
<g id="node3" class="node"><title>Node3</title>
<g id="a_node3"><a xlink:title=" ">
<polygon fill="white" stroke="#bfbfbf" points="103,-0.5 103,-19.5 218,-19.5 218,-0.5 103,-0.5"/>
<text text-anchor="middle" x="160.5" y="-7.5" font-family="Helvetica,sans-Serif" font-size="10.00">pimoroni_common.hpp</text>
</a>
</g>
</g>
<!-- Node1&#45;&gt;Node3 -->
<g id="edge2" class="edge"><title>Node1&#45;&gt;Node3</title>
<path fill="none" stroke="midnightblue" d="M160.5,-56.3993C160.5,-48.4664 160.5,-38.458 160.5,-29.8583"/>
<polygon fill="midnightblue" stroke="midnightblue" points="164,-29.6577 160.5,-19.6578 157,-29.6578 164,-29.6577"/>
</g>
<!-- Node4 -->
<g id="node4" class="node"><title>Node4</title>
<g id="a_node4"><a xlink:title=" ">
<polygon fill="white" stroke="#bfbfbf" points="236,-0.5 236,-19.5 329,-19.5 329,-0.5 236,-0.5"/>
<text text-anchor="middle" x="282.5" y="-7.5" font-family="Helvetica,sans-Serif" font-size="10.00">pimoroni_bus.hpp</text>
</a>
</g>
</g>
<!-- Node1&#45;&gt;Node4 -->
<g id="edge3" class="edge"><title>Node1&#45;&gt;Node4</title>
<path fill="none" stroke="midnightblue" d="M189.412,-56.3993C209.516,-46.5945 236.121,-33.6194 255.738,-24.052"/>
<polygon fill="midnightblue" stroke="midnightblue" points="257.294,-27.1872 264.748,-19.6578 254.226,-20.8955 257.294,-27.1872"/>
</g>
</g>
</svg>
