<?xml version="1.0" encoding="UTF-8" standalone="no"?>
<!DOCTYPE svg PUBLIC "-//W3C//DTD SVG 1.1//EN"
 "http://www.w3.org/Graphics/SVG/1.1/DTD/svg11.dtd">
<!-- Generated by graphviz version 2.38.0 (20140413.2041)
 -->
<!-- Title: Driver/TPipe/Maker.h Pages: 1 -->
<svg width="1051pt" height="487pt"
 viewBox="0.00 0.00 1050.50 487.00" xmlns="http://www.w3.org/2000/svg" xmlns:xlink="http://www.w3.org/1999/xlink">
<g id="graph0" class="graph" transform="scale(1 1) rotate(0) translate(4 483)">
<title>Driver/TPipe/Maker.h</title>
<polygon fill="white" stroke="none" points="-4,4 -4,-483 1046.5,-483 1046.5,4 -4,4"/>
<!-- Node1 -->
<g id="node1" class="node"><title>Node1</title>
<g id="a_node1"><a xlink:title=" ">
<polygon fill="#bfbfbf" stroke="black" points="760,-459.5 760,-478.5 869,-478.5 869,-459.5 760,-459.5"/>
<text text-anchor="middle" x="814.5" y="-466.5" font-family="Helvetica,sans-Serif" font-size="10.00">Driver/TPipe/Maker.h</text>
</a>
</g>
</g>
<!-- Node2 -->
<g id="node2" class="node"><title>Node2</title>
<g id="a_node2"><a xlink:title=" ">
<polygon fill="white" stroke="#bfbfbf" points="909,-0.5 909,-19.5 994,-19.5 994,-0.5 909,-0.5"/>
<text text-anchor="middle" x="951.5" y="-7.5" font-family="Helvetica,sans-Serif" font-size="10.00">colony_config.h</text>
</a>
</g>
</g>
<!-- Node1&#45;&gt;Node2 -->
<g id="edge1" class="edge"><title>Node1&#45;&gt;Node2</title>
<path fill="none" stroke="midnightblue" d="M869.112,-463.878C936.563,-455.466 1042.5,-429.93 1042.5,-352.5 1042.5,-352.5 1042.5,-352.5 1042.5,-121 1042.5,-78.4684 1001.61,-43.5303 974.651,-25.1161"/>
<polygon fill="midnightblue" stroke="midnightblue" points="976.401,-22.0787 966.121,-19.5177 972.56,-27.9308 976.401,-22.0787"/>
</g>
<!-- Node3 -->
<g id="node3" class="node"><title>Node3</title>
<g id="a_node3"><a xlink:href="_pipe_8h.html" target="_top" xlink:title=" ">
<polygon fill="white" stroke="black" points="536,-403.5 536,-422.5 637,-422.5 637,-403.5 536,-403.5"/>
<text text-anchor="middle" x="586.5" y="-410.5" font-family="Helvetica,sans-Serif" font-size="10.00">Driver/TPipe/Pipe.h</text>
</a>
</g>
</g>
<!-- Node1&#45;&gt;Node3 -->
<g id="edge2" class="edge"><title>Node1&#45;&gt;Node3</title>
<path fill="none" stroke="midnightblue" d="M778.373,-459.444C738.849,-450.083 675.403,-435.056 632.387,-424.868"/>
<polygon fill="midnightblue" stroke="midnightblue" points="632.996,-421.415 622.458,-422.516 631.382,-428.227 632.996,-421.415"/>
</g>
<!-- Node4 -->
<g id="node4" class="node"><title>Node4</title>
<g id="a_node4"><a xlink:href="_map_8h.html" target="_top" xlink:title=" ">
<polygon fill="white" stroke="black" points="894,-342 894,-361 999,-361 999,-342 894,-342"/>
<text text-anchor="middle" x="946.5" y="-349" font-family="Helvetica,sans-Serif" font-size="10.00">Cpl/Container/Map.h</text>
</a>
</g>
</g>
<!-- Node3&#45;&gt;Node4 -->
<g id="edge3" class="edge"><title>Node3&#45;&gt;Node4</title>
<path fill="none" stroke="midnightblue" d="M637.076,-404.781C694.677,-396.401 791.554,-381.825 874.5,-367 881.331,-365.779 888.512,-364.422 895.584,-363.042"/>
<polygon fill="midnightblue" stroke="midnightblue" points="896.686,-366.392 905.816,-361.016 895.327,-359.525 896.686,-366.392"/>
</g>
<!-- Node17 -->
<g id="node17" class="node"><title>Node17</title>
<g id="a_node17"><a xlink:href="_tx_8h.html" target="_top" xlink:title=" ">
<polygon fill="white" stroke="black" points="0,-112.5 0,-131.5 93,-131.5 93,-112.5 0,-112.5"/>
<text text-anchor="middle" x="46.5" y="-119.5" font-family="Helvetica,sans-Serif" font-size="10.00">Driver/TPipe/Tx.h</text>
</a>
</g>
</g>
<!-- Node3&#45;&gt;Node17 -->
<g id="edge20" class="edge"><title>Node3&#45;&gt;Node17</title>
<path fill="none" stroke="midnightblue" d="M535.596,-410.932C404.499,-406.808 65.5,-386.877 65.5,-291 65.5,-291 65.5,-291 65.5,-233 65.5,-200.489 57.341,-163.35 51.7162,-141.61"/>
<polygon fill="midnightblue" stroke="midnightblue" points="55.0414,-140.498 49.0624,-131.751 48.282,-142.317 55.0414,-140.498"/>
</g>
<!-- Node18 -->
<g id="node18" class="node"><title>Node18</title>
<g id="a_node18"><a xlink:href="_rx_frame_handler_api_8h.html" target="_top" xlink:title=" ">
<polygon fill="white" stroke="black" points="686.5,-336.5 686.5,-366.5 832.5,-366.5 832.5,-336.5 686.5,-336.5"/>
<text text-anchor="start" x="694.5" y="-354.5" font-family="Helvetica,sans-Serif" font-size="10.00">Driver/TPipe/RxFrameHandler</text>
<text text-anchor="middle" x="759.5" y="-343.5" font-family="Helvetica,sans-Serif" font-size="10.00">Api.h</text>
</a>
</g>
</g>
<!-- Node3&#45;&gt;Node18 -->
<g id="edge22" class="edge"><title>Node3&#45;&gt;Node18</title>
<path fill="none" stroke="midnightblue" d="M611.287,-403.475C636.688,-394.739 676.904,-380.907 709.039,-369.855"/>
<polygon fill="midnightblue" stroke="midnightblue" points="710.409,-373.085 718.727,-366.523 708.133,-366.466 710.409,-373.085"/>
</g>
<!-- Node19 -->
<g id="node19" class="node"><title>Node19</title>
<g id="a_node19"><a xlink:href="_stream_decoder_8h.html" target="_top" xlink:title=" ">
<polygon fill="white" stroke="black" points="505,-342 505,-361 668,-361 668,-342 505,-342"/>
<text text-anchor="middle" x="586.5" y="-349" font-family="Helvetica,sans-Serif" font-size="10.00">Cpl/Text/Frame/StreamDecoder.h</text>
</a>
</g>
</g>
<!-- Node3&#45;&gt;Node19 -->
<g id="edge24" class="edge"><title>Node3&#45;&gt;Node19</title>
<path fill="none" stroke="midnightblue" d="M586.5,-403.475C586.5,-395.08 586.5,-381.981 586.5,-371.163"/>
<polygon fill="midnightblue" stroke="midnightblue" points="590,-371.009 586.5,-361.009 583,-371.009 590,-371.009"/>
</g>
<!-- Node23 -->
<g id="node23" class="node"><title>Node23</title>
<g id="a_node23"><a xlink:href="_input_8h.html" target="_top" xlink:title=" ">
<polygon fill="white" stroke="black" points="318,-280.5 318,-299.5 393,-299.5 393,-280.5 318,-280.5"/>
<text text-anchor="middle" x="355.5" y="-287.5" font-family="Helvetica,sans-Serif" font-size="10.00">Cpl/Io/Input.h</text>
</a>
</g>
</g>
<!-- Node3&#45;&gt;Node23 -->
<g id="edge44" class="edge"><title>Node3&#45;&gt;Node23</title>
<path fill="none" stroke="midnightblue" d="M565.954,-403.348C547.061,-395.046 518.567,-381.636 495.5,-367 476.804,-355.137 475.43,-347.486 456.5,-336 434.921,-322.907 408.865,-311.393 388.624,-303.289"/>
<polygon fill="midnightblue" stroke="midnightblue" points="389.786,-299.986 379.199,-299.593 387.231,-306.502 389.786,-299.986"/>
</g>
<!-- Node26 -->
<g id="node26" class="node"><title>Node26</title>
<g id="a_node26"><a xlink:href="_stream_encoder_8h.html" target="_top" xlink:title=" ">
<polygon fill="white" stroke="black" points="285,-342 285,-361 448,-361 448,-342 285,-342"/>
<text text-anchor="middle" x="366.5" y="-349" font-family="Helvetica,sans-Serif" font-size="10.00">Cpl/Text/Frame/StreamEncoder.h</text>
</a>
</g>
</g>
<!-- Node3&#45;&gt;Node26 -->
<g id="edge33" class="edge"><title>Node3&#45;&gt;Node26</title>
<path fill="none" stroke="midnightblue" d="M554.979,-403.475C516.261,-393.004 450.476,-375.212 407.764,-363.66"/>
<polygon fill="midnightblue" stroke="midnightblue" points="408.529,-360.241 397.962,-361.009 406.702,-366.999 408.529,-360.241"/>
</g>
<!-- Node29 -->
<g id="node29" class="node"><title>Node29</title>
<g id="a_node29"><a xlink:href="_output_8h.html" target="_top" xlink:title=" ">
<polygon fill="white" stroke="black" points="193,-280.5 193,-299.5 276,-299.5 276,-280.5 193,-280.5"/>
<text text-anchor="middle" x="234.5" y="-287.5" font-family="Helvetica,sans-Serif" font-size="10.00">Cpl/Io/Output.h</text>
</a>
</g>
</g>
<!-- Node3&#45;&gt;Node29 -->
<g id="edge45" class="edge"><title>Node3&#45;&gt;Node29</title>
<path fill="none" stroke="midnightblue" d="M535.985,-410.13C458.918,-406.389 316.586,-395.709 275.5,-367 255.96,-353.347 244.876,-327.336 239.282,-309.585"/>
<polygon fill="midnightblue" stroke="midnightblue" points="242.595,-308.437 236.482,-299.784 235.864,-310.36 242.595,-308.437"/>
</g>
<!-- Node30 -->
<g id="node30" class="node"><title>Node30</title>
<g id="a_node30"><a xlink:href="_mutex_8h.html" target="_top" xlink:title=" ">
<polygon fill="white" stroke="black" points="769.5,-168.5 769.5,-187.5 875.5,-187.5 875.5,-168.5 769.5,-168.5"/>
<text text-anchor="middle" x="822.5" y="-175.5" font-family="Helvetica,sans-Serif" font-size="10.00">Cpl/System/Mutex.h</text>
</a>
</g>
</g>
<!-- Node3&#45;&gt;Node30 -->
<g id="edge42" class="edge"><title>Node3&#45;&gt;Node30</title>
<path fill="none" stroke="midnightblue" d="M637.274,-410.163C703.697,-406.61 814.79,-396.334 841.5,-367 884.395,-319.893 869.488,-285.119 851.5,-224 848.488,-213.765 842.345,-203.66 836.486,-195.627"/>
<polygon fill="midnightblue" stroke="midnightblue" points="839.086,-193.269 830.173,-187.541 833.568,-197.577 839.086,-193.269"/>
</g>
<!-- Node5 -->
<g id="node5" class="node"><title>Node5</title>
<g id="a_node5"><a xlink:href="_avl_tree___8h.html" target="_top" xlink:title=" ">
<polygon fill="white" stroke="black" points="889,-280.5 889,-299.5 1014,-299.5 1014,-280.5 889,-280.5"/>
<text text-anchor="middle" x="951.5" y="-287.5" font-family="Helvetica,sans-Serif" font-size="10.00">Cpl/Container/AvlTree_.h</text>
</a>
</g>
</g>
<!-- Node4&#45;&gt;Node5 -->
<g id="edge4" class="edge"><title>Node4&#45;&gt;Node5</title>
<path fill="none" stroke="midnightblue" d="M947.216,-341.975C947.922,-333.58 949.023,-320.481 949.932,-309.663"/>
<polygon fill="midnightblue" stroke="midnightblue" points="953.435,-309.767 950.785,-299.509 946.46,-309.181 953.435,-309.767"/>
</g>
<!-- Node5&#45;&gt;Node2 -->
<g id="edge5" class="edge"><title>Node5&#45;&gt;Node2</title>
<path fill="none" stroke="midnightblue" d="M951.5,-280.442C951.5,-261.936 951.5,-216.813 951.5,-179 951.5,-179 951.5,-179 951.5,-121 951.5,-88.948 951.5,-51.6426 951.5,-29.7489"/>
<polygon fill="midnightblue" stroke="midnightblue" points="955,-29.5577 951.5,-19.5578 948,-29.5578 955,-29.5577"/>
</g>
<!-- Node6 -->
<g id="node6" class="node"><title>Node6</title>
<g id="a_node6"><a xlink:href="_map_item_8h.html" target="_top" xlink:title=" ">
<polygon fill="white" stroke="black" points="718,-224.5 718,-243.5 843,-243.5 843,-224.5 718,-224.5"/>
<text text-anchor="middle" x="780.5" y="-231.5" font-family="Helvetica,sans-Serif" font-size="10.00">Cpl/Container/MapItem.h</text>
</a>
</g>
</g>
<!-- Node5&#45;&gt;Node6 -->
<g id="edge6" class="edge"><title>Node5&#45;&gt;Node6</title>
<path fill="none" stroke="midnightblue" d="M924.405,-280.444C895.512,-271.32 849.575,-256.813 817.395,-246.651"/>
<polygon fill="midnightblue" stroke="midnightblue" points="818.059,-243.19 807.469,-243.516 815.951,-249.865 818.059,-243.19"/>
</g>
<!-- Node7 -->
<g id="node7" class="node"><title>Node7</title>
<g id="a_node7"><a xlink:href="_dict_item_8h.html" target="_top" xlink:title=" ">
<polygon fill="white" stroke="black" points="528,-168.5 528,-187.5 651,-187.5 651,-168.5 528,-168.5"/>
<text text-anchor="middle" x="589.5" y="-175.5" font-family="Helvetica,sans-Serif" font-size="10.00">Cpl/Container/DictItem.h</text>
</a>
</g>
</g>
<!-- Node6&#45;&gt;Node7 -->
<g id="edge7" class="edge"><title>Node6&#45;&gt;Node7</title>
<path fill="none" stroke="midnightblue" d="M750.235,-224.444C717.545,-215.201 665.318,-200.436 629.317,-190.257"/>
<polygon fill="midnightblue" stroke="midnightblue" points="630.198,-186.869 619.623,-187.516 628.294,-193.605 630.198,-186.869"/>
</g>
<!-- Node8 -->
<g id="node8" class="node"><title>Node8</title>
<g id="a_node8"><a xlink:href="_item_8h.html" target="_top" xlink:title=" ">
<polygon fill="white" stroke="black" points="257.5,-112.5 257.5,-131.5 363.5,-131.5 363.5,-112.5 257.5,-112.5"/>
<text text-anchor="middle" x="310.5" y="-119.5" font-family="Helvetica,sans-Serif" font-size="10.00">Cpl/Container/Item.h</text>
</a>
</g>
</g>
<!-- Node7&#45;&gt;Node8 -->
<g id="edge8" class="edge"><title>Node7&#45;&gt;Node8</title>
<path fill="none" stroke="midnightblue" d="M545.292,-168.444C496.213,-158.944 416.99,-143.611 364.336,-133.42"/>
<polygon fill="midnightblue" stroke="midnightblue" points="364.984,-129.98 354.502,-131.516 363.654,-136.853 364.984,-129.98"/>
</g>
<!-- Node9 -->
<g id="node9" class="node"><title>Node9</title>
<g id="a_node9"><a xlink:href="_key_8h.html" target="_top" xlink:title=" ">
<polygon fill="white" stroke="black" points="507.5,-112.5 507.5,-131.5 611.5,-131.5 611.5,-112.5 507.5,-112.5"/>
<text text-anchor="middle" x="559.5" y="-119.5" font-family="Helvetica,sans-Serif" font-size="10.00">Cpl/Container/Key.h</text>
</a>
</g>
</g>
<!-- Node7&#45;&gt;Node9 -->
<g id="edge9" class="edge"><title>Node7&#45;&gt;Node9</title>
<path fill="none" stroke="midnightblue" d="M584.546,-168.083C580.396,-160.613 574.347,-149.724 569.233,-140.52"/>
<polygon fill="midnightblue" stroke="midnightblue" points="572.278,-138.793 564.362,-131.751 566.159,-142.192 572.278,-138.793"/>
</g>
<!-- Node10 -->
<g id="node10" class="node"><title>Node10</title>
<g id="a_node10"><a xlink:href="_fatal_error_8h.html" target="_top" xlink:title=" ">
<polygon fill="white" stroke="black" points="769.5,-56.5 769.5,-75.5 891.5,-75.5 891.5,-56.5 769.5,-56.5"/>
<text text-anchor="middle" x="830.5" y="-63.5" font-family="Helvetica,sans-Serif" font-size="10.00">Cpl/System/FatalError.h</text>
</a>
</g>
</g>
<!-- Node9&#45;&gt;Node10 -->
<g id="edge10" class="edge"><title>Node9&#45;&gt;Node10</title>
<path fill="none" stroke="midnightblue" d="M602.441,-112.444C650.013,-102.964 726.744,-87.6747 777.889,-77.4835"/>
<polygon fill="midnightblue" stroke="midnightblue" points="778.637,-80.9032 787.76,-75.5164 777.269,-74.0382 778.637,-80.9032"/>
</g>
<!-- Node12 -->
<g id="node12" class="node"><title>Node12</title>
<g id="a_node12"><a xlink:title=" ">
<polygon fill="white" stroke="#bfbfbf" points="561,-56.5 561,-75.5 610,-75.5 610,-56.5 561,-56.5"/>
<text text-anchor="middle" x="585.5" y="-63.5" font-family="Helvetica,sans-Serif" font-size="10.00">stdint.h</text>
</a>
</g>
</g>
<!-- Node9&#45;&gt;Node12 -->
<g id="edge13" class="edge"><title>Node9&#45;&gt;Node12</title>
<path fill="none" stroke="midnightblue" d="M563.793,-112.083C567.352,-104.691 572.522,-93.9533 576.924,-84.8111"/>
<polygon fill="midnightblue" stroke="midnightblue" points="580.102,-86.2795 581.287,-75.7511 573.795,-83.2427 580.102,-86.2795"/>
</g>
<!-- Node13 -->
<g id="node13" class="node"><title>Node13</title>
<g id="a_node13"><a xlink:href="_string_8h.html" target="_top" xlink:title=" ">
<polygon fill="white" stroke="black" points="367,-56.5 367,-75.5 416,-75.5 416,-56.5 367,-56.5"/>
<text text-anchor="middle" x="391.5" y="-63.5" font-family="Helvetica,sans-Serif" font-size="10.00">string.h</text>
</a>
</g>
</g>
<!-- Node9&#45;&gt;Node13 -->
<g id="edge14" class="edge"><title>Node9&#45;&gt;Node13</title>
<path fill="none" stroke="midnightblue" d="M527.791,-112.444C497.536,-103.359 452.472,-88.9388 422.47,-78.7831"/>
<polygon fill="midnightblue" stroke="midnightblue" points="423.51,-75.44 412.916,-75.5164 421.245,-82.0635 423.51,-75.44"/>
</g>
<!-- Node14 -->
<g id="node14" class="node"><title>Node14</title>
<g id="a_node14"><a xlink:title=" ">
<polygon fill="white" stroke="#bfbfbf" points="494,-0.5 494,-19.5 571,-19.5 571,-0.5 494,-0.5"/>
<text text-anchor="middle" x="532.5" y="-7.5" font-family="Helvetica,sans-Serif" font-size="10.00">colony_map.h</text>
</a>
</g>
</g>
<!-- Node9&#45;&gt;Node14 -->
<g id="edge19" class="edge"><title>Node9&#45;&gt;Node14</title>
<path fill="none" stroke="midnightblue" d="M557.381,-112.368C553.024,-94.617 542.973,-53.6664 537.065,-29.5974"/>
<polygon fill="midnightblue" stroke="midnightblue" points="540.392,-28.4688 534.609,-19.5914 533.594,-30.1375 540.392,-28.4688"/>
</g>
<!-- Node10&#45;&gt;Node2 -->
<g id="edge12" class="edge"><title>Node10&#45;&gt;Node2</title>
<path fill="none" stroke="midnightblue" d="M849.673,-56.4435C869.409,-47.6356 900.385,-33.8116 922.993,-23.722"/>
<polygon fill="midnightblue" stroke="midnightblue" points="924.711,-26.788 932.417,-19.5164 921.859,-20.3957 924.711,-26.788"/>
</g>
<!-- Node11 -->
<g id="node11" class="node"><title>Node11</title>
<g id="a_node11"><a xlink:title=" ">
<polygon fill="white" stroke="#bfbfbf" points="804.5,-0.5 804.5,-19.5 856.5,-19.5 856.5,-0.5 804.5,-0.5"/>
<text text-anchor="middle" x="830.5" y="-7.5" font-family="Helvetica,sans-Serif" font-size="10.00">stddef.h</text>
</a>
</g>
</g>
<!-- Node10&#45;&gt;Node11 -->
<g id="edge11" class="edge"><title>Node10&#45;&gt;Node11</title>
<path fill="none" stroke="midnightblue" d="M830.5,-56.083C830.5,-49.0059 830.5,-38.8611 830.5,-29.9865"/>
<polygon fill="midnightblue" stroke="midnightblue" points="834,-29.751 830.5,-19.7511 827,-29.7511 834,-29.751"/>
</g>
<!-- Node13&#45;&gt;Node9 -->
<g id="edge16" class="edge"><title>Node13&#45;&gt;Node9</title>
<path fill="none" stroke="midnightblue" d="M416.244,-73.4826C446.021,-82.2661 495.683,-98.107 528.098,-109.07"/>
<polygon fill="midnightblue" stroke="midnightblue" points="527.374,-112.522 537.969,-112.444 529.638,-105.898 527.374,-112.522"/>
</g>
<!-- Node13&#45;&gt;Node14 -->
<g id="edge15" class="edge"><title>Node13&#45;&gt;Node14</title>
<path fill="none" stroke="midnightblue" d="M413.842,-56.4435C437.253,-47.4776 474.236,-33.314 500.69,-23.1827"/>
<polygon fill="midnightblue" stroke="midnightblue" points="502.176,-26.3615 510.263,-19.5164 499.672,-19.8245 502.176,-26.3615"/>
</g>
<!-- Node15 -->
<g id="node15" class="node"><title>Node15</title>
<g id="a_node15"><a xlink:title=" ">
<polygon fill="white" stroke="#bfbfbf" points="195.5,-0.5 195.5,-19.5 247.5,-19.5 247.5,-0.5 195.5,-0.5"/>
<text text-anchor="middle" x="221.5" y="-7.5" font-family="Helvetica,sans-Serif" font-size="10.00">stdarg.h</text>
</a>
</g>
</g>
<!-- Node13&#45;&gt;Node15 -->
<g id="edge17" class="edge"><title>Node13&#45;&gt;Node15</title>
<path fill="none" stroke="midnightblue" d="M366.781,-57.1479C337.989,-48.0023 290.185,-32.8177 257.326,-22.38"/>
<polygon fill="midnightblue" stroke="midnightblue" points="258.236,-18.9968 247.646,-19.3051 256.117,-25.6683 258.236,-18.9968"/>
</g>
<!-- Node16 -->
<g id="node16" class="node"><title>Node16</title>
<g id="a_node16"><a xlink:title=" ">
<polygon fill="white" stroke="#bfbfbf" points="364.5,-0.5 364.5,-19.5 418.5,-19.5 418.5,-0.5 364.5,-0.5"/>
<text text-anchor="middle" x="391.5" y="-7.5" font-family="Helvetica,sans-Serif" font-size="10.00">iostream</text>
</a>
</g>
</g>
<!-- Node13&#45;&gt;Node16 -->
<g id="edge18" class="edge"><title>Node13&#45;&gt;Node16</title>
<path fill="none" stroke="midnightblue" d="M391.5,-56.083C391.5,-49.0059 391.5,-38.8611 391.5,-29.9865"/>
<polygon fill="midnightblue" stroke="midnightblue" points="395,-29.751 391.5,-19.7511 388,-29.7511 395,-29.751"/>
</g>
<!-- Node17&#45;&gt;Node13 -->
<g id="edge21" class="edge"><title>Node17&#45;&gt;Node13</title>
<path fill="none" stroke="midnightblue" d="M93.0282,-113.717C163.097,-102.75 294.138,-82.2393 356.624,-72.4588"/>
<polygon fill="midnightblue" stroke="midnightblue" points="357.417,-75.8774 366.756,-70.873 356.335,-68.9616 357.417,-75.8774"/>
</g>
<!-- Node18&#45;&gt;Node6 -->
<g id="edge23" class="edge"><title>Node18&#45;&gt;Node6</title>
<path fill="none" stroke="midnightblue" d="M762.075,-336.337C765.859,-315.527 772.925,-276.663 777.121,-253.583"/>
<polygon fill="midnightblue" stroke="midnightblue" points="780.578,-254.134 778.924,-243.669 773.691,-252.882 780.578,-254.134"/>
</g>
<!-- Node20 -->
<g id="node20" class="node"><title>Node20</title>
<g id="a_node20"><a xlink:href="_decoder___8h.html" target="_top" xlink:title=" ">
<polygon fill="white" stroke="black" points="566,-280.5 566,-299.5 703,-299.5 703,-280.5 566,-280.5"/>
<text text-anchor="middle" x="634.5" y="-287.5" font-family="Helvetica,sans-Serif" font-size="10.00">Cpl/Text/Frame/Decoder_.h</text>
</a>
</g>
</g>
<!-- Node19&#45;&gt;Node20 -->
<g id="edge25" class="edge"><title>Node19&#45;&gt;Node20</title>
<path fill="none" stroke="midnightblue" d="M593.377,-341.975C600.649,-332.962 612.295,-318.525 621.341,-307.312"/>
<polygon fill="midnightblue" stroke="midnightblue" points="624.081,-309.49 627.636,-299.509 618.633,-305.095 624.081,-309.49"/>
</g>
<!-- Node19&#45;&gt;Node23 -->
<g id="edge28" class="edge"><title>Node19&#45;&gt;Node23</title>
<path fill="none" stroke="midnightblue" d="M553.403,-341.975C512.578,-331.459 443.092,-313.562 398.261,-302.014"/>
<polygon fill="midnightblue" stroke="midnightblue" points="399.092,-298.614 388.535,-299.509 397.346,-305.393 399.092,-298.614"/>
</g>
<!-- Node21 -->
<g id="node21" class="node"><title>Node21</title>
<g id="a_node21"><a xlink:href="_decoder_8h.html" target="_top" xlink:title=" ">
<polygon fill="white" stroke="black" points="569,-224.5 569,-243.5 700,-243.5 700,-224.5 569,-224.5"/>
<text text-anchor="middle" x="634.5" y="-231.5" font-family="Helvetica,sans-Serif" font-size="10.00">Cpl/Text/Frame/Decoder.h</text>
</a>
</g>
</g>
<!-- Node20&#45;&gt;Node21 -->
<g id="edge26" class="edge"><title>Node20&#45;&gt;Node21</title>
<path fill="none" stroke="midnightblue" d="M634.5,-280.083C634.5,-273.006 634.5,-262.861 634.5,-253.986"/>
<polygon fill="midnightblue" stroke="midnightblue" points="638,-253.751 634.5,-243.751 631,-253.751 638,-253.751"/>
</g>
<!-- Node22 -->
<g id="node22" class="node"><title>Node22</title>
<g id="a_node22"><a xlink:title=" ">
<polygon fill="white" stroke="#bfbfbf" points="461.5,-168.5 461.5,-187.5 509.5,-187.5 509.5,-168.5 461.5,-168.5"/>
<text text-anchor="middle" x="485.5" y="-175.5" font-family="Helvetica,sans-Serif" font-size="10.00">stdlib.h</text>
</a>
</g>
</g>
<!-- Node21&#45;&gt;Node22 -->
<g id="edge27" class="edge"><title>Node21&#45;&gt;Node22</title>
<path fill="none" stroke="midnightblue" d="M610.891,-224.444C586.042,-215.438 546.726,-201.189 518.746,-191.049"/>
<polygon fill="midnightblue" stroke="midnightblue" points="519.593,-187.633 508.999,-187.516 517.208,-194.214 519.593,-187.633"/>
</g>
<!-- Node23&#45;&gt;Node13 -->
<g id="edge29" class="edge"><title>Node23&#45;&gt;Node13</title>
<path fill="none" stroke="midnightblue" d="M359.571,-280.245C363.535,-271.327 369.401,-256.998 372.5,-244 385.971,-187.505 389.903,-118.575 391.042,-85.9085"/>
<polygon fill="midnightblue" stroke="midnightblue" points="394.549,-85.704 391.347,-75.6046 387.552,-85.4964 394.549,-85.704"/>
</g>
<!-- Node24 -->
<g id="node24" class="node"><title>Node24</title>
<g id="a_node24"><a xlink:href="_close_8h.html" target="_top" xlink:title=" ">
<polygon fill="white" stroke="black" points="285.5,-224.5 285.5,-243.5 363.5,-243.5 363.5,-224.5 285.5,-224.5"/>
<text text-anchor="middle" x="324.5" y="-231.5" font-family="Helvetica,sans-Serif" font-size="10.00">Cpl/Io/Close.h</text>
</a>
</g>
</g>
<!-- Node23&#45;&gt;Node24 -->
<g id="edge30" class="edge"><title>Node23&#45;&gt;Node24</title>
<path fill="none" stroke="midnightblue" d="M350.381,-280.083C346.092,-272.613 339.842,-261.724 334.558,-252.52"/>
<polygon fill="midnightblue" stroke="midnightblue" points="337.538,-250.681 329.524,-243.751 331.467,-254.166 337.538,-250.681"/>
</g>
<!-- Node25 -->
<g id="node25" class="node"><title>Node25</title>
<g id="a_node25"><a xlink:href="_is_eos_8h.html" target="_top" xlink:title=" ">
<polygon fill="white" stroke="black" points="188,-224.5 188,-243.5 267,-243.5 267,-224.5 188,-224.5"/>
<text text-anchor="middle" x="227.5" y="-231.5" font-family="Helvetica,sans-Serif" font-size="10.00">Cpl/Io/IsEos.h</text>
</a>
</g>
</g>
<!-- Node23&#45;&gt;Node25 -->
<g id="edge32" class="edge"><title>Node23&#45;&gt;Node25</title>
<path fill="none" stroke="midnightblue" d="M335.218,-280.444C314.153,-271.557 280.983,-257.563 257.014,-247.451"/>
<polygon fill="midnightblue" stroke="midnightblue" points="258.261,-244.179 247.687,-243.516 255.54,-250.628 258.261,-244.179"/>
</g>
<!-- Node24&#45;&gt;Node8 -->
<g id="edge31" class="edge"><title>Node24&#45;&gt;Node8</title>
<path fill="none" stroke="midnightblue" d="M323.401,-224.368C321.142,-206.617 315.93,-165.666 312.867,-141.597"/>
<polygon fill="midnightblue" stroke="midnightblue" points="316.328,-141.069 311.593,-131.591 309.384,-141.953 316.328,-141.069"/>
</g>
<!-- Node27 -->
<g id="node27" class="node"><title>Node27</title>
<g id="a_node27"><a xlink:href="_encoder___8h.html" target="_top" xlink:title=" ">
<polygon fill="white" stroke="black" points="411,-280.5 411,-299.5 548,-299.5 548,-280.5 411,-280.5"/>
<text text-anchor="middle" x="479.5" y="-287.5" font-family="Helvetica,sans-Serif" font-size="10.00">Cpl/Text/Frame/Encoder_.h</text>
</a>
</g>
</g>
<!-- Node26&#45;&gt;Node27 -->
<g id="edge34" class="edge"><title>Node26&#45;&gt;Node27</title>
<path fill="none" stroke="midnightblue" d="M382.69,-341.975C401.402,-332.122 432.423,-315.788 454.299,-304.27"/>
<polygon fill="midnightblue" stroke="midnightblue" points="456.122,-307.265 463.34,-299.509 452.861,-301.071 456.122,-307.265"/>
</g>
<!-- Node26&#45;&gt;Node29 -->
<g id="edge37" class="edge"><title>Node26&#45;&gt;Node29</title>
<path fill="none" stroke="midnightblue" d="M347.588,-341.975C325.337,-331.945 288.188,-315.2 262.574,-303.655"/>
<polygon fill="midnightblue" stroke="midnightblue" points="263.932,-300.428 253.377,-299.509 261.056,-306.809 263.932,-300.428"/>
</g>
<!-- Node28 -->
<g id="node28" class="node"><title>Node28</title>
<g id="a_node28"><a xlink:href="_encoder_8h.html" target="_top" xlink:title=" ">
<polygon fill="white" stroke="black" points="420,-224.5 420,-243.5 551,-243.5 551,-224.5 420,-224.5"/>
<text text-anchor="middle" x="485.5" y="-231.5" font-family="Helvetica,sans-Serif" font-size="10.00">Cpl/Text/Frame/Encoder.h</text>
</a>
</g>
</g>
<!-- Node27&#45;&gt;Node28 -->
<g id="edge35" class="edge"><title>Node27&#45;&gt;Node28</title>
<path fill="none" stroke="midnightblue" d="M480.491,-280.083C481.286,-272.927 482.429,-262.635 483.423,-253.691"/>
<polygon fill="midnightblue" stroke="midnightblue" points="486.902,-254.076 484.528,-243.751 479.945,-253.303 486.902,-254.076"/>
</g>
<!-- Node28&#45;&gt;Node22 -->
<g id="edge36" class="edge"><title>Node28&#45;&gt;Node22</title>
<path fill="none" stroke="midnightblue" d="M485.5,-224.083C485.5,-217.006 485.5,-206.861 485.5,-197.986"/>
<polygon fill="midnightblue" stroke="midnightblue" points="489,-197.751 485.5,-187.751 482,-197.751 489,-197.751"/>
</g>
<!-- Node29&#45;&gt;Node13 -->
<g id="edge38" class="edge"><title>Node29&#45;&gt;Node13</title>
<path fill="none" stroke="midnightblue" d="M216.998,-280.465C203.713,-272.917 186.424,-260.533 178.5,-244 174.658,-235.984 176.049,-232.544 178.5,-224 194.683,-167.574 202.075,-147.922 248.5,-112 280.309,-87.3874 325.822,-76.092 356.904,-71.0045"/>
<polygon fill="midnightblue" stroke="midnightblue" points="357.483,-74.4568 366.851,-69.5069 356.441,-67.5348 357.483,-74.4568"/>
</g>
<!-- Node29&#45;&gt;Node15 -->
<g id="edge41" class="edge"><title>Node29&#45;&gt;Node15</title>
<path fill="none" stroke="midnightblue" d="M214.298,-280.492C181.795,-265.293 121.5,-230.197 121.5,-179 121.5,-179 121.5,-179 121.5,-121 121.5,-76.9843 165.88,-42.7956 195.51,-24.875"/>
<polygon fill="midnightblue" stroke="midnightblue" points="197.644,-27.683 204.536,-19.6363 194.131,-21.6286 197.644,-27.683"/>
</g>
<!-- Node29&#45;&gt;Node24 -->
<g id="edge39" class="edge"><title>Node29&#45;&gt;Node24</title>
<path fill="none" stroke="midnightblue" d="M248.96,-280.324C263,-271.9 284.548,-258.971 301.043,-249.074"/>
<polygon fill="midnightblue" stroke="midnightblue" points="303.302,-251.801 310.076,-243.655 299.7,-245.798 303.302,-251.801"/>
</g>
<!-- Node29&#45;&gt;Node25 -->
<g id="edge40" class="edge"><title>Node29&#45;&gt;Node25</title>
<path fill="none" stroke="midnightblue" d="M233.344,-280.083C232.416,-272.927 231.082,-262.635 229.923,-253.691"/>
<polygon fill="midnightblue" stroke="midnightblue" points="233.391,-253.218 228.634,-243.751 226.449,-254.118 233.391,-253.218"/>
</g>
<!-- Node30&#45;&gt;Node14 -->
<g id="edge43" class="edge"><title>Node30&#45;&gt;Node14</title>
<path fill="none" stroke="midnightblue" d="M808.307,-168.227C775.321,-147.915 690.787,-96.3128 618.5,-56 598.693,-44.954 575.943,-33.0848 558.818,-24.3111"/>
<polygon fill="midnightblue" stroke="midnightblue" points="559.949,-20.9588 549.451,-19.5325 556.768,-27.1944 559.949,-20.9588"/>
</g>
</g>
</svg>
