<?xml version="1.0" encoding="UTF-8" standalone="no"?>
<!DOCTYPE svg PUBLIC "-//W3C//DTD SVG 1.1//EN"
 "http://www.w3.org/Graphics/SVG/1.1/DTD/svg11.dtd">
<!-- Generated by graphviz version 2.38.0 (20140413.2041)
 -->
<!-- Title: Cpl/System/ElapsedTime.h Pages: 1 -->
<svg width="1192pt" height="341pt"
 viewBox="0.00 0.00 1192.00 341.00" xmlns="http://www.w3.org/2000/svg" xmlns:xlink="http://www.w3.org/1999/xlink">
<g id="graph0" class="graph" transform="scale(1 1) rotate(0) translate(4 337)">
<title>Cpl/System/ElapsedTime.h</title>
<polygon fill="white" stroke="none" points="-4,4 -4,-337 1188,-337 1188,4 -4,4"/>
<!-- Node1 -->
<g id="node1" class="node"><title>Node1</title>
<g id="a_node1"><a xlink:title=" ">
<polygon fill="#bfbfbf" stroke="black" points="244,-313.5 244,-332.5 380,-332.5 380,-313.5 244,-313.5"/>
<text text-anchor="middle" x="312" y="-320.5" font-family="Helvetica,sans-Serif" font-size="10.00">Cpl/System/ElapsedTime.h</text>
</a>
</g>
</g>
<!-- Node2 -->
<g id="node2" class="node"><title>Node2</title>
<g id="a_node2"><a xlink:href="_elapsed_precision_time_8h.html" target="_top" xlink:title=" ">
<polygon fill="white" stroke="black" points="0,-246.5 0,-276.5 144,-276.5 144,-246.5 0,-246.5"/>
<text text-anchor="start" x="8" y="-264.5" font-family="Helvetica,sans-Serif" font-size="10.00">Cpl/Dm/Mp/ElapsedPrecision</text>
<text text-anchor="middle" x="72" y="-253.5" font-family="Helvetica,sans-Serif" font-size="10.00">Time.h</text>
</a>
</g>
</g>
<!-- Node1&#45;&gt;Node2 -->
<g id="edge1" class="edge"><title>Node1&#45;&gt;Node2</title>
<path fill="none" stroke="midnightblue" d="M267.813,-311.045C228.608,-301.326 171.117,-287.073 128.563,-276.523"/>
<polygon fill="midnightblue" stroke="midnightblue" points="267.065,-314.466 277.614,-313.475 268.75,-307.672 267.065,-314.466"/>
</g>
<!-- Node3 -->
<g id="node3" class="node"><title>Node3</title>
<g id="a_node3"><a xlink:href="_system_2_periodic_scheduler_8h.html" target="_top" xlink:title=" ">
<polygon fill="white" stroke="black" points="162,-252 162,-271 320,-271 320,-252 162,-252"/>
<text text-anchor="middle" x="241" y="-259" font-family="Helvetica,sans-Serif" font-size="10.00">Cpl/System/PeriodicScheduler.h</text>
</a>
</g>
</g>
<!-- Node1&#45;&gt;Node3 -->
<g id="edge2" class="edge"><title>Node1&#45;&gt;Node3</title>
<path fill="none" stroke="midnightblue" d="M294.068,-306.973C280.489,-295.593 262.323,-280.369 251.154,-271.009"/>
<polygon fill="midnightblue" stroke="midnightblue" points="291.915,-309.735 301.827,-313.475 296.411,-304.369 291.915,-309.735"/>
</g>
<!-- Node6 -->
<g id="node6" class="node"><title>Node6</title>
<g id="a_node6"><a xlink:href="atob_8h.html" target="_top" xlink:title="This file contains a collection of methods that wrap the standard C library functions for converting ...">
<polygon fill="white" stroke="black" points="448.5,-252 448.5,-271 531.5,-271 531.5,-252 448.5,-252"/>
<text text-anchor="middle" x="490" y="-259" font-family="Helvetica,sans-Serif" font-size="10.00">Cpl/Text/atob.h</text>
</a>
</g>
</g>
<!-- Node1&#45;&gt;Node6 -->
<g id="edge5" class="edge"><title>Node1&#45;&gt;Node6</title>
<path fill="none" stroke="midnightblue" d="M347.205,-310.232C381.806,-298.666 433.768,-281.297 464.544,-271.009"/>
<polygon fill="midnightblue" stroke="midnightblue" points="345.878,-306.985 337.503,-313.475 348.097,-313.624 345.878,-306.985"/>
</g>
<!-- Node19 -->
<g id="node19" class="node"><title>Node19</title>
<g id="a_node19"><a xlink:href="format_8h.html" target="_top" xlink:title="This file contains some general purpose string formatting functions.">
<polygon fill="white" stroke="black" points="338,-252 338,-271 430,-271 430,-252 338,-252"/>
<text text-anchor="middle" x="384" y="-259" font-family="Helvetica,sans-Serif" font-size="10.00">Cpl/Text/format.h</text>
</a>
</g>
</g>
<!-- Node1&#45;&gt;Node19 -->
<g id="edge20" class="edge"><title>Node1&#45;&gt;Node19</title>
<path fill="none" stroke="midnightblue" d="M330.184,-306.973C343.955,-295.593 362.377,-280.369 373.703,-271.009"/>
<polygon fill="midnightblue" stroke="midnightblue" points="327.795,-304.407 322.316,-313.475 332.254,-309.803 327.795,-304.407"/>
</g>
<!-- Node4 -->
<g id="node4" class="node"><title>Node4</title>
<g id="a_node4"><a xlink:href="_dm_2_periodic_scheduler_8h.html" target="_top" xlink:title=" ">
<polygon fill="white" stroke="black" points="174.5,-190.5 174.5,-209.5 313.5,-209.5 313.5,-190.5 174.5,-190.5"/>
<text text-anchor="middle" x="244" y="-197.5" font-family="Helvetica,sans-Serif" font-size="10.00">Cpl/Dm/PeriodicScheduler.h</text>
</a>
</g>
</g>
<!-- Node3&#45;&gt;Node4 -->
<g id="edge3" class="edge"><title>Node3&#45;&gt;Node4</title>
<path fill="none" stroke="midnightblue" d="M241.942,-241.817C242.488,-230.996 243.148,-217.898 243.571,-209.509"/>
<polygon fill="midnightblue" stroke="midnightblue" points="238.438,-241.812 241.43,-251.975 245.429,-242.164 238.438,-241.812"/>
</g>
<!-- Node5 -->
<g id="node5" class="node"><title>Node5</title>
<g id="a_node5"><a xlink:href="_itc_2_periodic_scheduler_8h.html" target="_top" xlink:title=" ">
<polygon fill="white" stroke="black" points="21.5,-190.5 21.5,-209.5 156.5,-209.5 156.5,-190.5 21.5,-190.5"/>
<text text-anchor="middle" x="89" y="-197.5" font-family="Helvetica,sans-Serif" font-size="10.00">Cpl/Itc/PeriodicScheduler.h</text>
</a>
</g>
</g>
<!-- Node3&#45;&gt;Node5 -->
<g id="edge4" class="edge"><title>Node3&#45;&gt;Node5</title>
<path fill="none" stroke="midnightblue" d="M209.789,-248.282C180.251,-236.72 136.68,-219.664 110.737,-209.509"/>
<polygon fill="midnightblue" stroke="midnightblue" points="208.634,-251.589 219.222,-251.975 211.186,-245.071 208.634,-251.589"/>
</g>
<!-- Node7 -->
<g id="node7" class="node"><title>Node7</title>
<g id="a_node7"><a xlink:href="_bit_array16_8h.html" target="_top" xlink:title=" ">
<polygon fill="white" stroke="black" points="230,-134.5 230,-153.5 352,-153.5 352,-134.5 230,-134.5"/>
<text text-anchor="middle" x="291" y="-141.5" font-family="Helvetica,sans-Serif" font-size="10.00">Cpl/Dm/Mp/BitArray16.h</text>
</a>
</g>
</g>
<!-- Node6&#45;&gt;Node7 -->
<g id="edge6" class="edge"><title>Node6&#45;&gt;Node7</title>
<path fill="none" stroke="midnightblue" d="M466.157,-246.662C424.598,-222.54 340.062,-173.475 305.859,-153.624"/>
<polygon fill="midnightblue" stroke="midnightblue" points="464.637,-249.826 475.043,-251.819 468.151,-243.772 464.637,-249.826"/>
</g>
<!-- Node8 -->
<g id="node8" class="node"><title>Node8</title>
<g id="a_node8"><a xlink:href="_numeric_8h.html" target="_top" xlink:title=" ">
<polygon fill="white" stroke="black" points="547.5,-190.5 547.5,-209.5 660.5,-209.5 660.5,-190.5 547.5,-190.5"/>
<text text-anchor="middle" x="604" y="-197.5" font-family="Helvetica,sans-Serif" font-size="10.00">Cpl/Dm/Mp/Numeric.h</text>
</a>
</g>
</g>
<!-- Node6&#45;&gt;Node8 -->
<g id="edge7" class="edge"><title>Node6&#45;&gt;Node8</title>
<path fill="none" stroke="midnightblue" d="M515.46,-247.212C537.539,-235.688 568.832,-219.355 587.697,-209.509"/>
<polygon fill="midnightblue" stroke="midnightblue" points="513.579,-244.245 506.333,-251.975 516.818,-250.451 513.579,-244.245"/>
</g>
<!-- Node8&#45;&gt;Node7 -->
<g id="edge8" class="edge"><title>Node8&#45;&gt;Node7</title>
<path fill="none" stroke="midnightblue" d="M544.458,-188.727C485.309,-178.523 395.671,-163.058 340.364,-153.516"/>
<polygon fill="midnightblue" stroke="midnightblue" points="543.955,-192.192 554.404,-190.444 545.145,-185.294 543.955,-192.192"/>
</g>
<!-- Node9 -->
<g id="node9" class="node"><title>Node9</title>
<g id="a_node9"><a xlink:href="_double_8h.html" target="_top" xlink:title=" ">
<polygon fill="white" stroke="black" points="370.5,-134.5 370.5,-153.5 477.5,-153.5 477.5,-134.5 370.5,-134.5"/>
<text text-anchor="middle" x="424" y="-141.5" font-family="Helvetica,sans-Serif" font-size="10.00">Cpl/Dm/Mp/Double.h</text>
</a>
</g>
</g>
<!-- Node8&#45;&gt;Node9 -->
<g id="edge9" class="edge"><title>Node8&#45;&gt;Node9</title>
<path fill="none" stroke="midnightblue" d="M565.892,-187.568C531.937,-177.381 483.011,-162.703 452.388,-153.516"/>
<polygon fill="midnightblue" stroke="midnightblue" points="564.894,-190.922 575.478,-190.444 566.906,-184.218 564.894,-190.922"/>
</g>
<!-- Node10 -->
<g id="node10" class="node"><title>Node10</title>
<g id="a_node10"><a xlink:href="_float_8h.html" target="_top" xlink:title=" ">
<polygon fill="white" stroke="black" points="496,-134.5 496,-153.5 594,-153.5 594,-134.5 496,-134.5"/>
<text text-anchor="middle" x="545" y="-141.5" font-family="Helvetica,sans-Serif" font-size="10.00">Cpl/Dm/Mp/Float.h</text>
</a>
</g>
</g>
<!-- Node8&#45;&gt;Node10 -->
<g id="edge10" class="edge"><title>Node8&#45;&gt;Node10</title>
<path fill="none" stroke="midnightblue" d="M587.105,-183.537C576.585,-173.909 563.431,-161.869 554.652,-153.834"/>
<polygon fill="midnightblue" stroke="midnightblue" points="584.781,-186.154 594.521,-190.324 589.507,-180.99 584.781,-186.154"/>
</g>
<!-- Node11 -->
<g id="node11" class="node"><title>Node11</title>
<g id="a_node11"><a xlink:href="_int32_8h.html" target="_top" xlink:title=" ">
<polygon fill="white" stroke="black" points="612,-134.5 612,-153.5 710,-153.5 710,-134.5 612,-134.5"/>
<text text-anchor="middle" x="661" y="-141.5" font-family="Helvetica,sans-Serif" font-size="10.00">Cpl/Dm/Mp/Int32.h</text>
</a>
</g>
</g>
<!-- Node8&#45;&gt;Node11 -->
<g id="edge11" class="edge"><title>Node8&#45;&gt;Node11</title>
<path fill="none" stroke="midnightblue" d="M620.621,-183.253C630.734,-173.673 643.277,-161.791 651.675,-153.834"/>
<polygon fill="midnightblue" stroke="midnightblue" points="618.01,-180.906 613.158,-190.324 622.825,-185.987 618.01,-180.906"/>
</g>
<!-- Node12 -->
<g id="node12" class="node"><title>Node12</title>
<g id="a_node12"><a xlink:href="_int64_8h.html" target="_top" xlink:title=" ">
<polygon fill="white" stroke="black" points="728,-134.5 728,-153.5 826,-153.5 826,-134.5 728,-134.5"/>
<text text-anchor="middle" x="777" y="-141.5" font-family="Helvetica,sans-Serif" font-size="10.00">Cpl/Dm/Mp/Int64.h</text>
</a>
</g>
</g>
<!-- Node8&#45;&gt;Node12 -->
<g id="edge12" class="edge"><title>Node8&#45;&gt;Node12</title>
<path fill="none" stroke="midnightblue" d="M641.047,-187.436C673.664,-177.255 720.41,-162.664 749.716,-153.516"/>
<polygon fill="midnightblue" stroke="midnightblue" points="639.915,-184.123 631.412,-190.444 642.001,-190.805 639.915,-184.123"/>
</g>
<!-- Node13 -->
<g id="node13" class="node"><title>Node13</title>
<g id="a_node13"><a xlink:href="_uint32_8h.html" target="_top" xlink:title=" ">
<polygon fill="white" stroke="black" points="844,-134.5 844,-153.5 948,-153.5 948,-134.5 844,-134.5"/>
<text text-anchor="middle" x="896" y="-141.5" font-family="Helvetica,sans-Serif" font-size="10.00">Cpl/Dm/Mp/Uint32.h</text>
</a>
</g>
</g>
<!-- Node8&#45;&gt;Node13 -->
<g id="edge13" class="edge"><title>Node8&#45;&gt;Node13</title>
<path fill="none" stroke="midnightblue" d="M660.233,-188.601C715.418,-178.395 798.565,-163.019 849.948,-153.516"/>
<polygon fill="midnightblue" stroke="midnightblue" points="659.465,-185.183 650.268,-190.444 660.738,-192.067 659.465,-185.183"/>
</g>
<!-- Node16 -->
<g id="node16" class="node"><title>Node16</title>
<g id="a_node16"><a xlink:href="_uint64_8h.html" target="_top" xlink:title=" ">
<polygon fill="white" stroke="black" points="966,-134.5 966,-153.5 1070,-153.5 1070,-134.5 966,-134.5"/>
<text text-anchor="middle" x="1018" y="-141.5" font-family="Helvetica,sans-Serif" font-size="10.00">Cpl/Dm/Mp/Uint64.h</text>
</a>
</g>
</g>
<!-- Node8&#45;&gt;Node16 -->
<g id="edge16" class="edge"><title>Node8&#45;&gt;Node16</title>
<path fill="none" stroke="midnightblue" d="M670.745,-190.889C741.766,-182.165 857.392,-167.696 957,-154 959.863,-153.606 962.801,-153.196 965.766,-152.776"/>
<polygon fill="midnightblue" stroke="midnightblue" points="670.097,-187.442 660.598,-192.133 670.949,-194.39 670.097,-187.442"/>
</g>
<!-- Node18 -->
<g id="node18" class="node"><title>Node18</title>
<g id="a_node18"><a xlink:href="_void_8h.html" target="_top" xlink:title=" ">
<polygon fill="white" stroke="black" points="1088,-134.5 1088,-153.5 1184,-153.5 1184,-134.5 1088,-134.5"/>
<text text-anchor="middle" x="1136" y="-141.5" font-family="Helvetica,sans-Serif" font-size="10.00">Cpl/Dm/Mp/Void.h</text>
</a>
</g>
</g>
<!-- Node8&#45;&gt;Node18 -->
<g id="edge19" class="edge"><title>Node8&#45;&gt;Node18</title>
<path fill="none" stroke="midnightblue" d="M670.807,-193.988C762.871,-186.78 933.842,-172.318 1079,-154 1081.88,-153.636 1084.84,-153.239 1087.83,-152.822"/>
<polygon fill="midnightblue" stroke="midnightblue" points="670.49,-190.502 660.791,-194.767 671.033,-197.481 670.49,-190.502"/>
</g>
<!-- Node14 -->
<g id="node14" class="node"><title>Node14</title>
<g id="a_node14"><a xlink:href="_ring_buffer_m_p_8h.html" target="_top" xlink:title=" ">
<polygon fill="white" stroke="black" points="803.5,-73 803.5,-92 950.5,-92 950.5,-73 803.5,-73"/>
<text text-anchor="middle" x="877" y="-80" font-family="Helvetica,sans-Serif" font-size="10.00">Cpl/Container/RingBufferMP.h</text>
</a>
</g>
</g>
<!-- Node13&#45;&gt;Node14 -->
<g id="edge14" class="edge"><title>Node13&#45;&gt;Node14</title>
<path fill="none" stroke="midnightblue" d="M890.143,-124.657C886.667,-113.772 882.424,-100.486 879.717,-92.0091"/>
<polygon fill="midnightblue" stroke="midnightblue" points="886.902,-126.014 893.278,-134.475 893.57,-123.884 886.902,-126.014"/>
</g>
<!-- Node15 -->
<g id="node15" class="node"><title>Node15</title>
<g id="a_node15"><a xlink:href="_indexed_entry_server_8h.html" target="_top" xlink:title=" ">
<polygon fill="white" stroke="black" points="887.5,-0.5 887.5,-30.5 1026.5,-30.5 1026.5,-0.5 887.5,-0.5"/>
<text text-anchor="start" x="895.5" y="-18.5" font-family="Helvetica,sans-Serif" font-size="10.00">Cpl/Persistent/IndexedEntry</text>
<text text-anchor="middle" x="957" y="-7.5" font-family="Helvetica,sans-Serif" font-size="10.00">Server.h</text>
</a>
</g>
</g>
<!-- Node14&#45;&gt;Node15 -->
<g id="edge15" class="edge"><title>Node14&#45;&gt;Node15</title>
<path fill="none" stroke="midnightblue" d="M895.785,-66.2371C909.059,-55.4518 926.72,-41.1025 939.66,-30.589"/>
<polygon fill="midnightblue" stroke="midnightblue" points="893.343,-63.7114 887.789,-72.7338 897.757,-69.1443 893.343,-63.7114"/>
</g>
<!-- Node17 -->
<g id="node17" class="node"><title>Node17</title>
<g id="a_node17"><a xlink:href="_indexed_entry_record_8h.html" target="_top" xlink:title=" ">
<polygon fill="white" stroke="black" points="968.5,-67.5 968.5,-97.5 1107.5,-97.5 1107.5,-67.5 968.5,-67.5"/>
<text text-anchor="start" x="976.5" y="-85.5" font-family="Helvetica,sans-Serif" font-size="10.00">Cpl/Persistent/IndexedEntry</text>
<text text-anchor="middle" x="1038" y="-74.5" font-family="Helvetica,sans-Serif" font-size="10.00">Record.h</text>
</a>
</g>
</g>
<!-- Node16&#45;&gt;Node17 -->
<g id="edge17" class="edge"><title>Node16&#45;&gt;Node17</title>
<path fill="none" stroke="midnightblue" d="M1024.11,-124.816C1027.06,-116.041 1030.55,-105.676 1033.29,-97.523"/>
<polygon fill="midnightblue" stroke="midnightblue" points="1020.73,-123.881 1020.87,-134.475 1027.37,-126.111 1020.73,-123.881"/>
</g>
<!-- Node17&#45;&gt;Node15 -->
<g id="edge18" class="edge"><title>Node17&#45;&gt;Node15</title>
<path fill="none" stroke="midnightblue" d="M1012.31,-60.8832C999.999,-51.0054 985.573,-39.4293 974.541,-30.5765"/>
<polygon fill="midnightblue" stroke="midnightblue" points="1010.43,-63.867 1020.42,-67.396 1014.82,-58.4075 1010.43,-63.867"/>
</g>
<!-- Node19&#45;&gt;Node7 -->
<g id="edge21" class="edge"><title>Node19&#45;&gt;Node7</title>
<path fill="none" stroke="midnightblue" d="M370.714,-244C350.714,-219.161 313.564,-173.023 298.071,-153.782"/>
<polygon fill="midnightblue" stroke="midnightblue" points="368.012,-246.225 377.01,-251.819 373.464,-241.835 368.012,-246.225"/>
</g>
<!-- Node19&#45;&gt;Node8 -->
<g id="edge22" class="edge"><title>Node19&#45;&gt;Node8</title>
<path fill="none" stroke="midnightblue" d="M425.329,-249.322C468.064,-237.764 533.847,-219.973 572.538,-209.509"/>
<polygon fill="midnightblue" stroke="midnightblue" points="424.26,-245.986 415.521,-251.975 426.088,-252.743 424.26,-245.986"/>
</g>
</g>
</svg>
