<?xml version="1.0" encoding="UTF-8" standalone="no"?>
<!DOCTYPE svg PUBLIC "-//W3C//DTD SVG 1.1//EN"
 "http://www.w3.org/Graphics/SVG/1.1/DTD/svg11.dtd">
<!-- Generated by graphviz version 2.38.0 (20140413.2041)
 -->
<!-- Title: Storm/Type/EquipmentTimes.h Pages: 1 -->
<svg width="1429pt" height="419pt"
 viewBox="0.00 0.00 1428.50 419.00" xmlns="http://www.w3.org/2000/svg" xmlns:xlink="http://www.w3.org/1999/xlink">
<g id="graph0" class="graph" transform="scale(1 1) rotate(0) translate(4 415)">
<title>Storm/Type/EquipmentTimes.h</title>
<polygon fill="white" stroke="none" points="-4,4 -4,-415 1424.5,-415 1424.5,4 -4,4"/>
<!-- Node1 -->
<g id="node1" class="node"><title>Node1</title>
<g id="a_node1"><a xlink:title=" ">
<polygon fill="#bfbfbf" stroke="black" points="696.5,-391.5 696.5,-410.5 848.5,-410.5 848.5,-391.5 696.5,-391.5"/>
<text text-anchor="middle" x="772.5" y="-398.5" font-family="Helvetica,sans-Serif" font-size="10.00">Storm/Type/EquipmentTimes.h</text>
</a>
</g>
</g>
<!-- Node2 -->
<g id="node2" class="node"><title>Node2</title>
<g id="a_node2"><a xlink:href="_mp_equipment_begin_times_8h.html" target="_top" xlink:title=" ">
<polygon fill="white" stroke="black" points="698,-324.5 698,-354.5 847,-354.5 847,-324.5 698,-324.5"/>
<text text-anchor="start" x="706" y="-342.5" font-family="Helvetica,sans-Serif" font-size="10.00">Storm/Dm/MpEquipmentBegin</text>
<text text-anchor="middle" x="772.5" y="-331.5" font-family="Helvetica,sans-Serif" font-size="10.00">Times.h</text>
</a>
</g>
</g>
<!-- Node1&#45;&gt;Node2 -->
<g id="edge1" class="edge"><title>Node1&#45;&gt;Node2</title>
<path fill="none" stroke="midnightblue" d="M772.5,-381.235C772.5,-372.586 772.5,-362.497 772.5,-354.523"/>
<polygon fill="midnightblue" stroke="midnightblue" points="769,-381.475 772.5,-391.475 776,-381.475 769,-381.475"/>
</g>
<!-- Node3 -->
<g id="node3" class="node"><title>Node3</title>
<g id="a_node3"><a xlink:href="_control_8h.html" target="_top" xlink:title=" ">
<polygon fill="white" stroke="black" points="412,-263 412,-282 549,-282 549,-263 412,-263"/>
<text text-anchor="middle" x="480.5" y="-270" font-family="Helvetica,sans-Serif" font-size="10.00">Storm/Component/Control.h</text>
</a>
</g>
</g>
<!-- Node2&#45;&gt;Node3 -->
<g id="edge2" class="edge"><title>Node2&#45;&gt;Node3</title>
<path fill="none" stroke="midnightblue" d="M699.402,-322.228C642.069,-309.466 564.558,-292.212 518.813,-282.029"/>
<polygon fill="midnightblue" stroke="midnightblue" points="698.978,-325.719 709.5,-324.476 700.499,-318.887 698.978,-325.719"/>
</g>
<!-- Node12 -->
<g id="node12" class="node"><title>Node12</title>
<g id="a_node12"><a xlink:href="_fan_control_8h.html" target="_top" xlink:title=" ">
<polygon fill="white" stroke="black" points="590.5,-129 590.5,-148 744.5,-148 744.5,-129 590.5,-129"/>
<text text-anchor="middle" x="667.5" y="-136" font-family="Helvetica,sans-Serif" font-size="10.00">Storm/Component/FanControl.h</text>
</a>
</g>
</g>
<!-- Node2&#45;&gt;Node12 -->
<g id="edge18" class="edge"><title>Node2&#45;&gt;Node12</title>
<path fill="none" stroke="midnightblue" d="M760.145,-315.083C736.884,-270.999 687.549,-177.498 672.175,-148.36"/>
<polygon fill="midnightblue" stroke="midnightblue" points="757.186,-316.977 764.949,-324.188 763.378,-313.711 757.186,-316.977"/>
</g>
<!-- Node13 -->
<g id="node13" class="node"><title>Node13</title>
<g id="a_node13"><a xlink:href="_component_2_hvac_relay_outputs_8h.html" target="_top" xlink:title=" ">
<polygon fill="white" stroke="black" points="666.5,-56.5 666.5,-86.5 812.5,-86.5 812.5,-56.5 666.5,-56.5"/>
<text text-anchor="start" x="674.5" y="-74.5" font-family="Helvetica,sans-Serif" font-size="10.00">Storm/Component/HvacRelay</text>
<text text-anchor="middle" x="739.5" y="-63.5" font-family="Helvetica,sans-Serif" font-size="10.00">Outputs.h</text>
</a>
</g>
</g>
<!-- Node2&#45;&gt;Node13 -->
<g id="edge20" class="edge"><title>Node2&#45;&gt;Node13</title>
<path fill="none" stroke="midnightblue" d="M771.797,-314.104C770.318,-273.958 765.921,-191.575 753.5,-123 751.262,-110.646 747.369,-96.9362 744.255,-86.9226"/>
<polygon fill="midnightblue" stroke="midnightblue" points="768.305,-314.385 772.141,-324.261 775.301,-314.148 768.305,-314.385"/>
</g>
<!-- Node14 -->
<g id="node14" class="node"><title>Node14</title>
<g id="a_node14"><a xlink:href="_component_2_operating_mode_8h.html" target="_top" xlink:title=" ">
<polygon fill="white" stroke="black" points="800.5,-257.5 800.5,-287.5 940.5,-287.5 940.5,-257.5 800.5,-257.5"/>
<text text-anchor="start" x="808.5" y="-275.5" font-family="Helvetica,sans-Serif" font-size="10.00">Storm/Component/Operating</text>
<text text-anchor="middle" x="870.5" y="-264.5" font-family="Helvetica,sans-Serif" font-size="10.00">Mode.h</text>
</a>
</g>
</g>
<!-- Node2&#45;&gt;Node14 -->
<g id="edge22" class="edge"><title>Node2&#45;&gt;Node14</title>
<path fill="none" stroke="midnightblue" d="M802.302,-318.734C817.466,-308.676 835.545,-296.685 849.277,-287.577"/>
<polygon fill="midnightblue" stroke="midnightblue" points="800.164,-315.952 793.765,-324.396 804.033,-321.785 800.164,-315.952"/>
</g>
<!-- Node15 -->
<g id="node15" class="node"><title>Node15</title>
<g id="a_node15"><a xlink:href="_model_points_8h.html" target="_top" xlink:title="This file defines all of the Model Points for the Thermostat Application.">
<polygon fill="white" stroke="black" points="985,-263 985,-282 1146,-282 1146,-263 985,-263"/>
<text text-anchor="middle" x="1065.5" y="-270" font-family="Helvetica,sans-Serif" font-size="10.00">Storm/Thermostat/ModelPoints.h</text>
</a>
</g>
</g>
<!-- Node2&#45;&gt;Node15 -->
<g id="edge24" class="edge"><title>Node2&#45;&gt;Node15</title>
<path fill="none" stroke="midnightblue" d="M845.491,-322.307C903.056,-309.537 981.059,-292.233 1027.06,-282.029"/>
<polygon fill="midnightblue" stroke="midnightblue" points="844.721,-318.893 835.716,-324.476 846.237,-325.727 844.721,-318.893"/>
</g>
<!-- Node4 -->
<g id="node4" class="node"><title>Node4</title>
<g id="a_node4"><a xlink:href="_cooling_8h.html" target="_top" xlink:title=" ">
<polygon fill="white" stroke="black" points="0,-123.5 0,-153.5 145,-153.5 145,-123.5 0,-123.5"/>
<text text-anchor="start" x="8" y="-141.5" font-family="Helvetica,sans-Serif" font-size="10.00">Storm/Component/Equipment</text>
<text text-anchor="middle" x="72.5" y="-130.5" font-family="Helvetica,sans-Serif" font-size="10.00">/Cooling.h</text>
</a>
</g>
</g>
<!-- Node3&#45;&gt;Node4 -->
<g id="edge3" class="edge"><title>Node3&#45;&gt;Node4</title>
<path fill="none" stroke="midnightblue" d="M401.787,-264.384C346.371,-257.588 271.193,-244.722 208.5,-221 163.447,-203.953 116.437,-172.127 91.1988,-153.694"/>
<polygon fill="midnightblue" stroke="midnightblue" points="401.555,-267.881 411.898,-265.584 402.38,-260.93 401.555,-267.881"/>
</g>
<!-- Node5 -->
<g id="node5" class="node"><title>Node5</title>
<g id="a_node5"><a xlink:href="_algorithm_8h.html" target="_top" xlink:title=" ">
<polygon fill="white" stroke="black" points="425.5,-0.5 425.5,-19.5 573.5,-19.5 573.5,-0.5 425.5,-0.5"/>
<text text-anchor="middle" x="499.5" y="-7.5" font-family="Helvetica,sans-Serif" font-size="10.00">Storm/Thermostat/Algorithm.h</text>
</a>
</g>
</g>
<!-- Node3&#45;&gt;Node5 -->
<g id="edge17" class="edge"><title>Node3&#45;&gt;Node5</title>
<path fill="none" stroke="midnightblue" d="M493.507,-254.567C516.488,-223.456 563.457,-154.211 580.5,-87 583.887,-73.6449 587.487,-67.8747 580.5,-56 569.731,-37.6984 548.532,-26.3062 530.523,-19.5639"/>
<polygon fill="midnightblue" stroke="midnightblue" points="490.414,-252.856 487.204,-262.953 496.01,-257.062 490.414,-252.856"/>
</g>
<!-- Node6 -->
<g id="node6" class="node"><title>Node6</title>
<g id="a_node6"><a xlink:href="_indoor_heating_8h.html" target="_top" xlink:title=" ">
<polygon fill="white" stroke="black" points="326,-123.5 326,-153.5 471,-153.5 471,-123.5 326,-123.5"/>
<text text-anchor="start" x="334" y="-141.5" font-family="Helvetica,sans-Serif" font-size="10.00">Storm/Component/Equipment</text>
<text text-anchor="middle" x="398.5" y="-130.5" font-family="Helvetica,sans-Serif" font-size="10.00">/IndoorHeating.h</text>
</a>
</g>
</g>
<!-- Node3&#45;&gt;Node6 -->
<g id="edge5" class="edge"><title>Node3&#45;&gt;Node6</title>
<path fill="none" stroke="midnightblue" d="M469.812,-254.296C453.466,-227.982 422.557,-178.227 407.373,-153.783"/>
<polygon fill="midnightblue" stroke="midnightblue" points="466.87,-256.192 475.12,-262.839 472.816,-252.498 466.87,-256.192"/>
</g>
<!-- Node7 -->
<g id="node7" class="node"><title>Node7</title>
<g id="a_node7"><a xlink:href="_off_8h.html" target="_top" xlink:title=" ">
<polygon fill="white" stroke="black" points="427,-56.5 427,-86.5 572,-86.5 572,-56.5 427,-56.5"/>
<text text-anchor="start" x="435" y="-74.5" font-family="Helvetica,sans-Serif" font-size="10.00">Storm/Component/Equipment</text>
<text text-anchor="middle" x="499.5" y="-63.5" font-family="Helvetica,sans-Serif" font-size="10.00">/Off.h</text>
</a>
</g>
</g>
<!-- Node3&#45;&gt;Node7 -->
<g id="edge7" class="edge"><title>Node3&#45;&gt;Node7</title>
<path fill="none" stroke="midnightblue" d="M482.28,-252.857C486.058,-213.283 494.808,-121.64 498.16,-86.5329"/>
<polygon fill="midnightblue" stroke="midnightblue" points="478.783,-252.662 481.316,-262.949 485.751,-253.327 478.783,-252.662"/>
</g>
<!-- Node8 -->
<g id="node8" class="node"><title>Node8</title>
<g id="a_node8"><a xlink:href="_stage_api_8h.html" target="_top" xlink:title=" ">
<polygon fill="white" stroke="black" points="218,-190.5 218,-220.5 363,-220.5 363,-190.5 218,-190.5"/>
<text text-anchor="start" x="226" y="-208.5" font-family="Helvetica,sans-Serif" font-size="10.00">Storm/Component/Equipment</text>
<text text-anchor="middle" x="290.5" y="-197.5" font-family="Helvetica,sans-Serif" font-size="10.00">/StageApi.h</text>
</a>
</g>
</g>
<!-- Node3&#45;&gt;Node8 -->
<g id="edge9" class="edge"><title>Node3&#45;&gt;Node8</title>
<path fill="none" stroke="midnightblue" d="M445.394,-259.49C413.182,-248.47 365.456,-232.143 331.505,-220.528"/>
<polygon fill="midnightblue" stroke="midnightblue" points="444.675,-262.943 455.269,-262.869 446.941,-256.32 444.675,-262.943"/>
</g>
<!-- Node4&#45;&gt;Node5 -->
<g id="edge4" class="edge"><title>Node4&#45;&gt;Node5</title>
<path fill="none" stroke="midnightblue" d="M56.9629,-114.513C46.8997,-96.506 38.1033,-71.9188 52.5,-56 76.9908,-28.9199 304.805,-17.3795 425.399,-13.1341"/>
<polygon fill="midnightblue" stroke="midnightblue" points="54.067,-116.489 62.2248,-123.249 60.0633,-112.877 54.067,-116.489"/>
</g>
<!-- Node6&#45;&gt;Node5 -->
<g id="edge6" class="edge"><title>Node6&#45;&gt;Node5</title>
<path fill="none" stroke="midnightblue" d="M399.016,-113.349C400.522,-95.8583 404.993,-72.4874 417.5,-56 430.945,-38.2753 453.484,-26.634 471.533,-19.641"/>
<polygon fill="midnightblue" stroke="midnightblue" points="395.52,-113.173 398.416,-123.365 402.508,-113.592 395.52,-113.173"/>
</g>
<!-- Node7&#45;&gt;Node5 -->
<g id="edge8" class="edge"><title>Node7&#45;&gt;Node5</title>
<path fill="none" stroke="midnightblue" d="M499.5,-46.2892C499.5,-36.857 499.5,-26.6548 499.5,-19.6578"/>
<polygon fill="midnightblue" stroke="midnightblue" points="496,-46.3993 499.5,-56.3993 503,-46.3994 496,-46.3993"/>
</g>
<!-- Node8&#45;&gt;Node4 -->
<g id="edge10" class="edge"><title>Node8&#45;&gt;Node4</title>
<path fill="none" stroke="midnightblue" d="M233.752,-187.58C198.345,-177.022 153.301,-163.592 119.826,-153.611"/>
<polygon fill="midnightblue" stroke="midnightblue" points="232.882,-190.973 243.466,-190.476 234.883,-184.264 232.882,-190.973"/>
</g>
<!-- Node8&#45;&gt;Node6 -->
<g id="edge11" class="edge"><title>Node8&#45;&gt;Node6</title>
<path fill="none" stroke="midnightblue" d="M322.875,-185.015C339.682,-174.9 359.836,-162.77 375.111,-153.577"/>
<polygon fill="midnightblue" stroke="midnightblue" points="320.697,-182.241 313.934,-190.396 324.307,-188.238 320.697,-182.241"/>
</g>
<!-- Node9 -->
<g id="node9" class="node"><title>Node9</title>
<g id="a_node9"><a xlink:href="_storm_2_component_2_equipment_2_stage_2_basic_8h.html" target="_top" xlink:title=" ">
<polygon fill="white" stroke="black" points="163,-123.5 163,-153.5 308,-153.5 308,-123.5 163,-123.5"/>
<text text-anchor="start" x="171" y="-141.5" font-family="Helvetica,sans-Serif" font-size="10.00">Storm/Component/Equipment</text>
<text text-anchor="middle" x="235.5" y="-130.5" font-family="Helvetica,sans-Serif" font-size="10.00">/Stage/Basic.h</text>
</a>
</g>
</g>
<!-- Node8&#45;&gt;Node9 -->
<g id="edge12" class="edge"><title>Node8&#45;&gt;Node9</title>
<path fill="none" stroke="midnightblue" d="M272.084,-182.736C263.947,-173.119 254.614,-162.089 247.411,-153.577"/>
<polygon fill="midnightblue" stroke="midnightblue" points="269.435,-185.023 278.566,-190.396 274.778,-180.501 269.435,-185.023"/>
</g>
<!-- Node10 -->
<g id="node10" class="node"><title>Node10</title>
<g id="a_node10"><a xlink:href="_basic_cooling_8h.html" target="_top" xlink:title=" ">
<polygon fill="white" stroke="black" points="62,-56.5 62,-86.5 207,-86.5 207,-56.5 62,-56.5"/>
<text text-anchor="start" x="70" y="-74.5" font-family="Helvetica,sans-Serif" font-size="10.00">Storm/Component/Equipment</text>
<text text-anchor="middle" x="134.5" y="-63.5" font-family="Helvetica,sans-Serif" font-size="10.00">/Stage/BasicCooling.h</text>
</a>
</g>
</g>
<!-- Node9&#45;&gt;Node10 -->
<g id="edge13" class="edge"><title>Node9&#45;&gt;Node10</title>
<path fill="none" stroke="midnightblue" d="M204.786,-117.734C189.157,-107.676 170.525,-95.6847 156.373,-86.5765"/>
<polygon fill="midnightblue" stroke="midnightblue" points="203.281,-120.927 213.585,-123.396 207.07,-115.041 203.281,-120.927"/>
</g>
<!-- Node11 -->
<g id="node11" class="node"><title>Node11</title>
<g id="a_node11"><a xlink:href="_basic_indoor_heat_8h.html" target="_top" xlink:title=" ">
<polygon fill="white" stroke="black" points="225,-56.5 225,-86.5 370,-86.5 370,-56.5 225,-56.5"/>
<text text-anchor="start" x="233" y="-74.5" font-family="Helvetica,sans-Serif" font-size="10.00">Storm/Component/Equipment</text>
<text text-anchor="middle" x="297.5" y="-63.5" font-family="Helvetica,sans-Serif" font-size="10.00">/Stage/BasicIndoorHeat.h</text>
</a>
</g>
</g>
<!-- Node9&#45;&gt;Node11 -->
<g id="edge15" class="edge"><title>Node9&#45;&gt;Node11</title>
<path fill="none" stroke="midnightblue" d="M255.985,-116.024C265.222,-106.34 275.873,-95.1739 284.073,-86.5765"/>
<polygon fill="midnightblue" stroke="midnightblue" points="253.323,-113.744 248.953,-123.396 258.388,-118.576 253.323,-113.744"/>
</g>
<!-- Node10&#45;&gt;Node5 -->
<g id="edge14" class="edge"><title>Node10&#45;&gt;Node5</title>
<path fill="none" stroke="midnightblue" d="M217.336,-55.7069C301.567,-41.5664 388.546,-27.9866 443.672,-19.5087"/>
<polygon fill="midnightblue" stroke="midnightblue" points="216.626,-52.277 207.346,-57.3888 217.788,-59.1799 216.626,-52.277"/>
</g>
<!-- Node11&#45;&gt;Node5 -->
<g id="edge16" class="edge"><title>Node11&#45;&gt;Node5</title>
<path fill="none" stroke="midnightblue" d="M354.983,-53.5681C392.763,-42.44 440.586,-28.3534 470.621,-19.5064"/>
<polygon fill="midnightblue" stroke="midnightblue" points="353.719,-50.2917 345.115,-56.4747 355.697,-57.0065 353.719,-50.2917"/>
</g>
<!-- Node12&#45;&gt;Node5 -->
<g id="edge19" class="edge"><title>Node12&#45;&gt;Node5</title>
<path fill="none" stroke="midnightblue" d="M659.765,-119.335C651.147,-101.059 635.601,-73.1891 614.5,-56 592.226,-37.8553 561.762,-26.3764 537.784,-19.5565"/>
<polygon fill="midnightblue" stroke="midnightblue" points="656.638,-120.916 663.93,-128.603 663.023,-118.047 656.638,-120.916"/>
</g>
<!-- Node13&#45;&gt;Node5 -->
<g id="edge21" class="edge"><title>Node13&#45;&gt;Node5</title>
<path fill="none" stroke="midnightblue" d="M673.201,-54.0633C628.014,-42.8607 570.028,-28.4851 533.811,-19.5064"/>
<polygon fill="midnightblue" stroke="midnightblue" points="672.379,-57.4654 682.927,-56.4747 674.063,-50.6711 672.379,-57.4654"/>
</g>
<!-- Node14&#45;&gt;Node5 -->
<g id="edge23" class="edge"><title>Node14&#45;&gt;Node5</title>
<path fill="none" stroke="midnightblue" d="M865.209,-247.414C852.907,-191.526 823.288,-57.6426 821.5,-56 786.375,-23.7318 657.296,-14.4564 573.62,-11.8788"/>
<polygon fill="midnightblue" stroke="midnightblue" points="861.858,-248.474 867.425,-257.489 868.695,-246.97 861.858,-248.474"/>
</g>
<!-- Node16 -->
<g id="node16" class="node"><title>Node16</title>
<g id="a_node16"><a xlink:href="_installer_record_8h_source.html" target="_top" xlink:title=" ">
<polygon fill="white" stroke="black" points="869,-190.5 869,-220.5 988,-220.5 988,-190.5 869,-190.5"/>
<text text-anchor="start" x="877" y="-208.5" font-family="Helvetica,sans-Serif" font-size="10.00">Storm/Thermostat/Main</text>
<text text-anchor="middle" x="928.5" y="-197.5" font-family="Helvetica,sans-Serif" font-size="10.00">/InstallerRecord.h</text>
</a>
</g>
</g>
<!-- Node15&#45;&gt;Node16 -->
<g id="edge25" class="edge"><title>Node15&#45;&gt;Node16</title>
<path fill="none" stroke="midnightblue" d="M1038.04,-258.474C1014.88,-247.485 981.806,-231.791 958.067,-220.528"/>
<polygon fill="midnightblue" stroke="midnightblue" points="1036.77,-261.744 1047.31,-262.869 1039.77,-255.42 1036.77,-261.744"/>
</g>
<!-- Node17 -->
<g id="node17" class="node"><title>Node17</title>
<g id="a_node17"><a xlink:href="_run_time_record_8h_source.html" target="_top" xlink:title=" ">
<polygon fill="white" stroke="black" points="1006,-190.5 1006,-220.5 1125,-220.5 1125,-190.5 1006,-190.5"/>
<text text-anchor="start" x="1014" y="-208.5" font-family="Helvetica,sans-Serif" font-size="10.00">Storm/Thermostat/Main</text>
<text text-anchor="middle" x="1065.5" y="-197.5" font-family="Helvetica,sans-Serif" font-size="10.00">/RunTimeRecord.h</text>
</a>
</g>
</g>
<!-- Node15&#45;&gt;Node17 -->
<g id="edge26" class="edge"><title>Node15&#45;&gt;Node17</title>
<path fill="none" stroke="midnightblue" d="M1065.5,-252.411C1065.5,-242.222 1065.5,-229.901 1065.5,-220.589"/>
<polygon fill="midnightblue" stroke="midnightblue" points="1062,-252.734 1065.5,-262.734 1069,-252.734 1062,-252.734"/>
</g>
<!-- Node18 -->
<g id="node18" class="node"><title>Node18</title>
<g id="a_node18"><a xlink:href="_user_record_8h_source.html" target="_top" xlink:title=" ">
<polygon fill="white" stroke="black" points="1143,-190.5 1143,-220.5 1262,-220.5 1262,-190.5 1143,-190.5"/>
<text text-anchor="start" x="1151" y="-208.5" font-family="Helvetica,sans-Serif" font-size="10.00">Storm/Thermostat/Main</text>
<text text-anchor="middle" x="1202.5" y="-197.5" font-family="Helvetica,sans-Serif" font-size="10.00">/UserRecord.h</text>
</a>
</g>
</g>
<!-- Node15&#45;&gt;Node18 -->
<g id="edge27" class="edge"><title>Node15&#45;&gt;Node18</title>
<path fill="none" stroke="midnightblue" d="M1092.96,-258.474C1116.12,-247.485 1149.19,-231.791 1172.93,-220.528"/>
<polygon fill="midnightblue" stroke="midnightblue" points="1091.23,-255.42 1083.69,-262.869 1094.23,-261.744 1091.23,-255.42"/>
</g>
<!-- Node19 -->
<g id="node19" class="node"><title>Node19</title>
<g id="a_node19"><a xlink:href="_event_monitor_8h_source.html" target="_top" xlink:title=" ">
<polygon fill="white" stroke="black" points="1280.5,-190.5 1280.5,-220.5 1420.5,-220.5 1420.5,-190.5 1280.5,-190.5"/>
<text text-anchor="start" x="1288.5" y="-208.5" font-family="Helvetica,sans-Serif" font-size="10.00">Storm/Thermostat/Ui</text>
<text text-anchor="middle" x="1350.5" y="-197.5" font-family="Helvetica,sans-Serif" font-size="10.00">/PicoDisplay/EventMonitor.h</text>
</a>
</g>
</g>
<!-- Node15&#45;&gt;Node19 -->
<g id="edge28" class="edge"><title>Node15&#45;&gt;Node19</title>
<path fill="none" stroke="midnightblue" d="M1112.92,-260.685C1161.13,-249.689 1236.06,-232.6 1288.86,-220.559"/>
<polygon fill="midnightblue" stroke="midnightblue" points="1112.02,-257.299 1103.05,-262.936 1113.58,-264.124 1112.02,-257.299"/>
</g>
</g>
</svg>
