<?xml version="1.0" encoding="UTF-8" standalone="no"?>
<!DOCTYPE svg PUBLIC "-//W3C//DTD SVG 1.1//EN"
 "http://www.w3.org/Graphics/SVG/1.1/DTD/svg11.dtd">
<!-- Generated by graphviz version 2.38.0 (20140413.2041)
 -->
<!-- Title: Cpl/System/EventFlag.h Pages: 1 -->
<svg width="2027pt" height="565pt"
 viewBox="0.00 0.00 2027.00 565.00" xmlns="http://www.w3.org/2000/svg" xmlns:xlink="http://www.w3.org/1999/xlink">
<g id="graph0" class="graph" transform="scale(1 1) rotate(0) translate(4 561)">
<title>Cpl/System/EventFlag.h</title>
<polygon fill="white" stroke="none" points="-4,4 -4,-561 2023,-561 2023,4 -4,4"/>
<!-- Node1 -->
<g id="node1" class="node"><title>Node1</title>
<g id="a_node1"><a xlink:title=" ">
<polygon fill="#bfbfbf" stroke="black" points="1515,-537.5 1515,-556.5 1638,-556.5 1638,-537.5 1515,-537.5"/>
<text text-anchor="middle" x="1576.5" y="-544.5" font-family="Helvetica,sans-Serif" font-size="10.00">Cpl/System/EventFlag.h</text>
</a>
</g>
</g>
<!-- Node2 -->
<g id="node2" class="node"><title>Node2</title>
<g id="a_node2"><a xlink:href="_system_2_event_loop_8h.html" target="_top" xlink:title=" ">
<polygon fill="white" stroke="black" points="1514,-425.5 1514,-444.5 1639,-444.5 1639,-425.5 1514,-425.5"/>
<text text-anchor="middle" x="1576.5" y="-432.5" font-family="Helvetica,sans-Serif" font-size="10.00">Cpl/System/EventLoop.h</text>
</a>
</g>
</g>
<!-- Node1&#45;&gt;Node2 -->
<g id="edge1" class="edge"><title>Node1&#45;&gt;Node2</title>
<path fill="none" stroke="midnightblue" d="M1558.27,-530.13C1545.99,-517.415 1533.12,-498.816 1539.5,-481 1544.75,-466.337 1557.08,-453.031 1566.06,-444.755"/>
<polygon fill="midnightblue" stroke="midnightblue" points="1556.02,-532.824 1565.66,-537.227 1560.87,-527.776 1556.02,-532.824"/>
</g>
<!-- Node40 -->
<g id="node40" class="node"><title>Node40</title>
<g id="a_node40"><a xlink:href="_shared_event_handler_8h.html" target="_top" xlink:title=" ">
<polygon fill="white" stroke="black" points="1548.5,-481.5 1548.5,-500.5 1716.5,-500.5 1716.5,-481.5 1548.5,-481.5"/>
<text text-anchor="middle" x="1632.5" y="-488.5" font-family="Helvetica,sans-Serif" font-size="10.00">Cpl/System/SharedEventHandler.h</text>
</a>
</g>
</g>
<!-- Node1&#45;&gt;Node40 -->
<g id="edge53" class="edge"><title>Node1&#45;&gt;Node40</title>
<path fill="none" stroke="midnightblue" d="M1592.83,-530.253C1602.76,-520.673 1615.09,-508.791 1623.34,-500.834"/>
<polygon fill="midnightblue" stroke="midnightblue" points="1590.27,-527.863 1585.5,-537.324 1595.13,-532.902 1590.27,-527.863"/>
</g>
<!-- Node3 -->
<g id="node3" class="node"><title>Node3</title>
<g id="a_node3"><a xlink:href="_dm_2_event_loop_8h.html" target="_top" xlink:title=" ">
<polygon fill="white" stroke="black" points="1406,-369.5 1406,-388.5 1513,-388.5 1513,-369.5 1406,-369.5"/>
<text text-anchor="middle" x="1459.5" y="-376.5" font-family="Helvetica,sans-Serif" font-size="10.00">Cpl/Dm/EventLoop.h</text>
</a>
</g>
</g>
<!-- Node2&#45;&gt;Node3 -->
<g id="edge2" class="edge"><title>Node2&#45;&gt;Node3</title>
<path fill="none" stroke="midnightblue" d="M1548.84,-421.232C1526.95,-411.131 1497,-397.309 1477.95,-388.516"/>
<polygon fill="midnightblue" stroke="midnightblue" points="1547.41,-424.431 1557.96,-425.444 1550.35,-418.075 1547.41,-424.431"/>
</g>
<!-- Node37 -->
<g id="node37" class="node"><title>Node37</title>
<g id="a_node37"><a xlink:href="_mailbox_8h.html" target="_top" xlink:title=" ">
<polygon fill="white" stroke="black" points="1531.5,-369.5 1531.5,-388.5 1621.5,-388.5 1621.5,-369.5 1531.5,-369.5"/>
<text text-anchor="middle" x="1576.5" y="-376.5" font-family="Helvetica,sans-Serif" font-size="10.00">Cpl/Itc/Mailbox.h</text>
</a>
</g>
</g>
<!-- Node2&#45;&gt;Node37 -->
<g id="edge48" class="edge"><title>Node2&#45;&gt;Node37</title>
<path fill="none" stroke="midnightblue" d="M1576.5,-414.805C1576.5,-405.91 1576.5,-395.78 1576.5,-388.751"/>
<polygon fill="midnightblue" stroke="midnightblue" points="1573,-415.083 1576.5,-425.083 1580,-415.083 1573,-415.083"/>
</g>
<!-- Node38 -->
<g id="node38" class="node"><title>Node38</title>
<g id="a_node38"><a xlink:href="_itc_2_mailbox_server_8h.html" target="_top" xlink:title=" ">
<polygon fill="white" stroke="black" points="1590,-313.5 1590,-332.5 1709,-332.5 1709,-313.5 1590,-313.5"/>
<text text-anchor="middle" x="1649.5" y="-320.5" font-family="Helvetica,sans-Serif" font-size="10.00">Cpl/Itc/MailboxServer.h</text>
</a>
</g>
</g>
<!-- Node2&#45;&gt;Node38 -->
<g id="edge52" class="edge"><title>Node2&#45;&gt;Node38</title>
<path fill="none" stroke="midnightblue" d="M1599.25,-419.751C1610.12,-411.89 1622.48,-401.241 1630.5,-389 1642.23,-371.104 1646.88,-345.801 1648.6,-332.668"/>
<polygon fill="midnightblue" stroke="midnightblue" points="1597.23,-416.892 1590.96,-425.435 1601.19,-422.665 1597.23,-416.892"/>
</g>
<!-- Node4 -->
<g id="node4" class="node"><title>Node4</title>
<g id="a_node4"><a xlink:href="_dm_2_mailbox_server_8h.html" target="_top" xlink:title=" ">
<polygon fill="white" stroke="black" points="1424.5,-313.5 1424.5,-332.5 1546.5,-332.5 1546.5,-313.5 1424.5,-313.5"/>
<text text-anchor="middle" x="1485.5" y="-320.5" font-family="Helvetica,sans-Serif" font-size="10.00">Cpl/Dm/MailboxServer.h</text>
</a>
</g>
</g>
<!-- Node3&#45;&gt;Node4 -->
<g id="edge3" class="edge"><title>Node3&#45;&gt;Node4</title>
<path fill="none" stroke="midnightblue" d="M1468.17,-359.983C1472.59,-350.817 1477.75,-340.092 1481.29,-332.751"/>
<polygon fill="midnightblue" stroke="midnightblue" points="1464.98,-358.555 1463.79,-369.083 1471.29,-361.591 1464.98,-358.555"/>
</g>
<!-- Node18 -->
<g id="node18" class="node"><title>Node18</title>
<g id="a_node18"><a xlink:href="_subscriber_8h.html" target="_top" xlink:title=" ">
<polygon fill="white" stroke="black" points="946,-313.5 946,-332.5 1053,-332.5 1053,-313.5 946,-313.5"/>
<text text-anchor="middle" x="999.5" y="-320.5" font-family="Helvetica,sans-Serif" font-size="10.00">Cpl/Dm/Subscriber.h</text>
</a>
</g>
</g>
<!-- Node3&#45;&gt;Node18 -->
<g id="edge25" class="edge"><title>Node3&#45;&gt;Node18</title>
<path fill="none" stroke="midnightblue" d="M1395.63,-370.502C1304.4,-359.793 1138.42,-340.308 1053.18,-330.302"/>
<polygon fill="midnightblue" stroke="midnightblue" points="1395.49,-374.01 1405.83,-371.7 1396.31,-367.058 1395.49,-374.01"/>
</g>
<!-- Node5 -->
<g id="node5" class="node"><title>Node5</title>
<g id="a_node5"><a xlink:href="_dm_2_periodic_scheduler_8h.html" target="_top" xlink:title=" ">
<polygon fill="white" stroke="black" points="1727,-257.5 1727,-276.5 1866,-276.5 1866,-257.5 1727,-257.5"/>
<text text-anchor="middle" x="1796.5" y="-264.5" font-family="Helvetica,sans-Serif" font-size="10.00">Cpl/Dm/PeriodicScheduler.h</text>
</a>
</g>
</g>
<!-- Node4&#45;&gt;Node5 -->
<g id="edge4" class="edge"><title>Node4&#45;&gt;Node5</title>
<path fill="none" stroke="midnightblue" d="M1544.66,-311.727C1603.43,-301.523 1692.5,-286.058 1747.45,-276.516"/>
<polygon fill="midnightblue" stroke="midnightblue" points="1544.03,-308.284 1534.78,-313.444 1545.23,-315.181 1544.03,-308.284"/>
</g>
<!-- Node6 -->
<g id="node6" class="node"><title>Node6</title>
<g id="a_node6"><a xlink:href="_chunk_8h.html" target="_top" xlink:title=" ">
<polygon fill="white" stroke="black" points="1427,-257.5 1427,-276.5 1544,-276.5 1544,-257.5 1427,-257.5"/>
<text text-anchor="middle" x="1485.5" y="-264.5" font-family="Helvetica,sans-Serif" font-size="10.00">Cpl/Persistent/Chunk.h</text>
</a>
</g>
</g>
<!-- Node4&#45;&gt;Node6 -->
<g id="edge5" class="edge"><title>Node4&#45;&gt;Node6</title>
<path fill="none" stroke="midnightblue" d="M1485.5,-302.805C1485.5,-293.91 1485.5,-283.78 1485.5,-276.751"/>
<polygon fill="midnightblue" stroke="midnightblue" points="1482,-303.083 1485.5,-313.083 1489,-303.083 1482,-303.083"/>
</g>
<!-- Node14 -->
<g id="node14" class="node"><title>Node14</title>
<g id="a_node14"><a xlink:href="_persistent_2_record_8h.html" target="_top" xlink:title=" ">
<polygon fill="white" stroke="black" points="1249.5,-257.5 1249.5,-276.5 1369.5,-276.5 1369.5,-257.5 1249.5,-257.5"/>
<text text-anchor="middle" x="1309.5" y="-264.5" font-family="Helvetica,sans-Serif" font-size="10.00">Cpl/Persistent/Record.h</text>
</a>
</g>
</g>
<!-- Node4&#45;&gt;Node14 -->
<g id="edge14" class="edge"><title>Node4&#45;&gt;Node14</title>
<path fill="none" stroke="midnightblue" d="M1447.81,-310.436C1414.63,-300.255 1367.07,-285.664 1337.26,-276.516"/>
<polygon fill="midnightblue" stroke="midnightblue" points="1447.03,-313.856 1457.61,-313.444 1449.08,-307.164 1447.03,-313.856"/>
</g>
<!-- Node15 -->
<g id="node15" class="node"><title>Node15</title>
<g id="a_node15"><a xlink:href="_record_server_8h.html" target="_top" xlink:title=" ">
<polygon fill="white" stroke="black" points="1093,-196 1093,-215 1242,-215 1242,-196 1093,-196"/>
<text text-anchor="middle" x="1167.5" y="-203" font-family="Helvetica,sans-Serif" font-size="10.00">Cpl/Persistent/RecordServer.h</text>
</a>
</g>
</g>
<!-- Node4&#45;&gt;Node15 -->
<g id="edge19" class="edge"><title>Node4&#45;&gt;Node15</title>
<path fill="none" stroke="midnightblue" d="M1414.21,-319.775C1363.35,-315.666 1294.65,-304.838 1240.5,-277 1210.73,-261.696 1184.94,-230.274 1173.62,-215.09"/>
<polygon fill="midnightblue" stroke="midnightblue" points="1414.23,-323.286 1424.46,-320.532 1414.75,-316.305 1414.23,-323.286"/>
</g>
<!-- Node16 -->
<g id="node16" class="node"><title>Node16</title>
<g id="a_node16"><a xlink:href="_region_media_8h.html" target="_top" xlink:title=" ">
<polygon fill="white" stroke="black" points="1562.5,-257.5 1562.5,-276.5 1708.5,-276.5 1708.5,-257.5 1562.5,-257.5"/>
<text text-anchor="middle" x="1635.5" y="-264.5" font-family="Helvetica,sans-Serif" font-size="10.00">Cpl/Persistent/RegionMedia.h</text>
</a>
</g>
</g>
<!-- Node4&#45;&gt;Node16 -->
<g id="edge20" class="edge"><title>Node4&#45;&gt;Node16</title>
<path fill="none" stroke="midnightblue" d="M1518.72,-310.039C1546.95,-299.879 1586.76,-285.546 1611.84,-276.516"/>
<polygon fill="midnightblue" stroke="midnightblue" points="1517.49,-306.763 1509.27,-313.444 1519.86,-313.349 1517.49,-306.763"/>
</g>
<!-- Node7 -->
<g id="node7" class="node"><title>Node7</title>
<g id="a_node7"><a xlink:href="_dm_2_persistent_2_record_8h.html" target="_top" xlink:title=" ">
<polygon fill="white" stroke="black" points="1158.5,-134.5 1158.5,-153.5 1296.5,-153.5 1296.5,-134.5 1158.5,-134.5"/>
<text text-anchor="middle" x="1227.5" y="-141.5" font-family="Helvetica,sans-Serif" font-size="10.00">Cpl/Dm/Persistent/Record.h</text>
</a>
</g>
</g>
<!-- Node6&#45;&gt;Node7 -->
<g id="edge6" class="edge"><title>Node6&#45;&gt;Node7</title>
<path fill="none" stroke="midnightblue" d="M1481.14,-247.186C1476.07,-229.651 1465.93,-204.143 1447.5,-190 1434.41,-179.959 1342.47,-163.525 1281.66,-153.541"/>
<polygon fill="midnightblue" stroke="midnightblue" points="1477.88,-248.556 1483.78,-257.358 1484.65,-246.799 1477.88,-248.556"/>
</g>
<!-- Node8 -->
<g id="node8" class="node"><title>Node8</title>
<g id="a_node8"><a xlink:href="_crc_chunk_8h.html" target="_top" xlink:title=" ">
<polygon fill="white" stroke="black" points="1532.5,-196 1532.5,-215 1664.5,-215 1664.5,-196 1532.5,-196"/>
<text text-anchor="middle" x="1598.5" y="-203" font-family="Helvetica,sans-Serif" font-size="10.00">Cpl/Persistent/CrcChunk.h</text>
</a>
</g>
</g>
<!-- Node6&#45;&gt;Node8 -->
<g id="edge7" class="edge"><title>Node6&#45;&gt;Node8</title>
<path fill="none" stroke="midnightblue" d="M1510.74,-252.712C1532.62,-241.188 1563.64,-224.855 1582.34,-215.009"/>
<polygon fill="midnightblue" stroke="midnightblue" points="1508.91,-249.719 1501.69,-257.475 1512.17,-255.913 1508.91,-249.719"/>
</g>
<!-- Node9 -->
<g id="node9" class="node"><title>Node9</title>
<g id="a_node9"><a xlink:href="_data_record_8h.html" target="_top" xlink:title=" ">
<polygon fill="white" stroke="black" points="1298.5,-196 1298.5,-215 1438.5,-215 1438.5,-196 1298.5,-196"/>
<text text-anchor="middle" x="1368.5" y="-203" font-family="Helvetica,sans-Serif" font-size="10.00">Cpl/Persistent/DataRecord.h</text>
</a>
</g>
</g>
<!-- Node6&#45;&gt;Node9 -->
<g id="edge8" class="edge"><title>Node6&#45;&gt;Node9</title>
<path fill="none" stroke="midnightblue" d="M1459.67,-252.867C1437,-241.335 1404.68,-224.899 1385.23,-215.009"/>
<polygon fill="midnightblue" stroke="midnightblue" points="1458.24,-256.062 1468.74,-257.475 1461.41,-249.822 1458.24,-256.062"/>
</g>
<!-- Node11 -->
<g id="node11" class="node"><title>Node11</title>
<g id="a_node11"><a xlink:href="_indexed_entry_record_8h.html" target="_top" xlink:title=" ">
<polygon fill="white" stroke="black" points="1317,-67.5 1317,-97.5 1456,-97.5 1456,-67.5 1317,-67.5"/>
<text text-anchor="start" x="1325" y="-85.5" font-family="Helvetica,sans-Serif" font-size="10.00">Cpl/Persistent/IndexedEntry</text>
<text text-anchor="middle" x="1386.5" y="-74.5" font-family="Helvetica,sans-Serif" font-size="10.00">Record.h</text>
</a>
</g>
</g>
<!-- Node6&#45;&gt;Node11 -->
<g id="edge12" class="edge"><title>Node6&#45;&gt;Node11</title>
<path fill="none" stroke="midnightblue" d="M1487.65,-247.361C1489.83,-220.152 1490.15,-168.999 1467.5,-134 1456.97,-117.723 1439.14,-105.776 1422.89,-97.6006"/>
<polygon fill="midnightblue" stroke="midnightblue" points="1484.16,-247.145 1486.67,-257.438 1491.13,-247.826 1484.16,-247.145"/>
</g>
<!-- Node13 -->
<g id="node13" class="node"><title>Node13</title>
<g id="a_node13"><a xlink:href="_mirrored_chunk_8h.html" target="_top" xlink:title=" ">
<polygon fill="white" stroke="black" points="1682.5,-196 1682.5,-215 1834.5,-215 1834.5,-196 1682.5,-196"/>
<text text-anchor="middle" x="1758.5" y="-203" font-family="Helvetica,sans-Serif" font-size="10.00">Cpl/Persistent/MirroredChunk.h</text>
</a>
</g>
</g>
<!-- Node6&#45;&gt;Node13 -->
<g id="edge13" class="edge"><title>Node6&#45;&gt;Node13</title>
<path fill="none" stroke="midnightblue" d="M1534.45,-255.33C1587.4,-243.792 1670.74,-225.628 1719.46,-215.009"/>
<polygon fill="midnightblue" stroke="midnightblue" points="1533.64,-251.926 1524.61,-257.475 1535.13,-258.765 1533.64,-251.926"/>
</g>
<!-- Node10 -->
<g id="node10" class="node"><title>Node10</title>
<g id="a_node10"><a xlink:href="_index_record_8h.html" target="_top" xlink:title=" ">
<polygon fill="white" stroke="black" points="1314.5,-134.5 1314.5,-153.5 1458.5,-153.5 1458.5,-134.5 1314.5,-134.5"/>
<text text-anchor="middle" x="1386.5" y="-141.5" font-family="Helvetica,sans-Serif" font-size="10.00">Cpl/Persistent/IndexRecord.h</text>
</a>
</g>
</g>
<!-- Node9&#45;&gt;Node10 -->
<g id="edge9" class="edge"><title>Node9&#45;&gt;Node10</title>
<path fill="none" stroke="midnightblue" d="M1374.05,-186.157C1377.34,-175.272 1381.36,-161.986 1383.93,-153.509"/>
<polygon fill="midnightblue" stroke="midnightblue" points="1370.62,-185.39 1371.08,-195.975 1377.32,-187.417 1370.62,-185.39"/>
</g>
<!-- Node10&#45;&gt;Node11 -->
<g id="edge10" class="edge"><title>Node10&#45;&gt;Node11</title>
<path fill="none" stroke="midnightblue" d="M1386.5,-124.235C1386.5,-115.586 1386.5,-105.497 1386.5,-97.523"/>
<polygon fill="midnightblue" stroke="midnightblue" points="1383,-124.475 1386.5,-134.475 1390,-124.475 1383,-124.475"/>
</g>
<!-- Node12 -->
<g id="node12" class="node"><title>Node12</title>
<g id="a_node12"><a xlink:href="_indexed_entry_server_8h.html" target="_top" xlink:title=" ">
<polygon fill="white" stroke="black" points="1061,-0.5 1061,-30.5 1200,-30.5 1200,-0.5 1061,-0.5"/>
<text text-anchor="start" x="1069" y="-18.5" font-family="Helvetica,sans-Serif" font-size="10.00">Cpl/Persistent/IndexedEntry</text>
<text text-anchor="middle" x="1130.5" y="-7.5" font-family="Helvetica,sans-Serif" font-size="10.00">Server.h</text>
</a>
</g>
</g>
<!-- Node11&#45;&gt;Node12 -->
<g id="edge11" class="edge"><title>Node11&#45;&gt;Node12</title>
<path fill="none" stroke="midnightblue" d="M1321.45,-64.9844C1279.64,-54.3674 1225.89,-40.7201 1186.08,-30.6109"/>
<polygon fill="midnightblue" stroke="midnightblue" points="1320.71,-68.4073 1331.27,-67.476 1322.44,-61.6226 1320.71,-68.4073"/>
</g>
<!-- Node14&#45;&gt;Node7 -->
<g id="edge15" class="edge"><title>Node14&#45;&gt;Node7</title>
<path fill="none" stroke="midnightblue" d="M1297.81,-248.749C1280.01,-222.483 1246.77,-173.429 1233.34,-153.623"/>
<polygon fill="midnightblue" stroke="midnightblue" points="1295.1,-250.983 1303.6,-257.298 1300.89,-247.056 1295.1,-250.983"/>
</g>
<!-- Node14&#45;&gt;Node9 -->
<g id="edge16" class="edge"><title>Node14&#45;&gt;Node9</title>
<path fill="none" stroke="midnightblue" d="M1325.04,-250.325C1336.25,-239.02 1350.96,-224.193 1360.06,-215.009"/>
<polygon fill="midnightblue" stroke="midnightblue" points="1322.51,-247.91 1317.95,-257.475 1327.48,-252.839 1322.51,-247.91"/>
</g>
<!-- Node14&#45;&gt;Node15 -->
<g id="edge17" class="edge"><title>Node14&#45;&gt;Node15</title>
<path fill="none" stroke="midnightblue" d="M1279.62,-253.48C1252.04,-241.924 1211.83,-225.076 1187.81,-215.009"/>
<polygon fill="midnightblue" stroke="midnightblue" points="1278.58,-256.839 1289.15,-257.475 1281.28,-250.382 1278.58,-256.839"/>
</g>
<!-- Node15&#45;&gt;Node7 -->
<g id="edge18" class="edge"><title>Node15&#45;&gt;Node7</title>
<path fill="none" stroke="midnightblue" d="M1183.31,-188.825C1194.71,-177.52 1209.66,-162.693 1218.92,-153.509"/>
<polygon fill="midnightblue" stroke="midnightblue" points="1180.73,-186.448 1176.1,-195.975 1185.66,-191.419 1180.73,-186.448"/>
</g>
<!-- Node16&#45;&gt;Node8 -->
<g id="edge21" class="edge"><title>Node16&#45;&gt;Node8</title>
<path fill="none" stroke="midnightblue" d="M1624.72,-248.671C1617.84,-237.608 1609.23,-223.751 1603.79,-215.009"/>
<polygon fill="midnightblue" stroke="midnightblue" points="1621.95,-250.831 1630.2,-257.475 1627.89,-247.135 1621.95,-250.831"/>
</g>
<!-- Node16&#45;&gt;Node11 -->
<g id="edge23" class="edge"><title>Node16&#45;&gt;Node11</title>
<path fill="none" stroke="midnightblue" d="M1718.9,-256.4C1825.92,-243.986 1998.17,-223.635 2000.5,-221 2009.63,-210.679 2009.37,-200.542 2000.5,-190 1931.54,-108.047 1601.95,-89.1563 1456.15,-84.803"/>
<polygon fill="midnightblue" stroke="midnightblue" points="1718.29,-252.947 1708.76,-257.575 1719.1,-259.901 1718.29,-252.947"/>
</g>
<!-- Node16&#45;&gt;Node13 -->
<g id="edge24" class="edge"><title>Node16&#45;&gt;Node13</title>
<path fill="none" stroke="midnightblue" d="M1662.33,-253.021C1686.19,-241.482 1720.37,-224.943 1740.91,-215.009"/>
<polygon fill="midnightblue" stroke="midnightblue" points="1660.6,-249.97 1653.12,-257.475 1663.65,-256.271 1660.6,-249.97"/>
</g>
<!-- Node17 -->
<g id="node17" class="node"><title>Node17</title>
<g id="a_node17"><a xlink:href="_file_adapter_8h.html" target="_top" xlink:title=" ">
<polygon fill="white" stroke="black" points="1853,-196 1853,-215 1992,-215 1992,-196 1853,-196"/>
<text text-anchor="middle" x="1922.5" y="-203" font-family="Helvetica,sans-Serif" font-size="10.00">Cpl/Persistent/FileAdapter.h</text>
</a>
</g>
</g>
<!-- Node16&#45;&gt;Node17 -->
<g id="edge22" class="edge"><title>Node16&#45;&gt;Node17</title>
<path fill="none" stroke="midnightblue" d="M1686.62,-255.402C1742.26,-243.867 1830.13,-225.65 1881.46,-215.009"/>
<polygon fill="midnightblue" stroke="midnightblue" points="1685.7,-252.018 1676.62,-257.475 1687.12,-258.872 1685.7,-252.018"/>
</g>
<!-- Node19 -->
<g id="node19" class="node"><title>Node19</title>
<g id="a_node19"><a xlink:href="_model_point_common___8h.html" target="_top" xlink:title=" ">
<polygon fill="white" stroke="black" points="432,-257.5 432,-276.5 585,-276.5 585,-257.5 432,-257.5"/>
<text text-anchor="middle" x="508.5" y="-264.5" font-family="Helvetica,sans-Serif" font-size="10.00">Cpl/Dm/ModelPointCommon_.h</text>
</a>
</g>
</g>
<!-- Node18&#45;&gt;Node19 -->
<g id="edge26" class="edge"><title>Node18&#45;&gt;Node19</title>
<path fill="none" stroke="midnightblue" d="M935.47,-314.958C845.373,-305.049 681.44,-287.02 585.03,-276.417"/>
<polygon fill="midnightblue" stroke="midnightblue" points="935.227,-318.452 945.55,-316.067 935.992,-311.494 935.227,-318.452"/>
</g>
<!-- Node36 -->
<g id="node36" class="node"><title>Node36</title>
<g id="a_node36"><a xlink:href="_subscriber_composer_8h.html" target="_top" xlink:title=" ">
<polygon fill="white" stroke="black" points="924,-196 924,-215 1075,-215 1075,-196 924,-196"/>
<text text-anchor="middle" x="999.5" y="-203" font-family="Helvetica,sans-Serif" font-size="10.00">Cpl/Dm/SubscriberComposer.h</text>
</a>
</g>
</g>
<!-- Node18&#45;&gt;Node36 -->
<g id="edge45" class="edge"><title>Node18&#45;&gt;Node36</title>
<path fill="none" stroke="midnightblue" d="M999.5,-303.164C999.5,-277.865 999.5,-233.935 999.5,-215.282"/>
<polygon fill="midnightblue" stroke="midnightblue" points="996,-303.319 999.5,-313.319 1003,-303.319 996,-303.319"/>
</g>
<!-- Node20 -->
<g id="node20" class="node"><title>Node20</title>
<g id="a_node20"><a xlink:href="_array___8h.html" target="_top" xlink:title=" ">
<polygon fill="white" stroke="black" points="125,-196 125,-215 230,-215 230,-196 125,-196"/>
<text text-anchor="middle" x="177.5" y="-203" font-family="Helvetica,sans-Serif" font-size="10.00">Cpl/Dm/Mp/Array_.h</text>
</a>
</g>
</g>
<!-- Node19&#45;&gt;Node20 -->
<g id="edge27" class="edge"><title>Node19&#45;&gt;Node20</title>
<path fill="none" stroke="midnightblue" d="M441.213,-255.967C386.667,-247.54 307.902,-234.705 239.5,-221 230.612,-219.219 221.057,-217.091 212.174,-215.022"/>
<polygon fill="midnightblue" stroke="midnightblue" points="440.692,-259.428 451.108,-257.488 441.756,-252.509 440.692,-259.428"/>
</g>
<!-- Node21 -->
<g id="node21" class="node"><title>Node21</title>
<g id="a_node21"><a xlink:href="_bool_8h.html" target="_top" xlink:title=" ">
<polygon fill="white" stroke="black" points="248.5,-196 248.5,-215 344.5,-215 344.5,-196 248.5,-196"/>
<text text-anchor="middle" x="296.5" y="-203" font-family="Helvetica,sans-Serif" font-size="10.00">Cpl/Dm/Mp/Bool.h</text>
</a>
</g>
</g>
<!-- Node19&#45;&gt;Node21 -->
<g id="edge28" class="edge"><title>Node19&#45;&gt;Node21</title>
<path fill="none" stroke="midnightblue" d="M468.413,-254.749C427.225,-243.189 364.023,-225.451 326.818,-215.009"/>
<polygon fill="midnightblue" stroke="midnightblue" points="467.552,-258.143 478.126,-257.475 469.443,-251.403 467.552,-258.143"/>
</g>
<!-- Node22 -->
<g id="node22" class="node"><title>Node22</title>
<g id="a_node22"><a xlink:href="_elapsed_precision_time_8h.html" target="_top" xlink:title=" ">
<polygon fill="white" stroke="black" points="362.5,-190.5 362.5,-220.5 506.5,-220.5 506.5,-190.5 362.5,-190.5"/>
<text text-anchor="start" x="370.5" y="-208.5" font-family="Helvetica,sans-Serif" font-size="10.00">Cpl/Dm/Mp/ElapsedPrecision</text>
<text text-anchor="middle" x="434.5" y="-197.5" font-family="Helvetica,sans-Serif" font-size="10.00">Time.h</text>
</a>
</g>
</g>
<!-- Node19&#45;&gt;Node22 -->
<g id="edge29" class="edge"><title>Node19&#45;&gt;Node22</title>
<path fill="none" stroke="midnightblue" d="M490.088,-251.195C478.419,-241.813 463.417,-229.751 451.94,-220.523"/>
<polygon fill="midnightblue" stroke="midnightblue" points="487.911,-253.937 497.898,-257.475 492.298,-248.481 487.911,-253.937"/>
</g>
<!-- Node23 -->
<g id="node23" class="node"><title>Node23</title>
<g id="a_node23"><a xlink:href="_enum___8h.html" target="_top" xlink:title=" ">
<polygon fill="white" stroke="black" points="656,-196 656,-215 763,-215 763,-196 656,-196"/>
<text text-anchor="middle" x="709.5" y="-203" font-family="Helvetica,sans-Serif" font-size="10.00">Cpl/Dm/Mp/Enum_.h</text>
</a>
</g>
</g>
<!-- Node19&#45;&gt;Node23 -->
<g id="edge30" class="edge"><title>Node19&#45;&gt;Node23</title>
<path fill="none" stroke="midnightblue" d="M547.252,-254.529C586.317,-242.965 645.704,-225.385 680.755,-215.009"/>
<polygon fill="midnightblue" stroke="midnightblue" points="545.894,-251.281 537.298,-257.475 547.881,-257.993 545.894,-251.281"/>
</g>
<!-- Node24 -->
<g id="node24" class="node"><title>Node24</title>
<g id="a_node24"><a xlink:href="_numeric_8h.html" target="_top" xlink:title=" ">
<polygon fill="white" stroke="black" points="525,-196 525,-215 638,-215 638,-196 525,-196"/>
<text text-anchor="middle" x="581.5" y="-203" font-family="Helvetica,sans-Serif" font-size="10.00">Cpl/Dm/Mp/Numeric.h</text>
</a>
</g>
</g>
<!-- Node19&#45;&gt;Node24 -->
<g id="edge31" class="edge"><title>Node19&#45;&gt;Node24</title>
<path fill="none" stroke="midnightblue" d="M526.937,-250.973C540.899,-239.593 559.576,-224.369 571.06,-215.009"/>
<polygon fill="midnightblue" stroke="midnightblue" points="524.499,-248.444 518.959,-257.475 528.922,-253.87 524.499,-248.444"/>
</g>
<!-- Node34 -->
<g id="node34" class="node"><title>Node34</title>
<g id="a_node34"><a xlink:href="_ref_counter_8h.html" target="_top" xlink:title=" ">
<polygon fill="white" stroke="black" points="781,-196 781,-215 906,-215 906,-196 781,-196"/>
<text text-anchor="middle" x="843.5" y="-203" font-family="Helvetica,sans-Serif" font-size="10.00">Cpl/Dm/Mp/RefCounter.h</text>
</a>
</g>
</g>
<!-- Node19&#45;&gt;Node34 -->
<g id="edge43" class="edge"><title>Node19&#45;&gt;Node34</title>
<path fill="none" stroke="midnightblue" d="M570.963,-255.841C624.309,-247.038 703.047,-233.746 771.5,-221 781.403,-219.156 792.051,-217.069 802.04,-215.065"/>
<polygon fill="midnightblue" stroke="midnightblue" points="570.273,-252.407 560.975,-257.486 571.411,-259.314 570.273,-252.407"/>
</g>
<!-- Node35 -->
<g id="node35" class="node"><title>Node35</title>
<g id="a_node35"><a xlink:href="_dm_2_mp_2_string___8h.html" target="_top" xlink:title=" ">
<polygon fill="white" stroke="black" points="0,-196 0,-215 107,-215 107,-196 0,-196"/>
<text text-anchor="middle" x="53.5" y="-203" font-family="Helvetica,sans-Serif" font-size="10.00">Cpl/Dm/Mp/String_.h</text>
</a>
</g>
</g>
<!-- Node19&#45;&gt;Node35 -->
<g id="edge44" class="edge"><title>Node19&#45;&gt;Node35</title>
<path fill="none" stroke="midnightblue" d="M421.663,-258.964C341.754,-251.802 220.132,-239.163 115.5,-221 106.133,-219.374 96.063,-217.204 86.8187,-215.039"/>
<polygon fill="midnightblue" stroke="midnightblue" points="421.412,-262.456 431.682,-259.853 422.031,-255.483 421.412,-262.456"/>
</g>
<!-- Node25 -->
<g id="node25" class="node"><title>Node25</title>
<g id="a_node25"><a xlink:href="_bit_array16_8h.html" target="_top" xlink:title=" ">
<polygon fill="white" stroke="black" points="500.5,-134.5 500.5,-153.5 622.5,-153.5 622.5,-134.5 500.5,-134.5"/>
<text text-anchor="middle" x="561.5" y="-141.5" font-family="Helvetica,sans-Serif" font-size="10.00">Cpl/Dm/Mp/BitArray16.h</text>
</a>
</g>
</g>
<!-- Node24&#45;&gt;Node25 -->
<g id="edge32" class="edge"><title>Node24&#45;&gt;Node25</title>
<path fill="none" stroke="midnightblue" d="M575.334,-186.157C571.676,-175.272 567.21,-161.986 564.36,-153.509"/>
<polygon fill="midnightblue" stroke="midnightblue" points="572.131,-187.611 578.634,-195.975 578.766,-185.381 572.131,-187.611"/>
</g>
<!-- Node26 -->
<g id="node26" class="node"><title>Node26</title>
<g id="a_node26"><a xlink:href="_double_8h.html" target="_top" xlink:title=" ">
<polygon fill="white" stroke="black" points="641,-134.5 641,-153.5 748,-153.5 748,-134.5 641,-134.5"/>
<text text-anchor="middle" x="694.5" y="-141.5" font-family="Helvetica,sans-Serif" font-size="10.00">Cpl/Dm/Mp/Double.h</text>
</a>
</g>
</g>
<!-- Node24&#45;&gt;Node26 -->
<g id="edge33" class="edge"><title>Node24&#45;&gt;Node26</title>
<path fill="none" stroke="midnightblue" d="M606.736,-191.212C628.622,-179.688 659.641,-163.355 678.34,-153.509"/>
<polygon fill="midnightblue" stroke="midnightblue" points="604.908,-188.219 597.69,-195.975 608.169,-194.413 604.908,-188.219"/>
</g>
<!-- Node27 -->
<g id="node27" class="node"><title>Node27</title>
<g id="a_node27"><a xlink:href="_float_8h.html" target="_top" xlink:title=" ">
<polygon fill="white" stroke="black" points="766.5,-134.5 766.5,-153.5 864.5,-153.5 864.5,-134.5 766.5,-134.5"/>
<text text-anchor="middle" x="815.5" y="-141.5" font-family="Helvetica,sans-Serif" font-size="10.00">Cpl/Dm/Mp/Float.h</text>
</a>
</g>
</g>
<!-- Node24&#45;&gt;Node27 -->
<g id="edge34" class="edge"><title>Node24&#45;&gt;Node27</title>
<path fill="none" stroke="midnightblue" d="M624.885,-193.468C670.323,-181.915 740.709,-164.017 782.036,-153.509"/>
<polygon fill="midnightblue" stroke="midnightblue" points="623.856,-190.119 615.026,-195.975 625.581,-196.903 623.856,-190.119"/>
</g>
<!-- Node28 -->
<g id="node28" class="node"><title>Node28</title>
<g id="a_node28"><a xlink:href="_int32_8h.html" target="_top" xlink:title=" ">
<polygon fill="white" stroke="black" points="882.5,-134.5 882.5,-153.5 980.5,-153.5 980.5,-134.5 882.5,-134.5"/>
<text text-anchor="middle" x="931.5" y="-141.5" font-family="Helvetica,sans-Serif" font-size="10.00">Cpl/Dm/Mp/Int32.h</text>
</a>
</g>
</g>
<!-- Node24&#45;&gt;Node28 -->
<g id="edge35" class="edge"><title>Node24&#45;&gt;Node28</title>
<path fill="none" stroke="midnightblue" d="M627.653,-193.829C633.973,-192.478 640.388,-191.163 646.5,-190 657.972,-187.817 803.988,-164.932 882.425,-152.666"/>
<polygon fill="midnightblue" stroke="midnightblue" points="626.881,-190.415 617.857,-195.966 628.373,-197.254 626.881,-190.415"/>
</g>
<!-- Node29 -->
<g id="node29" class="node"><title>Node29</title>
<g id="a_node29"><a xlink:href="_int64_8h.html" target="_top" xlink:title=" ">
<polygon fill="white" stroke="black" points="148.5,-134.5 148.5,-153.5 246.5,-153.5 246.5,-134.5 148.5,-134.5"/>
<text text-anchor="middle" x="197.5" y="-141.5" font-family="Helvetica,sans-Serif" font-size="10.00">Cpl/Dm/Mp/Int64.h</text>
</a>
</g>
</g>
<!-- Node24&#45;&gt;Node29 -->
<g id="edge36" class="edge"><title>Node24&#45;&gt;Node29</title>
<path fill="none" stroke="midnightblue" d="M534.887,-193.781C528.392,-192.427 521.79,-191.125 515.5,-190 400.663,-169.468 370.921,-170.945 255.5,-154 252.576,-153.571 249.571,-153.123 246.539,-152.667"/>
<polygon fill="midnightblue" stroke="midnightblue" points="534.436,-197.264 544.947,-195.932 535.9,-190.418 534.436,-197.264"/>
</g>
<!-- Node30 -->
<g id="node30" class="node"><title>Node30</title>
<g id="a_node30"><a xlink:href="_uint32_8h.html" target="_top" xlink:title=" ">
<polygon fill="white" stroke="black" points="378.5,-134.5 378.5,-153.5 482.5,-153.5 482.5,-134.5 378.5,-134.5"/>
<text text-anchor="middle" x="430.5" y="-141.5" font-family="Helvetica,sans-Serif" font-size="10.00">Cpl/Dm/Mp/Uint32.h</text>
</a>
</g>
</g>
<!-- Node24&#45;&gt;Node30 -->
<g id="edge37" class="edge"><title>Node24&#45;&gt;Node30</title>
<path fill="none" stroke="midnightblue" d="M550.494,-192.282C521.15,-180.72 477.866,-163.664 452.094,-153.509"/>
<polygon fill="midnightblue" stroke="midnightblue" points="549.278,-195.565 559.865,-195.975 551.845,-189.053 549.278,-195.565"/>
</g>
<!-- Node32 -->
<g id="node32" class="node"><title>Node32</title>
<g id="a_node32"><a xlink:href="_uint64_8h.html" target="_top" xlink:title=" ">
<polygon fill="white" stroke="black" points="998.5,-134.5 998.5,-153.5 1102.5,-153.5 1102.5,-134.5 998.5,-134.5"/>
<text text-anchor="middle" x="1050.5" y="-141.5" font-family="Helvetica,sans-Serif" font-size="10.00">Cpl/Dm/Mp/Uint64.h</text>
</a>
</g>
</g>
<!-- Node24&#45;&gt;Node32 -->
<g id="edge40" class="edge"><title>Node24&#45;&gt;Node32</title>
<path fill="none" stroke="midnightblue" d="M626.675,-193.723C633.301,-192.346 640.06,-191.053 646.5,-190 797.774,-165.273 837.424,-173.191 989.5,-154 992.368,-153.638 995.309,-153.252 998.276,-152.852"/>
<polygon fill="midnightblue" stroke="midnightblue" points="625.476,-190.401 616.44,-195.932 626.953,-197.243 625.476,-190.401"/>
</g>
<!-- Node33 -->
<g id="node33" class="node"><title>Node33</title>
<g id="a_node33"><a xlink:href="_void_8h.html" target="_top" xlink:title=" ">
<polygon fill="white" stroke="black" points="264.5,-134.5 264.5,-153.5 360.5,-153.5 360.5,-134.5 264.5,-134.5"/>
<text text-anchor="middle" x="312.5" y="-141.5" font-family="Helvetica,sans-Serif" font-size="10.00">Cpl/Dm/Mp/Void.h</text>
</a>
</g>
</g>
<!-- Node24&#45;&gt;Node33 -->
<g id="edge42" class="edge"><title>Node24&#45;&gt;Node33</title>
<path fill="none" stroke="midnightblue" d="M532.937,-193.758C480.754,-182.216 398.877,-164.106 350.97,-153.509"/>
<polygon fill="midnightblue" stroke="midnightblue" points="532.439,-197.233 542.959,-195.975 533.951,-190.398 532.439,-197.233"/>
</g>
<!-- Node31 -->
<g id="node31" class="node"><title>Node31</title>
<g id="a_node31"><a xlink:href="_ring_buffer_m_p_8h.html" target="_top" xlink:title=" ">
<polygon fill="white" stroke="black" points="656,-73 656,-92 803,-92 803,-73 656,-73"/>
<text text-anchor="middle" x="729.5" y="-80" font-family="Helvetica,sans-Serif" font-size="10.00">Cpl/Container/RingBufferMP.h</text>
</a>
</g>
</g>
<!-- Node30&#45;&gt;Node31 -->
<g id="edge38" class="edge"><title>Node30&#45;&gt;Node31</title>
<path fill="none" stroke="midnightblue" d="M483.395,-132.474C541.342,-120.943 633.157,-102.672 686.74,-92.0091"/>
<polygon fill="midnightblue" stroke="midnightblue" points="482.464,-129.091 473.339,-134.475 483.83,-135.956 482.464,-129.091"/>
</g>
<!-- Node31&#45;&gt;Node12 -->
<g id="edge39" class="edge"><title>Node31&#45;&gt;Node12</title>
<path fill="none" stroke="midnightblue" d="M792.297,-71.321C865.162,-59.5099 984.967,-40.0901 1060.69,-27.8152"/>
<polygon fill="midnightblue" stroke="midnightblue" points="791.647,-67.8805 782.336,-72.9355 792.767,-74.7903 791.647,-67.8805"/>
</g>
<!-- Node32&#45;&gt;Node11 -->
<g id="edge41" class="edge"><title>Node32&#45;&gt;Node11</title>
<path fill="none" stroke="midnightblue" d="M1108.71,-132.692C1166.55,-122.449 1255.28,-106.737 1316.83,-95.8369"/>
<polygon fill="midnightblue" stroke="midnightblue" points="1107.88,-129.285 1098.64,-134.475 1109.1,-136.178 1107.88,-129.285"/>
</g>
<!-- Node36&#45;&gt;Node7 -->
<g id="edge46" class="edge"><title>Node36&#45;&gt;Node7</title>
<path fill="none" stroke="midnightblue" d="M1042.05,-193.396C1086.33,-181.84 1154.71,-163.995 1194.89,-153.509"/>
<polygon fill="midnightblue" stroke="midnightblue" points="1040.96,-190.063 1032.17,-195.975 1042.73,-196.837 1040.96,-190.063"/>
</g>
<!-- Node36&#45;&gt;Node12 -->
<g id="edge47" class="edge"><title>Node36&#45;&gt;Node12</title>
<path fill="none" stroke="midnightblue" d="M1051.94,-192.845C1073.66,-185.344 1097.1,-173.255 1111.5,-154 1139.36,-116.757 1136.01,-57.5182 1132.68,-30.6168"/>
<polygon fill="midnightblue" stroke="midnightblue" points="1050.58,-189.604 1042.12,-195.978 1052.71,-196.273 1050.58,-189.604"/>
</g>
<!-- Node37&#45;&gt;Node4 -->
<g id="edge49" class="edge"><title>Node37&#45;&gt;Node4</title>
<path fill="none" stroke="midnightblue" d="M1553.21,-364.177C1536.46,-354.241 1514.4,-341.149 1500.08,-332.655"/>
<polygon fill="midnightblue" stroke="midnightblue" points="1551.49,-367.231 1561.88,-369.324 1555.07,-361.211 1551.49,-367.231"/>
</g>
<!-- Node37&#45;&gt;Node38 -->
<g id="edge50" class="edge"><title>Node37&#45;&gt;Node38</title>
<path fill="none" stroke="midnightblue" d="M1596.64,-363.101C1609.78,-353.382 1626.48,-341.027 1637.56,-332.834"/>
<polygon fill="midnightblue" stroke="midnightblue" points="1594.19,-360.563 1588.23,-369.324 1598.35,-366.191 1594.19,-360.563"/>
</g>
<!-- Node39 -->
<g id="node39" class="node"><title>Node39</title>
<g id="a_node39"><a xlink:href="_itc_2_periodic_scheduler_8h.html" target="_top" xlink:title=" ">
<polygon fill="white" stroke="black" points="1884,-257.5 1884,-276.5 2019,-276.5 2019,-257.5 1884,-257.5"/>
<text text-anchor="middle" x="1951.5" y="-264.5" font-family="Helvetica,sans-Serif" font-size="10.00">Cpl/Itc/PeriodicScheduler.h</text>
</a>
</g>
</g>
<!-- Node38&#45;&gt;Node39 -->
<g id="edge51" class="edge"><title>Node38&#45;&gt;Node39</title>
<path fill="none" stroke="midnightblue" d="M1707.3,-311.664C1764.38,-301.459 1850.62,-286.039 1903.87,-276.516"/>
<polygon fill="midnightblue" stroke="midnightblue" points="1706.58,-308.238 1697.35,-313.444 1707.81,-315.129 1706.58,-308.238"/>
</g>
<!-- Node40&#45;&gt;Node2 -->
<g id="edge54" class="edge"><title>Node40&#45;&gt;Node2</title>
<path fill="none" stroke="midnightblue" d="M1616.17,-474.253C1606.24,-464.673 1593.91,-452.791 1585.66,-444.834"/>
<polygon fill="midnightblue" stroke="midnightblue" points="1613.87,-476.902 1623.5,-481.324 1618.73,-471.863 1613.87,-476.902"/>
</g>
</g>
</svg>
