<?xml version="1.0" encoding="UTF-8" standalone="no"?>
<!DOCTYPE svg PUBLIC "-//W3C//DTD SVG 1.1//EN"
 "http://www.w3.org/Graphics/SVG/1.1/DTD/svg11.dtd">
<!-- Generated by graphviz version 2.38.0 (20140413.2041)
 -->
<!-- Title: Cpl/Text/FString_.h Pages: 1 -->
<svg width="1952pt" height="341pt"
 viewBox="0.00 0.00 1952.00 341.00" xmlns="http://www.w3.org/2000/svg" xmlns:xlink="http://www.w3.org/1999/xlink">
<g id="graph0" class="graph" transform="scale(1 1) rotate(0) translate(4 337)">
<title>Cpl/Text/FString_.h</title>
<polygon fill="white" stroke="none" points="-4,4 -4,-337 1948,-337 1948,4 -4,4"/>
<!-- Node1 -->
<g id="node1" class="node"><title>Node1</title>
<g id="a_node1"><a xlink:title=" ">
<polygon fill="#bfbfbf" stroke="black" points="825.5,-313.5 825.5,-332.5 926.5,-332.5 926.5,-313.5 825.5,-313.5"/>
<text text-anchor="middle" x="876" y="-320.5" font-family="Helvetica,sans-Serif" font-size="10.00">Cpl/Text/FString_.h</text>
</a>
</g>
</g>
<!-- Node2 -->
<g id="node2" class="node"><title>Node2</title>
<g id="a_node2"><a xlink:href="_d_f_string_8h.html" target="_top" xlink:title=" ">
<polygon fill="white" stroke="black" points="635.5,-257.5 635.5,-276.5 738.5,-276.5 738.5,-257.5 635.5,-257.5"/>
<text text-anchor="middle" x="687" y="-264.5" font-family="Helvetica,sans-Serif" font-size="10.00">Cpl/Text/DFString.h</text>
</a>
</g>
</g>
<!-- Node1&#45;&gt;Node2 -->
<g id="edge1" class="edge"><title>Node1&#45;&gt;Node2</title>
<path fill="none" stroke="midnightblue" d="M835.987,-310.568C800.333,-300.381 748.962,-285.703 716.808,-276.516"/>
<polygon fill="midnightblue" stroke="midnightblue" points="835.476,-314.062 846.052,-313.444 837.399,-307.331 835.476,-314.062"/>
</g>
<!-- Node4 -->
<g id="node4" class="node"><title>Node4</title>
<g id="a_node4"><a xlink:href="_f_string_8h.html" target="_top" xlink:title=" ">
<polygon fill="white" stroke="black" points="1017,-257.5 1017,-276.5 1113,-276.5 1113,-257.5 1017,-257.5"/>
<text text-anchor="middle" x="1065" y="-264.5" font-family="Helvetica,sans-Serif" font-size="10.00">Cpl/Text/FString.h</text>
</a>
</g>
</g>
<!-- Node1&#45;&gt;Node4 -->
<g id="edge3" class="edge"><title>Node1&#45;&gt;Node4</title>
<path fill="none" stroke="midnightblue" d="M916.013,-310.568C951.667,-300.381 1003.04,-285.703 1035.19,-276.516"/>
<polygon fill="midnightblue" stroke="midnightblue" points="914.601,-307.331 905.948,-313.444 916.524,-314.062 914.601,-307.331"/>
</g>
<!-- Node3 -->
<g id="node3" class="node"><title>Node3</title>
<g id="a_node3"><a xlink:href="_d_f_string_item_8h.html" target="_top" xlink:title=" ">
<polygon fill="white" stroke="black" points="292,-196 292,-215 414,-215 414,-196 292,-196"/>
<text text-anchor="middle" x="353" y="-203" font-family="Helvetica,sans-Serif" font-size="10.00">Cpl/Text/DFStringItem.h</text>
</a>
</g>
</g>
<!-- Node2&#45;&gt;Node3 -->
<g id="edge2" class="edge"><title>Node2&#45;&gt;Node3</title>
<path fill="none" stroke="midnightblue" d="M625.281,-256.114C571.707,-247.382 492.104,-234.042 423,-221 413.244,-219.159 402.749,-217.052 392.93,-215.026"/>
<polygon fill="midnightblue" stroke="midnightblue" points="624.873,-259.594 635.305,-257.744 625.996,-252.684 624.873,-259.594"/>
</g>
<!-- Node5 -->
<g id="node5" class="node"><title>Node5</title>
<g id="a_node5"><a xlink:href="_numeric_8h.html" target="_top" xlink:title=" ">
<polygon fill="white" stroke="black" points="432.5,-196 432.5,-215 545.5,-215 545.5,-196 432.5,-196"/>
<text text-anchor="middle" x="489" y="-203" font-family="Helvetica,sans-Serif" font-size="10.00">Cpl/Dm/Mp/Numeric.h</text>
</a>
</g>
</g>
<!-- Node4&#45;&gt;Node5 -->
<g id="edge4" class="edge"><title>Node4&#45;&gt;Node5</title>
<path fill="none" stroke="midnightblue" d="M1006.68,-263.291C911.628,-258.332 717.594,-245.929 555,-221 544.795,-219.435 533.808,-217.233 523.781,-215.016"/>
<polygon fill="midnightblue" stroke="midnightblue" points="1006.78,-266.801 1016.94,-263.818 1007.13,-259.81 1006.78,-266.801"/>
</g>
<!-- Node17 -->
<g id="node17" class="node"><title>Node17</title>
<g id="a_node17"><a xlink:href="_cpl_2_io_2_file_2_api_8h.html" target="_top" xlink:title=" ">
<polygon fill="white" stroke="black" points="564,-196 564,-215 650,-215 650,-196 564,-196"/>
<text text-anchor="middle" x="607" y="-203" font-family="Helvetica,sans-Serif" font-size="10.00">Cpl/Io/File/Api.h</text>
</a>
</g>
</g>
<!-- Node4&#45;&gt;Node17 -->
<g id="edge17" class="edge"><title>Node4&#45;&gt;Node17</title>
<path fill="none" stroke="midnightblue" d="M1006.54,-262.497C927.246,-257.071 781.44,-244.695 659,-221 650.903,-219.433 642.228,-217.23 634.329,-215.013"/>
<polygon fill="midnightblue" stroke="midnightblue" points="1006.6,-266.009 1016.81,-263.187 1007.07,-259.025 1006.6,-266.009"/>
</g>
<!-- Node18 -->
<g id="node18" class="node"><title>Node18</title>
<g id="a_node18"><a xlink:href="_line_reader_8h.html" target="_top" xlink:title=" ">
<polygon fill="white" stroke="black" points="668,-196 668,-215 770,-215 770,-196 668,-196"/>
<text text-anchor="middle" x="719" y="-203" font-family="Helvetica,sans-Serif" font-size="10.00">Cpl/Io/LineReader.h</text>
</a>
</g>
</g>
<!-- Node4&#45;&gt;Node18 -->
<g id="edge18" class="edge"><title>Node4&#45;&gt;Node18</title>
<path fill="none" stroke="midnightblue" d="M1006.9,-258.267C948.944,-250.222 857.474,-236.629 779,-221 770.277,-219.263 760.903,-217.128 752.217,-215.035"/>
<polygon fill="midnightblue" stroke="midnightblue" points="1006.58,-261.756 1016.97,-259.655 1007.54,-254.822 1006.58,-261.756"/>
</g>
<!-- Node19 -->
<g id="node19" class="node"><title>Node19</title>
<g id="a_node19"><a xlink:href="_bare_metal_2_thread_8h.html" target="_top" xlink:title=" ">
<polygon fill="white" stroke="black" points="788.5,-190.5 788.5,-220.5 903.5,-220.5 903.5,-190.5 788.5,-190.5"/>
<text text-anchor="start" x="796.5" y="-208.5" font-family="Helvetica,sans-Serif" font-size="10.00">Cpl/System/BareMetal</text>
<text text-anchor="middle" x="846" y="-197.5" font-family="Helvetica,sans-Serif" font-size="10.00">/Thread.h</text>
</a>
</g>
</g>
<!-- Node4&#45;&gt;Node19 -->
<g id="edge19" class="edge"><title>Node4&#45;&gt;Node19</title>
<path fill="none" stroke="midnightblue" d="M1023.53,-254.734C987.792,-245.023 936.032,-230.961 897.614,-220.523"/>
<polygon fill="midnightblue" stroke="midnightblue" points="1023.05,-258.231 1033.62,-257.475 1024.89,-251.476 1023.05,-258.231"/>
</g>
<!-- Node20 -->
<g id="node20" class="node"><title>Node20</title>
<g id="a_node20"><a xlink:href="_cpp11_2_thread_8h.html" target="_top" xlink:title=" ">
<polygon fill="white" stroke="black" points="922,-196 922,-215 1062,-215 1062,-196 922,-196"/>
<text text-anchor="middle" x="992" y="-203" font-family="Helvetica,sans-Serif" font-size="10.00">Cpl/System/Cpp11/Thread.h</text>
</a>
</g>
</g>
<!-- Node4&#45;&gt;Node20 -->
<g id="edge20" class="edge"><title>Node4&#45;&gt;Node20</title>
<path fill="none" stroke="midnightblue" d="M1046.56,-250.973C1032.6,-239.593 1013.92,-224.369 1002.44,-215.009"/>
<polygon fill="midnightblue" stroke="midnightblue" points="1044.58,-253.87 1054.54,-257.475 1049,-248.444 1044.58,-253.87"/>
</g>
<!-- Node21 -->
<g id="node21" class="node"><title>Node21</title>
<g id="a_node21"><a xlink:href="_free_r_t_o_s_2_thread_8h.html" target="_top" xlink:title=" ">
<polygon fill="white" stroke="black" points="1080.5,-190.5 1080.5,-220.5 1197.5,-220.5 1197.5,-190.5 1080.5,-190.5"/>
<text text-anchor="start" x="1088.5" y="-208.5" font-family="Helvetica,sans-Serif" font-size="10.00">Cpl/System/FreeRTOS</text>
<text text-anchor="middle" x="1139" y="-197.5" font-family="Helvetica,sans-Serif" font-size="10.00">/Thread.h</text>
</a>
</g>
</g>
<!-- Node4&#45;&gt;Node21 -->
<g id="edge21" class="edge"><title>Node4&#45;&gt;Node21</title>
<path fill="none" stroke="midnightblue" d="M1083.41,-251.195C1095.08,-241.813 1110.08,-229.751 1121.56,-220.523"/>
<polygon fill="midnightblue" stroke="midnightblue" points="1081.2,-248.481 1075.6,-257.475 1085.59,-253.937 1081.2,-248.481"/>
</g>
<!-- Node22 -->
<g id="node22" class="node"><title>Node22</title>
<g id="a_node22"><a xlink:href="_posix_2_thread_8h.html" target="_top" xlink:title=" ">
<polygon fill="white" stroke="black" points="1215.5,-196 1215.5,-215 1352.5,-215 1352.5,-196 1215.5,-196"/>
<text text-anchor="middle" x="1284" y="-203" font-family="Helvetica,sans-Serif" font-size="10.00">Cpl/System/Posix/Thread.h</text>
</a>
</g>
</g>
<!-- Node4&#45;&gt;Node22 -->
<g id="edge22" class="edge"><title>Node4&#45;&gt;Node22</title>
<path fill="none" stroke="midnightblue" d="M1106.14,-254.822C1148.68,-243.264 1214.17,-225.473 1252.68,-215.009"/>
<polygon fill="midnightblue" stroke="midnightblue" points="1105.11,-251.476 1096.38,-257.475 1106.95,-258.231 1105.11,-251.476"/>
</g>
<!-- Node23 -->
<g id="node23" class="node"><title>Node23</title>
<g id="a_node23"><a xlink:href="_r_p2040_2_thread_8h.html" target="_top" xlink:title=" ">
<polygon fill="white" stroke="black" points="1371,-196 1371,-215 1517,-215 1517,-196 1371,-196"/>
<text text-anchor="middle" x="1444" y="-203" font-family="Helvetica,sans-Serif" font-size="10.00">Cpl/System/RP2040/Thread.h</text>
</a>
</g>
</g>
<!-- Node4&#45;&gt;Node23 -->
<g id="edge23" class="edge"><title>Node4&#45;&gt;Node23</title>
<path fill="none" stroke="midnightblue" d="M1123.24,-257.533C1182.98,-248.758 1278.56,-234.466 1361,-221 1372.4,-219.137 1384.67,-217.043 1396.19,-215.038"/>
<polygon fill="midnightblue" stroke="midnightblue" points="1122.63,-254.086 1113.24,-259 1123.65,-261.011 1122.63,-254.086"/>
</g>
<!-- Node24 -->
<g id="node24" class="node"><title>Node24</title>
<g id="a_node24"><a xlink:href="_win32_2_thread_8h.html" target="_top" xlink:title=" ">
<polygon fill="white" stroke="black" points="1535.5,-196 1535.5,-215 1674.5,-215 1674.5,-196 1535.5,-196"/>
<text text-anchor="middle" x="1605" y="-203" font-family="Helvetica,sans-Serif" font-size="10.00">Cpl/System/Win32/Thread.h</text>
</a>
</g>
</g>
<!-- Node4&#45;&gt;Node24 -->
<g id="edge24" class="edge"><title>Node4&#45;&gt;Node24</title>
<path fill="none" stroke="midnightblue" d="M1123.29,-261.893C1210.94,-255.359 1381.8,-241.235 1526,-221 1537.74,-219.353 1550.39,-217.201 1562.06,-215.061"/>
<polygon fill="midnightblue" stroke="midnightblue" points="1122.99,-258.405 1113.27,-262.633 1123.51,-265.386 1122.99,-258.405"/>
</g>
<!-- Node25 -->
<g id="node25" class="node"><title>Node25</title>
<g id="a_node25"><a xlink:href="_processor_8h.html" target="_top" xlink:title=" ">
<polygon fill="white" stroke="black" points="1692.5,-196 1692.5,-215 1809.5,-215 1809.5,-196 1692.5,-196"/>
<text text-anchor="middle" x="1751" y="-203" font-family="Helvetica,sans-Serif" font-size="10.00">Cpl/TShell/Processor.h</text>
</a>
</g>
</g>
<!-- Node4&#45;&gt;Node25 -->
<g id="edge25" class="edge"><title>Node4&#45;&gt;Node25</title>
<path fill="none" stroke="midnightblue" d="M1123.54,-264.416C1233.61,-260.844 1478.72,-250.077 1683,-221 1693.64,-219.486 1705.1,-217.272 1715.52,-215.028"/>
<polygon fill="midnightblue" stroke="midnightblue" points="1123.2,-260.925 1113.32,-264.739 1123.43,-267.921 1123.2,-260.925"/>
</g>
<!-- Node29 -->
<g id="node29" class="node"><title>Node29</title>
<g id="a_node29"><a xlink:href="_f_string_item_8h.html" target="_top" xlink:title=" ">
<polygon fill="white" stroke="black" points="1828,-196 1828,-215 1944,-215 1944,-196 1828,-196"/>
<text text-anchor="middle" x="1886" y="-203" font-family="Helvetica,sans-Serif" font-size="10.00">Cpl/Text/FStringItem.h</text>
</a>
</g>
</g>
<!-- Node4&#45;&gt;Node29 -->
<g id="edge29" class="edge"><title>Node4&#45;&gt;Node29</title>
<path fill="none" stroke="midnightblue" d="M1123.62,-265.557C1250.83,-263.928 1561.53,-256.331 1819,-221 1829.61,-219.544 1841.04,-217.319 1851.41,-215.047"/>
<polygon fill="midnightblue" stroke="midnightblue" points="1123.28,-262.061 1113.33,-265.681 1123.37,-269.06 1123.28,-262.061"/>
</g>
<!-- Node6 -->
<g id="node6" class="node"><title>Node6</title>
<g id="a_node6"><a xlink:href="_bit_array16_8h.html" target="_top" xlink:title=" ">
<polygon fill="white" stroke="black" points="0,-134.5 0,-153.5 122,-153.5 122,-134.5 0,-134.5"/>
<text text-anchor="middle" x="61" y="-141.5" font-family="Helvetica,sans-Serif" font-size="10.00">Cpl/Dm/Mp/BitArray16.h</text>
</a>
</g>
</g>
<!-- Node5&#45;&gt;Node6 -->
<g id="edge5" class="edge"><title>Node5&#45;&gt;Node6</title>
<path fill="none" stroke="midnightblue" d="M443.347,-193.889C436.546,-192.477 429.604,-191.13 423,-190 294.113,-167.947 260.736,-170.337 131,-154 128.082,-153.633 125.097,-153.255 122.081,-152.872"/>
<polygon fill="midnightblue" stroke="midnightblue" points="442.643,-197.318 453.153,-195.985 444.106,-190.472 442.643,-197.318"/>
</g>
<!-- Node7 -->
<g id="node7" class="node"><title>Node7</title>
<g id="a_node7"><a xlink:href="_double_8h.html" target="_top" xlink:title=" ">
<polygon fill="white" stroke="black" points="140.5,-134.5 140.5,-153.5 247.5,-153.5 247.5,-134.5 140.5,-134.5"/>
<text text-anchor="middle" x="194" y="-141.5" font-family="Helvetica,sans-Serif" font-size="10.00">Cpl/Dm/Mp/Double.h</text>
</a>
</g>
</g>
<!-- Node5&#45;&gt;Node7 -->
<g id="edge6" class="edge"><title>Node5&#45;&gt;Node7</title>
<path fill="none" stroke="midnightblue" d="M440.943,-193.812C434.907,-192.507 428.813,-191.209 423,-190 359.135,-176.711 285.025,-162.339 238.817,-153.502"/>
<polygon fill="midnightblue" stroke="midnightblue" points="440.474,-197.291 450.989,-195.998 441.962,-190.451 440.474,-197.291"/>
</g>
<!-- Node8 -->
<g id="node8" class="node"><title>Node8</title>
<g id="a_node8"><a xlink:href="_float_8h.html" target="_top" xlink:title=" ">
<polygon fill="white" stroke="black" points="266,-134.5 266,-153.5 364,-153.5 364,-134.5 266,-134.5"/>
<text text-anchor="middle" x="315" y="-141.5" font-family="Helvetica,sans-Serif" font-size="10.00">Cpl/Dm/Mp/Float.h</text>
</a>
</g>
</g>
<!-- Node5&#45;&gt;Node8 -->
<g id="edge7" class="edge"><title>Node5&#45;&gt;Node8</title>
<path fill="none" stroke="midnightblue" d="M454.586,-192.732C420.763,-181.166 369.968,-163.797 339.884,-153.509"/>
<polygon fill="midnightblue" stroke="midnightblue" points="453.475,-196.051 464.07,-195.975 455.74,-189.428 453.475,-196.051"/>
</g>
<!-- Node9 -->
<g id="node9" class="node"><title>Node9</title>
<g id="a_node9"><a xlink:href="_int32_8h.html" target="_top" xlink:title=" ">
<polygon fill="white" stroke="black" points="382,-134.5 382,-153.5 480,-153.5 480,-134.5 382,-134.5"/>
<text text-anchor="middle" x="431" y="-141.5" font-family="Helvetica,sans-Serif" font-size="10.00">Cpl/Dm/Mp/Int32.h</text>
</a>
</g>
</g>
<!-- Node5&#45;&gt;Node9 -->
<g id="edge8" class="edge"><title>Node5&#45;&gt;Node9</title>
<path fill="none" stroke="midnightblue" d="M473.401,-188.497C462.423,-177.236 448.161,-162.604 439.295,-153.509"/>
<polygon fill="midnightblue" stroke="midnightblue" points="471.203,-191.257 480.69,-195.975 476.216,-186.371 471.203,-191.257"/>
</g>
<!-- Node10 -->
<g id="node10" class="node"><title>Node10</title>
<g id="a_node10"><a xlink:href="_int64_8h.html" target="_top" xlink:title=" ">
<polygon fill="white" stroke="black" points="498,-134.5 498,-153.5 596,-153.5 596,-134.5 498,-134.5"/>
<text text-anchor="middle" x="547" y="-141.5" font-family="Helvetica,sans-Serif" font-size="10.00">Cpl/Dm/Mp/Int64.h</text>
</a>
</g>
</g>
<!-- Node5&#45;&gt;Node10 -->
<g id="edge9" class="edge"><title>Node5&#45;&gt;Node10</title>
<path fill="none" stroke="midnightblue" d="M504.599,-188.497C515.577,-177.236 529.839,-162.604 538.705,-153.509"/>
<polygon fill="midnightblue" stroke="midnightblue" points="501.784,-186.371 497.31,-195.975 506.797,-191.257 501.784,-186.371"/>
</g>
<!-- Node11 -->
<g id="node11" class="node"><title>Node11</title>
<g id="a_node11"><a xlink:href="_uint32_8h.html" target="_top" xlink:title=" ">
<polygon fill="white" stroke="black" points="614,-134.5 614,-153.5 718,-153.5 718,-134.5 614,-134.5"/>
<text text-anchor="middle" x="666" y="-141.5" font-family="Helvetica,sans-Serif" font-size="10.00">Cpl/Dm/Mp/Uint32.h</text>
</a>
</g>
</g>
<!-- Node5&#45;&gt;Node11 -->
<g id="edge10" class="edge"><title>Node5&#45;&gt;Node11</title>
<path fill="none" stroke="midnightblue" d="M524.007,-192.732C558.414,-181.166 610.084,-163.797 640.687,-153.509"/>
<polygon fill="midnightblue" stroke="midnightblue" points="522.723,-189.471 514.36,-195.975 524.954,-196.106 522.723,-189.471"/>
</g>
<!-- Node14 -->
<g id="node14" class="node"><title>Node14</title>
<g id="a_node14"><a xlink:href="_uint64_8h.html" target="_top" xlink:title=" ">
<polygon fill="white" stroke="black" points="736,-134.5 736,-153.5 840,-153.5 840,-134.5 736,-134.5"/>
<text text-anchor="middle" x="788" y="-141.5" font-family="Helvetica,sans-Serif" font-size="10.00">Cpl/Dm/Mp/Uint64.h</text>
</a>
</g>
</g>
<!-- Node5&#45;&gt;Node14 -->
<g id="edge13" class="edge"><title>Node5&#45;&gt;Node14</title>
<path fill="none" stroke="midnightblue" d="M537.053,-193.793C543.09,-192.492 549.185,-191.2 555,-190 619.759,-176.635 694.902,-162.34 741.953,-153.535"/>
<polygon fill="midnightblue" stroke="midnightblue" points="536.035,-190.433 527.006,-195.977 537.522,-197.273 536.035,-190.433"/>
</g>
<!-- Node16 -->
<g id="node16" class="node"><title>Node16</title>
<g id="a_node16"><a xlink:href="_void_8h.html" target="_top" xlink:title=" ">
<polygon fill="white" stroke="black" points="858,-134.5 858,-153.5 954,-153.5 954,-134.5 858,-134.5"/>
<text text-anchor="middle" x="906" y="-141.5" font-family="Helvetica,sans-Serif" font-size="10.00">Cpl/Dm/Mp/Void.h</text>
</a>
</g>
</g>
<!-- Node5&#45;&gt;Node16 -->
<g id="edge16" class="edge"><title>Node5&#45;&gt;Node16</title>
<path fill="none" stroke="midnightblue" d="M534.653,-193.884C541.453,-192.473 548.396,-191.127 555,-190 684.766,-167.851 718.631,-172.268 849,-154 851.877,-153.597 854.834,-153.169 857.816,-152.729"/>
<polygon fill="midnightblue" stroke="midnightblue" points="533.894,-190.467 524.846,-195.98 535.357,-197.313 533.894,-190.467"/>
</g>
<!-- Node12 -->
<g id="node12" class="node"><title>Node12</title>
<g id="a_node12"><a xlink:href="_ring_buffer_m_p_8h.html" target="_top" xlink:title=" ">
<polygon fill="white" stroke="black" points="572.5,-73 572.5,-92 719.5,-92 719.5,-73 572.5,-73"/>
<text text-anchor="middle" x="646" y="-80" font-family="Helvetica,sans-Serif" font-size="10.00">Cpl/Container/RingBufferMP.h</text>
</a>
</g>
</g>
<!-- Node11&#45;&gt;Node12 -->
<g id="edge11" class="edge"><title>Node11&#45;&gt;Node12</title>
<path fill="none" stroke="midnightblue" d="M659.834,-124.657C656.176,-113.772 651.71,-100.486 648.86,-92.0091"/>
<polygon fill="midnightblue" stroke="midnightblue" points="656.631,-126.111 663.134,-134.475 663.266,-123.881 656.631,-126.111"/>
</g>
<!-- Node13 -->
<g id="node13" class="node"><title>Node13</title>
<g id="a_node13"><a xlink:href="_indexed_entry_server_8h.html" target="_top" xlink:title=" ">
<polygon fill="white" stroke="black" points="656.5,-0.5 656.5,-30.5 795.5,-30.5 795.5,-0.5 656.5,-0.5"/>
<text text-anchor="start" x="664.5" y="-18.5" font-family="Helvetica,sans-Serif" font-size="10.00">Cpl/Persistent/IndexedEntry</text>
<text text-anchor="middle" x="726" y="-7.5" font-family="Helvetica,sans-Serif" font-size="10.00">Server.h</text>
</a>
</g>
</g>
<!-- Node12&#45;&gt;Node13 -->
<g id="edge12" class="edge"><title>Node12&#45;&gt;Node13</title>
<path fill="none" stroke="midnightblue" d="M664.785,-66.2371C678.059,-55.4518 695.72,-41.1025 708.66,-30.589"/>
<polygon fill="midnightblue" stroke="midnightblue" points="662.343,-63.7114 656.789,-72.7338 666.757,-69.1443 662.343,-63.7114"/>
</g>
<!-- Node15 -->
<g id="node15" class="node"><title>Node15</title>
<g id="a_node15"><a xlink:href="_indexed_entry_record_8h.html" target="_top" xlink:title=" ">
<polygon fill="white" stroke="black" points="737.5,-67.5 737.5,-97.5 876.5,-97.5 876.5,-67.5 737.5,-67.5"/>
<text text-anchor="start" x="745.5" y="-85.5" font-family="Helvetica,sans-Serif" font-size="10.00">Cpl/Persistent/IndexedEntry</text>
<text text-anchor="middle" x="807" y="-74.5" font-family="Helvetica,sans-Serif" font-size="10.00">Record.h</text>
</a>
</g>
</g>
<!-- Node14&#45;&gt;Node15 -->
<g id="edge14" class="edge"><title>Node14&#45;&gt;Node15</title>
<path fill="none" stroke="midnightblue" d="M793.807,-124.816C796.609,-116.041 799.919,-105.676 802.522,-97.523"/>
<polygon fill="midnightblue" stroke="midnightblue" points="790.43,-123.884 790.722,-134.475 797.098,-126.014 790.43,-123.884"/>
</g>
<!-- Node15&#45;&gt;Node13 -->
<g id="edge15" class="edge"><title>Node15&#45;&gt;Node13</title>
<path fill="none" stroke="midnightblue" d="M781.308,-60.8832C768.999,-51.0054 754.573,-39.4293 743.541,-30.5765"/>
<polygon fill="midnightblue" stroke="midnightblue" points="779.434,-63.867 789.424,-67.396 783.815,-58.4075 779.434,-63.867"/>
</g>
<!-- Node26 -->
<g id="node26" class="node"><title>Node26</title>
<g id="a_node26"><a xlink:href="_maker_8h.html" target="_top" xlink:title=" ">
<polygon fill="white" stroke="black" points="1631,-134.5 1631,-153.5 1731,-153.5 1731,-134.5 1631,-134.5"/>
<text text-anchor="middle" x="1681" y="-141.5" font-family="Helvetica,sans-Serif" font-size="10.00">Cpl/TShell/Maker.h</text>
</a>
</g>
</g>
<!-- Node25&#45;&gt;Node26 -->
<g id="edge26" class="edge"><title>Node25&#45;&gt;Node26</title>
<path fill="none" stroke="midnightblue" d="M1733.32,-189.473C1719.93,-178.093 1702.02,-162.869 1691.01,-153.509"/>
<polygon fill="midnightblue" stroke="midnightblue" points="1731.08,-192.165 1740.97,-195.975 1735.62,-186.832 1731.08,-192.165"/>
</g>
<!-- Node27 -->
<g id="node27" class="node"><title>Node27</title>
<g id="a_node27"><a xlink:href="_polled_processor_8h.html" target="_top" xlink:title=" ">
<polygon fill="white" stroke="black" points="1749,-134.5 1749,-153.5 1893,-153.5 1893,-134.5 1749,-134.5"/>
<text text-anchor="middle" x="1821" y="-141.5" font-family="Helvetica,sans-Serif" font-size="10.00">Cpl/TShell/PolledProcessor.h</text>
</a>
</g>
</g>
<!-- Node25&#45;&gt;Node27 -->
<g id="edge27" class="edge"><title>Node25&#45;&gt;Node27</title>
<path fill="none" stroke="midnightblue" d="M1768.68,-189.473C1782.07,-178.093 1799.98,-162.869 1810.99,-153.509"/>
<polygon fill="midnightblue" stroke="midnightblue" points="1766.38,-186.832 1761.03,-195.975 1770.92,-192.165 1766.38,-186.832"/>
</g>
<!-- Node28 -->
<g id="node28" class="node"><title>Node28</title>
<g id="a_node28"><a xlink:href="_polled_maker_8h.html" target="_top" xlink:title=" ">
<polygon fill="white" stroke="black" points="1757.5,-73 1757.5,-92 1884.5,-92 1884.5,-73 1757.5,-73"/>
<text text-anchor="middle" x="1821" y="-80" font-family="Helvetica,sans-Serif" font-size="10.00">Cpl/TShell/PolledMaker.h</text>
</a>
</g>
</g>
<!-- Node27&#45;&gt;Node28 -->
<g id="edge28" class="edge"><title>Node27&#45;&gt;Node28</title>
<path fill="none" stroke="midnightblue" d="M1821,-124.317C1821,-113.496 1821,-100.398 1821,-92.0091"/>
<polygon fill="midnightblue" stroke="midnightblue" points="1817.5,-124.475 1821,-134.475 1824.5,-124.475 1817.5,-124.475"/>
</g>
</g>
</svg>
