<?xml version="1.0" encoding="UTF-8" standalone="no"?>
<!DOCTYPE svg PUBLIC "-//W3C//DTD SVG 1.1//EN"
 "http://www.w3.org/Graphics/SVG/1.1/DTD/svg11.dtd">
<!-- Generated by graphviz version 2.38.0 (20140413.2041)
 -->
<!-- Title: Storm/Type/FanMode.h Pages: 1 -->
<svg width="726pt" height="218pt"
 viewBox="0.00 0.00 726.00 218.00" xmlns="http://www.w3.org/2000/svg" xmlns:xlink="http://www.w3.org/1999/xlink">
<g id="graph0" class="graph" transform="scale(1 1) rotate(0) translate(4 214)">
<title>Storm/Type/FanMode.h</title>
<polygon fill="white" stroke="none" points="-4,4 -4,-214 722,-214 722,4 -4,4"/>
<!-- Node1 -->
<g id="node1" class="node"><title>Node1</title>
<g id="a_node1"><a xlink:title=" ">
<polygon fill="#bfbfbf" stroke="black" points="427.5,-190.5 427.5,-209.5 546.5,-209.5 546.5,-190.5 427.5,-190.5"/>
<text text-anchor="middle" x="487" y="-197.5" font-family="Helvetica,sans-Serif" font-size="10.00">Storm/Type/FanMode.h</text>
</a>
</g>
</g>
<!-- Node2 -->
<g id="node2" class="node"><title>Node2</title>
<g id="a_node2"><a xlink:href="_mp_fan_mode_8h.html" target="_top" xlink:title=" ">
<polygon fill="white" stroke="black" points="318,-129 318,-148 444,-148 444,-129 318,-129"/>
<text text-anchor="middle" x="381" y="-136" font-family="Helvetica,sans-Serif" font-size="10.00">Storm/Dm/MpFanMode.h</text>
</a>
</g>
</g>
<!-- Node1&#45;&gt;Node2 -->
<g id="edge1" class="edge"><title>Node1&#45;&gt;Node2</title>
<path fill="none" stroke="midnightblue" d="M463.05,-185.556C442.537,-174.042 413.621,-157.811 396.159,-148.009"/>
<polygon fill="midnightblue" stroke="midnightblue" points="461.379,-188.632 471.813,-190.475 464.806,-182.528 461.379,-188.632"/>
</g>
<!-- Node10 -->
<g id="node10" class="node"><title>Node10</title>
<g id="a_node10"><a xlink:href="_storm_2_thermostat_2_ui_2_pico_display_2_private___8h.html" target="_top" xlink:title="This file defines the INTERNAL interface used by the UI sub&#45;system.">
<polygon fill="white" stroke="black" points="534.5,-123.5 534.5,-153.5 653.5,-153.5 653.5,-123.5 534.5,-123.5"/>
<text text-anchor="start" x="542.5" y="-141.5" font-family="Helvetica,sans-Serif" font-size="10.00">Storm/Thermostat/Ui</text>
<text text-anchor="middle" x="594" y="-130.5" font-family="Helvetica,sans-Serif" font-size="10.00">/PicoDisplay/Private_.h</text>
</a>
</g>
</g>
<!-- Node1&#45;&gt;Node10 -->
<g id="edge9" class="edge"><title>Node1&#45;&gt;Node10</title>
<path fill="none" stroke="midnightblue" d="M511.201,-185.542C528.378,-175.991 551.381,-163.199 568.782,-153.523"/>
<polygon fill="midnightblue" stroke="midnightblue" points="509.369,-182.556 502.33,-190.475 512.771,-188.674 509.369,-182.556"/>
</g>
<!-- Node3 -->
<g id="node3" class="node"><title>Node3</title>
<g id="a_node3"><a xlink:href="_fan_control_8h.html" target="_top" xlink:title=" ">
<polygon fill="white" stroke="black" points="72,-67.5 72,-86.5 226,-86.5 226,-67.5 72,-67.5"/>
<text text-anchor="middle" x="149" y="-74.5" font-family="Helvetica,sans-Serif" font-size="10.00">Storm/Component/FanControl.h</text>
</a>
</g>
</g>
<!-- Node2&#45;&gt;Node3 -->
<g id="edge2" class="edge"><title>Node2&#45;&gt;Node3</title>
<path fill="none" stroke="midnightblue" d="M337.986,-126.468C292.936,-114.915 223.152,-97.0173 182.178,-86.5091"/>
<polygon fill="midnightblue" stroke="midnightblue" points="337.204,-129.881 347.76,-128.975 338.943,-123.1 337.204,-129.881"/>
</g>
<!-- Node5 -->
<g id="node5" class="node"><title>Node5</title>
<g id="a_node5"><a xlink:href="_model_points_8h.html" target="_top" xlink:title="This file defines all of the Model Points for the Thermostat Application.">
<polygon fill="white" stroke="black" points="300.5,-67.5 300.5,-86.5 461.5,-86.5 461.5,-67.5 300.5,-67.5"/>
<text text-anchor="middle" x="381" y="-74.5" font-family="Helvetica,sans-Serif" font-size="10.00">Storm/Thermostat/ModelPoints.h</text>
</a>
</g>
</g>
<!-- Node2&#45;&gt;Node5 -->
<g id="edge4" class="edge"><title>Node2&#45;&gt;Node5</title>
<path fill="none" stroke="midnightblue" d="M381,-118.817C381,-107.996 381,-94.898 381,-86.5091"/>
<polygon fill="midnightblue" stroke="midnightblue" points="377.5,-118.975 381,-128.975 384.5,-118.975 377.5,-118.975"/>
</g>
<!-- Node4 -->
<g id="node4" class="node"><title>Node4</title>
<g id="a_node4"><a xlink:href="_algorithm_8h.html" target="_top" xlink:title=" ">
<polygon fill="white" stroke="black" points="0,-6 0,-25 148,-25 148,-6 0,-6"/>
<text text-anchor="middle" x="74" y="-13" font-family="Helvetica,sans-Serif" font-size="10.00">Storm/Thermostat/Algorithm.h</text>
</a>
</g>
</g>
<!-- Node3&#45;&gt;Node4 -->
<g id="edge3" class="edge"><title>Node3&#45;&gt;Node4</title>
<path fill="none" stroke="midnightblue" d="M130.058,-60.9727C115.713,-49.5925 96.5244,-34.3694 84.7257,-25.0091"/>
<polygon fill="midnightblue" stroke="midnightblue" points="128.245,-64.002 138.254,-67.4751 132.595,-58.5181 128.245,-64.002"/>
</g>
<!-- Node6 -->
<g id="node6" class="node"><title>Node6</title>
<g id="a_node6"><a xlink:href="_installer_record_8h_source.html" target="_top" xlink:title=" ">
<polygon fill="white" stroke="black" points="166.5,-0.5 166.5,-30.5 285.5,-30.5 285.5,-0.5 166.5,-0.5"/>
<text text-anchor="start" x="174.5" y="-18.5" font-family="Helvetica,sans-Serif" font-size="10.00">Storm/Thermostat/Main</text>
<text text-anchor="middle" x="226" y="-7.5" font-family="Helvetica,sans-Serif" font-size="10.00">/InstallerRecord.h</text>
</a>
</g>
</g>
<!-- Node5&#45;&gt;Node6 -->
<g id="edge5" class="edge"><title>Node5&#45;&gt;Node6</title>
<path fill="none" stroke="midnightblue" d="M349.342,-63.8475C324.163,-54.1817 288.904,-40.6471 262.53,-30.523"/>
<polygon fill="midnightblue" stroke="midnightblue" points="348.202,-67.1588 358.792,-67.4751 350.711,-60.6238 348.202,-67.1588"/>
</g>
<!-- Node7 -->
<g id="node7" class="node"><title>Node7</title>
<g id="a_node7"><a xlink:href="_run_time_record_8h_source.html" target="_top" xlink:title=" ">
<polygon fill="white" stroke="black" points="303.5,-0.5 303.5,-30.5 422.5,-30.5 422.5,-0.5 303.5,-0.5"/>
<text text-anchor="start" x="311.5" y="-18.5" font-family="Helvetica,sans-Serif" font-size="10.00">Storm/Thermostat/Main</text>
<text text-anchor="middle" x="363" y="-7.5" font-family="Helvetica,sans-Serif" font-size="10.00">/RunTimeRecord.h</text>
</a>
</g>
</g>
<!-- Node5&#45;&gt;Node7 -->
<g id="edge6" class="edge"><title>Node5&#45;&gt;Node7</title>
<path fill="none" stroke="midnightblue" d="M375.499,-57.8158C372.844,-49.0409 369.709,-38.6761 367.242,-30.523"/>
<polygon fill="midnightblue" stroke="midnightblue" points="372.175,-58.917 378.421,-67.4751 378.875,-56.89 372.175,-58.917"/>
</g>
<!-- Node8 -->
<g id="node8" class="node"><title>Node8</title>
<g id="a_node8"><a xlink:href="_user_record_8h_source.html" target="_top" xlink:title=" ">
<polygon fill="white" stroke="black" points="440.5,-0.5 440.5,-30.5 559.5,-30.5 559.5,-0.5 440.5,-0.5"/>
<text text-anchor="start" x="448.5" y="-18.5" font-family="Helvetica,sans-Serif" font-size="10.00">Storm/Thermostat/Main</text>
<text text-anchor="middle" x="500" y="-7.5" font-family="Helvetica,sans-Serif" font-size="10.00">/UserRecord.h</text>
</a>
</g>
</g>
<!-- Node5&#45;&gt;Node8 -->
<g id="edge7" class="edge"><title>Node5&#45;&gt;Node8</title>
<path fill="none" stroke="midnightblue" d="M407.123,-62.9384C426.307,-53.3466 452.333,-40.3336 471.954,-30.523"/>
<polygon fill="midnightblue" stroke="midnightblue" points="405.429,-59.8724 398.05,-67.4751 408.559,-66.1334 405.429,-59.8724"/>
</g>
<!-- Node9 -->
<g id="node9" class="node"><title>Node9</title>
<g id="a_node9"><a xlink:href="_event_monitor_8h_source.html" target="_top" xlink:title=" ">
<polygon fill="white" stroke="black" points="578,-0.5 578,-30.5 718,-30.5 718,-0.5 578,-0.5"/>
<text text-anchor="start" x="586" y="-18.5" font-family="Helvetica,sans-Serif" font-size="10.00">Storm/Thermostat/Ui</text>
<text text-anchor="middle" x="648" y="-7.5" font-family="Helvetica,sans-Serif" font-size="10.00">/PicoDisplay/EventMonitor.h</text>
</a>
</g>
</g>
<!-- Node5&#45;&gt;Node9 -->
<g id="edge8" class="edge"><title>Node5&#45;&gt;Node9</title>
<path fill="none" stroke="midnightblue" d="M429.051,-65.292C472.687,-55.568 537.33,-41.1623 585.073,-30.523"/>
<polygon fill="midnightblue" stroke="midnightblue" points="428.254,-61.8837 419.255,-67.4751 429.776,-68.7161 428.254,-61.8837"/>
</g>
<!-- Node10&#45;&gt;Node9 -->
<g id="edge10" class="edge"><title>Node10&#45;&gt;Node9</title>
<path fill="none" stroke="midnightblue" d="M604.587,-113.776C615.597,-89.1077 632.472,-51.2938 641.602,-30.8368"/>
<polygon fill="midnightblue" stroke="midnightblue" points="601.286,-112.586 600.407,-123.145 607.678,-115.439 601.286,-112.586"/>
</g>
</g>
</svg>
