<?xml version="1.0" encoding="UTF-8" standalone="no"?>
<!DOCTYPE svg PUBLIC "-//W3C//DTD SVG 1.1//EN"
 "http://www.w3.org/Graphics/SVG/1.1/DTD/svg11.dtd">
<!-- Generated by graphviz version 2.38.0 (20140413.2041)
 -->
<!-- Title: Cpl/System/FatalError.h Pages: 1 -->
<svg width="2409pt" height="498pt"
 viewBox="0.00 0.00 2409.00 498.00" xmlns="http://www.w3.org/2000/svg" xmlns:xlink="http://www.w3.org/1999/xlink">
<g id="graph0" class="graph" transform="scale(1 1) rotate(0) translate(4 494)">
<title>Cpl/System/FatalError.h</title>
<polygon fill="white" stroke="none" points="-4,4 -4,-494 2405,-494 2405,4 -4,4"/>
<!-- Node1 -->
<g id="node1" class="node"><title>Node1</title>
<g id="a_node1"><a xlink:title=" ">
<polygon fill="#bfbfbf" stroke="black" points="1451,-470.5 1451,-489.5 1573,-489.5 1573,-470.5 1451,-470.5"/>
<text text-anchor="middle" x="1512" y="-477.5" font-family="Helvetica,sans-Serif" font-size="10.00">Cpl/System/FatalError.h</text>
</a>
</g>
</g>
<!-- Node2 -->
<g id="node2" class="node"><title>Node2</title>
<g id="a_node2"><a xlink:href="_key_8h.html" target="_top" xlink:title=" ">
<polygon fill="white" stroke="black" points="1178,-409 1178,-428 1282,-428 1282,-409 1178,-409"/>
<text text-anchor="middle" x="1230" y="-416" font-family="Helvetica,sans-Serif" font-size="10.00">Cpl/Container/Key.h</text>
</a>
</g>
</g>
<!-- Node1&#45;&gt;Node2 -->
<g id="edge1" class="edge"><title>Node1&#45;&gt;Node2</title>
<path fill="none" stroke="midnightblue" d="M1457.8,-468.474C1413,-459.651 1347.76,-446.521 1291,-434 1282.6,-432.147 1273.58,-430.057 1265.12,-428.053"/>
<polygon fill="midnightblue" stroke="midnightblue" points="1457.4,-471.962 1467.88,-470.455 1458.75,-465.093 1457.4,-471.962"/>
</g>
<!-- Node39 -->
<g id="node19" class="node"><title>Node39</title>
<g id="a_node19"><a xlink:href="_numeric_8h.html" target="_top" xlink:title=" ">
<polygon fill="white" stroke="black" points="349.5,-123.5 349.5,-142.5 462.5,-142.5 462.5,-123.5 349.5,-123.5"/>
<text text-anchor="middle" x="406" y="-130.5" font-family="Helvetica,sans-Serif" font-size="10.00">Cpl/Dm/Mp/Numeric.h</text>
</a>
</g>
</g>
<!-- Node1&#45;&gt;Node39 -->
<g id="edge60" class="edge"><title>Node1&#45;&gt;Node39</title>
<path fill="none" stroke="midnightblue" d="M1440.48,-477.036C1141.72,-468.371 9,-430.723 9,-358 9,-358 9,-358 9,-244 9,-174.268 239.346,-146.944 349.12,-137.883"/>
<polygon fill="midnightblue" stroke="midnightblue" points="1440.65,-480.543 1450.75,-477.332 1440.85,-473.546 1440.65,-480.543"/>
</g>
<!-- Node117 -->
<g id="node46" class="node"><title>Node117</title>
<g id="a_node46"><a xlink:href="_bare_metal_2mappings___8h.html" target="_top" xlink:title="This file provides the mappings for Platform specific types, etc.">
<polygon fill="white" stroke="black" points="1300.5,-403.5 1300.5,-433.5 1415.5,-433.5 1415.5,-403.5 1300.5,-403.5"/>
<text text-anchor="start" x="1308.5" y="-421.5" font-family="Helvetica,sans-Serif" font-size="10.00">Cpl/System/BareMetal</text>
<text text-anchor="middle" x="1358" y="-410.5" font-family="Helvetica,sans-Serif" font-size="10.00">/mappings_.h</text>
</a>
</g>
</g>
<!-- Node1&#45;&gt;Node117 -->
<g id="edge61" class="edge"><title>Node1&#45;&gt;Node117</title>
<path fill="none" stroke="midnightblue" d="M1480.55,-466.847C1455.53,-457.182 1420.5,-443.647 1394.29,-433.523"/>
<polygon fill="midnightblue" stroke="midnightblue" points="1479.35,-470.136 1489.94,-470.475 1481.87,-463.606 1479.35,-470.136"/>
</g>
<!-- Node118 -->
<g id="node47" class="node"><title>Node118</title>
<g id="a_node47"><a xlink:href="_cpp11_2mappings___8h.html" target="_top" xlink:title="This file provides the mappings for Platform specific types, etc.">
<polygon fill="white" stroke="black" points="1433.5,-409 1433.5,-428 1590.5,-428 1590.5,-409 1433.5,-409"/>
<text text-anchor="middle" x="1512" y="-416" font-family="Helvetica,sans-Serif" font-size="10.00">Cpl/System/Cpp11/mappings_.h</text>
</a>
</g>
</g>
<!-- Node1&#45;&gt;Node118 -->
<g id="edge62" class="edge"><title>Node1&#45;&gt;Node118</title>
<path fill="none" stroke="midnightblue" d="M1512,-460.317C1512,-449.496 1512,-436.398 1512,-428.009"/>
<polygon fill="midnightblue" stroke="midnightblue" points="1508.5,-460.475 1512,-470.475 1515.5,-460.475 1508.5,-460.475"/>
</g>
<!-- Node119 -->
<g id="node48" class="node"><title>Node119</title>
<g id="a_node48"><a xlink:href="_posix_2mappings___8h.html" target="_top" xlink:title="This file provides the mappings for Platform specific types, etc.">
<polygon fill="white" stroke="black" points="1609,-409 1609,-428 1763,-428 1763,-409 1609,-409"/>
<text text-anchor="middle" x="1686" y="-416" font-family="Helvetica,sans-Serif" font-size="10.00">Cpl/System/Posix/mappings_.h</text>
</a>
</g>
</g>
<!-- Node1&#45;&gt;Node119 -->
<g id="edge63" class="edge"><title>Node1&#45;&gt;Node119</title>
<path fill="none" stroke="midnightblue" d="M1546.41,-467.232C1580.24,-455.666 1631.03,-438.297 1661.12,-428.009"/>
<polygon fill="midnightblue" stroke="midnightblue" points="1545.26,-463.928 1536.93,-470.475 1547.52,-470.551 1545.26,-463.928"/>
</g>
<!-- Node120 -->
<g id="node49" class="node"><title>Node120</title>
<g id="a_node49"><a xlink:href="_r_p2040_2mappings___8h.html" target="_top" xlink:title="This file provides the mappings for Platform specific types, etc.">
<polygon fill="white" stroke="black" points="1781,-409 1781,-428 1945,-428 1945,-409 1781,-409"/>
<text text-anchor="middle" x="1863" y="-416" font-family="Helvetica,sans-Serif" font-size="10.00">Cpl/System/RP2040/mappings_.h</text>
</a>
</g>
</g>
<!-- Node1&#45;&gt;Node120 -->
<g id="edge64" class="edge"><title>Node1&#45;&gt;Node120</title>
<path fill="none" stroke="midnightblue" d="M1572.41,-468.759C1640.33,-457.246 1749.38,-438.76 1812.8,-428.009"/>
<polygon fill="midnightblue" stroke="midnightblue" points="1571.56,-465.353 1562.29,-470.475 1572.73,-472.254 1571.56,-465.353"/>
</g>
<!-- Node121 -->
<g id="node50" class="node"><title>Node121</title>
<g id="a_node50"><a xlink:href="_win32_2mappings___8h.html" target="_top" xlink:title="This file provides the mappings for Platform specific types, etc.">
<polygon fill="white" stroke="black" points="1963,-409 1963,-428 2119,-428 2119,-409 1963,-409"/>
<text text-anchor="middle" x="2041" y="-416" font-family="Helvetica,sans-Serif" font-size="10.00">Cpl/System/Win32/mappings_.h</text>
</a>
</g>
</g>
<!-- Node1&#45;&gt;Node121 -->
<g id="edge65" class="edge"><title>Node1&#45;&gt;Node121</title>
<path fill="none" stroke="midnightblue" d="M1583.36,-473.143C1670.87,-465.636 1823.66,-451.479 1954,-434 1966.75,-432.29 1980.5,-430.142 1993.22,-428.026"/>
<polygon fill="midnightblue" stroke="midnightblue" points="1582.94,-469.666 1573.28,-474.004 1583.54,-476.641 1582.94,-469.666"/>
</g>
<!-- Node3 -->
<g id="node3" class="node"><title>Node3</title>
<g id="a_node3"><a xlink:href="_dict_item_8h.html" target="_top" xlink:title=" ">
<polygon fill="white" stroke="black" points="1992.5,-347.5 1992.5,-366.5 2115.5,-366.5 2115.5,-347.5 1992.5,-347.5"/>
<text text-anchor="middle" x="2054" y="-354.5" font-family="Helvetica,sans-Serif" font-size="10.00">Cpl/Container/DictItem.h</text>
</a>
</g>
</g>
<!-- Node2&#45;&gt;Node3 -->
<g id="edge2" class="edge"><title>Node2&#45;&gt;Node3</title>
<path fill="none" stroke="midnightblue" d="M1271.25,-406.669C1277.82,-405.241 1284.57,-403.947 1291,-403 1549.62,-364.933 1862.04,-358.805 1992.31,-358.003"/>
<polygon fill="midnightblue" stroke="midnightblue" points="1270.1,-403.34 1261.14,-408.992 1271.67,-410.162 1270.1,-403.34"/>
</g>
<!-- Node29 -->
<g id="node13" class="node"><title>Node29</title>
<g id="a_node13"><a xlink:href="_string_8h.html" target="_top" xlink:title=" ">
<polygon fill="white" stroke="black" points="1185,-347.5 1185,-366.5 1275,-366.5 1275,-347.5 1185,-347.5"/>
<text text-anchor="middle" x="1230" y="-354.5" font-family="Helvetica,sans-Serif" font-size="10.00">Cpl/Text/String.h</text>
</a>
</g>
</g>
<!-- Node2&#45;&gt;Node29 -->
<g id="edge12" class="edge"><title>Node2&#45;&gt;Node29</title>
<path fill="none" stroke="midnightblue" d="M1223.68,-398.817C1222.8,-387.996 1223.27,-374.898 1225.1,-366.509"/>
<polygon fill="midnightblue" stroke="midnightblue" points="1220.25,-399.554 1225.1,-408.975 1227.19,-398.588 1220.25,-399.554"/>
</g>
<!-- Node4 -->
<g id="node4" class="node"><title>Node4</title>
<g id="a_node4"><a xlink:href="_hash_table___8h.html" target="_top" xlink:title=" ">
<polygon fill="white" stroke="black" points="2263,-291.5 2263,-310.5 2401,-310.5 2401,-291.5 2263,-291.5"/>
<text text-anchor="middle" x="2332" y="-298.5" font-family="Helvetica,sans-Serif" font-size="10.00">Cpl/Container/HashTable_.h</text>
</a>
</g>
</g>
<!-- Node3&#45;&gt;Node4 -->
<g id="edge3" class="edge"><title>Node3&#45;&gt;Node4</title>
<path fill="none" stroke="midnightblue" d="M2108.19,-345.473C2160.73,-335.268 2239.44,-319.979 2288.16,-310.516"/>
<polygon fill="midnightblue" stroke="midnightblue" points="2107.2,-342.101 2098.05,-347.444 2108.53,-348.972 2107.2,-342.101"/>
</g>
<!-- Node6 -->
<g id="node6" class="node"><title>Node6</title>
<g id="a_node6"><a xlink:href="_map_item_8h.html" target="_top" xlink:title=" ">
<polygon fill="white" stroke="black" points="1991.5,-291.5 1991.5,-310.5 2116.5,-310.5 2116.5,-291.5 1991.5,-291.5"/>
<text text-anchor="middle" x="2054" y="-298.5" font-family="Helvetica,sans-Serif" font-size="10.00">Cpl/Container/MapItem.h</text>
</a>
</g>
</g>
<!-- Node3&#45;&gt;Node6 -->
<g id="edge5" class="edge"><title>Node3&#45;&gt;Node6</title>
<path fill="none" stroke="midnightblue" d="M2054,-336.805C2054,-327.91 2054,-317.78 2054,-310.751"/>
<polygon fill="midnightblue" stroke="midnightblue" points="2050.5,-337.083 2054,-347.083 2057.5,-337.083 2050.5,-337.083"/>
</g>
<!-- Node5 -->
<g id="node5" class="node"><title>Node5</title>
<g id="a_node5"><a xlink:href="_dictionary_8h.html" target="_top" xlink:title=" ">
<polygon fill="white" stroke="black" points="2267,-235.5 2267,-254.5 2397,-254.5 2397,-235.5 2267,-235.5"/>
<text text-anchor="middle" x="2332" y="-242.5" font-family="Helvetica,sans-Serif" font-size="10.00">Cpl/Container/Dictionary.h</text>
</a>
</g>
</g>
<!-- Node4&#45;&gt;Node5 -->
<g id="edge4" class="edge"><title>Node4&#45;&gt;Node5</title>
<path fill="none" stroke="midnightblue" d="M2332,-280.805C2332,-271.91 2332,-261.78 2332,-254.751"/>
<polygon fill="midnightblue" stroke="midnightblue" points="2328.5,-281.083 2332,-291.083 2335.5,-281.083 2328.5,-281.083"/>
</g>
<!-- Node7 -->
<g id="node7" class="node"><title>Node7</title>
<g id="a_node7"><a xlink:href="_avl_tree___8h.html" target="_top" xlink:title=" ">
<polygon fill="white" stroke="red" points="2081.5,-235.5 2081.5,-254.5 2206.5,-254.5 2206.5,-235.5 2081.5,-235.5"/>
<text text-anchor="middle" x="2144" y="-242.5" font-family="Helvetica,sans-Serif" font-size="10.00">Cpl/Container/AvlTree_.h</text>
</a>
</g>
</g>
<!-- Node6&#45;&gt;Node7 -->
<g id="edge6" class="edge"><title>Node6&#45;&gt;Node7</title>
<path fill="none" stroke="midnightblue" d="M2077.04,-286.177C2093.6,-276.241 2115.42,-263.149 2129.58,-254.655"/>
<polygon fill="midnightblue" stroke="midnightblue" points="2075.23,-283.178 2068.46,-291.324 2078.84,-289.18 2075.23,-283.178"/>
</g>
<!-- Node24 -->
<g id="node8" class="node"><title>Node24</title>
<g id="a_node8"><a xlink:href="_command_8h.html" target="_top" xlink:title=" ">
<polygon fill="white" stroke="red" points="1779.5,-235.5 1779.5,-254.5 1896.5,-254.5 1896.5,-235.5 1779.5,-235.5"/>
<text text-anchor="middle" x="1838" y="-242.5" font-family="Helvetica,sans-Serif" font-size="10.00">Cpl/TShell/Command.h</text>
</a>
</g>
</g>
<!-- Node6&#45;&gt;Node24 -->
<g id="edge7" class="edge"><title>Node6&#45;&gt;Node24</title>
<path fill="none" stroke="midnightblue" d="M2009.84,-288.959C1969.04,-278.76 1909.29,-263.822 1872.07,-254.516"/>
<polygon fill="midnightblue" stroke="midnightblue" points="2009.22,-292.414 2019.77,-291.444 2010.92,-285.623 2009.22,-292.414"/>
</g>
<!-- Node25 -->
<g id="node12" class="node"><title>Node25</title>
<g id="a_node12"><a xlink:href="_string_item_8h.html" target="_top" xlink:title=" ">
<polygon fill="white" stroke="red" points="1953,-235.5 1953,-254.5 2063,-254.5 2063,-235.5 1953,-235.5"/>
<text text-anchor="middle" x="2008" y="-242.5" font-family="Helvetica,sans-Serif" font-size="10.00">Cpl/Text/StringItem.h</text>
</a>
</g>
</g>
<!-- Node6&#45;&gt;Node25 -->
<g id="edge11" class="edge"><title>Node6&#45;&gt;Node25</title>
<path fill="none" stroke="midnightblue" d="M2039.89,-283.431C2031.82,-273.967 2022.04,-262.483 2015.45,-254.751"/>
<polygon fill="midnightblue" stroke="midnightblue" points="2037.25,-285.74 2046.4,-291.083 2042.58,-281.201 2037.25,-285.74"/>
</g>
<!-- Node9 -->
<g id="node9" class="node"><title>Node9</title>
<g id="a_node9"><a xlink:href="_cmd_2_command_8h.html" target="_top" xlink:title=" ">
<polygon fill="white" stroke="red" points="1811,-179.5 1811,-198.5 1951,-198.5 1951,-179.5 1811,-179.5"/>
<text text-anchor="middle" x="1881" y="-186.5" font-family="Helvetica,sans-Serif" font-size="10.00">Cpl/TShell/Cmd/Command.h</text>
</a>
</g>
</g>
<!-- Node24&#45;&gt;Node9 -->
<g id="edge8" class="edge"><title>Node24&#45;&gt;Node9</title>
<path fill="none" stroke="midnightblue" d="M1851.42,-227.144C1858.91,-217.736 1867.94,-206.405 1874.03,-198.751"/>
<polygon fill="midnightblue" stroke="midnightblue" points="1848.59,-225.08 1845.1,-235.083 1854.07,-229.44 1848.59,-225.08"/>
</g>
<!-- Node10 -->
<g id="node10" class="node"><title>Node10</title>
<g id="a_node10"><a xlink:href="_dm_8h.html" target="_top" xlink:title=" ">
<polygon fill="white" stroke="black" points="1467,-123.5 1467,-142.5 1573,-142.5 1573,-123.5 1467,-123.5"/>
<text text-anchor="middle" x="1520" y="-130.5" font-family="Helvetica,sans-Serif" font-size="10.00">Cpl/Dm/TShell/Dm.h</text>
</a>
</g>
</g>
<!-- Node9&#45;&gt;Node10 -->
<g id="edge9" class="edge"><title>Node9&#45;&gt;Node10</title>
<path fill="none" stroke="midnightblue" d="M1813.82,-177.951C1744.25,-167.545 1636.98,-151.499 1573.11,-141.945"/>
<polygon fill="midnightblue" stroke="midnightblue" points="1813.39,-181.426 1823.8,-179.444 1814.43,-174.503 1813.39,-181.426"/>
</g>
<!-- Node14 -->
<g id="node11" class="node"><title>Node14</title>
<g id="a_node11"><a xlink:href="_threads_8h.html" target="_top" xlink:title=" ">
<polygon fill="white" stroke="red" points="1992.5,-123.5 1992.5,-142.5 2123.5,-142.5 2123.5,-123.5 1992.5,-123.5"/>
<text text-anchor="middle" x="2058" y="-130.5" font-family="Helvetica,sans-Serif" font-size="10.00">Cpl/TShell/Cmd/Threads.h</text>
</a>
</g>
</g>
<!-- Node9&#45;&gt;Node14 -->
<g id="edge10" class="edge"><title>Node9&#45;&gt;Node14</title>
<path fill="none" stroke="midnightblue" d="M1918.9,-176.436C1952.28,-166.255 2000.1,-151.664 2030.09,-142.516"/>
<polygon fill="midnightblue" stroke="midnightblue" points="1917.59,-173.178 1909.05,-179.444 1919.63,-179.873 1917.59,-173.178"/>
</g>
<!-- Node29&#45;&gt;Node2 -->
<g id="edge15" class="edge"><title>Node29&#45;&gt;Node2</title>
<path fill="none" stroke="midnightblue" d="M1236.31,-376.663C1237.2,-387.481 1236.73,-400.58 1234.9,-408.975"/>
<polygon fill="midnightblue" stroke="midnightblue" points="1239.75,-375.929 1234.9,-366.509 1232.81,-376.897 1239.75,-375.929"/>
</g>
<!-- Node29&#45;&gt;Node9 -->
<g id="edge48" class="edge"><title>Node29&#45;&gt;Node9</title>
<path fill="none" stroke="midnightblue" d="M1285.53,-354.801C1431.3,-351.272 1817.1,-339.337 1867,-311 1893.37,-296.022 1896.92,-283.938 1906,-255 1912.45,-234.467 1897.84,-211.063 1888.34,-198.707"/>
<polygon fill="midnightblue" stroke="midnightblue" points="1285.37,-351.304 1275.46,-355.041 1285.54,-358.302 1285.37,-351.304"/>
</g>
<!-- Node29&#45;&gt;Node14 -->
<g id="edge49" class="edge"><title>Node29&#45;&gt;Node14</title>
<path fill="none" stroke="midnightblue" d="M1285.25,-354.836C1468.02,-350.762 2046.08,-336.02 2126,-311 2175.96,-295.359 2241.15,-280.92 2216,-235 2188.4,-184.601 2123.75,-155.687 2086.26,-142.59"/>
<polygon fill="midnightblue" stroke="midnightblue" points="1284.98,-351.341 1275.06,-355.061 1285.13,-358.339 1284.98,-351.341"/>
</g>
<!-- Node29&#45;&gt;Node25 -->
<g id="edge54" class="edge"><title>Node29&#45;&gt;Node25</title>
<path fill="none" stroke="midnightblue" d="M1285.41,-354.642C1441.89,-350.504 1879.69,-336.74 1939,-311 1967.38,-298.682 1991.29,-269.401 2001.99,-254.715"/>
<polygon fill="midnightblue" stroke="midnightblue" points="1284.98,-351.152 1275.07,-354.912 1285.16,-358.149 1284.98,-351.152"/>
</g>
<!-- Node30 -->
<g id="node14" class="node"><title>Node30</title>
<g id="a_node14"><a xlink:href="_api_md5_8h.html" target="_top" xlink:title=" ">
<polygon fill="white" stroke="black" points="612.5,-291.5 612.5,-310.5 737.5,-310.5 737.5,-291.5 612.5,-291.5"/>
<text text-anchor="middle" x="675" y="-298.5" font-family="Helvetica,sans-Serif" font-size="10.00">Cpl/Checksum/ApiMd5.h</text>
</a>
</g>
</g>
<!-- Node29&#45;&gt;Node30 -->
<g id="edge13" class="edge"><title>Node29&#45;&gt;Node30</title>
<path fill="none" stroke="midnightblue" d="M1174.68,-351.199C1085.61,-343.377 904.894,-327.13 752,-311 747.315,-310.506 742.472,-309.978 737.602,-309.436"/>
<polygon fill="midnightblue" stroke="midnightblue" points="1174.56,-354.701 1184.82,-352.088 1175.17,-347.728 1174.56,-354.701"/>
</g>
<!-- Node32 -->
<g id="node16" class="node"><title>Node32</title>
<g id="a_node16"><a xlink:href="_model_database_api_8h.html" target="_top" xlink:title=" ">
<polygon fill="white" stroke="black" points="414,-291.5 414,-310.5 556,-310.5 556,-291.5 414,-291.5"/>
<text text-anchor="middle" x="485" y="-298.5" font-family="Helvetica,sans-Serif" font-size="10.00">Cpl/Dm/ModelDatabaseApi.h</text>
</a>
</g>
</g>
<!-- Node29&#45;&gt;Node32 -->
<g id="edge16" class="edge"><title>Node29&#45;&gt;Node32</title>
<path fill="none" stroke="midnightblue" d="M1174.57,-352.923C1061.02,-346.465 793.848,-330.475 570,-311 565.565,-310.614 561.002,-310.195 556.402,-309.756"/>
<polygon fill="midnightblue" stroke="midnightblue" points="1174.56,-356.428 1184.74,-353.5 1174.96,-349.439 1174.56,-356.428"/>
</g>
<!-- Node29&#45;&gt;Node39 -->
<g id="edge37" class="edge"><title>Node29&#45;&gt;Node39</title>
<path fill="none" stroke="midnightblue" d="M1174.71,-355.662C1029.67,-354.272 646.378,-347.18 603,-311 556.477,-272.196 611.466,-222.206 569,-179 541.322,-150.84 497.733,-139.848 462.593,-135.758"/>
<polygon fill="midnightblue" stroke="midnightblue" points="1174.71,-359.162 1184.74,-355.752 1174.77,-352.162 1174.71,-359.162"/>
</g>
<!-- Node53 -->
<g id="node30" class="node"><title>Node53</title>
<g id="a_node30"><a xlink:href="_model_point_8h.html" target="_top" xlink:title=" ">
<polygon fill="white" stroke="black" points="286.5,-291.5 286.5,-310.5 395.5,-310.5 395.5,-291.5 286.5,-291.5"/>
<text text-anchor="middle" x="341" y="-298.5" font-family="Helvetica,sans-Serif" font-size="10.00">Cpl/Dm/ModelPoint.h</text>
</a>
</g>
</g>
<!-- Node29&#45;&gt;Node53 -->
<g id="edge31" class="edge"><title>Node29&#45;&gt;Node53</title>
<path fill="none" stroke="midnightblue" d="M1174.4,-354.603C1041.26,-350.9 693.777,-339.129 405,-311 401.985,-310.706 398.894,-310.374 395.776,-310.016"/>
<polygon fill="midnightblue" stroke="midnightblue" points="1174.64,-358.111 1184.74,-354.886 1174.83,-351.113 1174.64,-358.111"/>
</g>
<!-- Node58 -->
<g id="node34" class="node"><title>Node58</title>
<g id="a_node34"><a xlink:href="_input_8h.html" target="_top" xlink:title=" ">
<polygon fill="white" stroke="red" points="794.5,-291.5 794.5,-310.5 869.5,-310.5 869.5,-291.5 794.5,-291.5"/>
<text text-anchor="middle" x="832" y="-298.5" font-family="Helvetica,sans-Serif" font-size="10.00">Cpl/Io/Input.h</text>
</a>
</g>
</g>
<!-- Node29&#45;&gt;Node58 -->
<g id="edge38" class="edge"><title>Node29&#45;&gt;Node58</title>
<path fill="none" stroke="midnightblue" d="M1174.75,-349.984C1105.48,-342.196 983.158,-327.633 879,-311 875.965,-310.515 872.825,-309.983 869.674,-309.426"/>
<polygon fill="midnightblue" stroke="midnightblue" points="1174.67,-353.496 1184.99,-351.13 1175.44,-346.54 1174.67,-353.496"/>
</g>
<!-- Node85 -->
<g id="node35" class="node"><title>Node85</title>
<g id="a_node35"><a xlink:href="_line_reader_api_8h.html" target="_top" xlink:title=" ">
<polygon fill="white" stroke="red" points="888,-291.5 888,-310.5 1004,-310.5 1004,-291.5 888,-291.5"/>
<text text-anchor="middle" x="946" y="-298.5" font-family="Helvetica,sans-Serif" font-size="10.00">Cpl/Io/LineReaderApi.h</text>
</a>
</g>
</g>
<!-- Node29&#45;&gt;Node85 -->
<g id="edge39" class="edge"><title>Node29&#45;&gt;Node85</title>
<path fill="none" stroke="midnightblue" d="M1174.97,-345.537C1121.3,-335.332 1040.66,-319.999 990.79,-310.516"/>
<polygon fill="midnightblue" stroke="midnightblue" points="1174.52,-349.014 1185,-347.444 1175.83,-342.137 1174.52,-349.014"/>
</g>
<!-- Node86 -->
<g id="node36" class="node"><title>Node86</title>
<g id="a_node36"><a xlink:href="_line_writer_api_8h.html" target="_top" xlink:title=" ">
<polygon fill="white" stroke="red" points="1022.5,-291.5 1022.5,-310.5 1133.5,-310.5 1133.5,-291.5 1022.5,-291.5"/>
<text text-anchor="middle" x="1078" y="-298.5" font-family="Helvetica,sans-Serif" font-size="10.00">Cpl/Io/LineWriterApi.h</text>
</a>
</g>
</g>
<!-- Node29&#45;&gt;Node86 -->
<g id="edge40" class="edge"><title>Node29&#45;&gt;Node86</title>
<path fill="none" stroke="midnightblue" d="M1196.33,-344.039C1167.73,-333.879 1127.39,-319.546 1101.97,-310.516"/>
<polygon fill="midnightblue" stroke="midnightblue" points="1195.32,-347.394 1205.92,-347.444 1197.66,-340.798 1195.32,-347.394"/>
</g>
<!-- Node88 -->
<g id="node37" class="node"><title>Node88</title>
<g id="a_node37"><a xlink:href="_output_8h.html" target="_top" xlink:title=" ">
<polygon fill="white" stroke="red" points="1758.5,-291.5 1758.5,-310.5 1841.5,-310.5 1841.5,-291.5 1758.5,-291.5"/>
<text text-anchor="middle" x="1800" y="-298.5" font-family="Helvetica,sans-Serif" font-size="10.00">Cpl/Io/Output.h</text>
</a>
</g>
</g>
<!-- Node29&#45;&gt;Node88 -->
<g id="edge41" class="edge"><title>Node29&#45;&gt;Node88</title>
<path fill="none" stroke="midnightblue" d="M1285.31,-352.47C1379.64,-346.156 1577.56,-331.634 1744,-311 1748.69,-310.419 1753.59,-309.739 1758.46,-309.018"/>
<polygon fill="midnightblue" stroke="midnightblue" points="1284.9,-348.99 1275.15,-353.145 1285.36,-355.974 1284.9,-348.99"/>
</g>
<!-- Node98 -->
<g id="node38" class="node"><title>Node98</title>
<g id="a_node38"><a xlink:href="_system_2_trace_8h.html" target="_top" xlink:title=" ">
<polygon fill="white" stroke="black" points="817,-235.5 817,-254.5 921,-254.5 921,-235.5 817,-235.5"/>
<text text-anchor="middle" x="869" y="-242.5" font-family="Helvetica,sans-Serif" font-size="10.00">Cpl/System/Trace.h</text>
</a>
</g>
</g>
<!-- Node29&#45;&gt;Node98 -->
<g id="edge47" class="edge"><title>Node29&#45;&gt;Node98</title>
<path fill="none" stroke="midnightblue" d="M1174.66,-354.471C1061.2,-350.764 810.69,-339.419 785,-311 763.546,-287.267 809.755,-265.847 841.767,-254.506"/>
<polygon fill="midnightblue" stroke="midnightblue" points="1174.77,-357.976 1184.87,-354.796 1174.99,-350.98 1174.77,-357.976"/>
</g>
<!-- Node99 -->
<g id="node39" class="node"><title>Node99</title>
<g id="a_node39"><a xlink:href="_system_2_private___8h.html" target="_top" xlink:title="This file contains a collection of classes, interfaces, etc.">
<polygon fill="white" stroke="red" points="811.5,-179.5 811.5,-198.5 926.5,-198.5 926.5,-179.5 811.5,-179.5"/>
<text text-anchor="middle" x="869" y="-186.5" font-family="Helvetica,sans-Serif" font-size="10.00">Cpl/System/Private_.h</text>
</a>
</g>
</g>
<!-- Node29&#45;&gt;Node99 -->
<g id="edge46" class="edge"><title>Node29&#45;&gt;Node99</title>
<path fill="none" stroke="midnightblue" d="M1285.5,-354.919C1405.95,-351.998 1682.81,-341.954 1711,-311 1716.99,-304.428 1716.9,-297.646 1711,-291 1595.82,-161.339 1108.06,-220.768 936,-199 932.973,-198.617 929.869,-198.219 926.736,-197.813"/>
<polygon fill="midnightblue" stroke="midnightblue" points="1285.3,-351.423 1275.38,-355.156 1285.46,-358.421 1285.3,-351.423"/>
</g>
<!-- Node101 -->
<g id="node40" class="node"><title>Node101</title>
<g id="a_node40"><a xlink:href="_f_string_8h.html" target="_top" xlink:title=" ">
<polygon fill="white" stroke="red" points="114,-179.5 114,-198.5 210,-198.5 210,-179.5 114,-179.5"/>
<text text-anchor="middle" x="162" y="-186.5" font-family="Helvetica,sans-Serif" font-size="10.00">Cpl/Text/FString.h</text>
</a>
</g>
</g>
<!-- Node29&#45;&gt;Node101 -->
<g id="edge50" class="edge"><title>Node29&#45;&gt;Node101</title>
<path fill="none" stroke="midnightblue" d="M1174.86,-355.836C953.013,-354.571 134.366,-343.877 66,-255 45.5673,-228.437 92.3218,-208.931 127.511,-198.539"/>
<polygon fill="midnightblue" stroke="midnightblue" points="1174.94,-359.336 1184.96,-355.889 1174.98,-352.336 1174.94,-359.336"/>
</g>
<!-- Node109 -->
<g id="node41" class="node"><title>Node109</title>
<g id="a_node41"><a xlink:href="_string_decoder_8h.html" target="_top" xlink:title=" ">
<polygon fill="white" stroke="black" points="1151.5,-291.5 1151.5,-310.5 1308.5,-310.5 1308.5,-291.5 1151.5,-291.5"/>
<text text-anchor="middle" x="1230" y="-298.5" font-family="Helvetica,sans-Serif" font-size="10.00">Cpl/Text/Frame/StringDecoder.h</text>
</a>
</g>
</g>
<!-- Node29&#45;&gt;Node109 -->
<g id="edge52" class="edge"><title>Node29&#45;&gt;Node109</title>
<path fill="none" stroke="midnightblue" d="M1230,-336.805C1230,-327.91 1230,-317.78 1230,-310.751"/>
<polygon fill="midnightblue" stroke="midnightblue" points="1226.5,-337.083 1230,-347.083 1233.5,-337.083 1226.5,-337.083"/>
</g>
<!-- Node110 -->
<g id="node42" class="node"><title>Node110</title>
<g id="a_node42"><a xlink:href="_string_encoder_8h.html" target="_top" xlink:title=" ">
<polygon fill="white" stroke="black" points="1326.5,-291.5 1326.5,-310.5 1483.5,-310.5 1483.5,-291.5 1326.5,-291.5"/>
<text text-anchor="middle" x="1405" y="-298.5" font-family="Helvetica,sans-Serif" font-size="10.00">Cpl/Text/Frame/StringEncoder.h</text>
</a>
</g>
</g>
<!-- Node29&#45;&gt;Node110 -->
<g id="edge53" class="edge"><title>Node29&#45;&gt;Node110</title>
<path fill="none" stroke="midnightblue" d="M1267.47,-344.436C1300.47,-334.255 1347.76,-319.664 1377.4,-310.516"/>
<polygon fill="midnightblue" stroke="midnightblue" points="1266.25,-341.151 1257.73,-347.444 1268.32,-347.839 1266.25,-341.151"/>
</g>
<!-- Node111 -->
<g id="node43" class="node"><title>Node111</title>
<g id="a_node43"><a xlink:href="_text_2_string___8h.html" target="_top" xlink:title=" ">
<polygon fill="white" stroke="red" points="1501.5,-291.5 1501.5,-310.5 1596.5,-310.5 1596.5,-291.5 1501.5,-291.5"/>
<text text-anchor="middle" x="1549" y="-298.5" font-family="Helvetica,sans-Serif" font-size="10.00">Cpl/Text/String_.h</text>
</a>
</g>
</g>
<!-- Node29&#45;&gt;Node111 -->
<g id="edge55" class="edge"><title>Node29&#45;&gt;Node111</title>
<path fill="none" stroke="midnightblue" d="M1285.24,-346.649C1346.27,-336.319 1443.53,-319.854 1501.34,-310.068"/>
<polygon fill="midnightblue" stroke="midnightblue" points="1284.3,-343.258 1275.03,-348.378 1285.47,-350.159 1284.3,-343.258"/>
</g>
<!-- Node115 -->
<g id="node44" class="node"><title>Node115</title>
<g id="a_node44"><a xlink:href="format_8h.html" target="_top" xlink:title="This file contains some general purpose string formatting functions.">
<polygon fill="white" stroke="black" points="945,-179.5 945,-198.5 1037,-198.5 1037,-179.5 945,-179.5"/>
<text text-anchor="middle" x="991" y="-186.5" font-family="Helvetica,sans-Serif" font-size="10.00">Cpl/Text/format.h</text>
</a>
</g>
</g>
<!-- Node29&#45;&gt;Node115 -->
<g id="edge56" class="edge"><title>Node29&#45;&gt;Node115</title>
<path fill="none" stroke="midnightblue" d="M1285.29,-356.187C1430.28,-356.103 1812.9,-351.966 1851,-311 1857.05,-304.491 1855.83,-298.464 1851,-291 1829.83,-258.258 1806.53,-271.067 1771,-255 1751.43,-246.148 1747.85,-240.186 1727,-235 1595.32,-202.238 1176.99,-192.877 1037.08,-190.628"/>
<polygon fill="midnightblue" stroke="midnightblue" points="1285.27,-352.687 1275.27,-356.187 1285.27,-359.687 1285.27,-352.687"/>
</g>
<!-- Node116 -->
<g id="node45" class="node"><title>Node116</title>
<g id="a_node45"><a xlink:href="_guid_8h.html" target="_top" xlink:title=" ">
<polygon fill="white" stroke="black" points="1614.5,-291.5 1614.5,-310.5 1701.5,-310.5 1701.5,-291.5 1614.5,-291.5"/>
<text text-anchor="middle" x="1658" y="-298.5" font-family="Helvetica,sans-Serif" font-size="10.00">Cpl/Type/Guid.h</text>
</a>
</g>
</g>
<!-- Node29&#45;&gt;Node116 -->
<g id="edge59" class="edge"><title>Node29&#45;&gt;Node116</title>
<path fill="none" stroke="midnightblue" d="M1285.19,-350.307C1358.59,-342.529 1492.3,-327.631 1606,-311 1608.72,-310.602 1611.52,-310.174 1614.33,-309.728"/>
<polygon fill="midnightblue" stroke="midnightblue" points="1284.82,-346.827 1275.25,-351.357 1285.56,-353.788 1284.82,-346.827"/>
</g>
<!-- Node31 -->
<g id="node15" class="node"><title>Node31</title>
<g id="a_node15"><a xlink:href="_md5_aladdin_8h.html" target="_top" xlink:title=" ">
<polygon fill="white" stroke="black" points="655.5,-235.5 655.5,-254.5 798.5,-254.5 798.5,-235.5 655.5,-235.5"/>
<text text-anchor="middle" x="727" y="-242.5" font-family="Helvetica,sans-Serif" font-size="10.00">Cpl/Checksum/Md5Aladdin.h</text>
</a>
</g>
</g>
<!-- Node30&#45;&gt;Node31 -->
<g id="edge14" class="edge"><title>Node30&#45;&gt;Node31</title>
<path fill="none" stroke="midnightblue" d="M690.679,-283.718C699.845,-274.2 711.053,-262.561 718.573,-254.751"/>
<polygon fill="midnightblue" stroke="midnightblue" points="688.002,-281.452 683.587,-291.083 693.044,-286.308 688.002,-281.452"/>
</g>
<!-- Node32&#45;&gt;Node10 -->
<g id="edge30" class="edge"><title>Node32&#45;&gt;Node10</title>
<path fill="none" stroke="midnightblue" d="M510.595,-286.948C563.418,-260.76 689.034,-202.325 802,-179 929.133,-152.749 1323.22,-139.459 1466.9,-135.39"/>
<polygon fill="midnightblue" stroke="midnightblue" points="508.977,-283.844 501.598,-291.447 512.108,-290.105 508.977,-283.844"/>
</g>
<!-- Node33 -->
<g id="node17" class="node"><title>Node33</title>
<g id="a_node17"><a xlink:href="_model_database_8h.html" target="_top" xlink:title=" ">
<polygon fill="white" stroke="black" points="395,-235.5 395,-254.5 523,-254.5 523,-235.5 395,-235.5"/>
<text text-anchor="middle" x="459" y="-242.5" font-family="Helvetica,sans-Serif" font-size="10.00">Cpl/Dm/ModelDatabase.h</text>
</a>
</g>
</g>
<!-- Node32&#45;&gt;Node33 -->
<g id="edge17" class="edge"><title>Node32&#45;&gt;Node33</title>
<path fill="none" stroke="midnightblue" d="M476.325,-281.983C471.912,-272.817 466.748,-262.092 463.213,-254.751"/>
<polygon fill="midnightblue" stroke="midnightblue" points="473.215,-283.591 480.707,-291.083 479.522,-280.555 473.215,-283.591"/>
</g>
<!-- Node34 -->
<g id="node18" class="node"><title>Node34</title>
<g id="a_node18"><a xlink:href="_model_point_common___8h.html" target="_top" xlink:title=" ">
<polygon fill="white" stroke="red" points="297.5,-179.5 297.5,-198.5 450.5,-198.5 450.5,-179.5 297.5,-179.5"/>
<text text-anchor="middle" x="374" y="-186.5" font-family="Helvetica,sans-Serif" font-size="10.00">Cpl/Dm/ModelPointCommon_.h</text>
</a>
</g>
</g>
<!-- Node33&#45;&gt;Node34 -->
<g id="edge18" class="edge"><title>Node33&#45;&gt;Node34</title>
<path fill="none" stroke="midnightblue" d="M436.806,-229.901C421.22,-219.999 400.87,-207.071 387.623,-198.655"/>
<polygon fill="midnightblue" stroke="midnightblue" points="435.026,-232.916 445.343,-235.324 438.779,-227.007 435.026,-232.916"/>
</g>
<!-- Node34&#45;&gt;Node39 -->
<g id="edge19" class="edge"><title>Node34&#45;&gt;Node39</title>
<path fill="none" stroke="midnightblue" d="M384.504,-170.275C389.973,-161.045 396.418,-150.17 400.814,-142.751"/>
<polygon fill="midnightblue" stroke="midnightblue" points="381.371,-168.696 379.284,-179.083 387.393,-172.264 381.371,-168.696"/>
</g>
<!-- Node40 -->
<g id="node20" class="node"><title>Node40</title>
<g id="a_node20"><a xlink:href="_bit_array16_8h.html" target="_top" xlink:title=" ">
<polygon fill="white" stroke="black" points="848,-67.5 848,-86.5 970,-86.5 970,-67.5 848,-67.5"/>
<text text-anchor="middle" x="909" y="-74.5" font-family="Helvetica,sans-Serif" font-size="10.00">Cpl/Dm/Mp/BitArray16.h</text>
</a>
</g>
</g>
<!-- Node39&#45;&gt;Node40 -->
<g id="edge20" class="edge"><title>Node39&#45;&gt;Node40</title>
<path fill="none" stroke="midnightblue" d="M472.826,-124.826C571.025,-114.284 752.903,-94.7579 847.792,-84.5711"/>
<polygon fill="midnightblue" stroke="midnightblue" points="472.292,-121.363 462.723,-125.91 473.039,-128.323 472.292,-121.363"/>
</g>
<!-- Node41 -->
<g id="node21" class="node"><title>Node41</title>
<g id="a_node21"><a xlink:href="_double_8h.html" target="_top" xlink:title=" ">
<polygon fill="white" stroke="black" points="590.5,-67.5 590.5,-86.5 697.5,-86.5 697.5,-67.5 590.5,-67.5"/>
<text text-anchor="middle" x="644" y="-74.5" font-family="Helvetica,sans-Serif" font-size="10.00">Cpl/Dm/Mp/Double.h</text>
</a>
</g>
</g>
<!-- Node39&#45;&gt;Node41 -->
<g id="edge21" class="edge"><title>Node39&#45;&gt;Node41</title>
<path fill="none" stroke="midnightblue" d="M453.524,-121.217C498.496,-111.013 565.105,-95.9006 606.465,-86.5164"/>
<polygon fill="midnightblue" stroke="midnightblue" points="452.689,-117.818 443.712,-123.444 454.238,-124.644 452.689,-117.818"/>
</g>
<!-- Node42 -->
<g id="node22" class="node"><title>Node42</title>
<g id="a_node22"><a xlink:href="_float_8h.html" target="_top" xlink:title=" ">
<polygon fill="white" stroke="black" points="716,-67.5 716,-86.5 814,-86.5 814,-67.5 716,-67.5"/>
<text text-anchor="middle" x="765" y="-74.5" font-family="Helvetica,sans-Serif" font-size="10.00">Cpl/Dm/Mp/Float.h</text>
</a>
</g>
</g>
<!-- Node39&#45;&gt;Node42 -->
<g id="edge22" class="edge"><title>Node39&#45;&gt;Node42</title>
<path fill="none" stroke="midnightblue" d="M472.911,-122.012C533.713,-112.924 625.885,-99.1191 706,-87 709.176,-86.5196 712.448,-86.0235 715.746,-85.5227"/>
<polygon fill="midnightblue" stroke="midnightblue" points="472.055,-118.601 462.682,-123.541 473.089,-125.524 472.055,-118.601"/>
</g>
<!-- Node43 -->
<g id="node23" class="node"><title>Node43</title>
<g id="a_node23"><a xlink:href="_int32_8h.html" target="_top" xlink:title=" ">
<polygon fill="white" stroke="black" points="0,-67.5 0,-86.5 98,-86.5 98,-67.5 0,-67.5"/>
<text text-anchor="middle" x="49" y="-74.5" font-family="Helvetica,sans-Serif" font-size="10.00">Cpl/Dm/Mp/Int32.h</text>
</a>
</g>
</g>
<!-- Node39&#45;&gt;Node43 -->
<g id="edge23" class="edge"><title>Node39&#45;&gt;Node43</title>
<path fill="none" stroke="midnightblue" d="M339.026,-122.01C278.42,-112.948 186.713,-99.183 107,-87 104.079,-86.5535 101.075,-86.0927 98.0453,-85.6266"/>
<polygon fill="midnightblue" stroke="midnightblue" points="338.817,-125.517 349.224,-123.534 339.852,-118.594 338.817,-125.517"/>
</g>
<!-- Node44 -->
<g id="node24" class="node"><title>Node44</title>
<g id="a_node24"><a xlink:href="_int64_8h.html" target="_top" xlink:title=" ">
<polygon fill="white" stroke="black" points="116,-67.5 116,-86.5 214,-86.5 214,-67.5 116,-67.5"/>
<text text-anchor="middle" x="165" y="-74.5" font-family="Helvetica,sans-Serif" font-size="10.00">Cpl/Dm/Mp/Int64.h</text>
</a>
</g>
</g>
<!-- Node39&#45;&gt;Node44 -->
<g id="edge24" class="edge"><title>Node39&#45;&gt;Node44</title>
<path fill="none" stroke="midnightblue" d="M357.877,-121.217C312.338,-111.013 244.89,-95.9006 203.009,-86.5164"/>
<polygon fill="midnightblue" stroke="midnightblue" points="357.29,-124.672 367.813,-123.444 358.82,-117.842 357.29,-124.672"/>
</g>
<!-- Node45 -->
<g id="node25" class="node"><title>Node45</title>
<g id="a_node25"><a xlink:href="_uint32_8h.html" target="_top" xlink:title=" ">
<polygon fill="white" stroke="black" points="232,-67.5 232,-86.5 336,-86.5 336,-67.5 232,-67.5"/>
<text text-anchor="middle" x="284" y="-74.5" font-family="Helvetica,sans-Serif" font-size="10.00">Cpl/Dm/Mp/Uint32.h</text>
</a>
</g>
</g>
<!-- Node39&#45;&gt;Node45 -->
<g id="edge25" class="edge"><title>Node39&#45;&gt;Node45</title>
<path fill="none" stroke="midnightblue" d="M377.461,-119.368C354.614,-109.255 323.195,-95.3486 303.241,-86.5164"/>
<polygon fill="midnightblue" stroke="midnightblue" points="376.108,-122.597 386.669,-123.444 378.941,-116.196 376.108,-122.597"/>
</g>
<!-- Node48 -->
<g id="node27" class="node"><title>Node48</title>
<g id="a_node27"><a xlink:href="_uint64_8h.html" target="_top" xlink:title=" ">
<polygon fill="white" stroke="black" points="354,-67.5 354,-86.5 458,-86.5 458,-67.5 354,-67.5"/>
<text text-anchor="middle" x="406" y="-74.5" font-family="Helvetica,sans-Serif" font-size="10.00">Cpl/Dm/Mp/Uint64.h</text>
</a>
</g>
</g>
<!-- Node39&#45;&gt;Node48 -->
<g id="edge27" class="edge"><title>Node39&#45;&gt;Node48</title>
<path fill="none" stroke="midnightblue" d="M406,-112.805C406,-103.91 406,-93.7798 406,-86.7511"/>
<polygon fill="midnightblue" stroke="midnightblue" points="402.5,-113.083 406,-123.083 409.5,-113.083 402.5,-113.083"/>
</g>
<!-- Node50 -->
<g id="node29" class="node"><title>Node50</title>
<g id="a_node29"><a xlink:href="_void_8h.html" target="_top" xlink:title=" ">
<polygon fill="white" stroke="black" points="476,-67.5 476,-86.5 572,-86.5 572,-67.5 476,-67.5"/>
<text text-anchor="middle" x="524" y="-74.5" font-family="Helvetica,sans-Serif" font-size="10.00">Cpl/Dm/Mp/Void.h</text>
</a>
</g>
</g>
<!-- Node39&#45;&gt;Node50 -->
<g id="edge29" class="edge"><title>Node39&#45;&gt;Node50</title>
<path fill="none" stroke="midnightblue" d="M433.9,-119.232C455.973,-109.131 486.176,-95.3091 505.39,-86.5164"/>
<polygon fill="midnightblue" stroke="midnightblue" points="432.334,-116.1 424.697,-123.444 435.247,-122.465 432.334,-116.1"/>
</g>
<!-- Node46 -->
<g id="node26" class="node"><title>Node46</title>
<g id="a_node26"><a xlink:href="_ring_buffer_m_p_8h.html" target="_top" xlink:title=" ">
<polygon fill="white" stroke="red" points="191.5,-6 191.5,-25 338.5,-25 338.5,-6 191.5,-6"/>
<text text-anchor="middle" x="265" y="-13" font-family="Helvetica,sans-Serif" font-size="10.00">Cpl/Container/RingBufferMP.h</text>
</a>
</g>
</g>
<!-- Node45&#45;&gt;Node46 -->
<g id="edge26" class="edge"><title>Node45&#45;&gt;Node46</title>
<path fill="none" stroke="midnightblue" d="M278.143,-57.6575C274.667,-46.7724 270.424,-33.4863 267.717,-25.0091"/>
<polygon fill="midnightblue" stroke="midnightblue" points="274.902,-59.0137 281.278,-67.4751 281.57,-56.8843 274.902,-59.0137"/>
</g>
<!-- Node49 -->
<g id="node28" class="node"><title>Node49</title>
<g id="a_node28"><a xlink:href="_indexed_entry_record_8h.html" target="_top" xlink:title=" ">
<polygon fill="white" stroke="red" points="356.5,-0.5 356.5,-30.5 495.5,-30.5 495.5,-0.5 356.5,-0.5"/>
<text text-anchor="start" x="364.5" y="-18.5" font-family="Helvetica,sans-Serif" font-size="10.00">Cpl/Persistent/IndexedEntry</text>
<text text-anchor="middle" x="426" y="-7.5" font-family="Helvetica,sans-Serif" font-size="10.00">Record.h</text>
</a>
</g>
</g>
<!-- Node48&#45;&gt;Node49 -->
<g id="edge28" class="edge"><title>Node48&#45;&gt;Node49</title>
<path fill="none" stroke="midnightblue" d="M412.112,-57.8158C415.062,-49.0409 418.546,-38.6761 421.286,-30.523"/>
<polygon fill="midnightblue" stroke="midnightblue" points="408.734,-56.8811 408.866,-67.4751 415.369,-59.1114 408.734,-56.8811"/>
</g>
<!-- Node53&#45;&gt;Node34 -->
<g id="edge33" class="edge"><title>Node53&#45;&gt;Node34</title>
<path fill="none" stroke="midnightblue" d="M346.498,-281.674C353.713,-257.625 366.084,-216.388 371.423,-198.591"/>
<polygon fill="midnightblue" stroke="midnightblue" points="343.111,-280.784 343.589,-291.368 349.815,-282.796 343.111,-280.784"/>
</g>
<!-- Node54 -->
<g id="node31" class="node"><title>Node54</title>
<g id="a_node31"><a xlink:href="helpers_8h.html" target="_top" xlink:title="This file defines helper functions/interface for writing unit tests.">
<polygon fill="white" stroke="black" points="475.5,-179.5 475.5,-198.5 560.5,-198.5 560.5,-179.5 475.5,-179.5"/>
<text text-anchor="middle" x="518" y="-186.5" font-family="Helvetica,sans-Serif" font-size="10.00">Catch/helpers.h</text>
</a>
</g>
</g>
<!-- Node53&#45;&gt;Node54 -->
<g id="edge32" class="edge"><title>Node53&#45;&gt;Node54</title>
<path fill="none" stroke="midnightblue" d="M401.464,-289.611C454.259,-279.926 523.73,-265.445 532,-255 545.185,-238.348 532.184,-212.054 523.828,-198.581"/>
<polygon fill="midnightblue" stroke="midnightblue" points="400.699,-286.193 391.485,-291.422 401.949,-293.08 400.699,-286.193"/>
</g>
<!-- Node55 -->
<g id="node32" class="node"><title>Node55</title>
<g id="a_node32"><a xlink:href="_dm_2_persistent_2_record_8h.html" target="_top" xlink:title=" ">
<polygon fill="white" stroke="black" points="201,-235.5 201,-254.5 339,-254.5 339,-235.5 201,-235.5"/>
<text text-anchor="middle" x="270" y="-242.5" font-family="Helvetica,sans-Serif" font-size="10.00">Cpl/Dm/Persistent/Record.h</text>
</a>
</g>
</g>
<!-- Node53&#45;&gt;Node55 -->
<g id="edge34" class="edge"><title>Node53&#45;&gt;Node55</title>
<path fill="none" stroke="midnightblue" d="M321.41,-285.101C308.632,-275.382 292.387,-263.027 281.615,-254.834"/>
<polygon fill="midnightblue" stroke="midnightblue" points="319.514,-288.056 329.593,-291.324 323.752,-282.484 319.514,-288.056"/>
</g>
<!-- Node56 -->
<g id="node33" class="node"><title>Node56</title>
<g id="a_node33"><a xlink:href="_subscriber_8h.html" target="_top" xlink:title=" ">
<polygon fill="white" stroke="red" points="75.5,-235.5 75.5,-254.5 182.5,-254.5 182.5,-235.5 75.5,-235.5"/>
<text text-anchor="middle" x="129" y="-242.5" font-family="Helvetica,sans-Serif" font-size="10.00">Cpl/Dm/Subscriber.h</text>
</a>
</g>
</g>
<!-- Node53&#45;&gt;Node56 -->
<g id="edge35" class="edge"><title>Node53&#45;&gt;Node56</title>
<path fill="none" stroke="midnightblue" d="M297.654,-288.959C257.613,-278.76 198.967,-263.822 162.435,-254.516"/>
<polygon fill="midnightblue" stroke="midnightblue" points="296.853,-292.367 307.408,-291.444 298.581,-285.583 296.853,-292.367"/>
</g>
<!-- Node56&#45;&gt;Node34 -->
<g id="edge36" class="edge"><title>Node56&#45;&gt;Node34</title>
<path fill="none" stroke="midnightblue" d="M177.63,-233.281C223.929,-223.077 292.695,-207.92 335.361,-198.516"/>
<polygon fill="midnightblue" stroke="midnightblue" points="176.833,-229.873 167.821,-235.444 178.34,-236.709 176.833,-229.873"/>
</g>
<!-- Node88&#45;&gt;Node24 -->
<g id="edge45" class="edge"><title>Node88&#45;&gt;Node24</title>
<path fill="none" stroke="midnightblue" d="M1812.06,-282.855C1818.64,-273.505 1826.51,-262.327 1831.84,-254.751"/>
<polygon fill="midnightblue" stroke="midnightblue" points="1809.17,-280.891 1806.27,-291.083 1814.89,-284.919 1809.17,-280.891"/>
</g>
<!-- Node88&#45;&gt;Node98 -->
<g id="edge42" class="edge"><title>Node88&#45;&gt;Node98</title>
<path fill="none" stroke="midnightblue" d="M1748.33,-294.356C1736.1,-293.137 1723.1,-291.934 1711,-291 1412.52,-267.946 1053.61,-253.009 921.279,-247.932"/>
<polygon fill="midnightblue" stroke="midnightblue" points="1748.08,-297.849 1758.38,-295.379 1748.79,-290.885 1748.08,-297.849"/>
</g>
<!-- Node98&#45;&gt;Node54 -->
<g id="edge43" class="edge"><title>Node98&#45;&gt;Node54</title>
<path fill="none" stroke="midnightblue" d="M806.694,-234.414C735.797,-223.507 621.916,-205.987 560.517,-196.541"/>
<polygon fill="midnightblue" stroke="midnightblue" points="806.415,-237.913 816.831,-235.974 807.479,-230.994 806.415,-237.913"/>
</g>
<!-- Node98&#45;&gt;Node99 -->
<g id="edge44" class="edge"><title>Node98&#45;&gt;Node99</title>
<path fill="none" stroke="midnightblue" d="M869,-224.805C869,-215.91 869,-205.78 869,-198.751"/>
<polygon fill="midnightblue" stroke="midnightblue" points="865.5,-225.083 869,-235.083 872.5,-225.083 865.5,-225.083"/>
</g>
<!-- Node101&#45;&gt;Node39 -->
<g id="edge51" class="edge"><title>Node101&#45;&gt;Node39</title>
<path fill="none" stroke="midnightblue" d="M210.432,-177.281C256.541,-167.077 325.027,-151.92 367.518,-142.516"/>
<polygon fill="midnightblue" stroke="midnightblue" points="209.67,-173.865 200.663,-179.444 211.183,-180.7 209.67,-173.865"/>
</g>
<!-- Node115&#45;&gt;Node39 -->
<g id="edge58" class="edge"><title>Node115&#45;&gt;Node39</title>
<path fill="none" stroke="midnightblue" d="M934.772,-179.075C755.929,-157.42 557.626,-143.48 462.512,-137.42"/>
<polygon fill="midnightblue" stroke="midnightblue" points="934.543,-182.573 944.894,-180.311 935.392,-175.624 934.543,-182.573"/>
</g>
<!-- Node115&#45;&gt;Node40 -->
<g id="edge57" class="edge"><title>Node115&#45;&gt;Node40</title>
<path fill="none" stroke="midnightblue" d="M978.53,-171.272C960.805,-147.494 928.97,-104.789 915.405,-86.5914"/>
<polygon fill="midnightblue" stroke="midnightblue" points="975.783,-173.443 984.566,-179.368 981.395,-169.259 975.783,-173.443"/>
</g>
</g>
</svg>
