<?xml version="1.0" encoding="UTF-8" standalone="no"?>
<!DOCTYPE svg PUBLIC "-//W3C//DTD SVG 1.1//EN"
 "http://www.w3.org/Graphics/SVG/1.1/DTD/svg11.dtd">
<!-- Generated by graphviz version 2.38.0 (20140413.2041)
 -->
<!-- Title: Cpl/System/FatalError.h Pages: 1 -->
<svg width="3308pt" height="386pt"
 viewBox="0.00 0.00 3307.50 386.00" xmlns="http://www.w3.org/2000/svg" xmlns:xlink="http://www.w3.org/1999/xlink">
<g id="graph0" class="graph" transform="scale(1 1) rotate(0) translate(4 382)">
<title>Cpl/System/FatalError.h</title>
<polygon fill="white" stroke="none" points="-4,4 -4,-382 3303.5,-382 3303.5,4 -4,4"/>
<!-- Node1 -->
<g id="node1" class="node"><title>Node1</title>
<g id="a_node1"><a xlink:title=" ">
<polygon fill="#bfbfbf" stroke="black" points="2631.5,-358.5 2631.5,-377.5 2753.5,-377.5 2753.5,-358.5 2631.5,-358.5"/>
<text text-anchor="middle" x="2692.5" y="-365.5" font-family="Helvetica,sans-Serif" font-size="10.00">Cpl/System/FatalError.h</text>
</a>
</g>
</g>
<!-- Node2 -->
<g id="node2" class="node"><title>Node2</title>
<g id="a_node2"><a xlink:href="_key_8h.html" target="_top" xlink:title=" ">
<polygon fill="white" stroke="black" points="1182.5,-297 1182.5,-316 1286.5,-316 1286.5,-297 1182.5,-297"/>
<text text-anchor="middle" x="1234.5" y="-304" font-family="Helvetica,sans-Serif" font-size="10.00">Cpl/Container/Key.h</text>
</a>
</g>
</g>
<!-- Node1&#45;&gt;Node2 -->
<g id="edge1" class="edge"><title>Node1&#45;&gt;Node2</title>
<path fill="none" stroke="midnightblue" d="M2621.01,-364.083C2366.39,-353.692 1507.17,-318.628 1286.5,-309.622"/>
<polygon fill="midnightblue" stroke="midnightblue" points="2621.11,-367.59 2631.25,-364.5 2621.4,-360.595 2621.11,-367.59"/>
</g>
<!-- Node76 -->
<g id="node11" class="node"><title>Node76</title>
<g id="a_node11"><a xlink:href="_numeric_8h.html" target="_top" xlink:title=" ">
<polygon fill="white" stroke="black" points="2149,-123.5 2149,-142.5 2262,-142.5 2262,-123.5 2149,-123.5"/>
<text text-anchor="middle" x="2205.5" y="-130.5" font-family="Helvetica,sans-Serif" font-size="10.00">Cpl/Dm/Mp/Numeric.h</text>
</a>
</g>
</g>
<!-- Node1&#45;&gt;Node76 -->
<g id="edge54" class="edge"><title>Node1&#45;&gt;Node76</title>
<path fill="none" stroke="midnightblue" d="M2621.2,-360.488C2565.39,-353.959 2493.79,-341.956 2472.5,-322 2424.44,-276.944 2481.71,-223.89 2433.5,-179 2409.14,-156.318 2321.46,-144.181 2262.21,-138.418"/>
<polygon fill="midnightblue" stroke="midnightblue" points="2621.09,-363.998 2631.42,-361.644 2621.88,-357.042 2621.09,-363.998"/>
</g>
<!-- Node170 -->
<g id="node46" class="node"><title>Node170</title>
<g id="a_node46"><a xlink:href="_cpl_2_system_2_bare_metal_2mappings___8h.html" target="_top" xlink:title="This file provides the mappings for Platform specific types, etc.">
<polygon fill="white" stroke="black" points="2481,-291.5 2481,-321.5 2596,-321.5 2596,-291.5 2481,-291.5"/>
<text text-anchor="start" x="2489" y="-309.5" font-family="Helvetica,sans-Serif" font-size="10.00">Cpl/System/BareMetal</text>
<text text-anchor="middle" x="2538.5" y="-298.5" font-family="Helvetica,sans-Serif" font-size="10.00">/mappings_.h</text>
</a>
</g>
</g>
<!-- Node1&#45;&gt;Node170 -->
<g id="edge55" class="edge"><title>Node1&#45;&gt;Node170</title>
<path fill="none" stroke="midnightblue" d="M2661.05,-354.847C2636.03,-345.182 2601,-331.647 2574.79,-321.523"/>
<polygon fill="midnightblue" stroke="midnightblue" points="2659.85,-358.136 2670.44,-358.475 2662.37,-351.606 2659.85,-358.136"/>
</g>
<!-- Node171 -->
<g id="node47" class="node"><title>Node171</title>
<g id="a_node47"><a xlink:href="_cpl_2_system_2_cpp11_2mappings___8h.html" target="_top" xlink:title="This file provides the mappings for Platform specific types, etc.">
<polygon fill="white" stroke="black" points="2614,-297 2614,-316 2771,-316 2771,-297 2614,-297"/>
<text text-anchor="middle" x="2692.5" y="-304" font-family="Helvetica,sans-Serif" font-size="10.00">Cpl/System/Cpp11/mappings_.h</text>
</a>
</g>
</g>
<!-- Node1&#45;&gt;Node171 -->
<g id="edge56" class="edge"><title>Node1&#45;&gt;Node171</title>
<path fill="none" stroke="midnightblue" d="M2692.5,-348.317C2692.5,-337.496 2692.5,-324.398 2692.5,-316.009"/>
<polygon fill="midnightblue" stroke="midnightblue" points="2689,-348.475 2692.5,-358.475 2696,-348.475 2689,-348.475"/>
</g>
<!-- Node172 -->
<g id="node48" class="node"><title>Node172</title>
<g id="a_node48"><a xlink:href="_cpl_2_system_2_posix_2mappings___8h.html" target="_top" xlink:title="This file provides the mappings for Platform specific types, etc.">
<polygon fill="white" stroke="black" points="2789.5,-297 2789.5,-316 2943.5,-316 2943.5,-297 2789.5,-297"/>
<text text-anchor="middle" x="2866.5" y="-304" font-family="Helvetica,sans-Serif" font-size="10.00">Cpl/System/Posix/mappings_.h</text>
</a>
</g>
</g>
<!-- Node1&#45;&gt;Node172 -->
<g id="edge57" class="edge"><title>Node1&#45;&gt;Node172</title>
<path fill="none" stroke="midnightblue" d="M2726.91,-355.232C2760.74,-343.666 2811.53,-326.297 2841.62,-316.009"/>
<polygon fill="midnightblue" stroke="midnightblue" points="2725.76,-351.928 2717.43,-358.475 2728.02,-358.551 2725.76,-351.928"/>
</g>
<!-- Node173 -->
<g id="node49" class="node"><title>Node173</title>
<g id="a_node49"><a xlink:href="_cpl_2_system_2_r_p2040_2mappings___8h.html" target="_top" xlink:title="This file provides the mappings for Platform specific types, etc.">
<polygon fill="white" stroke="black" points="2961.5,-297 2961.5,-316 3125.5,-316 3125.5,-297 2961.5,-297"/>
<text text-anchor="middle" x="3043.5" y="-304" font-family="Helvetica,sans-Serif" font-size="10.00">Cpl/System/RP2040/mappings_.h</text>
</a>
</g>
</g>
<!-- Node1&#45;&gt;Node173 -->
<g id="edge58" class="edge"><title>Node1&#45;&gt;Node173</title>
<path fill="none" stroke="midnightblue" d="M2752.91,-356.759C2820.83,-345.246 2929.88,-326.76 2993.3,-316.009"/>
<polygon fill="midnightblue" stroke="midnightblue" points="2752.06,-353.353 2742.79,-358.475 2753.23,-360.254 2752.06,-353.353"/>
</g>
<!-- Node174 -->
<g id="node50" class="node"><title>Node174</title>
<g id="a_node50"><a xlink:href="_cpl_2_system_2_win32_2mappings___8h.html" target="_top" xlink:title="This file provides the mappings for Platform specific types, etc.">
<polygon fill="white" stroke="black" points="3143.5,-297 3143.5,-316 3299.5,-316 3299.5,-297 3143.5,-297"/>
<text text-anchor="middle" x="3221.5" y="-304" font-family="Helvetica,sans-Serif" font-size="10.00">Cpl/System/Win32/mappings_.h</text>
</a>
</g>
</g>
<!-- Node1&#45;&gt;Node174 -->
<g id="edge59" class="edge"><title>Node1&#45;&gt;Node174</title>
<path fill="none" stroke="midnightblue" d="M2763.86,-361.143C2851.37,-353.636 3004.16,-339.479 3134.5,-322 3147.25,-320.29 3161,-318.142 3173.72,-316.026"/>
<polygon fill="midnightblue" stroke="midnightblue" points="2763.44,-357.666 2753.78,-362.004 2764.04,-364.641 2763.44,-357.666"/>
</g>
<!-- Node3 -->
<g id="node3" class="node"><title>Node3</title>
<g id="a_node3"><a xlink:href="_dict_item_8h.html" target="_top" xlink:title=" ">
<polygon fill="white" stroke="black" points="151,-235.5 151,-254.5 274,-254.5 274,-235.5 151,-235.5"/>
<text text-anchor="middle" x="212.5" y="-242.5" font-family="Helvetica,sans-Serif" font-size="10.00">Cpl/Container/DictItem.h</text>
</a>
</g>
</g>
<!-- Node2&#45;&gt;Node3 -->
<g id="edge2" class="edge"><title>Node2&#45;&gt;Node3</title>
<path fill="none" stroke="midnightblue" d="M1172.17,-301.871C989.423,-291.232 456.387,-260.199 274.306,-249.598"/>
<polygon fill="midnightblue" stroke="midnightblue" points="1172.23,-305.38 1182.41,-302.468 1172.63,-298.392 1172.23,-305.38"/>
</g>
<!-- Node41 -->
<g id="node7" class="node"><title>Node41</title>
<g id="a_node7"><a xlink:href="_string_8h.html" target="_top" xlink:title=" ">
<polygon fill="white" stroke="black" points="1189.5,-235.5 1189.5,-254.5 1279.5,-254.5 1279.5,-235.5 1189.5,-235.5"/>
<text text-anchor="middle" x="1234.5" y="-242.5" font-family="Helvetica,sans-Serif" font-size="10.00">Cpl/Text/String.h</text>
</a>
</g>
</g>
<!-- Node2&#45;&gt;Node41 -->
<g id="edge6" class="edge"><title>Node2&#45;&gt;Node41</title>
<path fill="none" stroke="midnightblue" d="M1228.18,-286.817C1227.3,-275.996 1227.77,-262.898 1229.6,-254.509"/>
<polygon fill="midnightblue" stroke="midnightblue" points="1224.75,-287.554 1229.6,-296.975 1231.69,-286.588 1224.75,-287.554"/>
</g>
<!-- Node33 -->
<g id="node45" class="node"><title>Node33</title>
<g id="a_node45"><a xlink:href="_rx_frame_handler_8h.html" target="_top" xlink:title=" ">
<polygon fill="white" stroke="black" points="1298,-235.5 1298,-254.5 1453,-254.5 1453,-235.5 1298,-235.5"/>
<text text-anchor="middle" x="1375.5" y="-242.5" font-family="Helvetica,sans-Serif" font-size="10.00">Driver/TPipe/RxFrameHandler.h</text>
</a>
</g>
</g>
<!-- Node2&#45;&gt;Node33 -->
<g id="edge53" class="edge"><title>Node2&#45;&gt;Node33</title>
<path fill="none" stroke="midnightblue" d="M1264.17,-292.98C1291.55,-281.424 1331.48,-264.576 1355.34,-254.509"/>
<polygon fill="midnightblue" stroke="midnightblue" points="1262.55,-289.863 1254.7,-296.975 1265.28,-296.312 1262.55,-289.863"/>
</g>
<!-- Node4 -->
<g id="node4" class="node"><title>Node4</title>
<g id="a_node4"><a xlink:href="_hash_table___8h.html" target="_top" xlink:title=" ">
<polygon fill="white" stroke="red" points="143.5,-179.5 143.5,-198.5 281.5,-198.5 281.5,-179.5 143.5,-179.5"/>
<text text-anchor="middle" x="212.5" y="-186.5" font-family="Helvetica,sans-Serif" font-size="10.00">Cpl/Container/HashTable_.h</text>
</a>
</g>
</g>
<!-- Node3&#45;&gt;Node4 -->
<g id="edge3" class="edge"><title>Node3&#45;&gt;Node4</title>
<path fill="none" stroke="midnightblue" d="M212.5,-224.805C212.5,-215.91 212.5,-205.78 212.5,-198.751"/>
<polygon fill="midnightblue" stroke="midnightblue" points="209,-225.083 212.5,-235.083 216,-225.083 209,-225.083"/>
</g>
<!-- Node6 -->
<g id="node5" class="node"><title>Node6</title>
<g id="a_node5"><a xlink:href="_map_item_8h.html" target="_top" xlink:title=" ">
<polygon fill="white" stroke="red" points="0,-179.5 0,-198.5 125,-198.5 125,-179.5 0,-179.5"/>
<text text-anchor="middle" x="62.5" y="-186.5" font-family="Helvetica,sans-Serif" font-size="10.00">Cpl/Container/MapItem.h</text>
</a>
</g>
</g>
<!-- Node3&#45;&gt;Node6 -->
<g id="edge4" class="edge"><title>Node3&#45;&gt;Node6</title>
<path fill="none" stroke="midnightblue" d="M179.275,-232.039C151.052,-221.879 111.238,-207.546 86.1567,-198.516"/>
<polygon fill="midnightblue" stroke="midnightblue" points="178.138,-235.349 188.732,-235.444 180.509,-228.763 178.138,-235.349"/>
</g>
<!-- Node36 -->
<g id="node6" class="node"><title>Node36</title>
<g id="a_node6"><a xlink:href="_string_item_8h.html" target="_top" xlink:title=" ">
<polygon fill="white" stroke="red" points="130.5,-123.5 130.5,-142.5 240.5,-142.5 240.5,-123.5 130.5,-123.5"/>
<text text-anchor="middle" x="185.5" y="-130.5" font-family="Helvetica,sans-Serif" font-size="10.00">Cpl/Text/StringItem.h</text>
</a>
</g>
</g>
<!-- Node6&#45;&gt;Node36 -->
<g id="edge5" class="edge"><title>Node6&#45;&gt;Node36</title>
<path fill="none" stroke="midnightblue" d="M91.2734,-175.368C114.307,-165.255 145.984,-151.349 166.101,-142.516"/>
<polygon fill="midnightblue" stroke="midnightblue" points="89.7392,-172.219 81.9897,-179.444 92.5532,-178.628 89.7392,-172.219"/>
</g>
<!-- Node41&#45;&gt;Node2 -->
<g id="edge8" class="edge"><title>Node41&#45;&gt;Node2</title>
<path fill="none" stroke="midnightblue" d="M1240.81,-264.663C1241.7,-275.481 1241.23,-288.58 1239.4,-296.975"/>
<polygon fill="midnightblue" stroke="midnightblue" points="1244.25,-263.929 1239.4,-254.509 1237.31,-264.897 1244.25,-263.929"/>
</g>
<!-- Node41&#45;&gt;Node36 -->
<g id="edge46" class="edge"><title>Node41&#45;&gt;Node36</title>
<path fill="none" stroke="midnightblue" d="M1179.27,-244.367C1008.37,-245.015 490.015,-243.189 328.5,-199 310.091,-193.964 307.729,-187.21 290.5,-179 262.033,-165.435 228.423,-151.361 207.04,-142.643"/>
<polygon fill="midnightblue" stroke="midnightblue" points="1179.32,-247.867 1189.3,-244.325 1179.29,-240.867 1179.32,-247.867"/>
</g>
<!-- Node42 -->
<g id="node8" class="node"><title>Node42</title>
<g id="a_node8"><a xlink:href="_api_md5_8h.html" target="_top" xlink:title=" ">
<polygon fill="white" stroke="red" points="1897,-179.5 1897,-198.5 2022,-198.5 2022,-179.5 1897,-179.5"/>
<text text-anchor="middle" x="1959.5" y="-186.5" font-family="Helvetica,sans-Serif" font-size="10.00">Cpl/Checksum/ApiMd5.h</text>
</a>
</g>
</g>
<!-- Node41&#45;&gt;Node42 -->
<g id="edge7" class="edge"><title>Node41&#45;&gt;Node42</title>
<path fill="none" stroke="midnightblue" d="M1289.78,-234.978C1553.05,-205.648 1622.39,-222.065 1882.5,-199 1887.19,-198.584 1892.04,-198.113 1896.92,-197.611"/>
<polygon fill="midnightblue" stroke="midnightblue" points="1289.08,-231.536 1279.53,-236.133 1289.86,-238.492 1289.08,-231.536"/>
</g>
<!-- Node44 -->
<g id="node9" class="node"><title>Node44</title>
<g id="a_node9"><a xlink:href="_model_database_api_8h.html" target="_top" xlink:title=" ">
<polygon fill="white" stroke="red" points="2040.5,-179.5 2040.5,-198.5 2182.5,-198.5 2182.5,-179.5 2040.5,-179.5"/>
<text text-anchor="middle" x="2111.5" y="-186.5" font-family="Helvetica,sans-Serif" font-size="10.00">Cpl/Dm/ModelDatabaseApi.h</text>
</a>
</g>
</g>
<!-- Node41&#45;&gt;Node44 -->
<g id="edge9" class="edge"><title>Node41&#45;&gt;Node44</title>
<path fill="none" stroke="midnightblue" d="M1289.84,-234.994C1618.99,-200.286 1705.33,-225.222 2031.5,-199 2034.43,-198.765 2037.41,-198.508 2040.42,-198.234"/>
<polygon fill="midnightblue" stroke="midnightblue" points="1289.1,-231.552 1279.53,-236.092 1289.84,-238.513 1289.1,-231.552"/>
</g>
<!-- Node102 -->
<g id="node10" class="node"><title>Node102</title>
<g id="a_node10"><a xlink:href="_model_point_8h.html" target="_top" xlink:title=" ">
<polygon fill="white" stroke="red" points="2315,-179.5 2315,-198.5 2424,-198.5 2424,-179.5 2315,-179.5"/>
<text text-anchor="middle" x="2369.5" y="-186.5" font-family="Helvetica,sans-Serif" font-size="10.00">Cpl/Dm/ModelPoint.h</text>
</a>
</g>
</g>
<!-- Node41&#45;&gt;Node102 -->
<g id="edge10" class="edge"><title>Node41&#45;&gt;Node102</title>
<path fill="none" stroke="midnightblue" d="M1289.55,-235.045C1740.24,-190.438 1858.25,-238.255 2305.5,-199 2308.52,-198.735 2311.61,-198.426 2314.73,-198.085"/>
<polygon fill="midnightblue" stroke="midnightblue" points="1289.12,-231.57 1279.52,-236.047 1289.82,-238.535 1289.12,-231.57"/>
</g>
<!-- Node41&#45;&gt;Node76 -->
<g id="edge11" class="edge"><title>Node41&#45;&gt;Node76</title>
<path fill="none" stroke="midnightblue" d="M1289.61,-235.015C1538.63,-207.959 1611.81,-264.518 1849.5,-199 1868.28,-193.824 1869.93,-184.895 1888.5,-179 1976.84,-150.951 2084.6,-140.35 2148.99,-136.367"/>
<polygon fill="midnightblue" stroke="midnightblue" points="1289.08,-231.552 1279.53,-236.145 1289.86,-238.509 1289.08,-231.552"/>
</g>
<!-- Node107 -->
<g id="node30" class="node"><title>Node107</title>
<g id="a_node30"><a xlink:href="_input_8h.html" target="_top" xlink:title=" ">
<polygon fill="white" stroke="red" points="439,-179.5 439,-198.5 514,-198.5 514,-179.5 439,-179.5"/>
<text text-anchor="middle" x="476.5" y="-186.5" font-family="Helvetica,sans-Serif" font-size="10.00">Cpl/Io/Input.h</text>
</a>
</g>
</g>
<!-- Node41&#45;&gt;Node107 -->
<g id="edge31" class="edge"><title>Node41&#45;&gt;Node107</title>
<path fill="none" stroke="midnightblue" d="M1179.37,-242.874C1059.57,-239.909 766.721,-229.859 523.5,-199 520.45,-198.613 517.301,-198.15 514.143,-197.641"/>
<polygon fill="midnightblue" stroke="midnightblue" points="1179.31,-246.373 1189.39,-243.115 1179.48,-239.375 1179.31,-246.373"/>
</g>
<!-- Node135 -->
<g id="node31" class="node"><title>Node135</title>
<g id="a_node31"><a xlink:href="_line_reader_api_8h.html" target="_top" xlink:title=" ">
<polygon fill="white" stroke="red" points="532.5,-179.5 532.5,-198.5 648.5,-198.5 648.5,-179.5 532.5,-179.5"/>
<text text-anchor="middle" x="590.5" y="-186.5" font-family="Helvetica,sans-Serif" font-size="10.00">Cpl/Io/LineReaderApi.h</text>
</a>
</g>
</g>
<!-- Node41&#45;&gt;Node135 -->
<g id="edge32" class="edge"><title>Node41&#45;&gt;Node135</title>
<path fill="none" stroke="midnightblue" d="M1179,-240.704C1076.04,-234.359 848.526,-219.263 657.5,-199 654.582,-198.69 651.595,-198.356 648.581,-198.003"/>
<polygon fill="midnightblue" stroke="midnightblue" points="1178.97,-244.208 1189.16,-241.326 1179.4,-237.221 1178.97,-244.208"/>
</g>
<!-- Node136 -->
<g id="node32" class="node"><title>Node136</title>
<g id="a_node32"><a xlink:href="_line_writer_api_8h.html" target="_top" xlink:title=" ">
<polygon fill="white" stroke="red" points="667,-179.5 667,-198.5 778,-198.5 778,-179.5 667,-179.5"/>
<text text-anchor="middle" x="722.5" y="-186.5" font-family="Helvetica,sans-Serif" font-size="10.00">Cpl/Io/LineWriterApi.h</text>
</a>
</g>
</g>
<!-- Node41&#45;&gt;Node136 -->
<g id="edge33" class="edge"><title>Node41&#45;&gt;Node136</title>
<path fill="none" stroke="midnightblue" d="M1179.23,-238.846C1095.5,-230.931 931.525,-215.012 792.5,-199 787.875,-198.467 783.08,-197.894 778.268,-197.305"/>
<polygon fill="midnightblue" stroke="midnightblue" points="1179,-242.339 1189.28,-239.794 1179.65,-235.37 1179,-242.339"/>
</g>
<!-- Node138 -->
<g id="node33" class="node"><title>Node138</title>
<g id="a_node33"><a xlink:href="_output_8h.html" target="_top" xlink:title=" ">
<polygon fill="white" stroke="red" points="338,-179.5 338,-198.5 421,-198.5 421,-179.5 338,-179.5"/>
<text text-anchor="middle" x="379.5" y="-186.5" font-family="Helvetica,sans-Serif" font-size="10.00">Cpl/Io/Output.h</text>
</a>
</g>
</g>
<!-- Node41&#45;&gt;Node138 -->
<g id="edge34" class="edge"><title>Node41&#45;&gt;Node138</title>
<path fill="none" stroke="midnightblue" d="M1179.22,-243.235C1048.46,-240.92 710.019,-231.962 429.5,-199 426.784,-198.681 423.993,-198.307 421.185,-197.897"/>
<polygon fill="midnightblue" stroke="midnightblue" points="1179.33,-246.737 1189.39,-243.409 1179.45,-239.738 1179.33,-246.737"/>
</g>
<!-- Node148 -->
<g id="node34" class="node"><title>Node148</title>
<g id="a_node34"><a xlink:href="_system_2_trace_8h.html" target="_top" xlink:title=" ">
<polygon fill="white" stroke="red" points="712.5,-123.5 712.5,-142.5 816.5,-142.5 816.5,-123.5 712.5,-123.5"/>
<text text-anchor="middle" x="764.5" y="-130.5" font-family="Helvetica,sans-Serif" font-size="10.00">Cpl/System/Trace.h</text>
</a>
</g>
</g>
<!-- Node41&#45;&gt;Node148 -->
<g id="edge38" class="edge"><title>Node41&#45;&gt;Node148</title>
<path fill="none" stroke="midnightblue" d="M1179.24,-242.292C1083.42,-238.602 890.903,-227.758 830.5,-199 803.201,-186.003 780.403,-157.04 770.218,-142.571"/>
<polygon fill="midnightblue" stroke="midnightblue" points="1179.19,-245.793 1189.32,-242.668 1179.46,-238.798 1179.19,-245.793"/>
</g>
<!-- Node149 -->
<g id="node35" class="node"><title>Node149</title>
<g id="a_node35"><a xlink:href="_cpl_2_system_2_private___8h.html" target="_top" xlink:title="This file contains a collection of classes, interfaces, etc.">
<polygon fill="white" stroke="red" points="747,-67.5 747,-86.5 862,-86.5 862,-67.5 747,-67.5"/>
<text text-anchor="middle" x="804.5" y="-74.5" font-family="Helvetica,sans-Serif" font-size="10.00">Cpl/System/Private_.h</text>
</a>
</g>
</g>
<!-- Node41&#45;&gt;Node149 -->
<g id="edge37" class="edge"><title>Node41&#45;&gt;Node149</title>
<path fill="none" stroke="midnightblue" d="M1179.09,-241.916C1095.17,-237.896 940.625,-226.86 893.5,-199 847.032,-171.529 817.521,-109.371 807.926,-86.5827"/>
<polygon fill="midnightblue" stroke="midnightblue" points="1179.06,-245.418 1189.21,-242.383 1179.38,-238.425 1179.06,-245.418"/>
</g>
<!-- Node9 -->
<g id="node36" class="node"><title>Node9</title>
<g id="a_node36"><a xlink:href="_cmd_2_command_8h.html" target="_top" xlink:title=" ">
<polygon fill="white" stroke="red" points="910.5,-179.5 910.5,-198.5 1050.5,-198.5 1050.5,-179.5 910.5,-179.5"/>
<text text-anchor="middle" x="980.5" y="-186.5" font-family="Helvetica,sans-Serif" font-size="10.00">Cpl/TShell/Cmd/Command.h</text>
</a>
</g>
</g>
<!-- Node41&#45;&gt;Node9 -->
<g id="edge39" class="edge"><title>Node41&#45;&gt;Node9</title>
<path fill="none" stroke="midnightblue" d="M1184.38,-233.346C1136.38,-223.141 1064.88,-207.94 1020.56,-198.516"/>
<polygon fill="midnightblue" stroke="midnightblue" points="1183.74,-236.787 1194.25,-235.444 1185.2,-229.94 1183.74,-236.787"/>
</g>
<!-- Node14 -->
<g id="node37" class="node"><title>Node14</title>
<g id="a_node37"><a xlink:href="_threads_8h.html" target="_top" xlink:title=" ">
<polygon fill="white" stroke="red" points="894,-123.5 894,-142.5 1025,-142.5 1025,-123.5 894,-123.5"/>
<text text-anchor="middle" x="959.5" y="-130.5" font-family="Helvetica,sans-Serif" font-size="10.00">Cpl/TShell/Cmd/Threads.h</text>
</a>
</g>
</g>
<!-- Node41&#45;&gt;Node14 -->
<g id="edge41" class="edge"><title>Node41&#45;&gt;Node14</title>
<path fill="none" stroke="midnightblue" d="M1179.37,-244.913C1094.25,-245.009 936.915,-239.522 901.5,-199 883.685,-178.616 919.14,-154.959 942.08,-142.572"/>
<polygon fill="midnightblue" stroke="midnightblue" points="1179.39,-248.413 1189.38,-244.876 1179.37,-241.413 1179.39,-248.413"/>
</g>
<!-- Node152 -->
<g id="node38" class="node"><title>Node152</title>
<g id="a_node38"><a xlink:href="_f_string_8h.html" target="_top" xlink:title=" ">
<polygon fill="white" stroke="red" points="2200.5,-179.5 2200.5,-198.5 2296.5,-198.5 2296.5,-179.5 2200.5,-179.5"/>
<text text-anchor="middle" x="2248.5" y="-186.5" font-family="Helvetica,sans-Serif" font-size="10.00">Cpl/Text/FString.h</text>
</a>
</g>
</g>
<!-- Node41&#45;&gt;Node152 -->
<g id="edge42" class="edge"><title>Node41&#45;&gt;Node152</title>
<path fill="none" stroke="midnightblue" d="M1289.63,-235.031C1689.79,-194.637 1795.1,-238.061 2191.5,-199 2194.39,-198.715 2197.36,-198.379 2200.35,-198.008"/>
<polygon fill="midnightblue" stroke="midnightblue" points="1289.12,-231.565 1279.52,-236.063 1289.83,-238.529 1289.12,-231.565"/>
</g>
<!-- Node161 -->
<g id="node39" class="node"><title>Node161</title>
<g id="a_node39"><a xlink:href="_string_decoder_8h.html" target="_top" xlink:title=" ">
<polygon fill="white" stroke="black" points="1069,-179.5 1069,-198.5 1226,-198.5 1226,-179.5 1069,-179.5"/>
<text text-anchor="middle" x="1147.5" y="-186.5" font-family="Helvetica,sans-Serif" font-size="10.00">Cpl/Text/Frame/StringDecoder.h</text>
</a>
</g>
</g>
<!-- Node41&#45;&gt;Node161 -->
<g id="edge44" class="edge"><title>Node41&#45;&gt;Node161</title>
<path fill="none" stroke="midnightblue" d="M1211.78,-229.901C1195.83,-219.999 1175,-207.071 1161.44,-198.655"/>
<polygon fill="midnightblue" stroke="midnightblue" points="1210.18,-233.024 1220.52,-235.324 1213.87,-227.077 1210.18,-233.024"/>
</g>
<!-- Node162 -->
<g id="node40" class="node"><title>Node162</title>
<g id="a_node40"><a xlink:href="_string_encoder_8h.html" target="_top" xlink:title=" ">
<polygon fill="white" stroke="black" points="1244,-179.5 1244,-198.5 1401,-198.5 1401,-179.5 1244,-179.5"/>
<text text-anchor="middle" x="1322.5" y="-186.5" font-family="Helvetica,sans-Serif" font-size="10.00">Cpl/Text/Frame/StringEncoder.h</text>
</a>
</g>
</g>
<!-- Node41&#45;&gt;Node162 -->
<g id="edge45" class="edge"><title>Node41&#45;&gt;Node162</title>
<path fill="none" stroke="midnightblue" d="M1257.48,-229.901C1273.61,-219.999 1294.68,-207.071 1308.4,-198.655"/>
<polygon fill="midnightblue" stroke="midnightblue" points="1255.33,-227.111 1248.64,-235.324 1258.99,-233.077 1255.33,-227.111"/>
</g>
<!-- Node163 -->
<g id="node41" class="node"><title>Node163</title>
<g id="a_node41"><a xlink:href="_text_2_string___8h.html" target="_top" xlink:title=" ">
<polygon fill="white" stroke="red" points="1419,-179.5 1419,-198.5 1514,-198.5 1514,-179.5 1419,-179.5"/>
<text text-anchor="middle" x="1466.5" y="-186.5" font-family="Helvetica,sans-Serif" font-size="10.00">Cpl/Text/String_.h</text>
</a>
</g>
</g>
<!-- Node41&#45;&gt;Node163 -->
<g id="edge47" class="edge"><title>Node41&#45;&gt;Node163</title>
<path fill="none" stroke="midnightblue" d="M1281.1,-233.153C1324.94,-222.95 1389.68,-207.881 1429.91,-198.516"/>
<polygon fill="midnightblue" stroke="midnightblue" points="1280.21,-229.768 1271.26,-235.444 1281.79,-236.585 1280.21,-229.768"/>
</g>
<!-- Node167 -->
<g id="node42" class="node"><title>Node167</title>
<g id="a_node42"><a xlink:href="format_8h.html" target="_top" xlink:title="This file contains some general purpose string formatting functions.">
<polygon fill="white" stroke="red" points="1748.5,-179.5 1748.5,-198.5 1840.5,-198.5 1840.5,-179.5 1748.5,-179.5"/>
<text text-anchor="middle" x="1794.5" y="-186.5" font-family="Helvetica,sans-Serif" font-size="10.00">Cpl/Text/format.h</text>
</a>
</g>
</g>
<!-- Node41&#45;&gt;Node167 -->
<g id="edge48" class="edge"><title>Node41&#45;&gt;Node167</title>
<path fill="none" stroke="midnightblue" d="M1289.5,-234.983C1489.79,-210.852 1543.1,-222.866 1739.5,-199 1742.38,-198.65 1745.34,-198.258 1748.33,-197.839"/>
<polygon fill="midnightblue" stroke="midnightblue" points="1289.04,-231.512 1279.54,-236.198 1289.89,-238.461 1289.04,-231.512"/>
</g>
<!-- Node168 -->
<g id="node43" class="node"><title>Node168</title>
<g id="a_node43"><a xlink:href="_guid_8h.html" target="_top" xlink:title=" ">
<polygon fill="white" stroke="black" points="1532,-179.5 1532,-198.5 1619,-198.5 1619,-179.5 1532,-179.5"/>
<text text-anchor="middle" x="1575.5" y="-186.5" font-family="Helvetica,sans-Serif" font-size="10.00">Cpl/Type/Guid.h</text>
</a>
</g>
</g>
<!-- Node41&#45;&gt;Node168 -->
<g id="edge51" class="edge"><title>Node41&#45;&gt;Node168</title>
<path fill="none" stroke="midnightblue" d="M1289.63,-234.838C1394.51,-218.161 1422.37,-215.496 1523.5,-199 1526.21,-198.558 1529,-198.095 1531.82,-197.624"/>
<polygon fill="midnightblue" stroke="midnightblue" points="1288.9,-231.41 1279.57,-236.442 1290,-238.323 1288.9,-231.41"/>
</g>
<!-- Node169 -->
<g id="node44" class="node"><title>Node169</title>
<g id="a_node44"><a xlink:href="_tx_8h.html" target="_top" xlink:title=" ">
<polygon fill="white" stroke="red" points="1637,-179.5 1637,-198.5 1730,-198.5 1730,-179.5 1637,-179.5"/>
<text text-anchor="middle" x="1683.5" y="-186.5" font-family="Helvetica,sans-Serif" font-size="10.00">Driver/TPipe/Tx.h</text>
</a>
</g>
</g>
<!-- Node41&#45;&gt;Node169 -->
<g id="edge52" class="edge"><title>Node41&#45;&gt;Node169</title>
<path fill="none" stroke="midnightblue" d="M1289.67,-234.917C1440.79,-214.694 1481.14,-218.842 1628.5,-199 1631.18,-198.638 1633.94,-198.248 1636.72,-197.84"/>
<polygon fill="midnightblue" stroke="midnightblue" points="1288.99,-231.477 1279.55,-236.285 1289.93,-238.414 1288.99,-231.477"/>
</g>
<!-- Node77 -->
<g id="node12" class="node"><title>Node77</title>
<g id="a_node12"><a xlink:href="_bit_array16_8h.html" target="_top" xlink:title=" ">
<polygon fill="white" stroke="black" points="1733.5,-67.5 1733.5,-86.5 1855.5,-86.5 1855.5,-67.5 1733.5,-67.5"/>
<text text-anchor="middle" x="1794.5" y="-74.5" font-family="Helvetica,sans-Serif" font-size="10.00">Cpl/Dm/Mp/BitArray16.h</text>
</a>
</g>
</g>
<!-- Node76&#45;&gt;Node77 -->
<g id="edge12" class="edge"><title>Node76&#45;&gt;Node77</title>
<path fill="none" stroke="midnightblue" d="M2138.54,-123.202C2060.16,-112.904 1931.44,-95.9925 1855.65,-86.0345"/>
<polygon fill="midnightblue" stroke="midnightblue" points="2138.41,-126.716 2148.78,-124.548 2139.32,-119.775 2138.41,-126.716"/>
</g>
<!-- Node78 -->
<g id="node13" class="node"><title>Node78</title>
<g id="a_node13"><a xlink:href="_double_8h.html" target="_top" xlink:title=" ">
<polygon fill="white" stroke="black" points="2110,-67.5 2110,-86.5 2217,-86.5 2217,-67.5 2110,-67.5"/>
<text text-anchor="middle" x="2163.5" y="-74.5" font-family="Helvetica,sans-Serif" font-size="10.00">Cpl/Dm/Mp/Double.h</text>
</a>
</g>
</g>
<!-- Node76&#45;&gt;Node78 -->
<g id="edge13" class="edge"><title>Node76&#45;&gt;Node78</title>
<path fill="none" stroke="midnightblue" d="M2192.39,-115.144C2185.07,-105.736 2176.26,-94.4046 2170.31,-86.7511"/>
<polygon fill="midnightblue" stroke="midnightblue" points="2189.66,-117.338 2198.56,-123.083 2195.19,-113.041 2189.66,-117.338"/>
</g>
<!-- Node79 -->
<g id="node14" class="node"><title>Node79</title>
<g id="a_node14"><a xlink:href="_float_8h.html" target="_top" xlink:title=" ">
<polygon fill="white" stroke="black" points="2235.5,-67.5 2235.5,-86.5 2333.5,-86.5 2333.5,-67.5 2235.5,-67.5"/>
<text text-anchor="middle" x="2284.5" y="-74.5" font-family="Helvetica,sans-Serif" font-size="10.00">Cpl/Dm/Mp/Float.h</text>
</a>
</g>
</g>
<!-- Node76&#45;&gt;Node79 -->
<g id="edge14" class="edge"><title>Node76&#45;&gt;Node79</title>
<path fill="none" stroke="midnightblue" d="M2226.53,-117.622C2240.97,-107.757 2259.64,-94.9919 2271.84,-86.6545"/>
<polygon fill="midnightblue" stroke="midnightblue" points="2224.47,-114.791 2218.19,-123.324 2228.42,-120.57 2224.47,-114.791"/>
</g>
<!-- Node80 -->
<g id="node23" class="node"><title>Node80</title>
<g id="a_node23"><a xlink:href="_int32_8h.html" target="_top" xlink:title=" ">
<polygon fill="white" stroke="black" points="2565.5,-67.5 2565.5,-86.5 2663.5,-86.5 2663.5,-67.5 2565.5,-67.5"/>
<text text-anchor="middle" x="2614.5" y="-74.5" font-family="Helvetica,sans-Serif" font-size="10.00">Cpl/Dm/Mp/Int32.h</text>
</a>
</g>
</g>
<!-- Node76&#45;&gt;Node80 -->
<g id="edge23" class="edge"><title>Node76&#45;&gt;Node80</title>
<path fill="none" stroke="midnightblue" d="M2272.2,-123.981C2342.86,-115.362 2457.65,-101.004 2556.5,-87 2559.43,-86.5855 2562.43,-86.1494 2565.47,-85.702"/>
<polygon fill="midnightblue" stroke="midnightblue" points="2271.6,-120.528 2262.1,-125.211 2272.45,-127.477 2271.6,-120.528"/>
</g>
<!-- Node81 -->
<g id="node24" class="node"><title>Node81</title>
<g id="a_node24"><a xlink:href="_int64_8h.html" target="_top" xlink:title=" ">
<polygon fill="white" stroke="black" points="2681.5,-67.5 2681.5,-86.5 2779.5,-86.5 2779.5,-67.5 2681.5,-67.5"/>
<text text-anchor="middle" x="2730.5" y="-74.5" font-family="Helvetica,sans-Serif" font-size="10.00">Cpl/Dm/Mp/Int64.h</text>
</a>
</g>
</g>
<!-- Node76&#45;&gt;Node81 -->
<g id="edge24" class="edge"><title>Node76&#45;&gt;Node81</title>
<path fill="none" stroke="midnightblue" d="M2272.19,-126.795C2362.93,-119.435 2530.29,-104.87 2672.5,-87 2675.43,-86.6316 2678.44,-86.2311 2681.48,-85.8106"/>
<polygon fill="midnightblue" stroke="midnightblue" points="2271.73,-123.321 2262.05,-127.614 2272.3,-130.298 2271.73,-123.321"/>
</g>
<!-- Node82 -->
<g id="node25" class="node"><title>Node82</title>
<g id="a_node25"><a xlink:href="_uint32_8h.html" target="_top" xlink:title=" ">
<polygon fill="white" stroke="black" points="2443.5,-67.5 2443.5,-86.5 2547.5,-86.5 2547.5,-67.5 2443.5,-67.5"/>
<text text-anchor="middle" x="2495.5" y="-74.5" font-family="Helvetica,sans-Serif" font-size="10.00">Cpl/Dm/Mp/Uint32.h</text>
</a>
</g>
</g>
<!-- Node76&#45;&gt;Node82 -->
<g id="edge25" class="edge"><title>Node76&#45;&gt;Node82</title>
<path fill="none" stroke="midnightblue" d="M2261.35,-121.601C2316.15,-111.395 2398.73,-96.0189 2449.76,-86.5164"/>
<polygon fill="midnightblue" stroke="midnightblue" points="2260.64,-118.172 2251.45,-123.444 2261.92,-125.054 2260.64,-118.172"/>
</g>
<!-- Node85 -->
<g id="node28" class="node"><title>Node85</title>
<g id="a_node28"><a xlink:href="_uint64_8h.html" target="_top" xlink:title=" ">
<polygon fill="white" stroke="red" points="1873.5,-67.5 1873.5,-86.5 1977.5,-86.5 1977.5,-67.5 1873.5,-67.5"/>
<text text-anchor="middle" x="1925.5" y="-74.5" font-family="Helvetica,sans-Serif" font-size="10.00">Cpl/Dm/Mp/Uint64.h</text>
</a>
</g>
</g>
<!-- Node76&#45;&gt;Node85 -->
<g id="edge29" class="edge"><title>Node76&#45;&gt;Node85</title>
<path fill="none" stroke="midnightblue" d="M2151.25,-121.537C2098.33,-111.332 2018.83,-95.9992 1969.66,-86.5164"/>
<polygon fill="midnightblue" stroke="midnightblue" points="2150.65,-124.986 2161.13,-123.444 2151.98,-118.113 2150.65,-124.986"/>
</g>
<!-- Node87 -->
<g id="node29" class="node"><title>Node87</title>
<g id="a_node29"><a xlink:href="_void_8h.html" target="_top" xlink:title=" ">
<polygon fill="white" stroke="black" points="1995.5,-67.5 1995.5,-86.5 2091.5,-86.5 2091.5,-67.5 1995.5,-67.5"/>
<text text-anchor="middle" x="2043.5" y="-74.5" font-family="Helvetica,sans-Serif" font-size="10.00">Cpl/Dm/Mp/Void.h</text>
</a>
</g>
</g>
<!-- Node76&#45;&gt;Node87 -->
<g id="edge30" class="edge"><title>Node76&#45;&gt;Node87</title>
<path fill="none" stroke="midnightblue" d="M2170.02,-120.172C2139.51,-110.004 2096.26,-95.5852 2069.05,-86.5164"/>
<polygon fill="midnightblue" stroke="midnightblue" points="2169.24,-123.602 2179.83,-123.444 2171.45,-116.961 2169.24,-123.602"/>
</g>
<!-- Node49 -->
<g id="node15" class="node"><title>Node49</title>
<g id="a_node15"><a xlink:href="_control_8h.html" target="_top" xlink:title=" ">
<polygon fill="white" stroke="red" points="1547,-6 1547,-25 1684,-25 1684,-6 1547,-6"/>
<text text-anchor="middle" x="1615.5" y="-13" font-family="Helvetica,sans-Serif" font-size="10.00">Storm/Component/Control.h</text>
</a>
</g>
</g>
<!-- Node79&#45;&gt;Node49 -->
<g id="edge15" class="edge"><title>Node79&#45;&gt;Node49</title>
<path fill="none" stroke="midnightblue" d="M2225.55,-66.9961C1988.81,-41.309 1925.84,-60.3406 1693.5,-31 1681.34,-29.4641 1668.2,-27.2436 1656.25,-25.0002"/>
<polygon fill="midnightblue" stroke="midnightblue" points="2225.17,-70.4756 2235.49,-68.0903 2225.93,-63.5176 2225.17,-70.4756"/>
</g>
<!-- Node58 -->
<g id="node16" class="node"><title>Node58</title>
<g id="a_node16"><a xlink:href="_fan_control_8h.html" target="_top" xlink:title=" ">
<polygon fill="white" stroke="red" points="1702.5,-6 1702.5,-25 1856.5,-25 1856.5,-6 1702.5,-6"/>
<text text-anchor="middle" x="1779.5" y="-13" font-family="Helvetica,sans-Serif" font-size="10.00">Storm/Component/FanControl.h</text>
</a>
</g>
</g>
<!-- Node79&#45;&gt;Node58 -->
<g id="edge16" class="edge"><title>Node79&#45;&gt;Node58</title>
<path fill="none" stroke="midnightblue" d="M2225.24,-66.9079C2064.81,-46.8562 2022.03,-51.9768 1865.5,-31 1852.89,-29.3107 1839.3,-27.1688 1826.73,-25.0533"/>
<polygon fill="midnightblue" stroke="midnightblue" points="2225.12,-70.4197 2235.48,-68.2009 2226,-63.4749 2225.12,-70.4197"/>
</g>
<!-- Node59 -->
<g id="node17" class="node"><title>Node59</title>
<g id="a_node17"><a xlink:href="_component_2_hvac_relay_outputs_8h.html" target="_top" xlink:title=" ">
<polygon fill="white" stroke="red" points="1874.5,-0.5 1874.5,-30.5 2020.5,-30.5 2020.5,-0.5 1874.5,-0.5"/>
<text text-anchor="start" x="1882.5" y="-18.5" font-family="Helvetica,sans-Serif" font-size="10.00">Storm/Component/HvacRelay</text>
<text text-anchor="middle" x="1947.5" y="-7.5" font-family="Helvetica,sans-Serif" font-size="10.00">Outputs.h</text>
</a>
</g>
</g>
<!-- Node79&#45;&gt;Node59 -->
<g id="edge17" class="edge"><title>Node79&#45;&gt;Node59</title>
<path fill="none" stroke="midnightblue" d="M2226.11,-65.7011C2174.42,-56.5839 2096.94,-42.9136 2029.5,-31 2026.65,-30.497 2023.75,-29.9841 2020.82,-29.466"/>
<polygon fill="midnightblue" stroke="midnightblue" points="2225.63,-69.1715 2236.09,-67.4619 2226.85,-62.2779 2225.63,-69.1715"/>
</g>
<!-- Node60 -->
<g id="node18" class="node"><title>Node60</title>
<g id="a_node18"><a xlink:href="_idt_selection_8h.html" target="_top" xlink:title=" ">
<polygon fill="white" stroke="red" points="2038.5,-6 2038.5,-25 2196.5,-25 2196.5,-6 2038.5,-6"/>
<text text-anchor="middle" x="2117.5" y="-13" font-family="Helvetica,sans-Serif" font-size="10.00">Storm/Component/IdtSelection.h</text>
</a>
</g>
</g>
<!-- Node79&#45;&gt;Node60 -->
<g id="edge18" class="edge"><title>Node79&#45;&gt;Node60</title>
<path fill="none" stroke="midnightblue" d="M2251.05,-64.0828C2218.59,-52.517 2170.13,-35.2524 2141.38,-25.0091"/>
<polygon fill="midnightblue" stroke="midnightblue" points="2249.98,-67.4158 2260.57,-67.4751 2252.33,-60.8218 2249.98,-67.4158"/>
</g>
<!-- Node61 -->
<g id="node19" class="node"><title>Node61</title>
<g id="a_node19"><a xlink:href="_component_2_operating_mode_8h.html" target="_top" xlink:title=" ">
<polygon fill="white" stroke="red" points="2214.5,-0.5 2214.5,-30.5 2354.5,-30.5 2354.5,-0.5 2214.5,-0.5"/>
<text text-anchor="start" x="2222.5" y="-18.5" font-family="Helvetica,sans-Serif" font-size="10.00">Storm/Component/Operating</text>
<text text-anchor="middle" x="2284.5" y="-7.5" font-family="Helvetica,sans-Serif" font-size="10.00">Mode.h</text>
</a>
</g>
</g>
<!-- Node79&#45;&gt;Node61 -->
<g id="edge19" class="edge"><title>Node79&#45;&gt;Node61</title>
<path fill="none" stroke="midnightblue" d="M2284.5,-57.2349C2284.5,-48.5864 2284.5,-38.4969 2284.5,-30.523"/>
<polygon fill="midnightblue" stroke="midnightblue" points="2281,-57.4751 2284.5,-67.4751 2288,-57.4751 2281,-57.4751"/>
</g>
<!-- Node62 -->
<g id="node20" class="node"><title>Node62</title>
<g id="a_node20"><a xlink:href="_pi_8h.html" target="_top" xlink:title=" ">
<polygon fill="white" stroke="red" points="2372.5,-6 2372.5,-25 2488.5,-25 2488.5,-6 2372.5,-6"/>
<text text-anchor="middle" x="2430.5" y="-13" font-family="Helvetica,sans-Serif" font-size="10.00">Storm/Component/Pi.h</text>
</a>
</g>
</g>
<!-- Node79&#45;&gt;Node62 -->
<g id="edge20" class="edge"><title>Node79&#45;&gt;Node62</title>
<path fill="none" stroke="midnightblue" d="M2314.85,-63.6313C2343.21,-52.0717 2384.81,-35.12 2409.62,-25.0091"/>
<polygon fill="midnightblue" stroke="midnightblue" points="2313.36,-60.4599 2305.42,-67.4751 2316,-66.9422 2313.36,-60.4599"/>
</g>
<!-- Node63 -->
<g id="node21" class="node"><title>Node63</title>
<g id="a_node21"><a xlink:href="_pi_pre_process_8h.html" target="_top" xlink:title=" ">
<polygon fill="white" stroke="red" points="1362,-6 1362,-25 1529,-25 1529,-6 1362,-6"/>
<text text-anchor="middle" x="1445.5" y="-13" font-family="Helvetica,sans-Serif" font-size="10.00">Storm/Component/PiPreProcess.h</text>
</a>
</g>
</g>
<!-- Node79&#45;&gt;Node63 -->
<g id="edge21" class="edge"><title>Node79&#45;&gt;Node63</title>
<path fill="none" stroke="midnightblue" d="M2225.47,-67.0092C1920.21,-36.06 1839.79,-62.2869 1538.5,-31 1524.03,-29.4978 1508.39,-27.2876 1494.13,-25.0432"/>
<polygon fill="midnightblue" stroke="midnightblue" points="2225.19,-70.4987 2235.5,-68.0378 2225.91,-63.5353 2225.19,-70.4987"/>
</g>
<!-- Node64 -->
<g id="node22" class="node"><title>Node64</title>
<g id="a_node22"><a xlink:href="_model_points_8h.html" target="_top" xlink:title="This file defines all of the Model Points for the Thermostat Application.">
<polygon fill="white" stroke="red" points="2507,-6 2507,-25 2668,-25 2668,-6 2507,-6"/>
<text text-anchor="middle" x="2587.5" y="-13" font-family="Helvetica,sans-Serif" font-size="10.00">Storm/Thermostat/ModelPoints.h</text>
</a>
</g>
</g>
<!-- Node79&#45;&gt;Node64 -->
<g id="edge22" class="edge"><title>Node79&#45;&gt;Node64</title>
<path fill="none" stroke="midnightblue" d="M2337.74,-65.5456C2396.44,-54.0184 2489.76,-35.6939 2544.17,-25.0091"/>
<polygon fill="midnightblue" stroke="midnightblue" points="2337.05,-62.1137 2327.91,-67.4751 2338.4,-68.9825 2337.05,-62.1137"/>
</g>
<!-- Node82&#45;&gt;Node64 -->
<g id="edge28" class="edge"><title>Node82&#45;&gt;Node64</title>
<path fill="none" stroke="midnightblue" d="M2517.26,-61.9295C2534.99,-50.4589 2559.46,-34.6343 2574.34,-25.0091"/>
<polygon fill="midnightblue" stroke="midnightblue" points="2515.18,-59.1055 2508.68,-67.4751 2518.98,-64.9834 2515.18,-59.1055"/>
</g>
<!-- Node83 -->
<g id="node26" class="node"><title>Node83</title>
<g id="a_node26"><a xlink:href="_ring_buffer_m_p_8h.html" target="_top" xlink:title=" ">
<polygon fill="white" stroke="red" points="2686,-6 2686,-25 2833,-25 2833,-6 2686,-6"/>
<text text-anchor="middle" x="2759.5" y="-13" font-family="Helvetica,sans-Serif" font-size="10.00">Cpl/Container/RingBufferMP.h</text>
</a>
</g>
</g>
<!-- Node82&#45;&gt;Node83 -->
<g id="edge26" class="edge"><title>Node82&#45;&gt;Node83</title>
<path fill="none" stroke="midnightblue" d="M2543.16,-65.2584C2594.37,-53.716 2674.73,-35.6056 2721.75,-25.0091"/>
<polygon fill="midnightblue" stroke="midnightblue" points="2542.31,-61.862 2533.32,-67.4751 2543.85,-68.6907 2542.31,-61.862"/>
</g>
<!-- Node72 -->
<g id="node27" class="node"><title>Node72</title>
<g id="a_node27"><a xlink:href="_air_filter_monitor_8h.html" target="_top" xlink:title=" ">
<polygon fill="white" stroke="red" points="2851.5,-0.5 2851.5,-30.5 2983.5,-30.5 2983.5,-0.5 2851.5,-0.5"/>
<text text-anchor="start" x="2859.5" y="-18.5" font-family="Helvetica,sans-Serif" font-size="10.00">Storm/Component/AirFilter</text>
<text text-anchor="middle" x="2917.5" y="-7.5" font-family="Helvetica,sans-Serif" font-size="10.00">Monitor.h</text>
</a>
</g>
</g>
<!-- Node82&#45;&gt;Node72 -->
<g id="edge27" class="edge"><title>Node82&#45;&gt;Node72</title>
<path fill="none" stroke="midnightblue" d="M2557.87,-66.8426C2685.15,-49.7124 2719.2,-50.658 2842.5,-31 2845.38,-30.5407 2848.32,-30.0532 2851.29,-29.5458"/>
<polygon fill="midnightblue" stroke="midnightblue" points="2557.17,-63.4057 2547.73,-68.2189 2558.11,-70.3421 2557.17,-63.4057"/>
</g>
<!-- Node138&#45;&gt;Node148 -->
<g id="edge35" class="edge"><title>Node138&#45;&gt;Node148</title>
<path fill="none" stroke="midnightblue" d="M431.381,-178.757C536.627,-162.387 648.561,-148.111 712.459,-140.261"/>
<polygon fill="midnightblue" stroke="midnightblue" points="430.557,-175.343 421.218,-180.347 431.639,-182.259 430.557,-175.343"/>
</g>
<!-- Node148&#45;&gt;Node149 -->
<g id="edge36" class="edge"><title>Node148&#45;&gt;Node149</title>
<path fill="none" stroke="midnightblue" d="M777.2,-114.855C784.126,-105.505 792.406,-94.3265 798.018,-86.7511"/>
<polygon fill="midnightblue" stroke="midnightblue" points="774.245,-112.964 771.105,-123.083 779.87,-117.131 774.245,-112.964"/>
</g>
<!-- Node9&#45;&gt;Node14 -->
<g id="edge40" class="edge"><title>Node9&#45;&gt;Node14</title>
<path fill="none" stroke="midnightblue" d="M973.379,-169.69C969.84,-160.589 965.728,-150.014 962.903,-142.751"/>
<polygon fill="midnightblue" stroke="midnightblue" points="970.146,-171.032 977.032,-179.083 976.67,-168.494 970.146,-171.032"/>
</g>
<!-- Node152&#45;&gt;Node76 -->
<g id="edge43" class="edge"><title>Node152&#45;&gt;Node76</title>
<path fill="none" stroke="midnightblue" d="M2235.08,-171.144C2227.59,-161.736 2218.56,-150.405 2212.47,-142.751"/>
<polygon fill="midnightblue" stroke="midnightblue" points="2232.43,-173.44 2241.4,-179.083 2237.91,-169.08 2232.43,-173.44"/>
</g>
<!-- Node167&#45;&gt;Node76 -->
<g id="edge50" class="edge"><title>Node167&#45;&gt;Node76</title>
<path fill="none" stroke="midnightblue" d="M1850.67,-179.536C1851.96,-179.354 1853.24,-179.175 1854.5,-179 1958.25,-164.57 2079.5,-149.4 2148.91,-140.877"/>
<polygon fill="midnightblue" stroke="midnightblue" points="1850.07,-176.087 1840.67,-180.972 1851.07,-183.015 1850.07,-176.087"/>
</g>
<!-- Node167&#45;&gt;Node77 -->
<g id="edge49" class="edge"><title>Node167&#45;&gt;Node77</title>
<path fill="none" stroke="midnightblue" d="M1794.5,-169.348C1794.5,-145.254 1794.5,-104.308 1794.5,-86.5914"/>
<polygon fill="midnightblue" stroke="midnightblue" points="1791,-169.368 1794.5,-179.368 1798,-169.369 1791,-169.368"/>
</g>
</g>
</svg>
