<?xml version="1.0" encoding="UTF-8" standalone="no"?>
<!DOCTYPE svg PUBLIC "-//W3C//DTD SVG 1.1//EN"
 "http://www.w3.org/Graphics/SVG/1.1/DTD/svg11.dtd">
<!-- Generated by graphviz version 2.38.0 (20140413.2041)
 -->
<!-- Title: Cpl/Dm/Mp/Float.h Pages: 1 -->
<svg width="1820pt" height="352pt"
 viewBox="0.00 0.00 1820.30 352.00" xmlns="http://www.w3.org/2000/svg" xmlns:xlink="http://www.w3.org/1999/xlink">
<g id="graph0" class="graph" transform="scale(1 1) rotate(0) translate(4 348)">
<title>Cpl/Dm/Mp/Float.h</title>
<polygon fill="white" stroke="none" points="-4,4 -4,-348 1816.3,-348 1816.3,4 -4,4"/>
<!-- Node1 -->
<g id="node1" class="node"><title>Node1</title>
<g id="a_node1"><a xlink:title=" ">
<polygon fill="#bfbfbf" stroke="black" points="978.803,-324.5 978.803,-343.5 1076.8,-343.5 1076.8,-324.5 978.803,-324.5"/>
<text text-anchor="middle" x="1027.8" y="-331.5" font-family="Helvetica,sans-Serif" font-size="10.00">Cpl/Dm/Mp/Float.h</text>
</a>
</g>
</g>
<!-- Node2 -->
<g id="node2" class="node"><title>Node2</title>
<g id="a_node2"><a xlink:href="_control_8h.html" target="_top" xlink:title=" ">
<polygon fill="white" stroke="black" points="207.303,-263 207.303,-282 344.303,-282 344.303,-263 207.303,-263"/>
<text text-anchor="middle" x="275.803" y="-270" font-family="Helvetica,sans-Serif" font-size="10.00">Storm/Component/Control.h</text>
</a>
</g>
</g>
<!-- Node1&#45;&gt;Node2 -->
<g id="edge1" class="edge"><title>Node1&#45;&gt;Node2</title>
<path fill="none" stroke="midnightblue" d="M968.414,-328.301C830.777,-317.411 490.604,-290.496 344.396,-278.927"/>
<polygon fill="midnightblue" stroke="midnightblue" points="968.507,-331.819 978.752,-329.119 969.059,-324.841 968.507,-331.819"/>
</g>
<!-- Node11 -->
<g id="node11" class="node"><title>Node11</title>
<g id="a_node11"><a xlink:href="_fan_control_8h.html" target="_top" xlink:title=" ">
<polygon fill="white" stroke="black" points="784.803,-62 784.803,-81 938.803,-81 938.803,-62 784.803,-62"/>
<text text-anchor="middle" x="861.803" y="-69" font-family="Helvetica,sans-Serif" font-size="10.00">Storm/Component/FanControl.h</text>
</a>
</g>
</g>
<!-- Node1&#45;&gt;Node11 -->
<g id="edge17" class="edge"><title>Node1&#45;&gt;Node11</title>
<path fill="none" stroke="midnightblue" d="M1010.73,-317.534C979.844,-288.577 914.772,-222.858 880.803,-154 868.59,-129.244 864.04,-96.3415 862.505,-81.0217"/>
<polygon fill="midnightblue" stroke="midnightblue" points="1008.42,-320.17 1018.14,-324.392 1013.18,-315.032 1008.42,-320.17"/>
</g>
<!-- Node12 -->
<g id="node12" class="node"><title>Node12</title>
<g id="a_node12"><a xlink:href="_component_2_hvac_relay_outputs_8h.html" target="_top" xlink:title=" ">
<polygon fill="white" stroke="black" points="889.803,-123.5 889.803,-153.5 1035.8,-153.5 1035.8,-123.5 889.803,-123.5"/>
<text text-anchor="start" x="897.803" y="-141.5" font-family="Helvetica,sans-Serif" font-size="10.00">Storm/Component/HvacRelay</text>
<text text-anchor="middle" x="962.803" y="-130.5" font-family="Helvetica,sans-Serif" font-size="10.00">Outputs.h</text>
</a>
</g>
</g>
<!-- Node1&#45;&gt;Node12 -->
<g id="edge19" class="edge"><title>Node1&#45;&gt;Node12</title>
<path fill="none" stroke="midnightblue" d="M1021.62,-314.603C1008.71,-276.161 979.108,-188.038 967.549,-153.63"/>
<polygon fill="midnightblue" stroke="midnightblue" points="1018.42,-316.071 1024.93,-324.436 1025.06,-313.842 1018.42,-316.071"/>
</g>
<!-- Node13 -->
<g id="node13" class="node"><title>Node13</title>
<g id="a_node13"><a xlink:href="_idt_selection_8h.html" target="_top" xlink:title=" ">
<polygon fill="white" stroke="black" points="994.803,-62 994.803,-81 1152.8,-81 1152.8,-62 994.803,-62"/>
<text text-anchor="middle" x="1073.8" y="-69" font-family="Helvetica,sans-Serif" font-size="10.00">Storm/Component/IdtSelection.h</text>
</a>
</g>
</g>
<!-- Node1&#45;&gt;Node13 -->
<g id="edge21" class="edge"><title>Node1&#45;&gt;Node13</title>
<path fill="none" stroke="midnightblue" d="M1031.12,-314.216C1040.29,-262.275 1065.75,-118.115 1072.27,-81.1999"/>
<polygon fill="midnightblue" stroke="midnightblue" points="1027.63,-313.876 1029.33,-324.333 1034.52,-315.094 1027.63,-313.876"/>
</g>
<!-- Node14 -->
<g id="node14" class="node"><title>Node14</title>
<g id="a_node14"><a xlink:href="_component_2_operating_mode_8h.html" target="_top" xlink:title=" ">
<polygon fill="white" stroke="black" points="1084.8,-257.5 1084.8,-287.5 1224.8,-287.5 1224.8,-257.5 1084.8,-257.5"/>
<text text-anchor="start" x="1092.8" y="-275.5" font-family="Helvetica,sans-Serif" font-size="10.00">Storm/Component/Operating</text>
<text text-anchor="middle" x="1154.8" y="-264.5" font-family="Helvetica,sans-Serif" font-size="10.00">Mode.h</text>
</a>
</g>
</g>
<!-- Node1&#45;&gt;Node14 -->
<g id="edge23" class="edge"><title>Node1&#45;&gt;Node14</title>
<path fill="none" stroke="midnightblue" d="M1055.12,-320.2C1075.65,-310.585 1103.74,-297.423 1124.87,-287.523"/>
<polygon fill="midnightblue" stroke="midnightblue" points="1053.57,-317.063 1046,-324.475 1056.54,-323.402 1053.57,-317.063"/>
</g>
<!-- Node15 -->
<g id="node15" class="node"><title>Node15</title>
<g id="a_node15"><a xlink:href="_pi_8h.html" target="_top" xlink:title=" ">
<polygon fill="white" stroke="black" points="1242.8,-263 1242.8,-282 1358.8,-282 1358.8,-263 1242.8,-263"/>
<text text-anchor="middle" x="1300.8" y="-270" font-family="Helvetica,sans-Serif" font-size="10.00">Storm/Component/Pi.h</text>
</a>
</g>
</g>
<!-- Node1&#45;&gt;Node15 -->
<g id="edge25" class="edge"><title>Node1&#45;&gt;Node15</title>
<path fill="none" stroke="midnightblue" d="M1076.76,-322.33C1129.7,-310.792 1213.04,-292.628 1261.76,-282.009"/>
<polygon fill="midnightblue" stroke="midnightblue" points="1075.94,-318.926 1066.92,-324.475 1077.43,-325.765 1075.94,-318.926"/>
</g>
<!-- Node16 -->
<g id="node16" class="node"><title>Node16</title>
<g id="a_node16"><a xlink:href="_pi_pre_process_8h.html" target="_top" xlink:title=" ">
<polygon fill="white" stroke="black" points="509.303,-129 509.303,-148 676.303,-148 676.303,-129 509.303,-129"/>
<text text-anchor="middle" x="592.803" y="-136" font-family="Helvetica,sans-Serif" font-size="10.00">Storm/Component/PiPreProcess.h</text>
</a>
</g>
</g>
<!-- Node1&#45;&gt;Node16 -->
<g id="edge27" class="edge"><title>Node1&#45;&gt;Node16</title>
<path fill="none" stroke="midnightblue" d="M968.229,-322.515C932.513,-315.156 886.64,-303.79 847.803,-288 747.903,-247.384 639.881,-173.158 604.638,-148.056"/>
<polygon fill="midnightblue" stroke="midnightblue" points="967.999,-326.039 978.493,-324.578 969.378,-319.176 967.999,-326.039"/>
</g>
<!-- Node17 -->
<g id="node17" class="node"><title>Node17</title>
<g id="a_node17"><a xlink:href="_model_points_8h.html" target="_top" xlink:title="This file defines all of the Model Points for the Thermostat Application.">
<polygon fill="white" stroke="black" points="1377.3,-263 1377.3,-282 1538.3,-282 1538.3,-263 1377.3,-263"/>
<text text-anchor="middle" x="1457.8" y="-270" font-family="Helvetica,sans-Serif" font-size="10.00">Storm/Thermostat/ModelPoints.h</text>
</a>
</g>
</g>
<!-- Node1&#45;&gt;Node17 -->
<g id="edge31" class="edge"><title>Node1&#45;&gt;Node17</title>
<path fill="none" stroke="midnightblue" d="M1086.92,-325.688C1154.8,-317.173 1269.46,-302.427 1367.8,-288 1380.33,-286.162 1393.82,-284.057 1406.44,-282.031"/>
<polygon fill="midnightblue" stroke="midnightblue" points="1086.34,-322.234 1076.85,-326.949 1087.21,-329.18 1086.34,-322.234"/>
</g>
<!-- Node3 -->
<g id="node3" class="node"><title>Node3</title>
<g id="a_node3"><a xlink:href="_cooling_8h.html" target="_top" xlink:title=" ">
<polygon fill="white" stroke="black" points="20.3028,-123.5 20.3028,-153.5 165.303,-153.5 165.303,-123.5 20.3028,-123.5"/>
<text text-anchor="start" x="28.3028" y="-141.5" font-family="Helvetica,sans-Serif" font-size="10.00">Storm/Component/Equipment</text>
<text text-anchor="middle" x="92.8028" y="-130.5" font-family="Helvetica,sans-Serif" font-size="10.00">/Cooling.h</text>
</a>
</g>
</g>
<!-- Node2&#45;&gt;Node3 -->
<g id="edge2" class="edge"><title>Node2&#45;&gt;Node3</title>
<path fill="none" stroke="midnightblue" d="M223.656,-260.259C197.264,-252.574 165.995,-240.208 142.803,-221 120.558,-202.577 105.453,-171.547 98.0594,-153.558"/>
<polygon fill="midnightblue" stroke="midnightblue" points="222.934,-263.691 233.505,-262.98 224.798,-256.944 222.934,-263.691"/>
</g>
<!-- Node4 -->
<g id="node4" class="node"><title>Node4</title>
<g id="a_node4"><a xlink:href="_algorithm_8h.html" target="_top" xlink:title=" ">
<polygon fill="white" stroke="black" points="568.803,-0.5 568.803,-19.5 716.803,-19.5 716.803,-0.5 568.803,-0.5"/>
<text text-anchor="middle" x="642.803" y="-7.5" font-family="Helvetica,sans-Serif" font-size="10.00">Storm/Thermostat/Algorithm.h</text>
</a>
</g>
</g>
<!-- Node2&#45;&gt;Node4 -->
<g id="edge16" class="edge"><title>Node2&#45;&gt;Node4</title>
<path fill="none" stroke="midnightblue" d="M206.872,-261.176C111.991,-243.824 -41.5244,-202.625 10.8028,-123 71.2736,-30.9827 415.016,-14.2896 568.637,-11.4612"/>
<polygon fill="midnightblue" stroke="midnightblue" points="206.539,-264.671 216.997,-262.978 207.765,-257.78 206.539,-264.671"/>
</g>
<!-- Node5 -->
<g id="node5" class="node"><title>Node5</title>
<g id="a_node5"><a xlink:href="_indoor_heating_8h.html" target="_top" xlink:title=" ">
<polygon fill="white" stroke="black" points="183.303,-123.5 183.303,-153.5 328.303,-153.5 328.303,-123.5 183.303,-123.5"/>
<text text-anchor="start" x="191.303" y="-141.5" font-family="Helvetica,sans-Serif" font-size="10.00">Storm/Component/Equipment</text>
<text text-anchor="middle" x="255.803" y="-130.5" font-family="Helvetica,sans-Serif" font-size="10.00">/IndoorHeating.h</text>
</a>
</g>
</g>
<!-- Node2&#45;&gt;Node5 -->
<g id="edge4" class="edge"><title>Node2&#45;&gt;Node5</title>
<path fill="none" stroke="midnightblue" d="M289.471,-254.696C301.205,-238.118 314.9,-212.119 305.803,-190 299.749,-175.281 287.1,-162.573 276.04,-153.587"/>
<polygon fill="midnightblue" stroke="midnightblue" points="286.545,-252.763 283.311,-262.853 292.131,-256.982 286.545,-252.763"/>
</g>
<!-- Node6 -->
<g id="node6" class="node"><title>Node6</title>
<g id="a_node6"><a xlink:href="_off_8h.html" target="_top" xlink:title=" ">
<polygon fill="white" stroke="black" points="621.303,-56.5 621.303,-86.5 766.303,-86.5 766.303,-56.5 621.303,-56.5"/>
<text text-anchor="start" x="629.303" y="-74.5" font-family="Helvetica,sans-Serif" font-size="10.00">Storm/Component/Equipment</text>
<text text-anchor="middle" x="693.803" y="-63.5" font-family="Helvetica,sans-Serif" font-size="10.00">/Off.h</text>
</a>
</g>
</g>
<!-- Node2&#45;&gt;Node6 -->
<g id="edge6" class="edge"><title>Node2&#45;&gt;Node6</title>
<path fill="none" stroke="midnightblue" d="M343.24,-261.345C447.607,-244.178 640.846,-206.133 684.803,-154 700.678,-135.172 699.207,-104.572 696.584,-86.7087"/>
<polygon fill="midnightblue" stroke="midnightblue" points="342.427,-257.931 333.118,-262.99 343.55,-264.84 342.427,-257.931"/>
</g>
<!-- Node7 -->
<g id="node7" class="node"><title>Node7</title>
<g id="a_node7"><a xlink:href="_stage_api_8h.html" target="_top" xlink:title=" ">
<polygon fill="white" stroke="black" points="152.303,-190.5 152.303,-220.5 297.303,-220.5 297.303,-190.5 152.303,-190.5"/>
<text text-anchor="start" x="160.303" y="-208.5" font-family="Helvetica,sans-Serif" font-size="10.00">Storm/Component/Equipment</text>
<text text-anchor="middle" x="224.803" y="-197.5" font-family="Helvetica,sans-Serif" font-size="10.00">/StageApi.h</text>
</a>
</g>
</g>
<!-- Node2&#45;&gt;Node7 -->
<g id="edge8" class="edge"><title>Node2&#45;&gt;Node7</title>
<path fill="none" stroke="midnightblue" d="M262.6,-254.673C254.3,-244.094 243.714,-230.602 235.857,-220.589"/>
<polygon fill="midnightblue" stroke="midnightblue" points="259.998,-257.027 268.925,-262.734 265.505,-252.706 259.998,-257.027"/>
</g>
<!-- Node3&#45;&gt;Node4 -->
<g id="edge3" class="edge"><title>Node3&#45;&gt;Node4</title>
<path fill="none" stroke="midnightblue" d="M119.639,-117.562C147.067,-98.3172 191.644,-70.0844 234.803,-56 347.262,-19.2998 485.428,-11.274 568.676,-10.1668"/>
<polygon fill="midnightblue" stroke="midnightblue" points="117.471,-114.81 111.36,-123.466 121.535,-120.51 117.471,-114.81"/>
</g>
<!-- Node5&#45;&gt;Node4 -->
<g id="edge5" class="edge"><title>Node5&#45;&gt;Node4</title>
<path fill="none" stroke="midnightblue" d="M244.692,-114.177C237.89,-96.1029 232.884,-71.59 246.803,-56 267.799,-32.483 459.601,-19.6432 568.37,-14.197"/>
<polygon fill="midnightblue" stroke="midnightblue" points="241.479,-115.566 248.547,-123.458 247.943,-112.881 241.479,-115.566"/>
</g>
<!-- Node6&#45;&gt;Node4 -->
<g id="edge7" class="edge"><title>Node6&#45;&gt;Node4</title>
<path fill="none" stroke="midnightblue" d="M675.12,-48.7037C666.491,-38.636 656.737,-27.2567 650.224,-19.6578"/>
<polygon fill="midnightblue" stroke="midnightblue" points="672.551,-51.0845 681.717,-56.3993 677.866,-46.529 672.551,-51.0845"/>
</g>
<!-- Node7&#45;&gt;Node3 -->
<g id="edge9" class="edge"><title>Node7&#45;&gt;Node3</title>
<path fill="none" stroke="midnightblue" d="M186.936,-185.853C166.065,-175.576 140.577,-163.025 121.389,-153.577"/>
<polygon fill="midnightblue" stroke="midnightblue" points="185.643,-189.118 196.161,-190.396 188.736,-182.838 185.643,-189.118"/>
</g>
<!-- Node7&#45;&gt;Node5 -->
<g id="edge10" class="edge"><title>Node7&#45;&gt;Node5</title>
<path fill="none" stroke="midnightblue" d="M235.875,-181.283C240.292,-172.022 245.233,-161.663 249.089,-153.577"/>
<polygon fill="midnightblue" stroke="midnightblue" points="232.675,-179.863 231.529,-190.396 238.993,-182.877 232.675,-179.863"/>
</g>
<!-- Node8 -->
<g id="node8" class="node"><title>Node8</title>
<g id="a_node8"><a xlink:href="_storm_2_component_2_equipment_2_stage_2_basic_8h.html" target="_top" xlink:title=" ">
<polygon fill="white" stroke="black" points="346.303,-123.5 346.303,-153.5 491.303,-153.5 491.303,-123.5 346.303,-123.5"/>
<text text-anchor="start" x="354.303" y="-141.5" font-family="Helvetica,sans-Serif" font-size="10.00">Storm/Component/Equipment</text>
<text text-anchor="middle" x="418.803" y="-130.5" font-family="Helvetica,sans-Serif" font-size="10.00">/Stage/Basic.h</text>
</a>
</g>
</g>
<!-- Node7&#45;&gt;Node8 -->
<g id="edge11" class="edge"><title>Node7&#45;&gt;Node8</title>
<path fill="none" stroke="midnightblue" d="M276.76,-187.092C308.077,-176.599 347.446,-163.408 376.79,-153.577"/>
<polygon fill="midnightblue" stroke="midnightblue" points="275.268,-183.9 266.898,-190.396 277.492,-190.538 275.268,-183.9"/>
</g>
<!-- Node9 -->
<g id="node9" class="node"><title>Node9</title>
<g id="a_node9"><a xlink:href="_basic_cooling_8h.html" target="_top" xlink:title=" ">
<polygon fill="white" stroke="black" points="256.303,-56.5 256.303,-86.5 401.303,-86.5 401.303,-56.5 256.303,-56.5"/>
<text text-anchor="start" x="264.303" y="-74.5" font-family="Helvetica,sans-Serif" font-size="10.00">Storm/Component/Equipment</text>
<text text-anchor="middle" x="328.803" y="-63.5" font-family="Helvetica,sans-Serif" font-size="10.00">/Stage/BasicCooling.h</text>
</a>
</g>
</g>
<!-- Node8&#45;&gt;Node9 -->
<g id="edge12" class="edge"><title>Node8&#45;&gt;Node9</title>
<path fill="none" stroke="midnightblue" d="M391.043,-117.451C377.197,-107.452 360.787,-95.5995 348.293,-86.5765"/>
<polygon fill="midnightblue" stroke="midnightblue" points="389.118,-120.378 399.274,-123.396 393.217,-114.704 389.118,-120.378"/>
</g>
<!-- Node10 -->
<g id="node10" class="node"><title>Node10</title>
<g id="a_node10"><a xlink:href="_basic_indoor_heat_8h.html" target="_top" xlink:title=" ">
<polygon fill="white" stroke="black" points="419.303,-56.5 419.303,-86.5 564.303,-86.5 564.303,-56.5 419.303,-56.5"/>
<text text-anchor="start" x="427.303" y="-74.5" font-family="Helvetica,sans-Serif" font-size="10.00">Storm/Component/Equipment</text>
<text text-anchor="middle" x="491.803" y="-63.5" font-family="Helvetica,sans-Serif" font-size="10.00">/Stage/BasicIndoorHeat.h</text>
</a>
</g>
</g>
<!-- Node8&#45;&gt;Node10 -->
<g id="edge14" class="edge"><title>Node8&#45;&gt;Node10</title>
<path fill="none" stroke="midnightblue" d="M442.278,-116.598C453.3,-106.783 466.147,-95.3442 475.994,-86.5765"/>
<polygon fill="midnightblue" stroke="midnightblue" points="439.784,-114.132 434.643,-123.396 444.439,-119.36 439.784,-114.132"/>
</g>
<!-- Node9&#45;&gt;Node4 -->
<g id="edge13" class="edge"><title>Node9&#45;&gt;Node4</title>
<path fill="none" stroke="midnightblue" d="M411.761,-54.7803C471.251,-43.5075 549.137,-28.7488 597.564,-19.5724"/>
<polygon fill="midnightblue" stroke="midnightblue" points="410.804,-51.3993 401.63,-56.7 412.107,-58.2769 410.804,-51.3993"/>
</g>
<!-- Node10&#45;&gt;Node4 -->
<g id="edge15" class="edge"><title>Node10&#45;&gt;Node4</title>
<path fill="none" stroke="midnightblue" d="M537.082,-52.6583C564.776,-41.7455 598.969,-28.2724 620.831,-19.6578"/>
<polygon fill="midnightblue" stroke="midnightblue" points="535.608,-49.4769 527.588,-56.3993 538.175,-55.9895 535.608,-49.4769"/>
</g>
<!-- Node11&#45;&gt;Node4 -->
<g id="edge18" class="edge"><title>Node11&#45;&gt;Node4</title>
<path fill="none" stroke="midnightblue" d="M820.662,-59.3225C778.121,-47.7645 712.637,-29.9732 674.122,-19.5091"/>
<polygon fill="midnightblue" stroke="midnightblue" points="819.858,-62.7307 830.425,-61.9751 821.693,-55.9756 819.858,-62.7307"/>
</g>
<!-- Node12&#45;&gt;Node4 -->
<g id="edge20" class="edge"><title>Node12&#45;&gt;Node4</title>
<path fill="none" stroke="midnightblue" d="M965.25,-113.22C965.656,-94.9116 962.876,-70.5472 947.803,-56 915.74,-25.0565 796.366,-15.3284 716.817,-12.3084"/>
<polygon fill="midnightblue" stroke="midnightblue" points="961.742,-113.26 964.689,-123.437 968.732,-113.643 961.742,-113.26"/>
</g>
<!-- Node13&#45;&gt;Node4 -->
<g id="edge22" class="edge"><title>Node13&#45;&gt;Node4</title>
<path fill="none" stroke="midnightblue" d="M1010.11,-60.3769C1000.3,-58.8735 990.285,-57.3703 980.803,-56 887.059,-42.4534 778.464,-28.2619 710.2,-19.5233"/>
<polygon fill="midnightblue" stroke="midnightblue" points="1009.81,-63.8719 1020.23,-61.9381 1010.88,-56.9538 1009.81,-63.8719"/>
</g>
<!-- Node14&#45;&gt;Node4 -->
<g id="edge24" class="edge"><title>Node14&#45;&gt;Node4</title>
<path fill="none" stroke="midnightblue" d="M1164.87,-248.107C1182,-204.202 1210.51,-109.109 1161.8,-56 1132.37,-23.9004 853.387,-14.6294 717.064,-12.0064"/>
<polygon fill="midnightblue" stroke="midnightblue" points="1161.62,-246.808 1161.11,-257.39 1168.11,-249.433 1161.62,-246.808"/>
</g>
<!-- Node15&#45;&gt;Node4 -->
<g id="edge26" class="edge"><title>Node15&#45;&gt;Node4</title>
<path fill="none" stroke="midnightblue" d="M1282.23,-256.134C1271.9,-246.819 1259.42,-234.21 1250.8,-221 1207.75,-154.978 1249.06,-103.013 1185.8,-56 1149.03,-28.67 856.887,-16.9326 716.986,-12.8404"/>
<polygon fill="midnightblue" stroke="midnightblue" points="1280.1,-258.922 1289.95,-262.846 1284.7,-253.641 1280.1,-258.922"/>
</g>
<!-- Node16&#45;&gt;Node4 -->
<g id="edge30" class="edge"><title>Node16&#45;&gt;Node4</title>
<path fill="none" stroke="midnightblue" d="M595.204,-118.328C597.802,-101.39 602.832,-76.2987 611.803,-56 617.862,-42.29 628.25,-28.3618 635.316,-19.7073"/>
<polygon fill="midnightblue" stroke="midnightblue" points="591.687,-118.205 593.775,-128.592 598.621,-119.17 591.687,-118.205"/>
</g>
<!-- Node16&#45;&gt;Node9 -->
<g id="edge28" class="edge"><title>Node16&#45;&gt;Node9</title>
<path fill="none" stroke="midnightblue" d="M548.035,-126.478C503.346,-115.475 434.503,-98.5246 385.905,-86.5592"/>
<polygon fill="midnightblue" stroke="midnightblue" points="547.471,-129.943 558.018,-128.936 549.145,-123.146 547.471,-129.943"/>
</g>
<!-- Node16&#45;&gt;Node10 -->
<g id="edge29" class="edge"><title>Node16&#45;&gt;Node10</title>
<path fill="none" stroke="midnightblue" d="M570.509,-123.153C553.607,-112.275 530.498,-97.4029 513.695,-86.589"/>
<polygon fill="midnightblue" stroke="midnightblue" points="568.878,-126.265 579.182,-128.734 572.667,-120.379 568.878,-126.265"/>
</g>
<!-- Node18 -->
<g id="node18" class="node"><title>Node18</title>
<g id="a_node18"><a xlink:href="_installer_record_8h_source.html" target="_top" xlink:title=" ">
<polygon fill="white" stroke="black" points="1693.3,-190.5 1693.3,-220.5 1812.3,-220.5 1812.3,-190.5 1693.3,-190.5"/>
<text text-anchor="start" x="1701.3" y="-208.5" font-family="Helvetica,sans-Serif" font-size="10.00">Storm/Thermostat/Main</text>
<text text-anchor="middle" x="1752.8" y="-197.5" font-family="Helvetica,sans-Serif" font-size="10.00">/InstallerRecord.h</text>
</a>
</g>
</g>
<!-- Node17&#45;&gt;Node18 -->
<g id="edge32" class="edge"><title>Node17&#45;&gt;Node18</title>
<path fill="none" stroke="midnightblue" d="M1506.5,-260.77C1557.67,-249.496 1638.21,-231.749 1693.16,-219.642"/>
<polygon fill="midnightblue" stroke="midnightblue" points="1505.68,-257.366 1496.67,-262.936 1507.19,-264.202 1505.68,-257.366"/>
</g>
<!-- Node19 -->
<g id="node19" class="node"><title>Node19</title>
<g id="a_node19"><a xlink:href="_run_time_record_8h_source.html" target="_top" xlink:title=" ">
<polygon fill="white" stroke="black" points="1260.3,-190.5 1260.3,-220.5 1379.3,-220.5 1379.3,-190.5 1260.3,-190.5"/>
<text text-anchor="start" x="1268.3" y="-208.5" font-family="Helvetica,sans-Serif" font-size="10.00">Storm/Thermostat/Main</text>
<text text-anchor="middle" x="1319.8" y="-197.5" font-family="Helvetica,sans-Serif" font-size="10.00">/RunTimeRecord.h</text>
</a>
</g>
</g>
<!-- Node17&#45;&gt;Node19 -->
<g id="edge33" class="edge"><title>Node17&#45;&gt;Node19</title>
<path fill="none" stroke="midnightblue" d="M1430.15,-258.474C1406.82,-247.485 1373.5,-231.791 1349.59,-220.528"/>
<polygon fill="midnightblue" stroke="midnightblue" points="1428.94,-261.774 1439.48,-262.869 1431.92,-255.441 1428.94,-261.774"/>
</g>
<!-- Node20 -->
<g id="node20" class="node"><title>Node20</title>
<g id="a_node20"><a xlink:href="_user_record_8h_source.html" target="_top" xlink:title=" ">
<polygon fill="white" stroke="black" points="1397.3,-190.5 1397.3,-220.5 1516.3,-220.5 1516.3,-190.5 1397.3,-190.5"/>
<text text-anchor="start" x="1405.3" y="-208.5" font-family="Helvetica,sans-Serif" font-size="10.00">Storm/Thermostat/Main</text>
<text text-anchor="middle" x="1456.8" y="-197.5" font-family="Helvetica,sans-Serif" font-size="10.00">/UserRecord.h</text>
</a>
</g>
</g>
<!-- Node17&#45;&gt;Node20 -->
<g id="edge34" class="edge"><title>Node17&#45;&gt;Node20</title>
<path fill="none" stroke="midnightblue" d="M1457.51,-252.411C1457.35,-242.222 1457.16,-229.901 1457.02,-220.589"/>
<polygon fill="midnightblue" stroke="midnightblue" points="1454.01,-252.789 1457.67,-262.734 1461.01,-252.681 1454.01,-252.789"/>
</g>
<!-- Node21 -->
<g id="node21" class="node"><title>Node21</title>
<g id="a_node21"><a xlink:href="_event_monitor_8h_source.html" target="_top" xlink:title=" ">
<polygon fill="white" stroke="black" points="1534.8,-190.5 1534.8,-220.5 1674.8,-220.5 1674.8,-190.5 1534.8,-190.5"/>
<text text-anchor="start" x="1542.8" y="-208.5" font-family="Helvetica,sans-Serif" font-size="10.00">Storm/Thermostat/Ui</text>
<text text-anchor="middle" x="1604.8" y="-197.5" font-family="Helvetica,sans-Serif" font-size="10.00">/PicoDisplay/EventMonitor.h</text>
</a>
</g>
</g>
<!-- Node17&#45;&gt;Node21 -->
<g id="edge35" class="edge"><title>Node17&#45;&gt;Node21</title>
<path fill="none" stroke="midnightblue" d="M1486.6,-258.767C1511.48,-247.766 1547.38,-231.892 1573.08,-220.528"/>
<polygon fill="midnightblue" stroke="midnightblue" points="1485.05,-255.623 1477.32,-262.869 1487.88,-262.025 1485.05,-255.623"/>
</g>
</g>
</svg>
