<?xml version="1.0" encoding="UTF-8" standalone="no"?>
<!DOCTYPE svg PUBLIC "-//W3C//DTD SVG 1.1//EN"
 "http://www.w3.org/Graphics/SVG/1.1/DTD/svg11.dtd">
<!-- Generated by graphviz version 2.38.0 (20140413.2041)
 -->
<!-- Title: Cpl/Io/Input.h Pages: 1 -->
<svg width="2518pt" height="352pt"
 viewBox="0.00 0.00 2517.50 352.00" xmlns="http://www.w3.org/2000/svg" xmlns:xlink="http://www.w3.org/1999/xlink">
<g id="graph0" class="graph" transform="scale(1 1) rotate(0) translate(4 348)">
<title>Cpl/Io/Input.h</title>
<polygon fill="white" stroke="none" points="-4,4 -4,-348 2513.5,-348 2513.5,4 -4,4"/>
<!-- Node1 -->
<g id="node1" class="node"><title>Node1</title>
<g id="a_node1"><a xlink:title=" ">
<polygon fill="#bfbfbf" stroke="black" points="1884.5,-324.5 1884.5,-343.5 1959.5,-343.5 1959.5,-324.5 1884.5,-324.5"/>
<text text-anchor="middle" x="1922" y="-331.5" font-family="Helvetica,sans-Serif" font-size="10.00">Cpl/Io/Input.h</text>
</a>
</g>
</g>
<!-- Node2 -->
<g id="node2" class="node"><title>Node2</title>
<g id="a_node2"><a xlink:href="_input_api_8h.html" target="_top" xlink:title=" ">
<polygon fill="white" stroke="black" points="188,-263 188,-282 296,-282 296,-263 188,-263"/>
<text text-anchor="middle" x="242" y="-270" font-family="Helvetica,sans-Serif" font-size="10.00">Cpl/Io/File/InputApi.h</text>
</a>
</g>
</g>
<!-- Node1&#45;&gt;Node2 -->
<g id="edge1" class="edge"><title>Node1&#45;&gt;Node2</title>
<path fill="none" stroke="midnightblue" d="M1874.17,-333.089C1683.79,-333.133 961.47,-330.329 369,-288 345.094,-286.292 318.755,-283.444 296.291,-280.723"/>
<polygon fill="midnightblue" stroke="midnightblue" points="1874.39,-336.589 1884.39,-333.084 1874.39,-329.589 1874.39,-336.589"/>
</g>
<!-- Node7 -->
<g id="node7" class="node"><title>Node7</title>
<g id="a_node7"><a xlink:href="_input_output_8h.html" target="_top" xlink:title=" ">
<polygon fill="white" stroke="black" points="921,-263 921,-282 1025,-282 1025,-263 921,-263"/>
<text text-anchor="middle" x="973" y="-270" font-family="Helvetica,sans-Serif" font-size="10.00">Cpl/Io/InputOutput.h</text>
</a>
</g>
</g>
<!-- Node1&#45;&gt;Node7 -->
<g id="edge6" class="edge"><title>Node1&#45;&gt;Node7</title>
<path fill="none" stroke="midnightblue" d="M1874.14,-329.999C1713.19,-319.908 1192.24,-287.246 1025.12,-276.768"/>
<polygon fill="midnightblue" stroke="midnightblue" points="1874.01,-333.498 1884.21,-330.631 1874.45,-326.512 1874.01,-333.498"/>
</g>
<!-- Node19 -->
<g id="node19" class="node"><title>Node19</title>
<g id="a_node19"><a xlink:href="_line_reader_8h.html" target="_top" xlink:title=" ">
<polygon fill="white" stroke="black" points="1988,-263 1988,-282 2090,-282 2090,-263 1988,-263"/>
<text text-anchor="middle" x="2039" y="-270" font-family="Helvetica,sans-Serif" font-size="10.00">Cpl/Io/LineReader.h</text>
</a>
</g>
</g>
<!-- Node1&#45;&gt;Node19 -->
<g id="edge20" class="edge"><title>Node1&#45;&gt;Node19</title>
<path fill="none" stroke="midnightblue" d="M1947.83,-319.867C1970.5,-308.335 2002.82,-291.899 2022.27,-282.009"/>
<polygon fill="midnightblue" stroke="midnightblue" points="1946.09,-316.822 1938.76,-324.475 1949.26,-323.062 1946.09,-316.822"/>
</g>
<!-- Node20 -->
<g id="node20" class="node"><title>Node20</title>
<g id="a_node20"><a xlink:href="_serial_2_r_p2040_2_stdio_2_input_8h.html" target="_top" xlink:title=" ">
<polygon fill="white" stroke="black" points="2108.5,-257.5 2108.5,-287.5 2215.5,-287.5 2215.5,-257.5 2108.5,-257.5"/>
<text text-anchor="start" x="2116.5" y="-275.5" font-family="Helvetica,sans-Serif" font-size="10.00">Cpl/Io/Serial/RP2040</text>
<text text-anchor="middle" x="2162" y="-264.5" font-family="Helvetica,sans-Serif" font-size="10.00">/Stdio/Input.h</text>
</a>
</g>
</g>
<!-- Node1&#45;&gt;Node20 -->
<g id="edge21" class="edge"><title>Node1&#45;&gt;Node20</title>
<path fill="none" stroke="midnightblue" d="M1966.14,-322.058C2006.2,-312.127 2065.37,-297.455 2108.19,-286.84"/>
<polygon fill="midnightblue" stroke="midnightblue" points="1965.25,-318.672 1956.39,-324.475 1966.93,-325.466 1965.25,-318.672"/>
</g>
<!-- Node21 -->
<g id="node21" class="node"><title>Node21</title>
<g id="a_node21"><a xlink:href="_input___8h.html" target="_top" xlink:title=" ">
<polygon fill="white" stroke="black" points="378,-263 378,-282 484,-282 484,-263 378,-263"/>
<text text-anchor="middle" x="431" y="-270" font-family="Helvetica,sans-Serif" font-size="10.00">Cpl/Io/Stdio/Input_.h</text>
</a>
</g>
</g>
<!-- Node1&#45;&gt;Node21 -->
<g id="edge22" class="edge"><title>Node1&#45;&gt;Node21</title>
<path fill="none" stroke="midnightblue" d="M1874.36,-331.099C1652.13,-322.231 718.359,-284.967 484.353,-275.629"/>
<polygon fill="midnightblue" stroke="midnightblue" points="1874.27,-334.598 1884.4,-331.499 1874.55,-327.603 1874.27,-334.598"/>
</g>
<!-- Node23 -->
<g id="node23" class="node"><title>Node23</title>
<g id="a_node23"><a xlink:href="_system_2_r_p2040_2_stdio_8h.html" target="_top" xlink:title="This interface returns the Cpl Io Stream for the for SDK&#39;s stdio.">
<polygon fill="white" stroke="black" points="2233.5,-263 2233.5,-282 2372.5,-282 2372.5,-263 2233.5,-263"/>
<text text-anchor="middle" x="2303" y="-270" font-family="Helvetica,sans-Serif" font-size="10.00">Cpl/System/RP2040/Stdio.h</text>
</a>
</g>
</g>
<!-- Node1&#45;&gt;Node23 -->
<g id="edge26" class="edge"><title>Node1&#45;&gt;Node23</title>
<path fill="none" stroke="midnightblue" d="M1970.13,-326.402C2029.97,-318.073 2135.19,-303.012 2225,-288 2235.87,-286.183 2247.56,-284.086 2258.5,-282.061"/>
<polygon fill="midnightblue" stroke="midnightblue" points="1969.28,-322.986 1959.86,-327.828 1970.25,-329.92 1969.28,-322.986"/>
</g>
<!-- Node24 -->
<g id="node24" class="node"><title>Node24</title>
<g id="a_node24"><a xlink:href="_processor_api_8h.html" target="_top" xlink:title=" ">
<polygon fill="white" stroke="black" points="1471.5,-263 1471.5,-282 1602.5,-282 1602.5,-263 1471.5,-263"/>
<text text-anchor="middle" x="1537" y="-270" font-family="Helvetica,sans-Serif" font-size="10.00">Cpl/TShell/ProcessorApi.h</text>
</a>
</g>
</g>
<!-- Node1&#45;&gt;Node24 -->
<g id="edge27" class="edge"><title>Node1&#45;&gt;Node24</title>
<path fill="none" stroke="midnightblue" d="M1874.3,-325.629C1802.78,-314.575 1668.07,-293.757 1592.33,-282.051"/>
<polygon fill="midnightblue" stroke="midnightblue" points="1873.97,-329.118 1884.38,-327.187 1875.04,-322.2 1873.97,-329.118"/>
</g>
<!-- Node46 -->
<g id="node44" class="node"><title>Node46</title>
<g id="a_node44"><a xlink:href="_stream_decoder_8h.html" target="_top" xlink:title=" ">
<polygon fill="white" stroke="black" points="1730.5,-263 1730.5,-282 1893.5,-282 1893.5,-263 1730.5,-263"/>
<text text-anchor="middle" x="1812" y="-270" font-family="Helvetica,sans-Serif" font-size="10.00">Cpl/Text/Frame/StreamDecoder.h</text>
</a>
</g>
</g>
<!-- Node1&#45;&gt;Node46 -->
<g id="edge48" class="edge"><title>Node1&#45;&gt;Node46</title>
<path fill="none" stroke="midnightblue" d="M1897.43,-319.712C1876.13,-308.188 1845.93,-291.855 1827.73,-282.009"/>
<polygon fill="midnightblue" stroke="midnightblue" points="1895.78,-322.796 1906.24,-324.475 1899.11,-316.639 1895.78,-322.796"/>
</g>
<!-- Node49 -->
<g id="node47" class="node"><title>Node49</title>
<g id="a_node47"><a xlink:href="_pipe_8h.html" target="_top" xlink:title=" ">
<polygon fill="white" stroke="black" points="1950.5,-196 1950.5,-215 2051.5,-215 2051.5,-196 1950.5,-196"/>
<text text-anchor="middle" x="2001" y="-203" font-family="Helvetica,sans-Serif" font-size="10.00">Driver/TPipe/Pipe.h</text>
</a>
</g>
</g>
<!-- Node1&#45;&gt;Node49 -->
<g id="edge58" class="edge"><title>Node1&#45;&gt;Node49</title>
<path fill="none" stroke="midnightblue" d="M1932.76,-315.763C1949.85,-288.397 1982.58,-235.99 1995.53,-215.256"/>
<polygon fill="midnightblue" stroke="midnightblue" points="1929.76,-313.969 1927.43,-324.305 1935.7,-317.677 1929.76,-313.969"/>
</g>
<!-- Node50 -->
<g id="node48" class="node"><title>Node50</title>
<g id="a_node48"><a xlink:href="_driver_2_pico_display_2_t_pipe_2_api_8h.html" target="_top" xlink:title="This file defines the interface for initializing the concrete implementation of the PicoDisplay drive...">
<polygon fill="white" stroke="black" points="1935.5,-123.5 1935.5,-153.5 2032.5,-153.5 2032.5,-123.5 1935.5,-123.5"/>
<text text-anchor="start" x="1943.5" y="-141.5" font-family="Helvetica,sans-Serif" font-size="10.00">Driver/PicoDisplay</text>
<text text-anchor="middle" x="1984" y="-130.5" font-family="Helvetica,sans-Serif" font-size="10.00">/TPipe/Api.h</text>
</a>
</g>
</g>
<!-- Node1&#45;&gt;Node50 -->
<g id="edge57" class="edge"><title>Node1&#45;&gt;Node50</title>
<path fill="none" stroke="midnightblue" d="M1921.42,-314.081C1921.25,-285.832 1923.64,-231.509 1942,-190 1948.09,-176.234 1959.06,-163.237 1968.27,-153.877"/>
<polygon fill="midnightblue" stroke="midnightblue" points="1917.92,-314.235 1921.6,-324.171 1924.92,-314.109 1917.92,-314.235"/>
</g>
<!-- Node52 -->
<g id="node50" class="node"><title>Node52</title>
<g id="a_node50"><a xlink:href="_main_8h.html" target="_top" xlink:title="This file defines the hardware/platform independent start&#45;up interface(s) for the Storm::Thermostat a...">
<polygon fill="white" stroke="black" points="2390.5,-257.5 2390.5,-287.5 2509.5,-287.5 2509.5,-257.5 2390.5,-257.5"/>
<text text-anchor="start" x="2398.5" y="-275.5" font-family="Helvetica,sans-Serif" font-size="10.00">Storm/Thermostat/Main</text>
<text text-anchor="middle" x="2450" y="-264.5" font-family="Helvetica,sans-Serif" font-size="10.00">/Main.h</text>
</a>
</g>
</g>
<!-- Node1&#45;&gt;Node52 -->
<g id="edge59" class="edge"><title>Node1&#45;&gt;Node52</title>
<path fill="none" stroke="midnightblue" d="M1969.73,-330.109C2053.52,-324.637 2232.42,-311.188 2382,-288 2384.74,-287.575 2387.54,-287.109 2390.37,-286.613"/>
<polygon fill="midnightblue" stroke="midnightblue" points="1969.5,-326.616 1959.75,-330.752 1969.95,-333.601 1969.5,-326.616"/>
</g>
<!-- Node3 -->
<g id="node3" class="node"><title>Node3</title>
<g id="a_node3"><a xlink:href="_file_2_input_8h.html" target="_top" xlink:title=" ">
<polygon fill="white" stroke="black" points="195,-196 195,-215 289,-215 289,-196 195,-196"/>
<text text-anchor="middle" x="242" y="-203" font-family="Helvetica,sans-Serif" font-size="10.00">Cpl/Io/File/Input.h</text>
</a>
</g>
</g>
<!-- Node2&#45;&gt;Node3 -->
<g id="edge2" class="edge"><title>Node2&#45;&gt;Node3</title>
<path fill="none" stroke="midnightblue" d="M242,-252.537C242,-240.17 242,-224.62 242,-215.127"/>
<polygon fill="midnightblue" stroke="midnightblue" points="238.5,-252.734 242,-262.734 245.5,-252.734 238.5,-252.734"/>
</g>
<!-- Node4 -->
<g id="node4" class="node"><title>Node4</title>
<g id="a_node4"><a xlink:href="_input_output_api_8h.html" target="_top" xlink:title=" ">
<polygon fill="white" stroke="black" points="39.5,-196 39.5,-215 176.5,-215 176.5,-196 39.5,-196"/>
<text text-anchor="middle" x="108" y="-203" font-family="Helvetica,sans-Serif" font-size="10.00">Cpl/Io/File/InputOutputApi.h</text>
</a>
</g>
</g>
<!-- Node2&#45;&gt;Node4 -->
<g id="edge3" class="edge"><title>Node2&#45;&gt;Node4</title>
<path fill="none" stroke="midnightblue" d="M215.084,-258.444C188.542,-245.569 148.73,-226.257 125.868,-215.167"/>
<polygon fill="midnightblue" stroke="midnightblue" points="213.681,-261.653 224.206,-262.869 216.736,-255.355 213.681,-261.653"/>
</g>
<!-- Node5 -->
<g id="node5" class="node"><title>Node5</title>
<g id="a_node5"><a xlink:href="_file_2_input_output_8h.html" target="_top" xlink:title=" ">
<polygon fill="white" stroke="black" points="301.5,-129 301.5,-148 424.5,-148 424.5,-129 301.5,-129"/>
<text text-anchor="middle" x="363" y="-136" font-family="Helvetica,sans-Serif" font-size="10.00">Cpl/Io/File/InputOutput.h</text>
</a>
</g>
</g>
<!-- Node4&#45;&gt;Node5 -->
<g id="edge4" class="edge"><title>Node4&#45;&gt;Node5</title>
<path fill="none" stroke="midnightblue" d="M151.531,-193.404C201.857,-180.576 283.612,-159.736 329.327,-148.083"/>
<polygon fill="midnightblue" stroke="midnightblue" points="150.425,-190.074 141.599,-195.936 152.154,-196.857 150.425,-190.074"/>
</g>
<!-- Node6 -->
<g id="node6" class="node"><title>Node6</title>
<g id="a_node6"><a xlink:href="_file_2_null_8h.html" target="_top" xlink:title=" ">
<polygon fill="white" stroke="black" points="63.5,-129 63.5,-148 152.5,-148 152.5,-129 63.5,-129"/>
<text text-anchor="middle" x="108" y="-136" font-family="Helvetica,sans-Serif" font-size="10.00">Cpl/Io/File/Null.h</text>
</a>
</g>
</g>
<!-- Node4&#45;&gt;Node6 -->
<g id="edge5" class="edge"><title>Node4&#45;&gt;Node6</title>
<path fill="none" stroke="midnightblue" d="M108,-185.537C108,-173.17 108,-157.62 108,-148.127"/>
<polygon fill="midnightblue" stroke="midnightblue" points="104.5,-185.734 108,-195.734 111.5,-185.734 104.5,-185.734"/>
</g>
<!-- Node8 -->
<g id="node8" class="node"><title>Node8</title>
<g id="a_node8"><a xlink:href="_null_8h.html" target="_top" xlink:title=" ">
<polygon fill="white" stroke="black" points="1148,-196 1148,-215 1218,-215 1218,-196 1148,-196"/>
<text text-anchor="middle" x="1183" y="-203" font-family="Helvetica,sans-Serif" font-size="10.00">Cpl/Io/Null.h</text>
</a>
</g>
</g>
<!-- Node7&#45;&gt;Node8 -->
<g id="edge7" class="edge"><title>Node7&#45;&gt;Node8</title>
<path fill="none" stroke="midnightblue" d="M1011.76,-259.985C1045.45,-249.908 1095.54,-234.77 1139,-221 1144.98,-219.105 1151.4,-217.019 1157.44,-215.034"/>
<polygon fill="midnightblue" stroke="midnightblue" points="1010.43,-256.727 1001.85,-262.942 1012.43,-263.435 1010.43,-256.727"/>
</g>
<!-- Node9 -->
<g id="node9" class="node"><title>Node9</title>
<g id="a_node9"><a xlink:href="_ram_2_input_output_8h.html" target="_top" xlink:title=" ">
<polygon fill="white" stroke="black" points="1236,-196 1236,-215 1364,-215 1364,-196 1236,-196"/>
<text text-anchor="middle" x="1300" y="-203" font-family="Helvetica,sans-Serif" font-size="10.00">Cpl/Io/Ram/InputOutput.h</text>
</a>
</g>
</g>
<!-- Node7&#45;&gt;Node9 -->
<g id="edge8" class="edge"><title>Node7&#45;&gt;Node9</title>
<path fill="none" stroke="midnightblue" d="M1026.03,-260.958C1090.39,-248.165 1197.66,-226.843 1257.08,-215.032"/>
<polygon fill="midnightblue" stroke="midnightblue" points="1025.21,-257.553 1016.09,-262.936 1026.58,-264.419 1025.21,-257.553"/>
</g>
<!-- Node10 -->
<g id="node10" class="node"><title>Node10</title>
<g id="a_node10"><a xlink:href="_serial_2_r_p2040_2_uart_2_input_output_8h.html" target="_top" xlink:title=" ">
<polygon fill="white" stroke="black" points="580.5,-190.5 580.5,-220.5 687.5,-220.5 687.5,-190.5 580.5,-190.5"/>
<text text-anchor="start" x="588.5" y="-208.5" font-family="Helvetica,sans-Serif" font-size="10.00">Cpl/Io/Serial/RP2040</text>
<text text-anchor="middle" x="634" y="-197.5" font-family="Helvetica,sans-Serif" font-size="10.00">/Uart/InputOutput.h</text>
</a>
</g>
</g>
<!-- Node7&#45;&gt;Node10 -->
<g id="edge9" class="edge"><title>Node7&#45;&gt;Node10</title>
<path fill="none" stroke="midnightblue" d="M912.395,-261.224C856.373,-251.532 770.878,-236.253 697,-221 693.922,-220.365 690.764,-219.695 687.58,-219.006"/>
<polygon fill="midnightblue" stroke="midnightblue" points="912.054,-264.716 922.504,-262.967 913.244,-257.818 912.054,-264.716"/>
</g>
<!-- Node11 -->
<g id="node11" class="node"><title>Node11</title>
<g id="a_node11"><a xlink:href="_socket_2_input_output_8h.html" target="_top" xlink:title=" ">
<polygon fill="white" stroke="black" points="822,-196 822,-215 960,-215 960,-196 822,-196"/>
<text text-anchor="middle" x="891" y="-203" font-family="Helvetica,sans-Serif" font-size="10.00">Cpl/Io/Socket/InputOutput.h</text>
</a>
</g>
</g>
<!-- Node7&#45;&gt;Node11 -->
<g id="edge10" class="edge"><title>Node7&#45;&gt;Node11</title>
<path fill="none" stroke="midnightblue" d="M953.715,-256.213C937.56,-243.407 915.081,-225.588 901.884,-215.127"/>
<polygon fill="midnightblue" stroke="midnightblue" points="951.93,-259.265 961.941,-262.734 956.279,-253.779 951.93,-259.265"/>
</g>
<!-- Node15 -->
<g id="node15" class="node"><title>Node15</title>
<g id="a_node15"><a xlink:href="_cpl_2_io_2_stdio_2_input_output___8h.html" target="_top" xlink:title=" ">
<polygon fill="white" stroke="black" points="427.5,-196 427.5,-215 562.5,-215 562.5,-196 427.5,-196"/>
<text text-anchor="middle" x="495" y="-203" font-family="Helvetica,sans-Serif" font-size="10.00">Cpl/Io/Stdio/InputOutput_.h</text>
</a>
</g>
</g>
<!-- Node7&#45;&gt;Node15 -->
<g id="edge15" class="edge"><title>Node7&#45;&gt;Node15</title>
<path fill="none" stroke="midnightblue" d="M910.524,-264.897C831.326,-256.241 690.686,-239.915 571,-221 559.988,-219.26 548.127,-217.124 537.126,-215.031"/>
<polygon fill="midnightblue" stroke="midnightblue" points="910.493,-268.414 920.813,-266.016 911.25,-261.455 910.493,-268.414"/>
</g>
<!-- Node16 -->
<g id="node16" class="node"><title>Node16</title>
<g id="a_node16"><a xlink:href="_console_8h.html" target="_top" xlink:title="This interface provides a &#39;Console&#39; replacement for SDK&#39;s stdio.">
<polygon fill="white" stroke="black" points="978,-196 978,-215 1130,-215 1130,-196 978,-196"/>
<text text-anchor="middle" x="1054" y="-203" font-family="Helvetica,sans-Serif" font-size="10.00">Cpl/System/RP2040/Console.h</text>
</a>
</g>
</g>
<!-- Node7&#45;&gt;Node16 -->
<g id="edge17" class="edge"><title>Node7&#45;&gt;Node16</title>
<path fill="none" stroke="midnightblue" d="M992.049,-256.213C1008.01,-243.407 1030.21,-225.588 1043.25,-215.127"/>
<polygon fill="midnightblue" stroke="midnightblue" points="989.533,-253.745 983.924,-262.734 993.914,-259.205 989.533,-253.745"/>
</g>
<!-- Node17 -->
<g id="node17" class="node"><title>Node17</title>
<g id="a_node17"><a xlink:href="_driver_2_uart_2_stream_2_input_output___8h.html" target="_top" xlink:title=" ">
<polygon fill="white" stroke="black" points="706,-190.5 706,-220.5 804,-220.5 804,-190.5 706,-190.5"/>
<text text-anchor="start" x="714" y="-208.5" font-family="Helvetica,sans-Serif" font-size="10.00">Driver/Uart/Stream</text>
<text text-anchor="middle" x="755" y="-197.5" font-family="Helvetica,sans-Serif" font-size="10.00">/InputOutput_.h</text>
</a>
</g>
</g>
<!-- Node7&#45;&gt;Node17 -->
<g id="edge18" class="edge"><title>Node7&#45;&gt;Node17</title>
<path fill="none" stroke="midnightblue" d="M934.151,-259.917C897.187,-248.895 841.508,-232.294 802.048,-220.528"/>
<polygon fill="midnightblue" stroke="midnightblue" points="933.468,-263.365 944.051,-262.869 935.468,-256.657 933.468,-263.365"/>
</g>
<!-- Node12 -->
<g id="node12" class="node"><title>Node12</title>
<g id="a_node12"><a xlink:href="_factory_8h.html" target="_top" xlink:title=" ">
<polygon fill="white" stroke="black" points="766,-129 766,-148 886,-148 886,-129 766,-129"/>
<text text-anchor="middle" x="826" y="-136" font-family="Helvetica,sans-Serif" font-size="10.00">Cpl/Io/Socket/Factory.h</text>
</a>
</g>
</g>
<!-- Node11&#45;&gt;Node12 -->
<g id="edge11" class="edge"><title>Node11&#45;&gt;Node12</title>
<path fill="none" stroke="midnightblue" d="M874.997,-188.497C862.25,-175.75 844.895,-158.395 834.627,-148.127"/>
<polygon fill="midnightblue" stroke="midnightblue" points="872.688,-191.138 882.234,-195.734 877.638,-186.188 872.688,-191.138"/>
</g>
<!-- Node13 -->
<g id="node13" class="node"><title>Node13</title>
<g id="a_node13"><a xlink:href="_stream_pool_8h.html" target="_top" xlink:title=" ">
<polygon fill="white" stroke="black" points="0,-62 0,-81 138,-81 138,-62 0,-62"/>
<text text-anchor="middle" x="69" y="-69" font-family="Helvetica,sans-Serif" font-size="10.00">Cpl/Io/Socket/StreamPool.h</text>
</a>
</g>
</g>
<!-- Node11&#45;&gt;Node13 -->
<g id="edge13" class="edge"><title>Node11&#45;&gt;Node13</title>
<path fill="none" stroke="midnightblue" d="M850.884,-193.002C823.474,-184.289 786.851,-170.934 757,-154 737.741,-143.075 738.665,-130.951 718,-123 599.339,-77.3459 273.174,-102.647 147,-87 134.835,-85.4914 121.701,-83.2791 109.742,-81.0349"/>
<polygon fill="midnightblue" stroke="midnightblue" points="849.948,-196.376 860.536,-195.999 852.024,-189.691 849.948,-196.376"/>
</g>
<!-- Node14 -->
<g id="node14" class="node"><title>Node14</title>
<g id="a_node14"><a xlink:href="_socket_8h.html" target="_top" xlink:title=" ">
<polygon fill="white" stroke="black" points="904,-129 904,-148 1008,-148 1008,-129 904,-129"/>
<text text-anchor="middle" x="956" y="-136" font-family="Helvetica,sans-Serif" font-size="10.00">Cpl/TShell/Socket.h</text>
</a>
</g>
</g>
<!-- Node11&#45;&gt;Node14 -->
<g id="edge14" class="edge"><title>Node11&#45;&gt;Node14</title>
<path fill="none" stroke="midnightblue" d="M907.003,-188.497C919.75,-175.75 937.105,-158.395 947.373,-148.127"/>
<polygon fill="midnightblue" stroke="midnightblue" points="904.362,-186.188 899.766,-195.734 909.312,-191.138 904.362,-186.188"/>
</g>
<!-- Node12&#45;&gt;Node13 -->
<g id="edge12" class="edge"><title>Node12&#45;&gt;Node13</title>
<path fill="none" stroke="midnightblue" d="M777.862,-127.099C769.281,-125.522 760.401,-124.068 752,-123 484.787,-89.0258 414.375,-119.679 147,-87 134.832,-85.5128 121.697,-83.3072 109.738,-81.0623"/>
<polygon fill="midnightblue" stroke="midnightblue" points="777.272,-130.55 787.751,-128.991 778.587,-123.674 777.272,-130.55"/>
</g>
<!-- Node15&#45;&gt;Node5 -->
<g id="edge16" class="edge"><title>Node15&#45;&gt;Node5</title>
<path fill="none" stroke="midnightblue" d="M468.486,-191.444C442.34,-178.569 403.122,-159.257 380.601,-148.167"/>
<polygon fill="midnightblue" stroke="midnightblue" points="466.954,-194.591 477.471,-195.869 470.046,-188.311 466.954,-194.591"/>
</g>
<!-- Node18 -->
<g id="node18" class="node"><title>Node18</title>
<g id="a_node18"><a xlink:href="_serial_2_renesas_2_rx62n_2_input_output_8h.html" target="_top" xlink:title=" ">
<polygon fill="white" stroke="black" points="598.5,-123.5 598.5,-153.5 709.5,-153.5 709.5,-123.5 598.5,-123.5"/>
<text text-anchor="start" x="606.5" y="-141.5" font-family="Helvetica,sans-Serif" font-size="10.00">Cpl/Io/Serial/Renesas</text>
<text text-anchor="middle" x="654" y="-130.5" font-family="Helvetica,sans-Serif" font-size="10.00">/Rx62n/InputOutput.h</text>
</a>
</g>
</g>
<!-- Node17&#45;&gt;Node18 -->
<g id="edge19" class="edge"><title>Node17&#45;&gt;Node18</title>
<path fill="none" stroke="midnightblue" d="M724.286,-184.734C708.657,-174.676 690.025,-162.685 675.873,-153.577"/>
<polygon fill="midnightblue" stroke="midnightblue" points="722.781,-187.927 733.085,-190.396 726.57,-182.041 722.781,-187.927"/>
</g>
<!-- Node21&#45;&gt;Node3 -->
<g id="edge23" class="edge"><title>Node21&#45;&gt;Node3</title>
<path fill="none" stroke="midnightblue" d="M396.402,-259.601C358.929,-246.714 300.075,-226.473 266.901,-215.064"/>
<polygon fill="midnightblue" stroke="midnightblue" points="395.308,-262.926 405.902,-262.869 397.584,-256.307 395.308,-262.926"/>
</g>
<!-- Node21&#45;&gt;Node15 -->
<g id="edge24" class="edge"><title>Node21&#45;&gt;Node15</title>
<path fill="none" stroke="midnightblue" d="M446.757,-255.497C459.308,-242.75 476.396,-225.395 486.505,-215.127"/>
<polygon fill="midnightblue" stroke="midnightblue" points="444.153,-253.152 439.631,-262.734 449.141,-258.064 444.153,-253.152"/>
</g>
<!-- Node22 -->
<g id="node22" class="node"><title>Node22</title>
<g id="a_node22"><a xlink:href="_std_in_8h.html" target="_top" xlink:title=" ">
<polygon fill="white" stroke="black" points="307,-196 307,-215 409,-215 409,-196 307,-196"/>
<text text-anchor="middle" x="358" y="-203" font-family="Helvetica,sans-Serif" font-size="10.00">Cpl/Io/Stdio/StdIn.h</text>
</a>
</g>
</g>
<!-- Node21&#45;&gt;Node22 -->
<g id="edge25" class="edge"><title>Node21&#45;&gt;Node22</title>
<path fill="none" stroke="midnightblue" d="M413.431,-255.856C399.08,-243.078 379.329,-225.492 367.689,-215.127"/>
<polygon fill="midnightblue" stroke="midnightblue" points="411.359,-258.698 421.155,-262.734 416.014,-253.47 411.359,-258.698"/>
</g>
<!-- Node24&#45;&gt;Node14 -->
<g id="edge46" class="edge"><title>Node24&#45;&gt;Node14</title>
<path fill="none" stroke="midnightblue" d="M1499.07,-259.677C1473.3,-250.847 1438.96,-237.484 1411,-221 1392.22,-209.93 1393.14,-198.338 1373,-190 1226.07,-129.166 1173.81,-180.447 1017,-154 1007.66,-152.425 997.625,-150.246 988.444,-148.055"/>
<polygon fill="midnightblue" stroke="midnightblue" points="1498.25,-263.093 1508.84,-262.95 1500.47,-256.456 1498.25,-263.093"/>
</g>
<!-- Node25 -->
<g id="node25" class="node"><title>Node25</title>
<g id="a_node25"><a xlink:href="_context___8h.html" target="_top" xlink:title=" ">
<polygon fill="white" stroke="black" points="1420,-196 1420,-215 1532,-215 1532,-196 1420,-196"/>
<text text-anchor="middle" x="1476" y="-203" font-family="Helvetica,sans-Serif" font-size="10.00">Cpl/TShell/Context_.h</text>
</a>
</g>
</g>
<!-- Node24&#45;&gt;Node25 -->
<g id="edge28" class="edge"><title>Node24&#45;&gt;Node25</title>
<path fill="none" stroke="midnightblue" d="M1521.64,-255.135C1509.71,-242.423 1493.64,-225.298 1484.1,-215.127"/>
<polygon fill="midnightblue" stroke="midnightblue" points="1519.38,-257.837 1528.77,-262.734 1524.48,-253.047 1519.38,-257.837"/>
</g>
<!-- Node45 -->
<g id="node43" class="node"><title>Node45</title>
<g id="a_node43"><a xlink:href="_t_shell_2_stdio_8h.html" target="_top" xlink:title=" ">
<polygon fill="white" stroke="black" points="1550.5,-196 1550.5,-215 1645.5,-215 1645.5,-196 1550.5,-196"/>
<text text-anchor="middle" x="1598" y="-203" font-family="Helvetica,sans-Serif" font-size="10.00">Cpl/TShell/Stdio.h</text>
</a>
</g>
</g>
<!-- Node24&#45;&gt;Node45 -->
<g id="edge47" class="edge"><title>Node24&#45;&gt;Node45</title>
<path fill="none" stroke="midnightblue" d="M1552.36,-255.135C1564.29,-242.423 1580.36,-225.298 1589.9,-215.127"/>
<polygon fill="midnightblue" stroke="midnightblue" points="1549.52,-253.047 1545.23,-262.734 1554.62,-257.837 1549.52,-253.047"/>
</g>
<!-- Node26 -->
<g id="node26" class="node"><title>Node26</title>
<g id="a_node26"><a xlink:href="_cmd_2_command_8h.html" target="_top" xlink:title=" ">
<polygon fill="white" stroke="black" points="1026,-129 1026,-148 1166,-148 1166,-129 1026,-129"/>
<text text-anchor="middle" x="1096" y="-136" font-family="Helvetica,sans-Serif" font-size="10.00">Cpl/TShell/Cmd/Command.h</text>
</a>
</g>
</g>
<!-- Node25&#45;&gt;Node26 -->
<g id="edge29" class="edge"><title>Node25&#45;&gt;Node26</title>
<path fill="none" stroke="midnightblue" d="M1426.5,-193.972C1419.62,-192.59 1412.64,-191.228 1406,-190 1317.93,-173.713 1215.26,-157.537 1152.98,-148.034"/>
<polygon fill="midnightblue" stroke="midnightblue" points="1425.95,-197.432 1436.45,-195.999 1427.35,-190.573 1425.95,-197.432"/>
</g>
<!-- Node41 -->
<g id="node39" class="node"><title>Node41</title>
<g id="a_node39"><a xlink:href="_processor_8h.html" target="_top" xlink:title=" ">
<polygon fill="white" stroke="black" points="1624.5,-129 1624.5,-148 1741.5,-148 1741.5,-129 1624.5,-129"/>
<text text-anchor="middle" x="1683" y="-136" font-family="Helvetica,sans-Serif" font-size="10.00">Cpl/TShell/Processor.h</text>
</a>
</g>
</g>
<!-- Node25&#45;&gt;Node41 -->
<g id="edge42" class="edge"><title>Node25&#45;&gt;Node41</title>
<path fill="none" stroke="midnightblue" d="M1513.11,-192.847C1554.11,-179.973 1619.16,-159.546 1655.73,-148.064"/>
<polygon fill="midnightblue" stroke="midnightblue" points="1511.98,-189.533 1503.49,-195.869 1514.08,-196.212 1511.98,-189.533"/>
</g>
<!-- Node27 -->
<g id="node27" class="node"><title>Node27</title>
<g id="a_node27"><a xlink:href="_dm_8h.html" target="_top" xlink:title=" ">
<polygon fill="white" stroke="black" points="156,-62 156,-81 262,-81 262,-62 156,-62"/>
<text text-anchor="middle" x="209" y="-69" font-family="Helvetica,sans-Serif" font-size="10.00">Cpl/Dm/TShell/Dm.h</text>
</a>
</g>
</g>
<!-- Node26&#45;&gt;Node27 -->
<g id="edge30" class="edge"><title>Node26&#45;&gt;Node27</title>
<path fill="none" stroke="midnightblue" d="M1045.19,-127.144C1035.85,-125.534 1026.16,-124.056 1017,-123 687.246,-84.9531 599.741,-132.985 271,-87 261.038,-85.6064 250.324,-83.3714 240.651,-81.0692"/>
<polygon fill="midnightblue" stroke="midnightblue" points="1044.69,-130.61 1055.15,-128.931 1045.93,-123.72 1044.69,-130.61"/>
</g>
<!-- Node28 -->
<g id="node28" class="node"><title>Node28</title>
<g id="a_node28"><a xlink:href="_bye_8h.html" target="_top" xlink:title=" ">
<polygon fill="white" stroke="black" points="280.5,-62 280.5,-81 393.5,-81 393.5,-62 280.5,-62"/>
<text text-anchor="middle" x="337" y="-69" font-family="Helvetica,sans-Serif" font-size="10.00">Cpl/TShell/Cmd/Bye.h</text>
</a>
</g>
</g>
<!-- Node26&#45;&gt;Node28 -->
<g id="edge31" class="edge"><title>Node26&#45;&gt;Node28</title>
<path fill="none" stroke="midnightblue" d="M1044.87,-127.169C1035.63,-125.571 1026.05,-124.091 1017,-123 745.61,-90.2637 673.781,-124.445 403,-87 392.541,-85.5537 381.279,-83.3322 371.071,-81.0593"/>
<polygon fill="midnightblue" stroke="midnightblue" points="1044.28,-130.617 1054.74,-128.936 1045.51,-123.727 1044.28,-130.617"/>
</g>
<!-- Node29 -->
<g id="node29" class="node"><title>Node29</title>
<g id="a_node29"><a xlink:href="_help_8h.html" target="_top" xlink:title=" ">
<polygon fill="white" stroke="black" points="412,-62 412,-81 528,-81 528,-62 412,-62"/>
<text text-anchor="middle" x="470" y="-69" font-family="Helvetica,sans-Serif" font-size="10.00">Cpl/TShell/Cmd/Help.h</text>
</a>
</g>
</g>
<!-- Node26&#45;&gt;Node29 -->
<g id="edge32" class="edge"><title>Node26&#45;&gt;Node29</title>
<path fill="none" stroke="midnightblue" d="M1044.25,-127.186C1035.2,-125.615 1025.84,-124.14 1017,-123 804.823,-95.6506 748.718,-117.699 537,-87 526.518,-85.4801 515.226,-83.2644 504.954,-81.0205"/>
<polygon fill="midnightblue" stroke="midnightblue" points="1043.85,-130.67 1054.31,-128.989 1045.09,-123.78 1043.85,-130.67"/>
</g>
<!-- Node30 -->
<g id="node30" class="node"><title>Node30</title>
<g id="a_node30"><a xlink:href="_t_print_8h.html" target="_top" xlink:title=" ">
<polygon fill="white" stroke="black" points="546,-62 546,-81 668,-81 668,-62 546,-62"/>
<text text-anchor="middle" x="607" y="-69" font-family="Helvetica,sans-Serif" font-size="10.00">Cpl/TShell/Cmd/TPrint.h</text>
</a>
</g>
</g>
<!-- Node26&#45;&gt;Node30 -->
<g id="edge33" class="edge"><title>Node26&#45;&gt;Node30</title>
<path fill="none" stroke="midnightblue" d="M1042.71,-127.148C1034.13,-125.647 1025.33,-124.204 1017,-123 866.606,-101.268 827.137,-110.44 677,-87 666.454,-85.3536 655.094,-83.177 644.657,-81.0122"/>
<polygon fill="midnightblue" stroke="midnightblue" points="1042.17,-130.609 1052.63,-128.928 1043.41,-123.718 1042.17,-130.609"/>
</g>
<!-- Node31 -->
<g id="node31" class="node"><title>Node31</title>
<g id="a_node31"><a xlink:href="_threads_8h.html" target="_top" xlink:title=" ">
<polygon fill="white" stroke="red" points="686.5,-62 686.5,-81 817.5,-81 817.5,-62 686.5,-62"/>
<text text-anchor="middle" x="752" y="-69" font-family="Helvetica,sans-Serif" font-size="10.00">Cpl/TShell/Cmd/Threads.h</text>
</a>
</g>
</g>
<!-- Node26&#45;&gt;Node31 -->
<g id="edge34" class="edge"><title>Node26&#45;&gt;Node31</title>
<path fill="none" stroke="midnightblue" d="M1039.8,-127.134C985.166,-117.022 899.855,-101.142 826,-87 816.099,-85.1042 805.46,-83.037 795.422,-81.073"/>
<polygon fill="midnightblue" stroke="midnightblue" points="1039.16,-130.576 1049.63,-128.953 1040.44,-123.692 1039.16,-130.576"/>
</g>
<!-- Node34 -->
<g id="node32" class="node"><title>Node34</title>
<g id="a_node32"><a xlink:href="_tick_8h.html" target="_top" xlink:title=" ">
<polygon fill="white" stroke="black" points="835.5,-62 835.5,-81 950.5,-81 950.5,-62 835.5,-62"/>
<text text-anchor="middle" x="893" y="-69" font-family="Helvetica,sans-Serif" font-size="10.00">Cpl/TShell/Cmd/Tick.h</text>
</a>
</g>
</g>
<!-- Node26&#45;&gt;Node34 -->
<g id="edge35" class="edge"><title>Node26&#45;&gt;Node34</title>
<path fill="none" stroke="midnightblue" d="M1059.35,-125.765C1019.13,-112.886 955.528,-92.5214 919.745,-81.0637"/>
<polygon fill="midnightblue" stroke="midnightblue" points="1058.45,-129.152 1069.04,-128.869 1060.59,-122.486 1058.45,-129.152"/>
</g>
<!-- Node35 -->
<g id="node33" class="node"><title>Node35</title>
<g id="a_node33"><a xlink:href="_t_shell_2_cmd_2_trace_8h.html" target="_top" xlink:title=" ">
<polygon fill="white" stroke="black" points="968.5,-62 968.5,-81 1089.5,-81 1089.5,-62 968.5,-62"/>
<text text-anchor="middle" x="1029" y="-69" font-family="Helvetica,sans-Serif" font-size="10.00">Cpl/TShell/Cmd/Trace.h</text>
</a>
</g>
</g>
<!-- Node26&#45;&gt;Node35 -->
<g id="edge36" class="edge"><title>Node26&#45;&gt;Node35</title>
<path fill="none" stroke="midnightblue" d="M1079.5,-121.497C1066.36,-108.75 1048.48,-91.3947 1037.89,-81.1273"/>
<polygon fill="midnightblue" stroke="midnightblue" points="1077.35,-124.283 1086.96,-128.734 1082.22,-119.259 1077.35,-124.283"/>
</g>
<!-- Node36 -->
<g id="node34" class="node"><title>Node36</title>
<g id="a_node34"><a xlink:href="_state_8h.html" target="_top" xlink:title=" ">
<polygon fill="white" stroke="black" points="1108,-62 1108,-81 1216,-81 1216,-62 1108,-62"/>
<text text-anchor="middle" x="1162" y="-69" font-family="Helvetica,sans-Serif" font-size="10.00">Storm/TShell/State.h</text>
</a>
</g>
</g>
<!-- Node26&#45;&gt;Node36 -->
<g id="edge37" class="edge"><title>Node26&#45;&gt;Node36</title>
<path fill="none" stroke="midnightblue" d="M1112.25,-121.497C1125.19,-108.75 1142.81,-91.3947 1153.24,-81.1273"/>
<polygon fill="midnightblue" stroke="midnightblue" points="1109.57,-119.223 1104.9,-128.734 1114.48,-124.211 1109.57,-119.223"/>
</g>
<!-- Node37 -->
<g id="node35" class="node"><title>Node37</title>
<g id="a_node35"><a xlink:href="_user_8h.html" target="_top" xlink:title=" ">
<polygon fill="white" stroke="black" points="1234.5,-62 1234.5,-81 1339.5,-81 1339.5,-62 1234.5,-62"/>
<text text-anchor="middle" x="1287" y="-69" font-family="Helvetica,sans-Serif" font-size="10.00">Storm/TShell/User.h</text>
</a>
</g>
</g>
<!-- Node26&#45;&gt;Node37 -->
<g id="edge38" class="edge"><title>Node26&#45;&gt;Node37</title>
<path fill="none" stroke="midnightblue" d="M1130.96,-125.601C1168.83,-112.714 1228.31,-92.4728 1261.84,-81.0637"/>
<polygon fill="midnightblue" stroke="midnightblue" points="1129.7,-122.333 1121.36,-128.869 1131.96,-128.96 1129.7,-122.333"/>
</g>
<!-- Node38 -->
<g id="node36" class="node"><title>Node38</title>
<g id="a_node36"><a xlink:href="_t_shell_2_white_box_8h.html" target="_top" xlink:title=" ">
<polygon fill="white" stroke="black" points="1357.5,-62 1357.5,-81 1484.5,-81 1484.5,-62 1357.5,-62"/>
<text text-anchor="middle" x="1421" y="-69" font-family="Helvetica,sans-Serif" font-size="10.00">Storm/TShell/WhiteBox.h</text>
</a>
</g>
</g>
<!-- Node26&#45;&gt;Node38 -->
<g id="edge39" class="edge"><title>Node26&#45;&gt;Node38</title>
<path fill="none" stroke="midnightblue" d="M1148.71,-126.958C1212.68,-114.165 1319.28,-92.8434 1378.34,-81.0317"/>
<polygon fill="midnightblue" stroke="midnightblue" points="1147.94,-123.542 1138.82,-128.936 1149.31,-130.406 1147.94,-123.542"/>
</g>
<!-- Node39 -->
<g id="node37" class="node"><title>Node39</title>
<g id="a_node37"><a xlink:href="filter_8h.html" target="_top" xlink:title=" ">
<polygon fill="white" stroke="black" points="1503,-62 1503,-81 1607,-81 1607,-62 1503,-62"/>
<text text-anchor="middle" x="1555" y="-69" font-family="Helvetica,sans-Serif" font-size="10.00">Storm/TShell/filter.h</text>
</a>
</g>
</g>
<!-- Node26&#45;&gt;Node39 -->
<g id="edge40" class="edge"><title>Node26&#45;&gt;Node39</title>
<path fill="none" stroke="midnightblue" d="M1176.32,-129.742C1256.77,-121.395 1383.98,-106.628 1493,-87 1502.25,-85.3351 1512.19,-83.1772 1521.34,-81.0373"/>
<polygon fill="midnightblue" stroke="midnightblue" points="1175.84,-126.272 1166.25,-130.778 1176.56,-133.236 1175.84,-126.272"/>
</g>
<!-- Node40 -->
<g id="node38" class="node"><title>Node40</title>
<g id="a_node38"><a xlink:href="_cmd_8h.html" target="_top" xlink:title=" ">
<polygon fill="white" stroke="black" points="1625.5,-56.5 1625.5,-86.5 1768.5,-86.5 1768.5,-56.5 1625.5,-56.5"/>
<text text-anchor="start" x="1633.5" y="-74.5" font-family="Helvetica,sans-Serif" font-size="10.00">Storm/Thermostat/SimHouse</text>
<text text-anchor="middle" x="1697" y="-63.5" font-family="Helvetica,sans-Serif" font-size="10.00">/Cmd.h</text>
</a>
</g>
</g>
<!-- Node26&#45;&gt;Node40 -->
<g id="edge41" class="edge"><title>Node26&#45;&gt;Node40</title>
<path fill="none" stroke="midnightblue" d="M1176.28,-131.716C1278.63,-123.879 1460.94,-108.373 1616,-87 1619.11,-86.5708 1622.29,-86.1084 1625.5,-85.6215"/>
<polygon fill="midnightblue" stroke="midnightblue" points="1175.72,-128.247 1166.02,-132.496 1176.26,-135.227 1175.72,-128.247"/>
</g>
<!-- Node42 -->
<g id="node40" class="node"><title>Node42</title>
<g id="a_node40"><a xlink:href="_cpl_2_t_shell_2_maker_8h.html" target="_top" xlink:title=" ">
<polygon fill="white" stroke="black" points="1949,-62 1949,-81 2049,-81 2049,-62 1949,-62"/>
<text text-anchor="middle" x="1999" y="-69" font-family="Helvetica,sans-Serif" font-size="10.00">Cpl/TShell/Maker.h</text>
</a>
</g>
</g>
<!-- Node41&#45;&gt;Node42 -->
<g id="edge43" class="edge"><title>Node41&#45;&gt;Node42</title>
<path fill="none" stroke="midnightblue" d="M1737.58,-127.087C1801.14,-114.907 1902.23,-95.3479 1940,-87 1948.24,-85.1791 1957.09,-83.0802 1965.37,-81.0549"/>
<polygon fill="midnightblue" stroke="midnightblue" points="1736.88,-123.657 1727.72,-128.976 1738.2,-130.533 1736.88,-123.657"/>
</g>
<!-- Node43 -->
<g id="node41" class="node"><title>Node43</title>
<g id="a_node41"><a xlink:href="_polled_processor_8h.html" target="_top" xlink:title=" ">
<polygon fill="white" stroke="black" points="1787,-62 1787,-81 1931,-81 1931,-62 1787,-62"/>
<text text-anchor="middle" x="1859" y="-69" font-family="Helvetica,sans-Serif" font-size="10.00">Cpl/TShell/PolledProcessor.h</text>
</a>
</g>
</g>
<!-- Node41&#45;&gt;Node43 -->
<g id="edge44" class="edge"><title>Node41&#45;&gt;Node43</title>
<path fill="none" stroke="midnightblue" d="M1716.11,-125.271C1751.04,-112.37 1805.18,-92.3757 1835.81,-81.0637"/>
<polygon fill="midnightblue" stroke="midnightblue" points="1714.54,-122.121 1706.37,-128.869 1716.96,-128.687 1714.54,-122.121"/>
</g>
<!-- Node44 -->
<g id="node42" class="node"><title>Node44</title>
<g id="a_node42"><a xlink:href="_polled_maker_8h.html" target="_top" xlink:title=" ">
<polygon fill="white" stroke="black" points="1904.5,-0.5 1904.5,-19.5 2031.5,-19.5 2031.5,-0.5 1904.5,-0.5"/>
<text text-anchor="middle" x="1968" y="-7.5" font-family="Helvetica,sans-Serif" font-size="10.00">Cpl/TShell/PolledMaker.h</text>
</a>
</g>
</g>
<!-- Node43&#45;&gt;Node44 -->
<g id="edge45" class="edge"><title>Node43&#45;&gt;Node44</title>
<path fill="none" stroke="midnightblue" d="M1883.63,-57.0565C1904.72,-45.5417 1934.46,-29.3109 1952.41,-19.5091"/>
<polygon fill="midnightblue" stroke="midnightblue" points="1881.72,-54.1116 1874.62,-61.9751 1885.07,-60.2558 1881.72,-54.1116"/>
</g>
<!-- Node46&#45;&gt;Node41 -->
<g id="edge49" class="edge"><title>Node46&#45;&gt;Node41</title>
<path fill="none" stroke="midnightblue" d="M1779.02,-258.917C1760.39,-250.475 1737.75,-237.811 1722,-221 1701.41,-199.023 1689.77,-164.168 1685.23,-148.114"/>
<polygon fill="midnightblue" stroke="midnightblue" points="1777.77,-262.19 1788.33,-262.946 1780.54,-255.765 1777.77,-262.19"/>
</g>
<!-- Node47 -->
<g id="node45" class="node"><title>Node47</title>
<g id="a_node45"><a xlink:href="_ascii_decoder_8h.html" target="_top" xlink:title=" ">
<polygon fill="white" stroke="black" points="1740.5,-196 1740.5,-215 1893.5,-215 1893.5,-196 1740.5,-196"/>
<text text-anchor="middle" x="1817" y="-203" font-family="Helvetica,sans-Serif" font-size="10.00">Cpl/Text/Frame/AsciiDecoder.h</text>
</a>
</g>
</g>
<!-- Node46&#45;&gt;Node47 -->
<g id="edge50" class="edge"><title>Node46&#45;&gt;Node47</title>
<path fill="none" stroke="midnightblue" d="M1813.46,-252.537C1814.41,-240.17 1815.61,-224.62 1816.34,-215.127"/>
<polygon fill="midnightblue" stroke="midnightblue" points="1809.95,-252.495 1812.67,-262.734 1816.93,-253.032 1809.95,-252.495"/>
</g>
<!-- Node48 -->
<g id="node46" class="node"><title>Node48</title>
<g id="a_node46"><a xlink:href="_line_decoder_8h.html" target="_top" xlink:title=" ">
<polygon fill="white" stroke="black" points="1768.5,-129 1768.5,-148 1917.5,-148 1917.5,-129 1768.5,-129"/>
<text text-anchor="middle" x="1843" y="-136" font-family="Helvetica,sans-Serif" font-size="10.00">Cpl/Text/Frame/LineDecoder.h</text>
</a>
</g>
</g>
<!-- Node46&#45;&gt;Node48 -->
<g id="edge51" class="edge"><title>Node46&#45;&gt;Node48</title>
<path fill="none" stroke="midnightblue" d="M1776.47,-258.575C1759.8,-250.511 1741.55,-238.314 1732,-221 1725.35,-208.934 1724.54,-201.585 1732,-190 1746.38,-167.658 1773.34,-155.085 1797.09,-148.072"/>
<polygon fill="midnightblue" stroke="midnightblue" points="1775.46,-261.959 1786.02,-262.853 1778.32,-255.571 1775.46,-261.959"/>
</g>
<!-- Node46&#45;&gt;Node49 -->
<g id="edge54" class="edge"><title>Node46&#45;&gt;Node49</title>
<path fill="none" stroke="midnightblue" d="M1846.6,-259.601C1884.07,-246.714 1942.93,-226.473 1976.1,-215.064"/>
<polygon fill="midnightblue" stroke="midnightblue" points="1845.42,-256.307 1837.1,-262.869 1847.69,-262.926 1845.42,-256.307"/>
</g>
<!-- Node48&#45;&gt;Node42 -->
<g id="edge52" class="edge"><title>Node48&#45;&gt;Node42</title>
<path fill="none" stroke="midnightblue" d="M1873.12,-124.948C1904.01,-112.079 1951.23,-92.4032 1978.2,-81.1672"/>
<polygon fill="midnightblue" stroke="midnightblue" points="1871.6,-121.792 1863.72,-128.869 1874.29,-128.253 1871.6,-121.792"/>
</g>
<!-- Node48&#45;&gt;Node44 -->
<g id="edge53" class="edge"><title>Node48&#45;&gt;Node44</title>
<path fill="none" stroke="midnightblue" d="M1903.85,-127.163C1963.96,-116.335 2048.31,-99.2336 2058,-87 2066.56,-76.2011 2065.24,-67.7201 2058,-56 2046.43,-37.2761 2024.44,-26.0823 2005.1,-19.5421"/>
<polygon fill="midnightblue" stroke="midnightblue" points="1902.91,-123.775 1893.68,-128.977 1904.14,-130.667 1902.91,-123.775"/>
</g>
<!-- Node49&#45;&gt;Node50 -->
<g id="edge55" class="edge"><title>Node49&#45;&gt;Node50</title>
<path fill="none" stroke="midnightblue" d="M1996.09,-185.739C1993.41,-175.487 1990.15,-163.001 1987.68,-153.589"/>
<polygon fill="midnightblue" stroke="midnightblue" points="1992.79,-186.945 1998.71,-195.734 1999.56,-185.174 1992.79,-186.945"/>
</g>
<!-- Node51 -->
<g id="node49" class="node"><title>Node51</title>
<g id="a_node49"><a xlink:href="_driver_2_t_pipe_2_maker_8h.html" target="_top" xlink:title=" ">
<polygon fill="white" stroke="black" points="2050.5,-129 2050.5,-148 2159.5,-148 2159.5,-129 2050.5,-129"/>
<text text-anchor="middle" x="2105" y="-136" font-family="Helvetica,sans-Serif" font-size="10.00">Driver/TPipe/Maker.h</text>
</a>
</g>
</g>
<!-- Node49&#45;&gt;Node51 -->
<g id="edge56" class="edge"><title>Node49&#45;&gt;Node51</title>
<path fill="none" stroke="midnightblue" d="M2023.77,-190.269C2044.36,-177.403 2073.99,-158.879 2091.2,-148.127"/>
<polygon fill="midnightblue" stroke="midnightblue" points="2021.65,-187.466 2015.03,-195.734 2025.36,-193.402 2021.65,-187.466"/>
</g>
</g>
</svg>
