<?xml version="1.0" encoding="UTF-8" standalone="no"?>
<!DOCTYPE svg PUBLIC "-//W3C//DTD SVG 1.1//EN"
 "http://www.w3.org/Graphics/SVG/1.1/DTD/svg11.dtd">
<!-- Generated by graphviz version 2.38.0 (20140413.2041)
 -->
<!-- Title: Cpl/Io/InputOutput.h Pages: 1 -->
<svg width="807pt" height="218pt"
 viewBox="0.00 0.00 806.50 218.00" xmlns="http://www.w3.org/2000/svg" xmlns:xlink="http://www.w3.org/1999/xlink">
<g id="graph0" class="graph" transform="scale(1 1) rotate(0) translate(4 214)">
<title>Cpl/Io/InputOutput.h</title>
<polygon fill="white" stroke="none" points="-4,4 -4,-214 802.5,-214 802.5,4 -4,4"/>
<!-- Node1 -->
<g id="node1" class="node"><title>Node1</title>
<g id="a_node1"><a xlink:title=" ">
<polygon fill="#bfbfbf" stroke="black" points="308,-190.5 308,-209.5 412,-209.5 412,-190.5 308,-190.5"/>
<text text-anchor="middle" x="360" y="-197.5" font-family="Helvetica,sans-Serif" font-size="10.00">Cpl/Io/InputOutput.h</text>
</a>
</g>
</g>
<!-- Node2 -->
<g id="node2" class="node"><title>Node2</title>
<g id="a_node2"><a xlink:href="_null_8h.html" target="_top" xlink:title=" ">
<polygon fill="white" stroke="black" points="0,-129 0,-148 70,-148 70,-129 0,-129"/>
<text text-anchor="middle" x="35" y="-136" font-family="Helvetica,sans-Serif" font-size="10.00">Cpl/Io/Null.h</text>
</a>
</g>
</g>
<!-- Node1&#45;&gt;Node2 -->
<g id="edge1" class="edge"><title>Node1&#45;&gt;Node2</title>
<path fill="none" stroke="midnightblue" d="M297.984,-191.957C240.667,-184.767 153.385,-172.09 79,-154 72.2789,-152.365 65.108,-150.193 58.548,-148.028"/>
<polygon fill="midnightblue" stroke="midnightblue" points="297.621,-195.438 307.975,-193.192 298.48,-188.491 297.621,-195.438"/>
</g>
<!-- Node3 -->
<g id="node3" class="node"><title>Node3</title>
<g id="a_node3"><a xlink:href="_serial_2_r_p2040_2_uart_2_input_output_8h.html" target="_top" xlink:title=" ">
<polygon fill="white" stroke="black" points="88.5,-123.5 88.5,-153.5 195.5,-153.5 195.5,-123.5 88.5,-123.5"/>
<text text-anchor="start" x="96.5" y="-141.5" font-family="Helvetica,sans-Serif" font-size="10.00">Cpl/Io/Serial/RP2040</text>
<text text-anchor="middle" x="142" y="-130.5" font-family="Helvetica,sans-Serif" font-size="10.00">/Uart/InputOutput.h</text>
</a>
</g>
</g>
<!-- Node1&#45;&gt;Node3 -->
<g id="edge2" class="edge"><title>Node1&#45;&gt;Node3</title>
<path fill="none" stroke="midnightblue" d="M318.724,-187.734C283.145,-178.023 231.621,-163.961 193.378,-153.523"/>
<polygon fill="midnightblue" stroke="midnightblue" points="318.197,-191.218 328.766,-190.475 320.04,-184.465 318.197,-191.218"/>
</g>
<!-- Node4 -->
<g id="node4" class="node"><title>Node4</title>
<g id="a_node4"><a xlink:href="_socket_2_input_output_8h.html" target="_top" xlink:title=" ">
<polygon fill="white" stroke="black" points="214,-129 214,-148 352,-148 352,-129 214,-129"/>
<text text-anchor="middle" x="283" y="-136" font-family="Helvetica,sans-Serif" font-size="10.00">Cpl/Io/Socket/InputOutput.h</text>
</a>
</g>
</g>
<!-- Node1&#45;&gt;Node4 -->
<g id="edge3" class="edge"><title>Node1&#45;&gt;Node4</title>
<path fill="none" stroke="midnightblue" d="M340.968,-184.294C326.198,-172.88 306.239,-157.458 294.012,-148.009"/>
<polygon fill="midnightblue" stroke="midnightblue" points="338.915,-187.13 348.968,-190.475 343.195,-181.591 338.915,-187.13"/>
</g>
<!-- Node8 -->
<g id="node8" class="node"><title>Node8</title>
<g id="a_node8"><a xlink:href="_cpl_2_io_2_stdio_2_input_output___8h.html" target="_top" xlink:title=" ">
<polygon fill="white" stroke="black" points="370.5,-129 370.5,-148 505.5,-148 505.5,-129 370.5,-129"/>
<text text-anchor="middle" x="438" y="-136" font-family="Helvetica,sans-Serif" font-size="10.00">Cpl/Io/Stdio/InputOutput_.h</text>
</a>
</g>
</g>
<!-- Node1&#45;&gt;Node8 -->
<g id="edge8" class="edge"><title>Node1&#45;&gt;Node8</title>
<path fill="none" stroke="midnightblue" d="M379.279,-184.294C394.241,-172.88 414.459,-157.458 426.845,-148.009"/>
<polygon fill="midnightblue" stroke="midnightblue" points="377.004,-181.627 371.175,-190.475 381.249,-187.193 377.004,-181.627"/>
</g>
<!-- Node10 -->
<g id="node10" class="node"><title>Node10</title>
<g id="a_node10"><a xlink:href="_console_8h.html" target="_top" xlink:title="This interface provides a &#39;Console&#39; replacement for SDK&#39;s stdio.">
<polygon fill="white" stroke="black" points="524,-129 524,-148 676,-148 676,-129 524,-129"/>
<text text-anchor="middle" x="600" y="-136" font-family="Helvetica,sans-Serif" font-size="10.00">Cpl/System/RP2040/Console.h</text>
</a>
</g>
</g>
<!-- Node1&#45;&gt;Node10 -->
<g id="edge10" class="edge"><title>Node1&#45;&gt;Node10</title>
<path fill="none" stroke="midnightblue" d="M404.204,-188.041C450.797,-176.49 523.202,-158.539 565.678,-148.009"/>
<polygon fill="midnightblue" stroke="midnightblue" points="403.25,-184.672 394.386,-190.475 404.935,-191.466 403.25,-184.672"/>
</g>
<!-- Node11 -->
<g id="node11" class="node"><title>Node11</title>
<g id="a_node11"><a xlink:href="_driver_2_uart_2_stream_2_input_output___8h.html" target="_top" xlink:title=" ">
<polygon fill="white" stroke="black" points="694,-123.5 694,-153.5 792,-153.5 792,-123.5 694,-123.5"/>
<text text-anchor="start" x="702" y="-141.5" font-family="Helvetica,sans-Serif" font-size="10.00">Driver/Uart/Stream</text>
<text text-anchor="middle" x="743" y="-130.5" font-family="Helvetica,sans-Serif" font-size="10.00">/InputOutput_.h</text>
</a>
</g>
</g>
<!-- Node1&#45;&gt;Node11 -->
<g id="edge11" class="edge"><title>Node1&#45;&gt;Node11</title>
<path fill="none" stroke="midnightblue" d="M422.248,-192.394C487.908,-184.956 594.228,-171.578 685,-154 687.853,-153.447 690.776,-152.842 693.719,-152.203"/>
<polygon fill="midnightblue" stroke="midnightblue" points="421.615,-188.943 412.068,-193.536 422.396,-195.899 421.615,-188.943"/>
</g>
<!-- Node5 -->
<g id="node5" class="node"><title>Node5</title>
<g id="a_node5"><a xlink:href="_factory_8h.html" target="_top" xlink:title=" ">
<polygon fill="white" stroke="black" points="106,-62 106,-81 226,-81 226,-62 106,-62"/>
<text text-anchor="middle" x="166" y="-69" font-family="Helvetica,sans-Serif" font-size="10.00">Cpl/Io/Socket/Factory.h</text>
</a>
</g>
</g>
<!-- Node4&#45;&gt;Node5 -->
<g id="edge4" class="edge"><title>Node4&#45;&gt;Node5</title>
<path fill="none" stroke="midnightblue" d="M258.317,-123.787C235.128,-110.905 201.144,-92.0243 181.529,-81.1273"/>
<polygon fill="midnightblue" stroke="midnightblue" points="256.78,-126.937 267.221,-128.734 260.179,-120.818 256.78,-126.937"/>
</g>
<!-- Node6 -->
<g id="node6" class="node"><title>Node6</title>
<g id="a_node6"><a xlink:href="_stream_pool_8h.html" target="_top" xlink:title=" ">
<polygon fill="white" stroke="black" points="141,-0.5 141,-19.5 279,-19.5 279,-0.5 141,-0.5"/>
<text text-anchor="middle" x="210" y="-7.5" font-family="Helvetica,sans-Serif" font-size="10.00">Cpl/Io/Socket/StreamPool.h</text>
</a>
</g>
</g>
<!-- Node4&#45;&gt;Node6 -->
<g id="edge6" class="edge"><title>Node4&#45;&gt;Node6</title>
<path fill="none" stroke="midnightblue" d="M272.845,-119.903C256.997,-92.4401 226.966,-40.3995 215.053,-19.7557"/>
<polygon fill="midnightblue" stroke="midnightblue" points="269.953,-121.893 277.982,-128.805 276.016,-118.394 269.953,-121.893"/>
</g>
<!-- Node7 -->
<g id="node7" class="node"><title>Node7</title>
<g id="a_node7"><a xlink:href="_socket_8h.html" target="_top" xlink:title=" ">
<polygon fill="white" stroke="black" points="282,-62 282,-81 386,-81 386,-62 282,-62"/>
<text text-anchor="middle" x="334" y="-69" font-family="Helvetica,sans-Serif" font-size="10.00">Cpl/TShell/Socket.h</text>
</a>
</g>
</g>
<!-- Node4&#45;&gt;Node7 -->
<g id="edge7" class="edge"><title>Node4&#45;&gt;Node7</title>
<path fill="none" stroke="midnightblue" d="M296.126,-120.77C306.07,-108.097 319.327,-91.201 327.231,-81.1273"/>
<polygon fill="midnightblue" stroke="midnightblue" points="293.297,-118.706 289.878,-128.734 298.805,-123.027 293.297,-118.706"/>
</g>
<!-- Node5&#45;&gt;Node6 -->
<g id="edge5" class="edge"><title>Node5&#45;&gt;Node6</title>
<path fill="none" stroke="midnightblue" d="M178.322,-53.8377C186.581,-42.6694 197.112,-28.4278 203.708,-19.5091"/>
<polygon fill="midnightblue" stroke="midnightblue" points="175.436,-51.8537 172.304,-61.9751 181.064,-56.0158 175.436,-51.8537"/>
</g>
<!-- Node9 -->
<g id="node9" class="node"><title>Node9</title>
<g id="a_node9"><a xlink:href="_file_2_input_output_8h.html" target="_top" xlink:title=" ">
<polygon fill="white" stroke="black" points="404.5,-62 404.5,-81 527.5,-81 527.5,-62 404.5,-62"/>
<text text-anchor="middle" x="466" y="-69" font-family="Helvetica,sans-Serif" font-size="10.00">Cpl/Io/File/InputOutput.h</text>
</a>
</g>
</g>
<!-- Node8&#45;&gt;Node9 -->
<g id="edge9" class="edge"><title>Node8&#45;&gt;Node9</title>
<path fill="none" stroke="midnightblue" d="M445.844,-119.29C451.221,-106.808 458.111,-90.8135 462.284,-81.1273"/>
<polygon fill="midnightblue" stroke="midnightblue" points="442.518,-118.165 441.776,-128.734 448.947,-120.934 442.518,-118.165"/>
</g>
<!-- Node12 -->
<g id="node12" class="node"><title>Node12</title>
<g id="a_node12"><a xlink:href="_serial_2_renesas_2_rx62n_2_input_output_8h.html" target="_top" xlink:title=" ">
<polygon fill="white" stroke="black" points="687.5,-56.5 687.5,-86.5 798.5,-86.5 798.5,-56.5 687.5,-56.5"/>
<text text-anchor="start" x="695.5" y="-74.5" font-family="Helvetica,sans-Serif" font-size="10.00">Cpl/Io/Serial/Renesas</text>
<text text-anchor="middle" x="743" y="-63.5" font-family="Helvetica,sans-Serif" font-size="10.00">/Rx62n/InputOutput.h</text>
</a>
</g>
</g>
<!-- Node11&#45;&gt;Node12 -->
<g id="edge12" class="edge"><title>Node11&#45;&gt;Node12</title>
<path fill="none" stroke="midnightblue" d="M743,-113.108C743,-104.154 743,-94.3227 743,-86.5765"/>
<polygon fill="midnightblue" stroke="midnightblue" points="739.5,-113.396 743,-123.396 746.5,-113.396 739.5,-113.396"/>
</g>
</g>
</svg>
