<?xml version="1.0" encoding="UTF-8" standalone="no"?>
<!DOCTYPE svg PUBLIC "-//W3C//DTD SVG 1.1//EN"
 "http://www.w3.org/Graphics/SVG/1.1/DTD/svg11.dtd">
<!-- Generated by graphviz version 2.38.0 (20140413.2041)
 -->
<!-- Title: Cpl/Io/Input.h Pages: 1 -->
<svg width="2354pt" height="352pt"
 viewBox="0.00 0.00 2354.00 352.00" xmlns="http://www.w3.org/2000/svg" xmlns:xlink="http://www.w3.org/1999/xlink">
<g id="graph0" class="graph" transform="scale(1 1) rotate(0) translate(4 348)">
<title>Cpl/Io/Input.h</title>
<polygon fill="white" stroke="none" points="-4,4 -4,-348 2350,-348 2350,4 -4,4"/>
<!-- Node1 -->
<g id="node1" class="node"><title>Node1</title>
<g id="a_node1"><a xlink:title=" ">
<polygon fill="#bfbfbf" stroke="black" points="1217,-324.5 1217,-343.5 1292,-343.5 1292,-324.5 1217,-324.5"/>
<text text-anchor="middle" x="1254.5" y="-331.5" font-family="Helvetica,sans-Serif" font-size="10.00">Cpl/Io/Input.h</text>
</a>
</g>
</g>
<!-- Node2 -->
<g id="node2" class="node"><title>Node2</title>
<g id="a_node2"><a xlink:href="_input_api_8h.html" target="_top" xlink:title=" ">
<polygon fill="white" stroke="black" points="148.5,-263 148.5,-282 256.5,-282 256.5,-263 148.5,-263"/>
<text text-anchor="middle" x="202.5" y="-270" font-family="Helvetica,sans-Serif" font-size="10.00">Cpl/Io/File/InputApi.h</text>
</a>
</g>
</g>
<!-- Node1&#45;&gt;Node2 -->
<g id="edge1" class="edge"><title>Node1&#45;&gt;Node2</title>
<path fill="none" stroke="midnightblue" d="M1206.86,-331.777C1070.16,-328.031 664.901,-315.276 329.5,-288 305.612,-286.057 279.276,-283.173 256.809,-280.487"/>
<polygon fill="midnightblue" stroke="midnightblue" points="1206.9,-335.279 1217,-332.051 1207.09,-328.282 1206.9,-335.279"/>
</g>
<!-- Node7 -->
<g id="node7" class="node"><title>Node7</title>
<g id="a_node7"><a xlink:href="_input_output_8h.html" target="_top" xlink:title=" ">
<polygon fill="white" stroke="black" points="747.5,-263 747.5,-282 851.5,-282 851.5,-263 747.5,-263"/>
<text text-anchor="middle" x="799.5" y="-270" font-family="Helvetica,sans-Serif" font-size="10.00">Cpl/Io/InputOutput.h</text>
</a>
</g>
</g>
<!-- Node1&#45;&gt;Node7 -->
<g id="edge6" class="edge"><title>Node1&#45;&gt;Node7</title>
<path fill="none" stroke="midnightblue" d="M1206.88,-326.773C1120.95,-315.535 940.626,-291.955 851.557,-280.307"/>
<polygon fill="midnightblue" stroke="midnightblue" points="1206.51,-330.254 1216.88,-328.08 1207.42,-323.313 1206.51,-330.254"/>
</g>
<!-- Node18 -->
<g id="node18" class="node"><title>Node18</title>
<g id="a_node18"><a xlink:href="_line_reader_8h.html" target="_top" xlink:title=" ">
<polygon fill="white" stroke="black" points="1329.5,-263 1329.5,-282 1431.5,-282 1431.5,-263 1329.5,-263"/>
<text text-anchor="middle" x="1380.5" y="-270" font-family="Helvetica,sans-Serif" font-size="10.00">Cpl/Io/LineReader.h</text>
</a>
</g>
</g>
<!-- Node1&#45;&gt;Node18 -->
<g id="edge19" class="edge"><title>Node1&#45;&gt;Node18</title>
<path fill="none" stroke="midnightblue" d="M1281.66,-320.174C1306.11,-308.629 1341.35,-291.987 1362.48,-282.009"/>
<polygon fill="midnightblue" stroke="midnightblue" points="1280.1,-317.04 1272.55,-324.475 1283.09,-323.37 1280.1,-317.04"/>
</g>
<!-- Node19 -->
<g id="node19" class="node"><title>Node19</title>
<g id="a_node19"><a xlink:href="_serial_2_r_p2040_2_stdio_2_input_8h.html" target="_top" xlink:title=" ">
<polygon fill="white" stroke="black" points="1450,-257.5 1450,-287.5 1557,-287.5 1557,-257.5 1450,-257.5"/>
<text text-anchor="start" x="1458" y="-275.5" font-family="Helvetica,sans-Serif" font-size="10.00">Cpl/Io/Serial/RP2040</text>
<text text-anchor="middle" x="1503.5" y="-264.5" font-family="Helvetica,sans-Serif" font-size="10.00">/Stdio/Input.h</text>
</a>
</g>
</g>
<!-- Node1&#45;&gt;Node19 -->
<g id="edge20" class="edge"><title>Node1&#45;&gt;Node19</title>
<path fill="none" stroke="midnightblue" d="M1300.16,-322.089C1342.31,-312.016 1404.95,-297.049 1449.55,-286.391"/>
<polygon fill="midnightblue" stroke="midnightblue" points="1299.09,-318.747 1290.18,-324.475 1300.72,-325.555 1299.09,-318.747"/>
</g>
<!-- Node20 -->
<g id="node20" class="node"><title>Node20</title>
<g id="a_node20"><a xlink:href="_input___8h.html" target="_top" xlink:title=" ">
<polygon fill="white" stroke="black" points="338.5,-263 338.5,-282 444.5,-282 444.5,-263 338.5,-263"/>
<text text-anchor="middle" x="391.5" y="-270" font-family="Helvetica,sans-Serif" font-size="10.00">Cpl/Io/Stdio/Input_.h</text>
</a>
</g>
</g>
<!-- Node1&#45;&gt;Node20 -->
<g id="edge21" class="edge"><title>Node1&#45;&gt;Node20</title>
<path fill="none" stroke="midnightblue" d="M1206.66,-329.701C1057.39,-319.41 600.923,-287.939 444.64,-277.164"/>
<polygon fill="midnightblue" stroke="midnightblue" points="1206.65,-333.209 1216.86,-330.405 1207.13,-326.225 1206.65,-333.209"/>
</g>
<!-- Node22 -->
<g id="node22" class="node"><title>Node22</title>
<g id="a_node22"><a xlink:href="_system_2_r_p2040_2_stdio_8h.html" target="_top" xlink:title="This interface returns the Cpl Io Stream for the for SDK&#39;s stdio.">
<polygon fill="white" stroke="black" points="1575,-263 1575,-282 1714,-282 1714,-263 1575,-263"/>
<text text-anchor="middle" x="1644.5" y="-270" font-family="Helvetica,sans-Serif" font-size="10.00">Cpl/System/RP2040/Stdio.h</text>
</a>
</g>
</g>
<!-- Node1&#45;&gt;Node22 -->
<g id="edge25" class="edge"><title>Node1&#45;&gt;Node22</title>
<path fill="none" stroke="midnightblue" d="M1302.17,-326.736C1363.45,-318.544 1473.09,-303.412 1566.5,-288 1577.51,-286.184 1589.36,-284.065 1600.42,-282.018"/>
<polygon fill="midnightblue" stroke="midnightblue" points="1301.49,-323.296 1292.04,-328.087 1302.41,-330.235 1301.49,-323.296"/>
</g>
<!-- Node23 -->
<g id="node23" class="node"><title>Node23</title>
<g id="a_node23"><a xlink:href="_processor_api_8h.html" target="_top" xlink:title=" ">
<polygon fill="white" stroke="black" points="1142,-263 1142,-282 1273,-282 1273,-263 1142,-263"/>
<text text-anchor="middle" x="1207.5" y="-270" font-family="Helvetica,sans-Serif" font-size="10.00">Cpl/TShell/ProcessorApi.h</text>
</a>
</g>
</g>
<!-- Node1&#45;&gt;Node23 -->
<g id="edge26" class="edge"><title>Node1&#45;&gt;Node23</title>
<path fill="none" stroke="midnightblue" d="M1241.34,-316.338C1232.52,-305.169 1221.27,-290.928 1214.22,-282.009"/>
<polygon fill="midnightblue" stroke="midnightblue" points="1238.82,-318.797 1247.77,-324.475 1244.31,-314.458 1238.82,-318.797"/>
</g>
<!-- Node40 -->
<g id="node40" class="node"><title>Node40</title>
<g id="a_node40"><a xlink:href="_stream_decoder_8h.html" target="_top" xlink:title=" ">
<polygon fill="white" stroke="black" points="1943,-196 1943,-215 2106,-215 2106,-196 1943,-196"/>
<text text-anchor="middle" x="2024.5" y="-203" font-family="Helvetica,sans-Serif" font-size="10.00">Cpl/Text/Frame/StreamDecoder.h</text>
</a>
</g>
</g>
<!-- Node1&#45;&gt;Node40 -->
<g id="edge44" class="edge"><title>Node1&#45;&gt;Node40</title>
<path fill="none" stroke="midnightblue" d="M1264.08,-315.471C1275.07,-297.298 1294.92,-269.793 1320.5,-257 1374.96,-229.771 1769.19,-214.383 1942.79,-208.862"/>
<polygon fill="midnightblue" stroke="midnightblue" points="1260.86,-314.041 1258.9,-324.454 1266.93,-317.535 1260.86,-314.041"/>
</g>
<!-- Node3 -->
<g id="node3" class="node"><title>Node3</title>
<g id="a_node3"><a xlink:href="_file_2_input_8h.html" target="_top" xlink:title=" ">
<polygon fill="white" stroke="black" points="155.5,-196 155.5,-215 249.5,-215 249.5,-196 155.5,-196"/>
<text text-anchor="middle" x="202.5" y="-203" font-family="Helvetica,sans-Serif" font-size="10.00">Cpl/Io/File/Input.h</text>
</a>
</g>
</g>
<!-- Node2&#45;&gt;Node3 -->
<g id="edge2" class="edge"><title>Node2&#45;&gt;Node3</title>
<path fill="none" stroke="midnightblue" d="M202.5,-252.537C202.5,-240.17 202.5,-224.62 202.5,-215.127"/>
<polygon fill="midnightblue" stroke="midnightblue" points="199,-252.734 202.5,-262.734 206,-252.734 199,-252.734"/>
</g>
<!-- Node4 -->
<g id="node4" class="node"><title>Node4</title>
<g id="a_node4"><a xlink:href="_input_output_api_8h.html" target="_top" xlink:title=" ">
<polygon fill="white" stroke="black" points="0,-196 0,-215 137,-215 137,-196 0,-196"/>
<text text-anchor="middle" x="68.5" y="-203" font-family="Helvetica,sans-Serif" font-size="10.00">Cpl/Io/File/InputOutputApi.h</text>
</a>
</g>
</g>
<!-- Node2&#45;&gt;Node4 -->
<g id="edge3" class="edge"><title>Node2&#45;&gt;Node4</title>
<path fill="none" stroke="midnightblue" d="M175.584,-258.444C149.042,-245.569 109.23,-226.257 86.3678,-215.167"/>
<polygon fill="midnightblue" stroke="midnightblue" points="174.181,-261.653 184.706,-262.869 177.236,-255.355 174.181,-261.653"/>
</g>
<!-- Node5 -->
<g id="node5" class="node"><title>Node5</title>
<g id="a_node5"><a xlink:href="_file_2_input_output_8h.html" target="_top" xlink:title=" ">
<polygon fill="white" stroke="black" points="262,-129 262,-148 385,-148 385,-129 262,-129"/>
<text text-anchor="middle" x="323.5" y="-136" font-family="Helvetica,sans-Serif" font-size="10.00">Cpl/Io/File/InputOutput.h</text>
</a>
</g>
</g>
<!-- Node4&#45;&gt;Node5 -->
<g id="edge4" class="edge"><title>Node4&#45;&gt;Node5</title>
<path fill="none" stroke="midnightblue" d="M112.031,-193.404C162.357,-180.576 244.112,-159.736 289.827,-148.083"/>
<polygon fill="midnightblue" stroke="midnightblue" points="110.925,-190.074 102.099,-195.936 112.654,-196.857 110.925,-190.074"/>
</g>
<!-- Node6 -->
<g id="node6" class="node"><title>Node6</title>
<g id="a_node6"><a xlink:href="_file_2_null_8h.html" target="_top" xlink:title=" ">
<polygon fill="white" stroke="black" points="24,-129 24,-148 113,-148 113,-129 24,-129"/>
<text text-anchor="middle" x="68.5" y="-136" font-family="Helvetica,sans-Serif" font-size="10.00">Cpl/Io/File/Null.h</text>
</a>
</g>
</g>
<!-- Node4&#45;&gt;Node6 -->
<g id="edge5" class="edge"><title>Node4&#45;&gt;Node6</title>
<path fill="none" stroke="midnightblue" d="M68.5,-185.537C68.5,-173.17 68.5,-157.62 68.5,-148.127"/>
<polygon fill="midnightblue" stroke="midnightblue" points="65.0001,-185.734 68.5,-195.734 72.0001,-185.734 65.0001,-185.734"/>
</g>
<!-- Node8 -->
<g id="node8" class="node"><title>Node8</title>
<g id="a_node8"><a xlink:href="_null_8h.html" target="_top" xlink:title=" ">
<polygon fill="white" stroke="black" points="657.5,-196 657.5,-215 727.5,-215 727.5,-196 657.5,-196"/>
<text text-anchor="middle" x="692.5" y="-203" font-family="Helvetica,sans-Serif" font-size="10.00">Cpl/Io/Null.h</text>
</a>
</g>
</g>
<!-- Node7&#45;&gt;Node8 -->
<g id="edge7" class="edge"><title>Node7&#45;&gt;Node8</title>
<path fill="none" stroke="midnightblue" d="M776.359,-257.442C755.169,-244.57 724.481,-225.927 706.702,-215.127"/>
<polygon fill="midnightblue" stroke="midnightblue" points="774.706,-260.533 785.07,-262.734 778.34,-254.551 774.706,-260.533"/>
</g>
<!-- Node9 -->
<g id="node9" class="node"><title>Node9</title>
<g id="a_node9"><a xlink:href="_serial_2_r_p2040_2_uart_2_input_output_8h.html" target="_top" xlink:title=" ">
<polygon fill="white" stroke="black" points="746,-190.5 746,-220.5 853,-220.5 853,-190.5 746,-190.5"/>
<text text-anchor="start" x="754" y="-208.5" font-family="Helvetica,sans-Serif" font-size="10.00">Cpl/Io/Serial/RP2040</text>
<text text-anchor="middle" x="799.5" y="-197.5" font-family="Helvetica,sans-Serif" font-size="10.00">/Uart/InputOutput.h</text>
</a>
</g>
</g>
<!-- Node7&#45;&gt;Node9 -->
<g id="edge8" class="edge"><title>Node7&#45;&gt;Node9</title>
<path fill="none" stroke="midnightblue" d="M799.5,-252.411C799.5,-242.222 799.5,-229.901 799.5,-220.589"/>
<polygon fill="midnightblue" stroke="midnightblue" points="796,-252.734 799.5,-262.734 803,-252.734 796,-252.734"/>
</g>
<!-- Node10 -->
<g id="node10" class="node"><title>Node10</title>
<g id="a_node10"><a xlink:href="_socket_2_input_output_8h.html" target="_top" xlink:title=" ">
<polygon fill="white" stroke="black" points="871.5,-196 871.5,-215 1009.5,-215 1009.5,-196 871.5,-196"/>
<text text-anchor="middle" x="940.5" y="-203" font-family="Helvetica,sans-Serif" font-size="10.00">Cpl/Io/Socket/InputOutput.h</text>
</a>
</g>
</g>
<!-- Node7&#45;&gt;Node10 -->
<g id="edge9" class="edge"><title>Node7&#45;&gt;Node10</title>
<path fill="none" stroke="midnightblue" d="M827.456,-258.613C855.382,-245.739 897.536,-226.306 921.699,-215.167"/>
<polygon fill="midnightblue" stroke="midnightblue" points="825.84,-255.503 818.224,-262.869 828.77,-261.86 825.84,-255.503"/>
</g>
<!-- Node14 -->
<g id="node14" class="node"><title>Node14</title>
<g id="a_node14"><a xlink:href="_cpl_2_io_2_stdio_2_input_output___8h.html" target="_top" xlink:title=" ">
<polygon fill="white" stroke="black" points="388,-196 388,-215 523,-215 523,-196 388,-196"/>
<text text-anchor="middle" x="455.5" y="-203" font-family="Helvetica,sans-Serif" font-size="10.00">Cpl/Io/Stdio/InputOutput_.h</text>
</a>
</g>
</g>
<!-- Node7&#45;&gt;Node14 -->
<g id="edge14" class="edge"><title>Node7&#45;&gt;Node14</title>
<path fill="none" stroke="midnightblue" d="M744.127,-261.037C676.468,-248.253 563.292,-226.868 500.653,-215.032"/>
<polygon fill="midnightblue" stroke="midnightblue" points="743.698,-264.518 754.174,-262.936 744.998,-257.64 743.698,-264.518"/>
</g>
<!-- Node15 -->
<g id="node15" class="node"><title>Node15</title>
<g id="a_node15"><a xlink:href="_console_8h.html" target="_top" xlink:title="This interface provides a &#39;Console&#39; replacement for SDK&#39;s stdio.">
<polygon fill="white" stroke="black" points="1027.5,-196 1027.5,-215 1179.5,-215 1179.5,-196 1027.5,-196"/>
<text text-anchor="middle" x="1103.5" y="-203" font-family="Helvetica,sans-Serif" font-size="10.00">Cpl/System/RP2040/Console.h</text>
</a>
</g>
</g>
<!-- Node7&#45;&gt;Node15 -->
<g id="edge16" class="edge"><title>Node7&#45;&gt;Node15</title>
<path fill="none" stroke="midnightblue" d="M849.529,-260.803C909.353,-248.012 1008.29,-226.858 1063.36,-215.083"/>
<polygon fill="midnightblue" stroke="midnightblue" points="848.602,-257.422 839.555,-262.936 850.066,-264.267 848.602,-257.422"/>
</g>
<!-- Node16 -->
<g id="node16" class="node"><title>Node16</title>
<g id="a_node16"><a xlink:href="_driver_2_uart_2_stream_2_input_output___8h.html" target="_top" xlink:title=" ">
<polygon fill="white" stroke="black" points="541.5,-190.5 541.5,-220.5 639.5,-220.5 639.5,-190.5 541.5,-190.5"/>
<text text-anchor="start" x="549.5" y="-208.5" font-family="Helvetica,sans-Serif" font-size="10.00">Driver/Uart/Stream</text>
<text text-anchor="middle" x="590.5" y="-197.5" font-family="Helvetica,sans-Serif" font-size="10.00">/InputOutput_.h</text>
</a>
</g>
</g>
<!-- Node7&#45;&gt;Node16 -->
<g id="edge17" class="edge"><title>Node7&#45;&gt;Node16</title>
<path fill="none" stroke="midnightblue" d="M761.799,-259.775C726.361,-248.753 673.275,-232.244 635.606,-220.528"/>
<polygon fill="midnightblue" stroke="midnightblue" points="761.158,-263.241 771.746,-262.869 763.237,-256.557 761.158,-263.241"/>
</g>
<!-- Node11 -->
<g id="node11" class="node"><title>Node11</title>
<g id="a_node11"><a xlink:href="_factory_8h.html" target="_top" xlink:title=" ">
<polygon fill="white" stroke="black" points="878.5,-129 878.5,-148 998.5,-148 998.5,-129 878.5,-129"/>
<text text-anchor="middle" x="938.5" y="-136" font-family="Helvetica,sans-Serif" font-size="10.00">Cpl/Io/Socket/Factory.h</text>
</a>
</g>
</g>
<!-- Node10&#45;&gt;Node11 -->
<g id="edge10" class="edge"><title>Node10&#45;&gt;Node11</title>
<path fill="none" stroke="midnightblue" d="M939.917,-185.537C939.536,-173.17 939.058,-157.62 938.765,-148.127"/>
<polygon fill="midnightblue" stroke="midnightblue" points="936.424,-185.846 940.23,-195.734 943.421,-185.631 936.424,-185.846"/>
</g>
<!-- Node12 -->
<g id="node12" class="node"><title>Node12</title>
<g id="a_node12"><a xlink:href="_stream_pool_8h.html" target="_top" xlink:title=" ">
<polygon fill="white" stroke="black" points="775.5,-67.5 775.5,-86.5 913.5,-86.5 913.5,-67.5 775.5,-67.5"/>
<text text-anchor="middle" x="844.5" y="-74.5" font-family="Helvetica,sans-Serif" font-size="10.00">Cpl/Io/Socket/StreamPool.h</text>
</a>
</g>
</g>
<!-- Node10&#45;&gt;Node12 -->
<g id="edge12" class="edge"><title>Node10&#45;&gt;Node12</title>
<path fill="none" stroke="midnightblue" d="M913.741,-191.013C898.837,-182.281 881.02,-169.629 869.5,-154 854.007,-132.98 847.786,-101.846 845.575,-86.7888"/>
<polygon fill="midnightblue" stroke="midnightblue" points="912.124,-194.118 922.562,-195.934 915.534,-188.005 912.124,-194.118"/>
</g>
<!-- Node13 -->
<g id="node13" class="node"><title>Node13</title>
<g id="a_node13"><a xlink:href="_socket_8h.html" target="_top" xlink:title=" ">
<polygon fill="white" stroke="black" points="1087.5,-129 1087.5,-148 1191.5,-148 1191.5,-129 1087.5,-129"/>
<text text-anchor="middle" x="1139.5" y="-136" font-family="Helvetica,sans-Serif" font-size="10.00">Cpl/TShell/Socket.h</text>
</a>
</g>
</g>
<!-- Node10&#45;&gt;Node13 -->
<g id="edge13" class="edge"><title>Node10&#45;&gt;Node13</title>
<path fill="none" stroke="midnightblue" d="M976.677,-192.683C1016.12,-179.8 1078.28,-159.497 1113.28,-148.064"/>
<polygon fill="midnightblue" stroke="midnightblue" points="975.345,-189.437 966.926,-195.869 977.518,-196.091 975.345,-189.437"/>
</g>
<!-- Node11&#45;&gt;Node12 -->
<g id="edge11" class="edge"><title>Node11&#45;&gt;Node12</title>
<path fill="none" stroke="midnightblue" d="M916.271,-123.43C898.149,-111.959 873.149,-96.1343 857.943,-86.5091"/>
<polygon fill="midnightblue" stroke="midnightblue" points="914.711,-126.584 925.032,-128.975 918.454,-120.669 914.711,-126.584"/>
</g>
<!-- Node14&#45;&gt;Node5 -->
<g id="edge15" class="edge"><title>Node14&#45;&gt;Node5</title>
<path fill="none" stroke="midnightblue" d="M428.986,-191.444C402.84,-178.569 363.622,-159.257 341.101,-148.167"/>
<polygon fill="midnightblue" stroke="midnightblue" points="427.454,-194.591 437.971,-195.869 430.546,-188.311 427.454,-194.591"/>
</g>
<!-- Node17 -->
<g id="node17" class="node"><title>Node17</title>
<g id="a_node17"><a xlink:href="_serial_2_renesas_2_rx62n_2_input_output_8h.html" target="_top" xlink:title=" ">
<polygon fill="white" stroke="black" points="535,-123.5 535,-153.5 646,-153.5 646,-123.5 535,-123.5"/>
<text text-anchor="start" x="543" y="-141.5" font-family="Helvetica,sans-Serif" font-size="10.00">Cpl/Io/Serial/Renesas</text>
<text text-anchor="middle" x="590.5" y="-130.5" font-family="Helvetica,sans-Serif" font-size="10.00">/Rx62n/InputOutput.h</text>
</a>
</g>
</g>
<!-- Node16&#45;&gt;Node17 -->
<g id="edge18" class="edge"><title>Node16&#45;&gt;Node17</title>
<path fill="none" stroke="midnightblue" d="M590.5,-180.108C590.5,-171.154 590.5,-161.323 590.5,-153.577"/>
<polygon fill="midnightblue" stroke="midnightblue" points="587,-180.396 590.5,-190.396 594,-180.396 587,-180.396"/>
</g>
<!-- Node20&#45;&gt;Node3 -->
<g id="edge22" class="edge"><title>Node20&#45;&gt;Node3</title>
<path fill="none" stroke="midnightblue" d="M356.902,-259.601C319.429,-246.714 260.575,-226.473 227.401,-215.064"/>
<polygon fill="midnightblue" stroke="midnightblue" points="355.808,-262.926 366.402,-262.869 358.084,-256.307 355.808,-262.926"/>
</g>
<!-- Node20&#45;&gt;Node14 -->
<g id="edge23" class="edge"><title>Node20&#45;&gt;Node14</title>
<path fill="none" stroke="midnightblue" d="M407.257,-255.497C419.808,-242.75 436.896,-225.395 447.005,-215.127"/>
<polygon fill="midnightblue" stroke="midnightblue" points="404.653,-253.152 400.131,-262.734 409.641,-258.064 404.653,-253.152"/>
</g>
<!-- Node21 -->
<g id="node21" class="node"><title>Node21</title>
<g id="a_node21"><a xlink:href="_std_in_8h.html" target="_top" xlink:title=" ">
<polygon fill="white" stroke="black" points="267.5,-196 267.5,-215 369.5,-215 369.5,-196 267.5,-196"/>
<text text-anchor="middle" x="318.5" y="-203" font-family="Helvetica,sans-Serif" font-size="10.00">Cpl/Io/Stdio/StdIn.h</text>
</a>
</g>
</g>
<!-- Node20&#45;&gt;Node21 -->
<g id="edge24" class="edge"><title>Node20&#45;&gt;Node21</title>
<path fill="none" stroke="midnightblue" d="M373.931,-255.856C359.58,-243.078 339.829,-225.492 328.189,-215.127"/>
<polygon fill="midnightblue" stroke="midnightblue" points="371.859,-258.698 381.655,-262.734 376.514,-253.47 371.859,-258.698"/>
</g>
<!-- Node23&#45;&gt;Node13 -->
<g id="edge42" class="edge"><title>Node23&#45;&gt;Node13</title>
<path fill="none" stroke="midnightblue" d="M1205.98,-252.474C1203.94,-235.267 1199.25,-209.686 1188.5,-190 1179.13,-172.844 1162.34,-157.406 1151.05,-148.241"/>
<polygon fill="midnightblue" stroke="midnightblue" points="1202.54,-253.265 1207,-262.873 1209.5,-252.578 1202.54,-253.265"/>
</g>
<!-- Node24 -->
<g id="node24" class="node"><title>Node24</title>
<g id="a_node24"><a xlink:href="_context___8h.html" target="_top" xlink:title=" ">
<polygon fill="white" stroke="black" points="1350.5,-196 1350.5,-215 1462.5,-215 1462.5,-196 1350.5,-196"/>
<text text-anchor="middle" x="1406.5" y="-203" font-family="Helvetica,sans-Serif" font-size="10.00">Cpl/TShell/Context_.h</text>
</a>
</g>
</g>
<!-- Node23&#45;&gt;Node24 -->
<g id="edge27" class="edge"><title>Node23&#45;&gt;Node24</title>
<path fill="none" stroke="midnightblue" d="M1243.68,-259.683C1283.12,-246.8 1345.28,-226.497 1380.28,-215.064"/>
<polygon fill="midnightblue" stroke="midnightblue" points="1242.34,-256.437 1233.93,-262.869 1244.52,-263.091 1242.34,-256.437"/>
</g>
<!-- Node39 -->
<g id="node39" class="node"><title>Node39</title>
<g id="a_node39"><a xlink:href="_t_shell_2_stdio_8h.html" target="_top" xlink:title=" ">
<polygon fill="white" stroke="black" points="1236,-196 1236,-215 1331,-215 1331,-196 1236,-196"/>
<text text-anchor="middle" x="1283.5" y="-203" font-family="Helvetica,sans-Serif" font-size="10.00">Cpl/TShell/Stdio.h</text>
</a>
</g>
</g>
<!-- Node23&#45;&gt;Node39 -->
<g id="edge43" class="edge"><title>Node23&#45;&gt;Node39</title>
<path fill="none" stroke="midnightblue" d="M1225.37,-256.213C1240.35,-243.407 1261.18,-225.588 1273.41,-215.127"/>
<polygon fill="midnightblue" stroke="midnightblue" points="1223.07,-253.574 1217.75,-262.734 1227.62,-258.894 1223.07,-253.574"/>
</g>
<!-- Node25 -->
<g id="node25" class="node"><title>Node25</title>
<g id="a_node25"><a xlink:href="_cmd_2_command_8h.html" target="_top" xlink:title=" ">
<polygon fill="white" stroke="black" points="1336.5,-129 1336.5,-148 1476.5,-148 1476.5,-129 1336.5,-129"/>
<text text-anchor="middle" x="1406.5" y="-136" font-family="Helvetica,sans-Serif" font-size="10.00">Cpl/TShell/Cmd/Command.h</text>
</a>
</g>
</g>
<!-- Node24&#45;&gt;Node25 -->
<g id="edge28" class="edge"><title>Node24&#45;&gt;Node25</title>
<path fill="none" stroke="midnightblue" d="M1406.5,-185.537C1406.5,-173.17 1406.5,-157.62 1406.5,-148.127"/>
<polygon fill="midnightblue" stroke="midnightblue" points="1403,-185.734 1406.5,-195.734 1410,-185.734 1403,-185.734"/>
</g>
<!-- Node35 -->
<g id="node35" class="node"><title>Node35</title>
<g id="a_node35"><a xlink:href="_processor_8h.html" target="_top" xlink:title=" ">
<polygon fill="white" stroke="black" points="1891,-129 1891,-148 2008,-148 2008,-129 1891,-129"/>
<text text-anchor="middle" x="1949.5" y="-136" font-family="Helvetica,sans-Serif" font-size="10.00">Cpl/TShell/Processor.h</text>
</a>
</g>
</g>
<!-- Node24&#45;&gt;Node35 -->
<g id="edge38" class="edge"><title>Node24&#45;&gt;Node35</title>
<path fill="none" stroke="midnightblue" d="M1472.59,-196.589C1579.56,-183.784 1788.9,-158.725 1890.87,-146.518"/>
<polygon fill="midnightblue" stroke="midnightblue" points="1472.08,-193.125 1462.57,-197.789 1472.91,-200.075 1472.08,-193.125"/>
</g>
<!-- Node26 -->
<g id="node26" class="node"><title>Node26</title>
<g id="a_node26"><a xlink:href="_dm_8h.html" target="_top" xlink:title=" ">
<polygon fill="white" stroke="black" points="1353.5,-67.5 1353.5,-86.5 1459.5,-86.5 1459.5,-67.5 1353.5,-67.5"/>
<text text-anchor="middle" x="1406.5" y="-74.5" font-family="Helvetica,sans-Serif" font-size="10.00">Cpl/Dm/TShell/Dm.h</text>
</a>
</g>
</g>
<!-- Node25&#45;&gt;Node26 -->
<g id="edge29" class="edge"><title>Node25&#45;&gt;Node26</title>
<path fill="none" stroke="midnightblue" d="M1406.5,-118.817C1406.5,-107.996 1406.5,-94.898 1406.5,-86.5091"/>
<polygon fill="midnightblue" stroke="midnightblue" points="1403,-118.975 1406.5,-128.975 1410,-118.975 1403,-118.975"/>
</g>
<!-- Node27 -->
<g id="node27" class="node"><title>Node27</title>
<g id="a_node27"><a xlink:href="_bye_8h.html" target="_top" xlink:title=" ">
<polygon fill="white" stroke="black" points="1478,-67.5 1478,-86.5 1591,-86.5 1591,-67.5 1478,-67.5"/>
<text text-anchor="middle" x="1534.5" y="-74.5" font-family="Helvetica,sans-Serif" font-size="10.00">Cpl/TShell/Cmd/Bye.h</text>
</a>
</g>
</g>
<!-- Node25&#45;&gt;Node27 -->
<g id="edge30" class="edge"><title>Node25&#45;&gt;Node27</title>
<path fill="none" stroke="midnightblue" d="M1434.09,-124.674C1458.93,-113.129 1494.73,-96.4875 1516.19,-86.5091"/>
<polygon fill="midnightblue" stroke="midnightblue" points="1432.43,-121.586 1424.84,-128.975 1435.38,-127.934 1432.43,-121.586"/>
</g>
<!-- Node28 -->
<g id="node28" class="node"><title>Node28</title>
<g id="a_node28"><a xlink:href="_help_8h.html" target="_top" xlink:title=" ">
<polygon fill="white" stroke="black" points="1609.5,-67.5 1609.5,-86.5 1725.5,-86.5 1725.5,-67.5 1609.5,-67.5"/>
<text text-anchor="middle" x="1667.5" y="-74.5" font-family="Helvetica,sans-Serif" font-size="10.00">Cpl/TShell/Cmd/Help.h</text>
</a>
</g>
</g>
<!-- Node25&#45;&gt;Node28 -->
<g id="edge31" class="edge"><title>Node25&#45;&gt;Node28</title>
<path fill="none" stroke="midnightblue" d="M1453.94,-126.686C1504.58,-115.141 1583.79,-97.0835 1630.17,-86.5091"/>
<polygon fill="midnightblue" stroke="midnightblue" points="1452.87,-123.34 1443.89,-128.975 1454.42,-130.165 1452.87,-123.34"/>
</g>
<!-- Node29 -->
<g id="node29" class="node"><title>Node29</title>
<g id="a_node29"><a xlink:href="_t_print_8h.html" target="_top" xlink:title=" ">
<polygon fill="white" stroke="black" points="1743.5,-67.5 1743.5,-86.5 1865.5,-86.5 1865.5,-67.5 1743.5,-67.5"/>
<text text-anchor="middle" x="1804.5" y="-74.5" font-family="Helvetica,sans-Serif" font-size="10.00">Cpl/TShell/Cmd/TPrint.h</text>
</a>
</g>
</g>
<!-- Node25&#45;&gt;Node29 -->
<g id="edge32" class="edge"><title>Node25&#45;&gt;Node29</title>
<path fill="none" stroke="midnightblue" d="M1473.58,-127.471C1550.49,-115.974 1675.22,-97.3264 1747.58,-86.5091"/>
<polygon fill="midnightblue" stroke="midnightblue" points="1472.9,-124.035 1463.52,-128.975 1473.93,-130.958 1472.9,-124.035"/>
</g>
<!-- Node30 -->
<g id="node30" class="node"><title>Node30</title>
<g id="a_node30"><a xlink:href="_threads_8h.html" target="_top" xlink:title=" ">
<polygon fill="white" stroke="black" points="932,-67.5 932,-86.5 1063,-86.5 1063,-67.5 932,-67.5"/>
<text text-anchor="middle" x="997.5" y="-74.5" font-family="Helvetica,sans-Serif" font-size="10.00">Cpl/TShell/Cmd/Threads.h</text>
</a>
</g>
</g>
<!-- Node25&#45;&gt;Node30 -->
<g id="edge33" class="edge"><title>Node25&#45;&gt;Node30</title>
<path fill="none" stroke="midnightblue" d="M1337.56,-127.471C1258.53,-115.974 1130.35,-97.3264 1055.99,-86.5091"/>
<polygon fill="midnightblue" stroke="midnightblue" points="1337.5,-130.999 1347.9,-128.975 1338.51,-124.072 1337.5,-130.999"/>
</g>
<!-- Node33 -->
<g id="node33" class="node"><title>Node33</title>
<g id="a_node33"><a xlink:href="_tick_8h.html" target="_top" xlink:title=" ">
<polygon fill="white" stroke="black" points="1081,-67.5 1081,-86.5 1196,-86.5 1196,-67.5 1081,-67.5"/>
<text text-anchor="middle" x="1138.5" y="-74.5" font-family="Helvetica,sans-Serif" font-size="10.00">Cpl/TShell/Cmd/Tick.h</text>
</a>
</g>
</g>
<!-- Node25&#45;&gt;Node33 -->
<g id="edge36" class="edge"><title>Node25&#45;&gt;Node33</title>
<path fill="none" stroke="midnightblue" d="M1358.12,-126.758C1306.13,-115.216 1224.56,-97.1056 1176.83,-86.5091"/>
<polygon fill="midnightblue" stroke="midnightblue" points="1357.58,-130.224 1368.1,-128.975 1359.1,-123.391 1357.58,-130.224"/>
</g>
<!-- Node34 -->
<g id="node34" class="node"><title>Node34</title>
<g id="a_node34"><a xlink:href="_t_shell_2_cmd_2_trace_8h.html" target="_top" xlink:title=" ">
<polygon fill="white" stroke="black" points="1214,-67.5 1214,-86.5 1335,-86.5 1335,-67.5 1214,-67.5"/>
<text text-anchor="middle" x="1274.5" y="-74.5" font-family="Helvetica,sans-Serif" font-size="10.00">Cpl/TShell/Cmd/Trace.h</text>
</a>
</g>
</g>
<!-- Node25&#45;&gt;Node34 -->
<g id="edge37" class="edge"><title>Node25&#45;&gt;Node34</title>
<path fill="none" stroke="midnightblue" d="M1378.39,-124.827C1352.76,-113.276 1315.61,-96.5316 1293.38,-86.5091"/>
<polygon fill="midnightblue" stroke="midnightblue" points="1377.03,-128.056 1387.59,-128.975 1379.91,-121.675 1377.03,-128.056"/>
</g>
<!-- Node31 -->
<g id="node31" class="node"><title>Node31</title>
<g id="a_node31"><a xlink:href="_free_r_t_o_s_2_threads_8h.html" target="_top" xlink:title=" ">
<polygon fill="white" stroke="black" points="1002.5,-0.5 1002.5,-30.5 1136.5,-30.5 1136.5,-0.5 1002.5,-0.5"/>
<text text-anchor="start" x="1010.5" y="-18.5" font-family="Helvetica,sans-Serif" font-size="10.00">Cpl/TShell/Cmd/FreeRTOS</text>
<text text-anchor="middle" x="1069.5" y="-7.5" font-family="Helvetica,sans-Serif" font-size="10.00">/Threads.h</text>
</a>
</g>
</g>
<!-- Node30&#45;&gt;Node31 -->
<g id="edge34" class="edge"><title>Node30&#45;&gt;Node31</title>
<path fill="none" stroke="midnightblue" d="M1015.75,-60.9215C1027.05,-51.579 1041.47,-39.6616 1052.53,-30.523"/>
<polygon fill="midnightblue" stroke="midnightblue" points="1013.29,-58.4069 1007.82,-67.4751 1017.75,-63.8028 1013.29,-58.4069"/>
</g>
<!-- Node32 -->
<g id="node32" class="node"><title>Node32</title>
<g id="a_node32"><a xlink:href="_win32_2_threads_8h.html" target="_top" xlink:title=" ">
<polygon fill="white" stroke="black" points="869,-0.5 869,-30.5 984,-30.5 984,-0.5 869,-0.5"/>
<text text-anchor="start" x="877" y="-18.5" font-family="Helvetica,sans-Serif" font-size="10.00">Cpl/TShell/Cmd/Win32</text>
<text text-anchor="middle" x="926.5" y="-7.5" font-family="Helvetica,sans-Serif" font-size="10.00">/Threads.h</text>
</a>
</g>
</g>
<!-- Node30&#45;&gt;Node32 -->
<g id="edge35" class="edge"><title>Node30&#45;&gt;Node32</title>
<path fill="none" stroke="midnightblue" d="M979.507,-60.9215C968.359,-51.579 954.138,-39.6616 943.233,-30.523"/>
<polygon fill="midnightblue" stroke="midnightblue" points="977.415,-63.7346 987.327,-67.4751 981.911,-58.3694 977.415,-63.7346"/>
</g>
<!-- Node36 -->
<g id="node36" class="node"><title>Node36</title>
<g id="a_node36"><a xlink:href="_maker_8h.html" target="_top" xlink:title=" ">
<polygon fill="white" stroke="black" points="2045.5,-67.5 2045.5,-86.5 2145.5,-86.5 2145.5,-67.5 2045.5,-67.5"/>
<text text-anchor="middle" x="2095.5" y="-74.5" font-family="Helvetica,sans-Serif" font-size="10.00">Cpl/TShell/Maker.h</text>
</a>
</g>
</g>
<!-- Node35&#45;&gt;Node36 -->
<g id="edge39" class="edge"><title>Node35&#45;&gt;Node36</title>
<path fill="none" stroke="midnightblue" d="M1979.85,-125.131C2008.21,-113.572 2049.81,-96.62 2074.62,-86.5091"/>
<polygon fill="midnightblue" stroke="midnightblue" points="1978.36,-121.96 1970.42,-128.975 1981,-128.442 1978.36,-121.96"/>
</g>
<!-- Node37 -->
<g id="node37" class="node"><title>Node37</title>
<g id="a_node37"><a xlink:href="_polled_processor_8h.html" target="_top" xlink:title=" ">
<polygon fill="white" stroke="black" points="1883.5,-67.5 1883.5,-86.5 2027.5,-86.5 2027.5,-67.5 1883.5,-67.5"/>
<text text-anchor="middle" x="1955.5" y="-74.5" font-family="Helvetica,sans-Serif" font-size="10.00">Cpl/TShell/PolledProcessor.h</text>
</a>
</g>
</g>
<!-- Node35&#45;&gt;Node37 -->
<g id="edge40" class="edge"><title>Node35&#45;&gt;Node37</title>
<path fill="none" stroke="midnightblue" d="M1951.38,-118.817C1952.48,-107.996 1953.8,-94.898 1954.64,-86.5091"/>
<polygon fill="midnightblue" stroke="midnightblue" points="1947.88,-118.674 1950.36,-128.975 1954.85,-119.377 1947.88,-118.674"/>
</g>
<!-- Node38 -->
<g id="node38" class="node"><title>Node38</title>
<g id="a_node38"><a xlink:href="_polled_maker_8h.html" target="_top" xlink:title=" ">
<polygon fill="white" stroke="black" points="2001,-6 2001,-25 2128,-25 2128,-6 2001,-6"/>
<text text-anchor="middle" x="2064.5" y="-13" font-family="Helvetica,sans-Serif" font-size="10.00">Cpl/TShell/PolledMaker.h</text>
</a>
</g>
</g>
<!-- Node37&#45;&gt;Node38 -->
<g id="edge41" class="edge"><title>Node37&#45;&gt;Node38</title>
<path fill="none" stroke="midnightblue" d="M1980.13,-62.5565C2001.22,-51.0417 2030.96,-34.8109 2048.91,-25.0091"/>
<polygon fill="midnightblue" stroke="midnightblue" points="1978.22,-59.6116 1971.12,-67.4751 1981.57,-65.7558 1978.22,-59.6116"/>
</g>
<!-- Node40&#45;&gt;Node35 -->
<g id="edge45" class="edge"><title>Node40&#45;&gt;Node35</title>
<path fill="none" stroke="midnightblue" d="M2006.45,-188.856C1991.71,-176.078 1971.41,-158.492 1959.45,-148.127"/>
<polygon fill="midnightblue" stroke="midnightblue" points="2004.54,-191.829 2014.39,-195.734 2009.12,-186.54 2004.54,-191.829"/>
</g>
<!-- Node41 -->
<g id="node41" class="node"><title>Node41</title>
<g id="a_node41"><a xlink:href="_ascii_decoder_8h.html" target="_top" xlink:title=" ">
<polygon fill="white" stroke="black" points="2193,-129 2193,-148 2346,-148 2346,-129 2193,-129"/>
<text text-anchor="middle" x="2269.5" y="-136" font-family="Helvetica,sans-Serif" font-size="10.00">Cpl/Text/Frame/AsciiDecoder.h</text>
</a>
</g>
</g>
<!-- Node40&#45;&gt;Node41 -->
<g id="edge46" class="edge"><title>Node40&#45;&gt;Node41</title>
<path fill="none" stroke="midnightblue" d="M2066.63,-193.323C2115,-180.489 2193.32,-159.712 2237.15,-148.083"/>
<polygon fill="midnightblue" stroke="midnightblue" points="2065.55,-189.988 2056.78,-195.936 2067.34,-196.754 2065.55,-189.988"/>
</g>
<!-- Node42 -->
<g id="node42" class="node"><title>Node42</title>
<g id="a_node42"><a xlink:href="_line_decoder_8h.html" target="_top" xlink:title=" ">
<polygon fill="white" stroke="black" points="2026,-129 2026,-148 2175,-148 2175,-129 2026,-129"/>
<text text-anchor="middle" x="2100.5" y="-136" font-family="Helvetica,sans-Serif" font-size="10.00">Cpl/Text/Frame/LineDecoder.h</text>
</a>
</g>
</g>
<!-- Node40&#45;&gt;Node42 -->
<g id="edge47" class="edge"><title>Node40&#45;&gt;Node42</title>
<path fill="none" stroke="midnightblue" d="M2042.37,-189.213C2057.35,-176.407 2078.18,-158.588 2090.41,-148.127"/>
<polygon fill="midnightblue" stroke="midnightblue" points="2040.07,-186.574 2034.75,-195.734 2044.62,-191.894 2040.07,-186.574"/>
</g>
<!-- Node42&#45;&gt;Node36 -->
<g id="edge48" class="edge"><title>Node42&#45;&gt;Node36</title>
<path fill="none" stroke="midnightblue" d="M2098.93,-118.817C2098.02,-107.996 2096.92,-94.898 2096.22,-86.5091"/>
<polygon fill="midnightblue" stroke="midnightblue" points="2095.46,-119.303 2099.78,-128.975 2102.43,-118.717 2095.46,-119.303"/>
</g>
<!-- Node42&#45;&gt;Node38 -->
<g id="edge49" class="edge"><title>Node42&#45;&gt;Node38</title>
<path fill="none" stroke="midnightblue" d="M2124.05,-123.343C2143.71,-109.615 2166.72,-87.8609 2154.5,-67 2141.92,-45.5091 2116.46,-32.4678 2095.83,-25.0362"/>
<polygon fill="midnightblue" stroke="midnightblue" points="2122.08,-120.449 2115.66,-128.881 2125.93,-126.29 2122.08,-120.449"/>
</g>
</g>
</svg>
