<?xml version="1.0" encoding="UTF-8" standalone="no"?>
<!DOCTYPE svg PUBLIC "-//W3C//DTD SVG 1.1//EN"
 "http://www.w3.org/Graphics/SVG/1.1/DTD/svg11.dtd">
<!-- Generated by graphviz version 2.38.0 (20140413.2041)
 -->
<!-- Title: Cpl/Io/InputOutput.h Pages: 1 -->
<svg width="953pt" height="218pt"
 viewBox="0.00 0.00 952.50 218.00" xmlns="http://www.w3.org/2000/svg" xmlns:xlink="http://www.w3.org/1999/xlink">
<g id="graph0" class="graph" transform="scale(1 1) rotate(0) translate(4 214)">
<title>Cpl/Io/InputOutput.h</title>
<polygon fill="white" stroke="none" points="-4,4 -4,-214 948.5,-214 948.5,4 -4,4"/>
<!-- Node1 -->
<g id="node1" class="node"><title>Node1</title>
<g id="a_node1"><a xlink:title=" ">
<polygon fill="#bfbfbf" stroke="black" points="377,-190.5 377,-209.5 481,-209.5 481,-190.5 377,-190.5"/>
<text text-anchor="middle" x="429" y="-197.5" font-family="Helvetica,sans-Serif" font-size="10.00">Cpl/Io/InputOutput.h</text>
</a>
</g>
</g>
<!-- Node2 -->
<g id="node2" class="node"><title>Node2</title>
<g id="a_node2"><a xlink:href="_null_8h.html" target="_top" xlink:title=" ">
<polygon fill="white" stroke="black" points="0,-129 0,-148 70,-148 70,-129 0,-129"/>
<text text-anchor="middle" x="35" y="-136" font-family="Helvetica,sans-Serif" font-size="10.00">Cpl/Io/Null.h</text>
</a>
</g>
</g>
<!-- Node1&#45;&gt;Node2 -->
<g id="edge1" class="edge"><title>Node1&#45;&gt;Node2</title>
<path fill="none" stroke="midnightblue" d="M366.822,-194.602C296.354,-188.79 178.369,-176.545 79,-154 72.0976,-152.434 64.7414,-150.231 58.0589,-148.015"/>
<polygon fill="midnightblue" stroke="midnightblue" points="366.617,-198.097 376.866,-195.413 367.181,-191.12 366.617,-198.097"/>
</g>
<!-- Node3 -->
<g id="node3" class="node"><title>Node3</title>
<g id="a_node3"><a xlink:href="_ram_2_input_output_8h.html" target="_top" xlink:title=" ">
<polygon fill="white" stroke="black" points="88,-129 88,-148 216,-148 216,-129 88,-129"/>
<text text-anchor="middle" x="152" y="-136" font-family="Helvetica,sans-Serif" font-size="10.00">Cpl/Io/Ram/InputOutput.h</text>
</a>
</g>
</g>
<!-- Node1&#45;&gt;Node3 -->
<g id="edge2" class="edge"><title>Node1&#45;&gt;Node3</title>
<path fill="none" stroke="midnightblue" d="M379.328,-188.33C325.609,-176.792 241.048,-158.628 191.614,-148.009"/>
<polygon fill="midnightblue" stroke="midnightblue" points="378.801,-191.797 389.313,-190.475 380.271,-184.953 378.801,-191.797"/>
</g>
<!-- Node4 -->
<g id="node4" class="node"><title>Node4</title>
<g id="a_node4"><a xlink:href="_serial_2_r_p2040_2_uart_2_input_output_8h.html" target="_top" xlink:title=" ">
<polygon fill="white" stroke="black" points="234.5,-123.5 234.5,-153.5 341.5,-153.5 341.5,-123.5 234.5,-123.5"/>
<text text-anchor="start" x="242.5" y="-141.5" font-family="Helvetica,sans-Serif" font-size="10.00">Cpl/Io/Serial/RP2040</text>
<text text-anchor="middle" x="288" y="-130.5" font-family="Helvetica,sans-Serif" font-size="10.00">/Uart/InputOutput.h</text>
</a>
</g>
</g>
<!-- Node1&#45;&gt;Node4 -->
<g id="edge3" class="edge"><title>Node1&#45;&gt;Node4</title>
<path fill="none" stroke="midnightblue" d="M399.285,-186.461C376.446,-176.823 344.904,-163.513 321.231,-153.523"/>
<polygon fill="midnightblue" stroke="midnightblue" points="398.224,-189.812 408.798,-190.475 400.946,-183.363 398.224,-189.812"/>
</g>
<!-- Node5 -->
<g id="node5" class="node"><title>Node5</title>
<g id="a_node5"><a xlink:href="_socket_2_input_output_8h.html" target="_top" xlink:title=" ">
<polygon fill="white" stroke="black" points="360,-129 360,-148 498,-148 498,-129 360,-129"/>
<text text-anchor="middle" x="429" y="-136" font-family="Helvetica,sans-Serif" font-size="10.00">Cpl/Io/Socket/InputOutput.h</text>
</a>
</g>
</g>
<!-- Node1&#45;&gt;Node5 -->
<g id="edge4" class="edge"><title>Node1&#45;&gt;Node5</title>
<path fill="none" stroke="midnightblue" d="M429,-180.317C429,-169.496 429,-156.398 429,-148.009"/>
<polygon fill="midnightblue" stroke="midnightblue" points="425.5,-180.475 429,-190.475 432.5,-180.475 425.5,-180.475"/>
</g>
<!-- Node9 -->
<g id="node9" class="node"><title>Node9</title>
<g id="a_node9"><a xlink:href="_cpl_2_io_2_stdio_2_input_output___8h.html" target="_top" xlink:title=" ">
<polygon fill="white" stroke="black" points="516.5,-129 516.5,-148 651.5,-148 651.5,-129 516.5,-129"/>
<text text-anchor="middle" x="584" y="-136" font-family="Helvetica,sans-Serif" font-size="10.00">Cpl/Io/Stdio/InputOutput_.h</text>
</a>
</g>
</g>
<!-- Node1&#45;&gt;Node9 -->
<g id="edge9" class="edge"><title>Node1&#45;&gt;Node9</title>
<path fill="none" stroke="midnightblue" d="M460.827,-186.782C490.948,-175.22 535.379,-158.164 561.833,-148.009"/>
<polygon fill="midnightblue" stroke="midnightblue" points="459.289,-183.624 451.208,-190.475 461.798,-190.159 459.289,-183.624"/>
</g>
<!-- Node11 -->
<g id="node11" class="node"><title>Node11</title>
<g id="a_node11"><a xlink:href="_console_8h.html" target="_top" xlink:title="This interface provides a &#39;Console&#39; replacement for SDK&#39;s stdio.">
<polygon fill="white" stroke="black" points="670,-129 670,-148 822,-148 822,-129 670,-129"/>
<text text-anchor="middle" x="746" y="-136" font-family="Helvetica,sans-Serif" font-size="10.00">Cpl/System/RP2040/Console.h</text>
</a>
</g>
</g>
<!-- Node1&#45;&gt;Node11 -->
<g id="edge11" class="edge"><title>Node1&#45;&gt;Node11</title>
<path fill="none" stroke="midnightblue" d="M484.318,-188.617C545.708,-177.094 643.622,-158.716 700.666,-148.009"/>
<polygon fill="midnightblue" stroke="midnightblue" points="483.601,-185.19 474.418,-190.475 484.892,-192.07 483.601,-185.19"/>
</g>
<!-- Node12 -->
<g id="node12" class="node"><title>Node12</title>
<g id="a_node12"><a xlink:href="_driver_2_uart_2_stream_2_input_output___8h.html" target="_top" xlink:title=" ">
<polygon fill="white" stroke="black" points="840,-123.5 840,-153.5 938,-153.5 938,-123.5 840,-123.5"/>
<text text-anchor="start" x="848" y="-141.5" font-family="Helvetica,sans-Serif" font-size="10.00">Driver/Uart/Stream</text>
<text text-anchor="middle" x="889" y="-130.5" font-family="Helvetica,sans-Serif" font-size="10.00">/InputOutput_.h</text>
</a>
</g>
</g>
<!-- Node1&#45;&gt;Node12 -->
<g id="edge12" class="edge"><title>Node1&#45;&gt;Node12</title>
<path fill="none" stroke="midnightblue" d="M491.346,-194.616C570.691,-188.443 711.773,-175.477 831,-154 833.86,-153.485 836.789,-152.909 839.736,-152.291"/>
<polygon fill="midnightblue" stroke="midnightblue" points="490.743,-191.152 481.04,-195.406 491.278,-198.131 490.743,-191.152"/>
</g>
<!-- Node6 -->
<g id="node6" class="node"><title>Node6</title>
<g id="a_node6"><a xlink:href="_factory_8h.html" target="_top" xlink:title=" ">
<polygon fill="white" stroke="black" points="252,-62 252,-81 372,-81 372,-62 252,-62"/>
<text text-anchor="middle" x="312" y="-69" font-family="Helvetica,sans-Serif" font-size="10.00">Cpl/Io/Socket/Factory.h</text>
</a>
</g>
</g>
<!-- Node5&#45;&gt;Node6 -->
<g id="edge5" class="edge"><title>Node5&#45;&gt;Node6</title>
<path fill="none" stroke="midnightblue" d="M404.317,-123.787C381.128,-110.905 347.144,-92.0243 327.529,-81.1273"/>
<polygon fill="midnightblue" stroke="midnightblue" points="402.78,-126.937 413.221,-128.734 406.179,-120.818 402.78,-126.937"/>
</g>
<!-- Node7 -->
<g id="node7" class="node"><title>Node7</title>
<g id="a_node7"><a xlink:href="_stream_pool_8h.html" target="_top" xlink:title=" ">
<polygon fill="white" stroke="black" points="287,-0.5 287,-19.5 425,-19.5 425,-0.5 287,-0.5"/>
<text text-anchor="middle" x="356" y="-7.5" font-family="Helvetica,sans-Serif" font-size="10.00">Cpl/Io/Socket/StreamPool.h</text>
</a>
</g>
</g>
<!-- Node5&#45;&gt;Node7 -->
<g id="edge7" class="edge"><title>Node5&#45;&gt;Node7</title>
<path fill="none" stroke="midnightblue" d="M418.845,-119.903C402.997,-92.4401 372.966,-40.3995 361.053,-19.7557"/>
<polygon fill="midnightblue" stroke="midnightblue" points="415.953,-121.893 423.982,-128.805 422.016,-118.394 415.953,-121.893"/>
</g>
<!-- Node8 -->
<g id="node8" class="node"><title>Node8</title>
<g id="a_node8"><a xlink:href="_socket_8h.html" target="_top" xlink:title=" ">
<polygon fill="white" stroke="black" points="428,-62 428,-81 532,-81 532,-62 428,-62"/>
<text text-anchor="middle" x="480" y="-69" font-family="Helvetica,sans-Serif" font-size="10.00">Cpl/TShell/Socket.h</text>
</a>
</g>
</g>
<!-- Node5&#45;&gt;Node8 -->
<g id="edge8" class="edge"><title>Node5&#45;&gt;Node8</title>
<path fill="none" stroke="midnightblue" d="M442.126,-120.77C452.07,-108.097 465.327,-91.201 473.231,-81.1273"/>
<polygon fill="midnightblue" stroke="midnightblue" points="439.297,-118.706 435.878,-128.734 444.805,-123.027 439.297,-118.706"/>
</g>
<!-- Node6&#45;&gt;Node7 -->
<g id="edge6" class="edge"><title>Node6&#45;&gt;Node7</title>
<path fill="none" stroke="midnightblue" d="M324.322,-53.8377C332.581,-42.6694 343.112,-28.4278 349.708,-19.5091"/>
<polygon fill="midnightblue" stroke="midnightblue" points="321.436,-51.8537 318.304,-61.9751 327.064,-56.0158 321.436,-51.8537"/>
</g>
<!-- Node10 -->
<g id="node10" class="node"><title>Node10</title>
<g id="a_node10"><a xlink:href="_file_2_input_output_8h.html" target="_top" xlink:title=" ">
<polygon fill="white" stroke="black" points="550.5,-62 550.5,-81 673.5,-81 673.5,-62 550.5,-62"/>
<text text-anchor="middle" x="612" y="-69" font-family="Helvetica,sans-Serif" font-size="10.00">Cpl/Io/File/InputOutput.h</text>
</a>
</g>
</g>
<!-- Node9&#45;&gt;Node10 -->
<g id="edge10" class="edge"><title>Node9&#45;&gt;Node10</title>
<path fill="none" stroke="midnightblue" d="M591.844,-119.29C597.221,-106.808 604.111,-90.8135 608.284,-81.1273"/>
<polygon fill="midnightblue" stroke="midnightblue" points="588.518,-118.165 587.776,-128.734 594.947,-120.934 588.518,-118.165"/>
</g>
<!-- Node13 -->
<g id="node13" class="node"><title>Node13</title>
<g id="a_node13"><a xlink:href="_serial_2_renesas_2_rx62n_2_input_output_8h.html" target="_top" xlink:title=" ">
<polygon fill="white" stroke="black" points="833.5,-56.5 833.5,-86.5 944.5,-86.5 944.5,-56.5 833.5,-56.5"/>
<text text-anchor="start" x="841.5" y="-74.5" font-family="Helvetica,sans-Serif" font-size="10.00">Cpl/Io/Serial/Renesas</text>
<text text-anchor="middle" x="889" y="-63.5" font-family="Helvetica,sans-Serif" font-size="10.00">/Rx62n/InputOutput.h</text>
</a>
</g>
</g>
<!-- Node12&#45;&gt;Node13 -->
<g id="edge13" class="edge"><title>Node12&#45;&gt;Node13</title>
<path fill="none" stroke="midnightblue" d="M889,-113.108C889,-104.154 889,-94.3227 889,-86.5765"/>
<polygon fill="midnightblue" stroke="midnightblue" points="885.5,-113.396 889,-123.396 892.5,-113.396 885.5,-113.396"/>
</g>
</g>
</svg>
