<?xml version="1.0" encoding="UTF-8" standalone="no"?>
<!DOCTYPE svg PUBLIC "-//W3C//DTD SVG 1.1//EN"
 "http://www.w3.org/Graphics/SVG/1.1/DTD/svg11.dtd">
<!-- Generated by graphviz version 2.38.0 (20140413.2041)
 -->
<!-- Title: Cpl/Io/IsEos.h Pages: 1 -->
<svg width="3950pt" height="285pt"
 viewBox="0.00 0.00 3949.50 285.00" xmlns="http://www.w3.org/2000/svg" xmlns:xlink="http://www.w3.org/1999/xlink">
<g id="graph0" class="graph" transform="scale(1 1) rotate(0) translate(4 281)">
<title>Cpl/Io/IsEos.h</title>
<polygon fill="white" stroke="none" points="-4,4 -4,-281 3945.5,-281 3945.5,4 -4,4"/>
<!-- Node1 -->
<g id="node1" class="node"><title>Node1</title>
<g id="a_node1"><a xlink:title=" ">
<polygon fill="#bfbfbf" stroke="black" points="2482,-257.5 2482,-276.5 2561,-276.5 2561,-257.5 2482,-257.5"/>
<text text-anchor="middle" x="2521.5" y="-264.5" font-family="Helvetica,sans-Serif" font-size="10.00">Cpl/Io/IsEos.h</text>
</a>
</g>
</g>
<!-- Node2 -->
<g id="node2" class="node"><title>Node2</title>
<g id="a_node2"><a xlink:href="_input_8h.html" target="_top" xlink:title=" ">
<polygon fill="white" stroke="black" points="2261,-201.5 2261,-220.5 2336,-220.5 2336,-201.5 2261,-201.5"/>
<text text-anchor="middle" x="2298.5" y="-208.5" font-family="Helvetica,sans-Serif" font-size="10.00">Cpl/Io/Input.h</text>
</a>
</g>
</g>
<!-- Node1&#45;&gt;Node2 -->
<g id="edge1" class="edge"><title>Node1&#45;&gt;Node2</title>
<path fill="none" stroke="midnightblue" d="M2476.44,-255.088C2434.31,-244.887 2372.26,-229.861 2333.67,-220.516"/>
<polygon fill="midnightblue" stroke="midnightblue" points="2475.62,-258.492 2486.16,-257.444 2477.27,-251.688 2475.62,-258.492"/>
</g>
<!-- Node54 -->
<g id="node33" class="node"><title>Node54</title>
<g id="a_node33"><a xlink:href="_output_8h.html" target="_top" xlink:title=" ">
<polygon fill="white" stroke="black" points="2648,-201.5 2648,-220.5 2731,-220.5 2731,-201.5 2648,-201.5"/>
<text text-anchor="middle" x="2689.5" y="-208.5" font-family="Helvetica,sans-Serif" font-size="10.00">Cpl/Io/Output.h</text>
</a>
</g>
</g>
<!-- Node1&#45;&gt;Node54 -->
<g id="edge39" class="edge"><title>Node1&#45;&gt;Node54</title>
<path fill="none" stroke="midnightblue" d="M2557.89,-254.304C2589.54,-244.129 2634.67,-229.625 2663,-220.516"/>
<polygon fill="midnightblue" stroke="midnightblue" points="2556.57,-251.051 2548.12,-257.444 2558.71,-257.715 2556.57,-251.051"/>
</g>
<!-- Node3 -->
<g id="node3" class="node"><title>Node3</title>
<g id="a_node3"><a xlink:href="_input_api_8h.html" target="_top" xlink:title=" ">
<polygon fill="white" stroke="black" points="141.5,-140 141.5,-159 249.5,-159 249.5,-140 141.5,-140"/>
<text text-anchor="middle" x="195.5" y="-147" font-family="Helvetica,sans-Serif" font-size="10.00">Cpl/Io/File/InputApi.h</text>
</a>
</g>
</g>
<!-- Node2&#45;&gt;Node3 -->
<g id="edge2" class="edge"><title>Node2&#45;&gt;Node3</title>
<path fill="none" stroke="midnightblue" d="M2250.62,-210.27C1982.2,-211.584 661.979,-215.346 258.5,-165 248.031,-163.694 236.756,-161.392 226.679,-159.001"/>
<polygon fill="midnightblue" stroke="midnightblue" points="2250.83,-213.769 2260.81,-210.219 2250.79,-206.769 2250.83,-213.769"/>
</g>
<!-- Node8 -->
<g id="node7" class="node"><title>Node8</title>
<g id="a_node7"><a xlink:href="_input_output_8h.html" target="_top" xlink:title=" ">
<polygon fill="white" stroke="black" points="1291.5,-140 1291.5,-159 1395.5,-159 1395.5,-140 1291.5,-140"/>
<text text-anchor="middle" x="1343.5" y="-147" font-family="Helvetica,sans-Serif" font-size="10.00">Cpl/Io/InputOutput.h</text>
</a>
</g>
</g>
<!-- Node2&#45;&gt;Node8 -->
<g id="edge6" class="edge"><title>Node2&#45;&gt;Node8</title>
<path fill="none" stroke="midnightblue" d="M2250.65,-207.019C2088.97,-196.946 1563.72,-164.221 1395.7,-153.752"/>
<polygon fill="midnightblue" stroke="midnightblue" points="2250.57,-210.521 2260.77,-207.649 2251.01,-203.534 2250.57,-210.521"/>
</g>
<!-- Node20 -->
<g id="node16" class="node"><title>Node20</title>
<g id="a_node16"><a xlink:href="_line_reader_8h.html" target="_top" xlink:title=" ">
<polygon fill="white" stroke="black" points="2601.5,-140 2601.5,-159 2703.5,-159 2703.5,-140 2601.5,-140"/>
<text text-anchor="middle" x="2652.5" y="-147" font-family="Helvetica,sans-Serif" font-size="10.00">Cpl/Io/LineReader.h</text>
</a>
</g>
</g>
<!-- Node2&#45;&gt;Node20 -->
<g id="edge16" class="edge"><title>Node2&#45;&gt;Node20</title>
<path fill="none" stroke="midnightblue" d="M2346.27,-203.532C2403.71,-195.531 2502.95,-180.995 2587.5,-165 2596.82,-163.238 2606.83,-161.117 2616.15,-159.047"/>
<polygon fill="midnightblue" stroke="midnightblue" points="2345.47,-200.11 2336.04,-204.949 2346.43,-207.043 2345.47,-200.11"/>
</g>
<!-- Node21 -->
<g id="node17" class="node"><title>Node21</title>
<g id="a_node17"><a xlink:href="_serial_2_r_p2040_2_stdio_2_input_8h.html" target="_top" xlink:title=" ">
<polygon fill="white" stroke="black" points="2722,-134.5 2722,-164.5 2829,-164.5 2829,-134.5 2722,-134.5"/>
<text text-anchor="start" x="2730" y="-152.5" font-family="Helvetica,sans-Serif" font-size="10.00">Cpl/Io/Serial/RP2040</text>
<text text-anchor="middle" x="2775.5" y="-141.5" font-family="Helvetica,sans-Serif" font-size="10.00">/Stdio/Input.h</text>
</a>
</g>
</g>
<!-- Node2&#45;&gt;Node21 -->
<g id="edge17" class="edge"><title>Node2&#45;&gt;Node21</title>
<path fill="none" stroke="midnightblue" d="M2346.48,-206.633C2423.87,-200.787 2580.92,-187.213 2712.5,-165 2715.6,-164.477 2718.77,-163.895 2721.97,-163.273"/>
<polygon fill="midnightblue" stroke="midnightblue" points="2345.81,-203.173 2336.1,-207.407 2346.33,-210.154 2345.81,-203.173"/>
</g>
<!-- Node22 -->
<g id="node18" class="node"><title>Node22</title>
<g id="a_node18"><a xlink:href="_input___8h.html" target="_top" xlink:title=" ">
<polygon fill="white" stroke="black" points="465.5,-140 465.5,-159 571.5,-159 571.5,-140 465.5,-140"/>
<text text-anchor="middle" x="518.5" y="-147" font-family="Helvetica,sans-Serif" font-size="10.00">Cpl/Io/Stdio/Input_.h</text>
</a>
</g>
</g>
<!-- Node2&#45;&gt;Node22 -->
<g id="edge18" class="edge"><title>Node2&#45;&gt;Node22</title>
<path fill="none" stroke="midnightblue" d="M2250.95,-210.159C2053.81,-210.512 1281.48,-208.855 648.5,-165 623.126,-163.242 595.072,-160.247 571.539,-157.434"/>
<polygon fill="midnightblue" stroke="midnightblue" points="2250.98,-213.659 2260.97,-210.139 2250.96,-206.659 2250.98,-213.659"/>
</g>
<!-- Node24 -->
<g id="node20" class="node"><title>Node24</title>
<g id="a_node20"><a xlink:href="_system_2_r_p2040_2_stdio_8h.html" target="_top" xlink:title="This interface returns the Cpl Io Stream for the for SDK&#39;s stdio.">
<polygon fill="white" stroke="black" points="2847,-140 2847,-159 2986,-159 2986,-140 2847,-140"/>
<text text-anchor="middle" x="2916.5" y="-147" font-family="Helvetica,sans-Serif" font-size="10.00">Cpl/System/RP2040/Stdio.h</text>
</a>
</g>
</g>
<!-- Node2&#45;&gt;Node24 -->
<g id="edge22" class="edge"><title>Node2&#45;&gt;Node24</title>
<path fill="none" stroke="midnightblue" d="M2346.29,-207.59C2440.55,-202.489 2656.95,-189.048 2837.5,-165 2849.53,-163.398 2862.5,-161.211 2874.39,-159.02"/>
<polygon fill="midnightblue" stroke="midnightblue" points="2346.01,-204.1 2336.21,-208.129 2346.38,-211.09 2346.01,-204.1"/>
</g>
<!-- Node25 -->
<g id="node21" class="node"><title>Node25</title>
<g id="a_node21"><a xlink:href="_processor_api_8h.html" target="_top" xlink:title=" ">
<polygon fill="white" stroke="black" points="1801,-140 1801,-159 1932,-159 1932,-140 1801,-140"/>
<text text-anchor="middle" x="1866.5" y="-147" font-family="Helvetica,sans-Serif" font-size="10.00">Cpl/TShell/ProcessorApi.h</text>
</a>
</g>
</g>
<!-- Node2&#45;&gt;Node25 -->
<g id="edge23" class="edge"><title>Node2&#45;&gt;Node25</title>
<path fill="none" stroke="midnightblue" d="M2250.66,-205.04C2181.86,-197.669 2051.1,-182.765 1940.5,-165 1929.77,-163.277 1918.22,-161.147 1907.51,-159.055"/>
<polygon fill="midnightblue" stroke="midnightblue" points="2250.44,-208.536 2260.75,-206.115 2251.18,-201.576 2250.44,-208.536"/>
</g>
<!-- Node47 -->
<g id="node26" class="node"><title>Node47</title>
<g id="a_node26"><a xlink:href="_stream_decoder_8h.html" target="_top" xlink:title=" ">
<polygon fill="white" stroke="black" points="2162,-140 2162,-159 2325,-159 2325,-140 2162,-140"/>
<text text-anchor="middle" x="2243.5" y="-147" font-family="Helvetica,sans-Serif" font-size="10.00">Cpl/Text/Frame/StreamDecoder.h</text>
</a>
</g>
</g>
<!-- Node2&#45;&gt;Node47 -->
<g id="edge29" class="edge"><title>Node2&#45;&gt;Node47</title>
<path fill="none" stroke="midnightblue" d="M2283.71,-193.997C2273.3,-182.736 2259.77,-168.104 2251.37,-159.009"/>
<polygon fill="midnightblue" stroke="midnightblue" points="2281.26,-196.508 2290.62,-201.475 2286.4,-191.756 2281.26,-196.508"/>
</g>
<!-- Node50 -->
<g id="node29" class="node"><title>Node50</title>
<g id="a_node29"><a xlink:href="_pipe_8h.html" target="_top" xlink:title=" ">
<polygon fill="white" stroke="black" points="2628,-73 2628,-92 2729,-92 2729,-73 2628,-73"/>
<text text-anchor="middle" x="2678.5" y="-80" font-family="Helvetica,sans-Serif" font-size="10.00">Driver/TPipe/Pipe.h</text>
</a>
</g>
</g>
<!-- Node2&#45;&gt;Node50 -->
<g id="edge37" class="edge"><title>Node2&#45;&gt;Node50</title>
<path fill="none" stroke="midnightblue" d="M2346.17,-208.557C2398.99,-205.404 2485.67,-195.545 2553.5,-165 2573.69,-155.908 2574.24,-146.526 2592.5,-134 2615.92,-117.937 2644.62,-101.729 2662.23,-92.1547"/>
<polygon fill="midnightblue" stroke="midnightblue" points="2345.87,-205.068 2336.07,-209.102 2346.24,-212.058 2345.87,-205.068"/>
</g>
<!-- Node51 -->
<g id="node30" class="node"><title>Node51</title>
<g id="a_node30"><a xlink:href="_driver_2_pico_display_2_t_pipe_2_api_8h.html" target="_top" xlink:title="This file defines the interface for initializing the concrete implementation of the PicoDisplay drive...">
<polygon fill="white" stroke="black" points="2590,-0.5 2590,-30.5 2687,-30.5 2687,-0.5 2590,-0.5"/>
<text text-anchor="start" x="2598" y="-18.5" font-family="Helvetica,sans-Serif" font-size="10.00">Driver/PicoDisplay</text>
<text text-anchor="middle" x="2638.5" y="-7.5" font-family="Helvetica,sans-Serif" font-size="10.00">/TPipe/Api.h</text>
</a>
</g>
</g>
<!-- Node2&#45;&gt;Node51 -->
<g id="edge36" class="edge"><title>Node2&#45;&gt;Node51</title>
<path fill="none" stroke="midnightblue" d="M2310.18,-193.102C2323.26,-175.515 2346.14,-148.549 2372.5,-134 2439.74,-96.892 2472.49,-131.703 2541.5,-98 2576.09,-81.1074 2608.72,-49.2252 2625.9,-30.7409"/>
<polygon fill="midnightblue" stroke="midnightblue" points="2307.26,-191.167 2304.26,-201.328 2312.94,-195.255 2307.26,-191.167"/>
</g>
<!-- Node53 -->
<g id="node32" class="node"><title>Node53</title>
<g id="a_node32"><a xlink:href="_main_8h.html" target="_top" xlink:title="This file defines the hardware/platform independent start&#45;up interface(s) for the Storm::Thermostat a...">
<polygon fill="white" stroke="black" points="2037,-67.5 2037,-97.5 2156,-97.5 2156,-67.5 2037,-67.5"/>
<text text-anchor="start" x="2045" y="-85.5" font-family="Helvetica,sans-Serif" font-size="10.00">Storm/Thermostat/Main</text>
<text text-anchor="middle" x="2096.5" y="-74.5" font-family="Helvetica,sans-Serif" font-size="10.00">/Main.h</text>
</a>
</g>
</g>
<!-- Node2&#45;&gt;Node53 -->
<g id="edge38" class="edge"><title>Node2&#45;&gt;Node53</title>
<path fill="none" stroke="midnightblue" d="M2250.75,-203.475C2204.28,-196.189 2138.03,-183.009 2119.5,-165 2101.15,-147.173 2097.12,-115.929 2096.42,-97.7418"/>
<polygon fill="midnightblue" stroke="midnightblue" points="2250.51,-206.98 2260.92,-205.027 2251.57,-200.06 2250.51,-206.98"/>
</g>
<!-- Node4 -->
<g id="node4" class="node"><title>Node4</title>
<g id="a_node4"><a xlink:href="_file_2_input_8h.html" target="_top" xlink:title=" ">
<polygon fill="white" stroke="black" points="155.5,-73 155.5,-92 249.5,-92 249.5,-73 155.5,-73"/>
<text text-anchor="middle" x="202.5" y="-80" font-family="Helvetica,sans-Serif" font-size="10.00">Cpl/Io/File/Input.h</text>
</a>
</g>
</g>
<!-- Node3&#45;&gt;Node4 -->
<g id="edge3" class="edge"><title>Node3&#45;&gt;Node4</title>
<path fill="none" stroke="midnightblue" d="M197.542,-129.537C198.874,-117.17 200.549,-101.62 201.571,-92.1273"/>
<polygon fill="midnightblue" stroke="midnightblue" points="194.035,-129.417 196.444,-139.734 200.995,-130.166 194.035,-129.417"/>
</g>
<!-- Node5 -->
<g id="node5" class="node"><title>Node5</title>
<g id="a_node5"><a xlink:href="_input_output_api_8h.html" target="_top" xlink:title=" ">
<polygon fill="white" stroke="red" points="0,-73 0,-92 137,-92 137,-73 0,-73"/>
<text text-anchor="middle" x="68.5" y="-80" font-family="Helvetica,sans-Serif" font-size="10.00">Cpl/Io/File/InputOutputApi.h</text>
</a>
</g>
</g>
<!-- Node3&#45;&gt;Node5 -->
<g id="edge4" class="edge"><title>Node3&#45;&gt;Node5</title>
<path fill="none" stroke="midnightblue" d="M169.658,-135.274C144.504,-122.4 107.008,-103.209 85.4344,-92.1672"/>
<polygon fill="midnightblue" stroke="midnightblue" points="168.139,-138.428 178.635,-139.869 171.328,-132.197 168.139,-138.428"/>
</g>
<!-- Node6 -->
<g id="node6" class="node"><title>Node6</title>
<g id="a_node6"><a xlink:href="_file_2_input_output_8h.html" target="_top" xlink:title=" ">
<polygon fill="white" stroke="black" points="261,-6 261,-25 384,-25 384,-6 261,-6"/>
<text text-anchor="middle" x="322.5" y="-13" font-family="Helvetica,sans-Serif" font-size="10.00">Cpl/Io/File/InputOutput.h</text>
</a>
</g>
</g>
<!-- Node5&#45;&gt;Node6 -->
<g id="edge5" class="edge"><title>Node5&#45;&gt;Node6</title>
<path fill="none" stroke="midnightblue" d="M111.86,-70.4039C161.989,-57.5757 243.423,-36.7361 288.959,-25.0834"/>
<polygon fill="midnightblue" stroke="midnightblue" points="110.787,-67.0656 101.967,-72.9355 112.523,-73.847 110.787,-67.0656"/>
</g>
<!-- Node9 -->
<g id="node8" class="node"><title>Node9</title>
<g id="a_node8"><a xlink:href="_null_8h.html" target="_top" xlink:title=" ">
<polygon fill="white" stroke="black" points="914.5,-73 914.5,-92 984.5,-92 984.5,-73 914.5,-73"/>
<text text-anchor="middle" x="949.5" y="-80" font-family="Helvetica,sans-Serif" font-size="10.00">Cpl/Io/Null.h</text>
</a>
</g>
</g>
<!-- Node8&#45;&gt;Node9 -->
<g id="edge7" class="edge"><title>Node8&#45;&gt;Node9</title>
<path fill="none" stroke="midnightblue" d="M1281.33,-142.85C1210.88,-135.682 1092.9,-121.36 993.5,-98 986.766,-96.4176 979.591,-94.262 973.031,-92.0969"/>
<polygon fill="midnightblue" stroke="midnightblue" points="1281.08,-146.342 1291.38,-143.856 1281.78,-139.377 1281.08,-146.342"/>
</g>
<!-- Node10 -->
<g id="node9" class="node"><title>Node10</title>
<g id="a_node9"><a xlink:href="_ram_2_input_output_8h.html" target="_top" xlink:title=" ">
<polygon fill="white" stroke="black" points="1002.5,-73 1002.5,-92 1130.5,-92 1130.5,-73 1002.5,-73"/>
<text text-anchor="middle" x="1066.5" y="-80" font-family="Helvetica,sans-Serif" font-size="10.00">Cpl/Io/Ram/InputOutput.h</text>
</a>
</g>
</g>
<!-- Node8&#45;&gt;Node10 -->
<g id="edge8" class="edge"><title>Node8&#45;&gt;Node10</title>
<path fill="none" stroke="midnightblue" d="M1297.24,-137.644C1242.66,-124.837 1153.05,-103.809 1103.08,-92.0834"/>
<polygon fill="midnightblue" stroke="midnightblue" points="1296.47,-141.058 1307,-139.936 1298.07,-134.244 1296.47,-141.058"/>
</g>
<!-- Node11 -->
<g id="node10" class="node"><title>Node11</title>
<g id="a_node10"><a xlink:href="_serial_2_r_p2040_2_uart_2_input_output_8h.html" target="_top" xlink:title=" ">
<polygon fill="white" stroke="black" points="1149,-67.5 1149,-97.5 1256,-97.5 1256,-67.5 1149,-67.5"/>
<text text-anchor="start" x="1157" y="-85.5" font-family="Helvetica,sans-Serif" font-size="10.00">Cpl/Io/Serial/RP2040</text>
<text text-anchor="middle" x="1202.5" y="-74.5" font-family="Helvetica,sans-Serif" font-size="10.00">/Uart/InputOutput.h</text>
</a>
</g>
</g>
<!-- Node8&#45;&gt;Node11 -->
<g id="edge9" class="edge"><title>Node8&#45;&gt;Node11</title>
<path fill="none" stroke="midnightblue" d="M1315.56,-135.621C1291.71,-124.625 1257.47,-108.841 1232.93,-97.5281"/>
<polygon fill="midnightblue" stroke="midnightblue" points="1314.23,-138.86 1324.78,-139.869 1317.16,-132.503 1314.23,-138.86"/>
</g>
<!-- Node12 -->
<g id="node11" class="node"><title>Node12</title>
<g id="a_node11"><a xlink:href="_socket_2_input_output_8h.html" target="_top" xlink:title=" ">
<polygon fill="white" stroke="red" points="1274.5,-73 1274.5,-92 1412.5,-92 1412.5,-73 1274.5,-73"/>
<text text-anchor="middle" x="1343.5" y="-80" font-family="Helvetica,sans-Serif" font-size="10.00">Cpl/Io/Socket/InputOutput.h</text>
</a>
</g>
</g>
<!-- Node8&#45;&gt;Node12 -->
<g id="edge10" class="edge"><title>Node8&#45;&gt;Node12</title>
<path fill="none" stroke="midnightblue" d="M1343.5,-129.537C1343.5,-117.17 1343.5,-101.62 1343.5,-92.1273"/>
<polygon fill="midnightblue" stroke="midnightblue" points="1340,-129.734 1343.5,-139.734 1347,-129.734 1340,-129.734"/>
</g>
<!-- Node16 -->
<g id="node13" class="node"><title>Node16</title>
<g id="a_node13"><a xlink:href="_cpl_2_io_2_stdio_2_input_output___8h.html" target="_top" xlink:title=" ">
<polygon fill="white" stroke="black" points="508,-73 508,-92 643,-92 643,-73 508,-73"/>
<text text-anchor="middle" x="575.5" y="-80" font-family="Helvetica,sans-Serif" font-size="10.00">Cpl/Io/Stdio/InputOutput_.h</text>
</a>
</g>
</g>
<!-- Node8&#45;&gt;Node16 -->
<g id="edge12" class="edge"><title>Node8&#45;&gt;Node16</title>
<path fill="none" stroke="midnightblue" d="M1280.97,-146.361C1159.31,-141.664 882.437,-128.353 651.5,-98 639.78,-96.4596 627.137,-94.2649 615.591,-92.0476"/>
<polygon fill="midnightblue" stroke="midnightblue" points="1281.08,-149.868 1291.21,-146.75 1281.35,-142.873 1281.08,-149.868"/>
</g>
<!-- Node17 -->
<g id="node14" class="node"><title>Node17</title>
<g id="a_node14"><a xlink:href="_console_8h.html" target="_top" xlink:title="This interface provides a &#39;Console&#39; replacement for SDK&#39;s stdio.">
<polygon fill="white" stroke="black" points="1430.5,-73 1430.5,-92 1582.5,-92 1582.5,-73 1430.5,-73"/>
<text text-anchor="middle" x="1506.5" y="-80" font-family="Helvetica,sans-Serif" font-size="10.00">Cpl/System/RP2040/Console.h</text>
</a>
</g>
</g>
<!-- Node8&#45;&gt;Node17 -->
<g id="edge14" class="edge"><title>Node8&#45;&gt;Node17</title>
<path fill="none" stroke="midnightblue" d="M1374.58,-136.104C1406.95,-123.198 1456.78,-103.327 1485.02,-92.0637"/>
<polygon fill="midnightblue" stroke="midnightblue" points="1373.14,-132.913 1365.15,-139.869 1375.73,-139.415 1373.14,-132.913"/>
</g>
<!-- Node18 -->
<g id="node15" class="node"><title>Node18</title>
<g id="a_node15"><a xlink:href="_driver_2_uart_2_stream_2_input_output___8h.html" target="_top" xlink:title=" ">
<polygon fill="white" stroke="red" points="1600.5,-67.5 1600.5,-97.5 1698.5,-97.5 1698.5,-67.5 1600.5,-67.5"/>
<text text-anchor="start" x="1608.5" y="-85.5" font-family="Helvetica,sans-Serif" font-size="10.00">Driver/Uart/Stream</text>
<text text-anchor="middle" x="1649.5" y="-74.5" font-family="Helvetica,sans-Serif" font-size="10.00">/InputOutput_.h</text>
</a>
</g>
</g>
<!-- Node8&#45;&gt;Node18 -->
<g id="edge15" class="edge"><title>Node8&#45;&gt;Node18</title>
<path fill="none" stroke="midnightblue" d="M1398.45,-138.032C1448.81,-128.269 1525.35,-112.996 1591.5,-98 1594.44,-97.3345 1597.45,-96.6337 1600.49,-95.9142"/>
<polygon fill="midnightblue" stroke="midnightblue" points="1397.58,-134.635 1388.43,-139.969 1398.91,-141.508 1397.58,-134.635"/>
</g>
<!-- Node15 -->
<g id="node12" class="node"><title>Node15</title>
<g id="a_node12"><a xlink:href="_socket_8h.html" target="_top" xlink:title=" ">
<polygon fill="white" stroke="black" points="1482.5,-6 1482.5,-25 1586.5,-25 1586.5,-6 1482.5,-6"/>
<text text-anchor="middle" x="1534.5" y="-13" font-family="Helvetica,sans-Serif" font-size="10.00">Cpl/TShell/Socket.h</text>
</a>
</g>
</g>
<!-- Node12&#45;&gt;Node15 -->
<g id="edge11" class="edge"><title>Node12&#45;&gt;Node15</title>
<path fill="none" stroke="midnightblue" d="M1378.46,-69.6013C1416.33,-56.7138 1475.81,-36.4728 1509.34,-25.0637"/>
<polygon fill="midnightblue" stroke="midnightblue" points="1377.2,-66.3334 1368.86,-72.8685 1379.46,-72.9601 1377.2,-66.3334"/>
</g>
<!-- Node16&#45;&gt;Node6 -->
<g id="edge13" class="edge"><title>Node16&#45;&gt;Node6</title>
<path fill="none" stroke="midnightblue" d="M532.311,-70.4039C482.379,-57.5757 401.265,-36.7361 355.909,-25.0834"/>
<polygon fill="midnightblue" stroke="midnightblue" points="531.608,-73.837 542.165,-72.9355 533.35,-67.0572 531.608,-73.837"/>
</g>
<!-- Node22&#45;&gt;Node4 -->
<g id="edge19" class="edge"><title>Node22&#45;&gt;Node4</title>
<path fill="none" stroke="midnightblue" d="M460.046,-138.209C407.21,-128.654 327.387,-113.593 258.5,-98 250.566,-96.2041 242.046,-94.093 234.106,-92.046"/>
<polygon fill="midnightblue" stroke="midnightblue" points="459.453,-141.658 469.915,-139.986 460.694,-134.769 459.453,-141.658"/>
</g>
<!-- Node22&#45;&gt;Node16 -->
<g id="edge20" class="edge"><title>Node22&#45;&gt;Node16</title>
<path fill="none" stroke="midnightblue" d="M532.851,-132.135C543.998,-119.423 559.016,-102.298 567.935,-92.1273"/>
<polygon fill="midnightblue" stroke="midnightblue" points="530.149,-129.908 526.187,-139.734 535.412,-134.523 530.149,-129.908"/>
</g>
<!-- Node23 -->
<g id="node19" class="node"><title>Node23</title>
<g id="a_node19"><a xlink:href="_std_in_8h.html" target="_top" xlink:title=" ">
<polygon fill="white" stroke="black" points="387.5,-73 387.5,-92 489.5,-92 489.5,-73 387.5,-73"/>
<text text-anchor="middle" x="438.5" y="-80" font-family="Helvetica,sans-Serif" font-size="10.00">Cpl/Io/Stdio/StdIn.h</text>
</a>
</g>
</g>
<!-- Node22&#45;&gt;Node23 -->
<g id="edge21" class="edge"><title>Node22&#45;&gt;Node23</title>
<path fill="none" stroke="midnightblue" d="M499.686,-133.213C483.924,-120.407 461.993,-102.588 449.118,-92.1273"/>
<polygon fill="midnightblue" stroke="midnightblue" points="497.743,-136.144 507.711,-139.734 502.157,-130.711 497.743,-136.144"/>
</g>
<!-- Node25&#45;&gt;Node15 -->
<g id="edge27" class="edge"><title>Node25&#45;&gt;Node15</title>
<path fill="none" stroke="midnightblue" d="M1830.24,-136.492C1805.5,-127.557 1772.44,-114.145 1745.5,-98 1726.8,-86.797 1726.79,-77.1451 1707.5,-67 1667.76,-46.1015 1618.21,-32.7644 1582.34,-25.0783"/>
<polygon fill="midnightblue" stroke="midnightblue" points="1829.37,-139.894 1839.96,-139.926 1831.7,-133.294 1829.37,-139.894"/>
</g>
<!-- Node26 -->
<g id="node22" class="node"><title>Node26</title>
<g id="a_node22"><a xlink:href="_context___8h.html" target="_top" xlink:title=" ">
<polygon fill="white" stroke="black" points="1868.5,-73 1868.5,-92 1980.5,-92 1980.5,-73 1868.5,-73"/>
<text text-anchor="middle" x="1924.5" y="-80" font-family="Helvetica,sans-Serif" font-size="10.00">Cpl/TShell/Context_.h</text>
</a>
</g>
</g>
<!-- Node25&#45;&gt;Node26 -->
<g id="edge24" class="edge"><title>Node25&#45;&gt;Node26</title>
<path fill="none" stroke="midnightblue" d="M1881.1,-132.135C1892.45,-119.423 1907.73,-102.298 1916.8,-92.1273"/>
<polygon fill="midnightblue" stroke="midnightblue" points="1878.37,-129.942 1874.32,-139.734 1883.59,-134.603 1878.37,-129.942"/>
</g>
<!-- Node46 -->
<g id="node25" class="node"><title>Node46</title>
<g id="a_node25"><a xlink:href="_t_shell_2_stdio_8h.html" target="_top" xlink:title=" ">
<polygon fill="white" stroke="black" points="1755,-73 1755,-92 1850,-92 1850,-73 1755,-73"/>
<text text-anchor="middle" x="1802.5" y="-80" font-family="Helvetica,sans-Serif" font-size="10.00">Cpl/TShell/Stdio.h</text>
</a>
</g>
</g>
<!-- Node25&#45;&gt;Node46 -->
<g id="edge28" class="edge"><title>Node25&#45;&gt;Node46</title>
<path fill="none" stroke="midnightblue" d="M1850.74,-132.497C1838.19,-119.75 1821.1,-102.395 1810.99,-92.1273"/>
<polygon fill="midnightblue" stroke="midnightblue" points="1848.36,-135.064 1857.87,-139.734 1853.35,-130.152 1848.36,-135.064"/>
</g>
<!-- Node27 -->
<g id="node23" class="node"><title>Node27</title>
<g id="a_node23"><a xlink:href="_cmd_2_command_8h.html" target="_top" xlink:title=" ">
<polygon fill="white" stroke="red" points="1896.5,-6 1896.5,-25 2036.5,-25 2036.5,-6 1896.5,-6"/>
<text text-anchor="middle" x="1966.5" y="-13" font-family="Helvetica,sans-Serif" font-size="10.00">Cpl/TShell/Cmd/Command.h</text>
</a>
</g>
</g>
<!-- Node26&#45;&gt;Node27 -->
<g id="edge25" class="edge"><title>Node26&#45;&gt;Node27</title>
<path fill="none" stroke="midnightblue" d="M1935.79,-64.0347C1943.92,-51.4499 1954.54,-35.0072 1960.93,-25.1273"/>
<polygon fill="midnightblue" stroke="midnightblue" points="1932.65,-62.4351 1930.16,-72.7338 1938.53,-66.2341 1932.65,-62.4351"/>
</g>
<!-- Node42 -->
<g id="node24" class="node"><title>Node42</title>
<g id="a_node24"><a xlink:href="_processor_8h.html" target="_top" xlink:title=" ">
<polygon fill="white" stroke="red" points="2126,-6 2126,-25 2243,-25 2243,-6 2126,-6"/>
<text text-anchor="middle" x="2184.5" y="-13" font-family="Helvetica,sans-Serif" font-size="10.00">Cpl/TShell/Processor.h</text>
</a>
</g>
</g>
<!-- Node26&#45;&gt;Node42 -->
<g id="edge26" class="edge"><title>Node26&#45;&gt;Node42</title>
<path fill="none" stroke="midnightblue" d="M1968.56,-70.4841C2019.85,-57.6627 2103.46,-36.7605 2150.17,-25.0834"/>
<polygon fill="midnightblue" stroke="midnightblue" points="1967.61,-67.1146 1958.76,-72.9355 1969.31,-73.9056 1967.61,-67.1146"/>
</g>
<!-- Node47&#45;&gt;Node42 -->
<g id="edge30" class="edge"><title>Node47&#45;&gt;Node42</title>
<path fill="none" stroke="midnightblue" d="M2227.63,-132.321C2219.3,-122.986 2209.59,-110.622 2203.5,-98 2191.51,-73.1371 2186.85,-40.2864 2185.25,-25.0004"/>
<polygon fill="midnightblue" stroke="midnightblue" points="2225.09,-134.734 2234.47,-139.675 2230.22,-129.968 2225.09,-134.734"/>
</g>
<!-- Node48 -->
<g id="node27" class="node"><title>Node48</title>
<g id="a_node27"><a xlink:href="_ascii_decoder_8h.html" target="_top" xlink:title=" ">
<polygon fill="white" stroke="black" points="2213,-73 2213,-92 2366,-92 2366,-73 2213,-73"/>
<text text-anchor="middle" x="2289.5" y="-80" font-family="Helvetica,sans-Serif" font-size="10.00">Cpl/Text/Frame/AsciiDecoder.h</text>
</a>
</g>
</g>
<!-- Node47&#45;&gt;Node48 -->
<g id="edge31" class="edge"><title>Node47&#45;&gt;Node48</title>
<path fill="none" stroke="midnightblue" d="M2255.6,-131.404C2264.54,-118.773 2276.33,-102.104 2283.39,-92.1273"/>
<polygon fill="midnightblue" stroke="midnightblue" points="2252.62,-129.549 2249.7,-139.734 2258.34,-133.593 2252.62,-129.549"/>
</g>
<!-- Node49 -->
<g id="node28" class="node"><title>Node49</title>
<g id="a_node28"><a xlink:href="_line_decoder_8h.html" target="_top" xlink:title=" ">
<polygon fill="white" stroke="red" points="2384,-73 2384,-92 2533,-92 2533,-73 2384,-73"/>
<text text-anchor="middle" x="2458.5" y="-80" font-family="Helvetica,sans-Serif" font-size="10.00">Cpl/Text/Frame/LineDecoder.h</text>
</a>
</g>
</g>
<!-- Node47&#45;&gt;Node49 -->
<g id="edge32" class="edge"><title>Node47&#45;&gt;Node49</title>
<path fill="none" stroke="midnightblue" d="M2281.77,-136.929C2324.34,-124.059 2392.11,-103.57 2430.17,-92.0637"/>
<polygon fill="midnightblue" stroke="midnightblue" points="2280.61,-133.624 2272.05,-139.869 2282.64,-140.325 2280.61,-133.624"/>
</g>
<!-- Node47&#45;&gt;Node50 -->
<g id="edge33" class="edge"><title>Node47&#45;&gt;Node50</title>
<path fill="none" stroke="midnightblue" d="M2310.91,-138.427C2398.47,-125.343 2549.37,-102.795 2627.82,-91.0729"/>
<polygon fill="midnightblue" stroke="midnightblue" points="2310.19,-134.996 2300.82,-139.936 2311.22,-141.919 2310.19,-134.996"/>
</g>
<!-- Node50&#45;&gt;Node51 -->
<g id="edge34" class="edge"><title>Node50&#45;&gt;Node51</title>
<path fill="none" stroke="midnightblue" d="M2667.75,-64.0347C2661.3,-53.5556 2653.21,-40.4016 2647.17,-30.589"/>
<polygon fill="midnightblue" stroke="midnightblue" points="2664.88,-66.0516 2673.11,-72.7338 2670.85,-62.3829 2664.88,-66.0516"/>
</g>
<!-- Node52 -->
<g id="node31" class="node"><title>Node52</title>
<g id="a_node31"><a xlink:href="_driver_2_t_pipe_2_maker_8h.html" target="_top" xlink:title=" ">
<polygon fill="white" stroke="black" points="2705,-6 2705,-25 2814,-25 2814,-6 2705,-6"/>
<text text-anchor="middle" x="2759.5" y="-13" font-family="Helvetica,sans-Serif" font-size="10.00">Driver/TPipe/Maker.h</text>
</a>
</g>
</g>
<!-- Node50&#45;&gt;Node52 -->
<g id="edge35" class="edge"><title>Node50&#45;&gt;Node52</title>
<path fill="none" stroke="midnightblue" d="M2697.55,-66.2134C2713.51,-53.407 2735.71,-35.5884 2748.75,-25.1273"/>
<polygon fill="midnightblue" stroke="midnightblue" points="2695.03,-63.7453 2689.42,-72.7338 2699.41,-69.2048 2695.03,-63.7453"/>
</g>
<!-- Node54&#45;&gt;Node8 -->
<g id="edge45" class="edge"><title>Node54&#45;&gt;Node8</title>
<path fill="none" stroke="midnightblue" d="M2637.72,-207.711C2423.8,-198.255 1610.15,-162.287 1395.61,-152.804"/>
<polygon fill="midnightblue" stroke="midnightblue" points="2637.6,-211.209 2647.74,-208.154 2637.91,-204.216 2637.6,-211.209"/>
</g>
<!-- Node54&#45;&gt;Node24 -->
<g id="edge54" class="edge"><title>Node54&#45;&gt;Node24</title>
<path fill="none" stroke="midnightblue" d="M2731.86,-198.896C2775.95,-187.34 2844.03,-169.495 2884.04,-159.009"/>
<polygon fill="midnightblue" stroke="midnightblue" points="2730.81,-195.554 2722.02,-201.475 2732.58,-202.325 2730.81,-195.554"/>
</g>
<!-- Node54&#45;&gt;Node25 -->
<g id="edge64" class="edge"><title>Node54&#45;&gt;Node25</title>
<path fill="none" stroke="midnightblue" d="M2637.74,-209.266C2515.79,-207.019 2201.05,-198.203 1940.5,-165 1928.81,-163.511 1916.2,-161.276 1904.75,-159.005"/>
<polygon fill="midnightblue" stroke="midnightblue" points="2637.85,-212.768 2647.91,-209.446 2637.97,-205.769 2637.85,-212.768"/>
</g>
<!-- Node54&#45;&gt;Node50 -->
<g id="edge69" class="edge"><title>Node54&#45;&gt;Node50</title>
<path fill="none" stroke="midnightblue" d="M2741.3,-210.161C2819.6,-209.177 2962.41,-202.175 2994.5,-165 3003.5,-154.571 3003.44,-144.483 2994.5,-134 2961.02,-94.7407 2809.76,-85.8664 2729.26,-83.9523"/>
<polygon fill="midnightblue" stroke="midnightblue" points="2741.12,-206.663 2731.15,-210.26 2741.19,-213.662 2741.12,-206.663"/>
</g>
<!-- Node54&#45;&gt;Node51 -->
<g id="edge68" class="edge"><title>Node54&#45;&gt;Node51</title>
<path fill="none" stroke="midnightblue" d="M2741.25,-210.655C2823.41,-210.464 2977.97,-204.676 3012.5,-165 3021.55,-154.607 3020.65,-145.107 3012.5,-134 3002.58,-120.489 2786.45,-58.1915 2687.36,-30.1937"/>
<polygon fill="midnightblue" stroke="midnightblue" points="2741.12,-207.155 2731.12,-210.651 2741.12,-214.155 2741.12,-207.155"/>
</g>
<!-- Node54&#45;&gt;Node53 -->
<g id="edge70" class="edge"><title>Node54&#45;&gt;Node53</title>
<path fill="none" stroke="midnightblue" d="M2637.62,-208.169C2511.06,-203.347 2193.81,-188.994 2152.5,-165 2126.22,-149.739 2109.51,-116.62 2101.7,-97.6336"/>
<polygon fill="midnightblue" stroke="midnightblue" points="2637.71,-211.674 2647.83,-208.553 2637.97,-204.679 2637.71,-211.674"/>
</g>
<!-- Node55 -->
<g id="node34" class="node"><title>Node55</title>
<g id="a_node34"><a xlink:href="_atomic_output_api_8h.html" target="_top" xlink:title=" ">
<polygon fill="white" stroke="black" points="3080.5,-140 3080.5,-159 3208.5,-159 3208.5,-140 3080.5,-140"/>
<text text-anchor="middle" x="3144.5" y="-147" font-family="Helvetica,sans-Serif" font-size="10.00">Cpl/Io/AtomicOutputApi.h</text>
</a>
</g>
</g>
<!-- Node54&#45;&gt;Node55 -->
<g id="edge40" class="edge"><title>Node54&#45;&gt;Node55</title>
<path fill="none" stroke="midnightblue" d="M2741.45,-204.878C2814.29,-197.452 2950.82,-182.637 3066.5,-165 3077.8,-163.277 3089.97,-161.147 3101.26,-159.055"/>
<polygon fill="midnightblue" stroke="midnightblue" points="2740.78,-201.429 2731.18,-205.92 2741.48,-208.393 2740.78,-201.429"/>
</g>
<!-- Node57 -->
<g id="node36" class="node"><title>Node57</title>
<g id="a_node36"><a xlink:href="_output_api_8h.html" target="_top" xlink:title=" ">
<polygon fill="white" stroke="black" points="267.5,-140 267.5,-159 383.5,-159 383.5,-140 267.5,-140"/>
<text text-anchor="middle" x="325.5" y="-147" font-family="Helvetica,sans-Serif" font-size="10.00">Cpl/Io/File/OutputApi.h</text>
</a>
</g>
</g>
<!-- Node54&#45;&gt;Node57 -->
<g id="edge42" class="edge"><title>Node54&#45;&gt;Node57</title>
<path fill="none" stroke="midnightblue" d="M2637.45,-208.528C2569.91,-206.645 2448.41,-203.346 2344.5,-201 1505.45,-182.057 1294.01,-219.222 456.5,-165 432.638,-163.455 406.429,-160.755 383.765,-158.101"/>
<polygon fill="midnightblue" stroke="midnightblue" points="2637.72,-212.037 2647.81,-208.818 2637.92,-205.04 2637.72,-212.037"/>
</g>
<!-- Node59 -->
<g id="node38" class="node"><title>Node59</title>
<g id="a_node38"><a xlink:href="_line_writer_8h.html" target="_top" xlink:title=" ">
<polygon fill="white" stroke="black" points="3227,-140 3227,-159 3324,-159 3324,-140 3227,-140"/>
<text text-anchor="middle" x="3275.5" y="-147" font-family="Helvetica,sans-Serif" font-size="10.00">Cpl/Io/LineWriter.h</text>
</a>
</g>
</g>
<!-- Node54&#45;&gt;Node59 -->
<g id="edge46" class="edge"><title>Node54&#45;&gt;Node59</title>
<path fill="none" stroke="midnightblue" d="M2741.4,-208.329C2836.43,-204.661 3044.53,-193.802 3217.5,-165 3226.61,-163.483 3236.4,-161.268 3245.29,-159.024"/>
<polygon fill="midnightblue" stroke="midnightblue" points="2741.06,-204.84 2731.2,-208.712 2741.32,-211.835 2741.06,-204.84"/>
</g>
<!-- Node60 -->
<g id="node39" class="node"><title>Node60</title>
<g id="a_node39"><a xlink:href="_serial_2_r_p2040_2_stdio_2_output_8h.html" target="_top" xlink:title=" ">
<polygon fill="white" stroke="black" points="3342,-134.5 3342,-164.5 3449,-164.5 3449,-134.5 3342,-134.5"/>
<text text-anchor="start" x="3350" y="-152.5" font-family="Helvetica,sans-Serif" font-size="10.00">Cpl/Io/Serial/RP2040</text>
<text text-anchor="middle" x="3395.5" y="-141.5" font-family="Helvetica,sans-Serif" font-size="10.00">/Stdio/Output.h</text>
</a>
</g>
</g>
<!-- Node54&#45;&gt;Node60 -->
<g id="edge47" class="edge"><title>Node54&#45;&gt;Node60</title>
<path fill="none" stroke="midnightblue" d="M2741.24,-209.118C2850.85,-206.65 3114.3,-197.541 3332.5,-165 3335.61,-164.536 3338.79,-164.001 3341.99,-163.414"/>
<polygon fill="midnightblue" stroke="midnightblue" points="2741.04,-205.621 2731.12,-209.337 2741.19,-212.62 2741.04,-205.621"/>
</g>
<!-- Node61 -->
<g id="node40" class="node"><title>Node61</title>
<g id="a_node40"><a xlink:href="_output___8h.html" target="_top" xlink:title=" ">
<polygon fill="white" stroke="black" points="658,-140 658,-159 771,-159 771,-140 658,-140"/>
<text text-anchor="middle" x="714.5" y="-147" font-family="Helvetica,sans-Serif" font-size="10.00">Cpl/Io/Stdio/Output_.h</text>
</a>
</g>
</g>
<!-- Node54&#45;&gt;Node61 -->
<g id="edge48" class="edge"><title>Node54&#45;&gt;Node61</title>
<path fill="none" stroke="midnightblue" d="M2637.63,-208.437C2360.82,-200.098 1059.45,-160.892 771.152,-152.207"/>
<polygon fill="midnightblue" stroke="midnightblue" points="2637.69,-211.941 2647.79,-208.744 2637.9,-204.944 2637.69,-211.941"/>
</g>
<!-- Node64 -->
<g id="node43" class="node"><title>Node64</title>
<g id="a_node43"><a xlink:href="_tee_output_8h.html" target="_top" xlink:title=" ">
<polygon fill="white" stroke="black" points="3467,-140 3467,-159 3566,-159 3566,-140 3467,-140"/>
<text text-anchor="middle" x="3516.5" y="-147" font-family="Helvetica,sans-Serif" font-size="10.00">Cpl/Io/TeeOutput.h</text>
</a>
</g>
</g>
<!-- Node54&#45;&gt;Node64 -->
<g id="edge53" class="edge"><title>Node54&#45;&gt;Node64</title>
<path fill="none" stroke="midnightblue" d="M2741.41,-210.212C2865.78,-210.014 3190.31,-205.315 3457.5,-165 3466.99,-163.568 3477.19,-161.322 3486.39,-159.021"/>
<polygon fill="midnightblue" stroke="midnightblue" points="2741.4,-206.712 2731.4,-210.219 2741.41,-213.712 2741.4,-206.712"/>
</g>
<!-- Node65 -->
<g id="node44" class="node"><title>Node65</title>
<g id="a_node44"><a xlink:href="_system_2_trace_8h.html" target="_top" xlink:title=" ">
<polygon fill="white" stroke="black" points="3584.5,-140 3584.5,-159 3688.5,-159 3688.5,-140 3584.5,-140"/>
<text text-anchor="middle" x="3636.5" y="-147" font-family="Helvetica,sans-Serif" font-size="10.00">Cpl/System/Trace.h</text>
</a>
</g>
</g>
<!-- Node54&#45;&gt;Node65 -->
<g id="edge55" class="edge"><title>Node54&#45;&gt;Node65</title>
<path fill="none" stroke="midnightblue" d="M2741.42,-210.59C2878.38,-211.45 3260.5,-209.337 3574.5,-165 3584.46,-163.594 3595.17,-161.355 3604.85,-159.053"/>
<polygon fill="midnightblue" stroke="midnightblue" points="2741.25,-207.089 2731.22,-210.517 2741.2,-214.088 2741.25,-207.089"/>
</g>
<!-- Node70 -->
<g id="node49" class="node"><title>Node70</title>
<g id="a_node49"><a xlink:href="_command_8h.html" target="_top" xlink:title=" ">
<polygon fill="white" stroke="black" points="1950,-140 1950,-159 2067,-159 2067,-140 1950,-140"/>
<text text-anchor="middle" x="2008.5" y="-147" font-family="Helvetica,sans-Serif" font-size="10.00">Cpl/TShell/Command.h</text>
</a>
</g>
</g>
<!-- Node54&#45;&gt;Node70 -->
<g id="edge60" class="edge"><title>Node54&#45;&gt;Node70</title>
<path fill="none" stroke="midnightblue" d="M2637.8,-206.807C2537.64,-200.424 2310.2,-184.97 2119.5,-165 2102.49,-163.219 2084.06,-160.949 2067.19,-158.736"/>
<polygon fill="midnightblue" stroke="midnightblue" points="2637.75,-210.311 2647.95,-207.45 2638.19,-203.325 2637.75,-210.311"/>
</g>
<!-- Node71 -->
<g id="node50" class="node"><title>Node71</title>
<g id="a_node50"><a xlink:href="_stream_encoder_8h.html" target="_top" xlink:title=" ">
<polygon fill="white" stroke="black" points="2382,-140 2382,-159 2545,-159 2545,-140 2382,-140"/>
<text text-anchor="middle" x="2463.5" y="-147" font-family="Helvetica,sans-Serif" font-size="10.00">Cpl/Text/Frame/StreamEncoder.h</text>
</a>
</g>
</g>
<!-- Node54&#45;&gt;Node71 -->
<g id="edge65" class="edge"><title>Node54&#45;&gt;Node71</title>
<path fill="none" stroke="midnightblue" d="M2647.32,-198.896C2603.43,-187.34 2535.65,-169.495 2495.82,-159.009"/>
<polygon fill="midnightblue" stroke="midnightblue" points="2646.56,-202.314 2657.12,-201.475 2648.34,-195.544 2646.56,-202.314"/>
</g>
<!-- Node56 -->
<g id="node35" class="node"><title>Node56</title>
<g id="a_node35"><a xlink:href="_atomic_output_8h.html" target="_top" xlink:title=" ">
<polygon fill="white" stroke="black" points="3088,-73 3088,-92 3201,-92 3201,-73 3088,-73"/>
<text text-anchor="middle" x="3144.5" y="-80" font-family="Helvetica,sans-Serif" font-size="10.00">Cpl/Io/AtomicOutput.h</text>
</a>
</g>
</g>
<!-- Node55&#45;&gt;Node56 -->
<g id="edge41" class="edge"><title>Node55&#45;&gt;Node56</title>
<path fill="none" stroke="midnightblue" d="M3144.5,-129.537C3144.5,-117.17 3144.5,-101.62 3144.5,-92.1273"/>
<polygon fill="midnightblue" stroke="midnightblue" points="3141,-129.734 3144.5,-139.734 3148,-129.734 3141,-129.734"/>
</g>
<!-- Node57&#45;&gt;Node5 -->
<g id="edge43" class="edge"><title>Node57&#45;&gt;Node5</title>
<path fill="none" stroke="midnightblue" d="M281.628,-137.404C230.907,-124.576 148.511,-103.736 102.438,-92.0834"/>
<polygon fill="midnightblue" stroke="midnightblue" points="281.085,-140.877 291.637,-139.936 282.801,-134.09 281.085,-140.877"/>
</g>
<!-- Node58 -->
<g id="node37" class="node"><title>Node58</title>
<g id="a_node37"><a xlink:href="_file_2_output_8h.html" target="_top" xlink:title=" ">
<polygon fill="white" stroke="black" points="268,-73 268,-92 369,-92 369,-73 268,-73"/>
<text text-anchor="middle" x="318.5" y="-80" font-family="Helvetica,sans-Serif" font-size="10.00">Cpl/Io/File/Output.h</text>
</a>
</g>
</g>
<!-- Node57&#45;&gt;Node58 -->
<g id="edge44" class="edge"><title>Node57&#45;&gt;Node58</title>
<path fill="none" stroke="midnightblue" d="M323.458,-129.537C322.126,-117.17 320.451,-101.62 319.429,-92.1273"/>
<polygon fill="midnightblue" stroke="midnightblue" points="320.005,-130.166 324.556,-139.734 326.965,-129.417 320.005,-130.166"/>
</g>
<!-- Node61&#45;&gt;Node16 -->
<g id="edge50" class="edge"><title>Node61&#45;&gt;Node16</title>
<path fill="none" stroke="midnightblue" d="M686.941,-135.613C659.41,-122.739 617.854,-103.306 594.034,-92.1672"/>
<polygon fill="midnightblue" stroke="midnightblue" points="685.501,-138.803 696.042,-139.869 688.466,-132.462 685.501,-138.803"/>
</g>
<!-- Node61&#45;&gt;Node58 -->
<g id="edge49" class="edge"><title>Node61&#45;&gt;Node58</title>
<path fill="none" stroke="midnightblue" d="M647.612,-140.21C579.588,-131.366 471.284,-116.148 378.5,-98 369.666,-96.2721 360.169,-94.1169 351.395,-92.001"/>
<polygon fill="midnightblue" stroke="midnightblue" points="647.395,-143.711 657.761,-141.521 648.292,-136.768 647.395,-143.711"/>
</g>
<!-- Node62 -->
<g id="node41" class="node"><title>Node62</title>
<g id="a_node41"><a xlink:href="_std_err_8h.html" target="_top" xlink:title=" ">
<polygon fill="white" stroke="black" points="661,-73 661,-92 768,-92 768,-73 661,-73"/>
<text text-anchor="middle" x="714.5" y="-80" font-family="Helvetica,sans-Serif" font-size="10.00">Cpl/Io/Stdio/StdErr.h</text>
</a>
</g>
</g>
<!-- Node61&#45;&gt;Node62 -->
<g id="edge51" class="edge"><title>Node61&#45;&gt;Node62</title>
<path fill="none" stroke="midnightblue" d="M714.5,-129.537C714.5,-117.17 714.5,-101.62 714.5,-92.1273"/>
<polygon fill="midnightblue" stroke="midnightblue" points="711,-129.734 714.5,-139.734 718,-129.734 711,-129.734"/>
</g>
<!-- Node63 -->
<g id="node42" class="node"><title>Node63</title>
<g id="a_node42"><a xlink:href="_std_out_8h.html" target="_top" xlink:title=" ">
<polygon fill="white" stroke="black" points="786.5,-73 786.5,-92 896.5,-92 896.5,-73 786.5,-73"/>
<text text-anchor="middle" x="841.5" y="-80" font-family="Helvetica,sans-Serif" font-size="10.00">Cpl/Io/Stdio/StdOut.h</text>
</a>
</g>
</g>
<!-- Node61&#45;&gt;Node63 -->
<g id="edge52" class="edge"><title>Node61&#45;&gt;Node63</title>
<path fill="none" stroke="midnightblue" d="M740.342,-135.274C765.496,-122.4 802.992,-103.209 824.566,-92.1672"/>
<polygon fill="midnightblue" stroke="midnightblue" points="738.672,-132.197 731.365,-139.869 741.861,-138.428 738.672,-132.197"/>
</g>
<!-- Node66 -->
<g id="node45" class="node"><title>Node66</title>
<g id="a_node45"><a xlink:href="helpers_8h.html" target="_top" xlink:title="This file defines helper functions/interface for writing unit tests.">
<polygon fill="white" stroke="black" points="3402,-73 3402,-92 3487,-92 3487,-73 3402,-73"/>
<text text-anchor="middle" x="3444.5" y="-80" font-family="Helvetica,sans-Serif" font-size="10.00">Catch/helpers.h</text>
</a>
</g>
</g>
<!-- Node65&#45;&gt;Node66 -->
<g id="edge56" class="edge"><title>Node65&#45;&gt;Node66</title>
<path fill="none" stroke="midnightblue" d="M3601.35,-136.601C3563.29,-123.714 3503.5,-103.473 3469.8,-92.0637"/>
<polygon fill="midnightblue" stroke="midnightblue" points="3600.41,-139.977 3611,-139.869 3602.65,-133.347 3600.41,-139.977"/>
</g>
<!-- Node67 -->
<g id="node46" class="node"><title>Node67</title>
<g id="a_node46"><a xlink:href="_cpl_2_system_2_private___8h.html" target="_top" xlink:title="This file contains a collection of classes, interfaces, etc.">
<polygon fill="white" stroke="red" points="3505,-73 3505,-92 3620,-92 3620,-73 3505,-73"/>
<text text-anchor="middle" x="3562.5" y="-80" font-family="Helvetica,sans-Serif" font-size="10.00">Cpl/System/Private_.h</text>
</a>
</g>
</g>
<!-- Node65&#45;&gt;Node67 -->
<g id="edge57" class="edge"><title>Node65&#45;&gt;Node67</title>
<path fill="none" stroke="midnightblue" d="M3618.69,-132.856C3604.14,-120.078 3584.12,-102.492 3572.32,-92.1273"/>
<polygon fill="midnightblue" stroke="midnightblue" points="3616.7,-135.764 3626.52,-139.734 3621.32,-130.505 3616.7,-135.764"/>
</g>
<!-- Node68 -->
<g id="node47" class="node"><title>Node68</title>
<g id="a_node47"><a xlink:href="_fsm__trace___8h.html" target="_top" xlink:title=" ">
<polygon fill="white" stroke="black" points="3638,-67.5 3638,-97.5 3783,-97.5 3783,-67.5 3638,-67.5"/>
<text text-anchor="start" x="3646" y="-85.5" font-family="Helvetica,sans-Serif" font-size="10.00">Storm/Component/Equipment</text>
<text text-anchor="middle" x="3710.5" y="-74.5" font-family="Helvetica,sans-Serif" font-size="10.00">/Stage/Fsm_trace_.h</text>
</a>
</g>
</g>
<!-- Node65&#45;&gt;Node68 -->
<g id="edge58" class="edge"><title>Node65&#45;&gt;Node68</title>
<path fill="none" stroke="midnightblue" d="M3654.23,-132.928C3666.47,-122.179 3682.6,-108.002 3694.46,-97.589"/>
<polygon fill="midnightblue" stroke="midnightblue" points="3651.68,-130.505 3646.48,-139.734 3656.3,-135.764 3651.68,-130.505"/>
</g>
<!-- Node69 -->
<g id="node48" class="node"><title>Node69</title>
<g id="a_node48"><a xlink:href="_event_monitor_8h_source.html" target="_top" xlink:title=" ">
<polygon fill="white" stroke="black" points="3801.5,-67.5 3801.5,-97.5 3941.5,-97.5 3941.5,-67.5 3801.5,-67.5"/>
<text text-anchor="start" x="3809.5" y="-85.5" font-family="Helvetica,sans-Serif" font-size="10.00">Storm/Thermostat/Ui</text>
<text text-anchor="middle" x="3871.5" y="-74.5" font-family="Helvetica,sans-Serif" font-size="10.00">/PicoDisplay/EventMonitor.h</text>
</a>
</g>
</g>
<!-- Node65&#45;&gt;Node69 -->
<g id="edge59" class="edge"><title>Node65&#45;&gt;Node69</title>
<path fill="none" stroke="midnightblue" d="M3677.36,-137.198C3717.2,-126.179 3777.88,-109.394 3820.78,-97.5281"/>
<polygon fill="midnightblue" stroke="midnightblue" points="3676.41,-133.829 3667.71,-139.869 3678.28,-140.576 3676.41,-133.829"/>
</g>
<!-- Node70&#45;&gt;Node26 -->
<g id="edge62" class="edge"><title>Node70&#45;&gt;Node26</title>
<path fill="none" stroke="midnightblue" d="M1989.2,-133.568C1972.62,-120.738 1949.29,-102.685 1935.65,-92.1273"/>
<polygon fill="midnightblue" stroke="midnightblue" points="1987.12,-136.382 1997.17,-139.734 1991.4,-130.846 1987.12,-136.382"/>
</g>
<!-- Node70&#45;&gt;Node27 -->
<g id="edge61" class="edge"><title>Node70&#45;&gt;Node27</title>
<path fill="none" stroke="midnightblue" d="M2005.21,-129.674C2002.03,-112.962 1996.65,-88.008 1989.5,-67 1984.34,-51.8614 1976.2,-35.1219 1971.12,-25.223"/>
<polygon fill="midnightblue" stroke="midnightblue" points="2001.82,-130.567 2007.05,-139.777 2008.7,-129.311 2001.82,-130.567"/>
</g>
<!-- Node70&#45;&gt;Node53 -->
<g id="edge63" class="edge"><title>Node70&#45;&gt;Node53</title>
<path fill="none" stroke="midnightblue" d="M2028.75,-133.544C2043.39,-122.725 2063.06,-108.203 2077.43,-97.589"/>
<polygon fill="midnightblue" stroke="midnightblue" points="2026.33,-130.977 2020.37,-139.734 2030.49,-136.608 2026.33,-130.977"/>
</g>
<!-- Node71&#45;&gt;Node42 -->
<g id="edge66" class="edge"><title>Node71&#45;&gt;Node42</title>
<path fill="none" stroke="midnightblue" d="M2491.67,-135.449C2522.03,-119.656 2563.26,-92.0592 2541.5,-67 2503.58,-23.3432 2334.46,-16.3974 2243.26,-15.9128"/>
<polygon fill="midnightblue" stroke="midnightblue" points="2490.05,-132.346 2482.68,-139.956 2493.19,-138.604 2490.05,-132.346"/>
</g>
<!-- Node71&#45;&gt;Node50 -->
<g id="edge67" class="edge"><title>Node71&#45;&gt;Node50</title>
<path fill="none" stroke="midnightblue" d="M2501.77,-136.929C2544.34,-124.059 2612.11,-103.57 2650.17,-92.0637"/>
<polygon fill="midnightblue" stroke="midnightblue" points="2500.61,-133.624 2492.05,-139.869 2502.64,-140.325 2500.61,-133.624"/>
</g>
</g>
</svg>
