<?xml version="1.0" encoding="UTF-8" standalone="no"?>
<!DOCTYPE svg PUBLIC "-//W3C//DTD SVG 1.1//EN"
 "http://www.w3.org/Graphics/SVG/1.1/DTD/svg11.dtd">
<!-- Generated by graphviz version 2.38.0 (20140413.2041)
 -->
<!-- Title: Cpl/Io/IsEos.h Pages: 1 -->
<svg width="2737pt" height="397pt"
 viewBox="0.00 0.00 2737.00 397.00" xmlns="http://www.w3.org/2000/svg" xmlns:xlink="http://www.w3.org/1999/xlink">
<g id="graph0" class="graph" transform="scale(1 1) rotate(0) translate(4 393)">
<title>Cpl/Io/IsEos.h</title>
<polygon fill="white" stroke="none" points="-4,4 -4,-393 2733,-393 2733,4 -4,4"/>
<!-- Node1 -->
<g id="node1" class="node"><title>Node1</title>
<g id="a_node1"><a xlink:title=" ">
<polygon fill="#bfbfbf" stroke="black" points="1725,-369.5 1725,-388.5 1804,-388.5 1804,-369.5 1725,-369.5"/>
<text text-anchor="middle" x="1764.5" y="-376.5" font-family="Helvetica,sans-Serif" font-size="10.00">Cpl/Io/IsEos.h</text>
</a>
</g>
</g>
<!-- Node2 -->
<g id="node2" class="node"><title>Node2</title>
<g id="a_node2"><a xlink:href="_input_8h.html" target="_top" xlink:title=" ">
<polygon fill="white" stroke="black" points="1556,-313.5 1556,-332.5 1631,-332.5 1631,-313.5 1556,-313.5"/>
<text text-anchor="middle" x="1593.5" y="-320.5" font-family="Helvetica,sans-Serif" font-size="10.00">Cpl/Io/Input.h</text>
</a>
</g>
</g>
<!-- Node1&#45;&gt;Node2 -->
<g id="edge1" class="edge"><title>Node1&#45;&gt;Node2</title>
<path fill="none" stroke="midnightblue" d="M1727.46,-366.304C1695.24,-356.129 1649.31,-341.625 1620.47,-332.516"/>
<polygon fill="midnightblue" stroke="midnightblue" points="1726.81,-369.77 1737.4,-369.444 1728.92,-363.095 1726.81,-369.77"/>
</g>
<!-- Node44 -->
<g id="node35" class="node"><title>Node44</title>
<g id="a_node35"><a xlink:href="_output_8h.html" target="_top" xlink:title=" ">
<polygon fill="white" stroke="black" points="1895,-313.5 1895,-332.5 1978,-332.5 1978,-313.5 1895,-313.5"/>
<text text-anchor="middle" x="1936.5" y="-320.5" font-family="Helvetica,sans-Serif" font-size="10.00">Cpl/Io/Output.h</text>
</a>
</g>
</g>
<!-- Node1&#45;&gt;Node44 -->
<g id="edge42" class="edge"><title>Node1&#45;&gt;Node44</title>
<path fill="none" stroke="midnightblue" d="M1801.33,-366.436C1833.76,-356.255 1880.24,-341.664 1909.37,-332.516"/>
<polygon fill="midnightblue" stroke="midnightblue" points="1800.25,-363.109 1791.75,-369.444 1802.34,-369.787 1800.25,-363.109"/>
</g>
<!-- Node3 -->
<g id="node3" class="node"><title>Node3</title>
<g id="a_node3"><a xlink:href="_input_api_8h.html" target="_top" xlink:title=" ">
<polygon fill="white" stroke="black" points="141.5,-252 141.5,-271 249.5,-271 249.5,-252 141.5,-252"/>
<text text-anchor="middle" x="195.5" y="-259" font-family="Helvetica,sans-Serif" font-size="10.00">Cpl/Io/File/InputApi.h</text>
</a>
</g>
</g>
<!-- Node2&#45;&gt;Node3 -->
<g id="edge2" class="edge"><title>Node2&#45;&gt;Node3</title>
<path fill="none" stroke="midnightblue" d="M1545.44,-321.62C1337.59,-319.785 514.888,-310.508 258.5,-277 248.15,-275.647 237.006,-273.364 227.01,-271.004"/>
<polygon fill="midnightblue" stroke="midnightblue" points="1545.69,-325.122 1555.72,-321.709 1545.75,-318.122 1545.69,-325.122"/>
</g>
<!-- Node8 -->
<g id="node8" class="node"><title>Node8</title>
<g id="a_node8"><a xlink:href="_input_output_8h.html" target="_top" xlink:title=" ">
<polygon fill="white" stroke="black" points="1160.5,-252 1160.5,-271 1264.5,-271 1264.5,-252 1160.5,-252"/>
<text text-anchor="middle" x="1212.5" y="-259" font-family="Helvetica,sans-Serif" font-size="10.00">Cpl/Io/InputOutput.h</text>
</a>
</g>
</g>
<!-- Node2&#45;&gt;Node8 -->
<g id="edge7" class="edge"><title>Node2&#45;&gt;Node8</title>
<path fill="none" stroke="midnightblue" d="M1546.07,-315.565C1486.18,-307.305 1380.02,-292.217 1289.5,-277 1278.63,-275.173 1266.94,-273.051 1256.02,-271.003"/>
<polygon fill="midnightblue" stroke="midnightblue" points="1545.6,-319.034 1555.99,-316.929 1546.56,-312.099 1545.6,-319.034"/>
</g>
<!-- Node19 -->
<g id="node19" class="node"><title>Node19</title>
<g id="a_node19"><a xlink:href="_line_reader_8h.html" target="_top" xlink:title=" ">
<polygon fill="white" stroke="black" points="1621.5,-252 1621.5,-271 1723.5,-271 1723.5,-252 1621.5,-252"/>
<text text-anchor="middle" x="1672.5" y="-259" font-family="Helvetica,sans-Serif" font-size="10.00">Cpl/Io/LineReader.h</text>
</a>
</g>
</g>
<!-- Node2&#45;&gt;Node19 -->
<g id="edge20" class="edge"><title>Node2&#45;&gt;Node19</title>
<path fill="none" stroke="midnightblue" d="M1613.03,-307.294C1628.18,-295.88 1648.66,-280.458 1661.2,-271.009"/>
<polygon fill="midnightblue" stroke="midnightblue" points="1610.7,-304.663 1604.82,-313.475 1614.91,-310.255 1610.7,-304.663"/>
</g>
<!-- Node20 -->
<g id="node20" class="node"><title>Node20</title>
<g id="a_node20"><a xlink:href="_serial_2_r_p2040_2_stdio_2_input_8h.html" target="_top" xlink:title=" ">
<polygon fill="white" stroke="black" points="1742,-246.5 1742,-276.5 1849,-276.5 1849,-246.5 1742,-246.5"/>
<text text-anchor="start" x="1750" y="-264.5" font-family="Helvetica,sans-Serif" font-size="10.00">Cpl/Io/Serial/RP2040</text>
<text text-anchor="middle" x="1795.5" y="-253.5" font-family="Helvetica,sans-Serif" font-size="10.00">/Stdio/Input.h</text>
</a>
</g>
</g>
<!-- Node2&#45;&gt;Node20 -->
<g id="edge21" class="edge"><title>Node2&#45;&gt;Node20</title>
<path fill="none" stroke="midnightblue" d="M1632.17,-310.609C1665.12,-300.903 1712.61,-286.916 1747.89,-276.523"/>
<polygon fill="midnightblue" stroke="midnightblue" points="1631.05,-307.292 1622.44,-313.475 1633.02,-314.007 1631.05,-307.292"/>
</g>
<!-- Node21 -->
<g id="node21" class="node"><title>Node21</title>
<g id="a_node21"><a xlink:href="_input___8h.html" target="_top" xlink:title=" ">
<polygon fill="white" stroke="black" points="465.5,-252 465.5,-271 571.5,-271 571.5,-252 465.5,-252"/>
<text text-anchor="middle" x="518.5" y="-259" font-family="Helvetica,sans-Serif" font-size="10.00">Cpl/Io/Stdio/Input_.h</text>
</a>
</g>
</g>
<!-- Node2&#45;&gt;Node21 -->
<g id="edge22" class="edge"><title>Node2&#45;&gt;Node21</title>
<path fill="none" stroke="midnightblue" d="M1545.32,-320.787C1406.15,-317.048 991.585,-304.275 648.5,-277 623.145,-274.984 595.093,-271.957 571.557,-269.189"/>
<polygon fill="midnightblue" stroke="midnightblue" points="1545.55,-324.294 1555.63,-321.06 1545.73,-317.296 1545.55,-324.294"/>
</g>
<!-- Node23 -->
<g id="node23" class="node"><title>Node23</title>
<g id="a_node23"><a xlink:href="_system_2_r_p2040_2_stdio_8h.html" target="_top" xlink:title="This interface returns the Cpl Io Stream for the for SDK&#39;s stdio.">
<polygon fill="white" stroke="black" points="1867,-252 1867,-271 2006,-271 2006,-252 1867,-252"/>
<text text-anchor="middle" x="1936.5" y="-259" font-family="Helvetica,sans-Serif" font-size="10.00">Cpl/System/RP2040/Stdio.h</text>
</a>
</g>
</g>
<!-- Node2&#45;&gt;Node23 -->
<g id="edge26" class="edge"><title>Node2&#45;&gt;Node23</title>
<path fill="none" stroke="midnightblue" d="M1641.22,-314.052C1694.12,-305.199 1781.96,-290.37 1857.5,-277 1868.21,-275.104 1879.73,-273.018 1890.57,-271.033"/>
<polygon fill="midnightblue" stroke="midnightblue" points="1640.41,-310.64 1631.12,-315.741 1641.56,-317.544 1640.41,-310.64"/>
</g>
<!-- Node24 -->
<g id="node24" class="node"><title>Node24</title>
<g id="a_node24"><a xlink:href="_processor_api_8h.html" target="_top" xlink:title=" ">
<polygon fill="white" stroke="black" points="1299,-252 1299,-271 1430,-271 1430,-252 1299,-252"/>
<text text-anchor="middle" x="1364.5" y="-259" font-family="Helvetica,sans-Serif" font-size="10.00">Cpl/TShell/ProcessorApi.h</text>
</a>
</g>
</g>
<!-- Node2&#45;&gt;Node24 -->
<g id="edge27" class="edge"><title>Node2&#45;&gt;Node24</title>
<path fill="none" stroke="midnightblue" d="M1550.76,-310.896C1506.29,-299.34 1437.61,-281.495 1397.25,-271.009"/>
<polygon fill="midnightblue" stroke="midnightblue" points="1550.13,-314.348 1560.69,-313.475 1551.89,-307.573 1550.13,-314.348"/>
</g>
<!-- Node41 -->
<g id="node32" class="node"><title>Node41</title>
<g id="a_node32"><a xlink:href="_stream_decoder_8h.html" target="_top" xlink:title=" ">
<polygon fill="white" stroke="black" points="1813,-185 1813,-204 1976,-204 1976,-185 1813,-185"/>
<text text-anchor="middle" x="1894.5" y="-192" font-family="Helvetica,sans-Serif" font-size="10.00">Cpl/Text/Frame/StreamDecoder.h</text>
</a>
</g>
</g>
<!-- Node2&#45;&gt;Node41 -->
<g id="edge36" class="edge"><title>Node2&#45;&gt;Node41</title>
<path fill="none" stroke="midnightblue" d="M1592.82,-303.4C1593.26,-286.021 1596.85,-260.625 1612.5,-246 1627.88,-231.632 1746.18,-214.189 1824.6,-204.017"/>
<polygon fill="midnightblue" stroke="midnightblue" points="1589.32,-303.492 1592.89,-313.468 1596.32,-303.444 1589.32,-303.492"/>
</g>
<!-- Node4 -->
<g id="node4" class="node"><title>Node4</title>
<g id="a_node4"><a xlink:href="_file_2_input_8h.html" target="_top" xlink:title=" ">
<polygon fill="white" stroke="black" points="155.5,-185 155.5,-204 249.5,-204 249.5,-185 155.5,-185"/>
<text text-anchor="middle" x="202.5" y="-192" font-family="Helvetica,sans-Serif" font-size="10.00">Cpl/Io/File/Input.h</text>
</a>
</g>
</g>
<!-- Node3&#45;&gt;Node4 -->
<g id="edge3" class="edge"><title>Node3&#45;&gt;Node4</title>
<path fill="none" stroke="midnightblue" d="M197.542,-241.537C198.874,-229.17 200.549,-213.62 201.571,-204.127"/>
<polygon fill="midnightblue" stroke="midnightblue" points="194.035,-241.417 196.444,-251.734 200.995,-242.166 194.035,-241.417"/>
</g>
<!-- Node5 -->
<g id="node5" class="node"><title>Node5</title>
<g id="a_node5"><a xlink:href="_input_output_api_8h.html" target="_top" xlink:title=" ">
<polygon fill="white" stroke="black" points="0,-185 0,-204 137,-204 137,-185 0,-185"/>
<text text-anchor="middle" x="68.5" y="-192" font-family="Helvetica,sans-Serif" font-size="10.00">Cpl/Io/File/InputOutputApi.h</text>
</a>
</g>
</g>
<!-- Node3&#45;&gt;Node5 -->
<g id="edge4" class="edge"><title>Node3&#45;&gt;Node5</title>
<path fill="none" stroke="midnightblue" d="M169.658,-247.274C144.504,-234.4 107.008,-215.209 85.4344,-204.167"/>
<polygon fill="midnightblue" stroke="midnightblue" points="168.139,-250.428 178.635,-251.869 171.328,-244.197 168.139,-250.428"/>
</g>
<!-- Node6 -->
<g id="node6" class="node"><title>Node6</title>
<g id="a_node6"><a xlink:href="_file_2_input_output_8h.html" target="_top" xlink:title=" ">
<polygon fill="white" stroke="black" points="323,-118 323,-137 446,-137 446,-118 323,-118"/>
<text text-anchor="middle" x="384.5" y="-125" font-family="Helvetica,sans-Serif" font-size="10.00">Cpl/Io/File/InputOutput.h</text>
</a>
</g>
</g>
<!-- Node5&#45;&gt;Node6 -->
<g id="edge5" class="edge"><title>Node5&#45;&gt;Node6</title>
<path fill="none" stroke="midnightblue" d="M120.133,-182.879C182.371,-170.077 285.718,-148.819 343.023,-137.032"/>
<polygon fill="midnightblue" stroke="midnightblue" points="119.226,-179.492 110.136,-184.936 120.637,-186.349 119.226,-179.492"/>
</g>
<!-- Node7 -->
<g id="node7" class="node"><title>Node7</title>
<g id="a_node7"><a xlink:href="_file_2_null_8h.html" target="_top" xlink:title=" ">
<polygon fill="white" stroke="black" points="24,-118 24,-137 113,-137 113,-118 24,-118"/>
<text text-anchor="middle" x="68.5" y="-125" font-family="Helvetica,sans-Serif" font-size="10.00">Cpl/Io/File/Null.h</text>
</a>
</g>
</g>
<!-- Node5&#45;&gt;Node7 -->
<g id="edge6" class="edge"><title>Node5&#45;&gt;Node7</title>
<path fill="none" stroke="midnightblue" d="M68.5,-174.537C68.5,-162.17 68.5,-146.62 68.5,-137.127"/>
<polygon fill="midnightblue" stroke="midnightblue" points="65.0001,-174.734 68.5,-184.734 72.0001,-174.734 65.0001,-174.734"/>
</g>
<!-- Node9 -->
<g id="node9" class="node"><title>Node9</title>
<g id="a_node9"><a xlink:href="_null_8h.html" target="_top" xlink:title=" ">
<polygon fill="white" stroke="black" points="914.5,-185 914.5,-204 984.5,-204 984.5,-185 914.5,-185"/>
<text text-anchor="middle" x="949.5" y="-192" font-family="Helvetica,sans-Serif" font-size="10.00">Cpl/Io/Null.h</text>
</a>
</g>
</g>
<!-- Node8&#45;&gt;Node9 -->
<g id="edge8" class="edge"><title>Node8&#45;&gt;Node9</title>
<path fill="none" stroke="midnightblue" d="M1160.21,-249.852C1115.62,-240.439 1049.98,-225.782 993.5,-210 987.148,-208.225 980.351,-206.099 974.046,-204.03"/>
<polygon fill="midnightblue" stroke="midnightblue" points="1159.72,-253.327 1170.23,-251.955 1161.16,-246.476 1159.72,-253.327"/>
</g>
<!-- Node10 -->
<g id="node10" class="node"><title>Node10</title>
<g id="a_node10"><a xlink:href="_serial_2_r_p2040_2_uart_2_input_output_8h.html" target="_top" xlink:title=" ">
<polygon fill="white" stroke="black" points="1003,-179.5 1003,-209.5 1110,-209.5 1110,-179.5 1003,-179.5"/>
<text text-anchor="start" x="1011" y="-197.5" font-family="Helvetica,sans-Serif" font-size="10.00">Cpl/Io/Serial/RP2040</text>
<text text-anchor="middle" x="1056.5" y="-186.5" font-family="Helvetica,sans-Serif" font-size="10.00">/Uart/InputOutput.h</text>
</a>
</g>
</g>
<!-- Node8&#45;&gt;Node10 -->
<g id="edge9" class="edge"><title>Node8&#45;&gt;Node10</title>
<path fill="none" stroke="midnightblue" d="M1182.29,-247.913C1155.87,-236.906 1117.56,-220.942 1090.17,-209.528"/>
<polygon fill="midnightblue" stroke="midnightblue" points="1181.21,-251.253 1191.78,-251.869 1183.9,-244.792 1181.21,-251.253"/>
</g>
<!-- Node11 -->
<g id="node11" class="node"><title>Node11</title>
<g id="a_node11"><a xlink:href="_socket_2_input_output_8h.html" target="_top" xlink:title=" ">
<polygon fill="white" stroke="black" points="1128.5,-185 1128.5,-204 1266.5,-204 1266.5,-185 1128.5,-185"/>
<text text-anchor="middle" x="1197.5" y="-192" font-family="Helvetica,sans-Serif" font-size="10.00">Cpl/Io/Socket/InputOutput.h</text>
</a>
</g>
</g>
<!-- Node8&#45;&gt;Node11 -->
<g id="edge10" class="edge"><title>Node8&#45;&gt;Node11</title>
<path fill="none" stroke="midnightblue" d="M1208.21,-241.915C1205.34,-229.488 1201.7,-213.717 1199.49,-204.127"/>
<polygon fill="midnightblue" stroke="midnightblue" points="1204.82,-242.777 1210.48,-251.734 1211.64,-241.203 1204.82,-242.777"/>
</g>
<!-- Node15 -->
<g id="node15" class="node"><title>Node15</title>
<g id="a_node15"><a xlink:href="_cpl_2_io_2_stdio_2_input_output___8h.html" target="_top" xlink:title=" ">
<polygon fill="white" stroke="black" points="508,-185 508,-204 643,-204 643,-185 508,-185"/>
<text text-anchor="middle" x="575.5" y="-192" font-family="Helvetica,sans-Serif" font-size="10.00">Cpl/Io/Stdio/InputOutput_.h</text>
</a>
</g>
</g>
<!-- Node8&#45;&gt;Node15 -->
<g id="edge15" class="edge"><title>Node8&#45;&gt;Node15</title>
<path fill="none" stroke="midnightblue" d="M1150.19,-256.908C1046.41,-250.473 831.736,-235.243 651.5,-210 640.06,-208.398 627.729,-206.236 616.397,-204.071"/>
<polygon fill="midnightblue" stroke="midnightblue" points="1150.29,-260.42 1160.48,-257.539 1150.72,-253.433 1150.29,-260.42"/>
</g>
<!-- Node16 -->
<g id="node16" class="node"><title>Node16</title>
<g id="a_node16"><a xlink:href="_console_8h.html" target="_top" xlink:title="This interface provides a &#39;Console&#39; replacement for SDK&#39;s stdio.">
<polygon fill="white" stroke="black" points="1284.5,-185 1284.5,-204 1436.5,-204 1436.5,-185 1284.5,-185"/>
<text text-anchor="middle" x="1360.5" y="-192" font-family="Helvetica,sans-Serif" font-size="10.00">Cpl/System/RP2040/Console.h</text>
</a>
</g>
</g>
<!-- Node8&#45;&gt;Node16 -->
<g id="edge17" class="edge"><title>Node8&#45;&gt;Node16</title>
<path fill="none" stroke="midnightblue" d="M1241.46,-247.781C1270.77,-234.909 1315.29,-215.355 1340.77,-204.167"/>
<polygon fill="midnightblue" stroke="midnightblue" points="1239.9,-244.643 1232.15,-251.869 1242.72,-251.052 1239.9,-244.643"/>
</g>
<!-- Node17 -->
<g id="node17" class="node"><title>Node17</title>
<g id="a_node17"><a xlink:href="_driver_2_uart_2_stream_2_input_output___8h.html" target="_top" xlink:title=" ">
<polygon fill="white" stroke="black" points="2285.5,-179.5 2285.5,-209.5 2383.5,-209.5 2383.5,-179.5 2285.5,-179.5"/>
<text text-anchor="start" x="2293.5" y="-197.5" font-family="Helvetica,sans-Serif" font-size="10.00">Driver/Uart/Stream</text>
<text text-anchor="middle" x="2334.5" y="-186.5" font-family="Helvetica,sans-Serif" font-size="10.00">/InputOutput_.h</text>
</a>
</g>
</g>
<!-- Node8&#45;&gt;Node17 -->
<g id="edge18" class="edge"><title>Node8&#45;&gt;Node17</title>
<path fill="none" stroke="midnightblue" d="M1261.39,-250.156C1270.69,-248.513 1280.37,-247.021 1289.5,-246 1725.74,-197.247 1841.88,-271.566 2276.5,-210 2279.38,-209.592 2282.32,-209.1 2285.28,-208.548"/>
<polygon fill="midnightblue" stroke="midnightblue" points="1260.7,-246.725 1251.5,-251.983 1261.97,-253.609 1260.7,-246.725"/>
</g>
<!-- Node12 -->
<g id="node12" class="node"><title>Node12</title>
<g id="a_node12"><a xlink:href="_factory_8h.html" target="_top" xlink:title=" ">
<polygon fill="white" stroke="black" points="1181.5,-118 1181.5,-137 1301.5,-137 1301.5,-118 1181.5,-118"/>
<text text-anchor="middle" x="1241.5" y="-125" font-family="Helvetica,sans-Serif" font-size="10.00">Cpl/Io/Socket/Factory.h</text>
</a>
</g>
</g>
<!-- Node11&#45;&gt;Node12 -->
<g id="edge11" class="edge"><title>Node11&#45;&gt;Node12</title>
<path fill="none" stroke="midnightblue" d="M1209.07,-176.404C1217.62,-163.773 1228.91,-147.104 1235.66,-137.127"/>
<polygon fill="midnightblue" stroke="midnightblue" points="1206.14,-174.491 1203.43,-184.734 1211.94,-178.415 1206.14,-174.491"/>
</g>
<!-- Node13 -->
<g id="node13" class="node"><title>Node13</title>
<g id="a_node13"><a xlink:href="_stream_pool_8h.html" target="_top" xlink:title=" ">
<polygon fill="white" stroke="black" points="1128.5,-56.5 1128.5,-75.5 1266.5,-75.5 1266.5,-56.5 1128.5,-56.5"/>
<text text-anchor="middle" x="1197.5" y="-63.5" font-family="Helvetica,sans-Serif" font-size="10.00">Cpl/Io/Socket/StreamPool.h</text>
</a>
</g>
</g>
<!-- Node11&#45;&gt;Node13 -->
<g id="edge13" class="edge"><title>Node11&#45;&gt;Node13</title>
<path fill="none" stroke="midnightblue" d="M1186.32,-175.963C1181,-166.58 1175.21,-154.594 1172.5,-143 1169.36,-129.585 1169.04,-125.337 1172.5,-112 1176.04,-98.3307 1184.73,-84.393 1190.87,-75.7252"/>
<polygon fill="midnightblue" stroke="midnightblue" points="1183.4,-177.903 1191.55,-184.674 1189.4,-174.299 1183.4,-177.903"/>
</g>
<!-- Node14 -->
<g id="node14" class="node"><title>Node14</title>
<g id="a_node14"><a xlink:href="_socket_8h.html" target="_top" xlink:title=" ">
<polygon fill="white" stroke="black" points="1384.5,-118 1384.5,-137 1488.5,-137 1488.5,-118 1384.5,-118"/>
<text text-anchor="middle" x="1436.5" y="-125" font-family="Helvetica,sans-Serif" font-size="10.00">Cpl/TShell/Socket.h</text>
</a>
</g>
</g>
<!-- Node11&#45;&gt;Node14 -->
<g id="edge14" class="edge"><title>Node11&#45;&gt;Node14</title>
<path fill="none" stroke="midnightblue" d="M1239.15,-182.172C1286.41,-169.319 1362.44,-148.643 1405.01,-137.064"/>
<polygon fill="midnightblue" stroke="midnightblue" points="1237.97,-178.867 1229.24,-184.869 1239.81,-185.621 1237.97,-178.867"/>
</g>
<!-- Node12&#45;&gt;Node13 -->
<g id="edge12" class="edge"><title>Node12&#45;&gt;Node13</title>
<path fill="none" stroke="midnightblue" d="M1229.18,-109.838C1220.92,-98.6694 1210.39,-84.4278 1203.79,-75.5091"/>
<polygon fill="midnightblue" stroke="midnightblue" points="1226.44,-112.016 1235.2,-117.975 1232.06,-107.854 1226.44,-112.016"/>
</g>
<!-- Node15&#45;&gt;Node6 -->
<g id="edge16" class="edge"><title>Node15&#45;&gt;Node6</title>
<path fill="none" stroke="midnightblue" d="M540.536,-181.601C502.667,-168.714 443.189,-148.473 409.664,-137.064"/>
<polygon fill="midnightblue" stroke="midnightblue" points="539.542,-184.96 550.137,-184.869 541.797,-178.333 539.542,-184.96"/>
</g>
<!-- Node18 -->
<g id="node18" class="node"><title>Node18</title>
<g id="a_node18"><a xlink:href="_serial_2_renesas_2_rx62n_2_input_output_8h.html" target="_top" xlink:title=" ">
<polygon fill="white" stroke="black" points="2394,-112.5 2394,-142.5 2505,-142.5 2505,-112.5 2394,-112.5"/>
<text text-anchor="start" x="2402" y="-130.5" font-family="Helvetica,sans-Serif" font-size="10.00">Cpl/Io/Serial/Renesas</text>
<text text-anchor="middle" x="2449.5" y="-119.5" font-family="Helvetica,sans-Serif" font-size="10.00">/Rx62n/InputOutput.h</text>
</a>
</g>
</g>
<!-- Node17&#45;&gt;Node18 -->
<g id="edge19" class="edge"><title>Node17&#45;&gt;Node18</title>
<path fill="none" stroke="midnightblue" d="M2368.48,-174.296C2386.47,-164.125 2408.18,-151.855 2424.6,-142.577"/>
<polygon fill="midnightblue" stroke="midnightblue" points="2366.44,-171.428 2359.45,-179.396 2369.88,-177.522 2366.44,-171.428"/>
</g>
<!-- Node21&#45;&gt;Node4 -->
<g id="edge23" class="edge"><title>Node21&#45;&gt;Node4</title>
<path fill="none" stroke="midnightblue" d="M460.046,-250.209C407.21,-240.654 327.387,-225.593 258.5,-210 250.566,-208.204 242.046,-206.093 234.106,-204.046"/>
<polygon fill="midnightblue" stroke="midnightblue" points="459.453,-253.658 469.915,-251.986 460.694,-246.769 459.453,-253.658"/>
</g>
<!-- Node21&#45;&gt;Node15 -->
<g id="edge24" class="edge"><title>Node21&#45;&gt;Node15</title>
<path fill="none" stroke="midnightblue" d="M532.851,-244.135C543.998,-231.423 559.016,-214.298 567.935,-204.127"/>
<polygon fill="midnightblue" stroke="midnightblue" points="530.149,-241.908 526.187,-251.734 535.412,-246.523 530.149,-241.908"/>
</g>
<!-- Node22 -->
<g id="node22" class="node"><title>Node22</title>
<g id="a_node22"><a xlink:href="_std_in_8h.html" target="_top" xlink:title=" ">
<polygon fill="white" stroke="black" points="387.5,-185 387.5,-204 489.5,-204 489.5,-185 387.5,-185"/>
<text text-anchor="middle" x="438.5" y="-192" font-family="Helvetica,sans-Serif" font-size="10.00">Cpl/Io/Stdio/StdIn.h</text>
</a>
</g>
</g>
<!-- Node21&#45;&gt;Node22 -->
<g id="edge25" class="edge"><title>Node21&#45;&gt;Node22</title>
<path fill="none" stroke="midnightblue" d="M499.686,-245.213C483.924,-232.407 461.993,-214.588 449.118,-204.127"/>
<polygon fill="midnightblue" stroke="midnightblue" points="497.743,-248.144 507.711,-251.734 502.157,-242.711 497.743,-248.144"/>
</g>
<!-- Node24&#45;&gt;Node14 -->
<g id="edge34" class="edge"><title>Node24&#45;&gt;Node14</title>
<path fill="none" stroke="midnightblue" d="M1399.99,-247.907C1416.99,-239.874 1435.73,-227.605 1445.5,-210 1458.62,-186.351 1447.31,-152.912 1440.6,-137.242"/>
<polygon fill="midnightblue" stroke="midnightblue" points="1398.55,-244.718 1390.8,-251.941 1401.36,-251.129 1398.55,-244.718"/>
</g>
<!-- Node25 -->
<g id="node25" class="node"><title>Node25</title>
<g id="a_node25"><a xlink:href="_context___8h.html" target="_top" xlink:title=" ">
<polygon fill="white" stroke="black" points="1606.5,-185 1606.5,-204 1718.5,-204 1718.5,-185 1606.5,-185"/>
<text text-anchor="middle" x="1662.5" y="-192" font-family="Helvetica,sans-Serif" font-size="10.00">Cpl/TShell/Context_.h</text>
</a>
</g>
</g>
<!-- Node24&#45;&gt;Node25 -->
<g id="edge28" class="edge"><title>Node24&#45;&gt;Node25</title>
<path fill="none" stroke="midnightblue" d="M1413.82,-249.793C1460.79,-239.589 1533.47,-223.783 1596.5,-210 1605.32,-208.07 1614.81,-205.989 1623.76,-204.023"/>
<polygon fill="midnightblue" stroke="midnightblue" points="1412.94,-246.402 1403.91,-251.945 1414.43,-253.243 1412.94,-246.402"/>
</g>
<!-- Node40 -->
<g id="node31" class="node"><title>Node40</title>
<g id="a_node31"><a xlink:href="_t_shell_2_stdio_8h.html" target="_top" xlink:title=" ">
<polygon fill="white" stroke="black" points="1493,-185 1493,-204 1588,-204 1588,-185 1493,-185"/>
<text text-anchor="middle" x="1540.5" y="-192" font-family="Helvetica,sans-Serif" font-size="10.00">Cpl/TShell/Stdio.h</text>
</a>
</g>
</g>
<!-- Node24&#45;&gt;Node40 -->
<g id="edge35" class="edge"><title>Node24&#45;&gt;Node40</title>
<path fill="none" stroke="midnightblue" d="M1397.61,-248.271C1432.54,-235.37 1486.68,-215.376 1517.31,-204.064"/>
<polygon fill="midnightblue" stroke="midnightblue" points="1396.04,-245.121 1387.87,-251.869 1398.46,-251.687 1396.04,-245.121"/>
</g>
<!-- Node26 -->
<g id="node26" class="node"><title>Node26</title>
<g id="a_node26"><a xlink:href="_cmd_2_command_8h.html" target="_top" xlink:title=" ">
<polygon fill="white" stroke="red" points="1526.5,-118 1526.5,-137 1666.5,-137 1666.5,-118 1526.5,-118"/>
<text text-anchor="middle" x="1596.5" y="-125" font-family="Helvetica,sans-Serif" font-size="10.00">Cpl/TShell/Cmd/Command.h</text>
</a>
</g>
</g>
<!-- Node25&#45;&gt;Node26 -->
<g id="edge29" class="edge"><title>Node25&#45;&gt;Node26</title>
<path fill="none" stroke="midnightblue" d="M1646.25,-177.497C1633.31,-164.75 1615.69,-147.395 1605.26,-137.127"/>
<polygon fill="midnightblue" stroke="midnightblue" points="1644.02,-180.211 1653.6,-184.734 1648.93,-175.223 1644.02,-180.211"/>
</g>
<!-- Node36 -->
<g id="node27" class="node"><title>Node36</title>
<g id="a_node27"><a xlink:href="_processor_8h.html" target="_top" xlink:title=" ">
<polygon fill="white" stroke="black" points="1685,-118 1685,-137 1802,-137 1802,-118 1685,-118"/>
<text text-anchor="middle" x="1743.5" y="-125" font-family="Helvetica,sans-Serif" font-size="10.00">Cpl/TShell/Processor.h</text>
</a>
</g>
</g>
<!-- Node25&#45;&gt;Node36 -->
<g id="edge30" class="edge"><title>Node25&#45;&gt;Node36</title>
<path fill="none" stroke="midnightblue" d="M1681.55,-178.213C1697.51,-165.407 1719.71,-147.588 1732.75,-137.127"/>
<polygon fill="midnightblue" stroke="midnightblue" points="1679.03,-175.745 1673.42,-184.734 1683.41,-181.205 1679.03,-175.745"/>
</g>
<!-- Node37 -->
<g id="node28" class="node"><title>Node37</title>
<g id="a_node28"><a xlink:href="_maker_8h.html" target="_top" xlink:title=" ">
<polygon fill="white" stroke="black" points="1841.5,-56.5 1841.5,-75.5 1941.5,-75.5 1941.5,-56.5 1841.5,-56.5"/>
<text text-anchor="middle" x="1891.5" y="-63.5" font-family="Helvetica,sans-Serif" font-size="10.00">Cpl/TShell/Maker.h</text>
</a>
</g>
</g>
<!-- Node36&#45;&gt;Node37 -->
<g id="edge31" class="edge"><title>Node36&#45;&gt;Node37</title>
<path fill="none" stroke="midnightblue" d="M1774.27,-114.131C1803.02,-102.572 1845.18,-85.62 1870.33,-75.5091"/>
<polygon fill="midnightblue" stroke="midnightblue" points="1772.68,-110.998 1764.7,-117.975 1775.29,-117.492 1772.68,-110.998"/>
</g>
<!-- Node38 -->
<g id="node29" class="node"><title>Node38</title>
<g id="a_node29"><a xlink:href="_polled_processor_8h.html" target="_top" xlink:title=" ">
<polygon fill="white" stroke="black" points="1674.5,-56.5 1674.5,-75.5 1818.5,-75.5 1818.5,-56.5 1674.5,-56.5"/>
<text text-anchor="middle" x="1746.5" y="-63.5" font-family="Helvetica,sans-Serif" font-size="10.00">Cpl/TShell/PolledProcessor.h</text>
</a>
</g>
</g>
<!-- Node36&#45;&gt;Node38 -->
<g id="edge32" class="edge"><title>Node36&#45;&gt;Node38</title>
<path fill="none" stroke="midnightblue" d="M1744.44,-107.817C1744.99,-96.9962 1745.65,-83.898 1746.07,-75.5091"/>
<polygon fill="midnightblue" stroke="midnightblue" points="1740.94,-107.812 1743.93,-117.975 1747.93,-108.164 1740.94,-107.812"/>
</g>
<!-- Node39 -->
<g id="node30" class="node"><title>Node39</title>
<g id="a_node30"><a xlink:href="_polled_maker_8h.html" target="_top" xlink:title=" ">
<polygon fill="white" stroke="black" points="1906,-0.5 1906,-19.5 2033,-19.5 2033,-0.5 1906,-0.5"/>
<text text-anchor="middle" x="1969.5" y="-7.5" font-family="Helvetica,sans-Serif" font-size="10.00">Cpl/TShell/PolledMaker.h</text>
</a>
</g>
</g>
<!-- Node38&#45;&gt;Node39 -->
<g id="edge33" class="edge"><title>Node38&#45;&gt;Node39</title>
<path fill="none" stroke="midnightblue" d="M1791.56,-54.0884C1833.69,-43.8865 1895.74,-28.8612 1934.33,-19.5164"/>
<polygon fill="midnightblue" stroke="midnightblue" points="1790.73,-50.6883 1781.84,-56.4435 1792.38,-57.4916 1790.73,-50.6883"/>
</g>
<!-- Node41&#45;&gt;Node36 -->
<g id="edge37" class="edge"><title>Node41&#45;&gt;Node36</title>
<path fill="none" stroke="midnightblue" d="M1864.95,-180.781C1835.05,-167.909 1789.62,-148.355 1763.63,-137.167"/>
<polygon fill="midnightblue" stroke="midnightblue" points="1863.88,-184.129 1874.45,-184.869 1866.65,-177.7 1863.88,-184.129"/>
</g>
<!-- Node42 -->
<g id="node33" class="node"><title>Node42</title>
<g id="a_node33"><a xlink:href="_ascii_decoder_8h.html" target="_top" xlink:title=" ">
<polygon fill="white" stroke="black" points="1987,-118 1987,-137 2140,-137 2140,-118 1987,-118"/>
<text text-anchor="middle" x="2063.5" y="-125" font-family="Helvetica,sans-Serif" font-size="10.00">Cpl/Text/Frame/AsciiDecoder.h</text>
</a>
</g>
</g>
<!-- Node41&#45;&gt;Node42 -->
<g id="edge38" class="edge"><title>Node41&#45;&gt;Node42</title>
<path fill="none" stroke="midnightblue" d="M1926.3,-181.271C1959.84,-168.37 2011.82,-148.376 2041.23,-137.064"/>
<polygon fill="midnightblue" stroke="midnightblue" points="1925.02,-178.012 1916.94,-184.869 1927.53,-184.545 1925.02,-178.012"/>
</g>
<!-- Node43 -->
<g id="node34" class="node"><title>Node43</title>
<g id="a_node34"><a xlink:href="_line_decoder_8h.html" target="_top" xlink:title=" ">
<polygon fill="white" stroke="black" points="1820,-118 1820,-137 1969,-137 1969,-118 1820,-118"/>
<text text-anchor="middle" x="1894.5" y="-125" font-family="Helvetica,sans-Serif" font-size="10.00">Cpl/Text/Frame/LineDecoder.h</text>
</a>
</g>
</g>
<!-- Node41&#45;&gt;Node43 -->
<g id="edge39" class="edge"><title>Node41&#45;&gt;Node43</title>
<path fill="none" stroke="midnightblue" d="M1894.5,-174.537C1894.5,-162.17 1894.5,-146.62 1894.5,-137.127"/>
<polygon fill="midnightblue" stroke="midnightblue" points="1891,-174.734 1894.5,-184.734 1898,-174.734 1891,-174.734"/>
</g>
<!-- Node43&#45;&gt;Node37 -->
<g id="edge40" class="edge"><title>Node43&#45;&gt;Node37</title>
<path fill="none" stroke="midnightblue" d="M1893.56,-107.817C1893.01,-96.9962 1892.35,-83.898 1891.93,-75.5091"/>
<polygon fill="midnightblue" stroke="midnightblue" points="1890.07,-108.164 1894.07,-117.975 1897.06,-107.812 1890.07,-108.164"/>
</g>
<!-- Node43&#45;&gt;Node39 -->
<g id="edge41" class="edge"><title>Node43&#45;&gt;Node39</title>
<path fill="none" stroke="midnightblue" d="M1916.05,-111.71C1927.78,-102.647 1941.65,-90.0962 1950.5,-76 1961.88,-57.8786 1966.68,-32.6705 1968.51,-19.6112"/>
<polygon fill="midnightblue" stroke="midnightblue" points="1913.96,-108.906 1908,-117.666 1918.12,-114.534 1913.96,-108.906"/>
</g>
<!-- Node44&#45;&gt;Node8 -->
<g id="edge48" class="edge"><title>Node44&#45;&gt;Node8</title>
<path fill="none" stroke="midnightblue" d="M1884.54,-320.444C1774.43,-316.694 1509.67,-305.288 1289.5,-277 1277.63,-275.474 1264.82,-273.284 1253.12,-271.067"/>
<polygon fill="midnightblue" stroke="midnightblue" points="1884.59,-323.947 1894.7,-320.783 1884.83,-316.951 1884.59,-323.947"/>
</g>
<!-- Node44&#45;&gt;Node23 -->
<g id="edge57" class="edge"><title>Node44&#45;&gt;Node23</title>
<path fill="none" stroke="midnightblue" d="M1936.5,-303.317C1936.5,-292.496 1936.5,-279.398 1936.5,-271.009"/>
<polygon fill="midnightblue" stroke="midnightblue" points="1933,-303.475 1936.5,-313.475 1940,-303.475 1933,-303.475"/>
</g>
<!-- Node44&#45;&gt;Node24 -->
<g id="edge66" class="edge"><title>Node44&#45;&gt;Node24</title>
<path fill="none" stroke="midnightblue" d="M1884.66,-319.087C1793.9,-313.592 1600.48,-300.125 1438.5,-277 1427.22,-275.39 1415.07,-273.2 1403.93,-271.01"/>
<polygon fill="midnightblue" stroke="midnightblue" points="1884.49,-322.583 1894.69,-319.686 1884.91,-315.595 1884.49,-322.583"/>
</g>
<!-- Node45 -->
<g id="node36" class="node"><title>Node45</title>
<g id="a_node36"><a xlink:href="_atomic_output_api_8h.html" target="_top" xlink:title=" ">
<polygon fill="white" stroke="black" points="2243.5,-252 2243.5,-271 2371.5,-271 2371.5,-252 2243.5,-252"/>
<text text-anchor="middle" x="2307.5" y="-259" font-family="Helvetica,sans-Serif" font-size="10.00">Cpl/Io/AtomicOutputApi.h</text>
</a>
</g>
</g>
<!-- Node44&#45;&gt;Node45 -->
<g id="edge43" class="edge"><title>Node44&#45;&gt;Node45</title>
<path fill="none" stroke="midnightblue" d="M1988.41,-314.53C2047.04,-305.977 2145.26,-291.296 2229.5,-277 2240.36,-275.156 2252.05,-273.049 2263,-271.023"/>
<polygon fill="midnightblue" stroke="midnightblue" points="1987.69,-311.099 1978.29,-316.003 1988.69,-318.026 1987.69,-311.099"/>
</g>
<!-- Node47 -->
<g id="node38" class="node"><title>Node47</title>
<g id="a_node38"><a xlink:href="_output_api_8h.html" target="_top" xlink:title=" ">
<polygon fill="white" stroke="black" points="267.5,-252 267.5,-271 383.5,-271 383.5,-252 267.5,-252"/>
<text text-anchor="middle" x="325.5" y="-259" font-family="Helvetica,sans-Serif" font-size="10.00">Cpl/Io/File/OutputApi.h</text>
</a>
</g>
</g>
<!-- Node44&#45;&gt;Node47 -->
<g id="edge45" class="edge"><title>Node44&#45;&gt;Node47</title>
<path fill="none" stroke="midnightblue" d="M1884.66,-320.427C1622.89,-312.485 458.776,-277.16 456.5,-277 432.647,-275.32 406.44,-272.595 383.774,-269.959"/>
<polygon fill="midnightblue" stroke="midnightblue" points="1884.56,-323.926 1894.66,-320.731 1884.77,-316.929 1884.56,-323.926"/>
</g>
<!-- Node49 -->
<g id="node40" class="node"><title>Node49</title>
<g id="a_node40"><a xlink:href="_line_writer_8h.html" target="_top" xlink:title=" ">
<polygon fill="white" stroke="black" points="2390,-252 2390,-271 2487,-271 2487,-252 2390,-252"/>
<text text-anchor="middle" x="2438.5" y="-259" font-family="Helvetica,sans-Serif" font-size="10.00">Cpl/Io/LineWriter.h</text>
</a>
</g>
</g>
<!-- Node44&#45;&gt;Node49 -->
<g id="edge49" class="edge"><title>Node44&#45;&gt;Node49</title>
<path fill="none" stroke="midnightblue" d="M1988.29,-319.177C2071.47,-314.1 2239.79,-301.588 2380.5,-277 2389.5,-275.428 2399.16,-273.223 2407.97,-271.007"/>
<polygon fill="midnightblue" stroke="midnightblue" points="1987.86,-315.696 1978.09,-319.788 1988.28,-322.684 1987.86,-315.696"/>
</g>
<!-- Node50 -->
<g id="node41" class="node"><title>Node50</title>
<g id="a_node41"><a xlink:href="_serial_2_r_p2040_2_stdio_2_output_8h.html" target="_top" xlink:title=" ">
<polygon fill="white" stroke="black" points="2505,-246.5 2505,-276.5 2612,-276.5 2612,-246.5 2505,-246.5"/>
<text text-anchor="start" x="2513" y="-264.5" font-family="Helvetica,sans-Serif" font-size="10.00">Cpl/Io/Serial/RP2040</text>
<text text-anchor="middle" x="2558.5" y="-253.5" font-family="Helvetica,sans-Serif" font-size="10.00">/Stdio/Output.h</text>
</a>
</g>
</g>
<!-- Node44&#45;&gt;Node50 -->
<g id="edge50" class="edge"><title>Node44&#45;&gt;Node50</title>
<path fill="none" stroke="midnightblue" d="M1988.25,-320.426C2087.41,-316.841 2310.82,-306.006 2496.5,-277 2499.23,-276.573 2502.02,-276.092 2504.83,-275.57"/>
<polygon fill="midnightblue" stroke="midnightblue" points="1988.07,-316.931 1978.2,-320.78 1988.32,-323.926 1988.07,-316.931"/>
</g>
<!-- Node51 -->
<g id="node42" class="node"><title>Node51</title>
<g id="a_node42"><a xlink:href="_output___8h.html" target="_top" xlink:title=" ">
<polygon fill="white" stroke="black" points="658,-252 658,-271 771,-271 771,-252 658,-252"/>
<text text-anchor="middle" x="714.5" y="-259" font-family="Helvetica,sans-Serif" font-size="10.00">Cpl/Io/Stdio/Output_.h</text>
</a>
</g>
</g>
<!-- Node44&#45;&gt;Node51 -->
<g id="edge51" class="edge"><title>Node44&#45;&gt;Node51</title>
<path fill="none" stroke="midnightblue" d="M1884.65,-319.475C1686.47,-309.826 977.714,-275.316 771.292,-265.265"/>
<polygon fill="midnightblue" stroke="midnightblue" points="1884.63,-322.979 1894.79,-319.969 1884.97,-315.987 1884.63,-322.979"/>
</g>
<!-- Node54 -->
<g id="node45" class="node"><title>Node54</title>
<g id="a_node45"><a xlink:href="_tee_output_8h.html" target="_top" xlink:title=" ">
<polygon fill="white" stroke="black" points="2630,-252 2630,-271 2729,-271 2729,-252 2630,-252"/>
<text text-anchor="middle" x="2679.5" y="-259" font-family="Helvetica,sans-Serif" font-size="10.00">Cpl/Io/TeeOutput.h</text>
</a>
</g>
</g>
<!-- Node44&#45;&gt;Node54 -->
<g id="edge56" class="edge"><title>Node44&#45;&gt;Node54</title>
<path fill="none" stroke="midnightblue" d="M1988.34,-321.757C2103.13,-320.529 2387.14,-313.688 2621.5,-277 2630.73,-275.555 2640.64,-273.334 2649.61,-271.061"/>
<polygon fill="midnightblue" stroke="midnightblue" points="1988.06,-318.259 1978.09,-321.856 1988.13,-325.259 1988.06,-318.259"/>
</g>
<!-- Node55 -->
<g id="node46" class="node"><title>Node55</title>
<g id="a_node46"><a xlink:href="_system_2_trace_8h.html" target="_top" xlink:title=" ">
<polygon fill="white" stroke="black" points="2163.5,-185 2163.5,-204 2267.5,-204 2267.5,-185 2163.5,-185"/>
<text text-anchor="middle" x="2215.5" y="-192" font-family="Helvetica,sans-Serif" font-size="10.00">Cpl/System/Trace.h</text>
</a>
</g>
</g>
<!-- Node44&#45;&gt;Node55 -->
<g id="edge58" class="edge"><title>Node44&#45;&gt;Node55</title>
<path fill="none" stroke="midnightblue" d="M1988.42,-319.564C2055.23,-315.35 2166.21,-304.347 2195.5,-277 2216.16,-257.712 2216.99,-220.853 2216.18,-204.132"/>
<polygon fill="midnightblue" stroke="midnightblue" points="1987.87,-316.091 1978.1,-320.184 1988.29,-323.079 1987.87,-316.091"/>
</g>
<!-- Node58 -->
<g id="node49" class="node"><title>Node58</title>
<g id="a_node49"><a xlink:href="_command_8h.html" target="_top" xlink:title=" ">
<polygon fill="white" stroke="black" points="1448,-252 1448,-271 1565,-271 1565,-252 1448,-252"/>
<text text-anchor="middle" x="1506.5" y="-259" font-family="Helvetica,sans-Serif" font-size="10.00">Cpl/TShell/Command.h</text>
</a>
</g>
</g>
<!-- Node44&#45;&gt;Node58 -->
<g id="edge63" class="edge"><title>Node44&#45;&gt;Node58</title>
<path fill="none" stroke="midnightblue" d="M1884.49,-314.803C1803.94,-303.658 1649.54,-282.292 1565.14,-270.614"/>
<polygon fill="midnightblue" stroke="midnightblue" points="1884.49,-318.337 1894.88,-316.241 1885.45,-311.403 1884.49,-318.337"/>
</g>
<!-- Node59 -->
<g id="node50" class="node"><title>Node59</title>
<g id="a_node50"><a xlink:href="_stream_encoder_8h.html" target="_top" xlink:title=" ">
<polygon fill="white" stroke="black" points="2024,-252 2024,-271 2187,-271 2187,-252 2024,-252"/>
<text text-anchor="middle" x="2105.5" y="-259" font-family="Helvetica,sans-Serif" font-size="10.00">Cpl/Text/Frame/StreamEncoder.h</text>
</a>
</g>
</g>
<!-- Node44&#45;&gt;Node59 -->
<g id="edge67" class="edge"><title>Node44&#45;&gt;Node59</title>
<path fill="none" stroke="midnightblue" d="M1970.35,-310.083C2003.2,-298.517 2052.24,-281.252 2081.33,-271.009"/>
<polygon fill="midnightblue" stroke="midnightblue" points="1968.98,-306.853 1960.71,-313.475 1971.31,-313.456 1968.98,-306.853"/>
</g>
<!-- Node46 -->
<g id="node37" class="node"><title>Node46</title>
<g id="a_node37"><a xlink:href="_atomic_output_8h.html" target="_top" xlink:title=" ">
<polygon fill="white" stroke="black" points="2402,-185 2402,-204 2515,-204 2515,-185 2402,-185"/>
<text text-anchor="middle" x="2458.5" y="-192" font-family="Helvetica,sans-Serif" font-size="10.00">Cpl/Io/AtomicOutput.h</text>
</a>
</g>
</g>
<!-- Node45&#45;&gt;Node46 -->
<g id="edge44" class="edge"><title>Node45&#45;&gt;Node46</title>
<path fill="none" stroke="midnightblue" d="M2337.05,-247.781C2366.95,-234.909 2412.38,-215.355 2438.37,-204.167"/>
<polygon fill="midnightblue" stroke="midnightblue" points="2335.35,-244.7 2327.55,-251.869 2338.12,-251.129 2335.35,-244.7"/>
</g>
<!-- Node47&#45;&gt;Node5 -->
<g id="edge46" class="edge"><title>Node47&#45;&gt;Node5</title>
<path fill="none" stroke="midnightblue" d="M281.628,-249.404C230.907,-236.576 148.511,-215.736 102.438,-204.083"/>
<polygon fill="midnightblue" stroke="midnightblue" points="281.085,-252.877 291.637,-251.936 282.801,-246.09 281.085,-252.877"/>
</g>
<!-- Node48 -->
<g id="node39" class="node"><title>Node48</title>
<g id="a_node39"><a xlink:href="_file_2_output_8h.html" target="_top" xlink:title=" ">
<polygon fill="white" stroke="black" points="268,-185 268,-204 369,-204 369,-185 268,-185"/>
<text text-anchor="middle" x="318.5" y="-192" font-family="Helvetica,sans-Serif" font-size="10.00">Cpl/Io/File/Output.h</text>
</a>
</g>
</g>
<!-- Node47&#45;&gt;Node48 -->
<g id="edge47" class="edge"><title>Node47&#45;&gt;Node48</title>
<path fill="none" stroke="midnightblue" d="M323.458,-241.537C322.126,-229.17 320.451,-213.62 319.429,-204.127"/>
<polygon fill="midnightblue" stroke="midnightblue" points="320.005,-242.166 324.556,-251.734 326.965,-241.417 320.005,-242.166"/>
</g>
<!-- Node51&#45;&gt;Node15 -->
<g id="edge53" class="edge"><title>Node51&#45;&gt;Node15</title>
<path fill="none" stroke="midnightblue" d="M686.941,-247.613C659.41,-234.739 617.854,-215.306 594.034,-204.167"/>
<polygon fill="midnightblue" stroke="midnightblue" points="685.501,-250.803 696.042,-251.869 688.466,-244.462 685.501,-250.803"/>
</g>
<!-- Node51&#45;&gt;Node48 -->
<g id="edge52" class="edge"><title>Node51&#45;&gt;Node48</title>
<path fill="none" stroke="midnightblue" d="M647.612,-252.21C579.588,-243.366 471.284,-228.148 378.5,-210 369.666,-208.272 360.169,-206.117 351.395,-204.001"/>
<polygon fill="midnightblue" stroke="midnightblue" points="647.395,-255.711 657.761,-253.521 648.292,-248.768 647.395,-255.711"/>
</g>
<!-- Node52 -->
<g id="node43" class="node"><title>Node52</title>
<g id="a_node43"><a xlink:href="_std_err_8h.html" target="_top" xlink:title=" ">
<polygon fill="white" stroke="black" points="661,-185 661,-204 768,-204 768,-185 661,-185"/>
<text text-anchor="middle" x="714.5" y="-192" font-family="Helvetica,sans-Serif" font-size="10.00">Cpl/Io/Stdio/StdErr.h</text>
</a>
</g>
</g>
<!-- Node51&#45;&gt;Node52 -->
<g id="edge54" class="edge"><title>Node51&#45;&gt;Node52</title>
<path fill="none" stroke="midnightblue" d="M714.5,-241.537C714.5,-229.17 714.5,-213.62 714.5,-204.127"/>
<polygon fill="midnightblue" stroke="midnightblue" points="711,-241.734 714.5,-251.734 718,-241.734 711,-241.734"/>
</g>
<!-- Node53 -->
<g id="node44" class="node"><title>Node53</title>
<g id="a_node44"><a xlink:href="_std_out_8h.html" target="_top" xlink:title=" ">
<polygon fill="white" stroke="black" points="786.5,-185 786.5,-204 896.5,-204 896.5,-185 786.5,-185"/>
<text text-anchor="middle" x="841.5" y="-192" font-family="Helvetica,sans-Serif" font-size="10.00">Cpl/Io/Stdio/StdOut.h</text>
</a>
</g>
</g>
<!-- Node51&#45;&gt;Node53 -->
<g id="edge55" class="edge"><title>Node51&#45;&gt;Node53</title>
<path fill="none" stroke="midnightblue" d="M740.342,-247.274C765.496,-234.4 802.992,-215.209 824.566,-204.167"/>
<polygon fill="midnightblue" stroke="midnightblue" points="738.672,-244.197 731.365,-251.869 741.861,-250.428 738.672,-244.197"/>
</g>
<!-- Node56 -->
<g id="node47" class="node"><title>Node56</title>
<g id="a_node47"><a xlink:href="helpers_8h.html" target="_top" xlink:title="This file defines helper functions/interface for writing unit tests.">
<polygon fill="white" stroke="black" points="2291,-118 2291,-137 2376,-137 2376,-118 2291,-118"/>
<text text-anchor="middle" x="2333.5" y="-125" font-family="Helvetica,sans-Serif" font-size="10.00">Catch/helpers.h</text>
</a>
</g>
</g>
<!-- Node55&#45;&gt;Node56 -->
<g id="edge59" class="edge"><title>Node55&#45;&gt;Node56</title>
<path fill="none" stroke="midnightblue" d="M2240.39,-179.787C2263.78,-166.905 2298.06,-148.024 2317.84,-137.127"/>
<polygon fill="midnightblue" stroke="midnightblue" points="2238.48,-176.843 2231.41,-184.734 2241.86,-182.975 2238.48,-176.843"/>
</g>
<!-- Node57 -->
<g id="node48" class="node"><title>Node57</title>
<g id="a_node48"><a xlink:href="_system_2_private___8h.html" target="_top" xlink:title="This file contains a collection of classes, interfaces, etc.">
<polygon fill="white" stroke="black" points="2158,-118 2158,-137 2273,-137 2273,-118 2158,-118"/>
<text text-anchor="middle" x="2215.5" y="-125" font-family="Helvetica,sans-Serif" font-size="10.00">Cpl/System/Private_.h</text>
</a>
</g>
</g>
<!-- Node55&#45;&gt;Node57 -->
<g id="edge60" class="edge"><title>Node55&#45;&gt;Node57</title>
<path fill="none" stroke="midnightblue" d="M2215.5,-174.537C2215.5,-162.17 2215.5,-146.62 2215.5,-137.127"/>
<polygon fill="midnightblue" stroke="midnightblue" points="2212,-174.734 2215.5,-184.734 2219,-174.734 2212,-174.734"/>
</g>
<!-- Node57&#45;&gt;Node37 -->
<g id="edge61" class="edge"><title>Node57&#45;&gt;Node37</title>
<path fill="none" stroke="midnightblue" d="M2167.42,-115.854C2161.07,-114.517 2154.63,-113.2 2148.5,-112 2076.93,-97.9953 1993.73,-83.8073 1941.84,-75.2058"/>
<polygon fill="midnightblue" stroke="midnightblue" points="2166.78,-119.295 2177.29,-117.956 2168.24,-112.449 2166.78,-119.295"/>
</g>
<!-- Node57&#45;&gt;Node39 -->
<g id="edge62" class="edge"><title>Node57&#45;&gt;Node39</title>
<path fill="none" stroke="midnightblue" d="M2187.95,-113.564C2137.3,-89.7847 2030.68,-39.7262 1987.87,-19.6245"/>
<polygon fill="midnightblue" stroke="midnightblue" points="2186.47,-116.737 2197.01,-117.819 2189.45,-110.4 2186.47,-116.737"/>
</g>
<!-- Node58&#45;&gt;Node25 -->
<g id="edge65" class="edge"><title>Node58&#45;&gt;Node25</title>
<path fill="none" stroke="midnightblue" d="M1536.62,-247.948C1567.51,-235.079 1614.73,-215.403 1641.7,-204.167"/>
<polygon fill="midnightblue" stroke="midnightblue" points="1535.1,-244.792 1527.22,-251.869 1537.79,-251.253 1535.1,-244.792"/>
</g>
<!-- Node58&#45;&gt;Node26 -->
<g id="edge64" class="edge"><title>Node58&#45;&gt;Node26</title>
<path fill="none" stroke="midnightblue" d="M1556.62,-249.854C1620.98,-236.066 1724.8,-213.391 1727.5,-210 1756.55,-173.558 1685.59,-149.003 1637.15,-137.012"/>
<polygon fill="midnightblue" stroke="midnightblue" points="1555.7,-246.472 1546.65,-251.986 1557.16,-253.317 1555.7,-246.472"/>
</g>
<!-- Node59&#45;&gt;Node36 -->
<g id="edge68" class="edge"><title>Node59&#45;&gt;Node36</title>
<path fill="none" stroke="midnightblue" d="M2043,-250.347C1955.31,-236.058 1806.06,-211.571 1803.5,-210 1774.31,-192.064 1754.78,-154.165 1747.12,-137.122"/>
<polygon fill="midnightblue" stroke="midnightblue" points="2042.68,-253.841 2053.12,-251.994 2043.81,-246.932 2042.68,-253.841"/>
</g>
</g>
</svg>
