<?xml version="1.0" encoding="UTF-8" standalone="no"?>
<!DOCTYPE svg PUBLIC "-//W3C//DTD SVG 1.1//EN"
 "http://www.w3.org/Graphics/SVG/1.1/DTD/svg11.dtd">
<!-- Generated by graphviz version 2.38.0 (20140413.2041)
 -->
<!-- Title: Cpl/Container/Item.h Pages: 1 -->
<svg width="2802pt" height="420pt"
 viewBox="0.00 0.00 2801.50 420.00" xmlns="http://www.w3.org/2000/svg" xmlns:xlink="http://www.w3.org/1999/xlink">
<g id="graph0" class="graph" transform="scale(1 1) rotate(0) translate(4 416)">
<title>Cpl/Container/Item.h</title>
<polygon fill="white" stroke="none" points="-4,4 -4,-416 2797.5,-416 2797.5,4 -4,4"/>
<!-- Node1 -->
<g id="node1" class="node"><title>Node1</title>
<g id="a_node1"><a xlink:title=" ">
<polygon fill="#bfbfbf" stroke="black" points="1110,-392.5 1110,-411.5 1216,-411.5 1216,-392.5 1110,-392.5"/>
<text text-anchor="middle" x="1163" y="-399.5" font-family="Helvetica,sans-Serif" font-size="10.00">Cpl/Container/Item.h</text>
</a>
</g>
</g>
<!-- Node2 -->
<g id="node2" class="node"><title>Node2</title>
<g id="a_node2"><a xlink:href="_dict_item_8h.html" target="_top" xlink:title=" ">
<polygon fill="white" stroke="black" points="285.5,-336.5 285.5,-355.5 408.5,-355.5 408.5,-336.5 285.5,-336.5"/>
<text text-anchor="middle" x="347" y="-343.5" font-family="Helvetica,sans-Serif" font-size="10.00">Cpl/Container/DictItem.h</text>
</a>
</g>
</g>
<!-- Node1&#45;&gt;Node2 -->
<g id="edge1" class="edge"><title>Node1&#45;&gt;Node2</title>
<path fill="none" stroke="midnightblue" d="M1099.62,-396.806C946.868,-386.697 559.856,-361.086 408.765,-351.087"/>
<polygon fill="midnightblue" stroke="midnightblue" points="1099.57,-400.31 1109.77,-397.478 1100.03,-393.325 1099.57,-400.31"/>
</g>
<!-- Node28 -->
<g id="node9" class="node"><title>Node28</title>
<g id="a_node9"><a xlink:href="_s_list_8h.html" target="_top" xlink:title=" ">
<polygon fill="white" stroke="black" points="883.5,-280.5 883.5,-299.5 992.5,-299.5 992.5,-280.5 883.5,-280.5"/>
<text text-anchor="middle" x="938" y="-287.5" font-family="Helvetica,sans-Serif" font-size="10.00">Cpl/Container/SList.h</text>
</a>
</g>
</g>
<!-- Node1&#45;&gt;Node28 -->
<g id="edge8" class="edge"><title>Node1&#45;&gt;Node28</title>
<path fill="none" stroke="midnightblue" d="M1106.69,-390.075C1077.55,-382.971 1042.09,-371.997 1013,-356 985.219,-340.723 958.628,-313.828 945.868,-299.907"/>
<polygon fill="midnightblue" stroke="midnightblue" points="1106.18,-393.549 1116.72,-392.428 1107.78,-386.735 1106.18,-393.549"/>
</g>
<!-- Node65 -->
<g id="node17" class="node"><title>Node65</title>
<g id="a_node17"><a xlink:href="_model_point_8h.html" target="_top" xlink:title=" ">
<polygon fill="white" stroke="black" points="947.5,-224.5 947.5,-243.5 1056.5,-243.5 1056.5,-224.5 947.5,-224.5"/>
<text text-anchor="middle" x="1002" y="-231.5" font-family="Helvetica,sans-Serif" font-size="10.00">Cpl/Dm/ModelPoint.h</text>
</a>
</g>
</g>
<!-- Node1&#45;&gt;Node65 -->
<g id="edge16" class="edge"><title>Node1&#45;&gt;Node65</title>
<path fill="none" stroke="midnightblue" d="M1143.44,-386.158C1119.5,-367.489 1078.4,-333.769 1048,-300 1031.35,-281.507 1015.37,-256.884 1007.35,-243.895"/>
<polygon fill="midnightblue" stroke="midnightblue" points="1141.38,-388.988 1151.43,-392.328 1145.65,-383.447 1141.38,-388.988"/>
</g>
<!-- Node69 -->
<g id="node21" class="node"><title>Node69</title>
<g id="a_node21"><a xlink:href="_subscriber_api_8h.html" target="_top" xlink:title=" ">
<polygon fill="white" stroke="black" points="1057.5,-280.5 1057.5,-299.5 1178.5,-299.5 1178.5,-280.5 1057.5,-280.5"/>
<text text-anchor="middle" x="1118" y="-287.5" font-family="Helvetica,sans-Serif" font-size="10.00">Cpl/Dm/SubscriberApi.h</text>
</a>
</g>
</g>
<!-- Node1&#45;&gt;Node69 -->
<g id="edge22" class="edge"><title>Node1&#45;&gt;Node69</title>
<path fill="none" stroke="midnightblue" d="M1152.65,-383.347C1148.11,-375.189 1142.93,-365.272 1139,-356 1130.66,-336.349 1123.67,-312.197 1120.25,-299.589"/>
<polygon fill="midnightblue" stroke="midnightblue" points="1149.74,-385.316 1157.74,-392.264 1155.82,-381.844 1149.74,-385.316"/>
</g>
<!-- Node72 -->
<g id="node24" class="node"><title>Node72</title>
<g id="a_node24"><a xlink:href="_close_8h.html" target="_top" xlink:title=" ">
<polygon fill="white" stroke="black" points="732,-336.5 732,-355.5 810,-355.5 810,-336.5 732,-336.5"/>
<text text-anchor="middle" x="771" y="-343.5" font-family="Helvetica,sans-Serif" font-size="10.00">Cpl/Io/Close.h</text>
</a>
</g>
</g>
<!-- Node1&#45;&gt;Node72 -->
<g id="edge30" class="edge"><title>Node1&#45;&gt;Node72</title>
<path fill="none" stroke="midnightblue" d="M1099.63,-393.284C1031.45,-384.821 919.899,-370.503 824,-356 819.478,-355.316 814.746,-354.564 810.049,-353.796"/>
<polygon fill="midnightblue" stroke="midnightblue" points="1099.42,-396.785 1109.78,-394.541 1100.28,-389.838 1099.42,-396.785"/>
</g>
<!-- Node113 -->
<g id="node29" class="node"><title>Node113</title>
<g id="a_node29"><a xlink:href="_line_reader_api_8h.html" target="_top" xlink:title=" ">
<polygon fill="white" stroke="black" points="833,-336.5 833,-355.5 949,-355.5 949,-336.5 833,-336.5"/>
<text text-anchor="middle" x="891" y="-343.5" font-family="Helvetica,sans-Serif" font-size="10.00">Cpl/Io/LineReaderApi.h</text>
</a>
</g>
</g>
<!-- Node1&#45;&gt;Node113 -->
<g id="edge37" class="edge"><title>Node1&#45;&gt;Node113</title>
<path fill="none" stroke="midnightblue" d="M1109.98,-390.473C1058.57,-380.268 981.563,-364.979 933.898,-355.516"/>
<polygon fill="midnightblue" stroke="midnightblue" points="1109.41,-393.929 1119.9,-392.444 1110.77,-387.063 1109.41,-393.929"/>
</g>
<!-- Node114 -->
<g id="node30" class="node"><title>Node114</title>
<g id="a_node30"><a xlink:href="_line_writer_api_8h.html" target="_top" xlink:title=" ">
<polygon fill="white" stroke="black" points="575.5,-336.5 575.5,-355.5 686.5,-355.5 686.5,-336.5 575.5,-336.5"/>
<text text-anchor="middle" x="631" y="-343.5" font-family="Helvetica,sans-Serif" font-size="10.00">Cpl/Io/LineWriterApi.h</text>
</a>
</g>
</g>
<!-- Node1&#45;&gt;Node114 -->
<g id="edge39" class="edge"><title>Node1&#45;&gt;Node114</title>
<path fill="none" stroke="midnightblue" d="M1099.41,-394.546C994.404,-383.887 786.458,-362.78 686.803,-352.664"/>
<polygon fill="midnightblue" stroke="midnightblue" points="1099.25,-398.047 1109.55,-395.575 1099.96,-391.083 1099.25,-398.047"/>
</g>
<!-- Node115 -->
<g id="node31" class="node"><title>Node115</title>
<g id="a_node31"><a xlink:href="_message_8h.html" target="_top" xlink:title=" ">
<polygon fill="white" stroke="black" points="1813,-336.5 1813,-355.5 1909,-355.5 1909,-336.5 1813,-336.5"/>
<text text-anchor="middle" x="1861" y="-343.5" font-family="Helvetica,sans-Serif" font-size="10.00">Cpl/Itc/Message.h</text>
</a>
</g>
</g>
<!-- Node1&#45;&gt;Node115 -->
<g id="edge41" class="edge"><title>Node1&#45;&gt;Node115</title>
<path fill="none" stroke="midnightblue" d="M1226.3,-398.066C1340.81,-392.414 1589.88,-378.545 1799,-356 1803.54,-355.51 1808.26,-354.939 1812.98,-354.326"/>
<polygon fill="midnightblue" stroke="midnightblue" points="1226.12,-394.57 1216.3,-398.555 1226.46,-401.562 1226.12,-394.57"/>
</g>
<!-- Node133 -->
<g id="node34" class="node"><title>Node133</title>
<g id="a_node34"><a xlink:href="_allocator_8h.html" target="_top" xlink:title=" ">
<polygon fill="white" stroke="black" points="2022.5,-336.5 2022.5,-355.5 2141.5,-355.5 2141.5,-336.5 2022.5,-336.5"/>
<text text-anchor="middle" x="2082" y="-343.5" font-family="Helvetica,sans-Serif" font-size="10.00">Cpl/Memory/Allocator.h</text>
</a>
</g>
</g>
<!-- Node1&#45;&gt;Node133 -->
<g id="edge45" class="edge"><title>Node1&#45;&gt;Node133</title>
<path fill="none" stroke="midnightblue" d="M1226.04,-397.296C1395.1,-387.362 1856.97,-360.222 2022.22,-350.513"/>
<polygon fill="midnightblue" stroke="midnightblue" points="1225.82,-393.802 1216.05,-397.883 1226.23,-400.79 1225.82,-393.802"/>
</g>
<!-- Node139 -->
<g id="node37" class="node"><title>Node139</title>
<g id="a_node37"><a xlink:href="_counter___8h.html" target="_top" xlink:title=" ">
<polygon fill="white" stroke="black" points="1148,-336.5 1148,-355.5 1266,-355.5 1266,-336.5 1148,-336.5"/>
<text text-anchor="middle" x="1207" y="-343.5" font-family="Helvetica,sans-Serif" font-size="10.00">Cpl/System/Counter_.h</text>
</a>
</g>
</g>
<!-- Node1&#45;&gt;Node139 -->
<g id="edge48" class="edge"><title>Node1&#45;&gt;Node139</title>
<path fill="none" stroke="midnightblue" d="M1176.73,-384.144C1184.4,-374.736 1193.63,-363.405 1199.87,-355.751"/>
<polygon fill="midnightblue" stroke="midnightblue" points="1173.87,-382.12 1170.27,-392.083 1179.3,-386.541 1173.87,-382.12"/>
</g>
<!-- Node143 -->
<g id="node41" class="node"><title>Node143</title>
<g id="a_node41"><a xlink:href="_private_startup___8h.html" target="_top" xlink:title="This file contains a collection of classes, interfaces, etc.">
<polygon fill="white" stroke="black" points="2323,-336.5 2323,-355.5 2469,-355.5 2469,-336.5 2323,-336.5"/>
<text text-anchor="middle" x="2396" y="-343.5" font-family="Helvetica,sans-Serif" font-size="10.00">Cpl/System/PrivateStartup_.h</text>
</a>
</g>
</g>
<!-- Node1&#45;&gt;Node143 -->
<g id="edge56" class="edge"><title>Node1&#45;&gt;Node143</title>
<path fill="none" stroke="midnightblue" d="M1226.56,-398.216C1435.52,-389.065 2100.49,-359.942 2322.81,-350.205"/>
<polygon fill="midnightblue" stroke="midnightblue" points="1226.21,-394.728 1216.38,-398.662 1226.52,-401.721 1226.21,-394.728"/>
</g>
<!-- Node147 -->
<g id="node45" class="node"><title>Node147</title>
<g id="a_node45"><a xlink:href="_shutdown_8h.html" target="_top" xlink:title=" ">
<polygon fill="white" stroke="black" points="2487,-336.5 2487,-355.5 2609,-355.5 2609,-336.5 2487,-336.5"/>
<text text-anchor="middle" x="2548" y="-343.5" font-family="Helvetica,sans-Serif" font-size="10.00">Cpl/System/Shutdown.h</text>
</a>
</g>
</g>
<!-- Node1&#45;&gt;Node147 -->
<g id="edge60" class="edge"><title>Node1&#45;&gt;Node147</title>
<path fill="none" stroke="midnightblue" d="M1226.1,-400.934C1415.82,-400.287 1997.61,-395.016 2478,-356 2480.93,-355.762 2483.93,-355.489 2486.95,-355.191"/>
<polygon fill="midnightblue" stroke="midnightblue" points="1226.02,-397.434 1216.03,-400.965 1226.04,-404.434 1226.02,-397.434"/>
</g>
<!-- Node148 -->
<g id="node46" class="node"><title>Node148</title>
<g id="a_node46"><a xlink:href="_signable_8h.html" target="_top" xlink:title=" ">
<polygon fill="white" stroke="black" points="1505,-336.5 1505,-355.5 1621,-355.5 1621,-336.5 1505,-336.5"/>
<text text-anchor="middle" x="1563" y="-343.5" font-family="Helvetica,sans-Serif" font-size="10.00">Cpl/System/Signable.h</text>
</a>
</g>
</g>
<!-- Node1&#45;&gt;Node148 -->
<g id="edge61" class="edge"><title>Node1&#45;&gt;Node148</title>
<path fill="none" stroke="midnightblue" d="M1226.1,-392.481C1302.62,-382.151 1430.55,-364.881 1504.79,-354.858"/>
<polygon fill="midnightblue" stroke="midnightblue" points="1225.56,-389.023 1216.12,-393.829 1226.5,-395.96 1225.56,-389.023"/>
</g>
<!-- Node156 -->
<g id="node49" class="node"><title>Node156</title>
<g id="a_node49"><a xlink:href="_sim_tick_8h.html" target="_top" xlink:title=" ">
<polygon fill="white" stroke="black" points="1727.5,-224.5 1727.5,-243.5 1842.5,-243.5 1842.5,-224.5 1727.5,-224.5"/>
<text text-anchor="middle" x="1785" y="-231.5" font-family="Helvetica,sans-Serif" font-size="10.00">Cpl/System/SimTick.h</text>
</a>
</g>
</g>
<!-- Node1&#45;&gt;Node156 -->
<g id="edge69" class="edge"><title>Node1&#45;&gt;Node156</title>
<path fill="none" stroke="midnightblue" d="M1226.14,-400.766C1316.83,-399.12 1488.61,-391.101 1630,-356 1693.44,-340.25 1722.3,-348.611 1766,-300 1780.46,-283.913 1783.95,-257.372 1784.77,-243.715"/>
<polygon fill="midnightblue" stroke="midnightblue" points="1225.97,-397.268 1216.03,-400.929 1226.08,-404.267 1225.97,-397.268"/>
</g>
<!-- Node3 -->
<g id="node3" class="node"><title>Node3</title>
<g id="a_node3"><a xlink:href="_hash_table___8h.html" target="_top" xlink:title=" ">
<polygon fill="white" stroke="black" points="62,-280.5 62,-299.5 200,-299.5 200,-280.5 62,-280.5"/>
<text text-anchor="middle" x="131" y="-287.5" font-family="Helvetica,sans-Serif" font-size="10.00">Cpl/Container/HashTable_.h</text>
</a>
</g>
</g>
<!-- Node2&#45;&gt;Node3 -->
<g id="edge2" class="edge"><title>Node2&#45;&gt;Node3</title>
<path fill="none" stroke="midnightblue" d="M302.836,-333.959C262.039,-323.76 202.287,-308.822 165.066,-299.516"/>
<polygon fill="midnightblue" stroke="midnightblue" points="302.224,-337.414 312.774,-336.444 303.922,-330.623 302.224,-337.414"/>
</g>
<!-- Node5 -->
<g id="node5" class="node"><title>Node5</title>
<g id="a_node5"><a xlink:href="_map_item_8h.html" target="_top" xlink:title=" ">
<polygon fill="white" stroke="black" points="284.5,-280.5 284.5,-299.5 409.5,-299.5 409.5,-280.5 284.5,-280.5"/>
<text text-anchor="middle" x="347" y="-287.5" font-family="Helvetica,sans-Serif" font-size="10.00">Cpl/Container/MapItem.h</text>
</a>
</g>
</g>
<!-- Node2&#45;&gt;Node5 -->
<g id="edge4" class="edge"><title>Node2&#45;&gt;Node5</title>
<path fill="none" stroke="midnightblue" d="M347,-325.805C347,-316.91 347,-306.78 347,-299.751"/>
<polygon fill="midnightblue" stroke="midnightblue" points="343.5,-326.083 347,-336.083 350.5,-326.083 343.5,-326.083"/>
</g>
<!-- Node4 -->
<g id="node4" class="node"><title>Node4</title>
<g id="a_node4"><a xlink:href="_dictionary_8h.html" target="_top" xlink:title=" ">
<polygon fill="white" stroke="black" points="0,-224.5 0,-243.5 130,-243.5 130,-224.5 0,-224.5"/>
<text text-anchor="middle" x="65" y="-231.5" font-family="Helvetica,sans-Serif" font-size="10.00">Cpl/Container/Dictionary.h</text>
</a>
</g>
</g>
<!-- Node3&#45;&gt;Node4 -->
<g id="edge3" class="edge"><title>Node3&#45;&gt;Node4</title>
<path fill="none" stroke="midnightblue" d="M112.446,-273.82C100.622,-264.145 85.7144,-251.948 75.797,-243.834"/>
<polygon fill="midnightblue" stroke="midnightblue" points="110.44,-276.7 120.396,-280.324 114.873,-271.283 110.44,-276.7"/>
</g>
<!-- Node6 -->
<g id="node6" class="node"><title>Node6</title>
<g id="a_node6"><a xlink:href="_avl_tree___8h.html" target="_top" xlink:title=" ">
<polygon fill="white" stroke="red" points="148.5,-224.5 148.5,-243.5 273.5,-243.5 273.5,-224.5 148.5,-224.5"/>
<text text-anchor="middle" x="211" y="-231.5" font-family="Helvetica,sans-Serif" font-size="10.00">Cpl/Container/AvlTree_.h</text>
</a>
</g>
</g>
<!-- Node5&#45;&gt;Node6 -->
<g id="edge5" class="edge"><title>Node5&#45;&gt;Node6</title>
<path fill="none" stroke="midnightblue" d="M315.865,-276.638C290.343,-266.504 254.891,-252.427 232.449,-243.516"/>
<polygon fill="midnightblue" stroke="midnightblue" points="314.865,-280.006 325.45,-280.444 317.448,-273.5 314.865,-280.006"/>
</g>
<!-- Node23 -->
<g id="node7" class="node"><title>Node23</title>
<g id="a_node7"><a xlink:href="_command_8h.html" target="_top" xlink:title=" ">
<polygon fill="white" stroke="red" points="420.5,-224.5 420.5,-243.5 537.5,-243.5 537.5,-224.5 420.5,-224.5"/>
<text text-anchor="middle" x="479" y="-231.5" font-family="Helvetica,sans-Serif" font-size="10.00">Cpl/TShell/Command.h</text>
</a>
</g>
</g>
<!-- Node5&#45;&gt;Node23 -->
<g id="edge6" class="edge"><title>Node5&#45;&gt;Node23</title>
<path fill="none" stroke="midnightblue" d="M377.219,-276.638C401.99,-266.504 436.4,-252.427 458.182,-243.516"/>
<polygon fill="midnightblue" stroke="midnightblue" points="375.846,-273.418 367.916,-280.444 378.497,-279.897 375.846,-273.418"/>
</g>
<!-- Node24 -->
<g id="node8" class="node"><title>Node24</title>
<g id="a_node8"><a xlink:href="_string_item_8h.html" target="_top" xlink:title=" ">
<polygon fill="white" stroke="red" points="292,-224.5 292,-243.5 402,-243.5 402,-224.5 292,-224.5"/>
<text text-anchor="middle" x="347" y="-231.5" font-family="Helvetica,sans-Serif" font-size="10.00">Cpl/Text/StringItem.h</text>
</a>
</g>
</g>
<!-- Node5&#45;&gt;Node24 -->
<g id="edge7" class="edge"><title>Node5&#45;&gt;Node24</title>
<path fill="none" stroke="midnightblue" d="M347,-269.805C347,-260.91 347,-250.78 347,-243.751"/>
<polygon fill="midnightblue" stroke="midnightblue" points="343.5,-270.083 347,-280.083 350.5,-270.083 343.5,-270.083"/>
</g>
<!-- Node29 -->
<g id="node10" class="node"><title>Node29</title>
<g id="a_node10"><a xlink:href="_model_database_8h.html" target="_top" xlink:title=" ">
<polygon fill="white" stroke="black" points="775,-112.5 775,-131.5 903,-131.5 903,-112.5 775,-112.5"/>
<text text-anchor="middle" x="839" y="-119.5" font-family="Helvetica,sans-Serif" font-size="10.00">Cpl/Dm/ModelDatabase.h</text>
</a>
</g>
</g>
<!-- Node28&#45;&gt;Node29 -->
<g id="edge9" class="edge"><title>Node28&#45;&gt;Node29</title>
<path fill="none" stroke="midnightblue" d="M927.451,-271.312C906.344,-235.921 859.614,-157.565 844.11,-131.568"/>
<polygon fill="midnightblue" stroke="midnightblue" points="924.549,-273.279 932.677,-280.075 930.561,-269.694 924.549,-273.279"/>
</g>
<!-- Node49 -->
<g id="node13" class="node"><title>Node49</title>
<g id="a_node13"><a xlink:href="_tee_output_8h.html" target="_top" xlink:title=" ">
<polygon fill="white" stroke="black" points="791.5,-224.5 791.5,-243.5 890.5,-243.5 890.5,-224.5 791.5,-224.5"/>
<text text-anchor="middle" x="841" y="-231.5" font-family="Helvetica,sans-Serif" font-size="10.00">Cpl/Io/TeeOutput.h</text>
</a>
</g>
</g>
<!-- Node28&#45;&gt;Node49 -->
<g id="edge12" class="edge"><title>Node28&#45;&gt;Node49</title>
<path fill="none" stroke="midnightblue" d="M913.665,-275.453C895.757,-265.483 871.946,-252.228 856.546,-243.655"/>
<polygon fill="midnightblue" stroke="midnightblue" points="911.975,-278.518 922.415,-280.324 915.38,-272.402 911.975,-278.518"/>
</g>
<!-- Node50 -->
<g id="node14" class="node"><title>Node50</title>
<g id="a_node14"><a xlink:href="_mailbox_8h.html" target="_top" xlink:title=" ">
<polygon fill="white" stroke="black" points="1529,-168.5 1529,-187.5 1619,-187.5 1619,-168.5 1529,-168.5"/>
<text text-anchor="middle" x="1574" y="-175.5" font-family="Helvetica,sans-Serif" font-size="10.00">Cpl/Itc/Mailbox.h</text>
</a>
</g>
</g>
<!-- Node28&#45;&gt;Node50 -->
<g id="edge13" class="edge"><title>Node28&#45;&gt;Node50</title>
<path fill="none" stroke="midnightblue" d="M974.273,-277.442C1021.26,-262.889 1105.94,-238.093 1180,-224 1305.12,-200.188 1455.16,-187.291 1528.76,-181.969"/>
<polygon fill="midnightblue" stroke="midnightblue" points="973.062,-274.153 964.557,-280.471 975.145,-280.836 973.062,-274.153"/>
</g>
<!-- Node30 -->
<g id="node11" class="node"><title>Node30</title>
<g id="a_node11"><a xlink:href="_model_point_common___8h.html" target="_top" xlink:title=" ">
<polygon fill="white" stroke="red" points="854.5,-56.5 854.5,-75.5 1007.5,-75.5 1007.5,-56.5 854.5,-56.5"/>
<text text-anchor="middle" x="931" y="-63.5" font-family="Helvetica,sans-Serif" font-size="10.00">Cpl/Dm/ModelPointCommon_.h</text>
</a>
</g>
</g>
<!-- Node29&#45;&gt;Node30 -->
<g id="edge10" class="edge"><title>Node29&#45;&gt;Node30</title>
<path fill="none" stroke="midnightblue" d="M862.55,-107.177C879.479,-97.2407 901.783,-84.1492 916.255,-75.6545"/>
<polygon fill="midnightblue" stroke="midnightblue" points="860.634,-104.243 853.781,-112.324 864.177,-110.28 860.634,-104.243"/>
</g>
<!-- Node31 -->
<g id="node12" class="node"><title>Node31</title>
<g id="a_node12"><a xlink:href="_array___8h.html" target="_top" xlink:title=" ">
<polygon fill="white" stroke="black" points="878.5,-0.5 878.5,-19.5 983.5,-19.5 983.5,-0.5 878.5,-0.5"/>
<text text-anchor="middle" x="931" y="-7.5" font-family="Helvetica,sans-Serif" font-size="10.00">Cpl/Dm/Mp/Array_.h</text>
</a>
</g>
</g>
<!-- Node30&#45;&gt;Node31 -->
<g id="edge11" class="edge"><title>Node30&#45;&gt;Node31</title>
<path fill="none" stroke="midnightblue" d="M931,-45.8045C931,-36.9102 931,-26.7798 931,-19.7511"/>
<polygon fill="midnightblue" stroke="midnightblue" points="927.5,-46.083 931,-56.083 934.5,-46.083 927.5,-46.083"/>
</g>
<!-- Node51 -->
<g id="node15" class="node"><title>Node51</title>
<g id="a_node15"><a xlink:href="_dm_2_mailbox_server_8h.html" target="_top" xlink:title=" ">
<polygon fill="white" stroke="red" points="1363,-112.5 1363,-131.5 1485,-131.5 1485,-112.5 1363,-112.5"/>
<text text-anchor="middle" x="1424" y="-119.5" font-family="Helvetica,sans-Serif" font-size="10.00">Cpl/Dm/MailboxServer.h</text>
</a>
</g>
</g>
<!-- Node50&#45;&gt;Node51 -->
<g id="edge14" class="edge"><title>Node50&#45;&gt;Node51</title>
<path fill="none" stroke="midnightblue" d="M1540.78,-165.039C1512.55,-154.879 1472.74,-140.546 1447.66,-131.516"/>
<polygon fill="midnightblue" stroke="midnightblue" points="1539.64,-168.349 1550.23,-168.444 1542.01,-161.763 1539.64,-168.349"/>
</g>
<!-- Node63 -->
<g id="node16" class="node"><title>Node63</title>
<g id="a_node16"><a xlink:href="_itc_2_mailbox_server_8h.html" target="_top" xlink:title=" ">
<polygon fill="white" stroke="red" points="1546.5,-112.5 1546.5,-131.5 1665.5,-131.5 1665.5,-112.5 1546.5,-112.5"/>
<text text-anchor="middle" x="1606" y="-119.5" font-family="Helvetica,sans-Serif" font-size="10.00">Cpl/Itc/MailboxServer.h</text>
</a>
</g>
</g>
<!-- Node50&#45;&gt;Node63 -->
<g id="edge15" class="edge"><title>Node50&#45;&gt;Node63</title>
<path fill="none" stroke="midnightblue" d="M1584.5,-159.275C1589.97,-150.045 1596.42,-139.17 1600.81,-131.751"/>
<polygon fill="midnightblue" stroke="midnightblue" points="1581.37,-157.696 1579.28,-168.083 1587.39,-161.264 1581.37,-157.696"/>
</g>
<!-- Node65&#45;&gt;Node30 -->
<g id="edge18" class="edge"><title>Node65&#45;&gt;Node30</title>
<path fill="none" stroke="midnightblue" d="M978.701,-218.447C968.258,-210.697 956.788,-200.234 950,-188 929.055,-150.255 929.38,-96.2865 930.413,-75.558"/>
<polygon fill="midnightblue" stroke="midnightblue" points="976.899,-221.457 987.106,-224.298 980.899,-215.712 976.899,-221.457"/>
</g>
<!-- Node66 -->
<g id="node18" class="node"><title>Node66</title>
<g id="a_node18"><a xlink:href="helpers_8h.html" target="_top" xlink:title="This file defines helper functions/interface for writing unit tests.">
<polygon fill="white" stroke="black" points="959.5,-168.5 959.5,-187.5 1044.5,-187.5 1044.5,-168.5 959.5,-168.5"/>
<text text-anchor="middle" x="1002" y="-175.5" font-family="Helvetica,sans-Serif" font-size="10.00">Catch/helpers.h</text>
</a>
</g>
</g>
<!-- Node65&#45;&gt;Node66 -->
<g id="edge17" class="edge"><title>Node65&#45;&gt;Node66</title>
<path fill="none" stroke="midnightblue" d="M1002,-213.805C1002,-204.91 1002,-194.78 1002,-187.751"/>
<polygon fill="midnightblue" stroke="midnightblue" points="998.5,-214.083 1002,-224.083 1005.5,-214.083 998.5,-214.083"/>
</g>
<!-- Node54 -->
<g id="node19" class="node"><title>Node54</title>
<g id="a_node19"><a xlink:href="_dm_2_persistent_2_record_8h.html" target="_top" xlink:title=" ">
<polygon fill="white" stroke="black" points="1101,-168.5 1101,-187.5 1239,-187.5 1239,-168.5 1101,-168.5"/>
<text text-anchor="middle" x="1170" y="-175.5" font-family="Helvetica,sans-Serif" font-size="10.00">Cpl/Dm/Persistent/Record.h</text>
</a>
</g>
</g>
<!-- Node65&#45;&gt;Node54 -->
<g id="edge19" class="edge"><title>Node65&#45;&gt;Node54</title>
<path fill="none" stroke="midnightblue" d="M1038.39,-221.304C1070.04,-211.129 1115.17,-196.625 1143.5,-187.516"/>
<polygon fill="midnightblue" stroke="midnightblue" points="1037.07,-218.051 1028.62,-224.444 1039.21,-224.715 1037.07,-218.051"/>
</g>
<!-- Node67 -->
<g id="node20" class="node"><title>Node67</title>
<g id="a_node20"><a xlink:href="_subscriber_8h.html" target="_top" xlink:title=" ">
<polygon fill="white" stroke="red" points="1116.5,-112.5 1116.5,-131.5 1223.5,-131.5 1223.5,-112.5 1116.5,-112.5"/>
<text text-anchor="middle" x="1170" y="-119.5" font-family="Helvetica,sans-Serif" font-size="10.00">Cpl/Dm/Subscriber.h</text>
</a>
</g>
</g>
<!-- Node65&#45;&gt;Node67 -->
<g id="edge20" class="edge"><title>Node65&#45;&gt;Node67</title>
<path fill="none" stroke="midnightblue" d="M1021.07,-218.354C1039.02,-204.78 1066.83,-184.289 1092,-168 1113,-154.41 1138.22,-140.229 1154.18,-131.505"/>
<polygon fill="midnightblue" stroke="midnightblue" points="1018.95,-215.572 1013.11,-224.412 1023.18,-221.144 1018.95,-215.572"/>
</g>
<!-- Node67&#45;&gt;Node30 -->
<g id="edge21" class="edge"><title>Node67&#45;&gt;Node30</title>
<path fill="none" stroke="midnightblue" d="M1122.28,-110.217C1077.11,-100.013 1010.23,-84.9006 968.693,-75.5164"/>
<polygon fill="midnightblue" stroke="midnightblue" points="1121.6,-113.654 1132.13,-112.444 1123.15,-106.826 1121.6,-113.654"/>
</g>
<!-- Node69&#45;&gt;Node65 -->
<g id="edge26" class="edge"><title>Node69&#45;&gt;Node65</title>
<path fill="none" stroke="midnightblue" d="M1090.28,-276.096C1068.61,-266.007 1039.1,-252.27 1020.29,-243.516"/>
<polygon fill="midnightblue" stroke="midnightblue" points="1089.08,-279.396 1099.62,-280.444 1092.03,-273.05 1089.08,-279.396"/>
</g>
<!-- Node69&#45;&gt;Node67 -->
<g id="edge29" class="edge"><title>Node69&#45;&gt;Node67</title>
<path fill="none" stroke="midnightblue" d="M1123.34,-270.306C1128.34,-255.876 1137.15,-236.35 1151,-224 1185.32,-193.396 1221.74,-225.751 1248,-188 1265.21,-163.254 1224.63,-142.565 1195.78,-131.555"/>
<polygon fill="midnightblue" stroke="midnightblue" points="1119.91,-269.555 1120.24,-280.145 1126.58,-271.66 1119.91,-269.555"/>
</g>
<!-- Node70 -->
<g id="node22" class="node"><title>Node70</title>
<g id="a_node22"><a xlink:href="_dm_2_event_loop_8h.html" target="_top" xlink:title=" ">
<polygon fill="white" stroke="black" points="1333.5,-168.5 1333.5,-187.5 1440.5,-187.5 1440.5,-168.5 1333.5,-168.5"/>
<text text-anchor="middle" x="1387" y="-175.5" font-family="Helvetica,sans-Serif" font-size="10.00">Cpl/Dm/EventLoop.h</text>
</a>
</g>
</g>
<!-- Node69&#45;&gt;Node70 -->
<g id="edge23" class="edge"><title>Node69&#45;&gt;Node70</title>
<path fill="none" stroke="midnightblue" d="M1129.7,-271.874C1140.87,-256.899 1159.05,-235.759 1180,-224 1227.62,-197.266 1289.65,-186.405 1333.34,-181.998"/>
<polygon fill="midnightblue" stroke="midnightblue" points="1126.67,-270.095 1123.7,-280.263 1132.37,-274.169 1126.67,-270.095"/>
</g>
<!-- Node71 -->
<g id="node23" class="node"><title>Node71</title>
<g id="a_node23"><a xlink:href="_notification_api___8h.html" target="_top" xlink:title=" ">
<polygon fill="white" stroke="black" points="1189,-224.5 1189,-243.5 1317,-243.5 1317,-224.5 1189,-224.5"/>
<text text-anchor="middle" x="1253" y="-231.5" font-family="Helvetica,sans-Serif" font-size="10.00">Cpl/Dm/NotificationApi_.h</text>
</a>
</g>
</g>
<!-- Node69&#45;&gt;Node71 -->
<g id="edge27" class="edge"><title>Node69&#45;&gt;Node71</title>
<path fill="none" stroke="midnightblue" d="M1148.91,-276.638C1174.24,-266.504 1209.43,-252.427 1231.71,-243.516"/>
<polygon fill="midnightblue" stroke="midnightblue" points="1147.38,-273.48 1139.39,-280.444 1149.98,-279.979 1147.38,-273.48"/>
</g>
<!-- Node70&#45;&gt;Node51 -->
<g id="edge24" class="edge"><title>Node70&#45;&gt;Node51</title>
<path fill="none" stroke="midnightblue" d="M1398.95,-159.566C1405.31,-150.275 1412.87,-139.248 1418,-131.751"/>
<polygon fill="midnightblue" stroke="midnightblue" points="1395.87,-157.855 1393.11,-168.083 1401.65,-161.812 1395.87,-157.855"/>
</g>
<!-- Node70&#45;&gt;Node67 -->
<g id="edge25" class="edge"><title>Node70&#45;&gt;Node67</title>
<path fill="none" stroke="midnightblue" d="M1342.89,-166.024C1301.9,-155.823 1241.7,-140.841 1204.22,-131.516"/>
<polygon fill="midnightblue" stroke="midnightblue" points="1342.07,-169.425 1352.62,-168.444 1343.76,-162.632 1342.07,-169.425"/>
</g>
<!-- Node71&#45;&gt;Node70 -->
<g id="edge28" class="edge"><title>Node71&#45;&gt;Node70</title>
<path fill="none" stroke="midnightblue" d="M1283.68,-220.638C1308.82,-210.504 1343.75,-196.427 1365.87,-187.516"/>
<polygon fill="midnightblue" stroke="midnightblue" points="1282.2,-217.459 1274.23,-224.444 1284.82,-223.952 1282.2,-217.459"/>
</g>
<!-- Node73 -->
<g id="node25" class="node"><title>Node73</title>
<g id="a_node25"><a xlink:href="_input_8h.html" target="_top" xlink:title=" ">
<polygon fill="white" stroke="red" points="733.5,-280.5 733.5,-299.5 808.5,-299.5 808.5,-280.5 733.5,-280.5"/>
<text text-anchor="middle" x="771" y="-287.5" font-family="Helvetica,sans-Serif" font-size="10.00">Cpl/Io/Input.h</text>
</a>
</g>
</g>
<!-- Node72&#45;&gt;Node73 -->
<g id="edge31" class="edge"><title>Node72&#45;&gt;Node73</title>
<path fill="none" stroke="midnightblue" d="M771,-325.805C771,-316.91 771,-306.78 771,-299.751"/>
<polygon fill="midnightblue" stroke="midnightblue" points="767.5,-326.083 771,-336.083 774.5,-326.083 767.5,-326.083"/>
</g>
<!-- Node100 -->
<g id="node27" class="node"><title>Node100</title>
<g id="a_node27"><a xlink:href="_output_8h.html" target="_top" xlink:title=" ">
<polygon fill="white" stroke="red" points="632.5,-280.5 632.5,-299.5 715.5,-299.5 715.5,-280.5 632.5,-280.5"/>
<text text-anchor="middle" x="674" y="-287.5" font-family="Helvetica,sans-Serif" font-size="10.00">Cpl/Io/Output.h</text>
</a>
</g>
</g>
<!-- Node72&#45;&gt;Node100 -->
<g id="edge33" class="edge"><title>Node72&#45;&gt;Node100</title>
<path fill="none" stroke="midnightblue" d="M746.665,-331.453C728.757,-321.483 704.946,-308.228 689.546,-299.655"/>
<polygon fill="midnightblue" stroke="midnightblue" points="744.975,-334.518 755.415,-336.324 748.38,-328.402 744.975,-334.518"/>
</g>
<!-- Node90 -->
<g id="node26" class="node"><title>Node90</title>
<g id="a_node26"><a xlink:href="_line_reader_8h.html" target="_top" xlink:title=" ">
<polygon fill="white" stroke="black" points="671,-224.5 671,-243.5 773,-243.5 773,-224.5 671,-224.5"/>
<text text-anchor="middle" x="722" y="-231.5" font-family="Helvetica,sans-Serif" font-size="10.00">Cpl/Io/LineReader.h</text>
</a>
</g>
</g>
<!-- Node73&#45;&gt;Node90 -->
<g id="edge32" class="edge"><title>Node73&#45;&gt;Node90</title>
<path fill="none" stroke="midnightblue" d="M755.966,-272.431C747.378,-262.967 736.957,-251.483 729.941,-243.751"/>
<polygon fill="midnightblue" stroke="midnightblue" points="753.597,-275.029 762.909,-280.083 758.781,-270.325 753.597,-275.029"/>
</g>
<!-- Node100&#45;&gt;Node23 -->
<g id="edge36" class="edge"><title>Node100&#45;&gt;Node23</title>
<path fill="none" stroke="midnightblue" d="M633.19,-277.699C596.387,-267.507 543.071,-252.743 509.754,-243.516"/>
<polygon fill="midnightblue" stroke="midnightblue" points="632.53,-281.148 643.102,-280.444 634.398,-274.402 632.53,-281.148"/>
</g>
<!-- Node100&#45;&gt;Node49 -->
<g id="edge35" class="edge"><title>Node100&#45;&gt;Node49</title>
<path fill="none" stroke="midnightblue" d="M710.17,-277.304C741.637,-267.129 786.494,-252.625 814.662,-243.516"/>
<polygon fill="midnightblue" stroke="midnightblue" points="708.9,-274.037 700.462,-280.444 711.053,-280.697 708.9,-274.037"/>
</g>
<!-- Node105 -->
<g id="node28" class="node"><title>Node105</title>
<g id="a_node28"><a xlink:href="_line_writer_8h.html" target="_top" xlink:title=" ">
<polygon fill="white" stroke="black" points="555.5,-224.5 555.5,-243.5 652.5,-243.5 652.5,-224.5 555.5,-224.5"/>
<text text-anchor="middle" x="604" y="-231.5" font-family="Helvetica,sans-Serif" font-size="10.00">Cpl/Io/LineWriter.h</text>
</a>
</g>
</g>
<!-- Node100&#45;&gt;Node105 -->
<g id="edge34" class="edge"><title>Node100&#45;&gt;Node105</title>
<path fill="none" stroke="midnightblue" d="M654.686,-274.101C642.088,-264.382 626.072,-252.027 615.451,-243.834"/>
<polygon fill="midnightblue" stroke="midnightblue" points="652.698,-276.987 662.753,-280.324 656.973,-271.445 652.698,-276.987"/>
</g>
<!-- Node113&#45;&gt;Node90 -->
<g id="edge38" class="edge"><title>Node113&#45;&gt;Node90</title>
<path fill="none" stroke="midnightblue" d="M875.476,-329.035C861.187,-314.932 838.942,-294.425 817,-280 793.668,-264.662 764.292,-251.584 744.43,-243.543"/>
<polygon fill="midnightblue" stroke="midnightblue" points="873.007,-331.516 882.544,-336.132 877.967,-326.576 873.007,-331.516"/>
</g>
<!-- Node114&#45;&gt;Node105 -->
<g id="edge40" class="edge"><title>Node114&#45;&gt;Node105</title>
<path fill="none" stroke="midnightblue" d="M626.422,-326.348C620.508,-302.254 610.457,-261.308 606.109,-243.591"/>
<polygon fill="midnightblue" stroke="midnightblue" points="623.098,-327.491 628.881,-336.368 629.897,-325.822 623.098,-327.491"/>
</g>
<!-- Node116 -->
<g id="node32" class="node"><title>Node116</title>
<g id="a_node32"><a xlink:href="_post_api_8h.html" target="_top" xlink:title=" ">
<polygon fill="white" stroke="red" points="1860.5,-224.5 1860.5,-243.5 1951.5,-243.5 1951.5,-224.5 1860.5,-224.5"/>
<text text-anchor="middle" x="1906" y="-231.5" font-family="Helvetica,sans-Serif" font-size="10.00">Cpl/Itc/PostApi.h</text>
</a>
</g>
</g>
<!-- Node115&#45;&gt;Node116 -->
<g id="edge42" class="edge"><title>Node115&#45;&gt;Node116</title>
<path fill="none" stroke="midnightblue" d="M1848.93,-327.426C1841.27,-313.932 1834.15,-295.113 1842,-280 1850.89,-262.883 1869.61,-250.91 1884.52,-243.64"/>
<polygon fill="midnightblue" stroke="midnightblue" points="1846.13,-329.552 1854.39,-336.181 1852.06,-325.845 1846.13,-329.552"/>
</g>
<!-- Node132 -->
<g id="node33" class="node"><title>Node132</title>
<g id="a_node33"><a xlink:href="_service_message_8h.html" target="_top" xlink:title=" ">
<polygon fill="white" stroke="red" points="1851.5,-280.5 1851.5,-299.5 1980.5,-299.5 1980.5,-280.5 1851.5,-280.5"/>
<text text-anchor="middle" x="1916" y="-287.5" font-family="Helvetica,sans-Serif" font-size="10.00">Cpl/Itc/ServiceMessage.h</text>
</a>
</g>
</g>
<!-- Node115&#45;&gt;Node132 -->
<g id="edge44" class="edge"><title>Node115&#45;&gt;Node132</title>
<path fill="none" stroke="midnightblue" d="M1877.29,-329.002C1887.04,-319.433 1899.05,-307.639 1907.09,-299.751"/>
<polygon fill="midnightblue" stroke="midnightblue" points="1874.77,-326.58 1870.08,-336.083 1879.67,-331.575 1874.77,-326.58"/>
</g>
<!-- Node116&#45;&gt;Node50 -->
<g id="edge43" class="edge"><title>Node116&#45;&gt;Node50</title>
<path fill="none" stroke="midnightblue" d="M1850.49,-223.918C1762.42,-209.562 1671.94,-194.88 1619.1,-186.311"/>
<polygon fill="midnightblue" stroke="midnightblue" points="1849.95,-227.376 1860.38,-225.531 1851.08,-220.468 1849.95,-227.376"/>
</g>
<!-- Node134 -->
<g id="node35" class="node"><title>Node134</title>
<g id="a_node35"><a xlink:href="_contiguous_allocator_8h.html" target="_top" xlink:title=" ">
<polygon fill="white" stroke="red" points="1998.5,-280.5 1998.5,-299.5 2165.5,-299.5 2165.5,-280.5 1998.5,-280.5"/>
<text text-anchor="middle" x="2082" y="-287.5" font-family="Helvetica,sans-Serif" font-size="10.00">Cpl/Memory/ContiguousAllocator.h</text>
</a>
</g>
</g>
<!-- Node133&#45;&gt;Node134 -->
<g id="edge46" class="edge"><title>Node133&#45;&gt;Node134</title>
<path fill="none" stroke="midnightblue" d="M2082,-325.805C2082,-316.91 2082,-306.78 2082,-299.751"/>
<polygon fill="midnightblue" stroke="midnightblue" points="2078.5,-326.083 2082,-336.083 2085.5,-326.083 2078.5,-326.083"/>
</g>
<!-- Node136 -->
<g id="node36" class="node"><title>Node136</title>
<g id="a_node36"><a xlink:href="_pool___8h.html" target="_top" xlink:title=" ">
<polygon fill="white" stroke="red" points="2183.5,-280.5 2183.5,-299.5 2288.5,-299.5 2288.5,-280.5 2183.5,-280.5"/>
<text text-anchor="middle" x="2236" y="-287.5" font-family="Helvetica,sans-Serif" font-size="10.00">Cpl/Memory/Pool_.h</text>
</a>
</g>
</g>
<!-- Node133&#45;&gt;Node136 -->
<g id="edge47" class="edge"><title>Node133&#45;&gt;Node136</title>
<path fill="none" stroke="midnightblue" d="M2116.11,-333.039C2145.09,-322.879 2185.96,-308.546 2211.71,-299.516"/>
<polygon fill="midnightblue" stroke="midnightblue" points="2114.68,-329.832 2106.4,-336.444 2117,-336.437 2114.68,-329.832"/>
</g>
<!-- Node140 -->
<g id="node38" class="node"><title>Node140</title>
<g id="a_node38"><a xlink:href="_timer_8h.html" target="_top" xlink:title=" ">
<polygon fill="white" stroke="black" points="1335,-224.5 1335,-243.5 1439,-243.5 1439,-224.5 1335,-224.5"/>
<text text-anchor="middle" x="1387" y="-231.5" font-family="Helvetica,sans-Serif" font-size="10.00">Cpl/System/Timer.h</text>
</a>
</g>
</g>
<!-- Node139&#45;&gt;Node140 -->
<g id="edge49" class="edge"><title>Node139&#45;&gt;Node140</title>
<path fill="none" stroke="midnightblue" d="M1207.77,-325.751C1209.38,-311.294 1213.86,-291.998 1226,-280 1241.69,-264.496 1295.51,-251.539 1336.64,-243.57"/>
<polygon fill="midnightblue" stroke="midnightblue" points="1204.26,-325.845 1207.01,-336.076 1211.24,-326.36 1204.26,-325.845"/>
</g>
<!-- Node141 -->
<g id="node39" class="node"><title>Node141</title>
<g id="a_node39"><a xlink:href="_timer_manager_8h.html" target="_top" xlink:title=" ">
<polygon fill="white" stroke="black" points="1235.5,-280.5 1235.5,-299.5 1376.5,-299.5 1376.5,-280.5 1235.5,-280.5"/>
<text text-anchor="middle" x="1306" y="-287.5" font-family="Helvetica,sans-Serif" font-size="10.00">Cpl/System/TimerManager.h</text>
</a>
</g>
</g>
<!-- Node139&#45;&gt;Node141 -->
<g id="edge50" class="edge"><title>Node139&#45;&gt;Node141</title>
<path fill="none" stroke="midnightblue" d="M1231.84,-331.453C1250.11,-321.483 1274.42,-308.228 1290.13,-299.655"/>
<polygon fill="midnightblue" stroke="midnightblue" points="1230.01,-328.463 1222.91,-336.324 1233.36,-334.608 1230.01,-328.463"/>
</g>
<!-- Node141&#45;&gt;Node140 -->
<g id="edge55" class="edge"><title>Node141&#45;&gt;Node140</title>
<path fill="none" stroke="midnightblue" d="M1327.57,-274.622C1342.36,-264.757 1361.51,-251.992 1374.02,-243.655"/>
<polygon fill="midnightblue" stroke="midnightblue" points="1325.39,-271.865 1319.01,-280.324 1329.28,-277.689 1325.39,-271.865"/>
</g>
<!-- Node142 -->
<g id="node40" class="node"><title>Node142</title>
<g id="a_node40"><a xlink:href="_system_2_event_loop_8h.html" target="_top" xlink:title=" ">
<polygon fill="white" stroke="black" points="1584.5,-224.5 1584.5,-243.5 1709.5,-243.5 1709.5,-224.5 1584.5,-224.5"/>
<text text-anchor="middle" x="1647" y="-231.5" font-family="Helvetica,sans-Serif" font-size="10.00">Cpl/System/EventLoop.h</text>
</a>
</g>
</g>
<!-- Node141&#45;&gt;Node142 -->
<g id="edge51" class="edge"><title>Node141&#45;&gt;Node142</title>
<path fill="none" stroke="midnightblue" d="M1370.07,-278.854C1434.5,-268.651 1532.72,-253.098 1593.22,-243.516"/>
<polygon fill="midnightblue" stroke="midnightblue" points="1369.36,-275.422 1360.03,-280.444 1370.46,-282.336 1369.36,-275.422"/>
</g>
<!-- Node142&#45;&gt;Node50 -->
<g id="edge53" class="edge"><title>Node142&#45;&gt;Node50</title>
<path fill="none" stroke="midnightblue" d="M1626.86,-218.101C1613.72,-208.382 1597.02,-196.027 1585.94,-187.834"/>
<polygon fill="midnightblue" stroke="midnightblue" points="1625.15,-221.191 1635.27,-224.324 1629.31,-215.563 1625.15,-221.191"/>
</g>
<!-- Node142&#45;&gt;Node63 -->
<g id="edge54" class="edge"><title>Node142&#45;&gt;Node63</title>
<path fill="none" stroke="midnightblue" d="M1642.54,-214.687C1639.12,-201.51 1633.97,-183.417 1628,-168 1622.97,-155.025 1615.64,-140.691 1610.84,-131.765"/>
<polygon fill="midnightblue" stroke="midnightblue" points="1639.16,-215.589 1644.99,-224.433 1645.95,-213.881 1639.16,-215.589"/>
</g>
<!-- Node142&#45;&gt;Node70 -->
<g id="edge52" class="edge"><title>Node142&#45;&gt;Node70</title>
<path fill="none" stroke="midnightblue" d="M1596.01,-222.41C1546.87,-212.204 1473.47,-196.96 1428.01,-187.516"/>
<polygon fill="midnightblue" stroke="midnightblue" points="1595.3,-225.837 1605.8,-224.444 1596.72,-218.983 1595.3,-225.837"/>
</g>
<!-- Node111 -->
<g id="node42" class="node"><title>Node111</title>
<g id="a_node42"><a xlink:href="_system_2_private___8h.html" target="_top" xlink:title="This file contains a collection of classes, interfaces, etc.">
<polygon fill="white" stroke="red" points="2503.5,-280.5 2503.5,-299.5 2618.5,-299.5 2618.5,-280.5 2503.5,-280.5"/>
<text text-anchor="middle" x="2561" y="-287.5" font-family="Helvetica,sans-Serif" font-size="10.00">Cpl/System/Private_.h</text>
</a>
</g>
</g>
<!-- Node143&#45;&gt;Node111 -->
<g id="edge57" class="edge"><title>Node143&#45;&gt;Node111</title>
<path fill="none" stroke="midnightblue" d="M2431.74,-333.304C2462.83,-323.129 2507.15,-308.625 2534.98,-299.516"/>
<polygon fill="midnightblue" stroke="midnightblue" points="2430.56,-330.007 2422.14,-336.444 2432.74,-336.659 2430.56,-330.007"/>
</g>
<!-- Node144 -->
<g id="node43" class="node"><title>Node144</title>
<g id="a_node43"><a xlink:href="mutex__t___8h.html" target="_top" xlink:title=" ">
<polygon fill="white" stroke="red" points="2636.5,-280.5 2636.5,-299.5 2793.5,-299.5 2793.5,-280.5 2636.5,-280.5"/>
<text text-anchor="middle" x="2715" y="-287.5" font-family="Helvetica,sans-Serif" font-size="10.00">Cpl/System/RP2040/mutex_t_.h</text>
</a>
</g>
</g>
<!-- Node143&#45;&gt;Node144 -->
<g id="edge58" class="edge"><title>Node143&#45;&gt;Node144</title>
<path fill="none" stroke="midnightblue" d="M2456.68,-334.727C2516.97,-324.523 2608.32,-309.058 2664.69,-299.516"/>
<polygon fill="midnightblue" stroke="midnightblue" points="2455.82,-331.324 2446.55,-336.444 2456.99,-338.225 2455.82,-331.324"/>
</g>
<!-- Node146 -->
<g id="node44" class="node"><title>Node146</title>
<g id="a_node44"><a xlink:href="semaphore__t___8h.html" target="_top" xlink:title=" ">
<polygon fill="white" stroke="red" points="2307,-280.5 2307,-299.5 2485,-299.5 2485,-280.5 2307,-280.5"/>
<text text-anchor="middle" x="2396" y="-287.5" font-family="Helvetica,sans-Serif" font-size="10.00">Cpl/System/RP2040/semaphore_t_.h</text>
</a>
</g>
</g>
<!-- Node143&#45;&gt;Node146 -->
<g id="edge59" class="edge"><title>Node143&#45;&gt;Node146</title>
<path fill="none" stroke="midnightblue" d="M2396,-325.805C2396,-316.91 2396,-306.78 2396,-299.751"/>
<polygon fill="midnightblue" stroke="midnightblue" points="2392.5,-326.083 2396,-336.083 2399.5,-326.083 2392.5,-326.083"/>
</g>
<!-- Node148&#45;&gt;Node142 -->
<g id="edge63" class="edge"><title>Node148&#45;&gt;Node142</title>
<path fill="none" stroke="midnightblue" d="M1575.77,-328.272C1593.93,-304.494 1626.54,-261.789 1640.44,-243.591"/>
<polygon fill="midnightblue" stroke="midnightblue" points="1572.88,-326.297 1569.59,-336.368 1578.44,-330.545 1572.88,-326.297"/>
</g>
<!-- Node149 -->
<g id="node47" class="node"><title>Node149</title>
<g id="a_node47"><a xlink:href="_sync_return_handler_8h.html" target="_top" xlink:title=" ">
<polygon fill="white" stroke="red" points="1395,-280.5 1395,-299.5 1535,-299.5 1535,-280.5 1395,-280.5"/>
<text text-anchor="middle" x="1465" y="-287.5" font-family="Helvetica,sans-Serif" font-size="10.00">Cpl/Itc/SyncReturnHandler.h</text>
</a>
</g>
</g>
<!-- Node148&#45;&gt;Node149 -->
<g id="edge62" class="edge"><title>Node148&#45;&gt;Node149</title>
<path fill="none" stroke="midnightblue" d="M1538.41,-331.453C1520.32,-321.483 1496.27,-308.228 1480.71,-299.655"/>
<polygon fill="midnightblue" stroke="midnightblue" points="1536.81,-334.563 1547.25,-336.324 1540.19,-328.432 1536.81,-334.563"/>
</g>
<!-- Node150 -->
<g id="node48" class="node"><title>Node150</title>
<g id="a_node48"><a xlink:href="_semaphore_8h.html" target="_top" xlink:title=" ">
<polygon fill="white" stroke="red" points="1629,-280.5 1629,-299.5 1757,-299.5 1757,-280.5 1629,-280.5"/>
<text text-anchor="middle" x="1693" y="-287.5" font-family="Helvetica,sans-Serif" font-size="10.00">Cpl/System/Semaphore.h</text>
</a>
</g>
</g>
<!-- Node148&#45;&gt;Node150 -->
<g id="edge64" class="edge"><title>Node148&#45;&gt;Node150</title>
<path fill="none" stroke="midnightblue" d="M1593.09,-332.503C1617.46,-322.38 1651.14,-308.388 1672.5,-299.516"/>
<polygon fill="midnightblue" stroke="midnightblue" points="1591.49,-329.375 1583.6,-336.444 1594.18,-335.84 1591.49,-329.375"/>
</g>
<!-- Node158 -->
<g id="node50" class="node"><title>Node158</title>
<g id="a_node50"><a xlink:href="_thread_8h.html" target="_top" xlink:title=" ">
<polygon fill="white" stroke="red" points="1457.5,-224.5 1457.5,-243.5 1566.5,-243.5 1566.5,-224.5 1457.5,-224.5"/>
<text text-anchor="middle" x="1512" y="-231.5" font-family="Helvetica,sans-Serif" font-size="10.00">Cpl/System/Thread.h</text>
</a>
</g>
</g>
<!-- Node148&#45;&gt;Node158 -->
<g id="edge67" class="edge"><title>Node148&#45;&gt;Node158</title>
<path fill="none" stroke="midnightblue" d="M1559.29,-326.359C1556.23,-313.024 1551.21,-294.878 1544,-280 1537.39,-266.37 1526.75,-252.423 1519.57,-243.742"/>
<polygon fill="midnightblue" stroke="midnightblue" points="1555.9,-327.204 1561.41,-336.251 1562.74,-325.74 1555.9,-327.204"/>
</g>
<!-- Node150&#45;&gt;Node142 -->
<g id="edge65" class="edge"><title>Node150&#45;&gt;Node142</title>
<path fill="none" stroke="midnightblue" d="M1678.89,-272.431C1670.82,-262.967 1661.04,-251.483 1654.45,-243.751"/>
<polygon fill="midnightblue" stroke="midnightblue" points="1676.25,-274.74 1685.4,-280.083 1681.58,-270.201 1676.25,-274.74"/>
</g>
<!-- Node150&#45;&gt;Node156 -->
<g id="edge66" class="edge"><title>Node150&#45;&gt;Node156</title>
<path fill="none" stroke="midnightblue" d="M1716.55,-275.177C1733.48,-265.241 1755.78,-252.149 1770.26,-243.655"/>
<polygon fill="midnightblue" stroke="midnightblue" points="1714.63,-272.243 1707.78,-280.324 1718.18,-278.28 1714.63,-272.243"/>
</g>
<!-- Node158&#45;&gt;Node70 -->
<g id="edge68" class="edge"><title>Node158&#45;&gt;Node70</title>
<path fill="none" stroke="midnightblue" d="M1482.76,-220.368C1459.35,-210.255 1427.16,-196.349 1406.71,-187.516"/>
<polygon fill="midnightblue" stroke="midnightblue" points="1481.63,-223.691 1492.19,-224.444 1484.4,-217.265 1481.63,-223.691"/>
</g>
</g>
</svg>
