<?xml version="1.0" encoding="UTF-8" standalone="no"?>
<!DOCTYPE svg PUBLIC "-//W3C//DTD SVG 1.1//EN"
 "http://www.w3.org/Graphics/SVG/1.1/DTD/svg11.dtd">
<!-- Generated by graphviz version 2.38.0 (20140413.2041)
 -->
<!-- Title: Cpl/Container/Item.h Pages: 1 -->
<svg width="2798pt" height="375pt"
 viewBox="0.00 0.00 2798.00 375.00" xmlns="http://www.w3.org/2000/svg" xmlns:xlink="http://www.w3.org/1999/xlink">
<g id="graph0" class="graph" transform="scale(1 1) rotate(0) translate(4 371)">
<title>Cpl/Container/Item.h</title>
<polygon fill="white" stroke="none" points="-4,4 -4,-371 2794,-371 2794,4 -4,4"/>
<!-- Node1 -->
<g id="node1" class="node"><title>Node1</title>
<g id="a_node1"><a xlink:title=" ">
<polygon fill="#bfbfbf" stroke="black" points="1555,-347.5 1555,-366.5 1661,-366.5 1661,-347.5 1555,-347.5"/>
<text text-anchor="middle" x="1608" y="-354.5" font-family="Helvetica,sans-Serif" font-size="10.00">Cpl/Container/Item.h</text>
</a>
</g>
</g>
<!-- Node2 -->
<g id="node2" class="node"><title>Node2</title>
<g id="a_node2"><a xlink:href="_dict_item_8h.html" target="_top" xlink:title=" ">
<polygon fill="white" stroke="black" points="441.5,-291.5 441.5,-310.5 564.5,-310.5 564.5,-291.5 441.5,-291.5"/>
<text text-anchor="middle" x="503" y="-298.5" font-family="Helvetica,sans-Serif" font-size="10.00">Cpl/Container/DictItem.h</text>
</a>
</g>
</g>
<!-- Node1&#45;&gt;Node2 -->
<g id="edge1" class="edge"><title>Node1&#45;&gt;Node2</title>
<path fill="none" stroke="midnightblue" d="M1544.6,-353.711C1388.29,-347.934 971.952,-331.735 625,-311 605.39,-309.828 584.023,-308.328 564.729,-306.89"/>
<polygon fill="midnightblue" stroke="midnightblue" points="1544.84,-357.222 1554.96,-354.093 1545.1,-350.227 1544.84,-357.222"/>
</g>
<!-- Node40 -->
<g id="node10" class="node"><title>Node40</title>
<g id="a_node10"><a xlink:href="_s_list_8h.html" target="_top" xlink:title=" ">
<polygon fill="white" stroke="black" points="1114.5,-235.5 1114.5,-254.5 1223.5,-254.5 1223.5,-235.5 1114.5,-235.5"/>
<text text-anchor="middle" x="1169" y="-242.5" font-family="Helvetica,sans-Serif" font-size="10.00">Cpl/Container/SList.h</text>
</a>
</g>
</g>
<!-- Node1&#45;&gt;Node40 -->
<g id="edge9" class="edge"><title>Node1&#45;&gt;Node40</title>
<path fill="none" stroke="midnightblue" d="M1544.93,-346.209C1496.91,-338.228 1429.35,-325.867 1371,-311 1305.31,-294.264 1229.7,-268.007 1192.36,-254.561"/>
<polygon fill="midnightblue" stroke="midnightblue" points="1544.44,-349.675 1554.87,-347.845 1545.58,-342.768 1544.44,-349.675"/>
</g>
<!-- Node115 -->
<g id="node17" class="node"><title>Node115</title>
<g id="a_node17"><a xlink:href="_model_point_8h.html" target="_top" xlink:title=" ">
<polygon fill="white" stroke="black" points="584.5,-174 584.5,-193 693.5,-193 693.5,-174 584.5,-174"/>
<text text-anchor="middle" x="639" y="-181" font-family="Helvetica,sans-Serif" font-size="10.00">Cpl/Dm/ModelPoint.h</text>
</a>
</g>
</g>
<!-- Node1&#45;&gt;Node115 -->
<g id="edge16" class="edge"><title>Node1&#45;&gt;Node115</title>
<path fill="none" stroke="midnightblue" d="M1544.54,-356.591C1415.21,-356.826 1112.2,-352.425 862,-311 769.242,-295.642 724.328,-321.637 658,-255 641.188,-238.109 638.822,-208.006 638.751,-193.205"/>
<polygon fill="midnightblue" stroke="midnightblue" points="1544.67,-360.09 1554.66,-356.562 1544.65,-353.09 1544.67,-360.09"/>
</g>
<!-- Node119 -->
<g id="node21" class="node"><title>Node119</title>
<g id="a_node21"><a xlink:href="_subscriber_api_8h.html" target="_top" xlink:title=" ">
<polygon fill="white" stroke="black" points="667.5,-235.5 667.5,-254.5 788.5,-254.5 788.5,-235.5 667.5,-235.5"/>
<text text-anchor="middle" x="728" y="-242.5" font-family="Helvetica,sans-Serif" font-size="10.00">Cpl/Dm/SubscriberApi.h</text>
</a>
</g>
</g>
<!-- Node1&#45;&gt;Node119 -->
<g id="edge22" class="edge"><title>Node1&#45;&gt;Node119</title>
<path fill="none" stroke="midnightblue" d="M1544.64,-356.414C1425.84,-356.153 1161.93,-350.654 944,-311 871.566,-297.82 789.029,-268.943 750.292,-254.532"/>
<polygon fill="midnightblue" stroke="midnightblue" points="1544.99,-359.914 1555,-356.424 1545,-352.914 1544.99,-359.914"/>
</g>
<!-- Node122 -->
<g id="node24" class="node"><title>Node122</title>
<g id="a_node24"><a xlink:href="_close_8h.html" target="_top" xlink:title=" ">
<polygon fill="white" stroke="black" points="1380,-291.5 1380,-310.5 1458,-310.5 1458,-291.5 1380,-291.5"/>
<text text-anchor="middle" x="1419" y="-298.5" font-family="Helvetica,sans-Serif" font-size="10.00">Cpl/Io/Close.h</text>
</a>
</g>
</g>
<!-- Node1&#45;&gt;Node122 -->
<g id="edge30" class="edge"><title>Node1&#45;&gt;Node122</title>
<path fill="none" stroke="midnightblue" d="M1567.99,-344.568C1532.33,-334.381 1480.96,-319.703 1448.81,-310.516"/>
<polygon fill="midnightblue" stroke="midnightblue" points="1567.48,-348.062 1578.05,-347.444 1569.4,-341.331 1567.48,-348.062"/>
</g>
<!-- Node165 -->
<g id="node29" class="node"><title>Node165</title>
<g id="a_node29"><a xlink:href="_line_reader_api_8h.html" target="_top" xlink:title=" ">
<polygon fill="white" stroke="black" points="1826,-291.5 1826,-310.5 1942,-310.5 1942,-291.5 1826,-291.5"/>
<text text-anchor="middle" x="1884" y="-298.5" font-family="Helvetica,sans-Serif" font-size="10.00">Cpl/Io/LineReaderApi.h</text>
</a>
</g>
</g>
<!-- Node1&#45;&gt;Node165 -->
<g id="edge37" class="edge"><title>Node1&#45;&gt;Node165</title>
<path fill="none" stroke="midnightblue" d="M1661.8,-345.473C1713.96,-335.268 1792.11,-319.979 1840.47,-310.516"/>
<polygon fill="midnightblue" stroke="midnightblue" points="1660.87,-342.088 1651.73,-347.444 1662.22,-348.958 1660.87,-342.088"/>
</g>
<!-- Node166 -->
<g id="node30" class="node"><title>Node166</title>
<g id="a_node30"><a xlink:href="_line_writer_api_8h.html" target="_top" xlink:title=" ">
<polygon fill="white" stroke="black" points="1479.5,-291.5 1479.5,-310.5 1590.5,-310.5 1590.5,-291.5 1479.5,-291.5"/>
<text text-anchor="middle" x="1535" y="-298.5" font-family="Helvetica,sans-Serif" font-size="10.00">Cpl/Io/LineWriterApi.h</text>
</a>
</g>
</g>
<!-- Node1&#45;&gt;Node166 -->
<g id="edge39" class="edge"><title>Node1&#45;&gt;Node166</title>
<path fill="none" stroke="midnightblue" d="M1587.86,-341.101C1574.72,-331.382 1558.02,-319.027 1546.94,-310.834"/>
<polygon fill="midnightblue" stroke="midnightblue" points="1586.15,-344.191 1596.27,-347.324 1590.31,-338.563 1586.15,-344.191"/>
</g>
<!-- Node167 -->
<g id="node31" class="node"><title>Node167</title>
<g id="a_node31"><a xlink:href="_message_8h.html" target="_top" xlink:title=" ">
<polygon fill="white" stroke="black" points="2532,-291.5 2532,-310.5 2628,-310.5 2628,-291.5 2532,-291.5"/>
<text text-anchor="middle" x="2580" y="-298.5" font-family="Helvetica,sans-Serif" font-size="10.00">Cpl/Itc/Message.h</text>
</a>
</g>
</g>
<!-- Node1&#45;&gt;Node167 -->
<g id="edge41" class="edge"><title>Node1&#45;&gt;Node167</title>
<path fill="none" stroke="midnightblue" d="M1671.32,-355.226C1820.24,-352.895 2204.16,-343.916 2523,-311 2525.89,-310.702 2528.86,-310.355 2531.85,-309.976"/>
<polygon fill="midnightblue" stroke="midnightblue" points="1670.96,-351.731 1661.01,-355.382 1671.06,-358.73 1670.96,-351.731"/>
</g>
<!-- Node185 -->
<g id="node34" class="node"><title>Node185</title>
<g id="a_node34"><a xlink:href="_allocator_8h.html" target="_top" xlink:title=" ">
<polygon fill="white" stroke="black" points="953.5,-291.5 953.5,-310.5 1072.5,-310.5 1072.5,-291.5 953.5,-291.5"/>
<text text-anchor="middle" x="1013" y="-298.5" font-family="Helvetica,sans-Serif" font-size="10.00">Cpl/Memory/Allocator.h</text>
</a>
</g>
</g>
<!-- Node1&#45;&gt;Node185 -->
<g id="edge45" class="edge"><title>Node1&#45;&gt;Node185</title>
<path fill="none" stroke="midnightblue" d="M1544.83,-350.267C1429.3,-339.782 1185.47,-317.652 1072.62,-307.411"/>
<polygon fill="midnightblue" stroke="midnightblue" points="1544.66,-353.766 1554.94,-351.184 1545.29,-346.795 1544.66,-353.766"/>
</g>
<!-- Node191 -->
<g id="node37" class="node"><title>Node191</title>
<g id="a_node37"><a xlink:href="_counter___8h.html" target="_top" xlink:title=" ">
<polygon fill="white" stroke="black" points="2646,-291.5 2646,-310.5 2764,-310.5 2764,-291.5 2646,-291.5"/>
<text text-anchor="middle" x="2705" y="-298.5" font-family="Helvetica,sans-Serif" font-size="10.00">Cpl/System/Counter_.h</text>
</a>
</g>
</g>
<!-- Node1&#45;&gt;Node191 -->
<g id="edge48" class="edge"><title>Node1&#45;&gt;Node191</title>
<path fill="none" stroke="midnightblue" d="M1671.35,-355.165C1832.71,-352.618 2272.27,-343.049 2637,-311 2639.85,-310.75 2642.76,-310.467 2645.7,-310.161"/>
<polygon fill="midnightblue" stroke="midnightblue" points="1671.07,-351.669 1661.12,-355.323 1671.18,-358.668 1671.07,-351.669"/>
</g>
<!-- Node196 -->
<g id="node41" class="node"><title>Node196</title>
<g id="a_node41"><a xlink:href="_private_startup___8h.html" target="_top" xlink:title="This file contains a collection of classes, interfaces, etc.">
<polygon fill="white" stroke="black" points="1611,-291.5 1611,-310.5 1757,-310.5 1757,-291.5 1611,-291.5"/>
<text text-anchor="middle" x="1684" y="-298.5" font-family="Helvetica,sans-Serif" font-size="10.00">Cpl/System/PrivateStartup_.h</text>
</a>
</g>
</g>
<!-- Node1&#45;&gt;Node196 -->
<g id="edge55" class="edge"><title>Node1&#45;&gt;Node196</title>
<path fill="none" stroke="midnightblue" d="M1628.58,-341.38C1642.31,-331.62 1659.93,-319.106 1671.57,-310.834"/>
<polygon fill="midnightblue" stroke="midnightblue" points="1626.34,-338.679 1620.21,-347.324 1630.39,-344.385 1626.34,-338.679"/>
</g>
<!-- Node200 -->
<g id="node45" class="node"><title>Node200</title>
<g id="a_node45"><a xlink:href="_shutdown_8h.html" target="_top" xlink:title=" ">
<polygon fill="white" stroke="black" points="2392,-291.5 2392,-310.5 2514,-310.5 2514,-291.5 2392,-291.5"/>
<text text-anchor="middle" x="2453" y="-298.5" font-family="Helvetica,sans-Serif" font-size="10.00">Cpl/System/Shutdown.h</text>
</a>
</g>
</g>
<!-- Node1&#45;&gt;Node200 -->
<g id="edge59" class="edge"><title>Node1&#45;&gt;Node200</title>
<path fill="none" stroke="midnightblue" d="M1671.61,-353.598C1803.5,-348.328 2116.33,-334.325 2378,-311 2382.44,-310.604 2387.03,-310.155 2391.64,-309.673"/>
<polygon fill="midnightblue" stroke="midnightblue" points="1671.15,-350.114 1661.29,-354.007 1671.42,-357.108 1671.15,-350.114"/>
</g>
<!-- Node201 -->
<g id="node46" class="node"><title>Node201</title>
<g id="a_node46"><a xlink:href="_signable_8h.html" target="_top" xlink:title=" ">
<polygon fill="white" stroke="black" points="2007,-291.5 2007,-310.5 2123,-310.5 2123,-291.5 2007,-291.5"/>
<text text-anchor="middle" x="2065" y="-298.5" font-family="Helvetica,sans-Serif" font-size="10.00">Cpl/System/Signable.h</text>
</a>
</g>
</g>
<!-- Node1&#45;&gt;Node201 -->
<g id="edge60" class="edge"><title>Node1&#45;&gt;Node201</title>
<path fill="none" stroke="midnightblue" d="M1671.27,-348.523C1760.23,-338.012 1920.99,-319.017 2007,-308.853"/>
<polygon fill="midnightblue" stroke="midnightblue" points="1670.84,-345.05 1661.32,-349.7 1671.66,-352.002 1670.84,-345.05"/>
</g>
<!-- Node209 -->
<g id="node49" class="node"><title>Node209</title>
<g id="a_node49"><a xlink:href="_sim_tick_8h.html" target="_top" xlink:title=" ">
<polygon fill="white" stroke="black" points="2247.5,-174 2247.5,-193 2362.5,-193 2362.5,-174 2247.5,-174"/>
<text text-anchor="middle" x="2305" y="-181" font-family="Helvetica,sans-Serif" font-size="10.00">Cpl/System/SimTick.h</text>
</a>
</g>
</g>
<!-- Node1&#45;&gt;Node209 -->
<g id="edge68" class="edge"><title>Node1&#45;&gt;Node209</title>
<path fill="none" stroke="midnightblue" d="M1671.27,-352.736C1849.07,-342.897 2343.15,-310.727 2388,-255 2408.98,-228.931 2361.27,-205.209 2329.83,-193.05"/>
<polygon fill="midnightblue" stroke="midnightblue" points="1671.07,-349.241 1661.28,-353.284 1671.46,-356.231 1671.07,-349.241"/>
</g>
<!-- Node3 -->
<g id="node3" class="node"><title>Node3</title>
<g id="a_node3"><a xlink:href="_hash_table___8h.html" target="_top" xlink:title=" ">
<polygon fill="white" stroke="black" points="434,-235.5 434,-254.5 572,-254.5 572,-235.5 434,-235.5"/>
<text text-anchor="middle" x="503" y="-242.5" font-family="Helvetica,sans-Serif" font-size="10.00">Cpl/Container/HashTable_.h</text>
</a>
</g>
</g>
<!-- Node2&#45;&gt;Node3 -->
<g id="edge2" class="edge"><title>Node2&#45;&gt;Node3</title>
<path fill="none" stroke="midnightblue" d="M503,-280.805C503,-271.91 503,-261.78 503,-254.751"/>
<polygon fill="midnightblue" stroke="midnightblue" points="499.5,-281.083 503,-291.083 506.5,-281.083 499.5,-281.083"/>
</g>
<!-- Node5 -->
<g id="node5" class="node"><title>Node5</title>
<g id="a_node5"><a xlink:href="_map_item_8h.html" target="_top" xlink:title=" ">
<polygon fill="white" stroke="black" points="290.5,-235.5 290.5,-254.5 415.5,-254.5 415.5,-235.5 290.5,-235.5"/>
<text text-anchor="middle" x="353" y="-242.5" font-family="Helvetica,sans-Serif" font-size="10.00">Cpl/Container/MapItem.h</text>
</a>
</g>
</g>
<!-- Node2&#45;&gt;Node5 -->
<g id="edge4" class="edge"><title>Node2&#45;&gt;Node5</title>
<path fill="none" stroke="midnightblue" d="M469.775,-288.039C441.552,-277.879 401.738,-263.546 376.657,-254.516"/>
<polygon fill="midnightblue" stroke="midnightblue" points="468.638,-291.349 479.232,-291.444 471.009,-284.763 468.638,-291.349"/>
</g>
<!-- Node4 -->
<g id="node4" class="node"><title>Node4</title>
<g id="a_node4"><a xlink:href="_dictionary_8h.html" target="_top" xlink:title=" ">
<polygon fill="white" stroke="black" points="436,-174 436,-193 566,-193 566,-174 436,-174"/>
<text text-anchor="middle" x="501" y="-181" font-family="Helvetica,sans-Serif" font-size="10.00">Cpl/Container/Dictionary.h</text>
</a>
</g>
</g>
<!-- Node3&#45;&gt;Node4 -->
<g id="edge3" class="edge"><title>Node3&#45;&gt;Node4</title>
<path fill="none" stroke="midnightblue" d="M502.372,-225.317C502.008,-214.496 501.568,-201.398 501.286,-193.009"/>
<polygon fill="midnightblue" stroke="midnightblue" points="498.879,-225.598 502.713,-235.475 505.875,-225.363 498.879,-225.598"/>
</g>
<!-- Node6 -->
<g id="node6" class="node"><title>Node6</title>
<g id="a_node6"><a xlink:href="_avl_tree___8h.html" target="_top" xlink:title=" ">
<polygon fill="white" stroke="red" points="292.5,-174 292.5,-193 417.5,-193 417.5,-174 292.5,-174"/>
<text text-anchor="middle" x="355" y="-181" font-family="Helvetica,sans-Serif" font-size="10.00">Cpl/Container/AvlTree_.h</text>
</a>
</g>
</g>
<!-- Node5&#45;&gt;Node6 -->
<g id="edge5" class="edge"><title>Node5&#45;&gt;Node6</title>
<path fill="none" stroke="midnightblue" d="M353.628,-225.317C353.992,-214.496 354.432,-201.398 354.714,-193.009"/>
<polygon fill="midnightblue" stroke="midnightblue" points="350.125,-225.363 353.287,-235.475 357.121,-225.598 350.125,-225.363"/>
</g>
<!-- Node34 -->
<g id="node7" class="node"><title>Node34</title>
<g id="a_node7"><a xlink:href="_command_8h.html" target="_top" xlink:title=" ">
<polygon fill="white" stroke="red" points="711.5,-174 711.5,-193 828.5,-193 828.5,-174 711.5,-174"/>
<text text-anchor="middle" x="770" y="-181" font-family="Helvetica,sans-Serif" font-size="10.00">Cpl/TShell/Command.h</text>
</a>
</g>
</g>
<!-- Node5&#45;&gt;Node34 -->
<g id="edge6" class="edge"><title>Node5&#45;&gt;Node34</title>
<path fill="none" stroke="midnightblue" d="M426.002,-234.742C524.307,-222.252 688.568,-201.294 702,-199 711.995,-197.293 722.752,-195.145 732.695,-193.029"/>
<polygon fill="midnightblue" stroke="midnightblue" points="425.302,-231.303 415.823,-236.035 426.184,-238.247 425.302,-231.303"/>
</g>
<!-- Node35 -->
<g id="node8" class="node"><title>Node35</title>
<g id="a_node8"><a xlink:href="_string_item_8h.html" target="_top" xlink:title=" ">
<polygon fill="white" stroke="red" points="0,-174 0,-193 110,-193 110,-174 0,-174"/>
<text text-anchor="middle" x="55" y="-181" font-family="Helvetica,sans-Serif" font-size="10.00">Cpl/Text/StringItem.h</text>
</a>
</g>
</g>
<!-- Node5&#45;&gt;Node35 -->
<g id="edge7" class="edge"><title>Node5&#45;&gt;Node35</title>
<path fill="none" stroke="midnightblue" d="M296.214,-233.619C248.762,-224.815 179.357,-211.637 119,-199 110.191,-197.156 100.724,-195.069 91.8439,-193.065"/>
<polygon fill="midnightblue" stroke="midnightblue" points="295.823,-237.106 306.293,-235.484 297.097,-230.223 295.823,-237.106"/>
</g>
<!-- Node39 -->
<g id="node9" class="node"><title>Node39</title>
<g id="a_node9"><a xlink:href="_rx_frame_handler_api_8h.html" target="_top" xlink:title=" ">
<polygon fill="white" stroke="red" points="128,-168.5 128,-198.5 274,-198.5 274,-168.5 128,-168.5"/>
<text text-anchor="start" x="136" y="-186.5" font-family="Helvetica,sans-Serif" font-size="10.00">Driver/TPipe/RxFrameHandler</text>
<text text-anchor="middle" x="201" y="-175.5" font-family="Helvetica,sans-Serif" font-size="10.00">Api.h</text>
</a>
</g>
</g>
<!-- Node5&#45;&gt;Node39 -->
<g id="edge8" class="edge"><title>Node5&#45;&gt;Node39</title>
<path fill="none" stroke="midnightblue" d="M321.627,-231.719C296.957,-222.062 262.572,-208.602 236.823,-198.523"/>
<polygon fill="midnightblue" stroke="midnightblue" points="320.634,-235.089 331.222,-235.475 323.186,-228.571 320.634,-235.089"/>
</g>
<!-- Node41 -->
<g id="node11" class="node"><title>Node41</title>
<g id="a_node11"><a xlink:href="_model_database_8h.html" target="_top" xlink:title=" ">
<polygon fill="white" stroke="black" points="885,-174 885,-193 1013,-193 1013,-174 885,-174"/>
<text text-anchor="middle" x="949" y="-181" font-family="Helvetica,sans-Serif" font-size="10.00">Cpl/Dm/ModelDatabase.h</text>
</a>
</g>
</g>
<!-- Node40&#45;&gt;Node41 -->
<g id="edge10" class="edge"><title>Node40&#45;&gt;Node41</title>
<path fill="none" stroke="midnightblue" d="M1127.67,-232.822C1084.94,-221.264 1019.15,-203.473 980.462,-193.009"/>
<polygon fill="midnightblue" stroke="midnightblue" points="1126.91,-236.243 1137.48,-235.475 1128.74,-229.486 1126.91,-236.243"/>
</g>
<!-- Node98 -->
<g id="node14" class="node"><title>Node98</title>
<g id="a_node14"><a xlink:href="_tee_output_8h.html" target="_top" xlink:title=" ">
<polygon fill="white" stroke="black" points="1253.5,-174 1253.5,-193 1352.5,-193 1352.5,-174 1253.5,-174"/>
<text text-anchor="middle" x="1303" y="-181" font-family="Helvetica,sans-Serif" font-size="10.00">Cpl/Io/TeeOutput.h</text>
</a>
</g>
</g>
<!-- Node40&#45;&gt;Node98 -->
<g id="edge13" class="edge"><title>Node40&#45;&gt;Node98</title>
<path fill="none" stroke="midnightblue" d="M1197.54,-231.327C1223.55,-219.776 1261.26,-203.032 1283.84,-193.009"/>
<polygon fill="midnightblue" stroke="midnightblue" points="1195.92,-228.218 1188.2,-235.475 1198.76,-234.616 1195.92,-228.218"/>
</g>
<!-- Node99 -->
<g id="node15" class="node"><title>Node99</title>
<g id="a_node15"><a xlink:href="_mailbox_8h.html" target="_top" xlink:title=" ">
<polygon fill="white" stroke="red" points="1829,-112.5 1829,-131.5 1919,-131.5 1919,-112.5 1829,-112.5"/>
<text text-anchor="middle" x="1874" y="-119.5" font-family="Helvetica,sans-Serif" font-size="10.00">Cpl/Itc/Mailbox.h</text>
</a>
</g>
</g>
<!-- Node40&#45;&gt;Node99 -->
<g id="edge14" class="edge"><title>Node40&#45;&gt;Node99</title>
<path fill="none" stroke="midnightblue" d="M1182.87,-227.417C1200.22,-207.151 1229.41,-174.718 1244,-168 1296.72,-143.714 1693.26,-128.816 1828.76,-124.392"/>
<polygon fill="midnightblue" stroke="midnightblue" points="1180.03,-225.354 1176.24,-235.247 1185.37,-229.879 1180.03,-225.354"/>
</g>
<!-- Node42 -->
<g id="node12" class="node"><title>Node42</title>
<g id="a_node12"><a xlink:href="_model_point_common___8h.html" target="_top" xlink:title=" ">
<polygon fill="white" stroke="red" points="775.5,-0.5 775.5,-19.5 928.5,-19.5 928.5,-0.5 775.5,-0.5"/>
<text text-anchor="middle" x="852" y="-7.5" font-family="Helvetica,sans-Serif" font-size="10.00">Cpl/Dm/ModelPointCommon_.h</text>
</a>
</g>
</g>
<!-- Node41&#45;&gt;Node42 -->
<g id="edge11" class="edge"><title>Node41&#45;&gt;Node42</title>
<path fill="none" stroke="midnightblue" d="M947.657,-163.576C944.982,-137.306 937.079,-89.2723 914,-56 902.781,-39.8258 883.812,-27.3127 869.803,-19.6335"/>
<polygon fill="midnightblue" stroke="midnightblue" points="944.183,-164.03 948.534,-173.69 951.157,-163.425 944.183,-164.03"/>
</g>
<!-- Node60 -->
<g id="node13" class="node"><title>Node60</title>
<g id="a_node13"><a xlink:href="_model_points_8h.html" target="_top" xlink:title="This file defines all of the Model Points for the Thermostat Application.">
<polygon fill="white" stroke="red" points="962.5,-112.5 962.5,-131.5 1123.5,-131.5 1123.5,-112.5 962.5,-112.5"/>
<text text-anchor="middle" x="1043" y="-119.5" font-family="Helvetica,sans-Serif" font-size="10.00">Storm/Thermostat/ModelPoints.h</text>
</a>
</g>
</g>
<!-- Node41&#45;&gt;Node60 -->
<g id="edge12" class="edge"><title>Node41&#45;&gt;Node60</title>
<path fill="none" stroke="midnightblue" d="M971.229,-168.43C989.351,-156.959 1014.35,-141.134 1029.56,-131.509"/>
<polygon fill="midnightblue" stroke="midnightblue" points="969.046,-165.669 962.468,-173.975 972.789,-171.584 969.046,-165.669"/>
</g>
<!-- Node100 -->
<g id="node16" class="node"><title>Node100</title>
<g id="a_node16"><a xlink:href="_dm_2_mailbox_server_8h.html" target="_top" xlink:title=" ">
<polygon fill="white" stroke="red" points="1564,-56.5 1564,-75.5 1686,-75.5 1686,-56.5 1564,-56.5"/>
<text text-anchor="middle" x="1625" y="-63.5" font-family="Helvetica,sans-Serif" font-size="10.00">Cpl/Dm/MailboxServer.h</text>
</a>
</g>
</g>
<!-- Node99&#45;&gt;Node100 -->
<g id="edge15" class="edge"><title>Node99&#45;&gt;Node100</title>
<path fill="none" stroke="midnightblue" d="M1824.58,-110.281C1777.52,-100.077 1707.63,-84.9203 1664.27,-75.5164"/>
<polygon fill="midnightblue" stroke="midnightblue" points="1824.03,-113.745 1834.55,-112.444 1825.51,-106.904 1824.03,-113.745"/>
</g>
<!-- Node115&#45;&gt;Node42 -->
<g id="edge18" class="edge"><title>Node115&#45;&gt;Node42</title>
<path fill="none" stroke="midnightblue" d="M665.401,-169.121C682.419,-159.868 704.546,-146.625 722,-132 756.515,-103.08 755.573,-86.1712 789,-56 804.665,-41.8606 824.811,-28.1389 838.05,-19.6407"/>
<polygon fill="midnightblue" stroke="midnightblue" points="663.722,-166.05 656.535,-173.834 667.008,-172.231 663.722,-166.05"/>
</g>
<!-- Node116 -->
<g id="node18" class="node"><title>Node116</title>
<g id="a_node18"><a xlink:href="helpers_8h.html" target="_top" xlink:title="This file defines helper functions/interface for writing unit tests.">
<polygon fill="white" stroke="black" points="471.5,-112.5 471.5,-131.5 556.5,-131.5 556.5,-112.5 471.5,-112.5"/>
<text text-anchor="middle" x="514" y="-119.5" font-family="Helvetica,sans-Serif" font-size="10.00">Catch/helpers.h</text>
</a>
</g>
</g>
<!-- Node115&#45;&gt;Node116 -->
<g id="edge17" class="edge"><title>Node115&#45;&gt;Node116</title>
<path fill="none" stroke="midnightblue" d="M612.055,-169.674C587.8,-158.129 552.839,-141.487 531.876,-131.509"/>
<polygon fill="midnightblue" stroke="midnightblue" points="610.557,-172.837 621.091,-173.975 613.566,-166.517 610.557,-172.837"/>
</g>
<!-- Node103 -->
<g id="node19" class="node"><title>Node103</title>
<g id="a_node19"><a xlink:href="_dm_2_persistent_2_record_8h.html" target="_top" xlink:title=" ">
<polygon fill="white" stroke="red" points="575,-112.5 575,-131.5 713,-131.5 713,-112.5 575,-112.5"/>
<text text-anchor="middle" x="644" y="-119.5" font-family="Helvetica,sans-Serif" font-size="10.00">Cpl/Dm/Persistent/Record.h</text>
</a>
</g>
</g>
<!-- Node115&#45;&gt;Node103 -->
<g id="edge19" class="edge"><title>Node115&#45;&gt;Node103</title>
<path fill="none" stroke="midnightblue" d="M640.57,-163.817C641.479,-152.996 642.58,-139.898 643.285,-131.509"/>
<polygon fill="midnightblue" stroke="midnightblue" points="637.066,-163.717 639.716,-173.975 644.042,-164.303 637.066,-163.717"/>
</g>
<!-- Node117 -->
<g id="node20" class="node"><title>Node117</title>
<g id="a_node20"><a xlink:href="_subscriber_8h.html" target="_top" xlink:title=" ">
<polygon fill="white" stroke="red" points="798.5,-56.5 798.5,-75.5 905.5,-75.5 905.5,-56.5 798.5,-56.5"/>
<text text-anchor="middle" x="852" y="-63.5" font-family="Helvetica,sans-Serif" font-size="10.00">Cpl/Dm/Subscriber.h</text>
</a>
</g>
</g>
<!-- Node115&#45;&gt;Node117 -->
<g id="edge20" class="edge"><title>Node115&#45;&gt;Node117</title>
<path fill="none" stroke="midnightblue" d="M675.73,-170.637C701.5,-161.637 736.334,-148.088 765,-132 795.253,-115.021 826.962,-88.8703 842.405,-75.5035"/>
<polygon fill="midnightblue" stroke="midnightblue" points="674.308,-167.424 665.982,-173.976 676.576,-174.047 674.308,-167.424"/>
</g>
<!-- Node117&#45;&gt;Node42 -->
<g id="edge21" class="edge"><title>Node117&#45;&gt;Node42</title>
<path fill="none" stroke="midnightblue" d="M852,-45.8045C852,-36.9102 852,-26.7798 852,-19.7511"/>
<polygon fill="midnightblue" stroke="midnightblue" points="848.5,-46.083 852,-56.083 855.5,-46.083 848.5,-46.083"/>
</g>
<!-- Node119&#45;&gt;Node115 -->
<g id="edge26" class="edge"><title>Node119&#45;&gt;Node115</title>
<path fill="none" stroke="midnightblue" d="M706.48,-229.613C689.362,-218.169 665.993,-202.546 651.728,-193.009"/>
<polygon fill="midnightblue" stroke="midnightblue" points="704.99,-232.827 715.248,-235.475 708.88,-227.008 704.99,-232.827"/>
</g>
<!-- Node119&#45;&gt;Node117 -->
<g id="edge29" class="edge"><title>Node119&#45;&gt;Node117</title>
<path fill="none" stroke="midnightblue" d="M786.556,-232.376C805.474,-225.716 824.714,-215.29 837,-199 865.61,-161.068 857.889,-98.7098 853.781,-75.7982"/>
<polygon fill="midnightblue" stroke="midnightblue" points="785.479,-229.046 777.031,-235.439 787.622,-235.71 785.479,-229.046"/>
</g>
<!-- Node120 -->
<g id="node22" class="node"><title>Node120</title>
<g id="a_node22"><a xlink:href="_dm_2_event_loop_8h.html" target="_top" xlink:title=" ">
<polygon fill="white" stroke="black" points="1323.5,-112.5 1323.5,-131.5 1430.5,-131.5 1430.5,-112.5 1323.5,-112.5"/>
<text text-anchor="middle" x="1377" y="-119.5" font-family="Helvetica,sans-Serif" font-size="10.00">Cpl/Dm/EventLoop.h</text>
</a>
</g>
</g>
<!-- Node119&#45;&gt;Node120 -->
<g id="edge23" class="edge"><title>Node119&#45;&gt;Node120</title>
<path fill="none" stroke="midnightblue" d="M798.569,-234.899C963.65,-217.855 1016.02,-256.323 1168,-199 1190.04,-190.685 1189.73,-178.135 1211,-168 1248.2,-150.274 1293.53,-138.583 1327.42,-131.571"/>
<polygon fill="midnightblue" stroke="midnightblue" points="798.132,-231.426 788.568,-235.985 798.888,-238.385 798.132,-231.426"/>
</g>
<!-- Node121 -->
<g id="node23" class="node"><title>Node121</title>
<g id="a_node23"><a xlink:href="_notification_api___8h.html" target="_top" xlink:title=" ">
<polygon fill="white" stroke="black" points="1031,-174 1031,-193 1159,-193 1159,-174 1031,-174"/>
<text text-anchor="middle" x="1095" y="-181" font-family="Helvetica,sans-Serif" font-size="10.00">Cpl/Dm/NotificationApi_.h</text>
</a>
</g>
</g>
<!-- Node119&#45;&gt;Node121 -->
<g id="edge27" class="edge"><title>Node119&#45;&gt;Node121</title>
<path fill="none" stroke="midnightblue" d="M798.721,-234.07C858.363,-225.482 945.921,-212.371 1022,-199 1032.31,-197.188 1043.4,-195.071 1053.75,-193.024"/>
<polygon fill="midnightblue" stroke="midnightblue" points="798.059,-230.629 788.658,-235.515 799.054,-237.558 798.059,-230.629"/>
</g>
<!-- Node120&#45;&gt;Node100 -->
<g id="edge24" class="edge"><title>Node120&#45;&gt;Node100</title>
<path fill="none" stroke="midnightblue" d="M1426.23,-110.281C1473.09,-100.077 1542.7,-84.9203 1585.89,-75.5164"/>
<polygon fill="midnightblue" stroke="midnightblue" points="1425.32,-106.896 1416.3,-112.444 1426.81,-113.736 1425.32,-106.896"/>
</g>
<!-- Node120&#45;&gt;Node117 -->
<g id="edge25" class="edge"><title>Node120&#45;&gt;Node117</title>
<path fill="none" stroke="midnightblue" d="M1313.19,-114.437C1208.72,-103.691 1003.08,-82.5401 905.641,-72.5174"/>
<polygon fill="midnightblue" stroke="midnightblue" points="1312.98,-117.933 1323.28,-115.475 1313.69,-110.97 1312.98,-117.933"/>
</g>
<!-- Node121&#45;&gt;Node120 -->
<g id="edge28" class="edge"><title>Node121&#45;&gt;Node120</title>
<path fill="none" stroke="midnightblue" d="M1145.23,-171.902C1199.9,-160.367 1286.24,-142.15 1336.67,-131.509"/>
<polygon fill="midnightblue" stroke="midnightblue" points="1144.47,-168.486 1135.4,-173.975 1145.91,-175.335 1144.47,-168.486"/>
</g>
<!-- Node123 -->
<g id="node25" class="node"><title>Node123</title>
<g id="a_node25"><a xlink:href="_input_8h.html" target="_top" xlink:title=" ">
<polygon fill="white" stroke="red" points="1381.5,-235.5 1381.5,-254.5 1456.5,-254.5 1456.5,-235.5 1381.5,-235.5"/>
<text text-anchor="middle" x="1419" y="-242.5" font-family="Helvetica,sans-Serif" font-size="10.00">Cpl/Io/Input.h</text>
</a>
</g>
</g>
<!-- Node122&#45;&gt;Node123 -->
<g id="edge31" class="edge"><title>Node122&#45;&gt;Node123</title>
<path fill="none" stroke="midnightblue" d="M1419,-280.805C1419,-271.91 1419,-261.78 1419,-254.751"/>
<polygon fill="midnightblue" stroke="midnightblue" points="1415.5,-281.083 1419,-291.083 1422.5,-281.083 1415.5,-281.083"/>
</g>
<!-- Node151 -->
<g id="node27" class="node"><title>Node151</title>
<g id="a_node27"><a xlink:href="_output_8h.html" target="_top" xlink:title=" ">
<polygon fill="white" stroke="red" points="1241.5,-235.5 1241.5,-254.5 1324.5,-254.5 1324.5,-235.5 1241.5,-235.5"/>
<text text-anchor="middle" x="1283" y="-242.5" font-family="Helvetica,sans-Serif" font-size="10.00">Cpl/Io/Output.h</text>
</a>
</g>
</g>
<!-- Node122&#45;&gt;Node151 -->
<g id="edge33" class="edge"><title>Node122&#45;&gt;Node151</title>
<path fill="none" stroke="midnightblue" d="M1387.87,-287.638C1362.34,-277.504 1326.89,-263.427 1304.45,-254.516"/>
<polygon fill="midnightblue" stroke="midnightblue" points="1386.86,-291.006 1397.45,-291.444 1389.45,-284.5 1386.86,-291.006"/>
</g>
<!-- Node141 -->
<g id="node26" class="node"><title>Node141</title>
<g id="a_node26"><a xlink:href="_line_reader_8h.html" target="_top" xlink:title=" ">
<polygon fill="white" stroke="black" points="1554,-174 1554,-193 1656,-193 1656,-174 1554,-174"/>
<text text-anchor="middle" x="1605" y="-181" font-family="Helvetica,sans-Serif" font-size="10.00">Cpl/Io/LineReader.h</text>
</a>
</g>
</g>
<!-- Node123&#45;&gt;Node141 -->
<g id="edge32" class="edge"><title>Node123&#45;&gt;Node141</title>
<path fill="none" stroke="midnightblue" d="M1455.32,-232.381C1491.48,-220.815 1546.1,-203.341 1578.4,-193.009"/>
<polygon fill="midnightblue" stroke="midnightblue" points="1454.11,-229.095 1445.65,-235.475 1456.24,-235.762 1454.11,-229.095"/>
</g>
<!-- Node151&#45;&gt;Node34 -->
<g id="edge36" class="edge"><title>Node151&#45;&gt;Node34</title>
<path fill="none" stroke="midnightblue" d="M1231.19,-234.987C1072.76,-213.346 1030.68,-217.394 876,-199 860.599,-197.169 843.968,-194.989 828.547,-192.884"/>
<polygon fill="midnightblue" stroke="midnightblue" points="1230.91,-238.482 1241.29,-236.381 1231.86,-231.548 1230.91,-238.482"/>
</g>
<!-- Node151&#45;&gt;Node98 -->
<g id="edge35" class="edge"><title>Node151&#45;&gt;Node98</title>
<path fill="none" stroke="midnightblue" d="M1289.17,-225.657C1292.82,-214.772 1297.29,-201.486 1300.14,-193.009"/>
<polygon fill="midnightblue" stroke="midnightblue" points="1285.73,-224.881 1285.87,-235.475 1292.37,-227.111 1285.73,-224.881"/>
</g>
<!-- Node156 -->
<g id="node28" class="node"><title>Node156</title>
<g id="a_node28"><a xlink:href="_line_writer_8h.html" target="_top" xlink:title=" ">
<polygon fill="white" stroke="black" points="1370.5,-174 1370.5,-193 1467.5,-193 1467.5,-174 1370.5,-174"/>
<text text-anchor="middle" x="1419" y="-181" font-family="Helvetica,sans-Serif" font-size="10.00">Cpl/Io/LineWriter.h</text>
</a>
</g>
</g>
<!-- Node151&#45;&gt;Node156 -->
<g id="edge34" class="edge"><title>Node151&#45;&gt;Node156</title>
<path fill="none" stroke="midnightblue" d="M1311.97,-231.327C1338.37,-219.776 1376.64,-203.032 1399.55,-193.009"/>
<polygon fill="midnightblue" stroke="midnightblue" points="1310.24,-228.26 1302.49,-235.475 1313.05,-234.673 1310.24,-228.26"/>
</g>
<!-- Node165&#45;&gt;Node141 -->
<g id="edge38" class="edge"><title>Node165&#45;&gt;Node141</title>
<path fill="none" stroke="midnightblue" d="M1921.97,-288.043C1953.11,-276.304 1989.16,-256.996 1970,-235 1949.67,-211.666 1751.54,-194.755 1656.01,-187.888"/>
<polygon fill="midnightblue" stroke="midnightblue" points="1920.76,-284.76 1912.53,-291.438 1923.13,-291.347 1920.76,-284.76"/>
</g>
<!-- Node166&#45;&gt;Node156 -->
<g id="edge40" class="edge"><title>Node166&#45;&gt;Node156</title>
<path fill="none" stroke="midnightblue" d="M1469.49,-290.149C1429.63,-282.666 1384.13,-270.935 1372,-255 1355.69,-233.581 1386.72,-206.759 1405.74,-193.204"/>
<polygon fill="midnightblue" stroke="midnightblue" points="1469.01,-293.619 1479.47,-291.96 1470.26,-286.732 1469.01,-293.619"/>
</g>
<!-- Node168 -->
<g id="node32" class="node"><title>Node168</title>
<g id="a_node32"><a xlink:href="_post_api_8h.html" target="_top" xlink:title=" ">
<polygon fill="white" stroke="red" points="2501.5,-174 2501.5,-193 2592.5,-193 2592.5,-174 2501.5,-174"/>
<text text-anchor="middle" x="2547" y="-181" font-family="Helvetica,sans-Serif" font-size="10.00">Cpl/Itc/PostApi.h</text>
</a>
</g>
</g>
<!-- Node167&#45;&gt;Node168 -->
<g id="edge42" class="edge"><title>Node167&#45;&gt;Node168</title>
<path fill="none" stroke="midnightblue" d="M2579.79,-281.211C2579.21,-268.032 2577.54,-250.135 2573,-235 2568.3,-219.32 2558.76,-202.742 2552.64,-193.022"/>
<polygon fill="midnightblue" stroke="midnightblue" points="2576.3,-281.487 2580.07,-291.389 2583.3,-281.299 2576.3,-281.487"/>
</g>
<!-- Node184 -->
<g id="node33" class="node"><title>Node184</title>
<g id="a_node33"><a xlink:href="_service_message_8h.html" target="_top" xlink:title=" ">
<polygon fill="white" stroke="red" points="2435.5,-235.5 2435.5,-254.5 2564.5,-254.5 2564.5,-235.5 2435.5,-235.5"/>
<text text-anchor="middle" x="2500" y="-242.5" font-family="Helvetica,sans-Serif" font-size="10.00">Cpl/Itc/ServiceMessage.h</text>
</a>
</g>
</g>
<!-- Node167&#45;&gt;Node184 -->
<g id="edge44" class="edge"><title>Node167&#45;&gt;Node184</title>
<path fill="none" stroke="midnightblue" d="M2558.7,-285.622C2544.08,-275.757 2525.17,-262.992 2512.82,-254.655"/>
<polygon fill="midnightblue" stroke="midnightblue" points="2556.9,-288.63 2567.15,-291.324 2560.82,-282.828 2556.9,-288.63"/>
</g>
<!-- Node168&#45;&gt;Node99 -->
<g id="edge43" class="edge"><title>Node168&#45;&gt;Node99</title>
<path fill="none" stroke="midnightblue" d="M2491.11,-177.559C2360.75,-166.034 2038.6,-137.553 1919.35,-127.009"/>
<polygon fill="midnightblue" stroke="midnightblue" points="2491,-181.063 2501.27,-178.457 2491.62,-174.09 2491,-181.063"/>
</g>
<!-- Node186 -->
<g id="node35" class="node"><title>Node186</title>
<g id="a_node35"><a xlink:href="_contiguous_allocator_8h.html" target="_top" xlink:title=" ">
<polygon fill="white" stroke="red" points="929.5,-235.5 929.5,-254.5 1096.5,-254.5 1096.5,-235.5 929.5,-235.5"/>
<text text-anchor="middle" x="1013" y="-242.5" font-family="Helvetica,sans-Serif" font-size="10.00">Cpl/Memory/ContiguousAllocator.h</text>
</a>
</g>
</g>
<!-- Node185&#45;&gt;Node186 -->
<g id="edge46" class="edge"><title>Node185&#45;&gt;Node186</title>
<path fill="none" stroke="midnightblue" d="M1013,-280.805C1013,-271.91 1013,-261.78 1013,-254.751"/>
<polygon fill="midnightblue" stroke="midnightblue" points="1009.5,-281.083 1013,-291.083 1016.5,-281.083 1009.5,-281.083"/>
</g>
<!-- Node188 -->
<g id="node36" class="node"><title>Node188</title>
<g id="a_node36"><a xlink:href="_pool___8h.html" target="_top" xlink:title=" ">
<polygon fill="white" stroke="red" points="806.5,-235.5 806.5,-254.5 911.5,-254.5 911.5,-235.5 806.5,-235.5"/>
<text text-anchor="middle" x="859" y="-242.5" font-family="Helvetica,sans-Serif" font-size="10.00">Cpl/Memory/Pool_.h</text>
</a>
</g>
</g>
<!-- Node185&#45;&gt;Node188 -->
<g id="edge47" class="edge"><title>Node185&#45;&gt;Node188</title>
<path fill="none" stroke="midnightblue" d="M978.889,-288.039C949.913,-277.879 909.038,-263.546 883.288,-254.516"/>
<polygon fill="midnightblue" stroke="midnightblue" points="978.003,-291.437 988.598,-291.444 980.32,-284.832 978.003,-291.437"/>
</g>
<!-- Node192 -->
<g id="node38" class="node"><title>Node192</title>
<g id="a_node38"><a xlink:href="_timer_8h.html" target="_top" xlink:title=" ">
<polygon fill="white" stroke="red" points="2686,-174 2686,-193 2790,-193 2790,-174 2686,-174"/>
<text text-anchor="middle" x="2738" y="-181" font-family="Helvetica,sans-Serif" font-size="10.00">Cpl/System/Timer.h</text>
</a>
</g>
</g>
<!-- Node191&#45;&gt;Node192 -->
<g id="edge49" class="edge"><title>Node191&#45;&gt;Node192</title>
<path fill="none" stroke="midnightblue" d="M2736.38,-286.833C2749.58,-279.533 2763.58,-269.047 2771,-255 2782.49,-233.254 2760.96,-206.795 2747.56,-193.316"/>
<polygon fill="midnightblue" stroke="midnightblue" points="2734.78,-283.721 2727.46,-291.382 2737.96,-289.957 2734.78,-283.721"/>
</g>
<!-- Node193 -->
<g id="node39" class="node"><title>Node193</title>
<g id="a_node39"><a xlink:href="_timer_manager_8h.html" target="_top" xlink:title=" ">
<polygon fill="white" stroke="black" points="2621.5,-235.5 2621.5,-254.5 2762.5,-254.5 2762.5,-235.5 2621.5,-235.5"/>
<text text-anchor="middle" x="2692" y="-242.5" font-family="Helvetica,sans-Serif" font-size="10.00">Cpl/System/TimerManager.h</text>
</a>
</g>
</g>
<!-- Node191&#45;&gt;Node193 -->
<g id="edge50" class="edge"><title>Node191&#45;&gt;Node193</title>
<path fill="none" stroke="midnightblue" d="M2700.45,-281.101C2698.29,-272.136 2695.82,-261.858 2694.11,-254.751"/>
<polygon fill="midnightblue" stroke="midnightblue" points="2697.11,-282.18 2702.85,-291.083 2703.92,-280.542 2697.11,-282.18"/>
</g>
<!-- Node193&#45;&gt;Node192 -->
<g id="edge54" class="edge"><title>Node193&#45;&gt;Node192</title>
<path fill="none" stroke="midnightblue" d="M2704.88,-227.338C2713.52,-216.169 2724.53,-201.928 2731.42,-193.009"/>
<polygon fill="midnightblue" stroke="midnightblue" points="2701.94,-225.423 2698.59,-235.475 2707.48,-229.704 2701.94,-225.423"/>
</g>
<!-- Node194 -->
<g id="node40" class="node"><title>Node194</title>
<g id="a_node40"><a xlink:href="_system_2_event_loop_8h.html" target="_top" xlink:title=" ">
<polygon fill="white" stroke="red" points="2002.5,-174 2002.5,-193 2127.5,-193 2127.5,-174 2002.5,-174"/>
<text text-anchor="middle" x="2065" y="-181" font-family="Helvetica,sans-Serif" font-size="10.00">Cpl/System/EventLoop.h</text>
</a>
</g>
</g>
<!-- Node193&#45;&gt;Node194 -->
<g id="edge51" class="edge"><title>Node193&#45;&gt;Node194</title>
<path fill="none" stroke="midnightblue" d="M2611.28,-236.34C2484.77,-224.335 2242.48,-201.342 2127.94,-190.473"/>
<polygon fill="midnightblue" stroke="midnightblue" points="2611.01,-239.83 2621.29,-237.29 2611.67,-232.861 2611.01,-239.83"/>
</g>
<!-- Node194&#45;&gt;Node99 -->
<g id="edge53" class="edge"><title>Node194&#45;&gt;Node99</title>
<path fill="none" stroke="midnightblue" d="M2027.7,-170.881C1990.57,-159.315 1934.48,-141.841 1901.31,-131.509"/>
<polygon fill="midnightblue" stroke="midnightblue" points="2027.05,-174.342 2037.63,-173.975 2029.13,-167.659 2027.05,-174.342"/>
</g>
<!-- Node194&#45;&gt;Node120 -->
<g id="edge52" class="edge"><title>Node194&#45;&gt;Node120</title>
<path fill="none" stroke="midnightblue" d="M1992.42,-174.622C1971.04,-172.384 1947.59,-170.01 1926,-168 1744.61,-151.107 1529.17,-134.437 1430.8,-127.012"/>
<polygon fill="midnightblue" stroke="midnightblue" points="1992.1,-178.107 2002.41,-175.673 1992.83,-171.145 1992.1,-178.107"/>
</g>
<!-- Node162 -->
<g id="node42" class="node"><title>Node162</title>
<g id="a_node42"><a xlink:href="_cpl_2_system_2_private___8h.html" target="_top" xlink:title="This file contains a collection of classes, interfaces, etc.">
<polygon fill="white" stroke="red" points="1474.5,-235.5 1474.5,-254.5 1589.5,-254.5 1589.5,-235.5 1474.5,-235.5"/>
<text text-anchor="middle" x="1532" y="-242.5" font-family="Helvetica,sans-Serif" font-size="10.00">Cpl/System/Private_.h</text>
</a>
</g>
</g>
<!-- Node196&#45;&gt;Node162 -->
<g id="edge56" class="edge"><title>Node196&#45;&gt;Node162</title>
<path fill="none" stroke="midnightblue" d="M1650.33,-288.039C1621.73,-277.879 1581.39,-263.546 1555.97,-254.516"/>
<polygon fill="midnightblue" stroke="midnightblue" points="1649.32,-291.394 1659.92,-291.444 1651.66,-284.798 1649.32,-291.394"/>
</g>
<!-- Node197 -->
<g id="node43" class="node"><title>Node197</title>
<g id="a_node43"><a xlink:href="mutex__t___8h.html" target="_top" xlink:title=" ">
<polygon fill="white" stroke="red" points="1607.5,-235.5 1607.5,-254.5 1764.5,-254.5 1764.5,-235.5 1607.5,-235.5"/>
<text text-anchor="middle" x="1686" y="-242.5" font-family="Helvetica,sans-Serif" font-size="10.00">Cpl/System/RP2040/mutex_t_.h</text>
</a>
</g>
</g>
<!-- Node196&#45;&gt;Node197 -->
<g id="edge57" class="edge"><title>Node196&#45;&gt;Node197</title>
<path fill="none" stroke="midnightblue" d="M1684.71,-280.805C1685.04,-271.91 1685.42,-261.78 1685.68,-254.751"/>
<polygon fill="midnightblue" stroke="midnightblue" points="1681.2,-280.96 1684.33,-291.083 1688.2,-281.219 1681.2,-280.96"/>
</g>
<!-- Node199 -->
<g id="node44" class="node"><title>Node199</title>
<g id="a_node44"><a xlink:href="semaphore__t___8h.html" target="_top" xlink:title=" ">
<polygon fill="white" stroke="red" points="1783,-235.5 1783,-254.5 1961,-254.5 1961,-235.5 1783,-235.5"/>
<text text-anchor="middle" x="1872" y="-242.5" font-family="Helvetica,sans-Serif" font-size="10.00">Cpl/System/RP2040/semaphore_t_.h</text>
</a>
</g>
</g>
<!-- Node196&#45;&gt;Node199 -->
<g id="edge58" class="edge"><title>Node196&#45;&gt;Node199</title>
<path fill="none" stroke="midnightblue" d="M1723.8,-288.568C1759.27,-278.381 1810.37,-263.703 1842.35,-254.516"/>
<polygon fill="midnightblue" stroke="midnightblue" points="1722.43,-285.319 1713.79,-291.444 1724.37,-292.047 1722.43,-285.319"/>
</g>
<!-- Node201&#45;&gt;Node194 -->
<g id="edge62" class="edge"><title>Node201&#45;&gt;Node194</title>
<path fill="none" stroke="midnightblue" d="M2065,-281.164C2065,-255.865 2065,-211.935 2065,-193.282"/>
<polygon fill="midnightblue" stroke="midnightblue" points="2061.5,-281.319 2065,-291.319 2068.5,-281.319 2061.5,-281.319"/>
</g>
<!-- Node202 -->
<g id="node47" class="node"><title>Node202</title>
<g id="a_node47"><a xlink:href="_sync_return_handler_8h.html" target="_top" xlink:title=" ">
<polygon fill="white" stroke="red" points="2239,-235.5 2239,-254.5 2379,-254.5 2379,-235.5 2239,-235.5"/>
<text text-anchor="middle" x="2309" y="-242.5" font-family="Helvetica,sans-Serif" font-size="10.00">Cpl/Itc/SyncReturnHandler.h</text>
</a>
</g>
</g>
<!-- Node201&#45;&gt;Node202 -->
<g id="edge61" class="edge"><title>Node201&#45;&gt;Node202</title>
<path fill="none" stroke="midnightblue" d="M2113.43,-289.281C2159.54,-279.077 2228.03,-263.92 2270.52,-254.516"/>
<polygon fill="midnightblue" stroke="midnightblue" points="2112.67,-285.865 2103.66,-291.444 2114.18,-292.7 2112.67,-285.865"/>
</g>
<!-- Node203 -->
<g id="node48" class="node"><title>Node203</title>
<g id="a_node48"><a xlink:href="_semaphore_8h.html" target="_top" xlink:title=" ">
<polygon fill="white" stroke="red" points="2093,-235.5 2093,-254.5 2221,-254.5 2221,-235.5 2093,-235.5"/>
<text text-anchor="middle" x="2157" y="-242.5" font-family="Helvetica,sans-Serif" font-size="10.00">Cpl/System/Semaphore.h</text>
</a>
</g>
</g>
<!-- Node201&#45;&gt;Node203 -->
<g id="edge63" class="edge"><title>Node201&#45;&gt;Node203</title>
<path fill="none" stroke="midnightblue" d="M2088.55,-286.177C2105.48,-276.241 2127.78,-263.149 2142.26,-254.655"/>
<polygon fill="midnightblue" stroke="midnightblue" points="2086.63,-283.243 2079.78,-291.324 2090.18,-289.28 2086.63,-283.243"/>
</g>
<!-- Node211 -->
<g id="node50" class="node"><title>Node211</title>
<g id="a_node50"><a xlink:href="_thread_8h.html" target="_top" xlink:title=" ">
<polygon fill="white" stroke="red" points="1808.5,-174 1808.5,-193 1917.5,-193 1917.5,-174 1808.5,-174"/>
<text text-anchor="middle" x="1863" y="-181" font-family="Helvetica,sans-Serif" font-size="10.00">Cpl/System/Thread.h</text>
</a>
</g>
</g>
<!-- Node201&#45;&gt;Node211 -->
<g id="edge66" class="edge"><title>Node201&#45;&gt;Node211</title>
<path fill="none" stroke="midnightblue" d="M2052.53,-283.049C2041.08,-268.532 2022.91,-247.975 2003,-235 1971.4,-214.402 1930.3,-200.873 1900.83,-193.05"/>
<polygon fill="midnightblue" stroke="midnightblue" points="2049.9,-285.364 2058.75,-291.185 2055.46,-281.114 2049.9,-285.364"/>
</g>
<!-- Node203&#45;&gt;Node194 -->
<g id="edge64" class="edge"><title>Node203&#45;&gt;Node194</title>
<path fill="none" stroke="midnightblue" d="M2135.24,-229.93C2117.51,-218.459 2093.04,-202.634 2078.16,-193.009"/>
<polygon fill="midnightblue" stroke="midnightblue" points="2133.52,-232.983 2143.82,-235.475 2137.32,-227.106 2133.52,-232.983"/>
</g>
<!-- Node203&#45;&gt;Node209 -->
<g id="edge65" class="edge"><title>Node203&#45;&gt;Node209</title>
<path fill="none" stroke="midnightblue" d="M2187.77,-231.631C2216.52,-220.072 2258.68,-203.12 2283.83,-193.009"/>
<polygon fill="midnightblue" stroke="midnightblue" points="2186.18,-228.498 2178.2,-235.475 2188.79,-234.992 2186.18,-228.498"/>
</g>
<!-- Node211&#45;&gt;Node120 -->
<g id="edge67" class="edge"><title>Node211&#45;&gt;Node120</title>
<path fill="none" stroke="midnightblue" d="M1798.24,-174.572C1701.46,-162.723 1520.87,-140.613 1430.86,-129.594"/>
<polygon fill="midnightblue" stroke="midnightblue" points="1797.84,-178.049 1808.19,-175.79 1798.69,-171.101 1797.84,-178.049"/>
</g>
</g>
</svg>
