<?xml version="1.0" encoding="UTF-8" standalone="no"?>
<!DOCTYPE svg PUBLIC "-//W3C//DTD SVG 1.1//EN"
 "http://www.w3.org/Graphics/SVG/1.1/DTD/svg11.dtd">
<!-- Generated by graphviz version 2.38.0 (20140413.2041)
 -->
<!-- Title: Cpl/Container/Key.h Pages: 1 -->
<svg width="2703pt" height="375pt"
 viewBox="0.00 0.00 2703.00 375.00" xmlns="http://www.w3.org/2000/svg" xmlns:xlink="http://www.w3.org/1999/xlink">
<g id="graph0" class="graph" transform="scale(1 1) rotate(0) translate(4 371)">
<title>Cpl/Container/Key.h</title>
<polygon fill="white" stroke="none" points="-4,4 -4,-371 2699,-371 2699,4 -4,4"/>
<!-- Node1 -->
<g id="node1" class="node"><title>Node1</title>
<g id="a_node1"><a xlink:title=" ">
<polygon fill="#bfbfbf" stroke="black" points="1225,-347.5 1225,-366.5 1329,-366.5 1329,-347.5 1225,-347.5"/>
<text text-anchor="middle" x="1277" y="-354.5" font-family="Helvetica,sans-Serif" font-size="10.00">Cpl/Container/Key.h</text>
</a>
</g>
</g>
<!-- Node2 -->
<g id="node2" class="node"><title>Node2</title>
<g id="a_node2"><a xlink:href="_dict_item_8h.html" target="_top" xlink:title=" ">
<polygon fill="white" stroke="black" points="369.5,-291.5 369.5,-310.5 492.5,-310.5 492.5,-291.5 369.5,-291.5"/>
<text text-anchor="middle" x="431" y="-298.5" font-family="Helvetica,sans-Serif" font-size="10.00">Cpl/Container/DictItem.h</text>
</a>
</g>
</g>
<!-- Node1&#45;&gt;Node2 -->
<g id="edge1" class="edge"><title>Node1&#45;&gt;Node2</title>
<path fill="none" stroke="midnightblue" d="M1214.3,-351.998C1057.29,-341.976 648.693,-315.895 492.73,-305.94"/>
<polygon fill="midnightblue" stroke="midnightblue" points="1214.51,-355.519 1224.72,-352.663 1214.96,-348.533 1214.51,-355.519"/>
</g>
<!-- Node28 -->
<g id="node12" class="node"><title>Node28</title>
<g id="a_node12"><a xlink:href="_string_8h.html" target="_top" xlink:title=" ">
<polygon fill="white" stroke="black" points="1232,-291.5 1232,-310.5 1322,-310.5 1322,-291.5 1232,-291.5"/>
<text text-anchor="middle" x="1277" y="-298.5" font-family="Helvetica,sans-Serif" font-size="10.00">Cpl/Text/String.h</text>
</a>
</g>
</g>
<!-- Node1&#45;&gt;Node28 -->
<g id="edge11" class="edge"><title>Node1&#45;&gt;Node28</title>
<path fill="none" stroke="midnightblue" d="M1270.53,-337.101C1269.9,-328.136 1270.34,-317.858 1271.87,-310.751"/>
<polygon fill="midnightblue" stroke="midnightblue" points="1267.07,-337.622 1271.83,-347.083 1274.01,-336.713 1267.07,-337.622"/>
</g>
<!-- Node3 -->
<g id="node3" class="node"><title>Node3</title>
<g id="a_node3"><a xlink:href="_hash_table___8h.html" target="_top" xlink:title=" ">
<polygon fill="white" stroke="black" points="0,-235.5 0,-254.5 138,-254.5 138,-235.5 0,-235.5"/>
<text text-anchor="middle" x="69" y="-242.5" font-family="Helvetica,sans-Serif" font-size="10.00">Cpl/Container/HashTable_.h</text>
</a>
</g>
</g>
<!-- Node2&#45;&gt;Node3 -->
<g id="edge2" class="edge"><title>Node2&#45;&gt;Node3</title>
<path fill="none" stroke="midnightblue" d="M363.404,-289.917C295.015,-279.715 190.454,-264.117 126.092,-254.516"/>
<polygon fill="midnightblue" stroke="midnightblue" points="363.233,-293.43 373.64,-291.444 364.266,-286.506 363.233,-293.43"/>
</g>
<!-- Node5 -->
<g id="node5" class="node"><title>Node5</title>
<g id="a_node5"><a xlink:href="_map_item_8h.html" target="_top" xlink:title=" ">
<polygon fill="white" stroke="black" points="368.5,-235.5 368.5,-254.5 493.5,-254.5 493.5,-235.5 368.5,-235.5"/>
<text text-anchor="middle" x="431" y="-242.5" font-family="Helvetica,sans-Serif" font-size="10.00">Cpl/Container/MapItem.h</text>
</a>
</g>
</g>
<!-- Node2&#45;&gt;Node5 -->
<g id="edge4" class="edge"><title>Node2&#45;&gt;Node5</title>
<path fill="none" stroke="midnightblue" d="M431,-280.805C431,-271.91 431,-261.78 431,-254.751"/>
<polygon fill="midnightblue" stroke="midnightblue" points="427.5,-281.083 431,-291.083 434.5,-281.083 427.5,-281.083"/>
</g>
<!-- Node4 -->
<g id="node4" class="node"><title>Node4</title>
<g id="a_node4"><a xlink:href="_dictionary_8h.html" target="_top" xlink:title=" ">
<polygon fill="white" stroke="black" points="4,-174 4,-193 134,-193 134,-174 4,-174"/>
<text text-anchor="middle" x="69" y="-181" font-family="Helvetica,sans-Serif" font-size="10.00">Cpl/Container/Dictionary.h</text>
</a>
</g>
</g>
<!-- Node3&#45;&gt;Node4 -->
<g id="edge3" class="edge"><title>Node3&#45;&gt;Node4</title>
<path fill="none" stroke="midnightblue" d="M69,-225.317C69,-214.496 69,-201.398 69,-193.009"/>
<polygon fill="midnightblue" stroke="midnightblue" points="65.5001,-225.475 69,-235.475 72.5001,-225.475 65.5001,-225.475"/>
</g>
<!-- Node6 -->
<g id="node6" class="node"><title>Node6</title>
<g id="a_node6"><a xlink:href="_avl_tree___8h.html" target="_top" xlink:title=" ">
<polygon fill="white" stroke="red" points="232.5,-174 232.5,-193 357.5,-193 357.5,-174 232.5,-174"/>
<text text-anchor="middle" x="295" y="-181" font-family="Helvetica,sans-Serif" font-size="10.00">Cpl/Container/AvlTree_.h</text>
</a>
</g>
</g>
<!-- Node5&#45;&gt;Node6 -->
<g id="edge5" class="edge"><title>Node5&#45;&gt;Node6</title>
<path fill="none" stroke="midnightblue" d="M402.034,-231.327C375.631,-219.776 337.358,-203.032 314.449,-193.009"/>
<polygon fill="midnightblue" stroke="midnightblue" points="400.95,-234.673 411.515,-235.475 403.756,-228.26 400.95,-234.673"/>
</g>
<!-- Node23 -->
<g id="node7" class="node"><title>Node23</title>
<g id="a_node7"><a xlink:href="_command_8h.html" target="_top" xlink:title=" ">
<polygon fill="white" stroke="red" points="504.5,-174 504.5,-193 621.5,-193 621.5,-174 504.5,-174"/>
<text text-anchor="middle" x="563" y="-181" font-family="Helvetica,sans-Serif" font-size="10.00">Cpl/TShell/Command.h</text>
</a>
</g>
</g>
<!-- Node5&#45;&gt;Node23 -->
<g id="edge6" class="edge"><title>Node5&#45;&gt;Node23</title>
<path fill="none" stroke="midnightblue" d="M459.115,-231.327C484.74,-219.776 521.888,-203.032 544.123,-193.009"/>
<polygon fill="midnightblue" stroke="midnightblue" points="457.591,-228.175 449.912,-235.475 460.467,-234.556 457.591,-228.175"/>
</g>
<!-- Node24 -->
<g id="node11" class="node"><title>Node24</title>
<g id="a_node11"><a xlink:href="_string_item_8h.html" target="_top" xlink:title=" ">
<polygon fill="white" stroke="red" points="376,-174 376,-193 486,-193 486,-174 376,-174"/>
<text text-anchor="middle" x="431" y="-181" font-family="Helvetica,sans-Serif" font-size="10.00">Cpl/Text/StringItem.h</text>
</a>
</g>
</g>
<!-- Node5&#45;&gt;Node24 -->
<g id="edge10" class="edge"><title>Node5&#45;&gt;Node24</title>
<path fill="none" stroke="midnightblue" d="M431,-225.317C431,-214.496 431,-201.398 431,-193.009"/>
<polygon fill="midnightblue" stroke="midnightblue" points="427.5,-225.475 431,-235.475 434.5,-225.475 427.5,-225.475"/>
</g>
<!-- Node8 -->
<g id="node8" class="node"><title>Node8</title>
<g id="a_node8"><a xlink:href="_cmd_2_command_8h.html" target="_top" xlink:title=" ">
<polygon fill="white" stroke="red" points="338,-112.5 338,-131.5 478,-131.5 478,-112.5 338,-112.5"/>
<text text-anchor="middle" x="408" y="-119.5" font-family="Helvetica,sans-Serif" font-size="10.00">Cpl/TShell/Cmd/Command.h</text>
</a>
</g>
</g>
<!-- Node23&#45;&gt;Node8 -->
<g id="edge7" class="edge"><title>Node23&#45;&gt;Node8</title>
<path fill="none" stroke="midnightblue" d="M531.173,-170.282C501.052,-158.72 456.621,-141.664 430.167,-131.509"/>
<polygon fill="midnightblue" stroke="midnightblue" points="530.202,-173.659 540.792,-173.975 532.711,-167.124 530.202,-173.659"/>
</g>
<!-- Node9 -->
<g id="node9" class="node"><title>Node9</title>
<g id="a_node9"><a xlink:href="_dm_8h.html" target="_top" xlink:title=" ">
<polygon fill="white" stroke="black" points="520,-56.5 520,-75.5 626,-75.5 626,-56.5 520,-56.5"/>
<text text-anchor="middle" x="573" y="-63.5" font-family="Helvetica,sans-Serif" font-size="10.00">Cpl/Dm/TShell/Dm.h</text>
</a>
</g>
</g>
<!-- Node8&#45;&gt;Node9 -->
<g id="edge8" class="edge"><title>Node8&#45;&gt;Node9</title>
<path fill="none" stroke="midnightblue" d="M443.736,-109.304C474.827,-99.1294 519.147,-84.6246 546.978,-75.5164"/>
<polygon fill="midnightblue" stroke="midnightblue" points="442.56,-106.007 434.145,-112.444 444.737,-112.659 442.56,-106.007"/>
</g>
<!-- Node13 -->
<g id="node10" class="node"><title>Node13</title>
<g id="a_node10"><a xlink:href="_threads_8h.html" target="_top" xlink:title=" ">
<polygon fill="white" stroke="red" points="293.5,-56.5 293.5,-75.5 424.5,-75.5 424.5,-56.5 293.5,-56.5"/>
<text text-anchor="middle" x="359" y="-63.5" font-family="Helvetica,sans-Serif" font-size="10.00">Cpl/TShell/Cmd/Threads.h</text>
</a>
</g>
</g>
<!-- Node8&#45;&gt;Node13 -->
<g id="edge9" class="edge"><title>Node8&#45;&gt;Node13</title>
<path fill="none" stroke="midnightblue" d="M392.966,-104.431C384.378,-94.9673 373.957,-83.4827 366.941,-75.7511"/>
<polygon fill="midnightblue" stroke="midnightblue" points="390.597,-107.029 399.909,-112.083 395.781,-102.325 390.597,-107.029"/>
</g>
<!-- Node28&#45;&gt;Node1 -->
<g id="edge14" class="edge"><title>Node28&#45;&gt;Node1</title>
<path fill="none" stroke="midnightblue" d="M1283.46,-320.691C1284.11,-329.635 1283.68,-339.927 1282.17,-347.083"/>
<polygon fill="midnightblue" stroke="midnightblue" points="1286.92,-320.2 1282.13,-310.751 1279.98,-321.126 1286.92,-320.2"/>
</g>
<!-- Node28&#45;&gt;Node8 -->
<g id="edge57" class="edge"><title>Node28&#45;&gt;Node8</title>
<path fill="none" stroke="midnightblue" d="M1221.8,-299.752C1049.74,-298.593 524.773,-292.034 359,-255 295.205,-240.748 259.373,-253.314 223,-199 191.845,-152.478 273.337,-134.41 337.928,-127.408"/>
<polygon fill="midnightblue" stroke="midnightblue" points="1221.87,-303.253 1231.9,-299.817 1221.92,-296.253 1221.87,-303.253"/>
</g>
<!-- Node28&#45;&gt;Node13 -->
<g id="edge58" class="edge"><title>Node28&#45;&gt;Node13</title>
<path fill="none" stroke="midnightblue" d="M1221.59,-300.204C1021.57,-300.58 344.03,-298.593 258,-255 219.168,-235.323 192.789,-206.557 213,-168 238.685,-119 300.131,-89.0588 334.56,-75.5401"/>
<polygon fill="midnightblue" stroke="midnightblue" points="1221.87,-303.704 1231.86,-300.182 1221.86,-296.704 1221.87,-303.704"/>
</g>
<!-- Node28&#45;&gt;Node24 -->
<g id="edge64" class="edge"><title>Node28&#45;&gt;Node24</title>
<path fill="none" stroke="midnightblue" d="M1221.74,-299.529C1146.81,-297.529 1009.53,-289.014 898,-255 879.368,-249.318 877.687,-240.5 859,-235 703.046,-189.103 655.473,-225.011 495,-199 485.216,-197.414 474.691,-195.231 465.057,-193.041"/>
<polygon fill="midnightblue" stroke="midnightblue" points="1221.81,-303.031 1231.89,-299.77 1221.98,-296.033 1221.81,-303.031"/>
</g>
<!-- Node29 -->
<g id="node13" class="node"><title>Node29</title>
<g id="a_node13"><a xlink:href="_api_md5_8h.html" target="_top" xlink:title=" ">
<polygon fill="white" stroke="black" points="2509.5,-235.5 2509.5,-254.5 2634.5,-254.5 2634.5,-235.5 2509.5,-235.5"/>
<text text-anchor="middle" x="2572" y="-242.5" font-family="Helvetica,sans-Serif" font-size="10.00">Cpl/Checksum/ApiMd5.h</text>
</a>
</g>
</g>
<!-- Node28&#45;&gt;Node29 -->
<g id="edge12" class="edge"><title>Node28&#45;&gt;Node29</title>
<path fill="none" stroke="midnightblue" d="M1332.43,-299.002C1502.99,-295.696 2035.08,-283.65 2475,-255 2486.14,-254.275 2497.98,-253.325 2509.42,-252.315"/>
<polygon fill="midnightblue" stroke="midnightblue" points="1332.13,-295.507 1322.2,-299.198 1332.26,-302.505 1332.13,-295.507"/>
</g>
<!-- Node31 -->
<g id="node15" class="node"><title>Node31</title>
<g id="a_node15"><a xlink:href="_model_database_api_8h.html" target="_top" xlink:title=" ">
<polygon fill="white" stroke="black" points="579,-235.5 579,-254.5 721,-254.5 721,-235.5 579,-235.5"/>
<text text-anchor="middle" x="650" y="-242.5" font-family="Helvetica,sans-Serif" font-size="10.00">Cpl/Dm/ModelDatabaseApi.h</text>
</a>
</g>
</g>
<!-- Node28&#45;&gt;Node31 -->
<g id="edge15" class="edge"><title>Node28&#45;&gt;Node31</title>
<path fill="none" stroke="midnightblue" d="M1221.89,-296.015C1123.19,-288.755 909.757,-272.501 730,-255 727.079,-254.716 724.098,-254.417 721.088,-254.109"/>
<polygon fill="midnightblue" stroke="midnightblue" points="1221.7,-299.51 1231.93,-296.752 1222.22,-292.529 1221.7,-299.51"/>
</g>
<!-- Node38 -->
<g id="node18" class="node"><title>Node38</title>
<g id="a_node18"><a xlink:href="_numeric_8h.html" target="_top" xlink:title=" ">
<polygon fill="white" stroke="black" points="2149.5,-56.5 2149.5,-75.5 2262.5,-75.5 2262.5,-56.5 2149.5,-56.5"/>
<text text-anchor="middle" x="2206" y="-63.5" font-family="Helvetica,sans-Serif" font-size="10.00">Cpl/Dm/Mp/Numeric.h</text>
</a>
</g>
</g>
<!-- Node28&#45;&gt;Node38 -->
<g id="edge34" class="edge"><title>Node28&#45;&gt;Node38</title>
<path fill="none" stroke="midnightblue" d="M1221.74,-293.888C1173.79,-287.313 1109.69,-275.013 1094,-255 1088.52,-248.004 1090.38,-243.12 1094,-235 1103.73,-213.151 1119.64,-218.129 1134,-199 1159.77,-164.66 1140.14,-135.615 1176,-112 1216.85,-85.0976 1939.13,-71.3252 2149.16,-67.8772"/>
<polygon fill="midnightblue" stroke="midnightblue" points="1221.33,-297.365 1231.7,-295.205 1222.24,-290.425 1221.33,-297.365"/>
</g>
<!-- Node52 -->
<g id="node27" class="node"><title>Node52</title>
<g id="a_node27"><a xlink:href="_model_point_8h.html" target="_top" xlink:title=" ">
<polygon fill="white" stroke="black" points="907.5,-235.5 907.5,-254.5 1016.5,-254.5 1016.5,-235.5 907.5,-235.5"/>
<text text-anchor="middle" x="962" y="-242.5" font-family="Helvetica,sans-Serif" font-size="10.00">Cpl/Dm/ModelPoint.h</text>
</a>
</g>
</g>
<!-- Node28&#45;&gt;Node52 -->
<g id="edge28" class="edge"><title>Node28&#45;&gt;Node52</title>
<path fill="none" stroke="midnightblue" d="M1221.92,-290.558C1162.56,-280.382 1068.92,-264.33 1011.73,-254.524"/>
<polygon fill="midnightblue" stroke="midnightblue" points="1221.42,-294.023 1231.87,-292.263 1222.6,-287.124 1221.42,-294.023"/>
</g>
<!-- Node57 -->
<g id="node31" class="node"><title>Node57</title>
<g id="a_node31"><a xlink:href="_input_8h.html" target="_top" xlink:title=" ">
<polygon fill="white" stroke="black" points="1825.5,-235.5 1825.5,-254.5 1900.5,-254.5 1900.5,-235.5 1825.5,-235.5"/>
<text text-anchor="middle" x="1863" y="-242.5" font-family="Helvetica,sans-Serif" font-size="10.00">Cpl/Io/Input.h</text>
</a>
</g>
</g>
<!-- Node28&#45;&gt;Node57 -->
<g id="edge35" class="edge"><title>Node28&#45;&gt;Node57</title>
<path fill="none" stroke="midnightblue" d="M1332.21,-296.872C1429.16,-291.037 1636.23,-277.05 1810,-255 1815,-254.366 1820.25,-253.598 1825.42,-252.783"/>
<polygon fill="midnightblue" stroke="midnightblue" points="1331.83,-293.388 1322.06,-297.477 1332.25,-300.376 1331.83,-293.388"/>
</g>
<!-- Node84 -->
<g id="node40" class="node"><title>Node84</title>
<g id="a_node40"><a xlink:href="_line_reader_api_8h.html" target="_top" xlink:title=" ">
<polygon fill="white" stroke="black" points="2078,-235.5 2078,-254.5 2194,-254.5 2194,-235.5 2078,-235.5"/>
<text text-anchor="middle" x="2136" y="-242.5" font-family="Helvetica,sans-Serif" font-size="10.00">Cpl/Io/LineReaderApi.h</text>
</a>
</g>
</g>
<!-- Node28&#45;&gt;Node84 -->
<g id="edge44" class="edge"><title>Node28&#45;&gt;Node84</title>
<path fill="none" stroke="midnightblue" d="M1332.47,-296.513C1486.81,-286.811 1920.29,-259.56 2077.84,-249.656"/>
<polygon fill="midnightblue" stroke="midnightblue" points="1332.04,-293.033 1322.28,-297.154 1332.48,-300.019 1332.04,-293.033"/>
</g>
<!-- Node85 -->
<g id="node41" class="node"><title>Node85</title>
<g id="a_node41"><a xlink:href="_line_writer_api_8h.html" target="_top" xlink:title=" ">
<polygon fill="white" stroke="red" points="739.5,-235.5 739.5,-254.5 850.5,-254.5 850.5,-235.5 739.5,-235.5"/>
<text text-anchor="middle" x="795" y="-242.5" font-family="Helvetica,sans-Serif" font-size="10.00">Cpl/Io/LineWriterApi.h</text>
</a>
</g>
</g>
<!-- Node28&#45;&gt;Node85 -->
<g id="edge46" class="edge"><title>Node28&#45;&gt;Node85</title>
<path fill="none" stroke="midnightblue" d="M1221.63,-294.292C1142.5,-286.056 992.528,-270.161 865,-255 860.376,-254.45 855.583,-253.866 850.772,-253.268"/>
<polygon fill="midnightblue" stroke="midnightblue" points="1221.55,-297.801 1231.85,-295.354 1222.27,-290.839 1221.55,-297.801"/>
</g>
<!-- Node87 -->
<g id="node42" class="node"><title>Node87</title>
<g id="a_node42"><a xlink:href="_output_8h.html" target="_top" xlink:title=" ">
<polygon fill="white" stroke="red" points="1718.5,-235.5 1718.5,-254.5 1801.5,-254.5 1801.5,-235.5 1718.5,-235.5"/>
<text text-anchor="middle" x="1760" y="-242.5" font-family="Helvetica,sans-Serif" font-size="10.00">Cpl/Io/Output.h</text>
</a>
</g>
</g>
<!-- Node28&#45;&gt;Node87 -->
<g id="edge47" class="edge"><title>Node28&#45;&gt;Node87</title>
<path fill="none" stroke="midnightblue" d="M1332.35,-295.499C1414.68,-288.518 1574.19,-273.892 1709,-255 1712.03,-254.576 1715.15,-254.105 1718.29,-253.609"/>
<polygon fill="midnightblue" stroke="midnightblue" points="1331.89,-292.025 1322.22,-296.352 1332.48,-299 1331.89,-292.025"/>
</g>
<!-- Node97 -->
<g id="node43" class="node"><title>Node97</title>
<g id="a_node43"><a xlink:href="_system_2_trace_8h.html" target="_top" xlink:title=" ">
<polygon fill="white" stroke="black" points="1220,-174 1220,-193 1324,-193 1324,-174 1220,-174"/>
<text text-anchor="middle" x="1272" y="-181" font-family="Helvetica,sans-Serif" font-size="10.00">Cpl/System/Trace.h</text>
</a>
</g>
</g>
<!-- Node28&#45;&gt;Node97 -->
<g id="edge56" class="edge"><title>Node28&#45;&gt;Node97</title>
<path fill="none" stroke="midnightblue" d="M1221.89,-293.209C1176.29,-286.324 1116.7,-273.957 1102,-255 1096.55,-247.975 1096.68,-242.124 1102,-235 1110.1,-224.142 1187.41,-204.345 1234.94,-193.032"/>
<polygon fill="midnightblue" stroke="midnightblue" points="1221.57,-296.7 1231.97,-294.678 1222.58,-289.773 1221.57,-296.7"/>
</g>
<!-- Node98 -->
<g id="node44" class="node"><title>Node98</title>
<g id="a_node44"><a xlink:href="_system_2_private___8h.html" target="_top" xlink:title="This file contains a collection of classes, interfaces, etc.">
<polygon fill="white" stroke="red" points="1290.5,-112.5 1290.5,-131.5 1405.5,-131.5 1405.5,-112.5 1290.5,-112.5"/>
<text text-anchor="middle" x="1348" y="-119.5" font-family="Helvetica,sans-Serif" font-size="10.00">Cpl/System/Private_.h</text>
</a>
</g>
</g>
<!-- Node28&#45;&gt;Node98 -->
<g id="edge55" class="edge"><title>Node28&#45;&gt;Node98</title>
<path fill="none" stroke="midnightblue" d="M1332.3,-299.555C1407.4,-297.641 1535.65,-289.288 1565,-255 1570.78,-248.247 1570.68,-241.835 1565,-235 1508.93,-167.571 1436.34,-257.494 1371,-199 1351.28,-181.345 1348.2,-147.423 1347.9,-131.565"/>
<polygon fill="midnightblue" stroke="midnightblue" points="1332,-296.061 1322.08,-299.784 1332.15,-303.059 1332,-296.061"/>
</g>
<!-- Node100 -->
<g id="node45" class="node"><title>Node100</title>
<g id="a_node45"><a xlink:href="_f_string_8h.html" target="_top" xlink:title=" ">
<polygon fill="white" stroke="red" points="2370,-235.5 2370,-254.5 2466,-254.5 2466,-235.5 2370,-235.5"/>
<text text-anchor="middle" x="2418" y="-242.5" font-family="Helvetica,sans-Serif" font-size="10.00">Cpl/Text/FString.h</text>
</a>
</g>
</g>
<!-- Node28&#45;&gt;Node100 -->
<g id="edge59" class="edge"><title>Node28&#45;&gt;Node100</title>
<path fill="none" stroke="midnightblue" d="M1332.12,-297.391C1527.62,-288.139 2185.88,-256.986 2369.87,-248.278"/>
<polygon fill="midnightblue" stroke="midnightblue" points="1331.9,-293.898 1322.08,-297.867 1332.23,-300.89 1331.9,-293.898"/>
</g>
<!-- Node108 -->
<g id="node46" class="node"><title>Node108</title>
<g id="a_node46"><a xlink:href="_string_decoder_8h.html" target="_top" xlink:title=" ">
<polygon fill="white" stroke="black" points="1111.5,-235.5 1111.5,-254.5 1268.5,-254.5 1268.5,-235.5 1111.5,-235.5"/>
<text text-anchor="middle" x="1190" y="-242.5" font-family="Helvetica,sans-Serif" font-size="10.00">Cpl/Text/Frame/StringDecoder.h</text>
</a>
</g>
</g>
<!-- Node28&#45;&gt;Node108 -->
<g id="edge62" class="edge"><title>Node28&#45;&gt;Node108</title>
<path fill="none" stroke="midnightblue" d="M1254.28,-285.901C1238.33,-275.999 1217.5,-263.071 1203.94,-254.655"/>
<polygon fill="midnightblue" stroke="midnightblue" points="1252.68,-289.024 1263.02,-291.324 1256.37,-283.077 1252.68,-289.024"/>
</g>
<!-- Node109 -->
<g id="node47" class="node"><title>Node109</title>
<g id="a_node47"><a xlink:href="_string_encoder_8h.html" target="_top" xlink:title=" ">
<polygon fill="white" stroke="black" points="1286.5,-235.5 1286.5,-254.5 1443.5,-254.5 1443.5,-235.5 1286.5,-235.5"/>
<text text-anchor="middle" x="1365" y="-242.5" font-family="Helvetica,sans-Serif" font-size="10.00">Cpl/Text/Frame/StringEncoder.h</text>
</a>
</g>
</g>
<!-- Node28&#45;&gt;Node109 -->
<g id="edge63" class="edge"><title>Node28&#45;&gt;Node109</title>
<path fill="none" stroke="midnightblue" d="M1299.98,-285.901C1316.11,-275.999 1337.18,-263.071 1350.9,-254.655"/>
<polygon fill="midnightblue" stroke="midnightblue" points="1297.83,-283.111 1291.14,-291.324 1301.49,-289.077 1297.83,-283.111"/>
</g>
<!-- Node110 -->
<g id="node48" class="node"><title>Node110</title>
<g id="a_node48"><a xlink:href="_text_2_string___8h.html" target="_top" xlink:title=" ">
<polygon fill="white" stroke="red" points="1461.5,-235.5 1461.5,-254.5 1556.5,-254.5 1556.5,-235.5 1461.5,-235.5"/>
<text text-anchor="middle" x="1509" y="-242.5" font-family="Helvetica,sans-Serif" font-size="10.00">Cpl/Text/String_.h</text>
</a>
</g>
</g>
<!-- Node28&#45;&gt;Node110 -->
<g id="edge65" class="edge"><title>Node28&#45;&gt;Node110</title>
<path fill="none" stroke="midnightblue" d="M1323.6,-289.153C1367.44,-278.95 1432.18,-263.881 1472.41,-254.516"/>
<polygon fill="midnightblue" stroke="midnightblue" points="1322.71,-285.768 1313.76,-291.444 1324.29,-292.585 1322.71,-285.768"/>
</g>
<!-- Node114 -->
<g id="node49" class="node"><title>Node114</title>
<g id="a_node49"><a xlink:href="format_8h.html" target="_top" xlink:title="This file contains some general purpose string formatting functions.">
<polygon fill="white" stroke="black" points="2588,-112.5 2588,-131.5 2680,-131.5 2680,-112.5 2588,-112.5"/>
<text text-anchor="middle" x="2634" y="-119.5" font-family="Helvetica,sans-Serif" font-size="10.00">Cpl/Text/format.h</text>
</a>
</g>
</g>
<!-- Node28&#45;&gt;Node114 -->
<g id="edge66" class="edge"><title>Node28&#45;&gt;Node114</title>
<path fill="none" stroke="midnightblue" d="M1332.48,-299.625C1581.37,-297.756 2585.39,-288.183 2643,-255 2679.12,-234.198 2693.73,-206.595 2678,-168 2671.73,-152.621 2657.39,-139.64 2646.78,-131.631"/>
<polygon fill="midnightblue" stroke="midnightblue" points="1332.2,-296.127 1322.23,-299.7 1332.25,-303.126 1332.2,-296.127"/>
</g>
<!-- Node115 -->
<g id="node50" class="node"><title>Node115</title>
<g id="a_node50"><a xlink:href="_guid_8h.html" target="_top" xlink:title=" ">
<polygon fill="white" stroke="black" points="1613.5,-235.5 1613.5,-254.5 1700.5,-254.5 1700.5,-235.5 1613.5,-235.5"/>
<text text-anchor="middle" x="1657" y="-242.5" font-family="Helvetica,sans-Serif" font-size="10.00">Cpl/Type/Guid.h</text>
</a>
</g>
</g>
<!-- Node28&#45;&gt;Node115 -->
<g id="edge69" class="edge"><title>Node28&#45;&gt;Node115</title>
<path fill="none" stroke="midnightblue" d="M1332.39,-292.518C1396.57,-283.788 1505.5,-268.786 1599,-255 1603.64,-254.316 1608.48,-253.588 1613.31,-252.852"/>
<polygon fill="midnightblue" stroke="midnightblue" points="1331.53,-289.102 1322.09,-293.917 1332.47,-296.039 1331.53,-289.102"/>
</g>
<!-- Node30 -->
<g id="node14" class="node"><title>Node30</title>
<g id="a_node14"><a xlink:href="_md5_aladdin_8h.html" target="_top" xlink:title=" ">
<polygon fill="white" stroke="black" points="2525.5,-174 2525.5,-193 2668.5,-193 2668.5,-174 2525.5,-174"/>
<text text-anchor="middle" x="2597" y="-181" font-family="Helvetica,sans-Serif" font-size="10.00">Cpl/Checksum/Md5Aladdin.h</text>
</a>
</g>
</g>
<!-- Node29&#45;&gt;Node30 -->
<g id="edge13" class="edge"><title>Node29&#45;&gt;Node30</title>
<path fill="none" stroke="midnightblue" d="M2579.56,-225.997C2584.16,-215.05 2589.83,-201.575 2593.42,-193.009"/>
<polygon fill="midnightblue" stroke="midnightblue" points="2576.23,-224.9 2575.58,-235.475 2582.68,-227.612 2576.23,-224.9"/>
</g>
<!-- Node31&#45;&gt;Node9 -->
<g id="edge27" class="edge"><title>Node31&#45;&gt;Node9</title>
<path fill="none" stroke="midnightblue" d="M646.49,-225.351C643.216,-209.696 637.68,-186.922 630,-168 615.31,-131.807 590.151,-92.4667 578.826,-75.5342"/>
<polygon fill="midnightblue" stroke="midnightblue" points="643.092,-226.208 648.472,-235.335 649.958,-224.845 643.092,-226.208"/>
</g>
<!-- Node32 -->
<g id="node16" class="node"><title>Node32</title>
<g id="a_node16"><a xlink:href="_model_database_8h.html" target="_top" xlink:title=" ">
<polygon fill="white" stroke="black" points="678,-174 678,-193 806,-193 806,-174 678,-174"/>
<text text-anchor="middle" x="742" y="-181" font-family="Helvetica,sans-Serif" font-size="10.00">Cpl/Dm/ModelDatabase.h</text>
</a>
</g>
</g>
<!-- Node31&#45;&gt;Node32 -->
<g id="edge16" class="edge"><title>Node31&#45;&gt;Node32</title>
<path fill="none" stroke="midnightblue" d="M671.756,-229.93C689.492,-218.459 713.96,-202.634 728.843,-193.009"/>
<polygon fill="midnightblue" stroke="midnightblue" points="669.678,-227.106 663.181,-235.475 673.479,-232.983 669.678,-227.106"/>
</g>
<!-- Node33 -->
<g id="node17" class="node"><title>Node33</title>
<g id="a_node17"><a xlink:href="_model_point_common___8h.html" target="_top" xlink:title=" ">
<polygon fill="white" stroke="red" points="942.5,-112.5 942.5,-131.5 1095.5,-131.5 1095.5,-112.5 942.5,-112.5"/>
<text text-anchor="middle" x="1019" y="-119.5" font-family="Helvetica,sans-Serif" font-size="10.00">Cpl/Dm/ModelPointCommon_.h</text>
</a>
</g>
</g>
<!-- Node32&#45;&gt;Node33 -->
<g id="edge17" class="edge"><title>Node32&#45;&gt;Node33</title>
<path fill="none" stroke="midnightblue" d="M791.672,-171.83C845.391,-160.292 929.952,-142.128 979.386,-131.509"/>
<polygon fill="midnightblue" stroke="midnightblue" points="790.729,-168.453 781.687,-173.975 792.199,-175.297 790.729,-168.453"/>
</g>
<!-- Node33&#45;&gt;Node38 -->
<g id="edge18" class="edge"><title>Node33&#45;&gt;Node38</title>
<path fill="none" stroke="midnightblue" d="M1105.83,-114.204C1117.32,-113.404 1128.94,-112.645 1140,-112 1525.56,-89.5288 1990.19,-73.8111 2149.34,-68.7519"/>
<polygon fill="midnightblue" stroke="midnightblue" points="1105.51,-110.718 1095.79,-114.916 1106.01,-117.7 1105.51,-110.718"/>
</g>
<!-- Node39 -->
<g id="node19" class="node"><title>Node39</title>
<g id="a_node19"><a xlink:href="_bit_array16_8h.html" target="_top" xlink:title=" ">
<polygon fill="white" stroke="black" points="2573,-0.5 2573,-19.5 2695,-19.5 2695,-0.5 2573,-0.5"/>
<text text-anchor="middle" x="2634" y="-7.5" font-family="Helvetica,sans-Serif" font-size="10.00">Cpl/Dm/Mp/BitArray16.h</text>
</a>
</g>
</g>
<!-- Node38&#45;&gt;Node39 -->
<g id="edge19" class="edge"><title>Node38&#45;&gt;Node39</title>
<path fill="none" stroke="midnightblue" d="M2273.01,-56.6338C2344.95,-47.6401 2462.57,-32.8952 2564,-20 2566.92,-19.6291 2569.9,-19.2487 2572.92,-18.8637"/>
<polygon fill="midnightblue" stroke="midnightblue" points="2272.23,-53.2047 2262.74,-57.9182 2273.1,-60.1507 2272.23,-53.2047"/>
</g>
<!-- Node40 -->
<g id="node20" class="node"><title>Node40</title>
<g id="a_node20"><a xlink:href="_double_8h.html" target="_top" xlink:title=" ">
<polygon fill="white" stroke="black" points="2331.5,-0.5 2331.5,-19.5 2438.5,-19.5 2438.5,-0.5 2331.5,-0.5"/>
<text text-anchor="middle" x="2385" y="-7.5" font-family="Helvetica,sans-Serif" font-size="10.00">Cpl/Dm/Mp/Double.h</text>
</a>
</g>
</g>
<!-- Node38&#45;&gt;Node40 -->
<g id="edge20" class="edge"><title>Node38&#45;&gt;Node40</title>
<path fill="none" stroke="midnightblue" d="M2244.33,-53.4363C2278.08,-43.2551 2326.45,-28.664 2356.77,-19.5164"/>
<polygon fill="midnightblue" stroke="midnightblue" points="2242.93,-50.2044 2234.36,-56.4435 2244.95,-56.9061 2242.93,-50.2044"/>
</g>
<!-- Node41 -->
<g id="node21" class="node"><title>Node41</title>
<g id="a_node21"><a xlink:href="_float_8h.html" target="_top" xlink:title=" ">
<polygon fill="white" stroke="black" points="2457,-0.5 2457,-19.5 2555,-19.5 2555,-0.5 2457,-0.5"/>
<text text-anchor="middle" x="2506" y="-7.5" font-family="Helvetica,sans-Serif" font-size="10.00">Cpl/Dm/Mp/Float.h</text>
</a>
</g>
</g>
<!-- Node38&#45;&gt;Node41 -->
<g id="edge21" class="edge"><title>Node38&#45;&gt;Node41</title>
<path fill="none" stroke="midnightblue" d="M2263.42,-54.6642C2320.12,-44.4592 2405.79,-29.0386 2458.69,-19.5164"/>
<polygon fill="midnightblue" stroke="midnightblue" points="2262.76,-51.2273 2253.54,-56.4435 2264,-58.1166 2262.76,-51.2273"/>
</g>
<!-- Node42 -->
<g id="node22" class="node"><title>Node42</title>
<g id="a_node22"><a xlink:href="_int32_8h.html" target="_top" xlink:title=" ">
<polygon fill="white" stroke="black" points="1741,-0.5 1741,-19.5 1839,-19.5 1839,-0.5 1741,-0.5"/>
<text text-anchor="middle" x="1790" y="-7.5" font-family="Helvetica,sans-Serif" font-size="10.00">Cpl/Dm/Mp/Int32.h</text>
</a>
</g>
</g>
<!-- Node38&#45;&gt;Node42 -->
<g id="edge22" class="edge"><title>Node38&#45;&gt;Node42</title>
<path fill="none" stroke="midnightblue" d="M2138.92,-57.1544C2066.92,-48.5977 1949.25,-34.2164 1848,-20 1845.07,-19.5891 1842.07,-19.1558 1839.03,-18.7105"/>
<polygon fill="midnightblue" stroke="midnightblue" points="2138.86,-60.6718 2149.2,-58.3739 2139.68,-53.7205 2138.86,-60.6718"/>
</g>
<!-- Node43 -->
<g id="node23" class="node"><title>Node43</title>
<g id="a_node23"><a xlink:href="_int64_8h.html" target="_top" xlink:title=" ">
<polygon fill="white" stroke="black" points="1857,-0.5 1857,-19.5 1955,-19.5 1955,-0.5 1857,-0.5"/>
<text text-anchor="middle" x="1906" y="-7.5" font-family="Helvetica,sans-Serif" font-size="10.00">Cpl/Dm/Mp/Int64.h</text>
</a>
</g>
</g>
<!-- Node38&#45;&gt;Node43 -->
<g id="edge23" class="edge"><title>Node38&#45;&gt;Node43</title>
<path fill="none" stroke="midnightblue" d="M2148.58,-54.6642C2091.88,-44.4592 2006.21,-29.0386 1953.31,-19.5164"/>
<polygon fill="midnightblue" stroke="midnightblue" points="2148,-58.1166 2158.46,-56.4435 2149.24,-51.2273 2148,-58.1166"/>
</g>
<!-- Node44 -->
<g id="node24" class="node"><title>Node44</title>
<g id="a_node24"><a xlink:href="_uint32_8h.html" target="_top" xlink:title=" ">
<polygon fill="white" stroke="red" points="1973,-0.5 1973,-19.5 2077,-19.5 2077,-0.5 1973,-0.5"/>
<text text-anchor="middle" x="2025" y="-7.5" font-family="Helvetica,sans-Serif" font-size="10.00">Cpl/Dm/Mp/Uint32.h</text>
</a>
</g>
</g>
<!-- Node38&#45;&gt;Node44 -->
<g id="edge24" class="edge"><title>Node38&#45;&gt;Node44</title>
<path fill="none" stroke="midnightblue" d="M2167.68,-53.5677C2133.54,-43.381 2084.34,-28.7034 2053.55,-19.5164"/>
<polygon fill="midnightblue" stroke="midnightblue" points="2166.74,-56.9385 2177.32,-56.4435 2168.74,-50.2306 2166.74,-56.9385"/>
</g>
<!-- Node47 -->
<g id="node25" class="node"><title>Node47</title>
<g id="a_node25"><a xlink:href="_uint64_8h.html" target="_top" xlink:title=" ">
<polygon fill="white" stroke="red" points="2095,-0.5 2095,-19.5 2199,-19.5 2199,-0.5 2095,-0.5"/>
<text text-anchor="middle" x="2147" y="-7.5" font-family="Helvetica,sans-Serif" font-size="10.00">Cpl/Dm/Mp/Uint64.h</text>
</a>
</g>
</g>
<!-- Node38&#45;&gt;Node47 -->
<g id="edge25" class="edge"><title>Node38&#45;&gt;Node47</title>
<path fill="none" stroke="midnightblue" d="M2189.11,-49.5372C2178.59,-39.9087 2165.43,-27.8694 2156.65,-19.8339"/>
<polygon fill="midnightblue" stroke="midnightblue" points="2186.78,-52.1542 2196.52,-56.324 2191.51,-46.9905 2186.78,-52.1542"/>
</g>
<!-- Node49 -->
<g id="node26" class="node"><title>Node49</title>
<g id="a_node26"><a xlink:href="_void_8h.html" target="_top" xlink:title=" ">
<polygon fill="white" stroke="black" points="2217,-0.5 2217,-19.5 2313,-19.5 2313,-0.5 2217,-0.5"/>
<text text-anchor="middle" x="2265" y="-7.5" font-family="Helvetica,sans-Serif" font-size="10.00">Cpl/Dm/Mp/Void.h</text>
</a>
</g>
</g>
<!-- Node38&#45;&gt;Node49 -->
<g id="edge26" class="edge"><title>Node38&#45;&gt;Node49</title>
<path fill="none" stroke="midnightblue" d="M2222.89,-49.5372C2233.41,-39.9087 2246.57,-27.8694 2255.35,-19.8339"/>
<polygon fill="midnightblue" stroke="midnightblue" points="2220.49,-46.9905 2215.48,-56.324 2225.22,-52.1542 2220.49,-46.9905"/>
</g>
<!-- Node52&#45;&gt;Node33 -->
<g id="edge30" class="edge"><title>Node52&#45;&gt;Node33</title>
<path fill="none" stroke="midnightblue" d="M970.455,-226.052C982.904,-199.625 1005.69,-151.256 1014.94,-131.623"/>
<polygon fill="midnightblue" stroke="midnightblue" points="967.195,-224.76 966.099,-235.298 973.527,-227.743 967.195,-224.76"/>
</g>
<!-- Node53 -->
<g id="node28" class="node"><title>Node53</title>
<g id="a_node28"><a xlink:href="helpers_8h.html" target="_top" xlink:title="This file defines helper functions/interface for writing unit tests.">
<polygon fill="white" stroke="black" points="1185.5,-112.5 1185.5,-131.5 1270.5,-131.5 1270.5,-112.5 1185.5,-112.5"/>
<text text-anchor="middle" x="1228" y="-119.5" font-family="Helvetica,sans-Serif" font-size="10.00">Catch/helpers.h</text>
</a>
</g>
</g>
<!-- Node52&#45;&gt;Node53 -->
<g id="edge29" class="edge"><title>Node52&#45;&gt;Node53</title>
<path fill="none" stroke="midnightblue" d="M1026.88,-233.784C1060.13,-226.898 1100.55,-215.905 1134,-199 1169.78,-180.922 1204.49,-147.514 1219.82,-131.714"/>
<polygon fill="midnightblue" stroke="midnightblue" points="1025.93,-230.404 1016.81,-235.791 1027.3,-237.269 1025.93,-230.404"/>
</g>
<!-- Node54 -->
<g id="node29" class="node"><title>Node54</title>
<g id="a_node29"><a xlink:href="_dm_2_persistent_2_record_8h.html" target="_top" xlink:title=" ">
<polygon fill="white" stroke="black" points="824,-174 824,-193 962,-193 962,-174 824,-174"/>
<text text-anchor="middle" x="893" y="-181" font-family="Helvetica,sans-Serif" font-size="10.00">Cpl/Dm/Persistent/Record.h</text>
</a>
</g>
</g>
<!-- Node52&#45;&gt;Node54 -->
<g id="edge31" class="edge"><title>Node52&#45;&gt;Node54</title>
<path fill="none" stroke="midnightblue" d="M944.199,-228.65C931.044,-217.306 913.62,-202.281 902.868,-193.009"/>
<polygon fill="midnightblue" stroke="midnightblue" points="942.255,-231.595 952.114,-235.475 946.826,-226.294 942.255,-231.595"/>
</g>
<!-- Node55 -->
<g id="node30" class="node"><title>Node55</title>
<g id="a_node30"><a xlink:href="_subscriber_8h.html" target="_top" xlink:title=" ">
<polygon fill="white" stroke="red" points="1018.5,-174 1018.5,-193 1125.5,-193 1125.5,-174 1018.5,-174"/>
<text text-anchor="middle" x="1072" y="-181" font-family="Helvetica,sans-Serif" font-size="10.00">Cpl/Dm/Subscriber.h</text>
</a>
</g>
</g>
<!-- Node52&#45;&gt;Node55 -->
<g id="edge32" class="edge"><title>Node52&#45;&gt;Node55</title>
<path fill="none" stroke="midnightblue" d="M986.566,-230.712C1007.87,-219.188 1038.07,-202.855 1056.27,-193.009"/>
<polygon fill="midnightblue" stroke="midnightblue" points="984.891,-227.639 977.76,-235.475 988.221,-233.796 984.891,-227.639"/>
</g>
<!-- Node55&#45;&gt;Node33 -->
<g id="edge33" class="edge"><title>Node55&#45;&gt;Node33</title>
<path fill="none" stroke="midnightblue" d="M1057.75,-166.497C1047.71,-155.236 1034.68,-140.604 1026.58,-131.509"/>
<polygon fill="midnightblue" stroke="midnightblue" points="1055.14,-168.836 1064.41,-173.975 1060.37,-164.18 1055.14,-168.836"/>
</g>
<!-- Node58 -->
<g id="node32" class="node"><title>Node58</title>
<g id="a_node32"><a xlink:href="_input_api_8h.html" target="_top" xlink:title=" ">
<polygon fill="white" stroke="red" points="1809,-174 1809,-193 1917,-193 1917,-174 1809,-174"/>
<text text-anchor="middle" x="1863" y="-181" font-family="Helvetica,sans-Serif" font-size="10.00">Cpl/Io/File/InputApi.h</text>
</a>
</g>
</g>
<!-- Node57&#45;&gt;Node58 -->
<g id="edge36" class="edge"><title>Node57&#45;&gt;Node58</title>
<path fill="none" stroke="midnightblue" d="M1863,-225.317C1863,-214.496 1863,-201.398 1863,-193.009"/>
<polygon fill="midnightblue" stroke="midnightblue" points="1859.5,-225.475 1863,-235.475 1866.5,-225.475 1859.5,-225.475"/>
</g>
<!-- Node63 -->
<g id="node33" class="node"><title>Node63</title>
<g id="a_node33"><a xlink:href="_input_output_8h.html" target="_top" xlink:title=" ">
<polygon fill="white" stroke="red" points="1687,-174 1687,-193 1791,-193 1791,-174 1687,-174"/>
<text text-anchor="middle" x="1739" y="-181" font-family="Helvetica,sans-Serif" font-size="10.00">Cpl/Io/InputOutput.h</text>
</a>
</g>
</g>
<!-- Node57&#45;&gt;Node63 -->
<g id="edge37" class="edge"><title>Node57&#45;&gt;Node63</title>
<path fill="none" stroke="midnightblue" d="M1835.95,-231.021C1811.9,-219.482 1777.44,-202.943 1756.73,-193.009"/>
<polygon fill="midnightblue" stroke="midnightblue" points="1834.7,-234.304 1845.23,-235.475 1837.73,-227.993 1834.7,-234.304"/>
</g>
<!-- Node74 -->
<g id="node34" class="node"><title>Node74</title>
<g id="a_node34"><a xlink:href="_line_reader_8h.html" target="_top" xlink:title=" ">
<polygon fill="white" stroke="black" points="2367,-174 2367,-193 2469,-193 2469,-174 2367,-174"/>
<text text-anchor="middle" x="2418" y="-181" font-family="Helvetica,sans-Serif" font-size="10.00">Cpl/Io/LineReader.h</text>
</a>
</g>
</g>
<!-- Node57&#45;&gt;Node74 -->
<g id="edge38" class="edge"><title>Node57&#45;&gt;Node74</title>
<path fill="none" stroke="midnightblue" d="M1910.72,-241.917C1999.21,-237.554 2194.52,-225.573 2357,-199 2366.45,-197.454 2376.62,-195.257 2385.88,-193.04"/>
<polygon fill="midnightblue" stroke="midnightblue" points="1910.54,-238.421 1900.72,-242.4 1910.88,-245.413 1910.54,-238.421"/>
</g>
<!-- Node75 -->
<g id="node35" class="node"><title>Node75</title>
<g id="a_node35"><a xlink:href="_serial_2_r_p2040_2_stdio_2_input_8h.html" target="_top" xlink:title=" ">
<polygon fill="white" stroke="black" points="1935.5,-168.5 1935.5,-198.5 2042.5,-198.5 2042.5,-168.5 1935.5,-168.5"/>
<text text-anchor="start" x="1943.5" y="-186.5" font-family="Helvetica,sans-Serif" font-size="10.00">Cpl/Io/Serial/RP2040</text>
<text text-anchor="middle" x="1989" y="-175.5" font-family="Helvetica,sans-Serif" font-size="10.00">/Stdio/Input.h</text>
</a>
</g>
</g>
<!-- Node57&#45;&gt;Node75 -->
<g id="edge39" class="edge"><title>Node57&#45;&gt;Node75</title>
<path fill="none" stroke="midnightblue" d="M1890.11,-231.2C1910.47,-221.585 1938.34,-208.423 1959.3,-198.523"/>
<polygon fill="midnightblue" stroke="midnightblue" points="1888.6,-228.04 1881.05,-235.475 1891.59,-234.37 1888.6,-228.04"/>
</g>
<!-- Node76 -->
<g id="node36" class="node"><title>Node76</title>
<g id="a_node36"><a xlink:href="_input___8h.html" target="_top" xlink:title=" ">
<polygon fill="white" stroke="red" points="2061,-174 2061,-193 2167,-193 2167,-174 2061,-174"/>
<text text-anchor="middle" x="2114" y="-181" font-family="Helvetica,sans-Serif" font-size="10.00">Cpl/Io/Stdio/Input_.h</text>
</a>
</g>
</g>
<!-- Node57&#45;&gt;Node76 -->
<g id="edge40" class="edge"><title>Node57&#45;&gt;Node76</title>
<path fill="none" stroke="midnightblue" d="M1908.92,-233.114C1957.64,-221.565 2033.59,-203.561 2078.1,-193.009"/>
<polygon fill="midnightblue" stroke="midnightblue" points="1907.89,-229.763 1898.96,-235.475 1909.5,-236.574 1907.89,-229.763"/>
</g>
<!-- Node78 -->
<g id="node37" class="node"><title>Node78</title>
<g id="a_node37"><a xlink:href="_system_2_r_p2040_2_stdio_8h.html" target="_top" xlink:title="This interface returns the Cpl Io Stream for the for SDK&#39;s stdio.">
<polygon fill="white" stroke="black" points="1380.5,-174 1380.5,-193 1519.5,-193 1519.5,-174 1380.5,-174"/>
<text text-anchor="middle" x="1450" y="-181" font-family="Helvetica,sans-Serif" font-size="10.00">Cpl/System/RP2040/Stdio.h</text>
</a>
</g>
</g>
<!-- Node57&#45;&gt;Node78 -->
<g id="edge41" class="edge"><title>Node57&#45;&gt;Node78</title>
<path fill="none" stroke="midnightblue" d="M1815.22,-235.793C1813.46,-235.52 1811.71,-235.255 1810,-235 1685.02,-216.42 1652.83,-218.554 1528,-199 1516.84,-197.252 1504.83,-195.136 1493.65,-193.067"/>
<polygon fill="midnightblue" stroke="midnightblue" points="1814.96,-239.296 1825.39,-237.417 1816.07,-232.384 1814.96,-239.296"/>
</g>
<!-- Node79 -->
<g id="node38" class="node"><title>Node79</title>
<g id="a_node38"><a xlink:href="_processor_api_8h.html" target="_top" xlink:title=" ">
<polygon fill="white" stroke="red" points="1537.5,-174 1537.5,-193 1668.5,-193 1668.5,-174 1537.5,-174"/>
<text text-anchor="middle" x="1603" y="-181" font-family="Helvetica,sans-Serif" font-size="10.00">Cpl/TShell/ProcessorApi.h</text>
</a>
</g>
</g>
<!-- Node57&#45;&gt;Node79 -->
<g id="edge42" class="edge"><title>Node57&#45;&gt;Node79</title>
<path fill="none" stroke="midnightblue" d="M1815.75,-233.186C1765.3,-221.641 1686.39,-203.584 1640.18,-193.009"/>
<polygon fill="midnightblue" stroke="midnightblue" points="1815.22,-236.656 1825.75,-235.475 1816.78,-229.832 1815.22,-236.656"/>
</g>
<!-- Node81 -->
<g id="node39" class="node"><title>Node81</title>
<g id="a_node39"><a xlink:href="_stream_decoder_8h.html" target="_top" xlink:title=" ">
<polygon fill="white" stroke="red" points="2185.5,-174 2185.5,-193 2348.5,-193 2348.5,-174 2185.5,-174"/>
<text text-anchor="middle" x="2267" y="-181" font-family="Helvetica,sans-Serif" font-size="10.00">Cpl/Text/Frame/StreamDecoder.h</text>
</a>
</g>
</g>
<!-- Node57&#45;&gt;Node81 -->
<g id="edge43" class="edge"><title>Node57&#45;&gt;Node81</title>
<path fill="none" stroke="midnightblue" d="M1910.77,-237.363C1972.18,-228.777 2082.1,-213.23 2176,-199 2188.34,-197.13 2201.6,-195.054 2214.09,-193.07"/>
<polygon fill="midnightblue" stroke="midnightblue" points="1910.03,-233.932 1900.61,-238.782 1911,-240.865 1910.03,-233.932"/>
</g>
<!-- Node84&#45;&gt;Node74 -->
<g id="edge45" class="edge"><title>Node84&#45;&gt;Node74</title>
<path fill="none" stroke="midnightblue" d="M2190.2,-233.474C2235,-224.651 2300.24,-211.521 2357,-199 2365.4,-197.147 2374.42,-195.057 2382.88,-193.053"/>
<polygon fill="midnightblue" stroke="midnightblue" points="2189.25,-230.093 2180.12,-235.455 2190.6,-236.962 2189.25,-230.093"/>
</g>
<!-- Node87&#45;&gt;Node23 -->
<g id="edge53" class="edge"><title>Node87&#45;&gt;Node23</title>
<path fill="none" stroke="midnightblue" d="M1708.06,-235.084C1247.27,-187.446 1126.44,-238.103 669,-199 652.159,-197.56 633.897,-195.312 617.352,-193.012"/>
<polygon fill="midnightblue" stroke="midnightblue" points="1708.01,-238.597 1718.32,-236.154 1708.74,-231.635 1708.01,-238.597"/>
</g>
<!-- Node87&#45;&gt;Node63 -->
<g id="edge48" class="edge"><title>Node87&#45;&gt;Node63</title>
<path fill="none" stroke="midnightblue" d="M1753.65,-225.997C1749.78,-215.05 1745.03,-201.575 1742,-193.009"/>
<polygon fill="midnightblue" stroke="midnightblue" points="1750.36,-227.21 1756.99,-235.475 1756.96,-224.88 1750.36,-227.21"/>
</g>
<!-- Node87&#45;&gt;Node78 -->
<g id="edge49" class="edge"><title>Node87&#45;&gt;Node78</title>
<path fill="none" stroke="midnightblue" d="M1708.2,-234.058C1648.36,-222.572 1550.91,-203.867 1494.4,-193.021"/>
<polygon fill="midnightblue" stroke="midnightblue" points="1707.71,-237.528 1718.19,-235.976 1709.03,-230.653 1707.71,-237.528"/>
</g>
<!-- Node87&#45;&gt;Node79 -->
<g id="edge54" class="edge"><title>Node87&#45;&gt;Node79</title>
<path fill="none" stroke="midnightblue" d="M1727.76,-231.782C1697.25,-220.22 1652.25,-203.164 1625.45,-193.009"/>
<polygon fill="midnightblue" stroke="midnightblue" points="1726.91,-235.204 1737.51,-235.475 1729.4,-228.658 1726.91,-235.204"/>
</g>
<!-- Node87&#45;&gt;Node97 -->
<g id="edge50" class="edge"><title>Node87&#45;&gt;Node97</title>
<path fill="none" stroke="midnightblue" d="M1708.21,-234.983C1557.71,-214.026 1517.66,-217.543 1371,-199 1355.75,-197.072 1339.21,-194.744 1324.1,-192.523"/>
<polygon fill="midnightblue" stroke="midnightblue" points="1707.9,-238.473 1718.29,-236.399 1708.87,-231.541 1707.9,-238.473"/>
</g>
<!-- Node97&#45;&gt;Node53 -->
<g id="edge51" class="edge"><title>Node97&#45;&gt;Node53</title>
<path fill="none" stroke="midnightblue" d="M1259.68,-165.838C1251.42,-154.669 1240.89,-140.428 1234.29,-131.509"/>
<polygon fill="midnightblue" stroke="midnightblue" points="1256.94,-168.016 1265.7,-173.975 1262.56,-163.854 1256.94,-168.016"/>
</g>
<!-- Node97&#45;&gt;Node98 -->
<g id="edge52" class="edge"><title>Node97&#45;&gt;Node98</title>
<path fill="none" stroke="midnightblue" d="M1290.78,-167.794C1305.36,-156.38 1325.06,-140.958 1337.13,-131.509"/>
<polygon fill="midnightblue" stroke="midnightblue" points="1288.61,-165.055 1282.89,-173.975 1292.92,-170.566 1288.61,-165.055"/>
</g>
<!-- Node100&#45;&gt;Node38 -->
<g id="edge60" class="edge"><title>Node100&#45;&gt;Node38</title>
<path fill="none" stroke="midnightblue" d="M2446.29,-230.379C2458.39,-222.933 2471.27,-212.457 2478,-199 2484.16,-186.677 2485.87,-179.312 2478,-168 2429.54,-98.3148 2327.04,-76.6072 2262.62,-69.9091"/>
<polygon fill="midnightblue" stroke="midnightblue" points="2444.27,-227.502 2437.3,-235.48 2447.72,-233.59 2444.27,-227.502"/>
</g>
<!-- Node100&#45;&gt;Node74 -->
<g id="edge61" class="edge"><title>Node100&#45;&gt;Node74</title>
<path fill="none" stroke="midnightblue" d="M2418,-225.317C2418,-214.496 2418,-201.398 2418,-193.009"/>
<polygon fill="midnightblue" stroke="midnightblue" points="2414.5,-225.475 2418,-235.475 2421.5,-225.475 2414.5,-225.475"/>
</g>
<!-- Node114&#45;&gt;Node38 -->
<g id="edge68" class="edge"><title>Node114&#45;&gt;Node38</title>
<path fill="none" stroke="midnightblue" d="M2577.68,-113.894C2495.86,-103.571 2344.94,-84.5303 2262.83,-74.1705"/>
<polygon fill="midnightblue" stroke="midnightblue" points="2577.43,-117.39 2587.79,-115.17 2578.31,-110.445 2577.43,-117.39"/>
</g>
<!-- Node114&#45;&gt;Node39 -->
<g id="edge67" class="edge"><title>Node114&#45;&gt;Node39</title>
<path fill="none" stroke="midnightblue" d="M2634,-102.348C2634,-78.2538 2634,-37.3079 2634,-19.5914"/>
<polygon fill="midnightblue" stroke="midnightblue" points="2630.5,-102.368 2634,-112.368 2637.5,-102.369 2630.5,-102.368"/>
</g>
</g>
</svg>
