<?xml version="1.0" encoding="UTF-8" standalone="no"?>
<!DOCTYPE svg PUBLIC "-//W3C//DTD SVG 1.1//EN"
 "http://www.w3.org/Graphics/SVG/1.1/DTD/svg11.dtd">
<!-- Generated by graphviz version 2.38.0 (20140413.2041)
 -->
<!-- Title: Cpl/Container/Key.h Pages: 1 -->
<svg width="2781pt" height="375pt"
 viewBox="0.00 0.00 2781.00 375.00" xmlns="http://www.w3.org/2000/svg" xmlns:xlink="http://www.w3.org/1999/xlink">
<g id="graph0" class="graph" transform="scale(1 1) rotate(0) translate(4 371)">
<title>Cpl/Container/Key.h</title>
<polygon fill="white" stroke="none" points="-4,4 -4,-371 2777,-371 2777,4 -4,4"/>
<!-- Node1 -->
<g id="node1" class="node"><title>Node1</title>
<g id="a_node1"><a xlink:title=" ">
<polygon fill="#bfbfbf" stroke="black" points="754,-347.5 754,-366.5 858,-366.5 858,-347.5 754,-347.5"/>
<text text-anchor="middle" x="806" y="-354.5" font-family="Helvetica,sans-Serif" font-size="10.00">Cpl/Container/Key.h</text>
</a>
</g>
</g>
<!-- Node2 -->
<g id="node2" class="node"><title>Node2</title>
<g id="a_node2"><a xlink:href="_dict_item_8h.html" target="_top" xlink:title=" ">
<polygon fill="white" stroke="black" points="14.5,-291.5 14.5,-310.5 137.5,-310.5 137.5,-291.5 14.5,-291.5"/>
<text text-anchor="middle" x="76" y="-298.5" font-family="Helvetica,sans-Serif" font-size="10.00">Cpl/Container/DictItem.h</text>
</a>
</g>
</g>
<!-- Node1&#45;&gt;Node2 -->
<g id="edge1" class="edge"><title>Node1&#45;&gt;Node2</title>
<path fill="none" stroke="midnightblue" d="M743.645,-352.733C627.231,-346.406 368.966,-331.299 152,-311 147.37,-310.567 142.585,-310.084 137.775,-309.573"/>
<polygon fill="midnightblue" stroke="midnightblue" points="743.618,-356.237 753.793,-353.282 743.996,-349.247 743.618,-356.237"/>
</g>
<!-- Node32 -->
<g id="node13" class="node"><title>Node32</title>
<g id="a_node13"><a xlink:href="_rx_frame_handler_8h.html" target="_top" xlink:title=" ">
<polygon fill="white" stroke="black" points="139.5,-112.5 139.5,-131.5 294.5,-131.5 294.5,-112.5 139.5,-112.5"/>
<text text-anchor="middle" x="217" y="-119.5" font-family="Helvetica,sans-Serif" font-size="10.00">Driver/TPipe/RxFrameHandler.h</text>
</a>
</g>
</g>
<!-- Node1&#45;&gt;Node32 -->
<g id="edge68" class="edge"><title>Node1&#45;&gt;Node32</title>
<path fill="none" stroke="midnightblue" d="M743.803,-350.217C599.725,-335.358 250.388,-290.422 185,-199 169.342,-177.108 193.94,-146.383 208.112,-131.604"/>
<polygon fill="midnightblue" stroke="midnightblue" points="743.512,-353.706 753.815,-351.235 744.221,-346.742 743.512,-353.706"/>
</g>
<!-- Node40 -->
<g id="node14" class="node"><title>Node40</title>
<g id="a_node14"><a xlink:href="_string_8h.html" target="_top" xlink:title=" ">
<polygon fill="white" stroke="black" points="1402,-291.5 1402,-310.5 1492,-310.5 1492,-291.5 1402,-291.5"/>
<text text-anchor="middle" x="1447" y="-298.5" font-family="Helvetica,sans-Serif" font-size="10.00">Cpl/Text/String.h</text>
</a>
</g>
</g>
<!-- Node1&#45;&gt;Node40 -->
<g id="edge13" class="edge"><title>Node1&#45;&gt;Node40</title>
<path fill="none" stroke="midnightblue" d="M868.097,-350.405C996.64,-339.283 1288.98,-314.676 1401.65,-305.522"/>
<polygon fill="midnightblue" stroke="midnightblue" points="867.681,-346.928 858.021,-351.279 868.286,-353.902 867.681,-346.928"/>
</g>
<!-- Node3 -->
<g id="node3" class="node"><title>Node3</title>
<g id="a_node3"><a xlink:href="_hash_table___8h.html" target="_top" xlink:title=" ">
<polygon fill="white" stroke="black" points="0,-235.5 0,-254.5 138,-254.5 138,-235.5 0,-235.5"/>
<text text-anchor="middle" x="69" y="-242.5" font-family="Helvetica,sans-Serif" font-size="10.00">Cpl/Container/HashTable_.h</text>
</a>
</g>
</g>
<!-- Node2&#45;&gt;Node3 -->
<g id="edge2" class="edge"><title>Node2&#45;&gt;Node3</title>
<path fill="none" stroke="midnightblue" d="M73.5501,-281.101C72.388,-272.136 71.0557,-261.858 70.1344,-254.751"/>
<polygon fill="midnightblue" stroke="midnightblue" points="70.0875,-281.616 74.8441,-291.083 77.0294,-280.716 70.0875,-281.616"/>
</g>
<!-- Node5 -->
<g id="node5" class="node"><title>Node5</title>
<g id="a_node5"><a xlink:href="_map_item_8h.html" target="_top" xlink:title=" ">
<polygon fill="white" stroke="black" points="358.5,-235.5 358.5,-254.5 483.5,-254.5 483.5,-235.5 358.5,-235.5"/>
<text text-anchor="middle" x="421" y="-242.5" font-family="Helvetica,sans-Serif" font-size="10.00">Cpl/Container/MapItem.h</text>
</a>
</g>
</g>
<!-- Node2&#45;&gt;Node5 -->
<g id="edge4" class="edge"><title>Node2&#45;&gt;Node5</title>
<path fill="none" stroke="midnightblue" d="M140.823,-289.854C206.008,-279.651 305.376,-264.098 366.589,-254.516"/>
<polygon fill="midnightblue" stroke="midnightblue" points="140.005,-286.439 130.666,-291.444 141.087,-293.355 140.005,-286.439"/>
</g>
<!-- Node4 -->
<g id="node4" class="node"><title>Node4</title>
<g id="a_node4"><a xlink:href="_dictionary_8h.html" target="_top" xlink:title=" ">
<polygon fill="white" stroke="black" points="4,-174 4,-193 134,-193 134,-174 4,-174"/>
<text text-anchor="middle" x="69" y="-181" font-family="Helvetica,sans-Serif" font-size="10.00">Cpl/Container/Dictionary.h</text>
</a>
</g>
</g>
<!-- Node3&#45;&gt;Node4 -->
<g id="edge3" class="edge"><title>Node3&#45;&gt;Node4</title>
<path fill="none" stroke="midnightblue" d="M69,-225.317C69,-214.496 69,-201.398 69,-193.009"/>
<polygon fill="midnightblue" stroke="midnightblue" points="65.5001,-225.475 69,-235.475 72.5001,-225.475 65.5001,-225.475"/>
</g>
<!-- Node6 -->
<g id="node6" class="node"><title>Node6</title>
<g id="a_node6"><a xlink:href="_avl_tree___8h.html" target="_top" xlink:title=" ">
<polygon fill="white" stroke="red" points="358.5,-174 358.5,-193 483.5,-193 483.5,-174 358.5,-174"/>
<text text-anchor="middle" x="421" y="-181" font-family="Helvetica,sans-Serif" font-size="10.00">Cpl/Container/AvlTree_.h</text>
</a>
</g>
</g>
<!-- Node5&#45;&gt;Node6 -->
<g id="edge5" class="edge"><title>Node5&#45;&gt;Node6</title>
<path fill="none" stroke="midnightblue" d="M421,-225.317C421,-214.496 421,-201.398 421,-193.009"/>
<polygon fill="midnightblue" stroke="midnightblue" points="417.5,-225.475 421,-235.475 424.5,-225.475 417.5,-225.475"/>
</g>
<!-- Node34 -->
<g id="node7" class="node"><title>Node34</title>
<g id="a_node7"><a xlink:href="_command_8h.html" target="_top" xlink:title=" ">
<polygon fill="white" stroke="red" points="668.5,-174 668.5,-193 785.5,-193 785.5,-174 668.5,-174"/>
<text text-anchor="middle" x="727" y="-181" font-family="Helvetica,sans-Serif" font-size="10.00">Cpl/TShell/Command.h</text>
</a>
</g>
</g>
<!-- Node5&#45;&gt;Node34 -->
<g id="edge6" class="edge"><title>Node5&#45;&gt;Node34</title>
<path fill="none" stroke="midnightblue" d="M477.969,-233.613C526.229,-224.721 597.226,-211.424 659,-199 668.349,-197.12 678.403,-195.019 687.838,-193.013"/>
<polygon fill="midnightblue" stroke="midnightblue" points="477.229,-230.19 468.027,-235.441 478.495,-237.074 477.229,-230.19"/>
</g>
<!-- Node35 -->
<g id="node11" class="node"><title>Node35</title>
<g id="a_node11"><a xlink:href="_string_item_8h.html" target="_top" xlink:title=" ">
<polygon fill="white" stroke="red" points="540,-174 540,-193 650,-193 650,-174 540,-174"/>
<text text-anchor="middle" x="595" y="-181" font-family="Helvetica,sans-Serif" font-size="10.00">Cpl/Text/StringItem.h</text>
</a>
</g>
</g>
<!-- Node5&#45;&gt;Node35 -->
<g id="edge10" class="edge"><title>Node5&#45;&gt;Node35</title>
<path fill="none" stroke="midnightblue" d="M455.414,-232.232C489.237,-220.666 540.032,-203.297 570.116,-193.009"/>
<polygon fill="midnightblue" stroke="midnightblue" points="454.26,-228.928 445.93,-235.475 456.525,-235.551 454.26,-228.928"/>
</g>
<!-- Node39 -->
<g id="node12" class="node"><title>Node39</title>
<g id="a_node12"><a xlink:href="_rx_frame_handler_api_8h.html" target="_top" xlink:title=" ">
<polygon fill="white" stroke="red" points="194,-168.5 194,-198.5 340,-198.5 340,-168.5 194,-168.5"/>
<text text-anchor="start" x="202" y="-186.5" font-family="Helvetica,sans-Serif" font-size="10.00">Driver/TPipe/RxFrameHandler</text>
<text text-anchor="middle" x="267" y="-175.5" font-family="Helvetica,sans-Serif" font-size="10.00">Api.h</text>
</a>
</g>
</g>
<!-- Node5&#45;&gt;Node39 -->
<g id="edge11" class="edge"><title>Node5&#45;&gt;Node39</title>
<path fill="none" stroke="midnightblue" d="M389.546,-231.847C364.529,-222.182 329.498,-208.647 303.295,-198.523"/>
<polygon fill="midnightblue" stroke="midnightblue" points="388.346,-235.136 398.936,-235.475 390.869,-228.606 388.346,-235.136"/>
</g>
<!-- Node8 -->
<g id="node8" class="node"><title>Node8</title>
<g id="a_node8"><a xlink:href="_cmd_2_command_8h.html" target="_top" xlink:title=" ">
<polygon fill="white" stroke="red" points="701,-112.5 701,-131.5 841,-131.5 841,-112.5 701,-112.5"/>
<text text-anchor="middle" x="771" y="-119.5" font-family="Helvetica,sans-Serif" font-size="10.00">Cpl/TShell/Cmd/Command.h</text>
</a>
</g>
</g>
<!-- Node34&#45;&gt;Node8 -->
<g id="edge7" class="edge"><title>Node34&#45;&gt;Node8</title>
<path fill="none" stroke="midnightblue" d="M739.322,-165.838C747.581,-154.669 758.112,-140.428 764.708,-131.509"/>
<polygon fill="midnightblue" stroke="midnightblue" points="736.436,-163.854 733.304,-173.975 742.064,-168.016 736.436,-163.854"/>
</g>
<!-- Node9 -->
<g id="node9" class="node"><title>Node9</title>
<g id="a_node9"><a xlink:href="_dm_8h.html" target="_top" xlink:title=" ">
<polygon fill="white" stroke="black" points="1345,-56.5 1345,-75.5 1451,-75.5 1451,-56.5 1345,-56.5"/>
<text text-anchor="middle" x="1398" y="-63.5" font-family="Helvetica,sans-Serif" font-size="10.00">Cpl/Dm/TShell/Dm.h</text>
</a>
</g>
</g>
<!-- Node8&#45;&gt;Node9 -->
<g id="edge8" class="edge"><title>Node8&#45;&gt;Node9</title>
<path fill="none" stroke="midnightblue" d="M851.391,-114.076C981.458,-102.874 1234.56,-81.0759 1344.68,-71.592"/>
<polygon fill="midnightblue" stroke="midnightblue" points="850.763,-110.617 841.1,-114.963 851.363,-117.592 850.763,-110.617"/>
</g>
<!-- Node13 -->
<g id="node10" class="node"><title>Node13</title>
<g id="a_node10"><a xlink:href="_threads_8h.html" target="_top" xlink:title=" ">
<polygon fill="white" stroke="red" points="576.5,-56.5 576.5,-75.5 707.5,-75.5 707.5,-56.5 576.5,-56.5"/>
<text text-anchor="middle" x="642" y="-63.5" font-family="Helvetica,sans-Serif" font-size="10.00">Cpl/TShell/Cmd/Threads.h</text>
</a>
</g>
</g>
<!-- Node8&#45;&gt;Node13 -->
<g id="edge9" class="edge"><title>Node8&#45;&gt;Node13</title>
<path fill="none" stroke="midnightblue" d="M741.146,-108.503C716.962,-98.3795 683.538,-84.388 662.345,-75.5164"/>
<polygon fill="midnightblue" stroke="midnightblue" points="739.984,-111.811 750.56,-112.444 742.687,-105.354 739.984,-111.811"/>
</g>
<!-- Node39&#45;&gt;Node32 -->
<g id="edge12" class="edge"><title>Node39&#45;&gt;Node32</title>
<path fill="none" stroke="midnightblue" d="M248.684,-160.704C240.224,-150.636 230.661,-139.257 224.275,-131.658"/>
<polygon fill="midnightblue" stroke="midnightblue" points="246.038,-162.995 255.151,-168.399 251.397,-158.492 246.038,-162.995"/>
</g>
<!-- Node40&#45;&gt;Node1 -->
<g id="edge16" class="edge"><title>Node40&#45;&gt;Node1</title>
<path fill="none" stroke="midnightblue" d="M1391.41,-307.031C1268.92,-317.653 977.547,-342.19 858.224,-351.919"/>
<polygon fill="midnightblue" stroke="midnightblue" points="1392.02,-310.491 1401.68,-306.138 1391.42,-303.517 1392.02,-310.491"/>
</g>
<!-- Node40&#45;&gt;Node8 -->
<g id="edge54" class="edge"><title>Node40&#45;&gt;Node8</title>
<path fill="none" stroke="midnightblue" d="M1391.4,-298.524C1253.44,-294.471 903.272,-281.657 858,-255 832.812,-240.169 789.31,-158.637 775.407,-131.666"/>
<polygon fill="midnightblue" stroke="midnightblue" points="1391.64,-302.032 1401.74,-298.823 1391.85,-295.035 1391.64,-302.032"/>
</g>
<!-- Node40&#45;&gt;Node13 -->
<g id="edge55" class="edge"><title>Node40&#45;&gt;Node13</title>
<path fill="none" stroke="midnightblue" d="M1391.99,-298.272C1202.63,-291.747 586.382,-265.515 531,-199 492.108,-152.289 584.693,-96.6571 624.696,-75.6243"/>
<polygon fill="midnightblue" stroke="midnightblue" points="1391.88,-301.77 1402,-298.612 1392.12,-294.774 1391.88,-301.77"/>
</g>
<!-- Node40&#45;&gt;Node35 -->
<g id="edge61" class="edge"><title>Node40&#45;&gt;Node35</title>
<path fill="none" stroke="midnightblue" d="M1391.58,-300.196C1311.91,-299.077 1161.14,-291.695 1039,-255 1020.34,-249.395 1018.67,-240.561 1000,-235 853.945,-191.492 809.353,-223.88 659,-199 649.334,-197.4 638.939,-195.239 629.397,-193.074"/>
<polygon fill="midnightblue" stroke="midnightblue" points="1391.83,-303.699 1401.87,-300.311 1391.91,-296.7 1391.83,-303.699"/>
</g>
<!-- Node41 -->
<g id="node15" class="node"><title>Node41</title>
<g id="a_node15"><a xlink:href="_api_md5_8h.html" target="_top" xlink:title=" ">
<polygon fill="white" stroke="black" points="2611.5,-235.5 2611.5,-254.5 2736.5,-254.5 2736.5,-235.5 2611.5,-235.5"/>
<text text-anchor="middle" x="2674" y="-242.5" font-family="Helvetica,sans-Serif" font-size="10.00">Cpl/Checksum/ApiMd5.h</text>
</a>
</g>
</g>
<!-- Node40&#45;&gt;Node41 -->
<g id="edge14" class="edge"><title>Node40&#45;&gt;Node41</title>
<path fill="none" stroke="midnightblue" d="M1502.49,-299.196C1668.21,-296.5 2173.9,-286.122 2592,-255 2598.28,-254.532 2604.83,-253.959 2611.36,-253.331"/>
<polygon fill="midnightblue" stroke="midnightblue" points="1502.01,-295.703 1492.07,-299.363 1502.13,-302.702 1502.01,-295.703"/>
</g>
<!-- Node43 -->
<g id="node17" class="node"><title>Node43</title>
<g id="a_node17"><a xlink:href="_model_database_api_8h.html" target="_top" xlink:title=" ">
<polygon fill="white" stroke="black" points="2210,-235.5 2210,-254.5 2352,-254.5 2352,-235.5 2210,-235.5"/>
<text text-anchor="middle" x="2281" y="-242.5" font-family="Helvetica,sans-Serif" font-size="10.00">Cpl/Dm/ModelDatabaseApi.h</text>
</a>
</g>
</g>
<!-- Node40&#45;&gt;Node43 -->
<g id="edge17" class="edge"><title>Node40&#45;&gt;Node43</title>
<path fill="none" stroke="midnightblue" d="M1502.17,-297.7C1626.85,-292.283 1939.85,-277.467 2201,-255 2203.92,-254.748 2206.91,-254.478 2209.92,-254.192"/>
<polygon fill="midnightblue" stroke="midnightblue" points="1501.94,-294.206 1492.1,-298.134 1502.24,-301.199 1501.94,-294.206"/>
</g>
<!-- Node75 -->
<g id="node20" class="node"><title>Node75</title>
<g id="a_node20"><a xlink:href="_numeric_8h.html" target="_top" xlink:title=" ">
<polygon fill="white" stroke="black" points="2221.5,-56.5 2221.5,-75.5 2334.5,-75.5 2334.5,-56.5 2221.5,-56.5"/>
<text text-anchor="middle" x="2278" y="-63.5" font-family="Helvetica,sans-Serif" font-size="10.00">Cpl/Dm/Mp/Numeric.h</text>
</a>
</g>
</g>
<!-- Node40&#45;&gt;Node75 -->
<g id="edge36" class="edge"><title>Node40&#45;&gt;Node75</title>
<path fill="none" stroke="midnightblue" d="M1502.38,-299.616C1704.65,-297.939 2396.52,-289.7 2489,-255 2535.47,-237.566 2587.55,-208.596 2559,-168 2508.31,-95.911 2401.03,-75.0263 2334.67,-69.13"/>
<polygon fill="midnightblue" stroke="midnightblue" points="1502.25,-296.117 1492.28,-299.698 1502.31,-303.117 1502.25,-296.117"/>
</g>
<!-- Node101 -->
<g id="node29" class="node"><title>Node101</title>
<g id="a_node29"><a xlink:href="_model_point_8h.html" target="_top" xlink:title=" ">
<polygon fill="white" stroke="black" points="2370.5,-235.5 2370.5,-254.5 2479.5,-254.5 2479.5,-235.5 2370.5,-235.5"/>
<text text-anchor="middle" x="2425" y="-242.5" font-family="Helvetica,sans-Serif" font-size="10.00">Cpl/Dm/ModelPoint.h</text>
</a>
</g>
</g>
<!-- Node40&#45;&gt;Node101 -->
<g id="edge30" class="edge"><title>Node40&#45;&gt;Node101</title>
<path fill="none" stroke="midnightblue" d="M1502.52,-299.016C1645.26,-296.107 2036.58,-285.734 2361,-255 2364.02,-254.714 2367.11,-254.389 2370.23,-254.035"/>
<polygon fill="midnightblue" stroke="midnightblue" points="1502.21,-295.521 1492.28,-299.22 1502.35,-302.52 1502.21,-295.521"/>
</g>
<!-- Node106 -->
<g id="node33" class="node"><title>Node106</title>
<g id="a_node33"><a xlink:href="_input_8h.html" target="_top" xlink:title=" ">
<polygon fill="white" stroke="red" points="1188.5,-235.5 1188.5,-254.5 1263.5,-254.5 1263.5,-235.5 1188.5,-235.5"/>
<text text-anchor="middle" x="1226" y="-242.5" font-family="Helvetica,sans-Serif" font-size="10.00">Cpl/Io/Input.h</text>
</a>
</g>
</g>
<!-- Node40&#45;&gt;Node106 -->
<g id="edge37" class="edge"><title>Node40&#45;&gt;Node106</title>
<path fill="none" stroke="midnightblue" d="M1402.08,-289.024C1360.33,-278.823 1299.02,-263.841 1260.85,-254.516"/>
<polygon fill="midnightblue" stroke="midnightblue" points="1401.44,-292.47 1411.98,-291.444 1403.1,-285.67 1401.44,-292.47"/>
</g>
<!-- Node134 -->
<g id="node39" class="node"><title>Node134</title>
<g id="a_node39"><a xlink:href="_line_reader_api_8h.html" target="_top" xlink:title=" ">
<polygon fill="white" stroke="black" points="1745,-235.5 1745,-254.5 1861,-254.5 1861,-235.5 1745,-235.5"/>
<text text-anchor="middle" x="1803" y="-242.5" font-family="Helvetica,sans-Serif" font-size="10.00">Cpl/Io/LineReaderApi.h</text>
</a>
</g>
</g>
<!-- Node40&#45;&gt;Node134 -->
<g id="edge43" class="edge"><title>Node40&#45;&gt;Node134</title>
<path fill="none" stroke="midnightblue" d="M1502.37,-291.601C1568.93,-281.506 1679.98,-264.661 1746.87,-254.515"/>
<polygon fill="midnightblue" stroke="midnightblue" points="1501.45,-288.201 1492.09,-293.161 1502.5,-295.121 1501.45,-288.201"/>
</g>
<!-- Node135 -->
<g id="node40" class="node"><title>Node135</title>
<g id="a_node40"><a xlink:href="_line_writer_api_8h.html" target="_top" xlink:title=" ">
<polygon fill="white" stroke="red" points="880.5,-235.5 880.5,-254.5 991.5,-254.5 991.5,-235.5 880.5,-235.5"/>
<text text-anchor="middle" x="936" y="-242.5" font-family="Helvetica,sans-Serif" font-size="10.00">Cpl/Io/LineWriterApi.h</text>
</a>
</g>
</g>
<!-- Node40&#45;&gt;Node135 -->
<g id="edge45" class="edge"><title>Node40&#45;&gt;Node135</title>
<path fill="none" stroke="midnightblue" d="M1391.86,-294.841C1308.32,-286.919 1144.71,-270.992 1006,-255 1001.37,-254.467 996.58,-253.894 991.768,-253.304"/>
<polygon fill="midnightblue" stroke="midnightblue" points="1391.6,-298.332 1401.88,-295.79 1392.26,-291.363 1391.6,-298.332"/>
</g>
<!-- Node137 -->
<g id="node41" class="node"><title>Node137</title>
<g id="a_node41"><a xlink:href="_output_8h.html" target="_top" xlink:title=" ">
<polygon fill="white" stroke="red" points="1048.5,-235.5 1048.5,-254.5 1131.5,-254.5 1131.5,-235.5 1048.5,-235.5"/>
<text text-anchor="middle" x="1090" y="-242.5" font-family="Helvetica,sans-Serif" font-size="10.00">Cpl/Io/Output.h</text>
</a>
</g>
</g>
<!-- Node40&#45;&gt;Node137 -->
<g id="edge46" class="edge"><title>Node40&#45;&gt;Node137</title>
<path fill="none" stroke="midnightblue" d="M1391.77,-291.928C1331.38,-283.059 1231.76,-268.302 1146,-255 1141.33,-254.276 1136.44,-253.506 1131.58,-252.735"/>
<polygon fill="midnightblue" stroke="midnightblue" points="1391.44,-295.418 1401.85,-293.407 1392.46,-288.492 1391.44,-295.418"/>
</g>
<!-- Node147 -->
<g id="node42" class="node"><title>Node147</title>
<g id="a_node42"><a xlink:href="_system_2_trace_8h.html" target="_top" xlink:title=" ">
<polygon fill="white" stroke="red" points="929,-174 929,-193 1033,-193 1033,-174 929,-174"/>
<text text-anchor="middle" x="981" y="-181" font-family="Helvetica,sans-Serif" font-size="10.00">Cpl/System/Trace.h</text>
</a>
</g>
</g>
<!-- Node40&#45;&gt;Node147 -->
<g id="edge53" class="edge"><title>Node40&#45;&gt;Node147</title>
<path fill="none" stroke="midnightblue" d="M1391.64,-295.705C1336.6,-290.282 1250.31,-278.64 1179,-255 1160.51,-248.87 1158.01,-242.418 1140,-235 1097.15,-217.352 1045.75,-202.037 1013.23,-193.033"/>
<polygon fill="midnightblue" stroke="midnightblue" points="1391.6,-299.216 1401.88,-296.678 1392.26,-292.248 1391.6,-299.216"/>
</g>
<!-- Node148 -->
<g id="node43" class="node"><title>Node148</title>
<g id="a_node43"><a xlink:href="_cpl_2_system_2_private___8h.html" target="_top" xlink:title="This file contains a collection of classes, interfaces, etc.">
<polygon fill="white" stroke="red" points="891.5,-112.5 891.5,-131.5 1006.5,-131.5 1006.5,-112.5 891.5,-112.5"/>
<text text-anchor="middle" x="949" y="-119.5" font-family="Helvetica,sans-Serif" font-size="10.00">Cpl/System/Private_.h</text>
</a>
</g>
</g>
<!-- Node40&#45;&gt;Node148 -->
<g id="edge52" class="edge"><title>Node40&#45;&gt;Node148</title>
<path fill="none" stroke="midnightblue" d="M1391.51,-299.846C1253.97,-298.887 905.89,-292.722 871,-255 833.767,-214.745 906.963,-153.802 936.975,-131.532"/>
<polygon fill="midnightblue" stroke="midnightblue" points="1391.8,-303.348 1401.82,-299.911 1391.84,-296.348 1391.8,-303.348"/>
</g>
<!-- Node151 -->
<g id="node44" class="node"><title>Node151</title>
<g id="a_node44"><a xlink:href="_f_string_8h.html" target="_top" xlink:title=" ">
<polygon fill="white" stroke="red" points="2096,-235.5 2096,-254.5 2192,-254.5 2192,-235.5 2096,-235.5"/>
<text text-anchor="middle" x="2144" y="-242.5" font-family="Helvetica,sans-Serif" font-size="10.00">Cpl/Text/FString.h</text>
</a>
</g>
</g>
<!-- Node40&#45;&gt;Node151 -->
<g id="edge56" class="edge"><title>Node40&#45;&gt;Node151</title>
<path fill="none" stroke="midnightblue" d="M1502.33,-297.664C1613.29,-292.635 1870.81,-279.23 2086,-255 2089.24,-254.635 2092.58,-254.221 2095.93,-253.775"/>
<polygon fill="midnightblue" stroke="midnightblue" points="1501.88,-294.18 1492.05,-298.125 1502.2,-301.173 1501.88,-294.18"/>
</g>
<!-- Node160 -->
<g id="node45" class="node"><title>Node160</title>
<g id="a_node45"><a xlink:href="_string_decoder_8h.html" target="_top" xlink:title=" ">
<polygon fill="white" stroke="black" points="1281.5,-235.5 1281.5,-254.5 1438.5,-254.5 1438.5,-235.5 1281.5,-235.5"/>
<text text-anchor="middle" x="1360" y="-242.5" font-family="Helvetica,sans-Serif" font-size="10.00">Cpl/Text/Frame/StringDecoder.h</text>
</a>
</g>
</g>
<!-- Node40&#45;&gt;Node160 -->
<g id="edge59" class="edge"><title>Node40&#45;&gt;Node160</title>
<path fill="none" stroke="midnightblue" d="M1424.28,-285.901C1408.33,-275.999 1387.5,-263.071 1373.94,-254.655"/>
<polygon fill="midnightblue" stroke="midnightblue" points="1422.68,-289.024 1433.02,-291.324 1426.37,-283.077 1422.68,-289.024"/>
</g>
<!-- Node161 -->
<g id="node46" class="node"><title>Node161</title>
<g id="a_node46"><a xlink:href="_string_encoder_8h.html" target="_top" xlink:title=" ">
<polygon fill="white" stroke="black" points="1456.5,-235.5 1456.5,-254.5 1613.5,-254.5 1613.5,-235.5 1456.5,-235.5"/>
<text text-anchor="middle" x="1535" y="-242.5" font-family="Helvetica,sans-Serif" font-size="10.00">Cpl/Text/Frame/StringEncoder.h</text>
</a>
</g>
</g>
<!-- Node40&#45;&gt;Node161 -->
<g id="edge60" class="edge"><title>Node40&#45;&gt;Node161</title>
<path fill="none" stroke="midnightblue" d="M1469.98,-285.901C1486.11,-275.999 1507.18,-263.071 1520.9,-254.655"/>
<polygon fill="midnightblue" stroke="midnightblue" points="1467.83,-283.111 1461.14,-291.324 1471.49,-289.077 1467.83,-283.111"/>
</g>
<!-- Node162 -->
<g id="node47" class="node"><title>Node162</title>
<g id="a_node47"><a xlink:href="_text_2_string___8h.html" target="_top" xlink:title=" ">
<polygon fill="white" stroke="red" points="1631.5,-235.5 1631.5,-254.5 1726.5,-254.5 1726.5,-235.5 1631.5,-235.5"/>
<text text-anchor="middle" x="1679" y="-242.5" font-family="Helvetica,sans-Serif" font-size="10.00">Cpl/Text/String_.h</text>
</a>
</g>
</g>
<!-- Node40&#45;&gt;Node162 -->
<g id="edge62" class="edge"><title>Node40&#45;&gt;Node162</title>
<path fill="none" stroke="midnightblue" d="M1493.6,-289.153C1537.44,-278.95 1602.18,-263.881 1642.41,-254.516"/>
<polygon fill="midnightblue" stroke="midnightblue" points="1492.71,-285.768 1483.76,-291.444 1494.29,-292.585 1492.71,-285.768"/>
</g>
<!-- Node166 -->
<g id="node48" class="node"><title>Node166</title>
<g id="a_node48"><a xlink:href="format_8h.html" target="_top" xlink:title="This file contains some general purpose string formatting functions.">
<polygon fill="white" stroke="red" points="2666,-112.5 2666,-131.5 2758,-131.5 2758,-112.5 2666,-112.5"/>
<text text-anchor="middle" x="2712" y="-119.5" font-family="Helvetica,sans-Serif" font-size="10.00">Cpl/Text/format.h</text>
</a>
</g>
</g>
<!-- Node40&#45;&gt;Node166 -->
<g id="edge63" class="edge"><title>Node40&#45;&gt;Node166</title>
<path fill="none" stroke="midnightblue" d="M1502.37,-299.945C1744.14,-299.469 2697.34,-295.051 2746,-255 2776.19,-230.154 2774.35,-203.955 2759,-168 2752.35,-152.416 2737.35,-139.645 2726.08,-131.741"/>
<polygon fill="midnightblue" stroke="midnightblue" points="1502.06,-296.445 1492.07,-299.964 1502.07,-303.445 1502.06,-296.445"/>
</g>
<!-- Node167 -->
<g id="node49" class="node"><title>Node167</title>
<g id="a_node49"><a xlink:href="_guid_8h.html" target="_top" xlink:title=" ">
<polygon fill="white" stroke="black" points="1879.5,-235.5 1879.5,-254.5 1966.5,-254.5 1966.5,-235.5 1879.5,-235.5"/>
<text text-anchor="middle" x="1923" y="-242.5" font-family="Helvetica,sans-Serif" font-size="10.00">Cpl/Type/Guid.h</text>
</a>
</g>
</g>
<!-- Node40&#45;&gt;Node167 -->
<g id="edge66" class="edge"><title>Node40&#45;&gt;Node167</title>
<path fill="none" stroke="midnightblue" d="M1502.64,-295.193C1583.65,-287.942 1738.72,-273.111 1870,-255 1873.05,-254.579 1876.2,-254.117 1879.36,-253.632"/>
<polygon fill="midnightblue" stroke="midnightblue" points="1501.84,-291.751 1492.19,-296.123 1502.46,-298.723 1501.84,-291.751"/>
</g>
<!-- Node168 -->
<g id="node50" class="node"><title>Node168</title>
<g id="a_node50"><a xlink:href="_tx_8h.html" target="_top" xlink:title=" ">
<polygon fill="white" stroke="red" points="1984.5,-235.5 1984.5,-254.5 2077.5,-254.5 2077.5,-235.5 1984.5,-235.5"/>
<text text-anchor="middle" x="2031" y="-242.5" font-family="Helvetica,sans-Serif" font-size="10.00">Driver/TPipe/Tx.h</text>
</a>
</g>
</g>
<!-- Node40&#45;&gt;Node168 -->
<g id="edge67" class="edge"><title>Node40&#45;&gt;Node168</title>
<path fill="none" stroke="midnightblue" d="M1502.41,-296.638C1598.73,-290.49 1803.2,-276.097 1975,-255 1978.03,-254.628 1981.15,-254.214 1984.29,-253.774"/>
<polygon fill="midnightblue" stroke="midnightblue" points="1502.08,-293.152 1492.32,-297.277 1502.52,-300.138 1502.08,-293.152"/>
</g>
<!-- Node42 -->
<g id="node16" class="node"><title>Node42</title>
<g id="a_node16"><a xlink:href="_md5_aladdin_8h.html" target="_top" xlink:title=" ">
<polygon fill="white" stroke="black" points="2606.5,-174 2606.5,-193 2749.5,-193 2749.5,-174 2606.5,-174"/>
<text text-anchor="middle" x="2678" y="-181" font-family="Helvetica,sans-Serif" font-size="10.00">Cpl/Checksum/Md5Aladdin.h</text>
</a>
</g>
</g>
<!-- Node41&#45;&gt;Node42 -->
<g id="edge15" class="edge"><title>Node41&#45;&gt;Node42</title>
<path fill="none" stroke="midnightblue" d="M2675.26,-225.317C2675.98,-214.496 2676.86,-201.398 2677.43,-193.009"/>
<polygon fill="midnightblue" stroke="midnightblue" points="2671.75,-225.263 2674.57,-235.475 2678.74,-225.732 2671.75,-225.263"/>
</g>
<!-- Node43&#45;&gt;Node9 -->
<g id="edge29" class="edge"><title>Node43&#45;&gt;Node9</title>
<path fill="none" stroke="midnightblue" d="M2228.3,-233.437C2067.69,-201.241 1586.37,-104.76 1440.42,-75.503"/>
<polygon fill="midnightblue" stroke="midnightblue" points="2227.92,-236.929 2238.41,-235.463 2229.29,-230.066 2227.92,-236.929"/>
</g>
<!-- Node44 -->
<g id="node18" class="node"><title>Node44</title>
<g id="a_node18"><a xlink:href="_model_database_8h.html" target="_top" xlink:title=" ">
<polygon fill="white" stroke="red" points="2102,-174 2102,-193 2230,-193 2230,-174 2102,-174"/>
<text text-anchor="middle" x="2166" y="-181" font-family="Helvetica,sans-Serif" font-size="10.00">Cpl/Dm/ModelDatabase.h</text>
</a>
</g>
</g>
<!-- Node43&#45;&gt;Node44 -->
<g id="edge18" class="edge"><title>Node43&#45;&gt;Node44</title>
<path fill="none" stroke="midnightblue" d="M2255.62,-230.867C2233.33,-219.335 2201.56,-202.899 2182.45,-193.009"/>
<polygon fill="midnightblue" stroke="midnightblue" points="2254.03,-233.988 2264.52,-235.475 2257.25,-227.771 2254.03,-233.988"/>
</g>
<!-- Node45 -->
<g id="node19" class="node"><title>Node45</title>
<g id="a_node19"><a xlink:href="_model_point_common___8h.html" target="_top" xlink:title=" ">
<polygon fill="white" stroke="red" points="2194.5,-112.5 2194.5,-131.5 2347.5,-131.5 2347.5,-112.5 2194.5,-112.5"/>
<text text-anchor="middle" x="2271" y="-119.5" font-family="Helvetica,sans-Serif" font-size="10.00">Cpl/Dm/ModelPointCommon_.h</text>
</a>
</g>
</g>
<!-- Node44&#45;&gt;Node45 -->
<g id="edge19" class="edge"><title>Node44&#45;&gt;Node45</title>
<path fill="none" stroke="midnightblue" d="M2190,-168.901C2210.3,-157.396 2238.76,-141.267 2255.98,-131.509"/>
<polygon fill="midnightblue" stroke="midnightblue" points="2188.02,-166 2181.04,-173.975 2191.47,-172.09 2188.02,-166"/>
</g>
<!-- Node45&#45;&gt;Node75 -->
<g id="edge20" class="edge"><title>Node45&#45;&gt;Node75</title>
<path fill="none" stroke="midnightblue" d="M2273.45,-102.101C2274.61,-93.1357 2275.94,-82.8579 2276.87,-75.7511"/>
<polygon fill="midnightblue" stroke="midnightblue" points="2269.97,-101.716 2272.16,-112.083 2276.91,-102.616 2269.97,-101.716"/>
</g>
<!-- Node76 -->
<g id="node21" class="node"><title>Node76</title>
<g id="a_node21"><a xlink:href="_bit_array16_8h.html" target="_top" xlink:title=" ">
<polygon fill="white" stroke="black" points="2651,-0.5 2651,-19.5 2773,-19.5 2773,-0.5 2651,-0.5"/>
<text text-anchor="middle" x="2712" y="-7.5" font-family="Helvetica,sans-Serif" font-size="10.00">Cpl/Dm/Mp/BitArray16.h</text>
</a>
</g>
</g>
<!-- Node75&#45;&gt;Node76 -->
<g id="edge21" class="edge"><title>Node75&#45;&gt;Node76</title>
<path fill="none" stroke="midnightblue" d="M2344.74,-56.8485C2417.75,-47.9076 2538.22,-33.0865 2642,-20 2644.92,-19.6321 2647.9,-19.2541 2650.92,-18.8711"/>
<polygon fill="midnightblue" stroke="midnightblue" points="2344.26,-53.381 2334.76,-58.0703 2345.11,-60.3292 2344.26,-53.381"/>
</g>
<!-- Node77 -->
<g id="node22" class="node"><title>Node77</title>
<g id="a_node22"><a xlink:href="_double_8h.html" target="_top" xlink:title=" ">
<polygon fill="white" stroke="black" points="2525.5,-0.5 2525.5,-19.5 2632.5,-19.5 2632.5,-0.5 2525.5,-0.5"/>
<text text-anchor="middle" x="2579" y="-7.5" font-family="Helvetica,sans-Serif" font-size="10.00">Cpl/Dm/Mp/Double.h</text>
</a>
</g>
</g>
<!-- Node75&#45;&gt;Node77 -->
<g id="edge22" class="edge"><title>Node75&#45;&gt;Node77</title>
<path fill="none" stroke="midnightblue" d="M2335.61,-54.6642C2392.5,-44.4592 2478.45,-29.0386 2531.53,-19.5164"/>
<polygon fill="midnightblue" stroke="midnightblue" points="2334.92,-51.2326 2325.69,-56.4435 2336.16,-58.1226 2334.92,-51.2326"/>
</g>
<!-- Node78 -->
<g id="node23" class="node"><title>Node78</title>
<g id="a_node23"><a xlink:href="_float_8h.html" target="_top" xlink:title=" ">
<polygon fill="white" stroke="red" points="1819,-0.5 1819,-19.5 1917,-19.5 1917,-0.5 1819,-0.5"/>
<text text-anchor="middle" x="1868" y="-7.5" font-family="Helvetica,sans-Serif" font-size="10.00">Cpl/Dm/Mp/Float.h</text>
</a>
</g>
</g>
<!-- Node75&#45;&gt;Node78 -->
<g id="edge23" class="edge"><title>Node75&#45;&gt;Node78</title>
<path fill="none" stroke="midnightblue" d="M2211.11,-56.9901C2140.25,-48.3776 2025.13,-34.0252 1926,-20 1923.07,-19.586 1920.07,-19.1504 1917.03,-18.7032"/>
<polygon fill="midnightblue" stroke="midnightblue" points="2210.89,-60.4887 2221.24,-58.2184 2211.73,-53.5397 2210.89,-60.4887"/>
</g>
<!-- Node79 -->
<g id="node24" class="node"><title>Node79</title>
<g id="a_node24"><a xlink:href="_int32_8h.html" target="_top" xlink:title=" ">
<polygon fill="white" stroke="black" points="1935,-0.5 1935,-19.5 2033,-19.5 2033,-0.5 1935,-0.5"/>
<text text-anchor="middle" x="1984" y="-7.5" font-family="Helvetica,sans-Serif" font-size="10.00">Cpl/Dm/Mp/Int32.h</text>
</a>
</g>
</g>
<!-- Node75&#45;&gt;Node79 -->
<g id="edge24" class="edge"><title>Node75&#45;&gt;Node79</title>
<path fill="none" stroke="midnightblue" d="M2221.38,-54.6007C2165.82,-44.3953 2082.1,-29.0189 2030.37,-19.5164"/>
<polygon fill="midnightblue" stroke="midnightblue" points="2220.95,-58.0794 2231.41,-56.4435 2222.21,-51.1945 2220.95,-58.0794"/>
</g>
<!-- Node80 -->
<g id="node25" class="node"><title>Node80</title>
<g id="a_node25"><a xlink:href="_int64_8h.html" target="_top" xlink:title=" ">
<polygon fill="white" stroke="black" points="2051,-0.5 2051,-19.5 2149,-19.5 2149,-0.5 2051,-0.5"/>
<text text-anchor="middle" x="2100" y="-7.5" font-family="Helvetica,sans-Serif" font-size="10.00">Cpl/Dm/Mp/Int64.h</text>
</a>
</g>
</g>
<!-- Node75&#45;&gt;Node80 -->
<g id="edge25" class="edge"><title>Node75&#45;&gt;Node80</title>
<path fill="none" stroke="midnightblue" d="M2239.88,-53.4363C2206.32,-43.2551 2158.23,-28.664 2128.07,-19.5164"/>
<polygon fill="midnightblue" stroke="midnightblue" points="2239.21,-56.8897 2249.8,-56.4435 2241.24,-50.1911 2239.21,-56.8897"/>
</g>
<!-- Node81 -->
<g id="node26" class="node"><title>Node81</title>
<g id="a_node26"><a xlink:href="_uint32_8h.html" target="_top" xlink:title=" ">
<polygon fill="white" stroke="red" points="2167,-0.5 2167,-19.5 2271,-19.5 2271,-0.5 2167,-0.5"/>
<text text-anchor="middle" x="2219" y="-7.5" font-family="Helvetica,sans-Serif" font-size="10.00">Cpl/Dm/Mp/Uint32.h</text>
</a>
</g>
</g>
<!-- Node75&#45;&gt;Node81 -->
<g id="edge26" class="edge"><title>Node75&#45;&gt;Node81</title>
<path fill="none" stroke="midnightblue" d="M2261.11,-49.5372C2250.59,-39.9087 2237.43,-27.8694 2228.65,-19.8339"/>
<polygon fill="midnightblue" stroke="midnightblue" points="2258.78,-52.1542 2268.52,-56.324 2263.51,-46.9905 2258.78,-52.1542"/>
</g>
<!-- Node84 -->
<g id="node27" class="node"><title>Node84</title>
<g id="a_node27"><a xlink:href="_uint64_8h.html" target="_top" xlink:title=" ">
<polygon fill="white" stroke="red" points="2289,-0.5 2289,-19.5 2393,-19.5 2393,-0.5 2289,-0.5"/>
<text text-anchor="middle" x="2341" y="-7.5" font-family="Helvetica,sans-Serif" font-size="10.00">Cpl/Dm/Mp/Uint64.h</text>
</a>
</g>
</g>
<!-- Node75&#45;&gt;Node84 -->
<g id="edge27" class="edge"><title>Node75&#45;&gt;Node84</title>
<path fill="none" stroke="midnightblue" d="M2296.04,-49.5372C2307.27,-39.9087 2321.32,-27.8694 2330.69,-19.8339"/>
<polygon fill="midnightblue" stroke="midnightblue" points="2293.44,-47.1586 2288.12,-56.324 2297.99,-52.4734 2293.44,-47.1586"/>
</g>
<!-- Node86 -->
<g id="node28" class="node"><title>Node86</title>
<g id="a_node28"><a xlink:href="_void_8h.html" target="_top" xlink:title=" ">
<polygon fill="white" stroke="black" points="2411,-0.5 2411,-19.5 2507,-19.5 2507,-0.5 2411,-0.5"/>
<text text-anchor="middle" x="2459" y="-7.5" font-family="Helvetica,sans-Serif" font-size="10.00">Cpl/Dm/Mp/Void.h</text>
</a>
</g>
</g>
<!-- Node75&#45;&gt;Node86 -->
<g id="edge28" class="edge"><title>Node75&#45;&gt;Node86</title>
<path fill="none" stroke="midnightblue" d="M2316.32,-53.5677C2350.46,-43.381 2399.66,-28.7034 2430.45,-19.5164"/>
<polygon fill="midnightblue" stroke="midnightblue" points="2315.26,-50.2306 2306.68,-56.4435 2317.26,-56.9385 2315.26,-50.2306"/>
</g>
<!-- Node101&#45;&gt;Node45 -->
<g id="edge32" class="edge"><title>Node101&#45;&gt;Node45</title>
<path fill="none" stroke="midnightblue" d="M2367.07,-233.34C2330.73,-225.394 2288.61,-213.444 2277,-199 2261.24,-179.402 2265.57,-147.031 2268.85,-131.642"/>
<polygon fill="midnightblue" stroke="midnightblue" points="2366.63,-236.825 2377.14,-235.474 2368.09,-229.977 2366.63,-236.825"/>
</g>
<!-- Node102 -->
<g id="node30" class="node"><title>Node102</title>
<g id="a_node30"><a xlink:href="helpers_8h.html" target="_top" xlink:title="This file defines helper functions/interface for writing unit tests.">
<polygon fill="white" stroke="black" points="1451.5,-112.5 1451.5,-131.5 1536.5,-131.5 1536.5,-112.5 1451.5,-112.5"/>
<text text-anchor="middle" x="1494" y="-119.5" font-family="Helvetica,sans-Serif" font-size="10.00">Catch/helpers.h</text>
</a>
</g>
</g>
<!-- Node101&#45;&gt;Node102 -->
<g id="edge31" class="edge"><title>Node101&#45;&gt;Node102</title>
<path fill="none" stroke="midnightblue" d="M2360.25,-234.903C2240.3,-218.433 2208.97,-214.604 2093,-199 1990.77,-185.245 1965.31,-181.132 1863,-168 1744.9,-152.84 1605.37,-136.158 1536.64,-128.022"/>
<polygon fill="midnightblue" stroke="midnightblue" points="2359.81,-238.376 2370.19,-236.27 2360.76,-231.441 2359.81,-238.376"/>
</g>
<!-- Node103 -->
<g id="node31" class="node"><title>Node103</title>
<g id="a_node31"><a xlink:href="_dm_2_persistent_2_record_8h.html" target="_top" xlink:title=" ">
<polygon fill="white" stroke="red" points="2286,-174 2286,-193 2424,-193 2424,-174 2286,-174"/>
<text text-anchor="middle" x="2355" y="-181" font-family="Helvetica,sans-Serif" font-size="10.00">Cpl/Dm/Persistent/Record.h</text>
</a>
</g>
</g>
<!-- Node101&#45;&gt;Node103 -->
<g id="edge33" class="edge"><title>Node101&#45;&gt;Node103</title>
<path fill="none" stroke="midnightblue" d="M2407.32,-228.973C2393.93,-217.593 2376.02,-202.369 2365.01,-193.009"/>
<polygon fill="midnightblue" stroke="midnightblue" points="2405.08,-231.665 2414.97,-235.475 2409.62,-226.332 2405.08,-231.665"/>
</g>
<!-- Node104 -->
<g id="node32" class="node"><title>Node104</title>
<g id="a_node32"><a xlink:href="_subscriber_8h.html" target="_top" xlink:title=" ">
<polygon fill="white" stroke="red" points="2442.5,-174 2442.5,-193 2549.5,-193 2549.5,-174 2442.5,-174"/>
<text text-anchor="middle" x="2496" y="-181" font-family="Helvetica,sans-Serif" font-size="10.00">Cpl/Dm/Subscriber.h</text>
</a>
</g>
</g>
<!-- Node101&#45;&gt;Node104 -->
<g id="edge34" class="edge"><title>Node101&#45;&gt;Node104</title>
<path fill="none" stroke="midnightblue" d="M2442.93,-228.973C2456.51,-217.593 2474.68,-202.369 2485.85,-193.009"/>
<polygon fill="midnightblue" stroke="midnightblue" points="2440.59,-226.369 2435.17,-235.475 2445.09,-231.735 2440.59,-226.369"/>
</g>
<!-- Node104&#45;&gt;Node45 -->
<g id="edge35" class="edge"><title>Node104&#45;&gt;Node45</title>
<path fill="none" stroke="midnightblue" d="M2454.01,-171.396C2410.31,-159.84 2342.83,-141.995 2303.18,-131.509"/>
<polygon fill="midnightblue" stroke="midnightblue" points="2453.2,-174.802 2463.76,-173.975 2454.99,-168.035 2453.2,-174.802"/>
</g>
<!-- Node107 -->
<g id="node34" class="node"><title>Node107</title>
<g id="a_node34"><a xlink:href="_input_api_8h.html" target="_top" xlink:title=" ">
<polygon fill="white" stroke="red" points="1297,-174 1297,-193 1405,-193 1405,-174 1297,-174"/>
<text text-anchor="middle" x="1351" y="-181" font-family="Helvetica,sans-Serif" font-size="10.00">Cpl/Io/File/InputApi.h</text>
</a>
</g>
</g>
<!-- Node106&#45;&gt;Node107 -->
<g id="edge38" class="edge"><title>Node106&#45;&gt;Node107</title>
<path fill="none" stroke="midnightblue" d="M1252.94,-231.174C1277.2,-219.629 1312.16,-202.987 1333.12,-193.009"/>
<polygon fill="midnightblue" stroke="midnightblue" points="1251.43,-228.017 1243.91,-235.475 1254.44,-234.337 1251.43,-228.017"/>
</g>
<!-- Node112 -->
<g id="node35" class="node"><title>Node112</title>
<g id="a_node35"><a xlink:href="_input_output_8h.html" target="_top" xlink:title=" ">
<polygon fill="white" stroke="red" points="1051,-174 1051,-193 1155,-193 1155,-174 1051,-174"/>
<text text-anchor="middle" x="1103" y="-181" font-family="Helvetica,sans-Serif" font-size="10.00">Cpl/Io/InputOutput.h</text>
</a>
</g>
</g>
<!-- Node106&#45;&gt;Node112 -->
<g id="edge39" class="edge"><title>Node106&#45;&gt;Node112</title>
<path fill="none" stroke="midnightblue" d="M1199.17,-231.021C1175.31,-219.482 1141.13,-202.943 1120.59,-193.009"/>
<polygon fill="midnightblue" stroke="midnightblue" points="1197.85,-234.271 1208.38,-235.475 1200.9,-227.97 1197.85,-234.271"/>
</g>
<!-- Node124 -->
<g id="node36" class="node"><title>Node124</title>
<g id="a_node36"><a xlink:href="_line_reader_8h.html" target="_top" xlink:title=" ">
<polygon fill="white" stroke="black" points="1752,-174 1752,-193 1854,-193 1854,-174 1752,-174"/>
<text text-anchor="middle" x="1803" y="-181" font-family="Helvetica,sans-Serif" font-size="10.00">Cpl/Io/LineReader.h</text>
</a>
</g>
</g>
<!-- Node106&#45;&gt;Node124 -->
<g id="edge40" class="edge"><title>Node106&#45;&gt;Node124</title>
<path fill="none" stroke="midnightblue" d="M1273.58,-234.891C1454.81,-209.021 1658.74,-193.844 1751.91,-187.68"/>
<polygon fill="midnightblue" stroke="midnightblue" points="1273,-231.439 1263.6,-236.33 1274,-238.367 1273,-231.439"/>
</g>
<!-- Node125 -->
<g id="node37" class="node"><title>Node125</title>
<g id="a_node37"><a xlink:href="_serial_2_r_p2040_2_stdio_2_input_8h.html" target="_top" xlink:title=" ">
<polygon fill="white" stroke="black" points="1423.5,-168.5 1423.5,-198.5 1530.5,-198.5 1530.5,-168.5 1423.5,-168.5"/>
<text text-anchor="start" x="1431.5" y="-186.5" font-family="Helvetica,sans-Serif" font-size="10.00">Cpl/Io/Serial/RP2040</text>
<text text-anchor="middle" x="1477" y="-175.5" font-family="Helvetica,sans-Serif" font-size="10.00">/Stdio/Input.h</text>
</a>
</g>
</g>
<!-- Node106&#45;&gt;Node125 -->
<g id="edge41" class="edge"><title>Node106&#45;&gt;Node125</title>
<path fill="none" stroke="midnightblue" d="M1271.79,-233.145C1314.43,-223.037 1378.02,-207.964 1423.09,-197.28"/>
<polygon fill="midnightblue" stroke="midnightblue" points="1270.89,-229.763 1261.96,-235.475 1272.5,-236.574 1270.89,-229.763"/>
</g>
<!-- Node126 -->
<g id="node38" class="node"><title>Node126</title>
<g id="a_node38"><a xlink:href="_input___8h.html" target="_top" xlink:title=" ">
<polygon fill="white" stroke="red" points="1173,-174 1173,-193 1279,-193 1279,-174 1173,-174"/>
<text text-anchor="middle" x="1226" y="-181" font-family="Helvetica,sans-Serif" font-size="10.00">Cpl/Io/Stdio/Input_.h</text>
</a>
</g>
</g>
<!-- Node106&#45;&gt;Node126 -->
<g id="edge42" class="edge"><title>Node106&#45;&gt;Node126</title>
<path fill="none" stroke="midnightblue" d="M1226,-225.317C1226,-214.496 1226,-201.398 1226,-193.009"/>
<polygon fill="midnightblue" stroke="midnightblue" points="1222.5,-225.475 1226,-235.475 1229.5,-225.475 1222.5,-225.475"/>
</g>
<!-- Node134&#45;&gt;Node124 -->
<g id="edge44" class="edge"><title>Node134&#45;&gt;Node124</title>
<path fill="none" stroke="midnightblue" d="M1803,-225.317C1803,-214.496 1803,-201.398 1803,-193.009"/>
<polygon fill="midnightblue" stroke="midnightblue" points="1799.5,-225.475 1803,-235.475 1806.5,-225.475 1799.5,-225.475"/>
</g>
<!-- Node137&#45;&gt;Node34 -->
<g id="edge51" class="edge"><title>Node137&#45;&gt;Node34</title>
<path fill="none" stroke="midnightblue" d="M1038.17,-235.504C969.198,-224.199 847.96,-204.327 778.94,-193.014"/>
<polygon fill="midnightblue" stroke="midnightblue" points="1037.92,-239.011 1048.36,-237.175 1039.06,-232.103 1037.92,-239.011"/>
</g>
<!-- Node137&#45;&gt;Node112 -->
<g id="edge47" class="edge"><title>Node137&#45;&gt;Node112</title>
<path fill="none" stroke="midnightblue" d="M1094.01,-225.657C1096.39,-214.772 1099.29,-201.486 1101.14,-193.009"/>
<polygon fill="midnightblue" stroke="midnightblue" points="1090.58,-224.958 1091.86,-235.475 1097.42,-226.453 1090.58,-224.958"/>
</g>
<!-- Node137&#45;&gt;Node147 -->
<g id="edge48" class="edge"><title>Node137&#45;&gt;Node147</title>
<path fill="none" stroke="midnightblue" d="M1065.37,-230.556C1044.28,-219.042 1014.54,-202.811 996.588,-193.009"/>
<polygon fill="midnightblue" stroke="midnightblue" points="1063.93,-233.756 1074.38,-235.475 1067.28,-227.612 1063.93,-233.756"/>
</g>
<!-- Node147&#45;&gt;Node102 -->
<g id="edge49" class="edge"><title>Node147&#45;&gt;Node102</title>
<path fill="none" stroke="midnightblue" d="M1023.6,-171.606C1029.75,-170.259 1036.02,-169.004 1042,-168 1191.32,-142.936 1370.91,-130.155 1451.37,-125.332"/>
<polygon fill="midnightblue" stroke="midnightblue" points="1022.41,-168.289 1013.44,-173.935 1023.97,-175.112 1022.41,-168.289"/>
</g>
<!-- Node147&#45;&gt;Node148 -->
<g id="edge50" class="edge"><title>Node147&#45;&gt;Node148</title>
<path fill="none" stroke="midnightblue" d="M971.499,-164.835C965.58,-153.828 958.23,-140.163 953.576,-131.509"/>
<polygon fill="midnightblue" stroke="midnightblue" points="968.596,-166.826 976.415,-173.975 974.761,-163.51 968.596,-166.826"/>
</g>
<!-- Node151&#45;&gt;Node75 -->
<g id="edge57" class="edge"><title>Node151&#45;&gt;Node75</title>
<path fill="none" stroke="midnightblue" d="M2119.88,-229.473C2109.56,-221.828 2098.62,-211.445 2093,-199 2087.33,-186.442 2086.25,-180.011 2093,-168 2123.12,-114.407 2193.38,-87.658 2238.12,-75.6005"/>
<polygon fill="midnightblue" stroke="midnightblue" points="2118.04,-232.457 2128.27,-235.236 2122.01,-226.688 2118.04,-232.457"/>
</g>
<!-- Node151&#45;&gt;Node124 -->
<g id="edge58" class="edge"><title>Node151&#45;&gt;Node124</title>
<path fill="none" stroke="midnightblue" d="M2085.64,-233.816C2019.66,-222.304 1913.43,-203.768 1851.72,-193"/>
<polygon fill="midnightblue" stroke="midnightblue" points="2085.41,-237.33 2095.87,-235.601 2086.62,-230.434 2085.41,-237.33"/>
</g>
<!-- Node166&#45;&gt;Node75 -->
<g id="edge65" class="edge"><title>Node166&#45;&gt;Node75</title>
<path fill="none" stroke="midnightblue" d="M2655.97,-114.028C2572.98,-103.703 2418.25,-84.4505 2334.82,-74.0693"/>
<polygon fill="midnightblue" stroke="midnightblue" points="2655.61,-117.511 2665.97,-115.272 2656.47,-110.564 2655.61,-117.511"/>
</g>
<!-- Node166&#45;&gt;Node76 -->
<g id="edge64" class="edge"><title>Node166&#45;&gt;Node76</title>
<path fill="none" stroke="midnightblue" d="M2712,-102.348C2712,-78.2538 2712,-37.3079 2712,-19.5914"/>
<polygon fill="midnightblue" stroke="midnightblue" points="2708.5,-102.368 2712,-112.368 2715.5,-102.369 2708.5,-102.368"/>
</g>
</g>
</svg>
