<?xml version="1.0" encoding="UTF-8" standalone="no"?>
<!DOCTYPE svg PUBLIC "-//W3C//DTD SVG 1.1//EN"
 "http://www.w3.org/Graphics/SVG/1.1/DTD/svg11.dtd">
<!-- Generated by graphviz version 2.38.0 (20140413.2041)
 -->
<!-- Title: Cpl/Itc/Mailbox.h Pages: 1 -->
<svg width="1406pt" height="408pt"
 viewBox="0.00 0.00 1406.00 408.00" xmlns="http://www.w3.org/2000/svg" xmlns:xlink="http://www.w3.org/1999/xlink">
<g id="graph0" class="graph" transform="scale(1 1) rotate(0) translate(4 404)">
<title>Cpl/Itc/Mailbox.h</title>
<polygon fill="white" stroke="none" points="-4,4 -4,-404 1402,-404 1402,4 -4,4"/>
<!-- Node1 -->
<g id="node1" class="node"><title>Node1</title>
<g id="a_node1"><a xlink:title=" ">
<polygon fill="#bfbfbf" stroke="black" points="921.5,-380.5 921.5,-399.5 1011.5,-399.5 1011.5,-380.5 921.5,-380.5"/>
<text text-anchor="middle" x="966.5" y="-387.5" font-family="Helvetica,sans-Serif" font-size="10.00">Cpl/Itc/Mailbox.h</text>
</a>
</g>
</g>
<!-- Node2 -->
<g id="node2" class="node"><title>Node2</title>
<g id="a_node2"><a xlink:href="_dm_2_mailbox_server_8h.html" target="_top" xlink:title=" ">
<polygon fill="white" stroke="black" points="711.5,-324.5 711.5,-343.5 833.5,-343.5 833.5,-324.5 711.5,-324.5"/>
<text text-anchor="middle" x="772.5" y="-331.5" font-family="Helvetica,sans-Serif" font-size="10.00">Cpl/Dm/MailboxServer.h</text>
</a>
</g>
</g>
<!-- Node1&#45;&gt;Node2 -->
<g id="edge1" class="edge"><title>Node1&#45;&gt;Node2</title>
<path fill="none" stroke="midnightblue" d="M925.899,-377.699C889.285,-367.507 836.243,-352.743 803.096,-343.516"/>
<polygon fill="midnightblue" stroke="midnightblue" points="925.188,-381.134 935.76,-380.444 927.065,-374.39 925.188,-381.134"/>
</g>
<!-- Node22 -->
<g id="node22" class="node"><title>Node22</title>
<g id="a_node22"><a xlink:href="_itc_2_mailbox_server_8h.html" target="_top" xlink:title=" ">
<polygon fill="white" stroke="black" points="1102,-324.5 1102,-343.5 1221,-343.5 1221,-324.5 1102,-324.5"/>
<text text-anchor="middle" x="1161.5" y="-331.5" font-family="Helvetica,sans-Serif" font-size="10.00">Cpl/Itc/MailboxServer.h</text>
</a>
</g>
</g>
<!-- Node1&#45;&gt;Node22 -->
<g id="edge29" class="edge"><title>Node1&#45;&gt;Node22</title>
<path fill="none" stroke="midnightblue" d="M1007.31,-377.699C1044.11,-367.507 1097.43,-352.743 1130.75,-343.516"/>
<polygon fill="midnightblue" stroke="midnightblue" points="1006.1,-374.402 997.398,-380.444 1007.97,-381.148 1006.1,-374.402"/>
</g>
<!-- Node3 -->
<g id="node3" class="node"><title>Node3</title>
<g id="a_node3"><a xlink:href="_dm_2_periodic_scheduler_8h.html" target="_top" xlink:title=" ">
<polygon fill="white" stroke="black" points="1106,-263 1106,-282 1245,-282 1245,-263 1106,-263"/>
<text text-anchor="middle" x="1175.5" y="-270" font-family="Helvetica,sans-Serif" font-size="10.00">Cpl/Dm/PeriodicScheduler.h</text>
</a>
</g>
</g>
<!-- Node2&#45;&gt;Node3 -->
<g id="edge2" class="edge"><title>Node2&#45;&gt;Node3</title>
<path fill="none" stroke="midnightblue" d="M843.775,-324.007C909.511,-315.498 1009.75,-301.978 1096.5,-288 1107.65,-286.203 1119.65,-284.092 1130.85,-282.045"/>
<polygon fill="midnightblue" stroke="midnightblue" points="842.998,-320.578 833.528,-325.329 843.894,-327.521 842.998,-320.578"/>
</g>
<!-- Node4 -->
<g id="node4" class="node"><title>Node4</title>
<g id="a_node4"><a xlink:href="_chunk_8h.html" target="_top" xlink:title=" ">
<polygon fill="white" stroke="black" points="430,-263 430,-282 547,-282 547,-263 430,-263"/>
<text text-anchor="middle" x="488.5" y="-270" font-family="Helvetica,sans-Serif" font-size="10.00">Cpl/Persistent/Chunk.h</text>
</a>
</g>
</g>
<!-- Node2&#45;&gt;Node4 -->
<g id="edge3" class="edge"><title>Node2&#45;&gt;Node4</title>
<path fill="none" stroke="midnightblue" d="M721.916,-322.402C666.857,-310.867 579.904,-292.65 529.115,-282.009"/>
<polygon fill="midnightblue" stroke="midnightblue" points="721.304,-325.85 731.81,-324.475 722.74,-318.999 721.304,-325.85"/>
</g>
<!-- Node15 -->
<g id="node15" class="node"><title>Node15</title>
<g id="a_node15"><a xlink:href="_persistent_2_record_8h.html" target="_top" xlink:title=" ">
<polygon fill="white" stroke="black" points="263.5,-263 263.5,-282 383.5,-282 383.5,-263 263.5,-263"/>
<text text-anchor="middle" x="323.5" y="-270" font-family="Helvetica,sans-Serif" font-size="10.00">Cpl/Persistent/Record.h</text>
</a>
</g>
</g>
<!-- Node2&#45;&gt;Node15 -->
<g id="edge15" class="edge"><title>Node2&#45;&gt;Node15</title>
<path fill="none" stroke="midnightblue" d="M701.21,-324.337C630.059,-315.584 517.634,-301.467 420.5,-288 407.091,-286.141 392.656,-284.038 379.125,-282.022"/>
<polygon fill="midnightblue" stroke="midnightblue" points="701.049,-327.843 711.401,-325.588 701.902,-320.895 701.049,-327.843"/>
</g>
<!-- Node16 -->
<g id="node16" class="node"><title>Node16</title>
<g id="a_node16"><a xlink:href="_record_server_8h.html" target="_top" xlink:title=" ">
<polygon fill="white" stroke="black" points="63,-196 63,-215 212,-215 212,-196 63,-196"/>
<text text-anchor="middle" x="137.5" y="-203" font-family="Helvetica,sans-Serif" font-size="10.00">Cpl/Persistent/RecordServer.h</text>
</a>
</g>
</g>
<!-- Node2&#45;&gt;Node16 -->
<g id="edge20" class="edge"><title>Node2&#45;&gt;Node16</title>
<path fill="none" stroke="midnightblue" d="M701.462,-331.347C579.292,-327.756 334.781,-317.082 254.5,-288 208.881,-271.475 164.533,-232.48 146.251,-215.109"/>
<polygon fill="midnightblue" stroke="midnightblue" points="701.373,-334.846 711.469,-331.633 701.573,-327.849 701.373,-334.846"/>
</g>
<!-- Node17 -->
<g id="node17" class="node"><title>Node17</title>
<g id="a_node17"><a xlink:href="_region_media_8h.html" target="_top" xlink:title=" ">
<polygon fill="white" stroke="black" points="617.5,-263 617.5,-282 763.5,-282 763.5,-263 617.5,-263"/>
<text text-anchor="middle" x="690.5" y="-270" font-family="Helvetica,sans-Serif" font-size="10.00">Cpl/Persistent/RegionMedia.h</text>
</a>
</g>
</g>
<!-- Node2&#45;&gt;Node17 -->
<g id="edge21" class="edge"><title>Node2&#45;&gt;Node17</title>
<path fill="none" stroke="midnightblue" d="M752.233,-318.294C736.503,-306.88 715.248,-291.458 702.227,-282.009"/>
<polygon fill="midnightblue" stroke="midnightblue" points="750.602,-321.435 760.751,-324.475 754.713,-315.769 750.602,-321.435"/>
</g>
<!-- Node20 -->
<g id="node20" class="node"><title>Node20</title>
<g id="a_node20"><a xlink:href="_algorithm_8h.html" target="_top" xlink:title=" ">
<polygon fill="white" stroke="black" points="781.5,-263 781.5,-282 929.5,-282 929.5,-263 781.5,-263"/>
<text text-anchor="middle" x="855.5" y="-270" font-family="Helvetica,sans-Serif" font-size="10.00">Storm/Thermostat/Algorithm.h</text>
</a>
</g>
</g>
<!-- Node2&#45;&gt;Node20 -->
<g id="edge27" class="edge"><title>Node2&#45;&gt;Node20</title>
<path fill="none" stroke="midnightblue" d="M792.57,-318.613C808.533,-307.169 830.327,-291.546 843.63,-282.009"/>
<polygon fill="midnightblue" stroke="midnightblue" points="790.48,-315.804 784.392,-324.475 794.559,-321.493 790.48,-315.804"/>
</g>
<!-- Node21 -->
<g id="node21" class="node"><title>Node21</title>
<g id="a_node21"><a xlink:href="_event_monitor_8h_source.html" target="_top" xlink:title=" ">
<polygon fill="white" stroke="black" points="947.5,-257.5 947.5,-287.5 1087.5,-287.5 1087.5,-257.5 947.5,-257.5"/>
<text text-anchor="start" x="955.5" y="-275.5" font-family="Helvetica,sans-Serif" font-size="10.00">Storm/Thermostat/Ui</text>
<text text-anchor="middle" x="1017.5" y="-264.5" font-family="Helvetica,sans-Serif" font-size="10.00">/PicoDisplay/EventMonitor.h</text>
</a>
</g>
</g>
<!-- Node2&#45;&gt;Node21 -->
<g id="edge28" class="edge"><title>Node2&#45;&gt;Node21</title>
<path fill="none" stroke="midnightblue" d="M817.353,-322.107C857.38,-312.386 916.226,-298.095 959.758,-287.523"/>
<polygon fill="midnightblue" stroke="midnightblue" points="816.494,-318.714 807.603,-324.475 818.146,-325.516 816.494,-318.714"/>
</g>
<!-- Node5 -->
<g id="node5" class="node"><title>Node5</title>
<g id="a_node5"><a xlink:href="_dm_2_persistent_2_record_8h.html" target="_top" xlink:title=" ">
<polygon fill="white" stroke="black" points="130.5,-134.5 130.5,-153.5 268.5,-153.5 268.5,-134.5 130.5,-134.5"/>
<text text-anchor="middle" x="199.5" y="-141.5" font-family="Helvetica,sans-Serif" font-size="10.00">Cpl/Dm/Persistent/Record.h</text>
</a>
</g>
</g>
<!-- Node4&#45;&gt;Node5 -->
<g id="edge4" class="edge"><title>Node4&#45;&gt;Node5</title>
<path fill="none" stroke="midnightblue" d="M478.328,-254.21C466.278,-235.339 444.404,-205.722 417.5,-190 391.725,-174.938 317.659,-161.666 262.979,-153.509"/>
<polygon fill="midnightblue" stroke="midnightblue" points="475.492,-256.279 483.709,-262.968 481.457,-252.615 475.492,-256.279"/>
</g>
<!-- Node9 -->
<g id="node9" class="node"><title>Node9</title>
<g id="a_node9"><a xlink:href="_crc_chunk_8h.html" target="_top" xlink:title=" ">
<polygon fill="white" stroke="black" points="502.5,-196 502.5,-215 634.5,-215 634.5,-196 502.5,-196"/>
<text text-anchor="middle" x="568.5" y="-203" font-family="Helvetica,sans-Serif" font-size="10.00">Cpl/Persistent/CrcChunk.h</text>
</a>
</g>
</g>
<!-- Node4&#45;&gt;Node9 -->
<g id="edge8" class="edge"><title>Node4&#45;&gt;Node9</title>
<path fill="none" stroke="midnightblue" d="M507.314,-256.213C523.076,-243.407 545.007,-225.588 557.882,-215.127"/>
<polygon fill="midnightblue" stroke="midnightblue" points="504.843,-253.711 499.289,-262.734 509.257,-259.144 504.843,-253.711"/>
</g>
<!-- Node10 -->
<g id="node10" class="node"><title>Node10</title>
<g id="a_node10"><a xlink:href="_data_record_8h.html" target="_top" xlink:title=" ">
<polygon fill="white" stroke="black" points="268.5,-196 268.5,-215 408.5,-215 408.5,-196 268.5,-196"/>
<text text-anchor="middle" x="338.5" y="-203" font-family="Helvetica,sans-Serif" font-size="10.00">Cpl/Persistent/DataRecord.h</text>
</a>
</g>
</g>
<!-- Node4&#45;&gt;Node10 -->
<g id="edge9" class="edge"><title>Node4&#45;&gt;Node10</title>
<path fill="none" stroke="midnightblue" d="M459.148,-258.781C429.443,-245.909 384.318,-226.355 358.501,-215.167"/>
<polygon fill="midnightblue" stroke="midnightblue" points="458.014,-262.104 468.581,-262.869 460.797,-255.681 458.014,-262.104"/>
</g>
<!-- Node12 -->
<g id="node12" class="node"><title>Node12</title>
<g id="a_node12"><a xlink:href="_indexed_entry_record_8h.html" target="_top" xlink:title=" ">
<polygon fill="white" stroke="black" points="411,-67.5 411,-97.5 550,-97.5 550,-67.5 411,-67.5"/>
<text text-anchor="start" x="419" y="-85.5" font-family="Helvetica,sans-Serif" font-size="10.00">Cpl/Persistent/IndexedEntry</text>
<text text-anchor="middle" x="480.5" y="-74.5" font-family="Helvetica,sans-Serif" font-size="10.00">Record.h</text>
</a>
</g>
</g>
<!-- Node4&#45;&gt;Node12 -->
<g id="edge13" class="edge"><title>Node4&#45;&gt;Node12</title>
<path fill="none" stroke="midnightblue" d="M487.708,-252.881C486.11,-215.328 482.531,-131.24 481.104,-97.704"/>
<polygon fill="midnightblue" stroke="midnightblue" points="484.213,-253.091 488.135,-262.934 491.207,-252.794 484.213,-253.091"/>
</g>
<!-- Node14 -->
<g id="node14" class="node"><title>Node14</title>
<g id="a_node14"><a xlink:href="_mirrored_chunk_8h.html" target="_top" xlink:title=" ">
<polygon fill="white" stroke="black" points="652.5,-196 652.5,-215 804.5,-215 804.5,-196 652.5,-196"/>
<text text-anchor="middle" x="728.5" y="-203" font-family="Helvetica,sans-Serif" font-size="10.00">Cpl/Persistent/MirroredChunk.h</text>
</a>
</g>
</g>
<!-- Node4&#45;&gt;Node14 -->
<g id="edge14" class="edge"><title>Node4&#45;&gt;Node14</title>
<path fill="none" stroke="midnightblue" d="M530.028,-260.253C577.465,-247.405 654.037,-226.667 696.88,-215.064"/>
<polygon fill="midnightblue" stroke="midnightblue" points="529.107,-256.876 520.37,-262.869 530.937,-263.633 529.107,-256.876"/>
</g>
<!-- Node6 -->
<g id="node6" class="node"><title>Node6</title>
<g id="a_node6"><a xlink:href="_installer_record_8h_source.html" target="_top" xlink:title=" ">
<polygon fill="white" stroke="black" points="274,-67.5 274,-97.5 393,-97.5 393,-67.5 274,-67.5"/>
<text text-anchor="start" x="282" y="-85.5" font-family="Helvetica,sans-Serif" font-size="10.00">Storm/Thermostat/Main</text>
<text text-anchor="middle" x="333.5" y="-74.5" font-family="Helvetica,sans-Serif" font-size="10.00">/InstallerRecord.h</text>
</a>
</g>
</g>
<!-- Node5&#45;&gt;Node6 -->
<g id="edge5" class="edge"><title>Node5&#45;&gt;Node6</title>
<path fill="none" stroke="midnightblue" d="M228.033,-130.331C249.713,-120.704 279.522,-107.468 301.919,-97.523"/>
<polygon fill="midnightblue" stroke="midnightblue" points="226.418,-127.218 218.699,-134.475 229.259,-133.616 226.418,-127.218"/>
</g>
<!-- Node7 -->
<g id="node7" class="node"><title>Node7</title>
<g id="a_node7"><a xlink:href="_run_time_record_8h_source.html" target="_top" xlink:title=" ">
<polygon fill="white" stroke="black" points="0,-67.5 0,-97.5 119,-97.5 119,-67.5 0,-67.5"/>
<text text-anchor="start" x="8" y="-85.5" font-family="Helvetica,sans-Serif" font-size="10.00">Storm/Thermostat/Main</text>
<text text-anchor="middle" x="59.5" y="-74.5" font-family="Helvetica,sans-Serif" font-size="10.00">/RunTimeRecord.h</text>
</a>
</g>
</g>
<!-- Node5&#45;&gt;Node7 -->
<g id="edge6" class="edge"><title>Node5&#45;&gt;Node7</title>
<path fill="none" stroke="midnightblue" d="M169.995,-130.461C147.319,-120.823 116.001,-107.513 92.4952,-97.523"/>
<polygon fill="midnightblue" stroke="midnightblue" points="168.869,-133.785 179.441,-134.475 171.607,-127.342 168.869,-133.785"/>
</g>
<!-- Node8 -->
<g id="node8" class="node"><title>Node8</title>
<g id="a_node8"><a xlink:href="_user_record_8h_source.html" target="_top" xlink:title=" ">
<polygon fill="white" stroke="black" points="137,-67.5 137,-97.5 256,-97.5 256,-67.5 137,-67.5"/>
<text text-anchor="start" x="145" y="-85.5" font-family="Helvetica,sans-Serif" font-size="10.00">Storm/Thermostat/Main</text>
<text text-anchor="middle" x="196.5" y="-74.5" font-family="Helvetica,sans-Serif" font-size="10.00">/UserRecord.h</text>
</a>
</g>
</g>
<!-- Node5&#45;&gt;Node8 -->
<g id="edge7" class="edge"><title>Node5&#45;&gt;Node8</title>
<path fill="none" stroke="midnightblue" d="M198.554,-124.235C198.118,-115.586 197.609,-105.497 197.207,-97.523"/>
<polygon fill="midnightblue" stroke="midnightblue" points="195.071,-124.664 199.07,-134.475 202.062,-124.312 195.071,-124.664"/>
</g>
<!-- Node11 -->
<g id="node11" class="node"><title>Node11</title>
<g id="a_node11"><a xlink:href="_index_record_8h.html" target="_top" xlink:title=" ">
<polygon fill="white" stroke="black" points="298.5,-134.5 298.5,-153.5 442.5,-153.5 442.5,-134.5 298.5,-134.5"/>
<text text-anchor="middle" x="370.5" y="-141.5" font-family="Helvetica,sans-Serif" font-size="10.00">Cpl/Persistent/IndexRecord.h</text>
</a>
</g>
</g>
<!-- Node10&#45;&gt;Node11 -->
<g id="edge10" class="edge"><title>Node10&#45;&gt;Node11</title>
<path fill="none" stroke="midnightblue" d="M348.001,-186.835C353.92,-175.828 361.27,-162.163 365.924,-153.509"/>
<polygon fill="midnightblue" stroke="midnightblue" points="344.739,-185.51 343.085,-195.975 350.904,-188.826 344.739,-185.51"/>
</g>
<!-- Node11&#45;&gt;Node12 -->
<g id="edge11" class="edge"><title>Node11&#45;&gt;Node12</title>
<path fill="none" stroke="midnightblue" d="M395.38,-129.542C413.038,-119.991 436.686,-107.199 454.575,-97.523"/>
<polygon fill="midnightblue" stroke="midnightblue" points="393.391,-126.639 386.26,-134.475 396.721,-132.796 393.391,-126.639"/>
</g>
<!-- Node13 -->
<g id="node13" class="node"><title>Node13</title>
<g id="a_node13"><a xlink:href="_indexed_entry_server_8h.html" target="_top" xlink:title=" ">
<polygon fill="white" stroke="black" points="411,-0.5 411,-30.5 550,-30.5 550,-0.5 411,-0.5"/>
<text text-anchor="start" x="419" y="-18.5" font-family="Helvetica,sans-Serif" font-size="10.00">Cpl/Persistent/IndexedEntry</text>
<text text-anchor="middle" x="480.5" y="-7.5" font-family="Helvetica,sans-Serif" font-size="10.00">Server.h</text>
</a>
</g>
</g>
<!-- Node12&#45;&gt;Node13 -->
<g id="edge12" class="edge"><title>Node12&#45;&gt;Node13</title>
<path fill="none" stroke="midnightblue" d="M480.5,-57.1081C480.5,-48.1539 480.5,-38.3227 480.5,-30.5765"/>
<polygon fill="midnightblue" stroke="midnightblue" points="477,-57.3959 480.5,-67.396 484,-57.396 477,-57.3959"/>
</g>
<!-- Node15&#45;&gt;Node5 -->
<g id="edge16" class="edge"><title>Node15&#45;&gt;Node5</title>
<path fill="none" stroke="midnightblue" d="M302.667,-257C289.63,-247.469 272.837,-234.334 259.5,-221 237.15,-198.655 215.268,-168.142 205.22,-153.508"/>
<polygon fill="midnightblue" stroke="midnightblue" points="300.838,-259.995 311.004,-262.98 304.919,-254.307 300.838,-259.995"/>
</g>
<!-- Node15&#45;&gt;Node10 -->
<g id="edge17" class="edge"><title>Node15&#45;&gt;Node10</title>
<path fill="none" stroke="midnightblue" d="M327.789,-252.915C330.657,-240.488 334.296,-224.717 336.509,-215.127"/>
<polygon fill="midnightblue" stroke="midnightblue" points="324.361,-252.203 325.523,-262.734 331.182,-253.777 324.361,-252.203"/>
</g>
<!-- Node15&#45;&gt;Node16 -->
<g id="edge18" class="edge"><title>Node15&#45;&gt;Node16</title>
<path fill="none" stroke="midnightblue" d="M288.979,-259.436C252.081,-246.542 194.514,-226.424 162.005,-215.064"/>
<polygon fill="midnightblue" stroke="midnightblue" points="288.206,-262.874 298.801,-262.869 290.515,-256.265 288.206,-262.874"/>
</g>
<!-- Node16&#45;&gt;Node5 -->
<g id="edge19" class="edge"><title>Node16&#45;&gt;Node5</title>
<path fill="none" stroke="midnightblue" d="M153.834,-188.825C165.613,-177.52 181.064,-162.693 190.633,-153.509"/>
<polygon fill="midnightblue" stroke="midnightblue" points="151.175,-186.526 146.383,-195.975 156.022,-191.576 151.175,-186.526"/>
</g>
<!-- Node17&#45;&gt;Node9 -->
<g id="edge22" class="edge"><title>Node17&#45;&gt;Node9</title>
<path fill="none" stroke="midnightblue" d="M665.356,-258.103C641.195,-245.231 605.4,-226.16 584.768,-215.167"/>
<polygon fill="midnightblue" stroke="midnightblue" points="663.828,-261.255 674.299,-262.869 667.12,-255.077 663.828,-261.255"/>
</g>
<!-- Node17&#45;&gt;Node12 -->
<g id="edge24" class="edge"><title>Node17&#45;&gt;Node12</title>
<path fill="none" stroke="midnightblue" d="M737.781,-260.216C782.056,-247.318 838.005,-223.564 813.5,-190 782.184,-147.105 638.072,-113.088 550.011,-95.8561"/>
<polygon fill="midnightblue" stroke="midnightblue" points="736.665,-256.894 727.976,-262.956 738.549,-263.636 736.665,-256.894"/>
</g>
<!-- Node17&#45;&gt;Node14 -->
<g id="edge25" class="edge"><title>Node17&#45;&gt;Node14</title>
<path fill="none" stroke="midnightblue" d="M700.71,-254.035C708.068,-241.45 717.68,-225.007 723.456,-215.127"/>
<polygon fill="midnightblue" stroke="midnightblue" points="697.65,-252.334 695.625,-262.734 703.693,-255.867 697.65,-252.334"/>
</g>
<!-- Node18 -->
<g id="node18" class="node"><title>Node18</title>
<g id="a_node18"><a xlink:href="_file_adapter_8h.html" target="_top" xlink:title=" ">
<polygon fill="white" stroke="black" points="861,-196 861,-215 1000,-215 1000,-196 861,-196"/>
<text text-anchor="middle" x="930.5" y="-203" font-family="Helvetica,sans-Serif" font-size="10.00">Cpl/Persistent/FileAdapter.h</text>
</a>
</g>
</g>
<!-- Node17&#45;&gt;Node18 -->
<g id="edge23" class="edge"><title>Node17&#45;&gt;Node18</title>
<path fill="none" stroke="midnightblue" d="M732.028,-260.253C779.465,-247.405 856.037,-226.667 898.88,-215.064"/>
<polygon fill="midnightblue" stroke="midnightblue" points="731.107,-256.876 722.37,-262.869 732.937,-263.633 731.107,-256.876"/>
</g>
<!-- Node19 -->
<g id="node19" class="node"><title>Node19</title>
<g id="a_node19"><a xlink:href="_null_region_media_8h.html" target="_top" xlink:title=" ">
<polygon fill="white" stroke="black" points="1018.5,-190.5 1018.5,-220.5 1146.5,-220.5 1146.5,-190.5 1018.5,-190.5"/>
<text text-anchor="start" x="1026.5" y="-208.5" font-family="Helvetica,sans-Serif" font-size="10.00">Cpl/Persistent/NullRegion</text>
<text text-anchor="middle" x="1082.5" y="-197.5" font-family="Helvetica,sans-Serif" font-size="10.00">Media.h</text>
</a>
</g>
</g>
<!-- Node17&#45;&gt;Node19 -->
<g id="edge26" class="edge"><title>Node17&#45;&gt;Node19</title>
<path fill="none" stroke="midnightblue" d="M747.745,-261.199C756.045,-259.758 764.488,-258.319 772.5,-257 877.192,-239.761 903.971,-239.205 1008.5,-221 1011.72,-220.438 1015.02,-219.848 1018.36,-219.24"/>
<polygon fill="midnightblue" stroke="midnightblue" points="746.978,-257.78 737.731,-262.951 748.185,-264.675 746.978,-257.78"/>
</g>
<!-- Node23 -->
<g id="node23" class="node"><title>Node23</title>
<g id="a_node23"><a xlink:href="_itc_2_periodic_scheduler_8h.html" target="_top" xlink:title=" ">
<polygon fill="white" stroke="black" points="1263,-263 1263,-282 1398,-282 1398,-263 1263,-263"/>
<text text-anchor="middle" x="1330.5" y="-270" font-family="Helvetica,sans-Serif" font-size="10.00">Cpl/Itc/PeriodicScheduler.h</text>
</a>
</g>
</g>
<!-- Node22&#45;&gt;Node23 -->
<g id="edge30" class="edge"><title>Node22&#45;&gt;Node23</title>
<path fill="none" stroke="midnightblue" d="M1195.35,-321.083C1228.2,-309.517 1277.24,-292.252 1306.33,-282.009"/>
<polygon fill="midnightblue" stroke="midnightblue" points="1193.98,-317.853 1185.71,-324.475 1196.31,-324.456 1193.98,-317.853"/>
</g>
</g>
</svg>
