<?xml version="1.0" encoding="UTF-8" standalone="no"?>
<!DOCTYPE svg PUBLIC "-//W3C//DTD SVG 1.1//EN"
 "http://www.w3.org/Graphics/SVG/1.1/DTD/svg11.dtd">
<!-- Generated by graphviz version 2.38.0 (20140413.2041)
 -->
<!-- Title: Cpl/Itc/Mailbox.h Pages: 1 -->
<svg width="945pt" height="386pt"
 viewBox="0.00 0.00 945.00 386.00" xmlns="http://www.w3.org/2000/svg" xmlns:xlink="http://www.w3.org/1999/xlink">
<g id="graph0" class="graph" transform="scale(1 1) rotate(0) translate(4 382)">
<title>Cpl/Itc/Mailbox.h</title>
<polygon fill="white" stroke="none" points="-4,4 -4,-382 941,-382 941,4 -4,4"/>
<!-- Node1 -->
<g id="node1" class="node"><title>Node1</title>
<g id="a_node1"><a xlink:title=" ">
<polygon fill="#bfbfbf" stroke="black" points="501.5,-358.5 501.5,-377.5 591.5,-377.5 591.5,-358.5 501.5,-358.5"/>
<text text-anchor="middle" x="546.5" y="-365.5" font-family="Helvetica,sans-Serif" font-size="10.00">Cpl/Itc/Mailbox.h</text>
</a>
</g>
</g>
<!-- Node2 -->
<g id="node2" class="node"><title>Node2</title>
<g id="a_node2"><a xlink:href="_dm_2_mailbox_server_8h.html" target="_top" xlink:title=" ">
<polygon fill="white" stroke="black" points="337.5,-302.5 337.5,-321.5 459.5,-321.5 459.5,-302.5 337.5,-302.5"/>
<text text-anchor="middle" x="398.5" y="-309.5" font-family="Helvetica,sans-Serif" font-size="10.00">Cpl/Dm/MailboxServer.h</text>
</a>
</g>
</g>
<!-- Node1&#45;&gt;Node2 -->
<g id="edge1" class="edge"><title>Node1&#45;&gt;Node2</title>
<path fill="none" stroke="midnightblue" d="M513.353,-354.906C485.528,-344.754 446.48,-330.506 421.841,-321.516"/>
<polygon fill="midnightblue" stroke="midnightblue" points="512.455,-358.304 523.049,-358.444 514.854,-351.728 512.455,-358.304"/>
</g>
<!-- Node16 -->
<g id="node16" class="node"><title>Node16</title>
<g id="a_node16"><a xlink:href="_itc_2_mailbox_server_8h.html" target="_top" xlink:title=" ">
<polygon fill="white" stroke="black" points="636,-302.5 636,-321.5 755,-321.5 755,-302.5 636,-302.5"/>
<text text-anchor="middle" x="695.5" y="-309.5" font-family="Helvetica,sans-Serif" font-size="10.00">Cpl/Itc/MailboxServer.h</text>
</a>
</g>
</g>
<!-- Node1&#45;&gt;Node16 -->
<g id="edge23" class="edge"><title>Node1&#45;&gt;Node16</title>
<path fill="none" stroke="midnightblue" d="M579.871,-354.906C607.884,-344.754 647.196,-330.506 672.001,-321.516"/>
<polygon fill="midnightblue" stroke="midnightblue" points="578.319,-351.746 570.109,-358.444 580.704,-358.327 578.319,-351.746"/>
</g>
<!-- Node3 -->
<g id="node3" class="node"><title>Node3</title>
<g id="a_node3"><a xlink:href="_dm_2_periodic_scheduler_8h.html" target="_top" xlink:title=" ">
<polygon fill="white" stroke="black" points="256,-246.5 256,-265.5 395,-265.5 395,-246.5 256,-246.5"/>
<text text-anchor="middle" x="325.5" y="-253.5" font-family="Helvetica,sans-Serif" font-size="10.00">Cpl/Dm/PeriodicScheduler.h</text>
</a>
</g>
</g>
<!-- Node2&#45;&gt;Node3 -->
<g id="edge2" class="edge"><title>Node2&#45;&gt;Node3</title>
<path fill="none" stroke="midnightblue" d="M378.358,-296.101C365.221,-286.382 348.518,-274.027 337.442,-265.834"/>
<polygon fill="midnightblue" stroke="midnightblue" points="376.65,-299.191 386.771,-302.324 380.813,-293.563 376.65,-299.191"/>
</g>
<!-- Node4 -->
<g id="node4" class="node"><title>Node4</title>
<g id="a_node4"><a xlink:href="_chunk_8h.html" target="_top" xlink:title=" ">
<polygon fill="white" stroke="black" points="413,-246.5 413,-265.5 530,-265.5 530,-246.5 413,-246.5"/>
<text text-anchor="middle" x="471.5" y="-253.5" font-family="Helvetica,sans-Serif" font-size="10.00">Cpl/Persistent/Chunk.h</text>
</a>
</g>
</g>
<!-- Node2&#45;&gt;Node4 -->
<g id="edge3" class="edge"><title>Node2&#45;&gt;Node4</title>
<path fill="none" stroke="midnightblue" d="M418.642,-296.101C431.779,-286.382 448.482,-274.027 459.558,-265.834"/>
<polygon fill="midnightblue" stroke="midnightblue" points="416.187,-293.563 410.229,-302.324 420.35,-299.191 416.187,-293.563"/>
</g>
<!-- Node12 -->
<g id="node12" class="node"><title>Node12</title>
<g id="a_node12"><a xlink:href="_persistent_2_record_8h.html" target="_top" xlink:title=" ">
<polygon fill="white" stroke="black" points="117.5,-246.5 117.5,-265.5 237.5,-265.5 237.5,-246.5 117.5,-246.5"/>
<text text-anchor="middle" x="177.5" y="-253.5" font-family="Helvetica,sans-Serif" font-size="10.00">Cpl/Persistent/Record.h</text>
</a>
</g>
</g>
<!-- Node2&#45;&gt;Node12 -->
<g id="edge12" class="edge"><title>Node2&#45;&gt;Node12</title>
<path fill="none" stroke="midnightblue" d="M353.579,-300.024C311.832,-289.823 250.518,-274.841 212.354,-265.516"/>
<polygon fill="midnightblue" stroke="midnightblue" points="352.937,-303.47 363.482,-302.444 354.598,-296.67 352.937,-303.47"/>
</g>
<!-- Node13 -->
<g id="node13" class="node"><title>Node13</title>
<g id="a_node13"><a xlink:href="_record_server_8h.html" target="_top" xlink:title=" ">
<polygon fill="white" stroke="black" points="0,-190.5 0,-209.5 149,-209.5 149,-190.5 0,-190.5"/>
<text text-anchor="middle" x="74.5" y="-197.5" font-family="Helvetica,sans-Serif" font-size="10.00">Cpl/Persistent/RecordServer.h</text>
</a>
</g>
</g>
<!-- Node2&#45;&gt;Node13 -->
<g id="edge17" class="edge"><title>Node2&#45;&gt;Node13</title>
<path fill="none" stroke="midnightblue" d="M327.239,-307.237C252.935,-302.056 142.624,-290.434 108.5,-266 89.2404,-252.21 80.0191,-224.145 76.4161,-209.829"/>
<polygon fill="midnightblue" stroke="midnightblue" points="327.26,-310.746 337.472,-307.926 327.73,-303.762 327.26,-310.746"/>
</g>
<!-- Node14 -->
<g id="node14" class="node"><title>Node14</title>
<g id="a_node14"><a xlink:href="_region_media_8h.html" target="_top" xlink:title=" ">
<polygon fill="white" stroke="black" points="575.5,-246.5 575.5,-265.5 721.5,-265.5 721.5,-246.5 575.5,-246.5"/>
<text text-anchor="middle" x="648.5" y="-253.5" font-family="Helvetica,sans-Serif" font-size="10.00">Cpl/Persistent/RegionMedia.h</text>
</a>
</g>
</g>
<!-- Node2&#45;&gt;Node14 -->
<g id="edge18" class="edge"><title>Node2&#45;&gt;Node14</title>
<path fill="none" stroke="midnightblue" d="M448.123,-300.281C495.366,-290.077 565.536,-274.92 609.072,-265.516"/>
<polygon fill="midnightblue" stroke="midnightblue" points="447.149,-296.911 438.113,-302.444 448.627,-303.753 447.149,-296.911"/>
</g>
<!-- Node5 -->
<g id="node5" class="node"><title>Node5</title>
<g id="a_node5"><a xlink:href="_dm_2_persistent_2_record_8h.html" target="_top" xlink:title=" ">
<polygon fill="white" stroke="black" points="83.5,-134.5 83.5,-153.5 221.5,-153.5 221.5,-134.5 83.5,-134.5"/>
<text text-anchor="middle" x="152.5" y="-141.5" font-family="Helvetica,sans-Serif" font-size="10.00">Cpl/Dm/Persistent/Record.h</text>
</a>
</g>
</g>
<!-- Node4&#45;&gt;Node5 -->
<g id="edge4" class="edge"><title>Node4&#45;&gt;Node5</title>
<path fill="none" stroke="midnightblue" d="M448.257,-241.038C419.845,-224.157 373.235,-197.119 354.5,-190 307.983,-172.324 252.674,-160.602 211.702,-153.566"/>
<polygon fill="midnightblue" stroke="midnightblue" points="446.747,-244.212 457.129,-246.329 450.333,-238.201 446.747,-244.212"/>
</g>
<!-- Node6 -->
<g id="node6" class="node"><title>Node6</title>
<g id="a_node6"><a xlink:href="_crc_chunk_8h.html" target="_top" xlink:title=" ">
<polygon fill="white" stroke="black" points="609.5,-190.5 609.5,-209.5 741.5,-209.5 741.5,-190.5 609.5,-190.5"/>
<text text-anchor="middle" x="675.5" y="-197.5" font-family="Helvetica,sans-Serif" font-size="10.00">Cpl/Persistent/CrcChunk.h</text>
</a>
</g>
</g>
<!-- Node4&#45;&gt;Node6 -->
<g id="edge5" class="edge"><title>Node4&#45;&gt;Node6</title>
<path fill="none" stroke="midnightblue" d="M513.701,-243.829C552.218,-233.633 608.322,-218.782 643.327,-209.516"/>
<polygon fill="midnightblue" stroke="midnightblue" points="512.596,-240.501 503.824,-246.444 514.387,-247.268 512.596,-240.501"/>
</g>
<!-- Node7 -->
<g id="node7" class="node"><title>Node7</title>
<g id="a_node7"><a xlink:href="_data_record_8h.html" target="_top" xlink:title=" ">
<polygon fill="white" stroke="black" points="205.5,-190.5 205.5,-209.5 345.5,-209.5 345.5,-190.5 205.5,-190.5"/>
<text text-anchor="middle" x="275.5" y="-197.5" font-family="Helvetica,sans-Serif" font-size="10.00">Cpl/Persistent/DataRecord.h</text>
</a>
</g>
</g>
<!-- Node4&#45;&gt;Node7 -->
<g id="edge6" class="edge"><title>Node4&#45;&gt;Node7</title>
<path fill="none" stroke="midnightblue" d="M430.48,-243.699C393.489,-233.507 339.9,-218.743 306.411,-209.516"/>
<polygon fill="midnightblue" stroke="midnightblue" points="429.873,-247.162 440.443,-246.444 431.732,-240.413 429.873,-247.162"/>
</g>
<!-- Node9 -->
<g id="node9" class="node"><title>Node9</title>
<g id="a_node9"><a xlink:href="_indexed_entry_record_8h.html" target="_top" xlink:title=" ">
<polygon fill="white" stroke="black" points="342,-67.5 342,-97.5 481,-97.5 481,-67.5 342,-67.5"/>
<text text-anchor="start" x="350" y="-85.5" font-family="Helvetica,sans-Serif" font-size="10.00">Cpl/Persistent/IndexedEntry</text>
<text text-anchor="middle" x="411.5" y="-74.5" font-family="Helvetica,sans-Serif" font-size="10.00">Record.h</text>
</a>
</g>
</g>
<!-- Node4&#45;&gt;Node9 -->
<g id="edge10" class="edge"><title>Node4&#45;&gt;Node9</title>
<path fill="none" stroke="midnightblue" d="M452.999,-239.422C444.786,-231.473 435.798,-221.138 430.5,-210 412.565,-172.297 410.725,-121.748 411.013,-97.554"/>
<polygon fill="midnightblue" stroke="midnightblue" points="450.745,-242.104 460.49,-246.261 455.465,-236.934 450.745,-242.104"/>
</g>
<!-- Node11 -->
<g id="node11" class="node"><title>Node11</title>
<g id="a_node11"><a xlink:href="_mirrored_chunk_8h.html" target="_top" xlink:title=" ">
<polygon fill="white" stroke="black" points="439.5,-190.5 439.5,-209.5 591.5,-209.5 591.5,-190.5 439.5,-190.5"/>
<text text-anchor="middle" x="515.5" y="-197.5" font-family="Helvetica,sans-Serif" font-size="10.00">Cpl/Persistent/MirroredChunk.h</text>
</a>
</g>
</g>
<!-- Node4&#45;&gt;Node11 -->
<g id="edge11" class="edge"><title>Node4&#45;&gt;Node11</title>
<path fill="none" stroke="midnightblue" d="M485.235,-238.144C492.901,-228.736 502.133,-217.405 508.369,-209.751"/>
<polygon fill="midnightblue" stroke="midnightblue" points="482.369,-236.12 478.766,-246.083 487.796,-240.541 482.369,-236.12"/>
</g>
<!-- Node8 -->
<g id="node8" class="node"><title>Node8</title>
<g id="a_node8"><a xlink:href="_index_record_8h.html" target="_top" xlink:title=" ">
<polygon fill="white" stroke="black" points="239.5,-134.5 239.5,-153.5 383.5,-153.5 383.5,-134.5 239.5,-134.5"/>
<text text-anchor="middle" x="311.5" y="-141.5" font-family="Helvetica,sans-Serif" font-size="10.00">Cpl/Persistent/IndexRecord.h</text>
</a>
</g>
</g>
<!-- Node7&#45;&gt;Node8 -->
<g id="edge7" class="edge"><title>Node7&#45;&gt;Node8</title>
<path fill="none" stroke="midnightblue" d="M287.123,-181.566C293.317,-172.275 300.668,-161.248 305.666,-153.751"/>
<polygon fill="midnightblue" stroke="midnightblue" points="284.08,-179.821 281.445,-190.083 289.904,-183.704 284.08,-179.821"/>
</g>
<!-- Node8&#45;&gt;Node9 -->
<g id="edge8" class="edge"><title>Node8&#45;&gt;Node9</title>
<path fill="none" stroke="midnightblue" d="M334.565,-129.276C350.569,-119.754 371.82,-107.11 387.932,-97.523"/>
<polygon fill="midnightblue" stroke="midnightblue" points="332.632,-126.354 325.828,-134.475 336.211,-132.37 332.632,-126.354"/>
</g>
<!-- Node10 -->
<g id="node10" class="node"><title>Node10</title>
<g id="a_node10"><a xlink:href="_indexed_entry_server_8h.html" target="_top" xlink:title=" ">
<polygon fill="white" stroke="black" points="342,-0.5 342,-30.5 481,-30.5 481,-0.5 342,-0.5"/>
<text text-anchor="start" x="350" y="-18.5" font-family="Helvetica,sans-Serif" font-size="10.00">Cpl/Persistent/IndexedEntry</text>
<text text-anchor="middle" x="411.5" y="-7.5" font-family="Helvetica,sans-Serif" font-size="10.00">Server.h</text>
</a>
</g>
</g>
<!-- Node9&#45;&gt;Node10 -->
<g id="edge9" class="edge"><title>Node9&#45;&gt;Node10</title>
<path fill="none" stroke="midnightblue" d="M411.5,-57.1081C411.5,-48.1539 411.5,-38.3227 411.5,-30.5765"/>
<polygon fill="midnightblue" stroke="midnightblue" points="408,-57.3959 411.5,-67.396 415,-57.396 408,-57.3959"/>
</g>
<!-- Node12&#45;&gt;Node5 -->
<g id="edge13" class="edge"><title>Node12&#45;&gt;Node5</title>
<path fill="none" stroke="midnightblue" d="M173.261,-236.348C167.785,-212.254 158.479,-171.308 154.453,-153.591"/>
<polygon fill="midnightblue" stroke="midnightblue" points="169.909,-237.393 175.538,-246.368 176.735,-235.841 169.909,-237.393"/>
</g>
<!-- Node12&#45;&gt;Node7 -->
<g id="edge14" class="edge"><title>Node12&#45;&gt;Node7</title>
<path fill="none" stroke="midnightblue" d="M202.086,-241.453C220.178,-231.483 244.235,-218.228 259.794,-209.655"/>
<polygon fill="midnightblue" stroke="midnightblue" points="200.315,-238.432 193.245,-246.324 203.693,-244.563 200.315,-238.432"/>
</g>
<!-- Node12&#45;&gt;Node13 -->
<g id="edge15" class="edge"><title>Node12&#45;&gt;Node13</title>
<path fill="none" stroke="midnightblue" d="M151.921,-241.59C132.877,-231.605 107.436,-218.267 91.0077,-209.655"/>
<polygon fill="midnightblue" stroke="midnightblue" points="150.469,-244.78 160.951,-246.324 153.72,-238.581 150.469,-244.78"/>
</g>
<!-- Node13&#45;&gt;Node5 -->
<g id="edge16" class="edge"><title>Node13&#45;&gt;Node5</title>
<path fill="none" stroke="midnightblue" d="M95.268,-184.622C109.517,-174.757 127.956,-161.992 139.999,-153.655"/>
<polygon fill="midnightblue" stroke="midnightblue" points="93.2617,-181.754 87.032,-190.324 97.2462,-187.51 93.2617,-181.754"/>
</g>
<!-- Node14&#45;&gt;Node6 -->
<g id="edge19" class="edge"><title>Node14&#45;&gt;Node6</title>
<path fill="none" stroke="midnightblue" d="M657.509,-236.983C662.092,-227.817 667.454,-217.092 671.124,-209.751"/>
<polygon fill="midnightblue" stroke="midnightblue" points="654.3,-235.573 652.959,-246.083 660.561,-238.704 654.3,-235.573"/>
</g>
<!-- Node14&#45;&gt;Node9 -->
<g id="edge21" class="edge"><title>Node14&#45;&gt;Node9</title>
<path fill="none" stroke="midnightblue" d="M696.77,-243.643C731.427,-233.102 769.013,-215.221 750.5,-190 718.422,-146.299 570.613,-112.407 481.096,-95.452"/>
<polygon fill="midnightblue" stroke="midnightblue" points="695.763,-240.291 687.122,-246.422 697.7,-247.018 695.763,-240.291"/>
</g>
<!-- Node14&#45;&gt;Node11 -->
<g id="edge22" class="edge"><title>Node14&#45;&gt;Node11</title>
<path fill="none" stroke="midnightblue" d="M618.052,-242.638C593.093,-232.504 558.423,-218.427 536.476,-209.516"/>
<polygon fill="midnightblue" stroke="midnightblue" points="616.844,-245.924 627.426,-246.444 619.477,-239.439 616.844,-245.924"/>
</g>
<!-- Node15 -->
<g id="node15" class="node"><title>Node15</title>
<g id="a_node15"><a xlink:href="_file_adapter_8h.html" target="_top" xlink:title=" ">
<polygon fill="white" stroke="black" points="798,-190.5 798,-209.5 937,-209.5 937,-190.5 798,-190.5"/>
<text text-anchor="middle" x="867.5" y="-197.5" font-family="Helvetica,sans-Serif" font-size="10.00">Cpl/Persistent/FileAdapter.h</text>
</a>
</g>
</g>
<!-- Node14&#45;&gt;Node15 -->
<g id="edge20" class="edge"><title>Node14&#45;&gt;Node15</title>
<path fill="none" stroke="midnightblue" d="M693.015,-244.024C734.384,-233.823 795.143,-218.841 832.961,-209.516"/>
<polygon fill="midnightblue" stroke="midnightblue" points="692.072,-240.651 683.201,-246.444 693.748,-247.448 692.072,-240.651"/>
</g>
<!-- Node17 -->
<g id="node17" class="node"><title>Node17</title>
<g id="a_node17"><a xlink:href="_itc_2_periodic_scheduler_8h.html" target="_top" xlink:title=" ">
<polygon fill="white" stroke="black" points="740,-246.5 740,-265.5 875,-265.5 875,-246.5 740,-246.5"/>
<text text-anchor="middle" x="807.5" y="-253.5" font-family="Helvetica,sans-Serif" font-size="10.00">Cpl/Itc/PeriodicScheduler.h</text>
</a>
</g>
</g>
<!-- Node16&#45;&gt;Node17 -->
<g id="edge24" class="edge"><title>Node16&#45;&gt;Node17</title>
<path fill="none" stroke="midnightblue" d="M722.749,-297.862C743.516,-287.849 771.523,-274.346 789.55,-265.655"/>
<polygon fill="midnightblue" stroke="midnightblue" points="720.982,-294.828 713.495,-302.324 724.023,-301.134 720.982,-294.828"/>
</g>
</g>
</svg>
