<?xml version="1.0" encoding="UTF-8" standalone="no"?>
<!DOCTYPE svg PUBLIC "-//W3C//DTD SVG 1.1//EN"
 "http://www.w3.org/Graphics/SVG/1.1/DTD/svg11.dtd">
<!-- Generated by graphviz version 2.38.0 (20140413.2041)
 -->
<!-- Title: Cpl/Container/MapItem.h Pages: 1 -->
<svg width="1902pt" height="419pt"
 viewBox="0.00 0.00 1901.50 419.00" xmlns="http://www.w3.org/2000/svg" xmlns:xlink="http://www.w3.org/1999/xlink">
<g id="graph0" class="graph" transform="scale(1 1) rotate(0) translate(4 415)">
<title>Cpl/Container/MapItem.h</title>
<polygon fill="white" stroke="none" points="-4,4 -4,-415 1897.5,-415 1897.5,4 -4,4"/>
<!-- Node1 -->
<g id="node1" class="node"><title>Node1</title>
<g id="a_node1"><a xlink:title=" ">
<polygon fill="#bfbfbf" stroke="black" points="1277,-391.5 1277,-410.5 1402,-410.5 1402,-391.5 1277,-391.5"/>
<text text-anchor="middle" x="1339.5" y="-398.5" font-family="Helvetica,sans-Serif" font-size="10.00">Cpl/Container/MapItem.h</text>
</a>
</g>
</g>
<!-- Node2 -->
<g id="node2" class="node"><title>Node2</title>
<g id="a_node2"><a xlink:href="_avl_tree___8h.html" target="_top" xlink:title=" ">
<polygon fill="white" stroke="black" points="1219,-335.5 1219,-354.5 1344,-354.5 1344,-335.5 1219,-335.5"/>
<text text-anchor="middle" x="1281.5" y="-342.5" font-family="Helvetica,sans-Serif" font-size="10.00">Cpl/Container/AvlTree_.h</text>
</a>
</g>
</g>
<!-- Node1&#45;&gt;Node2 -->
<g id="edge1" class="edge"><title>Node1&#45;&gt;Node2</title>
<path fill="none" stroke="midnightblue" d="M1322.59,-384.253C1312.3,-374.673 1299.53,-362.791 1290.99,-354.834"/>
<polygon fill="midnightblue" stroke="midnightblue" points="1320.48,-387.071 1330.18,-391.324 1325.25,-381.948 1320.48,-387.071"/>
</g>
<!-- Node30 -->
<g id="node30" class="node"><title>Node30</title>
<g id="a_node30"><a xlink:href="_command_8h.html" target="_top" xlink:title=" ">
<polygon fill="white" stroke="black" points="1035,-274 1035,-293 1152,-293 1152,-274 1035,-274"/>
<text text-anchor="middle" x="1093.5" y="-281" font-family="Helvetica,sans-Serif" font-size="10.00">Cpl/TShell/Command.h</text>
</a>
</g>
</g>
<!-- Node1&#45;&gt;Node30 -->
<g id="edge30" class="edge"><title>Node1&#45;&gt;Node30</title>
<path fill="none" stroke="midnightblue" d="M1299.51,-388.582C1273.35,-380.527 1238.72,-368.747 1209.5,-355 1169.62,-336.242 1126.11,-307.271 1105.55,-293.016"/>
<polygon fill="midnightblue" stroke="midnightblue" points="1298.51,-391.936 1309.1,-391.483 1300.54,-385.236 1298.51,-391.936"/>
</g>
<!-- Node31 -->
<g id="node31" class="node"><title>Node31</title>
<g id="a_node31"><a xlink:href="_string_item_8h.html" target="_top" xlink:title=" ">
<polygon fill="white" stroke="black" points="1577.5,-335.5 1577.5,-354.5 1687.5,-354.5 1687.5,-335.5 1577.5,-335.5"/>
<text text-anchor="middle" x="1632.5" y="-342.5" font-family="Helvetica,sans-Serif" font-size="10.00">Cpl/Text/StringItem.h</text>
</a>
</g>
</g>
<!-- Node1&#45;&gt;Node31 -->
<g id="edge34" class="edge"><title>Node1&#45;&gt;Node31</title>
<path fill="none" stroke="midnightblue" d="M1395.93,-389.601C1451.3,-379.395 1534.73,-364.019 1586.29,-354.516"/>
<polygon fill="midnightblue" stroke="midnightblue" points="1395.13,-386.189 1385.93,-391.444 1396.4,-393.073 1395.13,-386.189"/>
</g>
<!-- Node35 -->
<g id="node35" class="node"><title>Node35</title>
<g id="a_node35"><a xlink:href="_rx_frame_handler_api_8h.html" target="_top" xlink:title=" ">
<polygon fill="white" stroke="black" points="1339.5,-268.5 1339.5,-298.5 1485.5,-298.5 1485.5,-268.5 1339.5,-268.5"/>
<text text-anchor="start" x="1347.5" y="-286.5" font-family="Helvetica,sans-Serif" font-size="10.00">Driver/TPipe/RxFrameHandler</text>
<text text-anchor="middle" x="1412.5" y="-275.5" font-family="Helvetica,sans-Serif" font-size="10.00">Api.h</text>
</a>
</g>
</g>
<!-- Node1&#45;&gt;Node35 -->
<g id="edge38" class="edge"><title>Node1&#45;&gt;Node35</title>
<path fill="none" stroke="midnightblue" d="M1350.48,-382.63C1364.98,-359.679 1390.26,-319.695 1403.62,-298.545"/>
<polygon fill="midnightblue" stroke="midnightblue" points="1347.37,-380.996 1344.99,-391.319 1353.29,-384.736 1347.37,-380.996"/>
</g>
<!-- Node3 -->
<g id="node3" class="node"><title>Node3</title>
<g id="a_node3"><a xlink:href="_map_8h.html" target="_top" xlink:title=" ">
<polygon fill="white" stroke="black" points="1216,-274 1216,-293 1321,-293 1321,-274 1216,-274"/>
<text text-anchor="middle" x="1268.5" y="-281" font-family="Helvetica,sans-Serif" font-size="10.00">Cpl/Container/Map.h</text>
</a>
</g>
</g>
<!-- Node2&#45;&gt;Node3 -->
<g id="edge2" class="edge"><title>Node2&#45;&gt;Node3</title>
<path fill="none" stroke="midnightblue" d="M1277.49,-325.657C1275.11,-314.772 1272.21,-301.486 1270.36,-293.009"/>
<polygon fill="midnightblue" stroke="midnightblue" points="1274.08,-326.453 1279.64,-335.475 1280.92,-324.958 1274.08,-326.453"/>
</g>
<!-- Node4 -->
<g id="node4" class="node"><title>Node4</title>
<g id="a_node4"><a xlink:href="_cmd_2_command_8h.html" target="_top" xlink:title=" ">
<polygon fill="white" stroke="black" points="865.5,-140 865.5,-159 1005.5,-159 1005.5,-140 865.5,-140"/>
<text text-anchor="middle" x="935.5" y="-147" font-family="Helvetica,sans-Serif" font-size="10.00">Cpl/TShell/Cmd/Command.h</text>
</a>
</g>
</g>
<!-- Node3&#45;&gt;Node4 -->
<g id="edge3" class="edge"><title>Node3&#45;&gt;Node4</title>
<path fill="none" stroke="midnightblue" d="M1263.12,-264.364C1256.52,-245.415 1243.41,-216.351 1221.5,-201 1187.49,-177.164 1078.8,-163.093 1005.64,-156.089"/>
<polygon fill="midnightblue" stroke="midnightblue" points="1259.81,-265.492 1266.21,-273.936 1266.47,-263.345 1259.81,-265.492"/>
</g>
<!-- Node19 -->
<g id="node19" class="node"><title>Node19</title>
<g id="a_node19"><a xlink:href="_context___8h.html" target="_top" xlink:title=" ">
<polygon fill="white" stroke="black" points="963.5,-207 963.5,-226 1075.5,-226 1075.5,-207 963.5,-207"/>
<text text-anchor="middle" x="1019.5" y="-214" font-family="Helvetica,sans-Serif" font-size="10.00">Cpl/TShell/Context_.h</text>
</a>
</g>
</g>
<!-- Node3&#45;&gt;Node19 -->
<g id="edge18" class="edge"><title>Node3&#45;&gt;Node19</title>
<path fill="none" stroke="midnightblue" d="M1225.99,-271.404C1176.85,-258.576 1097.02,-237.736 1052.38,-226.083"/>
<polygon fill="midnightblue" stroke="midnightblue" points="1225.13,-274.796 1235.69,-273.936 1226.9,-268.023 1225.13,-274.796"/>
</g>
<!-- Node24 -->
<g id="node24" class="node"><title>Node24</title>
<g id="a_node24"><a xlink:href="_driver_2_button_2_t_pipe_2_hal_8h.html" target="_top" xlink:title="This file defines the concrete implementation for the Button HAL that gets its raw inputs via a Drive...">
<polygon fill="white" stroke="black" points="1269.5,-201.5 1269.5,-231.5 1371.5,-231.5 1371.5,-201.5 1269.5,-201.5"/>
<text text-anchor="start" x="1277.5" y="-219.5" font-family="Helvetica,sans-Serif" font-size="10.00">Driver/Button/TPipe</text>
<text text-anchor="middle" x="1320.5" y="-208.5" font-family="Helvetica,sans-Serif" font-size="10.00">/Hal.h</text>
</a>
</g>
</g>
<!-- Node3&#45;&gt;Node24 -->
<g id="edge24" class="edge"><title>Node3&#45;&gt;Node24</title>
<path fill="none" stroke="midnightblue" d="M1281.96,-265.673C1290.42,-255.094 1301.22,-241.602 1309.23,-231.589"/>
<polygon fill="midnightblue" stroke="midnightblue" points="1279.03,-263.739 1275.51,-273.734 1284.49,-268.112 1279.03,-263.739"/>
</g>
<!-- Node25 -->
<g id="node25" class="node"><title>Node25</title>
<g id="a_node25"><a xlink:href="_pipe_8h.html" target="_top" xlink:title=" ">
<polygon fill="white" stroke="black" points="1390,-207 1390,-226 1491,-226 1491,-207 1390,-207"/>
<text text-anchor="middle" x="1440.5" y="-214" font-family="Helvetica,sans-Serif" font-size="10.00">Driver/TPipe/Pipe.h</text>
</a>
</g>
</g>
<!-- Node3&#45;&gt;Node25 -->
<g id="edge25" class="edge"><title>Node3&#45;&gt;Node25</title>
<path fill="none" stroke="midnightblue" d="M1300.86,-270.271C1335,-257.37 1387.91,-237.376 1417.84,-226.064"/>
<polygon fill="midnightblue" stroke="midnightblue" points="1299.46,-267.059 1291.34,-273.869 1301.93,-273.607 1299.46,-267.059"/>
</g>
<!-- Node28 -->
<g id="node28" class="node"><title>Node28</title>
<g id="a_node28"><a xlink:href="_rx_frame_handler_8h.html" target="_top" xlink:title=" ">
<polygon fill="white" stroke="black" points="1509,-207 1509,-226 1664,-226 1664,-207 1509,-207"/>
<text text-anchor="middle" x="1586.5" y="-214" font-family="Helvetica,sans-Serif" font-size="10.00">Driver/TPipe/RxFrameHandler.h</text>
</a>
</g>
</g>
<!-- Node3&#45;&gt;Node28 -->
<g id="edge28" class="edge"><title>Node3&#45;&gt;Node28</title>
<path fill="none" stroke="midnightblue" d="M1314.04,-271.657C1319.58,-270.395 1325.16,-269.15 1330.5,-268 1403.79,-252.206 1489.31,-235.727 1540.62,-226.05"/>
<polygon fill="midnightblue" stroke="midnightblue" points="1313.15,-268.272 1304.19,-273.929 1314.72,-275.093 1313.15,-268.272"/>
</g>
<!-- Node29 -->
<g id="node29" class="node"><title>Node29</title>
<g id="a_node29"><a xlink:href="_main_8h.html" target="_top" xlink:title="This file defines the hardware/platform independent start&#45;up interface(s) for the Storm::Thermostat a...">
<polygon fill="white" stroke="black" points="1094,-201.5 1094,-231.5 1213,-231.5 1213,-201.5 1094,-201.5"/>
<text text-anchor="start" x="1102" y="-219.5" font-family="Helvetica,sans-Serif" font-size="10.00">Storm/Thermostat/Main</text>
<text text-anchor="middle" x="1153.5" y="-208.5" font-family="Helvetica,sans-Serif" font-size="10.00">/Main.h</text>
</a>
</g>
</g>
<!-- Node3&#45;&gt;Node29 -->
<g id="edge29" class="edge"><title>Node3&#45;&gt;Node29</title>
<path fill="none" stroke="midnightblue" d="M1244.18,-268.753C1224.85,-257.827 1197.91,-242.603 1178.43,-231.589"/>
<polygon fill="midnightblue" stroke="midnightblue" points="1242.56,-271.86 1252.99,-273.734 1246.01,-265.766 1242.56,-271.86"/>
</g>
<!-- Node5 -->
<g id="node5" class="node"><title>Node5</title>
<g id="a_node5"><a xlink:href="_dm_8h.html" target="_top" xlink:title=" ">
<polygon fill="white" stroke="black" points="818.5,-73 818.5,-92 924.5,-92 924.5,-73 818.5,-73"/>
<text text-anchor="middle" x="871.5" y="-80" font-family="Helvetica,sans-Serif" font-size="10.00">Cpl/Dm/TShell/Dm.h</text>
</a>
</g>
</g>
<!-- Node4&#45;&gt;Node5 -->
<g id="edge4" class="edge"><title>Node4&#45;&gt;Node5</title>
<path fill="none" stroke="midnightblue" d="M919.743,-132.497C907.192,-119.75 890.104,-102.395 879.995,-92.1273"/>
<polygon fill="midnightblue" stroke="midnightblue" points="917.359,-135.064 926.869,-139.734 922.347,-130.152 917.359,-135.064"/>
</g>
<!-- Node6 -->
<g id="node6" class="node"><title>Node6</title>
<g id="a_node6"><a xlink:href="_bye_8h.html" target="_top" xlink:title=" ">
<polygon fill="white" stroke="black" points="943,-73 943,-92 1056,-92 1056,-73 943,-73"/>
<text text-anchor="middle" x="999.5" y="-80" font-family="Helvetica,sans-Serif" font-size="10.00">Cpl/TShell/Cmd/Bye.h</text>
</a>
</g>
</g>
<!-- Node4&#45;&gt;Node6 -->
<g id="edge5" class="edge"><title>Node4&#45;&gt;Node6</title>
<path fill="none" stroke="midnightblue" d="M951.257,-132.497C963.808,-119.75 980.896,-102.395 991.005,-92.1273"/>
<polygon fill="midnightblue" stroke="midnightblue" points="948.653,-130.152 944.131,-139.734 953.641,-135.064 948.653,-130.152"/>
</g>
<!-- Node7 -->
<g id="node7" class="node"><title>Node7</title>
<g id="a_node7"><a xlink:href="_help_8h.html" target="_top" xlink:title=" ">
<polygon fill="white" stroke="black" points="1074.5,-73 1074.5,-92 1190.5,-92 1190.5,-73 1074.5,-73"/>
<text text-anchor="middle" x="1132.5" y="-80" font-family="Helvetica,sans-Serif" font-size="10.00">Cpl/TShell/Cmd/Help.h</text>
</a>
</g>
</g>
<!-- Node4&#45;&gt;Node7 -->
<g id="edge6" class="edge"><title>Node4&#45;&gt;Node7</title>
<path fill="none" stroke="midnightblue" d="M971.562,-136.601C1010.62,-123.714 1071.97,-103.473 1106.55,-92.0637"/>
<polygon fill="midnightblue" stroke="midnightblue" points="970.06,-133.411 961.66,-139.869 972.253,-140.059 970.06,-133.411"/>
</g>
<!-- Node8 -->
<g id="node8" class="node"><title>Node8</title>
<g id="a_node8"><a xlink:href="_t_print_8h.html" target="_top" xlink:title=" ">
<polygon fill="white" stroke="black" points="1208.5,-73 1208.5,-92 1330.5,-92 1330.5,-73 1208.5,-73"/>
<text text-anchor="middle" x="1269.5" y="-80" font-family="Helvetica,sans-Serif" font-size="10.00">Cpl/TShell/Cmd/TPrint.h</text>
</a>
</g>
</g>
<!-- Node4&#45;&gt;Node8 -->
<g id="edge7" class="edge"><title>Node4&#45;&gt;Node8</title>
<path fill="none" stroke="midnightblue" d="M991.286,-138.084C1044.75,-128.042 1127.7,-112.303 1199.5,-98 1208.99,-96.1088 1219.2,-94.0239 1228.8,-92.039"/>
<polygon fill="midnightblue" stroke="midnightblue" points="990.509,-134.669 981.326,-139.953 991.8,-141.549 990.509,-134.669"/>
</g>
<!-- Node9 -->
<g id="node9" class="node"><title>Node9</title>
<g id="a_node9"><a xlink:href="_threads_8h.html" target="_top" xlink:title=" ">
<polygon fill="white" stroke="black" points="1349,-73 1349,-92 1480,-92 1480,-73 1349,-73"/>
<text text-anchor="middle" x="1414.5" y="-80" font-family="Helvetica,sans-Serif" font-size="10.00">Cpl/TShell/Cmd/Threads.h</text>
</a>
</g>
</g>
<!-- Node4&#45;&gt;Node9 -->
<g id="edge8" class="edge"><title>Node4&#45;&gt;Node9</title>
<path fill="none" stroke="midnightblue" d="M1015.98,-140.038C1097.67,-131.073 1227.7,-115.774 1339.5,-98 1350.37,-96.2717 1362.08,-94.1399 1372.93,-92.0479"/>
<polygon fill="midnightblue" stroke="midnightblue" points="1015.33,-136.588 1005.77,-141.153 1016.09,-143.547 1015.33,-136.588"/>
</g>
<!-- Node12 -->
<g id="node12" class="node"><title>Node12</title>
<g id="a_node12"><a xlink:href="_tick_8h.html" target="_top" xlink:title=" ">
<polygon fill="white" stroke="black" points="1498,-73 1498,-92 1613,-92 1613,-73 1498,-73"/>
<text text-anchor="middle" x="1555.5" y="-80" font-family="Helvetica,sans-Serif" font-size="10.00">Cpl/TShell/Cmd/Tick.h</text>
</a>
</g>
</g>
<!-- Node4&#45;&gt;Node12 -->
<g id="edge11" class="edge"><title>Node4&#45;&gt;Node12</title>
<path fill="none" stroke="midnightblue" d="M1015.83,-144.247C1123.78,-137.83 1321.41,-123.612 1488.5,-98 1498.73,-96.4312 1509.75,-94.2541 1519.84,-92.0632"/>
<polygon fill="midnightblue" stroke="midnightblue" points="1015.45,-140.764 1005.67,-144.844 1015.86,-147.752 1015.45,-140.764"/>
</g>
<!-- Node13 -->
<g id="node13" class="node"><title>Node13</title>
<g id="a_node13"><a xlink:href="_t_shell_2_cmd_2_trace_8h.html" target="_top" xlink:title=" ">
<polygon fill="white" stroke="black" points="0,-73 0,-92 121,-92 121,-73 0,-73"/>
<text text-anchor="middle" x="60.5" y="-80" font-family="Helvetica,sans-Serif" font-size="10.00">Cpl/TShell/Cmd/Trace.h</text>
</a>
</g>
</g>
<!-- Node4&#45;&gt;Node13 -->
<g id="edge12" class="edge"><title>Node4&#45;&gt;Node13</title>
<path fill="none" stroke="midnightblue" d="M855.297,-147.223C710.106,-144.078 394.283,-133.413 130.5,-98 119.43,-96.5138 107.491,-94.2804 96.6637,-92.009"/>
<polygon fill="midnightblue" stroke="midnightblue" points="855.382,-150.726 865.453,-147.437 855.529,-143.727 855.382,-150.726"/>
</g>
<!-- Node14 -->
<g id="node14" class="node"><title>Node14</title>
<g id="a_node14"><a xlink:href="_state_8h.html" target="_top" xlink:title=" ">
<polygon fill="white" stroke="black" points="139.5,-73 139.5,-92 247.5,-92 247.5,-73 139.5,-73"/>
<text text-anchor="middle" x="193.5" y="-80" font-family="Helvetica,sans-Serif" font-size="10.00">Storm/TShell/State.h</text>
</a>
</g>
</g>
<!-- Node4&#45;&gt;Node14 -->
<g id="edge13" class="edge"><title>Node4&#45;&gt;Node14</title>
<path fill="none" stroke="midnightblue" d="M855.143,-146.473C727.607,-142.37 471.287,-130.512 256.5,-98 246.624,-96.505 236,-94.297 226.342,-92.0524"/>
<polygon fill="midnightblue" stroke="midnightblue" points="855.113,-149.973 865.218,-146.789 855.333,-142.977 855.113,-149.973"/>
</g>
<!-- Node15 -->
<g id="node15" class="node"><title>Node15</title>
<g id="a_node15"><a xlink:href="_user_8h.html" target="_top" xlink:title=" ">
<polygon fill="white" stroke="black" points="266,-73 266,-92 371,-92 371,-73 266,-73"/>
<text text-anchor="middle" x="318.5" y="-80" font-family="Helvetica,sans-Serif" font-size="10.00">Storm/TShell/User.h</text>
</a>
</g>
</g>
<!-- Node4&#45;&gt;Node15 -->
<g id="edge14" class="edge"><title>Node4&#45;&gt;Node15</title>
<path fill="none" stroke="midnightblue" d="M855.102,-144.806C746.58,-138.999 547.459,-125.446 379.5,-98 370.046,-96.4552 359.884,-94.2591 350.617,-92.0419"/>
<polygon fill="midnightblue" stroke="midnightblue" points="855.146,-148.313 865.317,-145.344 855.515,-141.323 855.146,-148.313"/>
</g>
<!-- Node16 -->
<g id="node16" class="node"><title>Node16</title>
<g id="a_node16"><a xlink:href="_t_shell_2_white_box_8h.html" target="_top" xlink:title=" ">
<polygon fill="white" stroke="black" points="389,-73 389,-92 516,-92 516,-73 389,-73"/>
<text text-anchor="middle" x="452.5" y="-80" font-family="Helvetica,sans-Serif" font-size="10.00">Storm/TShell/WhiteBox.h</text>
</a>
</g>
</g>
<!-- Node4&#45;&gt;Node16 -->
<g id="edge15" class="edge"><title>Node4&#45;&gt;Node16</title>
<path fill="none" stroke="midnightblue" d="M855.171,-140.372C772.332,-131.576 639.528,-116.322 525.5,-98 514.784,-96.2781 503.24,-94.1251 492.566,-92.0092"/>
<polygon fill="midnightblue" stroke="midnightblue" points="854.959,-143.868 865.271,-141.438 855.694,-136.907 854.959,-143.868"/>
</g>
<!-- Node17 -->
<g id="node17" class="node"><title>Node17</title>
<g id="a_node17"><a xlink:href="filter_8h.html" target="_top" xlink:title=" ">
<polygon fill="white" stroke="black" points="534.5,-73 534.5,-92 638.5,-92 638.5,-73 534.5,-73"/>
<text text-anchor="middle" x="586.5" y="-80" font-family="Helvetica,sans-Serif" font-size="10.00">Storm/TShell/filter.h</text>
</a>
</g>
</g>
<!-- Node4&#45;&gt;Node17 -->
<g id="edge16" class="edge"><title>Node4&#45;&gt;Node17</title>
<path fill="none" stroke="midnightblue" d="M870.97,-138.318C812.463,-128.818 723.946,-113.773 647.5,-98 638.865,-96.2183 629.587,-94.1124 620.938,-92.0659"/>
<polygon fill="midnightblue" stroke="midnightblue" points="870.744,-141.827 881.174,-139.968 871.861,-134.917 870.744,-141.827"/>
</g>
<!-- Node18 -->
<g id="node18" class="node"><title>Node18</title>
<g id="a_node18"><a xlink:href="_cmd_8h.html" target="_top" xlink:title=" ">
<polygon fill="white" stroke="black" points="657,-67.5 657,-97.5 800,-97.5 800,-67.5 657,-67.5"/>
<text text-anchor="start" x="665" y="-85.5" font-family="Helvetica,sans-Serif" font-size="10.00">Storm/Thermostat/SimHouse</text>
<text text-anchor="middle" x="728.5" y="-74.5" font-family="Helvetica,sans-Serif" font-size="10.00">/Cmd.h</text>
</a>
</g>
</g>
<!-- Node4&#45;&gt;Node18 -->
<g id="edge17" class="edge"><title>Node4&#45;&gt;Node18</title>
<path fill="none" stroke="midnightblue" d="M898.16,-136.775C863.06,-125.753 810.483,-109.244 773.174,-97.5281"/>
<polygon fill="midnightblue" stroke="midnightblue" points="897.423,-140.212 908.012,-139.869 899.52,-133.533 897.423,-140.212"/>
</g>
<!-- Node10 -->
<g id="node10" class="node"><title>Node10</title>
<g id="a_node10"><a xlink:href="_free_r_t_o_s_2_threads_8h.html" target="_top" xlink:title=" ">
<polygon fill="white" stroke="black" points="1419.5,-0.5 1419.5,-30.5 1553.5,-30.5 1553.5,-0.5 1419.5,-0.5"/>
<text text-anchor="start" x="1427.5" y="-18.5" font-family="Helvetica,sans-Serif" font-size="10.00">Cpl/TShell/Cmd/FreeRTOS</text>
<text text-anchor="middle" x="1486.5" y="-7.5" font-family="Helvetica,sans-Serif" font-size="10.00">/Threads.h</text>
</a>
</g>
</g>
<!-- Node9&#45;&gt;Node10 -->
<g id="edge9" class="edge"><title>Node9&#45;&gt;Node10</title>
<path fill="none" stroke="midnightblue" d="M1431.75,-65.928C1443.66,-55.1788 1459.36,-41.0024 1470.89,-30.589"/>
<polygon fill="midnightblue" stroke="midnightblue" points="1429.29,-63.4348 1424.21,-72.7338 1433.98,-68.6307 1429.29,-63.4348"/>
</g>
<!-- Node11 -->
<g id="node11" class="node"><title>Node11</title>
<g id="a_node11"><a xlink:href="_win32_2_threads_8h.html" target="_top" xlink:title=" ">
<polygon fill="white" stroke="black" points="1286,-0.5 1286,-30.5 1401,-30.5 1401,-0.5 1286,-0.5"/>
<text text-anchor="start" x="1294" y="-18.5" font-family="Helvetica,sans-Serif" font-size="10.00">Cpl/TShell/Cmd/Win32</text>
<text text-anchor="middle" x="1343.5" y="-7.5" font-family="Helvetica,sans-Serif" font-size="10.00">/Threads.h</text>
</a>
</g>
</g>
<!-- Node9&#45;&gt;Node11 -->
<g id="edge10" class="edge"><title>Node9&#45;&gt;Node11</title>
<path fill="none" stroke="midnightblue" d="M1397.49,-65.928C1385.75,-55.1788 1370.26,-41.0024 1358.89,-30.589"/>
<polygon fill="midnightblue" stroke="midnightblue" points="1395.19,-68.5628 1404.92,-72.7338 1399.91,-63.3997 1395.19,-68.5628"/>
</g>
<!-- Node19&#45;&gt;Node4 -->
<g id="edge19" class="edge"><title>Node19&#45;&gt;Node4</title>
<path fill="none" stroke="midnightblue" d="M1000.2,-200.568C983.622,-187.738 960.293,-169.685 946.649,-159.127"/>
<polygon fill="midnightblue" stroke="midnightblue" points="998.121,-203.382 1008.17,-206.734 1002.4,-197.846 998.121,-203.382"/>
</g>
<!-- Node20 -->
<g id="node20" class="node"><title>Node20</title>
<g id="a_node20"><a xlink:href="_processor_8h.html" target="_top" xlink:title=" ">
<polygon fill="white" stroke="black" points="1257,-140 1257,-159 1374,-159 1374,-140 1257,-140"/>
<text text-anchor="middle" x="1315.5" y="-147" font-family="Helvetica,sans-Serif" font-size="10.00">Cpl/TShell/Processor.h</text>
</a>
</g>
</g>
<!-- Node19&#45;&gt;Node20 -->
<g id="edge20" class="edge"><title>Node19&#45;&gt;Node20</title>
<path fill="none" stroke="midnightblue" d="M1067.72,-204.718C1073.38,-203.461 1079.07,-202.2 1084.5,-201 1151.84,-186.128 1230.28,-169.027 1276.25,-159.027"/>
<polygon fill="midnightblue" stroke="midnightblue" points="1066.65,-201.373 1057.65,-206.962 1068.17,-208.205 1066.65,-201.373"/>
</g>
<!-- Node21 -->
<g id="node21" class="node"><title>Node21</title>
<g id="a_node21"><a xlink:href="_cpl_2_t_shell_2_maker_8h.html" target="_top" xlink:title=" ">
<polygon fill="white" stroke="black" points="1631.5,-73 1631.5,-92 1731.5,-92 1731.5,-73 1631.5,-73"/>
<text text-anchor="middle" x="1681.5" y="-80" font-family="Helvetica,sans-Serif" font-size="10.00">Cpl/TShell/Maker.h</text>
</a>
</g>
</g>
<!-- Node20&#45;&gt;Node21 -->
<g id="edge21" class="edge"><title>Node20&#45;&gt;Node21</title>
<path fill="none" stroke="midnightblue" d="M1363.08,-137.814C1369.59,-136.465 1376.2,-135.155 1382.5,-134 1488.16,-114.629 1516.08,-118.637 1621.5,-98 1630.23,-96.2912 1639.6,-94.1663 1648.29,-92.0746"/>
<polygon fill="midnightblue" stroke="midnightblue" points="1362.04,-134.456 1352.98,-139.949 1363.49,-141.304 1362.04,-134.456"/>
</g>
<!-- Node22 -->
<g id="node22" class="node"><title>Node22</title>
<g id="a_node22"><a xlink:href="_polled_processor_8h.html" target="_top" xlink:title=" ">
<polygon fill="white" stroke="black" points="1749.5,-73 1749.5,-92 1893.5,-92 1893.5,-73 1749.5,-73"/>
<text text-anchor="middle" x="1821.5" y="-80" font-family="Helvetica,sans-Serif" font-size="10.00">Cpl/TShell/PolledProcessor.h</text>
</a>
</g>
</g>
<!-- Node20&#45;&gt;Node22 -->
<g id="edge22" class="edge"><title>Node20&#45;&gt;Node22</title>
<path fill="none" stroke="midnightblue" d="M1361.34,-137.862C1368.4,-136.431 1375.63,-135.085 1382.5,-134 1540.45,-109.048 1582.12,-120.106 1740.5,-98 1752.53,-96.3214 1765.5,-94.1589 1777.46,-92.019"/>
<polygon fill="midnightblue" stroke="midnightblue" points="1360.24,-134.516 1351.17,-139.998 1361.68,-141.367 1360.24,-134.516"/>
</g>
<!-- Node23 -->
<g id="node23" class="node"><title>Node23</title>
<g id="a_node23"><a xlink:href="_polled_maker_8h.html" target="_top" xlink:title=" ">
<polygon fill="white" stroke="black" points="1758,-6 1758,-25 1885,-25 1885,-6 1758,-6"/>
<text text-anchor="middle" x="1821.5" y="-13" font-family="Helvetica,sans-Serif" font-size="10.00">Cpl/TShell/PolledMaker.h</text>
</a>
</g>
</g>
<!-- Node22&#45;&gt;Node23 -->
<g id="edge23" class="edge"><title>Node22&#45;&gt;Node23</title>
<path fill="none" stroke="midnightblue" d="M1821.5,-62.537C1821.5,-50.1703 1821.5,-34.6198 1821.5,-25.1273"/>
<polygon fill="midnightblue" stroke="midnightblue" points="1818,-62.7338 1821.5,-72.7338 1825,-62.7338 1818,-62.7338"/>
</g>
<!-- Node26 -->
<g id="node26" class="node"><title>Node26</title>
<g id="a_node26"><a xlink:href="_driver_2_pico_display_2_t_pipe_2_api_8h.html" target="_top" xlink:title="This file defines the interface for initializing the concrete implementation of the PicoDisplay drive...">
<polygon fill="white" stroke="black" points="1392,-134.5 1392,-164.5 1489,-164.5 1489,-134.5 1392,-134.5"/>
<text text-anchor="start" x="1400" y="-152.5" font-family="Helvetica,sans-Serif" font-size="10.00">Driver/PicoDisplay</text>
<text text-anchor="middle" x="1440.5" y="-141.5" font-family="Helvetica,sans-Serif" font-size="10.00">/TPipe/Api.h</text>
</a>
</g>
</g>
<!-- Node25&#45;&gt;Node26 -->
<g id="edge26" class="edge"><title>Node25&#45;&gt;Node26</title>
<path fill="none" stroke="midnightblue" d="M1440.5,-196.411C1440.5,-186.222 1440.5,-173.901 1440.5,-164.589"/>
<polygon fill="midnightblue" stroke="midnightblue" points="1437,-196.734 1440.5,-206.734 1444,-196.734 1437,-196.734"/>
</g>
<!-- Node27 -->
<g id="node27" class="node"><title>Node27</title>
<g id="a_node27"><a xlink:href="_driver_2_t_pipe_2_maker_8h.html" target="_top" xlink:title=" ">
<polygon fill="white" stroke="black" points="1507,-140 1507,-159 1616,-159 1616,-140 1507,-140"/>
<text text-anchor="middle" x="1561.5" y="-147" font-family="Helvetica,sans-Serif" font-size="10.00">Driver/TPipe/Maker.h</text>
</a>
</g>
</g>
<!-- Node25&#45;&gt;Node27 -->
<g id="edge27" class="edge"><title>Node25&#45;&gt;Node27</title>
<path fill="none" stroke="midnightblue" d="M1465.71,-201.959C1489.7,-189.073 1525.06,-170.073 1545.44,-159.127"/>
<polygon fill="midnightblue" stroke="midnightblue" points="1463.97,-198.918 1456.82,-206.734 1467.28,-205.085 1463.97,-198.918"/>
</g>
<!-- Node30&#45;&gt;Node4 -->
<g id="edge31" class="edge"><title>Node30&#45;&gt;Node4</title>
<path fill="none" stroke="midnightblue" d="M1024.82,-271.76C999.465,-264.502 972.551,-252.347 954.5,-232 935.988,-211.133 934.556,-175.723 934.998,-159.322"/>
<polygon fill="midnightblue" stroke="midnightblue" points="1024.24,-275.229 1034.8,-274.4 1026.03,-268.461 1024.24,-275.229"/>
</g>
<!-- Node30&#45;&gt;Node19 -->
<g id="edge32" class="edge"><title>Node30&#45;&gt;Node19</title>
<path fill="none" stroke="midnightblue" d="M1075.69,-266.856C1061.14,-254.078 1041.12,-236.492 1029.32,-226.127"/>
<polygon fill="midnightblue" stroke="midnightblue" points="1073.7,-269.764 1083.52,-273.734 1078.32,-264.505 1073.7,-269.764"/>
</g>
<!-- Node30&#45;&gt;Node29 -->
<g id="edge33" class="edge"><title>Node30&#45;&gt;Node29</title>
<path fill="none" stroke="midnightblue" d="M1108.45,-266.304C1118.3,-255.635 1131.07,-241.802 1140.49,-231.589"/>
<polygon fill="midnightblue" stroke="midnightblue" points="1105.8,-264.012 1101.59,-273.734 1110.95,-268.76 1105.8,-264.012"/>
</g>
<!-- Node32 -->
<g id="node32" class="node"><title>Node32</title>
<g id="a_node32"><a xlink:href="_d_f_string_item_8h.html" target="_top" xlink:title=" ">
<polygon fill="white" stroke="black" points="1503.5,-274 1503.5,-293 1625.5,-293 1625.5,-274 1503.5,-274"/>
<text text-anchor="middle" x="1564.5" y="-281" font-family="Helvetica,sans-Serif" font-size="10.00">Cpl/Text/DFStringItem.h</text>
</a>
</g>
</g>
<!-- Node31&#45;&gt;Node32 -->
<g id="edge35" class="edge"><title>Node31&#45;&gt;Node32</title>
<path fill="none" stroke="midnightblue" d="M1614.96,-328.65C1601.99,-317.306 1584.82,-302.281 1574.22,-293.009"/>
<polygon fill="midnightblue" stroke="midnightblue" points="1612.93,-331.524 1622.76,-335.475 1617.54,-326.256 1612.93,-331.524"/>
</g>
<!-- Node33 -->
<g id="node33" class="node"><title>Node33</title>
<g id="a_node33"><a xlink:href="_d_string_item_8h.html" target="_top" xlink:title=" ">
<polygon fill="white" stroke="black" points="1643.5,-274 1643.5,-293 1759.5,-293 1759.5,-274 1643.5,-274"/>
<text text-anchor="middle" x="1701.5" y="-281" font-family="Helvetica,sans-Serif" font-size="10.00">Cpl/Text/DStringItem.h</text>
</a>
</g>
</g>
<!-- Node31&#45;&gt;Node33 -->
<g id="edge36" class="edge"><title>Node31&#45;&gt;Node33</title>
<path fill="none" stroke="midnightblue" d="M1650.3,-328.65C1663.46,-317.306 1680.88,-302.281 1691.63,-293.009"/>
<polygon fill="midnightblue" stroke="midnightblue" points="1647.67,-326.294 1642.39,-335.475 1652.24,-331.595 1647.67,-326.294"/>
</g>
<!-- Node34 -->
<g id="node34" class="node"><title>Node34</title>
<g id="a_node34"><a xlink:href="_f_string_item_8h.html" target="_top" xlink:title=" ">
<polygon fill="white" stroke="black" points="1777.5,-274 1777.5,-293 1893.5,-293 1893.5,-274 1777.5,-274"/>
<text text-anchor="middle" x="1835.5" y="-281" font-family="Helvetica,sans-Serif" font-size="10.00">Cpl/Text/FStringItem.h</text>
</a>
</g>
</g>
<!-- Node31&#45;&gt;Node34 -->
<g id="edge37" class="edge"><title>Node31&#45;&gt;Node34</title>
<path fill="none" stroke="midnightblue" d="M1671.39,-332.602C1710.84,-321.04 1770.99,-303.407 1806.47,-293.009"/>
<polygon fill="midnightblue" stroke="midnightblue" points="1670.2,-329.304 1661.58,-335.475 1672.17,-336.021 1670.2,-329.304"/>
</g>
<!-- Node35&#45;&gt;Node24 -->
<g id="edge39" class="edge"><title>Node35&#45;&gt;Node24</title>
<path fill="none" stroke="midnightblue" d="M1384.12,-262.451C1369.97,-252.452 1353.19,-240.6 1340.42,-231.577"/>
<polygon fill="midnightblue" stroke="midnightblue" points="1382.35,-265.484 1392.54,-268.396 1386.39,-259.767 1382.35,-265.484"/>
</g>
<!-- Node35&#45;&gt;Node25 -->
<g id="edge40" class="edge"><title>Node35&#45;&gt;Node25</title>
<path fill="none" stroke="midnightblue" d="M1422.65,-258.942C1427.56,-247.54 1433.16,-234.545 1436.75,-226.195"/>
<polygon fill="midnightblue" stroke="midnightblue" points="1419.32,-257.827 1418.58,-268.396 1425.75,-260.597 1419.32,-257.827"/>
</g>
<!-- Node35&#45;&gt;Node28 -->
<g id="edge41" class="edge"><title>Node35&#45;&gt;Node28</title>
<path fill="none" stroke="midnightblue" d="M1459.92,-264.784C1493.66,-252.181 1537.49,-235.808 1563.73,-226.007"/>
<polygon fill="midnightblue" stroke="midnightblue" points="1458.4,-261.618 1450.26,-268.396 1460.85,-268.175 1458.4,-261.618"/>
</g>
</g>
</svg>
