<?xml version="1.0" encoding="UTF-8" standalone="no"?>
<!DOCTYPE svg PUBLIC "-//W3C//DTD SVG 1.1//EN"
 "http://www.w3.org/Graphics/SVG/1.1/DTD/svg11.dtd">
<!-- Generated by graphviz version 2.38.0 (20140413.2041)
 -->
<!-- Title: Cpl/Container/Map.h Pages: 1 -->
<svg width="2090pt" height="296pt"
 viewBox="0.00 0.00 2089.50 296.00" xmlns="http://www.w3.org/2000/svg" xmlns:xlink="http://www.w3.org/1999/xlink">
<g id="graph0" class="graph" transform="scale(1 1) rotate(0) translate(4 292)">
<title>Cpl/Container/Map.h</title>
<polygon fill="white" stroke="none" points="-4,4 -4,-292 2085.5,-292 2085.5,4 -4,4"/>
<!-- Node1 -->
<g id="node1" class="node"><title>Node1</title>
<g id="a_node1"><a xlink:title=" ">
<polygon fill="#bfbfbf" stroke="black" points="1608.5,-268.5 1608.5,-287.5 1713.5,-287.5 1713.5,-268.5 1608.5,-268.5"/>
<text text-anchor="middle" x="1661" y="-275.5" font-family="Helvetica,sans-Serif" font-size="10.00">Cpl/Container/Map.h</text>
</a>
</g>
</g>
<!-- Node2 -->
<g id="node2" class="node"><title>Node2</title>
<g id="a_node2"><a xlink:href="_cmd_2_command_8h.html" target="_top" xlink:title=" ">
<polygon fill="white" stroke="black" points="869,-140 869,-159 1009,-159 1009,-140 869,-140"/>
<text text-anchor="middle" x="939" y="-147" font-family="Helvetica,sans-Serif" font-size="10.00">Cpl/TShell/Cmd/Command.h</text>
</a>
</g>
</g>
<!-- Node1&#45;&gt;Node2 -->
<g id="edge1" class="edge"><title>Node1&#45;&gt;Node2</title>
<path fill="none" stroke="midnightblue" d="M1602.18,-266.694C1463.09,-242.325 1116.03,-181.517 987.704,-159.033"/>
<polygon fill="midnightblue" stroke="midnightblue" points="1601.77,-270.176 1612.22,-268.454 1602.98,-263.281 1601.77,-270.176"/>
</g>
<!-- Node17 -->
<g id="node17" class="node"><title>Node17</title>
<g id="a_node17"><a xlink:href="_context___8h.html" target="_top" xlink:title=" ">
<polygon fill="white" stroke="black" points="1420,-207 1420,-226 1532,-226 1532,-207 1420,-207"/>
<text text-anchor="middle" x="1476" y="-214" font-family="Helvetica,sans-Serif" font-size="10.00">Cpl/TShell/Context_.h</text>
</a>
</g>
</g>
<!-- Node1&#45;&gt;Node17 -->
<g id="edge16" class="edge"><title>Node1&#45;&gt;Node17</title>
<path fill="none" stroke="midnightblue" d="M1624.87,-265.381C1588.91,-253.815 1534.58,-236.341 1502.46,-226.009"/>
<polygon fill="midnightblue" stroke="midnightblue" points="1623.9,-268.745 1634.49,-268.475 1626.05,-262.081 1623.9,-268.745"/>
</g>
<!-- Node22 -->
<g id="node22" class="node"><title>Node22</title>
<g id="a_node22"><a xlink:href="_driver_2_button_2_t_pipe_2_hal_8h.html" target="_top" xlink:title="This file defines the concrete implementation for the Button HAL that gets its raw inputs via a Drive...">
<polygon fill="white" stroke="black" points="1550,-201.5 1550,-231.5 1652,-231.5 1652,-201.5 1550,-201.5"/>
<text text-anchor="start" x="1558" y="-219.5" font-family="Helvetica,sans-Serif" font-size="10.00">Driver/Button/TPipe</text>
<text text-anchor="middle" x="1601" y="-208.5" font-family="Helvetica,sans-Serif" font-size="10.00">/Hal.h</text>
</a>
</g>
</g>
<!-- Node1&#45;&gt;Node22 -->
<g id="edge22" class="edge"><title>Node1&#45;&gt;Node22</title>
<path fill="none" stroke="midnightblue" d="M1645.24,-261.369C1635.9,-252.113 1624.18,-240.482 1615.14,-231.523"/>
<polygon fill="midnightblue" stroke="midnightblue" points="1642.84,-263.919 1652.4,-268.475 1647.77,-258.948 1642.84,-263.919"/>
</g>
<!-- Node23 -->
<g id="node23" class="node"><title>Node23</title>
<g id="a_node23"><a xlink:href="_pipe_8h.html" target="_top" xlink:title=" ">
<polygon fill="white" stroke="black" points="1670.5,-207 1670.5,-226 1771.5,-226 1771.5,-207 1670.5,-207"/>
<text text-anchor="middle" x="1721" y="-214" font-family="Helvetica,sans-Serif" font-size="10.00">Driver/TPipe/Pipe.h</text>
</a>
</g>
</g>
<!-- Node1&#45;&gt;Node23 -->
<g id="edge23" class="edge"><title>Node1&#45;&gt;Node23</title>
<path fill="none" stroke="midnightblue" d="M1676.81,-261.325C1688.21,-250.02 1703.16,-235.193 1712.42,-226.009"/>
<polygon fill="midnightblue" stroke="midnightblue" points="1674.23,-258.948 1669.6,-268.475 1679.16,-263.919 1674.23,-258.948"/>
</g>
<!-- Node26 -->
<g id="node26" class="node"><title>Node26</title>
<g id="a_node26"><a xlink:href="_rx_frame_handler_8h.html" target="_top" xlink:title=" ">
<polygon fill="white" stroke="black" points="1789.5,-207 1789.5,-226 1944.5,-226 1944.5,-207 1789.5,-207"/>
<text text-anchor="middle" x="1867" y="-214" font-family="Helvetica,sans-Serif" font-size="10.00">Driver/TPipe/RxFrameHandler.h</text>
</a>
</g>
</g>
<!-- Node1&#45;&gt;Node26 -->
<g id="edge26" class="edge"><title>Node1&#45;&gt;Node26</title>
<path fill="none" stroke="midnightblue" d="M1700.21,-265.676C1740.23,-254.114 1801.46,-236.429 1837.54,-226.009"/>
<polygon fill="midnightblue" stroke="midnightblue" points="1699.15,-262.338 1690.51,-268.475 1701.09,-269.063 1699.15,-262.338"/>
</g>
<!-- Node27 -->
<g id="node27" class="node"><title>Node27</title>
<g id="a_node27"><a xlink:href="_main_8h.html" target="_top" xlink:title="This file defines the hardware/platform independent start&#45;up interface(s) for the Storm::Thermostat a...">
<polygon fill="white" stroke="black" points="1962.5,-201.5 1962.5,-231.5 2081.5,-231.5 2081.5,-201.5 1962.5,-201.5"/>
<text text-anchor="start" x="1970.5" y="-219.5" font-family="Helvetica,sans-Serif" font-size="10.00">Storm/Thermostat/Main</text>
<text text-anchor="middle" x="2022" y="-208.5" font-family="Helvetica,sans-Serif" font-size="10.00">/Main.h</text>
</a>
</g>
</g>
<!-- Node1&#45;&gt;Node27 -->
<g id="edge27" class="edge"><title>Node1&#45;&gt;Node27</title>
<path fill="none" stroke="midnightblue" d="M1723.58,-268.358C1782.82,-259.94 1874.17,-246.346 1953,-232 1956.01,-231.452 1959.09,-230.873 1962.2,-230.274"/>
<polygon fill="midnightblue" stroke="midnightblue" points="1723.04,-264.899 1713.63,-269.766 1724.02,-271.83 1723.04,-264.899"/>
</g>
<!-- Node3 -->
<g id="node3" class="node"><title>Node3</title>
<g id="a_node3"><a xlink:href="_dm_8h.html" target="_top" xlink:title=" ">
<polygon fill="white" stroke="black" points="0,-73 0,-92 106,-92 106,-73 0,-73"/>
<text text-anchor="middle" x="53" y="-80" font-family="Helvetica,sans-Serif" font-size="10.00">Cpl/Dm/TShell/Dm.h</text>
</a>
</g>
</g>
<!-- Node2&#45;&gt;Node3 -->
<g id="edge2" class="edge"><title>Node2&#45;&gt;Node3</title>
<path fill="none" stroke="midnightblue" d="M858.521,-148.056C710.534,-146.245 385.568,-137.641 115,-98 105.156,-96.5578 94.5708,-94.3375 84.982,-92.0644"/>
<polygon fill="midnightblue" stroke="midnightblue" points="858.827,-151.559 868.867,-148.174 858.908,-144.56 858.827,-151.559"/>
</g>
<!-- Node4 -->
<g id="node4" class="node"><title>Node4</title>
<g id="a_node4"><a xlink:href="_bye_8h.html" target="_top" xlink:title=" ">
<polygon fill="white" stroke="black" points="124.5,-73 124.5,-92 237.5,-92 237.5,-73 124.5,-73"/>
<text text-anchor="middle" x="181" y="-80" font-family="Helvetica,sans-Serif" font-size="10.00">Cpl/TShell/Cmd/Bye.h</text>
</a>
</g>
</g>
<!-- Node2&#45;&gt;Node4 -->
<g id="edge3" class="edge"><title>Node2&#45;&gt;Node4</title>
<path fill="none" stroke="midnightblue" d="M858.686,-146.375C729.294,-142.114 466.932,-130.015 247,-98 236.668,-96.4959 225.543,-94.2851 215.425,-92.0408"/>
<polygon fill="midnightblue" stroke="midnightblue" points="858.795,-149.88 868.902,-146.704 859.02,-142.884 858.795,-149.88"/>
</g>
<!-- Node5 -->
<g id="node5" class="node"><title>Node5</title>
<g id="a_node5"><a xlink:href="_help_8h.html" target="_top" xlink:title=" ">
<polygon fill="white" stroke="black" points="256,-73 256,-92 372,-92 372,-73 256,-73"/>
<text text-anchor="middle" x="314" y="-80" font-family="Helvetica,sans-Serif" font-size="10.00">Cpl/TShell/Cmd/Help.h</text>
</a>
</g>
</g>
<!-- Node2&#45;&gt;Node5 -->
<g id="edge4" class="edge"><title>Node2&#45;&gt;Node5</title>
<path fill="none" stroke="midnightblue" d="M858.392,-144.322C749.569,-137.971 549.833,-123.809 381,-98 370.765,-96.4354 359.748,-94.2595 349.664,-92.0686"/>
<polygon fill="midnightblue" stroke="midnightblue" points="858.451,-147.831 868.635,-144.912 858.853,-140.842 858.451,-147.831"/>
</g>
<!-- Node6 -->
<g id="node6" class="node"><title>Node6</title>
<g id="a_node6"><a xlink:href="_t_print_8h.html" target="_top" xlink:title=" ">
<polygon fill="white" stroke="black" points="390,-73 390,-92 512,-92 512,-73 390,-73"/>
<text text-anchor="middle" x="451" y="-80" font-family="Helvetica,sans-Serif" font-size="10.00">Cpl/TShell/Cmd/TPrint.h</text>
</a>
</g>
</g>
<!-- Node2&#45;&gt;Node6 -->
<g id="edge5" class="edge"><title>Node2&#45;&gt;Node6</title>
<path fill="none" stroke="midnightblue" d="M858.83,-140.836C774.476,-132.3 637.976,-117.147 521,-98 510.712,-96.316 499.639,-94.176 489.403,-92.0605"/>
<polygon fill="midnightblue" stroke="midnightblue" points="858.554,-144.326 868.854,-141.844 859.255,-137.361 858.554,-144.326"/>
</g>
<!-- Node7 -->
<g id="node7" class="node"><title>Node7</title>
<g id="a_node7"><a xlink:href="_threads_8h.html" target="_top" xlink:title=" ">
<polygon fill="white" stroke="black" points="530.5,-73 530.5,-92 661.5,-92 661.5,-73 530.5,-73"/>
<text text-anchor="middle" x="596" y="-80" font-family="Helvetica,sans-Serif" font-size="10.00">Cpl/TShell/Cmd/Threads.h</text>
</a>
</g>
</g>
<!-- Node2&#45;&gt;Node7 -->
<g id="edge6" class="edge"><title>Node2&#45;&gt;Node7</title>
<path fill="none" stroke="midnightblue" d="M882.67,-138.059C828.228,-127.937 743.433,-112.087 670,-98 660.1,-96.1008 649.461,-94.0323 639.423,-92.0682"/>
<polygon fill="midnightblue" stroke="midnightblue" points="882.336,-141.557 892.808,-139.943 883.615,-134.675 882.336,-141.557"/>
</g>
<!-- Node10 -->
<g id="node10" class="node"><title>Node10</title>
<g id="a_node10"><a xlink:href="_tick_8h.html" target="_top" xlink:title=" ">
<polygon fill="white" stroke="black" points="679.5,-73 679.5,-92 794.5,-92 794.5,-73 679.5,-73"/>
<text text-anchor="middle" x="737" y="-80" font-family="Helvetica,sans-Serif" font-size="10.00">Cpl/TShell/Cmd/Tick.h</text>
</a>
</g>
</g>
<!-- Node2&#45;&gt;Node10 -->
<g id="edge9" class="edge"><title>Node2&#45;&gt;Node10</title>
<path fill="none" stroke="midnightblue" d="M902.532,-136.765C862.508,-123.886 799.22,-103.521 763.613,-92.0637"/>
<polygon fill="midnightblue" stroke="midnightblue" points="901.585,-140.137 912.176,-139.869 903.729,-133.474 901.585,-140.137"/>
</g>
<!-- Node11 -->
<g id="node11" class="node"><title>Node11</title>
<g id="a_node11"><a xlink:href="_t_shell_2_cmd_2_trace_8h.html" target="_top" xlink:title=" ">
<polygon fill="white" stroke="black" points="812.5,-73 812.5,-92 933.5,-92 933.5,-73 812.5,-73"/>
<text text-anchor="middle" x="873" y="-80" font-family="Helvetica,sans-Serif" font-size="10.00">Cpl/TShell/Cmd/Trace.h</text>
</a>
</g>
</g>
<!-- Node2&#45;&gt;Node11 -->
<g id="edge10" class="edge"><title>Node2&#45;&gt;Node11</title>
<path fill="none" stroke="midnightblue" d="M922.751,-132.497C909.807,-119.75 892.185,-102.395 881.76,-92.1273"/>
<polygon fill="midnightblue" stroke="midnightblue" points="920.518,-135.211 930.099,-139.734 925.43,-130.223 920.518,-135.211"/>
</g>
<!-- Node12 -->
<g id="node12" class="node"><title>Node12</title>
<g id="a_node12"><a xlink:href="_state_8h.html" target="_top" xlink:title=" ">
<polygon fill="white" stroke="black" points="952,-73 952,-92 1060,-92 1060,-73 952,-73"/>
<text text-anchor="middle" x="1006" y="-80" font-family="Helvetica,sans-Serif" font-size="10.00">Storm/TShell/State.h</text>
</a>
</g>
</g>
<!-- Node2&#45;&gt;Node12 -->
<g id="edge11" class="edge"><title>Node2&#45;&gt;Node12</title>
<path fill="none" stroke="midnightblue" d="M955.496,-132.497C968.635,-119.75 986.524,-102.395 997.107,-92.1273"/>
<polygon fill="midnightblue" stroke="midnightblue" points="952.776,-130.259 948.036,-139.734 957.65,-135.283 952.776,-130.259"/>
</g>
<!-- Node13 -->
<g id="node13" class="node"><title>Node13</title>
<g id="a_node13"><a xlink:href="_user_8h.html" target="_top" xlink:title=" ">
<polygon fill="white" stroke="black" points="1078.5,-73 1078.5,-92 1183.5,-92 1183.5,-73 1078.5,-73"/>
<text text-anchor="middle" x="1131" y="-80" font-family="Helvetica,sans-Serif" font-size="10.00">Storm/TShell/User.h</text>
</a>
</g>
</g>
<!-- Node2&#45;&gt;Node13 -->
<g id="edge12" class="edge"><title>Node2&#45;&gt;Node13</title>
<path fill="none" stroke="midnightblue" d="M974.147,-136.601C1012.21,-123.714 1072,-103.473 1105.7,-92.0637"/>
<polygon fill="midnightblue" stroke="midnightblue" points="972.846,-133.347 964.496,-139.869 975.09,-139.977 972.846,-133.347"/>
</g>
<!-- Node14 -->
<g id="node14" class="node"><title>Node14</title>
<g id="a_node14"><a xlink:href="_t_shell_2_white_box_8h.html" target="_top" xlink:title=" ">
<polygon fill="white" stroke="black" points="1201.5,-73 1201.5,-92 1328.5,-92 1328.5,-73 1201.5,-73"/>
<text text-anchor="middle" x="1265" y="-80" font-family="Helvetica,sans-Serif" font-size="10.00">Storm/TShell/WhiteBox.h</text>
</a>
</g>
</g>
<!-- Node2&#45;&gt;Node14 -->
<g id="edge13" class="edge"><title>Node2&#45;&gt;Node14</title>
<path fill="none" stroke="midnightblue" d="M991.871,-137.958C1056.03,-125.165 1162.97,-103.843 1222.21,-92.0317"/>
<polygon fill="midnightblue" stroke="midnightblue" points="991.077,-134.548 981.954,-139.936 992.445,-141.413 991.077,-134.548"/>
</g>
<!-- Node15 -->
<g id="node15" class="node"><title>Node15</title>
<g id="a_node15"><a xlink:href="filter_8h.html" target="_top" xlink:title=" ">
<polygon fill="white" stroke="black" points="1347,-73 1347,-92 1451,-92 1451,-73 1347,-73"/>
<text text-anchor="middle" x="1399" y="-80" font-family="Helvetica,sans-Serif" font-size="10.00">Storm/TShell/filter.h</text>
</a>
</g>
</g>
<!-- Node2&#45;&gt;Node15 -->
<g id="edge14" class="edge"><title>Node2&#45;&gt;Node15</title>
<path fill="none" stroke="midnightblue" d="M1019.16,-140.793C1099.8,-132.463 1227.54,-117.689 1337,-98 1346.25,-96.3365 1356.19,-94.1791 1365.35,-92.0392"/>
<polygon fill="midnightblue" stroke="midnightblue" points="1018.66,-137.325 1009.07,-141.827 1019.38,-144.289 1018.66,-137.325"/>
</g>
<!-- Node16 -->
<g id="node16" class="node"><title>Node16</title>
<g id="a_node16"><a xlink:href="_cmd_8h.html" target="_top" xlink:title=" ">
<polygon fill="white" stroke="black" points="1469.5,-67.5 1469.5,-97.5 1612.5,-97.5 1612.5,-67.5 1469.5,-67.5"/>
<text text-anchor="start" x="1477.5" y="-85.5" font-family="Helvetica,sans-Serif" font-size="10.00">Storm/Thermostat/SimHouse</text>
<text text-anchor="middle" x="1541" y="-74.5" font-family="Helvetica,sans-Serif" font-size="10.00">/Cmd.h</text>
</a>
</g>
</g>
<!-- Node2&#45;&gt;Node16 -->
<g id="edge15" class="edge"><title>Node2&#45;&gt;Node16</title>
<path fill="none" stroke="midnightblue" d="M1019.43,-142.724C1121.98,-134.896 1304.64,-119.4 1460,-98 1463.11,-97.5711 1466.29,-97.1089 1469.5,-96.6222"/>
<polygon fill="midnightblue" stroke="midnightblue" points="1018.86,-139.257 1009.15,-143.503 1019.39,-146.237 1018.86,-139.257"/>
</g>
<!-- Node8 -->
<g id="node8" class="node"><title>Node8</title>
<g id="a_node8"><a xlink:href="_free_r_t_o_s_2_threads_8h.html" target="_top" xlink:title=" ">
<polygon fill="white" stroke="black" points="458,-0.5 458,-30.5 592,-30.5 592,-0.5 458,-0.5"/>
<text text-anchor="start" x="466" y="-18.5" font-family="Helvetica,sans-Serif" font-size="10.00">Cpl/TShell/Cmd/FreeRTOS</text>
<text text-anchor="middle" x="525" y="-7.5" font-family="Helvetica,sans-Serif" font-size="10.00">/Threads.h</text>
</a>
</g>
</g>
<!-- Node7&#45;&gt;Node8 -->
<g id="edge7" class="edge"><title>Node7&#45;&gt;Node8</title>
<path fill="none" stroke="midnightblue" d="M578.991,-65.928C567.249,-55.1788 551.764,-41.0024 540.39,-30.589"/>
<polygon fill="midnightblue" stroke="midnightblue" points="576.685,-68.5628 586.425,-72.7338 581.412,-63.3997 576.685,-68.5628"/>
</g>
<!-- Node9 -->
<g id="node9" class="node"><title>Node9</title>
<g id="a_node9"><a xlink:href="_win32_2_threads_8h.html" target="_top" xlink:title=" ">
<polygon fill="white" stroke="black" points="610.5,-0.5 610.5,-30.5 725.5,-30.5 725.5,-0.5 610.5,-0.5"/>
<text text-anchor="start" x="618.5" y="-18.5" font-family="Helvetica,sans-Serif" font-size="10.00">Cpl/TShell/Cmd/Win32</text>
<text text-anchor="middle" x="668" y="-7.5" font-family="Helvetica,sans-Serif" font-size="10.00">/Threads.h</text>
</a>
</g>
</g>
<!-- Node7&#45;&gt;Node9 -->
<g id="edge8" class="edge"><title>Node7&#45;&gt;Node9</title>
<path fill="none" stroke="midnightblue" d="M613.249,-65.928C625.156,-55.1788 640.859,-41.0024 652.394,-30.589"/>
<polygon fill="midnightblue" stroke="midnightblue" points="610.788,-63.4348 605.71,-72.7338 615.478,-68.6307 610.788,-63.4348"/>
</g>
<!-- Node17&#45;&gt;Node2 -->
<g id="edge17" class="edge"><title>Node17&#45;&gt;Node2</title>
<path fill="none" stroke="midnightblue" d="M1409.63,-207.466C1307.64,-195.121 1113.28,-171.595 1009.09,-158.984"/>
<polygon fill="midnightblue" stroke="midnightblue" points="1409.45,-210.97 1419.8,-208.697 1410.29,-204.021 1409.45,-210.97"/>
</g>
<!-- Node18 -->
<g id="node18" class="node"><title>Node18</title>
<g id="a_node18"><a xlink:href="_processor_8h.html" target="_top" xlink:title=" ">
<polygon fill="white" stroke="black" points="1537.5,-140 1537.5,-159 1654.5,-159 1654.5,-140 1537.5,-140"/>
<text text-anchor="middle" x="1596" y="-147" font-family="Helvetica,sans-Serif" font-size="10.00">Cpl/TShell/Processor.h</text>
</a>
</g>
</g>
<!-- Node17&#45;&gt;Node18 -->
<g id="edge18" class="edge"><title>Node17&#45;&gt;Node18</title>
<path fill="none" stroke="midnightblue" d="M1501,-201.959C1524.79,-189.073 1559.87,-170.073 1580.07,-159.127"/>
<polygon fill="midnightblue" stroke="midnightblue" points="1499.31,-198.893 1492.18,-206.734 1502.64,-205.048 1499.31,-198.893"/>
</g>
<!-- Node19 -->
<g id="node19" class="node"><title>Node19</title>
<g id="a_node19"><a xlink:href="_cpl_2_t_shell_2_maker_8h.html" target="_top" xlink:title=" ">
<polygon fill="white" stroke="black" points="1631,-73 1631,-92 1731,-92 1731,-73 1631,-73"/>
<text text-anchor="middle" x="1681" y="-80" font-family="Helvetica,sans-Serif" font-size="10.00">Cpl/TShell/Maker.h</text>
</a>
</g>
</g>
<!-- Node18&#45;&gt;Node19 -->
<g id="edge19" class="edge"><title>Node18&#45;&gt;Node19</title>
<path fill="none" stroke="midnightblue" d="M1615.53,-133.568C1632.3,-120.738 1655.91,-102.685 1669.72,-92.1273"/>
<polygon fill="midnightblue" stroke="midnightblue" points="1613.28,-130.879 1607.46,-139.734 1617.53,-136.44 1613.28,-130.879"/>
</g>
<!-- Node20 -->
<g id="node20" class="node"><title>Node20</title>
<g id="a_node20"><a xlink:href="_polled_processor_8h.html" target="_top" xlink:title=" ">
<polygon fill="white" stroke="black" points="1749,-73 1749,-92 1893,-92 1893,-73 1749,-73"/>
<text text-anchor="middle" x="1821" y="-80" font-family="Helvetica,sans-Serif" font-size="10.00">Cpl/TShell/PolledProcessor.h</text>
</a>
</g>
</g>
<!-- Node18&#45;&gt;Node20 -->
<g id="edge20" class="edge"><title>Node18&#45;&gt;Node20</title>
<path fill="none" stroke="midnightblue" d="M1635.49,-137.091C1680,-124.232 1751.36,-103.618 1791.36,-92.0637"/>
<polygon fill="midnightblue" stroke="midnightblue" points="1634.51,-133.731 1625.88,-139.869 1636.46,-140.456 1634.51,-133.731"/>
</g>
<!-- Node21 -->
<g id="node21" class="node"><title>Node21</title>
<g id="a_node21"><a xlink:href="_polled_maker_8h.html" target="_top" xlink:title=" ">
<polygon fill="white" stroke="black" points="1757.5,-6 1757.5,-25 1884.5,-25 1884.5,-6 1757.5,-6"/>
<text text-anchor="middle" x="1821" y="-13" font-family="Helvetica,sans-Serif" font-size="10.00">Cpl/TShell/PolledMaker.h</text>
</a>
</g>
</g>
<!-- Node20&#45;&gt;Node21 -->
<g id="edge21" class="edge"><title>Node20&#45;&gt;Node21</title>
<path fill="none" stroke="midnightblue" d="M1821,-62.537C1821,-50.1703 1821,-34.6198 1821,-25.1273"/>
<polygon fill="midnightblue" stroke="midnightblue" points="1817.5,-62.7338 1821,-72.7338 1824.5,-62.7338 1817.5,-62.7338"/>
</g>
<!-- Node24 -->
<g id="node24" class="node"><title>Node24</title>
<g id="a_node24"><a xlink:href="_driver_2_pico_display_2_t_pipe_2_api_8h.html" target="_top" xlink:title="This file defines the interface for initializing the concrete implementation of the PicoDisplay drive...">
<polygon fill="white" stroke="black" points="1672.5,-134.5 1672.5,-164.5 1769.5,-164.5 1769.5,-134.5 1672.5,-134.5"/>
<text text-anchor="start" x="1680.5" y="-152.5" font-family="Helvetica,sans-Serif" font-size="10.00">Driver/PicoDisplay</text>
<text text-anchor="middle" x="1721" y="-141.5" font-family="Helvetica,sans-Serif" font-size="10.00">/TPipe/Api.h</text>
</a>
</g>
</g>
<!-- Node23&#45;&gt;Node24 -->
<g id="edge24" class="edge"><title>Node23&#45;&gt;Node24</title>
<path fill="none" stroke="midnightblue" d="M1721,-196.411C1721,-186.222 1721,-173.901 1721,-164.589"/>
<polygon fill="midnightblue" stroke="midnightblue" points="1717.5,-196.734 1721,-206.734 1724.5,-196.734 1717.5,-196.734"/>
</g>
<!-- Node25 -->
<g id="node25" class="node"><title>Node25</title>
<g id="a_node25"><a xlink:href="_driver_2_t_pipe_2_maker_8h.html" target="_top" xlink:title=" ">
<polygon fill="white" stroke="black" points="1787.5,-140 1787.5,-159 1896.5,-159 1896.5,-140 1787.5,-140"/>
<text text-anchor="middle" x="1842" y="-147" font-family="Helvetica,sans-Serif" font-size="10.00">Driver/TPipe/Maker.h</text>
</a>
</g>
</g>
<!-- Node23&#45;&gt;Node25 -->
<g id="edge25" class="edge"><title>Node23&#45;&gt;Node25</title>
<path fill="none" stroke="midnightblue" d="M1746.21,-201.959C1770.2,-189.073 1805.56,-170.073 1825.94,-159.127"/>
<polygon fill="midnightblue" stroke="midnightblue" points="1744.47,-198.918 1737.32,-206.734 1747.78,-205.085 1744.47,-198.918"/>
</g>
</g>
</svg>
