<?xml version="1.0" encoding="UTF-8" standalone="no"?>
<!DOCTYPE svg PUBLIC "-//W3C//DTD SVG 1.1//EN"
 "http://www.w3.org/Graphics/SVG/1.1/DTD/svg11.dtd">
<!-- Generated by graphviz version 2.38.0 (20140413.2041)
 -->
<!-- Title: Cpl/Container/Map.h Pages: 1 -->
<svg width="1222pt" height="263pt"
 viewBox="0.00 0.00 1222.00 263.00" xmlns="http://www.w3.org/2000/svg" xmlns:xlink="http://www.w3.org/1999/xlink">
<g id="graph0" class="graph" transform="scale(1 1) rotate(0) translate(4 259)">
<title>Cpl/Container/Map.h</title>
<polygon fill="white" stroke="none" points="-4,4 -4,-259 1218,-259 1218,4 -4,4"/>
<!-- Node1 -->
<g id="node1" class="node"><title>Node1</title>
<g id="a_node1"><a xlink:title=" ">
<polygon fill="#bfbfbf" stroke="black" points="512.5,-235.5 512.5,-254.5 617.5,-254.5 617.5,-235.5 512.5,-235.5"/>
<text text-anchor="middle" x="565" y="-242.5" font-family="Helvetica,sans-Serif" font-size="10.00">Cpl/Container/Map.h</text>
</a>
</g>
</g>
<!-- Node2 -->
<g id="node2" class="node"><title>Node2</title>
<g id="a_node2"><a xlink:href="_cmd_2_command_8h.html" target="_top" xlink:title=" ">
<polygon fill="white" stroke="black" points="453,-123.5 453,-142.5 593,-142.5 593,-123.5 453,-123.5"/>
<text text-anchor="middle" x="523" y="-130.5" font-family="Helvetica,sans-Serif" font-size="10.00">Cpl/TShell/Cmd/Command.h</text>
</a>
</g>
</g>
<!-- Node1&#45;&gt;Node2 -->
<g id="edge1" class="edge"><title>Node1&#45;&gt;Node2</title>
<path fill="none" stroke="midnightblue" d="M555.003,-226.349C550.639,-218.191 545.687,-208.274 542,-199 534.181,-179.335 527.964,-155.189 524.962,-142.585"/>
<polygon fill="midnightblue" stroke="midnightblue" points="552.023,-228.192 559.911,-235.265 558.155,-224.817 552.023,-228.192"/>
</g>
<!-- Node12 -->
<g id="node12" class="node"><title>Node12</title>
<g id="a_node12"><a xlink:href="_context___8h.html" target="_top" xlink:title=" ">
<polygon fill="white" stroke="black" points="551,-179.5 551,-198.5 663,-198.5 663,-179.5 551,-179.5"/>
<text text-anchor="middle" x="607" y="-186.5" font-family="Helvetica,sans-Serif" font-size="10.00">Cpl/TShell/Context_.h</text>
</a>
</g>
</g>
<!-- Node1&#45;&gt;Node12 -->
<g id="edge11" class="edge"><title>Node1&#45;&gt;Node12</title>
<path fill="none" stroke="midnightblue" d="M578.11,-227.144C585.428,-217.736 594.241,-206.405 600.194,-198.751"/>
<polygon fill="midnightblue" stroke="midnightblue" points="575.312,-225.041 571.935,-235.083 580.838,-229.338 575.312,-225.041"/>
</g>
<!-- Node3 -->
<g id="node3" class="node"><title>Node3</title>
<g id="a_node3"><a xlink:href="_dm_8h.html" target="_top" xlink:title=" ">
<polygon fill="white" stroke="black" points="0,-67.5 0,-86.5 106,-86.5 106,-67.5 0,-67.5"/>
<text text-anchor="middle" x="53" y="-74.5" font-family="Helvetica,sans-Serif" font-size="10.00">Cpl/Dm/TShell/Dm.h</text>
</a>
</g>
</g>
<!-- Node2&#45;&gt;Node3 -->
<g id="edge2" class="edge"><title>Node2&#45;&gt;Node3</title>
<path fill="none" stroke="midnightblue" d="M442.844,-123.98C360.502,-115.548 228.663,-101.514 115,-87 112.087,-86.628 109.099,-86.2344 106.084,-85.8279"/>
<polygon fill="midnightblue" stroke="midnightblue" points="442.58,-127.471 452.884,-125.005 443.291,-120.507 442.58,-127.471"/>
</g>
<!-- Node4 -->
<g id="node4" class="node"><title>Node4</title>
<g id="a_node4"><a xlink:href="_bye_8h.html" target="_top" xlink:title=" ">
<polygon fill="white" stroke="black" points="124.5,-67.5 124.5,-86.5 237.5,-86.5 237.5,-67.5 124.5,-67.5"/>
<text text-anchor="middle" x="181" y="-74.5" font-family="Helvetica,sans-Serif" font-size="10.00">Cpl/TShell/Cmd/Bye.h</text>
</a>
</g>
</g>
<!-- Node2&#45;&gt;Node4 -->
<g id="edge3" class="edge"><title>Node2&#45;&gt;Node4</title>
<path fill="none" stroke="midnightblue" d="M458.74,-121.854C394.123,-111.651 295.619,-96.0977 234.937,-86.5164"/>
<polygon fill="midnightblue" stroke="midnightblue" points="458.386,-125.341 468.809,-123.444 459.477,-118.427 458.386,-125.341"/>
</g>
<!-- Node5 -->
<g id="node5" class="node"><title>Node5</title>
<g id="a_node5"><a xlink:href="_help_8h.html" target="_top" xlink:title=" ">
<polygon fill="white" stroke="black" points="256,-67.5 256,-86.5 372,-86.5 372,-67.5 256,-67.5"/>
<text text-anchor="middle" x="314" y="-74.5" font-family="Helvetica,sans-Serif" font-size="10.00">Cpl/TShell/Cmd/Help.h</text>
</a>
</g>
</g>
<!-- Node2&#45;&gt;Node5 -->
<g id="edge4" class="edge"><title>Node2&#45;&gt;Node5</title>
<path fill="none" stroke="midnightblue" d="M480.016,-120.894C440.548,-110.697 382.9,-95.802 346.962,-86.5164"/>
<polygon fill="midnightblue" stroke="midnightblue" points="479.326,-124.331 489.883,-123.444 481.077,-117.553 479.326,-124.331"/>
</g>
<!-- Node6 -->
<g id="node6" class="node"><title>Node6</title>
<g id="a_node6"><a xlink:href="_t_print_8h.html" target="_top" xlink:title=" ">
<polygon fill="white" stroke="black" points="390,-67.5 390,-86.5 512,-86.5 512,-67.5 390,-67.5"/>
<text text-anchor="middle" x="451" y="-74.5" font-family="Helvetica,sans-Serif" font-size="10.00">Cpl/TShell/Cmd/TPrint.h</text>
</a>
</g>
</g>
<!-- Node2&#45;&gt;Node6 -->
<g id="edge5" class="edge"><title>Node2&#45;&gt;Node6</title>
<path fill="none" stroke="midnightblue" d="M503.134,-117.101C490.177,-107.382 473.703,-95.0269 462.779,-86.8339"/>
<polygon fill="midnightblue" stroke="midnightblue" points="501.332,-120.124 511.432,-123.324 505.532,-114.524 501.332,-120.124"/>
</g>
<!-- Node7 -->
<g id="node7" class="node"><title>Node7</title>
<g id="a_node7"><a xlink:href="_threads_8h.html" target="_top" xlink:title=" ">
<polygon fill="white" stroke="black" points="530.5,-67.5 530.5,-86.5 661.5,-86.5 661.5,-67.5 530.5,-67.5"/>
<text text-anchor="middle" x="596" y="-74.5" font-family="Helvetica,sans-Serif" font-size="10.00">Cpl/TShell/Cmd/Threads.h</text>
</a>
</g>
</g>
<!-- Node2&#45;&gt;Node7 -->
<g id="edge6" class="edge"><title>Node2&#45;&gt;Node7</title>
<path fill="none" stroke="midnightblue" d="M543.142,-117.101C556.279,-107.382 572.982,-95.0269 584.058,-86.8339"/>
<polygon fill="midnightblue" stroke="midnightblue" points="540.687,-114.563 534.729,-123.324 544.85,-120.191 540.687,-114.563"/>
</g>
<!-- Node10 -->
<g id="node10" class="node"><title>Node10</title>
<g id="a_node10"><a xlink:href="_tick_8h.html" target="_top" xlink:title=" ">
<polygon fill="white" stroke="black" points="679.5,-67.5 679.5,-86.5 794.5,-86.5 794.5,-67.5 679.5,-67.5"/>
<text text-anchor="middle" x="737" y="-74.5" font-family="Helvetica,sans-Serif" font-size="10.00">Cpl/TShell/Cmd/Tick.h</text>
</a>
</g>
</g>
<!-- Node2&#45;&gt;Node10 -->
<g id="edge9" class="edge"><title>Node2&#45;&gt;Node10</title>
<path fill="none" stroke="midnightblue" d="M566.755,-120.959C607.174,-110.76 666.373,-95.8217 703.25,-86.5164"/>
<polygon fill="midnightblue" stroke="midnightblue" points="565.749,-117.603 556.909,-123.444 567.461,-124.39 565.749,-117.603"/>
</g>
<!-- Node11 -->
<g id="node11" class="node"><title>Node11</title>
<g id="a_node11"><a xlink:href="_t_shell_2_cmd_2_trace_8h.html" target="_top" xlink:title=" ">
<polygon fill="white" stroke="black" points="812.5,-67.5 812.5,-86.5 933.5,-86.5 933.5,-67.5 812.5,-67.5"/>
<text text-anchor="middle" x="873" y="-74.5" font-family="Helvetica,sans-Serif" font-size="10.00">Cpl/TShell/Cmd/Trace.h</text>
</a>
</g>
</g>
<!-- Node2&#45;&gt;Node11 -->
<g id="edge10" class="edge"><title>Node2&#45;&gt;Node11</title>
<path fill="none" stroke="midnightblue" d="M588.355,-121.917C654.477,-111.715 755.572,-96.1174 817.801,-86.5164"/>
<polygon fill="midnightblue" stroke="midnightblue" points="587.808,-118.46 578.459,-123.444 588.875,-125.378 587.808,-118.46"/>
</g>
<!-- Node8 -->
<g id="node8" class="node"><title>Node8</title>
<g id="a_node8"><a xlink:href="_free_r_t_o_s_2_threads_8h.html" target="_top" xlink:title=" ">
<polygon fill="white" stroke="black" points="458,-0.5 458,-30.5 592,-30.5 592,-0.5 458,-0.5"/>
<text text-anchor="start" x="466" y="-18.5" font-family="Helvetica,sans-Serif" font-size="10.00">Cpl/TShell/Cmd/FreeRTOS</text>
<text text-anchor="middle" x="525" y="-7.5" font-family="Helvetica,sans-Serif" font-size="10.00">/Threads.h</text>
</a>
</g>
</g>
<!-- Node7&#45;&gt;Node8 -->
<g id="edge7" class="edge"><title>Node7&#45;&gt;Node8</title>
<path fill="none" stroke="midnightblue" d="M578.007,-60.9215C566.859,-51.579 552.638,-39.6616 541.733,-30.523"/>
<polygon fill="midnightblue" stroke="midnightblue" points="575.915,-63.7346 585.827,-67.4751 580.411,-58.3694 575.915,-63.7346"/>
</g>
<!-- Node9 -->
<g id="node9" class="node"><title>Node9</title>
<g id="a_node9"><a xlink:href="_win32_2_threads_8h.html" target="_top" xlink:title=" ">
<polygon fill="white" stroke="black" points="610.5,-0.5 610.5,-30.5 725.5,-30.5 725.5,-0.5 610.5,-0.5"/>
<text text-anchor="start" x="618.5" y="-18.5" font-family="Helvetica,sans-Serif" font-size="10.00">Cpl/TShell/Cmd/Win32</text>
<text text-anchor="middle" x="668" y="-7.5" font-family="Helvetica,sans-Serif" font-size="10.00">/Threads.h</text>
</a>
</g>
</g>
<!-- Node7&#45;&gt;Node9 -->
<g id="edge8" class="edge"><title>Node7&#45;&gt;Node9</title>
<path fill="none" stroke="midnightblue" d="M614.246,-60.9215C625.551,-51.579 639.973,-39.6616 651.031,-30.523"/>
<polygon fill="midnightblue" stroke="midnightblue" points="611.795,-58.4069 606.316,-67.4751 616.254,-63.8028 611.795,-58.4069"/>
</g>
<!-- Node12&#45;&gt;Node2 -->
<g id="edge12" class="edge"><title>Node12&#45;&gt;Node2</title>
<path fill="none" stroke="midnightblue" d="M585.068,-173.901C569.665,-163.999 549.554,-151.071 536.463,-142.655"/>
<polygon fill="midnightblue" stroke="midnightblue" points="583.199,-176.86 593.504,-179.324 586.985,-170.972 583.199,-176.86"/>
</g>
<!-- Node13 -->
<g id="node13" class="node"><title>Node13</title>
<g id="a_node13"><a xlink:href="_processor_8h.html" target="_top" xlink:title=" ">
<polygon fill="white" stroke="black" points="943.5,-123.5 943.5,-142.5 1060.5,-142.5 1060.5,-123.5 943.5,-123.5"/>
<text text-anchor="middle" x="1002" y="-130.5" font-family="Helvetica,sans-Serif" font-size="10.00">Cpl/TShell/Processor.h</text>
</a>
</g>
</g>
<!-- Node12&#45;&gt;Node13 -->
<g id="edge13" class="edge"><title>Node12&#45;&gt;Node13</title>
<path fill="none" stroke="midnightblue" d="M673.522,-178.906C749.116,-168.571 871.327,-151.864 943.445,-142.005"/>
<polygon fill="midnightblue" stroke="midnightblue" points="672.608,-175.498 663.174,-180.32 673.556,-182.434 672.608,-175.498"/>
</g>
<!-- Node14 -->
<g id="node14" class="node"><title>Node14</title>
<g id="a_node14"><a xlink:href="_maker_8h.html" target="_top" xlink:title=" ">
<polygon fill="white" stroke="black" points="952,-67.5 952,-86.5 1052,-86.5 1052,-67.5 952,-67.5"/>
<text text-anchor="middle" x="1002" y="-74.5" font-family="Helvetica,sans-Serif" font-size="10.00">Cpl/TShell/Maker.h</text>
</a>
</g>
</g>
<!-- Node13&#45;&gt;Node14 -->
<g id="edge14" class="edge"><title>Node13&#45;&gt;Node14</title>
<path fill="none" stroke="midnightblue" d="M1002,-112.805C1002,-103.91 1002,-93.7798 1002,-86.7511"/>
<polygon fill="midnightblue" stroke="midnightblue" points="998.5,-113.083 1002,-123.083 1005.5,-113.083 998.5,-113.083"/>
</g>
<!-- Node15 -->
<g id="node15" class="node"><title>Node15</title>
<g id="a_node15"><a xlink:href="_polled_processor_8h.html" target="_top" xlink:title=" ">
<polygon fill="white" stroke="black" points="1070,-67.5 1070,-86.5 1214,-86.5 1214,-67.5 1070,-67.5"/>
<text text-anchor="middle" x="1142" y="-74.5" font-family="Helvetica,sans-Serif" font-size="10.00">Cpl/TShell/PolledProcessor.h</text>
</a>
</g>
</g>
<!-- Node13&#45;&gt;Node15 -->
<g id="edge15" class="edge"><title>Node13&#45;&gt;Node15</title>
<path fill="none" stroke="midnightblue" d="M1033.7,-119.772C1060,-109.629 1096.72,-95.4669 1119.92,-86.5164"/>
<polygon fill="midnightblue" stroke="midnightblue" points="1032.25,-116.579 1024.18,-123.444 1034.77,-123.11 1032.25,-116.579"/>
</g>
<!-- Node16 -->
<g id="node16" class="node"><title>Node16</title>
<g id="a_node16"><a xlink:href="_polled_maker_8h.html" target="_top" xlink:title=" ">
<polygon fill="white" stroke="black" points="1078.5,-6 1078.5,-25 1205.5,-25 1205.5,-6 1078.5,-6"/>
<text text-anchor="middle" x="1142" y="-13" font-family="Helvetica,sans-Serif" font-size="10.00">Cpl/TShell/PolledMaker.h</text>
</a>
</g>
</g>
<!-- Node15&#45;&gt;Node16 -->
<g id="edge16" class="edge"><title>Node15&#45;&gt;Node16</title>
<path fill="none" stroke="midnightblue" d="M1142,-57.3165C1142,-46.4962 1142,-33.398 1142,-25.0091"/>
<polygon fill="midnightblue" stroke="midnightblue" points="1138.5,-57.4751 1142,-67.4751 1145.5,-57.4751 1138.5,-57.4751"/>
</g>
</g>
</svg>
