<?xml version="1.0" encoding="UTF-8" standalone="no"?>
<!DOCTYPE svg PUBLIC "-//W3C//DTD SVG 1.1//EN"
 "http://www.w3.org/Graphics/SVG/1.1/DTD/svg11.dtd">
<!-- Generated by graphviz version 2.38.0 (20140413.2041)
 -->
<!-- Title: Cpl/Container/MapItem.h Pages: 1 -->
<svg width="1223pt" height="375pt"
 viewBox="0.00 0.00 1222.50 375.00" xmlns="http://www.w3.org/2000/svg" xmlns:xlink="http://www.w3.org/1999/xlink">
<g id="graph0" class="graph" transform="scale(1 1) rotate(0) translate(4 371)">
<title>Cpl/Container/MapItem.h</title>
<polygon fill="white" stroke="none" points="-4,4 -4,-371 1218.5,-371 1218.5,4 -4,4"/>
<!-- Node1 -->
<g id="node1" class="node"><title>Node1</title>
<g id="a_node1"><a xlink:title=" ">
<polygon fill="#bfbfbf" stroke="black" points="565,-347.5 565,-366.5 690,-366.5 690,-347.5 565,-347.5"/>
<text text-anchor="middle" x="627.5" y="-354.5" font-family="Helvetica,sans-Serif" font-size="10.00">Cpl/Container/MapItem.h</text>
</a>
</g>
</g>
<!-- Node2 -->
<g id="node2" class="node"><title>Node2</title>
<g id="a_node2"><a xlink:href="_avl_tree___8h.html" target="_top" xlink:title=" ">
<polygon fill="white" stroke="black" points="455,-291.5 455,-310.5 580,-310.5 580,-291.5 455,-291.5"/>
<text text-anchor="middle" x="517.5" y="-298.5" font-family="Helvetica,sans-Serif" font-size="10.00">Cpl/Container/AvlTree_.h</text>
</a>
</g>
</g>
<!-- Node1&#45;&gt;Node2 -->
<g id="edge1" class="edge"><title>Node1&#45;&gt;Node2</title>
<path fill="none" stroke="midnightblue" d="M600.738,-342.862C580.341,-332.849 552.834,-319.346 535.13,-310.655"/>
<polygon fill="midnightblue" stroke="midnightblue" points="599.308,-346.059 609.827,-347.324 602.392,-339.775 599.308,-346.059"/>
</g>
<!-- Node19 -->
<g id="node19" class="node"><title>Node19</title>
<g id="a_node19"><a xlink:href="_command_8h.html" target="_top" xlink:title=" ">
<polygon fill="white" stroke="black" points="569,-235.5 569,-254.5 686,-254.5 686,-235.5 569,-235.5"/>
<text text-anchor="middle" x="627.5" y="-242.5" font-family="Helvetica,sans-Serif" font-size="10.00">Cpl/TShell/Command.h</text>
</a>
</g>
</g>
<!-- Node1&#45;&gt;Node19 -->
<g id="edge19" class="edge"><title>Node1&#45;&gt;Node19</title>
<path fill="none" stroke="midnightblue" d="M627.5,-337.348C627.5,-313.254 627.5,-272.308 627.5,-254.591"/>
<polygon fill="midnightblue" stroke="midnightblue" points="624,-337.368 627.5,-347.368 631,-337.369 624,-337.368"/>
</g>
<!-- Node20 -->
<g id="node20" class="node"><title>Node20</title>
<g id="a_node20"><a xlink:href="_string_item_8h.html" target="_top" xlink:title=" ">
<polygon fill="white" stroke="black" points="778.5,-291.5 778.5,-310.5 888.5,-310.5 888.5,-291.5 778.5,-291.5"/>
<text text-anchor="middle" x="833.5" y="-298.5" font-family="Helvetica,sans-Serif" font-size="10.00">Cpl/Text/StringItem.h</text>
</a>
</g>
</g>
<!-- Node1&#45;&gt;Node20 -->
<g id="edge22" class="edge"><title>Node1&#45;&gt;Node20</title>
<path fill="none" stroke="midnightblue" d="M670.115,-344.829C709.01,-334.633 765.664,-319.782 801.011,-310.516"/>
<polygon fill="midnightblue" stroke="midnightblue" points="668.927,-341.522 660.141,-347.444 670.702,-348.293 668.927,-341.522"/>
</g>
<!-- Node3 -->
<g id="node3" class="node"><title>Node3</title>
<g id="a_node3"><a xlink:href="_map_8h.html" target="_top" xlink:title=" ">
<polygon fill="white" stroke="black" points="446,-235.5 446,-254.5 551,-254.5 551,-235.5 446,-235.5"/>
<text text-anchor="middle" x="498.5" y="-242.5" font-family="Helvetica,sans-Serif" font-size="10.00">Cpl/Container/Map.h</text>
</a>
</g>
</g>
<!-- Node2&#45;&gt;Node3 -->
<g id="edge2" class="edge"><title>Node2&#45;&gt;Node3</title>
<path fill="none" stroke="midnightblue" d="M510.954,-281.396C507.776,-272.362 504.107,-261.936 501.579,-254.751"/>
<polygon fill="midnightblue" stroke="midnightblue" points="507.742,-282.812 514.363,-291.083 514.345,-280.488 507.742,-282.812"/>
</g>
<!-- Node4 -->
<g id="node4" class="node"><title>Node4</title>
<g id="a_node4"><a xlink:href="_cmd_2_command_8h.html" target="_top" xlink:title=" ">
<polygon fill="white" stroke="black" points="451.5,-123.5 451.5,-142.5 591.5,-142.5 591.5,-123.5 451.5,-123.5"/>
<text text-anchor="middle" x="521.5" y="-130.5" font-family="Helvetica,sans-Serif" font-size="10.00">Cpl/TShell/Cmd/Command.h</text>
</a>
</g>
</g>
<!-- Node3&#45;&gt;Node4 -->
<g id="edge3" class="edge"><title>Node3&#45;&gt;Node4</title>
<path fill="none" stroke="midnightblue" d="M496.204,-225.297C495.145,-212.159 494.823,-194.274 498.5,-179 501.745,-165.522 509.745,-151.54 515.395,-142.809"/>
<polygon fill="midnightblue" stroke="midnightblue" points="492.742,-225.845 497.243,-235.437 499.706,-225.132 492.742,-225.845"/>
</g>
<!-- Node14 -->
<g id="node14" class="node"><title>Node14</title>
<g id="a_node14"><a xlink:href="_context___8h.html" target="_top" xlink:title=" ">
<polygon fill="white" stroke="black" points="507.5,-179.5 507.5,-198.5 619.5,-198.5 619.5,-179.5 507.5,-179.5"/>
<text text-anchor="middle" x="563.5" y="-186.5" font-family="Helvetica,sans-Serif" font-size="10.00">Cpl/TShell/Context_.h</text>
</a>
</g>
</g>
<!-- Node3&#45;&gt;Node14 -->
<g id="edge13" class="edge"><title>Node3&#45;&gt;Node14</title>
<path fill="none" stroke="midnightblue" d="M516.773,-228.82C528.418,-219.145 543.099,-206.948 552.867,-198.834"/>
<polygon fill="midnightblue" stroke="midnightblue" points="514.399,-226.242 508.943,-235.324 518.872,-231.626 514.399,-226.242"/>
</g>
<!-- Node5 -->
<g id="node5" class="node"><title>Node5</title>
<g id="a_node5"><a xlink:href="_dm_8h.html" target="_top" xlink:title=" ">
<polygon fill="white" stroke="black" points="139.5,-67.5 139.5,-86.5 245.5,-86.5 245.5,-67.5 139.5,-67.5"/>
<text text-anchor="middle" x="192.5" y="-74.5" font-family="Helvetica,sans-Serif" font-size="10.00">Cpl/Dm/TShell/Dm.h</text>
</a>
</g>
</g>
<!-- Node4&#45;&gt;Node5 -->
<g id="edge4" class="edge"><title>Node4&#45;&gt;Node5</title>
<path fill="none" stroke="midnightblue" d="M459.299,-121.791C397.132,-111.587 302.642,-96.078 244.387,-86.5164"/>
<polygon fill="midnightblue" stroke="midnightblue" points="458.934,-125.278 469.369,-123.444 460.068,-118.37 458.934,-125.278"/>
</g>
<!-- Node6 -->
<g id="node6" class="node"><title>Node6</title>
<g id="a_node6"><a xlink:href="_bye_8h.html" target="_top" xlink:title=" ">
<polygon fill="white" stroke="black" points="264,-67.5 264,-86.5 377,-86.5 377,-67.5 264,-67.5"/>
<text text-anchor="middle" x="320.5" y="-74.5" font-family="Helvetica,sans-Serif" font-size="10.00">Cpl/TShell/Cmd/Bye.h</text>
</a>
</g>
</g>
<!-- Node4&#45;&gt;Node6 -->
<g id="edge5" class="edge"><title>Node4&#45;&gt;Node6</title>
<path fill="none" stroke="midnightblue" d="M479.919,-120.829C441.969,-110.633 386.69,-95.7823 352.2,-86.5164"/>
<polygon fill="midnightblue" stroke="midnightblue" points="479.085,-124.229 489.651,-123.444 480.902,-117.469 479.085,-124.229"/>
</g>
<!-- Node7 -->
<g id="node7" class="node"><title>Node7</title>
<g id="a_node7"><a xlink:href="_help_8h.html" target="_top" xlink:title=" ">
<polygon fill="white" stroke="black" points="395.5,-67.5 395.5,-86.5 511.5,-86.5 511.5,-67.5 395.5,-67.5"/>
<text text-anchor="middle" x="453.5" y="-74.5" font-family="Helvetica,sans-Serif" font-size="10.00">Cpl/TShell/Cmd/Help.h</text>
</a>
</g>
</g>
<!-- Node4&#45;&gt;Node7 -->
<g id="edge6" class="edge"><title>Node4&#45;&gt;Node7</title>
<path fill="none" stroke="midnightblue" d="M502.738,-117.101C490.5,-107.382 474.941,-95.0269 464.624,-86.8339"/>
<polygon fill="midnightblue" stroke="midnightblue" points="500.567,-119.846 510.575,-123.324 504.92,-114.364 500.567,-119.846"/>
</g>
<!-- Node8 -->
<g id="node8" class="node"><title>Node8</title>
<g id="a_node8"><a xlink:href="_t_print_8h.html" target="_top" xlink:title=" ">
<polygon fill="white" stroke="black" points="529.5,-67.5 529.5,-86.5 651.5,-86.5 651.5,-67.5 529.5,-67.5"/>
<text text-anchor="middle" x="590.5" y="-74.5" font-family="Helvetica,sans-Serif" font-size="10.00">Cpl/TShell/Cmd/TPrint.h</text>
</a>
</g>
</g>
<!-- Node4&#45;&gt;Node8 -->
<g id="edge7" class="edge"><title>Node4&#45;&gt;Node8</title>
<path fill="none" stroke="midnightblue" d="M540.538,-117.101C552.956,-107.382 568.743,-95.0269 579.212,-86.8339"/>
<polygon fill="midnightblue" stroke="midnightblue" points="538.304,-114.405 532.586,-123.324 542.618,-119.917 538.304,-114.405"/>
</g>
<!-- Node9 -->
<g id="node9" class="node"><title>Node9</title>
<g id="a_node9"><a xlink:href="_threads_8h.html" target="_top" xlink:title=" ">
<polygon fill="white" stroke="black" points="670,-67.5 670,-86.5 801,-86.5 801,-67.5 670,-67.5"/>
<text text-anchor="middle" x="735.5" y="-74.5" font-family="Helvetica,sans-Serif" font-size="10.00">Cpl/TShell/Cmd/Threads.h</text>
</a>
</g>
</g>
<!-- Node4&#45;&gt;Node9 -->
<g id="edge8" class="edge"><title>Node4&#45;&gt;Node9</title>
<path fill="none" stroke="midnightblue" d="M565.255,-120.959C605.674,-110.76 664.873,-95.8217 701.75,-86.5164"/>
<polygon fill="midnightblue" stroke="midnightblue" points="564.249,-117.603 555.409,-123.444 565.961,-124.39 564.249,-117.603"/>
</g>
<!-- Node12 -->
<g id="node12" class="node"><title>Node12</title>
<g id="a_node12"><a xlink:href="_tick_8h.html" target="_top" xlink:title=" ">
<polygon fill="white" stroke="black" points="819,-67.5 819,-86.5 934,-86.5 934,-67.5 819,-67.5"/>
<text text-anchor="middle" x="876.5" y="-74.5" font-family="Helvetica,sans-Serif" font-size="10.00">Cpl/TShell/Cmd/Tick.h</text>
</a>
</g>
</g>
<!-- Node4&#45;&gt;Node12 -->
<g id="edge11" class="edge"><title>Node4&#45;&gt;Node12</title>
<path fill="none" stroke="midnightblue" d="M587.789,-121.917C654.855,-111.715 757.395,-96.1174 820.512,-86.5164"/>
<polygon fill="midnightblue" stroke="midnightblue" points="587.111,-118.479 577.751,-123.444 588.163,-125.4 587.111,-118.479"/>
</g>
<!-- Node13 -->
<g id="node13" class="node"><title>Node13</title>
<g id="a_node13"><a xlink:href="_t_shell_2_cmd_2_trace_8h.html" target="_top" xlink:title=" ">
<polygon fill="white" stroke="black" points="0,-67.5 0,-86.5 121,-86.5 121,-67.5 0,-67.5"/>
<text text-anchor="middle" x="60.5" y="-74.5" font-family="Helvetica,sans-Serif" font-size="10.00">Cpl/TShell/Cmd/Trace.h</text>
</a>
</g>
</g>
<!-- Node4&#45;&gt;Node13 -->
<g id="edge12" class="edge"><title>Node4&#45;&gt;Node13</title>
<path fill="none" stroke="midnightblue" d="M440.812,-123.03C361.725,-114.164 237.77,-100.068 130.5,-87 127.459,-86.6296 124.345,-86.2456 121.2,-85.8544"/>
<polygon fill="midnightblue" stroke="midnightblue" points="440.86,-126.557 451.187,-124.192 441.639,-119.601 440.86,-126.557"/>
</g>
<!-- Node10 -->
<g id="node10" class="node"><title>Node10</title>
<g id="a_node10"><a xlink:href="_free_r_t_o_s_2_threads_8h.html" target="_top" xlink:title=" ">
<polygon fill="white" stroke="black" points="738.5,-0.5 738.5,-30.5 872.5,-30.5 872.5,-0.5 738.5,-0.5"/>
<text text-anchor="start" x="746.5" y="-18.5" font-family="Helvetica,sans-Serif" font-size="10.00">Cpl/TShell/Cmd/FreeRTOS</text>
<text text-anchor="middle" x="805.5" y="-7.5" font-family="Helvetica,sans-Serif" font-size="10.00">/Threads.h</text>
</a>
</g>
</g>
<!-- Node9&#45;&gt;Node10 -->
<g id="edge9" class="edge"><title>Node9&#45;&gt;Node10</title>
<path fill="none" stroke="midnightblue" d="M753.239,-60.9215C764.231,-51.579 778.251,-39.6616 789.002,-30.523"/>
<polygon fill="midnightblue" stroke="midnightblue" points="750.882,-58.3318 745.529,-67.4751 755.415,-63.6654 750.882,-58.3318"/>
</g>
<!-- Node11 -->
<g id="node11" class="node"><title>Node11</title>
<g id="a_node11"><a xlink:href="_win32_2_threads_8h.html" target="_top" xlink:title=" ">
<polygon fill="white" stroke="black" points="605,-0.5 605,-30.5 720,-30.5 720,-0.5 605,-0.5"/>
<text text-anchor="start" x="613" y="-18.5" font-family="Helvetica,sans-Serif" font-size="10.00">Cpl/TShell/Cmd/Win32</text>
<text text-anchor="middle" x="662.5" y="-7.5" font-family="Helvetica,sans-Serif" font-size="10.00">/Threads.h</text>
</a>
</g>
</g>
<!-- Node9&#45;&gt;Node11 -->
<g id="edge10" class="edge"><title>Node9&#45;&gt;Node11</title>
<path fill="none" stroke="midnightblue" d="M717,-60.9215C705.538,-51.579 690.917,-39.6616 679.705,-30.523"/>
<polygon fill="midnightblue" stroke="midnightblue" points="715.078,-63.8701 725.041,-67.4751 719.501,-58.4442 715.078,-63.8701"/>
</g>
<!-- Node14&#45;&gt;Node4 -->
<g id="edge14" class="edge"><title>Node14&#45;&gt;Node4</title>
<path fill="none" stroke="midnightblue" d="M550.39,-171.144C543.072,-161.736 534.259,-150.405 528.306,-142.751"/>
<polygon fill="midnightblue" stroke="midnightblue" points="547.662,-173.338 556.565,-179.083 553.188,-169.041 547.662,-173.338"/>
</g>
<!-- Node15 -->
<g id="node15" class="node"><title>Node15</title>
<g id="a_node15"><a xlink:href="_processor_8h.html" target="_top" xlink:title=" ">
<polygon fill="white" stroke="black" points="966,-123.5 966,-142.5 1083,-142.5 1083,-123.5 966,-123.5"/>
<text text-anchor="middle" x="1024.5" y="-130.5" font-family="Helvetica,sans-Serif" font-size="10.00">Cpl/TShell/Processor.h</text>
</a>
</g>
</g>
<!-- Node14&#45;&gt;Node15 -->
<g id="edge15" class="edge"><title>Node14&#45;&gt;Node15</title>
<path fill="none" stroke="midnightblue" d="M629.672,-180.249C719.837,-169.687 879.891,-150.939 965.922,-140.862"/>
<polygon fill="midnightblue" stroke="midnightblue" points="629.092,-176.793 619.567,-181.433 629.906,-183.745 629.092,-176.793"/>
</g>
<!-- Node16 -->
<g id="node16" class="node"><title>Node16</title>
<g id="a_node16"><a xlink:href="_maker_8h.html" target="_top" xlink:title=" ">
<polygon fill="white" stroke="black" points="1114.5,-67.5 1114.5,-86.5 1214.5,-86.5 1214.5,-67.5 1114.5,-67.5"/>
<text text-anchor="middle" x="1164.5" y="-74.5" font-family="Helvetica,sans-Serif" font-size="10.00">Cpl/TShell/Maker.h</text>
</a>
</g>
</g>
<!-- Node15&#45;&gt;Node16 -->
<g id="edge16" class="edge"><title>Node15&#45;&gt;Node16</title>
<path fill="none" stroke="midnightblue" d="M1056.2,-119.772C1082.5,-109.629 1119.22,-95.4669 1142.42,-86.5164"/>
<polygon fill="midnightblue" stroke="midnightblue" points="1054.75,-116.579 1046.68,-123.444 1057.27,-123.11 1054.75,-116.579"/>
</g>
<!-- Node17 -->
<g id="node17" class="node"><title>Node17</title>
<g id="a_node17"><a xlink:href="_polled_processor_8h.html" target="_top" xlink:title=" ">
<polygon fill="white" stroke="black" points="952.5,-67.5 952.5,-86.5 1096.5,-86.5 1096.5,-67.5 952.5,-67.5"/>
<text text-anchor="middle" x="1024.5" y="-74.5" font-family="Helvetica,sans-Serif" font-size="10.00">Cpl/TShell/PolledProcessor.h</text>
</a>
</g>
</g>
<!-- Node15&#45;&gt;Node17 -->
<g id="edge17" class="edge"><title>Node15&#45;&gt;Node17</title>
<path fill="none" stroke="midnightblue" d="M1024.5,-112.805C1024.5,-103.91 1024.5,-93.7798 1024.5,-86.7511"/>
<polygon fill="midnightblue" stroke="midnightblue" points="1021,-113.083 1024.5,-123.083 1028,-113.083 1021,-113.083"/>
</g>
<!-- Node18 -->
<g id="node18" class="node"><title>Node18</title>
<g id="a_node18"><a xlink:href="_polled_maker_8h.html" target="_top" xlink:title=" ">
<polygon fill="white" stroke="black" points="961,-6 961,-25 1088,-25 1088,-6 961,-6"/>
<text text-anchor="middle" x="1024.5" y="-13" font-family="Helvetica,sans-Serif" font-size="10.00">Cpl/TShell/PolledMaker.h</text>
</a>
</g>
</g>
<!-- Node17&#45;&gt;Node18 -->
<g id="edge18" class="edge"><title>Node17&#45;&gt;Node18</title>
<path fill="none" stroke="midnightblue" d="M1024.5,-57.3165C1024.5,-46.4962 1024.5,-33.398 1024.5,-25.0091"/>
<polygon fill="midnightblue" stroke="midnightblue" points="1021,-57.4751 1024.5,-67.4751 1028,-57.4751 1021,-57.4751"/>
</g>
<!-- Node19&#45;&gt;Node4 -->
<g id="edge20" class="edge"><title>Node19&#45;&gt;Node4</title>
<path fill="none" stroke="midnightblue" d="M633.095,-225.222C636.06,-211.309 637.468,-192.501 628.5,-179 615.788,-159.864 593.179,-148.847 572.009,-142.513"/>
<polygon fill="midnightblue" stroke="midnightblue" points="629.646,-224.579 630.551,-235.135 636.427,-226.319 629.646,-224.579"/>
</g>
<!-- Node19&#45;&gt;Node14 -->
<g id="edge21" class="edge"><title>Node19&#45;&gt;Node14</title>
<path fill="none" stroke="midnightblue" d="M609.509,-228.82C598.042,-219.145 583.587,-206.948 573.97,-198.834"/>
<polygon fill="midnightblue" stroke="midnightblue" points="607.317,-231.55 617.217,-235.324 611.831,-226.2 607.317,-231.55"/>
</g>
<!-- Node21 -->
<g id="node21" class="node"><title>Node21</title>
<g id="a_node21"><a xlink:href="_d_f_string_item_8h.html" target="_top" xlink:title=" ">
<polygon fill="white" stroke="black" points="704.5,-235.5 704.5,-254.5 826.5,-254.5 826.5,-235.5 704.5,-235.5"/>
<text text-anchor="middle" x="765.5" y="-242.5" font-family="Helvetica,sans-Serif" font-size="10.00">Cpl/Text/DFStringItem.h</text>
</a>
</g>
</g>
<!-- Node20&#45;&gt;Node21 -->
<g id="edge23" class="edge"><title>Node20&#45;&gt;Node21</title>
<path fill="none" stroke="midnightblue" d="M814.738,-285.101C802.5,-275.382 786.941,-263.027 776.624,-254.834"/>
<polygon fill="midnightblue" stroke="midnightblue" points="812.567,-287.846 822.575,-291.324 816.92,-282.364 812.567,-287.846"/>
</g>
<!-- Node22 -->
<g id="node22" class="node"><title>Node22</title>
<g id="a_node22"><a xlink:href="_d_string_item_8h.html" target="_top" xlink:title=" ">
<polygon fill="white" stroke="black" points="844.5,-235.5 844.5,-254.5 960.5,-254.5 960.5,-235.5 844.5,-235.5"/>
<text text-anchor="middle" x="902.5" y="-242.5" font-family="Helvetica,sans-Serif" font-size="10.00">Cpl/Text/DStringItem.h</text>
</a>
</g>
</g>
<!-- Node20&#45;&gt;Node22 -->
<g id="edge24" class="edge"><title>Node20&#45;&gt;Node22</title>
<path fill="none" stroke="midnightblue" d="M852.538,-285.101C864.956,-275.382 880.743,-263.027 891.212,-254.834"/>
<polygon fill="midnightblue" stroke="midnightblue" points="850.304,-282.405 844.586,-291.324 854.618,-287.917 850.304,-282.405"/>
</g>
<!-- Node23 -->
<g id="node23" class="node"><title>Node23</title>
<g id="a_node23"><a xlink:href="_f_string_item_8h.html" target="_top" xlink:title=" ">
<polygon fill="white" stroke="black" points="978.5,-235.5 978.5,-254.5 1094.5,-254.5 1094.5,-235.5 978.5,-235.5"/>
<text text-anchor="middle" x="1036.5" y="-242.5" font-family="Helvetica,sans-Serif" font-size="10.00">Cpl/Text/FStringItem.h</text>
</a>
</g>
</g>
<!-- Node20&#45;&gt;Node23 -->
<g id="edge25" class="edge"><title>Node20&#45;&gt;Node23</title>
<path fill="none" stroke="midnightblue" d="M875.494,-288.829C913.823,-278.633 969.652,-263.782 1004.48,-254.516"/>
<polygon fill="midnightblue" stroke="midnightblue" points="874.43,-285.49 865.666,-291.444 876.23,-292.255 874.43,-285.49"/>
</g>
</g>
</svg>
