<?xml version="1.0" encoding="UTF-8" standalone="no"?>
<!DOCTYPE svg PUBLIC "-//W3C//DTD SVG 1.1//EN"
 "http://www.w3.org/Graphics/SVG/1.1/DTD/svg11.dtd">
<!-- Generated by graphviz version 2.38.0 (20140413.2041)
 -->
<!-- Title: Cpl/Itc/Message.h Pages: 1 -->
<svg width="1540pt" height="688pt"
 viewBox="0.00 0.00 1540.00 688.00" xmlns="http://www.w3.org/2000/svg" xmlns:xlink="http://www.w3.org/1999/xlink">
<g id="graph0" class="graph" transform="scale(1 1) rotate(0) translate(4 684)">
<title>Cpl/Itc/Message.h</title>
<polygon fill="white" stroke="none" points="-4,4 -4,-684 1536,-684 1536,4 -4,4"/>
<!-- Node1 -->
<g id="node1" class="node"><title>Node1</title>
<g id="a_node1"><a xlink:title=" ">
<polygon fill="#bfbfbf" stroke="black" points="531.5,-660.5 531.5,-679.5 627.5,-679.5 627.5,-660.5 531.5,-660.5"/>
<text text-anchor="middle" x="579.5" y="-667.5" font-family="Helvetica,sans-Serif" font-size="10.00">Cpl/Itc/Message.h</text>
</a>
</g>
</g>
<!-- Node2 -->
<g id="node2" class="node"><title>Node2</title>
<g id="a_node2"><a xlink:href="_post_api_8h.html" target="_top" xlink:title=" ">
<polygon fill="white" stroke="black" points="577,-604.5 577,-623.5 668,-623.5 668,-604.5 577,-604.5"/>
<text text-anchor="middle" x="622.5" y="-611.5" font-family="Helvetica,sans-Serif" font-size="10.00">Cpl/Itc/PostApi.h</text>
</a>
</g>
</g>
<!-- Node1&#45;&gt;Node2 -->
<g id="edge1" class="edge"><title>Node1&#45;&gt;Node2</title>
<path fill="none" stroke="midnightblue" d="M592.922,-652.144C600.414,-642.736 609.437,-631.405 615.532,-623.751"/>
<polygon fill="midnightblue" stroke="midnightblue" points="590.092,-650.08 586.601,-660.083 595.568,-654.44 590.092,-650.08"/>
</g>
<!-- Node35 -->
<g id="node35" class="node"><title>Node35</title>
<g id="a_node35"><a xlink:href="_service_message_8h.html" target="_top" xlink:title=" ">
<polygon fill="white" stroke="black" points="449,-548.5 449,-567.5 578,-567.5 578,-548.5 449,-548.5"/>
<text text-anchor="middle" x="513.5" y="-555.5" font-family="Helvetica,sans-Serif" font-size="10.00">Cpl/Itc/ServiceMessage.h</text>
</a>
</g>
</g>
<!-- Node1&#45;&gt;Node35 -->
<g id="edge62" class="edge"><title>Node1&#45;&gt;Node35</title>
<path fill="none" stroke="midnightblue" d="M569.084,-651.64C554.746,-627.744 529.477,-585.629 518.655,-567.591"/>
<polygon fill="midnightblue" stroke="midnightblue" points="566.175,-653.594 574.321,-660.368 572.177,-649.993 566.175,-653.594"/>
</g>
<!-- Node3 -->
<g id="node3" class="node"><title>Node3</title>
<g id="a_node3"><a xlink:href="_async_return_handler_8h.html" target="_top" xlink:title=" ">
<polygon fill="white" stroke="black" points="97.5,-492.5 97.5,-511.5 243.5,-511.5 243.5,-492.5 97.5,-492.5"/>
<text text-anchor="middle" x="170.5" y="-499.5" font-family="Helvetica,sans-Serif" font-size="10.00">Cpl/Itc/AsyncReturnHandler.h</text>
</a>
</g>
</g>
<!-- Node2&#45;&gt;Node3 -->
<g id="edge2" class="edge"><title>Node2&#45;&gt;Node3</title>
<path fill="none" stroke="midnightblue" d="M577.502,-602.049C487.444,-580.132 286.735,-531.287 205.569,-511.535"/>
<polygon fill="midnightblue" stroke="midnightblue" points="576.864,-605.496 587.408,-604.46 578.52,-598.695 576.864,-605.496"/>
</g>
<!-- Node17 -->
<g id="node17" class="node"><title>Node17</title>
<g id="a_node17"><a xlink:href="_mailbox_8h.html" target="_top" xlink:title=" ">
<polygon fill="white" stroke="black" points="1096.5,-364 1096.5,-383 1186.5,-383 1186.5,-364 1096.5,-364"/>
<text text-anchor="middle" x="1141.5" y="-371" font-family="Helvetica,sans-Serif" font-size="10.00">Cpl/Itc/Mailbox.h</text>
</a>
</g>
</g>
<!-- Node2&#45;&gt;Node17 -->
<g id="edge20" class="edge"><title>Node2&#45;&gt;Node17</title>
<path fill="none" stroke="midnightblue" d="M650.405,-600.176C743.886,-557.218 1044.51,-419.069 1122.75,-383.118"/>
<polygon fill="midnightblue" stroke="midnightblue" points="648.903,-597.015 641.278,-604.371 651.826,-603.375 648.903,-597.015"/>
</g>
<!-- Node31 -->
<g id="node31" class="node"><title>Node31</title>
<g id="a_node31"><a xlink:href="_s_a_p_8h.html" target="_top" xlink:title=" ">
<polygon fill="white" stroke="black" points="596,-548.5 596,-567.5 673,-567.5 673,-548.5 596,-548.5"/>
<text text-anchor="middle" x="634.5" y="-555.5" font-family="Helvetica,sans-Serif" font-size="10.00">Cpl/Itc/SAP.h</text>
</a>
</g>
</g>
<!-- Node2&#45;&gt;Node31 -->
<g id="edge44" class="edge"><title>Node2&#45;&gt;Node31</title>
<path fill="none" stroke="midnightblue" d="M626.7,-594.101C628.692,-585.136 630.976,-574.858 632.555,-567.751"/>
<polygon fill="midnightblue" stroke="midnightblue" points="623.234,-593.562 624.482,-604.083 630.068,-595.08 623.234,-593.562"/>
</g>
<!-- Node4 -->
<g id="node4" class="node"><title>Node4</title>
<g id="a_node4"><a xlink:href="_response_message_8h.html" target="_top" xlink:title=" ">
<polygon fill="white" stroke="black" points="428.5,-431 428.5,-450 568.5,-450 568.5,-431 428.5,-431"/>
<text text-anchor="middle" x="498.5" y="-438" font-family="Helvetica,sans-Serif" font-size="10.00">Cpl/Itc/ResponseMessage.h</text>
</a>
</g>
</g>
<!-- Node3&#45;&gt;Node4 -->
<g id="edge3" class="edge"><title>Node3&#45;&gt;Node4</title>
<path fill="none" stroke="midnightblue" d="M227.345,-490.688C290.84,-479.17 392.448,-460.738 451.593,-450.009"/>
<polygon fill="midnightblue" stroke="midnightblue" points="226.709,-487.246 217.494,-492.475 227.959,-494.134 226.709,-487.246"/>
</g>
<!-- Node5 -->
<g id="node5" class="node"><title>Node5</title>
<g id="a_node5"><a xlink:href="_erase_request_8h.html" target="_top" xlink:title=" ">
<polygon fill="white" stroke="black" points="612,-364 612,-383 781,-383 781,-364 612,-364"/>
<text text-anchor="middle" x="696.5" y="-371" font-family="Helvetica,sans-Serif" font-size="10.00">Cpl/Dm/Persistent/EraseRequest.h</text>
</a>
</g>
</g>
<!-- Node4&#45;&gt;Node5 -->
<g id="edge4" class="edge"><title>Node4&#45;&gt;Node5</title>
<path fill="none" stroke="midnightblue" d="M534.495,-427.683C573.74,-414.8 635.586,-394.497 670.414,-383.064"/>
<polygon fill="midnightblue" stroke="midnightblue" points="533.202,-424.424 524.793,-430.869 535.386,-431.075 533.202,-424.424"/>
</g>
<!-- Node7 -->
<g id="node7" class="node"><title>Node7</title>
<g id="a_node7"><a xlink:href="_flush_request_8h.html" target="_top" xlink:title=" ">
<polygon fill="white" stroke="black" points="157,-364 157,-383 324,-383 324,-364 157,-364"/>
<text text-anchor="middle" x="240.5" y="-371" font-family="Helvetica,sans-Serif" font-size="10.00">Cpl/Dm/Persistent/FlushRequest.h</text>
</a>
</g>
</g>
<!-- Node4&#45;&gt;Node7 -->
<g id="edge6" class="edge"><title>Node4&#45;&gt;Node7</title>
<path fill="none" stroke="midnightblue" d="M454.775,-428.484C403.884,-415.663 320.918,-394.76 274.57,-383.083"/>
<polygon fill="midnightblue" stroke="midnightblue" points="453.954,-431.886 464.506,-430.936 455.664,-425.098 453.954,-431.886"/>
</g>
<!-- Node8 -->
<g id="node8" class="node"><title>Node8</title>
<g id="a_node8"><a xlink:href="_atomic_request_8h.html" target="_top" xlink:title=" ">
<polygon fill="white" stroke="black" points="799,-364 799,-383 922,-383 922,-364 799,-364"/>
<text text-anchor="middle" x="860.5" y="-371" font-family="Helvetica,sans-Serif" font-size="10.00">Cpl/Itc/AtomicRequest.h</text>
</a>
</g>
</g>
<!-- Node4&#45;&gt;Node8 -->
<g id="edge8" class="edge"><title>Node4&#45;&gt;Node8</title>
<path fill="none" stroke="midnightblue" d="M560.263,-429.327C619.235,-419.485 710.553,-403.908 789.5,-389 799.266,-387.156 809.766,-385.069 819.617,-383.065"/>
<polygon fill="midnightblue" stroke="midnightblue" points="559.65,-425.881 550.361,-430.976 560.8,-432.786 559.65,-425.881"/>
</g>
<!-- Node10 -->
<g id="node10" class="node"><title>Node10</title>
<g id="a_node10"><a xlink:href="_close_request_8h.html" target="_top" xlink:title=" ">
<polygon fill="white" stroke="black" points="342,-364 342,-383 459,-383 459,-364 342,-364"/>
<text text-anchor="middle" x="400.5" y="-371" font-family="Helvetica,sans-Serif" font-size="10.00">Cpl/Itc/CloseRequest.h</text>
</a>
</g>
</g>
<!-- Node4&#45;&gt;Node10 -->
<g id="edge10" class="edge"><title>Node4&#45;&gt;Node10</title>
<path fill="none" stroke="midnightblue" d="M476.781,-425.095C457.394,-412.236 429.645,-393.831 413.507,-383.127"/>
<polygon fill="midnightblue" stroke="midnightblue" points="475.015,-428.123 485.283,-430.734 478.884,-422.29 475.015,-428.123"/>
</g>
<!-- Node14 -->
<g id="node14" class="node"><title>Node14</title>
<g id="a_node14"><a xlink:href="_open_request_8h.html" target="_top" xlink:title=" ">
<polygon fill="white" stroke="black" points="477.5,-364 477.5,-383 593.5,-383 593.5,-364 477.5,-364"/>
<text text-anchor="middle" x="535.5" y="-371" font-family="Helvetica,sans-Serif" font-size="10.00">Cpl/Itc/OpenRequest.h</text>
</a>
</g>
</g>
<!-- Node4&#45;&gt;Node14 -->
<g id="edge15" class="edge"><title>Node4&#45;&gt;Node14</title>
<path fill="none" stroke="midnightblue" d="M508.442,-422.035C515.605,-409.45 524.965,-393.007 530.589,-383.127"/>
<polygon fill="midnightblue" stroke="midnightblue" points="505.395,-420.312 503.49,-430.734 511.479,-423.775 505.395,-420.312"/>
</g>
<!-- Node16 -->
<g id="node16" class="node"><title>Node16</title>
<g id="a_node16"><a xlink:href="_indexed_entry_requests_8h.html" target="_top" xlink:title=" ">
<polygon fill="white" stroke="black" points="0,-358.5 0,-388.5 139,-388.5 139,-358.5 0,-358.5"/>
<text text-anchor="start" x="8" y="-376.5" font-family="Helvetica,sans-Serif" font-size="10.00">Cpl/Persistent/IndexedEntry</text>
<text text-anchor="middle" x="69.5" y="-365.5" font-family="Helvetica,sans-Serif" font-size="10.00">Requests.h</text>
</a>
</g>
</g>
<!-- Node4&#45;&gt;Node16 -->
<g id="edge18" class="edge"><title>Node4&#45;&gt;Node16</title>
<path fill="none" stroke="midnightblue" d="M423.474,-429.61C352.312,-420.016 242.453,-404.65 147.5,-389 144.782,-388.552 142.012,-388.086 139.216,-387.606"/>
<polygon fill="midnightblue" stroke="midnightblue" points="423.308,-433.119 433.686,-430.983 424.241,-426.182 423.308,-433.119"/>
</g>
<!-- Node6 -->
<g id="node6" class="node"><title>Node6</title>
<g id="a_node6"><a xlink:href="_dm_2_persistent_2_record_8h.html" target="_top" xlink:title=" ">
<polygon fill="white" stroke="black" points="592.5,-134.5 592.5,-153.5 730.5,-153.5 730.5,-134.5 592.5,-134.5"/>
<text text-anchor="middle" x="661.5" y="-141.5" font-family="Helvetica,sans-Serif" font-size="10.00">Cpl/Dm/Persistent/Record.h</text>
</a>
</g>
</g>
<!-- Node5&#45;&gt;Node6 -->
<g id="edge5" class="edge"><title>Node5&#45;&gt;Node6</title>
<path fill="none" stroke="midnightblue" d="M679.468,-356.813C651.71,-329.951 597.778,-272.012 577.5,-210 574.737,-201.551 572.934,-197.626 577.5,-190 588.548,-171.547 610.037,-160.231 628.514,-153.562"/>
<polygon fill="midnightblue" stroke="midnightblue" points="677.203,-359.489 686.866,-363.834 682.022,-354.411 677.203,-359.489"/>
</g>
<!-- Node7&#45;&gt;Node6 -->
<g id="edge7" class="edge"><title>Node7&#45;&gt;Node6</title>
<path fill="none" stroke="midnightblue" d="M256.989,-356.519C284.563,-330.485 342.628,-278.562 399.5,-246 477.976,-201.068 580.289,-168.221 630.689,-153.538"/>
<polygon fill="midnightblue" stroke="midnightblue" points="254.264,-354.281 249.445,-363.717 259.096,-359.345 254.264,-354.281"/>
</g>
<!-- Node9 -->
<g id="node9" class="node"><title>Node9</title>
<g id="a_node9"><a xlink:href="_atomic_sync_8h.html" target="_top" xlink:title=" ">
<polygon fill="white" stroke="black" points="805.5,-302.5 805.5,-321.5 915.5,-321.5 915.5,-302.5 805.5,-302.5"/>
<text text-anchor="middle" x="860.5" y="-309.5" font-family="Helvetica,sans-Serif" font-size="10.00">Cpl/Itc/AtomicSync.h</text>
</a>
</g>
</g>
<!-- Node8&#45;&gt;Node9 -->
<g id="edge9" class="edge"><title>Node8&#45;&gt;Node9</title>
<path fill="none" stroke="midnightblue" d="M860.5,-353.817C860.5,-342.996 860.5,-329.898 860.5,-321.509"/>
<polygon fill="midnightblue" stroke="midnightblue" points="857,-353.975 860.5,-363.975 864,-353.975 857,-353.975"/>
</g>
<!-- Node11 -->
<g id="node11" class="node"><title>Node11</title>
<g id="a_node11"><a xlink:href="_close_sync_8h.html" target="_top" xlink:title=" ">
<polygon fill="white" stroke="black" points="408.5,-246.5 408.5,-265.5 512.5,-265.5 512.5,-246.5 408.5,-246.5"/>
<text text-anchor="middle" x="460.5" y="-253.5" font-family="Helvetica,sans-Serif" font-size="10.00">Cpl/Itc/CloseSync.h</text>
</a>
</g>
</g>
<!-- Node10&#45;&gt;Node11 -->
<g id="edge11" class="edge"><title>Node10&#45;&gt;Node11</title>
<path fill="none" stroke="midnightblue" d="M403.052,-353.816C405.638,-339.057 410.571,-318.302 419.5,-302 427.42,-287.539 440.913,-273.992 450.245,-265.615"/>
<polygon fill="midnightblue" stroke="midnightblue" points="399.583,-353.342 401.505,-363.761 406.5,-354.418 399.583,-353.342"/>
</g>
<!-- Node12 -->
<g id="node12" class="node"><title>Node12</title>
<g id="a_node12"><a xlink:href="_indexed_entry_server_8h.html" target="_top" xlink:title=" ">
<polygon fill="white" stroke="black" points="255,-0.5 255,-30.5 394,-30.5 394,-0.5 255,-0.5"/>
<text text-anchor="start" x="263" y="-18.5" font-family="Helvetica,sans-Serif" font-size="10.00">Cpl/Persistent/IndexedEntry</text>
<text text-anchor="middle" x="324.5" y="-7.5" font-family="Helvetica,sans-Serif" font-size="10.00">Server.h</text>
</a>
</g>
</g>
<!-- Node11&#45;&gt;Node12 -->
<g id="edge12" class="edge"><title>Node11&#45;&gt;Node12</title>
<path fill="none" stroke="midnightblue" d="M450.389,-237.268C424.493,-191.856 356.172,-72.0422 332.618,-30.7368"/>
<polygon fill="midnightblue" stroke="midnightblue" points="447.504,-239.276 455.498,-246.229 453.585,-235.808 447.504,-239.276"/>
</g>
<!-- Node13 -->
<g id="node13" class="node"><title>Node13</title>
<g id="a_node13"><a xlink:href="_record_server_8h.html" target="_top" xlink:title=" ">
<polygon fill="white" stroke="black" points="587,-190.5 587,-209.5 736,-209.5 736,-190.5 587,-190.5"/>
<text text-anchor="middle" x="661.5" y="-197.5" font-family="Helvetica,sans-Serif" font-size="10.00">Cpl/Persistent/RecordServer.h</text>
</a>
</g>
</g>
<!-- Node11&#45;&gt;Node13 -->
<g id="edge13" class="edge"><title>Node11&#45;&gt;Node13</title>
<path fill="none" stroke="midnightblue" d="M502.081,-243.829C540.031,-233.633 595.31,-218.782 629.8,-209.516"/>
<polygon fill="midnightblue" stroke="midnightblue" points="501.098,-240.469 492.349,-246.444 502.915,-247.229 501.098,-240.469"/>
</g>
<!-- Node13&#45;&gt;Node6 -->
<g id="edge14" class="edge"><title>Node13&#45;&gt;Node6</title>
<path fill="none" stroke="midnightblue" d="M661.5,-179.805C661.5,-170.91 661.5,-160.78 661.5,-153.751"/>
<polygon fill="midnightblue" stroke="midnightblue" points="658,-180.083 661.5,-190.083 665,-180.083 658,-180.083"/>
</g>
<!-- Node15 -->
<g id="node15" class="node"><title>Node15</title>
<g id="a_node15"><a xlink:href="_open_sync_8h.html" target="_top" xlink:title=" ">
<polygon fill="white" stroke="black" points="428.5,-302.5 428.5,-321.5 530.5,-321.5 530.5,-302.5 428.5,-302.5"/>
<text text-anchor="middle" x="479.5" y="-309.5" font-family="Helvetica,sans-Serif" font-size="10.00">Cpl/Itc/OpenSync.h</text>
</a>
</g>
</g>
<!-- Node14&#45;&gt;Node15 -->
<g id="edge16" class="edge"><title>Node14&#45;&gt;Node15</title>
<path fill="none" stroke="midnightblue" d="M520.439,-356.497C509.839,-345.236 496.069,-330.604 487.509,-321.509"/>
<polygon fill="midnightblue" stroke="midnightblue" points="518.074,-359.092 527.477,-363.975 523.172,-354.294 518.074,-359.092"/>
</g>
<!-- Node15&#45;&gt;Node11 -->
<g id="edge17" class="edge"><title>Node15&#45;&gt;Node11</title>
<path fill="none" stroke="midnightblue" d="M472.954,-292.396C469.776,-283.362 466.107,-272.936 463.579,-265.751"/>
<polygon fill="midnightblue" stroke="midnightblue" points="469.742,-293.812 476.363,-302.083 476.345,-291.488 469.742,-293.812"/>
</g>
<!-- Node16&#45;&gt;Node12 -->
<g id="edge19" class="edge"><title>Node16&#45;&gt;Node12</title>
<path fill="none" stroke="midnightblue" d="M106.217,-353.201C137.866,-333.623 178.5,-300.096 178.5,-257 178.5,-257 178.5,-257 178.5,-143 178.5,-86.153 242.505,-49.1277 285.758,-30.5969"/>
<polygon fill="midnightblue" stroke="midnightblue" points="104.372,-350.226 97.5702,-358.349 107.953,-356.241 104.372,-350.226"/>
</g>
<!-- Node18 -->
<g id="node18" class="node"><title>Node18</title>
<g id="a_node18"><a xlink:href="_dm_2_mailbox_server_8h.html" target="_top" xlink:title=" ">
<polygon fill="white" stroke="black" points="1009.5,-302.5 1009.5,-321.5 1131.5,-321.5 1131.5,-302.5 1009.5,-302.5"/>
<text text-anchor="middle" x="1070.5" y="-309.5" font-family="Helvetica,sans-Serif" font-size="10.00">Cpl/Dm/MailboxServer.h</text>
</a>
</g>
</g>
<!-- Node17&#45;&gt;Node18 -->
<g id="edge21" class="edge"><title>Node17&#45;&gt;Node18</title>
<path fill="none" stroke="midnightblue" d="M1123.57,-357.473C1109.99,-346.093 1091.82,-330.869 1080.65,-321.509"/>
<polygon fill="midnightblue" stroke="midnightblue" points="1121.41,-360.235 1131.33,-363.975 1125.91,-354.869 1121.41,-360.235"/>
</g>
<!-- Node29 -->
<g id="node29" class="node"><title>Node29</title>
<g id="a_node29"><a xlink:href="_itc_2_mailbox_server_8h.html" target="_top" xlink:title=" ">
<polygon fill="white" stroke="black" points="1242,-302.5 1242,-321.5 1361,-321.5 1361,-302.5 1242,-302.5"/>
<text text-anchor="middle" x="1301.5" y="-309.5" font-family="Helvetica,sans-Serif" font-size="10.00">Cpl/Itc/MailboxServer.h</text>
</a>
</g>
</g>
<!-- Node17&#45;&gt;Node29 -->
<g id="edge42" class="edge"><title>Node17&#45;&gt;Node29</title>
<path fill="none" stroke="midnightblue" d="M1173.95,-360.433C1205.05,-348.868 1251.19,-331.708 1278.62,-321.509"/>
<polygon fill="midnightblue" stroke="midnightblue" points="1172.58,-357.209 1164.42,-363.975 1175.02,-363.77 1172.58,-357.209"/>
</g>
<!-- Node18&#45;&gt;Node13 -->
<g id="edge36" class="edge"><title>Node18&#45;&gt;Node13</title>
<path fill="none" stroke="midnightblue" d="M999.191,-303.968C922.616,-295.806 806.308,-281.474 764.5,-266 727.417,-252.275 689.551,-223.918 671.832,-209.629"/>
<polygon fill="midnightblue" stroke="midnightblue" points="998.943,-307.461 1009.25,-305.029 999.677,-300.5 998.943,-307.461"/>
</g>
<!-- Node19 -->
<g id="node19" class="node"><title>Node19</title>
<g id="a_node19"><a xlink:href="_dm_2_periodic_scheduler_8h.html" target="_top" xlink:title=" ">
<polygon fill="white" stroke="black" points="1240,-246.5 1240,-265.5 1379,-265.5 1379,-246.5 1240,-246.5"/>
<text text-anchor="middle" x="1309.5" y="-253.5" font-family="Helvetica,sans-Serif" font-size="10.00">Cpl/Dm/PeriodicScheduler.h</text>
</a>
</g>
</g>
<!-- Node18&#45;&gt;Node19 -->
<g id="edge22" class="edge"><title>Node18&#45;&gt;Node19</title>
<path fill="none" stroke="midnightblue" d="M1118.22,-300.217C1163.39,-290.013 1230.27,-274.901 1271.81,-265.516"/>
<polygon fill="midnightblue" stroke="midnightblue" points="1117.35,-296.826 1108.37,-302.444 1118.9,-303.654 1117.35,-296.826"/>
</g>
<!-- Node20 -->
<g id="node20" class="node"><title>Node20</title>
<g id="a_node20"><a xlink:href="_chunk_8h.html" target="_top" xlink:title=" ">
<polygon fill="white" stroke="black" points="940,-246.5 940,-265.5 1057,-265.5 1057,-246.5 940,-246.5"/>
<text text-anchor="middle" x="998.5" y="-253.5" font-family="Helvetica,sans-Serif" font-size="10.00">Cpl/Persistent/Chunk.h</text>
</a>
</g>
</g>
<!-- Node18&#45;&gt;Node20 -->
<g id="edge23" class="edge"><title>Node18&#45;&gt;Node20</title>
<path fill="none" stroke="midnightblue" d="M1050.63,-296.101C1037.68,-286.382 1021.2,-274.027 1010.28,-265.834"/>
<polygon fill="midnightblue" stroke="midnightblue" points="1048.83,-299.124 1058.93,-302.324 1053.03,-293.524 1048.83,-299.124"/>
</g>
<!-- Node26 -->
<g id="node26" class="node"><title>Node26</title>
<g id="a_node26"><a xlink:href="_persistent_2_record_8h.html" target="_top" xlink:title=" ">
<polygon fill="white" stroke="black" points="773.5,-246.5 773.5,-265.5 893.5,-265.5 893.5,-246.5 773.5,-246.5"/>
<text text-anchor="middle" x="833.5" y="-253.5" font-family="Helvetica,sans-Serif" font-size="10.00">Cpl/Persistent/Record.h</text>
</a>
</g>
</g>
<!-- Node18&#45;&gt;Node26 -->
<g id="edge32" class="edge"><title>Node18&#45;&gt;Node26</title>
<path fill="none" stroke="midnightblue" d="M1023.18,-300.217C978.392,-290.013 912.064,-274.901 870.878,-265.516"/>
<polygon fill="midnightblue" stroke="midnightblue" points="1022.42,-303.634 1032.95,-302.444 1023.97,-296.809 1022.42,-303.634"/>
</g>
<!-- Node27 -->
<g id="node27" class="node"><title>Node27</title>
<g id="a_node27"><a xlink:href="_region_media_8h.html" target="_top" xlink:title=" ">
<polygon fill="white" stroke="black" points="1075.5,-246.5 1075.5,-265.5 1221.5,-265.5 1221.5,-246.5 1075.5,-246.5"/>
<text text-anchor="middle" x="1148.5" y="-253.5" font-family="Helvetica,sans-Serif" font-size="10.00">Cpl/Persistent/RegionMedia.h</text>
</a>
</g>
</g>
<!-- Node18&#45;&gt;Node27 -->
<g id="edge37" class="edge"><title>Node18&#45;&gt;Node27</title>
<path fill="none" stroke="midnightblue" d="M1091.27,-296.622C1105.52,-286.757 1123.96,-273.992 1136,-265.655"/>
<polygon fill="midnightblue" stroke="midnightblue" points="1089.26,-293.754 1083.03,-302.324 1093.25,-299.51 1089.26,-293.754"/>
</g>
<!-- Node20&#45;&gt;Node6 -->
<g id="edge24" class="edge"><title>Node20&#45;&gt;Node6</title>
<path fill="none" stroke="midnightblue" d="M948.155,-244.159C912.44,-235.995 863.573,-223.861 821.5,-210 799.159,-202.64 794.288,-198.863 772.5,-190 741.296,-177.307 705.135,-162.658 682.786,-153.612"/>
<polygon fill="midnightblue" stroke="midnightblue" points="947.803,-247.668 958.328,-246.459 949.346,-240.84 947.803,-247.668"/>
</g>
<!-- Node21 -->
<g id="node21" class="node"><title>Node21</title>
<g id="a_node21"><a xlink:href="_crc_chunk_8h.html" target="_top" xlink:title=" ">
<polygon fill="white" stroke="black" points="1026.5,-190.5 1026.5,-209.5 1158.5,-209.5 1158.5,-190.5 1026.5,-190.5"/>
<text text-anchor="middle" x="1092.5" y="-197.5" font-family="Helvetica,sans-Serif" font-size="10.00">Cpl/Persistent/CrcChunk.h</text>
</a>
</g>
</g>
<!-- Node20&#45;&gt;Node21 -->
<g id="edge25" class="edge"><title>Node20&#45;&gt;Node21</title>
<path fill="none" stroke="midnightblue" d="M1022.56,-241.177C1039.86,-231.241 1062.65,-218.149 1077.43,-209.655"/>
<polygon fill="midnightblue" stroke="midnightblue" points="1020.53,-238.308 1013.6,-246.324 1024.02,-244.378 1020.53,-238.308"/>
</g>
<!-- Node22 -->
<g id="node22" class="node"><title>Node22</title>
<g id="a_node22"><a xlink:href="_data_record_8h.html" target="_top" xlink:title=" ">
<polygon fill="white" stroke="black" points="830.5,-190.5 830.5,-209.5 970.5,-209.5 970.5,-190.5 830.5,-190.5"/>
<text text-anchor="middle" x="900.5" y="-197.5" font-family="Helvetica,sans-Serif" font-size="10.00">Cpl/Persistent/DataRecord.h</text>
</a>
</g>
</g>
<!-- Node20&#45;&gt;Node22 -->
<g id="edge26" class="edge"><title>Node20&#45;&gt;Node22</title>
<path fill="none" stroke="midnightblue" d="M973.914,-241.453C955.822,-231.483 931.765,-218.228 916.206,-209.655"/>
<polygon fill="midnightblue" stroke="midnightblue" points="972.307,-244.563 982.755,-246.324 975.685,-238.432 972.307,-244.563"/>
</g>
<!-- Node24 -->
<g id="node24" class="node"><title>Node24</title>
<g id="a_node24"><a xlink:href="_indexed_entry_record_8h.html" target="_top" xlink:title=" ">
<polygon fill="white" stroke="black" points="879,-67.5 879,-97.5 1018,-97.5 1018,-67.5 879,-67.5"/>
<text text-anchor="start" x="887" y="-85.5" font-family="Helvetica,sans-Serif" font-size="10.00">Cpl/Persistent/IndexedEntry</text>
<text text-anchor="middle" x="948.5" y="-74.5" font-family="Helvetica,sans-Serif" font-size="10.00">Record.h</text>
</a>
</g>
</g>
<!-- Node20&#45;&gt;Node24 -->
<g id="edge30" class="edge"><title>Node20&#45;&gt;Node24</title>
<path fill="none" stroke="midnightblue" d="M997.83,-236.225C996.456,-211.937 992.267,-168.636 979.5,-134 974.661,-120.872 966.215,-107.44 959.359,-97.7325"/>
<polygon fill="midnightblue" stroke="midnightblue" points="994.347,-236.671 998.303,-246.5 1001.34,-236.349 994.347,-236.671"/>
</g>
<!-- Node25 -->
<g id="node25" class="node"><title>Node25</title>
<g id="a_node25"><a xlink:href="_mirrored_chunk_8h.html" target="_top" xlink:title=" ">
<polygon fill="white" stroke="black" points="1176.5,-190.5 1176.5,-209.5 1328.5,-209.5 1328.5,-190.5 1176.5,-190.5"/>
<text text-anchor="middle" x="1252.5" y="-197.5" font-family="Helvetica,sans-Serif" font-size="10.00">Cpl/Persistent/MirroredChunk.h</text>
</a>
</g>
</g>
<!-- Node20&#45;&gt;Node25 -->
<g id="edge31" class="edge"><title>Node20&#45;&gt;Node25</title>
<path fill="none" stroke="midnightblue" d="M1048.62,-244.346C1096.62,-234.141 1168.12,-218.94 1212.44,-209.516"/>
<polygon fill="midnightblue" stroke="midnightblue" points="1047.8,-240.94 1038.75,-246.444 1049.26,-247.787 1047.8,-240.94"/>
</g>
<!-- Node23 -->
<g id="node23" class="node"><title>Node23</title>
<g id="a_node23"><a xlink:href="_index_record_8h.html" target="_top" xlink:title=" ">
<polygon fill="white" stroke="black" points="826.5,-134.5 826.5,-153.5 970.5,-153.5 970.5,-134.5 826.5,-134.5"/>
<text text-anchor="middle" x="898.5" y="-141.5" font-family="Helvetica,sans-Serif" font-size="10.00">Cpl/Persistent/IndexRecord.h</text>
</a>
</g>
</g>
<!-- Node22&#45;&gt;Node23 -->
<g id="edge27" class="edge"><title>Node22&#45;&gt;Node23</title>
<path fill="none" stroke="midnightblue" d="M899.789,-179.805C899.46,-170.91 899.084,-160.78 898.824,-153.751"/>
<polygon fill="midnightblue" stroke="midnightblue" points="896.302,-180.219 900.17,-190.083 903.297,-179.96 896.302,-180.219"/>
</g>
<!-- Node23&#45;&gt;Node24 -->
<g id="edge28" class="edge"><title>Node23&#45;&gt;Node24</title>
<path fill="none" stroke="midnightblue" d="M912.104,-126.811C919.804,-117.649 929.338,-106.303 936.716,-97.523"/>
<polygon fill="midnightblue" stroke="midnightblue" points="909.418,-124.568 905.664,-134.475 914.777,-129.071 909.418,-124.568"/>
</g>
<!-- Node24&#45;&gt;Node12 -->
<g id="edge29" class="edge"><title>Node24&#45;&gt;Node12</title>
<path fill="none" stroke="midnightblue" d="M868.614,-73.1785C745.412,-60.345 511.084,-35.9358 394.292,-23.77"/>
<polygon fill="midnightblue" stroke="midnightblue" points="868.427,-76.6779 878.736,-74.2329 869.152,-69.7156 868.427,-76.6779"/>
</g>
<!-- Node26&#45;&gt;Node6 -->
<g id="edge33" class="edge"><title>Node26&#45;&gt;Node6</title>
<path fill="none" stroke="midnightblue" d="M814.279,-239.801C796.6,-226.105 769.427,-205.76 744.5,-190 722.61,-176.16 696.124,-162.262 679.054,-153.65"/>
<polygon fill="midnightblue" stroke="midnightblue" points="812.561,-242.9 822.596,-246.297 816.87,-237.383 812.561,-242.9"/>
</g>
<!-- Node26&#45;&gt;Node13 -->
<g id="edge35" class="edge"><title>Node26&#45;&gt;Node13</title>
<path fill="none" stroke="midnightblue" d="M796.668,-243.436C764.238,-233.255 717.763,-218.664 688.626,-209.516"/>
<polygon fill="midnightblue" stroke="midnightblue" points="795.657,-246.787 806.246,-246.444 797.754,-240.109 795.657,-246.787"/>
</g>
<!-- Node26&#45;&gt;Node22 -->
<g id="edge34" class="edge"><title>Node26&#45;&gt;Node22</title>
<path fill="none" stroke="midnightblue" d="M852.335,-239.82C864.338,-230.145 879.472,-217.948 889.539,-209.834"/>
<polygon fill="midnightblue" stroke="midnightblue" points="849.854,-237.324 844.265,-246.324 854.247,-242.774 849.854,-237.324"/>
</g>
<!-- Node27&#45;&gt;Node21 -->
<g id="edge38" class="edge"><title>Node27&#45;&gt;Node21</title>
<path fill="none" stroke="midnightblue" d="M1132.17,-239.253C1122.24,-229.673 1109.91,-217.791 1101.66,-209.834"/>
<polygon fill="midnightblue" stroke="midnightblue" points="1129.87,-241.902 1139.5,-246.324 1134.73,-236.863 1129.87,-241.902"/>
</g>
<!-- Node27&#45;&gt;Node24 -->
<g id="edge40" class="edge"><title>Node27&#45;&gt;Node24</title>
<path fill="none" stroke="midnightblue" d="M1231.72,-245.537C1332.71,-233.859 1490.16,-214.936 1494.5,-210 1500.37,-203.322 1500.15,-196.861 1494.5,-190 1434.86,-117.601 1151.36,-93.7547 1018.07,-86.463"/>
<polygon fill="midnightblue" stroke="midnightblue" points="1231.06,-242.091 1221.52,-246.714 1231.86,-249.045 1231.06,-242.091"/>
</g>
<!-- Node27&#45;&gt;Node25 -->
<g id="edge41" class="edge"><title>Node27&#45;&gt;Node25</title>
<path fill="none" stroke="midnightblue" d="M1174.33,-241.59C1193.56,-231.605 1219.24,-218.267 1235.83,-209.655"/>
<polygon fill="midnightblue" stroke="midnightblue" points="1172.47,-238.61 1165.21,-246.324 1175.7,-244.822 1172.47,-238.61"/>
</g>
<!-- Node28 -->
<g id="node28" class="node"><title>Node28</title>
<g id="a_node28"><a xlink:href="_file_adapter_8h.html" target="_top" xlink:title=" ">
<polygon fill="white" stroke="black" points="1347,-190.5 1347,-209.5 1486,-209.5 1486,-190.5 1347,-190.5"/>
<text text-anchor="middle" x="1416.5" y="-197.5" font-family="Helvetica,sans-Serif" font-size="10.00">Cpl/Persistent/FileAdapter.h</text>
</a>
</g>
</g>
<!-- Node27&#45;&gt;Node28 -->
<g id="edge39" class="edge"><title>Node27&#45;&gt;Node28</title>
<path fill="none" stroke="midnightblue" d="M1201.06,-244.41C1251.71,-234.204 1327.37,-218.96 1374.23,-209.516"/>
<polygon fill="midnightblue" stroke="midnightblue" points="1200.08,-241.037 1190.97,-246.444 1201.46,-247.899 1200.08,-241.037"/>
</g>
<!-- Node30 -->
<g id="node30" class="node"><title>Node30</title>
<g id="a_node30"><a xlink:href="_itc_2_periodic_scheduler_8h.html" target="_top" xlink:title=" ">
<polygon fill="white" stroke="black" points="1397,-246.5 1397,-265.5 1532,-265.5 1532,-246.5 1397,-246.5"/>
<text text-anchor="middle" x="1464.5" y="-253.5" font-family="Helvetica,sans-Serif" font-size="10.00">Cpl/Itc/PeriodicScheduler.h</text>
</a>
</g>
</g>
<!-- Node29&#45;&gt;Node30 -->
<g id="edge43" class="edge"><title>Node29&#45;&gt;Node30</title>
<path fill="none" stroke="midnightblue" d="M1337.2,-299.172C1367.9,-289.004 1411.42,-274.585 1438.79,-265.516"/>
<polygon fill="midnightblue" stroke="midnightblue" points="1335.72,-295.976 1327.33,-302.444 1337.92,-302.621 1335.72,-295.976"/>
</g>
<!-- Node31&#45;&gt;Node5 -->
<g id="edge45" class="edge"><title>Node31&#45;&gt;Node5</title>
<path fill="none" stroke="midnightblue" d="M640.711,-538.718C653.839,-500.074 683.987,-411.333 693.54,-383.214"/>
<polygon fill="midnightblue" stroke="midnightblue" points="637.393,-537.603 637.49,-548.198 644.021,-539.855 637.393,-537.603"/>
</g>
<!-- Node31&#45;&gt;Node7 -->
<g id="edge46" class="edge"><title>Node31&#45;&gt;Node7</title>
<path fill="none" stroke="midnightblue" d="M585.437,-547.252C524.625,-535.085 428.024,-515.449 420.5,-512 345.787,-477.753 273.093,-407.779 248.919,-383.239"/>
<polygon fill="midnightblue" stroke="midnightblue" points="585.115,-550.757 595.607,-549.284 586.487,-543.892 585.115,-550.757"/>
</g>
<!-- Node31&#45;&gt;Node8 -->
<g id="edge49" class="edge"><title>Node31&#45;&gt;Node8</title>
<path fill="none" stroke="midnightblue" d="M652.953,-542.099C698.339,-505.448 814.297,-411.81 849.926,-383.039"/>
<polygon fill="midnightblue" stroke="midnightblue" points="650.678,-539.437 645.097,-548.442 655.076,-544.883 650.678,-539.437"/>
</g>
<!-- Node31&#45;&gt;Node10 -->
<g id="edge50" class="edge"><title>Node31&#45;&gt;Node10</title>
<path fill="none" stroke="midnightblue" d="M585.918,-546.52C536.006,-535.509 464.011,-518.857 452.5,-512 423.579,-494.772 413.845,-487.318 401.5,-456 391.744,-431.251 395.778,-398.898 398.609,-383.458"/>
<polygon fill="midnightblue" stroke="midnightblue" points="585.375,-549.984 595.893,-548.71 586.876,-543.147 585.375,-549.984"/>
</g>
<!-- Node31&#45;&gt;Node14 -->
<g id="edge51" class="edge"><title>Node31&#45;&gt;Node14</title>
<path fill="none" stroke="midnightblue" d="M631.998,-538.293C627.703,-511.391 617.009,-461.057 593.5,-425 581.905,-407.217 562.34,-392.043 549.177,-383.097"/>
<polygon fill="midnightblue" stroke="midnightblue" points="628.548,-538.893 633.466,-548.277 635.474,-537.874 628.548,-538.893"/>
</g>
<!-- Node31&#45;&gt;Node16 -->
<g id="edge61" class="edge"><title>Node31&#45;&gt;Node16</title>
<path fill="none" stroke="midnightblue" d="M585.68,-548.352C497.56,-541.568 127.246,-548.3 88.5,-512 54.2072,-479.872 61.1333,-416.909 66.381,-388.728"/>
<polygon fill="midnightblue" stroke="midnightblue" points="585.491,-551.85 595.787,-549.352 586.181,-544.884 585.491,-551.85"/>
</g>
<!-- Node32 -->
<g id="node32" class="node"><title>Node32</title>
<g id="a_node32"><a xlink:href="_listener_client_request_8h.html" target="_top" xlink:title=" ">
<polygon fill="white" stroke="black" points="814.5,-425.5 814.5,-455.5 952.5,-455.5 952.5,-425.5 814.5,-425.5"/>
<text text-anchor="start" x="822.5" y="-443.5" font-family="Helvetica,sans-Serif" font-size="10.00">Cpl/Io/Socket/ListenerClient</text>
<text text-anchor="middle" x="883.5" y="-432.5" font-family="Helvetica,sans-Serif" font-size="10.00">Request.h</text>
</a>
</g>
</g>
<!-- Node31&#45;&gt;Node32 -->
<g id="edge47" class="edge"><title>Node31&#45;&gt;Node32</title>
<path fill="none" stroke="midnightblue" d="M683.397,-549.585C717.617,-543.028 763.622,-531.407 800.5,-512 828.608,-497.208 855.569,-471.469 870.784,-455.521"/>
<polygon fill="midnightblue" stroke="midnightblue" points="682.382,-546.213 673.178,-551.46 683.646,-553.098 682.382,-546.213"/>
</g>
<!-- Node34 -->
<g id="node34" class="node"><title>Node34</title>
<g id="a_node34"><a xlink:href="_request_message_8h.html" target="_top" xlink:title=" ">
<polygon fill="white" stroke="black" points="461.5,-492.5 461.5,-511.5 593.5,-511.5 593.5,-492.5 461.5,-492.5"/>
<text text-anchor="middle" x="527.5" y="-499.5" font-family="Helvetica,sans-Serif" font-size="10.00">Cpl/Itc/RequestMessage.h</text>
</a>
</g>
</g>
<!-- Node31&#45;&gt;Node34 -->
<g id="edge52" class="edge"><title>Node31&#45;&gt;Node34</title>
<path fill="none" stroke="midnightblue" d="M608.198,-543.726C588.385,-533.727 561.793,-520.307 544.649,-511.655"/>
<polygon fill="midnightblue" stroke="midnightblue" points="606.804,-546.943 617.309,-548.324 609.958,-540.694 606.804,-546.943"/>
</g>
<!-- Node33 -->
<g id="node33" class="node"><title>Node33</title>
<g id="a_node33"><a xlink:href="_listener_client_sync_8h.html" target="_top" xlink:title=" ">
<polygon fill="white" stroke="black" points="940.5,-358.5 940.5,-388.5 1078.5,-388.5 1078.5,-358.5 940.5,-358.5"/>
<text text-anchor="start" x="948.5" y="-376.5" font-family="Helvetica,sans-Serif" font-size="10.00">Cpl/Io/Socket/ListenerClient</text>
<text text-anchor="middle" x="1009.5" y="-365.5" font-family="Helvetica,sans-Serif" font-size="10.00">Sync.h</text>
</a>
</g>
</g>
<!-- Node32&#45;&gt;Node33 -->
<g id="edge48" class="edge"><title>Node32&#45;&gt;Node33</title>
<path fill="none" stroke="midnightblue" d="M919.915,-420.714C939.787,-410.463 963.98,-397.983 982.213,-388.577"/>
<polygon fill="midnightblue" stroke="midnightblue" points="918.123,-417.701 910.84,-425.396 921.332,-423.922 918.123,-417.701"/>
</g>
<!-- Node34&#45;&gt;Node4 -->
<g id="edge59" class="edge"><title>Node34&#45;&gt;Node4</title>
<path fill="none" stroke="midnightblue" d="M518.89,-483.335C513.525,-472.328 506.865,-458.663 502.647,-450.009"/>
<polygon fill="midnightblue" stroke="midnightblue" points="515.817,-485.019 523.345,-492.475 522.11,-481.952 515.817,-485.019"/>
</g>
<!-- Node34&#45;&gt;Node5 -->
<g id="edge53" class="edge"><title>Node34&#45;&gt;Node5</title>
<path fill="none" stroke="midnightblue" d="M549.546,-486.537C562.504,-477.896 579.114,-466.576 593.5,-456 628.224,-430.474 667.817,-398.216 686.163,-383.08"/>
<polygon fill="midnightblue" stroke="midnightblue" points="547.243,-483.865 540.84,-492.306 551.11,-489.7 547.243,-483.865"/>
</g>
<!-- Node34&#45;&gt;Node7 -->
<g id="edge54" class="edge"><title>Node34&#45;&gt;Node7</title>
<path fill="none" stroke="midnightblue" d="M490.971,-489.307C465.564,-480.847 431.08,-468.709 401.5,-456 346.522,-432.378 283.96,-398.637 255.734,-383.026"/>
<polygon fill="midnightblue" stroke="midnightblue" points="489.984,-492.667 500.577,-492.475 492.176,-486.019 489.984,-492.667"/>
</g>
<!-- Node34&#45;&gt;Node8 -->
<g id="edge56" class="edge"><title>Node34&#45;&gt;Node8</title>
<path fill="none" stroke="midnightblue" d="M559.755,-488.747C626.854,-463.257 780.024,-405.071 837.842,-383.107"/>
<polygon fill="midnightblue" stroke="midnightblue" points="558.232,-485.581 550.127,-492.405 560.718,-492.125 558.232,-485.581"/>
</g>
<!-- Node34&#45;&gt;Node10 -->
<g id="edge57" class="edge"><title>Node34&#45;&gt;Node10</title>
<path fill="none" stroke="midnightblue" d="M473.132,-489.369C453.677,-482.646 433.198,-472.18 419.5,-456 401.476,-434.71 399.8,-399.511 400.089,-383.243"/>
<polygon fill="midnightblue" stroke="midnightblue" points="472.277,-492.77 482.867,-492.465 474.399,-486.099 472.277,-492.77"/>
</g>
<!-- Node34&#45;&gt;Node14 -->
<g id="edge58" class="edge"><title>Node34&#45;&gt;Node14</title>
<path fill="none" stroke="midnightblue" d="M550.749,-486.683C560.984,-478.988 571.932,-468.502 577.5,-456 583.105,-443.414 582.184,-437.957 577.5,-425 571.297,-407.841 556.442,-392.405 546.172,-383.24"/>
<polygon fill="midnightblue" stroke="midnightblue" points="548.649,-483.881 542.452,-492.474 552.656,-489.621 548.649,-483.881"/>
</g>
<!-- Node34&#45;&gt;Node16 -->
<g id="edge60" class="edge"><title>Node34&#45;&gt;Node16</title>
<path fill="none" stroke="midnightblue" d="M477.575,-490.263C438.687,-481.667 383.439,-468.946 335.5,-456 255.997,-434.53 164.403,-405.507 112.089,-388.516"/>
<polygon fill="midnightblue" stroke="midnightblue" points="477.073,-493.736 487.591,-492.466 478.576,-486.899 477.073,-493.736"/>
</g>
<!-- Node34&#45;&gt;Node32 -->
<g id="edge55" class="edge"><title>Node34&#45;&gt;Node32</title>
<path fill="none" stroke="midnightblue" d="M588.645,-490.78C651.355,-480.3 748.733,-464.024 814.246,-453.075"/>
<polygon fill="midnightblue" stroke="midnightblue" points="587.792,-487.374 578.506,-492.475 588.946,-494.279 587.792,-487.374"/>
</g>
<!-- Node35&#45;&gt;Node34 -->
<g id="edge63" class="edge"><title>Node35&#45;&gt;Node34</title>
<path fill="none" stroke="midnightblue" d="M518.323,-538.396C520.665,-529.362 523.368,-518.936 525.231,-511.751"/>
<polygon fill="midnightblue" stroke="midnightblue" points="514.934,-537.525 515.812,-548.083 521.71,-539.281 514.934,-537.525"/>
</g>
</g>
</svg>
