<?xml version="1.0" encoding="UTF-8" standalone="no"?>
<!DOCTYPE svg PUBLIC "-//W3C//DTD SVG 1.1//EN"
 "http://www.w3.org/Graphics/SVG/1.1/DTD/svg11.dtd">
<!-- Generated by graphviz version 2.38.0 (20140413.2041)
 -->
<!-- Title: Cpl/Itc/Message.h Pages: 1 -->
<svg width="1998pt" height="710pt"
 viewBox="0.00 0.00 1998.00 710.00" xmlns="http://www.w3.org/2000/svg" xmlns:xlink="http://www.w3.org/1999/xlink">
<g id="graph0" class="graph" transform="scale(1 1) rotate(0) translate(4 706)">
<title>Cpl/Itc/Message.h</title>
<polygon fill="white" stroke="none" points="-4,4 -4,-706 1994,-706 1994,4 -4,4"/>
<!-- Node1 -->
<g id="node1" class="node"><title>Node1</title>
<g id="a_node1"><a xlink:title=" ">
<polygon fill="#bfbfbf" stroke="black" points="632,-682.5 632,-701.5 728,-701.5 728,-682.5 632,-682.5"/>
<text text-anchor="middle" x="680" y="-689.5" font-family="Helvetica,sans-Serif" font-size="10.00">Cpl/Itc/Message.h</text>
</a>
</g>
</g>
<!-- Node2 -->
<g id="node2" class="node"><title>Node2</title>
<g id="a_node2"><a xlink:href="_post_api_8h.html" target="_top" xlink:title=" ">
<polygon fill="white" stroke="black" points="683.5,-626.5 683.5,-645.5 774.5,-645.5 774.5,-626.5 683.5,-626.5"/>
<text text-anchor="middle" x="729" y="-633.5" font-family="Helvetica,sans-Serif" font-size="10.00">Cpl/Itc/PostApi.h</text>
</a>
</g>
</g>
<!-- Node1&#45;&gt;Node2 -->
<g id="edge1" class="edge"><title>Node1&#45;&gt;Node2</title>
<path fill="none" stroke="midnightblue" d="M695.034,-674.431C703.622,-664.967 714.043,-653.483 721.059,-645.751"/>
<polygon fill="midnightblue" stroke="midnightblue" points="692.219,-672.325 688.091,-682.083 697.403,-677.029 692.219,-672.325"/>
</g>
<!-- Node41 -->
<g id="node41" class="node"><title>Node41</title>
<g id="a_node41"><a xlink:href="_service_message_8h.html" target="_top" xlink:title=" ">
<polygon fill="white" stroke="black" points="442.5,-570.5 442.5,-589.5 571.5,-589.5 571.5,-570.5 442.5,-570.5"/>
<text text-anchor="middle" x="507" y="-577.5" font-family="Helvetica,sans-Serif" font-size="10.00">Cpl/Itc/ServiceMessage.h</text>
</a>
</g>
</g>
<!-- Node1&#45;&gt;Node41 -->
<g id="edge69" class="edge"><title>Node1&#45;&gt;Node41</title>
<path fill="none" stroke="midnightblue" d="M657.532,-676.714C621.077,-653.535 550.14,-608.43 520.512,-589.591"/>
<polygon fill="midnightblue" stroke="midnightblue" points="656.108,-679.956 666.425,-682.368 659.864,-674.049 656.108,-679.956"/>
</g>
<!-- Node3 -->
<g id="node3" class="node"><title>Node3</title>
<g id="a_node3"><a xlink:href="_async_return_handler_8h.html" target="_top" xlink:title=" ">
<polygon fill="white" stroke="black" points="738,-514.5 738,-533.5 884,-533.5 884,-514.5 738,-514.5"/>
<text text-anchor="middle" x="811" y="-521.5" font-family="Helvetica,sans-Serif" font-size="10.00">Cpl/Itc/AsyncReturnHandler.h</text>
</a>
</g>
</g>
<!-- Node2&#45;&gt;Node3 -->
<g id="edge2" class="edge"><title>Node2&#45;&gt;Node3</title>
<path fill="none" stroke="midnightblue" d="M741.47,-618.272C759.195,-594.494 791.03,-551.789 804.595,-533.591"/>
<polygon fill="midnightblue" stroke="midnightblue" points="738.605,-616.259 735.434,-626.368 744.217,-620.443 738.605,-616.259"/>
</g>
<!-- Node21 -->
<g id="node21" class="node"><title>Node21</title>
<g id="a_node21"><a xlink:href="_mailbox_8h.html" target="_top" xlink:title=" ">
<polygon fill="white" stroke="black" points="1152,-386 1152,-405 1242,-405 1242,-386 1152,-386"/>
<text text-anchor="middle" x="1197" y="-393" font-family="Helvetica,sans-Serif" font-size="10.00">Cpl/Itc/Mailbox.h</text>
</a>
</g>
</g>
<!-- Node2&#45;&gt;Node21 -->
<g id="edge24" class="edge"><title>Node2&#45;&gt;Node21</title>
<path fill="none" stroke="midnightblue" d="M756.281,-622.121C796.171,-603.206 872.666,-566.619 937,-534 1030.36,-486.663 1140.92,-426.967 1181.27,-405.061"/>
<polygon fill="midnightblue" stroke="midnightblue" points="754.728,-618.984 747.188,-626.427 757.724,-625.31 754.728,-618.984"/>
</g>
<!-- Node37 -->
<g id="node37" class="node"><title>Node37</title>
<g id="a_node37"><a xlink:href="_s_a_p_8h.html" target="_top" xlink:title=" ">
<polygon fill="white" stroke="black" points="589.5,-570.5 589.5,-589.5 666.5,-589.5 666.5,-570.5 589.5,-570.5"/>
<text text-anchor="middle" x="628" y="-577.5" font-family="Helvetica,sans-Serif" font-size="10.00">Cpl/Itc/SAP.h</text>
</a>
</g>
</g>
<!-- Node2&#45;&gt;Node37 -->
<g id="edge51" class="edge"><title>Node2&#45;&gt;Node37</title>
<path fill="none" stroke="midnightblue" d="M703.917,-621.59C685.243,-611.605 660.296,-598.267 644.187,-589.655"/>
<polygon fill="midnightblue" stroke="midnightblue" points="702.304,-624.696 712.773,-626.324 705.604,-618.522 702.304,-624.696"/>
</g>
<!-- Node4 -->
<g id="node4" class="node"><title>Node4</title>
<g id="a_node4"><a xlink:href="_response_message_8h.html" target="_top" xlink:title=" ">
<polygon fill="white" stroke="black" points="592,-453 592,-472 732,-472 732,-453 592,-453"/>
<text text-anchor="middle" x="662" y="-460" font-family="Helvetica,sans-Serif" font-size="10.00">Cpl/Itc/ResponseMessage.h</text>
</a>
</g>
</g>
<!-- Node3&#45;&gt;Node4 -->
<g id="edge3" class="edge"><title>Node3&#45;&gt;Node4</title>
<path fill="none" stroke="midnightblue" d="M780.026,-510.631C751.079,-499.072 708.628,-482.12 683.308,-472.009"/>
<polygon fill="midnightblue" stroke="midnightblue" points="779.067,-514.017 789.652,-514.475 781.663,-507.516 779.067,-514.017"/>
</g>
<!-- Node5 -->
<g id="node5" class="node"><title>Node5</title>
<g id="a_node5"><a xlink:href="_erase_request_8h.html" target="_top" xlink:title=" ">
<polygon fill="white" stroke="black" points="909.5,-386 909.5,-405 1078.5,-405 1078.5,-386 909.5,-386"/>
<text text-anchor="middle" x="994" y="-393" font-family="Helvetica,sans-Serif" font-size="10.00">Cpl/Dm/Persistent/EraseRequest.h</text>
</a>
</g>
</g>
<!-- Node4&#45;&gt;Node5 -->
<g id="edge4" class="edge"><title>Node4&#45;&gt;Node5</title>
<path fill="none" stroke="midnightblue" d="M715.844,-450.958C781.188,-438.165 890.092,-416.843 950.423,-405.032"/>
<polygon fill="midnightblue" stroke="midnightblue" points="714.886,-447.579 705.745,-452.936 716.231,-454.449 714.886,-447.579"/>
</g>
<!-- Node10 -->
<g id="node10" class="node"><title>Node10</title>
<g id="a_node10"><a xlink:href="_flush_request_8h.html" target="_top" xlink:title=" ">
<polygon fill="white" stroke="black" points="313.5,-386 313.5,-405 480.5,-405 480.5,-386 313.5,-386"/>
<text text-anchor="middle" x="397" y="-393" font-family="Helvetica,sans-Serif" font-size="10.00">Cpl/Dm/Persistent/FlushRequest.h</text>
</a>
</g>
</g>
<!-- Node4&#45;&gt;Node10 -->
<g id="edge9" class="edge"><title>Node4&#45;&gt;Node10</title>
<path fill="none" stroke="midnightblue" d="M617.089,-450.484C564.817,-437.663 479.6,-416.76 431.994,-405.083"/>
<polygon fill="midnightblue" stroke="midnightblue" points="616.537,-453.952 627.083,-452.936 618.205,-447.154 616.537,-453.952"/>
</g>
<!-- Node11 -->
<g id="node11" class="node"><title>Node11</title>
<g id="a_node11"><a xlink:href="_atomic_request_8h.html" target="_top" xlink:title=" ">
<polygon fill="white" stroke="black" points="633.5,-386 633.5,-405 756.5,-405 756.5,-386 633.5,-386"/>
<text text-anchor="middle" x="695" y="-393" font-family="Helvetica,sans-Serif" font-size="10.00">Cpl/Itc/AtomicRequest.h</text>
</a>
</g>
</g>
<!-- Node4&#45;&gt;Node11 -->
<g id="edge11" class="edge"><title>Node4&#45;&gt;Node11</title>
<path fill="none" stroke="midnightblue" d="M671.055,-443.663C677.42,-431.128 685.653,-414.91 690.62,-405.127"/>
<polygon fill="midnightblue" stroke="midnightblue" points="667.857,-442.233 666.451,-452.734 674.098,-445.402 667.857,-442.233"/>
</g>
<!-- Node13 -->
<g id="node13" class="node"><title>Node13</title>
<g id="a_node13"><a xlink:href="_close_request_8h.html" target="_top" xlink:title=" ">
<polygon fill="white" stroke="black" points="498.5,-386 498.5,-405 615.5,-405 615.5,-386 498.5,-386"/>
<text text-anchor="middle" x="557" y="-393" font-family="Helvetica,sans-Serif" font-size="10.00">Cpl/Itc/CloseRequest.h</text>
</a>
</g>
</g>
<!-- Node4&#45;&gt;Node13 -->
<g id="edge13" class="edge"><title>Node4&#45;&gt;Node13</title>
<path fill="none" stroke="midnightblue" d="M639.291,-447.442C618.497,-434.57 588.383,-415.927 570.936,-405.127"/>
<polygon fill="midnightblue" stroke="midnightblue" points="637.494,-450.446 647.839,-452.734 641.179,-444.494 637.494,-450.446"/>
</g>
<!-- Node18 -->
<g id="node18" class="node"><title>Node18</title>
<g id="a_node18"><a xlink:href="_open_request_8h.html" target="_top" xlink:title=" ">
<polygon fill="white" stroke="black" points="775,-386 775,-405 891,-405 891,-386 775,-386"/>
<text text-anchor="middle" x="833" y="-393" font-family="Helvetica,sans-Serif" font-size="10.00">Cpl/Itc/OpenRequest.h</text>
</a>
</g>
</g>
<!-- Node4&#45;&gt;Node18 -->
<g id="edge19" class="edge"><title>Node4&#45;&gt;Node18</title>
<path fill="none" stroke="midnightblue" d="M694.173,-449.271C728.112,-436.37 780.712,-416.376 810.471,-405.064"/>
<polygon fill="midnightblue" stroke="midnightblue" points="692.811,-446.044 684.707,-452.869 695.299,-452.587 692.811,-446.044"/>
</g>
<!-- Node20 -->
<g id="node20" class="node"><title>Node20</title>
<g id="a_node20"><a xlink:href="_indexed_entry_requests_8h.html" target="_top" xlink:title=" ">
<polygon fill="white" stroke="black" points="156.5,-380.5 156.5,-410.5 295.5,-410.5 295.5,-380.5 156.5,-380.5"/>
<text text-anchor="start" x="164.5" y="-398.5" font-family="Helvetica,sans-Serif" font-size="10.00">Cpl/Persistent/IndexedEntry</text>
<text text-anchor="middle" x="226" y="-387.5" font-family="Helvetica,sans-Serif" font-size="10.00">Requests.h</text>
</a>
</g>
</g>
<!-- Node4&#45;&gt;Node20 -->
<g id="edge22" class="edge"><title>Node4&#45;&gt;Node20</title>
<path fill="none" stroke="midnightblue" d="M585.251,-451.66C512.659,-442.119 400.733,-426.806 304,-411 301.281,-410.556 298.511,-410.092 295.715,-409.616"/>
<polygon fill="midnightblue" stroke="midnightblue" points="584.857,-455.138 595.227,-452.967 585.767,-448.197 584.857,-455.138"/>
</g>
<!-- Node6 -->
<g id="node6" class="node"><title>Node6</title>
<g id="a_node6"><a xlink:href="_dm_2_persistent_2_record_8h.html" target="_top" xlink:title=" ">
<polygon fill="white" stroke="black" points="912,-134.5 912,-153.5 1050,-153.5 1050,-134.5 912,-134.5"/>
<text text-anchor="middle" x="981" y="-141.5" font-family="Helvetica,sans-Serif" font-size="10.00">Cpl/Dm/Persistent/Record.h</text>
</a>
</g>
</g>
<!-- Node5&#45;&gt;Node6 -->
<g id="edge5" class="edge"><title>Node5&#45;&gt;Node6</title>
<path fill="none" stroke="midnightblue" d="M965.298,-381.117C933.311,-364.418 883.293,-332.539 862,-288 842.051,-246.273 864.467,-222.873 897,-190 913.758,-173.067 938.241,-160.945 956.457,-153.58"/>
<polygon fill="midnightblue" stroke="midnightblue" points="964.089,-384.428 974.594,-385.809 967.244,-378.179 964.089,-384.428"/>
</g>
<!-- Node7 -->
<g id="node7" class="node"><title>Node7</title>
<g id="a_node7"><a xlink:href="_installer_record_8h_source.html" target="_top" xlink:title=" ">
<polygon fill="white" stroke="black" points="784.5,-67.5 784.5,-97.5 903.5,-97.5 903.5,-67.5 784.5,-67.5"/>
<text text-anchor="start" x="792.5" y="-85.5" font-family="Helvetica,sans-Serif" font-size="10.00">Storm/Thermostat/Main</text>
<text text-anchor="middle" x="844" y="-74.5" font-family="Helvetica,sans-Serif" font-size="10.00">/InstallerRecord.h</text>
</a>
</g>
</g>
<!-- Node6&#45;&gt;Node7 -->
<g id="edge6" class="edge"><title>Node6&#45;&gt;Node7</title>
<path fill="none" stroke="midnightblue" d="M952.128,-130.461C929.937,-120.823 899.29,-107.513 876.288,-97.523"/>
<polygon fill="midnightblue" stroke="midnightblue" points="950.805,-133.702 961.371,-134.475 953.593,-127.281 950.805,-133.702"/>
</g>
<!-- Node8 -->
<g id="node8" class="node"><title>Node8</title>
<g id="a_node8"><a xlink:href="_run_time_record_8h_source.html" target="_top" xlink:title=" ">
<polygon fill="white" stroke="black" points="921.5,-67.5 921.5,-97.5 1040.5,-97.5 1040.5,-67.5 921.5,-67.5"/>
<text text-anchor="start" x="929.5" y="-85.5" font-family="Helvetica,sans-Serif" font-size="10.00">Storm/Thermostat/Main</text>
<text text-anchor="middle" x="981" y="-74.5" font-family="Helvetica,sans-Serif" font-size="10.00">/RunTimeRecord.h</text>
</a>
</g>
</g>
<!-- Node6&#45;&gt;Node8 -->
<g id="edge7" class="edge"><title>Node6&#45;&gt;Node8</title>
<path fill="none" stroke="midnightblue" d="M981,-124.235C981,-115.586 981,-105.497 981,-97.523"/>
<polygon fill="midnightblue" stroke="midnightblue" points="977.5,-124.475 981,-134.475 984.5,-124.475 977.5,-124.475"/>
</g>
<!-- Node9 -->
<g id="node9" class="node"><title>Node9</title>
<g id="a_node9"><a xlink:href="_user_record_8h_source.html" target="_top" xlink:title=" ">
<polygon fill="white" stroke="black" points="1058.5,-67.5 1058.5,-97.5 1177.5,-97.5 1177.5,-67.5 1058.5,-67.5"/>
<text text-anchor="start" x="1066.5" y="-85.5" font-family="Helvetica,sans-Serif" font-size="10.00">Storm/Thermostat/Main</text>
<text text-anchor="middle" x="1118" y="-74.5" font-family="Helvetica,sans-Serif" font-size="10.00">/UserRecord.h</text>
</a>
</g>
</g>
<!-- Node6&#45;&gt;Node9 -->
<g id="edge8" class="edge"><title>Node6&#45;&gt;Node9</title>
<path fill="none" stroke="midnightblue" d="M1009.87,-130.461C1032.06,-120.823 1062.71,-107.513 1085.71,-97.523"/>
<polygon fill="midnightblue" stroke="midnightblue" points="1008.41,-127.281 1000.63,-134.475 1011.2,-133.702 1008.41,-127.281"/>
</g>
<!-- Node10&#45;&gt;Node6 -->
<g id="edge10" class="edge"><title>Node10&#45;&gt;Node6</title>
<path fill="none" stroke="midnightblue" d="M411.811,-378.016C448.824,-338.025 550.16,-235.788 658,-190 740.472,-154.983 844.409,-146.063 911.758,-144.356"/>
<polygon fill="midnightblue" stroke="midnightblue" points="409.076,-375.82 404.91,-385.562 414.241,-380.545 409.076,-375.82"/>
</g>
<!-- Node12 -->
<g id="node12" class="node"><title>Node12</title>
<g id="a_node12"><a xlink:href="_atomic_sync_8h.html" target="_top" xlink:title=" ">
<polygon fill="white" stroke="black" points="585,-324.5 585,-343.5 695,-343.5 695,-324.5 585,-324.5"/>
<text text-anchor="middle" x="640" y="-331.5" font-family="Helvetica,sans-Serif" font-size="10.00">Cpl/Itc/AtomicSync.h</text>
</a>
</g>
</g>
<!-- Node11&#45;&gt;Node12 -->
<g id="edge12" class="edge"><title>Node11&#45;&gt;Node12</title>
<path fill="none" stroke="midnightblue" d="M680.208,-378.497C669.798,-367.236 656.273,-352.604 647.866,-343.509"/>
<polygon fill="midnightblue" stroke="midnightblue" points="677.762,-381.008 687.12,-385.975 682.902,-376.256 677.762,-381.008"/>
</g>
<!-- Node14 -->
<g id="node14" class="node"><title>Node14</title>
<g id="a_node14"><a xlink:href="_close_sync_8h.html" target="_top" xlink:title=" ">
<polygon fill="white" stroke="black" points="673,-263 673,-282 777,-282 777,-263 673,-263"/>
<text text-anchor="middle" x="725" y="-270" font-family="Helvetica,sans-Serif" font-size="10.00">Cpl/Itc/CloseSync.h</text>
</a>
</g>
</g>
<!-- Node13&#45;&gt;Node14 -->
<g id="edge14" class="edge"><title>Node13&#45;&gt;Node14</title>
<path fill="none" stroke="midnightblue" d="M557.349,-375.781C558.629,-360.06 562.877,-337.984 576,-324 601.045,-297.311 640.695,-284.726 672.799,-278.792"/>
<polygon fill="midnightblue" stroke="midnightblue" points="553.847,-375.74 556.858,-385.898 560.839,-376.08 553.847,-375.74"/>
</g>
<!-- Node15 -->
<g id="node15" class="node"><title>Node15</title>
<g id="a_node15"><a xlink:href="_indexed_entry_server_8h.html" target="_top" xlink:title=" ">
<polygon fill="white" stroke="black" points="569.5,-0.5 569.5,-30.5 708.5,-30.5 708.5,-0.5 569.5,-0.5"/>
<text text-anchor="start" x="577.5" y="-18.5" font-family="Helvetica,sans-Serif" font-size="10.00">Cpl/Persistent/IndexedEntry</text>
<text text-anchor="middle" x="639" y="-7.5" font-family="Helvetica,sans-Serif" font-size="10.00">Server.h</text>
</a>
</g>
</g>
<!-- Node14&#45;&gt;Node15 -->
<g id="edge15" class="edge"><title>Node14&#45;&gt;Node15</title>
<path fill="none" stroke="midnightblue" d="M697.183,-257.79C682.97,-249.252 666.847,-236.862 658,-221 622.568,-157.474 631.541,-65.3331 636.648,-30.5219"/>
<polygon fill="midnightblue" stroke="midnightblue" points="695.721,-260.983 706.151,-262.842 699.156,-254.884 695.721,-260.983"/>
</g>
<!-- Node16 -->
<g id="node16" class="node"><title>Node16</title>
<g id="a_node16"><a xlink:href="_record_server_8h.html" target="_top" xlink:title=" ">
<polygon fill="white" stroke="black" points="906.5,-196 906.5,-215 1055.5,-215 1055.5,-196 906.5,-196"/>
<text text-anchor="middle" x="981" y="-203" font-family="Helvetica,sans-Serif" font-size="10.00">Cpl/Persistent/RecordServer.h</text>
</a>
</g>
</g>
<!-- Node14&#45;&gt;Node16 -->
<g id="edge16" class="edge"><title>Node14&#45;&gt;Node16</title>
<path fill="none" stroke="midnightblue" d="M768.702,-260.404C819.225,-247.576 901.301,-226.736 947.195,-215.083"/>
<polygon fill="midnightblue" stroke="midnightblue" points="767.562,-257.082 758.731,-262.936 769.285,-263.867 767.562,-257.082"/>
</g>
<!-- Node17 -->
<g id="node17" class="node"><title>Node17</title>
<g id="a_node17"><a xlink:href="_algorithm_8h.html" target="_top" xlink:title=" ">
<polygon fill="white" stroke="black" points="667,-196 667,-215 815,-215 815,-196 667,-196"/>
<text text-anchor="middle" x="741" y="-203" font-family="Helvetica,sans-Serif" font-size="10.00">Storm/Thermostat/Algorithm.h</text>
</a>
</g>
</g>
<!-- Node14&#45;&gt;Node17 -->
<g id="edge18" class="edge"><title>Node14&#45;&gt;Node17</title>
<path fill="none" stroke="midnightblue" d="M729.575,-252.915C732.634,-240.488 736.516,-224.717 738.876,-215.127"/>
<polygon fill="midnightblue" stroke="midnightblue" points="726.15,-252.187 727.158,-262.734 732.947,-253.86 726.15,-252.187"/>
</g>
<!-- Node16&#45;&gt;Node6 -->
<g id="edge17" class="edge"><title>Node16&#45;&gt;Node6</title>
<path fill="none" stroke="midnightblue" d="M981,-185.817C981,-174.996 981,-161.898 981,-153.509"/>
<polygon fill="midnightblue" stroke="midnightblue" points="977.5,-185.975 981,-195.975 984.5,-185.975 977.5,-185.975"/>
</g>
<!-- Node19 -->
<g id="node19" class="node"><title>Node19</title>
<g id="a_node19"><a xlink:href="_open_sync_8h.html" target="_top" xlink:title=" ">
<polygon fill="white" stroke="black" points="713,-324.5 713,-343.5 815,-343.5 815,-324.5 713,-324.5"/>
<text text-anchor="middle" x="764" y="-331.5" font-family="Helvetica,sans-Serif" font-size="10.00">Cpl/Itc/OpenSync.h</text>
</a>
</g>
</g>
<!-- Node18&#45;&gt;Node19 -->
<g id="edge20" class="edge"><title>Node18&#45;&gt;Node19</title>
<path fill="none" stroke="midnightblue" d="M815.199,-379.15C802.044,-367.806 784.62,-352.781 773.868,-343.509"/>
<polygon fill="midnightblue" stroke="midnightblue" points="813.255,-382.095 823.114,-385.975 817.826,-376.794 813.255,-382.095"/>
</g>
<!-- Node19&#45;&gt;Node14 -->
<g id="edge21" class="edge"><title>Node19&#45;&gt;Node14</title>
<path fill="none" stroke="midnightblue" d="M752.86,-316.005C745.574,-304.888 736.365,-290.84 730.577,-282.009"/>
<polygon fill="midnightblue" stroke="midnightblue" points="750.003,-318.03 758.412,-324.475 755.857,-314.193 750.003,-318.03"/>
</g>
<!-- Node20&#45;&gt;Node15 -->
<g id="edge23" class="edge"><title>Node20&#45;&gt;Node15</title>
<path fill="none" stroke="midnightblue" d="M256.958,-374.188C285.346,-352.846 323,-316.443 323,-273.5 323,-273.5 323,-273.5 323,-143 323,-90.3328 476.203,-49.6792 569.261,-29.8434"/>
<polygon fill="midnightblue" stroke="midnightblue" points="254.542,-371.617 248.498,-380.319 258.649,-377.285 254.542,-371.617"/>
</g>
<!-- Node22 -->
<g id="node22" class="node"><title>Node22</title>
<g id="a_node22"><a xlink:href="_dm_2_mailbox_server_8h.html" target="_top" xlink:title=" ">
<polygon fill="white" stroke="black" points="1136,-324.5 1136,-343.5 1258,-343.5 1258,-324.5 1136,-324.5"/>
<text text-anchor="middle" x="1197" y="-331.5" font-family="Helvetica,sans-Serif" font-size="10.00">Cpl/Dm/MailboxServer.h</text>
</a>
</g>
</g>
<!-- Node21&#45;&gt;Node22 -->
<g id="edge25" class="edge"><title>Node21&#45;&gt;Node22</title>
<path fill="none" stroke="midnightblue" d="M1197,-375.817C1197,-364.996 1197,-351.898 1197,-343.509"/>
<polygon fill="midnightblue" stroke="midnightblue" points="1193.5,-375.975 1197,-385.975 1200.5,-375.975 1193.5,-375.975"/>
</g>
<!-- Node35 -->
<g id="node35" class="node"><title>Node35</title>
<g id="a_node35"><a xlink:href="_itc_2_mailbox_server_8h.html" target="_top" xlink:title=" ">
<polygon fill="white" stroke="black" points="1478.5,-324.5 1478.5,-343.5 1597.5,-343.5 1597.5,-324.5 1478.5,-324.5"/>
<text text-anchor="middle" x="1538" y="-331.5" font-family="Helvetica,sans-Serif" font-size="10.00">Cpl/Itc/MailboxServer.h</text>
</a>
</g>
</g>
<!-- Node21&#45;&gt;Node35 -->
<g id="edge49" class="edge"><title>Node21&#45;&gt;Node35</title>
<path fill="none" stroke="midnightblue" d="M1252.45,-384.825C1318.15,-373.361 1426.58,-354.441 1489.22,-343.512"/>
<polygon fill="midnightblue" stroke="midnightblue" points="1251.53,-381.432 1242.28,-386.599 1252.73,-388.328 1251.53,-381.432"/>
</g>
<!-- Node22&#45;&gt;Node16 -->
<g id="edge40" class="edge"><title>Node22&#45;&gt;Node16</title>
<path fill="none" stroke="midnightblue" d="M1197.4,-313.889C1196.7,-296.718 1192.88,-271.969 1178,-257 1167.08,-246.014 1078.55,-226.357 1023.95,-215.081"/>
<polygon fill="midnightblue" stroke="midnightblue" points="1193.91,-314.381 1197.49,-324.352 1200.91,-314.324 1193.91,-314.381"/>
</g>
<!-- Node22&#45;&gt;Node17 -->
<g id="edge47" class="edge"><title>Node22&#45;&gt;Node17</title>
<path fill="none" stroke="midnightblue" d="M1125.59,-332.751C1056.15,-330.373 948.744,-320.962 862,-288 815.832,-270.456 769.792,-232.352 750.472,-215.189"/>
<polygon fill="midnightblue" stroke="midnightblue" points="1125.87,-336.261 1135.97,-333.063 1126.08,-329.264 1125.87,-336.261"/>
</g>
<!-- Node23 -->
<g id="node23" class="node"><title>Node23</title>
<g id="a_node23"><a xlink:href="_dm_2_periodic_scheduler_8h.html" target="_top" xlink:title=" ">
<polygon fill="white" stroke="black" points="871.5,-263 871.5,-282 1010.5,-282 1010.5,-263 871.5,-263"/>
<text text-anchor="middle" x="941" y="-270" font-family="Helvetica,sans-Serif" font-size="10.00">Cpl/Dm/PeriodicScheduler.h</text>
</a>
</g>
</g>
<!-- Node22&#45;&gt;Node23 -->
<g id="edge26" class="edge"><title>Node22&#45;&gt;Node23</title>
<path fill="none" stroke="midnightblue" d="M1150.47,-322.186C1100.8,-310.641 1023.11,-292.584 977.611,-282.009"/>
<polygon fill="midnightblue" stroke="midnightblue" points="1149.79,-325.62 1160.32,-324.475 1151.37,-318.802 1149.79,-325.62"/>
</g>
<!-- Node24 -->
<g id="node24" class="node"><title>Node24</title>
<g id="a_node24"><a xlink:href="_chunk_8h.html" target="_top" xlink:title=" ">
<polygon fill="white" stroke="black" points="1363.5,-263 1363.5,-282 1480.5,-282 1480.5,-263 1363.5,-263"/>
<text text-anchor="middle" x="1422" y="-270" font-family="Helvetica,sans-Serif" font-size="10.00">Cpl/Persistent/Chunk.h</text>
</a>
</g>
</g>
<!-- Node22&#45;&gt;Node24 -->
<g id="edge27" class="edge"><title>Node22&#45;&gt;Node24</title>
<path fill="none" stroke="midnightblue" d="M1238.99,-321.896C1282.69,-310.34 1350.17,-292.495 1389.82,-282.009"/>
<polygon fill="midnightblue" stroke="midnightblue" points="1238.01,-318.535 1229.24,-324.475 1239.8,-325.302 1238.01,-318.535"/>
</g>
<!-- Node30 -->
<g id="node30" class="node"><title>Node30</title>
<g id="a_node30"><a xlink:href="_persistent_2_record_8h.html" target="_top" xlink:title=" ">
<polygon fill="white" stroke="black" points="1225,-263 1225,-282 1345,-282 1345,-263 1225,-263"/>
<text text-anchor="middle" x="1285" y="-270" font-family="Helvetica,sans-Serif" font-size="10.00">Cpl/Persistent/Record.h</text>
</a>
</g>
</g>
<!-- Node22&#45;&gt;Node30 -->
<g id="edge36" class="edge"><title>Node22&#45;&gt;Node30</title>
<path fill="none" stroke="midnightblue" d="M1218.28,-318.613C1235.2,-307.169 1258.31,-291.546 1272.42,-282.009"/>
<polygon fill="midnightblue" stroke="midnightblue" points="1215.93,-315.974 1209.61,-324.475 1219.85,-321.773 1215.93,-315.974"/>
</g>
<!-- Node31 -->
<g id="node31" class="node"><title>Node31</title>
<g id="a_node31"><a xlink:href="_region_media_8h.html" target="_top" xlink:title=" ">
<polygon fill="white" stroke="black" points="1509,-263 1509,-282 1655,-282 1655,-263 1509,-263"/>
<text text-anchor="middle" x="1582" y="-270" font-family="Helvetica,sans-Serif" font-size="10.00">Cpl/Persistent/RegionMedia.h</text>
</a>
</g>
</g>
<!-- Node22&#45;&gt;Node31 -->
<g id="edge41" class="edge"><title>Node22&#45;&gt;Node31</title>
<path fill="none" stroke="midnightblue" d="M1262.4,-322.955C1321.58,-313.857 1411.14,-300.07 1489,-288 1501.43,-286.073 1514.8,-283.993 1527.42,-282.027"/>
<polygon fill="midnightblue" stroke="midnightblue" points="1261.79,-319.507 1252.44,-324.486 1262.86,-326.426 1261.79,-319.507"/>
</g>
<!-- Node34 -->
<g id="node34" class="node"><title>Node34</title>
<g id="a_node34"><a xlink:href="_event_monitor_8h_source.html" target="_top" xlink:title=" ">
<polygon fill="white" stroke="black" points="1029,-257.5 1029,-287.5 1169,-287.5 1169,-257.5 1029,-257.5"/>
<text text-anchor="start" x="1037" y="-275.5" font-family="Helvetica,sans-Serif" font-size="10.00">Storm/Thermostat/Ui</text>
<text text-anchor="middle" x="1099" y="-264.5" font-family="Helvetica,sans-Serif" font-size="10.00">/PicoDisplay/EventMonitor.h</text>
</a>
</g>
</g>
<!-- Node22&#45;&gt;Node34 -->
<g id="edge48" class="edge"><title>Node22&#45;&gt;Node34</title>
<path fill="none" stroke="midnightblue" d="M1174.4,-319.276C1158.71,-309.754 1137.89,-297.11 1122.1,-287.523"/>
<polygon fill="midnightblue" stroke="midnightblue" points="1172.59,-322.277 1182.96,-324.475 1176.23,-316.294 1172.59,-322.277"/>
</g>
<!-- Node24&#45;&gt;Node6 -->
<g id="edge28" class="edge"><title>Node24&#45;&gt;Node6</title>
<path fill="none" stroke="midnightblue" d="M1388.32,-259.37C1364.19,-250.138 1331.28,-236.421 1304,-221 1283.49,-209.406 1282.77,-199.001 1261,-190 1192.75,-161.786 1108.35,-151.186 1050.16,-147.245"/>
<polygon fill="midnightblue" stroke="midnightblue" points="1387.17,-262.674 1397.76,-262.923 1389.63,-256.123 1387.17,-262.674"/>
</g>
<!-- Node25 -->
<g id="node25" class="node"><title>Node25</title>
<g id="a_node25"><a xlink:href="_crc_chunk_8h.html" target="_top" xlink:title=" ">
<polygon fill="white" stroke="black" points="1516,-196 1516,-215 1648,-215 1648,-196 1516,-196"/>
<text text-anchor="middle" x="1582" y="-203" font-family="Helvetica,sans-Serif" font-size="10.00">Cpl/Persistent/CrcChunk.h</text>
</a>
</g>
</g>
<!-- Node24&#45;&gt;Node25 -->
<g id="edge29" class="edge"><title>Node24&#45;&gt;Node25</title>
<path fill="none" stroke="midnightblue" d="M1452.51,-259.104C1484.28,-246.198 1533.19,-226.327 1560.92,-215.064"/>
<polygon fill="midnightblue" stroke="midnightblue" points="1451.19,-255.862 1443.25,-262.869 1453.83,-262.347 1451.19,-255.862"/>
</g>
<!-- Node26 -->
<g id="node26" class="node"><title>Node26</title>
<g id="a_node26"><a xlink:href="_data_record_8h.html" target="_top" xlink:title=" ">
<polygon fill="white" stroke="black" points="1112,-196 1112,-215 1252,-215 1252,-196 1112,-196"/>
<text text-anchor="middle" x="1182" y="-203" font-family="Helvetica,sans-Serif" font-size="10.00">Cpl/Persistent/DataRecord.h</text>
</a>
</g>
</g>
<!-- Node24&#45;&gt;Node26 -->
<g id="edge30" class="edge"><title>Node24&#45;&gt;Node26</title>
<path fill="none" stroke="midnightblue" d="M1380.47,-260.253C1333.04,-247.405 1256.46,-226.667 1213.62,-215.064"/>
<polygon fill="midnightblue" stroke="midnightblue" points="1379.56,-263.633 1390.13,-262.869 1381.39,-256.876 1379.56,-263.633"/>
</g>
<!-- Node28 -->
<g id="node28" class="node"><title>Node28</title>
<g id="a_node28"><a xlink:href="_indexed_entry_record_8h.html" target="_top" xlink:title=" ">
<polygon fill="white" stroke="black" points="1221.5,-67.5 1221.5,-97.5 1360.5,-97.5 1360.5,-67.5 1221.5,-67.5"/>
<text text-anchor="start" x="1229.5" y="-85.5" font-family="Helvetica,sans-Serif" font-size="10.00">Cpl/Persistent/IndexedEntry</text>
<text text-anchor="middle" x="1291" y="-74.5" font-family="Helvetica,sans-Serif" font-size="10.00">Record.h</text>
</a>
</g>
</g>
<!-- Node24&#45;&gt;Node28 -->
<g id="edge34" class="edge"><title>Node24&#45;&gt;Node28</title>
<path fill="none" stroke="midnightblue" d="M1388.89,-258.625C1371.29,-250.275 1350.55,-237.796 1337,-221 1306.5,-183.187 1295.84,-124.237 1292.44,-97.5131"/>
<polygon fill="midnightblue" stroke="midnightblue" points="1387.72,-261.938 1398.28,-262.841 1390.59,-255.552 1387.72,-261.938"/>
</g>
<!-- Node29 -->
<g id="node29" class="node"><title>Node29</title>
<g id="a_node29"><a xlink:href="_mirrored_chunk_8h.html" target="_top" xlink:title=" ">
<polygon fill="white" stroke="black" points="1346,-196 1346,-215 1498,-215 1498,-196 1346,-196"/>
<text text-anchor="middle" x="1422" y="-203" font-family="Helvetica,sans-Serif" font-size="10.00">Cpl/Persistent/MirroredChunk.h</text>
</a>
</g>
</g>
<!-- Node24&#45;&gt;Node29 -->
<g id="edge35" class="edge"><title>Node24&#45;&gt;Node29</title>
<path fill="none" stroke="midnightblue" d="M1422,-252.537C1422,-240.17 1422,-224.62 1422,-215.127"/>
<polygon fill="midnightblue" stroke="midnightblue" points="1418.5,-252.734 1422,-262.734 1425.5,-252.734 1418.5,-252.734"/>
</g>
<!-- Node27 -->
<g id="node27" class="node"><title>Node27</title>
<g id="a_node27"><a xlink:href="_index_record_8h.html" target="_top" xlink:title=" ">
<polygon fill="white" stroke="black" points="1128,-134.5 1128,-153.5 1272,-153.5 1272,-134.5 1128,-134.5"/>
<text text-anchor="middle" x="1200" y="-141.5" font-family="Helvetica,sans-Serif" font-size="10.00">Cpl/Persistent/IndexRecord.h</text>
</a>
</g>
</g>
<!-- Node26&#45;&gt;Node27 -->
<g id="edge31" class="edge"><title>Node26&#45;&gt;Node27</title>
<path fill="none" stroke="midnightblue" d="M1187.55,-186.157C1190.84,-175.272 1194.86,-161.986 1197.43,-153.509"/>
<polygon fill="midnightblue" stroke="midnightblue" points="1184.12,-185.39 1184.58,-195.975 1190.82,-187.417 1184.12,-185.39"/>
</g>
<!-- Node27&#45;&gt;Node28 -->
<g id="edge32" class="edge"><title>Node27&#45;&gt;Node28</title>
<path fill="none" stroke="midnightblue" d="M1221.81,-128.739C1236.27,-119.282 1255.17,-106.93 1269.55,-97.523"/>
<polygon fill="midnightblue" stroke="midnightblue" points="1219.49,-126.073 1213.04,-134.475 1223.32,-131.932 1219.49,-126.073"/>
</g>
<!-- Node28&#45;&gt;Node15 -->
<g id="edge33" class="edge"><title>Node28&#45;&gt;Node15</title>
<path fill="none" stroke="midnightblue" d="M1211.31,-70.1114C1202.78,-69.0059 1194.21,-67.9456 1186,-67 1014.75,-47.281 812.638,-30.2324 708.614,-21.9136"/>
<polygon fill="midnightblue" stroke="midnightblue" points="1210.93,-73.5912 1221.3,-71.4258 1211.85,-66.6511 1210.93,-73.5912"/>
</g>
<!-- Node30&#45;&gt;Node6 -->
<g id="edge37" class="edge"><title>Node30&#45;&gt;Node6</title>
<path fill="none" stroke="midnightblue" d="M1223.57,-260.867C1187.18,-253.029 1140.92,-240.319 1103,-221 1083.27,-210.95 1082.47,-202.212 1064,-190 1042.53,-175.806 1016.18,-162.097 999.007,-153.616"/>
<polygon fill="midnightblue" stroke="midnightblue" points="1223.05,-264.334 1233.55,-262.949 1224.48,-257.481 1223.05,-264.334"/>
</g>
<!-- Node30&#45;&gt;Node16 -->
<g id="edge39" class="edge"><title>Node30&#45;&gt;Node16</title>
<path fill="none" stroke="midnightblue" d="M1234.97,-260.803C1175.15,-248.012 1076.21,-226.858 1021.14,-215.083"/>
<polygon fill="midnightblue" stroke="midnightblue" points="1234.43,-264.267 1244.94,-262.936 1235.9,-257.422 1234.43,-264.267"/>
</g>
<!-- Node30&#45;&gt;Node26 -->
<g id="edge38" class="edge"><title>Node30&#45;&gt;Node26</title>
<path fill="none" stroke="midnightblue" d="M1262.45,-257.269C1242.06,-244.403 1212.71,-225.879 1195.67,-215.127"/>
<polygon fill="midnightblue" stroke="midnightblue" points="1260.78,-260.357 1271.11,-262.734 1264.52,-254.437 1260.78,-260.357"/>
</g>
<!-- Node31&#45;&gt;Node25 -->
<g id="edge42" class="edge"><title>Node31&#45;&gt;Node25</title>
<path fill="none" stroke="midnightblue" d="M1582,-252.537C1582,-240.17 1582,-224.62 1582,-215.127"/>
<polygon fill="midnightblue" stroke="midnightblue" points="1578.5,-252.734 1582,-262.734 1585.5,-252.734 1578.5,-252.734"/>
</g>
<!-- Node31&#45;&gt;Node28 -->
<g id="edge44" class="edge"><title>Node31&#45;&gt;Node28</title>
<path fill="none" stroke="midnightblue" d="M1614.4,-258.549C1630.29,-250.344 1647.94,-238.028 1657,-221 1663.47,-208.838 1665.27,-201.02 1657,-190 1621.45,-142.628 1456.67,-109.434 1360.77,-93.7519"/>
<polygon fill="midnightblue" stroke="midnightblue" points="1612.82,-255.426 1605.32,-262.909 1615.85,-261.736 1612.82,-255.426"/>
</g>
<!-- Node31&#45;&gt;Node29 -->
<g id="edge45" class="edge"><title>Node31&#45;&gt;Node29</title>
<path fill="none" stroke="midnightblue" d="M1551.49,-259.104C1519.72,-246.198 1470.81,-226.327 1443.08,-215.064"/>
<polygon fill="midnightblue" stroke="midnightblue" points="1550.17,-262.347 1560.75,-262.869 1552.81,-255.862 1550.17,-262.347"/>
</g>
<!-- Node32 -->
<g id="node32" class="node"><title>Node32</title>
<g id="a_node32"><a xlink:href="_file_adapter_8h.html" target="_top" xlink:title=" ">
<polygon fill="white" stroke="black" points="1704.5,-196 1704.5,-215 1843.5,-215 1843.5,-196 1704.5,-196"/>
<text text-anchor="middle" x="1774" y="-203" font-family="Helvetica,sans-Serif" font-size="10.00">Cpl/Persistent/FileAdapter.h</text>
</a>
</g>
</g>
<!-- Node31&#45;&gt;Node32 -->
<g id="edge43" class="edge"><title>Node31&#45;&gt;Node32</title>
<path fill="none" stroke="midnightblue" d="M1617.15,-259.601C1655.21,-246.714 1715,-226.473 1748.7,-215.064"/>
<polygon fill="midnightblue" stroke="midnightblue" points="1615.85,-256.347 1607.5,-262.869 1618.09,-262.977 1615.85,-256.347"/>
</g>
<!-- Node33 -->
<g id="node33" class="node"><title>Node33</title>
<g id="a_node33"><a xlink:href="_null_region_media_8h.html" target="_top" xlink:title=" ">
<polygon fill="white" stroke="black" points="1862,-190.5 1862,-220.5 1990,-220.5 1990,-190.5 1862,-190.5"/>
<text text-anchor="start" x="1870" y="-208.5" font-family="Helvetica,sans-Serif" font-size="10.00">Cpl/Persistent/NullRegion</text>
<text text-anchor="middle" x="1926" y="-197.5" font-family="Helvetica,sans-Serif" font-size="10.00">Media.h</text>
</a>
</g>
</g>
<!-- Node31&#45;&gt;Node33 -->
<g id="edge46" class="edge"><title>Node31&#45;&gt;Node33</title>
<path fill="none" stroke="midnightblue" d="M1638.2,-261.134C1692.83,-251.022 1778.14,-235.142 1852,-221 1855.21,-220.384 1858.51,-219.751 1861.83,-219.109"/>
<polygon fill="midnightblue" stroke="midnightblue" points="1637.56,-257.692 1628.37,-262.953 1638.84,-264.576 1637.56,-257.692"/>
</g>
<!-- Node36 -->
<g id="node36" class="node"><title>Node36</title>
<g id="a_node36"><a xlink:href="_itc_2_periodic_scheduler_8h.html" target="_top" xlink:title=" ">
<polygon fill="white" stroke="black" points="1673.5,-263 1673.5,-282 1808.5,-282 1808.5,-263 1673.5,-263"/>
<text text-anchor="middle" x="1741" y="-270" font-family="Helvetica,sans-Serif" font-size="10.00">Cpl/Itc/PeriodicScheduler.h</text>
</a>
</g>
</g>
<!-- Node35&#45;&gt;Node36 -->
<g id="edge50" class="edge"><title>Node35&#45;&gt;Node36</title>
<path fill="none" stroke="midnightblue" d="M1576.89,-321.602C1616.34,-310.04 1676.49,-292.407 1711.97,-282.009"/>
<polygon fill="midnightblue" stroke="midnightblue" points="1575.7,-318.304 1567.08,-324.475 1577.67,-325.021 1575.7,-318.304"/>
</g>
<!-- Node37&#45;&gt;Node5 -->
<g id="edge52" class="edge"><title>Node37&#45;&gt;Node5</title>
<path fill="none" stroke="midnightblue" d="M676.543,-576.243C747.311,-571.41 874.47,-559.406 912,-534 960.334,-501.28 984.549,-429.716 991.69,-405.054"/>
<polygon fill="midnightblue" stroke="midnightblue" points="676.276,-572.753 666.529,-576.905 676.738,-579.738 676.276,-572.753"/>
</g>
<!-- Node37&#45;&gt;Node10 -->
<g id="edge53" class="edge"><title>Node37&#45;&gt;Node10</title>
<path fill="none" stroke="midnightblue" d="M579.501,-569.717C515.131,-557.354 408.542,-536.718 400,-534 341.989,-515.544 308.096,-529.093 275,-478 267.509,-466.436 267.344,-458.455 275,-447 290.094,-424.416 317.355,-411.919 342.285,-405.01"/>
<polygon fill="midnightblue" stroke="midnightblue" points="578.968,-573.179 589.448,-571.626 580.287,-566.304 578.968,-573.179"/>
</g>
<!-- Node37&#45;&gt;Node11 -->
<g id="edge56" class="edge"><title>Node37&#45;&gt;Node11</title>
<path fill="none" stroke="midnightblue" d="M650.985,-564.709C685.14,-542.922 746.516,-501.465 758,-478 764.057,-465.625 763.962,-459.421 758,-447 748.719,-427.665 728.028,-413.403 712.881,-405.057"/>
<polygon fill="midnightblue" stroke="midnightblue" points="648.72,-561.999 642.137,-570.301 652.46,-567.916 648.72,-561.999"/>
</g>
<!-- Node37&#45;&gt;Node13 -->
<g id="edge57" class="edge"><title>Node37&#45;&gt;Node13</title>
<path fill="none" stroke="midnightblue" d="M619.441,-561.389C609.908,-541.428 594.348,-507.788 583,-478 573.06,-451.908 563.697,-420.185 559.425,-405.173"/>
<polygon fill="midnightblue" stroke="midnightblue" points="616.33,-562.996 623.822,-570.488 622.637,-559.959 616.33,-562.996"/>
</g>
<!-- Node37&#45;&gt;Node18 -->
<g id="edge58" class="edge"><title>Node37&#45;&gt;Node18</title>
<path fill="none" stroke="midnightblue" d="M676.752,-577.952C745.569,-575.325 865.865,-566.132 893,-534 927.786,-492.81 867.087,-428.331 842.576,-405.157"/>
<polygon fill="midnightblue" stroke="midnightblue" points="676.452,-574.46 666.58,-578.306 676.696,-581.456 676.452,-574.46"/>
</g>
<!-- Node37&#45;&gt;Node20 -->
<g id="edge68" class="edge"><title>Node37&#45;&gt;Node20</title>
<path fill="none" stroke="midnightblue" d="M579.345,-570.055C459.426,-553.043 415.127,-590.229 313,-534 264.251,-507.16 239.01,-440.204 229.965,-410.767"/>
<polygon fill="midnightblue" stroke="midnightblue" points="578.845,-573.519 589.257,-571.559 579.896,-566.598 578.845,-573.519"/>
</g>
<!-- Node38 -->
<g id="node38" class="node"><title>Node38</title>
<g id="a_node38"><a xlink:href="_listener_client_request_8h.html" target="_top" xlink:title=" ">
<polygon fill="white" stroke="black" points="284,-447.5 284,-477.5 422,-477.5 422,-447.5 284,-447.5"/>
<text text-anchor="start" x="292" y="-465.5" font-family="Helvetica,sans-Serif" font-size="10.00">Cpl/Io/Socket/ListenerClient</text>
<text text-anchor="middle" x="353" y="-454.5" font-family="Helvetica,sans-Serif" font-size="10.00">Request.h</text>
</a>
</g>
</g>
<!-- Node37&#45;&gt;Node38 -->
<g id="edge54" class="edge"><title>Node37&#45;&gt;Node38</title>
<path fill="none" stroke="midnightblue" d="M579.215,-569.123C525.52,-558.043 445.038,-540.741 432,-534 404.567,-519.817 379.117,-493.888 364.862,-477.737"/>
<polygon fill="midnightblue" stroke="midnightblue" points="578.738,-572.598 589.238,-571.183 580.147,-565.741 578.738,-572.598"/>
</g>
<!-- Node40 -->
<g id="node40" class="node"><title>Node40</title>
<g id="a_node40"><a xlink:href="_request_message_8h.html" target="_top" xlink:title=" ">
<polygon fill="white" stroke="black" points="441,-514.5 441,-533.5 573,-533.5 573,-514.5 441,-514.5"/>
<text text-anchor="middle" x="507" y="-521.5" font-family="Helvetica,sans-Serif" font-size="10.00">Cpl/Itc/RequestMessage.h</text>
</a>
</g>
</g>
<!-- Node37&#45;&gt;Node40 -->
<g id="edge59" class="edge"><title>Node37&#45;&gt;Node40</title>
<path fill="none" stroke="midnightblue" d="M599.694,-566.368C577.035,-556.255 545.874,-542.349 526.083,-533.516"/>
<polygon fill="midnightblue" stroke="midnightblue" points="598.269,-569.564 608.827,-570.444 601.122,-563.172 598.269,-569.564"/>
</g>
<!-- Node39 -->
<g id="node39" class="node"><title>Node39</title>
<g id="a_node39"><a xlink:href="_listener_client_sync_8h.html" target="_top" xlink:title=" ">
<polygon fill="white" stroke="black" points="0,-380.5 0,-410.5 138,-410.5 138,-380.5 0,-380.5"/>
<text text-anchor="start" x="8" y="-398.5" font-family="Helvetica,sans-Serif" font-size="10.00">Cpl/Io/Socket/ListenerClient</text>
<text text-anchor="middle" x="69" y="-387.5" font-family="Helvetica,sans-Serif" font-size="10.00">Sync.h</text>
</a>
</g>
</g>
<!-- Node38&#45;&gt;Node39 -->
<g id="edge55" class="edge"><title>Node38&#45;&gt;Node39</title>
<path fill="none" stroke="midnightblue" d="M281.719,-445.186C235.207,-434.54 175.103,-420.784 130.654,-410.611"/>
<polygon fill="midnightblue" stroke="midnightblue" points="281.197,-448.657 291.726,-447.476 282.759,-441.833 281.197,-448.657"/>
</g>
<!-- Node40&#45;&gt;Node4 -->
<g id="edge66" class="edge"><title>Node40&#45;&gt;Node4</title>
<path fill="none" stroke="midnightblue" d="M538.827,-510.782C568.948,-499.22 613.379,-482.164 639.833,-472.009"/>
<polygon fill="midnightblue" stroke="midnightblue" points="537.289,-507.624 529.208,-514.475 539.798,-514.159 537.289,-507.624"/>
</g>
<!-- Node40&#45;&gt;Node5 -->
<g id="edge60" class="edge"><title>Node40&#45;&gt;Node5</title>
<path fill="none" stroke="midnightblue" d="M583.175,-515.633C640.932,-508.922 721.888,-497.087 791,-478 862.017,-458.387 941.978,-421.696 976.543,-405.074"/>
<polygon fill="midnightblue" stroke="midnightblue" points="582.571,-512.179 573.03,-516.787 583.362,-519.135 582.571,-512.179"/>
</g>
<!-- Node40&#45;&gt;Node10 -->
<g id="edge61" class="edge"><title>Node40&#45;&gt;Node10</title>
<path fill="none" stroke="midnightblue" d="M499.323,-504.848C491.862,-488.559 479.414,-464.578 464,-447 448.634,-429.477 426.304,-414.131 411.717,-405.086"/>
<polygon fill="midnightblue" stroke="midnightblue" points="496.252,-506.558 503.487,-514.298 502.658,-503.735 496.252,-506.558"/>
</g>
<!-- Node40&#45;&gt;Node11 -->
<g id="edge63" class="edge"><title>Node40&#45;&gt;Node11</title>
<path fill="none" stroke="midnightblue" d="M583.318,-518.605C643.743,-513.341 721.169,-502.008 741,-478 760.66,-454.199 725.798,-420.834 706.516,-405.212"/>
<polygon fill="midnightblue" stroke="midnightblue" points="582.692,-515.144 573.016,-519.458 583.271,-522.12 582.692,-515.144"/>
</g>
<!-- Node40&#45;&gt;Node13 -->
<g id="edge64" class="edge"><title>Node40&#45;&gt;Node13</title>
<path fill="none" stroke="midnightblue" d="M514.243,-504.675C525.17,-477.03 545.451,-425.718 553.539,-405.256"/>
<polygon fill="midnightblue" stroke="midnightblue" points="510.858,-503.719 510.437,-514.305 517.368,-506.292 510.858,-503.719"/>
</g>
<!-- Node40&#45;&gt;Node18 -->
<g id="edge65" class="edge"><title>Node40&#45;&gt;Node18</title>
<path fill="none" stroke="midnightblue" d="M583.372,-521.897C635.414,-518.229 704.339,-507.465 758,-478 790.867,-459.953 817.179,-422.112 827.853,-405.103"/>
<polygon fill="midnightblue" stroke="midnightblue" points="582.957,-518.416 573.198,-522.539 583.399,-525.402 582.957,-518.416"/>
</g>
<!-- Node40&#45;&gt;Node20 -->
<g id="edge67" class="edge"><title>Node40&#45;&gt;Node20</title>
<path fill="none" stroke="midnightblue" d="M491.926,-507.036C471.901,-485.97 438.206,-451.064 431,-447 407.932,-433.992 345.591,-419.579 295.663,-409.492"/>
<polygon fill="midnightblue" stroke="midnightblue" points="489.428,-509.488 498.848,-514.339 494.509,-504.673 489.428,-509.488"/>
</g>
<!-- Node40&#45;&gt;Node38 -->
<g id="edge62" class="edge"><title>Node40&#45;&gt;Node38</title>
<path fill="none" stroke="midnightblue" d="M475.546,-510.847C450.529,-501.182 415.498,-487.647 389.295,-477.523"/>
<polygon fill="midnightblue" stroke="midnightblue" points="474.346,-514.136 484.936,-514.475 476.869,-507.606 474.346,-514.136"/>
</g>
<!-- Node41&#45;&gt;Node40 -->
<g id="edge70" class="edge"><title>Node41&#45;&gt;Node40</title>
<path fill="none" stroke="midnightblue" d="M507,-559.805C507,-550.91 507,-540.78 507,-533.751"/>
<polygon fill="midnightblue" stroke="midnightblue" points="503.5,-560.083 507,-570.083 510.5,-560.083 503.5,-560.083"/>
</g>
</g>
</svg>
