<?xml version="1.0" encoding="UTF-8" standalone="no"?>
<!DOCTYPE svg PUBLIC "-//W3C//DTD SVG 1.1//EN"
 "http://www.w3.org/Graphics/SVG/1.1/DTD/svg11.dtd">
<!-- Generated by graphviz version 2.38.0 (20140413.2041)
 -->
<!-- Title: Storm/Thermostat/ModelPoints.h Pages: 1 -->
<svg width="560pt" height="95pt"
 viewBox="0.00 0.00 559.50 95.00" xmlns="http://www.w3.org/2000/svg" xmlns:xlink="http://www.w3.org/1999/xlink">
<g id="graph0" class="graph" transform="scale(1 1) rotate(0) translate(4 91)">
<title>Storm/Thermostat/ModelPoints.h</title>
<polygon fill="white" stroke="none" points="-4,4 -4,-91 555.5,-91 555.5,4 -4,4"/>
<!-- Node1 -->
<g id="node1" class="node"><title>Node1</title>
<g id="a_node1"><a xlink:title="This file defines all of the Model Points for the Thermostat Application.">
<polygon fill="#bfbfbf" stroke="black" points="184,-67.5 184,-86.5 345,-86.5 345,-67.5 184,-67.5"/>
<text text-anchor="middle" x="264.5" y="-74.5" font-family="Helvetica,sans-Serif" font-size="10.00">Storm/Thermostat/ModelPoints.h</text>
</a>
</g>
</g>
<!-- Node2 -->
<g id="node2" class="node"><title>Node2</title>
<g id="a_node2"><a xlink:href="_installer_record_8h_source.html" target="_top" xlink:title=" ">
<polygon fill="white" stroke="black" points="0,-0.5 0,-30.5 119,-30.5 119,-0.5 0,-0.5"/>
<text text-anchor="start" x="8" y="-18.5" font-family="Helvetica,sans-Serif" font-size="10.00">Storm/Thermostat/Main</text>
<text text-anchor="middle" x="59.5" y="-7.5" font-family="Helvetica,sans-Serif" font-size="10.00">/InstallerRecord.h</text>
</a>
</g>
</g>
<!-- Node1&#45;&gt;Node2 -->
<g id="edge1" class="edge"><title>Node1&#45;&gt;Node2</title>
<path fill="none" stroke="midnightblue" d="M225.254,-64.609C191.812,-54.9028 143.622,-40.9159 107.814,-30.523"/>
<polygon fill="midnightblue" stroke="midnightblue" points="224.549,-68.0489 235.128,-67.4751 226.5,-61.3263 224.549,-68.0489"/>
</g>
<!-- Node3 -->
<g id="node3" class="node"><title>Node3</title>
<g id="a_node3"><a xlink:href="_run_time_record_8h_source.html" target="_top" xlink:title=" ">
<polygon fill="white" stroke="black" points="137,-0.5 137,-30.5 256,-30.5 256,-0.5 137,-0.5"/>
<text text-anchor="start" x="145" y="-18.5" font-family="Helvetica,sans-Serif" font-size="10.00">Storm/Thermostat/Main</text>
<text text-anchor="middle" x="196.5" y="-7.5" font-family="Helvetica,sans-Serif" font-size="10.00">/RunTimeRecord.h</text>
</a>
</g>
</g>
<!-- Node1&#45;&gt;Node3 -->
<g id="edge2" class="edge"><title>Node1&#45;&gt;Node3</title>
<path fill="none" stroke="midnightblue" d="M246.953,-60.6459C236.324,-51.3456 222.868,-39.572 212.526,-30.523"/>
<polygon fill="midnightblue" stroke="midnightblue" points="244.927,-63.524 254.757,-67.4751 249.536,-58.256 244.927,-63.524"/>
</g>
<!-- Node4 -->
<g id="node4" class="node"><title>Node4</title>
<g id="a_node4"><a xlink:href="_user_record_8h_source.html" target="_top" xlink:title=" ">
<polygon fill="white" stroke="black" points="274,-0.5 274,-30.5 393,-30.5 393,-0.5 274,-0.5"/>
<text text-anchor="start" x="282" y="-18.5" font-family="Helvetica,sans-Serif" font-size="10.00">Storm/Thermostat/Main</text>
<text text-anchor="middle" x="333.5" y="-7.5" font-family="Helvetica,sans-Serif" font-size="10.00">/UserRecord.h</text>
</a>
</g>
</g>
<!-- Node1&#45;&gt;Node4 -->
<g id="edge3" class="edge"><title>Node1&#45;&gt;Node4</title>
<path fill="none" stroke="midnightblue" d="M281.986,-60.9215C292.82,-51.579 306.64,-39.6616 317.238,-30.523"/>
<polygon fill="midnightblue" stroke="midnightblue" points="279.674,-58.294 274.386,-67.4751 284.245,-63.5952 279.674,-58.294"/>
</g>
<!-- Node5 -->
<g id="node5" class="node"><title>Node5</title>
<g id="a_node5"><a xlink:href="_event_monitor_8h_source.html" target="_top" xlink:title=" ">
<polygon fill="white" stroke="black" points="411.5,-0.5 411.5,-30.5 551.5,-30.5 551.5,-0.5 411.5,-0.5"/>
<text text-anchor="start" x="419.5" y="-18.5" font-family="Helvetica,sans-Serif" font-size="10.00">Storm/Thermostat/Ui</text>
<text text-anchor="middle" x="481.5" y="-7.5" font-family="Helvetica,sans-Serif" font-size="10.00">/PicoDisplay/EventMonitor.h</text>
</a>
</g>
</g>
<!-- Node1&#45;&gt;Node5 -->
<g id="edge4" class="edge"><title>Node1&#45;&gt;Node5</title>
<path fill="none" stroke="midnightblue" d="M305.587,-64.7343C341.003,-55.0234 392.29,-40.9607 430.357,-30.523"/>
<polygon fill="midnightblue" stroke="midnightblue" points="304.309,-61.4553 295.591,-67.4751 306.16,-68.2061 304.309,-61.4553"/>
</g>
</g>
</svg>
