<?xml version="1.0" encoding="UTF-8" standalone="no"?>
<!DOCTYPE svg PUBLIC "-//W3C//DTD SVG 1.1//EN"
 "http://www.w3.org/Graphics/SVG/1.1/DTD/svg11.dtd">
<!-- Generated by graphviz version 2.38.0 (20140413.2041)
 -->
<!-- Title: Storm/Dm/MpSetpoints.h Pages: 1 -->
<svg width="1022pt" height="218pt"
 viewBox="0.00 0.00 1022.00 218.00" xmlns="http://www.w3.org/2000/svg" xmlns:xlink="http://www.w3.org/1999/xlink">
<g id="graph0" class="graph" transform="scale(1 1) rotate(0) translate(4 214)">
<title>Storm/Dm/MpSetpoints.h</title>
<polygon fill="white" stroke="none" points="-4,4 -4,-214 1018,-214 1018,4 -4,4"/>
<!-- Node1 -->
<g id="node1" class="node"><title>Node1</title>
<g id="a_node1"><a xlink:title=" ">
<polygon fill="#bfbfbf" stroke="black" points="178.5,-190.5 178.5,-209.5 305.5,-209.5 305.5,-190.5 178.5,-190.5"/>
<text text-anchor="middle" x="242" y="-197.5" font-family="Helvetica,sans-Serif" font-size="10.00">Storm/Dm/MpSetpoints.h</text>
</a>
</g>
</g>
<!-- Node2 -->
<g id="node2" class="node"><title>Node2</title>
<g id="a_node2"><a xlink:href="_component_2_operating_mode_8h.html" target="_top" xlink:title=" ">
<polygon fill="white" stroke="black" points="0,-123.5 0,-153.5 140,-153.5 140,-123.5 0,-123.5"/>
<text text-anchor="start" x="8" y="-141.5" font-family="Helvetica,sans-Serif" font-size="10.00">Storm/Component/Operating</text>
<text text-anchor="middle" x="70" y="-130.5" font-family="Helvetica,sans-Serif" font-size="10.00">Mode.h</text>
</a>
</g>
</g>
<!-- Node1&#45;&gt;Node2 -->
<g id="edge1" class="edge"><title>Node1&#45;&gt;Node2</title>
<path fill="none" stroke="midnightblue" d="M207.609,-187.103C179.622,-177.422 140.062,-163.737 110.537,-153.523"/>
<polygon fill="midnightblue" stroke="midnightblue" points="206.762,-190.513 217.357,-190.475 209.05,-183.898 206.762,-190.513"/>
</g>
<!-- Node4 -->
<g id="node4" class="node"><title>Node4</title>
<g id="a_node4"><a xlink:href="_pi_pre_process_8h.html" target="_top" xlink:title=" ">
<polygon fill="white" stroke="black" points="158.5,-129 158.5,-148 325.5,-148 325.5,-129 158.5,-129"/>
<text text-anchor="middle" x="242" y="-136" font-family="Helvetica,sans-Serif" font-size="10.00">Storm/Component/PiPreProcess.h</text>
</a>
</g>
</g>
<!-- Node1&#45;&gt;Node4 -->
<g id="edge3" class="edge"><title>Node1&#45;&gt;Node4</title>
<path fill="none" stroke="midnightblue" d="M242,-180.317C242,-169.496 242,-156.398 242,-148.009"/>
<polygon fill="midnightblue" stroke="midnightblue" points="238.5,-180.475 242,-190.475 245.5,-180.475 238.5,-180.475"/>
</g>
<!-- Node7 -->
<g id="node7" class="node"><title>Node7</title>
<g id="a_node7"><a xlink:href="_model_points_8h.html" target="_top" xlink:title="This file defines all of the Model Points for the Thermostat Application.">
<polygon fill="white" stroke="black" points="578.5,-129 578.5,-148 739.5,-148 739.5,-129 578.5,-129"/>
<text text-anchor="middle" x="659" y="-136" font-family="Helvetica,sans-Serif" font-size="10.00">Storm/Thermostat/ModelPoints.h</text>
</a>
</g>
</g>
<!-- Node1&#45;&gt;Node7 -->
<g id="edge9" class="edge"><title>Node1&#45;&gt;Node7</title>
<path fill="none" stroke="midnightblue" d="M311.794,-189.041C392.33,-177.55 523.398,-158.848 599.365,-148.009"/>
<polygon fill="midnightblue" stroke="midnightblue" points="311.151,-185.598 301.746,-190.475 312.14,-192.527 311.151,-185.598"/>
</g>
<!-- Node3 -->
<g id="node3" class="node"><title>Node3</title>
<g id="a_node3"><a xlink:href="_algorithm_8h.html" target="_top" xlink:title=" ">
<polygon fill="white" stroke="black" points="84,-0.5 84,-19.5 232,-19.5 232,-0.5 84,-0.5"/>
<text text-anchor="middle" x="158" y="-7.5" font-family="Helvetica,sans-Serif" font-size="10.00">Storm/Thermostat/Algorithm.h</text>
</a>
</g>
</g>
<!-- Node2&#45;&gt;Node3 -->
<g id="edge2" class="edge"><title>Node2&#45;&gt;Node3</title>
<path fill="none" stroke="midnightblue" d="M82.4495,-114.44C91.8002,-97.74 105.302,-74.8778 119,-56 128.714,-42.6119 141.52,-28.3808 149.758,-19.5902"/>
<polygon fill="midnightblue" stroke="midnightblue" points="79.2254,-113.038 77.4536,-123.484 85.3526,-116.423 79.2254,-113.038"/>
</g>
<!-- Node4&#45;&gt;Node3 -->
<g id="edge8" class="edge"><title>Node4&#45;&gt;Node3</title>
<path fill="none" stroke="midnightblue" d="M183.239,-125.876C161.801,-118.487 139.717,-106.474 127,-87 112.508,-64.8081 135.439,-34.744 149.063,-19.9618"/>
<polygon fill="midnightblue" stroke="midnightblue" points="182.418,-129.286 193.007,-128.955 184.522,-122.61 182.418,-129.286"/>
</g>
<!-- Node5 -->
<g id="node5" class="node"><title>Node5</title>
<g id="a_node5"><a xlink:href="_basic_cooling_8h.html" target="_top" xlink:title=" ">
<polygon fill="white" stroke="black" points="136.5,-56.5 136.5,-86.5 281.5,-86.5 281.5,-56.5 136.5,-56.5"/>
<text text-anchor="start" x="144.5" y="-74.5" font-family="Helvetica,sans-Serif" font-size="10.00">Storm/Component/Equipment</text>
<text text-anchor="middle" x="209" y="-63.5" font-family="Helvetica,sans-Serif" font-size="10.00">/Stage/BasicCooling.h</text>
</a>
</g>
</g>
<!-- Node4&#45;&gt;Node5 -->
<g id="edge4" class="edge"><title>Node4&#45;&gt;Node5</title>
<path fill="none" stroke="midnightblue" d="M232.97,-119.713C227.677,-109.287 221.084,-96.3015 216.153,-86.589"/>
<polygon fill="midnightblue" stroke="midnightblue" points="229.902,-121.402 237.549,-128.734 236.143,-118.233 229.902,-121.402"/>
</g>
<!-- Node6 -->
<g id="node6" class="node"><title>Node6</title>
<g id="a_node6"><a xlink:href="_basic_indoor_heat_8h.html" target="_top" xlink:title=" ">
<polygon fill="white" stroke="black" points="299.5,-56.5 299.5,-86.5 444.5,-86.5 444.5,-56.5 299.5,-56.5"/>
<text text-anchor="start" x="307.5" y="-74.5" font-family="Helvetica,sans-Serif" font-size="10.00">Storm/Component/Equipment</text>
<text text-anchor="middle" x="372" y="-63.5" font-family="Helvetica,sans-Serif" font-size="10.00">/Stage/BasicIndoorHeat.h</text>
</a>
</g>
</g>
<!-- Node4&#45;&gt;Node6 -->
<g id="edge6" class="edge"><title>Node4&#45;&gt;Node6</title>
<path fill="none" stroke="midnightblue" d="M268.316,-124.342C290.2,-113.4 321.279,-97.8604 343.697,-86.6516"/>
<polygon fill="midnightblue" stroke="midnightblue" points="266.642,-121.266 259.263,-128.869 269.773,-127.527 266.642,-121.266"/>
</g>
<!-- Node5&#45;&gt;Node3 -->
<g id="edge5" class="edge"><title>Node5&#45;&gt;Node3</title>
<path fill="none" stroke="midnightblue" d="M190.317,-48.7037C181.688,-38.636 171.934,-27.2567 165.421,-19.6578"/>
<polygon fill="midnightblue" stroke="midnightblue" points="187.748,-51.0845 196.914,-56.3993 193.063,-46.529 187.748,-51.0845"/>
</g>
<!-- Node6&#45;&gt;Node3 -->
<g id="edge7" class="edge"><title>Node6&#45;&gt;Node3</title>
<path fill="none" stroke="midnightblue" d="M311.867,-53.7808C271.726,-42.62 220.617,-28.4098 188.594,-19.5064"/>
<polygon fill="midnightblue" stroke="midnightblue" points="310.984,-57.1679 321.556,-56.4747 312.859,-50.4238 310.984,-57.1679"/>
</g>
<!-- Node8 -->
<g id="node8" class="node"><title>Node8</title>
<g id="a_node8"><a xlink:href="_installer_record_8h_source.html" target="_top" xlink:title=" ">
<polygon fill="white" stroke="black" points="462.5,-56.5 462.5,-86.5 581.5,-86.5 581.5,-56.5 462.5,-56.5"/>
<text text-anchor="start" x="470.5" y="-74.5" font-family="Helvetica,sans-Serif" font-size="10.00">Storm/Thermostat/Main</text>
<text text-anchor="middle" x="522" y="-63.5" font-family="Helvetica,sans-Serif" font-size="10.00">/InstallerRecord.h</text>
</a>
</g>
</g>
<!-- Node7&#45;&gt;Node8 -->
<g id="edge10" class="edge"><title>Node7&#45;&gt;Node8</title>
<path fill="none" stroke="midnightblue" d="M631.545,-124.474C608.384,-113.485 575.306,-97.791 551.567,-86.5281"/>
<polygon fill="midnightblue" stroke="midnightblue" points="630.272,-127.744 640.807,-128.869 633.273,-121.42 630.272,-127.744"/>
</g>
<!-- Node9 -->
<g id="node9" class="node"><title>Node9</title>
<g id="a_node9"><a xlink:href="_run_time_record_8h_source.html" target="_top" xlink:title=" ">
<polygon fill="white" stroke="black" points="599.5,-56.5 599.5,-86.5 718.5,-86.5 718.5,-56.5 599.5,-56.5"/>
<text text-anchor="start" x="607.5" y="-74.5" font-family="Helvetica,sans-Serif" font-size="10.00">Storm/Thermostat/Main</text>
<text text-anchor="middle" x="659" y="-63.5" font-family="Helvetica,sans-Serif" font-size="10.00">/RunTimeRecord.h</text>
</a>
</g>
</g>
<!-- Node7&#45;&gt;Node9 -->
<g id="edge11" class="edge"><title>Node7&#45;&gt;Node9</title>
<path fill="none" stroke="midnightblue" d="M659,-118.411C659,-108.222 659,-95.901 659,-86.589"/>
<polygon fill="midnightblue" stroke="midnightblue" points="655.5,-118.734 659,-128.734 662.5,-118.734 655.5,-118.734"/>
</g>
<!-- Node10 -->
<g id="node10" class="node"><title>Node10</title>
<g id="a_node10"><a xlink:href="_user_record_8h_source.html" target="_top" xlink:title=" ">
<polygon fill="white" stroke="black" points="736.5,-56.5 736.5,-86.5 855.5,-86.5 855.5,-56.5 736.5,-56.5"/>
<text text-anchor="start" x="744.5" y="-74.5" font-family="Helvetica,sans-Serif" font-size="10.00">Storm/Thermostat/Main</text>
<text text-anchor="middle" x="796" y="-63.5" font-family="Helvetica,sans-Serif" font-size="10.00">/UserRecord.h</text>
</a>
</g>
</g>
<!-- Node7&#45;&gt;Node10 -->
<g id="edge12" class="edge"><title>Node7&#45;&gt;Node10</title>
<path fill="none" stroke="midnightblue" d="M686.455,-124.474C709.616,-113.485 742.694,-97.791 766.433,-86.5281"/>
<polygon fill="midnightblue" stroke="midnightblue" points="684.727,-121.42 677.193,-128.869 687.728,-127.744 684.727,-121.42"/>
</g>
<!-- Node11 -->
<g id="node11" class="node"><title>Node11</title>
<g id="a_node11"><a xlink:href="_event_monitor_8h_source.html" target="_top" xlink:title=" ">
<polygon fill="white" stroke="black" points="874,-56.5 874,-86.5 1014,-86.5 1014,-56.5 874,-56.5"/>
<text text-anchor="start" x="882" y="-74.5" font-family="Helvetica,sans-Serif" font-size="10.00">Storm/Thermostat/Ui</text>
<text text-anchor="middle" x="944" y="-63.5" font-family="Helvetica,sans-Serif" font-size="10.00">/PicoDisplay/EventMonitor.h</text>
</a>
</g>
</g>
<!-- Node7&#45;&gt;Node11 -->
<g id="edge13" class="edge"><title>Node7&#45;&gt;Node11</title>
<path fill="none" stroke="midnightblue" d="M706.418,-126.685C754.633,-115.689 829.561,-98.6002 882.356,-86.5592"/>
<polygon fill="midnightblue" stroke="midnightblue" points="705.523,-123.299 696.552,-128.936 707.08,-130.124 705.523,-123.299"/>
</g>
</g>
</svg>
