<?xml version="1.0" encoding="UTF-8" standalone="no"?>
<!DOCTYPE svg PUBLIC "-//W3C//DTD SVG 1.1//EN"
 "http://www.w3.org/Graphics/SVG/1.1/DTD/svg11.dtd">
<!-- Generated by graphviz version 2.38.0 (20140413.2041)
 -->
<!-- Title: Storm/Dm/MpCycleInfo.h Pages: 1 -->
<svg width="1065pt" height="341pt"
 viewBox="0.00 0.00 1065.00 341.00" xmlns="http://www.w3.org/2000/svg" xmlns:xlink="http://www.w3.org/1999/xlink">
<g id="graph0" class="graph" transform="scale(1 1) rotate(0) translate(4 337)">
<title>Storm/Dm/MpCycleInfo.h</title>
<polygon fill="white" stroke="none" points="-4,4 -4,-337 1061,-337 1061,4 -4,4"/>
<!-- Node1 -->
<g id="node1" class="node"><title>Node1</title>
<g id="a_node1"><a xlink:title=" ">
<polygon fill="#bfbfbf" stroke="black" points="474,-313.5 474,-332.5 601,-332.5 601,-313.5 474,-313.5"/>
<text text-anchor="middle" x="537.5" y="-320.5" font-family="Helvetica,sans-Serif" font-size="10.00">Storm/Dm/MpCycleInfo.h</text>
</a>
</g>
</g>
<!-- Node2 -->
<g id="node2" class="node"><title>Node2</title>
<g id="a_node2"><a xlink:href="_control_8h.html" target="_top" xlink:title=" ">
<polygon fill="white" stroke="black" points="256,-257.5 256,-276.5 393,-276.5 393,-257.5 256,-257.5"/>
<text text-anchor="middle" x="324.5" y="-264.5" font-family="Helvetica,sans-Serif" font-size="10.00">Storm/Component/Control.h</text>
</a>
</g>
</g>
<!-- Node1&#45;&gt;Node2 -->
<g id="edge1" class="edge"><title>Node1&#45;&gt;Node2</title>
<path fill="none" stroke="midnightblue" d="M493.949,-310.959C453.719,-300.76 394.797,-285.822 358.093,-276.516"/>
<polygon fill="midnightblue" stroke="midnightblue" points="493.196,-314.379 503.75,-313.444 494.916,-307.593 493.196,-314.379"/>
</g>
<!-- Node11 -->
<g id="node11" class="node"><title>Node11</title>
<g id="a_node11"><a xlink:href="_model_points_8h.html" target="_top" xlink:title="This file defines all of the Model Points for the Thermostat Application.">
<polygon fill="white" stroke="black" points="621,-257.5 621,-276.5 782,-276.5 782,-257.5 621,-257.5"/>
<text text-anchor="middle" x="701.5" y="-264.5" font-family="Helvetica,sans-Serif" font-size="10.00">Storm/Thermostat/ModelPoints.h</text>
</a>
</g>
</g>
<!-- Node1&#45;&gt;Node11 -->
<g id="edge17" class="edge"><title>Node1&#45;&gt;Node11</title>
<path fill="none" stroke="midnightblue" d="M573.02,-310.304C603.922,-300.129 647.973,-285.625 675.635,-276.516"/>
<polygon fill="midnightblue" stroke="midnightblue" points="571.89,-306.992 563.486,-313.444 574.079,-313.64 571.89,-306.992"/>
</g>
<!-- Node3 -->
<g id="node3" class="node"><title>Node3</title>
<g id="a_node3"><a xlink:href="_cooling_8h.html" target="_top" xlink:title=" ">
<polygon fill="white" stroke="black" points="202,-123.5 202,-153.5 347,-153.5 347,-123.5 202,-123.5"/>
<text text-anchor="start" x="210" y="-141.5" font-family="Helvetica,sans-Serif" font-size="10.00">Storm/Component/Equipment</text>
<text text-anchor="middle" x="274.5" y="-130.5" font-family="Helvetica,sans-Serif" font-size="10.00">/Cooling.h</text>
</a>
</g>
</g>
<!-- Node2&#45;&gt;Node3 -->
<g id="edge2" class="edge"><title>Node2&#45;&gt;Node3</title>
<path fill="none" stroke="midnightblue" d="M310.823,-249.383C304.734,-241.254 297.95,-231.068 293.5,-221 283.575,-198.542 278.474,-170.217 276.153,-153.559"/>
<polygon fill="midnightblue" stroke="midnightblue" points="308.094,-251.575 317.013,-257.293 313.606,-247.261 308.094,-251.575"/>
</g>
<!-- Node4 -->
<g id="node4" class="node"><title>Node4</title>
<g id="a_node4"><a xlink:href="_algorithm_8h.html" target="_top" xlink:title=" ">
<polygon fill="white" stroke="black" points="193.5,-0.5 193.5,-19.5 341.5,-19.5 341.5,-0.5 193.5,-0.5"/>
<text text-anchor="middle" x="267.5" y="-7.5" font-family="Helvetica,sans-Serif" font-size="10.00">Storm/Thermostat/Algorithm.h</text>
</a>
</g>
</g>
<!-- Node2&#45;&gt;Node4 -->
<g id="edge16" class="edge"><title>Node2&#45;&gt;Node4</title>
<path fill="none" stroke="midnightblue" d="M297.709,-252.616C265.8,-234.986 214.106,-200.667 192.5,-154 168.355,-101.849 230.974,-41.5222 256.881,-19.5556"/>
<polygon fill="midnightblue" stroke="midnightblue" points="296.065,-255.705 306.532,-257.344 299.371,-249.535 296.065,-255.705"/>
</g>
<!-- Node5 -->
<g id="node5" class="node"><title>Node5</title>
<g id="a_node5"><a xlink:href="_indoor_heating_8h.html" target="_top" xlink:title=" ">
<polygon fill="white" stroke="black" points="528,-123.5 528,-153.5 673,-153.5 673,-123.5 528,-123.5"/>
<text text-anchor="start" x="536" y="-141.5" font-family="Helvetica,sans-Serif" font-size="10.00">Storm/Component/Equipment</text>
<text text-anchor="middle" x="600.5" y="-130.5" font-family="Helvetica,sans-Serif" font-size="10.00">/IndoorHeating.h</text>
</a>
</g>
</g>
<!-- Node2&#45;&gt;Node5 -->
<g id="edge4" class="edge"><title>Node2&#45;&gt;Node5</title>
<path fill="none" stroke="midnightblue" d="M369.751,-254.746C396.008,-247.211 429.182,-235.927 456.5,-221 475.931,-210.383 476.739,-201.761 495.5,-190 518.123,-175.818 545.332,-162.835 566.384,-153.585"/>
<polygon fill="midnightblue" stroke="midnightblue" points="368.745,-251.393 360.053,-257.45 370.625,-258.136 368.745,-251.393"/>
</g>
<!-- Node6 -->
<g id="node6" class="node"><title>Node6</title>
<g id="a_node6"><a xlink:href="_off_8h.html" target="_top" xlink:title=" ">
<polygon fill="white" stroke="black" points="0,-56.5 0,-86.5 145,-86.5 145,-56.5 0,-56.5"/>
<text text-anchor="start" x="8" y="-74.5" font-family="Helvetica,sans-Serif" font-size="10.00">Storm/Component/Equipment</text>
<text text-anchor="middle" x="72.5" y="-63.5" font-family="Helvetica,sans-Serif" font-size="10.00">/Off.h</text>
</a>
</g>
</g>
<!-- Node2&#45;&gt;Node6 -->
<g id="edge6" class="edge"><title>Node2&#45;&gt;Node6</title>
<path fill="none" stroke="midnightblue" d="M245.936,-257.307C216.529,-250.956 184.28,-239.977 159.5,-221 112.766,-185.211 86.4392,-116.565 76.7863,-86.8244"/>
<polygon fill="midnightblue" stroke="midnightblue" points="245.291,-260.747 255.785,-259.288 246.672,-253.885 245.291,-260.747"/>
</g>
<!-- Node7 -->
<g id="node7" class="node"><title>Node7</title>
<g id="a_node7"><a xlink:href="_stage_api_8h.html" target="_top" xlink:title=" ">
<polygon fill="white" stroke="black" points="303,-190.5 303,-220.5 448,-220.5 448,-190.5 303,-190.5"/>
<text text-anchor="start" x="311" y="-208.5" font-family="Helvetica,sans-Serif" font-size="10.00">Storm/Component/Equipment</text>
<text text-anchor="middle" x="375.5" y="-197.5" font-family="Helvetica,sans-Serif" font-size="10.00">/StageApi.h</text>
</a>
</g>
</g>
<!-- Node2&#45;&gt;Node7 -->
<g id="edge8" class="edge"><title>Node2&#45;&gt;Node7</title>
<path fill="none" stroke="midnightblue" d="M338.376,-249.811C346.23,-240.649 355.954,-229.303 363.48,-220.523"/>
<polygon fill="midnightblue" stroke="midnightblue" points="335.658,-247.605 331.807,-257.475 340.972,-252.16 335.658,-247.605"/>
</g>
<!-- Node3&#45;&gt;Node4 -->
<g id="edge3" class="edge"><title>Node3&#45;&gt;Node4</title>
<path fill="none" stroke="midnightblue" d="M253.039,-115.44C246.406,-107.189 239.943,-97.3024 236.5,-87 232.133,-73.9327 232.407,-69.1558 236.5,-56 240.896,-41.8686 251.446,-28.2496 259.017,-19.7661"/>
<polygon fill="midnightblue" stroke="midnightblue" points="250.45,-117.798 259.622,-123.102 255.759,-113.236 250.45,-117.798"/>
</g>
<!-- Node5&#45;&gt;Node4 -->
<g id="edge5" class="edge"><title>Node5&#45;&gt;Node4</title>
<path fill="none" stroke="midnightblue" d="M595.771,-113.549C590.778,-94.8644 580.969,-69.8353 562.5,-56 528.552,-30.5685 417.334,-19.2597 341.587,-14.4117"/>
<polygon fill="midnightblue" stroke="midnightblue" points="592.403,-114.51 598.129,-123.424 599.211,-112.884 592.403,-114.51"/>
</g>
<!-- Node6&#45;&gt;Node4 -->
<g id="edge7" class="edge"><title>Node6&#45;&gt;Node4</title>
<path fill="none" stroke="midnightblue" d="M128.673,-53.36C164.947,-42.2919 210.584,-28.3665 239.41,-19.5709"/>
<polygon fill="midnightblue" stroke="midnightblue" points="127.255,-50.1332 118.712,-56.3993 129.298,-56.8284 127.255,-50.1332"/>
</g>
<!-- Node7&#45;&gt;Node3 -->
<g id="edge9" class="edge"><title>Node7&#45;&gt;Node3</title>
<path fill="none" stroke="midnightblue" d="M344.786,-184.734C329.157,-174.676 310.525,-162.685 296.373,-153.577"/>
<polygon fill="midnightblue" stroke="midnightblue" points="343.281,-187.927 353.585,-190.396 347.07,-182.041 343.281,-187.927"/>
</g>
<!-- Node7&#45;&gt;Node5 -->
<g id="edge10" class="edge"><title>Node7&#45;&gt;Node5</title>
<path fill="none" stroke="midnightblue" d="M434.07,-187.58C470.614,-177.022 517.104,-163.592 551.655,-153.611"/>
<polygon fill="midnightblue" stroke="midnightblue" points="432.68,-184.338 424.045,-190.476 434.623,-191.063 432.68,-184.338"/>
</g>
<!-- Node8 -->
<g id="node8" class="node"><title>Node8</title>
<g id="a_node8"><a xlink:href="_storm_2_component_2_equipment_2_stage_2_basic_8h.html" target="_top" xlink:title=" ">
<polygon fill="white" stroke="black" points="365,-123.5 365,-153.5 510,-153.5 510,-123.5 365,-123.5"/>
<text text-anchor="start" x="373" y="-141.5" font-family="Helvetica,sans-Serif" font-size="10.00">Storm/Component/Equipment</text>
<text text-anchor="middle" x="437.5" y="-130.5" font-family="Helvetica,sans-Serif" font-size="10.00">/Stage/Basic.h</text>
</a>
</g>
</g>
<!-- Node7&#45;&gt;Node8 -->
<g id="edge11" class="edge"><title>Node7&#45;&gt;Node8</title>
<path fill="none" stroke="midnightblue" d="M395.985,-183.024C405.222,-173.34 415.873,-162.174 424.073,-153.577"/>
<polygon fill="midnightblue" stroke="midnightblue" points="393.323,-180.744 388.953,-190.396 398.388,-185.576 393.323,-180.744"/>
</g>
<!-- Node9 -->
<g id="node9" class="node"><title>Node9</title>
<g id="a_node9"><a xlink:href="_basic_cooling_8h.html" target="_top" xlink:title=" ">
<polygon fill="white" stroke="black" points="246,-56.5 246,-86.5 391,-86.5 391,-56.5 246,-56.5"/>
<text text-anchor="start" x="254" y="-74.5" font-family="Helvetica,sans-Serif" font-size="10.00">Storm/Component/Equipment</text>
<text text-anchor="middle" x="318.5" y="-63.5" font-family="Helvetica,sans-Serif" font-size="10.00">/Stage/BasicCooling.h</text>
</a>
</g>
</g>
<!-- Node8&#45;&gt;Node9 -->
<g id="edge12" class="edge"><title>Node8&#45;&gt;Node9</title>
<path fill="none" stroke="midnightblue" d="M402.853,-118.575C384.133,-108.35 361.413,-95.94 344.271,-86.5765"/>
<polygon fill="midnightblue" stroke="midnightblue" points="401.225,-121.674 411.679,-123.396 404.58,-115.531 401.225,-121.674"/>
</g>
<!-- Node10 -->
<g id="node10" class="node"><title>Node10</title>
<g id="a_node10"><a xlink:href="_basic_indoor_heat_8h.html" target="_top" xlink:title=" ">
<polygon fill="white" stroke="black" points="409,-56.5 409,-86.5 554,-86.5 554,-56.5 409,-56.5"/>
<text text-anchor="start" x="417" y="-74.5" font-family="Helvetica,sans-Serif" font-size="10.00">Storm/Component/Equipment</text>
<text text-anchor="middle" x="481.5" y="-63.5" font-family="Helvetica,sans-Serif" font-size="10.00">/Stage/BasicIndoorHeat.h</text>
</a>
</g>
</g>
<!-- Node8&#45;&gt;Node10 -->
<g id="edge14" class="edge"><title>Node8&#45;&gt;Node10</title>
<path fill="none" stroke="midnightblue" d="M452.821,-114.867C459.189,-105.459 466.382,-94.8334 471.971,-86.5765"/>
<polygon fill="midnightblue" stroke="midnightblue" points="449.755,-113.153 447.047,-123.396 455.551,-117.077 449.755,-113.153"/>
</g>
<!-- Node9&#45;&gt;Node4 -->
<g id="edge13" class="edge"><title>Node9&#45;&gt;Node4</title>
<path fill="none" stroke="midnightblue" d="M299.817,-48.7037C291.188,-38.636 281.434,-27.2567 274.921,-19.6578"/>
<polygon fill="midnightblue" stroke="midnightblue" points="297.248,-51.0845 306.414,-56.3993 302.563,-46.529 297.248,-51.0845"/>
</g>
<!-- Node10&#45;&gt;Node4 -->
<g id="edge15" class="edge"><title>Node10&#45;&gt;Node4</title>
<path fill="none" stroke="midnightblue" d="M421.367,-53.7808C381.226,-42.62 330.117,-28.4098 298.094,-19.5064"/>
<polygon fill="midnightblue" stroke="midnightblue" points="420.484,-57.1679 431.056,-56.4747 422.359,-50.4238 420.484,-57.1679"/>
</g>
<!-- Node12 -->
<g id="node12" class="node"><title>Node12</title>
<g id="a_node12"><a xlink:href="_installer_record_8h_source.html" target="_top" xlink:title=" ">
<polygon fill="white" stroke="black" points="938,-190.5 938,-220.5 1057,-220.5 1057,-190.5 938,-190.5"/>
<text text-anchor="start" x="946" y="-208.5" font-family="Helvetica,sans-Serif" font-size="10.00">Storm/Thermostat/Main</text>
<text text-anchor="middle" x="997.5" y="-197.5" font-family="Helvetica,sans-Serif" font-size="10.00">/InstallerRecord.h</text>
</a>
</g>
</g>
<!-- Node11&#45;&gt;Node12 -->
<g id="edge18" class="edge"><title>Node11&#45;&gt;Node12</title>
<path fill="none" stroke="midnightblue" d="M755.523,-255.471C801.537,-246.46 869.396,-233.068 928.5,-221 931.498,-220.388 934.569,-219.757 937.67,-219.117"/>
<polygon fill="midnightblue" stroke="midnightblue" points="754.613,-252.082 745.471,-257.438 755.957,-258.952 754.613,-252.082"/>
</g>
<!-- Node13 -->
<g id="node13" class="node"><title>Node13</title>
<g id="a_node13"><a xlink:href="_run_time_record_8h_source.html" target="_top" xlink:title=" ">
<polygon fill="white" stroke="black" points="505,-190.5 505,-220.5 624,-220.5 624,-190.5 505,-190.5"/>
<text text-anchor="start" x="513" y="-208.5" font-family="Helvetica,sans-Serif" font-size="10.00">Storm/Thermostat/Main</text>
<text text-anchor="middle" x="564.5" y="-197.5" font-family="Helvetica,sans-Serif" font-size="10.00">/RunTimeRecord.h</text>
</a>
</g>
</g>
<!-- Node11&#45;&gt;Node13 -->
<g id="edge19" class="edge"><title>Node11&#45;&gt;Node13</title>
<path fill="none" stroke="midnightblue" d="M672.628,-253.461C650.437,-243.823 619.79,-230.513 596.788,-220.523"/>
<polygon fill="midnightblue" stroke="midnightblue" points="671.305,-256.702 681.871,-257.475 674.093,-250.281 671.305,-256.702"/>
</g>
<!-- Node14 -->
<g id="node14" class="node"><title>Node14</title>
<g id="a_node14"><a xlink:href="_user_record_8h_source.html" target="_top" xlink:title=" ">
<polygon fill="white" stroke="black" points="642,-190.5 642,-220.5 761,-220.5 761,-190.5 642,-190.5"/>
<text text-anchor="start" x="650" y="-208.5" font-family="Helvetica,sans-Serif" font-size="10.00">Storm/Thermostat/Main</text>
<text text-anchor="middle" x="701.5" y="-197.5" font-family="Helvetica,sans-Serif" font-size="10.00">/UserRecord.h</text>
</a>
</g>
</g>
<!-- Node11&#45;&gt;Node14 -->
<g id="edge20" class="edge"><title>Node11&#45;&gt;Node14</title>
<path fill="none" stroke="midnightblue" d="M701.5,-247.235C701.5,-238.586 701.5,-228.497 701.5,-220.523"/>
<polygon fill="midnightblue" stroke="midnightblue" points="698,-247.475 701.5,-257.475 705,-247.475 698,-247.475"/>
</g>
<!-- Node15 -->
<g id="node15" class="node"><title>Node15</title>
<g id="a_node15"><a xlink:href="_event_monitor_8h_source.html" target="_top" xlink:title=" ">
<polygon fill="white" stroke="black" points="779.5,-190.5 779.5,-220.5 919.5,-220.5 919.5,-190.5 779.5,-190.5"/>
<text text-anchor="start" x="787.5" y="-208.5" font-family="Helvetica,sans-Serif" font-size="10.00">Storm/Thermostat/Ui</text>
<text text-anchor="middle" x="849.5" y="-197.5" font-family="Helvetica,sans-Serif" font-size="10.00">/PicoDisplay/EventMonitor.h</text>
</a>
</g>
</g>
<!-- Node11&#45;&gt;Node15 -->
<g id="edge21" class="edge"><title>Node11&#45;&gt;Node15</title>
<path fill="none" stroke="midnightblue" d="M732.048,-253.719C756.068,-244.062 789.548,-230.602 814.619,-220.523"/>
<polygon fill="midnightblue" stroke="midnightblue" points="730.678,-250.498 722.705,-257.475 733.289,-256.992 730.678,-250.498"/>
</g>
</g>
</svg>
