<?xml version="1.0" encoding="UTF-8" standalone="no"?>
<!DOCTYPE svg PUBLIC "-//W3C//DTD SVG 1.1//EN"
 "http://www.w3.org/Graphics/SVG/1.1/DTD/svg11.dtd">
<!-- Generated by graphviz version 2.38.0 (20140413.2041)
 -->
<!-- Title: Storm/Dm/MpHvacRelayOutputs.h Pages: 1 -->
<svg width="726pt" height="162pt"
 viewBox="0.00 0.00 726.00 162.00" xmlns="http://www.w3.org/2000/svg" xmlns:xlink="http://www.w3.org/1999/xlink">
<g id="graph0" class="graph" transform="scale(1 1) rotate(0) translate(4 158)">
<title>Storm/Dm/MpHvacRelayOutputs.h</title>
<polygon fill="white" stroke="none" points="-4,4 -4,-158 722,-158 722,4 -4,4"/>
<!-- Node1 -->
<g id="node1" class="node"><title>Node1</title>
<g id="a_node1"><a xlink:title=" ">
<polygon fill="#bfbfbf" stroke="black" points="192.5,-134.5 192.5,-153.5 359.5,-153.5 359.5,-134.5 192.5,-134.5"/>
<text text-anchor="middle" x="276" y="-141.5" font-family="Helvetica,sans-Serif" font-size="10.00">Storm/Dm/MpHvacRelayOutputs.h</text>
</a>
</g>
</g>
<!-- Node2 -->
<g id="node2" class="node"><title>Node2</title>
<g id="a_node2"><a xlink:href="_component_2_hvac_relay_outputs_8h.html" target="_top" xlink:title=" ">
<polygon fill="white" stroke="black" points="59,-67.5 59,-97.5 205,-97.5 205,-67.5 59,-67.5"/>
<text text-anchor="start" x="67" y="-85.5" font-family="Helvetica,sans-Serif" font-size="10.00">Storm/Component/HvacRelay</text>
<text text-anchor="middle" x="132" y="-74.5" font-family="Helvetica,sans-Serif" font-size="10.00">Outputs.h</text>
</a>
</g>
</g>
<!-- Node1&#45;&gt;Node2 -->
<g id="edge1" class="edge"><title>Node1&#45;&gt;Node2</title>
<path fill="none" stroke="midnightblue" d="M245.966,-130.59C222.617,-120.942 190.223,-107.558 165.938,-97.523"/>
<polygon fill="midnightblue" stroke="midnightblue" points="244.79,-133.891 255.368,-134.475 247.463,-127.422 244.79,-133.891"/>
</g>
<!-- Node4 -->
<g id="node4" class="node"><title>Node4</title>
<g id="a_node4"><a xlink:href="_model_points_8h.html" target="_top" xlink:title="This file defines all of the Model Points for the Thermostat Application.">
<polygon fill="white" stroke="black" points="282.5,-73 282.5,-92 443.5,-92 443.5,-73 282.5,-73"/>
<text text-anchor="middle" x="363" y="-80" font-family="Helvetica,sans-Serif" font-size="10.00">Storm/Thermostat/ModelPoints.h</text>
</a>
</g>
</g>
<!-- Node1&#45;&gt;Node4 -->
<g id="edge3" class="edge"><title>Node1&#45;&gt;Node4</title>
<path fill="none" stroke="midnightblue" d="M297.037,-128.613C313.77,-117.169 336.613,-101.546 350.558,-92.0091"/>
<polygon fill="midnightblue" stroke="midnightblue" points="294.743,-125.941 288.465,-134.475 298.695,-131.719 294.743,-125.941"/>
</g>
<!-- Node3 -->
<g id="node3" class="node"><title>Node3</title>
<g id="a_node3"><a xlink:href="_algorithm_8h.html" target="_top" xlink:title=" ">
<polygon fill="white" stroke="black" points="0,-6 0,-25 148,-25 148,-6 0,-6"/>
<text text-anchor="middle" x="74" y="-13" font-family="Helvetica,sans-Serif" font-size="10.00">Storm/Thermostat/Algorithm.h</text>
</a>
</g>
</g>
<!-- Node2&#45;&gt;Node3 -->
<g id="edge2" class="edge"><title>Node2&#45;&gt;Node3</title>
<path fill="none" stroke="midnightblue" d="M112.509,-59.6571C101.987,-47.8646 89.5861,-33.9672 81.7582,-25.1945"/>
<polygon fill="midnightblue" stroke="midnightblue" points="110.145,-62.2648 119.415,-67.396 115.368,-57.6043 110.145,-62.2648"/>
</g>
<!-- Node5 -->
<g id="node5" class="node"><title>Node5</title>
<g id="a_node5"><a xlink:href="_installer_record_8h_source.html" target="_top" xlink:title=" ">
<polygon fill="white" stroke="black" points="166.5,-0.5 166.5,-30.5 285.5,-30.5 285.5,-0.5 166.5,-0.5"/>
<text text-anchor="start" x="174.5" y="-18.5" font-family="Helvetica,sans-Serif" font-size="10.00">Storm/Thermostat/Main</text>
<text text-anchor="middle" x="226" y="-7.5" font-family="Helvetica,sans-Serif" font-size="10.00">/InstallerRecord.h</text>
</a>
</g>
</g>
<!-- Node4&#45;&gt;Node5 -->
<g id="edge4" class="edge"><title>Node4&#45;&gt;Node5</title>
<path fill="none" stroke="midnightblue" d="M335.545,-68.4738C312.384,-57.485 279.306,-41.791 255.567,-30.5281"/>
<polygon fill="midnightblue" stroke="midnightblue" points="334.272,-71.7441 344.807,-72.8685 337.273,-65.4198 334.272,-71.7441"/>
</g>
<!-- Node6 -->
<g id="node6" class="node"><title>Node6</title>
<g id="a_node6"><a xlink:href="_run_time_record_8h_source.html" target="_top" xlink:title=" ">
<polygon fill="white" stroke="black" points="303.5,-0.5 303.5,-30.5 422.5,-30.5 422.5,-0.5 303.5,-0.5"/>
<text text-anchor="start" x="311.5" y="-18.5" font-family="Helvetica,sans-Serif" font-size="10.00">Storm/Thermostat/Main</text>
<text text-anchor="middle" x="363" y="-7.5" font-family="Helvetica,sans-Serif" font-size="10.00">/RunTimeRecord.h</text>
</a>
</g>
</g>
<!-- Node4&#45;&gt;Node6 -->
<g id="edge5" class="edge"><title>Node4&#45;&gt;Node6</title>
<path fill="none" stroke="midnightblue" d="M363,-62.4107C363,-52.222 363,-39.901 363,-30.589"/>
<polygon fill="midnightblue" stroke="midnightblue" points="359.5,-62.7338 363,-72.7338 366.5,-62.7338 359.5,-62.7338"/>
</g>
<!-- Node7 -->
<g id="node7" class="node"><title>Node7</title>
<g id="a_node7"><a xlink:href="_user_record_8h_source.html" target="_top" xlink:title=" ">
<polygon fill="white" stroke="black" points="440.5,-0.5 440.5,-30.5 559.5,-30.5 559.5,-0.5 440.5,-0.5"/>
<text text-anchor="start" x="448.5" y="-18.5" font-family="Helvetica,sans-Serif" font-size="10.00">Storm/Thermostat/Main</text>
<text text-anchor="middle" x="500" y="-7.5" font-family="Helvetica,sans-Serif" font-size="10.00">/UserRecord.h</text>
</a>
</g>
</g>
<!-- Node4&#45;&gt;Node7 -->
<g id="edge6" class="edge"><title>Node4&#45;&gt;Node7</title>
<path fill="none" stroke="midnightblue" d="M390.455,-68.4738C413.616,-57.485 446.694,-41.791 470.433,-30.5281"/>
<polygon fill="midnightblue" stroke="midnightblue" points="388.727,-65.4198 381.193,-72.8685 391.728,-71.7441 388.727,-65.4198"/>
</g>
<!-- Node8 -->
<g id="node8" class="node"><title>Node8</title>
<g id="a_node8"><a xlink:href="_event_monitor_8h_source.html" target="_top" xlink:title=" ">
<polygon fill="white" stroke="black" points="578,-0.5 578,-30.5 718,-30.5 718,-0.5 578,-0.5"/>
<text text-anchor="start" x="586" y="-18.5" font-family="Helvetica,sans-Serif" font-size="10.00">Storm/Thermostat/Ui</text>
<text text-anchor="middle" x="648" y="-7.5" font-family="Helvetica,sans-Serif" font-size="10.00">/PicoDisplay/EventMonitor.h</text>
</a>
</g>
</g>
<!-- Node4&#45;&gt;Node8 -->
<g id="edge7" class="edge"><title>Node4&#45;&gt;Node8</title>
<path fill="none" stroke="midnightblue" d="M410.418,-70.6855C458.633,-59.6889 533.561,-42.6002 586.356,-30.5592"/>
<polygon fill="midnightblue" stroke="midnightblue" points="409.523,-67.2995 400.552,-72.9355 411.08,-74.1242 409.523,-67.2995"/>
</g>
</g>
</svg>
