<?xml version="1.0" encoding="UTF-8" standalone="no"?>
<!DOCTYPE svg PUBLIC "-//W3C//DTD SVG 1.1//EN"
 "http://www.w3.org/Graphics/SVG/1.1/DTD/svg11.dtd">
<!-- Generated by graphviz version 2.38.0 (20140413.2041)
 -->
<!-- Title: Storm/Dm/MpComfortConfig.h Pages: 1 -->
<svg width="1366pt" height="352pt"
 viewBox="0.00 0.00 1366.00 352.00" xmlns="http://www.w3.org/2000/svg" xmlns:xlink="http://www.w3.org/1999/xlink">
<g id="graph0" class="graph" transform="scale(1 1) rotate(0) translate(4 348)">
<title>Storm/Dm/MpComfortConfig.h</title>
<polygon fill="white" stroke="none" points="-4,4 -4,-348 1362,-348 1362,4 -4,4"/>
<!-- Node1 -->
<g id="node1" class="node"><title>Node1</title>
<g id="a_node1"><a xlink:title=" ">
<polygon fill="#bfbfbf" stroke="black" points="651.5,-324.5 651.5,-343.5 799.5,-343.5 799.5,-324.5 651.5,-324.5"/>
<text text-anchor="middle" x="725.5" y="-331.5" font-family="Helvetica,sans-Serif" font-size="10.00">Storm/Dm/MpComfortConfig.h</text>
</a>
</g>
</g>
<!-- Node2 -->
<g id="node2" class="node"><title>Node2</title>
<g id="a_node2"><a xlink:href="_control_8h.html" target="_top" xlink:title=" ">
<polygon fill="white" stroke="black" points="412,-263 412,-282 549,-282 549,-263 412,-263"/>
<text text-anchor="middle" x="480.5" y="-270" font-family="Helvetica,sans-Serif" font-size="10.00">Storm/Component/Control.h</text>
</a>
</g>
</g>
<!-- Node1&#45;&gt;Node2 -->
<g id="edge1" class="edge"><title>Node1&#45;&gt;Node2</title>
<path fill="none" stroke="midnightblue" d="M680.674,-322.114C633.122,-310.565 558.988,-292.561 515.537,-282.009"/>
<polygon fill="midnightblue" stroke="midnightblue" points="679.854,-325.516 690.397,-324.475 681.506,-318.714 679.854,-325.516"/>
</g>
<!-- Node11 -->
<g id="node11" class="node"><title>Node11</title>
<g id="a_node11"><a xlink:href="_fan_control_8h.html" target="_top" xlink:title=" ">
<polygon fill="white" stroke="black" points="596.5,-129 596.5,-148 750.5,-148 750.5,-129 596.5,-129"/>
<text text-anchor="middle" x="673.5" y="-136" font-family="Helvetica,sans-Serif" font-size="10.00">Storm/Component/FanControl.h</text>
</a>
</g>
</g>
<!-- Node1&#45;&gt;Node11 -->
<g id="edge17" class="edge"><title>Node1&#45;&gt;Node11</title>
<path fill="none" stroke="midnightblue" d="M712.723,-316.059C707.218,-307.961 701.205,-297.892 697.5,-288 678.536,-237.376 674.549,-171.528 673.717,-148.175"/>
<polygon fill="midnightblue" stroke="midnightblue" points="709.914,-318.147 718.574,-324.251 715.61,-314.079 709.914,-318.147"/>
</g>
<!-- Node12 -->
<g id="node12" class="node"><title>Node12</title>
<g id="a_node12"><a xlink:href="_component_2_operating_mode_8h.html" target="_top" xlink:title=" ">
<polygon fill="white" stroke="black" points="706.5,-257.5 706.5,-287.5 846.5,-287.5 846.5,-257.5 706.5,-257.5"/>
<text text-anchor="start" x="714.5" y="-275.5" font-family="Helvetica,sans-Serif" font-size="10.00">Storm/Component/Operating</text>
<text text-anchor="middle" x="776.5" y="-264.5" font-family="Helvetica,sans-Serif" font-size="10.00">Mode.h</text>
</a>
</g>
</g>
<!-- Node1&#45;&gt;Node12 -->
<g id="edge19" class="edge"><title>Node1&#45;&gt;Node12</title>
<path fill="none" stroke="midnightblue" d="M739.376,-316.811C747.23,-307.649 756.954,-296.303 764.48,-287.523"/>
<polygon fill="midnightblue" stroke="midnightblue" points="736.658,-314.605 732.807,-324.475 741.972,-319.16 736.658,-314.605"/>
</g>
<!-- Node13 -->
<g id="node13" class="node"><title>Node13</title>
<g id="a_node13"><a xlink:href="_model_points_8h.html" target="_top" xlink:title="This file defines all of the Model Points for the Thermostat Application.">
<polygon fill="white" stroke="black" points="944,-263 944,-282 1105,-282 1105,-263 944,-263"/>
<text text-anchor="middle" x="1024.5" y="-270" font-family="Helvetica,sans-Serif" font-size="10.00">Storm/Thermostat/ModelPoints.h</text>
</a>
</g>
</g>
<!-- Node1&#45;&gt;Node13 -->
<g id="edge21" class="edge"><title>Node1&#45;&gt;Node13</title>
<path fill="none" stroke="midnightblue" d="M778.395,-322.474C836.342,-310.943 928.157,-292.672 981.74,-282.009"/>
<polygon fill="midnightblue" stroke="midnightblue" points="777.464,-319.091 768.339,-324.475 778.83,-325.956 777.464,-319.091"/>
</g>
<!-- Node3 -->
<g id="node3" class="node"><title>Node3</title>
<g id="a_node3"><a xlink:href="_cooling_8h.html" target="_top" xlink:title=" ">
<polygon fill="white" stroke="black" points="0,-123.5 0,-153.5 145,-153.5 145,-123.5 0,-123.5"/>
<text text-anchor="start" x="8" y="-141.5" font-family="Helvetica,sans-Serif" font-size="10.00">Storm/Component/Equipment</text>
<text text-anchor="middle" x="72.5" y="-130.5" font-family="Helvetica,sans-Serif" font-size="10.00">/Cooling.h</text>
</a>
</g>
</g>
<!-- Node2&#45;&gt;Node3 -->
<g id="edge2" class="edge"><title>Node2&#45;&gt;Node3</title>
<path fill="none" stroke="midnightblue" d="M401.787,-264.384C346.371,-257.588 271.193,-244.722 208.5,-221 163.447,-203.953 116.437,-172.127 91.1988,-153.694"/>
<polygon fill="midnightblue" stroke="midnightblue" points="401.555,-267.881 411.898,-265.584 402.38,-260.93 401.555,-267.881"/>
</g>
<!-- Node4 -->
<g id="node4" class="node"><title>Node4</title>
<g id="a_node4"><a xlink:href="_algorithm_8h.html" target="_top" xlink:title=" ">
<polygon fill="white" stroke="black" points="374.5,-0.5 374.5,-19.5 522.5,-19.5 522.5,-0.5 374.5,-0.5"/>
<text text-anchor="middle" x="448.5" y="-7.5" font-family="Helvetica,sans-Serif" font-size="10.00">Storm/Thermostat/Algorithm.h</text>
</a>
</g>
</g>
<!-- Node2&#45;&gt;Node4 -->
<g id="edge16" class="edge"><title>Node2&#45;&gt;Node4</title>
<path fill="none" stroke="midnightblue" d="M493.132,-254.215C525.154,-209.409 605.261,-90.6022 580.5,-56 566.903,-36.9995 544.801,-25.9294 522.537,-19.5107"/>
<polygon fill="midnightblue" stroke="midnightblue" points="490.098,-252.438 487.084,-262.595 495.774,-256.535 490.098,-252.438"/>
</g>
<!-- Node5 -->
<g id="node5" class="node"><title>Node5</title>
<g id="a_node5"><a xlink:href="_indoor_heating_8h.html" target="_top" xlink:title=" ">
<polygon fill="white" stroke="black" points="326,-123.5 326,-153.5 471,-153.5 471,-123.5 326,-123.5"/>
<text text-anchor="start" x="334" y="-141.5" font-family="Helvetica,sans-Serif" font-size="10.00">Storm/Component/Equipment</text>
<text text-anchor="middle" x="398.5" y="-130.5" font-family="Helvetica,sans-Serif" font-size="10.00">/IndoorHeating.h</text>
</a>
</g>
</g>
<!-- Node2&#45;&gt;Node5 -->
<g id="edge4" class="edge"><title>Node2&#45;&gt;Node5</title>
<path fill="none" stroke="midnightblue" d="M469.812,-254.296C453.466,-227.982 422.557,-178.227 407.373,-153.783"/>
<polygon fill="midnightblue" stroke="midnightblue" points="466.87,-256.192 475.12,-262.839 472.816,-252.498 466.87,-256.192"/>
</g>
<!-- Node6 -->
<g id="node6" class="node"><title>Node6</title>
<g id="a_node6"><a xlink:href="_off_8h.html" target="_top" xlink:title=" ">
<polygon fill="white" stroke="black" points="427,-56.5 427,-86.5 572,-86.5 572,-56.5 427,-56.5"/>
<text text-anchor="start" x="435" y="-74.5" font-family="Helvetica,sans-Serif" font-size="10.00">Storm/Component/Equipment</text>
<text text-anchor="middle" x="499.5" y="-63.5" font-family="Helvetica,sans-Serif" font-size="10.00">/Off.h</text>
</a>
</g>
</g>
<!-- Node2&#45;&gt;Node6 -->
<g id="edge6" class="edge"><title>Node2&#45;&gt;Node6</title>
<path fill="none" stroke="midnightblue" d="M482.28,-252.857C486.058,-213.283 494.808,-121.64 498.16,-86.5329"/>
<polygon fill="midnightblue" stroke="midnightblue" points="478.783,-252.662 481.316,-262.949 485.751,-253.327 478.783,-252.662"/>
</g>
<!-- Node7 -->
<g id="node7" class="node"><title>Node7</title>
<g id="a_node7"><a xlink:href="_stage_api_8h.html" target="_top" xlink:title=" ">
<polygon fill="white" stroke="black" points="218,-190.5 218,-220.5 363,-220.5 363,-190.5 218,-190.5"/>
<text text-anchor="start" x="226" y="-208.5" font-family="Helvetica,sans-Serif" font-size="10.00">Storm/Component/Equipment</text>
<text text-anchor="middle" x="290.5" y="-197.5" font-family="Helvetica,sans-Serif" font-size="10.00">/StageApi.h</text>
</a>
</g>
</g>
<!-- Node2&#45;&gt;Node7 -->
<g id="edge8" class="edge"><title>Node2&#45;&gt;Node7</title>
<path fill="none" stroke="midnightblue" d="M445.394,-259.49C413.182,-248.47 365.456,-232.143 331.505,-220.528"/>
<polygon fill="midnightblue" stroke="midnightblue" points="444.675,-262.943 455.269,-262.869 446.941,-256.32 444.675,-262.943"/>
</g>
<!-- Node3&#45;&gt;Node4 -->
<g id="edge3" class="edge"><title>Node3&#45;&gt;Node4</title>
<path fill="none" stroke="midnightblue" d="M57.0183,-114.563C46.9865,-96.5841 38.2056,-72.0107 52.5,-56 73.4959,-32.483 265.299,-19.6432 374.067,-14.197"/>
<polygon fill="midnightblue" stroke="midnightblue" points="54.1095,-116.517 62.2626,-123.283 60.1082,-112.91 54.1095,-116.517"/>
</g>
<!-- Node5&#45;&gt;Node4 -->
<g id="edge5" class="edge"><title>Node5&#45;&gt;Node4</title>
<path fill="none" stroke="midnightblue" d="M401.685,-113.433C404.463,-96.793 409.358,-74.4227 417.5,-56 423.559,-42.29 433.947,-28.3618 441.013,-19.7073"/>
<polygon fill="midnightblue" stroke="midnightblue" points="398.207,-113.026 400.153,-123.441 405.126,-114.086 398.207,-113.026"/>
</g>
<!-- Node6&#45;&gt;Node4 -->
<g id="edge7" class="edge"><title>Node6&#45;&gt;Node4</title>
<path fill="none" stroke="midnightblue" d="M480.817,-48.7037C472.188,-38.636 462.434,-27.2567 455.921,-19.6578"/>
<polygon fill="midnightblue" stroke="midnightblue" points="478.248,-51.0845 487.414,-56.3993 483.563,-46.529 478.248,-51.0845"/>
</g>
<!-- Node7&#45;&gt;Node3 -->
<g id="edge9" class="edge"><title>Node7&#45;&gt;Node3</title>
<path fill="none" stroke="midnightblue" d="M233.752,-187.58C198.345,-177.022 153.301,-163.592 119.826,-153.611"/>
<polygon fill="midnightblue" stroke="midnightblue" points="232.882,-190.973 243.466,-190.476 234.883,-184.264 232.882,-190.973"/>
</g>
<!-- Node7&#45;&gt;Node5 -->
<g id="edge10" class="edge"><title>Node7&#45;&gt;Node5</title>
<path fill="none" stroke="midnightblue" d="M322.875,-185.015C339.682,-174.9 359.836,-162.77 375.111,-153.577"/>
<polygon fill="midnightblue" stroke="midnightblue" points="320.697,-182.241 313.934,-190.396 324.307,-188.238 320.697,-182.241"/>
</g>
<!-- Node8 -->
<g id="node8" class="node"><title>Node8</title>
<g id="a_node8"><a xlink:href="_storm_2_component_2_equipment_2_stage_2_basic_8h.html" target="_top" xlink:title=" ">
<polygon fill="white" stroke="black" points="163,-123.5 163,-153.5 308,-153.5 308,-123.5 163,-123.5"/>
<text text-anchor="start" x="171" y="-141.5" font-family="Helvetica,sans-Serif" font-size="10.00">Storm/Component/Equipment</text>
<text text-anchor="middle" x="235.5" y="-130.5" font-family="Helvetica,sans-Serif" font-size="10.00">/Stage/Basic.h</text>
</a>
</g>
</g>
<!-- Node7&#45;&gt;Node8 -->
<g id="edge11" class="edge"><title>Node7&#45;&gt;Node8</title>
<path fill="none" stroke="midnightblue" d="M272.084,-182.736C263.947,-173.119 254.614,-162.089 247.411,-153.577"/>
<polygon fill="midnightblue" stroke="midnightblue" points="269.435,-185.023 278.566,-190.396 274.778,-180.501 269.435,-185.023"/>
</g>
<!-- Node9 -->
<g id="node9" class="node"><title>Node9</title>
<g id="a_node9"><a xlink:href="_basic_cooling_8h.html" target="_top" xlink:title=" ">
<polygon fill="white" stroke="black" points="225,-56.5 225,-86.5 370,-86.5 370,-56.5 225,-56.5"/>
<text text-anchor="start" x="233" y="-74.5" font-family="Helvetica,sans-Serif" font-size="10.00">Storm/Component/Equipment</text>
<text text-anchor="middle" x="297.5" y="-63.5" font-family="Helvetica,sans-Serif" font-size="10.00">/Stage/BasicCooling.h</text>
</a>
</g>
</g>
<!-- Node8&#45;&gt;Node9 -->
<g id="edge12" class="edge"><title>Node8&#45;&gt;Node9</title>
<path fill="none" stroke="midnightblue" d="M255.985,-116.024C265.222,-106.34 275.873,-95.1739 284.073,-86.5765"/>
<polygon fill="midnightblue" stroke="midnightblue" points="253.323,-113.744 248.953,-123.396 258.388,-118.576 253.323,-113.744"/>
</g>
<!-- Node10 -->
<g id="node10" class="node"><title>Node10</title>
<g id="a_node10"><a xlink:href="_basic_indoor_heat_8h.html" target="_top" xlink:title=" ">
<polygon fill="white" stroke="black" points="62,-56.5 62,-86.5 207,-86.5 207,-56.5 62,-56.5"/>
<text text-anchor="start" x="70" y="-74.5" font-family="Helvetica,sans-Serif" font-size="10.00">Storm/Component/Equipment</text>
<text text-anchor="middle" x="134.5" y="-63.5" font-family="Helvetica,sans-Serif" font-size="10.00">/Stage/BasicIndoorHeat.h</text>
</a>
</g>
</g>
<!-- Node8&#45;&gt;Node10 -->
<g id="edge14" class="edge"><title>Node8&#45;&gt;Node10</title>
<path fill="none" stroke="midnightblue" d="M204.786,-117.734C189.157,-107.676 170.525,-95.6847 156.373,-86.5765"/>
<polygon fill="midnightblue" stroke="midnightblue" points="203.281,-120.927 213.585,-123.396 207.07,-115.041 203.281,-120.927"/>
</g>
<!-- Node9&#45;&gt;Node4 -->
<g id="edge13" class="edge"><title>Node9&#45;&gt;Node4</title>
<path fill="none" stroke="midnightblue" d="M342.779,-52.6583C370.474,-41.7455 404.666,-28.2724 426.528,-19.6578"/>
<polygon fill="midnightblue" stroke="midnightblue" points="341.306,-49.4769 333.285,-56.3993 343.872,-55.9895 341.306,-49.4769"/>
</g>
<!-- Node10&#45;&gt;Node4 -->
<g id="edge15" class="edge"><title>Node10&#45;&gt;Node4</title>
<path fill="none" stroke="midnightblue" d="M217.458,-54.7803C276.948,-43.5075 354.834,-28.7488 403.261,-19.5724"/>
<polygon fill="midnightblue" stroke="midnightblue" points="216.501,-51.3993 207.327,-56.7 217.804,-58.2769 216.501,-51.3993"/>
</g>
<!-- Node11&#45;&gt;Node4 -->
<g id="edge18" class="edge"><title>Node11&#45;&gt;Node4</title>
<path fill="none" stroke="midnightblue" d="M665.195,-119.689C655.588,-101.039 638.026,-72.2496 614.5,-56 586.86,-36.9091 551.455,-25.907 520.448,-19.5711"/>
<polygon fill="midnightblue" stroke="midnightblue" points="662.151,-121.43 669.701,-128.863 668.434,-118.344 662.151,-121.43"/>
</g>
<!-- Node12&#45;&gt;Node4 -->
<g id="edge20" class="edge"><title>Node12&#45;&gt;Node4</title>
<path fill="none" stroke="midnightblue" d="M779.961,-247.422C783.167,-216.095 784.254,-160.897 759.5,-123 708.58,-45.0456 597.28,-20.9154 522.59,-13.6964"/>
<polygon fill="midnightblue" stroke="midnightblue" points="776.475,-247.098 778.778,-257.44 783.427,-247.919 776.475,-247.098"/>
</g>
<!-- Node14 -->
<g id="node14" class="node"><title>Node14</title>
<g id="a_node14"><a xlink:href="_installer_record_8h_source.html" target="_top" xlink:title=" ">
<polygon fill="white" stroke="black" points="965,-190.5 965,-220.5 1084,-220.5 1084,-190.5 965,-190.5"/>
<text text-anchor="start" x="973" y="-208.5" font-family="Helvetica,sans-Serif" font-size="10.00">Storm/Thermostat/Main</text>
<text text-anchor="middle" x="1024.5" y="-197.5" font-family="Helvetica,sans-Serif" font-size="10.00">/InstallerRecord.h</text>
</a>
</g>
</g>
<!-- Node13&#45;&gt;Node14 -->
<g id="edge22" class="edge"><title>Node13&#45;&gt;Node14</title>
<path fill="none" stroke="midnightblue" d="M1024.5,-252.411C1024.5,-242.222 1024.5,-229.901 1024.5,-220.589"/>
<polygon fill="midnightblue" stroke="midnightblue" points="1021,-252.734 1024.5,-262.734 1028,-252.734 1021,-252.734"/>
</g>
<!-- Node15 -->
<g id="node15" class="node"><title>Node15</title>
<g id="a_node15"><a xlink:href="_run_time_record_8h_source.html" target="_top" xlink:title=" ">
<polygon fill="white" stroke="black" points="1102,-190.5 1102,-220.5 1221,-220.5 1221,-190.5 1102,-190.5"/>
<text text-anchor="start" x="1110" y="-208.5" font-family="Helvetica,sans-Serif" font-size="10.00">Storm/Thermostat/Main</text>
<text text-anchor="middle" x="1161.5" y="-197.5" font-family="Helvetica,sans-Serif" font-size="10.00">/RunTimeRecord.h</text>
</a>
</g>
</g>
<!-- Node13&#45;&gt;Node15 -->
<g id="edge23" class="edge"><title>Node13&#45;&gt;Node15</title>
<path fill="none" stroke="midnightblue" d="M1051.96,-258.474C1075.12,-247.485 1108.19,-231.791 1131.93,-220.528"/>
<polygon fill="midnightblue" stroke="midnightblue" points="1050.23,-255.42 1042.69,-262.869 1053.23,-261.744 1050.23,-255.42"/>
</g>
<!-- Node16 -->
<g id="node16" class="node"><title>Node16</title>
<g id="a_node16"><a xlink:href="_user_record_8h_source.html" target="_top" xlink:title=" ">
<polygon fill="white" stroke="black" points="1239,-190.5 1239,-220.5 1358,-220.5 1358,-190.5 1239,-190.5"/>
<text text-anchor="start" x="1247" y="-208.5" font-family="Helvetica,sans-Serif" font-size="10.00">Storm/Thermostat/Main</text>
<text text-anchor="middle" x="1298.5" y="-197.5" font-family="Helvetica,sans-Serif" font-size="10.00">/UserRecord.h</text>
</a>
</g>
</g>
<!-- Node13&#45;&gt;Node16 -->
<g id="edge24" class="edge"><title>Node13&#45;&gt;Node16</title>
<path fill="none" stroke="midnightblue" d="M1070.38,-260.616C1116.74,-249.617 1188.58,-232.575 1239.24,-220.559"/>
<polygon fill="midnightblue" stroke="midnightblue" points="1069.52,-257.222 1060.6,-262.936 1071.14,-264.033 1069.52,-257.222"/>
</g>
<!-- Node17 -->
<g id="node17" class="node"><title>Node17</title>
<g id="a_node17"><a xlink:href="_event_monitor_8h_source.html" target="_top" xlink:title=" ">
<polygon fill="white" stroke="black" points="806.5,-190.5 806.5,-220.5 946.5,-220.5 946.5,-190.5 806.5,-190.5"/>
<text text-anchor="start" x="814.5" y="-208.5" font-family="Helvetica,sans-Serif" font-size="10.00">Storm/Thermostat/Ui</text>
<text text-anchor="middle" x="876.5" y="-197.5" font-family="Helvetica,sans-Serif" font-size="10.00">/PicoDisplay/EventMonitor.h</text>
</a>
</g>
</g>
<!-- Node13&#45;&gt;Node17 -->
<g id="edge25" class="edge"><title>Node13&#45;&gt;Node17</title>
<path fill="none" stroke="midnightblue" d="M995.508,-258.767C970.459,-247.766 934.315,-231.892 908.441,-220.528"/>
<polygon fill="midnightblue" stroke="midnightblue" points="994.283,-262.052 1004.85,-262.869 997.098,-255.643 994.283,-262.052"/>
</g>
</g>
</svg>
