<?xml version="1.0" encoding="UTF-8" standalone="no"?>
<!DOCTYPE svg PUBLIC "-//W3C//DTD SVG 1.1//EN"
 "http://www.w3.org/Graphics/SVG/1.1/DTD/svg11.dtd">
<!-- Generated by graphviz version 2.38.0 (20140413.2041)
 -->
<!-- Title: Cpl/System/Mutex.h Pages: 1 -->
<svg width="1146pt" height="408pt"
 viewBox="0.00 0.00 1146.04 408.00" xmlns="http://www.w3.org/2000/svg" xmlns:xlink="http://www.w3.org/1999/xlink">
<g id="graph0" class="graph" transform="scale(1 1) rotate(0) translate(4 404)">
<title>Cpl/System/Mutex.h</title>
<polygon fill="white" stroke="none" points="-4,4 -4,-404 1142.04,-404 1142.04,4 -4,4"/>
<!-- Node1 -->
<g id="node1" class="node"><title>Node1</title>
<g id="a_node1"><a xlink:title=" ">
<polygon fill="#bfbfbf" stroke="black" points="601.043,-380.5 601.043,-399.5 707.043,-399.5 707.043,-380.5 601.043,-380.5"/>
<text text-anchor="middle" x="654.043" y="-387.5" font-family="Helvetica,sans-Serif" font-size="10.00">Cpl/System/Mutex.h</text>
</a>
</g>
</g>
<!-- Node2 -->
<g id="node2" class="node"><title>Node2</title>
<g id="a_node2"><a xlink:href="_ring_buffer_m_t_8h.html" target="_top" xlink:title=" ">
<polygon fill="white" stroke="black" points="82.0431,-263 82.0431,-282 228.043,-282 228.043,-263 82.0431,-263"/>
<text text-anchor="middle" x="155.043" y="-270" font-family="Helvetica,sans-Serif" font-size="10.00">Cpl/Container/RingBufferMT.h</text>
</a>
</g>
</g>
<!-- Node1&#45;&gt;Node2 -->
<g id="edge1" class="edge"><title>Node1&#45;&gt;Node2</title>
<path fill="none" stroke="midnightblue" d="M591.001,-381.727C533.688,-374.449 447.025,-361.775 373.043,-344 300.331,-326.531 216.846,-296.698 177.625,-282.082"/>
<polygon fill="midnightblue" stroke="midnightblue" points="590.64,-385.209 600.997,-382.979 591.51,-378.263 590.64,-385.209"/>
</g>
<!-- Node5 -->
<g id="node5" class="node"><title>Node5</title>
<g id="a_node5"><a xlink:href="_model_database_8h.html" target="_top" xlink:title=" ">
<polygon fill="white" stroke="black" points="382.043,-324.5 382.043,-343.5 510.043,-343.5 510.043,-324.5 382.043,-324.5"/>
<text text-anchor="middle" x="446.043" y="-331.5" font-family="Helvetica,sans-Serif" font-size="10.00">Cpl/Dm/ModelDatabase.h</text>
</a>
</g>
</g>
<!-- Node1&#45;&gt;Node5 -->
<g id="edge4" class="edge"><title>Node1&#45;&gt;Node5</title>
<path fill="none" stroke="midnightblue" d="M611.265,-377.894C571.985,-367.697 514.614,-352.802 478.847,-343.516"/>
<polygon fill="midnightblue" stroke="midnightblue" points="610.526,-381.318 621.085,-380.444 612.285,-374.543 610.526,-381.318"/>
</g>
<!-- Node23 -->
<g id="node23" class="node"><title>Node23</title>
<g id="a_node23"><a xlink:href="_atomic_output_8h.html" target="_top" xlink:title=" ">
<polygon fill="white" stroke="black" points="528.543,-324.5 528.543,-343.5 641.543,-343.5 641.543,-324.5 528.543,-324.5"/>
<text text-anchor="middle" x="585.043" y="-331.5" font-family="Helvetica,sans-Serif" font-size="10.00">Cpl/Io/AtomicOutput.h</text>
</a>
</g>
</g>
<!-- Node1&#45;&gt;Node23 -->
<g id="edge24" class="edge"><title>Node1&#45;&gt;Node23</title>
<path fill="none" stroke="midnightblue" d="M635.005,-374.101C622.587,-364.382 606.8,-352.027 596.331,-343.834"/>
<polygon fill="midnightblue" stroke="midnightblue" points="632.925,-376.917 642.957,-380.324 637.239,-371.405 632.925,-376.917"/>
</g>
<!-- Node24 -->
<g id="node24" class="node"><title>Node24</title>
<g id="a_node24"><a xlink:href="_listener___8h.html" target="_top" xlink:title=" ">
<polygon fill="white" stroke="black" points="659.543,-324.5 659.543,-343.5 786.543,-343.5 786.543,-324.5 659.543,-324.5"/>
<text text-anchor="middle" x="723.043" y="-331.5" font-family="Helvetica,sans-Serif" font-size="10.00">Cpl/Io/Socket/Listener_.h</text>
</a>
</g>
</g>
<!-- Node1&#45;&gt;Node24 -->
<g id="edge25" class="edge"><title>Node1&#45;&gt;Node24</title>
<path fill="none" stroke="midnightblue" d="M673.081,-374.101C685.499,-364.382 701.286,-352.027 711.755,-343.834"/>
<polygon fill="midnightblue" stroke="midnightblue" points="670.847,-371.405 665.129,-380.324 675.161,-376.917 670.847,-371.405"/>
</g>
<!-- Node27 -->
<g id="node27" class="node"><title>Node27</title>
<g id="a_node27"><a xlink:href="_system_2_private___8h.html" target="_top" xlink:title="This file contains a collection of classes, interfaces, etc.">
<polygon fill="white" stroke="black" points="804.543,-324.5 804.543,-343.5 919.543,-343.5 919.543,-324.5 804.543,-324.5"/>
<text text-anchor="middle" x="862.043" y="-331.5" font-family="Helvetica,sans-Serif" font-size="10.00">Cpl/System/Private_.h</text>
</a>
</g>
</g>
<!-- Node1&#45;&gt;Node27 -->
<g id="edge28" class="edge"><title>Node1&#45;&gt;Node27</title>
<path fill="none" stroke="midnightblue" d="M696.821,-377.894C736.101,-367.697 793.472,-352.802 829.239,-343.516"/>
<polygon fill="midnightblue" stroke="midnightblue" points="695.801,-374.543 687.001,-380.444 697.56,-381.318 695.801,-374.543"/>
</g>
<!-- Node30 -->
<g id="node30" class="node"><title>Node30</title>
<g id="a_node30"><a xlink:href="_processor_8h.html" target="_top" xlink:title=" ">
<polygon fill="white" stroke="black" points="937.543,-324.5 937.543,-343.5 1054.54,-343.5 1054.54,-324.5 937.543,-324.5"/>
<text text-anchor="middle" x="996.043" y="-331.5" font-family="Helvetica,sans-Serif" font-size="10.00">Cpl/TShell/Processor.h</text>
</a>
</g>
</g>
<!-- Node1&#45;&gt;Node30 -->
<g id="edge31" class="edge"><title>Node1&#45;&gt;Node30</title>
<path fill="none" stroke="midnightblue" d="M717.158,-379.035C781.718,-368.841 880.96,-353.171 942.009,-343.532"/>
<polygon fill="midnightblue" stroke="midnightblue" points="716.437,-375.605 707.105,-380.622 717.529,-382.519 716.437,-375.605"/>
</g>
<!-- Node3 -->
<g id="node3" class="node"><title>Node3</title>
<g id="a_node3"><a xlink:href="_ring_buffer_m_p_8h.html" target="_top" xlink:title=" ">
<polygon fill="white" stroke="black" points="607.543,-73 607.543,-92 754.543,-92 754.543,-73 607.543,-73"/>
<text text-anchor="middle" x="681.043" y="-80" font-family="Helvetica,sans-Serif" font-size="10.00">Cpl/Container/RingBufferMP.h</text>
</a>
</g>
</g>
<!-- Node2&#45;&gt;Node3 -->
<g id="edge2" class="edge"><title>Node2&#45;&gt;Node3</title>
<path fill="none" stroke="midnightblue" d="M72.1399,-261.076C48.2038,-253.785 24.6324,-241.53 10.0431,-221 -14.0998,-187.026 9.41828,-155.632 45.0431,-134 92.1446,-105.399 450.329,-90.7482 607.499,-85.6421"/>
<polygon fill="midnightblue" stroke="midnightblue" points="71.4602,-264.519 82.0317,-263.816 73.3287,-257.773 71.4602,-264.519"/>
</g>
<!-- Node4 -->
<g id="node4" class="node"><title>Node4</title>
<g id="a_node4"><a xlink:href="_indexed_entry_server_8h.html" target="_top" xlink:title=" ">
<polygon fill="white" stroke="black" points="691.543,-0.5 691.543,-30.5 830.543,-30.5 830.543,-0.5 691.543,-0.5"/>
<text text-anchor="start" x="699.543" y="-18.5" font-family="Helvetica,sans-Serif" font-size="10.00">Cpl/Persistent/IndexedEntry</text>
<text text-anchor="middle" x="761.043" y="-7.5" font-family="Helvetica,sans-Serif" font-size="10.00">Server.h</text>
</a>
</g>
</g>
<!-- Node3&#45;&gt;Node4 -->
<g id="edge3" class="edge"><title>Node3&#45;&gt;Node4</title>
<path fill="none" stroke="midnightblue" d="M699.828,-66.2371C713.102,-55.4518 730.763,-41.1025 743.703,-30.589"/>
<polygon fill="midnightblue" stroke="midnightblue" points="697.386,-63.7114 691.832,-72.7338 701.801,-69.1443 697.386,-63.7114"/>
</g>
<!-- Node6 -->
<g id="node6" class="node"><title>Node6</title>
<g id="a_node6"><a xlink:href="_model_point_common___8h.html" target="_top" xlink:title=" ">
<polygon fill="white" stroke="black" points="387.543,-263 387.543,-282 540.543,-282 540.543,-263 387.543,-263"/>
<text text-anchor="middle" x="464.043" y="-270" font-family="Helvetica,sans-Serif" font-size="10.00">Cpl/Dm/ModelPointCommon_.h</text>
</a>
</g>
</g>
<!-- Node5&#45;&gt;Node6 -->
<g id="edge5" class="edge"><title>Node5&#45;&gt;Node6</title>
<path fill="none" stroke="midnightblue" d="M451.592,-314.657C454.885,-303.772 458.904,-290.486 461.469,-282.009"/>
<polygon fill="midnightblue" stroke="midnightblue" points="448.168,-313.89 448.622,-324.475 454.868,-315.917 448.168,-313.89"/>
</g>
<!-- Node7 -->
<g id="node7" class="node"><title>Node7</title>
<g id="a_node7"><a xlink:href="_array___8h.html" target="_top" xlink:title=" ">
<polygon fill="white" stroke="black" points="19.5431,-196 19.5431,-215 124.543,-215 124.543,-196 19.5431,-196"/>
<text text-anchor="middle" x="72.0431" y="-203" font-family="Helvetica,sans-Serif" font-size="10.00">Cpl/Dm/Mp/Array_.h</text>
</a>
</g>
</g>
<!-- Node6&#45;&gt;Node7 -->
<g id="edge6" class="edge"><title>Node6&#45;&gt;Node7</title>
<path fill="none" stroke="midnightblue" d="M388.295,-261.617C321.221,-252.46 220.784,-237.754 134.043,-221 125.034,-219.26 115.35,-217.124 106.375,-215.032"/>
<polygon fill="midnightblue" stroke="midnightblue" points="387.974,-265.105 398.354,-262.983 388.916,-258.169 387.974,-265.105"/>
</g>
<!-- Node8 -->
<g id="node8" class="node"><title>Node8</title>
<g id="a_node8"><a xlink:href="_bool_8h.html" target="_top" xlink:title=" ">
<polygon fill="white" stroke="black" points="143.043,-196 143.043,-215 239.043,-215 239.043,-196 143.043,-196"/>
<text text-anchor="middle" x="191.043" y="-203" font-family="Helvetica,sans-Serif" font-size="10.00">Cpl/Dm/Mp/Bool.h</text>
</a>
</g>
</g>
<!-- Node6&#45;&gt;Node8 -->
<g id="edge7" class="edge"><title>Node6&#45;&gt;Node8</title>
<path fill="none" stroke="midnightblue" d="M416.73,-260.717C372.926,-250.667 306.008,-235.147 248.043,-221 240.306,-219.112 231.992,-217.028 224.171,-215.043"/>
<polygon fill="midnightblue" stroke="midnightblue" points="416.001,-264.14 426.53,-262.962 417.564,-257.317 416.001,-264.14"/>
</g>
<!-- Node9 -->
<g id="node9" class="node"><title>Node9</title>
<g id="a_node9"><a xlink:href="_elapsed_precision_time_8h.html" target="_top" xlink:title=" ">
<polygon fill="white" stroke="black" points="257.043,-190.5 257.043,-220.5 401.043,-220.5 401.043,-190.5 257.043,-190.5"/>
<text text-anchor="start" x="265.043" y="-208.5" font-family="Helvetica,sans-Serif" font-size="10.00">Cpl/Dm/Mp/ElapsedPrecision</text>
<text text-anchor="middle" x="329.043" y="-197.5" font-family="Helvetica,sans-Serif" font-size="10.00">Time.h</text>
</a>
</g>
</g>
<!-- Node6&#45;&gt;Node9 -->
<g id="edge8" class="edge"><title>Node6&#45;&gt;Node9</title>
<path fill="none" stroke="midnightblue" d="M436.989,-258.474C414.166,-247.485 381.571,-231.791 358.178,-220.528"/>
<polygon fill="midnightblue" stroke="midnightblue" points="435.588,-261.684 446.116,-262.869 438.624,-255.377 435.588,-261.684"/>
</g>
<!-- Node10 -->
<g id="node10" class="node"><title>Node10</title>
<g id="a_node10"><a xlink:href="_enum___8h.html" target="_top" xlink:title=" ">
<polygon fill="white" stroke="black" points="419.543,-196 419.543,-215 526.543,-215 526.543,-196 419.543,-196"/>
<text text-anchor="middle" x="473.043" y="-203" font-family="Helvetica,sans-Serif" font-size="10.00">Cpl/Dm/Mp/Enum_.h</text>
</a>
</g>
</g>
<!-- Node6&#45;&gt;Node10 -->
<g id="edge9" class="edge"><title>Node6&#45;&gt;Node10</title>
<path fill="none" stroke="midnightblue" d="M466.669,-252.537C468.381,-240.17 470.534,-224.62 471.849,-215.127"/>
<polygon fill="midnightblue" stroke="midnightblue" points="463.162,-252.348 465.257,-262.734 470.095,-253.308 463.162,-252.348"/>
</g>
<!-- Node11 -->
<g id="node11" class="node"><title>Node11</title>
<g id="a_node11"><a xlink:href="_numeric_8h.html" target="_top" xlink:title=" ">
<polygon fill="white" stroke="black" points="544.543,-196 544.543,-215 657.543,-215 657.543,-196 544.543,-196"/>
<text text-anchor="middle" x="601.043" y="-203" font-family="Helvetica,sans-Serif" font-size="10.00">Cpl/Dm/Mp/Numeric.h</text>
</a>
</g>
</g>
<!-- Node6&#45;&gt;Node11 -->
<g id="edge10" class="edge"><title>Node6&#45;&gt;Node11</title>
<path fill="none" stroke="midnightblue" d="M491.562,-258.444C518.697,-245.569 559.401,-226.257 582.775,-215.167"/>
<polygon fill="midnightblue" stroke="midnightblue" points="489.77,-255.42 482.236,-262.869 492.771,-261.744 489.77,-255.42"/>
</g>
<!-- Node21 -->
<g id="node21" class="node"><title>Node21</title>
<g id="a_node21"><a xlink:href="_ref_counter_8h.html" target="_top" xlink:title=" ">
<polygon fill="white" stroke="black" points="675.543,-196 675.543,-215 800.543,-215 800.543,-196 675.543,-196"/>
<text text-anchor="middle" x="738.043" y="-203" font-family="Helvetica,sans-Serif" font-size="10.00">Cpl/Dm/Mp/RefCounter.h</text>
</a>
</g>
</g>
<!-- Node6&#45;&gt;Node21 -->
<g id="edge22" class="edge"><title>Node6&#45;&gt;Node21</title>
<path fill="none" stroke="midnightblue" d="M510.142,-260.564C564.159,-247.75 652.535,-226.785 701.861,-215.083"/>
<polygon fill="midnightblue" stroke="midnightblue" points="509.068,-257.222 500.146,-262.936 510.683,-264.033 509.068,-257.222"/>
</g>
<!-- Node22 -->
<g id="node22" class="node"><title>Node22</title>
<g id="a_node22"><a xlink:href="_dm_2_mp_2_string___8h.html" target="_top" xlink:title=" ">
<polygon fill="white" stroke="black" points="818.543,-196 818.543,-215 925.543,-215 925.543,-196 818.543,-196"/>
<text text-anchor="middle" x="872.043" y="-203" font-family="Helvetica,sans-Serif" font-size="10.00">Cpl/Dm/Mp/String_.h</text>
</a>
</g>
</g>
<!-- Node6&#45;&gt;Node22 -->
<g id="edge23" class="edge"><title>Node6&#45;&gt;Node22</title>
<path fill="none" stroke="midnightblue" d="M533.972,-261.573C626.94,-248.329 782.639,-225.963 809.043,-221 818.198,-219.279 828.039,-217.15 837.159,-215.058"/>
<polygon fill="midnightblue" stroke="midnightblue" points="533.475,-258.109 524.068,-262.984 534.462,-265.039 533.475,-258.109"/>
</g>
<!-- Node12 -->
<g id="node12" class="node"><title>Node12</title>
<g id="a_node12"><a xlink:href="_bit_array16_8h.html" target="_top" xlink:title=" ">
<polygon fill="white" stroke="black" points="54.0431,-134.5 54.0431,-153.5 176.043,-153.5 176.043,-134.5 54.0431,-134.5"/>
<text text-anchor="middle" x="115.043" y="-141.5" font-family="Helvetica,sans-Serif" font-size="10.00">Cpl/Dm/Mp/BitArray16.h</text>
</a>
</g>
</g>
<!-- Node11&#45;&gt;Node12 -->
<g id="edge11" class="edge"><title>Node11&#45;&gt;Node12</title>
<path fill="none" stroke="midnightblue" d="M555.65,-193.818C548.77,-192.405 541.736,-191.076 535.043,-190 380.649,-165.182 340.383,-171.972 185.043,-154 182.122,-153.662 179.133,-153.308 176.115,-152.945"/>
<polygon fill="midnightblue" stroke="midnightblue" points="555.052,-197.269 565.562,-195.928 556.51,-190.422 555.052,-197.269"/>
</g>
<!-- Node13 -->
<g id="node13" class="node"><title>Node13</title>
<g id="a_node13"><a xlink:href="_double_8h.html" target="_top" xlink:title=" ">
<polygon fill="white" stroke="black" points="194.543,-134.5 194.543,-153.5 301.543,-153.5 301.543,-134.5 194.543,-134.5"/>
<text text-anchor="middle" x="248.043" y="-141.5" font-family="Helvetica,sans-Serif" font-size="10.00">Cpl/Dm/Mp/Double.h</text>
</a>
</g>
</g>
<!-- Node11&#45;&gt;Node13 -->
<g id="edge12" class="edge"><title>Node11&#45;&gt;Node13</title>
<path fill="none" stroke="midnightblue" d="M554.176,-193.836C547.76,-192.484 541.247,-191.167 535.043,-190 491.425,-181.797 372.129,-163.604 301.829,-153.034"/>
<polygon fill="midnightblue" stroke="midnightblue" points="553.61,-197.294 564.123,-195.974 555.081,-190.451 553.61,-197.294"/>
</g>
<!-- Node14 -->
<g id="node14" class="node"><title>Node14</title>
<g id="a_node14"><a xlink:href="_float_8h.html" target="_top" xlink:title=" ">
<polygon fill="white" stroke="black" points="320.043,-134.5 320.043,-153.5 418.043,-153.5 418.043,-134.5 320.043,-134.5"/>
<text text-anchor="middle" x="369.043" y="-141.5" font-family="Helvetica,sans-Serif" font-size="10.00">Cpl/Dm/Mp/Float.h</text>
</a>
</g>
</g>
<!-- Node11&#45;&gt;Node14 -->
<g id="edge13" class="edge"><title>Node11&#45;&gt;Node14</title>
<path fill="none" stroke="midnightblue" d="M558.029,-193.468C512.979,-181.915 443.195,-164.017 402.221,-153.509"/>
<polygon fill="midnightblue" stroke="midnightblue" points="557.247,-196.881 567.803,-195.975 558.986,-190.1 557.247,-196.881"/>
</g>
<!-- Node15 -->
<g id="node15" class="node"><title>Node15</title>
<g id="a_node15"><a xlink:href="_int32_8h.html" target="_top" xlink:title=" ">
<polygon fill="white" stroke="black" points="436.043,-134.5 436.043,-153.5 534.043,-153.5 534.043,-134.5 436.043,-134.5"/>
<text text-anchor="middle" x="485.043" y="-141.5" font-family="Helvetica,sans-Serif" font-size="10.00">Cpl/Dm/Mp/Int32.h</text>
</a>
</g>
</g>
<!-- Node11&#45;&gt;Node15 -->
<g id="edge14" class="edge"><title>Node11&#45;&gt;Node15</title>
<path fill="none" stroke="midnightblue" d="M575.438,-191.367C552.956,-179.835 520.914,-163.399 501.632,-153.509"/>
<polygon fill="midnightblue" stroke="midnightblue" points="573.928,-194.525 584.423,-195.975 577.123,-188.297 573.928,-194.525"/>
</g>
<!-- Node16 -->
<g id="node16" class="node"><title>Node16</title>
<g id="a_node16"><a xlink:href="_int64_8h.html" target="_top" xlink:title=" ">
<polygon fill="white" stroke="black" points="552.043,-134.5 552.043,-153.5 650.043,-153.5 650.043,-134.5 552.043,-134.5"/>
<text text-anchor="middle" x="601.043" y="-141.5" font-family="Helvetica,sans-Serif" font-size="10.00">Cpl/Dm/Mp/Int64.h</text>
</a>
</g>
</g>
<!-- Node11&#45;&gt;Node16 -->
<g id="edge15" class="edge"><title>Node11&#45;&gt;Node16</title>
<path fill="none" stroke="midnightblue" d="M601.043,-185.817C601.043,-174.996 601.043,-161.898 601.043,-153.509"/>
<polygon fill="midnightblue" stroke="midnightblue" points="597.543,-185.975 601.043,-195.975 604.543,-185.975 597.543,-185.975"/>
</g>
<!-- Node17 -->
<g id="node17" class="node"><title>Node17</title>
<g id="a_node17"><a xlink:href="_uint32_8h.html" target="_top" xlink:title=" ">
<polygon fill="white" stroke="black" points="668.043,-134.5 668.043,-153.5 772.043,-153.5 772.043,-134.5 668.043,-134.5"/>
<text text-anchor="middle" x="720.043" y="-141.5" font-family="Helvetica,sans-Serif" font-size="10.00">Cpl/Dm/Mp/Uint32.h</text>
</a>
</g>
</g>
<!-- Node11&#45;&gt;Node17 -->
<g id="edge16" class="edge"><title>Node11&#45;&gt;Node17</title>
<path fill="none" stroke="midnightblue" d="M627.31,-191.367C650.374,-179.835 683.245,-163.399 703.025,-153.509"/>
<polygon fill="midnightblue" stroke="midnightblue" points="625.472,-188.372 618.093,-195.975 628.602,-194.633 625.472,-188.372"/>
</g>
<!-- Node18 -->
<g id="node18" class="node"><title>Node18</title>
<g id="a_node18"><a xlink:href="_uint64_8h.html" target="_top" xlink:title=" ">
<polygon fill="white" stroke="black" points="790.043,-134.5 790.043,-153.5 894.043,-153.5 894.043,-134.5 790.043,-134.5"/>
<text text-anchor="middle" x="842.043" y="-141.5" font-family="Helvetica,sans-Serif" font-size="10.00">Cpl/Dm/Mp/Uint64.h</text>
</a>
</g>
</g>
<!-- Node11&#45;&gt;Node18 -->
<g id="edge18" class="edge"><title>Node11&#45;&gt;Node18</title>
<path fill="none" stroke="midnightblue" d="M645.431,-193.541C692.218,-181.99 764.926,-164.039 807.578,-153.509"/>
<polygon fill="midnightblue" stroke="midnightblue" points="644.442,-190.18 635.573,-195.975 646.12,-196.976 644.442,-190.18"/>
</g>
<!-- Node20 -->
<g id="node20" class="node"><title>Node20</title>
<g id="a_node20"><a xlink:href="_void_8h.html" target="_top" xlink:title=" ">
<polygon fill="white" stroke="black" points="912.043,-134.5 912.043,-153.5 1008.04,-153.5 1008.04,-134.5 912.043,-134.5"/>
<text text-anchor="middle" x="960.043" y="-141.5" font-family="Helvetica,sans-Serif" font-size="10.00">Cpl/Dm/Mp/Void.h</text>
</a>
</g>
</g>
<!-- Node11&#45;&gt;Node20 -->
<g id="edge21" class="edge"><title>Node11&#45;&gt;Node20</title>
<path fill="none" stroke="midnightblue" d="M647.19,-193.796C653.511,-192.45 659.928,-191.145 666.043,-190 770.764,-170.39 797.757,-170.308 903.043,-154 905.914,-153.555 908.866,-153.096 911.844,-152.631"/>
<polygon fill="midnightblue" stroke="midnightblue" points="646.42,-190.381 637.393,-195.929 647.909,-197.221 646.42,-190.381"/>
</g>
<!-- Node17&#45;&gt;Node3 -->
<g id="edge17" class="edge"><title>Node17&#45;&gt;Node3</title>
<path fill="none" stroke="midnightblue" d="M708.904,-126.005C701.617,-114.888 692.409,-100.84 686.62,-92.0091"/>
<polygon fill="midnightblue" stroke="midnightblue" points="706.046,-128.03 714.455,-134.475 711.901,-124.193 706.046,-128.03"/>
</g>
<!-- Node19 -->
<g id="node19" class="node"><title>Node19</title>
<g id="a_node19"><a xlink:href="_indexed_entry_record_8h.html" target="_top" xlink:title=" ">
<polygon fill="white" stroke="black" points="772.543,-67.5 772.543,-97.5 911.543,-97.5 911.543,-67.5 772.543,-67.5"/>
<text text-anchor="start" x="780.543" y="-85.5" font-family="Helvetica,sans-Serif" font-size="10.00">Cpl/Persistent/IndexedEntry</text>
<text text-anchor="middle" x="842.043" y="-74.5" font-family="Helvetica,sans-Serif" font-size="10.00">Record.h</text>
</a>
</g>
</g>
<!-- Node18&#45;&gt;Node19 -->
<g id="edge19" class="edge"><title>Node18&#45;&gt;Node19</title>
<path fill="none" stroke="midnightblue" d="M842.043,-124.235C842.043,-115.586 842.043,-105.497 842.043,-97.523"/>
<polygon fill="midnightblue" stroke="midnightblue" points="838.543,-124.475 842.043,-134.475 845.543,-124.475 838.543,-124.475"/>
</g>
<!-- Node19&#45;&gt;Node4 -->
<g id="edge20" class="edge"><title>Node19&#45;&gt;Node4</title>
<path fill="none" stroke="midnightblue" d="M816.351,-60.8832C804.042,-51.0054 789.617,-39.4293 778.585,-30.5765"/>
<polygon fill="midnightblue" stroke="midnightblue" points="814.477,-63.867 824.467,-67.396 818.859,-58.4075 814.477,-63.867"/>
</g>
<!-- Node25 -->
<g id="node25" class="node"><title>Node25</title>
<g id="a_node25"><a xlink:href="_posix_2_listener_8h.html" target="_top" xlink:title=" ">
<polygon fill="white" stroke="black" points="577.043,-257.5 577.043,-287.5 681.043,-287.5 681.043,-257.5 577.043,-257.5"/>
<text text-anchor="start" x="585.043" y="-275.5" font-family="Helvetica,sans-Serif" font-size="10.00">Cpl/Io/Socket/Posix</text>
<text text-anchor="middle" x="629.043" y="-264.5" font-family="Helvetica,sans-Serif" font-size="10.00">/Listener.h</text>
</a>
</g>
</g>
<!-- Node24&#45;&gt;Node25 -->
<g id="edge26" class="edge"><title>Node24&#45;&gt;Node25</title>
<path fill="none" stroke="midnightblue" d="M700.939,-319.008C685.945,-309.518 666.201,-297.02 651.197,-287.523"/>
<polygon fill="midnightblue" stroke="midnightblue" points="699.254,-322.084 709.575,-324.475 702.998,-316.169 699.254,-322.084"/>
</g>
<!-- Node26 -->
<g id="node26" class="node"><title>Node26</title>
<g id="a_node26"><a xlink:href="_win32_2_listener_8h.html" target="_top" xlink:title=" ">
<polygon fill="white" stroke="black" points="699.043,-257.5 699.043,-287.5 805.043,-287.5 805.043,-257.5 699.043,-257.5"/>
<text text-anchor="start" x="707.043" y="-275.5" font-family="Helvetica,sans-Serif" font-size="10.00">Cpl/Io/Socket/Win32</text>
<text text-anchor="middle" x="752.043" y="-264.5" font-family="Helvetica,sans-Serif" font-size="10.00">/Listener.h</text>
</a>
</g>
</g>
<!-- Node24&#45;&gt;Node26 -->
<g id="edge27" class="edge"><title>Node24&#45;&gt;Node26</title>
<path fill="none" stroke="midnightblue" d="M731.625,-315.392C735.96,-306.498 741.147,-295.855 745.208,-287.523"/>
<polygon fill="midnightblue" stroke="midnightblue" points="728.433,-313.952 727.198,-324.475 734.726,-317.019 728.433,-313.952"/>
</g>
<!-- Node28 -->
<g id="node28" class="node"><title>Node28</title>
<g id="a_node28"><a xlink:href="_maker_8h.html" target="_top" xlink:title=" ">
<polygon fill="white" stroke="black" points="876.043,-263 876.043,-282 976.043,-282 976.043,-263 876.043,-263"/>
<text text-anchor="middle" x="926.043" y="-270" font-family="Helvetica,sans-Serif" font-size="10.00">Cpl/TShell/Maker.h</text>
</a>
</g>
</g>
<!-- Node27&#45;&gt;Node28 -->
<g id="edge29" class="edge"><title>Node27&#45;&gt;Node28</title>
<path fill="none" stroke="midnightblue" d="M878.554,-317.65C890.756,-306.306 906.917,-291.281 916.89,-282.009"/>
<polygon fill="midnightblue" stroke="midnightblue" points="876.153,-315.103 871.213,-324.475 880.92,-320.23 876.153,-315.103"/>
</g>
<!-- Node29 -->
<g id="node29" class="node"><title>Node29</title>
<g id="a_node29"><a xlink:href="_polled_maker_8h.html" target="_top" xlink:title=" ">
<polygon fill="white" stroke="black" points="952.543,-196 952.543,-215 1079.54,-215 1079.54,-196 952.543,-196"/>
<text text-anchor="middle" x="1016.04" y="-203" font-family="Helvetica,sans-Serif" font-size="10.00">Cpl/TShell/PolledMaker.h</text>
</a>
</g>
</g>
<!-- Node27&#45;&gt;Node29 -->
<g id="edge30" class="edge"><title>Node27&#45;&gt;Node29</title>
<path fill="none" stroke="midnightblue" d="M857.904,-314.233C855.354,-297.491 854.611,-273.19 867.043,-257 880.393,-239.615 935.571,-224.179 974.881,-215.082"/>
<polygon fill="midnightblue" stroke="midnightblue" points="854.532,-315.241 859.818,-324.424 861.412,-313.949 854.532,-315.241"/>
</g>
<!-- Node30&#45;&gt;Node28 -->
<g id="edge32" class="edge"><title>Node30&#45;&gt;Node28</title>
<path fill="none" stroke="midnightblue" d="M978.364,-317.973C964.976,-306.593 947.066,-291.369 936.054,-282.009"/>
<polygon fill="midnightblue" stroke="midnightblue" points="976.128,-320.665 986.014,-324.475 980.661,-315.332 976.128,-320.665"/>
</g>
<!-- Node31 -->
<g id="node31" class="node"><title>Node31</title>
<g id="a_node31"><a xlink:href="_polled_processor_8h.html" target="_top" xlink:title=" ">
<polygon fill="white" stroke="black" points="994.043,-263 994.043,-282 1138.04,-282 1138.04,-263 994.043,-263"/>
<text text-anchor="middle" x="1066.04" y="-270" font-family="Helvetica,sans-Serif" font-size="10.00">Cpl/TShell/PolledProcessor.h</text>
</a>
</g>
</g>
<!-- Node30&#45;&gt;Node31 -->
<g id="edge33" class="edge"><title>Node30&#45;&gt;Node31</title>
<path fill="none" stroke="midnightblue" d="M1013.72,-317.973C1027.11,-306.593 1045.02,-291.369 1056.03,-282.009"/>
<polygon fill="midnightblue" stroke="midnightblue" points="1011.43,-315.332 1006.07,-324.475 1015.96,-320.665 1011.43,-315.332"/>
</g>
<!-- Node31&#45;&gt;Node29 -->
<g id="edge34" class="edge"><title>Node31&#45;&gt;Node29</title>
<path fill="none" stroke="midnightblue" d="M1053.17,-254.77C1043.43,-242.097 1030.43,-225.201 1022.68,-215.127"/>
<polygon fill="midnightblue" stroke="midnightblue" points="1050.43,-256.942 1059.3,-262.734 1055.98,-252.674 1050.43,-256.942"/>
</g>
</g>
</svg>
