<?xml version="1.0" encoding="UTF-8" standalone="no"?>
<!DOCTYPE svg PUBLIC "-//W3C//DTD SVG 1.1//EN"
 "http://www.w3.org/Graphics/SVG/1.1/DTD/svg11.dtd">
<!-- Generated by graphviz version 2.38.0 (20140413.2041)
 -->
<!-- Title: Cpl/Dm/Mp/Numeric.h Pages: 1 -->
<svg width="1819pt" height="408pt"
 viewBox="0.00 0.00 1818.50 408.00" xmlns="http://www.w3.org/2000/svg" xmlns:xlink="http://www.w3.org/1999/xlink">
<g id="graph0" class="graph" transform="scale(1 1) rotate(0) translate(4 404)">
<title>Cpl/Dm/Mp/Numeric.h</title>
<polygon fill="white" stroke="none" points="-4,4 -4,-404 1814.5,-404 1814.5,4 -4,4"/>
<!-- Node1 -->
<g id="node1" class="node"><title>Node1</title>
<g id="a_node1"><a xlink:title=" ">
<polygon fill="#bfbfbf" stroke="black" points="1093.5,-380.5 1093.5,-399.5 1206.5,-399.5 1206.5,-380.5 1093.5,-380.5"/>
<text text-anchor="middle" x="1150" y="-387.5" font-family="Helvetica,sans-Serif" font-size="10.00">Cpl/Dm/Mp/Numeric.h</text>
</a>
</g>
</g>
<!-- Node2 -->
<g id="node2" class="node"><title>Node2</title>
<g id="a_node2"><a xlink:href="_bit_array16_8h.html" target="_top" xlink:title=" ">
<polygon fill="white" stroke="black" points="661,-324.5 661,-343.5 783,-343.5 783,-324.5 661,-324.5"/>
<text text-anchor="middle" x="722" y="-331.5" font-family="Helvetica,sans-Serif" font-size="10.00">Cpl/Dm/Mp/BitArray16.h</text>
</a>
</g>
</g>
<!-- Node1&#45;&gt;Node2 -->
<g id="edge1" class="edge"><title>Node1&#45;&gt;Node2</title>
<path fill="none" stroke="midnightblue" d="M1083.18,-380.591C1011.45,-371.562 894.16,-356.787 793,-344 789.795,-343.595 786.509,-343.179 783.191,-342.759"/>
<polygon fill="midnightblue" stroke="midnightblue" points="1083.06,-384.104 1093.42,-381.881 1083.94,-377.159 1083.06,-384.104"/>
</g>
<!-- Node3 -->
<g id="node3" class="node"><title>Node3</title>
<g id="a_node3"><a xlink:href="_double_8h.html" target="_top" xlink:title=" ">
<polygon fill="white" stroke="black" points="801.5,-324.5 801.5,-343.5 908.5,-343.5 908.5,-324.5 801.5,-324.5"/>
<text text-anchor="middle" x="855" y="-331.5" font-family="Helvetica,sans-Serif" font-size="10.00">Cpl/Dm/Mp/Double.h</text>
</a>
</g>
</g>
<!-- Node1&#45;&gt;Node3 -->
<g id="edge2" class="edge"><title>Node1&#45;&gt;Node3</title>
<path fill="none" stroke="midnightblue" d="M1093.19,-378.601C1037.44,-368.395 953.436,-353.019 901.525,-343.516"/>
<polygon fill="midnightblue" stroke="midnightblue" points="1092.79,-382.086 1103.26,-380.444 1094.05,-375.2 1092.79,-382.086"/>
</g>
<!-- Node4 -->
<g id="node4" class="node"><title>Node4</title>
<g id="a_node4"><a xlink:href="_float_8h.html" target="_top" xlink:title=" ">
<polygon fill="white" stroke="black" points="927,-324.5 927,-343.5 1025,-343.5 1025,-324.5 927,-324.5"/>
<text text-anchor="middle" x="976" y="-331.5" font-family="Helvetica,sans-Serif" font-size="10.00">Cpl/Dm/Mp/Float.h</text>
</a>
</g>
</g>
<!-- Node1&#45;&gt;Node4 -->
<g id="edge3" class="edge"><title>Node1&#45;&gt;Node4</title>
<path fill="none" stroke="midnightblue" d="M1112.74,-377.436C1079.93,-367.255 1032.92,-352.664 1003.44,-343.516"/>
<polygon fill="midnightblue" stroke="midnightblue" points="1111.84,-380.822 1122.43,-380.444 1113.92,-374.137 1111.84,-380.822"/>
</g>
<!-- Node25 -->
<g id="node25" class="node"><title>Node25</title>
<g id="a_node25"><a xlink:href="_int32_8h.html" target="_top" xlink:title=" ">
<polygon fill="white" stroke="black" points="1043,-324.5 1043,-343.5 1141,-343.5 1141,-324.5 1043,-324.5"/>
<text text-anchor="middle" x="1092" y="-331.5" font-family="Helvetica,sans-Serif" font-size="10.00">Cpl/Dm/Mp/Int32.h</text>
</a>
</g>
</g>
<!-- Node1&#45;&gt;Node25 -->
<g id="edge39" class="edge"><title>Node1&#45;&gt;Node25</title>
<path fill="none" stroke="midnightblue" d="M1133.09,-373.253C1122.8,-363.673 1110.03,-351.791 1101.49,-343.834"/>
<polygon fill="midnightblue" stroke="midnightblue" points="1130.98,-376.071 1140.68,-380.324 1135.75,-370.948 1130.98,-376.071"/>
</g>
<!-- Node26 -->
<g id="node26" class="node"><title>Node26</title>
<g id="a_node26"><a xlink:href="_int64_8h.html" target="_top" xlink:title=" ">
<polygon fill="white" stroke="black" points="1159,-324.5 1159,-343.5 1257,-343.5 1257,-324.5 1159,-324.5"/>
<text text-anchor="middle" x="1208" y="-331.5" font-family="Helvetica,sans-Serif" font-size="10.00">Cpl/Dm/Mp/Int64.h</text>
</a>
</g>
</g>
<!-- Node1&#45;&gt;Node26 -->
<g id="edge40" class="edge"><title>Node1&#45;&gt;Node26</title>
<path fill="none" stroke="midnightblue" d="M1166.91,-373.253C1177.2,-363.673 1189.97,-351.791 1198.51,-343.834"/>
<polygon fill="midnightblue" stroke="midnightblue" points="1164.25,-370.948 1159.32,-380.324 1169.02,-376.071 1164.25,-370.948"/>
</g>
<!-- Node27 -->
<g id="node27" class="node"><title>Node27</title>
<g id="a_node27"><a xlink:href="_uint32_8h.html" target="_top" xlink:title=" ">
<polygon fill="white" stroke="black" points="1275,-324.5 1275,-343.5 1379,-343.5 1379,-324.5 1275,-324.5"/>
<text text-anchor="middle" x="1327" y="-331.5" font-family="Helvetica,sans-Serif" font-size="10.00">Cpl/Dm/Mp/Uint32.h</text>
</a>
</g>
</g>
<!-- Node1&#45;&gt;Node27 -->
<g id="edge41" class="edge"><title>Node1&#45;&gt;Node27</title>
<path fill="none" stroke="midnightblue" d="M1187.9,-377.436C1221.28,-367.255 1269.1,-352.664 1299.09,-343.516"/>
<polygon fill="midnightblue" stroke="midnightblue" points="1186.59,-374.178 1178.05,-380.444 1188.63,-380.873 1186.59,-374.178"/>
</g>
<!-- Node31 -->
<g id="node31" class="node"><title>Node31</title>
<g id="a_node31"><a xlink:href="_uint64_8h.html" target="_top" xlink:title=" ">
<polygon fill="white" stroke="black" points="1397,-324.5 1397,-343.5 1501,-343.5 1501,-324.5 1397,-324.5"/>
<text text-anchor="middle" x="1449" y="-331.5" font-family="Helvetica,sans-Serif" font-size="10.00">Cpl/Dm/Mp/Uint64.h</text>
</a>
</g>
</g>
<!-- Node1&#45;&gt;Node31 -->
<g id="edge47" class="edge"><title>Node1&#45;&gt;Node31</title>
<path fill="none" stroke="midnightblue" d="M1207.23,-378.664C1263.74,-368.459 1349.12,-353.039 1401.84,-343.516"/>
<polygon fill="midnightblue" stroke="midnightblue" points="1206.6,-375.222 1197.38,-380.444 1207.84,-382.11 1206.6,-375.222"/>
</g>
<!-- Node33 -->
<g id="node33" class="node"><title>Node33</title>
<g id="a_node33"><a xlink:href="_void_8h.html" target="_top" xlink:title=" ">
<polygon fill="white" stroke="black" points="1519,-324.5 1519,-343.5 1615,-343.5 1615,-324.5 1519,-324.5"/>
<text text-anchor="middle" x="1567" y="-331.5" font-family="Helvetica,sans-Serif" font-size="10.00">Cpl/Dm/Mp/Void.h</text>
</a>
</g>
</g>
<!-- Node1&#45;&gt;Node33 -->
<g id="edge50" class="edge"><title>Node1&#45;&gt;Node33</title>
<path fill="none" stroke="midnightblue" d="M1216.83,-381.299C1289.18,-372.811 1407.91,-358.437 1510,-344 1512.88,-343.593 1515.83,-343.163 1518.81,-342.72"/>
<polygon fill="midnightblue" stroke="midnightblue" points="1216.03,-377.869 1206.5,-382.508 1216.84,-384.822 1216.03,-377.869"/>
</g>
<!-- Node5 -->
<g id="node5" class="node"><title>Node5</title>
<g id="a_node5"><a xlink:href="_control_8h.html" target="_top" xlink:title=" ">
<polygon fill="white" stroke="black" points="779.5,-263 779.5,-282 916.5,-282 916.5,-263 779.5,-263"/>
<text text-anchor="middle" x="848" y="-270" font-family="Helvetica,sans-Serif" font-size="10.00">Storm/Component/Control.h</text>
</a>
</g>
</g>
<!-- Node4&#45;&gt;Node5 -->
<g id="edge4" class="edge"><title>Node4&#45;&gt;Node5</title>
<path fill="none" stroke="midnightblue" d="M948.408,-320.174C923.571,-308.629 887.771,-291.987 866.305,-282.009"/>
<polygon fill="midnightblue" stroke="midnightblue" points="947.117,-323.434 957.661,-324.475 950.068,-317.086 947.117,-323.434"/>
</g>
<!-- Node14 -->
<g id="node14" class="node"><title>Node14</title>
<g id="a_node14"><a xlink:href="_fan_control_8h.html" target="_top" xlink:title=" ">
<polygon fill="white" stroke="black" points="906,-62 906,-81 1060,-81 1060,-62 906,-62"/>
<text text-anchor="middle" x="983" y="-69" font-family="Helvetica,sans-Serif" font-size="10.00">Storm/Component/FanControl.h</text>
</a>
</g>
</g>
<!-- Node4&#45;&gt;Node14 -->
<g id="edge20" class="edge"><title>Node4&#45;&gt;Node14</title>
<path fill="none" stroke="midnightblue" d="M975.123,-313.918C973.619,-276.997 971.155,-193.235 976,-123 977.023,-108.165 979.718,-91.0526 981.45,-81.0405"/>
<polygon fill="midnightblue" stroke="midnightblue" points="971.638,-314.343 975.566,-324.183 978.631,-314.041 971.638,-314.343"/>
</g>
<!-- Node15 -->
<g id="node15" class="node"><title>Node15</title>
<g id="a_node15"><a xlink:href="_component_2_hvac_relay_outputs_8h.html" target="_top" xlink:title=" ">
<polygon fill="white" stroke="black" points="985,-123.5 985,-153.5 1131,-153.5 1131,-123.5 985,-123.5"/>
<text text-anchor="start" x="993" y="-141.5" font-family="Helvetica,sans-Serif" font-size="10.00">Storm/Component/HvacRelay</text>
<text text-anchor="middle" x="1058" y="-130.5" font-family="Helvetica,sans-Serif" font-size="10.00">Outputs.h</text>
</a>
</g>
</g>
<!-- Node4&#45;&gt;Node15 -->
<g id="edge22" class="edge"><title>Node4&#45;&gt;Node15</title>
<path fill="none" stroke="midnightblue" d="M979.38,-314.141C984.926,-285.97 997.54,-231.744 1019,-190 1025.89,-176.601 1036.46,-163.186 1044.87,-153.554"/>
<polygon fill="midnightblue" stroke="midnightblue" points="975.897,-313.726 977.486,-324.201 982.776,-315.022 975.897,-313.726"/>
</g>
<!-- Node16 -->
<g id="node16" class="node"><title>Node16</title>
<g id="a_node16"><a xlink:href="_idt_selection_8h.html" target="_top" xlink:title=" ">
<polygon fill="white" stroke="black" points="1116,-62 1116,-81 1274,-81 1274,-62 1116,-62"/>
<text text-anchor="middle" x="1195" y="-69" font-family="Helvetica,sans-Serif" font-size="10.00">Storm/Component/IdtSelection.h</text>
</a>
</g>
</g>
<!-- Node4&#45;&gt;Node16 -->
<g id="edge24" class="edge"><title>Node4&#45;&gt;Node16</title>
<path fill="none" stroke="midnightblue" d="M986.739,-315.733C991.807,-307.426 997.857,-297.279 1003,-288 1026.7,-245.233 1017.08,-223.175 1053,-190 1083.74,-161.609 1107.59,-180.467 1140,-154 1165.39,-133.271 1183.63,-97.7918 1191.17,-81.3477"/>
<polygon fill="midnightblue" stroke="midnightblue" points="983.618,-314.126 981.354,-324.476 989.578,-317.797 983.618,-314.126"/>
</g>
<!-- Node17 -->
<g id="node17" class="node"><title>Node17</title>
<g id="a_node17"><a xlink:href="_component_2_operating_mode_8h.html" target="_top" xlink:title=" ">
<polygon fill="white" stroke="black" points="0,-123.5 0,-153.5 140,-153.5 140,-123.5 0,-123.5"/>
<text text-anchor="start" x="8" y="-141.5" font-family="Helvetica,sans-Serif" font-size="10.00">Storm/Component/Operating</text>
<text text-anchor="middle" x="70" y="-130.5" font-family="Helvetica,sans-Serif" font-size="10.00">Mode.h</text>
</a>
</g>
</g>
<!-- Node4&#45;&gt;Node17 -->
<g id="edge26" class="edge"><title>Node4&#45;&gt;Node17</title>
<path fill="none" stroke="midnightblue" d="M916.756,-324.2C796.026,-316.478 224.119,-331.14 154,-288 103.797,-257.113 80.8857,-184.513 73.172,-153.714"/>
<polygon fill="midnightblue" stroke="midnightblue" points="916.752,-327.711 927,-325.02 917.311,-320.733 916.752,-327.711"/>
</g>
<!-- Node18 -->
<g id="node18" class="node"><title>Node18</title>
<g id="a_node18"><a xlink:href="_pi_8h.html" target="_top" xlink:title=" ">
<polygon fill="white" stroke="black" points="116,-62 116,-81 232,-81 232,-62 116,-62"/>
<text text-anchor="middle" x="174" y="-69" font-family="Helvetica,sans-Serif" font-size="10.00">Storm/Component/Pi.h</text>
</a>
</g>
</g>
<!-- Node4&#45;&gt;Node18 -->
<g id="edge28" class="edge"><title>Node4&#45;&gt;Node18</title>
<path fill="none" stroke="midnightblue" d="M916.724,-323.847C802.132,-307.394 770.671,-311.071 661,-288 446.766,-242.933 332.459,-317.612 187,-154 168.721,-133.44 170.548,-97.8764 172.604,-81.3794"/>
<polygon fill="midnightblue" stroke="midnightblue" points="916.56,-327.36 926.96,-325.338 917.569,-320.433 916.56,-327.36"/>
</g>
<!-- Node19 -->
<g id="node19" class="node"><title>Node19</title>
<g id="a_node19"><a xlink:href="_pi_pre_process_8h.html" target="_top" xlink:title=" ">
<polygon fill="white" stroke="black" points="196.5,-129 196.5,-148 363.5,-148 363.5,-129 196.5,-129"/>
<text text-anchor="middle" x="280" y="-136" font-family="Helvetica,sans-Serif" font-size="10.00">Storm/Component/PiPreProcess.h</text>
</a>
</g>
</g>
<!-- Node4&#45;&gt;Node19 -->
<g id="edge30" class="edge"><title>Node4&#45;&gt;Node19</title>
<path fill="none" stroke="midnightblue" d="M922.672,-322.477C881.138,-313.996 822.142,-301.325 771,-288 591.101,-241.126 378.114,-171.955 305.62,-148.019"/>
<polygon fill="midnightblue" stroke="midnightblue" points="922.079,-325.928 932.575,-324.487 923.471,-319.068 922.079,-325.928"/>
</g>
<!-- Node20 -->
<g id="node20" class="node"><title>Node20</title>
<g id="a_node20"><a xlink:href="_model_points_8h.html" target="_top" xlink:title="This file defines all of the Model Points for the Thermostat Application.">
<polygon fill="white" stroke="black" points="1176.5,-263 1176.5,-282 1337.5,-282 1337.5,-263 1176.5,-263"/>
<text text-anchor="middle" x="1257" y="-270" font-family="Helvetica,sans-Serif" font-size="10.00">Storm/Thermostat/ModelPoints.h</text>
</a>
</g>
</g>
<!-- Node4&#45;&gt;Node20 -->
<g id="edge34" class="edge"><title>Node4&#45;&gt;Node20</title>
<path fill="none" stroke="midnightblue" d="M1026.05,-322.402C1080.53,-310.867 1166.56,-292.65 1216.81,-282.009"/>
<polygon fill="midnightblue" stroke="midnightblue" points="1025.32,-318.979 1016.26,-324.475 1026.77,-325.828 1025.32,-318.979"/>
</g>
<!-- Node6 -->
<g id="node6" class="node"><title>Node6</title>
<g id="a_node6"><a xlink:href="_cooling_8h.html" target="_top" xlink:title=" ">
<polygon fill="white" stroke="black" points="707.5,-123.5 707.5,-153.5 852.5,-153.5 852.5,-123.5 707.5,-123.5"/>
<text text-anchor="start" x="715.5" y="-141.5" font-family="Helvetica,sans-Serif" font-size="10.00">Storm/Component/Equipment</text>
<text text-anchor="middle" x="780" y="-130.5" font-family="Helvetica,sans-Serif" font-size="10.00">/Cooling.h</text>
</a>
</g>
</g>
<!-- Node5&#45;&gt;Node6 -->
<g id="edge5" class="edge"><title>Node5&#45;&gt;Node6</title>
<path fill="none" stroke="midnightblue" d="M838.958,-253.948C825.357,-227.546 799.895,-178.119 787.358,-153.783"/>
<polygon fill="midnightblue" stroke="midnightblue" points="835.847,-255.552 843.538,-262.839 842.07,-252.346 835.847,-255.552"/>
</g>
<!-- Node7 -->
<g id="node7" class="node"><title>Node7</title>
<g id="a_node7"><a xlink:href="_algorithm_8h.html" target="_top" xlink:title=" ">
<polygon fill="white" stroke="black" points="602,-0.5 602,-19.5 750,-19.5 750,-0.5 602,-0.5"/>
<text text-anchor="middle" x="676" y="-7.5" font-family="Helvetica,sans-Serif" font-size="10.00">Storm/Thermostat/Algorithm.h</text>
</a>
</g>
</g>
<!-- Node5&#45;&gt;Node7 -->
<g id="edge19" class="edge"><title>Node5&#45;&gt;Node7</title>
<path fill="none" stroke="midnightblue" d="M863.166,-255.143C870.714,-245.874 879.052,-233.628 883,-221 905.114,-150.271 913.357,-106.368 859,-56 841.301,-39.6 783.246,-27.1596 737.215,-19.5604"/>
<polygon fill="midnightblue" stroke="midnightblue" points="860.489,-252.888 856.605,-262.745 865.789,-257.461 860.489,-252.888"/>
</g>
<!-- Node8 -->
<g id="node8" class="node"><title>Node8</title>
<g id="a_node8"><a xlink:href="_indoor_heating_8h.html" target="_top" xlink:title=" ">
<polygon fill="white" stroke="black" points="544.5,-123.5 544.5,-153.5 689.5,-153.5 689.5,-123.5 544.5,-123.5"/>
<text text-anchor="start" x="552.5" y="-141.5" font-family="Helvetica,sans-Serif" font-size="10.00">Storm/Component/Equipment</text>
<text text-anchor="middle" x="617" y="-130.5" font-family="Helvetica,sans-Serif" font-size="10.00">/IndoorHeating.h</text>
</a>
</g>
</g>
<!-- Node5&#45;&gt;Node8 -->
<g id="edge7" class="edge"><title>Node5&#45;&gt;Node8</title>
<path fill="none" stroke="midnightblue" d="M774.93,-261.354C723.76,-252.844 661.232,-239.162 642,-221 623.277,-203.319 618.456,-172.022 617.289,-153.787"/>
<polygon fill="midnightblue" stroke="midnightblue" points="774.565,-264.84 784.996,-262.987 775.686,-257.931 774.565,-264.84"/>
</g>
<!-- Node9 -->
<g id="node9" class="node"><title>Node9</title>
<g id="a_node9"><a xlink:href="_off_8h.html" target="_top" xlink:title=" ">
<polygon fill="white" stroke="black" points="704.5,-56.5 704.5,-86.5 849.5,-86.5 849.5,-56.5 704.5,-56.5"/>
<text text-anchor="start" x="712.5" y="-74.5" font-family="Helvetica,sans-Serif" font-size="10.00">Storm/Component/Equipment</text>
<text text-anchor="middle" x="777" y="-63.5" font-family="Helvetica,sans-Serif" font-size="10.00">/Off.h</text>
</a>
</g>
</g>
<!-- Node5&#45;&gt;Node9 -->
<g id="edge9" class="edge"><title>Node5&#45;&gt;Node9</title>
<path fill="none" stroke="midnightblue" d="M856.053,-253.296C867.783,-223.807 885.726,-164.693 862,-123 852.492,-106.291 835.034,-94.5366 818.402,-86.5995"/>
<polygon fill="midnightblue" stroke="midnightblue" points="852.736,-252.157 852.102,-262.733 859.193,-254.861 852.736,-252.157"/>
</g>
<!-- Node10 -->
<g id="node10" class="node"><title>Node10</title>
<g id="a_node10"><a xlink:href="_stage_api_8h.html" target="_top" xlink:title=" ">
<polygon fill="white" stroke="black" points="651.5,-190.5 651.5,-220.5 796.5,-220.5 796.5,-190.5 651.5,-190.5"/>
<text text-anchor="start" x="659.5" y="-208.5" font-family="Helvetica,sans-Serif" font-size="10.00">Storm/Component/Equipment</text>
<text text-anchor="middle" x="724" y="-197.5" font-family="Helvetica,sans-Serif" font-size="10.00">/StageApi.h</text>
</a>
</g>
</g>
<!-- Node5&#45;&gt;Node10 -->
<g id="edge11" class="edge"><title>Node5&#45;&gt;Node10</title>
<path fill="none" stroke="midnightblue" d="M822.617,-258.194C801.759,-247.261 772.284,-231.81 750.997,-220.652"/>
<polygon fill="midnightblue" stroke="midnightblue" points="821.052,-261.326 831.534,-262.869 824.302,-255.126 821.052,-261.326"/>
</g>
<!-- Node6&#45;&gt;Node7 -->
<g id="edge6" class="edge"><title>Node6&#45;&gt;Node7</title>
<path fill="none" stroke="midnightblue" d="M733.777,-118.664C719.491,-110.798 704.92,-100.328 695,-87 679.733,-66.4889 676.643,-35.1162 676.078,-19.8966"/>
<polygon fill="midnightblue" stroke="midnightblue" points="732.581,-121.985 743.072,-123.461 735.791,-115.765 732.581,-121.985"/>
</g>
<!-- Node8&#45;&gt;Node7 -->
<g id="edge8" class="edge"><title>Node8&#45;&gt;Node7</title>
<path fill="none" stroke="midnightblue" d="M627.838,-114.262C641.097,-85.8349 662.888,-39.113 671.901,-19.7885"/>
<polygon fill="midnightblue" stroke="midnightblue" points="624.594,-112.937 623.539,-123.479 630.938,-115.896 624.594,-112.937"/>
</g>
<!-- Node9&#45;&gt;Node7 -->
<g id="edge10" class="edge"><title>Node9&#45;&gt;Node7</title>
<path fill="none" stroke="midnightblue" d="M744.016,-51.0688C726.012,-40.4624 704.617,-27.8586 690.696,-19.6578"/>
<polygon fill="midnightblue" stroke="midnightblue" points="742.672,-54.3391 753.064,-56.3993 746.225,-48.3079 742.672,-54.3391"/>
</g>
<!-- Node10&#45;&gt;Node6 -->
<g id="edge12" class="edge"><title>Node10&#45;&gt;Node6</title>
<path fill="none" stroke="midnightblue" d="M742.75,-182.736C751.036,-173.119 760.539,-162.089 767.873,-153.577"/>
<polygon fill="midnightblue" stroke="midnightblue" points="740.027,-180.535 736.151,-190.396 745.33,-185.104 740.027,-180.535"/>
</g>
<!-- Node10&#45;&gt;Node8 -->
<g id="edge13" class="edge"><title>Node10&#45;&gt;Node8</title>
<path fill="none" stroke="midnightblue" d="M691.925,-185.015C675.274,-174.9 655.306,-162.77 640.172,-153.577"/>
<polygon fill="midnightblue" stroke="midnightblue" points="690.419,-188.195 700.783,-190.396 694.053,-182.213 690.419,-188.195"/>
</g>
<!-- Node11 -->
<g id="node11" class="node"><title>Node11</title>
<g id="a_node11"><a xlink:href="_storm_2_component_2_equipment_2_stage_2_basic_8h.html" target="_top" xlink:title=" ">
<polygon fill="white" stroke="black" points="381.5,-123.5 381.5,-153.5 526.5,-153.5 526.5,-123.5 381.5,-123.5"/>
<text text-anchor="start" x="389.5" y="-141.5" font-family="Helvetica,sans-Serif" font-size="10.00">Storm/Component/Equipment</text>
<text text-anchor="middle" x="454" y="-130.5" font-family="Helvetica,sans-Serif" font-size="10.00">/Stage/Basic.h</text>
</a>
</g>
</g>
<!-- Node10&#45;&gt;Node11 -->
<g id="edge14" class="edge"><title>Node10&#45;&gt;Node11</title>
<path fill="none" stroke="midnightblue" d="M655.954,-188.119C611.774,-177.483 554.784,-163.763 512.615,-153.611"/>
<polygon fill="midnightblue" stroke="midnightblue" points="655.205,-191.538 665.746,-190.476 656.843,-184.733 655.205,-191.538"/>
</g>
<!-- Node12 -->
<g id="node12" class="node"><title>Node12</title>
<g id="a_node12"><a xlink:href="_basic_cooling_8h.html" target="_top" xlink:title=" ">
<polygon fill="white" stroke="black" points="464.5,-56.5 464.5,-86.5 609.5,-86.5 609.5,-56.5 464.5,-56.5"/>
<text text-anchor="start" x="472.5" y="-74.5" font-family="Helvetica,sans-Serif" font-size="10.00">Storm/Component/Equipment</text>
<text text-anchor="middle" x="537" y="-63.5" font-family="Helvetica,sans-Serif" font-size="10.00">/Stage/BasicCooling.h</text>
</a>
</g>
</g>
<!-- Node11&#45;&gt;Node12 -->
<g id="edge15" class="edge"><title>Node11&#45;&gt;Node12</title>
<path fill="none" stroke="midnightblue" d="M479.963,-117.168C492.655,-107.228 507.612,-95.5144 519.025,-86.5765"/>
<polygon fill="midnightblue" stroke="midnightblue" points="477.725,-114.475 472.01,-123.396 482.041,-119.986 477.725,-114.475"/>
</g>
<!-- Node13 -->
<g id="node13" class="node"><title>Node13</title>
<g id="a_node13"><a xlink:href="_basic_indoor_heat_8h.html" target="_top" xlink:title=" ">
<polygon fill="white" stroke="black" points="301.5,-56.5 301.5,-86.5 446.5,-86.5 446.5,-56.5 301.5,-56.5"/>
<text text-anchor="start" x="309.5" y="-74.5" font-family="Helvetica,sans-Serif" font-size="10.00">Storm/Component/Equipment</text>
<text text-anchor="middle" x="374" y="-63.5" font-family="Helvetica,sans-Serif" font-size="10.00">/Stage/BasicIndoorHeat.h</text>
</a>
</g>
</g>
<!-- Node11&#45;&gt;Node13 -->
<g id="edge17" class="edge"><title>Node11&#45;&gt;Node13</title>
<path fill="none" stroke="midnightblue" d="M428.625,-116.883C416.468,-107.005 402.221,-95.4293 391.325,-86.5765"/>
<polygon fill="midnightblue" stroke="midnightblue" points="426.673,-119.806 436.641,-123.396 431.087,-114.374 426.673,-119.806"/>
</g>
<!-- Node12&#45;&gt;Node7 -->
<g id="edge16" class="edge"><title>Node12&#45;&gt;Node7</title>
<path fill="none" stroke="midnightblue" d="M579.35,-52.3718C604.723,-41.5105 635.825,-28.1972 655.774,-19.6578"/>
<polygon fill="midnightblue" stroke="midnightblue" points="577.757,-49.2465 569.941,-56.3993 580.512,-55.6817 577.757,-49.2465"/>
</g>
<!-- Node13&#45;&gt;Node7 -->
<g id="edge18" class="edge"><title>Node13&#45;&gt;Node7</title>
<path fill="none" stroke="midnightblue" d="M455.289,-54.4845C512.447,-43.2232 586.679,-28.5981 632.825,-19.5064"/>
<polygon fill="midnightblue" stroke="midnightblue" points="454.322,-51.1076 445.187,-56.4747 455.675,-57.9755 454.322,-51.1076"/>
</g>
<!-- Node14&#45;&gt;Node7 -->
<g id="edge21" class="edge"><title>Node14&#45;&gt;Node7</title>
<path fill="none" stroke="midnightblue" d="M929.059,-60.0456C869.582,-48.5184 775.034,-30.1939 719.904,-19.5091"/>
<polygon fill="midnightblue" stroke="midnightblue" points="928.531,-63.5084 939.014,-61.9751 929.863,-56.6363 928.531,-63.5084"/>
</g>
<!-- Node15&#45;&gt;Node7 -->
<g id="edge23" class="edge"><title>Node15&#45;&gt;Node7</title>
<path fill="none" stroke="midnightblue" d="M1069.91,-114.206C1077.28,-96.1475 1082.95,-71.6422 1069,-56 1048.2,-32.682 858.34,-19.7748 750.315,-14.2613"/>
<polygon fill="midnightblue" stroke="midnightblue" points="1066.65,-112.921 1065.75,-123.477 1073.04,-115.785 1066.65,-112.921"/>
</g>
<!-- Node16&#45;&gt;Node7 -->
<g id="edge25" class="edge"><title>Node16&#45;&gt;Node7</title>
<path fill="none" stroke="midnightblue" d="M1133.48,-60.4694C1122.99,-58.8847 1112.19,-57.332 1102,-56 978.85,-39.9052 835.087,-25.6592 750.011,-17.6991"/>
<polygon fill="midnightblue" stroke="midnightblue" points="1133,-63.9365 1143.41,-61.9923 1134.06,-57.0173 1133,-63.9365"/>
</g>
<!-- Node17&#45;&gt;Node7 -->
<g id="edge27" class="edge"><title>Node17&#45;&gt;Node7</title>
<path fill="none" stroke="midnightblue" d="M74.1646,-113.204C78.7723,-94.3203 88.1971,-69.1915 107,-56 146.597,-28.2201 456.783,-16.6387 601.77,-12.7065"/>
<polygon fill="midnightblue" stroke="midnightblue" points="70.6957,-112.688 72.0224,-123.199 77.5403,-114.155 70.6957,-112.688"/>
</g>
<!-- Node18&#45;&gt;Node7 -->
<g id="edge29" class="edge"><title>Node18&#45;&gt;Node7</title>
<path fill="none" stroke="midnightblue" d="M231.099,-60.2642C240.41,-58.7379 249.962,-57.2573 259,-56 378.542,-39.3697 518.095,-25.4101 601.634,-17.6344"/>
<polygon fill="midnightblue" stroke="midnightblue" points="230.415,-56.83 221.128,-61.9299 231.568,-63.7343 230.415,-56.83"/>
</g>
<!-- Node19&#45;&gt;Node7 -->
<g id="edge33" class="edge"><title>Node19&#45;&gt;Node7</title>
<path fill="none" stroke="midnightblue" d="M276.921,-118.93C274.99,-100.284 275.437,-72.0809 292,-56 313.762,-34.8717 496.223,-21.1458 601.609,-14.902"/>
<polygon fill="midnightblue" stroke="midnightblue" points="273.457,-119.436 278.268,-128.875 280.394,-118.496 273.457,-119.436"/>
</g>
<!-- Node19&#45;&gt;Node12 -->
<g id="edge31" class="edge"><title>Node19&#45;&gt;Node12</title>
<path fill="none" stroke="midnightblue" d="M323.58,-126.478C367.085,-115.475 434.103,-98.5246 481.412,-86.5592"/>
<polygon fill="midnightblue" stroke="midnightblue" points="322.699,-123.09 313.863,-128.936 324.415,-129.877 322.699,-123.09"/>
</g>
<!-- Node19&#45;&gt;Node13 -->
<g id="edge32" class="edge"><title>Node19&#45;&gt;Node13</title>
<path fill="none" stroke="midnightblue" d="M301.187,-122.849C316.877,-112 338.131,-97.3028 353.625,-86.589"/>
<polygon fill="midnightblue" stroke="midnightblue" points="298.912,-120.167 292.677,-128.734 302.893,-125.925 298.912,-120.167"/>
</g>
<!-- Node21 -->
<g id="node21" class="node"><title>Node21</title>
<g id="a_node21"><a xlink:href="_installer_record_8h_source.html" target="_top" xlink:title=" ">
<polygon fill="white" stroke="black" points="1494.5,-190.5 1494.5,-220.5 1613.5,-220.5 1613.5,-190.5 1494.5,-190.5"/>
<text text-anchor="start" x="1502.5" y="-208.5" font-family="Helvetica,sans-Serif" font-size="10.00">Storm/Thermostat/Main</text>
<text text-anchor="middle" x="1554" y="-197.5" font-family="Helvetica,sans-Serif" font-size="10.00">/InstallerRecord.h</text>
</a>
</g>
</g>
<!-- Node20&#45;&gt;Node21 -->
<g id="edge35" class="edge"><title>Node20&#45;&gt;Node21</title>
<path fill="none" stroke="midnightblue" d="M1306.04,-260.767C1357.65,-249.473 1438.91,-231.689 1494.23,-219.582"/>
<polygon fill="midnightblue" stroke="midnightblue" points="1305.15,-257.378 1296.13,-262.936 1306.65,-264.217 1305.15,-257.378"/>
</g>
<!-- Node22 -->
<g id="node22" class="node"><title>Node22</title>
<g id="a_node22"><a xlink:href="_run_time_record_8h_source.html" target="_top" xlink:title=" ">
<polygon fill="white" stroke="black" points="1061.5,-190.5 1061.5,-220.5 1180.5,-220.5 1180.5,-190.5 1061.5,-190.5"/>
<text text-anchor="start" x="1069.5" y="-208.5" font-family="Helvetica,sans-Serif" font-size="10.00">Storm/Thermostat/Main</text>
<text text-anchor="middle" x="1121" y="-197.5" font-family="Helvetica,sans-Serif" font-size="10.00">/RunTimeRecord.h</text>
</a>
</g>
</g>
<!-- Node20&#45;&gt;Node22 -->
<g id="edge36" class="edge"><title>Node20&#45;&gt;Node22</title>
<path fill="none" stroke="midnightblue" d="M1229.75,-258.474C1206.75,-247.485 1173.92,-231.791 1150.35,-220.528"/>
<polygon fill="midnightblue" stroke="midnightblue" points="1228.41,-261.714 1238.94,-262.869 1231.43,-255.398 1228.41,-261.714"/>
</g>
<!-- Node23 -->
<g id="node23" class="node"><title>Node23</title>
<g id="a_node23"><a xlink:href="_user_record_8h_source.html" target="_top" xlink:title=" ">
<polygon fill="white" stroke="black" points="1198.5,-190.5 1198.5,-220.5 1317.5,-220.5 1317.5,-190.5 1198.5,-190.5"/>
<text text-anchor="start" x="1206.5" y="-208.5" font-family="Helvetica,sans-Serif" font-size="10.00">Storm/Thermostat/Main</text>
<text text-anchor="middle" x="1258" y="-197.5" font-family="Helvetica,sans-Serif" font-size="10.00">/UserRecord.h</text>
</a>
</g>
</g>
<!-- Node20&#45;&gt;Node23 -->
<g id="edge37" class="edge"><title>Node20&#45;&gt;Node23</title>
<path fill="none" stroke="midnightblue" d="M1257.29,-252.411C1257.45,-242.222 1257.64,-229.901 1257.78,-220.589"/>
<polygon fill="midnightblue" stroke="midnightblue" points="1253.79,-252.681 1257.13,-262.734 1260.79,-252.789 1253.79,-252.681"/>
</g>
<!-- Node24 -->
<g id="node24" class="node"><title>Node24</title>
<g id="a_node24"><a xlink:href="_event_monitor_8h_source.html" target="_top" xlink:title=" ">
<polygon fill="white" stroke="black" points="1336,-190.5 1336,-220.5 1476,-220.5 1476,-190.5 1336,-190.5"/>
<text text-anchor="start" x="1344" y="-208.5" font-family="Helvetica,sans-Serif" font-size="10.00">Storm/Thermostat/Ui</text>
<text text-anchor="middle" x="1406" y="-197.5" font-family="Helvetica,sans-Serif" font-size="10.00">/PicoDisplay/EventMonitor.h</text>
</a>
</g>
</g>
<!-- Node20&#45;&gt;Node24 -->
<g id="edge38" class="edge"><title>Node20&#45;&gt;Node24</title>
<path fill="none" stroke="midnightblue" d="M1286.19,-258.767C1311.41,-247.766 1347.79,-231.892 1373.84,-220.528"/>
<polygon fill="midnightblue" stroke="midnightblue" points="1284.55,-255.662 1276.79,-262.869 1287.35,-262.078 1284.55,-255.662"/>
</g>
<!-- Node27&#45;&gt;Node20 -->
<g id="edge46" class="edge"><title>Node27&#45;&gt;Node20</title>
<path fill="none" stroke="midnightblue" d="M1309.32,-317.973C1295.93,-306.593 1278.02,-291.369 1267.01,-282.009"/>
<polygon fill="midnightblue" stroke="midnightblue" points="1307.08,-320.665 1316.97,-324.475 1311.62,-315.332 1307.08,-320.665"/>
</g>
<!-- Node28 -->
<g id="node28" class="node"><title>Node28</title>
<g id="a_node28"><a xlink:href="_ring_buffer_m_p_8h.html" target="_top" xlink:title=" ">
<polygon fill="white" stroke="black" points="1506.5,-263 1506.5,-282 1653.5,-282 1653.5,-263 1506.5,-263"/>
<text text-anchor="middle" x="1580" y="-270" font-family="Helvetica,sans-Serif" font-size="10.00">Cpl/Container/RingBufferMP.h</text>
</a>
</g>
</g>
<!-- Node27&#45;&gt;Node28 -->
<g id="edge42" class="edge"><title>Node27&#45;&gt;Node28</title>
<path fill="none" stroke="midnightblue" d="M1373.29,-322.114C1422.39,-310.565 1498.95,-292.561 1543.82,-282.009"/>
<polygon fill="midnightblue" stroke="midnightblue" points="1372.18,-318.779 1363.25,-324.475 1373.78,-325.593 1372.18,-318.779"/>
</g>
<!-- Node30 -->
<g id="node30" class="node"><title>Node30</title>
<g id="a_node30"><a xlink:href="_air_filter_monitor_8h.html" target="_top" xlink:title=" ">
<polygon fill="white" stroke="black" points="1356,-257.5 1356,-287.5 1488,-287.5 1488,-257.5 1356,-257.5"/>
<text text-anchor="start" x="1364" y="-275.5" font-family="Helvetica,sans-Serif" font-size="10.00">Storm/Component/AirFilter</text>
<text text-anchor="middle" x="1422" y="-264.5" font-family="Helvetica,sans-Serif" font-size="10.00">Monitor.h</text>
</a>
</g>
</g>
<!-- Node27&#45;&gt;Node30 -->
<g id="edge44" class="edge"><title>Node27&#45;&gt;Node30</title>
<path fill="none" stroke="midnightblue" d="M1349.34,-319.008C1364.49,-309.518 1384.45,-297.02 1399.61,-287.523"/>
<polygon fill="midnightblue" stroke="midnightblue" points="1347.23,-316.201 1340.61,-324.475 1350.94,-322.133 1347.23,-316.201"/>
</g>
<!-- Node29 -->
<g id="node29" class="node"><title>Node29</title>
<g id="a_node29"><a xlink:href="_indexed_entry_server_8h.html" target="_top" xlink:title=" ">
<polygon fill="white" stroke="black" points="1671.5,-190.5 1671.5,-220.5 1810.5,-220.5 1810.5,-190.5 1671.5,-190.5"/>
<text text-anchor="start" x="1679.5" y="-208.5" font-family="Helvetica,sans-Serif" font-size="10.00">Cpl/Persistent/IndexedEntry</text>
<text text-anchor="middle" x="1741" y="-197.5" font-family="Helvetica,sans-Serif" font-size="10.00">Server.h</text>
</a>
</g>
</g>
<!-- Node28&#45;&gt;Node29 -->
<g id="edge43" class="edge"><title>Node28&#45;&gt;Node29</title>
<path fill="none" stroke="midnightblue" d="M1610.82,-259.058C1638.09,-248.047 1677.86,-231.992 1706.25,-220.528"/>
<polygon fill="midnightblue" stroke="midnightblue" points="1609.34,-255.879 1601.38,-262.869 1611.96,-262.37 1609.34,-255.879"/>
</g>
<!-- Node30&#45;&gt;Node7 -->
<g id="edge45" class="edge"><title>Node30&#45;&gt;Node7</title>
<path fill="none" stroke="midnightblue" d="M1495.51,-255.251C1551.2,-242.587 1618.87,-226.295 1623,-221 1631.47,-210.135 1630.75,-201.389 1623,-190 1531.6,-55.7341 1441.34,-92.1922 1283,-56 1183.59,-33.2778 889.069,-19.2396 750.129,-13.7062"/>
<polygon fill="midnightblue" stroke="midnightblue" points="1494.6,-251.867 1485.62,-257.489 1496.15,-258.694 1494.6,-251.867"/>
</g>
<!-- Node32 -->
<g id="node32" class="node"><title>Node32</title>
<g id="a_node32"><a xlink:href="_indexed_entry_record_8h.html" target="_top" xlink:title=" ">
<polygon fill="white" stroke="black" points="1671.5,-257.5 1671.5,-287.5 1810.5,-287.5 1810.5,-257.5 1671.5,-257.5"/>
<text text-anchor="start" x="1679.5" y="-275.5" font-family="Helvetica,sans-Serif" font-size="10.00">Cpl/Persistent/IndexedEntry</text>
<text text-anchor="middle" x="1741" y="-264.5" font-family="Helvetica,sans-Serif" font-size="10.00">Record.h</text>
</a>
</g>
</g>
<!-- Node31&#45;&gt;Node32 -->
<g id="edge48" class="edge"><title>Node31&#45;&gt;Node32</title>
<path fill="none" stroke="midnightblue" d="M1500.65,-322.476C1548.38,-312.75 1619.64,-298.23 1672.18,-287.523"/>
<polygon fill="midnightblue" stroke="midnightblue" points="1499.94,-319.049 1490.84,-324.475 1501.33,-325.908 1499.94,-319.049"/>
</g>
<!-- Node32&#45;&gt;Node29 -->
<g id="edge49" class="edge"><title>Node32&#45;&gt;Node29</title>
<path fill="none" stroke="midnightblue" d="M1741,-247.108C1741,-238.154 1741,-228.323 1741,-220.577"/>
<polygon fill="midnightblue" stroke="midnightblue" points="1737.5,-247.396 1741,-257.396 1744.5,-247.396 1737.5,-247.396"/>
</g>
</g>
</svg>
