<?xml version="1.0" encoding="UTF-8" standalone="no"?>
<!DOCTYPE svg PUBLIC "-//W3C//DTD SVG 1.1//EN"
 "http://www.w3.org/Graphics/SVG/1.1/DTD/svg11.dtd">
<!-- Generated by graphviz version 2.38.0 (20140413.2041)
 -->
<!-- Title: Storm/Type/OduType.h Pages: 1 -->
<svg width="1569pt" height="464pt"
 viewBox="0.00 0.00 1568.83 464.00" xmlns="http://www.w3.org/2000/svg" xmlns:xlink="http://www.w3.org/1999/xlink">
<g id="graph0" class="graph" transform="scale(1 1) rotate(0) translate(4 460)">
<title>Storm/Type/OduType.h</title>
<polygon fill="white" stroke="none" points="-4,4 -4,-460 1564.83,-460 1564.83,4 -4,4"/>
<!-- Node1 -->
<g id="node1" class="node"><title>Node1</title>
<g id="a_node1"><a xlink:title=" ">
<polygon fill="#bfbfbf" stroke="black" points="459.83,-436.5 459.83,-455.5 578.83,-455.5 578.83,-436.5 459.83,-436.5"/>
<text text-anchor="middle" x="519.33" y="-443.5" font-family="Helvetica,sans-Serif" font-size="10.00">Storm/Type/OduType.h</text>
</a>
</g>
</g>
<!-- Node2 -->
<g id="node2" class="node"><title>Node2</title>
<g id="a_node2"><a xlink:href="_mp_equipment_config_8h.html" target="_top" xlink:title=" ">
<polygon fill="white" stroke="black" points="297.33,-324.5 297.33,-343.5 457.33,-343.5 457.33,-324.5 297.33,-324.5"/>
<text text-anchor="middle" x="377.33" y="-331.5" font-family="Helvetica,sans-Serif" font-size="10.00">Storm/Dm/MpEquipmentConfig.h</text>
</a>
</g>
</g>
<!-- Node1&#45;&gt;Node2 -->
<g id="edge1" class="edge"><title>Node1&#45;&gt;Node2</title>
<path fill="none" stroke="midnightblue" d="M491.633,-431.694C475.904,-423.545 456.24,-412.332 440.33,-400 417.724,-382.477 395.419,-357.017 384.412,-343.761"/>
<polygon fill="midnightblue" stroke="midnightblue" points="490.346,-434.965 500.849,-436.354 493.504,-428.718 490.346,-434.965"/>
</g>
<!-- Node10 -->
<g id="node10" class="node"><title>Node10</title>
<g id="a_node10"><a xlink:href="_mp_system_config_8h.html" target="_top" xlink:title=" ">
<polygon fill="white" stroke="black" points="543.83,-324.5 543.83,-343.5 690.83,-343.5 690.83,-324.5 543.83,-324.5"/>
<text text-anchor="middle" x="617.33" y="-331.5" font-family="Helvetica,sans-Serif" font-size="10.00">Storm/Dm/MpSystemConfig.h</text>
</a>
</g>
</g>
<!-- Node1&#45;&gt;Node10 -->
<g id="edge9" class="edge"><title>Node1&#45;&gt;Node10</title>
<path fill="none" stroke="midnightblue" d="M553.877,-432.379C569.465,-425.092 586.904,-414.461 598.33,-400 611.741,-383.026 615.689,-356.873 616.849,-343.505"/>
<polygon fill="midnightblue" stroke="midnightblue" points="552.24,-429.274 544.48,-436.488 555.045,-435.688 552.24,-429.274"/>
</g>
<!-- Node23 -->
<g id="node23" class="node"><title>Node23</title>
<g id="a_node23"><a xlink:href="_system_config_8h.html" target="_top" xlink:title=" ">
<polygon fill="white" stroke="black" points="449.33,-380.5 449.33,-399.5 589.33,-399.5 589.33,-380.5 449.33,-380.5"/>
<text text-anchor="middle" x="519.33" y="-387.5" font-family="Helvetica,sans-Serif" font-size="10.00">Storm/Type/SystemConfig.h</text>
</a>
</g>
</g>
<!-- Node1&#45;&gt;Node23 -->
<g id="edge38" class="edge"><title>Node1&#45;&gt;Node23</title>
<path fill="none" stroke="midnightblue" d="M519.33,-425.805C519.33,-416.91 519.33,-406.78 519.33,-399.751"/>
<polygon fill="midnightblue" stroke="midnightblue" points="515.83,-426.083 519.33,-436.083 522.83,-426.083 515.83,-426.083"/>
</g>
<!-- Node3 -->
<g id="node3" class="node"><title>Node3</title>
<g id="a_node3"><a xlink:href="_component_2_operating_mode_8h.html" target="_top" xlink:title=" ">
<polygon fill="white" stroke="black" points="138.33,-257.5 138.33,-287.5 278.33,-287.5 278.33,-257.5 138.33,-257.5"/>
<text text-anchor="start" x="146.33" y="-275.5" font-family="Helvetica,sans-Serif" font-size="10.00">Storm/Component/Operating</text>
<text text-anchor="middle" x="208.33" y="-264.5" font-family="Helvetica,sans-Serif" font-size="10.00">Mode.h</text>
</a>
</g>
</g>
<!-- Node2&#45;&gt;Node3 -->
<g id="edge2" class="edge"><title>Node2&#45;&gt;Node3</title>
<path fill="none" stroke="midnightblue" d="M343.539,-321.103C316.04,-311.422 277.17,-297.737 248.16,-287.523"/>
<polygon fill="midnightblue" stroke="midnightblue" points="342.521,-324.456 353.116,-324.475 344.846,-317.853 342.521,-324.456"/>
</g>
<!-- Node5 -->
<g id="node5" class="node"><title>Node5</title>
<g id="a_node5"><a xlink:href="_model_points_8h.html" target="_top" xlink:title="This file defines all of the Model Points for the Thermostat Application.">
<polygon fill="white" stroke="black" points="296.83,-263 296.83,-282 457.83,-282 457.83,-263 296.83,-263"/>
<text text-anchor="middle" x="377.33" y="-270" font-family="Helvetica,sans-Serif" font-size="10.00">Storm/Thermostat/ModelPoints.h</text>
</a>
</g>
</g>
<!-- Node2&#45;&gt;Node5 -->
<g id="edge4" class="edge"><title>Node2&#45;&gt;Node5</title>
<path fill="none" stroke="midnightblue" d="M377.33,-314.317C377.33,-303.496 377.33,-290.398 377.33,-282.009"/>
<polygon fill="midnightblue" stroke="midnightblue" points="373.83,-314.475 377.33,-324.475 380.83,-314.475 373.83,-314.475"/>
</g>
<!-- Node4 -->
<g id="node4" class="node"><title>Node4</title>
<g id="a_node4"><a xlink:href="_algorithm_8h.html" target="_top" xlink:title=" ">
<polygon fill="white" stroke="black" points="802.33,-0.5 802.33,-19.5 950.33,-19.5 950.33,-0.5 802.33,-0.5"/>
<text text-anchor="middle" x="876.33" y="-7.5" font-family="Helvetica,sans-Serif" font-size="10.00">Storm/Thermostat/Algorithm.h</text>
</a>
</g>
</g>
<!-- Node3&#45;&gt;Node4 -->
<g id="edge3" class="edge"><title>Node3&#45;&gt;Node4</title>
<path fill="none" stroke="midnightblue" d="M128.139,-266.144C58.6385,-258.188 -25.8186,-238.509 8.3299,-190 99.8338,-60.0153 609.092,-23.2486 802.13,-13.9015"/>
<polygon fill="midnightblue" stroke="midnightblue" points="127.951,-269.644 138.268,-267.235 128.701,-262.684 127.951,-269.644"/>
</g>
<!-- Node6 -->
<g id="node6" class="node"><title>Node6</title>
<g id="a_node6"><a xlink:href="_installer_record_8h_source.html" target="_top" xlink:title=" ">
<polygon fill="white" stroke="black" points="450.83,-190.5 450.83,-220.5 569.83,-220.5 569.83,-190.5 450.83,-190.5"/>
<text text-anchor="start" x="458.83" y="-208.5" font-family="Helvetica,sans-Serif" font-size="10.00">Storm/Thermostat/Main</text>
<text text-anchor="middle" x="510.33" y="-197.5" font-family="Helvetica,sans-Serif" font-size="10.00">/InstallerRecord.h</text>
</a>
</g>
</g>
<!-- Node5&#45;&gt;Node6 -->
<g id="edge5" class="edge"><title>Node5&#45;&gt;Node6</title>
<path fill="none" stroke="midnightblue" d="M403.984,-258.474C426.468,-247.485 458.581,-231.791 481.626,-220.528"/>
<polygon fill="midnightblue" stroke="midnightblue" points="402.439,-255.333 394.991,-262.869 405.513,-261.622 402.439,-255.333"/>
</g>
<!-- Node7 -->
<g id="node7" class="node"><title>Node7</title>
<g id="a_node7"><a xlink:href="_run_time_record_8h_source.html" target="_top" xlink:title=" ">
<polygon fill="white" stroke="black" points="17.8299,-190.5 17.8299,-220.5 136.83,-220.5 136.83,-190.5 17.8299,-190.5"/>
<text text-anchor="start" x="25.8299" y="-208.5" font-family="Helvetica,sans-Serif" font-size="10.00">Storm/Thermostat/Main</text>
<text text-anchor="middle" x="77.3299" y="-197.5" font-family="Helvetica,sans-Serif" font-size="10.00">/RunTimeRecord.h</text>
</a>
</g>
</g>
<!-- Node5&#45;&gt;Node7 -->
<g id="edge6" class="edge"><title>Node5&#45;&gt;Node7</title>
<path fill="none" stroke="midnightblue" d="M327.744,-260.756C275.357,-249.406 192.751,-231.508 136.874,-219.401"/>
<polygon fill="midnightblue" stroke="midnightblue" points="327.287,-264.239 337.802,-262.936 328.77,-257.397 327.287,-264.239"/>
</g>
<!-- Node8 -->
<g id="node8" class="node"><title>Node8</title>
<g id="a_node8"><a xlink:href="_user_record_8h_source.html" target="_top" xlink:title=" ">
<polygon fill="white" stroke="black" points="154.83,-190.5 154.83,-220.5 273.83,-220.5 273.83,-190.5 154.83,-190.5"/>
<text text-anchor="start" x="162.83" y="-208.5" font-family="Helvetica,sans-Serif" font-size="10.00">Storm/Thermostat/Main</text>
<text text-anchor="middle" x="214.33" y="-197.5" font-family="Helvetica,sans-Serif" font-size="10.00">/UserRecord.h</text>
</a>
</g>
</g>
<!-- Node5&#45;&gt;Node8 -->
<g id="edge7" class="edge"><title>Node5&#45;&gt;Node8</title>
<path fill="none" stroke="midnightblue" d="M346.129,-259.058C318.517,-248.047 278.256,-231.992 249.508,-220.528"/>
<polygon fill="midnightblue" stroke="midnightblue" points="345.1,-262.415 355.685,-262.869 347.693,-255.913 345.1,-262.415"/>
</g>
<!-- Node9 -->
<g id="node9" class="node"><title>Node9</title>
<g id="a_node9"><a xlink:href="_event_monitor_8h_source.html" target="_top" xlink:title=" ">
<polygon fill="white" stroke="black" points="292.33,-190.5 292.33,-220.5 432.33,-220.5 432.33,-190.5 292.33,-190.5"/>
<text text-anchor="start" x="300.33" y="-208.5" font-family="Helvetica,sans-Serif" font-size="10.00">Storm/Thermostat/Ui</text>
<text text-anchor="middle" x="362.33" y="-197.5" font-family="Helvetica,sans-Serif" font-size="10.00">/PicoDisplay/EventMonitor.h</text>
</a>
</g>
</g>
<!-- Node5&#45;&gt;Node9 -->
<g id="edge8" class="edge"><title>Node5&#45;&gt;Node9</title>
<path fill="none" stroke="midnightblue" d="M373,-252.739C370.635,-242.487 367.753,-230.001 365.581,-220.589"/>
<polygon fill="midnightblue" stroke="midnightblue" points="369.648,-253.777 375.307,-262.734 376.469,-252.203 369.648,-253.777"/>
</g>
<!-- Node10&#45;&gt;Node3 -->
<g id="edge30" class="edge"><title>Node10&#45;&gt;Node3</title>
<path fill="none" stroke="midnightblue" d="M537.927,-323.213C470.989,-314.713 372.731,-301.653 287.33,-288 284.438,-287.538 281.489,-287.054 278.512,-286.555"/>
<polygon fill="midnightblue" stroke="midnightblue" points="537.622,-326.702 547.982,-324.485 538.501,-319.758 537.622,-326.702"/>
</g>
<!-- Node10&#45;&gt;Node5 -->
<g id="edge37" class="edge"><title>Node10&#45;&gt;Node5</title>
<path fill="none" stroke="midnightblue" d="M573.126,-322.041C526.533,-310.49 454.127,-292.539 411.652,-282.009"/>
<polygon fill="midnightblue" stroke="midnightblue" points="572.395,-325.466 582.944,-324.475 574.08,-318.672 572.395,-325.466"/>
</g>
<!-- Node11 -->
<g id="node11" class="node"><title>Node11</title>
<g id="a_node11"><a xlink:href="_control_8h.html" target="_top" xlink:title=" ">
<polygon fill="white" stroke="black" points="841.83,-263 841.83,-282 978.83,-282 978.83,-263 841.83,-263"/>
<text text-anchor="middle" x="910.33" y="-270" font-family="Helvetica,sans-Serif" font-size="10.00">Storm/Component/Control.h</text>
</a>
</g>
</g>
<!-- Node10&#45;&gt;Node11 -->
<g id="edge10" class="edge"><title>Node10&#45;&gt;Node11</title>
<path fill="none" stroke="midnightblue" d="M669.164,-322.474C725.948,-310.943 815.921,-292.672 868.428,-282.009"/>
<polygon fill="midnightblue" stroke="midnightblue" points="668.413,-319.055 659.31,-324.475 669.806,-325.915 668.413,-319.055"/>
</g>
<!-- Node19 -->
<g id="node19" class="node"><title>Node19</title>
<g id="a_node19"><a xlink:href="_fan_control_8h.html" target="_top" xlink:title=" ">
<polygon fill="white" stroke="black" points="391.33,-62 391.33,-81 545.33,-81 545.33,-62 391.33,-62"/>
<text text-anchor="middle" x="468.33" y="-69" font-family="Helvetica,sans-Serif" font-size="10.00">Storm/Component/FanControl.h</text>
</a>
</g>
</g>
<!-- Node10&#45;&gt;Node19 -->
<g id="edge26" class="edge"><title>Node10&#45;&gt;Node19</title>
<path fill="none" stroke="midnightblue" d="M615.158,-314.28C611.237,-285.876 601.158,-230.874 578.33,-190 551.76,-142.427 501.844,-99.1532 479.565,-81.2316"/>
<polygon fill="midnightblue" stroke="midnightblue" points="611.711,-314.922 616.445,-324.4 618.655,-314.038 611.711,-314.922"/>
</g>
<!-- Node20 -->
<g id="node20" class="node"><title>Node20</title>
<g id="a_node20"><a xlink:href="_component_2_hvac_relay_outputs_8h.html" target="_top" xlink:title=" ">
<polygon fill="white" stroke="black" points="563.33,-56.5 563.33,-86.5 709.33,-86.5 709.33,-56.5 563.33,-56.5"/>
<text text-anchor="start" x="571.33" y="-74.5" font-family="Helvetica,sans-Serif" font-size="10.00">Storm/Component/HvacRelay</text>
<text text-anchor="middle" x="636.33" y="-63.5" font-family="Helvetica,sans-Serif" font-size="10.00">Outputs.h</text>
</a>
</g>
</g>
<!-- Node10&#45;&gt;Node20 -->
<g id="edge28" class="edge"><title>Node10&#45;&gt;Node20</title>
<path fill="none" stroke="midnightblue" d="M618.711,-314.06C622.345,-264.234 632.112,-130.33 635.305,-86.5575"/>
<polygon fill="midnightblue" stroke="midnightblue" points="615.199,-314.105 617.962,-324.333 622.18,-314.614 615.199,-314.105"/>
</g>
<!-- Node21 -->
<g id="node21" class="node"><title>Node21</title>
<g id="a_node21"><a xlink:href="_pi_8h.html" target="_top" xlink:title=" ">
<polygon fill="white" stroke="black" points="664.33,-263 664.33,-282 780.33,-282 780.33,-263 664.33,-263"/>
<text text-anchor="middle" x="722.33" y="-270" font-family="Helvetica,sans-Serif" font-size="10.00">Storm/Component/Pi.h</text>
</a>
</g>
</g>
<!-- Node10&#45;&gt;Node21 -->
<g id="edge31" class="edge"><title>Node10&#45;&gt;Node21</title>
<path fill="none" stroke="midnightblue" d="M641.329,-319.401C661.632,-307.896 690.094,-291.767 707.314,-282.009"/>
<polygon fill="midnightblue" stroke="midnightblue" points="639.349,-316.5 632.374,-324.475 642.8,-322.59 639.349,-316.5"/>
</g>
<!-- Node22 -->
<g id="node22" class="node"><title>Node22</title>
<g id="a_node22"><a xlink:href="_pi_pre_process_8h.html" target="_top" xlink:title=" ">
<polygon fill="white" stroke="black" points="1393.83,-129 1393.83,-148 1560.83,-148 1560.83,-129 1393.83,-129"/>
<text text-anchor="middle" x="1477.33" y="-136" font-family="Helvetica,sans-Serif" font-size="10.00">Storm/Component/PiPreProcess.h</text>
</a>
</g>
</g>
<!-- Node10&#45;&gt;Node22 -->
<g id="edge33" class="edge"><title>Node10&#45;&gt;Node22</title>
<path fill="none" stroke="midnightblue" d="M701.343,-326.957C776.782,-320.544 890.268,-308.449 987.33,-288 1170.86,-249.334 1384.73,-173.525 1454.24,-148.068"/>
<polygon fill="midnightblue" stroke="midnightblue" points="700.63,-323.504 690.956,-327.824 701.213,-330.48 700.63,-323.504"/>
</g>
<!-- Node11&#45;&gt;Node4 -->
<g id="edge25" class="edge"><title>Node11&#45;&gt;Node4</title>
<path fill="none" stroke="midnightblue" d="M907.878,-252.716C901.099,-200.775 882.283,-56.6148 877.465,-19.6999"/>
<polygon fill="midnightblue" stroke="midnightblue" points="904.434,-253.37 909.199,-262.833 911.375,-252.464 904.434,-253.37"/>
</g>
<!-- Node12 -->
<g id="node12" class="node"><title>Node12</title>
<g id="a_node12"><a xlink:href="_cooling_8h.html" target="_top" xlink:title=" ">
<polygon fill="white" stroke="black" points="904.83,-123.5 904.83,-153.5 1049.83,-153.5 1049.83,-123.5 904.83,-123.5"/>
<text text-anchor="start" x="912.83" y="-141.5" font-family="Helvetica,sans-Serif" font-size="10.00">Storm/Component/Equipment</text>
<text text-anchor="middle" x="977.33" y="-130.5" font-family="Helvetica,sans-Serif" font-size="10.00">/Cooling.h</text>
</a>
</g>
</g>
<!-- Node11&#45;&gt;Node12 -->
<g id="edge11" class="edge"><title>Node11&#45;&gt;Node12</title>
<path fill="none" stroke="midnightblue" d="M919.417,-253.598C932.86,-227.111 957.782,-178.012 970.08,-153.783"/>
<polygon fill="midnightblue" stroke="midnightblue" points="916.131,-252.338 914.726,-262.839 922.373,-255.506 916.131,-252.338"/>
</g>
<!-- Node13 -->
<g id="node13" class="node"><title>Node13</title>
<g id="a_node13"><a xlink:href="_indoor_heating_8h.html" target="_top" xlink:title=" ">
<polygon fill="white" stroke="black" points="1067.83,-123.5 1067.83,-153.5 1212.83,-153.5 1212.83,-123.5 1067.83,-123.5"/>
<text text-anchor="start" x="1075.83" y="-141.5" font-family="Helvetica,sans-Serif" font-size="10.00">Storm/Component/Equipment</text>
<text text-anchor="middle" x="1140.33" y="-130.5" font-family="Helvetica,sans-Serif" font-size="10.00">/IndoorHeating.h</text>
</a>
</g>
</g>
<!-- Node11&#45;&gt;Node13 -->
<g id="edge13" class="edge"><title>Node11&#45;&gt;Node13</title>
<path fill="none" stroke="midnightblue" d="M932.335,-257.537C958.681,-240.955 1004.27,-212.688 1044.33,-190 1066.94,-177.192 1093.07,-163.518 1112.36,-153.633"/>
<polygon fill="midnightblue" stroke="midnightblue" points="930.448,-254.589 923.86,-262.886 934.184,-260.509 930.448,-254.589"/>
</g>
<!-- Node14 -->
<g id="node14" class="node"><title>Node14</title>
<g id="a_node14"><a xlink:href="_off_8h.html" target="_top" xlink:title=" ">
<polygon fill="white" stroke="black" points="702.83,-123.5 702.83,-153.5 847.83,-153.5 847.83,-123.5 702.83,-123.5"/>
<text text-anchor="start" x="710.83" y="-141.5" font-family="Helvetica,sans-Serif" font-size="10.00">Storm/Component/Equipment</text>
<text text-anchor="middle" x="775.33" y="-130.5" font-family="Helvetica,sans-Serif" font-size="10.00">/Off.h</text>
</a>
</g>
</g>
<!-- Node11&#45;&gt;Node14 -->
<g id="edge15" class="edge"><title>Node11&#45;&gt;Node14</title>
<path fill="none" stroke="midnightblue" d="M894.129,-255.659C867.617,-229.736 815.375,-178.656 789.938,-153.783"/>
<polygon fill="midnightblue" stroke="midnightblue" points="891.875,-258.35 901.472,-262.839 896.769,-253.345 891.875,-258.35"/>
</g>
<!-- Node15 -->
<g id="node15" class="node"><title>Node15</title>
<g id="a_node15"><a xlink:href="_stage_api_8h.html" target="_top" xlink:title=" ">
<polygon fill="white" stroke="black" points="1053.83,-190.5 1053.83,-220.5 1198.83,-220.5 1198.83,-190.5 1053.83,-190.5"/>
<text text-anchor="start" x="1061.83" y="-208.5" font-family="Helvetica,sans-Serif" font-size="10.00">Storm/Component/Equipment</text>
<text text-anchor="middle" x="1126.33" y="-197.5" font-family="Helvetica,sans-Serif" font-size="10.00">/StageApi.h</text>
</a>
</g>
</g>
<!-- Node11&#45;&gt;Node15 -->
<g id="edge17" class="edge"><title>Node11&#45;&gt;Node15</title>
<path fill="none" stroke="midnightblue" d="M948.823,-259.917C985.448,-248.895 1040.62,-232.294 1079.71,-220.528"/>
<polygon fill="midnightblue" stroke="midnightblue" points="947.58,-256.635 939.013,-262.869 949.597,-263.338 947.58,-256.635"/>
</g>
<!-- Node12&#45;&gt;Node4 -->
<g id="edge12" class="edge"><title>Node12&#45;&gt;Node4</title>
<path fill="none" stroke="midnightblue" d="M959.661,-115.37C937.061,-87.0638 898.978,-39.3661 883.347,-19.7885"/>
<polygon fill="midnightblue" stroke="midnightblue" points="957.161,-117.848 966.135,-123.479 962.631,-113.48 957.161,-117.848"/>
</g>
<!-- Node13&#45;&gt;Node4 -->
<g id="edge14" class="edge"><title>Node13&#45;&gt;Node4</title>
<path fill="none" stroke="midnightblue" d="M1101.88,-119.078C1044.02,-91.3533 936.819,-39.9844 894.341,-19.6303"/>
<polygon fill="midnightblue" stroke="midnightblue" points="1100.54,-122.314 1111.07,-123.479 1103.56,-116.001 1100.54,-122.314"/>
</g>
<!-- Node14&#45;&gt;Node4 -->
<g id="edge16" class="edge"><title>Node14&#45;&gt;Node4</title>
<path fill="none" stroke="midnightblue" d="M792.999,-115.37C815.599,-87.0638 853.682,-39.3661 869.313,-19.7885"/>
<polygon fill="midnightblue" stroke="midnightblue" points="790.029,-113.48 786.525,-123.479 795.499,-117.848 790.029,-113.48"/>
</g>
<!-- Node15&#45;&gt;Node12 -->
<g id="edge18" class="edge"><title>Node15&#45;&gt;Node12</title>
<path fill="none" stroke="midnightblue" d="M1084.54,-186.269C1060.81,-175.916 1031.55,-163.153 1009.6,-153.577"/>
<polygon fill="midnightblue" stroke="midnightblue" points="1083.43,-189.605 1094,-190.396 1086.23,-183.189 1083.43,-189.605"/>
</g>
<!-- Node15&#45;&gt;Node13 -->
<g id="edge19" class="edge"><title>Node15&#45;&gt;Node13</title>
<path fill="none" stroke="midnightblue" d="M1131.52,-180.403C1133.47,-171.37 1135.61,-161.408 1137.3,-153.577"/>
<polygon fill="midnightblue" stroke="midnightblue" points="1128.05,-179.883 1129.37,-190.396 1134.89,-181.357 1128.05,-179.883"/>
</g>
<!-- Node16 -->
<g id="node16" class="node"><title>Node16</title>
<g id="a_node16"><a xlink:href="_storm_2_component_2_equipment_2_stage_2_basic_8h.html" target="_top" xlink:title=" ">
<polygon fill="white" stroke="black" points="1230.83,-123.5 1230.83,-153.5 1375.83,-153.5 1375.83,-123.5 1230.83,-123.5"/>
<text text-anchor="start" x="1238.83" y="-141.5" font-family="Helvetica,sans-Serif" font-size="10.00">Storm/Component/Equipment</text>
<text text-anchor="middle" x="1303.33" y="-130.5" font-family="Helvetica,sans-Serif" font-size="10.00">/Stage/Basic.h</text>
</a>
</g>
</g>
<!-- Node15&#45;&gt;Node16 -->
<g id="edge20" class="edge"><title>Node15&#45;&gt;Node16</title>
<path fill="none" stroke="midnightblue" d="M1174.48,-186.819C1202.93,-176.371 1238.46,-163.323 1265,-153.577"/>
<polygon fill="midnightblue" stroke="midnightblue" points="1172.92,-183.663 1164.74,-190.396 1175.33,-190.234 1172.92,-183.663"/>
</g>
<!-- Node17 -->
<g id="node17" class="node"><title>Node17</title>
<g id="a_node17"><a xlink:href="_basic_cooling_8h.html" target="_top" xlink:title=" ">
<polygon fill="white" stroke="black" points="1248.83,-56.5 1248.83,-86.5 1393.83,-86.5 1393.83,-56.5 1248.83,-56.5"/>
<text text-anchor="start" x="1256.83" y="-74.5" font-family="Helvetica,sans-Serif" font-size="10.00">Storm/Component/Equipment</text>
<text text-anchor="middle" x="1321.33" y="-63.5" font-family="Helvetica,sans-Serif" font-size="10.00">/Stage/BasicCooling.h</text>
</a>
</g>
</g>
<!-- Node16&#45;&gt;Node17 -->
<g id="edge21" class="edge"><title>Node16&#45;&gt;Node17</title>
<path fill="none" stroke="midnightblue" d="M1309.92,-113.697C1312.44,-104.587 1315.24,-94.4929 1317.43,-86.5765"/>
<polygon fill="midnightblue" stroke="midnightblue" points="1306.53,-112.825 1307.24,-123.396 1313.28,-114.693 1306.53,-112.825"/>
</g>
<!-- Node18 -->
<g id="node18" class="node"><title>Node18</title>
<g id="a_node18"><a xlink:href="_basic_indoor_heat_8h.html" target="_top" xlink:title=" ">
<polygon fill="white" stroke="black" points="1085.83,-56.5 1085.83,-86.5 1230.83,-86.5 1230.83,-56.5 1085.83,-56.5"/>
<text text-anchor="start" x="1093.83" y="-74.5" font-family="Helvetica,sans-Serif" font-size="10.00">Storm/Component/Equipment</text>
<text text-anchor="middle" x="1158.33" y="-63.5" font-family="Helvetica,sans-Serif" font-size="10.00">/Stage/BasicIndoorHeat.h</text>
</a>
</g>
</g>
<!-- Node16&#45;&gt;Node18 -->
<g id="edge23" class="edge"><title>Node16&#45;&gt;Node18</title>
<path fill="none" stroke="midnightblue" d="M1262.66,-119.269C1239.57,-108.916 1211.09,-96.1528 1189.73,-86.5765"/>
<polygon fill="midnightblue" stroke="midnightblue" points="1261.31,-122.499 1271.87,-123.396 1264.17,-116.112 1261.31,-122.499"/>
</g>
<!-- Node17&#45;&gt;Node4 -->
<g id="edge22" class="edge"><title>Node17&#45;&gt;Node4</title>
<path fill="none" stroke="midnightblue" d="M1238.58,-55.9354C1132.68,-40.192 1021.77,-27.062 950.524,-19.0613"/>
<polygon fill="midnightblue" stroke="midnightblue" points="1238.08,-59.3987 1248.48,-57.4174 1239.11,-52.4758 1238.08,-59.3987"/>
</g>
<!-- Node18&#45;&gt;Node4 -->
<g id="edge24" class="edge"><title>Node18&#45;&gt;Node4</title>
<path fill="none" stroke="midnightblue" d="M1081.76,-54.3445C1028.48,-43.1022 959.557,-28.5604 916.646,-19.5064"/>
<polygon fill="midnightblue" stroke="midnightblue" points="1081.35,-57.8347 1091.86,-56.4747 1082.79,-50.9855 1081.35,-57.8347"/>
</g>
<!-- Node19&#45;&gt;Node4 -->
<g id="edge27" class="edge"><title>Node19&#45;&gt;Node4</title>
<path fill="none" stroke="midnightblue" d="M527.453,-60.3062C536.45,-58.8202 545.632,-57.3408 554.33,-56 643.31,-42.2839 746.409,-28.1909 811.492,-19.5151"/>
<polygon fill="midnightblue" stroke="midnightblue" points="526.697,-56.8838 517.408,-61.9797 527.847,-63.7886 526.697,-56.8838"/>
</g>
<!-- Node20&#45;&gt;Node4 -->
<g id="edge29" class="edge"><title>Node20&#45;&gt;Node4</title>
<path fill="none" stroke="midnightblue" d="M702.629,-54.0633C747.816,-42.8607 805.802,-28.4851 842.018,-19.5064"/>
<polygon fill="midnightblue" stroke="midnightblue" points="701.767,-50.6711 692.903,-56.4747 703.451,-57.4654 701.767,-50.6711"/>
</g>
<!-- Node21&#45;&gt;Node4 -->
<g id="edge32" class="edge"><title>Node21&#45;&gt;Node4</title>
<path fill="none" stroke="midnightblue" d="M711.669,-253.853C695.594,-224.741 669.436,-165.637 693.33,-123 725.925,-64.8353 802.408,-33.2527 845.468,-19.516"/>
<polygon fill="midnightblue" stroke="midnightblue" points="708.812,-255.904 716.836,-262.823 714.878,-252.41 708.812,-255.904"/>
</g>
<!-- Node22&#45;&gt;Node4 -->
<g id="edge36" class="edge"><title>Node22&#45;&gt;Node4</title>
<path fill="none" stroke="midnightblue" d="M1467.04,-120.16C1454.48,-100.762 1431.27,-70.2014 1402.33,-56 1324.78,-17.9506 1076.25,-11.5368 950.578,-10.7999"/>
<polygon fill="midnightblue" stroke="midnightblue" points="1464.23,-122.258 1472.48,-128.903 1470.17,-118.563 1464.23,-122.258"/>
</g>
<!-- Node22&#45;&gt;Node17 -->
<g id="edge34" class="edge"><title>Node22&#45;&gt;Node17</title>
<path fill="none" stroke="midnightblue" d="M1447.12,-124.913C1420.7,-113.906 1382.39,-97.9418 1355,-86.5281"/>
<polygon fill="midnightblue" stroke="midnightblue" points="1446.04,-128.253 1456.61,-128.869 1448.73,-121.792 1446.04,-128.253"/>
</g>
<!-- Node22&#45;&gt;Node18 -->
<g id="edge35" class="edge"><title>Node22&#45;&gt;Node18</title>
<path fill="none" stroke="midnightblue" d="M1425.27,-126.892C1371.34,-115.904 1286.79,-98.6758 1227.33,-86.5592"/>
<polygon fill="midnightblue" stroke="midnightblue" points="1424.8,-130.368 1435.3,-128.936 1426.2,-123.509 1424.8,-130.368"/>
</g>
<!-- Node23&#45;&gt;Node10 -->
<g id="edge39" class="edge"><title>Node23&#45;&gt;Node10</title>
<path fill="none" stroke="midnightblue" d="M543.916,-375.453C562.008,-365.483 586.065,-352.228 601.624,-343.655"/>
<polygon fill="midnightblue" stroke="midnightblue" points="542.145,-372.432 535.075,-380.324 545.523,-378.563 542.145,-372.432"/>
</g>
</g>
</svg>
