<?xml version="1.0" encoding="UTF-8" standalone="no"?>
<!DOCTYPE svg PUBLIC "-//W3C//DTD SVG 1.1//EN"
 "http://www.w3.org/Graphics/SVG/1.1/DTD/svg11.dtd">
<!-- Generated by graphviz version 2.38.0 (20140413.2041)
 -->
<!-- Title: Cpl/Io/Output.h Pages: 1 -->
<svg width="2363pt" height="352pt"
 viewBox="0.00 0.00 2363.00 352.00" xmlns="http://www.w3.org/2000/svg" xmlns:xlink="http://www.w3.org/1999/xlink">
<g id="graph0" class="graph" transform="scale(1 1) rotate(0) translate(4 348)">
<title>Cpl/Io/Output.h</title>
<polygon fill="white" stroke="none" points="-4,4 -4,-348 2359,-348 2359,4 -4,4"/>
<!-- Node1 -->
<g id="node1" class="node"><title>Node1</title>
<g id="a_node1"><a xlink:title=" ">
<polygon fill="#bfbfbf" stroke="black" points="1600,-324.5 1600,-343.5 1683,-343.5 1683,-324.5 1600,-324.5"/>
<text text-anchor="middle" x="1641.5" y="-331.5" font-family="Helvetica,sans-Serif" font-size="10.00">Cpl/Io/Output.h</text>
</a>
</g>
</g>
<!-- Node2 -->
<g id="node2" class="node"><title>Node2</title>
<g id="a_node2"><a xlink:href="_atomic_output_api_8h.html" target="_top" xlink:title=" ">
<polygon fill="white" stroke="black" points="179.5,-263 179.5,-282 307.5,-282 307.5,-263 179.5,-263"/>
<text text-anchor="middle" x="243.5" y="-270" font-family="Helvetica,sans-Serif" font-size="10.00">Cpl/Io/AtomicOutputApi.h</text>
</a>
</g>
</g>
<!-- Node1&#45;&gt;Node2 -->
<g id="edge1" class="edge"><title>Node1&#45;&gt;Node2</title>
<path fill="none" stroke="midnightblue" d="M1589.8,-331.254C1428.89,-325.755 922.625,-307.973 503.5,-288 436.666,-284.815 360.21,-280.466 307.594,-277.364"/>
<polygon fill="midnightblue" stroke="midnightblue" points="1589.78,-334.755 1599.9,-331.598 1590.02,-327.759 1589.78,-334.755"/>
</g>
<!-- Node4 -->
<g id="node4" class="node"><title>Node4</title>
<g id="a_node4"><a xlink:href="_output_api_8h.html" target="_top" xlink:title=" ">
<polygon fill="white" stroke="black" points="1238.5,-263 1238.5,-282 1354.5,-282 1354.5,-263 1238.5,-263"/>
<text text-anchor="middle" x="1296.5" y="-270" font-family="Helvetica,sans-Serif" font-size="10.00">Cpl/Io/File/OutputApi.h</text>
</a>
</g>
</g>
<!-- Node1&#45;&gt;Node4 -->
<g id="edge3" class="edge"><title>Node1&#45;&gt;Node4</title>
<path fill="none" stroke="midnightblue" d="M1589.92,-325.482C1534,-317.137 1442.19,-302.874 1363.5,-288 1354.03,-286.21 1343.84,-284.101 1334.34,-282.054"/>
<polygon fill="midnightblue" stroke="midnightblue" points="1589.53,-328.962 1599.93,-326.97 1590.56,-322.038 1589.53,-328.962"/>
</g>
<!-- Node9 -->
<g id="node9" class="node"><title>Node9</title>
<g id="a_node9"><a xlink:href="_input_output_8h.html" target="_top" xlink:title=" ">
<polygon fill="white" stroke="black" points="512.5,-263 512.5,-282 616.5,-282 616.5,-263 512.5,-263"/>
<text text-anchor="middle" x="564.5" y="-270" font-family="Helvetica,sans-Serif" font-size="10.00">Cpl/Io/InputOutput.h</text>
</a>
</g>
</g>
<!-- Node1&#45;&gt;Node9 -->
<g id="edge8" class="edge"><title>Node1&#45;&gt;Node9</title>
<path fill="none" stroke="midnightblue" d="M1589.84,-330.146C1408.07,-320.104 799.123,-286.462 616.623,-276.38"/>
<polygon fill="midnightblue" stroke="midnightblue" points="1589.76,-333.647 1599.94,-330.704 1590.15,-326.658 1589.76,-333.647"/>
</g>
<!-- Node20 -->
<g id="node20" class="node"><title>Node20</title>
<g id="a_node20"><a xlink:href="_line_writer_8h.html" target="_top" xlink:title=" ">
<polygon fill="white" stroke="black" points="1859,-263 1859,-282 1956,-282 1956,-263 1859,-263"/>
<text text-anchor="middle" x="1907.5" y="-270" font-family="Helvetica,sans-Serif" font-size="10.00">Cpl/Io/LineWriter.h</text>
</a>
</g>
</g>
<!-- Node1&#45;&gt;Node20 -->
<g id="edge21" class="edge"><title>Node1&#45;&gt;Node20</title>
<path fill="none" stroke="midnightblue" d="M1690.46,-322.262C1731.6,-313.214 1791.91,-299.88 1844.5,-288 1852.93,-286.096 1861.99,-284.025 1870.53,-282.061"/>
<polygon fill="midnightblue" stroke="midnightblue" points="1689.45,-318.901 1680.44,-324.466 1690.96,-325.737 1689.45,-318.901"/>
</g>
<!-- Node21 -->
<g id="node21" class="node"><title>Node21</title>
<g id="a_node21"><a xlink:href="_serial_2_r_p2040_2_stdio_2_output_8h.html" target="_top" xlink:title=" ">
<polygon fill="white" stroke="black" points="1974,-257.5 1974,-287.5 2081,-287.5 2081,-257.5 1974,-257.5"/>
<text text-anchor="start" x="1982" y="-275.5" font-family="Helvetica,sans-Serif" font-size="10.00">Cpl/Io/Serial/RP2040</text>
<text text-anchor="middle" x="2027.5" y="-264.5" font-family="Helvetica,sans-Serif" font-size="10.00">/Stdio/Output.h</text>
</a>
</g>
</g>
<!-- Node1&#45;&gt;Node21 -->
<g id="edge22" class="edge"><title>Node1&#45;&gt;Node21</title>
<path fill="none" stroke="midnightblue" d="M1693.38,-327.281C1757.56,-319.866 1870.04,-305.754 1965.5,-288 1968.22,-287.495 1970.99,-286.95 1973.8,-286.378"/>
<polygon fill="midnightblue" stroke="midnightblue" points="1692.66,-323.841 1683.12,-328.457 1693.46,-330.796 1692.66,-323.841"/>
</g>
<!-- Node22 -->
<g id="node22" class="node"><title>Node22</title>
<g id="a_node22"><a xlink:href="_output___8h.html" target="_top" xlink:title=" ">
<polygon fill="white" stroke="black" points="1373,-263 1373,-282 1486,-282 1486,-263 1373,-263"/>
<text text-anchor="middle" x="1429.5" y="-270" font-family="Helvetica,sans-Serif" font-size="10.00">Cpl/Io/Stdio/Output_.h</text>
</a>
</g>
</g>
<!-- Node1&#45;&gt;Node22 -->
<g id="edge23" class="edge"><title>Node1&#45;&gt;Node22</title>
<path fill="none" stroke="midnightblue" d="M1601.41,-321.749C1560.23,-310.189 1497.02,-292.451 1459.82,-282.009"/>
<polygon fill="midnightblue" stroke="midnightblue" points="1600.55,-325.143 1611.13,-324.475 1602.44,-318.403 1600.55,-325.143"/>
</g>
<!-- Node25 -->
<g id="node25" class="node"><title>Node25</title>
<g id="a_node25"><a xlink:href="_tee_output_8h.html" target="_top" xlink:title=" ">
<polygon fill="white" stroke="black" points="2099,-263 2099,-282 2198,-282 2198,-263 2099,-263"/>
<text text-anchor="middle" x="2148.5" y="-270" font-family="Helvetica,sans-Serif" font-size="10.00">Cpl/Io/TeeOutput.h</text>
</a>
</g>
</g>
<!-- Node1&#45;&gt;Node25 -->
<g id="edge28" class="edge"><title>Node1&#45;&gt;Node25</title>
<path fill="none" stroke="midnightblue" d="M1693.29,-330.257C1777.2,-325.266 1947.88,-312.84 2090.5,-288 2099.5,-286.433 2109.16,-284.23 2117.97,-282.013"/>
<polygon fill="midnightblue" stroke="midnightblue" points="1693.03,-326.767 1683.25,-330.844 1693.44,-333.755 1693.03,-326.767"/>
</g>
<!-- Node26 -->
<g id="node26" class="node"><title>Node26</title>
<g id="a_node26"><a xlink:href="_system_2_r_p2040_2_stdio_8h.html" target="_top" xlink:title="This interface returns the Cpl Io Stream for the for SDK&#39;s stdio.">
<polygon fill="white" stroke="black" points="2216,-263 2216,-282 2355,-282 2355,-263 2216,-263"/>
<text text-anchor="middle" x="2285.5" y="-270" font-family="Helvetica,sans-Serif" font-size="10.00">Cpl/System/RP2040/Stdio.h</text>
</a>
</g>
</g>
<!-- Node1&#45;&gt;Node26 -->
<g id="edge29" class="edge"><title>Node1&#45;&gt;Node26</title>
<path fill="none" stroke="midnightblue" d="M1693.32,-330.694C1793.15,-325.851 2018.97,-312.949 2207.5,-288 2219.38,-286.428 2232.19,-284.25 2243.93,-282.059"/>
<polygon fill="midnightblue" stroke="midnightblue" points="1693.02,-327.204 1683.2,-331.178 1693.35,-334.196 1693.02,-327.204"/>
</g>
<!-- Node27 -->
<g id="node27" class="node"><title>Node27</title>
<g id="a_node27"><a xlink:href="_system_2_trace_8h.html" target="_top" xlink:title=" ">
<polygon fill="white" stroke="black" points="1887.5,-196 1887.5,-215 1991.5,-215 1991.5,-196 1887.5,-196"/>
<text text-anchor="middle" x="1939.5" y="-203" font-family="Helvetica,sans-Serif" font-size="10.00">Cpl/System/Trace.h</text>
</a>
</g>
</g>
<!-- Node1&#45;&gt;Node27 -->
<g id="edge30" class="edge"><title>Node1&#45;&gt;Node27</title>
<path fill="none" stroke="midnightblue" d="M1692.95,-324.831C1727.46,-318.044 1773.23,-306.455 1810.5,-288 1830.66,-278.019 1831.78,-269.471 1850.5,-257 1874.75,-240.846 1904.45,-224.664 1922.67,-215.119"/>
<polygon fill="midnightblue" stroke="midnightblue" points="1692.26,-321.401 1683.08,-326.703 1693.56,-328.278 1692.26,-321.401"/>
</g>
<!-- Node32 -->
<g id="node32" class="node"><title>Node32</title>
<g id="a_node32"><a xlink:href="_command_8h.html" target="_top" xlink:title=" ">
<polygon fill="white" stroke="black" points="1504,-263 1504,-282 1621,-282 1621,-263 1504,-263"/>
<text text-anchor="middle" x="1562.5" y="-270" font-family="Helvetica,sans-Serif" font-size="10.00">Cpl/TShell/Command.h</text>
</a>
</g>
</g>
<!-- Node1&#45;&gt;Node32 -->
<g id="edge35" class="edge"><title>Node1&#45;&gt;Node32</title>
<path fill="none" stroke="midnightblue" d="M1621.97,-318.294C1606.82,-306.88 1586.34,-291.458 1573.8,-282.009"/>
<polygon fill="midnightblue" stroke="midnightblue" points="1620.09,-321.255 1630.18,-324.475 1624.3,-315.663 1620.09,-321.255"/>
</g>
<!-- Node46 -->
<g id="node46" class="node"><title>Node46</title>
<g id="a_node46"><a xlink:href="_processor_api_8h.html" target="_top" xlink:title=" ">
<polygon fill="white" stroke="black" points="967,-263 967,-282 1098,-282 1098,-263 967,-263"/>
<text text-anchor="middle" x="1032.5" y="-270" font-family="Helvetica,sans-Serif" font-size="10.00">Cpl/TShell/ProcessorApi.h</text>
</a>
</g>
</g>
<!-- Node1&#45;&gt;Node46 -->
<g id="edge52" class="edge"><title>Node1&#45;&gt;Node46</title>
<path fill="none" stroke="midnightblue" d="M1589.4,-327.91C1478.69,-317.093 1220.21,-291.839 1098.32,-279.931"/>
<polygon fill="midnightblue" stroke="midnightblue" points="1589.35,-331.421 1599.64,-328.91 1590.03,-324.454 1589.35,-331.421"/>
</g>
<!-- Node48 -->
<g id="node48" class="node"><title>Node48</title>
<g id="a_node48"><a xlink:href="_stream_encoder_8h.html" target="_top" xlink:title=" ">
<polygon fill="white" stroke="black" points="1639,-263 1639,-282 1802,-282 1802,-263 1639,-263"/>
<text text-anchor="middle" x="1720.5" y="-270" font-family="Helvetica,sans-Serif" font-size="10.00">Cpl/Text/Frame/StreamEncoder.h</text>
</a>
</g>
</g>
<!-- Node1&#45;&gt;Node48 -->
<g id="edge56" class="edge"><title>Node1&#45;&gt;Node48</title>
<path fill="none" stroke="midnightblue" d="M1661.03,-318.294C1676.18,-306.88 1696.66,-291.458 1709.2,-282.009"/>
<polygon fill="midnightblue" stroke="midnightblue" points="1658.7,-315.663 1652.82,-324.475 1662.91,-321.255 1658.7,-315.663"/>
</g>
<!-- Node3 -->
<g id="node3" class="node"><title>Node3</title>
<g id="a_node3"><a xlink:href="_atomic_output_8h.html" target="_top" xlink:title=" ">
<polygon fill="white" stroke="black" points="0,-196 0,-215 113,-215 113,-196 0,-196"/>
<text text-anchor="middle" x="56.5" y="-203" font-family="Helvetica,sans-Serif" font-size="10.00">Cpl/Io/AtomicOutput.h</text>
</a>
</g>
</g>
<!-- Node2&#45;&gt;Node3 -->
<g id="edge2" class="edge"><title>Node2&#45;&gt;Node3</title>
<path fill="none" stroke="midnightblue" d="M208.794,-259.436C171.697,-246.542 113.821,-226.424 81.137,-215.064"/>
<polygon fill="midnightblue" stroke="midnightblue" points="208.073,-262.891 218.668,-262.869 210.371,-256.279 208.073,-262.891"/>
</g>
<!-- Node5 -->
<g id="node5" class="node"><title>Node5</title>
<g id="a_node5"><a xlink:href="_input_output_api_8h.html" target="_top" xlink:title=" ">
<polygon fill="white" stroke="black" points="1093,-196 1093,-215 1230,-215 1230,-196 1093,-196"/>
<text text-anchor="middle" x="1161.5" y="-203" font-family="Helvetica,sans-Serif" font-size="10.00">Cpl/Io/File/InputOutputApi.h</text>
</a>
</g>
</g>
<!-- Node4&#45;&gt;Node5 -->
<g id="edge4" class="edge"><title>Node4&#45;&gt;Node5</title>
<path fill="none" stroke="midnightblue" d="M1269.38,-258.444C1242.64,-245.569 1202.53,-226.257 1179.5,-215.167"/>
<polygon fill="midnightblue" stroke="midnightblue" points="1268.04,-261.684 1278.57,-262.869 1271.08,-255.377 1268.04,-261.684"/>
</g>
<!-- Node8 -->
<g id="node8" class="node"><title>Node8</title>
<g id="a_node8"><a xlink:href="_file_2_output_8h.html" target="_top" xlink:title=" ">
<polygon fill="white" stroke="black" points="1379,-196 1379,-215 1480,-215 1480,-196 1379,-196"/>
<text text-anchor="middle" x="1429.5" y="-203" font-family="Helvetica,sans-Serif" font-size="10.00">Cpl/Io/File/Output.h</text>
</a>
</g>
</g>
<!-- Node4&#45;&gt;Node8 -->
<g id="edge7" class="edge"><title>Node4&#45;&gt;Node8</title>
<path fill="none" stroke="midnightblue" d="M1323.22,-258.444C1349.56,-245.569 1389.07,-226.257 1411.77,-215.167"/>
<polygon fill="midnightblue" stroke="midnightblue" points="1321.61,-255.333 1314.16,-262.869 1324.68,-261.622 1321.61,-255.333"/>
</g>
<!-- Node6 -->
<g id="node6" class="node"><title>Node6</title>
<g id="a_node6"><a xlink:href="_file_2_input_output_8h.html" target="_top" xlink:title=" ">
<polygon fill="white" stroke="black" points="961,-129 961,-148 1084,-148 1084,-129 961,-129"/>
<text text-anchor="middle" x="1022.5" y="-136" font-family="Helvetica,sans-Serif" font-size="10.00">Cpl/Io/File/InputOutput.h</text>
</a>
</g>
</g>
<!-- Node5&#45;&gt;Node6 -->
<g id="edge5" class="edge"><title>Node5&#45;&gt;Node6</title>
<path fill="none" stroke="midnightblue" d="M1133.94,-191.613C1106.41,-178.739 1064.85,-159.306 1041.03,-148.167"/>
<polygon fill="midnightblue" stroke="midnightblue" points="1132.5,-194.803 1143.04,-195.869 1135.47,-188.462 1132.5,-194.803"/>
</g>
<!-- Node7 -->
<g id="node7" class="node"><title>Node7</title>
<g id="a_node7"><a xlink:href="_file_2_null_8h.html" target="_top" xlink:title=" ">
<polygon fill="white" stroke="black" points="1117,-129 1117,-148 1206,-148 1206,-129 1117,-129"/>
<text text-anchor="middle" x="1161.5" y="-136" font-family="Helvetica,sans-Serif" font-size="10.00">Cpl/Io/File/Null.h</text>
</a>
</g>
</g>
<!-- Node5&#45;&gt;Node7 -->
<g id="edge6" class="edge"><title>Node5&#45;&gt;Node7</title>
<path fill="none" stroke="midnightblue" d="M1161.5,-185.537C1161.5,-173.17 1161.5,-157.62 1161.5,-148.127"/>
<polygon fill="midnightblue" stroke="midnightblue" points="1158,-185.734 1161.5,-195.734 1165,-185.734 1158,-185.734"/>
</g>
<!-- Node10 -->
<g id="node10" class="node"><title>Node10</title>
<g id="a_node10"><a xlink:href="_null_8h.html" target="_top" xlink:title=" ">
<polygon fill="white" stroke="black" points="427.5,-196 427.5,-215 497.5,-215 497.5,-196 427.5,-196"/>
<text text-anchor="middle" x="462.5" y="-203" font-family="Helvetica,sans-Serif" font-size="10.00">Cpl/Io/Null.h</text>
</a>
</g>
</g>
<!-- Node9&#45;&gt;Node10 -->
<g id="edge9" class="edge"><title>Node9&#45;&gt;Node10</title>
<path fill="none" stroke="midnightblue" d="M542.168,-257.269C521.978,-244.403 492.91,-225.879 476.038,-215.127"/>
<polygon fill="midnightblue" stroke="midnightblue" points="540.43,-260.311 550.744,-262.734 544.192,-254.408 540.43,-260.311"/>
</g>
<!-- Node11 -->
<g id="node11" class="node"><title>Node11</title>
<g id="a_node11"><a xlink:href="_serial_2_r_p2040_2_uart_2_input_output_8h.html" target="_top" xlink:title=" ">
<polygon fill="white" stroke="black" points="302,-190.5 302,-220.5 409,-220.5 409,-190.5 302,-190.5"/>
<text text-anchor="start" x="310" y="-208.5" font-family="Helvetica,sans-Serif" font-size="10.00">Cpl/Io/Serial/RP2040</text>
<text text-anchor="middle" x="355.5" y="-197.5" font-family="Helvetica,sans-Serif" font-size="10.00">/Uart/InputOutput.h</text>
</a>
</g>
</g>
<!-- Node9&#45;&gt;Node11 -->
<g id="edge10" class="edge"><title>Node9&#45;&gt;Node11</title>
<path fill="none" stroke="midnightblue" d="M526.799,-259.775C491.361,-248.753 438.275,-232.244 400.606,-220.528"/>
<polygon fill="midnightblue" stroke="midnightblue" points="526.158,-263.241 536.746,-262.869 528.237,-256.557 526.158,-263.241"/>
</g>
<!-- Node12 -->
<g id="node12" class="node"><title>Node12</title>
<g id="a_node12"><a xlink:href="_socket_2_input_output_8h.html" target="_top" xlink:title=" ">
<polygon fill="white" stroke="black" points="631.5,-196 631.5,-215 769.5,-215 769.5,-196 631.5,-196"/>
<text text-anchor="middle" x="700.5" y="-203" font-family="Helvetica,sans-Serif" font-size="10.00">Cpl/Io/Socket/InputOutput.h</text>
</a>
</g>
</g>
<!-- Node9&#45;&gt;Node12 -->
<g id="edge11" class="edge"><title>Node9&#45;&gt;Node12</title>
<path fill="none" stroke="midnightblue" d="M591.818,-258.444C618.755,-245.569 659.162,-226.257 682.366,-215.167"/>
<polygon fill="midnightblue" stroke="midnightblue" points="590.073,-255.398 582.56,-262.869 593.092,-261.714 590.073,-255.398"/>
</g>
<!-- Node16 -->
<g id="node16" class="node"><title>Node16</title>
<g id="a_node16"><a xlink:href="_cpl_2_io_2_stdio_2_input_output___8h.html" target="_top" xlink:title=" ">
<polygon fill="white" stroke="black" points="940,-196 940,-215 1075,-215 1075,-196 940,-196"/>
<text text-anchor="middle" x="1007.5" y="-203" font-family="Helvetica,sans-Serif" font-size="10.00">Cpl/Io/Stdio/InputOutput_.h</text>
</a>
</g>
</g>
<!-- Node9&#45;&gt;Node16 -->
<g id="edge16" class="edge"><title>Node9&#45;&gt;Node16</title>
<path fill="none" stroke="midnightblue" d="M626.73,-262.369C712.449,-249.792 865.711,-227.304 949.269,-215.044"/>
<polygon fill="midnightblue" stroke="midnightblue" points="626.006,-258.938 616.62,-263.853 627.023,-265.864 626.006,-258.938"/>
</g>
<!-- Node17 -->
<g id="node17" class="node"><title>Node17</title>
<g id="a_node17"><a xlink:href="_console_8h.html" target="_top" xlink:title="This interface provides a &#39;Console&#39; replacement for SDK&#39;s stdio.">
<polygon fill="white" stroke="black" points="131.5,-196 131.5,-215 283.5,-215 283.5,-196 131.5,-196"/>
<text text-anchor="middle" x="207.5" y="-203" font-family="Helvetica,sans-Serif" font-size="10.00">Cpl/System/RP2040/Console.h</text>
</a>
</g>
</g>
<!-- Node9&#45;&gt;Node17 -->
<g id="edge18" class="edge"><title>Node9&#45;&gt;Node17</title>
<path fill="none" stroke="midnightblue" d="M507.467,-261.116C437.301,-248.341 319.499,-226.892 254.359,-215.032"/>
<polygon fill="midnightblue" stroke="midnightblue" points="506.996,-264.588 517.461,-262.936 508.25,-257.701 506.996,-264.588"/>
</g>
<!-- Node18 -->
<g id="node18" class="node"><title>Node18</title>
<g id="a_node18"><a xlink:href="_driver_2_uart_2_stream_2_input_output___8h.html" target="_top" xlink:title=" ">
<polygon fill="white" stroke="black" points="515.5,-190.5 515.5,-220.5 613.5,-220.5 613.5,-190.5 515.5,-190.5"/>
<text text-anchor="start" x="523.5" y="-208.5" font-family="Helvetica,sans-Serif" font-size="10.00">Driver/Uart/Stream</text>
<text text-anchor="middle" x="564.5" y="-197.5" font-family="Helvetica,sans-Serif" font-size="10.00">/InputOutput_.h</text>
</a>
</g>
</g>
<!-- Node9&#45;&gt;Node18 -->
<g id="edge19" class="edge"><title>Node9&#45;&gt;Node18</title>
<path fill="none" stroke="midnightblue" d="M564.5,-252.411C564.5,-242.222 564.5,-229.901 564.5,-220.589"/>
<polygon fill="midnightblue" stroke="midnightblue" points="561,-252.734 564.5,-262.734 568,-252.734 561,-252.734"/>
</g>
<!-- Node13 -->
<g id="node13" class="node"><title>Node13</title>
<g id="a_node13"><a xlink:href="_factory_8h.html" target="_top" xlink:title=" ">
<polygon fill="white" stroke="black" points="628.5,-129 628.5,-148 748.5,-148 748.5,-129 628.5,-129"/>
<text text-anchor="middle" x="688.5" y="-136" font-family="Helvetica,sans-Serif" font-size="10.00">Cpl/Io/Socket/Factory.h</text>
</a>
</g>
</g>
<!-- Node12&#45;&gt;Node13 -->
<g id="edge12" class="edge"><title>Node12&#45;&gt;Node13</title>
<path fill="none" stroke="midnightblue" d="M696.999,-185.537C694.716,-173.17 691.845,-157.62 690.093,-148.127"/>
<polygon fill="midnightblue" stroke="midnightblue" points="693.624,-186.535 698.882,-195.734 700.508,-185.265 693.624,-186.535"/>
</g>
<!-- Node14 -->
<g id="node14" class="node"><title>Node14</title>
<g id="a_node14"><a xlink:href="_stream_pool_8h.html" target="_top" xlink:title=" ">
<polygon fill="white" stroke="black" points="619.5,-67.5 619.5,-86.5 757.5,-86.5 757.5,-67.5 619.5,-67.5"/>
<text text-anchor="middle" x="688.5" y="-74.5" font-family="Helvetica,sans-Serif" font-size="10.00">Cpl/Io/Socket/StreamPool.h</text>
</a>
</g>
</g>
<!-- Node12&#45;&gt;Node14 -->
<g id="edge14" class="edge"><title>Node12&#45;&gt;Node14</title>
<path fill="none" stroke="midnightblue" d="M724.754,-190.144C737.029,-181.409 750.732,-169.037 757.5,-154 763.154,-141.436 764.062,-135.115 757.5,-123 747.963,-105.395 728.221,-93.5871 712.288,-86.501"/>
<polygon fill="midnightblue" stroke="midnightblue" points="722.573,-187.392 716.189,-195.847 726.452,-193.218 722.573,-187.392"/>
</g>
<!-- Node15 -->
<g id="node15" class="node"><title>Node15</title>
<g id="a_node15"><a xlink:href="_socket_8h.html" target="_top" xlink:title=" ">
<polygon fill="white" stroke="black" points="821.5,-129 821.5,-148 925.5,-148 925.5,-129 821.5,-129"/>
<text text-anchor="middle" x="873.5" y="-136" font-family="Helvetica,sans-Serif" font-size="10.00">Cpl/TShell/Socket.h</text>
</a>
</g>
</g>
<!-- Node12&#45;&gt;Node15 -->
<g id="edge15" class="edge"><title>Node12&#45;&gt;Node15</title>
<path fill="none" stroke="midnightblue" d="M733.049,-192.271C767.385,-179.37 820.6,-159.376 850.707,-148.064"/>
<polygon fill="midnightblue" stroke="midnightblue" points="731.603,-189.075 723.473,-195.869 734.065,-195.628 731.603,-189.075"/>
</g>
<!-- Node13&#45;&gt;Node14 -->
<g id="edge13" class="edge"><title>Node13&#45;&gt;Node14</title>
<path fill="none" stroke="midnightblue" d="M688.5,-118.817C688.5,-107.996 688.5,-94.898 688.5,-86.5091"/>
<polygon fill="midnightblue" stroke="midnightblue" points="685,-118.975 688.5,-128.975 692,-118.975 685,-118.975"/>
</g>
<!-- Node16&#45;&gt;Node6 -->
<g id="edge17" class="edge"><title>Node16&#45;&gt;Node6</title>
<path fill="none" stroke="midnightblue" d="M1011.79,-185.915C1014.66,-173.488 1018.3,-157.717 1020.51,-148.127"/>
<polygon fill="midnightblue" stroke="midnightblue" points="1008.36,-185.203 1009.52,-195.734 1015.18,-186.777 1008.36,-185.203"/>
</g>
<!-- Node19 -->
<g id="node19" class="node"><title>Node19</title>
<g id="a_node19"><a xlink:href="_serial_2_renesas_2_rx62n_2_input_output_8h.html" target="_top" xlink:title=" ">
<polygon fill="white" stroke="black" points="499,-123.5 499,-153.5 610,-153.5 610,-123.5 499,-123.5"/>
<text text-anchor="start" x="507" y="-141.5" font-family="Helvetica,sans-Serif" font-size="10.00">Cpl/Io/Serial/Renesas</text>
<text text-anchor="middle" x="554.5" y="-130.5" font-family="Helvetica,sans-Serif" font-size="10.00">/Rx62n/InputOutput.h</text>
</a>
</g>
</g>
<!-- Node18&#45;&gt;Node19 -->
<g id="edge20" class="edge"><title>Node18&#45;&gt;Node19</title>
<path fill="none" stroke="midnightblue" d="M560.793,-180.403C559.403,-171.37 557.87,-161.408 556.666,-153.577"/>
<polygon fill="midnightblue" stroke="midnightblue" points="557.35,-181.044 562.33,-190.396 564.269,-179.98 557.35,-181.044"/>
</g>
<!-- Node22&#45;&gt;Node8 -->
<g id="edge24" class="edge"><title>Node22&#45;&gt;Node8</title>
<path fill="none" stroke="midnightblue" d="M1429.5,-252.537C1429.5,-240.17 1429.5,-224.62 1429.5,-215.127"/>
<polygon fill="midnightblue" stroke="midnightblue" points="1426,-252.734 1429.5,-262.734 1433,-252.734 1426,-252.734"/>
</g>
<!-- Node22&#45;&gt;Node16 -->
<g id="edge25" class="edge"><title>Node22&#45;&gt;Node16</title>
<path fill="none" stroke="midnightblue" d="M1383.13,-260.773C1376.56,-259.41 1369.87,-258.107 1363.5,-257 1239.88,-235.518 1207.4,-240.766 1083.5,-221 1072.49,-219.244 1060.63,-217.102 1049.63,-215.009"/>
<polygon fill="midnightblue" stroke="midnightblue" points="1382.79,-264.279 1393.3,-262.944 1384.25,-257.433 1382.79,-264.279"/>
</g>
<!-- Node23 -->
<g id="node23" class="node"><title>Node23</title>
<g id="a_node23"><a xlink:href="_std_err_8h.html" target="_top" xlink:title=" ">
<polygon fill="white" stroke="black" points="1498,-196 1498,-215 1605,-215 1605,-196 1498,-196"/>
<text text-anchor="middle" x="1551.5" y="-203" font-family="Helvetica,sans-Serif" font-size="10.00">Cpl/Io/Stdio/StdErr.h</text>
</a>
</g>
</g>
<!-- Node22&#45;&gt;Node23 -->
<g id="edge26" class="edge"><title>Node22&#45;&gt;Node23</title>
<path fill="none" stroke="midnightblue" d="M1454.64,-258.103C1478.81,-245.231 1514.6,-226.16 1535.23,-215.167"/>
<polygon fill="midnightblue" stroke="midnightblue" points="1452.88,-255.077 1445.7,-262.869 1456.17,-261.255 1452.88,-255.077"/>
</g>
<!-- Node24 -->
<g id="node24" class="node"><title>Node24</title>
<g id="a_node24"><a xlink:href="_std_out_8h.html" target="_top" xlink:title=" ">
<polygon fill="white" stroke="black" points="1623.5,-196 1623.5,-215 1733.5,-215 1733.5,-196 1623.5,-196"/>
<text text-anchor="middle" x="1678.5" y="-203" font-family="Helvetica,sans-Serif" font-size="10.00">Cpl/Io/Stdio/StdOut.h</text>
</a>
</g>
</g>
<!-- Node22&#45;&gt;Node24 -->
<g id="edge27" class="edge"><title>Node22&#45;&gt;Node24</title>
<path fill="none" stroke="midnightblue" d="M1472.01,-260.404C1521.15,-247.576 1600.98,-226.736 1645.62,-215.083"/>
<polygon fill="midnightblue" stroke="midnightblue" points="1471.1,-257.023 1462.31,-262.936 1472.87,-263.796 1471.1,-257.023"/>
</g>
<!-- Node28 -->
<g id="node28" class="node"><title>Node28</title>
<g id="a_node28"><a xlink:href="helpers_8h.html" target="_top" xlink:title="This file defines helper functions/interface for writing unit tests.">
<polygon fill="white" stroke="black" points="2015,-129 2015,-148 2100,-148 2100,-129 2015,-129"/>
<text text-anchor="middle" x="2057.5" y="-136" font-family="Helvetica,sans-Serif" font-size="10.00">Catch/helpers.h</text>
</a>
</g>
</g>
<!-- Node27&#45;&gt;Node28 -->
<g id="edge31" class="edge"><title>Node27&#45;&gt;Node28</title>
<path fill="none" stroke="midnightblue" d="M1964.39,-190.787C1987.78,-177.905 2022.06,-159.024 2041.84,-148.127"/>
<polygon fill="midnightblue" stroke="midnightblue" points="1962.48,-187.843 1955.41,-195.734 1965.86,-193.975 1962.48,-187.843"/>
</g>
<!-- Node29 -->
<g id="node29" class="node"><title>Node29</title>
<g id="a_node29"><a xlink:href="_system_2_private___8h.html" target="_top" xlink:title="This file contains a collection of classes, interfaces, etc.">
<polygon fill="white" stroke="black" points="1882,-129 1882,-148 1997,-148 1997,-129 1882,-129"/>
<text text-anchor="middle" x="1939.5" y="-136" font-family="Helvetica,sans-Serif" font-size="10.00">Cpl/System/Private_.h</text>
</a>
</g>
</g>
<!-- Node27&#45;&gt;Node29 -->
<g id="edge32" class="edge"><title>Node27&#45;&gt;Node29</title>
<path fill="none" stroke="midnightblue" d="M1939.5,-185.537C1939.5,-173.17 1939.5,-157.62 1939.5,-148.127"/>
<polygon fill="midnightblue" stroke="midnightblue" points="1936,-185.734 1939.5,-195.734 1943,-185.734 1936,-185.734"/>
</g>
<!-- Node30 -->
<g id="node30" class="node"><title>Node30</title>
<g id="a_node30"><a xlink:href="_maker_8h.html" target="_top" xlink:title=" ">
<polygon fill="white" stroke="black" points="1889.5,-67.5 1889.5,-86.5 1989.5,-86.5 1989.5,-67.5 1889.5,-67.5"/>
<text text-anchor="middle" x="1939.5" y="-74.5" font-family="Helvetica,sans-Serif" font-size="10.00">Cpl/TShell/Maker.h</text>
</a>
</g>
</g>
<!-- Node29&#45;&gt;Node30 -->
<g id="edge33" class="edge"><title>Node29&#45;&gt;Node30</title>
<path fill="none" stroke="midnightblue" d="M1939.5,-118.817C1939.5,-107.996 1939.5,-94.898 1939.5,-86.5091"/>
<polygon fill="midnightblue" stroke="midnightblue" points="1936,-118.975 1939.5,-128.975 1943,-118.975 1936,-118.975"/>
</g>
<!-- Node31 -->
<g id="node31" class="node"><title>Node31</title>
<g id="a_node31"><a xlink:href="_polled_maker_8h.html" target="_top" xlink:title=" ">
<polygon fill="white" stroke="black" points="1845,-6 1845,-25 1972,-25 1972,-6 1845,-6"/>
<text text-anchor="middle" x="1908.5" y="-13" font-family="Helvetica,sans-Serif" font-size="10.00">Cpl/TShell/PolledMaker.h</text>
</a>
</g>
</g>
<!-- Node29&#45;&gt;Node31 -->
<g id="edge34" class="edge"><title>Node29&#45;&gt;Node31</title>
<path fill="none" stroke="midnightblue" d="M1964.98,-123.629C1986.22,-110.137 2011.13,-88.5715 1998.5,-67 1985.92,-45.5091 1960.46,-32.4678 1939.83,-25.0362"/>
<polygon fill="midnightblue" stroke="midnightblue" points="1962.99,-120.742 1956.22,-128.894 1966.59,-126.742 1962.99,-120.742"/>
</g>
<!-- Node33 -->
<g id="node33" class="node"><title>Node33</title>
<g id="a_node33"><a xlink:href="_cmd_2_command_8h.html" target="_top" xlink:title=" ">
<polygon fill="white" stroke="black" points="1234.5,-129 1234.5,-148 1374.5,-148 1374.5,-129 1234.5,-129"/>
<text text-anchor="middle" x="1304.5" y="-136" font-family="Helvetica,sans-Serif" font-size="10.00">Cpl/TShell/Cmd/Command.h</text>
</a>
</g>
</g>
<!-- Node32&#45;&gt;Node33 -->
<g id="edge36" class="edge"><title>Node32&#45;&gt;Node33</title>
<path fill="none" stroke="midnightblue" d="M1612.36,-260.743C1662.8,-249.361 1734.46,-231.609 1742.5,-221 1750.82,-210.02 1751.67,-200.285 1742.5,-190 1718.5,-163.072 1492.37,-148.42 1374.79,-142.565"/>
<polygon fill="midnightblue" stroke="midnightblue" points="1611.58,-257.332 1602.58,-262.931 1613.1,-264.163 1611.58,-257.332"/>
</g>
<!-- Node43 -->
<g id="node43" class="node"><title>Node43</title>
<g id="a_node43"><a xlink:href="_context___8h.html" target="_top" xlink:title=" ">
<polygon fill="white" stroke="black" points="1248.5,-196 1248.5,-215 1360.5,-215 1360.5,-196 1248.5,-196"/>
<text text-anchor="middle" x="1304.5" y="-203" font-family="Helvetica,sans-Serif" font-size="10.00">Cpl/TShell/Context_.h</text>
</a>
</g>
</g>
<!-- Node32&#45;&gt;Node43 -->
<g id="edge46" class="edge"><title>Node32&#45;&gt;Node43</title>
<path fill="none" stroke="midnightblue" d="M1518.78,-260.484C1467.88,-247.663 1384.92,-226.76 1338.57,-215.083"/>
<polygon fill="midnightblue" stroke="midnightblue" points="1517.95,-263.886 1528.51,-262.936 1519.66,-257.098 1517.95,-263.886"/>
</g>
<!-- Node34 -->
<g id="node34" class="node"><title>Node34</title>
<g id="a_node34"><a xlink:href="_dm_8h.html" target="_top" xlink:title=" ">
<polygon fill="white" stroke="black" points="1471.5,-67.5 1471.5,-86.5 1577.5,-86.5 1577.5,-67.5 1471.5,-67.5"/>
<text text-anchor="middle" x="1524.5" y="-74.5" font-family="Helvetica,sans-Serif" font-size="10.00">Cpl/Dm/TShell/Dm.h</text>
</a>
</g>
</g>
<!-- Node33&#45;&gt;Node34 -->
<g id="edge37" class="edge"><title>Node33&#45;&gt;Node34</title>
<path fill="none" stroke="midnightblue" d="M1345.83,-126.322C1388.56,-114.764 1454.35,-96.9732 1493.04,-86.5091"/>
<polygon fill="midnightblue" stroke="midnightblue" points="1344.76,-122.986 1336.02,-128.975 1346.59,-129.743 1344.76,-122.986"/>
</g>
<!-- Node35 -->
<g id="node35" class="node"><title>Node35</title>
<g id="a_node35"><a xlink:href="_bye_8h.html" target="_top" xlink:title=" ">
<polygon fill="white" stroke="black" points="1596,-67.5 1596,-86.5 1709,-86.5 1709,-67.5 1596,-67.5"/>
<text text-anchor="middle" x="1652.5" y="-74.5" font-family="Helvetica,sans-Serif" font-size="10.00">Cpl/TShell/Cmd/Bye.h</text>
</a>
</g>
</g>
<!-- Node33&#45;&gt;Node35 -->
<g id="edge38" class="edge"><title>Node33&#45;&gt;Node35</title>
<path fill="none" stroke="midnightblue" d="M1364.4,-127.259C1431.73,-115.746 1539.85,-97.2602 1602.73,-86.5091"/>
<polygon fill="midnightblue" stroke="midnightblue" points="1363.63,-123.84 1354.36,-128.975 1364.81,-130.74 1363.63,-123.84"/>
</g>
<!-- Node36 -->
<g id="node36" class="node"><title>Node36</title>
<g id="a_node36"><a xlink:href="_help_8h.html" target="_top" xlink:title=" ">
<polygon fill="white" stroke="black" points="775.5,-67.5 775.5,-86.5 891.5,-86.5 891.5,-67.5 775.5,-67.5"/>
<text text-anchor="middle" x="833.5" y="-74.5" font-family="Helvetica,sans-Serif" font-size="10.00">Cpl/TShell/Cmd/Help.h</text>
</a>
</g>
</g>
<!-- Node33&#45;&gt;Node36 -->
<g id="edge39" class="edge"><title>Node33&#45;&gt;Node36</title>
<path fill="none" stroke="midnightblue" d="M1243.97,-127.361C1234.13,-125.824 1224.04,-124.315 1214.5,-123 1075.35,-103.823 1039.89,-104.351 900.5,-87 897.588,-86.6376 894.606,-86.2601 891.596,-85.874"/>
<polygon fill="midnightblue" stroke="midnightblue" points="1243.68,-130.858 1254.1,-128.965 1244.77,-123.944 1243.68,-130.858"/>
</g>
<!-- Node37 -->
<g id="node37" class="node"><title>Node37</title>
<g id="a_node37"><a xlink:href="_t_print_8h.html" target="_top" xlink:title=" ">
<polygon fill="white" stroke="black" points="909.5,-67.5 909.5,-86.5 1031.5,-86.5 1031.5,-67.5 909.5,-67.5"/>
<text text-anchor="middle" x="970.5" y="-74.5" font-family="Helvetica,sans-Serif" font-size="10.00">Cpl/TShell/Cmd/TPrint.h</text>
</a>
</g>
</g>
<!-- Node33&#45;&gt;Node37 -->
<g id="edge40" class="edge"><title>Node33&#45;&gt;Node37</title>
<path fill="none" stroke="midnightblue" d="M1246.61,-127.188C1181.96,-115.67 1078.49,-97.2381 1018.27,-86.5091"/>
<polygon fill="midnightblue" stroke="midnightblue" points="1246.19,-130.667 1256.65,-128.975 1247.41,-123.775 1246.19,-130.667"/>
</g>
<!-- Node38 -->
<g id="node38" class="node"><title>Node38</title>
<g id="a_node38"><a xlink:href="_threads_8h.html" target="_top" xlink:title=" ">
<polygon fill="white" stroke="black" points="1050,-67.5 1050,-86.5 1181,-86.5 1181,-67.5 1050,-67.5"/>
<text text-anchor="middle" x="1115.5" y="-74.5" font-family="Helvetica,sans-Serif" font-size="10.00">Cpl/TShell/Cmd/Threads.h</text>
</a>
</g>
</g>
<!-- Node33&#45;&gt;Node38 -->
<g id="edge41" class="edge"><title>Node33&#45;&gt;Node38</title>
<path fill="none" stroke="midnightblue" d="M1267.59,-125.881C1230.85,-114.315 1175.35,-96.8407 1142.53,-86.5091"/>
<polygon fill="midnightblue" stroke="midnightblue" points="1266.83,-129.311 1277.42,-128.975 1268.93,-122.634 1266.83,-129.311"/>
</g>
<!-- Node41 -->
<g id="node41" class="node"><title>Node41</title>
<g id="a_node41"><a xlink:href="_tick_8h.html" target="_top" xlink:title=" ">
<polygon fill="white" stroke="black" points="1199,-67.5 1199,-86.5 1314,-86.5 1314,-67.5 1199,-67.5"/>
<text text-anchor="middle" x="1256.5" y="-74.5" font-family="Helvetica,sans-Serif" font-size="10.00">Cpl/TShell/Cmd/Tick.h</text>
</a>
</g>
</g>
<!-- Node33&#45;&gt;Node41 -->
<g id="edge44" class="edge"><title>Node33&#45;&gt;Node41</title>
<path fill="none" stroke="midnightblue" d="M1291.33,-121.169C1282.28,-109.952 1270.63,-95.5161 1263.36,-86.5091"/>
<polygon fill="midnightblue" stroke="midnightblue" points="1288.62,-123.39 1297.62,-128.975 1294.07,-118.994 1288.62,-123.39"/>
</g>
<!-- Node42 -->
<g id="node42" class="node"><title>Node42</title>
<g id="a_node42"><a xlink:href="_t_shell_2_cmd_2_trace_8h.html" target="_top" xlink:title=" ">
<polygon fill="white" stroke="black" points="1332,-67.5 1332,-86.5 1453,-86.5 1453,-67.5 1332,-67.5"/>
<text text-anchor="middle" x="1392.5" y="-74.5" font-family="Helvetica,sans-Serif" font-size="10.00">Cpl/TShell/Cmd/Trace.h</text>
</a>
</g>
</g>
<!-- Node33&#45;&gt;Node42 -->
<g id="edge45" class="edge"><title>Node33&#45;&gt;Node42</title>
<path fill="none" stroke="midnightblue" d="M1325.78,-123.113C1342.7,-111.669 1365.81,-96.046 1379.92,-86.5091"/>
<polygon fill="midnightblue" stroke="midnightblue" points="1323.43,-120.474 1317.11,-128.975 1327.35,-126.273 1323.43,-120.474"/>
</g>
<!-- Node39 -->
<g id="node39" class="node"><title>Node39</title>
<g id="a_node39"><a xlink:href="_free_r_t_o_s_2_threads_8h.html" target="_top" xlink:title=" ">
<polygon fill="white" stroke="black" points="977.5,-0.5 977.5,-30.5 1111.5,-30.5 1111.5,-0.5 977.5,-0.5"/>
<text text-anchor="start" x="985.5" y="-18.5" font-family="Helvetica,sans-Serif" font-size="10.00">Cpl/TShell/Cmd/FreeRTOS</text>
<text text-anchor="middle" x="1044.5" y="-7.5" font-family="Helvetica,sans-Serif" font-size="10.00">/Threads.h</text>
</a>
</g>
</g>
<!-- Node38&#45;&gt;Node39 -->
<g id="edge42" class="edge"><title>Node38&#45;&gt;Node39</title>
<path fill="none" stroke="midnightblue" d="M1097.51,-60.9215C1086.36,-51.579 1072.14,-39.6616 1061.23,-30.523"/>
<polygon fill="midnightblue" stroke="midnightblue" points="1095.41,-63.7346 1105.33,-67.4751 1099.91,-58.3694 1095.41,-63.7346"/>
</g>
<!-- Node40 -->
<g id="node40" class="node"><title>Node40</title>
<g id="a_node40"><a xlink:href="_win32_2_threads_8h.html" target="_top" xlink:title=" ">
<polygon fill="white" stroke="black" points="1130,-0.5 1130,-30.5 1245,-30.5 1245,-0.5 1130,-0.5"/>
<text text-anchor="start" x="1138" y="-18.5" font-family="Helvetica,sans-Serif" font-size="10.00">Cpl/TShell/Cmd/Win32</text>
<text text-anchor="middle" x="1187.5" y="-7.5" font-family="Helvetica,sans-Serif" font-size="10.00">/Threads.h</text>
</a>
</g>
</g>
<!-- Node38&#45;&gt;Node40 -->
<g id="edge43" class="edge"><title>Node38&#45;&gt;Node40</title>
<path fill="none" stroke="midnightblue" d="M1133.75,-60.9215C1145.05,-51.579 1159.47,-39.6616 1170.53,-30.523"/>
<polygon fill="midnightblue" stroke="midnightblue" points="1131.29,-58.4069 1125.82,-67.4751 1135.75,-63.8028 1131.29,-58.4069"/>
</g>
<!-- Node43&#45;&gt;Node33 -->
<g id="edge47" class="edge"><title>Node43&#45;&gt;Node33</title>
<path fill="none" stroke="midnightblue" d="M1304.5,-185.537C1304.5,-173.17 1304.5,-157.62 1304.5,-148.127"/>
<polygon fill="midnightblue" stroke="midnightblue" points="1301,-185.734 1304.5,-195.734 1308,-185.734 1301,-185.734"/>
</g>
<!-- Node44 -->
<g id="node44" class="node"><title>Node44</title>
<g id="a_node44"><a xlink:href="_processor_8h.html" target="_top" xlink:title=" ">
<polygon fill="white" stroke="black" points="1741,-129 1741,-148 1858,-148 1858,-129 1741,-129"/>
<text text-anchor="middle" x="1799.5" y="-136" font-family="Helvetica,sans-Serif" font-size="10.00">Cpl/TShell/Processor.h</text>
</a>
</g>
</g>
<!-- Node43&#45;&gt;Node44 -->
<g id="edge48" class="edge"><title>Node43&#45;&gt;Node44</title>
<path fill="none" stroke="midnightblue" d="M1349.92,-193.747C1356.47,-192.377 1363.14,-191.08 1369.5,-190 1501.41,-167.602 1657.77,-151.937 1740.81,-144.47"/>
<polygon fill="midnightblue" stroke="midnightblue" points="1348.83,-190.402 1339.79,-195.936 1350.31,-197.244 1348.83,-190.402"/>
</g>
<!-- Node44&#45;&gt;Node30 -->
<g id="edge49" class="edge"><title>Node44&#45;&gt;Node30</title>
<path fill="none" stroke="midnightblue" d="M1828.96,-124.98C1856.15,-113.424 1895.79,-96.5758 1919.48,-86.5091"/>
<polygon fill="midnightblue" stroke="midnightblue" points="1827.39,-121.842 1819.56,-128.975 1830.13,-128.285 1827.39,-121.842"/>
</g>
<!-- Node45 -->
<g id="node45" class="node"><title>Node45</title>
<g id="a_node45"><a xlink:href="_polled_processor_8h.html" target="_top" xlink:title=" ">
<polygon fill="white" stroke="black" points="1727.5,-67.5 1727.5,-86.5 1871.5,-86.5 1871.5,-67.5 1727.5,-67.5"/>
<text text-anchor="middle" x="1799.5" y="-74.5" font-family="Helvetica,sans-Serif" font-size="10.00">Cpl/TShell/PolledProcessor.h</text>
</a>
</g>
</g>
<!-- Node44&#45;&gt;Node45 -->
<g id="edge50" class="edge"><title>Node44&#45;&gt;Node45</title>
<path fill="none" stroke="midnightblue" d="M1799.5,-118.817C1799.5,-107.996 1799.5,-94.898 1799.5,-86.5091"/>
<polygon fill="midnightblue" stroke="midnightblue" points="1796,-118.975 1799.5,-128.975 1803,-118.975 1796,-118.975"/>
</g>
<!-- Node45&#45;&gt;Node31 -->
<g id="edge51" class="edge"><title>Node45&#45;&gt;Node31</title>
<path fill="none" stroke="midnightblue" d="M1824.13,-62.5565C1845.22,-51.0417 1874.96,-34.8109 1892.91,-25.0091"/>
<polygon fill="midnightblue" stroke="midnightblue" points="1822.22,-59.6116 1815.12,-67.4751 1825.57,-65.7558 1822.22,-59.6116"/>
</g>
<!-- Node46&#45;&gt;Node15 -->
<g id="edge54" class="edge"><title>Node46&#45;&gt;Node15</title>
<path fill="none" stroke="midnightblue" d="M997.437,-259.25C976.466,-250.746 950.162,-237.903 930.5,-221 905.361,-199.388 885.868,-164.35 877.693,-148.182"/>
<polygon fill="midnightblue" stroke="midnightblue" points="996.364,-262.588 1006.95,-262.963 998.909,-256.067 996.364,-262.588"/>
</g>
<!-- Node46&#45;&gt;Node43 -->
<g id="edge53" class="edge"><title>Node46&#45;&gt;Node43</title>
<path fill="none" stroke="midnightblue" d="M1078.26,-260.564C1131.89,-247.75 1219.62,-226.785 1268.58,-215.083"/>
<polygon fill="midnightblue" stroke="midnightblue" points="1077.25,-257.207 1068.34,-262.936 1078.88,-264.015 1077.25,-257.207"/>
</g>
<!-- Node47 -->
<g id="node47" class="node"><title>Node47</title>
<g id="a_node47"><a xlink:href="_t_shell_2_stdio_8h.html" target="_top" xlink:title=" ">
<polygon fill="white" stroke="black" points="788,-196 788,-215 883,-215 883,-196 788,-196"/>
<text text-anchor="middle" x="835.5" y="-203" font-family="Helvetica,sans-Serif" font-size="10.00">Cpl/TShell/Stdio.h</text>
</a>
</g>
</g>
<!-- Node46&#45;&gt;Node47 -->
<g id="edge55" class="edge"><title>Node46&#45;&gt;Node47</title>
<path fill="none" stroke="midnightblue" d="M996.438,-259.601C957.379,-246.714 896.033,-226.473 861.455,-215.064"/>
<polygon fill="midnightblue" stroke="midnightblue" points="995.747,-263.059 1006.34,-262.869 997.94,-256.411 995.747,-263.059"/>
</g>
<!-- Node48&#45;&gt;Node44 -->
<g id="edge57" class="edge"><title>Node48&#45;&gt;Node44</title>
<path fill="none" stroke="midnightblue" d="M1741.55,-256.705C1753.08,-247.609 1766.76,-235.028 1775.5,-221 1790.32,-197.214 1796.36,-163.842 1798.49,-148.215"/>
<polygon fill="midnightblue" stroke="midnightblue" points="1739.15,-254.133 1733.28,-262.948 1743.37,-259.722 1739.15,-254.133"/>
</g>
</g>
</svg>
