<?xml version="1.0" encoding="UTF-8" standalone="no"?>
<!DOCTYPE svg PUBLIC "-//W3C//DTD SVG 1.1//EN"
 "http://www.w3.org/Graphics/SVG/1.1/DTD/svg11.dtd">
<!-- Generated by graphviz version 2.38.0 (20140413.2041)
 -->
<!-- Title: Cpl/Io/Output.h Pages: 1 -->
<svg width="2857pt" height="285pt"
 viewBox="0.00 0.00 2857.00 285.00" xmlns="http://www.w3.org/2000/svg" xmlns:xlink="http://www.w3.org/1999/xlink">
<g id="graph0" class="graph" transform="scale(1 1) rotate(0) translate(4 281)">
<title>Cpl/Io/Output.h</title>
<polygon fill="white" stroke="none" points="-4,4 -4,-281 2853,-281 2853,4 -4,4"/>
<!-- Node1 -->
<g id="node1" class="node"><title>Node1</title>
<g id="a_node1"><a xlink:title=" ">
<polygon fill="#bfbfbf" stroke="black" points="1767,-257.5 1767,-276.5 1850,-276.5 1850,-257.5 1767,-257.5"/>
<text text-anchor="middle" x="1808.5" y="-264.5" font-family="Helvetica,sans-Serif" font-size="10.00">Cpl/Io/Output.h</text>
</a>
</g>
</g>
<!-- Node2 -->
<g id="node2" class="node"><title>Node2</title>
<g id="a_node2"><a xlink:href="_atomic_output_api_8h.html" target="_top" xlink:title=" ">
<polygon fill="white" stroke="black" points="148.5,-196 148.5,-215 276.5,-215 276.5,-196 148.5,-196"/>
<text text-anchor="middle" x="212.5" y="-203" font-family="Helvetica,sans-Serif" font-size="10.00">Cpl/Io/AtomicOutputApi.h</text>
</a>
</g>
</g>
<!-- Node1&#45;&gt;Node2 -->
<g id="edge1" class="edge"><title>Node1&#45;&gt;Node2</title>
<path fill="none" stroke="midnightblue" d="M1756.74,-264.869C1575.64,-260.789 953.605,-245.749 440.5,-221 385.234,-218.334 322.497,-214.268 276.842,-211.119"/>
<polygon fill="midnightblue" stroke="midnightblue" points="1756.71,-268.369 1766.79,-265.094 1756.87,-261.371 1756.71,-268.369"/>
</g>
<!-- Node4 -->
<g id="node4" class="node"><title>Node4</title>
<g id="a_node4"><a xlink:href="_output_api_8h.html" target="_top" xlink:title=" ">
<polygon fill="white" stroke="black" points="449.5,-196 449.5,-215 565.5,-215 565.5,-196 449.5,-196"/>
<text text-anchor="middle" x="507.5" y="-203" font-family="Helvetica,sans-Serif" font-size="10.00">Cpl/Io/File/OutputApi.h</text>
</a>
</g>
</g>
<!-- Node1&#45;&gt;Node4 -->
<g id="edge3" class="edge"><title>Node1&#45;&gt;Node4</title>
<path fill="none" stroke="midnightblue" d="M1756.69,-263.631C1549.84,-254.17 783.739,-219.134 565.727,-209.163"/>
<polygon fill="midnightblue" stroke="midnightblue" points="1756.54,-267.127 1766.69,-264.088 1756.86,-260.134 1756.54,-267.127"/>
</g>
<!-- Node9 -->
<g id="node9" class="node"><title>Node9</title>
<g id="a_node9"><a xlink:href="_input_output_8h.html" target="_top" xlink:title=" ">
<polygon fill="white" stroke="black" points="894.5,-196 894.5,-215 998.5,-215 998.5,-196 894.5,-196"/>
<text text-anchor="middle" x="946.5" y="-203" font-family="Helvetica,sans-Serif" font-size="10.00">Cpl/Io/InputOutput.h</text>
</a>
</g>
</g>
<!-- Node1&#45;&gt;Node9 -->
<g id="edge8" class="edge"><title>Node1&#45;&gt;Node9</title>
<path fill="none" stroke="midnightblue" d="M1756.83,-262.434C1603.52,-251.851 1152.29,-220.705 998.518,-210.091"/>
<polygon fill="midnightblue" stroke="midnightblue" points="1756.71,-265.933 1766.92,-263.13 1757.19,-258.95 1756.71,-265.933"/>
</g>
<!-- Node21 -->
<g id="node21" class="node"><title>Node21</title>
<g id="a_node21"><a xlink:href="_line_writer_8h.html" target="_top" xlink:title=" ">
<polygon fill="white" stroke="black" points="1247,-196 1247,-215 1344,-215 1344,-196 1247,-196"/>
<text text-anchor="middle" x="1295.5" y="-203" font-family="Helvetica,sans-Serif" font-size="10.00">Cpl/Io/LineWriter.h</text>
</a>
</g>
</g>
<!-- Node1&#45;&gt;Node21 -->
<g id="edge22" class="edge"><title>Node1&#45;&gt;Node21</title>
<path fill="none" stroke="midnightblue" d="M1756.55,-263.427C1671.55,-258.647 1497.67,-246.477 1352.5,-221 1343.65,-219.447 1334.15,-217.248 1325.49,-215.031"/>
<polygon fill="midnightblue" stroke="midnightblue" points="1756.54,-266.932 1766.72,-263.987 1756.93,-259.943 1756.54,-266.932"/>
</g>
<!-- Node22 -->
<g id="node22" class="node"><title>Node22</title>
<g id="a_node22"><a xlink:href="_serial_2_r_p2040_2_stdio_2_output_8h.html" target="_top" xlink:title=" ">
<polygon fill="white" stroke="black" points="1362,-190.5 1362,-220.5 1469,-220.5 1469,-190.5 1362,-190.5"/>
<text text-anchor="start" x="1370" y="-208.5" font-family="Helvetica,sans-Serif" font-size="10.00">Cpl/Io/Serial/RP2040</text>
<text text-anchor="middle" x="1415.5" y="-197.5" font-family="Helvetica,sans-Serif" font-size="10.00">/Stdio/Output.h</text>
</a>
</g>
</g>
<!-- Node1&#45;&gt;Node22 -->
<g id="edge23" class="edge"><title>Node1&#45;&gt;Node22</title>
<path fill="none" stroke="midnightblue" d="M1756.71,-260.496C1691.35,-253.197 1575.62,-239.102 1477.5,-221 1474.78,-220.499 1472,-219.957 1469.2,-219.387"/>
<polygon fill="midnightblue" stroke="midnightblue" points="1756.43,-263.986 1766.76,-261.608 1757.2,-257.029 1756.43,-263.986"/>
</g>
<!-- Node23 -->
<g id="node23" class="node"><title>Node23</title>
<g id="a_node23"><a xlink:href="_output___8h.html" target="_top" xlink:title=" ">
<polygon fill="white" stroke="black" points="1487,-196 1487,-215 1600,-215 1600,-196 1487,-196"/>
<text text-anchor="middle" x="1543.5" y="-203" font-family="Helvetica,sans-Serif" font-size="10.00">Cpl/Io/Stdio/Output_.h</text>
</a>
</g>
</g>
<!-- Node1&#45;&gt;Node23 -->
<g id="edge24" class="edge"><title>Node1&#45;&gt;Node23</title>
<path fill="none" stroke="midnightblue" d="M1760.66,-255.258C1709.25,-243.716 1628.59,-225.606 1581.4,-215.009"/>
<polygon fill="midnightblue" stroke="midnightblue" points="1760.01,-258.699 1770.53,-257.475 1761.54,-251.869 1760.01,-258.699"/>
</g>
<!-- Node26 -->
<g id="node26" class="node"><title>Node26</title>
<g id="a_node26"><a xlink:href="_tee_output_8h.html" target="_top" xlink:title=" ">
<polygon fill="white" stroke="black" points="1622,-196 1622,-215 1721,-215 1721,-196 1622,-196"/>
<text text-anchor="middle" x="1671.5" y="-203" font-family="Helvetica,sans-Serif" font-size="10.00">Cpl/Io/TeeOutput.h</text>
</a>
</g>
</g>
<!-- Node1&#45;&gt;Node26 -->
<g id="edge29" class="edge"><title>Node1&#45;&gt;Node26</title>
<path fill="none" stroke="midnightblue" d="M1779.67,-253.48C1753.06,-241.924 1714.27,-225.076 1691.09,-215.009"/>
<polygon fill="midnightblue" stroke="midnightblue" points="1778.3,-256.702 1788.87,-257.475 1781.09,-250.281 1778.3,-256.702"/>
</g>
<!-- Node27 -->
<g id="node27" class="node"><title>Node27</title>
<g id="a_node27"><a xlink:href="_system_2_r_p2040_2_stdio_8h.html" target="_top" xlink:title="This interface returns the Cpl Io Stream for the for SDK&#39;s stdio.">
<polygon fill="white" stroke="black" points="1739,-196 1739,-215 1878,-215 1878,-196 1739,-196"/>
<text text-anchor="middle" x="1808.5" y="-203" font-family="Helvetica,sans-Serif" font-size="10.00">Cpl/System/RP2040/Stdio.h</text>
</a>
</g>
</g>
<!-- Node1&#45;&gt;Node27 -->
<g id="edge30" class="edge"><title>Node1&#45;&gt;Node27</title>
<path fill="none" stroke="midnightblue" d="M1808.5,-247.317C1808.5,-236.496 1808.5,-223.398 1808.5,-215.009"/>
<polygon fill="midnightblue" stroke="midnightblue" points="1805,-247.475 1808.5,-257.475 1812,-247.475 1805,-247.475"/>
</g>
<!-- Node28 -->
<g id="node28" class="node"><title>Node28</title>
<g id="a_node28"><a xlink:href="_system_2_trace_8h.html" target="_top" xlink:title=" ">
<polygon fill="white" stroke="black" points="1896.5,-196 1896.5,-215 2000.5,-215 2000.5,-196 1896.5,-196"/>
<text text-anchor="middle" x="1948.5" y="-203" font-family="Helvetica,sans-Serif" font-size="10.00">Cpl/System/Trace.h</text>
</a>
</g>
</g>
<!-- Node1&#45;&gt;Node28 -->
<g id="edge31" class="edge"><title>Node1&#45;&gt;Node28</title>
<path fill="none" stroke="midnightblue" d="M1837.96,-253.48C1865.15,-241.924 1904.79,-225.076 1928.48,-215.009"/>
<polygon fill="midnightblue" stroke="midnightblue" points="1836.39,-250.342 1828.56,-257.475 1839.13,-256.785 1836.39,-250.342"/>
</g>
<!-- Node35 -->
<g id="node35" class="node"><title>Node35</title>
<g id="a_node35"><a xlink:href="_command_8h.html" target="_top" xlink:title=" ">
<polygon fill="white" stroke="black" points="2332,-196 2332,-215 2449,-215 2449,-196 2332,-196"/>
<text text-anchor="middle" x="2390.5" y="-203" font-family="Helvetica,sans-Serif" font-size="10.00">Cpl/TShell/Command.h</text>
</a>
</g>
</g>
<!-- Node1&#45;&gt;Node35 -->
<g id="edge38" class="edge"><title>Node1&#45;&gt;Node35</title>
<path fill="none" stroke="midnightblue" d="M1860.38,-260.696C1968.62,-249.631 2217.88,-224.148 2331.78,-212.503"/>
<polygon fill="midnightblue" stroke="midnightblue" points="1859.95,-257.222 1850.36,-261.721 1860.66,-264.186 1859.95,-257.222"/>
</g>
<!-- Node54 -->
<g id="node44" class="node"><title>Node54</title>
<g id="a_node44"><a xlink:href="_main_8h.html" target="_top" xlink:title="This file defines the hardware/platform independent start&#45;up interface(s) for the Storm::Thermostat a...">
<polygon fill="white" stroke="black" points="2495,-123.5 2495,-153.5 2614,-153.5 2614,-123.5 2495,-123.5"/>
<text text-anchor="start" x="2503" y="-141.5" font-family="Helvetica,sans-Serif" font-size="10.00">Storm/Thermostat/Main</text>
<text text-anchor="middle" x="2554.5" y="-130.5" font-family="Helvetica,sans-Serif" font-size="10.00">/Main.h</text>
</a>
</g>
</g>
<!-- Node1&#45;&gt;Node54 -->
<g id="edge61" class="edge"><title>Node1&#45;&gt;Node54</title>
<path fill="none" stroke="midnightblue" d="M1860.43,-266.507C1994.55,-267.167 2349.55,-264.618 2457.5,-221 2493.8,-206.332 2526.52,-172.66 2543.08,-153.502"/>
<polygon fill="midnightblue" stroke="midnightblue" points="1860.05,-263.005 1850.03,-266.447 1860.01,-270.004 1860.05,-263.005"/>
</g>
<!-- Node55 -->
<g id="node45" class="node"><title>Node55</title>
<g id="a_node45"><a xlink:href="_processor_api_8h.html" target="_top" xlink:title=" ">
<polygon fill="white" stroke="black" points="2101,-196 2101,-215 2232,-215 2232,-196 2101,-196"/>
<text text-anchor="middle" x="2166.5" y="-203" font-family="Helvetica,sans-Serif" font-size="10.00">Cpl/TShell/ProcessorApi.h</text>
</a>
</g>
</g>
<!-- Node1&#45;&gt;Node55 -->
<g id="edge50" class="edge"><title>Node1&#45;&gt;Node55</title>
<path fill="none" stroke="midnightblue" d="M1860.34,-257.384C1928.46,-246.063 2047.36,-226.3 2115.21,-215.025"/>
<polygon fill="midnightblue" stroke="midnightblue" points="1859.56,-253.966 1850.27,-259.058 1860.71,-260.871 1859.56,-253.966"/>
</g>
<!-- Node57 -->
<g id="node47" class="node"><title>Node57</title>
<g id="a_node47"><a xlink:href="_stream_encoder_8h.html" target="_top" xlink:title=" ">
<polygon fill="white" stroke="black" points="2530,-196 2530,-215 2693,-215 2693,-196 2530,-196"/>
<text text-anchor="middle" x="2611.5" y="-203" font-family="Helvetica,sans-Serif" font-size="10.00">Cpl/Text/Frame/StreamEncoder.h</text>
</a>
</g>
</g>
<!-- Node1&#45;&gt;Node57 -->
<g id="edge54" class="edge"><title>Node1&#45;&gt;Node57</title>
<path fill="none" stroke="midnightblue" d="M1860.54,-263.746C1975.81,-258.503 2261.34,-244.148 2499.5,-221 2516.28,-219.369 2534.43,-217.197 2551.13,-215.032"/>
<polygon fill="midnightblue" stroke="midnightblue" points="1860.08,-260.263 1850.25,-264.21 1860.39,-267.256 1860.08,-260.263"/>
</g>
<!-- Node58 -->
<g id="node48" class="node"><title>Node58</title>
<g id="a_node48"><a xlink:href="_pipe_8h.html" target="_top" xlink:title=" ">
<polygon fill="white" stroke="black" points="2671,-129 2671,-148 2772,-148 2772,-129 2671,-129"/>
<text text-anchor="middle" x="2721.5" y="-136" font-family="Helvetica,sans-Serif" font-size="10.00">Driver/TPipe/Pipe.h</text>
</a>
</g>
</g>
<!-- Node1&#45;&gt;Node58 -->
<g id="edge60" class="edge"><title>Node1&#45;&gt;Node58</title>
<path fill="none" stroke="midnightblue" d="M1860.22,-265.103C2045.95,-261.663 2670.04,-248.122 2702.5,-221 2724.24,-202.835 2723.89,-165.056 2722.48,-148.083"/>
<polygon fill="midnightblue" stroke="midnightblue" points="1860.09,-261.605 1850.16,-265.287 1860.22,-268.604 1860.09,-261.605"/>
</g>
<!-- Node59 -->
<g id="node49" class="node"><title>Node59</title>
<g id="a_node49"><a xlink:href="_driver_2_pico_display_2_t_pipe_2_api_8h.html" target="_top" xlink:title="This file defines the interface for initializing the concrete implementation of the PicoDisplay drive...">
<polygon fill="white" stroke="black" points="2752,-56.5 2752,-86.5 2849,-86.5 2849,-56.5 2752,-56.5"/>
<text text-anchor="start" x="2760" y="-74.5" font-family="Helvetica,sans-Serif" font-size="10.00">Driver/PicoDisplay</text>
<text text-anchor="middle" x="2800.5" y="-63.5" font-family="Helvetica,sans-Serif" font-size="10.00">/TPipe/Api.h</text>
</a>
</g>
</g>
<!-- Node1&#45;&gt;Node59 -->
<g id="edge59" class="edge"><title>Node1&#45;&gt;Node59</title>
<path fill="none" stroke="midnightblue" d="M1860.31,-265.842C2042.52,-264.96 2646.99,-259.158 2724.5,-221 2759.58,-203.732 2763.9,-188.91 2781.5,-154 2792.55,-132.075 2797.29,-103.58 2799.24,-86.744"/>
<polygon fill="midnightblue" stroke="midnightblue" points="1860.17,-262.342 1850.18,-265.888 1860.2,-269.342 1860.17,-262.342"/>
</g>
<!-- Node3 -->
<g id="node3" class="node"><title>Node3</title>
<g id="a_node3"><a xlink:href="_atomic_output_8h.html" target="_top" xlink:title=" ">
<polygon fill="white" stroke="black" points="0,-129 0,-148 113,-148 113,-129 0,-129"/>
<text text-anchor="middle" x="56.5" y="-136" font-family="Helvetica,sans-Serif" font-size="10.00">Cpl/Io/AtomicOutput.h</text>
</a>
</g>
</g>
<!-- Node2&#45;&gt;Node3 -->
<g id="edge2" class="edge"><title>Node2&#45;&gt;Node3</title>
<path fill="none" stroke="midnightblue" d="M182.376,-191.948C151.489,-179.079 104.268,-159.403 77.3013,-148.167"/>
<polygon fill="midnightblue" stroke="midnightblue" points="181.207,-195.253 191.784,-195.869 183.9,-188.792 181.207,-195.253"/>
</g>
<!-- Node5 -->
<g id="node5" class="node"><title>Node5</title>
<g id="a_node5"><a xlink:href="_input_output_api_8h.html" target="_top" xlink:title=" ">
<polygon fill="white" stroke="black" points="131,-129 131,-148 268,-148 268,-129 131,-129"/>
<text text-anchor="middle" x="199.5" y="-136" font-family="Helvetica,sans-Serif" font-size="10.00">Cpl/Io/File/InputOutputApi.h</text>
</a>
</g>
</g>
<!-- Node4&#45;&gt;Node5 -->
<g id="edge4" class="edge"><title>Node4&#45;&gt;Node5</title>
<path fill="none" stroke="midnightblue" d="M456.813,-193.803C396.202,-181.012 295.965,-159.858 240.172,-148.083"/>
<polygon fill="midnightblue" stroke="midnightblue" points="456.41,-197.295 466.918,-195.936 457.856,-190.446 456.41,-197.295"/>
</g>
<!-- Node8 -->
<g id="node8" class="node"><title>Node8</title>
<g id="a_node8"><a xlink:href="_file_2_output_8h.html" target="_top" xlink:title=" ">
<polygon fill="white" stroke="black" points="457,-129 457,-148 558,-148 558,-129 457,-129"/>
<text text-anchor="middle" x="507.5" y="-136" font-family="Helvetica,sans-Serif" font-size="10.00">Cpl/Io/File/Output.h</text>
</a>
</g>
</g>
<!-- Node4&#45;&gt;Node8 -->
<g id="edge7" class="edge"><title>Node4&#45;&gt;Node8</title>
<path fill="none" stroke="midnightblue" d="M507.5,-185.537C507.5,-173.17 507.5,-157.62 507.5,-148.127"/>
<polygon fill="midnightblue" stroke="midnightblue" points="504,-185.734 507.5,-195.734 511,-185.734 504,-185.734"/>
</g>
<!-- Node6 -->
<g id="node6" class="node"><title>Node6</title>
<g id="a_node6"><a xlink:href="_file_2_input_output_8h.html" target="_top" xlink:title=" ">
<polygon fill="white" stroke="black" points="345,-62 345,-81 468,-81 468,-62 345,-62"/>
<text text-anchor="middle" x="406.5" y="-69" font-family="Helvetica,sans-Serif" font-size="10.00">Cpl/Io/File/InputOutput.h</text>
</a>
</g>
</g>
<!-- Node5&#45;&gt;Node6 -->
<g id="edge5" class="edge"><title>Node5&#45;&gt;Node6</title>
<path fill="none" stroke="midnightblue" d="M236.61,-125.847C277.611,-112.973 342.662,-92.5456 379.228,-81.0637"/>
<polygon fill="midnightblue" stroke="midnightblue" points="235.48,-122.533 226.988,-128.869 237.577,-129.212 235.48,-122.533"/>
</g>
<!-- Node7 -->
<g id="node7" class="node"><title>Node7</title>
<g id="a_node7"><a xlink:href="_file_2_null_8h.html" target="_top" xlink:title=" ">
<polygon fill="white" stroke="black" points="155,-62 155,-81 244,-81 244,-62 155,-62"/>
<text text-anchor="middle" x="199.5" y="-69" font-family="Helvetica,sans-Serif" font-size="10.00">Cpl/Io/File/Null.h</text>
</a>
</g>
</g>
<!-- Node5&#45;&gt;Node7 -->
<g id="edge6" class="edge"><title>Node5&#45;&gt;Node7</title>
<path fill="none" stroke="midnightblue" d="M199.5,-118.537C199.5,-106.17 199.5,-90.6198 199.5,-81.1273"/>
<polygon fill="midnightblue" stroke="midnightblue" points="196,-118.734 199.5,-128.734 203,-118.734 196,-118.734"/>
</g>
<!-- Node10 -->
<g id="node10" class="node"><title>Node10</title>
<g id="a_node10"><a xlink:href="_null_8h.html" target="_top" xlink:title=" ">
<polygon fill="white" stroke="black" points="964.5,-129 964.5,-148 1034.5,-148 1034.5,-129 964.5,-129"/>
<text text-anchor="middle" x="999.5" y="-136" font-family="Helvetica,sans-Serif" font-size="10.00">Cpl/Io/Null.h</text>
</a>
</g>
</g>
<!-- Node9&#45;&gt;Node10 -->
<g id="edge9" class="edge"><title>Node9&#45;&gt;Node10</title>
<path fill="none" stroke="midnightblue" d="M960.141,-187.77C970.475,-175.097 984.252,-158.201 992.465,-148.127"/>
<polygon fill="midnightblue" stroke="midnightblue" points="957.255,-185.772 953.648,-195.734 962.68,-190.195 957.255,-185.772"/>
</g>
<!-- Node11 -->
<g id="node11" class="node"><title>Node11</title>
<g id="a_node11"><a xlink:href="_ram_2_input_output_8h.html" target="_top" xlink:title=" ">
<polygon fill="white" stroke="black" points="692.5,-129 692.5,-148 820.5,-148 820.5,-129 692.5,-129"/>
<text text-anchor="middle" x="756.5" y="-136" font-family="Helvetica,sans-Serif" font-size="10.00">Cpl/Io/Ram/InputOutput.h</text>
</a>
</g>
</g>
<!-- Node9&#45;&gt;Node11 -->
<g id="edge10" class="edge"><title>Node9&#45;&gt;Node11</title>
<path fill="none" stroke="midnightblue" d="M911.719,-192.601C874.048,-179.714 814.882,-159.473 781.532,-148.064"/>
<polygon fill="midnightblue" stroke="midnightblue" points="910.675,-195.943 921.269,-195.869 912.941,-189.32 910.675,-195.943"/>
</g>
<!-- Node12 -->
<g id="node12" class="node"><title>Node12</title>
<g id="a_node12"><a xlink:href="_serial_2_r_p2040_2_uart_2_input_output_8h.html" target="_top" xlink:title=" ">
<polygon fill="white" stroke="black" points="839,-123.5 839,-153.5 946,-153.5 946,-123.5 839,-123.5"/>
<text text-anchor="start" x="847" y="-141.5" font-family="Helvetica,sans-Serif" font-size="10.00">Cpl/Io/Serial/RP2040</text>
<text text-anchor="middle" x="892.5" y="-130.5" font-family="Helvetica,sans-Serif" font-size="10.00">/Uart/InputOutput.h</text>
</a>
</g>
</g>
<!-- Node9&#45;&gt;Node12 -->
<g id="edge11" class="edge"><title>Node9&#45;&gt;Node12</title>
<path fill="none" stroke="midnightblue" d="M932.783,-187.989C923.956,-177.364 912.606,-163.702 904.205,-153.589"/>
<polygon fill="midnightblue" stroke="midnightblue" points="930.135,-190.278 939.217,-195.734 935.519,-185.805 930.135,-190.278"/>
</g>
<!-- Node13 -->
<g id="node13" class="node"><title>Node13</title>
<g id="a_node13"><a xlink:href="_socket_2_input_output_8h.html" target="_top" xlink:title=" ">
<polygon fill="white" stroke="black" points="1206.5,-129 1206.5,-148 1344.5,-148 1344.5,-129 1206.5,-129"/>
<text text-anchor="middle" x="1275.5" y="-136" font-family="Helvetica,sans-Serif" font-size="10.00">Cpl/Io/Socket/InputOutput.h</text>
</a>
</g>
</g>
<!-- Node9&#45;&gt;Node13 -->
<g id="edge12" class="edge"><title>Node9&#45;&gt;Node13</title>
<path fill="none" stroke="midnightblue" d="M999.857,-193.958C1064.61,-181.165 1172.53,-159.843 1232.32,-148.032"/>
<polygon fill="midnightblue" stroke="midnightblue" points="998.981,-190.564 989.849,-195.936 1000.34,-197.431 998.981,-190.564"/>
</g>
<!-- Node17 -->
<g id="node17" class="node"><title>Node17</title>
<g id="a_node17"><a xlink:href="_cpl_2_io_2_stdio_2_input_output___8h.html" target="_top" xlink:title=" ">
<polygon fill="white" stroke="black" points="1053,-129 1053,-148 1188,-148 1188,-129 1053,-129"/>
<text text-anchor="middle" x="1120.5" y="-136" font-family="Helvetica,sans-Serif" font-size="10.00">Cpl/Io/Stdio/InputOutput_.h</text>
</a>
</g>
</g>
<!-- Node9&#45;&gt;Node17 -->
<g id="edge17" class="edge"><title>Node9&#45;&gt;Node17</title>
<path fill="none" stroke="midnightblue" d="M979.237,-192.271C1013.77,-179.37 1067.29,-159.376 1097.58,-148.064"/>
<polygon fill="midnightblue" stroke="midnightblue" points="977.749,-189.09 969.606,-195.869 980.198,-195.648 977.749,-189.09"/>
</g>
<!-- Node18 -->
<g id="node18" class="node"><title>Node18</title>
<g id="a_node18"><a xlink:href="_console_8h.html" target="_top" xlink:title="This interface provides a &#39;Console&#39; replacement for SDK&#39;s stdio.">
<polygon fill="white" stroke="black" points="286.5,-129 286.5,-148 438.5,-148 438.5,-129 286.5,-129"/>
<text text-anchor="middle" x="362.5" y="-136" font-family="Helvetica,sans-Serif" font-size="10.00">Cpl/System/RP2040/Console.h</text>
</a>
</g>
</g>
<!-- Node9&#45;&gt;Node18 -->
<g id="edge19" class="edge"><title>Node9&#45;&gt;Node18</title>
<path fill="none" stroke="midnightblue" d="M884.31,-199.576C789.745,-191.78 604.218,-175.272 447.5,-154 435.039,-152.309 421.604,-150.166 409.176,-148.051"/>
<polygon fill="midnightblue" stroke="midnightblue" points="884.027,-203.065 894.279,-200.394 884.599,-196.088 884.027,-203.065"/>
</g>
<!-- Node19 -->
<g id="node19" class="node"><title>Node19</title>
<g id="a_node19"><a xlink:href="_driver_2_uart_2_stream_2_input_output___8h.html" target="_top" xlink:title=" ">
<polygon fill="white" stroke="black" points="576.5,-123.5 576.5,-153.5 674.5,-153.5 674.5,-123.5 576.5,-123.5"/>
<text text-anchor="start" x="584.5" y="-141.5" font-family="Helvetica,sans-Serif" font-size="10.00">Driver/Uart/Stream</text>
<text text-anchor="middle" x="625.5" y="-130.5" font-family="Helvetica,sans-Serif" font-size="10.00">/InputOutput_.h</text>
</a>
</g>
</g>
<!-- Node9&#45;&gt;Node19 -->
<g id="edge20" class="edge"><title>Node9&#45;&gt;Node19</title>
<path fill="none" stroke="midnightblue" d="M887.887,-194.204C834.462,-184.592 753.448,-169.447 683.5,-154 680.561,-153.351 677.543,-152.663 674.503,-151.953"/>
<polygon fill="midnightblue" stroke="midnightblue" points="887.401,-197.673 897.862,-195.992 888.636,-190.782 887.401,-197.673"/>
</g>
<!-- Node14 -->
<g id="node14" class="node"><title>Node14</title>
<g id="a_node14"><a xlink:href="_factory_8h.html" target="_top" xlink:title=" ">
<polygon fill="white" stroke="black" points="1171.5,-62 1171.5,-81 1291.5,-81 1291.5,-62 1171.5,-62"/>
<text text-anchor="middle" x="1231.5" y="-69" font-family="Helvetica,sans-Serif" font-size="10.00">Cpl/Io/Socket/Factory.h</text>
</a>
</g>
</g>
<!-- Node13&#45;&gt;Node14 -->
<g id="edge13" class="edge"><title>Node13&#45;&gt;Node14</title>
<path fill="none" stroke="midnightblue" d="M1263.93,-120.404C1255.38,-107.773 1244.09,-91.1041 1237.34,-81.1273"/>
<polygon fill="midnightblue" stroke="midnightblue" points="1261.06,-122.415 1269.57,-128.734 1266.86,-118.491 1261.06,-122.415"/>
</g>
<!-- Node15 -->
<g id="node15" class="node"><title>Node15</title>
<g id="a_node15"><a xlink:href="_stream_pool_8h.html" target="_top" xlink:title=" ">
<polygon fill="white" stroke="black" points="1206.5,-0.5 1206.5,-19.5 1344.5,-19.5 1344.5,-0.5 1206.5,-0.5"/>
<text text-anchor="middle" x="1275.5" y="-7.5" font-family="Helvetica,sans-Serif" font-size="10.00">Cpl/Io/Socket/StreamPool.h</text>
</a>
</g>
</g>
<!-- Node13&#45;&gt;Node15 -->
<g id="edge15" class="edge"><title>Node13&#45;&gt;Node15</title>
<path fill="none" stroke="midnightblue" d="M1286.68,-119.963C1292,-110.58 1297.79,-98.5945 1300.5,-87 1303.64,-73.5845 1303.96,-69.3373 1300.5,-56 1296.96,-42.3307 1288.27,-28.393 1282.13,-19.7252"/>
<polygon fill="midnightblue" stroke="midnightblue" points="1283.6,-118.299 1281.45,-128.674 1289.6,-121.903 1283.6,-118.299"/>
</g>
<!-- Node16 -->
<g id="node16" class="node"><title>Node16</title>
<g id="a_node16"><a xlink:href="_socket_8h.html" target="_top" xlink:title=" ">
<polygon fill="white" stroke="black" points="1658.5,-62 1658.5,-81 1762.5,-81 1762.5,-62 1658.5,-62"/>
<text text-anchor="middle" x="1710.5" y="-69" font-family="Helvetica,sans-Serif" font-size="10.00">Cpl/TShell/Socket.h</text>
</a>
</g>
</g>
<!-- Node13&#45;&gt;Node16 -->
<g id="edge16" class="edge"><title>Node13&#45;&gt;Node16</title>
<path fill="none" stroke="midnightblue" d="M1329.6,-127.131C1337.6,-125.687 1345.76,-124.267 1353.5,-123 1461.61,-105.314 1588.74,-88.2094 1658.36,-79.156"/>
<polygon fill="midnightblue" stroke="midnightblue" points="1328.79,-123.72 1319.58,-128.961 1330.05,-130.606 1328.79,-123.72"/>
</g>
<!-- Node14&#45;&gt;Node15 -->
<g id="edge14" class="edge"><title>Node14&#45;&gt;Node15</title>
<path fill="none" stroke="midnightblue" d="M1243.82,-53.8377C1252.08,-42.6694 1262.61,-28.4278 1269.21,-19.5091"/>
<polygon fill="midnightblue" stroke="midnightblue" points="1240.94,-51.8537 1237.8,-61.9751 1246.56,-56.0158 1240.94,-51.8537"/>
</g>
<!-- Node17&#45;&gt;Node6 -->
<g id="edge18" class="edge"><title>Node17&#45;&gt;Node6</title>
<path fill="none" stroke="midnightblue" d="M1069.79,-127.119C1061.05,-125.568 1052.03,-124.118 1043.5,-123 830.062,-95.0383 775.001,-105.09 560.5,-87 530.128,-84.4385 496.416,-81.2981 468.296,-78.5957"/>
<polygon fill="midnightblue" stroke="midnightblue" points="1069.41,-130.608 1079.88,-128.971 1070.67,-123.723 1069.41,-130.608"/>
</g>
<!-- Node20 -->
<g id="node20" class="node"><title>Node20</title>
<g id="a_node20"><a xlink:href="_serial_2_renesas_2_rx62n_2_input_output_8h.html" target="_top" xlink:title=" ">
<polygon fill="white" stroke="black" points="570,-56.5 570,-86.5 681,-86.5 681,-56.5 570,-56.5"/>
<text text-anchor="start" x="578" y="-74.5" font-family="Helvetica,sans-Serif" font-size="10.00">Cpl/Io/Serial/Renesas</text>
<text text-anchor="middle" x="625.5" y="-63.5" font-family="Helvetica,sans-Serif" font-size="10.00">/Rx62n/InputOutput.h</text>
</a>
</g>
</g>
<!-- Node19&#45;&gt;Node20 -->
<g id="edge21" class="edge"><title>Node19&#45;&gt;Node20</title>
<path fill="none" stroke="midnightblue" d="M625.5,-113.108C625.5,-104.154 625.5,-94.3227 625.5,-86.5765"/>
<polygon fill="midnightblue" stroke="midnightblue" points="622,-113.396 625.5,-123.396 629,-113.396 622,-113.396"/>
</g>
<!-- Node23&#45;&gt;Node8 -->
<g id="edge25" class="edge"><title>Node23&#45;&gt;Node8</title>
<path fill="none" stroke="midnightblue" d="M1500.11,-193.828C1492.61,-192.31 1484.86,-190.946 1477.5,-190 1076.05,-138.372 968.394,-209.812 567.5,-154 557.735,-152.641 547.24,-150.385 537.8,-148.054"/>
<polygon fill="midnightblue" stroke="midnightblue" points="1499.61,-197.3 1510.13,-195.967 1501.08,-190.455 1499.61,-197.3"/>
</g>
<!-- Node23&#45;&gt;Node17 -->
<g id="edge26" class="edge"><title>Node23&#45;&gt;Node17</title>
<path fill="none" stroke="midnightblue" d="M1497.13,-193.773C1490.56,-192.41 1483.87,-191.107 1477.5,-190 1353.88,-168.518 1321.43,-173.618 1197.5,-154 1186.48,-152.256 1174.62,-150.141 1163.59,-148.073"/>
<polygon fill="midnightblue" stroke="midnightblue" points="1496.79,-197.279 1507.3,-195.944 1498.25,-190.433 1496.79,-197.279"/>
</g>
<!-- Node24 -->
<g id="node24" class="node"><title>Node24</title>
<g id="a_node24"><a xlink:href="_std_err_8h.html" target="_top" xlink:title=" ">
<polygon fill="white" stroke="black" points="1363,-129 1363,-148 1470,-148 1470,-129 1363,-129"/>
<text text-anchor="middle" x="1416.5" y="-136" font-family="Helvetica,sans-Serif" font-size="10.00">Cpl/Io/Stdio/StdErr.h</text>
</a>
</g>
</g>
<!-- Node23&#45;&gt;Node24 -->
<g id="edge27" class="edge"><title>Node23&#45;&gt;Node24</title>
<path fill="none" stroke="midnightblue" d="M1517.66,-191.274C1492.5,-178.4 1455.01,-159.209 1433.43,-148.167"/>
<polygon fill="midnightblue" stroke="midnightblue" points="1516.14,-194.428 1526.64,-195.869 1519.33,-188.197 1516.14,-194.428"/>
</g>
<!-- Node25 -->
<g id="node25" class="node"><title>Node25</title>
<g id="a_node25"><a xlink:href="_std_out_8h.html" target="_top" xlink:title=" ">
<polygon fill="white" stroke="black" points="1488.5,-129 1488.5,-148 1598.5,-148 1598.5,-129 1488.5,-129"/>
<text text-anchor="middle" x="1543.5" y="-136" font-family="Helvetica,sans-Serif" font-size="10.00">Cpl/Io/Stdio/StdOut.h</text>
</a>
</g>
</g>
<!-- Node23&#45;&gt;Node25 -->
<g id="edge28" class="edge"><title>Node23&#45;&gt;Node25</title>
<path fill="none" stroke="midnightblue" d="M1543.5,-185.537C1543.5,-173.17 1543.5,-157.62 1543.5,-148.127"/>
<polygon fill="midnightblue" stroke="midnightblue" points="1540,-185.734 1543.5,-195.734 1547,-185.734 1540,-185.734"/>
</g>
<!-- Node29 -->
<g id="node29" class="node"><title>Node29</title>
<g id="a_node29"><a xlink:href="helpers_8h.html" target="_top" xlink:title="This file defines helper functions/interface for writing unit tests.">
<polygon fill="white" stroke="black" points="1617,-129 1617,-148 1702,-148 1702,-129 1617,-129"/>
<text text-anchor="middle" x="1659.5" y="-136" font-family="Helvetica,sans-Serif" font-size="10.00">Catch/helpers.h</text>
</a>
</g>
</g>
<!-- Node28&#45;&gt;Node29 -->
<g id="edge32" class="edge"><title>Node28&#45;&gt;Node29</title>
<path fill="none" stroke="midnightblue" d="M1902.95,-193.694C1897.41,-192.426 1891.83,-191.168 1886.5,-190 1808.51,-172.907 1788.07,-172.931 1710.5,-154 1703.17,-152.21 1695.3,-150.079 1687.99,-148.01"/>
<polygon fill="midnightblue" stroke="midnightblue" points="1902.27,-197.129 1912.8,-195.971 1903.85,-190.309 1902.27,-197.129"/>
</g>
<!-- Node30 -->
<g id="node30" class="node"><title>Node30</title>
<g id="a_node30"><a xlink:href="_cpl_2_system_2_private___8h.html" target="_top" xlink:title="This file contains a collection of classes, interfaces, etc.">
<polygon fill="white" stroke="black" points="2080,-129 2080,-148 2195,-148 2195,-129 2080,-129"/>
<text text-anchor="middle" x="2137.5" y="-136" font-family="Helvetica,sans-Serif" font-size="10.00">Cpl/System/Private_.h</text>
</a>
</g>
</g>
<!-- Node28&#45;&gt;Node30 -->
<g id="edge33" class="edge"><title>Node28&#45;&gt;Node30</title>
<path fill="none" stroke="midnightblue" d="M1983.1,-192.601C2020.57,-179.714 2079.43,-159.473 2112.6,-148.064"/>
<polygon fill="midnightblue" stroke="midnightblue" points="1981.92,-189.307 1973.6,-195.869 1984.19,-195.926 1981.92,-189.307"/>
</g>
<!-- Node33 -->
<g id="node33" class="node"><title>Node33</title>
<g id="a_node33"><a xlink:href="_fsm__trace___8h.html" target="_top" xlink:title=" ">
<polygon fill="white" stroke="black" points="1720,-123.5 1720,-153.5 1865,-153.5 1865,-123.5 1720,-123.5"/>
<text text-anchor="start" x="1728" y="-141.5" font-family="Helvetica,sans-Serif" font-size="10.00">Storm/Component/Equipment</text>
<text text-anchor="middle" x="1792.5" y="-130.5" font-family="Helvetica,sans-Serif" font-size="10.00">/Stage/Fsm_trace_.h</text>
</a>
</g>
</g>
<!-- Node28&#45;&gt;Node33 -->
<g id="edge36" class="edge"><title>Node28&#45;&gt;Node33</title>
<path fill="none" stroke="midnightblue" d="M1918.29,-191.913C1891.87,-180.906 1853.56,-164.942 1826.17,-153.528"/>
<polygon fill="midnightblue" stroke="midnightblue" points="1917.21,-195.253 1927.78,-195.869 1919.9,-188.792 1917.21,-195.253"/>
</g>
<!-- Node34 -->
<g id="node34" class="node"><title>Node34</title>
<g id="a_node34"><a xlink:href="_event_monitor_8h_source.html" target="_top" xlink:title=" ">
<polygon fill="white" stroke="black" points="1883.5,-123.5 1883.5,-153.5 2023.5,-153.5 2023.5,-123.5 1883.5,-123.5"/>
<text text-anchor="start" x="1891.5" y="-141.5" font-family="Helvetica,sans-Serif" font-size="10.00">Storm/Thermostat/Ui</text>
<text text-anchor="middle" x="1953.5" y="-130.5" font-family="Helvetica,sans-Serif" font-size="10.00">/PicoDisplay/EventMonitor.h</text>
</a>
</g>
</g>
<!-- Node28&#45;&gt;Node34 -->
<g id="edge37" class="edge"><title>Node28&#45;&gt;Node34</title>
<path fill="none" stroke="midnightblue" d="M1949.94,-185.739C1950.73,-175.487 1951.69,-163.001 1952.42,-153.589"/>
<polygon fill="midnightblue" stroke="midnightblue" points="1946.45,-185.495 1949.17,-195.734 1953.43,-186.032 1946.45,-185.495"/>
</g>
<!-- Node31 -->
<g id="node31" class="node"><title>Node31</title>
<g id="a_node31"><a xlink:href="_cpl_2_t_shell_2_maker_8h.html" target="_top" xlink:title=" ">
<polygon fill="white" stroke="black" points="2053.5,-0.5 2053.5,-19.5 2153.5,-19.5 2153.5,-0.5 2053.5,-0.5"/>
<text text-anchor="middle" x="2103.5" y="-7.5" font-family="Helvetica,sans-Serif" font-size="10.00">Cpl/TShell/Maker.h</text>
</a>
</g>
</g>
<!-- Node30&#45;&gt;Node31 -->
<g id="edge34" class="edge"><title>Node30&#45;&gt;Node31</title>
<path fill="none" stroke="midnightblue" d="M2131.9,-119.337C2128.99,-109.749 2125.44,-97.7686 2122.5,-87 2115.9,-62.8608 2108.97,-34.16 2105.6,-19.9252"/>
<polygon fill="midnightblue" stroke="midnightblue" points="2128.57,-120.416 2134.84,-128.955 2135.26,-118.368 2128.57,-120.416"/>
</g>
<!-- Node32 -->
<g id="node32" class="node"><title>Node32</title>
<g id="a_node32"><a xlink:href="_polled_maker_8h.html" target="_top" xlink:title=" ">
<polygon fill="white" stroke="black" points="2132,-62 2132,-81 2259,-81 2259,-62 2132,-62"/>
<text text-anchor="middle" x="2195.5" y="-69" font-family="Helvetica,sans-Serif" font-size="10.00">Cpl/TShell/PolledMaker.h</text>
</a>
</g>
</g>
<!-- Node30&#45;&gt;Node32 -->
<g id="edge35" class="edge"><title>Node30&#45;&gt;Node32</title>
<path fill="none" stroke="midnightblue" d="M2152.1,-121.135C2163.45,-108.423 2178.73,-91.2978 2187.8,-81.1273"/>
<polygon fill="midnightblue" stroke="midnightblue" points="2149.37,-118.942 2145.32,-128.734 2154.59,-123.603 2149.37,-118.942"/>
</g>
<!-- Node36 -->
<g id="node36" class="node"><title>Node36</title>
<g id="a_node36"><a xlink:href="_cmd_2_command_8h.html" target="_top" xlink:title=" ">
<polygon fill="white" stroke="red" points="2427.5,-62 2427.5,-81 2567.5,-81 2567.5,-62 2427.5,-62"/>
<text text-anchor="middle" x="2497.5" y="-69" font-family="Helvetica,sans-Serif" font-size="10.00">Cpl/TShell/Cmd/Command.h</text>
</a>
</g>
</g>
<!-- Node35&#45;&gt;Node36 -->
<g id="edge39" class="edge"><title>Node35&#45;&gt;Node36</title>
<path fill="none" stroke="midnightblue" d="M2410.21,-189.489C2421.85,-180.055 2436.42,-167.204 2447.5,-154 2467.77,-129.837 2485.49,-96.6474 2493.29,-81.14"/>
<polygon fill="midnightblue" stroke="midnightblue" points="2408.01,-186.761 2402.34,-195.711 2412.36,-192.251 2408.01,-186.761"/>
</g>
<!-- Node51 -->
<g id="node42" class="node"><title>Node51</title>
<g id="a_node42"><a xlink:href="_context___8h.html" target="_top" xlink:title=" ">
<polygon fill="white" stroke="black" points="2326.5,-129 2326.5,-148 2438.5,-148 2438.5,-129 2326.5,-129"/>
<text text-anchor="middle" x="2382.5" y="-136" font-family="Helvetica,sans-Serif" font-size="10.00">Cpl/TShell/Context_.h</text>
</a>
</g>
</g>
<!-- Node35&#45;&gt;Node51 -->
<g id="edge45" class="edge"><title>Node35&#45;&gt;Node51</title>
<path fill="none" stroke="midnightblue" d="M2388.17,-185.537C2386.64,-173.17 2384.73,-157.62 2383.56,-148.127"/>
<polygon fill="midnightblue" stroke="midnightblue" points="2384.73,-186.236 2389.42,-195.734 2391.67,-185.381 2384.73,-186.236"/>
</g>
<!-- Node35&#45;&gt;Node54 -->
<g id="edge49" class="edge"><title>Node35&#45;&gt;Node54</title>
<path fill="none" stroke="midnightblue" d="M2421.89,-192.058C2449.67,-181.047 2490.18,-164.992 2519.11,-153.528"/>
<polygon fill="midnightblue" stroke="midnightblue" points="2420.28,-188.93 2412.28,-195.869 2422.86,-195.438 2420.28,-188.93"/>
</g>
<!-- Node37 -->
<g id="node37" class="node"><title>Node37</title>
<g id="a_node37"><a xlink:href="_dm_8h.html" target="_top" xlink:title=" ">
<polygon fill="white" stroke="black" points="2595.5,-0.5 2595.5,-19.5 2701.5,-19.5 2701.5,-0.5 2595.5,-0.5"/>
<text text-anchor="middle" x="2648.5" y="-7.5" font-family="Helvetica,sans-Serif" font-size="10.00">Cpl/Dm/TShell/Dm.h</text>
</a>
</g>
</g>
<!-- Node36&#45;&gt;Node37 -->
<g id="edge40" class="edge"><title>Node36&#45;&gt;Node37</title>
<path fill="none" stroke="midnightblue" d="M2528.51,-58.2824C2557.85,-46.7199 2601.13,-29.6641 2626.91,-19.5091"/>
<polygon fill="midnightblue" stroke="midnightblue" points="2527.16,-55.0527 2519.13,-61.9751 2529.72,-61.5653 2527.16,-55.0527"/>
</g>
<!-- Node38 -->
<g id="node38" class="node"><title>Node38</title>
<g id="a_node38"><a xlink:href="_bye_8h.html" target="_top" xlink:title=" ">
<polygon fill="white" stroke="black" points="2720,-0.5 2720,-19.5 2833,-19.5 2833,-0.5 2720,-0.5"/>
<text text-anchor="middle" x="2776.5" y="-7.5" font-family="Helvetica,sans-Serif" font-size="10.00">Cpl/TShell/Cmd/Bye.h</text>
</a>
</g>
</g>
<!-- Node36&#45;&gt;Node38 -->
<g id="edge41" class="edge"><title>Node36&#45;&gt;Node38</title>
<path fill="none" stroke="midnightblue" d="M2547.53,-59.8304C2601.64,-48.2915 2686.81,-30.1277 2736.6,-19.5091"/>
<polygon fill="midnightblue" stroke="midnightblue" points="2546.52,-56.4663 2537.47,-61.9751 2547.98,-63.3123 2546.52,-56.4663"/>
</g>
<!-- Node39 -->
<g id="node39" class="node"><title>Node39</title>
<g id="a_node39"><a xlink:href="_help_8h.html" target="_top" xlink:title=" ">
<polygon fill="white" stroke="black" points="2171.5,-0.5 2171.5,-19.5 2287.5,-19.5 2287.5,-0.5 2171.5,-0.5"/>
<text text-anchor="middle" x="2229.5" y="-7.5" font-family="Helvetica,sans-Serif" font-size="10.00">Cpl/TShell/Cmd/Help.h</text>
</a>
</g>
</g>
<!-- Node36&#45;&gt;Node39 -->
<g id="edge42" class="edge"><title>Node36&#45;&gt;Node39</title>
<path fill="none" stroke="midnightblue" d="M2449.12,-59.7584C2397.13,-48.216 2315.56,-30.1056 2267.83,-19.5091"/>
<polygon fill="midnightblue" stroke="midnightblue" points="2448.58,-63.2245 2459.1,-61.9751 2450.1,-56.3908 2448.58,-63.2245"/>
</g>
<!-- Node40 -->
<g id="node40" class="node"><title>Node40</title>
<g id="a_node40"><a xlink:href="_t_print_8h.html" target="_top" xlink:title=" ">
<polygon fill="white" stroke="black" points="2305.5,-0.5 2305.5,-19.5 2427.5,-19.5 2427.5,-0.5 2305.5,-0.5"/>
<text text-anchor="middle" x="2366.5" y="-7.5" font-family="Helvetica,sans-Serif" font-size="10.00">Cpl/TShell/Cmd/TPrint.h</text>
</a>
</g>
</g>
<!-- Node36&#45;&gt;Node40 -->
<g id="edge43" class="edge"><title>Node36&#45;&gt;Node40</title>
<path fill="none" stroke="midnightblue" d="M2469.6,-57.8272C2444.17,-46.2761 2407.3,-29.5316 2385.23,-19.5091"/>
<polygon fill="midnightblue" stroke="midnightblue" points="2468.18,-61.0263 2478.73,-61.9751 2471.07,-54.6529 2468.18,-61.0263"/>
</g>
<!-- Node41 -->
<g id="node41" class="node"><title>Node41</title>
<g id="a_node41"><a xlink:href="_threads_8h.html" target="_top" xlink:title=" ">
<polygon fill="white" stroke="red" points="2446,-0.5 2446,-19.5 2577,-19.5 2577,-0.5 2446,-0.5"/>
<text text-anchor="middle" x="2511.5" y="-7.5" font-family="Helvetica,sans-Serif" font-size="10.00">Cpl/TShell/Cmd/Threads.h</text>
</a>
</g>
</g>
<!-- Node36&#45;&gt;Node41 -->
<g id="edge44" class="edge"><title>Node36&#45;&gt;Node41</title>
<path fill="none" stroke="midnightblue" d="M2501.82,-52.1575C2504.38,-41.2724 2507.5,-27.9863 2509.5,-19.5091"/>
<polygon fill="midnightblue" stroke="midnightblue" points="2498.39,-51.4393 2499.51,-61.9751 2505.2,-53.0426 2498.39,-51.4393"/>
</g>
<!-- Node51&#45;&gt;Node36 -->
<g id="edge46" class="edge"><title>Node51&#45;&gt;Node36</title>
<path fill="none" stroke="midnightblue" d="M2406.76,-123.787C2429.55,-110.905 2462.96,-92.0243 2482.24,-81.1273"/>
<polygon fill="midnightblue" stroke="midnightblue" points="2404.99,-120.766 2398.01,-128.734 2408.44,-126.86 2404.99,-120.766"/>
</g>
<!-- Node52 -->
<g id="node43" class="node"><title>Node52</title>
<g id="a_node43"><a xlink:href="_processor_8h.html" target="_top" xlink:title=" ">
<polygon fill="white" stroke="red" points="2292,-62 2292,-81 2409,-81 2409,-62 2292,-62"/>
<text text-anchor="middle" x="2350.5" y="-69" font-family="Helvetica,sans-Serif" font-size="10.00">Cpl/TShell/Processor.h</text>
</a>
</g>
</g>
<!-- Node51&#45;&gt;Node52 -->
<g id="edge47" class="edge"><title>Node51&#45;&gt;Node52</title>
<path fill="none" stroke="midnightblue" d="M2373.72,-119.663C2367.55,-107.128 2359.56,-90.9104 2354.75,-81.1273"/>
<polygon fill="midnightblue" stroke="midnightblue" points="2370.63,-121.308 2378.18,-128.734 2376.91,-118.216 2370.63,-121.308"/>
</g>
<!-- Node52&#45;&gt;Node31 -->
<g id="edge48" class="edge"><title>Node52&#45;&gt;Node31</title>
<path fill="none" stroke="midnightblue" d="M2305.31,-59.6138C2257.37,-48.0653 2182.63,-30.0615 2138.82,-19.5091"/>
<polygon fill="midnightblue" stroke="midnightblue" points="2304.57,-63.0358 2315.11,-61.9751 2306.21,-56.2304 2304.57,-63.0358"/>
</g>
<!-- Node55&#45;&gt;Node16 -->
<g id="edge52" class="edge"><title>Node55&#45;&gt;Node16</title>
<path fill="none" stroke="midnightblue" d="M2138.18,-191.46C2118.6,-182.005 2092.27,-168.396 2070.5,-154 2052.32,-141.977 2052.4,-131.886 2032.5,-123 1943.5,-83.262 1828.49,-74.1367 1762.76,-72.4191"/>
<polygon fill="midnightblue" stroke="midnightblue" points="2136.93,-194.744 2147.47,-195.881 2139.94,-188.423 2136.93,-194.744"/>
</g>
<!-- Node55&#45;&gt;Node51 -->
<g id="edge51" class="edge"><title>Node55&#45;&gt;Node51</title>
<path fill="none" stroke="midnightblue" d="M2204.95,-192.929C2247.72,-180.059 2315.81,-159.57 2354.04,-148.064"/>
<polygon fill="midnightblue" stroke="midnightblue" points="2203.75,-189.635 2195.18,-195.869 2205.77,-196.338 2203.75,-189.635"/>
</g>
<!-- Node56 -->
<g id="node46" class="node"><title>Node56</title>
<g id="a_node46"><a xlink:href="_t_shell_2_stdio_8h.html" target="_top" xlink:title=" ">
<polygon fill="white" stroke="black" points="2213,-129 2213,-148 2308,-148 2308,-129 2213,-129"/>
<text text-anchor="middle" x="2260.5" y="-136" font-family="Helvetica,sans-Serif" font-size="10.00">Cpl/TShell/Stdio.h</text>
</a>
</g>
</g>
<!-- Node55&#45;&gt;Node56 -->
<g id="edge53" class="edge"><title>Node55&#45;&gt;Node56</title>
<path fill="none" stroke="midnightblue" d="M2187.59,-189.92C2206.17,-177.069 2232.62,-158.782 2248.02,-148.127"/>
<polygon fill="midnightblue" stroke="midnightblue" points="2185.41,-187.167 2179.18,-195.734 2189.39,-192.925 2185.41,-187.167"/>
</g>
<!-- Node57&#45;&gt;Node52 -->
<g id="edge55" class="edge"><title>Node57&#45;&gt;Node52</title>
<path fill="none" stroke="midnightblue" d="M2621.19,-186.781C2629.64,-168.667 2638.4,-140.743 2623.5,-123 2593.76,-87.5787 2463.9,-95.8244 2418.5,-87 2409.02,-85.1576 2398.83,-83.0507 2389.29,-81.0245"/>
<polygon fill="midnightblue" stroke="midnightblue" points="2618.07,-185.204 2616.69,-195.709 2624.32,-188.358 2618.07,-185.204"/>
</g>
<!-- Node57&#45;&gt;Node58 -->
<g id="edge56" class="edge"><title>Node57&#45;&gt;Node58</title>
<path fill="none" stroke="midnightblue" d="M2635,-190.615C2656.79,-177.737 2688.54,-158.976 2706.9,-148.127"/>
<polygon fill="midnightblue" stroke="midnightblue" points="2633.16,-187.633 2626.34,-195.734 2636.72,-193.66 2633.16,-187.633"/>
</g>
<!-- Node58&#45;&gt;Node59 -->
<g id="edge57" class="edge"><title>Node58&#45;&gt;Node59</title>
<path fill="none" stroke="midnightblue" d="M2740.05,-122.237C2753.16,-111.452 2770.6,-97.1025 2783.38,-86.589"/>
<polygon fill="midnightblue" stroke="midnightblue" points="2737.65,-119.677 2732.15,-128.734 2742.1,-125.083 2737.65,-119.677"/>
</g>
<!-- Node60 -->
<g id="node50" class="node"><title>Node60</title>
<g id="a_node50"><a xlink:href="_driver_2_t_pipe_2_maker_8h.html" target="_top" xlink:title=" ">
<polygon fill="white" stroke="black" points="2625,-62 2625,-81 2734,-81 2734,-62 2625,-62"/>
<text text-anchor="middle" x="2679.5" y="-69" font-family="Helvetica,sans-Serif" font-size="10.00">Driver/TPipe/Maker.h</text>
</a>
</g>
</g>
<!-- Node58&#45;&gt;Node60 -->
<g id="edge58" class="edge"><title>Node58&#45;&gt;Node60</title>
<path fill="none" stroke="midnightblue" d="M2710.21,-120.035C2702.08,-107.45 2691.46,-91.0072 2685.07,-81.1273"/>
<polygon fill="midnightblue" stroke="midnightblue" points="2707.47,-122.234 2715.84,-128.734 2713.35,-118.435 2707.47,-122.234"/>
</g>
</g>
</svg>
