<?xml version="1.0" encoding="UTF-8" standalone="no"?>
<!DOCTYPE svg PUBLIC "-//W3C//DTD SVG 1.1//EN"
 "http://www.w3.org/Graphics/SVG/1.1/DTD/svg11.dtd">
<!-- Generated by graphviz version 2.38.0 (20140413.2041)
 -->
<!-- Title: Cpl/Persistent/Payload.h Pages: 1 -->
<svg width="1027pt" height="363pt"
 viewBox="0.00 0.00 1027.00 363.00" xmlns="http://www.w3.org/2000/svg" xmlns:xlink="http://www.w3.org/1999/xlink">
<g id="graph0" class="graph" transform="scale(1 1) rotate(0) translate(4 359)">
<title>Cpl/Persistent/Payload.h</title>
<polygon fill="white" stroke="none" points="-4,4 -4,-359 1023,-359 1023,4 -4,4"/>
<!-- Node1 -->
<g id="node1" class="node"><title>Node1</title>
<g id="a_node1"><a xlink:title=" ">
<polygon fill="#bfbfbf" stroke="black" points="593,-335.5 593,-354.5 718,-354.5 718,-335.5 593,-335.5"/>
<text text-anchor="middle" x="655.5" y="-342.5" font-family="Helvetica,sans-Serif" font-size="10.00">Cpl/Persistent/Payload.h</text>
</a>
</g>
</g>
<!-- Node2 -->
<g id="node2" class="node"><title>Node2</title>
<g id="a_node2"><a xlink:href="_dm_2_persistent_2_record_8h.html" target="_top" xlink:title=" ">
<polygon fill="white" stroke="black" points="127.5,-207 127.5,-226 265.5,-226 265.5,-207 127.5,-207"/>
<text text-anchor="middle" x="196.5" y="-214" font-family="Helvetica,sans-Serif" font-size="10.00">Cpl/Dm/Persistent/Record.h</text>
</a>
</g>
</g>
<!-- Node1&#45;&gt;Node2 -->
<g id="edge1" class="edge"><title>Node1&#45;&gt;Node2</title>
<path fill="none" stroke="midnightblue" d="M601.185,-333.44C559.892,-325.069 501.806,-312.557 451.5,-299 365.562,-275.841 265.504,-241.725 220.539,-226.004"/>
<polygon fill="midnightblue" stroke="midnightblue" points="600.548,-336.882 611.042,-335.424 601.93,-330.019 600.548,-336.882"/>
</g>
<!-- Node6 -->
<g id="node6" class="node"><title>Node6</title>
<g id="a_node6"><a xlink:href="_chunk_8h.html" target="_top" xlink:title=" ">
<polygon fill="white" stroke="black" points="461,-274 461,-293 578,-293 578,-274 461,-274"/>
<text text-anchor="middle" x="519.5" y="-281" font-family="Helvetica,sans-Serif" font-size="10.00">Cpl/Persistent/Chunk.h</text>
</a>
</g>
</g>
<!-- Node1&#45;&gt;Node6 -->
<g id="edge5" class="edge"><title>Node1&#45;&gt;Node6</title>
<path fill="none" stroke="midnightblue" d="M626.534,-331.327C600.131,-319.776 561.858,-303.032 538.949,-293.009"/>
<polygon fill="midnightblue" stroke="midnightblue" points="625.45,-334.673 636.015,-335.475 628.256,-328.26 625.45,-334.673"/>
</g>
<!-- Node8 -->
<g id="node8" class="node"><title>Node8</title>
<g id="a_node8"><a xlink:href="_data_record_8h.html" target="_top" xlink:title=" ">
<polygon fill="white" stroke="black" points="641.5,-207 641.5,-226 781.5,-226 781.5,-207 641.5,-207"/>
<text text-anchor="middle" x="711.5" y="-214" font-family="Helvetica,sans-Serif" font-size="10.00">Cpl/Persistent/DataRecord.h</text>
</a>
</g>
</g>
<!-- Node1&#45;&gt;Node8 -->
<g id="edge14" class="edge"><title>Node1&#45;&gt;Node8</title>
<path fill="none" stroke="midnightblue" d="M640.532,-327.346C628.215,-311.514 614.44,-287.32 625.5,-268 637.629,-246.813 662.486,-233.645 682.371,-226.09"/>
<polygon fill="midnightblue" stroke="midnightblue" points="637.974,-329.744 647.057,-335.197 643.357,-325.269 637.974,-329.744"/>
</g>
<!-- Node13 -->
<g id="node13" class="node"><title>Node13</title>
<g id="a_node13"><a xlink:href="_indexed_entry_reader_8h.html" target="_top" xlink:title=" ">
<polygon fill="white" stroke="black" points="792,-268.5 792,-298.5 931,-298.5 931,-268.5 792,-268.5"/>
<text text-anchor="start" x="800" y="-286.5" font-family="Helvetica,sans-Serif" font-size="10.00">Cpl/Persistent/IndexedEntry</text>
<text text-anchor="middle" x="861.5" y="-275.5" font-family="Helvetica,sans-Serif" font-size="10.00">Reader.h</text>
</a>
</g>
</g>
<!-- Node1&#45;&gt;Node13 -->
<g id="edge15" class="edge"><title>Node1&#45;&gt;Node13</title>
<path fill="none" stroke="midnightblue" d="M694.938,-332.609C728.542,-322.903 776.968,-308.916 812.95,-298.523"/>
<polygon fill="midnightblue" stroke="midnightblue" points="693.651,-329.338 685.015,-335.475 695.593,-336.063 693.651,-329.338"/>
</g>
<!-- Node14 -->
<g id="node14" class="node"><title>Node14</title>
<g id="a_node14"><a xlink:href="_indexed_entry_requests_8h.html" target="_top" xlink:title=" ">
<polygon fill="white" stroke="black" points="880,-201.5 880,-231.5 1019,-231.5 1019,-201.5 880,-201.5"/>
<text text-anchor="start" x="888" y="-219.5" font-family="Helvetica,sans-Serif" font-size="10.00">Cpl/Persistent/IndexedEntry</text>
<text text-anchor="middle" x="949.5" y="-208.5" font-family="Helvetica,sans-Serif" font-size="10.00">Requests.h</text>
</a>
</g>
</g>
<!-- Node1&#45;&gt;Node14 -->
<g id="edge19" class="edge"><title>Node1&#45;&gt;Node14</title>
<path fill="none" stroke="midnightblue" d="M728.434,-342.138C802.78,-338.609 911.102,-328.412 939.5,-299 956.729,-281.156 955.157,-249.918 952.382,-231.736"/>
<polygon fill="midnightblue" stroke="midnightblue" points="728.016,-338.654 718.181,-342.594 728.327,-345.647 728.016,-338.654"/>
</g>
<!-- Node15 -->
<g id="node15" class="node"><title>Node15</title>
<g id="a_node15"><a xlink:href="_indexed_entry_writer_8h.html" target="_top" xlink:title=" ">
<polygon fill="white" stroke="black" points="635,-268.5 635,-298.5 774,-298.5 774,-268.5 635,-268.5"/>
<text text-anchor="start" x="643" y="-286.5" font-family="Helvetica,sans-Serif" font-size="10.00">Cpl/Persistent/IndexedEntry</text>
<text text-anchor="middle" x="704.5" y="-275.5" font-family="Helvetica,sans-Serif" font-size="10.00">Writer.h</text>
</a>
</g>
</g>
<!-- Node1&#45;&gt;Node15 -->
<g id="edge20" class="edge"><title>Node1&#45;&gt;Node15</title>
<path fill="none" stroke="midnightblue" d="M669.064,-327.53C676.568,-318.417 685.795,-307.214 692.952,-298.523"/>
<polygon fill="midnightblue" stroke="midnightblue" points="666.176,-325.531 662.521,-335.475 671.579,-329.981 666.176,-325.531"/>
</g>
<!-- Node3 -->
<g id="node3" class="node"><title>Node3</title>
<g id="a_node3"><a xlink:href="_installer_record_8h_source.html" target="_top" xlink:title=" ">
<polygon fill="white" stroke="black" points="137,-134.5 137,-164.5 256,-164.5 256,-134.5 137,-134.5"/>
<text text-anchor="start" x="145" y="-152.5" font-family="Helvetica,sans-Serif" font-size="10.00">Storm/Thermostat/Main</text>
<text text-anchor="middle" x="196.5" y="-141.5" font-family="Helvetica,sans-Serif" font-size="10.00">/InstallerRecord.h</text>
</a>
</g>
</g>
<!-- Node2&#45;&gt;Node3 -->
<g id="edge2" class="edge"><title>Node2&#45;&gt;Node3</title>
<path fill="none" stroke="midnightblue" d="M196.5,-196.411C196.5,-186.222 196.5,-173.901 196.5,-164.589"/>
<polygon fill="midnightblue" stroke="midnightblue" points="193,-196.734 196.5,-206.734 200,-196.734 193,-196.734"/>
</g>
<!-- Node4 -->
<g id="node4" class="node"><title>Node4</title>
<g id="a_node4"><a xlink:href="_run_time_record_8h_source.html" target="_top" xlink:title=" ">
<polygon fill="white" stroke="black" points="274,-134.5 274,-164.5 393,-164.5 393,-134.5 274,-134.5"/>
<text text-anchor="start" x="282" y="-152.5" font-family="Helvetica,sans-Serif" font-size="10.00">Storm/Thermostat/Main</text>
<text text-anchor="middle" x="333.5" y="-141.5" font-family="Helvetica,sans-Serif" font-size="10.00">/RunTimeRecord.h</text>
</a>
</g>
</g>
<!-- Node2&#45;&gt;Node4 -->
<g id="edge3" class="edge"><title>Node2&#45;&gt;Node4</title>
<path fill="none" stroke="midnightblue" d="M223.955,-202.474C247.116,-191.485 280.194,-175.791 303.933,-164.528"/>
<polygon fill="midnightblue" stroke="midnightblue" points="222.227,-199.42 214.693,-206.869 225.228,-205.744 222.227,-199.42"/>
</g>
<!-- Node5 -->
<g id="node5" class="node"><title>Node5</title>
<g id="a_node5"><a xlink:href="_user_record_8h_source.html" target="_top" xlink:title=" ">
<polygon fill="white" stroke="black" points="0,-134.5 0,-164.5 119,-164.5 119,-134.5 0,-134.5"/>
<text text-anchor="start" x="8" y="-152.5" font-family="Helvetica,sans-Serif" font-size="10.00">Storm/Thermostat/Main</text>
<text text-anchor="middle" x="59.5" y="-141.5" font-family="Helvetica,sans-Serif" font-size="10.00">/UserRecord.h</text>
</a>
</g>
</g>
<!-- Node2&#45;&gt;Node5 -->
<g id="edge4" class="edge"><title>Node2&#45;&gt;Node5</title>
<path fill="none" stroke="midnightblue" d="M169.045,-202.474C145.884,-191.485 112.806,-175.791 89.0668,-164.528"/>
<polygon fill="midnightblue" stroke="midnightblue" points="167.772,-205.744 178.307,-206.869 170.773,-199.42 167.772,-205.744"/>
</g>
<!-- Node6&#45;&gt;Node2 -->
<g id="edge6" class="edge"><title>Node6&#45;&gt;Node2</title>
<path fill="none" stroke="midnightblue" d="M467.116,-271.958C403.543,-259.165 297.591,-237.843 238.896,-226.032"/>
<polygon fill="midnightblue" stroke="midnightblue" points="466.447,-275.394 476.941,-273.936 467.828,-268.531 466.447,-275.394"/>
</g>
<!-- Node7 -->
<g id="node7" class="node"><title>Node7</title>
<g id="a_node7"><a xlink:href="_crc_chunk_8h.html" target="_top" xlink:title=" ">
<polygon fill="white" stroke="black" points="453.5,-207 453.5,-226 585.5,-226 585.5,-207 453.5,-207"/>
<text text-anchor="middle" x="519.5" y="-214" font-family="Helvetica,sans-Serif" font-size="10.00">Cpl/Persistent/CrcChunk.h</text>
</a>
</g>
</g>
<!-- Node6&#45;&gt;Node7 -->
<g id="edge7" class="edge"><title>Node6&#45;&gt;Node7</title>
<path fill="none" stroke="midnightblue" d="M519.5,-263.537C519.5,-251.17 519.5,-235.62 519.5,-226.127"/>
<polygon fill="midnightblue" stroke="midnightblue" points="516,-263.734 519.5,-273.734 523,-263.734 516,-263.734"/>
</g>
<!-- Node6&#45;&gt;Node8 -->
<g id="edge8" class="edge"><title>Node6&#45;&gt;Node8</title>
<path fill="none" stroke="midnightblue" d="M554.647,-270.601C592.715,-257.714 652.503,-237.473 686.204,-226.064"/>
<polygon fill="midnightblue" stroke="midnightblue" points="553.346,-267.347 544.996,-273.869 555.59,-273.977 553.346,-267.347"/>
</g>
<!-- Node10 -->
<g id="node10" class="node"><title>Node10</title>
<g id="a_node10"><a xlink:href="_indexed_entry_record_8h.html" target="_top" xlink:title=" ">
<polygon fill="white" stroke="black" points="744,-67.5 744,-97.5 883,-97.5 883,-67.5 744,-67.5"/>
<text text-anchor="start" x="752" y="-85.5" font-family="Helvetica,sans-Serif" font-size="10.00">Cpl/Persistent/IndexedEntry</text>
<text text-anchor="middle" x="813.5" y="-74.5" font-family="Helvetica,sans-Serif" font-size="10.00">Record.h</text>
</a>
</g>
</g>
<!-- Node6&#45;&gt;Node10 -->
<g id="edge12" class="edge"><title>Node6&#45;&gt;Node10</title>
<path fill="none" stroke="midnightblue" d="M547.463,-269.097C563.104,-260.394 581.924,-247.743 594.5,-232 623.658,-195.501 597.892,-165.378 632.5,-134 662.832,-106.499 706.924,-93.8253 743.995,-88.0504"/>
<polygon fill="midnightblue" stroke="midnightblue" points="545.415,-266.221 538.219,-273.998 548.694,-272.406 545.415,-266.221"/>
</g>
<!-- Node12 -->
<g id="node12" class="node"><title>Node12</title>
<g id="a_node12"><a xlink:href="_mirrored_chunk_8h.html" target="_top" xlink:title=" ">
<polygon fill="white" stroke="black" points="283.5,-207 283.5,-226 435.5,-226 435.5,-207 283.5,-207"/>
<text text-anchor="middle" x="359.5" y="-214" font-family="Helvetica,sans-Serif" font-size="10.00">Cpl/Persistent/MirroredChunk.h</text>
</a>
</g>
</g>
<!-- Node6&#45;&gt;Node12 -->
<g id="edge13" class="edge"><title>Node6&#45;&gt;Node12</title>
<path fill="none" stroke="midnightblue" d="M488.987,-270.104C457.219,-257.198 408.305,-237.327 380.58,-226.064"/>
<polygon fill="midnightblue" stroke="midnightblue" points="487.671,-273.347 498.253,-273.869 490.306,-266.862 487.671,-273.347"/>
</g>
<!-- Node9 -->
<g id="node9" class="node"><title>Node9</title>
<g id="a_node9"><a xlink:href="_index_record_8h.html" target="_top" xlink:title=" ">
<polygon fill="white" stroke="black" points="641.5,-140 641.5,-159 785.5,-159 785.5,-140 641.5,-140"/>
<text text-anchor="middle" x="713.5" y="-147" font-family="Helvetica,sans-Serif" font-size="10.00">Cpl/Persistent/IndexRecord.h</text>
</a>
</g>
</g>
<!-- Node8&#45;&gt;Node9 -->
<g id="edge9" class="edge"><title>Node8&#45;&gt;Node9</title>
<path fill="none" stroke="midnightblue" d="M712.083,-196.537C712.464,-184.17 712.942,-168.62 713.235,-159.127"/>
<polygon fill="midnightblue" stroke="midnightblue" points="708.579,-196.631 711.77,-206.734 715.576,-196.846 708.579,-196.631"/>
</g>
<!-- Node9&#45;&gt;Node10 -->
<g id="edge10" class="edge"><title>Node9&#45;&gt;Node10</title>
<path fill="none" stroke="midnightblue" d="M735.573,-134.153C752.308,-123.275 775.188,-108.403 791.825,-97.589"/>
<polygon fill="midnightblue" stroke="midnightblue" points="733.463,-131.349 726.986,-139.734 737.278,-137.218 733.463,-131.349"/>
</g>
<!-- Node11 -->
<g id="node11" class="node"><title>Node11</title>
<g id="a_node11"><a xlink:href="_indexed_entry_server_8h.html" target="_top" xlink:title=" ">
<polygon fill="white" stroke="black" points="802,-0.5 802,-30.5 941,-30.5 941,-0.5 802,-0.5"/>
<text text-anchor="start" x="810" y="-18.5" font-family="Helvetica,sans-Serif" font-size="10.00">Cpl/Persistent/IndexedEntry</text>
<text text-anchor="middle" x="871.5" y="-7.5" font-family="Helvetica,sans-Serif" font-size="10.00">Server.h</text>
</a>
</g>
</g>
<!-- Node10&#45;&gt;Node11 -->
<g id="edge11" class="edge"><title>Node10&#45;&gt;Node11</title>
<path fill="none" stroke="midnightblue" d="M832.92,-59.7362C841.502,-50.119 851.344,-39.0888 858.939,-30.5765"/>
<polygon fill="midnightblue" stroke="midnightblue" points="830.132,-57.6043 826.085,-67.396 835.355,-62.2648 830.132,-57.6043"/>
</g>
<!-- Node13&#45;&gt;Node10 -->
<g id="edge16" class="edge"><title>Node13&#45;&gt;Node10</title>
<path fill="none" stroke="midnightblue" d="M856.312,-258.298C849.916,-228.838 838.533,-177.617 827.5,-134 824.376,-121.652 820.482,-107.706 817.595,-97.6035"/>
<polygon fill="midnightblue" stroke="midnightblue" points="852.9,-259.078 858.433,-268.113 859.742,-257.599 852.9,-259.078"/>
</g>
<!-- Node13&#45;&gt;Node14 -->
<g id="edge17" class="edge"><title>Node13&#45;&gt;Node14</title>
<path fill="none" stroke="midnightblue" d="M888.643,-262.451C902.181,-252.452 918.227,-240.6 930.443,-231.577"/>
<polygon fill="midnightblue" stroke="midnightblue" points="886.559,-259.639 880.595,-268.396 890.718,-265.27 886.559,-259.639"/>
</g>
<!-- Node14&#45;&gt;Node11 -->
<g id="edge18" class="edge"><title>Node14&#45;&gt;Node11</title>
<path fill="none" stroke="midnightblue" d="M940.264,-191.75C928.848,-162.42 908.808,-111.008 891.5,-67 886.668,-54.7142 881.14,-40.7629 877.121,-30.642"/>
<polygon fill="midnightblue" stroke="midnightblue" points="937.036,-193.106 943.924,-201.156 943.559,-190.567 937.036,-193.106"/>
</g>
<!-- Node15&#45;&gt;Node10 -->
<g id="edge21" class="edge"><title>Node15&#45;&gt;Node10</title>
<path fill="none" stroke="midnightblue" d="M753.091,-263.682C767.229,-255.922 781.321,-245.511 790.5,-232 819.088,-189.92 817.469,-125.784 815.074,-97.6087"/>
<polygon fill="midnightblue" stroke="midnightblue" points="751.158,-260.74 743.845,-268.406 754.343,-266.973 751.158,-260.74"/>
</g>
</g>
</svg>
