<?xml version="1.0" encoding="UTF-8" standalone="no"?>
<!DOCTYPE svg PUBLIC "-//W3C//DTD SVG 1.1//EN"
 "http://www.w3.org/Graphics/SVG/1.1/DTD/svg11.dtd">
<!-- Generated by graphviz version 2.38.0 (20140413.2041)
 -->
<!-- Title: Cpl/Persistent/Record.h Pages: 1 -->
<svg width="558pt" height="274pt"
 viewBox="0.00 0.00 558.00 274.00" xmlns="http://www.w3.org/2000/svg" xmlns:xlink="http://www.w3.org/1999/xlink">
<g id="graph0" class="graph" transform="scale(1 1) rotate(0) translate(4 270)">
<title>Cpl/Persistent/Record.h</title>
<polygon fill="white" stroke="none" points="-4,4 -4,-270 554,-270 554,4 -4,4"/>
<!-- Node1 -->
<g id="node1" class="node"><title>Node1</title>
<g id="a_node1"><a xlink:title=" ">
<polygon fill="#bfbfbf" stroke="black" points="241.5,-246.5 241.5,-265.5 361.5,-265.5 361.5,-246.5 241.5,-246.5"/>
<text text-anchor="middle" x="301.5" y="-253.5" font-family="Helvetica,sans-Serif" font-size="10.00">Cpl/Persistent/Record.h</text>
</a>
</g>
</g>
<!-- Node2 -->
<g id="node2" class="node"><title>Node2</title>
<g id="a_node2"><a xlink:href="_dm_2_persistent_2_record_8h.html" target="_top" xlink:title=" ">
<polygon fill="white" stroke="black" points="129.5,-134.5 129.5,-153.5 267.5,-153.5 267.5,-134.5 129.5,-134.5"/>
<text text-anchor="middle" x="198.5" y="-141.5" font-family="Helvetica,sans-Serif" font-size="10.00">Cpl/Dm/Persistent/Record.h</text>
</a>
</g>
</g>
<!-- Node1&#45;&gt;Node2 -->
<g id="edge1" class="edge"><title>Node1&#45;&gt;Node2</title>
<path fill="none" stroke="midnightblue" d="M265.073,-242.579C248.78,-235.364 230.568,-224.735 218.5,-210 204.735,-193.193 200.425,-166.967 199.09,-153.544"/>
<polygon fill="midnightblue" stroke="midnightblue" points="263.805,-245.843 274.383,-246.439 266.485,-239.376 263.805,-245.843"/>
</g>
<!-- Node6 -->
<g id="node6" class="node"><title>Node6</title>
<g id="a_node6"><a xlink:href="_data_record_8h.html" target="_top" xlink:title=" ">
<polygon fill="white" stroke="black" points="398.5,-190.5 398.5,-209.5 538.5,-209.5 538.5,-190.5 398.5,-190.5"/>
<text text-anchor="middle" x="468.5" y="-197.5" font-family="Helvetica,sans-Serif" font-size="10.00">Cpl/Persistent/DataRecord.h</text>
</a>
</g>
</g>
<!-- Node1&#45;&gt;Node6 -->
<g id="edge5" class="edge"><title>Node1&#45;&gt;Node6</title>
<path fill="none" stroke="midnightblue" d="M337.67,-243.304C369.137,-233.129 413.994,-218.625 442.162,-209.516"/>
<polygon fill="midnightblue" stroke="midnightblue" points="336.4,-240.037 327.962,-246.444 338.553,-246.697 336.4,-240.037"/>
</g>
<!-- Node10 -->
<g id="node10" class="node"><title>Node10</title>
<g id="a_node10"><a xlink:href="_record_server_8h.html" target="_top" xlink:title=" ">
<polygon fill="white" stroke="black" points="227,-190.5 227,-209.5 376,-209.5 376,-190.5 227,-190.5"/>
<text text-anchor="middle" x="301.5" y="-197.5" font-family="Helvetica,sans-Serif" font-size="10.00">Cpl/Persistent/RecordServer.h</text>
</a>
</g>
</g>
<!-- Node1&#45;&gt;Node10 -->
<g id="edge9" class="edge"><title>Node1&#45;&gt;Node10</title>
<path fill="none" stroke="midnightblue" d="M301.5,-235.805C301.5,-226.91 301.5,-216.78 301.5,-209.751"/>
<polygon fill="midnightblue" stroke="midnightblue" points="298,-236.083 301.5,-246.083 305,-236.083 298,-236.083"/>
</g>
<!-- Node3 -->
<g id="node3" class="node"><title>Node3</title>
<g id="a_node3"><a xlink:href="_installer_record_8h_source.html" target="_top" xlink:title=" ">
<polygon fill="white" stroke="black" points="0,-67.5 0,-97.5 119,-97.5 119,-67.5 0,-67.5"/>
<text text-anchor="start" x="8" y="-85.5" font-family="Helvetica,sans-Serif" font-size="10.00">Storm/Thermostat/Main</text>
<text text-anchor="middle" x="59.5" y="-74.5" font-family="Helvetica,sans-Serif" font-size="10.00">/InstallerRecord.h</text>
</a>
</g>
</g>
<!-- Node2&#45;&gt;Node3 -->
<g id="edge2" class="edge"><title>Node2&#45;&gt;Node3</title>
<path fill="none" stroke="midnightblue" d="M169.206,-130.461C146.692,-120.823 115.597,-107.513 92.2595,-97.523"/>
<polygon fill="midnightblue" stroke="midnightblue" points="168.014,-133.757 178.585,-134.475 170.769,-127.322 168.014,-133.757"/>
</g>
<!-- Node4 -->
<g id="node4" class="node"><title>Node4</title>
<g id="a_node4"><a xlink:href="_run_time_record_8h_source.html" target="_top" xlink:title=" ">
<polygon fill="white" stroke="black" points="137,-67.5 137,-97.5 256,-97.5 256,-67.5 137,-67.5"/>
<text text-anchor="start" x="145" y="-85.5" font-family="Helvetica,sans-Serif" font-size="10.00">Storm/Thermostat/Main</text>
<text text-anchor="middle" x="196.5" y="-74.5" font-family="Helvetica,sans-Serif" font-size="10.00">/RunTimeRecord.h</text>
</a>
</g>
</g>
<!-- Node2&#45;&gt;Node4 -->
<g id="edge3" class="edge"><title>Node2&#45;&gt;Node4</title>
<path fill="none" stroke="midnightblue" d="M197.869,-124.235C197.579,-115.586 197.239,-105.497 196.971,-97.523"/>
<polygon fill="midnightblue" stroke="midnightblue" points="194.379,-124.598 198.213,-134.475 201.375,-124.363 194.379,-124.598"/>
</g>
<!-- Node5 -->
<g id="node5" class="node"><title>Node5</title>
<g id="a_node5"><a xlink:href="_user_record_8h_source.html" target="_top" xlink:title=" ">
<polygon fill="white" stroke="black" points="274,-67.5 274,-97.5 393,-97.5 393,-67.5 274,-67.5"/>
<text text-anchor="start" x="282" y="-85.5" font-family="Helvetica,sans-Serif" font-size="10.00">Storm/Thermostat/Main</text>
<text text-anchor="middle" x="333.5" y="-74.5" font-family="Helvetica,sans-Serif" font-size="10.00">/UserRecord.h</text>
</a>
</g>
</g>
<!-- Node2&#45;&gt;Node5 -->
<g id="edge4" class="edge"><title>Node2&#45;&gt;Node5</title>
<path fill="none" stroke="midnightblue" d="M227.246,-130.331C249.088,-120.704 279.119,-107.468 301.683,-97.523"/>
<polygon fill="midnightblue" stroke="midnightblue" points="225.581,-127.239 217.842,-134.475 228.404,-133.645 225.581,-127.239"/>
</g>
<!-- Node7 -->
<g id="node7" class="node"><title>Node7</title>
<g id="a_node7"><a xlink:href="_index_record_8h.html" target="_top" xlink:title=" ">
<polygon fill="white" stroke="black" points="405.5,-134.5 405.5,-153.5 549.5,-153.5 549.5,-134.5 405.5,-134.5"/>
<text text-anchor="middle" x="477.5" y="-141.5" font-family="Helvetica,sans-Serif" font-size="10.00">Cpl/Persistent/IndexRecord.h</text>
</a>
</g>
</g>
<!-- Node6&#45;&gt;Node7 -->
<g id="edge6" class="edge"><title>Node6&#45;&gt;Node7</title>
<path fill="none" stroke="midnightblue" d="M471.65,-180.101C473.144,-171.136 474.857,-160.858 476.041,-153.751"/>
<polygon fill="midnightblue" stroke="midnightblue" points="468.178,-179.644 469.986,-190.083 475.083,-180.794 468.178,-179.644"/>
</g>
<!-- Node8 -->
<g id="node8" class="node"><title>Node8</title>
<g id="a_node8"><a xlink:href="_indexed_entry_record_8h.html" target="_top" xlink:title=" ">
<polygon fill="white" stroke="black" points="411,-67.5 411,-97.5 550,-97.5 550,-67.5 411,-67.5"/>
<text text-anchor="start" x="419" y="-85.5" font-family="Helvetica,sans-Serif" font-size="10.00">Cpl/Persistent/IndexedEntry</text>
<text text-anchor="middle" x="480.5" y="-74.5" font-family="Helvetica,sans-Serif" font-size="10.00">Record.h</text>
</a>
</g>
</g>
<!-- Node7&#45;&gt;Node8 -->
<g id="edge7" class="edge"><title>Node7&#45;&gt;Node8</title>
<path fill="none" stroke="midnightblue" d="M478.446,-124.235C478.882,-115.586 479.391,-105.497 479.793,-97.523"/>
<polygon fill="midnightblue" stroke="midnightblue" points="474.938,-124.312 477.93,-134.475 481.929,-124.664 474.938,-124.312"/>
</g>
<!-- Node9 -->
<g id="node9" class="node"><title>Node9</title>
<g id="a_node9"><a xlink:href="_indexed_entry_server_8h.html" target="_top" xlink:title=" ">
<polygon fill="white" stroke="black" points="411,-0.5 411,-30.5 550,-30.5 550,-0.5 411,-0.5"/>
<text text-anchor="start" x="419" y="-18.5" font-family="Helvetica,sans-Serif" font-size="10.00">Cpl/Persistent/IndexedEntry</text>
<text text-anchor="middle" x="480.5" y="-7.5" font-family="Helvetica,sans-Serif" font-size="10.00">Server.h</text>
</a>
</g>
</g>
<!-- Node8&#45;&gt;Node9 -->
<g id="edge8" class="edge"><title>Node8&#45;&gt;Node9</title>
<path fill="none" stroke="midnightblue" d="M480.5,-57.1081C480.5,-48.1539 480.5,-38.3227 480.5,-30.5765"/>
<polygon fill="midnightblue" stroke="midnightblue" points="477,-57.3959 480.5,-67.396 484,-57.396 477,-57.3959"/>
</g>
<!-- Node10&#45;&gt;Node2 -->
<g id="edge10" class="edge"><title>Node10&#45;&gt;Node2</title>
<path fill="none" stroke="midnightblue" d="M275.921,-185.59C256.877,-175.605 231.436,-162.267 215.008,-153.655"/>
<polygon fill="midnightblue" stroke="midnightblue" points="274.469,-188.78 284.951,-190.324 277.72,-182.581 274.469,-188.78"/>
</g>
</g>
</svg>
