<?xml version="1.0" encoding="UTF-8" standalone="no"?>
<!DOCTYPE svg PUBLIC "-//W3C//DTD SVG 1.1//EN"
 "http://www.w3.org/Graphics/SVG/1.1/DTD/svg11.dtd">
<!-- Generated by graphviz version 2.38.0 (20140413.2041)
 -->
<!-- Title: Driver/LED/PimoroniPico/RedGreenBlue.h Pages: 1 -->
<svg width="360pt" height="151pt"
 viewBox="0.00 0.00 360.00 151.00" xmlns="http://www.w3.org/2000/svg" xmlns:xlink="http://www.w3.org/1999/xlink">
<g id="graph0" class="graph" transform="scale(1 1) rotate(0) translate(4 147)">
<title>Driver/LED/PimoroniPico/RedGreenBlue.h</title>
<polygon fill="white" stroke="none" points="-4,4 -4,-147 356,-147 356,4 -4,4"/>
<!-- Node1 -->
<g id="node1" class="node"><title>Node1</title>
<g id="a_node1"><a xlink:title=" ">
<polygon fill="#bfbfbf" stroke="black" points="75.5,-112.5 75.5,-142.5 200.5,-142.5 200.5,-112.5 75.5,-112.5"/>
<text text-anchor="start" x="83.5" y="-130.5" font-family="Helvetica,sans-Serif" font-size="10.00">Driver/LED/PimoroniPico</text>
<text text-anchor="middle" x="138" y="-119.5" font-family="Helvetica,sans-Serif" font-size="10.00">/RedGreenBlue.h</text>
</a>
</g>
</g>
<!-- Node2 -->
<g id="node2" class="node"><title>Node2</title>
<g id="a_node2"><a xlink:title=" ">
<polygon fill="white" stroke="#bfbfbf" points="0,-56.5 0,-75.5 62,-75.5 62,-56.5 0,-56.5"/>
<text text-anchor="middle" x="31" y="-63.5" font-family="Helvetica,sans-Serif" font-size="10.00">rgbled.hpp</text>
</a>
</g>
</g>
<!-- Node1&#45;&gt;Node2 -->
<g id="edge1" class="edge"><title>Node1&#45;&gt;Node2</title>
<path fill="none" stroke="midnightblue" d="M112.642,-112.399C95.3309,-102.773 72.5235,-90.0902 55.4161,-80.5772"/>
<polygon fill="midnightblue" stroke="midnightblue" points="57.0101,-77.4588 46.5694,-75.6578 53.6081,-83.5766 57.0101,-77.4588"/>
</g>
<!-- Node3 -->
<g id="node3" class="node"><title>Node3</title>
<g id="a_node3"><a xlink:title=" ">
<polygon fill="white" stroke="#bfbfbf" points="80.5,-56.5 80.5,-75.5 195.5,-75.5 195.5,-56.5 80.5,-56.5"/>
<text text-anchor="middle" x="138" y="-63.5" font-family="Helvetica,sans-Serif" font-size="10.00">pimoroni_common.hpp</text>
</a>
</g>
</g>
<!-- Node1&#45;&gt;Node3 -->
<g id="edge2" class="edge"><title>Node1&#45;&gt;Node3</title>
<path fill="none" stroke="midnightblue" d="M138,-112.399C138,-104.466 138,-94.458 138,-85.8583"/>
<polygon fill="midnightblue" stroke="midnightblue" points="141.5,-85.6577 138,-75.6578 134.5,-85.6578 141.5,-85.6577"/>
</g>
<!-- Node4 -->
<g id="node4" class="node"><title>Node4</title>
<g id="a_node4"><a xlink:href="_red_green_blue_8h.html" target="_top" xlink:title=" ">
<polygon fill="white" stroke="black" points="214,-56.5 214,-75.5 352,-75.5 352,-56.5 214,-56.5"/>
<text text-anchor="middle" x="283" y="-63.5" font-family="Helvetica,sans-Serif" font-size="10.00">Driver/LED/RedGreenBlue.h</text>
</a>
</g>
</g>
<!-- Node1&#45;&gt;Node4 -->
<g id="edge3" class="edge"><title>Node1&#45;&gt;Node4</title>
<path fill="none" stroke="midnightblue" d="M172.363,-112.399C196.691,-102.416 229.029,-89.1465 252.456,-79.5335"/>
<polygon fill="midnightblue" stroke="midnightblue" points="253.979,-82.6921 261.901,-75.6578 251.321,-76.2161 253.979,-82.6921"/>
</g>
<!-- Node5 -->
<g id="node5" class="node"><title>Node5</title>
<g id="a_node5"><a xlink:title=" ">
<polygon fill="white" stroke="#bfbfbf" points="258.5,-0.5 258.5,-19.5 307.5,-19.5 307.5,-0.5 258.5,-0.5"/>
<text text-anchor="middle" x="283" y="-7.5" font-family="Helvetica,sans-Serif" font-size="10.00">stdint.h</text>
</a>
</g>
</g>
<!-- Node4&#45;&gt;Node5 -->
<g id="edge4" class="edge"><title>Node4&#45;&gt;Node5</title>
<path fill="none" stroke="midnightblue" d="M283,-56.083C283,-49.0059 283,-38.8611 283,-29.9865"/>
<polygon fill="midnightblue" stroke="midnightblue" points="286.5,-29.751 283,-19.7511 279.5,-29.7511 286.5,-29.751"/>
</g>
</g>
</svg>
