<?xml version="1.0" encoding="UTF-8" standalone="no"?>
<!DOCTYPE svg PUBLIC "-//W3C//DTD SVG 1.1//EN"
 "http://www.w3.org/Graphics/SVG/1.1/DTD/svg11.dtd">
<!-- Generated by graphviz version 2.38.0 (20140413.2041)
 -->
<!-- Title: Driver/TPipe/Pipe.h Pages: 1 -->
<svg width="1050pt" height="431pt"
 viewBox="0.00 0.00 1050.00 431.00" xmlns="http://www.w3.org/2000/svg" xmlns:xlink="http://www.w3.org/1999/xlink">
<g id="graph0" class="graph" transform="scale(1 1) rotate(0) translate(4 427)">
<title>Driver/TPipe/Pipe.h</title>
<polygon fill="white" stroke="none" points="-4,4 -4,-427 1046,-427 1046,4 -4,4"/>
<!-- Node1 -->
<g id="node1" class="node"><title>Node1</title>
<g id="a_node1"><a xlink:title=" ">
<polygon fill="#bfbfbf" stroke="black" points="448,-403.5 448,-422.5 549,-422.5 549,-403.5 448,-403.5"/>
<text text-anchor="middle" x="498.5" y="-410.5" font-family="Helvetica,sans-Serif" font-size="10.00">Driver/TPipe/Pipe.h</text>
</a>
</g>
</g>
<!-- Node2 -->
<g id="node2" class="node"><title>Node2</title>
<g id="a_node2"><a xlink:href="_map_8h.html" target="_top" xlink:title=" ">
<polygon fill="white" stroke="black" points="31,-342 31,-361 136,-361 136,-342 31,-342"/>
<text text-anchor="middle" x="83.5" y="-349" font-family="Helvetica,sans-Serif" font-size="10.00">Cpl/Container/Map.h</text>
</a>
</g>
</g>
<!-- Node1&#45;&gt;Node2 -->
<g id="edge1" class="edge"><title>Node1&#45;&gt;Node2</title>
<path fill="none" stroke="midnightblue" d="M447.778,-406.443C380.698,-398.842 258.886,-384.172 155.5,-367 148.322,-365.808 140.767,-364.427 133.359,-363"/>
<polygon fill="midnightblue" stroke="midnightblue" points="133.886,-359.537 123.399,-361.04 132.535,-366.405 133.886,-359.537"/>
</g>
<!-- Node16 -->
<g id="node16" class="node"><title>Node16</title>
<g id="a_node16"><a xlink:href="_tx_8h.html" target="_top" xlink:title=" ">
<polygon fill="white" stroke="black" points="949,-112.5 949,-131.5 1042,-131.5 1042,-112.5 949,-112.5"/>
<text text-anchor="middle" x="995.5" y="-119.5" font-family="Helvetica,sans-Serif" font-size="10.00">Driver/TPipe/Tx.h</text>
</a>
</g>
</g>
<!-- Node1&#45;&gt;Node16 -->
<g id="edge18" class="edge"><title>Node1&#45;&gt;Node16</title>
<path fill="none" stroke="midnightblue" d="M549.308,-409.904C672.584,-403.439 977.5,-378.595 977.5,-291 977.5,-291 977.5,-291 977.5,-233 977.5,-200.537 985.23,-163.384 990.558,-141.628"/>
<polygon fill="midnightblue" stroke="midnightblue" points="993.995,-142.315 993.072,-131.76 987.212,-140.587 993.995,-142.315"/>
</g>
<!-- Node17 -->
<g id="node17" class="node"><title>Node17</title>
<g id="a_node17"><a xlink:href="_rx_frame_handler_api_8h.html" target="_top" xlink:title=" ">
<polygon fill="white" stroke="black" points="197.5,-336.5 197.5,-366.5 343.5,-366.5 343.5,-336.5 197.5,-336.5"/>
<text text-anchor="start" x="205.5" y="-354.5" font-family="Helvetica,sans-Serif" font-size="10.00">Driver/TPipe/RxFrameHandler</text>
<text text-anchor="middle" x="270.5" y="-343.5" font-family="Helvetica,sans-Serif" font-size="10.00">Api.h</text>
</a>
</g>
</g>
<!-- Node1&#45;&gt;Node17 -->
<g id="edge20" class="edge"><title>Node1&#45;&gt;Node17</title>
<path fill="none" stroke="midnightblue" d="M465.833,-403.475C431.563,-394.532 376.831,-380.249 334.01,-369.074"/>
<polygon fill="midnightblue" stroke="midnightblue" points="334.795,-365.662 324.235,-366.523 333.027,-372.435 334.795,-365.662"/>
</g>
<!-- Node18 -->
<g id="node18" class="node"><title>Node18</title>
<g id="a_node18"><a xlink:href="_stream_decoder_8h.html" target="_top" xlink:title=" ">
<polygon fill="white" stroke="black" points="362,-342 362,-361 525,-361 525,-342 362,-342"/>
<text text-anchor="middle" x="443.5" y="-349" font-family="Helvetica,sans-Serif" font-size="10.00">Cpl/Text/Frame/StreamDecoder.h</text>
</a>
</g>
</g>
<!-- Node1&#45;&gt;Node18 -->
<g id="edge22" class="edge"><title>Node1&#45;&gt;Node18</title>
<path fill="none" stroke="midnightblue" d="M490.62,-403.475C482.206,-394.373 468.681,-379.741 458.274,-368.483"/>
<polygon fill="midnightblue" stroke="midnightblue" points="460.724,-365.977 451.366,-361.009 455.583,-370.728 460.724,-365.977"/>
</g>
<!-- Node22 -->
<g id="node22" class="node"><title>Node22</title>
<g id="a_node22"><a xlink:href="_input_8h.html" target="_top" xlink:title=" ">
<polygon fill="white" stroke="black" points="509,-280.5 509,-299.5 584,-299.5 584,-280.5 509,-280.5"/>
<text text-anchor="middle" x="546.5" y="-287.5" font-family="Helvetica,sans-Serif" font-size="10.00">Cpl/Io/Input.h</text>
</a>
</g>
</g>
<!-- Node1&#45;&gt;Node22 -->
<g id="edge42" class="edge"><title>Node1&#45;&gt;Node22</title>
<path fill="none" stroke="midnightblue" d="M507.498,-403.232C515.637,-394.748 527.272,-381.128 533.5,-367 541.582,-348.667 544.657,-325.793 545.818,-309.954"/>
<polygon fill="midnightblue" stroke="midnightblue" points="549.32,-310.005 546.368,-299.829 542.33,-309.625 549.32,-310.005"/>
</g>
<!-- Node25 -->
<g id="node25" class="node"><title>Node25</title>
<g id="a_node25"><a xlink:href="_stream_encoder_8h.html" target="_top" xlink:title=" ">
<polygon fill="white" stroke="black" points="589,-342 589,-361 752,-361 752,-342 589,-342"/>
<text text-anchor="middle" x="670.5" y="-349" font-family="Helvetica,sans-Serif" font-size="10.00">Cpl/Text/Frame/StreamEncoder.h</text>
</a>
</g>
</g>
<!-- Node1&#45;&gt;Node25 -->
<g id="edge31" class="edge"><title>Node1&#45;&gt;Node25</title>
<path fill="none" stroke="midnightblue" d="M523.143,-403.475C552.775,-393.225 602.685,-375.959 636.102,-364.399"/>
<polygon fill="midnightblue" stroke="midnightblue" points="637.596,-367.586 645.902,-361.009 635.308,-360.971 637.596,-367.586"/>
</g>
<!-- Node28 -->
<g id="node28" class="node"><title>Node28</title>
<g id="a_node28"><a xlink:href="_output_8h.html" target="_top" xlink:title=" ">
<polygon fill="white" stroke="black" points="765,-280.5 765,-299.5 848,-299.5 848,-280.5 765,-280.5"/>
<text text-anchor="middle" x="806.5" y="-287.5" font-family="Helvetica,sans-Serif" font-size="10.00">Cpl/Io/Output.h</text>
</a>
</g>
</g>
<!-- Node1&#45;&gt;Node28 -->
<g id="edge43" class="edge"><title>Node1&#45;&gt;Node28</title>
<path fill="none" stroke="midnightblue" d="M549.153,-408.289C615.374,-402.603 726.893,-389.908 760.5,-367 780.763,-353.188 793.6,-327.215 800.42,-309.516"/>
<polygon fill="midnightblue" stroke="midnightblue" points="803.841,-310.342 803.9,-299.748 797.247,-307.993 803.841,-310.342"/>
</g>
<!-- Node29 -->
<g id="node29" class="node"><title>Node29</title>
<g id="a_node29"><a xlink:href="_mutex_8h.html" target="_top" xlink:title=" ">
<polygon fill="white" stroke="black" points="116.5,-168.5 116.5,-187.5 222.5,-187.5 222.5,-168.5 116.5,-168.5"/>
<text text-anchor="middle" x="169.5" y="-175.5" font-family="Helvetica,sans-Serif" font-size="10.00">Cpl/System/Mutex.h</text>
</a>
</g>
</g>
<!-- Node1&#45;&gt;Node29 -->
<g id="edge40" class="edge"><title>Node1&#45;&gt;Node29</title>
<path fill="none" stroke="midnightblue" d="M447.901,-411.915C369.294,-410.635 223.243,-403.286 188.5,-367 144.089,-320.617 156.487,-235.246 164.782,-197.631"/>
<polygon fill="midnightblue" stroke="midnightblue" points="168.262,-198.124 167.157,-187.587 161.45,-196.513 168.262,-198.124"/>
</g>
<!-- Node3 -->
<g id="node3" class="node"><title>Node3</title>
<g id="a_node3"><a xlink:href="_avl_tree___8h.html" target="_top" xlink:title=" ">
<polygon fill="white" stroke="black" points="16,-280.5 16,-299.5 141,-299.5 141,-280.5 16,-280.5"/>
<text text-anchor="middle" x="78.5" y="-287.5" font-family="Helvetica,sans-Serif" font-size="10.00">Cpl/Container/AvlTree_.h</text>
</a>
</g>
</g>
<!-- Node2&#45;&gt;Node3 -->
<g id="edge2" class="edge"><title>Node2&#45;&gt;Node3</title>
<path fill="none" stroke="midnightblue" d="M82.7836,-341.975C82.0782,-333.58 80.9774,-320.481 80.0683,-309.663"/>
<polygon fill="midnightblue" stroke="midnightblue" points="83.5402,-309.181 79.215,-299.509 76.5648,-309.767 83.5402,-309.181"/>
</g>
<!-- Node4 -->
<g id="node4" class="node"><title>Node4</title>
<g id="a_node4"><a xlink:title=" ">
<polygon fill="white" stroke="#bfbfbf" points="0,-0.5 0,-19.5 85,-19.5 85,-0.5 0,-0.5"/>
<text text-anchor="middle" x="42.5" y="-7.5" font-family="Helvetica,sans-Serif" font-size="10.00">colony_config.h</text>
</a>
</g>
</g>
<!-- Node3&#45;&gt;Node4 -->
<g id="edge3" class="edge"><title>Node3&#45;&gt;Node4</title>
<path fill="none" stroke="midnightblue" d="M73.51,-280.49C63.4106,-262.436 41.5,-218.693 41.5,-179 41.5,-179 41.5,-179 41.5,-121 41.5,-88.9467 41.9298,-51.6417 42.2259,-29.7484"/>
<polygon fill="midnightblue" stroke="midnightblue" points="45.7281,-29.6058 42.3693,-19.5575 38.7288,-29.5073 45.7281,-29.6058"/>
</g>
<!-- Node5 -->
<g id="node5" class="node"><title>Node5</title>
<g id="a_node5"><a xlink:href="_map_item_8h.html" target="_top" xlink:title=" ">
<polygon fill="white" stroke="black" points="198,-224.5 198,-243.5 323,-243.5 323,-224.5 198,-224.5"/>
<text text-anchor="middle" x="260.5" y="-231.5" font-family="Helvetica,sans-Serif" font-size="10.00">Cpl/Container/MapItem.h</text>
</a>
</g>
</g>
<!-- Node3&#45;&gt;Node5 -->
<g id="edge4" class="edge"><title>Node3&#45;&gt;Node5</title>
<path fill="none" stroke="midnightblue" d="M107.338,-280.444C138.356,-271.241 187.829,-256.562 222.118,-246.388"/>
<polygon fill="midnightblue" stroke="midnightblue" points="223.205,-249.716 231.796,-243.516 221.214,-243.006 223.205,-249.716"/>
</g>
<!-- Node6 -->
<g id="node6" class="node"><title>Node6</title>
<g id="a_node6"><a xlink:href="_dict_item_8h.html" target="_top" xlink:title=" ">
<polygon fill="white" stroke="black" points="241,-168.5 241,-187.5 364,-187.5 364,-168.5 241,-168.5"/>
<text text-anchor="middle" x="302.5" y="-175.5" font-family="Helvetica,sans-Serif" font-size="10.00">Cpl/Container/DictItem.h</text>
</a>
</g>
</g>
<!-- Node5&#45;&gt;Node6 -->
<g id="edge5" class="edge"><title>Node5&#45;&gt;Node6</title>
<path fill="none" stroke="midnightblue" d="M267.435,-224.083C273.429,-216.377 282.252,-205.033 289.548,-195.653"/>
<polygon fill="midnightblue" stroke="midnightblue" points="292.317,-197.793 295.694,-187.751 286.791,-193.496 292.317,-197.793"/>
</g>
<!-- Node7 -->
<g id="node7" class="node"><title>Node7</title>
<g id="a_node7"><a xlink:href="_item_8h.html" target="_top" xlink:title=" ">
<polygon fill="white" stroke="black" points="369.5,-112.5 369.5,-131.5 475.5,-131.5 475.5,-112.5 369.5,-112.5"/>
<text text-anchor="middle" x="422.5" y="-119.5" font-family="Helvetica,sans-Serif" font-size="10.00">Cpl/Container/Item.h</text>
</a>
</g>
</g>
<!-- Node6&#45;&gt;Node7 -->
<g id="edge6" class="edge"><title>Node6&#45;&gt;Node7</title>
<path fill="none" stroke="midnightblue" d="M321.514,-168.444C341.088,-159.636 371.808,-145.812 394.229,-135.722"/>
<polygon fill="midnightblue" stroke="midnightblue" points="395.892,-138.812 403.575,-131.516 393.019,-132.428 395.892,-138.812"/>
</g>
<!-- Node8 -->
<g id="node8" class="node"><title>Node8</title>
<g id="a_node8"><a xlink:href="_key_8h.html" target="_top" xlink:title=" ">
<polygon fill="white" stroke="black" points="247.5,-112.5 247.5,-131.5 351.5,-131.5 351.5,-112.5 247.5,-112.5"/>
<text text-anchor="middle" x="299.5" y="-119.5" font-family="Helvetica,sans-Serif" font-size="10.00">Cpl/Container/Key.h</text>
</a>
</g>
</g>
<!-- Node6&#45;&gt;Node8 -->
<g id="edge7" class="edge"><title>Node6&#45;&gt;Node8</title>
<path fill="none" stroke="midnightblue" d="M302.005,-168.083C301.611,-161.006 301.048,-150.861 300.555,-141.986"/>
<polygon fill="midnightblue" stroke="midnightblue" points="304.036,-141.542 299.986,-131.751 297.046,-141.93 304.036,-141.542"/>
</g>
<!-- Node9 -->
<g id="node9" class="node"><title>Node9</title>
<g id="a_node9"><a xlink:href="_fatal_error_8h.html" target="_top" xlink:title=" ">
<polygon fill="white" stroke="black" points="69.5,-56.5 69.5,-75.5 191.5,-75.5 191.5,-56.5 69.5,-56.5"/>
<text text-anchor="middle" x="130.5" y="-63.5" font-family="Helvetica,sans-Serif" font-size="10.00">Cpl/System/FatalError.h</text>
</a>
</g>
</g>
<!-- Node8&#45;&gt;Node9 -->
<g id="edge8" class="edge"><title>Node8&#45;&gt;Node9</title>
<path fill="none" stroke="midnightblue" d="M272.721,-112.444C244.167,-103.32 198.767,-88.8133 166.963,-78.6509"/>
<polygon fill="midnightblue" stroke="midnightblue" points="167.744,-75.2262 157.153,-75.5164 165.614,-81.8941 167.744,-75.2262"/>
</g>
<!-- Node11 -->
<g id="node11" class="node"><title>Node11</title>
<g id="a_node11"><a xlink:title=" ">
<polygon fill="white" stroke="#bfbfbf" points="262,-56.5 262,-75.5 311,-75.5 311,-56.5 262,-56.5"/>
<text text-anchor="middle" x="286.5" y="-63.5" font-family="Helvetica,sans-Serif" font-size="10.00">stdint.h</text>
</a>
</g>
</g>
<!-- Node8&#45;&gt;Node11 -->
<g id="edge11" class="edge"><title>Node8&#45;&gt;Node11</title>
<path fill="none" stroke="midnightblue" d="M297.353,-112.083C295.631,-104.927 293.153,-94.6353 291,-85.6911"/>
<polygon fill="midnightblue" stroke="midnightblue" points="294.35,-84.6541 288.607,-75.7511 287.545,-86.2925 294.35,-84.6541"/>
</g>
<!-- Node12 -->
<g id="node12" class="node"><title>Node12</title>
<g id="a_node12"><a xlink:href="_string_8h.html" target="_top" xlink:title=" ">
<polygon fill="white" stroke="black" points="479,-56.5 479,-75.5 528,-75.5 528,-56.5 479,-56.5"/>
<text text-anchor="middle" x="503.5" y="-63.5" font-family="Helvetica,sans-Serif" font-size="10.00">string.h</text>
</a>
</g>
</g>
<!-- Node8&#45;&gt;Node12 -->
<g id="edge12" class="edge"><title>Node8&#45;&gt;Node12</title>
<path fill="none" stroke="midnightblue" d="M326.736,-112.444C363.534,-102.102 428.777,-84.8465 468.964,-74.8384"/>
<polygon fill="midnightblue" stroke="midnightblue" points="469.982,-78.192 478.853,-72.3989 468.306,-71.3957 469.982,-78.192"/>
</g>
<!-- Node13 -->
<g id="node13" class="node"><title>Node13</title>
<g id="a_node13"><a xlink:title=" ">
<polygon fill="white" stroke="#bfbfbf" points="301,-0.5 301,-19.5 378,-19.5 378,-0.5 301,-0.5"/>
<text text-anchor="middle" x="339.5" y="-7.5" font-family="Helvetica,sans-Serif" font-size="10.00">colony_map.h</text>
</a>
</g>
</g>
<!-- Node8&#45;&gt;Node13 -->
<g id="edge17" class="edge"><title>Node8&#45;&gt;Node13</title>
<path fill="none" stroke="midnightblue" d="M303.804,-112.166C308.089,-103.186 314.702,-88.81 319.5,-76 325.323,-60.4514 330.784,-42.3714 334.523,-29.2328"/>
<polygon fill="midnightblue" stroke="midnightblue" points="337.916,-30.0952 337.229,-19.5226 331.173,-28.2158 337.916,-30.0952"/>
</g>
<!-- Node9&#45;&gt;Node4 -->
<g id="edge10" class="edge"><title>Node9&#45;&gt;Node4</title>
<path fill="none" stroke="midnightblue" d="M116.361,-56.324C102.634,-47.9002 81.5637,-34.9709 65.4357,-25.0741"/>
<polygon fill="midnightblue" stroke="midnightblue" points="66.9574,-21.9016 56.6036,-19.6545 63.2963,-27.8678 66.9574,-21.9016"/>
</g>
<!-- Node10 -->
<g id="node10" class="node"><title>Node10</title>
<g id="a_node10"><a xlink:title=" ">
<polygon fill="white" stroke="#bfbfbf" points="104.5,-0.5 104.5,-19.5 156.5,-19.5 156.5,-0.5 104.5,-0.5"/>
<text text-anchor="middle" x="130.5" y="-7.5" font-family="Helvetica,sans-Serif" font-size="10.00">stddef.h</text>
</a>
</g>
</g>
<!-- Node9&#45;&gt;Node10 -->
<g id="edge9" class="edge"><title>Node9&#45;&gt;Node10</title>
<path fill="none" stroke="midnightblue" d="M130.5,-56.083C130.5,-49.0059 130.5,-38.8611 130.5,-29.9865"/>
<polygon fill="midnightblue" stroke="midnightblue" points="134,-29.751 130.5,-19.7511 127,-29.7511 134,-29.751"/>
</g>
<!-- Node12&#45;&gt;Node8 -->
<g id="edge14" class="edge"><title>Node12&#45;&gt;Node8</title>
<path fill="none" stroke="midnightblue" d="M478.896,-74.8151C446.181,-84.0577 388.041,-99.5048 346.757,-109.964"/>
<polygon fill="midnightblue" stroke="midnightblue" points="345.756,-106.607 336.913,-112.444 347.465,-113.395 345.756,-106.607"/>
</g>
<!-- Node12&#45;&gt;Node13 -->
<g id="edge13" class="edge"><title>Node12&#45;&gt;Node13</title>
<path fill="none" stroke="midnightblue" d="M478.948,-56.9157C451.453,-47.8625 406.641,-33.1073 375.257,-22.7735"/>
<polygon fill="midnightblue" stroke="midnightblue" points="376.171,-19.3897 365.578,-19.5865 373.981,-26.0385 376.171,-19.3897"/>
</g>
<!-- Node14 -->
<g id="node14" class="node"><title>Node14</title>
<g id="a_node14"><a xlink:title=" ">
<polygon fill="white" stroke="#bfbfbf" points="721.5,-0.5 721.5,-19.5 773.5,-19.5 773.5,-0.5 721.5,-0.5"/>
<text text-anchor="middle" x="747.5" y="-7.5" font-family="Helvetica,sans-Serif" font-size="10.00">stdarg.h</text>
</a>
</g>
</g>
<!-- Node12&#45;&gt;Node14 -->
<g id="edge15" class="edge"><title>Node12&#45;&gt;Node14</title>
<path fill="none" stroke="midnightblue" d="M528.239,-59.525C571.537,-49.9425 661.217,-30.0953 711.434,-18.9818"/>
<polygon fill="midnightblue" stroke="midnightblue" points="712.216,-22.3936 721.223,-16.8154 710.703,-15.559 712.216,-22.3936"/>
</g>
<!-- Node15 -->
<g id="node15" class="node"><title>Node15</title>
<g id="a_node15"><a xlink:title=" ">
<polygon fill="white" stroke="#bfbfbf" points="476.5,-0.5 476.5,-19.5 530.5,-19.5 530.5,-0.5 476.5,-0.5"/>
<text text-anchor="middle" x="503.5" y="-7.5" font-family="Helvetica,sans-Serif" font-size="10.00">iostream</text>
</a>
</g>
</g>
<!-- Node12&#45;&gt;Node15 -->
<g id="edge16" class="edge"><title>Node12&#45;&gt;Node15</title>
<path fill="none" stroke="midnightblue" d="M503.5,-56.083C503.5,-49.0059 503.5,-38.8611 503.5,-29.9865"/>
<polygon fill="midnightblue" stroke="midnightblue" points="507,-29.751 503.5,-19.7511 500,-29.7511 507,-29.751"/>
</g>
<!-- Node16&#45;&gt;Node12 -->
<g id="edge19" class="edge"><title>Node16&#45;&gt;Node12</title>
<path fill="none" stroke="midnightblue" d="M948.77,-115.871C850.563,-105.092 624.693,-80.3016 538.13,-70.8009"/>
<polygon fill="midnightblue" stroke="midnightblue" points="538.367,-67.306 528.045,-69.694 537.604,-74.2642 538.367,-67.306"/>
</g>
<!-- Node17&#45;&gt;Node5 -->
<g id="edge21" class="edge"><title>Node17&#45;&gt;Node5</title>
<path fill="none" stroke="midnightblue" d="M269.274,-336.337C267.48,-315.622 264.138,-277.016 262.136,-253.899"/>
<polygon fill="midnightblue" stroke="midnightblue" points="265.6,-253.33 261.251,-243.669 258.626,-253.934 265.6,-253.33"/>
</g>
<!-- Node19 -->
<g id="node19" class="node"><title>Node19</title>
<g id="a_node19"><a xlink:href="_decoder___8h.html" target="_top" xlink:title=" ">
<polygon fill="white" stroke="black" points="346,-280.5 346,-299.5 483,-299.5 483,-280.5 346,-280.5"/>
<text text-anchor="middle" x="414.5" y="-287.5" font-family="Helvetica,sans-Serif" font-size="10.00">Cpl/Text/Frame/Decoder_.h</text>
</a>
</g>
</g>
<!-- Node18&#45;&gt;Node19 -->
<g id="edge23" class="edge"><title>Node18&#45;&gt;Node19</title>
<path fill="none" stroke="midnightblue" d="M439.345,-341.975C435.124,-333.315 428.463,-319.649 423.1,-308.645"/>
<polygon fill="midnightblue" stroke="midnightblue" points="426.175,-306.965 418.647,-299.509 419.882,-310.032 426.175,-306.965"/>
</g>
<!-- Node18&#45;&gt;Node22 -->
<g id="edge26" class="edge"><title>Node18&#45;&gt;Node22</title>
<path fill="none" stroke="midnightblue" d="M458.257,-341.975C475.161,-332.211 503.083,-316.081 522.99,-304.581"/>
<polygon fill="midnightblue" stroke="midnightblue" points="524.862,-307.542 531.77,-299.509 521.36,-301.481 524.862,-307.542"/>
</g>
<!-- Node20 -->
<g id="node20" class="node"><title>Node20</title>
<g id="a_node20"><a xlink:href="_decoder_8h.html" target="_top" xlink:title=" ">
<polygon fill="white" stroke="black" points="341,-224.5 341,-243.5 472,-243.5 472,-224.5 341,-224.5"/>
<text text-anchor="middle" x="406.5" y="-231.5" font-family="Helvetica,sans-Serif" font-size="10.00">Cpl/Text/Frame/Decoder.h</text>
</a>
</g>
</g>
<!-- Node19&#45;&gt;Node20 -->
<g id="edge24" class="edge"><title>Node19&#45;&gt;Node20</title>
<path fill="none" stroke="midnightblue" d="M413.179,-280.083C412.119,-272.927 410.594,-262.635 409.269,-253.691"/>
<polygon fill="midnightblue" stroke="midnightblue" points="412.724,-253.13 407.796,-243.751 405.8,-254.156 412.724,-253.13"/>
</g>
<!-- Node21 -->
<g id="node21" class="node"><title>Node21</title>
<g id="a_node21"><a xlink:title=" ">
<polygon fill="white" stroke="#bfbfbf" points="404.5,-168.5 404.5,-187.5 452.5,-187.5 452.5,-168.5 404.5,-168.5"/>
<text text-anchor="middle" x="428.5" y="-175.5" font-family="Helvetica,sans-Serif" font-size="10.00">stdlib.h</text>
</a>
</g>
</g>
<!-- Node20&#45;&gt;Node21 -->
<g id="edge25" class="edge"><title>Node20&#45;&gt;Node21</title>
<path fill="none" stroke="midnightblue" d="M410.133,-224.083C413.112,-216.77 417.426,-206.181 421.125,-197.103"/>
<polygon fill="midnightblue" stroke="midnightblue" points="424.403,-198.333 424.935,-187.751 417.92,-195.691 424.403,-198.333"/>
</g>
<!-- Node22&#45;&gt;Node12 -->
<g id="edge27" class="edge"><title>Node22&#45;&gt;Node12</title>
<path fill="none" stroke="midnightblue" d="M539.622,-280.282C533.202,-271.619 523.964,-257.686 519.5,-244 501.442,-188.634 501.314,-118.693 502.494,-85.7659"/>
<polygon fill="midnightblue" stroke="midnightblue" points="505.991,-85.8926 502.938,-75.7473 498.998,-85.5823 505.991,-85.8926"/>
</g>
<!-- Node23 -->
<g id="node23" class="node"><title>Node23</title>
<g id="a_node23"><a xlink:href="_close_8h.html" target="_top" xlink:title=" ">
<polygon fill="white" stroke="black" points="678.5,-224.5 678.5,-243.5 756.5,-243.5 756.5,-224.5 678.5,-224.5"/>
<text text-anchor="middle" x="717.5" y="-231.5" font-family="Helvetica,sans-Serif" font-size="10.00">Cpl/Io/Close.h</text>
</a>
</g>
</g>
<!-- Node22&#45;&gt;Node23 -->
<g id="edge28" class="edge"><title>Node22&#45;&gt;Node23</title>
<path fill="none" stroke="midnightblue" d="M573.595,-280.444C602.488,-271.32 648.425,-256.813 680.605,-246.651"/>
<polygon fill="midnightblue" stroke="midnightblue" points="682.049,-249.865 690.531,-243.516 679.941,-243.19 682.049,-249.865"/>
</g>
<!-- Node24 -->
<g id="node24" class="node"><title>Node24</title>
<g id="a_node24"><a xlink:href="_is_eos_8h.html" target="_top" xlink:title=" ">
<polygon fill="white" stroke="black" points="775,-224.5 775,-243.5 854,-243.5 854,-224.5 775,-224.5"/>
<text text-anchor="middle" x="814.5" y="-231.5" font-family="Helvetica,sans-Serif" font-size="10.00">Cpl/Io/IsEos.h</text>
</a>
</g>
</g>
<!-- Node22&#45;&gt;Node24 -->
<g id="edge30" class="edge"><title>Node22&#45;&gt;Node24</title>
<path fill="none" stroke="midnightblue" d="M584.046,-281.435C631.18,-271.938 712.184,-255.616 764.521,-245.07"/>
<polygon fill="midnightblue" stroke="midnightblue" points="765.476,-248.448 774.587,-243.042 764.093,-241.586 765.476,-248.448"/>
</g>
<!-- Node23&#45;&gt;Node7 -->
<g id="edge29" class="edge"><title>Node23&#45;&gt;Node7</title>
<path fill="none" stroke="midnightblue" d="M694.352,-224.368C642.114,-204.89 514.967,-157.479 454.921,-135.089"/>
<polygon fill="midnightblue" stroke="midnightblue" points="456.133,-131.806 445.541,-131.591 453.688,-138.365 456.133,-131.806"/>
</g>
<!-- Node26 -->
<g id="node26" class="node"><title>Node26</title>
<g id="a_node26"><a xlink:href="_encoder___8h.html" target="_top" xlink:title=" ">
<polygon fill="white" stroke="black" points="602,-280.5 602,-299.5 739,-299.5 739,-280.5 602,-280.5"/>
<text text-anchor="middle" x="670.5" y="-287.5" font-family="Helvetica,sans-Serif" font-size="10.00">Cpl/Text/Frame/Encoder_.h</text>
</a>
</g>
</g>
<!-- Node25&#45;&gt;Node26 -->
<g id="edge32" class="edge"><title>Node25&#45;&gt;Node26</title>
<path fill="none" stroke="midnightblue" d="M670.5,-341.975C670.5,-333.58 670.5,-320.481 670.5,-309.663"/>
<polygon fill="midnightblue" stroke="midnightblue" points="674,-309.509 670.5,-299.509 667,-309.509 674,-309.509"/>
</g>
<!-- Node25&#45;&gt;Node28 -->
<g id="edge35" class="edge"><title>Node25&#45;&gt;Node28</title>
<path fill="none" stroke="midnightblue" d="M689.985,-341.975C712.91,-331.945 751.185,-315.2 777.575,-303.655"/>
<polygon fill="midnightblue" stroke="midnightblue" points="779.292,-306.724 787.051,-299.509 776.486,-300.311 779.292,-306.724"/>
</g>
<!-- Node27 -->
<g id="node27" class="node"><title>Node27</title>
<g id="a_node27"><a xlink:href="_encoder_8h.html" target="_top" xlink:title=" ">
<polygon fill="white" stroke="black" points="529,-224.5 529,-243.5 660,-243.5 660,-224.5 529,-224.5"/>
<text text-anchor="middle" x="594.5" y="-231.5" font-family="Helvetica,sans-Serif" font-size="10.00">Cpl/Text/Frame/Encoder.h</text>
</a>
</g>
</g>
<!-- Node26&#45;&gt;Node27 -->
<g id="edge33" class="edge"><title>Node26&#45;&gt;Node27</title>
<path fill="none" stroke="midnightblue" d="M658.289,-280.324C646.724,-272.107 629.125,-259.602 615.339,-249.807"/>
<polygon fill="midnightblue" stroke="midnightblue" points="617.112,-246.773 606.933,-243.834 613.057,-252.479 617.112,-246.773"/>
</g>
<!-- Node27&#45;&gt;Node21 -->
<g id="edge34" class="edge"><title>Node27&#45;&gt;Node21</title>
<path fill="none" stroke="midnightblue" d="M568.197,-224.444C539.489,-215.105 493.448,-200.128 462.133,-189.941"/>
<polygon fill="midnightblue" stroke="midnightblue" points="463.116,-186.58 452.524,-186.815 460.951,-193.237 463.116,-186.58"/>
</g>
<!-- Node28&#45;&gt;Node12 -->
<g id="edge36" class="edge"><title>Node28&#45;&gt;Node12</title>
<path fill="none" stroke="midnightblue" d="M823.693,-280.352C845,-268.434 876.851,-245.939 862.5,-224 788.676,-111.139 613.894,-78.9249 538.794,-70.134"/>
<polygon fill="midnightblue" stroke="midnightblue" points="538.783,-66.6118 528.461,-69.0001 538.02,-73.5701 538.783,-66.6118"/>
</g>
<!-- Node28&#45;&gt;Node14 -->
<g id="edge39" class="edge"><title>Node28&#45;&gt;Node14</title>
<path fill="none" stroke="midnightblue" d="M827.145,-280.421C859.996,-265.231 920.5,-230.293 920.5,-179 920.5,-179 920.5,-179 920.5,-121 920.5,-56.7349 834.438,-28.4025 783.715,-17.2849"/>
<polygon fill="midnightblue" stroke="midnightblue" points="784.277,-13.827 773.775,-15.2261 782.857,-20.6816 784.277,-13.827"/>
</g>
<!-- Node28&#45;&gt;Node23 -->
<g id="edge37" class="edge"><title>Node28&#45;&gt;Node23</title>
<path fill="none" stroke="midnightblue" d="M792.201,-280.324C778.317,-271.9 757.008,-258.971 740.696,-249.074"/>
<polygon fill="midnightblue" stroke="midnightblue" points="742.129,-245.85 731.764,-243.655 738.498,-251.834 742.129,-245.85"/>
</g>
<!-- Node28&#45;&gt;Node24 -->
<g id="edge38" class="edge"><title>Node28&#45;&gt;Node24</title>
<path fill="none" stroke="midnightblue" d="M807.821,-280.083C808.881,-272.927 810.406,-262.635 811.731,-253.691"/>
<polygon fill="midnightblue" stroke="midnightblue" points="815.2,-254.156 813.204,-243.751 808.276,-253.13 815.2,-254.156"/>
</g>
<!-- Node29&#45;&gt;Node13 -->
<g id="edge41" class="edge"><title>Node29&#45;&gt;Node13</title>
<path fill="none" stroke="midnightblue" d="M173.561,-168.309C183.97,-146.812 213.549,-90.4011 252.5,-56 268.309,-42.0379 289.221,-31.0418 306.581,-23.4151"/>
<polygon fill="midnightblue" stroke="midnightblue" points="307.949,-26.6366 315.804,-19.5272 305.23,-20.1862 307.949,-26.6366"/>
</g>
</g>
</svg>
