<?xml version="1.0" encoding="UTF-8" standalone="no"?>
<!DOCTYPE svg PUBLIC "-//W3C//DTD SVG 1.1//EN"
 "http://www.w3.org/Graphics/SVG/1.1/DTD/svg11.dtd">
<!-- Generated by graphviz version 2.38.0 (20140413.2041)
 -->
<!-- Title: Cpl/TShell/PolledMaker.h Pages: 1 -->
<svg width="1441pt" height="588pt"
 viewBox="0.00 0.00 1440.50 588.00" xmlns="http://www.w3.org/2000/svg" xmlns:xlink="http://www.w3.org/1999/xlink">
<g id="graph0" class="graph" transform="scale(1 1) rotate(0) translate(4 584)">
<title>Cpl/TShell/PolledMaker.h</title>
<polygon fill="white" stroke="none" points="-4,4 -4,-584 1436.5,-584 1436.5,4 -4,4"/>
<!-- Node1 -->
<g id="node1" class="node"><title>Node1</title>
<g id="a_node1"><a xlink:title=" ">
<polygon fill="#bfbfbf" stroke="black" points="700,-560.5 700,-579.5 827,-579.5 827,-560.5 700,-560.5"/>
<text text-anchor="middle" x="763.5" y="-567.5" font-family="Helvetica,sans-Serif" font-size="10.00">Cpl/TShell/PolledMaker.h</text>
</a>
</g>
</g>
<!-- Node2 -->
<g id="node2" class="node"><title>Node2</title>
<g id="a_node2"><a xlink:href="_polled_processor_8h.html" target="_top" xlink:title=" ">
<polygon fill="white" stroke="black" points="467.5,-504.5 467.5,-523.5 611.5,-523.5 611.5,-504.5 467.5,-504.5"/>
<text text-anchor="middle" x="539.5" y="-511.5" font-family="Helvetica,sans-Serif" font-size="10.00">Cpl/TShell/PolledProcessor.h</text>
</a>
</g>
</g>
<!-- Node1&#45;&gt;Node2 -->
<g id="edge1" class="edge"><title>Node1&#45;&gt;Node2</title>
<path fill="none" stroke="midnightblue" d="M728.007,-560.444C689.176,-551.083 626.844,-536.056 584.582,-525.868"/>
<polygon fill="midnightblue" stroke="midnightblue" points="585.369,-522.458 574.827,-523.516 583.729,-529.263 585.369,-522.458"/>
</g>
<!-- Node37 -->
<g id="node37" class="node"><title>Node37</title>
<g id="a_node37"><a xlink:href="_line_decoder_8h.html" target="_top" xlink:title=" ">
<polygon fill="white" stroke="black" points="689,-448.5 689,-467.5 838,-467.5 838,-448.5 689,-448.5"/>
<text text-anchor="middle" x="763.5" y="-455.5" font-family="Helvetica,sans-Serif" font-size="10.00">Cpl/Text/Frame/LineDecoder.h</text>
</a>
</g>
</g>
<!-- Node1&#45;&gt;Node37 -->
<g id="edge55" class="edge"><title>Node1&#45;&gt;Node37</title>
<path fill="none" stroke="midnightblue" d="M763.5,-560.368C763.5,-542.617 763.5,-501.666 763.5,-477.597"/>
<polygon fill="midnightblue" stroke="midnightblue" points="767,-477.591 763.5,-467.591 760,-477.591 767,-477.591"/>
</g>
<!-- Node38 -->
<g id="node38" class="node"><title>Node38</title>
<g id="a_node38"><a xlink:href="_system_2_private___8h.html" target="_top" xlink:title="This file contains a collection of classes, interfaces, etc.">
<polygon fill="white" stroke="black" points="891,-336.5 891,-355.5 1006,-355.5 1006,-336.5 891,-336.5"/>
<text text-anchor="middle" x="948.5" y="-343.5" font-family="Helvetica,sans-Serif" font-size="10.00">Cpl/System/Private_.h</text>
</a>
</g>
</g>
<!-- Node1&#45;&gt;Node38 -->
<g id="edge57" class="edge"><title>Node1&#45;&gt;Node38</title>
<path fill="none" stroke="midnightblue" d="M770.752,-560.297C798.434,-527.079 897.735,-407.918 934.597,-363.684"/>
<polygon fill="midnightblue" stroke="midnightblue" points="937.384,-365.807 941.097,-355.884 932.006,-361.325 937.384,-365.807"/>
</g>
<!-- Node3 -->
<g id="node3" class="node"><title>Node3</title>
<g id="a_node3"><a xlink:href="_processor_8h.html" target="_top" xlink:title=" ">
<polygon fill="white" stroke="black" points="418,-448.5 418,-467.5 535,-467.5 535,-448.5 418,-448.5"/>
<text text-anchor="middle" x="476.5" y="-455.5" font-family="Helvetica,sans-Serif" font-size="10.00">Cpl/TShell/Processor.h</text>
</a>
</g>
</g>
<!-- Node2&#45;&gt;Node3 -->
<g id="edge2" class="edge"><title>Node2&#45;&gt;Node3</title>
<path fill="none" stroke="midnightblue" d="M529.378,-504.324C519.974,-496.263 505.756,-484.077 494.431,-474.369"/>
<polygon fill="midnightblue" stroke="midnightblue" points="496.677,-471.684 486.806,-467.834 492.121,-476.999 496.677,-471.684"/>
</g>
<!-- Node4 -->
<g id="node4" class="node"><title>Node4</title>
<g id="a_node4"><a xlink:title=" ">
<polygon fill="white" stroke="#bfbfbf" points="155,-0.5 155,-19.5 240,-19.5 240,-0.5 155,-0.5"/>
<text text-anchor="middle" x="197.5" y="-7.5" font-family="Helvetica,sans-Serif" font-size="10.00">colony_config.h</text>
</a>
</g>
</g>
<!-- Node3&#45;&gt;Node4 -->
<g id="edge3" class="edge"><title>Node3&#45;&gt;Node4</title>
<path fill="none" stroke="midnightblue" d="M427.609,-448.489C357.264,-433.175 231.058,-393.399 186.5,-300 163.594,-251.986 186.145,-85.4491 194.594,-29.4983"/>
<polygon fill="midnightblue" stroke="midnightblue" points="198.058,-30 196.12,-19.5839 191.14,-28.9351 198.058,-30"/>
</g>
<!-- Node5 -->
<g id="node5" class="node"><title>Node5</title>
<g id="a_node5"><a xlink:href="_context___8h.html" target="_top" xlink:title=" ">
<polygon fill="white" stroke="black" points="358.5,-392.5 358.5,-411.5 470.5,-411.5 470.5,-392.5 358.5,-392.5"/>
<text text-anchor="middle" x="414.5" y="-399.5" font-family="Helvetica,sans-Serif" font-size="10.00">Cpl/TShell/Context_.h</text>
</a>
</g>
</g>
<!-- Node3&#45;&gt;Node5 -->
<g id="edge4" class="edge"><title>Node3&#45;&gt;Node5</title>
<path fill="none" stroke="midnightblue" d="M466.539,-448.324C457.373,-440.341 443.563,-428.313 432.472,-418.653"/>
<polygon fill="midnightblue" stroke="midnightblue" points="434.482,-415.762 424.643,-411.834 429.885,-421.041 434.482,-415.762"/>
</g>
<!-- Node25 -->
<g id="node25" class="node"><title>Node25</title>
<g id="a_node25"><a xlink:href="_mutex_8h.html" target="_top" xlink:title=" ">
<polygon fill="white" stroke="black" points="895.5,-280.5 895.5,-299.5 1001.5,-299.5 1001.5,-280.5 895.5,-280.5"/>
<text text-anchor="middle" x="948.5" y="-287.5" font-family="Helvetica,sans-Serif" font-size="10.00">Cpl/System/Mutex.h</text>
</a>
</g>
</g>
<!-- Node3&#45;&gt;Node25 -->
<g id="edge36" class="edge"><title>Node3&#45;&gt;Node25</title>
<path fill="none" stroke="midnightblue" d="M500.883,-448.425C579.214,-420.876 824.58,-334.582 914.789,-302.856"/>
<polygon fill="midnightblue" stroke="midnightblue" points="915.991,-306.144 924.263,-299.524 913.668,-299.54 915.991,-306.144"/>
</g>
<!-- Node26 -->
<g id="node26" class="node"><title>Node26</title>
<g id="a_node26"><a xlink:href="_cpl_2_system_2_api_8h.html" target="_top" xlink:title=" ">
<polygon fill="white" stroke="black" points="63,-392.5 63,-411.5 156,-411.5 156,-392.5 63,-392.5"/>
<text text-anchor="middle" x="109.5" y="-399.5" font-family="Helvetica,sans-Serif" font-size="10.00">Cpl/System/Api.h</text>
</a>
</g>
</g>
<!-- Node3&#45;&gt;Node26 -->
<g id="edge38" class="edge"><title>Node3&#45;&gt;Node26</title>
<path fill="none" stroke="midnightblue" d="M418.406,-448.465C356.854,-439.42 256.825,-424.716 170.5,-412 169.044,-411.785 167.568,-411.568 166.079,-411.349"/>
<polygon fill="midnightblue" stroke="midnightblue" points="166.53,-407.877 156.126,-409.882 165.509,-414.803 166.53,-407.877"/>
</g>
<!-- Node27 -->
<g id="node27" class="node"><title>Node27</title>
<g id="a_node27"><a xlink:href="_f_string_8h.html" target="_top" xlink:title=" ">
<polygon fill="white" stroke="black" points="2.5,-336.5 2.5,-355.5 98.5,-355.5 98.5,-336.5 2.5,-336.5"/>
<text text-anchor="middle" x="50.5" y="-343.5" font-family="Helvetica,sans-Serif" font-size="10.00">Cpl/Text/FString.h</text>
</a>
</g>
</g>
<!-- Node3&#45;&gt;Node27 -->
<g id="edge39" class="edge"><title>Node3&#45;&gt;Node27</title>
<path fill="none" stroke="midnightblue" d="M417.98,-454.931C307.723,-450.44 78.0263,-438.04 53.5,-412 42.1434,-399.942 42.8117,-380.374 45.4558,-365.854"/>
<polygon fill="midnightblue" stroke="midnightblue" points="48.9053,-366.468 47.6965,-355.942 42.0776,-364.924 48.9053,-366.468"/>
</g>
<!-- Node30 -->
<g id="node30" class="node"><title>Node30</title>
<g id="a_node30"><a xlink:href="_stream_encoder_8h.html" target="_top" xlink:title=" ">
<polygon fill="white" stroke="black" points="462,-336.5 462,-355.5 625,-355.5 625,-336.5 462,-336.5"/>
<text text-anchor="middle" x="543.5" y="-343.5" font-family="Helvetica,sans-Serif" font-size="10.00">Cpl/Text/Frame/StreamEncoder.h</text>
</a>
</g>
</g>
<!-- Node3&#45;&gt;Node30 -->
<g id="edge45" class="edge"><title>Node3&#45;&gt;Node30</title>
<path fill="none" stroke="midnightblue" d="M481.757,-448.368C492.765,-430.296 518.42,-388.176 532.958,-364.307"/>
<polygon fill="midnightblue" stroke="midnightblue" points="536.054,-365.953 538.267,-355.591 530.076,-362.311 536.054,-365.953"/>
</g>
<!-- Node34 -->
<g id="node34" class="node"><title>Node34</title>
<g id="a_node34"><a xlink:href="_stream_decoder_8h.html" target="_top" xlink:title=" ">
<polygon fill="white" stroke="black" points="682,-392.5 682,-411.5 845,-411.5 845,-392.5 682,-392.5"/>
<text text-anchor="middle" x="763.5" y="-399.5" font-family="Helvetica,sans-Serif" font-size="10.00">Cpl/Text/Frame/StreamDecoder.h</text>
</a>
</g>
</g>
<!-- Node3&#45;&gt;Node34 -->
<g id="edge50" class="edge"><title>Node3&#45;&gt;Node34</title>
<path fill="none" stroke="midnightblue" d="M521.976,-448.444C572.462,-438.944 653.956,-423.611 708.12,-413.42"/>
<polygon fill="midnightblue" stroke="midnightblue" points="709.056,-416.805 718.237,-411.516 707.762,-409.926 709.056,-416.805"/>
</g>
<!-- Node6 -->
<g id="node6" class="node"><title>Node6</title>
<g id="a_node6"><a xlink:href="_processor_api_8h.html" target="_top" xlink:title=" ">
<polygon fill="white" stroke="black" points="552,-280.5 552,-299.5 683,-299.5 683,-280.5 552,-280.5"/>
<text text-anchor="middle" x="617.5" y="-287.5" font-family="Helvetica,sans-Serif" font-size="10.00">Cpl/TShell/ProcessorApi.h</text>
</a>
</g>
</g>
<!-- Node5&#45;&gt;Node6 -->
<g id="edge5" class="edge"><title>Node5&#45;&gt;Node6</title>
<path fill="none" stroke="midnightblue" d="M417.142,-392.396C421.887,-378.402 433.204,-350.792 452.5,-336 478.012,-316.444 511.455,-305.38 541.559,-299.124"/>
<polygon fill="midnightblue" stroke="midnightblue" points="542.468,-302.513 551.623,-297.181 541.141,-295.64 542.468,-302.513"/>
</g>
<!-- Node20 -->
<g id="node20" class="node"><title>Node20</title>
<g id="a_node20"><a xlink:href="_command_8h.html" target="_top" xlink:title=" ">
<polygon fill="white" stroke="black" points="378,-280.5 378,-299.5 495,-299.5 495,-280.5 378,-280.5"/>
<text text-anchor="middle" x="436.5" y="-287.5" font-family="Helvetica,sans-Serif" font-size="10.00">Cpl/TShell/Command.h</text>
</a>
</g>
</g>
<!-- Node5&#45;&gt;Node20 -->
<g id="edge26" class="edge"><title>Node5&#45;&gt;Node20</title>
<path fill="none" stroke="midnightblue" d="M414.39,-392.473C414.4,-379.942 415.074,-355.886 419.5,-336 421.541,-326.829 425.071,-317.028 428.388,-308.922"/>
<polygon fill="midnightblue" stroke="midnightblue" points="431.603,-310.304 432.346,-299.736 425.174,-307.535 431.603,-310.304"/>
</g>
<!-- Node23 -->
<g id="node23" class="node"><title>Node23</title>
<g id="a_node23"><a xlink:href="_map_8h.html" target="_top" xlink:title=" ">
<polygon fill="white" stroke="black" points="248,-336.5 248,-355.5 353,-355.5 353,-336.5 248,-336.5"/>
<text text-anchor="middle" x="300.5" y="-343.5" font-family="Helvetica,sans-Serif" font-size="10.00">Cpl/Container/Map.h</text>
</a>
</g>
</g>
<!-- Node5&#45;&gt;Node23 -->
<g id="edge32" class="edge"><title>Node5&#45;&gt;Node23</title>
<path fill="none" stroke="midnightblue" d="M396.436,-392.444C377.925,-383.675 348.919,-369.935 327.645,-359.858"/>
<polygon fill="midnightblue" stroke="midnightblue" points="329.015,-356.634 318.479,-355.516 326.018,-362.96 329.015,-356.634"/>
</g>
<!-- Node7 -->
<g id="node7" class="node"><title>Node7</title>
<g id="a_node7"><a xlink:href="_input_8h.html" target="_top" xlink:title=" ">
<polygon fill="white" stroke="black" points="622,-224.5 622,-243.5 697,-243.5 697,-224.5 622,-224.5"/>
<text text-anchor="middle" x="659.5" y="-231.5" font-family="Helvetica,sans-Serif" font-size="10.00">Cpl/Io/Input.h</text>
</a>
</g>
</g>
<!-- Node6&#45;&gt;Node7 -->
<g id="edge6" class="edge"><title>Node6&#45;&gt;Node7</title>
<path fill="none" stroke="midnightblue" d="M624.435,-280.083C630.429,-272.377 639.252,-261.033 646.548,-251.653"/>
<polygon fill="midnightblue" stroke="midnightblue" points="649.317,-253.793 652.694,-243.751 643.791,-249.496 649.317,-253.793"/>
</g>
<!-- Node19 -->
<g id="node19" class="node"><title>Node19</title>
<g id="a_node19"><a xlink:href="_output_8h.html" target="_top" xlink:title=" ">
<polygon fill="white" stroke="black" points="521,-224.5 521,-243.5 604,-243.5 604,-224.5 521,-224.5"/>
<text text-anchor="middle" x="562.5" y="-231.5" font-family="Helvetica,sans-Serif" font-size="10.00">Cpl/Io/Output.h</text>
</a>
</g>
</g>
<!-- Node6&#45;&gt;Node19 -->
<g id="edge21" class="edge"><title>Node6&#45;&gt;Node19</title>
<path fill="none" stroke="midnightblue" d="M608.418,-280.083C600.329,-272.141 588.305,-260.335 578.59,-250.797"/>
<polygon fill="midnightblue" stroke="midnightblue" points="581.001,-248.26 571.413,-243.751 576.097,-253.254 581.001,-248.26"/>
</g>
<!-- Node8 -->
<g id="node8" class="node"><title>Node8</title>
<g id="a_node8"><a xlink:href="_string_8h.html" target="_top" xlink:title=" ">
<polygon fill="white" stroke="black" points="310.5,-168.5 310.5,-187.5 400.5,-187.5 400.5,-168.5 310.5,-168.5"/>
<text text-anchor="middle" x="355.5" y="-175.5" font-family="Helvetica,sans-Serif" font-size="10.00">Cpl/Text/String.h</text>
</a>
</g>
</g>
<!-- Node7&#45;&gt;Node8 -->
<g id="edge7" class="edge"><title>Node7&#45;&gt;Node8</title>
<path fill="none" stroke="midnightblue" d="M621.8,-225.726C618.655,-225.136 615.524,-224.554 612.5,-224 542.953,-211.253 462.669,-197.321 410.598,-188.387"/>
<polygon fill="midnightblue" stroke="midnightblue" points="411.019,-184.909 400.571,-186.669 409.836,-191.808 411.019,-184.909"/>
</g>
<!-- Node16 -->
<g id="node16" class="node"><title>Node16</title>
<g id="a_node16"><a xlink:href="_close_8h.html" target="_top" xlink:title=" ">
<polygon fill="white" stroke="black" points="657.5,-168.5 657.5,-187.5 735.5,-187.5 735.5,-168.5 657.5,-168.5"/>
<text text-anchor="middle" x="696.5" y="-175.5" font-family="Helvetica,sans-Serif" font-size="10.00">Cpl/Io/Close.h</text>
</a>
</g>
</g>
<!-- Node7&#45;&gt;Node16 -->
<g id="edge18" class="edge"><title>Node7&#45;&gt;Node16</title>
<path fill="none" stroke="midnightblue" d="M665.61,-224.083C670.782,-216.534 678.346,-205.495 684.694,-196.23"/>
<polygon fill="midnightblue" stroke="midnightblue" points="687.739,-197.979 690.504,-187.751 681.964,-194.022 687.739,-197.979"/>
</g>
<!-- Node18 -->
<g id="node18" class="node"><title>Node18</title>
<g id="a_node18"><a xlink:href="_is_eos_8h.html" target="_top" xlink:title=" ">
<polygon fill="white" stroke="black" points="560,-168.5 560,-187.5 639,-187.5 639,-168.5 560,-168.5"/>
<text text-anchor="middle" x="599.5" y="-175.5" font-family="Helvetica,sans-Serif" font-size="10.00">Cpl/Io/IsEos.h</text>
</a>
</g>
</g>
<!-- Node7&#45;&gt;Node18 -->
<g id="edge20" class="edge"><title>Node7&#45;&gt;Node18</title>
<path fill="none" stroke="midnightblue" d="M649.86,-224.324C640.99,-216.341 627.625,-204.313 616.892,-194.653"/>
<polygon fill="midnightblue" stroke="midnightblue" points="619.09,-191.922 609.315,-187.834 614.407,-197.125 619.09,-191.922"/>
</g>
<!-- Node9 -->
<g id="node9" class="node"><title>Node9</title>
<g id="a_node9"><a xlink:title=" ">
<polygon fill="white" stroke="#bfbfbf" points="667,-56.5 667,-75.5 744,-75.5 744,-56.5 667,-56.5"/>
<text text-anchor="middle" x="705.5" y="-63.5" font-family="Helvetica,sans-Serif" font-size="10.00">colony_map.h</text>
</a>
</g>
</g>
<!-- Node8&#45;&gt;Node9 -->
<g id="edge8" class="edge"><title>Node8&#45;&gt;Node9</title>
<path fill="none" stroke="midnightblue" d="M386.903,-168.454C418.686,-159.698 469.186,-145.493 512.5,-132 568.587,-114.528 633.169,-92.3546 671.593,-78.943"/>
<polygon fill="midnightblue" stroke="midnightblue" points="672.96,-82.173 681.243,-75.567 670.648,-75.5657 672.96,-82.173"/>
</g>
<!-- Node10 -->
<g id="node10" class="node"><title>Node10</title>
<g id="a_node10"><a xlink:href="_key_8h.html" target="_top" xlink:title=" ">
<polygon fill="white" stroke="black" points="399.5,-112.5 399.5,-131.5 503.5,-131.5 503.5,-112.5 399.5,-112.5"/>
<text text-anchor="middle" x="451.5" y="-119.5" font-family="Helvetica,sans-Serif" font-size="10.00">Cpl/Container/Key.h</text>
</a>
</g>
</g>
<!-- Node8&#45;&gt;Node10 -->
<g id="edge9" class="edge"><title>Node8&#45;&gt;Node10</title>
<path fill="none" stroke="midnightblue" d="M365.809,-168.324C379.33,-159.664 402.928,-146.242 422.044,-136.249"/>
<polygon fill="midnightblue" stroke="midnightblue" points="423.703,-139.332 431.004,-131.655 420.509,-133.103 423.703,-139.332"/>
</g>
<!-- Node14 -->
<g id="node14" class="node"><title>Node14</title>
<g id="a_node14"><a xlink:title=" ">
<polygon fill="white" stroke="#bfbfbf" points="257.5,-112.5 257.5,-131.5 309.5,-131.5 309.5,-112.5 257.5,-112.5"/>
<text text-anchor="middle" x="283.5" y="-119.5" font-family="Helvetica,sans-Serif" font-size="10.00">stdarg.h</text>
</a>
</g>
</g>
<!-- Node8&#45;&gt;Node14 -->
<g id="edge16" class="edge"><title>Node8&#45;&gt;Node14</title>
<path fill="none" stroke="midnightblue" d="M343.932,-168.324C333.08,-160.185 316.619,-147.839 303.617,-138.087"/>
<polygon fill="midnightblue" stroke="midnightblue" points="305.379,-135.034 295.279,-131.834 301.179,-140.634 305.379,-135.034"/>
</g>
<!-- Node15 -->
<g id="node15" class="node"><title>Node15</title>
<g id="a_node15"><a xlink:title=" ">
<polygon fill="white" stroke="#bfbfbf" points="327.5,-112.5 327.5,-131.5 381.5,-131.5 381.5,-112.5 327.5,-112.5"/>
<text text-anchor="middle" x="354.5" y="-119.5" font-family="Helvetica,sans-Serif" font-size="10.00">iostream</text>
</a>
</g>
</g>
<!-- Node8&#45;&gt;Node15 -->
<g id="edge17" class="edge"><title>Node8&#45;&gt;Node15</title>
<path fill="none" stroke="midnightblue" d="M355.335,-168.083C355.204,-161.006 355.016,-150.861 354.852,-141.986"/>
<polygon fill="midnightblue" stroke="midnightblue" points="358.347,-141.685 354.662,-131.751 351.348,-141.814 358.347,-141.685"/>
</g>
<!-- Node10&#45;&gt;Node8 -->
<g id="edge14" class="edge"><title>Node10&#45;&gt;Node8</title>
<path fill="none" stroke="midnightblue" d="M441.224,-131.655C427.721,-140.307 404.127,-153.727 385.004,-163.726"/>
<polygon fill="midnightblue" stroke="midnightblue" points="383.34,-160.646 376.039,-168.324 386.534,-166.875 383.34,-160.646"/>
</g>
<!-- Node10&#45;&gt;Node9 -->
<g id="edge15" class="edge"><title>Node10&#45;&gt;Node9</title>
<path fill="none" stroke="midnightblue" d="M491.747,-112.444C536.541,-102.92 608.917,-87.5333 656.852,-77.3425"/>
<polygon fill="midnightblue" stroke="midnightblue" points="657.637,-80.7539 666.691,-75.2508 656.181,-73.9069 657.637,-80.7539"/>
</g>
<!-- Node11 -->
<g id="node11" class="node"><title>Node11</title>
<g id="a_node11"><a xlink:href="_fatal_error_8h.html" target="_top" xlink:title=" ">
<polygon fill="white" stroke="black" points="390.5,-56.5 390.5,-75.5 512.5,-75.5 512.5,-56.5 390.5,-56.5"/>
<text text-anchor="middle" x="451.5" y="-63.5" font-family="Helvetica,sans-Serif" font-size="10.00">Cpl/System/FatalError.h</text>
</a>
</g>
</g>
<!-- Node10&#45;&gt;Node11 -->
<g id="edge10" class="edge"><title>Node10&#45;&gt;Node11</title>
<path fill="none" stroke="midnightblue" d="M451.5,-112.083C451.5,-105.006 451.5,-94.8611 451.5,-85.9865"/>
<polygon fill="midnightblue" stroke="midnightblue" points="455,-85.751 451.5,-75.7511 448,-85.7511 455,-85.751"/>
</g>
<!-- Node13 -->
<g id="node13" class="node"><title>Node13</title>
<g id="a_node13"><a xlink:title=" ">
<polygon fill="white" stroke="#bfbfbf" points="323,-56.5 323,-75.5 372,-75.5 372,-56.5 323,-56.5"/>
<text text-anchor="middle" x="347.5" y="-63.5" font-family="Helvetica,sans-Serif" font-size="10.00">stdint.h</text>
</a>
</g>
</g>
<!-- Node10&#45;&gt;Node13 -->
<g id="edge13" class="edge"><title>Node10&#45;&gt;Node13</title>
<path fill="none" stroke="midnightblue" d="M434.791,-112.324C418.188,-103.703 392.498,-90.3643 373.28,-80.3855"/>
<polygon fill="midnightblue" stroke="midnightblue" points="374.656,-77.1565 364.168,-75.6545 371.43,-83.3689 374.656,-77.1565"/>
</g>
<!-- Node11&#45;&gt;Node4 -->
<g id="edge12" class="edge"><title>Node11&#45;&gt;Node4</title>
<path fill="none" stroke="midnightblue" d="M411.253,-56.4435C366.85,-47.0036 295.347,-31.802 247.412,-21.6111"/>
<polygon fill="midnightblue" stroke="midnightblue" points="248.068,-18.1725 237.559,-19.5164 246.612,-25.0195 248.068,-18.1725"/>
</g>
<!-- Node12 -->
<g id="node12" class="node"><title>Node12</title>
<g id="a_node12"><a xlink:title=" ">
<polygon fill="white" stroke="#bfbfbf" points="425.5,-0.5 425.5,-19.5 477.5,-19.5 477.5,-0.5 425.5,-0.5"/>
<text text-anchor="middle" x="451.5" y="-7.5" font-family="Helvetica,sans-Serif" font-size="10.00">stddef.h</text>
</a>
</g>
</g>
<!-- Node11&#45;&gt;Node12 -->
<g id="edge11" class="edge"><title>Node11&#45;&gt;Node12</title>
<path fill="none" stroke="midnightblue" d="M451.5,-56.083C451.5,-49.0059 451.5,-38.8611 451.5,-29.9865"/>
<polygon fill="midnightblue" stroke="midnightblue" points="455,-29.751 451.5,-19.7511 448,-29.7511 455,-29.751"/>
</g>
<!-- Node17 -->
<g id="node17" class="node"><title>Node17</title>
<g id="a_node17"><a xlink:href="_item_8h.html" target="_top" xlink:title=" ">
<polygon fill="white" stroke="black" points="796.5,-112.5 796.5,-131.5 902.5,-131.5 902.5,-112.5 796.5,-112.5"/>
<text text-anchor="middle" x="849.5" y="-119.5" font-family="Helvetica,sans-Serif" font-size="10.00">Cpl/Container/Item.h</text>
</a>
</g>
</g>
<!-- Node16&#45;&gt;Node17 -->
<g id="edge19" class="edge"><title>Node16&#45;&gt;Node17</title>
<path fill="none" stroke="midnightblue" d="M720.743,-168.444C746.371,-159.399 786.985,-145.064 815.738,-134.916"/>
<polygon fill="midnightblue" stroke="midnightblue" points="817.105,-138.145 825.37,-131.516 814.775,-131.544 817.105,-138.145"/>
</g>
<!-- Node19&#45;&gt;Node8 -->
<g id="edge22" class="edge"><title>Node19&#45;&gt;Node8</title>
<path fill="none" stroke="midnightblue" d="M529.7,-224.444C494.12,-215.162 437.186,-200.309 398.153,-190.127"/>
<polygon fill="midnightblue" stroke="midnightblue" points="398.706,-186.654 388.146,-187.516 396.939,-193.427 398.706,-186.654"/>
</g>
<!-- Node19&#45;&gt;Node14 -->
<g id="edge25" class="edge"><title>Node19&#45;&gt;Node14</title>
<path fill="none" stroke="midnightblue" d="M520.754,-225.616C517.623,-225.067 514.512,-224.524 511.5,-224 418.206,-207.772 371.734,-251.516 301.5,-188 288.628,-176.359 284.627,-156.409 283.54,-141.673"/>
<polygon fill="midnightblue" stroke="midnightblue" points="287.037,-141.512 283.178,-131.645 280.041,-141.765 287.037,-141.512"/>
</g>
<!-- Node19&#45;&gt;Node16 -->
<g id="edge23" class="edge"><title>Node19&#45;&gt;Node16</title>
<path fill="none" stroke="midnightblue" d="M583.733,-224.444C605.884,-215.517 640.819,-201.439 665.936,-191.317"/>
<polygon fill="midnightblue" stroke="midnightblue" points="667.4,-194.501 675.367,-187.516 664.783,-188.008 667.4,-194.501"/>
</g>
<!-- Node19&#45;&gt;Node18 -->
<g id="edge24" class="edge"><title>Node19&#45;&gt;Node18</title>
<path fill="none" stroke="midnightblue" d="M568.61,-224.083C573.782,-216.534 581.346,-205.495 587.694,-196.23"/>
<polygon fill="midnightblue" stroke="midnightblue" points="590.739,-197.979 593.504,-187.751 584.964,-194.022 590.739,-197.979"/>
</g>
<!-- Node20&#45;&gt;Node19 -->
<g id="edge31" class="edge"><title>Node20&#45;&gt;Node19</title>
<path fill="none" stroke="midnightblue" d="M456.465,-280.444C477.109,-271.596 509.563,-257.687 533.132,-247.586"/>
<polygon fill="midnightblue" stroke="midnightblue" points="534.816,-250.673 542.628,-243.516 532.058,-244.239 534.816,-250.673"/>
</g>
<!-- Node21 -->
<g id="node21" class="node"><title>Node21</title>
<g id="a_node21"><a xlink:href="_map_item_8h.html" target="_top" xlink:title=" ">
<polygon fill="white" stroke="black" points="378,-224.5 378,-243.5 503,-243.5 503,-224.5 378,-224.5"/>
<text text-anchor="middle" x="440.5" y="-231.5" font-family="Helvetica,sans-Serif" font-size="10.00">Cpl/Container/MapItem.h</text>
</a>
</g>
</g>
<!-- Node20&#45;&gt;Node21 -->
<g id="edge27" class="edge"><title>Node20&#45;&gt;Node21</title>
<path fill="none" stroke="midnightblue" d="M437.161,-280.083C437.685,-273.006 438.436,-262.861 439.094,-253.986"/>
<polygon fill="midnightblue" stroke="midnightblue" points="442.603,-253.982 439.852,-243.751 435.623,-253.465 442.603,-253.982"/>
</g>
<!-- Node22 -->
<g id="node22" class="node"><title>Node22</title>
<g id="a_node22"><a xlink:href="_dict_item_8h.html" target="_top" xlink:title=" ">
<polygon fill="white" stroke="black" points="419,-168.5 419,-187.5 542,-187.5 542,-168.5 419,-168.5"/>
<text text-anchor="middle" x="480.5" y="-175.5" font-family="Helvetica,sans-Serif" font-size="10.00">Cpl/Container/DictItem.h</text>
</a>
</g>
</g>
<!-- Node21&#45;&gt;Node22 -->
<g id="edge28" class="edge"><title>Node21&#45;&gt;Node22</title>
<path fill="none" stroke="midnightblue" d="M447.105,-224.083C452.755,-216.455 461.045,-205.264 467.951,-195.941"/>
<polygon fill="midnightblue" stroke="midnightblue" points="470.878,-197.87 474.018,-187.751 465.253,-193.703 470.878,-197.87"/>
</g>
<!-- Node22&#45;&gt;Node10 -->
<g id="edge30" class="edge"><title>Node22&#45;&gt;Node10</title>
<path fill="none" stroke="midnightblue" d="M475.711,-168.083C471.742,-160.691 465.975,-149.953 461.065,-140.811"/>
<polygon fill="midnightblue" stroke="midnightblue" points="464.014,-138.905 456.2,-131.751 457.847,-142.217 464.014,-138.905"/>
</g>
<!-- Node22&#45;&gt;Node17 -->
<g id="edge29" class="edge"><title>Node22&#45;&gt;Node17</title>
<path fill="none" stroke="midnightblue" d="M538.969,-168.444C606.471,-158.565 717.087,-142.378 786.464,-132.225"/>
<polygon fill="midnightblue" stroke="midnightblue" points="787.003,-135.683 796.391,-130.772 785.99,-128.757 787.003,-135.683"/>
</g>
<!-- Node24 -->
<g id="node24" class="node"><title>Node24</title>
<g id="a_node24"><a xlink:href="_avl_tree___8h.html" target="_top" xlink:title=" ">
<polygon fill="white" stroke="black" points="196,-280.5 196,-299.5 321,-299.5 321,-280.5 196,-280.5"/>
<text text-anchor="middle" x="258.5" y="-287.5" font-family="Helvetica,sans-Serif" font-size="10.00">Cpl/Container/AvlTree_.h</text>
</a>
</g>
</g>
<!-- Node23&#45;&gt;Node24 -->
<g id="edge33" class="edge"><title>Node23&#45;&gt;Node24</title>
<path fill="none" stroke="midnightblue" d="M293.565,-336.083C287.571,-328.377 278.748,-317.033 271.452,-307.653"/>
<polygon fill="midnightblue" stroke="midnightblue" points="274.209,-305.496 265.306,-299.751 268.683,-309.793 274.209,-305.496"/>
</g>
<!-- Node24&#45;&gt;Node4 -->
<g id="edge34" class="edge"><title>Node24&#45;&gt;Node4</title>
<path fill="none" stroke="midnightblue" d="M232.657,-280.414C215.003,-273.288 192.378,-261.467 178.5,-244 159.777,-220.435 159.5,-209.098 159.5,-179 159.5,-179 159.5,-179 159.5,-121 159.5,-86.8131 176.1,-49.7639 187.357,-28.5707"/>
<polygon fill="midnightblue" stroke="midnightblue" points="190.447,-30.2151 192.216,-19.769 184.319,-26.832 190.447,-30.2151"/>
</g>
<!-- Node24&#45;&gt;Node21 -->
<g id="edge35" class="edge"><title>Node24&#45;&gt;Node21</title>
<path fill="none" stroke="midnightblue" d="M287.338,-280.444C318.356,-271.241 367.829,-256.562 402.118,-246.388"/>
<polygon fill="midnightblue" stroke="midnightblue" points="403.205,-249.716 411.796,-243.516 401.214,-243.006 403.205,-249.716"/>
</g>
<!-- Node25&#45;&gt;Node9 -->
<g id="edge37" class="edge"><title>Node25&#45;&gt;Node9</title>
<path fill="none" stroke="midnightblue" d="M899.138,-280.5C856.803,-272.349 799.954,-259.081 782.5,-244 769.643,-232.891 728.83,-128.292 712.425,-85.3077"/>
<polygon fill="midnightblue" stroke="midnightblue" points="715.637,-83.9057 708.812,-75.8014 709.093,-86.3925 715.637,-83.9057"/>
</g>
<!-- Node27&#45;&gt;Node8 -->
<g id="edge44" class="edge"><title>Node27&#45;&gt;Node8</title>
<path fill="none" stroke="midnightblue" d="M66.9704,-336.364C92.2738,-323.272 142.414,-298.023 186.5,-280 232.165,-261.332 249.747,-270.277 291.5,-244 311.923,-231.147 330.708,-210.566 342.569,-196.011"/>
<polygon fill="midnightblue" stroke="midnightblue" points="345.563,-197.867 349.013,-187.849 340.069,-193.529 345.563,-197.867"/>
</g>
<!-- Node28 -->
<g id="node28" class="node"><title>Node28</title>
<g id="a_node28"><a xlink:href="_f_string___8h.html" target="_top" xlink:title=" ">
<polygon fill="white" stroke="black" points="0,-280.5 0,-299.5 101,-299.5 101,-280.5 0,-280.5"/>
<text text-anchor="middle" x="50.5" y="-287.5" font-family="Helvetica,sans-Serif" font-size="10.00">Cpl/Text/FString_.h</text>
</a>
</g>
</g>
<!-- Node27&#45;&gt;Node28 -->
<g id="edge40" class="edge"><title>Node27&#45;&gt;Node28</title>
<path fill="none" stroke="midnightblue" d="M50.5,-336.083C50.5,-329.006 50.5,-318.861 50.5,-309.986"/>
<polygon fill="midnightblue" stroke="midnightblue" points="54.0001,-309.751 50.5,-299.751 47.0001,-309.751 54.0001,-309.751"/>
</g>
<!-- Node28&#45;&gt;Node4 -->
<g id="edge41" class="edge"><title>Node28&#45;&gt;Node4</title>
<path fill="none" stroke="midnightblue" d="M52.7927,-280.231C57.433,-261.687 67.5,-217.068 67.5,-179 67.5,-179 67.5,-179 67.5,-121 67.5,-71.1231 123.956,-39.2132 162.459,-23.2503"/>
<polygon fill="midnightblue" stroke="midnightblue" points="163.814,-26.4782 171.816,-19.5343 161.23,-19.9724 163.814,-26.4782"/>
</g>
<!-- Node29 -->
<g id="node29" class="node"><title>Node29</title>
<g id="a_node29"><a xlink:href="_text_2_string___8h.html" target="_top" xlink:title=" ">
<polygon fill="white" stroke="black" points="188,-224.5 188,-243.5 283,-243.5 283,-224.5 188,-224.5"/>
<text text-anchor="middle" x="235.5" y="-231.5" font-family="Helvetica,sans-Serif" font-size="10.00">Cpl/Text/String_.h</text>
</a>
</g>
</g>
<!-- Node28&#45;&gt;Node29 -->
<g id="edge42" class="edge"><title>Node28&#45;&gt;Node29</title>
<path fill="none" stroke="midnightblue" d="M79.8138,-280.444C111.342,-271.241 161.631,-256.562 196.486,-246.388"/>
<polygon fill="midnightblue" stroke="midnightblue" points="197.705,-249.678 206.323,-243.516 195.743,-242.959 197.705,-249.678"/>
</g>
<!-- Node29&#45;&gt;Node8 -->
<g id="edge43" class="edge"><title>Node29&#45;&gt;Node8</title>
<path fill="none" stroke="midnightblue" d="M254.514,-224.444C274.088,-215.636 304.808,-201.812 327.229,-191.722"/>
<polygon fill="midnightblue" stroke="midnightblue" points="328.892,-194.812 336.575,-187.516 326.019,-188.428 328.892,-194.812"/>
</g>
<!-- Node30&#45;&gt;Node19 -->
<g id="edge49" class="edge"><title>Node30&#45;&gt;Node19</title>
<path fill="none" stroke="midnightblue" d="M542.173,-336.47C540.49,-323.934 538.283,-299.872 542.5,-280 544.497,-270.591 548.601,-260.762 552.575,-252.698"/>
<polygon fill="midnightblue" stroke="midnightblue" points="555.807,-254.072 557.37,-243.593 549.613,-250.81 555.807,-254.072"/>
</g>
<!-- Node31 -->
<g id="node31" class="node"><title>Node31</title>
<g id="a_node31"><a xlink:href="_encoder___8h.html" target="_top" xlink:title=" ">
<polygon fill="white" stroke="black" points="740,-280.5 740,-299.5 877,-299.5 877,-280.5 740,-280.5"/>
<text text-anchor="middle" x="808.5" y="-287.5" font-family="Helvetica,sans-Serif" font-size="10.00">Cpl/Text/Frame/Encoder_.h</text>
</a>
</g>
</g>
<!-- Node30&#45;&gt;Node31 -->
<g id="edge46" class="edge"><title>Node30&#45;&gt;Node31</title>
<path fill="none" stroke="midnightblue" d="M585.49,-336.444C631.912,-326.984 706.728,-311.738 756.74,-301.547"/>
<polygon fill="midnightblue" stroke="midnightblue" points="757.607,-304.943 766.706,-299.516 756.209,-298.084 757.607,-304.943"/>
</g>
<!-- Node32 -->
<g id="node32" class="node"><title>Node32</title>
<g id="a_node32"><a xlink:href="_encoder_8h.html" target="_top" xlink:title=" ">
<polygon fill="white" stroke="black" points="956,-224.5 956,-243.5 1087,-243.5 1087,-224.5 956,-224.5"/>
<text text-anchor="middle" x="1021.5" y="-231.5" font-family="Helvetica,sans-Serif" font-size="10.00">Cpl/Text/Frame/Encoder.h</text>
</a>
</g>
</g>
<!-- Node31&#45;&gt;Node32 -->
<g id="edge47" class="edge"><title>Node31&#45;&gt;Node32</title>
<path fill="none" stroke="midnightblue" d="M842.25,-280.444C879.018,-271.122 937.946,-256.183 978.122,-245.997"/>
<polygon fill="midnightblue" stroke="midnightblue" points="979.074,-249.367 987.907,-243.516 977.354,-242.581 979.074,-249.367"/>
</g>
<!-- Node33 -->
<g id="node33" class="node"><title>Node33</title>
<g id="a_node33"><a xlink:title=" ">
<polygon fill="white" stroke="#bfbfbf" points="920.5,-168.5 920.5,-187.5 968.5,-187.5 968.5,-168.5 920.5,-168.5"/>
<text text-anchor="middle" x="944.5" y="-175.5" font-family="Helvetica,sans-Serif" font-size="10.00">stdlib.h</text>
</a>
</g>
</g>
<!-- Node32&#45;&gt;Node33 -->
<g id="edge48" class="edge"><title>Node32&#45;&gt;Node33</title>
<path fill="none" stroke="midnightblue" d="M1009.13,-224.324C997.342,-216.058 979.368,-203.453 965.364,-193.632"/>
<polygon fill="midnightblue" stroke="midnightblue" points="967.038,-190.531 956.841,-187.655 963.018,-196.262 967.038,-190.531"/>
</g>
<!-- Node34&#45;&gt;Node7 -->
<g id="edge54" class="edge"><title>Node34&#45;&gt;Node7</title>
<path fill="none" stroke="midnightblue" d="M758.672,-392.345C747.411,-372.282 718.322,-321.167 691.5,-280 685.351,-270.562 678.105,-260.308 672.065,-251.975"/>
<polygon fill="midnightblue" stroke="midnightblue" points="674.824,-249.818 666.093,-243.817 669.175,-253.953 674.824,-249.818"/>
</g>
<!-- Node35 -->
<g id="node35" class="node"><title>Node35</title>
<g id="a_node35"><a xlink:href="_decoder___8h.html" target="_top" xlink:title=" ">
<polygon fill="white" stroke="black" points="1072,-336.5 1072,-355.5 1209,-355.5 1209,-336.5 1072,-336.5"/>
<text text-anchor="middle" x="1140.5" y="-343.5" font-family="Helvetica,sans-Serif" font-size="10.00">Cpl/Text/Frame/Decoder_.h</text>
</a>
</g>
</g>
<!-- Node34&#45;&gt;Node35 -->
<g id="edge51" class="edge"><title>Node34&#45;&gt;Node35</title>
<path fill="none" stroke="midnightblue" d="M823.237,-392.444C890.52,-382.806 999.729,-367.163 1070.84,-356.978"/>
<polygon fill="midnightblue" stroke="midnightblue" points="1071.64,-360.399 1081.04,-355.516 1070.65,-353.47 1071.64,-360.399"/>
</g>
<!-- Node36 -->
<g id="node36" class="node"><title>Node36</title>
<g id="a_node36"><a xlink:href="_decoder_8h.html" target="_top" xlink:title=" ">
<polygon fill="white" stroke="black" points="1105,-224.5 1105,-243.5 1236,-243.5 1236,-224.5 1105,-224.5"/>
<text text-anchor="middle" x="1170.5" y="-231.5" font-family="Helvetica,sans-Serif" font-size="10.00">Cpl/Text/Frame/Decoder.h</text>
</a>
</g>
</g>
<!-- Node35&#45;&gt;Node36 -->
<g id="edge52" class="edge"><title>Node35&#45;&gt;Node36</title>
<path fill="none" stroke="midnightblue" d="M1146.9,-336.211C1152.87,-327.495 1161.44,-313.523 1165.5,-300 1170.03,-284.91 1171.12,-267.009 1171.16,-253.818"/>
<polygon fill="midnightblue" stroke="midnightblue" points="1174.66,-253.567 1170.99,-243.626 1167.66,-253.683 1174.66,-253.567"/>
</g>
<!-- Node36&#45;&gt;Node33 -->
<g id="edge53" class="edge"><title>Node36&#45;&gt;Node33</title>
<path fill="none" stroke="midnightblue" d="M1131.95,-224.455C1094.98,-216.161 1037.35,-202.977 978.466,-188.177"/>
<polygon fill="midnightblue" stroke="midnightblue" points="979.176,-184.746 968.623,-185.69 977.461,-191.533 979.176,-184.746"/>
</g>
<!-- Node37&#45;&gt;Node34 -->
<g id="edge56" class="edge"><title>Node37&#45;&gt;Node34</title>
<path fill="none" stroke="midnightblue" d="M763.5,-448.083C763.5,-441.006 763.5,-430.861 763.5,-421.986"/>
<polygon fill="midnightblue" stroke="midnightblue" points="767,-421.751 763.5,-411.751 760,-421.751 767,-421.751"/>
</g>
<!-- Node38&#45;&gt;Node8 -->
<g id="edge58" class="edge"><title>Node38&#45;&gt;Node8</title>
<path fill="none" stroke="midnightblue" d="M890.825,-342.5C747.824,-336.039 387.069,-318.027 368.5,-300 341.176,-273.473 345.885,-224.314 351.064,-197.545"/>
<polygon fill="midnightblue" stroke="midnightblue" points="354.527,-198.089 353.22,-187.575 347.685,-196.609 354.527,-198.089"/>
</g>
<!-- Node38&#45;&gt;Node25 -->
<g id="edge59" class="edge"><title>Node38&#45;&gt;Node25</title>
<path fill="none" stroke="midnightblue" d="M948.5,-336.083C948.5,-329.006 948.5,-318.861 948.5,-309.986"/>
<polygon fill="midnightblue" stroke="midnightblue" points="952,-309.751 948.5,-299.751 945,-309.751 952,-309.751"/>
</g>
<!-- Node39 -->
<g id="node39" class="node"><title>Node39</title>
<g id="a_node39"><a xlink:href="_system_2_trace_8h.html" target="_top" xlink:title=" ">
<polygon fill="white" stroke="black" points="1019.5,-280.5 1019.5,-299.5 1123.5,-299.5 1123.5,-280.5 1019.5,-280.5"/>
<text text-anchor="middle" x="1071.5" y="-287.5" font-family="Helvetica,sans-Serif" font-size="10.00">Cpl/System/Trace.h</text>
</a>
</g>
</g>
<!-- Node38&#45;&gt;Node39 -->
<g id="edge60" class="edge"><title>Node38&#45;&gt;Node39</title>
<path fill="none" stroke="midnightblue" d="M967.99,-336.444C988.142,-327.596 1019.82,-313.687 1042.83,-303.586"/>
<polygon fill="midnightblue" stroke="midnightblue" points="1044.35,-306.741 1052.1,-299.516 1041.54,-300.332 1044.35,-306.741"/>
</g>
<!-- Node44 -->
<g id="node44" class="node"><title>Node44</title>
<g id="a_node44"><a xlink:href="_private_startup___8h.html" target="_top" xlink:title="This file contains a collection of classes, interfaces, etc.">
<polygon fill="white" stroke="black" points="791.5,-224.5 791.5,-243.5 937.5,-243.5 937.5,-224.5 791.5,-224.5"/>
<text text-anchor="middle" x="864.5" y="-231.5" font-family="Helvetica,sans-Serif" font-size="10.00">Cpl/System/PrivateStartup_.h</text>
</a>
</g>
</g>
<!-- Node38&#45;&gt;Node44 -->
<g id="edge71" class="edge"><title>Node38&#45;&gt;Node44</title>
<path fill="none" stroke="midnightblue" d="M1006.35,-338.619C1054.28,-331.998 1116.97,-319.79 1132.5,-300 1137.99,-293.008 1138.24,-286.786 1132.5,-280 1126.17,-272.514 1014.99,-255.767 937.841,-244.948"/>
<polygon fill="midnightblue" stroke="midnightblue" points="938.056,-241.444 927.668,-243.528 937.088,-248.377 938.056,-241.444"/>
</g>
<!-- Node39&#45;&gt;Node4 -->
<g id="edge61" class="edge"><title>Node39&#45;&gt;Node4</title>
<path fill="none" stroke="midnightblue" d="M1123.6,-285.388C1198,-279.531 1330.36,-266.311 1372.5,-244 1407.25,-225.605 1432.5,-218.315 1432.5,-179 1432.5,-179 1432.5,-179 1432.5,-121 1432.5,-90.8413 485.539,-29.155 250.037,-14.2805"/>
<polygon fill="midnightblue" stroke="midnightblue" points="250.212,-10.7847 240.011,-13.6484 249.771,-17.7708 250.212,-10.7847"/>
</g>
<!-- Node39&#45;&gt;Node8 -->
<g id="edge62" class="edge"><title>Node39&#45;&gt;Node8</title>
<path fill="none" stroke="midnightblue" d="M1019.32,-281.164C942.4,-269.569 805.186,-248.7 782.5,-244 747.878,-236.827 740.238,-230.593 705.5,-224 578.478,-199.89 542.418,-206.546 410.635,-188.096"/>
<polygon fill="midnightblue" stroke="midnightblue" points="410.951,-184.605 400.558,-186.662 409.966,-191.536 410.951,-184.605"/>
</g>
<!-- Node39&#45;&gt;Node19 -->
<g id="edge70" class="edge"><title>Node39&#45;&gt;Node19</title>
<path fill="none" stroke="midnightblue" d="M1019.28,-281.098C1016.31,-280.711 1013.37,-280.341 1010.5,-280 837.404,-259.419 790.253,-267.442 614.317,-244.144"/>
<polygon fill="midnightblue" stroke="midnightblue" points="614.575,-240.647 604.199,-242.789 613.645,-247.585 614.575,-240.647"/>
</g>
<!-- Node40 -->
<g id="node40" class="node"><title>Node40</title>
<g id="a_node40"><a xlink:href="_thread_8h.html" target="_top" xlink:title=" ">
<polygon fill="white" stroke="black" points="1254,-224.5 1254,-243.5 1363,-243.5 1363,-224.5 1254,-224.5"/>
<text text-anchor="middle" x="1308.5" y="-231.5" font-family="Helvetica,sans-Serif" font-size="10.00">Cpl/System/Thread.h</text>
</a>
</g>
</g>
<!-- Node39&#45;&gt;Node40 -->
<g id="edge63" class="edge"><title>Node39&#45;&gt;Node40</title>
<path fill="none" stroke="midnightblue" d="M1109.05,-280.444C1150.31,-271.043 1216.64,-255.929 1261.37,-245.739"/>
<polygon fill="midnightblue" stroke="midnightblue" points="1262.15,-249.151 1271.12,-243.516 1260.59,-242.326 1262.15,-249.151"/>
</g>
<!-- Node40&#45;&gt;Node9 -->
<g id="edge64" class="edge"><title>Node40&#45;&gt;Node9</title>
<path fill="none" stroke="midnightblue" d="M1329.05,-224.462C1355.02,-212.492 1394.21,-189.743 1375.5,-168 1294.84,-74.2716 894.787,-66.3724 754.34,-66.5433"/>
<polygon fill="midnightblue" stroke="midnightblue" points="754.284,-63.0433 744.293,-66.57 754.303,-70.0433 754.284,-63.0433"/>
</g>
<!-- Node40&#45;&gt;Node33 -->
<g id="edge69" class="edge"><title>Node40&#45;&gt;Node33</title>
<path fill="none" stroke="midnightblue" d="M1253.87,-225.167C1251.04,-224.77 1248.24,-224.379 1245.5,-224 1129.6,-207.937 1096.99,-211.648 978.39,-187.946"/>
<polygon fill="midnightblue" stroke="midnightblue" points="979.057,-184.51 968.562,-185.959 977.67,-191.371 979.057,-184.51"/>
</g>
<!-- Node41 -->
<g id="node41" class="node"><title>Node41</title>
<g id="a_node41"><a xlink:href="_runnable_8h.html" target="_top" xlink:title=" ">
<polygon fill="white" stroke="black" points="987,-168.5 987,-187.5 1106,-187.5 1106,-168.5 987,-168.5"/>
<text text-anchor="middle" x="1046.5" y="-175.5" font-family="Helvetica,sans-Serif" font-size="10.00">Cpl/System/Runnable.h</text>
</a>
</g>
</g>
<!-- Node40&#45;&gt;Node41 -->
<g id="edge65" class="edge"><title>Node40&#45;&gt;Node41</title>
<path fill="none" stroke="midnightblue" d="M1266.99,-224.444C1221.09,-214.984 1147.12,-199.738 1097.67,-189.547"/>
<polygon fill="midnightblue" stroke="midnightblue" points="1098.32,-186.107 1087.82,-187.516 1096.91,-192.963 1098.32,-186.107"/>
</g>
<!-- Node42 -->
<g id="node42" class="node"><title>Node42</title>
<g id="a_node42"><a xlink:href="_signable_8h.html" target="_top" xlink:title=" ">
<polygon fill="white" stroke="black" points="1250.5,-168.5 1250.5,-187.5 1366.5,-187.5 1366.5,-168.5 1250.5,-168.5"/>
<text text-anchor="middle" x="1308.5" y="-175.5" font-family="Helvetica,sans-Serif" font-size="10.00">Cpl/System/Signable.h</text>
</a>
</g>
</g>
<!-- Node40&#45;&gt;Node42 -->
<g id="edge66" class="edge"><title>Node40&#45;&gt;Node42</title>
<path fill="none" stroke="midnightblue" d="M1308.5,-224.083C1308.5,-217.006 1308.5,-206.861 1308.5,-197.986"/>
<polygon fill="midnightblue" stroke="midnightblue" points="1312,-197.751 1308.5,-187.751 1305,-197.751 1312,-197.751"/>
</g>
<!-- Node43 -->
<g id="node43" class="node"><title>Node43</title>
<g id="a_node43"><a xlink:href="_traverser_8h.html" target="_top" xlink:title=" ">
<polygon fill="white" stroke="black" points="1124.5,-168.5 1124.5,-187.5 1232.5,-187.5 1232.5,-168.5 1124.5,-168.5"/>
<text text-anchor="middle" x="1178.5" y="-175.5" font-family="Helvetica,sans-Serif" font-size="10.00">Cpl/Type/Traverser.h</text>
</a>
</g>
</g>
<!-- Node40&#45;&gt;Node43 -->
<g id="edge68" class="edge"><title>Node40&#45;&gt;Node43</title>
<path fill="none" stroke="midnightblue" d="M1287.9,-224.444C1266.51,-215.557 1232.82,-201.563 1208.48,-191.451"/>
<polygon fill="midnightblue" stroke="midnightblue" points="1209.58,-188.12 1199,-187.516 1206.89,-194.585 1209.58,-188.12"/>
</g>
<!-- Node42&#45;&gt;Node17 -->
<g id="edge67" class="edge"><title>Node42&#45;&gt;Node17</title>
<path fill="none" stroke="midnightblue" d="M1250.4,-169.127C1247.39,-168.74 1244.41,-168.363 1241.5,-168 1125.7,-153.577 990.435,-138.423 912.888,-129.897"/>
<polygon fill="midnightblue" stroke="midnightblue" points="913.121,-126.402 902.799,-128.79 912.357,-133.36 913.121,-126.402"/>
</g>
<!-- Node44&#45;&gt;Node17 -->
<g id="edge72" class="edge"><title>Node44&#45;&gt;Node17</title>
<path fill="none" stroke="midnightblue" d="M863.323,-224.368C860.902,-206.617 855.318,-165.666 852.036,-141.597"/>
<polygon fill="midnightblue" stroke="midnightblue" points="855.491,-141.027 850.672,-131.591 848.555,-141.973 855.491,-141.027"/>
</g>
</g>
</svg>
