<?xml version="1.0" encoding="UTF-8" standalone="no"?>
<!DOCTYPE svg PUBLIC "-//W3C//DTD SVG 1.1//EN"
 "http://www.w3.org/Graphics/SVG/1.1/DTD/svg11.dtd">
<!-- Generated by graphviz version 2.38.0 (20140413.2041)
 -->
<!-- Title: Cpl/Itc/PostApi.h Pages: 1 -->
<svg width="1742pt" height="654pt"
 viewBox="0.00 0.00 1741.50 654.00" xmlns="http://www.w3.org/2000/svg" xmlns:xlink="http://www.w3.org/1999/xlink">
<g id="graph0" class="graph" transform="scale(1 1) rotate(0) translate(4 650)">
<title>Cpl/Itc/PostApi.h</title>
<polygon fill="white" stroke="none" points="-4,4 -4,-650 1737.5,-650 1737.5,4 -4,4"/>
<!-- Node1 -->
<g id="node1" class="node"><title>Node1</title>
<g id="a_node1"><a xlink:title=" ">
<polygon fill="#bfbfbf" stroke="black" points="562,-626.5 562,-645.5 653,-645.5 653,-626.5 562,-626.5"/>
<text text-anchor="middle" x="607.5" y="-633.5" font-family="Helvetica,sans-Serif" font-size="10.00">Cpl/Itc/PostApi.h</text>
</a>
</g>
</g>
<!-- Node2 -->
<g id="node2" class="node"><title>Node2</title>
<g id="a_node2"><a xlink:href="_async_return_handler_8h.html" target="_top" xlink:title=" ">
<polygon fill="white" stroke="black" points="132.5,-514.5 132.5,-533.5 278.5,-533.5 278.5,-514.5 132.5,-514.5"/>
<text text-anchor="middle" x="205.5" y="-521.5" font-family="Helvetica,sans-Serif" font-size="10.00">Cpl/Itc/AsyncReturnHandler.h</text>
</a>
</g>
</g>
<!-- Node1&#45;&gt;Node2 -->
<g id="edge1" class="edge"><title>Node1&#45;&gt;Node2</title>
<path fill="none" stroke="midnightblue" d="M566.5,-623.781C485.937,-601.737 308.584,-553.207 236.69,-533.535"/>
<polygon fill="midnightblue" stroke="midnightblue" points="565.721,-627.197 576.29,-626.46 567.569,-620.445 565.721,-627.197"/>
</g>
<!-- Node20 -->
<g id="node20" class="node"><title>Node20</title>
<g id="a_node20"><a xlink:href="_mailbox_8h.html" target="_top" xlink:title=" ">
<polygon fill="white" stroke="black" points="1095.5,-386 1095.5,-405 1185.5,-405 1185.5,-386 1095.5,-386"/>
<text text-anchor="middle" x="1140.5" y="-393" font-family="Helvetica,sans-Serif" font-size="10.00">Cpl/Itc/Mailbox.h</text>
</a>
</g>
</g>
<!-- Node1&#45;&gt;Node20 -->
<g id="edge23" class="edge"><title>Node1&#45;&gt;Node20</title>
<path fill="none" stroke="midnightblue" d="M639.371,-622.654C704.419,-597.232 856.848,-536.503 981.5,-478 1034.57,-453.092 1095.94,-420.54 1124.43,-405.207"/>
<polygon fill="midnightblue" stroke="midnightblue" points="637.745,-619.532 629.699,-626.426 640.288,-626.054 637.745,-619.532"/>
</g>
<!-- Node36 -->
<g id="node36" class="node"><title>Node36</title>
<g id="a_node36"><a xlink:href="_s_a_p_8h.html" target="_top" xlink:title=" ">
<polygon fill="white" stroke="black" points="569,-570.5 569,-589.5 646,-589.5 646,-570.5 569,-570.5"/>
<text text-anchor="middle" x="607.5" y="-577.5" font-family="Helvetica,sans-Serif" font-size="10.00">Cpl/Itc/SAP.h</text>
</a>
</g>
</g>
<!-- Node1&#45;&gt;Node36 -->
<g id="edge50" class="edge"><title>Node1&#45;&gt;Node36</title>
<path fill="none" stroke="midnightblue" d="M607.5,-615.805C607.5,-606.91 607.5,-596.78 607.5,-589.751"/>
<polygon fill="midnightblue" stroke="midnightblue" points="604,-616.083 607.5,-626.083 611,-616.083 604,-616.083"/>
</g>
<!-- Node3 -->
<g id="node3" class="node"><title>Node3</title>
<g id="a_node3"><a xlink:href="_response_message_8h.html" target="_top" xlink:title=" ">
<polygon fill="white" stroke="black" points="448.5,-453 448.5,-472 588.5,-472 588.5,-453 448.5,-453"/>
<text text-anchor="middle" x="518.5" y="-460" font-family="Helvetica,sans-Serif" font-size="10.00">Cpl/Itc/ResponseMessage.h</text>
</a>
</g>
</g>
<!-- Node2&#45;&gt;Node3 -->
<g id="edge2" class="edge"><title>Node2&#45;&gt;Node3</title>
<path fill="none" stroke="midnightblue" d="M260.496,-512.546C321.134,-501.018 417.53,-482.694 473.738,-472.009"/>
<polygon fill="midnightblue" stroke="midnightblue" points="259.516,-509.169 250.345,-514.475 260.823,-516.046 259.516,-509.169"/>
</g>
<!-- Node4 -->
<g id="node4" class="node"><title>Node4</title>
<g id="a_node4"><a xlink:href="_erase_request_8h.html" target="_top" xlink:title=" ">
<polygon fill="white" stroke="black" points="342,-386 342,-405 511,-405 511,-386 342,-386"/>
<text text-anchor="middle" x="426.5" y="-393" font-family="Helvetica,sans-Serif" font-size="10.00">Cpl/Dm/Persistent/EraseRequest.h</text>
</a>
</g>
</g>
<!-- Node3&#45;&gt;Node4 -->
<g id="edge3" class="edge"><title>Node3&#45;&gt;Node4</title>
<path fill="none" stroke="midnightblue" d="M497.863,-446.92C479.675,-434.069 453.792,-415.782 438.711,-405.127"/>
<polygon fill="midnightblue" stroke="midnightblue" points="495.906,-449.822 506.092,-452.734 499.945,-444.105 495.906,-449.822"/>
</g>
<!-- Node9 -->
<g id="node9" class="node"><title>Node9</title>
<g id="a_node9"><a xlink:href="_flush_request_8h.html" target="_top" xlink:title=" ">
<polygon fill="white" stroke="black" points="157,-386 157,-405 324,-405 324,-386 157,-386"/>
<text text-anchor="middle" x="240.5" y="-393" font-family="Helvetica,sans-Serif" font-size="10.00">Cpl/Dm/Persistent/FlushRequest.h</text>
</a>
</g>
</g>
<!-- Node3&#45;&gt;Node9 -->
<g id="edge8" class="edge"><title>Node3&#45;&gt;Node9</title>
<path fill="none" stroke="midnightblue" d="M472.07,-450.644C417.295,-437.837 327.361,-416.809 277.211,-405.083"/>
<polygon fill="midnightblue" stroke="midnightblue" points="471.336,-454.067 481.87,-452.936 472.93,-447.251 471.336,-454.067"/>
</g>
<!-- Node10 -->
<g id="node10" class="node"><title>Node10</title>
<g id="a_node10"><a xlink:href="_atomic_request_8h.html" target="_top" xlink:title=" ">
<polygon fill="white" stroke="black" points="664,-386 664,-405 787,-405 787,-386 664,-386"/>
<text text-anchor="middle" x="725.5" y="-393" font-family="Helvetica,sans-Serif" font-size="10.00">Cpl/Itc/AtomicRequest.h</text>
</a>
</g>
</g>
<!-- Node3&#45;&gt;Node10 -->
<g id="edge10" class="edge"><title>Node3&#45;&gt;Node10</title>
<path fill="none" stroke="midnightblue" d="M555.61,-449.847C596.611,-436.973 661.662,-416.546 698.228,-405.064"/>
<polygon fill="midnightblue" stroke="midnightblue" points="554.48,-446.533 545.988,-452.869 556.577,-453.212 554.48,-446.533"/>
</g>
<!-- Node12 -->
<g id="node12" class="node"><title>Node12</title>
<g id="a_node12"><a xlink:href="_close_request_8h.html" target="_top" xlink:title=" ">
<polygon fill="white" stroke="black" points="529,-386 529,-405 646,-405 646,-386 529,-386"/>
<text text-anchor="middle" x="587.5" y="-393" font-family="Helvetica,sans-Serif" font-size="10.00">Cpl/Itc/CloseRequest.h</text>
</a>
</g>
</g>
<!-- Node3&#45;&gt;Node12 -->
<g id="edge12" class="edge"><title>Node3&#45;&gt;Node12</title>
<path fill="none" stroke="midnightblue" d="M535.106,-445.856C548.671,-433.078 567.34,-415.492 578.342,-405.127"/>
<polygon fill="midnightblue" stroke="midnightblue" points="532.685,-443.329 527.806,-452.734 537.485,-448.424 532.685,-443.329"/>
</g>
<!-- Node17 -->
<g id="node17" class="node"><title>Node17</title>
<g id="a_node17"><a xlink:href="_open_request_8h.html" target="_top" xlink:title=" ">
<polygon fill="white" stroke="black" points="805.5,-386 805.5,-405 921.5,-405 921.5,-386 805.5,-386"/>
<text text-anchor="middle" x="863.5" y="-393" font-family="Helvetica,sans-Serif" font-size="10.00">Cpl/Itc/OpenRequest.h</text>
</a>
</g>
</g>
<!-- Node3&#45;&gt;Node17 -->
<g id="edge18" class="edge"><title>Node3&#45;&gt;Node17</title>
<path fill="none" stroke="midnightblue" d="M577.994,-451.181C634.153,-441.316 720.673,-425.795 795.5,-411 804.855,-409.15 814.912,-407.061 824.346,-405.057"/>
<polygon fill="midnightblue" stroke="midnightblue" points="577.116,-447.782 567.87,-452.956 578.325,-454.677 577.116,-447.782"/>
</g>
<!-- Node19 -->
<g id="node19" class="node"><title>Node19</title>
<g id="a_node19"><a xlink:href="_indexed_entry_requests_8h.html" target="_top" xlink:title=" ">
<polygon fill="white" stroke="black" points="0,-380.5 0,-410.5 139,-410.5 139,-380.5 0,-380.5"/>
<text text-anchor="start" x="8" y="-398.5" font-family="Helvetica,sans-Serif" font-size="10.00">Cpl/Persistent/IndexedEntry</text>
<text text-anchor="middle" x="69.5" y="-387.5" font-family="Helvetica,sans-Serif" font-size="10.00">Requests.h</text>
</a>
</g>
</g>
<!-- Node3&#45;&gt;Node19 -->
<g id="edge21" class="edge"><title>Node3&#45;&gt;Node19</title>
<path fill="none" stroke="midnightblue" d="M437.913,-451.676C362.65,-442.229 247.258,-427.052 147.5,-411 144.78,-410.562 142.009,-410.105 139.212,-409.633"/>
<polygon fill="midnightblue" stroke="midnightblue" points="437.904,-455.202 448.261,-452.97 438.773,-448.256 437.904,-455.202"/>
</g>
<!-- Node5 -->
<g id="node5" class="node"><title>Node5</title>
<g id="a_node5"><a xlink:href="_dm_2_persistent_2_record_8h.html" target="_top" xlink:title=" ">
<polygon fill="white" stroke="black" points="655.5,-134.5 655.5,-153.5 793.5,-153.5 793.5,-134.5 655.5,-134.5"/>
<text text-anchor="middle" x="724.5" y="-141.5" font-family="Helvetica,sans-Serif" font-size="10.00">Cpl/Dm/Persistent/Record.h</text>
</a>
</g>
</g>
<!-- Node4&#45;&gt;Node5 -->
<g id="edge4" class="edge"><title>Node4&#45;&gt;Node5</title>
<path fill="none" stroke="midnightblue" d="M423.068,-375.838C416.817,-335.382 408.612,-239.286 460.5,-190 487.848,-164.023 586.576,-152.898 655.219,-148.234"/>
<polygon fill="midnightblue" stroke="midnightblue" points="419.649,-376.614 424.765,-385.892 426.551,-375.449 419.649,-376.614"/>
</g>
<!-- Node6 -->
<g id="node6" class="node"><title>Node6</title>
<g id="a_node6"><a xlink:href="_installer_record_8h_source.html" target="_top" xlink:title=" ">
<polygon fill="white" stroke="black" points="528,-67.5 528,-97.5 647,-97.5 647,-67.5 528,-67.5"/>
<text text-anchor="start" x="536" y="-85.5" font-family="Helvetica,sans-Serif" font-size="10.00">Storm/Thermostat/Main</text>
<text text-anchor="middle" x="587.5" y="-74.5" font-family="Helvetica,sans-Serif" font-size="10.00">/InstallerRecord.h</text>
</a>
</g>
</g>
<!-- Node5&#45;&gt;Node6 -->
<g id="edge5" class="edge"><title>Node5&#45;&gt;Node6</title>
<path fill="none" stroke="midnightblue" d="M695.628,-130.461C673.437,-120.823 642.79,-107.513 619.788,-97.523"/>
<polygon fill="midnightblue" stroke="midnightblue" points="694.305,-133.702 704.871,-134.475 697.093,-127.281 694.305,-133.702"/>
</g>
<!-- Node7 -->
<g id="node7" class="node"><title>Node7</title>
<g id="a_node7"><a xlink:href="_run_time_record_8h_source.html" target="_top" xlink:title=" ">
<polygon fill="white" stroke="black" points="665,-67.5 665,-97.5 784,-97.5 784,-67.5 665,-67.5"/>
<text text-anchor="start" x="673" y="-85.5" font-family="Helvetica,sans-Serif" font-size="10.00">Storm/Thermostat/Main</text>
<text text-anchor="middle" x="724.5" y="-74.5" font-family="Helvetica,sans-Serif" font-size="10.00">/RunTimeRecord.h</text>
</a>
</g>
</g>
<!-- Node5&#45;&gt;Node7 -->
<g id="edge6" class="edge"><title>Node5&#45;&gt;Node7</title>
<path fill="none" stroke="midnightblue" d="M724.5,-124.235C724.5,-115.586 724.5,-105.497 724.5,-97.523"/>
<polygon fill="midnightblue" stroke="midnightblue" points="721,-124.475 724.5,-134.475 728,-124.475 721,-124.475"/>
</g>
<!-- Node8 -->
<g id="node8" class="node"><title>Node8</title>
<g id="a_node8"><a xlink:href="_user_record_8h_source.html" target="_top" xlink:title=" ">
<polygon fill="white" stroke="black" points="802,-67.5 802,-97.5 921,-97.5 921,-67.5 802,-67.5"/>
<text text-anchor="start" x="810" y="-85.5" font-family="Helvetica,sans-Serif" font-size="10.00">Storm/Thermostat/Main</text>
<text text-anchor="middle" x="861.5" y="-74.5" font-family="Helvetica,sans-Serif" font-size="10.00">/UserRecord.h</text>
</a>
</g>
</g>
<!-- Node5&#45;&gt;Node8 -->
<g id="edge7" class="edge"><title>Node5&#45;&gt;Node8</title>
<path fill="none" stroke="midnightblue" d="M753.372,-130.461C775.563,-120.823 806.21,-107.513 829.212,-97.523"/>
<polygon fill="midnightblue" stroke="midnightblue" points="751.907,-127.281 744.129,-134.475 754.695,-133.702 751.907,-127.281"/>
</g>
<!-- Node9&#45;&gt;Node5 -->
<g id="edge9" class="edge"><title>Node9&#45;&gt;Node5</title>
<path fill="none" stroke="midnightblue" d="M251.216,-377.063C277.168,-336.519 347.764,-235.879 435.5,-190 472.679,-170.558 582.28,-157.465 655.313,-150.626"/>
<polygon fill="midnightblue" stroke="midnightblue" points="248.211,-375.267 245.85,-385.596 254.136,-378.994 248.211,-375.267"/>
</g>
<!-- Node11 -->
<g id="node11" class="node"><title>Node11</title>
<g id="a_node11"><a xlink:href="_atomic_sync_8h.html" target="_top" xlink:title=" ">
<polygon fill="white" stroke="black" points="670.5,-324.5 670.5,-343.5 780.5,-343.5 780.5,-324.5 670.5,-324.5"/>
<text text-anchor="middle" x="725.5" y="-331.5" font-family="Helvetica,sans-Serif" font-size="10.00">Cpl/Itc/AtomicSync.h</text>
</a>
</g>
</g>
<!-- Node10&#45;&gt;Node11 -->
<g id="edge11" class="edge"><title>Node10&#45;&gt;Node11</title>
<path fill="none" stroke="midnightblue" d="M725.5,-375.817C725.5,-364.996 725.5,-351.898 725.5,-343.509"/>
<polygon fill="midnightblue" stroke="midnightblue" points="722,-375.975 725.5,-385.975 729,-375.975 722,-375.975"/>
</g>
<!-- Node13 -->
<g id="node13" class="node"><title>Node13</title>
<g id="a_node13"><a xlink:href="_close_sync_8h.html" target="_top" xlink:title=" ">
<polygon fill="white" stroke="black" points="454.5,-263 454.5,-282 558.5,-282 558.5,-263 454.5,-263"/>
<text text-anchor="middle" x="506.5" y="-270" font-family="Helvetica,sans-Serif" font-size="10.00">Cpl/Itc/CloseSync.h</text>
</a>
</g>
</g>
<!-- Node12&#45;&gt;Node13 -->
<g id="edge13" class="edge"><title>Node12&#45;&gt;Node13</title>
<path fill="none" stroke="midnightblue" d="M575.952,-377.249C558.369,-350.983 525.531,-301.929 512.273,-282.123"/>
<polygon fill="midnightblue" stroke="midnightblue" points="573.203,-379.435 581.675,-385.798 579.02,-375.541 573.203,-379.435"/>
</g>
<!-- Node14 -->
<g id="node14" class="node"><title>Node14</title>
<g id="a_node14"><a xlink:href="_indexed_entry_server_8h.html" target="_top" xlink:title=" ">
<polygon fill="white" stroke="black" points="319,-0.5 319,-30.5 458,-30.5 458,-0.5 319,-0.5"/>
<text text-anchor="start" x="327" y="-18.5" font-family="Helvetica,sans-Serif" font-size="10.00">Cpl/Persistent/IndexedEntry</text>
<text text-anchor="middle" x="388.5" y="-7.5" font-family="Helvetica,sans-Serif" font-size="10.00">Server.h</text>
</a>
</g>
</g>
<!-- Node13&#45;&gt;Node14 -->
<g id="edge14" class="edge"><title>Node13&#45;&gt;Node14</title>
<path fill="none" stroke="midnightblue" d="M489.018,-255.706C479.529,-246.372 468.2,-233.884 460.5,-221 421.303,-155.411 398.997,-65.2527 391.44,-30.7326"/>
<polygon fill="midnightblue" stroke="midnightblue" points="486.772,-258.4 496.435,-262.744 491.59,-253.322 486.772,-258.4"/>
</g>
<!-- Node15 -->
<g id="node15" class="node"><title>Node15</title>
<g id="a_node15"><a xlink:href="_record_server_8h.html" target="_top" xlink:title=" ">
<polygon fill="white" stroke="black" points="650,-196 650,-215 799,-215 799,-196 650,-196"/>
<text text-anchor="middle" x="724.5" y="-203" font-family="Helvetica,sans-Serif" font-size="10.00">Cpl/Persistent/RecordServer.h</text>
</a>
</g>
</g>
<!-- Node13&#45;&gt;Node15 -->
<g id="edge15" class="edge"><title>Node13&#45;&gt;Node15</title>
<path fill="none" stroke="midnightblue" d="M545.036,-260.01C588.182,-247.145 657.107,-226.594 695.779,-215.064"/>
<polygon fill="midnightblue" stroke="midnightblue" points="544.032,-256.657 535.449,-262.869 546.032,-263.365 544.032,-256.657"/>
</g>
<!-- Node16 -->
<g id="node16" class="node"><title>Node16</title>
<g id="a_node16"><a xlink:href="_algorithm_8h.html" target="_top" xlink:title=" ">
<polygon fill="white" stroke="black" points="469.5,-196 469.5,-215 617.5,-215 617.5,-196 469.5,-196"/>
<text text-anchor="middle" x="543.5" y="-203" font-family="Helvetica,sans-Serif" font-size="10.00">Storm/Thermostat/Algorithm.h</text>
</a>
</g>
</g>
<!-- Node13&#45;&gt;Node16 -->
<g id="edge17" class="edge"><title>Node13&#45;&gt;Node16</title>
<path fill="none" stroke="midnightblue" d="M516.442,-254.035C523.605,-241.45 532.965,-225.007 538.589,-215.127"/>
<polygon fill="midnightblue" stroke="midnightblue" points="513.395,-252.312 511.49,-262.734 519.479,-255.775 513.395,-252.312"/>
</g>
<!-- Node15&#45;&gt;Node5 -->
<g id="edge16" class="edge"><title>Node15&#45;&gt;Node5</title>
<path fill="none" stroke="midnightblue" d="M724.5,-185.817C724.5,-174.996 724.5,-161.898 724.5,-153.509"/>
<polygon fill="midnightblue" stroke="midnightblue" points="721,-185.975 724.5,-195.975 728,-185.975 721,-185.975"/>
</g>
<!-- Node18 -->
<g id="node18" class="node"><title>Node18</title>
<g id="a_node18"><a xlink:href="_open_sync_8h.html" target="_top" xlink:title=" ">
<polygon fill="white" stroke="black" points="805.5,-324.5 805.5,-343.5 907.5,-343.5 907.5,-324.5 805.5,-324.5"/>
<text text-anchor="middle" x="856.5" y="-331.5" font-family="Helvetica,sans-Serif" font-size="10.00">Cpl/Itc/OpenSync.h</text>
</a>
</g>
</g>
<!-- Node17&#45;&gt;Node18 -->
<g id="edge19" class="edge"><title>Node17&#45;&gt;Node18</title>
<path fill="none" stroke="midnightblue" d="M861.302,-375.817C860.029,-364.996 858.488,-351.898 857.501,-343.509"/>
<polygon fill="midnightblue" stroke="midnightblue" points="857.853,-376.453 862.497,-385.975 864.805,-375.635 857.853,-376.453"/>
</g>
<!-- Node18&#45;&gt;Node13 -->
<g id="edge20" class="edge"><title>Node18&#45;&gt;Node13</title>
<path fill="none" stroke="midnightblue" d="M795.258,-324.364C737.619,-315.984 648.969,-302.445 572.5,-288 563.047,-286.214 552.879,-284.085 543.422,-282.015"/>
<polygon fill="midnightblue" stroke="midnightblue" points="794.897,-327.849 805.296,-325.817 795.9,-320.921 794.897,-327.849"/>
</g>
<!-- Node19&#45;&gt;Node14 -->
<g id="edge22" class="edge"><title>Node19&#45;&gt;Node14</title>
<path fill="none" stroke="midnightblue" d="M90.5843,-372.557C110.226,-349.728 136.5,-311.995 136.5,-273.5 136.5,-273.5 136.5,-273.5 136.5,-143 136.5,-61.0039 244.382,-32.1522 318.973,-22.0033"/>
<polygon fill="midnightblue" stroke="midnightblue" points="87.7521,-370.474 83.709,-380.267 92.9767,-375.133 87.7521,-370.474"/>
</g>
<!-- Node21 -->
<g id="node21" class="node"><title>Node21</title>
<g id="a_node21"><a xlink:href="_dm_2_mailbox_server_8h.html" target="_top" xlink:title=" ">
<polygon fill="white" stroke="black" points="950.5,-324.5 950.5,-343.5 1072.5,-343.5 1072.5,-324.5 950.5,-324.5"/>
<text text-anchor="middle" x="1011.5" y="-331.5" font-family="Helvetica,sans-Serif" font-size="10.00">Cpl/Dm/MailboxServer.h</text>
</a>
</g>
</g>
<!-- Node20&#45;&gt;Node21 -->
<g id="edge24" class="edge"><title>Node20&#45;&gt;Node21</title>
<path fill="none" stroke="midnightblue" d="M1112.69,-381.674C1087.66,-370.129 1051.58,-353.487 1029.95,-343.509"/>
<polygon fill="midnightblue" stroke="midnightblue" points="1111.47,-384.965 1122.02,-385.975 1114.4,-378.608 1111.47,-384.965"/>
</g>
<!-- Node34 -->
<g id="node34" class="node"><title>Node34</title>
<g id="a_node34"><a xlink:href="_itc_2_mailbox_server_8h.html" target="_top" xlink:title=" ">
<polygon fill="white" stroke="black" points="1098,-324.5 1098,-343.5 1217,-343.5 1217,-324.5 1098,-324.5"/>
<text text-anchor="middle" x="1157.5" y="-331.5" font-family="Helvetica,sans-Serif" font-size="10.00">Cpl/Itc/MailboxServer.h</text>
</a>
</g>
</g>
<!-- Node20&#45;&gt;Node34 -->
<g id="edge48" class="edge"><title>Node20&#45;&gt;Node34</title>
<path fill="none" stroke="midnightblue" d="M1145.74,-376.157C1148.85,-365.272 1152.65,-351.986 1155.07,-343.509"/>
<polygon fill="midnightblue" stroke="midnightblue" points="1142.32,-375.398 1142.94,-385.975 1149.05,-377.321 1142.32,-375.398"/>
</g>
<!-- Node21&#45;&gt;Node15 -->
<g id="edge39" class="edge"><title>Node21&#45;&gt;Node15</title>
<path fill="none" stroke="midnightblue" d="M993.739,-317.651C968.702,-296.065 925.603,-259.116 921.5,-257 894.748,-243.205 816.246,-225.385 766.793,-215.02"/>
<polygon fill="midnightblue" stroke="midnightblue" points="991.597,-320.426 1001.45,-324.309 996.171,-315.126 991.597,-320.426"/>
</g>
<!-- Node21&#45;&gt;Node16 -->
<g id="edge46" class="edge"><title>Node21&#45;&gt;Node16</title>
<path fill="none" stroke="midnightblue" d="M940.23,-325.819C825.704,-314.181 612.706,-292.082 605.5,-288 575.182,-270.825 554.945,-232.175 547.125,-215.002"/>
<polygon fill="midnightblue" stroke="midnightblue" points="940.02,-329.316 950.323,-326.844 940.727,-322.352 940.02,-329.316"/>
</g>
<!-- Node22 -->
<g id="node22" class="node"><title>Node22</title>
<g id="a_node22"><a xlink:href="_dm_2_periodic_scheduler_8h.html" target="_top" xlink:title=" ">
<polygon fill="white" stroke="black" points="615,-263 615,-282 754,-282 754,-263 615,-263"/>
<text text-anchor="middle" x="684.5" y="-270" font-family="Helvetica,sans-Serif" font-size="10.00">Cpl/Dm/PeriodicScheduler.h</text>
</a>
</g>
</g>
<!-- Node21&#45;&gt;Node22 -->
<g id="edge25" class="edge"><title>Node21&#45;&gt;Node22</title>
<path fill="none" stroke="midnightblue" d="M954.389,-322.671C904.12,-313.571 828.944,-299.943 763.5,-288 752.937,-286.072 741.582,-283.992 730.866,-282.026"/>
<polygon fill="midnightblue" stroke="midnightblue" points="953.949,-326.148 964.413,-324.485 955.196,-319.26 953.949,-326.148"/>
</g>
<!-- Node23 -->
<g id="node23" class="node"><title>Node23</title>
<g id="a_node23"><a xlink:href="_chunk_8h.html" target="_top" xlink:title=" ">
<polygon fill="white" stroke="black" points="1107,-263 1107,-282 1224,-282 1224,-263 1107,-263"/>
<text text-anchor="middle" x="1165.5" y="-270" font-family="Helvetica,sans-Serif" font-size="10.00">Cpl/Persistent/Chunk.h</text>
</a>
</g>
</g>
<!-- Node21&#45;&gt;Node23 -->
<g id="edge26" class="edge"><title>Node21&#45;&gt;Node23</title>
<path fill="none" stroke="midnightblue" d="M1043.12,-320.782C1073.05,-309.22 1117.19,-292.164 1143.48,-282.009"/>
<polygon fill="midnightblue" stroke="midnightblue" points="1041.63,-317.606 1033.56,-324.475 1044.15,-324.136 1041.63,-317.606"/>
</g>
<!-- Node29 -->
<g id="node29" class="node"><title>Node29</title>
<g id="a_node29"><a xlink:href="_persistent_2_record_8h.html" target="_top" xlink:title=" ">
<polygon fill="white" stroke="black" points="968.5,-263 968.5,-282 1088.5,-282 1088.5,-263 968.5,-263"/>
<text text-anchor="middle" x="1028.5" y="-270" font-family="Helvetica,sans-Serif" font-size="10.00">Cpl/Persistent/Record.h</text>
</a>
</g>
</g>
<!-- Node21&#45;&gt;Node29 -->
<g id="edge35" class="edge"><title>Node21&#45;&gt;Node29</title>
<path fill="none" stroke="midnightblue" d="M1016.74,-314.657C1019.85,-303.772 1023.65,-290.486 1026.07,-282.009"/>
<polygon fill="midnightblue" stroke="midnightblue" points="1013.32,-313.898 1013.94,-324.475 1020.05,-315.821 1013.32,-313.898"/>
</g>
<!-- Node30 -->
<g id="node30" class="node"><title>Node30</title>
<g id="a_node30"><a xlink:href="_region_media_8h.html" target="_top" xlink:title=" ">
<polygon fill="white" stroke="black" points="1252.5,-263 1252.5,-282 1398.5,-282 1398.5,-263 1252.5,-263"/>
<text text-anchor="middle" x="1325.5" y="-270" font-family="Helvetica,sans-Serif" font-size="10.00">Cpl/Persistent/RegionMedia.h</text>
</a>
</g>
</g>
<!-- Node21&#45;&gt;Node30 -->
<g id="edge40" class="edge"><title>Node21&#45;&gt;Node30</title>
<path fill="none" stroke="midnightblue" d="M1066.67,-322.546C1127.5,-311.018 1224.21,-292.694 1280.59,-282.009"/>
<polygon fill="midnightblue" stroke="midnightblue" points="1065.66,-319.174 1056.49,-324.475 1066.97,-326.052 1065.66,-319.174"/>
</g>
<!-- Node33 -->
<g id="node33" class="node"><title>Node33</title>
<g id="a_node33"><a xlink:href="_event_monitor_8h_source.html" target="_top" xlink:title=" ">
<polygon fill="white" stroke="black" points="772.5,-257.5 772.5,-287.5 912.5,-287.5 912.5,-257.5 772.5,-257.5"/>
<text text-anchor="start" x="780.5" y="-275.5" font-family="Helvetica,sans-Serif" font-size="10.00">Storm/Thermostat/Ui</text>
<text text-anchor="middle" x="842.5" y="-264.5" font-family="Helvetica,sans-Serif" font-size="10.00">/PicoDisplay/EventMonitor.h</text>
</a>
</g>
</g>
<!-- Node21&#45;&gt;Node33 -->
<g id="edge47" class="edge"><title>Node21&#45;&gt;Node33</title>
<path fill="none" stroke="midnightblue" d="M977.709,-321.103C950.21,-311.422 911.34,-297.737 882.33,-287.523"/>
<polygon fill="midnightblue" stroke="midnightblue" points="976.692,-324.456 987.286,-324.475 979.016,-317.853 976.692,-324.456"/>
</g>
<!-- Node23&#45;&gt;Node5 -->
<g id="edge27" class="edge"><title>Node23&#45;&gt;Node5</title>
<path fill="none" stroke="midnightblue" d="M1116.71,-260.834C1110.26,-259.5 1103.72,-258.189 1097.5,-257 1003.2,-238.985 972.651,-259.042 884.5,-221 863.525,-211.948 863.499,-201.042 843.5,-190 814.496,-173.986 778.625,-161.289 753.893,-153.52"/>
<polygon fill="midnightblue" stroke="midnightblue" points="1116.22,-264.307 1126.72,-262.932 1117.65,-257.456 1116.22,-264.307"/>
</g>
<!-- Node24 -->
<g id="node24" class="node"><title>Node24</title>
<g id="a_node24"><a xlink:href="_crc_chunk_8h.html" target="_top" xlink:title=" ">
<polygon fill="white" stroke="black" points="1259.5,-196 1259.5,-215 1391.5,-215 1391.5,-196 1259.5,-196"/>
<text text-anchor="middle" x="1325.5" y="-203" font-family="Helvetica,sans-Serif" font-size="10.00">Cpl/Persistent/CrcChunk.h</text>
</a>
</g>
</g>
<!-- Node23&#45;&gt;Node24 -->
<g id="edge28" class="edge"><title>Node23&#45;&gt;Node24</title>
<path fill="none" stroke="midnightblue" d="M1196.01,-259.104C1227.78,-246.198 1276.69,-226.327 1304.42,-215.064"/>
<polygon fill="midnightblue" stroke="midnightblue" points="1194.69,-255.862 1186.75,-262.869 1197.33,-262.347 1194.69,-255.862"/>
</g>
<!-- Node25 -->
<g id="node25" class="node"><title>Node25</title>
<g id="a_node25"><a xlink:href="_data_record_8h.html" target="_top" xlink:title=" ">
<polygon fill="white" stroke="black" points="893.5,-196 893.5,-215 1033.5,-215 1033.5,-196 893.5,-196"/>
<text text-anchor="middle" x="963.5" y="-203" font-family="Helvetica,sans-Serif" font-size="10.00">Cpl/Persistent/DataRecord.h</text>
</a>
</g>
</g>
<!-- Node23&#45;&gt;Node25 -->
<g id="edge29" class="edge"><title>Node23&#45;&gt;Node25</title>
<path fill="none" stroke="midnightblue" d="M1129.03,-259.765C1089.01,-246.886 1025.72,-226.521 990.113,-215.064"/>
<polygon fill="midnightblue" stroke="midnightblue" points="1128.08,-263.137 1138.68,-262.869 1130.23,-256.474 1128.08,-263.137"/>
</g>
<!-- Node27 -->
<g id="node27" class="node"><title>Node27</title>
<g id="a_node27"><a xlink:href="_indexed_entry_record_8h.html" target="_top" xlink:title=" ">
<polygon fill="white" stroke="black" points="966,-67.5 966,-97.5 1105,-97.5 1105,-67.5 966,-67.5"/>
<text text-anchor="start" x="974" y="-85.5" font-family="Helvetica,sans-Serif" font-size="10.00">Cpl/Persistent/IndexedEntry</text>
<text text-anchor="middle" x="1035.5" y="-74.5" font-family="Helvetica,sans-Serif" font-size="10.00">Record.h</text>
</a>
</g>
</g>
<!-- Node23&#45;&gt;Node27 -->
<g id="edge33" class="edge"><title>Node23&#45;&gt;Node27</title>
<path fill="none" stroke="midnightblue" d="M1132.35,-258.66C1114.73,-250.32 1093.99,-237.841 1080.5,-221 1050.19,-183.169 1040,-124.229 1036.83,-97.5099"/>
<polygon fill="midnightblue" stroke="midnightblue" points="1131.19,-261.976 1141.75,-262.869 1134.05,-255.587 1131.19,-261.976"/>
</g>
<!-- Node28 -->
<g id="node28" class="node"><title>Node28</title>
<g id="a_node28"><a xlink:href="_mirrored_chunk_8h.html" target="_top" xlink:title=" ">
<polygon fill="white" stroke="black" points="1089.5,-196 1089.5,-215 1241.5,-215 1241.5,-196 1089.5,-196"/>
<text text-anchor="middle" x="1165.5" y="-203" font-family="Helvetica,sans-Serif" font-size="10.00">Cpl/Persistent/MirroredChunk.h</text>
</a>
</g>
</g>
<!-- Node23&#45;&gt;Node28 -->
<g id="edge34" class="edge"><title>Node23&#45;&gt;Node28</title>
<path fill="none" stroke="midnightblue" d="M1165.5,-252.537C1165.5,-240.17 1165.5,-224.62 1165.5,-215.127"/>
<polygon fill="midnightblue" stroke="midnightblue" points="1162,-252.734 1165.5,-262.734 1169,-252.734 1162,-252.734"/>
</g>
<!-- Node26 -->
<g id="node26" class="node"><title>Node26</title>
<g id="a_node26"><a xlink:href="_index_record_8h.html" target="_top" xlink:title=" ">
<polygon fill="white" stroke="black" points="889.5,-134.5 889.5,-153.5 1033.5,-153.5 1033.5,-134.5 889.5,-134.5"/>
<text text-anchor="middle" x="961.5" y="-141.5" font-family="Helvetica,sans-Serif" font-size="10.00">Cpl/Persistent/IndexRecord.h</text>
</a>
</g>
</g>
<!-- Node25&#45;&gt;Node26 -->
<g id="edge30" class="edge"><title>Node25&#45;&gt;Node26</title>
<path fill="none" stroke="midnightblue" d="M962.872,-185.817C962.508,-174.996 962.068,-161.898 961.786,-153.509"/>
<polygon fill="midnightblue" stroke="midnightblue" points="959.379,-186.098 963.213,-195.975 966.375,-185.863 959.379,-186.098"/>
</g>
<!-- Node26&#45;&gt;Node27 -->
<g id="edge31" class="edge"><title>Node26&#45;&gt;Node27</title>
<path fill="none" stroke="midnightblue" d="M979.912,-128.195C991.581,-118.813 1006.58,-106.751 1018.06,-97.523"/>
<polygon fill="midnightblue" stroke="midnightblue" points="977.702,-125.481 972.102,-134.475 982.089,-130.937 977.702,-125.481"/>
</g>
<!-- Node27&#45;&gt;Node14 -->
<g id="edge32" class="edge"><title>Node27&#45;&gt;Node14</title>
<path fill="none" stroke="midnightblue" d="M955.961,-70.2442C947.041,-69.0936 938.08,-67.9869 929.5,-67 760.58,-47.5716 561.328,-30.4665 458.201,-22.0448"/>
<polygon fill="midnightblue" stroke="midnightblue" points="955.621,-73.7296 965.991,-71.5577 956.53,-66.7888 955.621,-73.7296"/>
</g>
<!-- Node29&#45;&gt;Node5 -->
<g id="edge36" class="edge"><title>Node29&#45;&gt;Node5</title>
<path fill="none" stroke="midnightblue" d="M973.199,-260.755C937.394,-252.595 890.372,-239.579 851.5,-221 829.917,-210.684 827.827,-202.611 807.5,-190 785.354,-176.26 758.699,-162.229 741.68,-153.568"/>
<polygon fill="midnightblue" stroke="midnightblue" points="972.463,-264.177 982.984,-262.929 973.981,-257.344 972.463,-264.177"/>
</g>
<!-- Node29&#45;&gt;Node15 -->
<g id="edge38" class="edge"><title>Node29&#45;&gt;Node15</title>
<path fill="none" stroke="midnightblue" d="M978.471,-260.803C918.647,-248.012 819.712,-226.858 764.644,-215.083"/>
<polygon fill="midnightblue" stroke="midnightblue" points="977.934,-264.267 988.445,-262.936 979.398,-257.422 977.934,-264.267"/>
</g>
<!-- Node29&#45;&gt;Node25 -->
<g id="edge37" class="edge"><title>Node29&#45;&gt;Node25</title>
<path fill="none" stroke="midnightblue" d="M1012.5,-255.497C999.75,-242.75 982.395,-225.395 972.127,-215.127"/>
<polygon fill="midnightblue" stroke="midnightblue" points="1010.19,-258.138 1019.73,-262.734 1015.14,-253.188 1010.19,-258.138"/>
</g>
<!-- Node30&#45;&gt;Node24 -->
<g id="edge41" class="edge"><title>Node30&#45;&gt;Node24</title>
<path fill="none" stroke="midnightblue" d="M1325.5,-252.537C1325.5,-240.17 1325.5,-224.62 1325.5,-215.127"/>
<polygon fill="midnightblue" stroke="midnightblue" points="1322,-252.734 1325.5,-262.734 1329,-252.734 1322,-252.734"/>
</g>
<!-- Node30&#45;&gt;Node27 -->
<g id="edge43" class="edge"><title>Node30&#45;&gt;Node27</title>
<path fill="none" stroke="midnightblue" d="M1357.9,-258.549C1373.79,-250.344 1391.44,-238.028 1400.5,-221 1406.97,-208.838 1408.77,-201.023 1400.5,-190 1365.05,-142.735 1200.73,-109.498 1105.08,-93.7807"/>
<polygon fill="midnightblue" stroke="midnightblue" points="1356.32,-255.426 1348.82,-262.909 1359.35,-261.736 1356.32,-255.426"/>
</g>
<!-- Node30&#45;&gt;Node28 -->
<g id="edge44" class="edge"><title>Node30&#45;&gt;Node28</title>
<path fill="none" stroke="midnightblue" d="M1294.99,-259.104C1263.22,-246.198 1214.31,-226.327 1186.58,-215.064"/>
<polygon fill="midnightblue" stroke="midnightblue" points="1293.67,-262.347 1304.25,-262.869 1296.31,-255.862 1293.67,-262.347"/>
</g>
<!-- Node31 -->
<g id="node31" class="node"><title>Node31</title>
<g id="a_node31"><a xlink:href="_file_adapter_8h.html" target="_top" xlink:title=" ">
<polygon fill="white" stroke="black" points="1448,-196 1448,-215 1587,-215 1587,-196 1448,-196"/>
<text text-anchor="middle" x="1517.5" y="-203" font-family="Helvetica,sans-Serif" font-size="10.00">Cpl/Persistent/FileAdapter.h</text>
</a>
</g>
</g>
<!-- Node30&#45;&gt;Node31 -->
<g id="edge42" class="edge"><title>Node30&#45;&gt;Node31</title>
<path fill="none" stroke="midnightblue" d="M1360.65,-259.601C1398.71,-246.714 1458.5,-226.473 1492.2,-215.064"/>
<polygon fill="midnightblue" stroke="midnightblue" points="1359.35,-256.347 1351,-262.869 1361.59,-262.977 1359.35,-256.347"/>
</g>
<!-- Node32 -->
<g id="node32" class="node"><title>Node32</title>
<g id="a_node32"><a xlink:href="_null_region_media_8h.html" target="_top" xlink:title=" ">
<polygon fill="white" stroke="black" points="1605.5,-190.5 1605.5,-220.5 1733.5,-220.5 1733.5,-190.5 1605.5,-190.5"/>
<text text-anchor="start" x="1613.5" y="-208.5" font-family="Helvetica,sans-Serif" font-size="10.00">Cpl/Persistent/NullRegion</text>
<text text-anchor="middle" x="1669.5" y="-197.5" font-family="Helvetica,sans-Serif" font-size="10.00">Media.h</text>
</a>
</g>
</g>
<!-- Node30&#45;&gt;Node32 -->
<g id="edge45" class="edge"><title>Node30&#45;&gt;Node32</title>
<path fill="none" stroke="midnightblue" d="M1381.92,-261.188C1436.76,-251.116 1522.39,-235.264 1596.5,-221 1599.42,-220.438 1602.4,-219.86 1605.41,-219.274"/>
<polygon fill="midnightblue" stroke="midnightblue" points="1381.25,-257.752 1372.05,-262.999 1382.51,-264.637 1381.25,-257.752"/>
</g>
<!-- Node35 -->
<g id="node35" class="node"><title>Node35</title>
<g id="a_node35"><a xlink:href="_itc_2_periodic_scheduler_8h.html" target="_top" xlink:title=" ">
<polygon fill="white" stroke="black" points="1417,-263 1417,-282 1552,-282 1552,-263 1417,-263"/>
<text text-anchor="middle" x="1484.5" y="-270" font-family="Helvetica,sans-Serif" font-size="10.00">Cpl/Itc/PeriodicScheduler.h</text>
</a>
</g>
</g>
<!-- Node34&#45;&gt;Node35 -->
<g id="edge49" class="edge"><title>Node34&#45;&gt;Node35</title>
<path fill="none" stroke="midnightblue" d="M1215.56,-322.686C1266.24,-313.649 1341.77,-300.105 1407.5,-288 1417.8,-286.103 1428.87,-284.035 1439.32,-282.071"/>
<polygon fill="midnightblue" stroke="midnightblue" points="1214.68,-319.287 1205.45,-324.487 1215.91,-326.179 1214.68,-319.287"/>
</g>
<!-- Node36&#45;&gt;Node4 -->
<g id="edge51" class="edge"><title>Node36&#45;&gt;Node4</title>
<path fill="none" stroke="midnightblue" d="M558.889,-569.525C512.569,-557.438 446.451,-531.336 422.5,-478 411.474,-453.446 419.018,-420.446 423.641,-405.062"/>
<polygon fill="midnightblue" stroke="midnightblue" points="558.193,-572.958 568.741,-571.964 559.875,-566.163 558.193,-572.958"/>
</g>
<!-- Node36&#45;&gt;Node9 -->
<g id="edge52" class="edge"><title>Node36&#45;&gt;Node9</title>
<path fill="none" stroke="midnightblue" d="M559.111,-569.674C526.39,-562.367 482.711,-550.631 446.5,-534 365.225,-496.671 280.03,-429.23 250.939,-405.252"/>
<polygon fill="midnightblue" stroke="midnightblue" points="558.378,-573.097 568.894,-571.801 559.865,-566.256 558.378,-573.097"/>
</g>
<!-- Node36&#45;&gt;Node10 -->
<g id="edge55" class="edge"><title>Node36&#45;&gt;Node10</title>
<path fill="none" stroke="midnightblue" d="M624.592,-563.203C632.968,-554.965 642.867,-544.447 650.5,-534 683.547,-488.772 711.973,-427.298 721.816,-405.011"/>
<polygon fill="midnightblue" stroke="midnightblue" points="621.955,-560.882 617.152,-570.326 626.795,-565.939 621.955,-560.882"/>
</g>
<!-- Node36&#45;&gt;Node12 -->
<g id="edge56" class="edge"><title>Node36&#45;&gt;Node12</title>
<path fill="none" stroke="midnightblue" d="M621.01,-562.301C626.668,-554.253 632.598,-544.156 635.5,-534 637.942,-525.453 636.904,-522.777 635.5,-514 628.608,-470.917 603.663,-424.189 592.714,-405.227"/>
<polygon fill="midnightblue" stroke="midnightblue" points="618.124,-560.315 614.912,-570.411 623.719,-564.521 618.124,-560.315"/>
</g>
<!-- Node36&#45;&gt;Node17 -->
<g id="edge57" class="edge"><title>Node36&#45;&gt;Node17</title>
<path fill="none" stroke="midnightblue" d="M628.181,-564.527C640.731,-555.727 657.06,-544.247 671.5,-534 739.71,-485.597 821.132,-427.022 851.396,-405.224"/>
<polygon fill="midnightblue" stroke="midnightblue" points="625.973,-561.8 619.791,-570.405 629.99,-567.533 625.973,-561.8"/>
</g>
<!-- Node36&#45;&gt;Node19 -->
<g id="edge67" class="edge"><title>Node36&#45;&gt;Node19</title>
<path fill="none" stroke="midnightblue" d="M558.877,-577.345C443.029,-572.999 157.794,-559.782 123.5,-534 83.3208,-503.794 73.0122,-439.241 70.3871,-410.641"/>
<polygon fill="midnightblue" stroke="midnightblue" points="558.77,-580.843 568.892,-577.714 559.028,-573.848 558.77,-580.843"/>
</g>
<!-- Node37 -->
<g id="node37" class="node"><title>Node37</title>
<g id="a_node37"><a xlink:href="_listener_client_request_8h.html" target="_top" xlink:title=" ">
<polygon fill="white" stroke="black" points="834.5,-447.5 834.5,-477.5 972.5,-477.5 972.5,-447.5 834.5,-447.5"/>
<text text-anchor="start" x="842.5" y="-465.5" font-family="Helvetica,sans-Serif" font-size="10.00">Cpl/Io/Socket/ListenerClient</text>
<text text-anchor="middle" x="903.5" y="-454.5" font-family="Helvetica,sans-Serif" font-size="10.00">Request.h</text>
</a>
</g>
</g>
<!-- Node36&#45;&gt;Node37 -->
<g id="edge53" class="edge"><title>Node36&#45;&gt;Node37</title>
<path fill="none" stroke="midnightblue" d="M656.303,-575.558C700.976,-570.85 767.931,-559.795 820.5,-534 849.184,-519.925 876.168,-493.709 891.196,-477.516"/>
<polygon fill="midnightblue" stroke="midnightblue" points="655.894,-572.081 646.286,-576.547 656.582,-579.048 655.894,-572.081"/>
</g>
<!-- Node39 -->
<g id="node39" class="node"><title>Node39</title>
<g id="a_node39"><a xlink:href="_request_message_8h.html" target="_top" xlink:title=" ">
<polygon fill="white" stroke="black" points="494.5,-514.5 494.5,-533.5 626.5,-533.5 626.5,-514.5 494.5,-514.5"/>
<text text-anchor="middle" x="560.5" y="-521.5" font-family="Helvetica,sans-Serif" font-size="10.00">Cpl/Itc/RequestMessage.h</text>
</a>
</g>
</g>
<!-- Node36&#45;&gt;Node39 -->
<g id="edge58" class="edge"><title>Node36&#45;&gt;Node39</title>
<path fill="none" stroke="midnightblue" d="M593.079,-562.431C584.842,-552.967 574.846,-541.483 568.117,-533.751"/>
<polygon fill="midnightblue" stroke="midnightblue" points="590.534,-564.838 599.739,-570.083 595.814,-560.242 590.534,-564.838"/>
</g>
<!-- Node38 -->
<g id="node38" class="node"><title>Node38</title>
<g id="a_node38"><a xlink:href="_listener_client_sync_8h.html" target="_top" xlink:title=" ">
<polygon fill="white" stroke="black" points="939.5,-380.5 939.5,-410.5 1077.5,-410.5 1077.5,-380.5 939.5,-380.5"/>
<text text-anchor="start" x="947.5" y="-398.5" font-family="Helvetica,sans-Serif" font-size="10.00">Cpl/Io/Socket/ListenerClient</text>
<text text-anchor="middle" x="1008.5" y="-387.5" font-family="Helvetica,sans-Serif" font-size="10.00">Sync.h</text>
</a>
</g>
</g>
<!-- Node37&#45;&gt;Node38 -->
<g id="edge54" class="edge"><title>Node37&#45;&gt;Node38</title>
<path fill="none" stroke="midnightblue" d="M934.976,-442.015C951.315,-431.9 970.91,-419.77 985.761,-410.577"/>
<polygon fill="midnightblue" stroke="midnightblue" points="932.944,-439.156 926.283,-447.396 936.628,-445.108 932.944,-439.156"/>
</g>
<!-- Node39&#45;&gt;Node3 -->
<g id="edge65" class="edge"><title>Node39&#45;&gt;Node3</title>
<path fill="none" stroke="midnightblue" d="M548.504,-506.005C540.656,-494.888 530.74,-480.84 524.506,-472.009"/>
<polygon fill="midnightblue" stroke="midnightblue" points="545.856,-508.324 554.482,-514.475 551.575,-504.287 545.856,-508.324"/>
</g>
<!-- Node39&#45;&gt;Node4 -->
<g id="edge59" class="edge"><title>Node39&#45;&gt;Node4</title>
<path fill="none" stroke="midnightblue" d="M493.11,-511.525C473.121,-504.904 452.989,-494.462 439.5,-478 422.064,-456.721 423.469,-421.517 425.262,-405.245"/>
<polygon fill="midnightblue" stroke="midnightblue" points="492.297,-514.936 502.882,-514.479 494.322,-508.235 492.297,-514.936"/>
</g>
<!-- Node39&#45;&gt;Node9 -->
<g id="edge60" class="edge"><title>Node39&#45;&gt;Node9</title>
<path fill="none" stroke="midnightblue" d="M521.613,-511.525C493.752,-503.012 455.481,-490.721 422.5,-478 360.966,-454.266 290.23,-420.725 258.062,-405.115"/>
<polygon fill="midnightblue" stroke="midnightblue" points="520.793,-514.933 531.378,-514.484 522.823,-508.234 520.793,-514.933"/>
</g>
<!-- Node39&#45;&gt;Node10 -->
<g id="edge62" class="edge"><title>Node39&#45;&gt;Node10</title>
<path fill="none" stroke="midnightblue" d="M579.804,-508.201C614.46,-481.631 686.208,-426.624 714.08,-405.256"/>
<polygon fill="midnightblue" stroke="midnightblue" points="577.648,-505.443 571.841,-514.305 581.907,-510.998 577.648,-505.443"/>
</g>
<!-- Node39&#45;&gt;Node12 -->
<g id="edge63" class="edge"><title>Node39&#45;&gt;Node12</title>
<path fill="none" stroke="midnightblue" d="M578.14,-507.152C585.643,-499.231 593.559,-488.997 597.5,-478 606.54,-452.771 596.91,-420.643 591.155,-405.356"/>
<polygon fill="midnightblue" stroke="midnightblue" points="575.608,-504.734 570.938,-514.245 580.519,-509.722 575.608,-504.734"/>
</g>
<!-- Node39&#45;&gt;Node17 -->
<g id="edge64" class="edge"><title>Node39&#45;&gt;Node17</title>
<path fill="none" stroke="midnightblue" d="M590.873,-510.32C652.465,-484.605 790.646,-426.916 842.928,-405.088"/>
<polygon fill="midnightblue" stroke="midnightblue" points="589.206,-507.223 581.326,-514.305 591.903,-513.682 589.206,-507.223"/>
</g>
<!-- Node39&#45;&gt;Node19 -->
<g id="edge66" class="edge"><title>Node39&#45;&gt;Node19</title>
<path fill="none" stroke="midnightblue" d="M505.641,-512.531C462.684,-504.05 401.532,-491.354 348.5,-478 264.822,-456.929 168.448,-427.644 113.674,-410.519"/>
<polygon fill="midnightblue" stroke="midnightblue" points="505.121,-515.996 515.608,-514.487 506.469,-509.127 505.121,-515.996"/>
</g>
<!-- Node39&#45;&gt;Node37 -->
<g id="edge61" class="edge"><title>Node39&#45;&gt;Node37</title>
<path fill="none" stroke="midnightblue" d="M619.656,-512.738C679.291,-502.393 771.285,-486.435 834.276,-475.508"/>
<polygon fill="midnightblue" stroke="midnightblue" points="618.898,-509.317 609.644,-514.475 620.095,-516.214 618.898,-509.317"/>
</g>
</g>
</svg>
