<?xml version="1.0" encoding="UTF-8" standalone="no"?>
<!DOCTYPE svg PUBLIC "-//W3C//DTD SVG 1.1//EN"
 "http://www.w3.org/Graphics/SVG/1.1/DTD/svg11.dtd">
<!-- Generated by graphviz version 2.38.0 (20140413.2041)
 -->
<!-- Title: Cpl/Itc/PostApi.h Pages: 1 -->
<svg width="1499pt" height="632pt"
 viewBox="0.00 0.00 1499.00 632.00" xmlns="http://www.w3.org/2000/svg" xmlns:xlink="http://www.w3.org/1999/xlink">
<g id="graph0" class="graph" transform="scale(1 1) rotate(0) translate(4 628)">
<title>Cpl/Itc/PostApi.h</title>
<polygon fill="white" stroke="none" points="-4,4 -4,-628 1495,-628 1495,4 -4,4"/>
<!-- Node1 -->
<g id="node1" class="node"><title>Node1</title>
<g id="a_node1"><a xlink:title=" ">
<polygon fill="#bfbfbf" stroke="black" points="550,-604.5 550,-623.5 641,-623.5 641,-604.5 550,-604.5"/>
<text text-anchor="middle" x="595.5" y="-611.5" font-family="Helvetica,sans-Serif" font-size="10.00">Cpl/Itc/PostApi.h</text>
</a>
</g>
</g>
<!-- Node2 -->
<g id="node2" class="node"><title>Node2</title>
<g id="a_node2"><a xlink:href="_async_return_handler_8h.html" target="_top" xlink:title=" ">
<polygon fill="white" stroke="black" points="246.5,-492.5 246.5,-511.5 392.5,-511.5 392.5,-492.5 246.5,-492.5"/>
<text text-anchor="middle" x="319.5" y="-499.5" font-family="Helvetica,sans-Serif" font-size="10.00">Cpl/Itc/AsyncReturnHandler.h</text>
</a>
</g>
</g>
<!-- Node1&#45;&gt;Node2 -->
<g id="edge1" class="edge"><title>Node1&#45;&gt;Node2</title>
<path fill="none" stroke="midnightblue" d="M564.352,-600.586C507.807,-578.05 389.632,-530.951 341.057,-511.591"/>
<polygon fill="midnightblue" stroke="midnightblue" points="563.258,-603.917 573.843,-604.368 565.849,-597.415 563.258,-603.917"/>
</g>
<!-- Node16 -->
<g id="node16" class="node"><title>Node16</title>
<g id="a_node16"><a xlink:href="_mailbox_8h.html" target="_top" xlink:title=" ">
<polygon fill="white" stroke="black" points="1096.5,-364 1096.5,-383 1186.5,-383 1186.5,-364 1096.5,-364"/>
<text text-anchor="middle" x="1141.5" y="-371" font-family="Helvetica,sans-Serif" font-size="10.00">Cpl/Itc/Mailbox.h</text>
</a>
</g>
</g>
<!-- Node1&#45;&gt;Node16 -->
<g id="edge19" class="edge"><title>Node1&#45;&gt;Node16</title>
<path fill="none" stroke="midnightblue" d="M624.56,-600.306C722.561,-557.498 1039.38,-419.105 1121.77,-383.118"/>
<polygon fill="midnightblue" stroke="midnightblue" points="623.018,-597.16 615.255,-604.371 625.82,-603.575 623.018,-597.16"/>
</g>
<!-- Node30 -->
<g id="node30" class="node"><title>Node30</title>
<g id="a_node30"><a xlink:href="_s_a_p_8h.html" target="_top" xlink:title=" ">
<polygon fill="white" stroke="black" points="557,-548.5 557,-567.5 634,-567.5 634,-548.5 557,-548.5"/>
<text text-anchor="middle" x="595.5" y="-555.5" font-family="Helvetica,sans-Serif" font-size="10.00">Cpl/Itc/SAP.h</text>
</a>
</g>
</g>
<!-- Node1&#45;&gt;Node30 -->
<g id="edge43" class="edge"><title>Node1&#45;&gt;Node30</title>
<path fill="none" stroke="midnightblue" d="M595.5,-593.805C595.5,-584.91 595.5,-574.78 595.5,-567.751"/>
<polygon fill="midnightblue" stroke="midnightblue" points="592,-594.083 595.5,-604.083 599,-594.083 592,-594.083"/>
</g>
<!-- Node3 -->
<g id="node3" class="node"><title>Node3</title>
<g id="a_node3"><a xlink:href="_response_message_8h.html" target="_top" xlink:title=" ">
<polygon fill="white" stroke="black" points="360.5,-431 360.5,-450 500.5,-450 500.5,-431 360.5,-431"/>
<text text-anchor="middle" x="430.5" y="-438" font-family="Helvetica,sans-Serif" font-size="10.00">Cpl/Itc/ResponseMessage.h</text>
</a>
</g>
</g>
<!-- Node2&#45;&gt;Node3 -->
<g id="edge2" class="edge"><title>Node2&#45;&gt;Node3</title>
<path fill="none" stroke="midnightblue" d="M344.29,-487.712C365.788,-476.188 396.258,-459.855 414.626,-450.009"/>
<polygon fill="midnightblue" stroke="midnightblue" points="342.564,-484.666 335.404,-492.475 345.871,-490.835 342.564,-484.666"/>
</g>
<!-- Node4 -->
<g id="node4" class="node"><title>Node4</title>
<g id="a_node4"><a xlink:href="_erase_request_8h.html" target="_top" xlink:title=" ">
<polygon fill="white" stroke="black" points="612,-364 612,-383 781,-383 781,-364 612,-364"/>
<text text-anchor="middle" x="696.5" y="-371" font-family="Helvetica,sans-Serif" font-size="10.00">Cpl/Dm/Persistent/EraseRequest.h</text>
</a>
</g>
</g>
<!-- Node3&#45;&gt;Node4 -->
<g id="edge3" class="edge"><title>Node3&#45;&gt;Node4</title>
<path fill="none" stroke="midnightblue" d="M475.58,-428.484C528.049,-415.663 613.588,-394.76 661.374,-383.083"/>
<polygon fill="midnightblue" stroke="midnightblue" points="474.432,-425.162 465.548,-430.936 476.093,-431.962 474.432,-425.162"/>
</g>
<!-- Node6 -->
<g id="node6" class="node"><title>Node6</title>
<g id="a_node6"><a xlink:href="_flush_request_8h.html" target="_top" xlink:title=" ">
<polygon fill="white" stroke="black" points="157,-364 157,-383 324,-383 324,-364 157,-364"/>
<text text-anchor="middle" x="240.5" y="-371" font-family="Helvetica,sans-Serif" font-size="10.00">Cpl/Dm/Persistent/FlushRequest.h</text>
</a>
</g>
</g>
<!-- Node3&#45;&gt;Node6 -->
<g id="edge5" class="edge"><title>Node3&#45;&gt;Node6</title>
<path fill="none" stroke="midnightblue" d="M395.719,-427.601C358.048,-414.714 298.882,-394.473 265.532,-383.064"/>
<polygon fill="midnightblue" stroke="midnightblue" points="394.675,-430.943 405.269,-430.869 396.941,-424.32 394.675,-430.943"/>
</g>
<!-- Node7 -->
<g id="node7" class="node"><title>Node7</title>
<g id="a_node7"><a xlink:href="_atomic_request_8h.html" target="_top" xlink:title=" ">
<polygon fill="white" stroke="black" points="799,-364 799,-383 922,-383 922,-364 799,-364"/>
<text text-anchor="middle" x="860.5" y="-371" font-family="Helvetica,sans-Serif" font-size="10.00">Cpl/Itc/AtomicRequest.h</text>
</a>
</g>
</g>
<!-- Node3&#45;&gt;Node7 -->
<g id="edge7" class="edge"><title>Node3&#45;&gt;Node7</title>
<path fill="none" stroke="midnightblue" d="M510.221,-429.719C583.116,-420.436 693.827,-405.482 789.5,-389 799.667,-387.249 810.605,-385.131 820.777,-383.063"/>
<polygon fill="midnightblue" stroke="midnightblue" points="509.671,-426.261 500.191,-430.991 510.552,-433.205 509.671,-426.261"/>
</g>
<!-- Node9 -->
<g id="node9" class="node"><title>Node9</title>
<g id="a_node9"><a xlink:href="_close_request_8h.html" target="_top" xlink:title=" ">
<polygon fill="white" stroke="black" points="477,-364 477,-383 594,-383 594,-364 477,-364"/>
<text text-anchor="middle" x="535.5" y="-371" font-family="Helvetica,sans-Serif" font-size="10.00">Cpl/Itc/CloseRequest.h</text>
</a>
</g>
</g>
<!-- Node3&#45;&gt;Node9 -->
<g id="edge9" class="edge"><title>Node3&#45;&gt;Node9</title>
<path fill="none" stroke="midnightblue" d="M453.209,-425.442C474.003,-412.57 504.117,-393.927 521.564,-383.127"/>
<polygon fill="midnightblue" stroke="midnightblue" points="451.321,-422.494 444.661,-430.734 455.006,-428.446 451.321,-422.494"/>
</g>
<!-- Node13 -->
<g id="node13" class="node"><title>Node13</title>
<g id="a_node13"><a xlink:href="_open_request_8h.html" target="_top" xlink:title=" ">
<polygon fill="white" stroke="black" points="342.5,-364 342.5,-383 458.5,-383 458.5,-364 342.5,-364"/>
<text text-anchor="middle" x="400.5" y="-371" font-family="Helvetica,sans-Serif" font-size="10.00">Cpl/Itc/OpenRequest.h</text>
</a>
</g>
</g>
<!-- Node3&#45;&gt;Node13 -->
<g id="edge14" class="edge"><title>Node3&#45;&gt;Node13</title>
<path fill="none" stroke="midnightblue" d="M422.095,-421.29C416.334,-408.808 408.952,-392.814 404.482,-383.127"/>
<polygon fill="midnightblue" stroke="midnightblue" points="419.086,-423.121 426.454,-430.734 425.441,-420.187 419.086,-423.121"/>
</g>
<!-- Node15 -->
<g id="node15" class="node"><title>Node15</title>
<g id="a_node15"><a xlink:href="_indexed_entry_requests_8h.html" target="_top" xlink:title=" ">
<polygon fill="white" stroke="black" points="0,-358.5 0,-388.5 139,-388.5 139,-358.5 0,-358.5"/>
<text text-anchor="start" x="8" y="-376.5" font-family="Helvetica,sans-Serif" font-size="10.00">Cpl/Persistent/IndexedEntry</text>
<text text-anchor="middle" x="69.5" y="-365.5" font-family="Helvetica,sans-Serif" font-size="10.00">Requests.h</text>
</a>
</g>
</g>
<!-- Node3&#45;&gt;Node15 -->
<g id="edge17" class="edge"><title>Node3&#45;&gt;Node15</title>
<path fill="none" stroke="midnightblue" d="M372.211,-429.225C314.978,-419.107 225.2,-403.155 147.5,-389 144.79,-388.506 142.027,-388.001 139.237,-387.49"/>
<polygon fill="midnightblue" stroke="midnightblue" points="371.702,-432.689 382.159,-430.983 372.92,-425.796 371.702,-432.689"/>
</g>
<!-- Node5 -->
<g id="node5" class="node"><title>Node5</title>
<g id="a_node5"><a xlink:href="_dm_2_persistent_2_record_8h.html" target="_top" xlink:title=" ">
<polygon fill="white" stroke="black" points="551.5,-134.5 551.5,-153.5 689.5,-153.5 689.5,-134.5 551.5,-134.5"/>
<text text-anchor="middle" x="620.5" y="-141.5" font-family="Helvetica,sans-Serif" font-size="10.00">Cpl/Dm/Persistent/Record.h</text>
</a>
</g>
</g>
<!-- Node4&#45;&gt;Node5 -->
<g id="edge4" class="edge"><title>Node4&#45;&gt;Node5</title>
<path fill="none" stroke="midnightblue" d="M673.547,-358.068C636.399,-333.178 564.45,-278.224 536.5,-210 533.13,-201.775 531.934,-197.626 536.5,-190 547.548,-171.547 569.037,-160.231 587.514,-153.562"/>
<polygon fill="midnightblue" stroke="midnightblue" points="671.911,-361.181 682.193,-363.738 675.75,-355.327 671.911,-361.181"/>
</g>
<!-- Node6&#45;&gt;Node5 -->
<g id="edge6" class="edge"><title>Node6&#45;&gt;Node5</title>
<path fill="none" stroke="midnightblue" d="M254.505,-356.136C277.643,-329.931 326.309,-278.231 376.5,-246 447.676,-200.294 542.995,-168.008 590.688,-153.539"/>
<polygon fill="midnightblue" stroke="midnightblue" points="251.852,-353.853 247.919,-363.692 257.128,-358.453 251.852,-353.853"/>
</g>
<!-- Node8 -->
<g id="node8" class="node"><title>Node8</title>
<g id="a_node8"><a xlink:href="_atomic_sync_8h.html" target="_top" xlink:title=" ">
<polygon fill="white" stroke="black" points="805.5,-302.5 805.5,-321.5 915.5,-321.5 915.5,-302.5 805.5,-302.5"/>
<text text-anchor="middle" x="860.5" y="-309.5" font-family="Helvetica,sans-Serif" font-size="10.00">Cpl/Itc/AtomicSync.h</text>
</a>
</g>
</g>
<!-- Node7&#45;&gt;Node8 -->
<g id="edge8" class="edge"><title>Node7&#45;&gt;Node8</title>
<path fill="none" stroke="midnightblue" d="M860.5,-353.817C860.5,-342.996 860.5,-329.898 860.5,-321.509"/>
<polygon fill="midnightblue" stroke="midnightblue" points="857,-353.975 860.5,-363.975 864,-353.975 857,-353.975"/>
</g>
<!-- Node10 -->
<g id="node10" class="node"><title>Node10</title>
<g id="a_node10"><a xlink:href="_close_sync_8h.html" target="_top" xlink:title=" ">
<polygon fill="white" stroke="black" points="385.5,-246.5 385.5,-265.5 489.5,-265.5 489.5,-246.5 385.5,-246.5"/>
<text text-anchor="middle" x="437.5" y="-253.5" font-family="Helvetica,sans-Serif" font-size="10.00">Cpl/Itc/CloseSync.h</text>
</a>
</g>
</g>
<!-- Node9&#45;&gt;Node10 -->
<g id="edge10" class="edge"><title>Node9&#45;&gt;Node10</title>
<path fill="none" stroke="midnightblue" d="M521.5,-356C500.424,-331.161 461.277,-285.023 444.951,-265.782"/>
<polygon fill="midnightblue" stroke="midnightblue" points="518.995,-358.458 528.134,-363.819 524.333,-353.929 518.995,-358.458"/>
</g>
<!-- Node11 -->
<g id="node11" class="node"><title>Node11</title>
<g id="a_node11"><a xlink:href="_indexed_entry_server_8h.html" target="_top" xlink:title=" ">
<polygon fill="white" stroke="black" points="368,-0.5 368,-30.5 507,-30.5 507,-0.5 368,-0.5"/>
<text text-anchor="start" x="376" y="-18.5" font-family="Helvetica,sans-Serif" font-size="10.00">Cpl/Persistent/IndexedEntry</text>
<text text-anchor="middle" x="437.5" y="-7.5" font-family="Helvetica,sans-Serif" font-size="10.00">Server.h</text>
</a>
</g>
</g>
<!-- Node10&#45;&gt;Node11 -->
<g id="edge11" class="edge"><title>Node10&#45;&gt;Node11</title>
<path fill="none" stroke="midnightblue" d="M437.5,-236.107C437.5,-189.847 437.5,-71.6951 437.5,-30.7368"/>
<polygon fill="midnightblue" stroke="midnightblue" points="434,-236.229 437.5,-246.229 441,-236.229 434,-236.229"/>
</g>
<!-- Node12 -->
<g id="node12" class="node"><title>Node12</title>
<g id="a_node12"><a xlink:href="_record_server_8h.html" target="_top" xlink:title=" ">
<polygon fill="white" stroke="black" points="546,-190.5 546,-209.5 695,-209.5 695,-190.5 546,-190.5"/>
<text text-anchor="middle" x="620.5" y="-197.5" font-family="Helvetica,sans-Serif" font-size="10.00">Cpl/Persistent/RecordServer.h</text>
</a>
</g>
</g>
<!-- Node10&#45;&gt;Node12 -->
<g id="edge12" class="edge"><title>Node10&#45;&gt;Node12</title>
<path fill="none" stroke="midnightblue" d="M476.243,-243.568C510.765,-233.381 560.505,-218.703 591.639,-209.516"/>
<polygon fill="midnightblue" stroke="midnightblue" points="475.097,-240.256 466.497,-246.444 477.079,-246.97 475.097,-240.256"/>
</g>
<!-- Node12&#45;&gt;Node5 -->
<g id="edge13" class="edge"><title>Node12&#45;&gt;Node5</title>
<path fill="none" stroke="midnightblue" d="M620.5,-179.805C620.5,-170.91 620.5,-160.78 620.5,-153.751"/>
<polygon fill="midnightblue" stroke="midnightblue" points="617,-180.083 620.5,-190.083 624,-180.083 617,-180.083"/>
</g>
<!-- Node14 -->
<g id="node14" class="node"><title>Node14</title>
<g id="a_node14"><a xlink:href="_open_sync_8h.html" target="_top" xlink:title=" ">
<polygon fill="white" stroke="black" points="349.5,-302.5 349.5,-321.5 451.5,-321.5 451.5,-302.5 349.5,-302.5"/>
<text text-anchor="middle" x="400.5" y="-309.5" font-family="Helvetica,sans-Serif" font-size="10.00">Cpl/Itc/OpenSync.h</text>
</a>
</g>
</g>
<!-- Node13&#45;&gt;Node14 -->
<g id="edge15" class="edge"><title>Node13&#45;&gt;Node14</title>
<path fill="none" stroke="midnightblue" d="M400.5,-353.817C400.5,-342.996 400.5,-329.898 400.5,-321.509"/>
<polygon fill="midnightblue" stroke="midnightblue" points="397,-353.975 400.5,-363.975 404,-353.975 397,-353.975"/>
</g>
<!-- Node14&#45;&gt;Node10 -->
<g id="edge16" class="edge"><title>Node14&#45;&gt;Node10</title>
<path fill="none" stroke="midnightblue" d="M412.446,-293.566C418.812,-284.275 426.367,-273.248 431.504,-265.751"/>
<polygon fill="midnightblue" stroke="midnightblue" points="409.375,-291.855 406.61,-302.083 415.149,-295.812 409.375,-291.855"/>
</g>
<!-- Node15&#45;&gt;Node11 -->
<g id="edge18" class="edge"><title>Node15&#45;&gt;Node11</title>
<path fill="none" stroke="midnightblue" d="M98.0303,-352.084C123.398,-331.325 156.5,-296.642 156.5,-257 156.5,-257 156.5,-257 156.5,-143 156.5,-50.5784 284.457,-25.2867 367.678,-18.6109"/>
<polygon fill="midnightblue" stroke="midnightblue" points="95.8032,-349.383 90.1178,-358.323 100.137,-354.879 95.8032,-349.383"/>
</g>
<!-- Node17 -->
<g id="node17" class="node"><title>Node17</title>
<g id="a_node17"><a xlink:href="_dm_2_mailbox_server_8h.html" target="_top" xlink:title=" ">
<polygon fill="white" stroke="black" points="991.5,-302.5 991.5,-321.5 1113.5,-321.5 1113.5,-302.5 991.5,-302.5"/>
<text text-anchor="middle" x="1052.5" y="-309.5" font-family="Helvetica,sans-Serif" font-size="10.00">Cpl/Dm/MailboxServer.h</text>
</a>
</g>
</g>
<!-- Node16&#45;&gt;Node17 -->
<g id="edge20" class="edge"><title>Node16&#45;&gt;Node17</title>
<path fill="none" stroke="midnightblue" d="M1119.98,-358.113C1102.86,-346.669 1079.49,-331.046 1065.23,-321.509"/>
<polygon fill="midnightblue" stroke="midnightblue" points="1118.49,-361.327 1128.75,-363.975 1122.38,-355.508 1118.49,-361.327"/>
</g>
<!-- Node28 -->
<g id="node28" class="node"><title>Node28</title>
<g id="a_node28"><a xlink:href="_itc_2_mailbox_server_8h.html" target="_top" xlink:title=" ">
<polygon fill="white" stroke="black" points="1136,-302.5 1136,-321.5 1255,-321.5 1255,-302.5 1136,-302.5"/>
<text text-anchor="middle" x="1195.5" y="-309.5" font-family="Helvetica,sans-Serif" font-size="10.00">Cpl/Itc/MailboxServer.h</text>
</a>
</g>
</g>
<!-- Node16&#45;&gt;Node28 -->
<g id="edge41" class="edge"><title>Node16&#45;&gt;Node28</title>
<path fill="none" stroke="midnightblue" d="M1156.02,-356.497C1166.24,-345.236 1179.52,-330.604 1187.78,-321.509"/>
<polygon fill="midnightblue" stroke="midnightblue" points="1153.37,-354.218 1149.24,-363.975 1158.55,-358.922 1153.37,-354.218"/>
</g>
<!-- Node17&#45;&gt;Node12 -->
<g id="edge35" class="edge"><title>Node17&#45;&gt;Node12</title>
<path fill="none" stroke="midnightblue" d="M981.172,-304.812C899.016,-297.061 769.452,-282.745 723.5,-266 686.349,-252.462 648.514,-224.019 630.818,-209.67"/>
<polygon fill="midnightblue" stroke="midnightblue" points="980.914,-308.303 991.196,-305.747 981.564,-301.333 980.914,-308.303"/>
</g>
<!-- Node18 -->
<g id="node18" class="node"><title>Node18</title>
<g id="a_node18"><a xlink:href="_dm_2_periodic_scheduler_8h.html" target="_top" xlink:title=" ">
<polygon fill="white" stroke="black" points="1199,-246.5 1199,-265.5 1338,-265.5 1338,-246.5 1199,-246.5"/>
<text text-anchor="middle" x="1268.5" y="-253.5" font-family="Helvetica,sans-Serif" font-size="10.00">Cpl/Dm/PeriodicScheduler.h</text>
</a>
</g>
</g>
<!-- Node17&#45;&gt;Node18 -->
<g id="edge21" class="edge"><title>Node17&#45;&gt;Node18</title>
<path fill="none" stroke="midnightblue" d="M1096.66,-299.959C1137.46,-289.76 1197.21,-274.822 1234.43,-265.516"/>
<polygon fill="midnightblue" stroke="midnightblue" points="1095.58,-296.623 1086.73,-302.444 1097.28,-303.414 1095.58,-296.623"/>
</g>
<!-- Node19 -->
<g id="node19" class="node"><title>Node19</title>
<g id="a_node19"><a xlink:href="_chunk_8h.html" target="_top" xlink:title=" ">
<polygon fill="white" stroke="black" points="899,-246.5 899,-265.5 1016,-265.5 1016,-246.5 899,-246.5"/>
<text text-anchor="middle" x="957.5" y="-253.5" font-family="Helvetica,sans-Serif" font-size="10.00">Cpl/Persistent/Chunk.h</text>
</a>
</g>
</g>
<!-- Node17&#45;&gt;Node19 -->
<g id="edge22" class="edge"><title>Node17&#45;&gt;Node19</title>
<path fill="none" stroke="midnightblue" d="M1028.18,-297.177C1010.7,-287.241 987.67,-274.149 972.726,-265.655"/>
<polygon fill="midnightblue" stroke="midnightblue" points="1026.81,-300.425 1037.24,-302.324 1030.27,-294.339 1026.81,-300.425"/>
</g>
<!-- Node25 -->
<g id="node25" class="node"><title>Node25</title>
<g id="a_node25"><a xlink:href="_persistent_2_record_8h.html" target="_top" xlink:title=" ">
<polygon fill="white" stroke="black" points="732.5,-246.5 732.5,-265.5 852.5,-265.5 852.5,-246.5 732.5,-246.5"/>
<text text-anchor="middle" x="792.5" y="-253.5" font-family="Helvetica,sans-Serif" font-size="10.00">Cpl/Persistent/Record.h</text>
</a>
</g>
</g>
<!-- Node17&#45;&gt;Node25 -->
<g id="edge31" class="edge"><title>Node17&#45;&gt;Node25</title>
<path fill="none" stroke="midnightblue" d="M1001.51,-300.41C952.372,-290.204 878.973,-274.96 833.505,-265.516"/>
<polygon fill="midnightblue" stroke="midnightblue" points="1000.8,-303.837 1011.3,-302.444 1002.22,-296.983 1000.8,-303.837"/>
</g>
<!-- Node26 -->
<g id="node26" class="node"><title>Node26</title>
<g id="a_node26"><a xlink:href="_region_media_8h.html" target="_top" xlink:title=" ">
<polygon fill="white" stroke="black" points="1034.5,-246.5 1034.5,-265.5 1180.5,-265.5 1180.5,-246.5 1034.5,-246.5"/>
<text text-anchor="middle" x="1107.5" y="-253.5" font-family="Helvetica,sans-Serif" font-size="10.00">Cpl/Persistent/RegionMedia.h</text>
</a>
</g>
</g>
<!-- Node17&#45;&gt;Node26 -->
<g id="edge36" class="edge"><title>Node17&#45;&gt;Node26</title>
<path fill="none" stroke="midnightblue" d="M1068.79,-295.002C1078.54,-285.433 1090.55,-273.639 1098.59,-265.751"/>
<polygon fill="midnightblue" stroke="midnightblue" points="1066.27,-292.58 1061.58,-302.083 1071.17,-297.575 1066.27,-292.58"/>
</g>
<!-- Node19&#45;&gt;Node5 -->
<g id="edge23" class="edge"><title>Node19&#45;&gt;Node5</title>
<path fill="none" stroke="midnightblue" d="M947.204,-237.602C937.252,-222.444 920.732,-201.187 900.5,-190 865.223,-170.493 760.514,-157.53 689.63,-150.72"/>
<polygon fill="midnightblue" stroke="midnightblue" points="944.254,-239.487 952.525,-246.108 950.188,-235.774 944.254,-239.487"/>
</g>
<!-- Node20 -->
<g id="node20" class="node"><title>Node20</title>
<g id="a_node20"><a xlink:href="_crc_chunk_8h.html" target="_top" xlink:title=" ">
<polygon fill="white" stroke="black" points="1155.5,-190.5 1155.5,-209.5 1287.5,-209.5 1287.5,-190.5 1155.5,-190.5"/>
<text text-anchor="middle" x="1221.5" y="-197.5" font-family="Helvetica,sans-Serif" font-size="10.00">Cpl/Persistent/CrcChunk.h</text>
</a>
</g>
</g>
<!-- Node19&#45;&gt;Node20 -->
<g id="edge24" class="edge"><title>Node19&#45;&gt;Node20</title>
<path fill="none" stroke="midnightblue" d="M1009.28,-244.41C1059.17,-234.204 1133.7,-218.96 1179.86,-209.516"/>
<polygon fill="midnightblue" stroke="midnightblue" points="1008.43,-241.01 999.332,-246.444 1009.83,-247.869 1008.43,-241.01"/>
</g>
<!-- Node21 -->
<g id="node21" class="node"><title>Node21</title>
<g id="a_node21"><a xlink:href="_data_record_8h.html" target="_top" xlink:title=" ">
<polygon fill="white" stroke="black" points="751.5,-190.5 751.5,-209.5 891.5,-209.5 891.5,-190.5 751.5,-190.5"/>
<text text-anchor="middle" x="821.5" y="-197.5" font-family="Helvetica,sans-Serif" font-size="10.00">Cpl/Persistent/DataRecord.h</text>
</a>
</g>
</g>
<!-- Node19&#45;&gt;Node21 -->
<g id="edge25" class="edge"><title>Node19&#45;&gt;Node21</title>
<path fill="none" stroke="midnightblue" d="M926.365,-242.638C900.843,-232.504 865.391,-218.427 842.949,-209.516"/>
<polygon fill="midnightblue" stroke="midnightblue" points="925.365,-246.006 935.95,-246.444 927.948,-239.5 925.365,-246.006"/>
</g>
<!-- Node23 -->
<g id="node23" class="node"><title>Node23</title>
<g id="a_node23"><a xlink:href="_indexed_entry_record_8h.html" target="_top" xlink:title=" ">
<polygon fill="white" stroke="black" points="829,-67.5 829,-97.5 968,-97.5 968,-67.5 829,-67.5"/>
<text text-anchor="start" x="837" y="-85.5" font-family="Helvetica,sans-Serif" font-size="10.00">Cpl/Persistent/IndexedEntry</text>
<text text-anchor="middle" x="898.5" y="-74.5" font-family="Helvetica,sans-Serif" font-size="10.00">Record.h</text>
</a>
</g>
</g>
<!-- Node19&#45;&gt;Node23 -->
<g id="edge29" class="edge"><title>Node19&#45;&gt;Node23</title>
<path fill="none" stroke="midnightblue" d="M952.565,-236.547C946.009,-212.631 933.706,-169.756 920.5,-134 915.928,-121.62 909.892,-107.913 905.299,-97.9063"/>
<polygon fill="midnightblue" stroke="midnightblue" points="949.236,-237.643 955.229,-246.38 955.992,-235.813 949.236,-237.643"/>
</g>
<!-- Node24 -->
<g id="node24" class="node"><title>Node24</title>
<g id="a_node24"><a xlink:href="_mirrored_chunk_8h.html" target="_top" xlink:title=" ">
<polygon fill="white" stroke="black" points="985.5,-190.5 985.5,-209.5 1137.5,-209.5 1137.5,-190.5 985.5,-190.5"/>
<text text-anchor="middle" x="1061.5" y="-197.5" font-family="Helvetica,sans-Serif" font-size="10.00">Cpl/Persistent/MirroredChunk.h</text>
</a>
</g>
</g>
<!-- Node19&#45;&gt;Node24 -->
<g id="edge30" class="edge"><title>Node19&#45;&gt;Node24</title>
<path fill="none" stroke="midnightblue" d="M983.328,-241.59C1002.56,-231.605 1028.24,-218.267 1044.83,-209.655"/>
<polygon fill="midnightblue" stroke="midnightblue" points="981.471,-238.61 974.209,-246.324 984.697,-244.822 981.471,-238.61"/>
</g>
<!-- Node22 -->
<g id="node22" class="node"><title>Node22</title>
<g id="a_node22"><a xlink:href="_index_record_8h.html" target="_top" xlink:title=" ">
<polygon fill="white" stroke="black" points="767.5,-134.5 767.5,-153.5 911.5,-153.5 911.5,-134.5 767.5,-134.5"/>
<text text-anchor="middle" x="839.5" y="-141.5" font-family="Helvetica,sans-Serif" font-size="10.00">Cpl/Persistent/IndexRecord.h</text>
</a>
</g>
</g>
<!-- Node21&#45;&gt;Node22 -->
<g id="edge26" class="edge"><title>Node21&#45;&gt;Node22</title>
<path fill="none" stroke="midnightblue" d="M827.701,-180.396C830.713,-171.362 834.188,-160.936 836.583,-153.751"/>
<polygon fill="midnightblue" stroke="midnightblue" points="824.314,-179.489 824.472,-190.083 830.955,-181.703 824.314,-179.489"/>
</g>
<!-- Node22&#45;&gt;Node23 -->
<g id="edge27" class="edge"><title>Node22&#45;&gt;Node23</title>
<path fill="none" stroke="midnightblue" d="M855,-127.369C864.178,-118.113 875.711,-106.482 884.595,-97.523"/>
<polygon fill="midnightblue" stroke="midnightblue" points="852.509,-124.91 847.953,-134.475 857.48,-129.839 852.509,-124.91"/>
</g>
<!-- Node23&#45;&gt;Node11 -->
<g id="edge28" class="edge"><title>Node23&#45;&gt;Node11</title>
<path fill="none" stroke="midnightblue" d="M819.064,-70.2997C731.188,-57.9094 590.968,-38.1386 507.204,-26.328"/>
<polygon fill="midnightblue" stroke="midnightblue" points="818.594,-73.7679 828.985,-71.6985 819.571,-66.8365 818.594,-73.7679"/>
</g>
<!-- Node25&#45;&gt;Node5 -->
<g id="edge32" class="edge"><title>Node25&#45;&gt;Node5</title>
<path fill="none" stroke="midnightblue" d="M773.279,-239.801C755.6,-226.105 728.427,-205.76 703.5,-190 681.61,-176.16 655.124,-162.262 638.054,-153.65"/>
<polygon fill="midnightblue" stroke="midnightblue" points="771.561,-242.9 781.596,-246.297 775.87,-237.383 771.561,-242.9"/>
</g>
<!-- Node25&#45;&gt;Node12 -->
<g id="edge34" class="edge"><title>Node25&#45;&gt;Node12</title>
<path fill="none" stroke="midnightblue" d="M755.668,-243.436C723.238,-233.255 676.763,-218.664 647.626,-209.516"/>
<polygon fill="midnightblue" stroke="midnightblue" points="754.657,-246.787 765.246,-246.444 756.754,-240.109 754.657,-246.787"/>
</g>
<!-- Node25&#45;&gt;Node21 -->
<g id="edge33" class="edge"><title>Node25&#45;&gt;Node21</title>
<path fill="none" stroke="midnightblue" d="M802.176,-236.983C807.098,-227.817 812.858,-217.092 816.8,-209.751"/>
<polygon fill="midnightblue" stroke="midnightblue" points="798.937,-235.617 797.289,-246.083 805.104,-238.929 798.937,-235.617"/>
</g>
<!-- Node26&#45;&gt;Node20 -->
<g id="edge37" class="edge"><title>Node26&#45;&gt;Node20</title>
<path fill="none" stroke="midnightblue" d="M1134.74,-242.096C1156.04,-232.007 1185.04,-218.27 1203.52,-209.516"/>
<polygon fill="midnightblue" stroke="midnightblue" points="1133.1,-239 1125.56,-246.444 1136.1,-245.326 1133.1,-239"/>
</g>
<!-- Node26&#45;&gt;Node23 -->
<g id="edge39" class="edge"><title>Node26&#45;&gt;Node23</title>
<path fill="none" stroke="midnightblue" d="M1190.96,-245.542C1292.24,-233.868 1450.15,-214.95 1454.5,-210 1460.37,-203.323 1460.16,-196.851 1454.5,-190 1393.49,-116.189 1103.18,-93.0388 968.022,-86.1915"/>
<polygon fill="midnightblue" stroke="midnightblue" points="1190.27,-242.098 1180.74,-246.718 1191.07,-249.052 1190.27,-242.098"/>
</g>
<!-- Node26&#45;&gt;Node24 -->
<g id="edge40" class="edge"><title>Node26&#45;&gt;Node24</title>
<path fill="none" stroke="midnightblue" d="M1093.39,-238.431C1085.32,-228.967 1075.54,-217.483 1068.95,-209.751"/>
<polygon fill="midnightblue" stroke="midnightblue" points="1090.75,-240.74 1099.9,-246.083 1096.08,-236.201 1090.75,-240.74"/>
</g>
<!-- Node27 -->
<g id="node27" class="node"><title>Node27</title>
<g id="a_node27"><a xlink:href="_file_adapter_8h.html" target="_top" xlink:title=" ">
<polygon fill="white" stroke="black" points="1306,-190.5 1306,-209.5 1445,-209.5 1445,-190.5 1306,-190.5"/>
<text text-anchor="middle" x="1375.5" y="-197.5" font-family="Helvetica,sans-Serif" font-size="10.00">Cpl/Persistent/FileAdapter.h</text>
</a>
</g>
</g>
<!-- Node26&#45;&gt;Node27 -->
<g id="edge38" class="edge"><title>Node26&#45;&gt;Node27</title>
<path fill="none" stroke="midnightblue" d="M1160.06,-244.41C1210.71,-234.204 1286.37,-218.96 1333.23,-209.516"/>
<polygon fill="midnightblue" stroke="midnightblue" points="1159.08,-241.037 1149.97,-246.444 1160.46,-247.899 1159.08,-241.037"/>
</g>
<!-- Node29 -->
<g id="node29" class="node"><title>Node29</title>
<g id="a_node29"><a xlink:href="_itc_2_periodic_scheduler_8h.html" target="_top" xlink:title=" ">
<polygon fill="white" stroke="black" points="1356,-246.5 1356,-265.5 1491,-265.5 1491,-246.5 1356,-246.5"/>
<text text-anchor="middle" x="1423.5" y="-253.5" font-family="Helvetica,sans-Serif" font-size="10.00">Cpl/Itc/PeriodicScheduler.h</text>
</a>
</g>
</g>
<!-- Node28&#45;&gt;Node29 -->
<g id="edge42" class="edge"><title>Node28&#45;&gt;Node29</title>
<path fill="none" stroke="midnightblue" d="M1241.57,-300.088C1284.65,-289.887 1348.09,-274.861 1387.54,-265.516"/>
<polygon fill="midnightblue" stroke="midnightblue" points="1240.55,-296.733 1231.63,-302.444 1242.16,-303.545 1240.55,-296.733"/>
</g>
<!-- Node30&#45;&gt;Node4 -->
<g id="edge44" class="edge"><title>Node30&#45;&gt;Node4</title>
<path fill="none" stroke="midnightblue" d="M613.367,-541.206C621.784,-533.091 631.489,-522.679 638.5,-512 667.79,-467.384 687.498,-405.538 694.079,-383.081"/>
<polygon fill="midnightblue" stroke="midnightblue" points="610.767,-538.845 605.823,-548.216 615.531,-543.973 610.767,-538.845"/>
</g>
<!-- Node30&#45;&gt;Node6 -->
<g id="edge45" class="edge"><title>Node30&#45;&gt;Node6</title>
<path fill="none" stroke="midnightblue" d="M546.875,-554.408C453.755,-548.945 257.646,-534.837 237.5,-512 204.645,-474.756 227.16,-407.262 236.758,-383.261"/>
<polygon fill="midnightblue" stroke="midnightblue" points="546.714,-557.904 556.899,-554.986 547.117,-550.916 546.714,-557.904"/>
</g>
<!-- Node30&#45;&gt;Node7 -->
<g id="edge48" class="edge"><title>Node30&#45;&gt;Node7</title>
<path fill="none" stroke="midnightblue" d="M615.897,-542.58C628.265,-533.799 644.34,-522.32 658.5,-512 710.868,-473.833 721.573,-460.93 775.5,-425 799.07,-409.296 827.567,-392.857 844.849,-383.154"/>
<polygon fill="midnightblue" stroke="midnightblue" points="613.761,-539.803 607.627,-548.442 617.809,-545.514 613.761,-539.803"/>
</g>
<!-- Node30&#45;&gt;Node9 -->
<g id="edge49" class="edge"><title>Node30&#45;&gt;Node9</title>
<path fill="none" stroke="midnightblue" d="M609.975,-540.37C619.448,-527.416 629.114,-508.86 623.5,-492 607.72,-444.605 564.519,-400.907 545.136,-383.027"/>
<polygon fill="midnightblue" stroke="midnightblue" points="607.114,-538.345 603.638,-548.354 612.597,-542.697 607.114,-538.345"/>
</g>
<!-- Node30&#45;&gt;Node13 -->
<g id="edge50" class="edge"><title>Node30&#45;&gt;Node13</title>
<path fill="none" stroke="midnightblue" d="M553.026,-545.718C489.35,-527.83 374.17,-491.351 351.5,-456 334.745,-429.873 369.025,-398.166 388.418,-383.166"/>
<polygon fill="midnightblue" stroke="midnightblue" points="552.209,-549.124 562.781,-548.427 554.082,-542.379 552.209,-549.124"/>
</g>
<!-- Node30&#45;&gt;Node15 -->
<g id="edge60" class="edge"><title>Node30&#45;&gt;Node15</title>
<path fill="none" stroke="midnightblue" d="M546.523,-554.748C458.911,-550.121 279.218,-537.743 222.5,-512 158.761,-483.07 102.936,-417.839 80.2701,-388.851"/>
<polygon fill="midnightblue" stroke="midnightblue" points="546.569,-558.255 556.736,-555.274 546.929,-551.264 546.569,-558.255"/>
</g>
<!-- Node31 -->
<g id="node31" class="node"><title>Node31</title>
<g id="a_node31"><a xlink:href="_listener_client_request_8h.html" target="_top" xlink:title=" ">
<polygon fill="white" stroke="black" points="784.5,-425.5 784.5,-455.5 922.5,-455.5 922.5,-425.5 784.5,-425.5"/>
<text text-anchor="start" x="792.5" y="-443.5" font-family="Helvetica,sans-Serif" font-size="10.00">Cpl/Io/Socket/ListenerClient</text>
<text text-anchor="middle" x="853.5" y="-432.5" font-family="Helvetica,sans-Serif" font-size="10.00">Request.h</text>
</a>
</g>
</g>
<!-- Node30&#45;&gt;Node31 -->
<g id="edge46" class="edge"><title>Node30&#45;&gt;Node31</title>
<path fill="none" stroke="midnightblue" d="M644.487,-550.483C680.804,-544.239 730.696,-532.617 770.5,-512 798.704,-497.391 825.635,-471.595 840.818,-455.586"/>
<polygon fill="midnightblue" stroke="midnightblue" points="643.453,-547.106 634.151,-552.179 644.586,-554.013 643.453,-547.106"/>
</g>
<!-- Node33 -->
<g id="node33" class="node"><title>Node33</title>
<g id="a_node33"><a xlink:href="_request_message_8h.html" target="_top" xlink:title=" ">
<polygon fill="white" stroke="black" points="482.5,-492.5 482.5,-511.5 614.5,-511.5 614.5,-492.5 482.5,-492.5"/>
<text text-anchor="middle" x="548.5" y="-499.5" font-family="Helvetica,sans-Serif" font-size="10.00">Cpl/Itc/RequestMessage.h</text>
</a>
</g>
</g>
<!-- Node30&#45;&gt;Node33 -->
<g id="edge51" class="edge"><title>Node30&#45;&gt;Node33</title>
<path fill="none" stroke="midnightblue" d="M581.079,-540.431C572.842,-530.967 562.846,-519.483 556.117,-511.751"/>
<polygon fill="midnightblue" stroke="midnightblue" points="578.534,-542.838 587.739,-548.083 583.814,-538.242 578.534,-542.838"/>
</g>
<!-- Node32 -->
<g id="node32" class="node"><title>Node32</title>
<g id="a_node32"><a xlink:href="_listener_client_sync_8h.html" target="_top" xlink:title=" ">
<polygon fill="white" stroke="black" points="940.5,-358.5 940.5,-388.5 1078.5,-388.5 1078.5,-358.5 940.5,-358.5"/>
<text text-anchor="start" x="948.5" y="-376.5" font-family="Helvetica,sans-Serif" font-size="10.00">Cpl/Io/Socket/ListenerClient</text>
<text text-anchor="middle" x="1009.5" y="-365.5" font-family="Helvetica,sans-Serif" font-size="10.00">Sync.h</text>
</a>
</g>
</g>
<!-- Node31&#45;&gt;Node32 -->
<g id="edge47" class="edge"><title>Node31&#45;&gt;Node32</title>
<path fill="none" stroke="midnightblue" d="M896.594,-421.544C921.557,-411.143 952.529,-398.238 975.716,-388.577"/>
<polygon fill="midnightblue" stroke="midnightblue" points="895.234,-418.319 887.35,-425.396 897.927,-424.781 895.234,-418.319"/>
</g>
<!-- Node33&#45;&gt;Node3 -->
<g id="edge58" class="edge"><title>Node33&#45;&gt;Node3</title>
<path fill="none" stroke="midnightblue" d="M522.454,-487.867C499.584,-476.335 466.989,-459.899 447.375,-450.009"/>
<polygon fill="midnightblue" stroke="midnightblue" points="521.089,-491.098 531.593,-492.475 524.24,-484.847 521.089,-491.098"/>
</g>
<!-- Node33&#45;&gt;Node4 -->
<g id="edge52" class="edge"><title>Node33&#45;&gt;Node4</title>
<path fill="none" stroke="midnightblue" d="M566.612,-485.519C597.988,-458.701 661.468,-404.443 686.256,-383.256"/>
<polygon fill="midnightblue" stroke="midnightblue" points="564,-483.147 558.673,-492.305 568.548,-488.468 564,-483.147"/>
</g>
<!-- Node33&#45;&gt;Node6 -->
<g id="edge53" class="edge"><title>Node33&#45;&gt;Node6</title>
<path fill="none" stroke="midnightblue" d="M472.565,-491.106C434.958,-484.37 389.573,-473.413 351.5,-456 309.321,-436.709 267.325,-399.852 249.457,-383.131"/>
<polygon fill="midnightblue" stroke="midnightblue" points="472.001,-494.561 482.45,-492.813 473.191,-487.663 472.001,-494.561"/>
</g>
<!-- Node33&#45;&gt;Node7 -->
<g id="edge55" class="edge"><title>Node33&#45;&gt;Node7</title>
<path fill="none" stroke="midnightblue" d="M579.384,-488.478C642.609,-462.844 785.371,-404.961 839.317,-383.088"/>
<polygon fill="midnightblue" stroke="midnightblue" points="577.897,-485.304 569.945,-492.305 580.527,-491.791 577.897,-485.304"/>
</g>
<!-- Node33&#45;&gt;Node9 -->
<g id="edge56" class="edge"><title>Node33&#45;&gt;Node9</title>
<path fill="none" stroke="midnightblue" d="M547.298,-481.801C546.26,-466.417 544.597,-444.293 542.5,-425 540.893,-410.217 538.381,-393.088 536.843,-383.059"/>
<polygon fill="midnightblue" stroke="midnightblue" points="543.826,-482.34 547.968,-492.092 550.811,-481.886 543.826,-482.34"/>
</g>
<!-- Node33&#45;&gt;Node13 -->
<g id="edge57" class="edge"><title>Node33&#45;&gt;Node13</title>
<path fill="none" stroke="midnightblue" d="M542.918,-482.561C536.998,-465.698 526.17,-441.012 509.5,-425 487.841,-404.196 456.06,-390.818 432.397,-383.094"/>
<polygon fill="midnightblue" stroke="midnightblue" points="539.681,-483.923 546.112,-492.342 546.335,-481.75 539.681,-483.923"/>
</g>
<!-- Node33&#45;&gt;Node15 -->
<g id="edge59" class="edge"><title>Node33&#45;&gt;Node15</title>
<path fill="none" stroke="midnightblue" d="M473.448,-490.974C422.955,-483.407 355.152,-471.647 296.5,-456 226.306,-437.274 146.991,-406.496 103.16,-388.603"/>
<polygon fill="midnightblue" stroke="midnightblue" points="473.224,-494.479 483.628,-492.479 474.247,-487.555 473.224,-494.479"/>
</g>
<!-- Node33&#45;&gt;Node31 -->
<g id="edge54" class="edge"><title>Node33&#45;&gt;Node31</title>
<path fill="none" stroke="midnightblue" d="M602.29,-490.506C652.945,-480.625 729.076,-465.773 784.248,-455.01"/>
<polygon fill="midnightblue" stroke="midnightblue" points="601.344,-487.125 592.199,-492.475 602.684,-493.996 601.344,-487.125"/>
</g>
</g>
</svg>
