<?xml version="1.0" encoding="UTF-8" standalone="no"?>
<!DOCTYPE svg PUBLIC "-//W3C//DTD SVG 1.1//EN"
 "http://www.w3.org/Graphics/SVG/1.1/DTD/svg11.dtd">
<!-- Generated by graphviz version 2.38.0 (20140413.2041)
 -->
<!-- Title: Cpl/System/PrivateStartup_.h Pages: 1 -->
<svg width="553pt" height="140pt"
 viewBox="0.00 0.00 553.00 140.00" xmlns="http://www.w3.org/2000/svg" xmlns:xlink="http://www.w3.org/1999/xlink">
<g id="graph0" class="graph" transform="scale(1 1) rotate(0) translate(4 136)">
<title>Cpl/System/PrivateStartup_.h</title>
<polygon fill="white" stroke="none" points="-4,4 -4,-136 549,-136 549,4 -4,4"/>
<!-- Node1 -->
<g id="node1" class="node"><title>Node1</title>
<g id="a_node1"><a xlink:title="This file contains a collection of classes, interfaces, etc.">
<polygon fill="#bfbfbf" stroke="black" points="197,-112.5 197,-131.5 343,-131.5 343,-112.5 197,-112.5"/>
<text text-anchor="middle" x="270" y="-119.5" font-family="Helvetica,sans-Serif" font-size="10.00">Cpl/System/PrivateStartup_.h</text>
</a>
</g>
</g>
<!-- Node2 -->
<g id="node2" class="node"><title>Node2</title>
<g id="a_node2"><a xlink:href="_cpl_2_system_2_private___8h.html" target="_top" xlink:title="This file contains a collection of classes, interfaces, etc.">
<polygon fill="white" stroke="black" points="58.5,-56.5 58.5,-75.5 173.5,-75.5 173.5,-56.5 58.5,-56.5"/>
<text text-anchor="middle" x="116" y="-63.5" font-family="Helvetica,sans-Serif" font-size="10.00">Cpl/System/Private_.h</text>
</a>
</g>
</g>
<!-- Node1&#45;&gt;Node2 -->
<g id="edge1" class="edge"><title>Node1&#45;&gt;Node2</title>
<path fill="none" stroke="midnightblue" d="M235.889,-109.039C206.913,-98.8786 166.038,-84.5457 140.288,-75.5164"/>
<polygon fill="midnightblue" stroke="midnightblue" points="235.003,-112.437 245.598,-112.444 237.32,-105.832 235.003,-112.437"/>
</g>
<!-- Node5 -->
<g id="node5" class="node"><title>Node5</title>
<g id="a_node5"><a xlink:href="mutex__t___8h.html" target="_top" xlink:title=" ">
<polygon fill="white" stroke="black" points="191.5,-56.5 191.5,-75.5 348.5,-75.5 348.5,-56.5 191.5,-56.5"/>
<text text-anchor="middle" x="270" y="-63.5" font-family="Helvetica,sans-Serif" font-size="10.00">Cpl/System/RP2040/mutex_t_.h</text>
</a>
</g>
</g>
<!-- Node1&#45;&gt;Node5 -->
<g id="edge4" class="edge"><title>Node1&#45;&gt;Node5</title>
<path fill="none" stroke="midnightblue" d="M270,-101.805C270,-92.9102 270,-82.7798 270,-75.7511"/>
<polygon fill="midnightblue" stroke="midnightblue" points="266.5,-102.083 270,-112.083 273.5,-102.083 266.5,-102.083"/>
</g>
<!-- Node7 -->
<g id="node7" class="node"><title>Node7</title>
<g id="a_node7"><a xlink:href="semaphore__t___8h.html" target="_top" xlink:title=" ">
<polygon fill="white" stroke="black" points="367,-56.5 367,-75.5 545,-75.5 545,-56.5 367,-56.5"/>
<text text-anchor="middle" x="456" y="-63.5" font-family="Helvetica,sans-Serif" font-size="10.00">Cpl/System/RP2040/semaphore_t_.h</text>
</a>
</g>
</g>
<!-- Node1&#45;&gt;Node7 -->
<g id="edge6" class="edge"><title>Node1&#45;&gt;Node7</title>
<path fill="none" stroke="midnightblue" d="M309.378,-109.568C344.466,-99.381 395.021,-84.7034 426.666,-75.5164"/>
<polygon fill="midnightblue" stroke="midnightblue" points="308.1,-106.294 299.472,-112.444 310.052,-113.017 308.1,-106.294"/>
</g>
<!-- Node3 -->
<g id="node3" class="node"><title>Node3</title>
<g id="a_node3"><a xlink:href="_cpl_2_t_shell_2_maker_8h.html" target="_top" xlink:title=" ">
<polygon fill="white" stroke="black" points="0,-0.5 0,-19.5 100,-19.5 100,-0.5 0,-0.5"/>
<text text-anchor="middle" x="50" y="-7.5" font-family="Helvetica,sans-Serif" font-size="10.00">Cpl/TShell/Maker.h</text>
</a>
</g>
</g>
<!-- Node2&#45;&gt;Node3 -->
<g id="edge2" class="edge"><title>Node2&#45;&gt;Node3</title>
<path fill="none" stroke="midnightblue" d="M97.4463,-49.8197C85.6219,-40.1452 70.7144,-27.9481 60.797,-19.8339"/>
<polygon fill="midnightblue" stroke="midnightblue" points="95.44,-52.7004 105.396,-56.324 99.8727,-47.2827 95.44,-52.7004"/>
</g>
<!-- Node4 -->
<g id="node4" class="node"><title>Node4</title>
<g id="a_node4"><a xlink:href="_polled_maker_8h.html" target="_top" xlink:title=" ">
<polygon fill="white" stroke="black" points="118.5,-0.5 118.5,-19.5 245.5,-19.5 245.5,-0.5 118.5,-0.5"/>
<text text-anchor="middle" x="182" y="-7.5" font-family="Helvetica,sans-Serif" font-size="10.00">Cpl/TShell/PolledMaker.h</text>
</a>
</g>
</g>
<!-- Node2&#45;&gt;Node4 -->
<g id="edge3" class="edge"><title>Node2&#45;&gt;Node4</title>
<path fill="none" stroke="midnightblue" d="M134.554,-49.8197C146.378,-40.1452 161.286,-27.9481 171.203,-19.8339"/>
<polygon fill="midnightblue" stroke="midnightblue" points="132.127,-47.2827 126.604,-56.324 136.56,-52.7004 132.127,-47.2827"/>
</g>
<!-- Node6 -->
<g id="node6" class="node"><title>Node6</title>
<g id="a_node6"><a xlink:href="_cpl_2_system_2_r_p2040_2mappings___8h.html" target="_top" xlink:title="This file provides the mappings for Platform specific types, etc.">
<polygon fill="white" stroke="black" points="286,-0.5 286,-19.5 450,-19.5 450,-0.5 286,-0.5"/>
<text text-anchor="middle" x="368" y="-7.5" font-family="Helvetica,sans-Serif" font-size="10.00">Cpl/System/RP2040/mappings_.h</text>
</a>
</g>
</g>
<!-- Node5&#45;&gt;Node6 -->
<g id="edge5" class="edge"><title>Node5&#45;&gt;Node6</title>
<path fill="none" stroke="midnightblue" d="M294.586,-51.4526C312.678,-41.4835 336.735,-28.2279 352.294,-19.6545"/>
<polygon fill="midnightblue" stroke="midnightblue" points="292.815,-48.4324 285.745,-56.324 296.193,-54.5633 292.815,-48.4324"/>
</g>
<!-- Node7&#45;&gt;Node6 -->
<g id="edge7" class="edge"><title>Node7&#45;&gt;Node6</title>
<path fill="none" stroke="midnightblue" d="M433.023,-50.9005C416.887,-40.9986 395.819,-28.0705 382.104,-19.6545"/>
<polygon fill="midnightblue" stroke="midnightblue" points="431.507,-54.0769 441.861,-56.324 435.169,-48.1106 431.507,-54.0769"/>
</g>
</g>
</svg>
