<?xml version="1.0" encoding="UTF-8" standalone="no"?>
<!DOCTYPE svg PUBLIC "-//W3C//DTD SVG 1.1//EN"
 "http://www.w3.org/Graphics/SVG/1.1/DTD/svg11.dtd">
<!-- Generated by graphviz version 2.38.0 (20140413.2041)
 -->
<!-- Title: Cpl/System/RP2040/Thread.h Pages: 1 -->
<svg width="1008pt" height="420pt"
 viewBox="0.00 0.00 1007.50 420.00" xmlns="http://www.w3.org/2000/svg" xmlns:xlink="http://www.w3.org/1999/xlink">
<g id="graph0" class="graph" transform="scale(1 1) rotate(0) translate(4 416)">
<title>Cpl/System/RP2040/Thread.h</title>
<polygon fill="white" stroke="none" points="-4,4 -4,-416 1003.5,-416 1003.5,4 -4,4"/>
<!-- Node1 -->
<g id="node1" class="node"><title>Node1</title>
<g id="a_node1"><a xlink:title=" ">
<polygon fill="#bfbfbf" stroke="black" points="188,-392.5 188,-411.5 334,-411.5 334,-392.5 188,-392.5"/>
<text text-anchor="middle" x="261" y="-399.5" font-family="Helvetica,sans-Serif" font-size="10.00">Cpl/System/RP2040/Thread.h</text>
</a>
</g>
</g>
<!-- Node2 -->
<g id="node2" class="node"><title>Node2</title>
<g id="a_node2"><a xlink:title=" ">
<polygon fill="white" stroke="#bfbfbf" points="77.5,-0.5 77.5,-19.5 162.5,-19.5 162.5,-0.5 77.5,-0.5"/>
<text text-anchor="middle" x="120" y="-7.5" font-family="Helvetica,sans-Serif" font-size="10.00">colony_config.h</text>
</a>
</g>
</g>
<!-- Node1&#45;&gt;Node2 -->
<g id="edge1" class="edge"><title>Node1&#45;&gt;Node2</title>
<path fill="none" stroke="midnightblue" d="M187.95,-400.111C110.737,-394.843 0,-372.995 0,-291 0,-291 0,-291 0,-121 0,-73.0796 52.643,-40.3821 88.1941,-23.7644"/>
<polygon fill="midnightblue" stroke="midnightblue" points="90.013,-26.7849 97.7102,-19.5045 87.1529,-20.3959 90.013,-26.7849"/>
</g>
<!-- Node3 -->
<g id="node3" class="node"><title>Node3</title>
<g id="a_node3"><a xlink:href="_thread_8h.html" target="_top" xlink:title=" ">
<polygon fill="white" stroke="black" points="697.5,-336.5 697.5,-355.5 806.5,-355.5 806.5,-336.5 697.5,-336.5"/>
<text text-anchor="middle" x="752" y="-343.5" font-family="Helvetica,sans-Serif" font-size="10.00">Cpl/System/Thread.h</text>
</a>
</g>
</g>
<!-- Node1&#45;&gt;Node3 -->
<g id="edge2" class="edge"><title>Node1&#45;&gt;Node3</title>
<path fill="none" stroke="midnightblue" d="M334.242,-392.945C429.872,-382.428 595.794,-364.179 687.109,-354.137"/>
<polygon fill="midnightblue" stroke="midnightblue" points="687.769,-357.585 697.326,-353.013 687.003,-350.627 687.769,-357.585"/>
</g>
<!-- Node10 -->
<g id="node10" class="node"><title>Node10</title>
<g id="a_node10"><a xlink:href="_semaphore_8h.html" target="_top" xlink:title=" ">
<polygon fill="white" stroke="black" points="424,-336.5 424,-355.5 552,-355.5 552,-336.5 424,-336.5"/>
<text text-anchor="middle" x="488" y="-343.5" font-family="Helvetica,sans-Serif" font-size="10.00">Cpl/System/Semaphore.h</text>
</a>
</g>
</g>
<!-- Node1&#45;&gt;Node10 -->
<g id="edge9" class="edge"><title>Node1&#45;&gt;Node10</title>
<path fill="none" stroke="midnightblue" d="M296.969,-392.444C336.319,-383.083 399.487,-368.056 442.314,-357.868"/>
<polygon fill="midnightblue" stroke="midnightblue" points="443.281,-361.236 452.199,-355.516 441.661,-354.426 443.281,-361.236"/>
</g>
<!-- Node11 -->
<g id="node11" class="node"><title>Node11</title>
<g id="a_node11"><a xlink:href="_tls_8h.html" target="_top" xlink:title=" ">
<polygon fill="white" stroke="black" points="28,-112.5 28,-131.5 120,-131.5 120,-112.5 28,-112.5"/>
<text text-anchor="middle" x="74" y="-119.5" font-family="Helvetica,sans-Serif" font-size="10.00">Cpl/System/Tls.h</text>
</a>
</g>
</g>
<!-- Node1&#45;&gt;Node11 -->
<g id="edge12" class="edge"><title>Node1&#45;&gt;Node11</title>
<path fill="none" stroke="midnightblue" d="M217.478,-392.471C167.405,-379.833 92,-350.864 92,-291 92,-291 92,-291 92,-233 92,-200.537 84.2704,-163.384 78.9416,-141.628"/>
<polygon fill="midnightblue" stroke="midnightblue" points="82.2883,-140.587 76.4276,-131.76 75.5051,-142.315 82.2883,-140.587"/>
</g>
<!-- Node12 -->
<g id="node12" class="node"><title>Node12</title>
<g id="a_node12"><a xlink:href="_f_string_8h.html" target="_top" xlink:title=" ">
<polygon fill="white" stroke="black" points="213,-336.5 213,-355.5 309,-355.5 309,-336.5 213,-336.5"/>
<text text-anchor="middle" x="261" y="-343.5" font-family="Helvetica,sans-Serif" font-size="10.00">Cpl/Text/FString.h</text>
</a>
</g>
</g>
<!-- Node1&#45;&gt;Node12 -->
<g id="edge15" class="edge"><title>Node1&#45;&gt;Node12</title>
<path fill="none" stroke="midnightblue" d="M261,-392.083C261,-385.006 261,-374.861 261,-365.986"/>
<polygon fill="midnightblue" stroke="midnightblue" points="264.5,-365.751 261,-355.751 257.5,-365.751 264.5,-365.751"/>
</g>
<!-- Node4 -->
<g id="node4" class="node"><title>Node4</title>
<g id="a_node4"><a xlink:title=" ">
<polygon fill="white" stroke="#bfbfbf" points="383.5,-56.5 383.5,-75.5 460.5,-75.5 460.5,-56.5 383.5,-56.5"/>
<text text-anchor="middle" x="422" y="-63.5" font-family="Helvetica,sans-Serif" font-size="10.00">colony_map.h</text>
</a>
</g>
</g>
<!-- Node3&#45;&gt;Node4 -->
<g id="edge3" class="edge"><title>Node3&#45;&gt;Node4</title>
<path fill="none" stroke="midnightblue" d="M778.163,-336.494C796.036,-329.405 818.943,-317.596 833,-300 851.785,-276.484 852,-265.098 852,-235 852,-235 852,-235 852,-177 852,-99.0069 583.131,-75.5786 470.607,-69.1887"/>
<polygon fill="midnightblue" stroke="midnightblue" points="470.714,-65.6895 460.538,-68.6389 470.332,-72.6791 470.714,-65.6895"/>
</g>
<!-- Node5 -->
<g id="node5" class="node"><title>Node5</title>
<g id="a_node5"><a xlink:href="_runnable_8h.html" target="_top" xlink:title=" ">
<polygon fill="white" stroke="black" points="880.5,-280.5 880.5,-299.5 999.5,-299.5 999.5,-280.5 880.5,-280.5"/>
<text text-anchor="middle" x="940" y="-287.5" font-family="Helvetica,sans-Serif" font-size="10.00">Cpl/System/Runnable.h</text>
</a>
</g>
</g>
<!-- Node3&#45;&gt;Node5 -->
<g id="edge4" class="edge"><title>Node3&#45;&gt;Node5</title>
<path fill="none" stroke="midnightblue" d="M781.789,-336.444C813.829,-327.241 864.933,-312.562 900.353,-302.388"/>
<polygon fill="midnightblue" stroke="midnightblue" points="901.705,-305.641 910.35,-299.516 899.773,-298.913 901.705,-305.641"/>
</g>
<!-- Node6 -->
<g id="node6" class="node"><title>Node6</title>
<g id="a_node6"><a xlink:href="_signable_8h.html" target="_top" xlink:title=" ">
<polygon fill="white" stroke="black" points="516,-280.5 516,-299.5 632,-299.5 632,-280.5 516,-280.5"/>
<text text-anchor="middle" x="574" y="-287.5" font-family="Helvetica,sans-Serif" font-size="10.00">Cpl/System/Signable.h</text>
</a>
</g>
</g>
<!-- Node3&#45;&gt;Node6 -->
<g id="edge5" class="edge"><title>Node3&#45;&gt;Node6</title>
<path fill="none" stroke="midnightblue" d="M723.795,-336.444C693.59,-327.28 645.489,-312.688 611.971,-302.519"/>
<polygon fill="midnightblue" stroke="midnightblue" points="612.658,-299.07 602.073,-299.516 610.626,-305.769 612.658,-299.07"/>
</g>
<!-- Node8 -->
<g id="node8" class="node"><title>Node8</title>
<g id="a_node8"><a xlink:href="_traverser_8h.html" target="_top" xlink:title=" ">
<polygon fill="white" stroke="black" points="650,-280.5 650,-299.5 758,-299.5 758,-280.5 650,-280.5"/>
<text text-anchor="middle" x="704" y="-287.5" font-family="Helvetica,sans-Serif" font-size="10.00">Cpl/Type/Traverser.h</text>
</a>
</g>
</g>
<!-- Node3&#45;&gt;Node8 -->
<g id="edge7" class="edge"><title>Node3&#45;&gt;Node8</title>
<path fill="none" stroke="midnightblue" d="M744.074,-336.083C737.154,-328.298 726.935,-316.801 718.548,-307.367"/>
<polygon fill="midnightblue" stroke="midnightblue" points="721.038,-304.9 711.779,-299.751 715.806,-309.55 721.038,-304.9"/>
</g>
<!-- Node9 -->
<g id="node9" class="node"><title>Node9</title>
<g id="a_node9"><a xlink:title=" ">
<polygon fill="white" stroke="#bfbfbf" points="776,-280.5 776,-299.5 824,-299.5 824,-280.5 776,-280.5"/>
<text text-anchor="middle" x="800" y="-287.5" font-family="Helvetica,sans-Serif" font-size="10.00">stdlib.h</text>
</a>
</g>
</g>
<!-- Node3&#45;&gt;Node9 -->
<g id="edge8" class="edge"><title>Node3&#45;&gt;Node9</title>
<path fill="none" stroke="midnightblue" d="M759.926,-336.083C766.846,-328.298 777.065,-316.801 785.452,-307.367"/>
<polygon fill="midnightblue" stroke="midnightblue" points="788.194,-309.55 792.221,-299.751 782.962,-304.9 788.194,-309.55"/>
</g>
<!-- Node7 -->
<g id="node7" class="node"><title>Node7</title>
<g id="a_node7"><a xlink:href="_item_8h.html" target="_top" xlink:title=" ">
<polygon fill="white" stroke="black" points="521,-224.5 521,-243.5 627,-243.5 627,-224.5 521,-224.5"/>
<text text-anchor="middle" x="574" y="-231.5" font-family="Helvetica,sans-Serif" font-size="10.00">Cpl/Container/Item.h</text>
</a>
</g>
</g>
<!-- Node6&#45;&gt;Node7 -->
<g id="edge6" class="edge"><title>Node6&#45;&gt;Node7</title>
<path fill="none" stroke="midnightblue" d="M574,-280.083C574,-273.006 574,-262.861 574,-253.986"/>
<polygon fill="midnightblue" stroke="midnightblue" points="577.5,-253.751 574,-243.751 570.5,-253.751 577.5,-253.751"/>
</g>
<!-- Node10&#45;&gt;Node4 -->
<g id="edge10" class="edge"><title>Node10&#45;&gt;Node4</title>
<path fill="none" stroke="midnightblue" d="M488,-336.442C488,-317.936 488,-272.813 488,-235 488,-235 488,-235 488,-177 488,-146.902 484.623,-137.726 469,-112 462.016,-100.499 451.356,-89.9589 441.953,-81.975"/>
<polygon fill="midnightblue" stroke="midnightblue" points="444.115,-79.2217 434.138,-75.657 439.714,-84.6655 444.115,-79.2217"/>
</g>
<!-- Node10&#45;&gt;Node6 -->
<g id="edge11" class="edge"><title>Node10&#45;&gt;Node6</title>
<path fill="none" stroke="midnightblue" d="M501.817,-336.324C515.233,-327.9 535.824,-314.971 551.586,-305.074"/>
<polygon fill="midnightblue" stroke="midnightblue" points="553.609,-307.936 560.217,-299.655 549.887,-302.008 553.609,-307.936"/>
</g>
<!-- Node11&#45;&gt;Node2 -->
<g id="edge13" class="edge"><title>Node11&#45;&gt;Node2</title>
<path fill="none" stroke="midnightblue" d="M77.6095,-112.368C85.1001,-94.4563 102.468,-52.9233 112.494,-28.9482"/>
<polygon fill="midnightblue" stroke="midnightblue" points="115.778,-30.1676 116.407,-19.5914 109.32,-27.4669 115.778,-30.1676"/>
</g>
<!-- Node11&#45;&gt;Node4 -->
<g id="edge14" class="edge"><title>Node11&#45;&gt;Node4</title>
<path fill="none" stroke="midnightblue" d="M120.081,-114.62C177.085,-106.609 277.349,-92.1357 373.373,-76.0537"/>
<polygon fill="midnightblue" stroke="midnightblue" points="373.969,-79.5026 383.249,-74.3912 372.807,-72.5997 373.969,-79.5026"/>
</g>
<!-- Node13 -->
<g id="node13" class="node"><title>Node13</title>
<g id="a_node13"><a xlink:href="_f_string___8h.html" target="_top" xlink:title=" ">
<polygon fill="white" stroke="black" points="170.5,-280.5 170.5,-299.5 271.5,-299.5 271.5,-280.5 170.5,-280.5"/>
<text text-anchor="middle" x="221" y="-287.5" font-family="Helvetica,sans-Serif" font-size="10.00">Cpl/Text/FString_.h</text>
</a>
</g>
</g>
<!-- Node12&#45;&gt;Node13 -->
<g id="edge16" class="edge"><title>Node12&#45;&gt;Node13</title>
<path fill="none" stroke="midnightblue" d="M254.395,-336.083C248.745,-328.455 240.455,-317.264 233.549,-307.941"/>
<polygon fill="midnightblue" stroke="midnightblue" points="236.247,-305.703 227.482,-299.751 230.622,-309.87 236.247,-305.703"/>
</g>
<!-- Node15 -->
<g id="node15" class="node"><title>Node15</title>
<g id="a_node15"><a xlink:href="_string_8h.html" target="_top" xlink:title=" ">
<polygon fill="white" stroke="black" points="255,-168.5 255,-187.5 345,-187.5 345,-168.5 255,-168.5"/>
<text text-anchor="middle" x="300" y="-175.5" font-family="Helvetica,sans-Serif" font-size="10.00">Cpl/Text/String.h</text>
</a>
</g>
</g>
<!-- Node12&#45;&gt;Node15 -->
<g id="edge30" class="edge"><title>Node12&#45;&gt;Node15</title>
<path fill="none" stroke="midnightblue" d="M265.421,-336.26C269.75,-327.354 276.229,-313.034 280,-300 290.223,-264.671 295.756,-221.929 298.273,-197.863"/>
<polygon fill="midnightblue" stroke="midnightblue" points="301.781,-197.957 299.274,-187.663 294.814,-197.273 301.781,-197.957"/>
</g>
<!-- Node13&#45;&gt;Node2 -->
<g id="edge17" class="edge"><title>Node13&#45;&gt;Node2</title>
<path fill="none" stroke="midnightblue" d="M206.54,-280.435C194.299,-272.469 177.169,-259.514 167,-244 150.5,-218.828 148,-209.098 148,-179 148,-179 148,-179 148,-121 148,-87.7897 135.866,-50.6338 127.573,-29.1196"/>
<polygon fill="midnightblue" stroke="midnightblue" points="130.746,-27.6284 123.776,-19.649 124.249,-30.2333 130.746,-27.6284"/>
</g>
<!-- Node14 -->
<g id="node14" class="node"><title>Node14</title>
<g id="a_node14"><a xlink:href="_text_2_string___8h.html" target="_top" xlink:title=" ">
<polygon fill="white" stroke="black" points="176.5,-224.5 176.5,-243.5 271.5,-243.5 271.5,-224.5 176.5,-224.5"/>
<text text-anchor="middle" x="224" y="-231.5" font-family="Helvetica,sans-Serif" font-size="10.00">Cpl/Text/String_.h</text>
</a>
</g>
</g>
<!-- Node13&#45;&gt;Node14 -->
<g id="edge18" class="edge"><title>Node13&#45;&gt;Node14</title>
<path fill="none" stroke="midnightblue" d="M221.495,-280.083C221.889,-273.006 222.452,-262.861 222.945,-253.986"/>
<polygon fill="midnightblue" stroke="midnightblue" points="226.454,-253.93 223.514,-243.751 219.464,-253.542 226.454,-253.93"/>
</g>
<!-- Node14&#45;&gt;Node15 -->
<g id="edge19" class="edge"><title>Node14&#45;&gt;Node15</title>
<path fill="none" stroke="midnightblue" d="M236.211,-224.324C247.776,-216.107 265.375,-203.602 279.161,-193.807"/>
<polygon fill="midnightblue" stroke="midnightblue" points="281.443,-196.479 287.567,-187.834 277.388,-190.773 281.443,-196.479"/>
</g>
<!-- Node15&#45;&gt;Node4 -->
<g id="edge20" class="edge"><title>Node15&#45;&gt;Node4</title>
<path fill="none" stroke="midnightblue" d="M313.14,-168.337C325.862,-159.714 345.455,-145.81 361,-132 378.246,-116.679 396.09,-97.1622 407.988,-83.5303"/>
<polygon fill="midnightblue" stroke="midnightblue" points="410.693,-85.7532 414.57,-75.8931 405.39,-81.1834 410.693,-85.7532"/>
</g>
<!-- Node16 -->
<g id="node16" class="node"><title>Node16</title>
<g id="a_node16"><a xlink:href="_key_8h.html" target="_top" xlink:title=" ">
<polygon fill="white" stroke="black" points="248,-112.5 248,-131.5 352,-131.5 352,-112.5 248,-112.5"/>
<text text-anchor="middle" x="300" y="-119.5" font-family="Helvetica,sans-Serif" font-size="10.00">Cpl/Container/Key.h</text>
</a>
</g>
</g>
<!-- Node15&#45;&gt;Node16 -->
<g id="edge21" class="edge"><title>Node15&#45;&gt;Node16</title>
<path fill="none" stroke="midnightblue" d="M294.834,-168.083C293.324,-160.927 292.894,-150.635 293.542,-141.691"/>
<polygon fill="midnightblue" stroke="midnightblue" points="297.015,-142.126 294.869,-131.751 290.077,-141.2 297.015,-142.126"/>
</g>
<!-- Node20 -->
<g id="node20" class="node"><title>Node20</title>
<g id="a_node20"><a xlink:title=" ">
<polygon fill="white" stroke="#bfbfbf" points="408,-112.5 408,-131.5 460,-131.5 460,-112.5 408,-112.5"/>
<text text-anchor="middle" x="434" y="-119.5" font-family="Helvetica,sans-Serif" font-size="10.00">stdarg.h</text>
</a>
</g>
</g>
<!-- Node15&#45;&gt;Node20 -->
<g id="edge28" class="edge"><title>Node15&#45;&gt;Node20</title>
<path fill="none" stroke="midnightblue" d="M321.233,-168.444C343.384,-159.517 378.319,-145.439 403.436,-135.317"/>
<polygon fill="midnightblue" stroke="midnightblue" points="404.9,-138.501 412.867,-131.516 402.283,-132.008 404.9,-138.501"/>
</g>
<!-- Node21 -->
<g id="node21" class="node"><title>Node21</title>
<g id="a_node21"><a xlink:title=" ">
<polygon fill="white" stroke="#bfbfbf" points="176,-112.5 176,-131.5 230,-131.5 230,-112.5 176,-112.5"/>
<text text-anchor="middle" x="203" y="-119.5" font-family="Helvetica,sans-Serif" font-size="10.00">iostream</text>
</a>
</g>
</g>
<!-- Node15&#45;&gt;Node21 -->
<g id="edge29" class="edge"><title>Node15&#45;&gt;Node21</title>
<path fill="none" stroke="midnightblue" d="M284.415,-168.324C269.001,-159.743 245.188,-146.486 227.29,-136.522"/>
<polygon fill="midnightblue" stroke="midnightblue" points="228.986,-133.461 218.546,-131.655 225.581,-139.577 228.986,-133.461"/>
</g>
<!-- Node16&#45;&gt;Node4 -->
<g id="edge27" class="edge"><title>Node16&#45;&gt;Node4</title>
<path fill="none" stroke="midnightblue" d="M319.331,-112.444C339.32,-103.596 370.743,-89.6875 393.564,-79.5865"/>
<polygon fill="midnightblue" stroke="midnightblue" points="395.032,-82.7645 402.759,-75.5164 392.198,-76.3635 395.032,-82.7645"/>
</g>
<!-- Node16&#45;&gt;Node15 -->
<g id="edge26" class="edge"><title>Node16&#45;&gt;Node15</title>
<path fill="none" stroke="midnightblue" d="M305.131,-131.751C306.657,-138.858 307.104,-149.136 306.472,-158.101"/>
<polygon fill="midnightblue" stroke="midnightblue" points="302.993,-157.713 305.166,-168.083 309.934,-158.622 302.993,-157.713"/>
</g>
<!-- Node17 -->
<g id="node17" class="node"><title>Node17</title>
<g id="a_node17"><a xlink:href="_fatal_error_8h.html" target="_top" xlink:title=" ">
<polygon fill="white" stroke="black" points="176,-56.5 176,-75.5 298,-75.5 298,-56.5 176,-56.5"/>
<text text-anchor="middle" x="237" y="-63.5" font-family="Helvetica,sans-Serif" font-size="10.00">Cpl/System/FatalError.h</text>
</a>
</g>
</g>
<!-- Node16&#45;&gt;Node17 -->
<g id="edge22" class="edge"><title>Node16&#45;&gt;Node17</title>
<path fill="none" stroke="midnightblue" d="M289.878,-112.324C280.474,-104.263 266.256,-92.0765 254.931,-82.3695"/>
<polygon fill="midnightblue" stroke="midnightblue" points="257.177,-79.6844 247.306,-75.8339 252.621,-84.9993 257.177,-79.6844"/>
</g>
<!-- Node19 -->
<g id="node19" class="node"><title>Node19</title>
<g id="a_node19"><a xlink:title=" ">
<polygon fill="white" stroke="#bfbfbf" points="316.5,-56.5 316.5,-75.5 365.5,-75.5 365.5,-56.5 316.5,-56.5"/>
<text text-anchor="middle" x="341" y="-63.5" font-family="Helvetica,sans-Serif" font-size="10.00">stdint.h</text>
</a>
</g>
</g>
<!-- Node16&#45;&gt;Node19 -->
<g id="edge25" class="edge"><title>Node16&#45;&gt;Node19</title>
<path fill="none" stroke="midnightblue" d="M306.77,-112.083C312.562,-104.455 321.058,-93.2645 328.138,-83.9408"/>
<polygon fill="midnightblue" stroke="midnightblue" points="331.096,-85.8321 334.356,-75.7511 325.521,-81.5991 331.096,-85.8321"/>
</g>
<!-- Node17&#45;&gt;Node2 -->
<g id="edge24" class="edge"><title>Node17&#45;&gt;Node2</title>
<path fill="none" stroke="midnightblue" d="M218.461,-56.4435C199.377,-47.6356 169.425,-33.8116 147.564,-23.722"/>
<polygon fill="midnightblue" stroke="midnightblue" points="148.999,-20.5292 138.452,-19.5164 146.065,-26.8849 148.999,-20.5292"/>
</g>
<!-- Node18 -->
<g id="node18" class="node"><title>Node18</title>
<g id="a_node18"><a xlink:title=" ">
<polygon fill="white" stroke="#bfbfbf" points="211,-0.5 211,-19.5 263,-19.5 263,-0.5 211,-0.5"/>
<text text-anchor="middle" x="237" y="-7.5" font-family="Helvetica,sans-Serif" font-size="10.00">stddef.h</text>
</a>
</g>
</g>
<!-- Node17&#45;&gt;Node18 -->
<g id="edge23" class="edge"><title>Node17&#45;&gt;Node18</title>
<path fill="none" stroke="midnightblue" d="M237,-56.083C237,-49.0059 237,-38.8611 237,-29.9865"/>
<polygon fill="midnightblue" stroke="midnightblue" points="240.5,-29.751 237,-19.7511 233.5,-29.7511 240.5,-29.751"/>
</g>
</g>
</svg>
