<?xml version="1.0" encoding="UTF-8" standalone="no"?>
<!DOCTYPE svg PUBLIC "-//W3C//DTD SVG 1.1//EN"
 "http://www.w3.org/Graphics/SVG/1.1/DTD/svg11.dtd">
<!-- Generated by graphviz version 2.38.0 (20140413.2041)
 -->
<!-- Title: Cpl/System/RP2040/mappings_.h Pages: 1 -->
<svg width="680pt" height="196pt"
 viewBox="0.00 0.00 680.00 196.00" xmlns="http://www.w3.org/2000/svg" xmlns:xlink="http://www.w3.org/1999/xlink">
<g id="graph0" class="graph" transform="scale(1 1) rotate(0) translate(4 192)">
<title>Cpl/System/RP2040/mappings_.h</title>
<polygon fill="white" stroke="none" points="-4,4 -4,-192 676,-192 676,4 -4,4"/>
<!-- Node1 -->
<g id="node1" class="node"><title>Node1</title>
<g id="a_node1"><a xlink:title="This file provides the mappings for Platform specific types, etc.">
<polygon fill="#bfbfbf" stroke="black" points="105.5,-168.5 105.5,-187.5 269.5,-187.5 269.5,-168.5 105.5,-168.5"/>
<text text-anchor="middle" x="187.5" y="-175.5" font-family="Helvetica,sans-Serif" font-size="10.00">Cpl/System/RP2040/mappings_.h</text>
</a>
</g>
</g>
<!-- Node2 -->
<g id="node2" class="node"><title>Node2</title>
<g id="a_node2"><a xlink:title=" ">
<polygon fill="white" stroke="#bfbfbf" points="0,-112.5 0,-131.5 49,-131.5 49,-112.5 0,-112.5"/>
<text text-anchor="middle" x="24.5" y="-119.5" font-family="Helvetica,sans-Serif" font-size="10.00">stdint.h</text>
</a>
</g>
</g>
<!-- Node1&#45;&gt;Node2 -->
<g id="edge1" class="edge"><title>Node1&#45;&gt;Node2</title>
<path fill="none" stroke="midnightblue" d="M161.672,-168.444C133.928,-159.252 89.6961,-144.599 58.9911,-134.426"/>
<polygon fill="midnightblue" stroke="midnightblue" points="59.7334,-130.985 49.14,-131.163 57.5319,-137.63 59.7334,-130.985"/>
</g>
<!-- Node3 -->
<g id="node3" class="node"><title>Node3</title>
<g id="a_node3"><a xlink:title=" ">
<polygon fill="white" stroke="#bfbfbf" points="67.5,-112.5 67.5,-131.5 115.5,-131.5 115.5,-112.5 67.5,-112.5"/>
<text text-anchor="middle" x="91.5" y="-119.5" font-family="Helvetica,sans-Serif" font-size="10.00">stdlib.h</text>
</a>
</g>
</g>
<!-- Node1&#45;&gt;Node3 -->
<g id="edge2" class="edge"><title>Node1&#45;&gt;Node3</title>
<path fill="none" stroke="midnightblue" d="M172.076,-168.324C156.96,-159.822 133.685,-146.729 116.029,-136.797"/>
<polygon fill="midnightblue" stroke="midnightblue" points="117.317,-133.507 106.886,-131.655 113.886,-139.608 117.317,-133.507"/>
</g>
<!-- Node4 -->
<g id="node4" class="node"><title>Node4</title>
<g id="a_node4"><a xlink:title=" ">
<polygon fill="white" stroke="#bfbfbf" points="102,-56.5 102,-75.5 187,-75.5 187,-56.5 102,-56.5"/>
<text text-anchor="middle" x="144.5" y="-63.5" font-family="Helvetica,sans-Serif" font-size="10.00">colony_config.h</text>
</a>
</g>
</g>
<!-- Node1&#45;&gt;Node4 -->
<g id="edge3" class="edge"><title>Node1&#45;&gt;Node4</title>
<path fill="none" stroke="midnightblue" d="M181.876,-168.344C176.329,-159.503 167.918,-145.233 162.5,-132 156.261,-116.762 151.445,-98.6509 148.371,-85.4217"/>
<polygon fill="midnightblue" stroke="midnightblue" points="151.782,-84.6363 146.206,-75.6276 144.947,-86.1473 151.782,-84.6363"/>
</g>
<!-- Node5 -->
<g id="node5" class="node"><title>Node5</title>
<g id="a_node5"><a xlink:href="_fatal_error_8h.html" target="_top" xlink:title=" ">
<polygon fill="white" stroke="black" points="171.5,-112.5 171.5,-131.5 293.5,-131.5 293.5,-112.5 171.5,-112.5"/>
<text text-anchor="middle" x="232.5" y="-119.5" font-family="Helvetica,sans-Serif" font-size="10.00">Cpl/System/FatalError.h</text>
</a>
</g>
</g>
<!-- Node1&#45;&gt;Node5 -->
<g id="edge4" class="edge"><title>Node1&#45;&gt;Node5</title>
<path fill="none" stroke="midnightblue" d="M194.931,-168.083C201.353,-160.377 210.806,-149.033 218.622,-139.653"/>
<polygon fill="midnightblue" stroke="midnightblue" points="221.494,-141.674 225.207,-131.751 216.117,-137.193 221.494,-141.674"/>
</g>
<!-- Node7 -->
<g id="node7" class="node"><title>Node7</title>
<g id="a_node7"><a xlink:href="mutex__t___8h.html" target="_top" xlink:title=" ">
<polygon fill="white" stroke="black" points="508,-112.5 508,-131.5 665,-131.5 665,-112.5 508,-112.5"/>
<text text-anchor="middle" x="586.5" y="-119.5" font-family="Helvetica,sans-Serif" font-size="10.00">Cpl/System/RP2040/mutex_t_.h</text>
</a>
</g>
</g>
<!-- Node1&#45;&gt;Node7 -->
<g id="edge7" class="edge"><title>Node1&#45;&gt;Node7</title>
<path fill="none" stroke="midnightblue" d="M250.723,-168.444C322.078,-158.786 437.988,-143.099 513.234,-132.916"/>
<polygon fill="midnightblue" stroke="midnightblue" points="514.133,-136.326 523.573,-131.516 513.194,-129.389 514.133,-136.326"/>
</g>
<!-- Node12 -->
<g id="node12" class="node"><title>Node12</title>
<g id="a_node12"><a xlink:href="semaphore__t___8h.html" target="_top" xlink:title=" ">
<polygon fill="white" stroke="black" points="311.5,-112.5 311.5,-131.5 489.5,-131.5 489.5,-112.5 311.5,-112.5"/>
<text text-anchor="middle" x="400.5" y="-119.5" font-family="Helvetica,sans-Serif" font-size="10.00">Cpl/System/RP2040/semaphore_t_.h</text>
</a>
</g>
</g>
<!-- Node1&#45;&gt;Node12 -->
<g id="edge12" class="edge"><title>Node1&#45;&gt;Node12</title>
<path fill="none" stroke="midnightblue" d="M221.25,-168.444C258.018,-159.122 316.946,-144.183 357.122,-133.997"/>
<polygon fill="midnightblue" stroke="midnightblue" points="358.074,-137.367 366.907,-131.516 356.354,-130.581 358.074,-137.367"/>
</g>
<!-- Node5&#45;&gt;Node4 -->
<g id="edge6" class="edge"><title>Node5&#45;&gt;Node4</title>
<path fill="none" stroke="midnightblue" d="M218.361,-112.324C204.634,-103.9 183.564,-90.9709 167.436,-81.0741"/>
<polygon fill="midnightblue" stroke="midnightblue" points="168.957,-77.9016 158.604,-75.6545 165.296,-83.8678 168.957,-77.9016"/>
</g>
<!-- Node6 -->
<g id="node6" class="node"><title>Node6</title>
<g id="a_node6"><a xlink:title=" ">
<polygon fill="white" stroke="#bfbfbf" points="206.5,-56.5 206.5,-75.5 258.5,-75.5 258.5,-56.5 206.5,-56.5"/>
<text text-anchor="middle" x="232.5" y="-63.5" font-family="Helvetica,sans-Serif" font-size="10.00">stddef.h</text>
</a>
</g>
</g>
<!-- Node5&#45;&gt;Node6 -->
<g id="edge5" class="edge"><title>Node5&#45;&gt;Node6</title>
<path fill="none" stroke="midnightblue" d="M232.5,-112.083C232.5,-105.006 232.5,-94.8611 232.5,-85.9865"/>
<polygon fill="midnightblue" stroke="midnightblue" points="236,-85.751 232.5,-75.7511 229,-85.7511 236,-85.751"/>
</g>
<!-- Node8 -->
<g id="node8" class="node"><title>Node8</title>
<g id="a_node8"><a xlink:href="_private_startup___8h.html" target="_top" xlink:title="This file contains a collection of classes, interfaces, etc.">
<polygon fill="white" stroke="black" points="382.5,-56.5 382.5,-75.5 528.5,-75.5 528.5,-56.5 382.5,-56.5"/>
<text text-anchor="middle" x="455.5" y="-63.5" font-family="Helvetica,sans-Serif" font-size="10.00">Cpl/System/PrivateStartup_.h</text>
</a>
</g>
</g>
<!-- Node7&#45;&gt;Node8 -->
<g id="edge8" class="edge"><title>Node7&#45;&gt;Node8</title>
<path fill="none" stroke="midnightblue" d="M565.743,-112.444C544.184,-103.557 510.237,-89.5632 485.706,-79.4514"/>
<polygon fill="midnightblue" stroke="midnightblue" points="486.739,-76.0917 476.16,-75.5164 484.072,-82.5634 486.739,-76.0917"/>
</g>
<!-- Node10 -->
<g id="node10" class="node"><title>Node10</title>
<g id="a_node10"><a xlink:title=" ">
<polygon fill="white" stroke="#bfbfbf" points="599,-56.5 599,-75.5 672,-75.5 672,-56.5 599,-56.5"/>
<text text-anchor="middle" x="635.5" y="-63.5" font-family="Helvetica,sans-Serif" font-size="10.00">pico/mutex.h</text>
</a>
</g>
</g>
<!-- Node7&#45;&gt;Node10 -->
<g id="edge10" class="edge"><title>Node7&#45;&gt;Node10</title>
<path fill="none" stroke="midnightblue" d="M594.591,-112.083C601.655,-104.298 612.088,-92.8015 620.649,-83.3665"/>
<polygon fill="midnightblue" stroke="midnightblue" points="623.431,-85.5087 627.559,-75.7511 618.247,-80.8047 623.431,-85.5087"/>
</g>
<!-- Node11 -->
<g id="node11" class="node"><title>Node11</title>
<g id="a_node11"><a xlink:title=" ">
<polygon fill="white" stroke="#bfbfbf" points="546.5,-56.5 546.5,-75.5 580.5,-75.5 580.5,-56.5 546.5,-56.5"/>
<text text-anchor="middle" x="563.5" y="-63.5" font-family="Helvetica,sans-Serif" font-size="10.00">new</text>
</a>
</g>
</g>
<!-- Node7&#45;&gt;Node11 -->
<g id="edge11" class="edge"><title>Node7&#45;&gt;Node11</title>
<path fill="none" stroke="midnightblue" d="M582.702,-112.083C579.587,-104.77 575.077,-94.1814 571.211,-85.1034"/>
<polygon fill="midnightblue" stroke="midnightblue" points="574.366,-83.5798 567.227,-75.7511 567.926,-86.3229 574.366,-83.5798"/>
</g>
<!-- Node9 -->
<g id="node9" class="node"><title>Node9</title>
<g id="a_node9"><a xlink:href="_item_8h.html" target="_top" xlink:title=" ">
<polygon fill="white" stroke="black" points="402.5,-0.5 402.5,-19.5 508.5,-19.5 508.5,-0.5 402.5,-0.5"/>
<text text-anchor="middle" x="455.5" y="-7.5" font-family="Helvetica,sans-Serif" font-size="10.00">Cpl/Container/Item.h</text>
</a>
</g>
</g>
<!-- Node8&#45;&gt;Node9 -->
<g id="edge9" class="edge"><title>Node8&#45;&gt;Node9</title>
<path fill="none" stroke="midnightblue" d="M455.5,-56.083C455.5,-49.0059 455.5,-38.8611 455.5,-29.9865"/>
<polygon fill="midnightblue" stroke="midnightblue" points="459,-29.751 455.5,-19.7511 452,-29.7511 459,-29.751"/>
</g>
<!-- Node12&#45;&gt;Node8 -->
<g id="edge13" class="edge"><title>Node12&#45;&gt;Node8</title>
<path fill="none" stroke="midnightblue" d="M409.582,-112.083C417.671,-104.141 429.695,-92.3354 439.41,-82.7973"/>
<polygon fill="midnightblue" stroke="midnightblue" points="441.903,-85.2545 446.587,-75.7511 436.999,-80.2595 441.903,-85.2545"/>
</g>
<!-- Node12&#45;&gt;Node11 -->
<g id="edge15" class="edge"><title>Node12&#45;&gt;Node11</title>
<path fill="none" stroke="midnightblue" d="M426.805,-112.497C452.529,-104.151 493.045,-90.9285 536.777,-76.2082"/>
<polygon fill="midnightblue" stroke="midnightblue" points="538.094,-79.4577 546.451,-72.945 535.857,-72.8249 538.094,-79.4577"/>
</g>
<!-- Node13 -->
<g id="node13" class="node"><title>Node13</title>
<g id="a_node13"><a xlink:title=" ">
<polygon fill="white" stroke="#bfbfbf" points="299,-56.5 299,-75.5 364,-75.5 364,-56.5 299,-56.5"/>
<text text-anchor="middle" x="331.5" y="-63.5" font-family="Helvetica,sans-Serif" font-size="10.00">pico/sem.h</text>
</a>
</g>
</g>
<!-- Node12&#45;&gt;Node13 -->
<g id="edge14" class="edge"><title>Node12&#45;&gt;Node13</title>
<path fill="none" stroke="midnightblue" d="M389.414,-112.324C379.014,-104.185 363.239,-91.8395 350.778,-82.0874"/>
<polygon fill="midnightblue" stroke="midnightblue" points="352.82,-79.2407 342.788,-75.8339 348.506,-84.7533 352.82,-79.2407"/>
</g>
</g>
</svg>
