<?xml version="1.0" encoding="UTF-8" standalone="no"?>
<!DOCTYPE svg PUBLIC "-//W3C//DTD SVG 1.1//EN"
 "http://www.w3.org/Graphics/SVG/1.1/DTD/svg11.dtd">
<!-- Generated by graphviz version 2.38.0 (20140413.2041)
 -->
<!-- Title: Cpl/Io/Ram/InputOutput.h Pages: 1 -->
<svg width="625pt" height="364pt"
 viewBox="0.00 0.00 625.00 364.00" xmlns="http://www.w3.org/2000/svg" xmlns:xlink="http://www.w3.org/1999/xlink">
<g id="graph0" class="graph" transform="scale(1 1) rotate(0) translate(4 360)">
<title>Cpl/Io/Ram/InputOutput.h</title>
<polygon fill="white" stroke="none" points="-4,4 -4,-360 621,-360 621,4 -4,4"/>
<!-- Node1 -->
<g id="node1" class="node"><title>Node1</title>
<g id="a_node1"><a xlink:title=" ">
<polygon fill="#bfbfbf" stroke="black" points="269,-336.5 269,-355.5 397,-355.5 397,-336.5 269,-336.5"/>
<text text-anchor="middle" x="333" y="-343.5" font-family="Helvetica,sans-Serif" font-size="10.00">Cpl/Io/Ram/InputOutput.h</text>
</a>
</g>
</g>
<!-- Node2 -->
<g id="node2" class="node"><title>Node2</title>
<g id="a_node2"><a xlink:href="_input_output_8h.html" target="_top" xlink:title=" ">
<polygon fill="white" stroke="black" points="219,-280.5 219,-299.5 323,-299.5 323,-280.5 219,-280.5"/>
<text text-anchor="middle" x="271" y="-287.5" font-family="Helvetica,sans-Serif" font-size="10.00">Cpl/Io/InputOutput.h</text>
</a>
</g>
</g>
<!-- Node1&#45;&gt;Node2 -->
<g id="edge1" class="edge"><title>Node1&#45;&gt;Node2</title>
<path fill="none" stroke="midnightblue" d="M323.039,-336.324C313.873,-328.341 300.063,-316.313 288.972,-306.653"/>
<polygon fill="midnightblue" stroke="midnightblue" points="290.982,-303.762 281.143,-299.834 286.385,-309.041 290.982,-303.762"/>
</g>
<!-- Node17 -->
<g id="node17" class="node"><title>Node17</title>
<g id="a_node17"><a xlink:href="_ring_buffer_8h.html" target="_top" xlink:title=" ">
<polygon fill="white" stroke="black" points="0,-280.5 0,-299.5 132,-299.5 132,-280.5 0,-280.5"/>
<text text-anchor="middle" x="66" y="-287.5" font-family="Helvetica,sans-Serif" font-size="10.00">Cpl/Container/RingBuffer.h</text>
</a>
</g>
</g>
<!-- Node1&#45;&gt;Node17 -->
<g id="edge22" class="edge"><title>Node1&#45;&gt;Node17</title>
<path fill="none" stroke="midnightblue" d="M290.693,-336.444C243.92,-326.984 168.54,-311.738 118.15,-301.547"/>
<polygon fill="midnightblue" stroke="midnightblue" points="118.604,-298.068 108.109,-299.516 117.217,-304.929 118.604,-298.068"/>
</g>
<!-- Node18 -->
<g id="node18" class="node"><title>Node18</title>
<g id="a_node18"><a xlink:href="_semaphore_8h.html" target="_top" xlink:title=" ">
<polygon fill="white" stroke="black" points="398,-224.5 398,-243.5 526,-243.5 526,-224.5 398,-224.5"/>
<text text-anchor="middle" x="462" y="-231.5" font-family="Helvetica,sans-Serif" font-size="10.00">Cpl/System/Semaphore.h</text>
</a>
</g>
</g>
<!-- Node1&#45;&gt;Node18 -->
<g id="edge24" class="edge"><title>Node1&#45;&gt;Node18</title>
<path fill="none" stroke="midnightblue" d="M343.122,-336.368C364.976,-317.733 416.812,-273.532 444.252,-250.134"/>
<polygon fill="midnightblue" stroke="midnightblue" points="446.586,-252.743 451.925,-243.591 442.044,-247.417 446.586,-252.743"/>
</g>
<!-- Node20 -->
<g id="node20" class="node"><title>Node20</title>
<g id="a_node20"><a xlink:href="_mutex_8h.html" target="_top" xlink:title=" ">
<polygon fill="white" stroke="black" points="511,-280.5 511,-299.5 617,-299.5 617,-280.5 511,-280.5"/>
<text text-anchor="middle" x="564" y="-287.5" font-family="Helvetica,sans-Serif" font-size="10.00">Cpl/System/Mutex.h</text>
</a>
</g>
</g>
<!-- Node1&#45;&gt;Node20 -->
<g id="edge28" class="edge"><title>Node1&#45;&gt;Node20</title>
<path fill="none" stroke="midnightblue" d="M369.603,-336.444C409.731,-327.063 474.198,-311.993 517.785,-301.804"/>
<polygon fill="midnightblue" stroke="midnightblue" points="518.628,-305.201 527.569,-299.516 517.034,-298.385 518.628,-305.201"/>
</g>
<!-- Node3 -->
<g id="node3" class="node"><title>Node3</title>
<g id="a_node3"><a xlink:href="_input_8h.html" target="_top" xlink:title=" ">
<polygon fill="white" stroke="black" points="233.5,-224.5 233.5,-243.5 308.5,-243.5 308.5,-224.5 233.5,-224.5"/>
<text text-anchor="middle" x="271" y="-231.5" font-family="Helvetica,sans-Serif" font-size="10.00">Cpl/Io/Input.h</text>
</a>
</g>
</g>
<!-- Node2&#45;&gt;Node3 -->
<g id="edge2" class="edge"><title>Node2&#45;&gt;Node3</title>
<path fill="none" stroke="midnightblue" d="M271,-280.083C271,-273.006 271,-262.861 271,-253.986"/>
<polygon fill="midnightblue" stroke="midnightblue" points="274.5,-253.751 271,-243.751 267.5,-253.751 274.5,-253.751"/>
</g>
<!-- Node16 -->
<g id="node16" class="node"><title>Node16</title>
<g id="a_node16"><a xlink:href="_output_8h.html" target="_top" xlink:title=" ">
<polygon fill="white" stroke="black" points="132.5,-224.5 132.5,-243.5 215.5,-243.5 215.5,-224.5 132.5,-224.5"/>
<text text-anchor="middle" x="174" y="-231.5" font-family="Helvetica,sans-Serif" font-size="10.00">Cpl/Io/Output.h</text>
</a>
</g>
</g>
<!-- Node2&#45;&gt;Node16 -->
<g id="edge17" class="edge"><title>Node2&#45;&gt;Node16</title>
<path fill="none" stroke="midnightblue" d="M255.415,-280.324C240.001,-271.743 216.188,-258.486 198.29,-248.522"/>
<polygon fill="midnightblue" stroke="midnightblue" points="199.986,-245.461 189.546,-243.655 196.581,-251.577 199.986,-245.461"/>
</g>
<!-- Node4 -->
<g id="node4" class="node"><title>Node4</title>
<g id="a_node4"><a xlink:href="_string_8h.html" target="_top" xlink:title=" ">
<polygon fill="white" stroke="black" points="102,-168.5 102,-187.5 192,-187.5 192,-168.5 102,-168.5"/>
<text text-anchor="middle" x="147" y="-175.5" font-family="Helvetica,sans-Serif" font-size="10.00">Cpl/Text/String.h</text>
</a>
</g>
</g>
<!-- Node3&#45;&gt;Node4 -->
<g id="edge3" class="edge"><title>Node3&#45;&gt;Node4</title>
<path fill="none" stroke="midnightblue" d="M251.352,-224.444C231.035,-215.596 199.097,-201.687 175.902,-191.586"/>
<polygon fill="midnightblue" stroke="midnightblue" points="177.122,-188.3 166.556,-187.516 174.327,-194.718 177.122,-188.3"/>
</g>
<!-- Node13 -->
<g id="node13" class="node"><title>Node13</title>
<g id="a_node13"><a xlink:href="_close_8h.html" target="_top" xlink:title=" ">
<polygon fill="white" stroke="black" points="210,-168.5 210,-187.5 288,-187.5 288,-168.5 210,-168.5"/>
<text text-anchor="middle" x="249" y="-175.5" font-family="Helvetica,sans-Serif" font-size="10.00">Cpl/Io/Close.h</text>
</a>
</g>
</g>
<!-- Node3&#45;&gt;Node13 -->
<g id="edge14" class="edge"><title>Node3&#45;&gt;Node13</title>
<path fill="none" stroke="midnightblue" d="M267.367,-224.083C264.388,-216.77 260.074,-206.181 256.375,-197.103"/>
<polygon fill="midnightblue" stroke="midnightblue" points="259.58,-195.691 252.565,-187.751 253.097,-198.333 259.58,-195.691"/>
</g>
<!-- Node15 -->
<g id="node15" class="node"><title>Node15</title>
<g id="a_node15"><a xlink:href="_is_eos_8h.html" target="_top" xlink:title=" ">
<polygon fill="white" stroke="black" points="306.5,-168.5 306.5,-187.5 385.5,-187.5 385.5,-168.5 306.5,-168.5"/>
<text text-anchor="middle" x="346" y="-175.5" font-family="Helvetica,sans-Serif" font-size="10.00">Cpl/Io/IsEos.h</text>
</a>
</g>
</g>
<!-- Node3&#45;&gt;Node15 -->
<g id="edge16" class="edge"><title>Node3&#45;&gt;Node15</title>
<path fill="none" stroke="midnightblue" d="M283.05,-224.324C294.463,-216.107 311.831,-203.602 325.435,-193.807"/>
<polygon fill="midnightblue" stroke="midnightblue" points="327.66,-196.517 333.731,-187.834 323.57,-190.837 327.66,-196.517"/>
</g>
<!-- Node5 -->
<g id="node5" class="node"><title>Node5</title>
<g id="a_node5"><a xlink:title=" ">
<polygon fill="white" stroke="#bfbfbf" points="410.5,-56.5 410.5,-75.5 487.5,-75.5 487.5,-56.5 410.5,-56.5"/>
<text text-anchor="middle" x="449" y="-63.5" font-family="Helvetica,sans-Serif" font-size="10.00">colony_map.h</text>
</a>
</g>
</g>
<!-- Node4&#45;&gt;Node5 -->
<g id="edge4" class="edge"><title>Node4&#45;&gt;Node5</title>
<path fill="none" stroke="midnightblue" d="M181.829,-168.427C213.738,-160.227 262.088,-146.927 303,-132 345.855,-116.364 393.885,-94.0015 422.766,-80.0018"/>
<polygon fill="midnightblue" stroke="midnightblue" points="424.34,-83.1283 431.791,-75.5965 421.269,-76.8377 424.34,-83.1283"/>
</g>
<!-- Node6 -->
<g id="node6" class="node"><title>Node6</title>
<g id="a_node6"><a xlink:href="_key_8h.html" target="_top" xlink:title=" ">
<polygon fill="white" stroke="black" points="118,-112.5 118,-131.5 222,-131.5 222,-112.5 118,-112.5"/>
<text text-anchor="middle" x="170" y="-119.5" font-family="Helvetica,sans-Serif" font-size="10.00">Cpl/Container/Key.h</text>
</a>
</g>
</g>
<!-- Node4&#45;&gt;Node6 -->
<g id="edge5" class="edge"><title>Node4&#45;&gt;Node6</title>
<path fill="none" stroke="midnightblue" d="M145.632,-168.083C147.238,-160.613 151.475,-149.724 156.172,-140.52"/>
<polygon fill="midnightblue" stroke="midnightblue" points="159.256,-142.177 161.142,-131.751 153.166,-138.725 159.256,-142.177"/>
</g>
<!-- Node11 -->
<g id="node11" class="node"><title>Node11</title>
<g id="a_node11"><a xlink:title=" ">
<polygon fill="white" stroke="#bfbfbf" points="48,-112.5 48,-131.5 100,-131.5 100,-112.5 48,-112.5"/>
<text text-anchor="middle" x="74" y="-119.5" font-family="Helvetica,sans-Serif" font-size="10.00">stdarg.h</text>
</a>
</g>
</g>
<!-- Node4&#45;&gt;Node11 -->
<g id="edge12" class="edge"><title>Node4&#45;&gt;Node11</title>
<path fill="none" stroke="midnightblue" d="M135.271,-168.324C124.163,-160.107 107.258,-147.602 94.0167,-137.807"/>
<polygon fill="midnightblue" stroke="midnightblue" points="96.0631,-134.967 85.9421,-131.834 91.9001,-140.595 96.0631,-134.967"/>
</g>
<!-- Node12 -->
<g id="node12" class="node"><title>Node12</title>
<g id="a_node12"><a xlink:title=" ">
<polygon fill="white" stroke="#bfbfbf" points="240,-112.5 240,-131.5 294,-131.5 294,-112.5 240,-112.5"/>
<text text-anchor="middle" x="267" y="-119.5" font-family="Helvetica,sans-Serif" font-size="10.00">iostream</text>
</a>
</g>
</g>
<!-- Node4&#45;&gt;Node12 -->
<g id="edge13" class="edge"><title>Node4&#45;&gt;Node12</title>
<path fill="none" stroke="midnightblue" d="M166.014,-168.444C185.588,-159.636 216.308,-145.812 238.729,-135.722"/>
<polygon fill="midnightblue" stroke="midnightblue" points="240.392,-138.812 248.075,-131.516 237.519,-132.428 240.392,-138.812"/>
</g>
<!-- Node6&#45;&gt;Node4 -->
<g id="edge10" class="edge"><title>Node6&#45;&gt;Node4</title>
<path fill="none" stroke="midnightblue" d="M171.404,-131.751C169.837,-139.17 165.622,-150.045 160.932,-159.275"/>
<polygon fill="midnightblue" stroke="midnightblue" points="157.829,-157.653 155.964,-168.083 163.926,-161.092 157.829,-157.653"/>
</g>
<!-- Node6&#45;&gt;Node5 -->
<g id="edge11" class="edge"><title>Node6&#45;&gt;Node5</title>
<path fill="none" stroke="midnightblue" d="M214.208,-112.444C264.914,-102.63 347.794,-86.5882 400.31,-76.4239"/>
<polygon fill="midnightblue" stroke="midnightblue" points="401.237,-79.8095 410.389,-74.473 399.907,-72.9371 401.237,-79.8095"/>
</g>
<!-- Node7 -->
<g id="node7" class="node"><title>Node7</title>
<g id="a_node7"><a xlink:href="_fatal_error_8h.html" target="_top" xlink:title=" ">
<polygon fill="white" stroke="black" points="109,-56.5 109,-75.5 231,-75.5 231,-56.5 109,-56.5"/>
<text text-anchor="middle" x="170" y="-63.5" font-family="Helvetica,sans-Serif" font-size="10.00">Cpl/System/FatalError.h</text>
</a>
</g>
</g>
<!-- Node6&#45;&gt;Node7 -->
<g id="edge6" class="edge"><title>Node6&#45;&gt;Node7</title>
<path fill="none" stroke="midnightblue" d="M170,-112.083C170,-105.006 170,-94.8611 170,-85.9865"/>
<polygon fill="midnightblue" stroke="midnightblue" points="173.5,-85.751 170,-75.7511 166.5,-85.7511 173.5,-85.751"/>
</g>
<!-- Node10 -->
<g id="node10" class="node"><title>Node10</title>
<g id="a_node10"><a xlink:title=" ">
<polygon fill="white" stroke="#bfbfbf" points="18.5,-56.5 18.5,-75.5 67.5,-75.5 67.5,-56.5 18.5,-56.5"/>
<text text-anchor="middle" x="43" y="-63.5" font-family="Helvetica,sans-Serif" font-size="10.00">stdint.h</text>
</a>
</g>
</g>
<!-- Node6&#45;&gt;Node10 -->
<g id="edge9" class="edge"><title>Node6&#45;&gt;Node10</title>
<path fill="none" stroke="midnightblue" d="M149.876,-112.444C128.976,-103.557 96.0653,-89.5632 72.2839,-79.4514"/>
<polygon fill="midnightblue" stroke="midnightblue" points="73.6016,-76.2085 63.0294,-75.5164 70.8625,-82.6504 73.6016,-76.2085"/>
</g>
<!-- Node8 -->
<g id="node8" class="node"><title>Node8</title>
<g id="a_node8"><a xlink:title=" ">
<polygon fill="white" stroke="#bfbfbf" points="101,-0.5 101,-19.5 153,-19.5 153,-0.5 101,-0.5"/>
<text text-anchor="middle" x="127" y="-7.5" font-family="Helvetica,sans-Serif" font-size="10.00">stddef.h</text>
</a>
</g>
</g>
<!-- Node7&#45;&gt;Node8 -->
<g id="edge7" class="edge"><title>Node7&#45;&gt;Node8</title>
<path fill="none" stroke="midnightblue" d="M162.899,-56.083C156.763,-48.3768 147.73,-37.0333 140.261,-27.6531"/>
<polygon fill="midnightblue" stroke="midnightblue" points="142.936,-25.3936 133.968,-19.7511 137.46,-29.7542 142.936,-25.3936"/>
</g>
<!-- Node9 -->
<g id="node9" class="node"><title>Node9</title>
<g id="a_node9"><a xlink:title=" ">
<polygon fill="white" stroke="#bfbfbf" points="171.5,-0.5 171.5,-19.5 256.5,-19.5 256.5,-0.5 171.5,-0.5"/>
<text text-anchor="middle" x="214" y="-7.5" font-family="Helvetica,sans-Serif" font-size="10.00">colony_config.h</text>
</a>
</g>
</g>
<!-- Node7&#45;&gt;Node9 -->
<g id="edge8" class="edge"><title>Node7&#45;&gt;Node9</title>
<path fill="none" stroke="midnightblue" d="M177.266,-56.083C183.545,-48.3768 192.788,-37.0333 200.431,-27.6531"/>
<polygon fill="midnightblue" stroke="midnightblue" points="203.266,-29.7143 206.869,-19.7511 197.839,-25.2926 203.266,-29.7143"/>
</g>
<!-- Node14 -->
<g id="node14" class="node"><title>Node14</title>
<g id="a_node14"><a xlink:href="_item_8h.html" target="_top" xlink:title=" ">
<polygon fill="white" stroke="black" points="394,-112.5 394,-131.5 500,-131.5 500,-112.5 394,-112.5"/>
<text text-anchor="middle" x="447" y="-119.5" font-family="Helvetica,sans-Serif" font-size="10.00">Cpl/Container/Item.h</text>
</a>
</g>
</g>
<!-- Node13&#45;&gt;Node14 -->
<g id="edge15" class="edge"><title>Node13&#45;&gt;Node14</title>
<path fill="none" stroke="midnightblue" d="M280.374,-168.444C314.263,-159.201 368.403,-144.436 405.724,-134.257"/>
<polygon fill="midnightblue" stroke="midnightblue" points="407.046,-137.524 415.773,-131.516 405.205,-130.771 407.046,-137.524"/>
</g>
<!-- Node16&#45;&gt;Node4 -->
<g id="edge18" class="edge"><title>Node16&#45;&gt;Node4</title>
<path fill="none" stroke="midnightblue" d="M169.541,-224.083C165.846,-216.691 160.477,-205.953 155.906,-196.811"/>
<polygon fill="midnightblue" stroke="midnightblue" points="158.978,-195.13 151.376,-187.751 152.717,-198.261 158.978,-195.13"/>
</g>
<!-- Node16&#45;&gt;Node11 -->
<g id="edge21" class="edge"><title>Node16&#45;&gt;Node11</title>
<path fill="none" stroke="midnightblue" d="M147.837,-224.494C129.964,-217.405 107.057,-205.596 93,-188 82.346,-174.663 77.6653,-155.547 75.6094,-141.497"/>
<polygon fill="midnightblue" stroke="midnightblue" points="79.0817,-141.055 74.4593,-131.522 72.1278,-141.857 79.0817,-141.055"/>
</g>
<!-- Node16&#45;&gt;Node13 -->
<g id="edge19" class="edge"><title>Node16&#45;&gt;Node13</title>
<path fill="none" stroke="midnightblue" d="M186.05,-224.324C197.463,-216.107 214.831,-203.602 228.435,-193.807"/>
<polygon fill="midnightblue" stroke="midnightblue" points="230.66,-196.517 236.731,-187.834 226.57,-190.837 230.66,-196.517"/>
</g>
<!-- Node16&#45;&gt;Node15 -->
<g id="edge20" class="edge"><title>Node16&#45;&gt;Node15</title>
<path fill="none" stroke="midnightblue" d="M201.254,-224.444C230.441,-215.28 276.921,-200.688 309.309,-190.519"/>
<polygon fill="midnightblue" stroke="midnightblue" points="310.381,-193.851 318.874,-187.516 308.284,-187.173 310.381,-193.851"/>
</g>
<!-- Node17&#45;&gt;Node10 -->
<g id="edge23" class="edge"><title>Node17&#45;&gt;Node10</title>
<path fill="none" stroke="midnightblue" d="M63.4178,-280.226C56.1291,-254.542 36.1073,-177.214 39,-112 39.3827,-103.372 40.1762,-93.8414 40.9563,-85.7805"/>
<polygon fill="midnightblue" stroke="midnightblue" points="44.4606,-85.9182 42.0059,-75.6117 37.4976,-85.1994 44.4606,-85.9182"/>
</g>
<!-- Node18&#45;&gt;Node5 -->
<g id="edge25" class="edge"><title>Node18&#45;&gt;Node5</title>
<path fill="none" stroke="midnightblue" d="M484.788,-224.471C500.326,-217.316 519.707,-205.435 529,-188 533.181,-180.156 530.517,-176.758 529,-168 524.489,-141.959 524.68,-133.274 509,-112 499.704,-99.3878 485.891,-88.6901 473.861,-80.8934"/>
<polygon fill="midnightblue" stroke="midnightblue" points="475.465,-77.771 465.114,-75.5132 471.798,-83.7334 475.465,-77.771"/>
</g>
<!-- Node19 -->
<g id="node19" class="node"><title>Node19</title>
<g id="a_node19"><a xlink:href="_signable_8h.html" target="_top" xlink:title=" ">
<polygon fill="white" stroke="black" points="404,-168.5 404,-187.5 520,-187.5 520,-168.5 404,-168.5"/>
<text text-anchor="middle" x="462" y="-175.5" font-family="Helvetica,sans-Serif" font-size="10.00">Cpl/System/Signable.h</text>
</a>
</g>
</g>
<!-- Node18&#45;&gt;Node19 -->
<g id="edge26" class="edge"><title>Node18&#45;&gt;Node19</title>
<path fill="none" stroke="midnightblue" d="M462,-224.083C462,-217.006 462,-206.861 462,-197.986"/>
<polygon fill="midnightblue" stroke="midnightblue" points="465.5,-197.751 462,-187.751 458.5,-197.751 465.5,-197.751"/>
</g>
<!-- Node19&#45;&gt;Node14 -->
<g id="edge27" class="edge"><title>Node19&#45;&gt;Node14</title>
<path fill="none" stroke="midnightblue" d="M459.523,-168.083C457.514,-160.849 454.614,-150.409 452.11,-141.397"/>
<polygon fill="midnightblue" stroke="midnightblue" points="455.48,-140.449 449.431,-131.751 448.735,-142.323 455.48,-140.449"/>
</g>
<!-- Node20&#45;&gt;Node5 -->
<g id="edge29" class="edge"><title>Node20&#45;&gt;Node5</title>
<path fill="none" stroke="midnightblue" d="M564.869,-280.128C567.119,-252.124 570.346,-164.365 529,-112 517.551,-97.5 500.064,-86.9039 484.356,-79.6498"/>
<polygon fill="midnightblue" stroke="midnightblue" points="485.444,-76.3074 474.876,-75.5599 482.671,-82.7348 485.444,-76.3074"/>
</g>
</g>
</svg>
