<?xml version="1.0" encoding="UTF-8" standalone="no"?>
<!DOCTYPE svg PUBLIC "-//W3C//DTD SVG 1.1//EN"
 "http://www.w3.org/Graphics/SVG/1.1/DTD/svg11.dtd">
<!-- Generated by graphviz version 2.38.0 (20140413.2041)
 -->
<!-- Title: Driver/LED/RedGreenBlue.h Pages: 1 -->
<svg width="405pt" height="95pt"
 viewBox="0.00 0.00 405.00 95.00" xmlns="http://www.w3.org/2000/svg" xmlns:xlink="http://www.w3.org/1999/xlink">
<g id="graph0" class="graph" transform="scale(1 1) rotate(0) translate(4 91)">
<title>Driver/LED/RedGreenBlue.h</title>
<polygon fill="white" stroke="none" points="-4,4 -4,-91 401,-91 401,4 -4,4"/>
<!-- Node1 -->
<g id="node1" class="node"><title>Node1</title>
<g id="a_node1"><a xlink:title=" ">
<polygon fill="#bfbfbf" stroke="black" points="143.5,-67.5 143.5,-86.5 281.5,-86.5 281.5,-67.5 143.5,-67.5"/>
<text text-anchor="middle" x="212.5" y="-74.5" font-family="Helvetica,sans-Serif" font-size="10.00">Driver/LED/RedGreenBlue.h</text>
</a>
</g>
</g>
<!-- Node2 -->
<g id="node2" class="node"><title>Node2</title>
<g id="a_node2"><a xlink:href="_pimoroni_pico_2_red_green_blue_8h.html" target="_top" xlink:title=" ">
<polygon fill="white" stroke="black" points="0,-0.5 0,-30.5 125,-30.5 125,-0.5 0,-0.5"/>
<text text-anchor="start" x="8" y="-18.5" font-family="Helvetica,sans-Serif" font-size="10.00">Driver/LED/PimoroniPico</text>
<text text-anchor="middle" x="62.5" y="-7.5" font-family="Helvetica,sans-Serif" font-size="10.00">/RedGreenBlue.h</text>
</a>
</g>
</g>
<!-- Node1&#45;&gt;Node2 -->
<g id="edge1" class="edge"><title>Node1&#45;&gt;Node2</title>
<path fill="none" stroke="midnightblue" d="M181.539,-63.7189C157.194,-54.062 123.262,-40.6023 97.852,-30.523"/>
<polygon fill="midnightblue" stroke="midnightblue" points="180.423,-67.0413 191.009,-67.4751 183.004,-60.5345 180.423,-67.0413"/>
</g>
<!-- Node3 -->
<g id="node3" class="node"><title>Node3</title>
<g id="a_node3"><a xlink:href="_t_pipe_2_red_green_blue_8h.html" target="_top" xlink:title=" ">
<polygon fill="white" stroke="black" points="143,-0.5 143,-30.5 282,-30.5 282,-0.5 143,-0.5"/>
<text text-anchor="start" x="151" y="-18.5" font-family="Helvetica,sans-Serif" font-size="10.00">Driver/LED/TPipe/RedGreen</text>
<text text-anchor="middle" x="212.5" y="-7.5" font-family="Helvetica,sans-Serif" font-size="10.00">Blue.h</text>
</a>
</g>
</g>
<!-- Node1&#45;&gt;Node3 -->
<g id="edge2" class="edge"><title>Node1&#45;&gt;Node3</title>
<path fill="none" stroke="midnightblue" d="M212.5,-57.2349C212.5,-48.5864 212.5,-38.4969 212.5,-30.523"/>
<polygon fill="midnightblue" stroke="midnightblue" points="209,-57.4751 212.5,-67.4751 216,-57.4751 209,-57.4751"/>
</g>
<!-- Node4 -->
<g id="node4" class="node"><title>Node4</title>
<g id="a_node4"><a xlink:href="_driver_2_pico_display_2_api_8h.html" target="_top" xlink:title=" ">
<polygon fill="white" stroke="black" points="300,-0.5 300,-30.5 397,-30.5 397,-0.5 300,-0.5"/>
<text text-anchor="start" x="308" y="-18.5" font-family="Helvetica,sans-Serif" font-size="10.00">Driver/PicoDisplay</text>
<text text-anchor="middle" x="348.5" y="-7.5" font-family="Helvetica,sans-Serif" font-size="10.00">/Api.h</text>
</a>
</g>
</g>
<!-- Node1&#45;&gt;Node4 -->
<g id="edge3" class="edge"><title>Node1&#45;&gt;Node4</title>
<path fill="none" stroke="midnightblue" d="M241.162,-63.4605C263.19,-53.823 293.614,-40.5127 316.447,-30.523"/>
<polygon fill="midnightblue" stroke="midnightblue" points="239.744,-60.2603 231.985,-67.4751 242.55,-66.6734 239.744,-60.2603"/>
</g>
</g>
</svg>
