<?xml version="1.0" encoding="UTF-8" standalone="no"?>
<!DOCTYPE svg PUBLIC "-//W3C//DTD SVG 1.1//EN"
 "http://www.w3.org/Graphics/SVG/1.1/DTD/svg11.dtd">
<!-- Generated by graphviz version 2.38.0 (20140413.2041)
 -->
<!-- Title: Cpl/Persistent/RegionMedia.h Pages: 1 -->
<svg width="771pt" height="162pt"
 viewBox="0.00 0.00 771.00 162.00" xmlns="http://www.w3.org/2000/svg" xmlns:xlink="http://www.w3.org/1999/xlink">
<g id="graph0" class="graph" transform="scale(1 1) rotate(0) translate(4 158)">
<title>Cpl/Persistent/RegionMedia.h</title>
<polygon fill="white" stroke="none" points="-4,4 -4,-158 767,-158 767,4 -4,4"/>
<!-- Node1 -->
<g id="node1" class="node"><title>Node1</title>
<g id="a_node1"><a xlink:title=" ">
<polygon fill="#bfbfbf" stroke="black" points="304,-134.5 304,-153.5 450,-153.5 450,-134.5 304,-134.5"/>
<text text-anchor="middle" x="377" y="-141.5" font-family="Helvetica,sans-Serif" font-size="10.00">Cpl/Persistent/RegionMedia.h</text>
</a>
</g>
</g>
<!-- Node2 -->
<g id="node2" class="node"><title>Node2</title>
<g id="a_node2"><a xlink:href="_crc_chunk_8h.html" target="_top" xlink:title=" ">
<polygon fill="white" stroke="black" points="0,-73 0,-92 132,-92 132,-73 0,-73"/>
<text text-anchor="middle" x="66" y="-80" font-family="Helvetica,sans-Serif" font-size="10.00">Cpl/Persistent/CrcChunk.h</text>
</a>
</g>
</g>
<!-- Node1&#45;&gt;Node2 -->
<g id="edge1" class="edge"><title>Node1&#45;&gt;Node2</title>
<path fill="none" stroke="midnightblue" d="M322.356,-132.546C262.105,-121.018 166.325,-102.694 110.476,-92.0091"/>
<polygon fill="midnightblue" stroke="midnightblue" points="321.962,-136.034 332.441,-134.475 323.277,-129.158 321.962,-136.034"/>
</g>
<!-- Node3 -->
<g id="node3" class="node"><title>Node3</title>
<g id="a_node3"><a xlink:href="_file_adapter_8h.html" target="_top" xlink:title=" ">
<polygon fill="white" stroke="black" points="150.5,-73 150.5,-92 289.5,-92 289.5,-73 150.5,-73"/>
<text text-anchor="middle" x="220" y="-80" font-family="Helvetica,sans-Serif" font-size="10.00">Cpl/Persistent/FileAdapter.h</text>
</a>
</g>
</g>
<!-- Node1&#45;&gt;Node3 -->
<g id="edge2" class="edge"><title>Node1&#45;&gt;Node3</title>
<path fill="none" stroke="midnightblue" d="M344.762,-130.782C314.252,-119.22 269.248,-102.164 242.453,-92.0091"/>
<polygon fill="midnightblue" stroke="midnightblue" points="343.914,-134.204 354.506,-134.475 346.395,-127.658 343.914,-134.204"/>
</g>
<!-- Node4 -->
<g id="node4" class="node"><title>Node4</title>
<g id="a_node4"><a xlink:href="_indexed_entry_record_8h.html" target="_top" xlink:title=" ">
<polygon fill="white" stroke="black" points="307.5,-67.5 307.5,-97.5 446.5,-97.5 446.5,-67.5 307.5,-67.5"/>
<text text-anchor="start" x="315.5" y="-85.5" font-family="Helvetica,sans-Serif" font-size="10.00">Cpl/Persistent/IndexedEntry</text>
<text text-anchor="middle" x="377" y="-74.5" font-family="Helvetica,sans-Serif" font-size="10.00">Record.h</text>
</a>
</g>
</g>
<!-- Node1&#45;&gt;Node4 -->
<g id="edge3" class="edge"><title>Node1&#45;&gt;Node4</title>
<path fill="none" stroke="midnightblue" d="M377,-124.235C377,-115.586 377,-105.497 377,-97.523"/>
<polygon fill="midnightblue" stroke="midnightblue" points="373.5,-124.475 377,-134.475 380.5,-124.475 373.5,-124.475"/>
</g>
<!-- Node6 -->
<g id="node6" class="node"><title>Node6</title>
<g id="a_node6"><a xlink:href="_mirrored_chunk_8h.html" target="_top" xlink:title=" ">
<polygon fill="white" stroke="black" points="465,-73 465,-92 617,-92 617,-73 465,-73"/>
<text text-anchor="middle" x="541" y="-80" font-family="Helvetica,sans-Serif" font-size="10.00">Cpl/Persistent/MirroredChunk.h</text>
</a>
</g>
</g>
<!-- Node1&#45;&gt;Node6 -->
<g id="edge5" class="edge"><title>Node1&#45;&gt;Node6</title>
<path fill="none" stroke="midnightblue" d="M410.261,-130.933C442.136,-119.368 489.434,-102.208 517.546,-92.0091"/>
<polygon fill="midnightblue" stroke="midnightblue" points="408.704,-127.774 400.497,-134.475 411.091,-134.355 408.704,-127.774"/>
</g>
<!-- Node7 -->
<g id="node7" class="node"><title>Node7</title>
<g id="a_node7"><a xlink:href="_null_region_media_8h.html" target="_top" xlink:title=" ">
<polygon fill="white" stroke="black" points="635,-67.5 635,-97.5 763,-97.5 763,-67.5 635,-67.5"/>
<text text-anchor="start" x="643" y="-85.5" font-family="Helvetica,sans-Serif" font-size="10.00">Cpl/Persistent/NullRegion</text>
<text text-anchor="middle" x="699" y="-74.5" font-family="Helvetica,sans-Serif" font-size="10.00">Media.h</text>
</a>
</g>
</g>
<!-- Node1&#45;&gt;Node7 -->
<g id="edge6" class="edge"><title>Node1&#45;&gt;Node7</title>
<path fill="none" stroke="midnightblue" d="M435.792,-132.67C486.282,-123.729 560.991,-110.33 626,-98 628.92,-97.4462 631.904,-96.8749 634.918,-96.2937"/>
<polygon fill="midnightblue" stroke="midnightblue" points="434.95,-129.265 425.713,-134.453 436.169,-136.158 434.95,-129.265"/>
</g>
<!-- Node5 -->
<g id="node5" class="node"><title>Node5</title>
<g id="a_node5"><a xlink:href="_indexed_entry_server_8h.html" target="_top" xlink:title=" ">
<polygon fill="white" stroke="black" points="307.5,-0.5 307.5,-30.5 446.5,-30.5 446.5,-0.5 307.5,-0.5"/>
<text text-anchor="start" x="315.5" y="-18.5" font-family="Helvetica,sans-Serif" font-size="10.00">Cpl/Persistent/IndexedEntry</text>
<text text-anchor="middle" x="377" y="-7.5" font-family="Helvetica,sans-Serif" font-size="10.00">Server.h</text>
</a>
</g>
</g>
<!-- Node4&#45;&gt;Node5 -->
<g id="edge4" class="edge"><title>Node4&#45;&gt;Node5</title>
<path fill="none" stroke="midnightblue" d="M377,-57.1081C377,-48.1539 377,-38.3227 377,-30.5765"/>
<polygon fill="midnightblue" stroke="midnightblue" points="373.5,-57.3959 377,-67.396 380.5,-57.396 373.5,-57.3959"/>
</g>
</g>
</svg>
