<?xml version="1.0" encoding="UTF-8" standalone="no"?>
<!DOCTYPE svg PUBLIC "-//W3C//DTD SVG 1.1//EN"
 "http://www.w3.org/Graphics/SVG/1.1/DTD/svg11.dtd">
<!-- Generated by graphviz version 2.38.0 (20140413.2041)
 -->
<!-- Title: Cpl/Itc/RequestMessage.h Pages: 1 -->
<svg width="1087pt" height="464pt"
 viewBox="0.00 0.00 1086.50 464.00" xmlns="http://www.w3.org/2000/svg" xmlns:xlink="http://www.w3.org/1999/xlink">
<g id="graph0" class="graph" transform="scale(1 1) rotate(0) translate(4 460)">
<title>Cpl/Itc/RequestMessage.h</title>
<polygon fill="white" stroke="none" points="-4,4 -4,-460 1082.5,-460 1082.5,4 -4,4"/>
<!-- Node1 -->
<g id="node1" class="node"><title>Node1</title>
<g id="a_node1"><a xlink:title=" ">
<polygon fill="#bfbfbf" stroke="black" points="511.5,-436.5 511.5,-455.5 643.5,-455.5 643.5,-436.5 511.5,-436.5"/>
<text text-anchor="middle" x="577.5" y="-443.5" font-family="Helvetica,sans-Serif" font-size="10.00">Cpl/Itc/RequestMessage.h</text>
</a>
</g>
</g>
<!-- Node2 -->
<g id="node2" class="node"><title>Node2</title>
<g id="a_node2"><a xlink:href="_erase_request_8h.html" target="_top" xlink:title=" ">
<polygon fill="white" stroke="black" points="185,-308 185,-327 354,-327 354,-308 185,-308"/>
<text text-anchor="middle" x="269.5" y="-315" font-family="Helvetica,sans-Serif" font-size="10.00">Cpl/Dm/Persistent/EraseRequest.h</text>
</a>
</g>
</g>
<!-- Node1&#45;&gt;Node2 -->
<g id="edge1" class="edge"><title>Node1&#45;&gt;Node2</title>
<path fill="none" stroke="midnightblue" d="M533.927,-433.779C504.313,-425.64 464.495,-413.69 430.5,-400 374.703,-377.531 312.039,-342.922 284.194,-327.021"/>
<polygon fill="midnightblue" stroke="midnightblue" points="533.383,-437.257 543.95,-436.495 535.214,-430.501 533.383,-437.257"/>
</g>
<!-- Node7 -->
<g id="node7" class="node"><title>Node7</title>
<g id="a_node7"><a xlink:href="_flush_request_8h.html" target="_top" xlink:title=" ">
<polygon fill="white" stroke="black" points="0,-308 0,-327 167,-327 167,-308 0,-308"/>
<text text-anchor="middle" x="83.5" y="-315" font-family="Helvetica,sans-Serif" font-size="10.00">Cpl/Dm/Persistent/FlushRequest.h</text>
</a>
</g>
</g>
<!-- Node1&#45;&gt;Node7 -->
<g id="edge6" class="edge"><title>Node1&#45;&gt;Node7</title>
<path fill="none" stroke="midnightblue" d="M520.495,-434.585C476.339,-426.192 413.755,-413.585 359.5,-400 266.93,-376.821 158.855,-342.862 109.941,-327.112"/>
<polygon fill="midnightblue" stroke="midnightblue" points="519.99,-438.051 530.466,-436.468 521.289,-431.173 519.99,-438.051"/>
</g>
<!-- Node8 -->
<g id="node8" class="node"><title>Node8</title>
<g id="a_node8"><a xlink:href="_listener_client_request_8h.html" target="_top" xlink:title=" ">
<polygon fill="white" stroke="black" points="906.5,-369.5 906.5,-399.5 1044.5,-399.5 1044.5,-369.5 906.5,-369.5"/>
<text text-anchor="start" x="914.5" y="-387.5" font-family="Helvetica,sans-Serif" font-size="10.00">Cpl/Io/Socket/ListenerClient</text>
<text text-anchor="middle" x="975.5" y="-376.5" font-family="Helvetica,sans-Serif" font-size="10.00">Request.h</text>
</a>
</g>
</g>
<!-- Node1&#45;&gt;Node8 -->
<g id="edge8" class="edge"><title>Node1&#45;&gt;Node8</title>
<path fill="none" stroke="midnightblue" d="M644.486,-434.986C717.162,-424.121 832.635,-406.858 906.204,-395.86"/>
<polygon fill="midnightblue" stroke="midnightblue" points="643.896,-431.535 634.524,-436.475 644.931,-438.458 643.896,-431.535"/>
</g>
<!-- Node10 -->
<g id="node10" class="node"><title>Node10</title>
<g id="a_node10"><a xlink:href="_atomic_request_8h.html" target="_top" xlink:title=" ">
<polygon fill="white" stroke="black" points="642,-308 642,-327 765,-327 765,-308 642,-308"/>
<text text-anchor="middle" x="703.5" y="-315" font-family="Helvetica,sans-Serif" font-size="10.00">Cpl/Itc/AtomicRequest.h</text>
</a>
</g>
</g>
<!-- Node1&#45;&gt;Node10 -->
<g id="edge10" class="edge"><title>Node1&#45;&gt;Node10</title>
<path fill="none" stroke="midnightblue" d="M593.751,-429.259C602.591,-420.657 613.693,-409.79 623.5,-400 649.879,-373.665 680.659,-342.056 695.149,-327.122"/>
<polygon fill="midnightblue" stroke="midnightblue" points="591.106,-426.948 586.371,-436.426 595.983,-431.97 591.106,-426.948"/>
</g>
<!-- Node12 -->
<g id="node12" class="node"><title>Node12</title>
<g id="a_node12"><a xlink:href="_close_request_8h.html" target="_top" xlink:title=" ">
<polygon fill="white" stroke="black" points="507,-308 507,-327 624,-327 624,-308 507,-308"/>
<text text-anchor="middle" x="565.5" y="-315" font-family="Helvetica,sans-Serif" font-size="10.00">Cpl/Itc/CloseRequest.h</text>
</a>
</g>
</g>
<!-- Node1&#45;&gt;Node12 -->
<g id="edge12" class="edge"><title>Node1&#45;&gt;Node12</title>
<path fill="none" stroke="midnightblue" d="M591.999,-428.398C598.048,-420.388 604.383,-410.295 607.5,-400 611.493,-386.813 612.184,-381.957 607.5,-369 601.297,-351.841 586.442,-336.405 576.172,-327.24"/>
<polygon fill="midnightblue" stroke="midnightblue" points="589.272,-426.203 585.714,-436.182 594.719,-430.601 589.272,-426.203"/>
</g>
<!-- Node17 -->
<g id="node17" class="node"><title>Node17</title>
<g id="a_node17"><a xlink:href="_open_request_8h.html" target="_top" xlink:title=" ">
<polygon fill="white" stroke="black" points="372.5,-308 372.5,-327 488.5,-327 488.5,-308 372.5,-308"/>
<text text-anchor="middle" x="430.5" y="-315" font-family="Helvetica,sans-Serif" font-size="10.00">Cpl/Itc/OpenRequest.h</text>
</a>
</g>
</g>
<!-- Node1&#45;&gt;Node17 -->
<g id="edge18" class="edge"><title>Node1&#45;&gt;Node17</title>
<path fill="none" stroke="midnightblue" d="M506.422,-433.573C485.508,-426.955 464.296,-416.504 449.5,-400 430.879,-379.23 429.502,-343.771 429.977,-327.34"/>
<polygon fill="midnightblue" stroke="midnightblue" points="505.729,-437.016 516.308,-436.438 507.678,-430.293 505.729,-437.016"/>
</g>
<!-- Node19 -->
<g id="node19" class="node"><title>Node19</title>
<g id="a_node19"><a xlink:href="_response_message_8h.html" target="_top" xlink:title=" ">
<polygon fill="white" stroke="black" points="458.5,-375 458.5,-394 598.5,-394 598.5,-375 458.5,-375"/>
<text text-anchor="middle" x="528.5" y="-382" font-family="Helvetica,sans-Serif" font-size="10.00">Cpl/Itc/ResponseMessage.h</text>
</a>
</g>
</g>
<!-- Node1&#45;&gt;Node19 -->
<g id="edge21" class="edge"><title>Node1&#45;&gt;Node19</title>
<path fill="none" stroke="midnightblue" d="M564.051,-428.669C554.813,-417.452 542.925,-403.016 535.507,-394.009"/>
<polygon fill="midnightblue" stroke="midnightblue" points="561.421,-430.981 570.479,-436.475 566.824,-426.531 561.421,-430.981"/>
</g>
<!-- Node20 -->
<g id="node20" class="node"><title>Node20</title>
<g id="a_node20"><a xlink:href="_indexed_entry_requests_8h.html" target="_top" xlink:title=" ">
<polygon fill="white" stroke="black" points="783,-302.5 783,-332.5 922,-332.5 922,-302.5 783,-302.5"/>
<text text-anchor="start" x="791" y="-320.5" font-family="Helvetica,sans-Serif" font-size="10.00">Cpl/Persistent/IndexedEntry</text>
<text text-anchor="middle" x="852.5" y="-309.5" font-family="Helvetica,sans-Serif" font-size="10.00">Requests.h</text>
</a>
</g>
</g>
<!-- Node1&#45;&gt;Node20 -->
<g id="edge29" class="edge"><title>Node1&#45;&gt;Node20</title>
<path fill="none" stroke="midnightblue" d="M605.677,-432.039C657.571,-408.167 767.854,-357.437 821.669,-332.682"/>
<polygon fill="midnightblue" stroke="midnightblue" points="604.024,-428.946 596.402,-436.305 606.949,-435.306 604.024,-428.946"/>
</g>
<!-- Node3 -->
<g id="node3" class="node"><title>Node3</title>
<g id="a_node3"><a xlink:href="_dm_2_persistent_2_record_8h.html" target="_top" xlink:title=" ">
<polygon fill="white" stroke="black" points="200.5,-67.5 200.5,-86.5 338.5,-86.5 338.5,-67.5 200.5,-67.5"/>
<text text-anchor="middle" x="269.5" y="-74.5" font-family="Helvetica,sans-Serif" font-size="10.00">Cpl/Dm/Persistent/Record.h</text>
</a>
</g>
</g>
<!-- Node2&#45;&gt;Node3 -->
<g id="edge2" class="edge"><title>Node2&#45;&gt;Node3</title>
<path fill="none" stroke="midnightblue" d="M269.5,-297.671C269.5,-249.103 269.5,-120.989 269.5,-86.5994"/>
<polygon fill="midnightblue" stroke="midnightblue" points="266,-297.729 269.5,-307.729 273,-297.729 266,-297.729"/>
</g>
<!-- Node4 -->
<g id="node4" class="node"><title>Node4</title>
<g id="a_node4"><a xlink:href="_installer_record_8h_source.html" target="_top" xlink:title=" ">
<polygon fill="white" stroke="black" points="73,-0.5 73,-30.5 192,-30.5 192,-0.5 73,-0.5"/>
<text text-anchor="start" x="81" y="-18.5" font-family="Helvetica,sans-Serif" font-size="10.00">Storm/Thermostat/Main</text>
<text text-anchor="middle" x="132.5" y="-7.5" font-family="Helvetica,sans-Serif" font-size="10.00">/InstallerRecord.h</text>
</a>
</g>
</g>
<!-- Node3&#45;&gt;Node4 -->
<g id="edge3" class="edge"><title>Node3&#45;&gt;Node4</title>
<path fill="none" stroke="midnightblue" d="M240.628,-63.4605C218.437,-53.823 187.79,-40.5127 164.788,-30.523"/>
<polygon fill="midnightblue" stroke="midnightblue" points="239.305,-66.7018 249.871,-67.4751 242.093,-60.2811 239.305,-66.7018"/>
</g>
<!-- Node5 -->
<g id="node5" class="node"><title>Node5</title>
<g id="a_node5"><a xlink:href="_run_time_record_8h_source.html" target="_top" xlink:title=" ">
<polygon fill="white" stroke="black" points="210,-0.5 210,-30.5 329,-30.5 329,-0.5 210,-0.5"/>
<text text-anchor="start" x="218" y="-18.5" font-family="Helvetica,sans-Serif" font-size="10.00">Storm/Thermostat/Main</text>
<text text-anchor="middle" x="269.5" y="-7.5" font-family="Helvetica,sans-Serif" font-size="10.00">/RunTimeRecord.h</text>
</a>
</g>
</g>
<!-- Node3&#45;&gt;Node5 -->
<g id="edge4" class="edge"><title>Node3&#45;&gt;Node5</title>
<path fill="none" stroke="midnightblue" d="M269.5,-57.2349C269.5,-48.5864 269.5,-38.4969 269.5,-30.523"/>
<polygon fill="midnightblue" stroke="midnightblue" points="266,-57.4751 269.5,-67.4751 273,-57.4751 266,-57.4751"/>
</g>
<!-- Node6 -->
<g id="node6" class="node"><title>Node6</title>
<g id="a_node6"><a xlink:href="_user_record_8h_source.html" target="_top" xlink:title=" ">
<polygon fill="white" stroke="black" points="347,-0.5 347,-30.5 466,-30.5 466,-0.5 347,-0.5"/>
<text text-anchor="start" x="355" y="-18.5" font-family="Helvetica,sans-Serif" font-size="10.00">Storm/Thermostat/Main</text>
<text text-anchor="middle" x="406.5" y="-7.5" font-family="Helvetica,sans-Serif" font-size="10.00">/UserRecord.h</text>
</a>
</g>
</g>
<!-- Node3&#45;&gt;Node6 -->
<g id="edge5" class="edge"><title>Node3&#45;&gt;Node6</title>
<path fill="none" stroke="midnightblue" d="M298.372,-63.4605C320.563,-53.823 351.21,-40.5127 374.212,-30.523"/>
<polygon fill="midnightblue" stroke="midnightblue" points="296.907,-60.2811 289.129,-67.4751 299.695,-66.7018 296.907,-60.2811"/>
</g>
<!-- Node7&#45;&gt;Node3 -->
<g id="edge7" class="edge"><title>Node7&#45;&gt;Node3</title>
<path fill="none" stroke="midnightblue" d="M96.5472,-299.77C133.094,-252.907 235.578,-121.497 262.794,-86.5994"/>
<polygon fill="midnightblue" stroke="midnightblue" points="93.7302,-297.691 90.3404,-307.729 99.2501,-301.996 93.7302,-297.691"/>
</g>
<!-- Node9 -->
<g id="node9" class="node"><title>Node9</title>
<g id="a_node9"><a xlink:href="_listener_client_sync_8h.html" target="_top" xlink:title=" ">
<polygon fill="white" stroke="black" points="940.5,-302.5 940.5,-332.5 1078.5,-332.5 1078.5,-302.5 940.5,-302.5"/>
<text text-anchor="start" x="948.5" y="-320.5" font-family="Helvetica,sans-Serif" font-size="10.00">Cpl/Io/Socket/ListenerClient</text>
<text text-anchor="middle" x="1009.5" y="-309.5" font-family="Helvetica,sans-Serif" font-size="10.00">Sync.h</text>
</a>
</g>
</g>
<!-- Node8&#45;&gt;Node9 -->
<g id="edge9" class="edge"><title>Node8&#45;&gt;Node9</title>
<path fill="none" stroke="midnightblue" d="M987.644,-360.283C992.488,-351.022 997.907,-340.663 1002.14,-332.577"/>
<polygon fill="midnightblue" stroke="midnightblue" points="984.411,-358.913 982.877,-369.396 990.614,-362.157 984.411,-358.913"/>
</g>
<!-- Node11 -->
<g id="node11" class="node"><title>Node11</title>
<g id="a_node11"><a xlink:href="_atomic_sync_8h.html" target="_top" xlink:title=" ">
<polygon fill="white" stroke="black" points="648.5,-246.5 648.5,-265.5 758.5,-265.5 758.5,-246.5 648.5,-246.5"/>
<text text-anchor="middle" x="703.5" y="-253.5" font-family="Helvetica,sans-Serif" font-size="10.00">Cpl/Itc/AtomicSync.h</text>
</a>
</g>
</g>
<!-- Node10&#45;&gt;Node11 -->
<g id="edge11" class="edge"><title>Node10&#45;&gt;Node11</title>
<path fill="none" stroke="midnightblue" d="M703.5,-297.817C703.5,-286.996 703.5,-273.898 703.5,-265.509"/>
<polygon fill="midnightblue" stroke="midnightblue" points="700,-297.975 703.5,-307.975 707,-297.975 700,-297.975"/>
</g>
<!-- Node13 -->
<g id="node13" class="node"><title>Node13</title>
<g id="a_node13"><a xlink:href="_close_sync_8h.html" target="_top" xlink:title=" ">
<polygon fill="white" stroke="black" points="496.5,-190.5 496.5,-209.5 600.5,-209.5 600.5,-190.5 496.5,-190.5"/>
<text text-anchor="middle" x="548.5" y="-197.5" font-family="Helvetica,sans-Serif" font-size="10.00">Cpl/Itc/CloseSync.h</text>
</a>
</g>
</g>
<!-- Node12&#45;&gt;Node13 -->
<g id="edge13" class="edge"><title>Node12&#45;&gt;Node13</title>
<path fill="none" stroke="midnightblue" d="M562.728,-297.664C559.004,-272.365 552.538,-228.435 549.793,-209.782"/>
<polygon fill="midnightblue" stroke="midnightblue" points="559.303,-298.435 564.222,-307.819 566.229,-297.416 559.303,-298.435"/>
</g>
<!-- Node14 -->
<g id="node14" class="node"><title>Node14</title>
<g id="a_node14"><a xlink:href="_indexed_entry_server_8h.html" target="_top" xlink:title=" ">
<polygon fill="white" stroke="black" points="695,-123.5 695,-153.5 834,-153.5 834,-123.5 695,-123.5"/>
<text text-anchor="start" x="703" y="-141.5" font-family="Helvetica,sans-Serif" font-size="10.00">Cpl/Persistent/IndexedEntry</text>
<text text-anchor="middle" x="764.5" y="-130.5" font-family="Helvetica,sans-Serif" font-size="10.00">Server.h</text>
</a>
</g>
</g>
<!-- Node13&#45;&gt;Node14 -->
<g id="edge14" class="edge"><title>Node13&#45;&gt;Node14</title>
<path fill="none" stroke="midnightblue" d="M589.397,-187.734C624.65,-178.023 675.701,-163.961 713.593,-153.523"/>
<polygon fill="midnightblue" stroke="midnightblue" points="588.159,-184.445 579.448,-190.475 590.018,-191.194 588.159,-184.445"/>
</g>
<!-- Node15 -->
<g id="node15" class="node"><title>Node15</title>
<g id="a_node15"><a xlink:href="_record_server_8h.html" target="_top" xlink:title=" ">
<polygon fill="white" stroke="black" points="304,-129 304,-148 453,-148 453,-129 304,-129"/>
<text text-anchor="middle" x="378.5" y="-136" font-family="Helvetica,sans-Serif" font-size="10.00">Cpl/Persistent/RecordServer.h</text>
</a>
</g>
</g>
<!-- Node13&#45;&gt;Node15 -->
<g id="edge15" class="edge"><title>Node13&#45;&gt;Node15</title>
<path fill="none" stroke="midnightblue" d="M514.451,-187.083C481.406,-175.517 432.078,-158.252 402.812,-148.009"/>
<polygon fill="midnightblue" stroke="midnightblue" points="513.548,-190.475 524.143,-190.475 515.861,-183.868 513.548,-190.475"/>
</g>
<!-- Node16 -->
<g id="node16" class="node"><title>Node16</title>
<g id="a_node16"><a xlink:href="_algorithm_8h.html" target="_top" xlink:title=" ">
<polygon fill="white" stroke="black" points="474.5,-129 474.5,-148 622.5,-148 622.5,-129 474.5,-129"/>
<text text-anchor="middle" x="548.5" y="-136" font-family="Helvetica,sans-Serif" font-size="10.00">Storm/Thermostat/Algorithm.h</text>
</a>
</g>
</g>
<!-- Node13&#45;&gt;Node16 -->
<g id="edge17" class="edge"><title>Node13&#45;&gt;Node16</title>
<path fill="none" stroke="midnightblue" d="M548.5,-180.317C548.5,-169.496 548.5,-156.398 548.5,-148.009"/>
<polygon fill="midnightblue" stroke="midnightblue" points="545,-180.475 548.5,-190.475 552,-180.475 545,-180.475"/>
</g>
<!-- Node15&#45;&gt;Node3 -->
<g id="edge16" class="edge"><title>Node15&#45;&gt;Node3</title>
<path fill="none" stroke="midnightblue" d="M353.872,-124.056C332.778,-112.542 303.044,-96.3109 285.088,-86.5091"/>
<polygon fill="midnightblue" stroke="midnightblue" points="352.429,-127.256 362.883,-128.975 355.783,-121.112 352.429,-127.256"/>
</g>
<!-- Node18 -->
<g id="node18" class="node"><title>Node18</title>
<g id="a_node18"><a xlink:href="_open_sync_8h.html" target="_top" xlink:title=" ">
<polygon fill="white" stroke="black" points="394.5,-246.5 394.5,-265.5 496.5,-265.5 496.5,-246.5 394.5,-246.5"/>
<text text-anchor="middle" x="445.5" y="-253.5" font-family="Helvetica,sans-Serif" font-size="10.00">Cpl/Itc/OpenSync.h</text>
</a>
</g>
</g>
<!-- Node17&#45;&gt;Node18 -->
<g id="edge19" class="edge"><title>Node17&#45;&gt;Node18</title>
<path fill="none" stroke="midnightblue" d="M435.124,-298.157C437.868,-287.272 441.218,-273.986 443.355,-265.509"/>
<polygon fill="midnightblue" stroke="midnightblue" points="431.7,-297.423 432.649,-307.975 438.488,-299.134 431.7,-297.423"/>
</g>
<!-- Node18&#45;&gt;Node13 -->
<g id="edge20" class="edge"><title>Node18&#45;&gt;Node13</title>
<path fill="none" stroke="midnightblue" d="M471.079,-241.59C490.123,-231.605 515.564,-218.267 531.992,-209.655"/>
<polygon fill="midnightblue" stroke="midnightblue" points="469.28,-238.581 462.049,-246.324 472.531,-244.78 469.28,-238.581"/>
</g>
<!-- Node19&#45;&gt;Node2 -->
<g id="edge22" class="edge"><title>Node19&#45;&gt;Node2</title>
<path fill="none" stroke="midnightblue" d="M484.606,-372.484C433.518,-359.663 350.23,-338.76 303.702,-327.083"/>
<polygon fill="midnightblue" stroke="midnightblue" points="483.823,-375.896 494.374,-374.936 485.527,-369.107 483.823,-375.896"/>
</g>
<!-- Node19&#45;&gt;Node7 -->
<g id="edge23" class="edge"><title>Node19&#45;&gt;Node7</title>
<path fill="none" stroke="midnightblue" d="M456.702,-373.534C385.345,-363.556 272.8,-347.627 175.5,-333 163.028,-331.125 149.615,-329.047 136.993,-327.063"/>
<polygon fill="midnightblue" stroke="midnightblue" points="456.536,-377.044 466.924,-374.962 457.505,-370.112 456.536,-377.044"/>
</g>
<!-- Node19&#45;&gt;Node10 -->
<g id="edge24" class="edge"><title>Node19&#45;&gt;Node10</title>
<path fill="none" stroke="midnightblue" d="M561.425,-371.271C596.158,-358.37 649.988,-338.376 680.444,-327.064"/>
<polygon fill="midnightblue" stroke="midnightblue" points="559.894,-368.106 551.739,-374.869 562.332,-374.668 559.894,-368.106"/>
</g>
<!-- Node19&#45;&gt;Node12 -->
<g id="edge25" class="edge"><title>Node19&#45;&gt;Node12</title>
<path fill="none" stroke="midnightblue" d="M538.442,-366.035C545.605,-353.45 554.965,-337.007 560.589,-327.127"/>
<polygon fill="midnightblue" stroke="midnightblue" points="535.395,-364.312 533.49,-374.734 541.479,-367.775 535.395,-364.312"/>
</g>
<!-- Node19&#45;&gt;Node17 -->
<g id="edge26" class="edge"><title>Node19&#45;&gt;Node17</title>
<path fill="none" stroke="midnightblue" d="M506.781,-369.095C487.394,-356.236 459.645,-337.831 443.507,-327.127"/>
<polygon fill="midnightblue" stroke="midnightblue" points="505.015,-372.123 515.283,-374.734 508.884,-366.29 505.015,-372.123"/>
</g>
<!-- Node19&#45;&gt;Node20 -->
<g id="edge27" class="edge"><title>Node19&#45;&gt;Node20</title>
<path fill="none" stroke="midnightblue" d="M581.053,-372.957C635.903,-361.953 722.197,-344.641 782.728,-332.497"/>
<polygon fill="midnightblue" stroke="midnightblue" points="580.307,-369.537 571.191,-374.936 581.684,-376.4 580.307,-369.537"/>
</g>
<!-- Node20&#45;&gt;Node14 -->
<g id="edge28" class="edge"><title>Node20&#45;&gt;Node14</title>
<path fill="none" stroke="midnightblue" d="M840.927,-293.222C822.428,-256.015 786.742,-184.237 771.586,-153.753"/>
<polygon fill="midnightblue" stroke="midnightblue" points="837.861,-294.918 845.447,-302.315 844.129,-291.802 837.861,-294.918"/>
</g>
</g>
</svg>
