<?xml version="1.0" encoding="UTF-8" standalone="no"?>
<!DOCTYPE svg PUBLIC "-//W3C//DTD SVG 1.1//EN"
 "http://www.w3.org/Graphics/SVG/1.1/DTD/svg11.dtd">
<!-- Generated by graphviz version 2.38.0 (20140413.2041)
 -->
<!-- Title: Cpl/Itc/ResponseMessage.h Pages: 1 -->
<svg width="719pt" height="397pt"
 viewBox="0.00 0.00 719.00 397.00" xmlns="http://www.w3.org/2000/svg" xmlns:xlink="http://www.w3.org/1999/xlink">
<g id="graph0" class="graph" transform="scale(1 1) rotate(0) translate(4 393)">
<title>Cpl/Itc/ResponseMessage.h</title>
<polygon fill="white" stroke="none" points="-4,4 -4,-393 715,-393 715,4 -4,4"/>
<!-- Node1 -->
<g id="node1" class="node"><title>Node1</title>
<g id="a_node1"><a xlink:title=" ">
<polygon fill="#bfbfbf" stroke="black" points="283.5,-369.5 283.5,-388.5 423.5,-388.5 423.5,-369.5 283.5,-369.5"/>
<text text-anchor="middle" x="353.5" y="-376.5" font-family="Helvetica,sans-Serif" font-size="10.00">Cpl/Itc/ResponseMessage.h</text>
</a>
</g>
</g>
<!-- Node2 -->
<g id="node2" class="node"><title>Node2</title>
<g id="a_node2"><a xlink:href="_erase_request_8h.html" target="_top" xlink:title=" ">
<polygon fill="white" stroke="black" points="0,-196 0,-215 169,-215 169,-196 0,-196"/>
<text text-anchor="middle" x="84.5" y="-203" font-family="Helvetica,sans-Serif" font-size="10.00">Cpl/Dm/Persistent/EraseRequest.h</text>
</a>
</g>
</g>
<!-- Node1&#45;&gt;Node2 -->
<g id="edge1" class="edge"><title>Node1&#45;&gt;Node2</title>
<path fill="none" stroke="midnightblue" d="M273.977,-367.448C217.22,-355.506 144.025,-330.231 103.5,-277 89.2178,-258.24 85.6595,-229.524 84.7813,-215.223"/>
<polygon fill="midnightblue" stroke="midnightblue" points="273.519,-370.926 284.012,-369.458 274.894,-364.062 273.519,-370.926"/>
</g>
<!-- Node7 -->
<g id="node7" class="node"><title>Node7</title>
<g id="a_node7"><a xlink:href="_flush_request_8h.html" target="_top" xlink:title=" ">
<polygon fill="white" stroke="black" points="113,-257.5 113,-276.5 280,-276.5 280,-257.5 113,-257.5"/>
<text text-anchor="middle" x="196.5" y="-264.5" font-family="Helvetica,sans-Serif" font-size="10.00">Cpl/Dm/Persistent/FlushRequest.h</text>
</a>
</g>
</g>
<!-- Node1&#45;&gt;Node7 -->
<g id="edge6" class="edge"><title>Node1&#45;&gt;Node7</title>
<path fill="none" stroke="midnightblue" d="M273.598,-366.958C251.575,-360.344 229.397,-349.8 213.5,-333 198.748,-317.411 196.42,-290.652 196.277,-276.833"/>
<polygon fill="midnightblue" stroke="midnightblue" points="272.774,-370.361 283.344,-369.643 274.633,-363.612 272.774,-370.361"/>
</g>
<!-- Node8 -->
<g id="node8" class="node"><title>Node8</title>
<g id="a_node8"><a xlink:href="_atomic_request_8h.html" target="_top" xlink:title=" ">
<polygon fill="white" stroke="black" points="223,-313.5 223,-332.5 346,-332.5 346,-313.5 223,-313.5"/>
<text text-anchor="middle" x="284.5" y="-320.5" font-family="Helvetica,sans-Serif" font-size="10.00">Cpl/Itc/AtomicRequest.h</text>
</a>
</g>
</g>
<!-- Node1&#45;&gt;Node8 -->
<g id="edge8" class="edge"><title>Node1&#45;&gt;Node8</title>
<path fill="none" stroke="midnightblue" d="M334.462,-363.101C322.044,-353.382 306.257,-341.027 295.788,-332.834"/>
<polygon fill="midnightblue" stroke="midnightblue" points="332.382,-365.917 342.414,-369.324 336.696,-360.405 332.382,-365.917"/>
</g>
<!-- Node10 -->
<g id="node10" class="node"><title>Node10</title>
<g id="a_node10"><a xlink:href="_close_request_8h.html" target="_top" xlink:title=" ">
<polygon fill="white" stroke="black" points="364,-313.5 364,-332.5 481,-332.5 481,-313.5 364,-313.5"/>
<text text-anchor="middle" x="422.5" y="-320.5" font-family="Helvetica,sans-Serif" font-size="10.00">Cpl/Itc/CloseRequest.h</text>
</a>
</g>
</g>
<!-- Node1&#45;&gt;Node10 -->
<g id="edge10" class="edge"><title>Node1&#45;&gt;Node10</title>
<path fill="none" stroke="midnightblue" d="M372.538,-363.101C384.956,-353.382 400.743,-341.027 411.212,-332.834"/>
<polygon fill="midnightblue" stroke="midnightblue" points="370.304,-360.405 364.586,-369.324 374.618,-365.917 370.304,-360.405"/>
</g>
<!-- Node15 -->
<g id="node15" class="node"><title>Node15</title>
<g id="a_node15"><a xlink:href="_open_request_8h.html" target="_top" xlink:title=" ">
<polygon fill="white" stroke="black" points="499.5,-313.5 499.5,-332.5 615.5,-332.5 615.5,-313.5 499.5,-313.5"/>
<text text-anchor="middle" x="557.5" y="-320.5" font-family="Helvetica,sans-Serif" font-size="10.00">Cpl/Itc/OpenRequest.h</text>
</a>
</g>
</g>
<!-- Node1&#45;&gt;Node15 -->
<g id="edge16" class="edge"><title>Node1&#45;&gt;Node15</title>
<path fill="none" stroke="midnightblue" d="M395.701,-366.829C434.218,-356.633 490.322,-341.782 525.327,-332.516"/>
<polygon fill="midnightblue" stroke="midnightblue" points="394.596,-363.501 385.824,-369.444 396.387,-370.268 394.596,-363.501"/>
</g>
<!-- Node17 -->
<g id="node17" class="node"><title>Node17</title>
<g id="a_node17"><a xlink:href="_indexed_entry_requests_8h.html" target="_top" xlink:title=" ">
<polygon fill="white" stroke="black" points="572,-190.5 572,-220.5 711,-220.5 711,-190.5 572,-190.5"/>
<text text-anchor="start" x="580" y="-208.5" font-family="Helvetica,sans-Serif" font-size="10.00">Cpl/Persistent/IndexedEntry</text>
<text text-anchor="middle" x="641.5" y="-197.5" font-family="Helvetica,sans-Serif" font-size="10.00">Requests.h</text>
</a>
</g>
</g>
<!-- Node1&#45;&gt;Node17 -->
<g id="edge19" class="edge"><title>Node1&#45;&gt;Node17</title>
<path fill="none" stroke="midnightblue" d="M433.939,-374.957C504.127,-370.52 598.672,-359.64 624.5,-333 654.115,-302.453 648.87,-246.57 644.397,-220.538"/>
<polygon fill="midnightblue" stroke="midnightblue" points="433.544,-371.474 423.771,-375.566 433.962,-378.462 433.544,-371.474"/>
</g>
<!-- Node3 -->
<g id="node3" class="node"><title>Node3</title>
<g id="a_node3"><a xlink:href="_dm_2_persistent_2_record_8h.html" target="_top" xlink:title=" ">
<polygon fill="white" stroke="black" points="128.5,-67.5 128.5,-86.5 266.5,-86.5 266.5,-67.5 128.5,-67.5"/>
<text text-anchor="middle" x="197.5" y="-74.5" font-family="Helvetica,sans-Serif" font-size="10.00">Cpl/Dm/Persistent/Record.h</text>
</a>
</g>
</g>
<!-- Node2&#45;&gt;Node3 -->
<g id="edge2" class="edge"><title>Node2&#45;&gt;Node3</title>
<path fill="none" stroke="midnightblue" d="M98.9485,-188.325C123.111,-161.276 170.914,-107.762 189.679,-86.7557"/>
<polygon fill="midnightblue" stroke="midnightblue" points="96.3187,-186.016 92.2669,-195.805 101.539,-190.679 96.3187,-186.016"/>
</g>
<!-- Node4 -->
<g id="node4" class="node"><title>Node4</title>
<g id="a_node4"><a xlink:href="_installer_record_8h_source.html" target="_top" xlink:title=" ">
<polygon fill="white" stroke="black" points="1,-0.5 1,-30.5 120,-30.5 120,-0.5 1,-0.5"/>
<text text-anchor="start" x="9" y="-18.5" font-family="Helvetica,sans-Serif" font-size="10.00">Storm/Thermostat/Main</text>
<text text-anchor="middle" x="60.5" y="-7.5" font-family="Helvetica,sans-Serif" font-size="10.00">/InstallerRecord.h</text>
</a>
</g>
</g>
<!-- Node3&#45;&gt;Node4 -->
<g id="edge3" class="edge"><title>Node3&#45;&gt;Node4</title>
<path fill="none" stroke="midnightblue" d="M168.628,-63.4605C146.437,-53.823 115.79,-40.5127 92.7882,-30.523"/>
<polygon fill="midnightblue" stroke="midnightblue" points="167.305,-66.7018 177.871,-67.4751 170.093,-60.2811 167.305,-66.7018"/>
</g>
<!-- Node5 -->
<g id="node5" class="node"><title>Node5</title>
<g id="a_node5"><a xlink:href="_run_time_record_8h_source.html" target="_top" xlink:title=" ">
<polygon fill="white" stroke="black" points="138,-0.5 138,-30.5 257,-30.5 257,-0.5 138,-0.5"/>
<text text-anchor="start" x="146" y="-18.5" font-family="Helvetica,sans-Serif" font-size="10.00">Storm/Thermostat/Main</text>
<text text-anchor="middle" x="197.5" y="-7.5" font-family="Helvetica,sans-Serif" font-size="10.00">/RunTimeRecord.h</text>
</a>
</g>
</g>
<!-- Node3&#45;&gt;Node5 -->
<g id="edge4" class="edge"><title>Node3&#45;&gt;Node5</title>
<path fill="none" stroke="midnightblue" d="M197.5,-57.2349C197.5,-48.5864 197.5,-38.4969 197.5,-30.523"/>
<polygon fill="midnightblue" stroke="midnightblue" points="194,-57.4751 197.5,-67.4751 201,-57.4751 194,-57.4751"/>
</g>
<!-- Node6 -->
<g id="node6" class="node"><title>Node6</title>
<g id="a_node6"><a xlink:href="_user_record_8h_source.html" target="_top" xlink:title=" ">
<polygon fill="white" stroke="black" points="275,-0.5 275,-30.5 394,-30.5 394,-0.5 275,-0.5"/>
<text text-anchor="start" x="283" y="-18.5" font-family="Helvetica,sans-Serif" font-size="10.00">Storm/Thermostat/Main</text>
<text text-anchor="middle" x="334.5" y="-7.5" font-family="Helvetica,sans-Serif" font-size="10.00">/UserRecord.h</text>
</a>
</g>
</g>
<!-- Node3&#45;&gt;Node6 -->
<g id="edge5" class="edge"><title>Node3&#45;&gt;Node6</title>
<path fill="none" stroke="midnightblue" d="M226.372,-63.4605C248.563,-53.823 279.21,-40.5127 302.212,-30.523"/>
<polygon fill="midnightblue" stroke="midnightblue" points="224.907,-60.2811 217.129,-67.4751 227.695,-66.7018 224.907,-60.2811"/>
</g>
<!-- Node7&#45;&gt;Node3 -->
<g id="edge7" class="edge"><title>Node7&#45;&gt;Node3</title>
<path fill="none" stroke="midnightblue" d="M196.6,-247.244C196.812,-207.31 197.302,-115.197 197.454,-86.6168"/>
<polygon fill="midnightblue" stroke="midnightblue" points="193.099,-247.415 196.546,-257.434 200.099,-247.452 193.099,-247.415"/>
</g>
<!-- Node9 -->
<g id="node9" class="node"><title>Node9</title>
<g id="a_node9"><a xlink:href="_atomic_sync_8h.html" target="_top" xlink:title=" ">
<polygon fill="white" stroke="black" points="298.5,-257.5 298.5,-276.5 408.5,-276.5 408.5,-257.5 298.5,-257.5"/>
<text text-anchor="middle" x="353.5" y="-264.5" font-family="Helvetica,sans-Serif" font-size="10.00">Cpl/Itc/AtomicSync.h</text>
</a>
</g>
</g>
<!-- Node8&#45;&gt;Node9 -->
<g id="edge9" class="edge"><title>Node8&#45;&gt;Node9</title>
<path fill="none" stroke="midnightblue" d="M303.538,-307.101C315.956,-297.382 331.743,-285.027 342.212,-276.834"/>
<polygon fill="midnightblue" stroke="midnightblue" points="301.304,-304.405 295.586,-313.324 305.618,-309.917 301.304,-304.405"/>
</g>
<!-- Node11 -->
<g id="node11" class="node"><title>Node11</title>
<g id="a_node11"><a xlink:href="_close_sync_8h.html" target="_top" xlink:title=" ">
<polygon fill="white" stroke="black" points="420.5,-196 420.5,-215 524.5,-215 524.5,-196 420.5,-196"/>
<text text-anchor="middle" x="472.5" y="-203" font-family="Helvetica,sans-Serif" font-size="10.00">Cpl/Itc/CloseSync.h</text>
</a>
</g>
</g>
<!-- Node10&#45;&gt;Node11 -->
<g id="edge11" class="edge"><title>Node10&#45;&gt;Node11</title>
<path fill="none" stroke="midnightblue" d="M430.36,-303.843C441.262,-278.659 460.55,-234.103 468.698,-215.282"/>
<polygon fill="midnightblue" stroke="midnightblue" points="427.019,-302.751 426.258,-313.319 433.443,-305.532 427.019,-302.751"/>
</g>
<!-- Node12 -->
<g id="node12" class="node"><title>Node12</title>
<g id="a_node12"><a xlink:href="_indexed_entry_server_8h.html" target="_top" xlink:title=" ">
<polygon fill="white" stroke="black" points="566,-123.5 566,-153.5 705,-153.5 705,-123.5 566,-123.5"/>
<text text-anchor="start" x="574" y="-141.5" font-family="Helvetica,sans-Serif" font-size="10.00">Cpl/Persistent/IndexedEntry</text>
<text text-anchor="middle" x="635.5" y="-130.5" font-family="Helvetica,sans-Serif" font-size="10.00">Server.h</text>
</a>
</g>
</g>
<!-- Node11&#45;&gt;Node12 -->
<g id="edge12" class="edge"><title>Node11&#45;&gt;Node12</title>
<path fill="none" stroke="midnightblue" d="M503.701,-192.058C531.313,-181.047 571.574,-164.992 600.322,-153.528"/>
<polygon fill="midnightblue" stroke="midnightblue" points="502.137,-188.913 494.145,-195.869 504.73,-195.415 502.137,-188.913"/>
</g>
<!-- Node13 -->
<g id="node13" class="node"><title>Node13</title>
<g id="a_node13"><a xlink:href="_record_server_8h.html" target="_top" xlink:title=" ">
<polygon fill="white" stroke="black" points="229,-129 229,-148 378,-148 378,-129 229,-129"/>
<text text-anchor="middle" x="303.5" y="-136" font-family="Helvetica,sans-Serif" font-size="10.00">Cpl/Persistent/RecordServer.h</text>
</a>
</g>
</g>
<!-- Node11&#45;&gt;Node13 -->
<g id="edge13" class="edge"><title>Node11&#45;&gt;Node13</title>
<path fill="none" stroke="midnightblue" d="M440.704,-192.271C407.162,-179.37 355.177,-159.376 325.766,-148.064"/>
<polygon fill="midnightblue" stroke="midnightblue" points="439.468,-195.545 450.058,-195.869 441.981,-189.012 439.468,-195.545"/>
</g>
<!-- Node14 -->
<g id="node14" class="node"><title>Node14</title>
<g id="a_node14"><a xlink:href="_algorithm_8h.html" target="_top" xlink:title=" ">
<polygon fill="white" stroke="black" points="398.5,-129 398.5,-148 546.5,-148 546.5,-129 398.5,-129"/>
<text text-anchor="middle" x="472.5" y="-136" font-family="Helvetica,sans-Serif" font-size="10.00">Storm/Thermostat/Algorithm.h</text>
</a>
</g>
</g>
<!-- Node11&#45;&gt;Node14 -->
<g id="edge15" class="edge"><title>Node11&#45;&gt;Node14</title>
<path fill="none" stroke="midnightblue" d="M472.5,-185.537C472.5,-173.17 472.5,-157.62 472.5,-148.127"/>
<polygon fill="midnightblue" stroke="midnightblue" points="469,-185.734 472.5,-195.734 476,-185.734 469,-185.734"/>
</g>
<!-- Node13&#45;&gt;Node3 -->
<g id="edge14" class="edge"><title>Node13&#45;&gt;Node3</title>
<path fill="none" stroke="midnightblue" d="M279.55,-124.056C259.037,-112.542 230.121,-96.3109 212.659,-86.5091"/>
<polygon fill="midnightblue" stroke="midnightblue" points="277.879,-127.132 288.313,-128.975 281.306,-121.028 277.879,-127.132"/>
</g>
<!-- Node16 -->
<g id="node16" class="node"><title>Node16</title>
<g id="a_node16"><a xlink:href="_open_sync_8h.html" target="_top" xlink:title=" ">
<polygon fill="white" stroke="black" points="500.5,-257.5 500.5,-276.5 602.5,-276.5 602.5,-257.5 500.5,-257.5"/>
<text text-anchor="middle" x="551.5" y="-264.5" font-family="Helvetica,sans-Serif" font-size="10.00">Cpl/Itc/OpenSync.h</text>
</a>
</g>
</g>
<!-- Node15&#45;&gt;Node16 -->
<g id="edge17" class="edge"><title>Node15&#45;&gt;Node16</title>
<path fill="none" stroke="midnightblue" d="M555.4,-303.101C554.404,-294.136 553.262,-283.858 552.472,-276.751"/>
<polygon fill="midnightblue" stroke="midnightblue" points="551.926,-303.531 556.509,-313.083 558.883,-302.758 551.926,-303.531"/>
</g>
<!-- Node16&#45;&gt;Node11 -->
<g id="edge18" class="edge"><title>Node16&#45;&gt;Node11</title>
<path fill="none" stroke="midnightblue" d="M531.974,-251.294C516.82,-239.88 496.343,-224.458 483.798,-215.009"/>
<polygon fill="midnightblue" stroke="midnightblue" points="530.088,-254.255 540.181,-257.475 534.299,-248.663 530.088,-254.255"/>
</g>
<!-- Node17&#45;&gt;Node12 -->
<g id="edge20" class="edge"><title>Node17&#45;&gt;Node12</title>
<path fill="none" stroke="midnightblue" d="M639.276,-180.403C638.442,-171.37 637.522,-161.408 636.799,-153.577"/>
<polygon fill="midnightblue" stroke="midnightblue" points="635.794,-180.76 640.198,-190.396 642.764,-180.117 635.794,-180.76"/>
</g>
</g>
</svg>
