<?xml version="1.0" encoding="UTF-8" standalone="no"?>
<!DOCTYPE svg PUBLIC "-//W3C//DTD SVG 1.1//EN"
 "http://www.w3.org/Graphics/SVG/1.1/DTD/svg11.dtd">
<!-- Generated by graphviz version 2.38.0 (20140413.2041)
 -->
<!-- Title: Cpl/Itc/ReturnHandler.h Pages: 1 -->
<svg width="1102pt" height="576pt"
 viewBox="0.00 0.00 1101.64 576.00" xmlns="http://www.w3.org/2000/svg" xmlns:xlink="http://www.w3.org/1999/xlink">
<g id="graph0" class="graph" transform="scale(1 1) rotate(0) translate(4 572)">
<title>Cpl/Itc/ReturnHandler.h</title>
<polygon fill="white" stroke="none" points="-4,4 -4,-572 1097.64,-572 1097.64,4 -4,4"/>
<!-- Node1 -->
<g id="node1" class="node"><title>Node1</title>
<g id="a_node1"><a xlink:title=" ">
<polygon fill="#bfbfbf" stroke="black" points="520.5,-548.5 520.5,-567.5 638.5,-567.5 638.5,-548.5 520.5,-548.5"/>
<text text-anchor="middle" x="579.5" y="-555.5" font-family="Helvetica,sans-Serif" font-size="10.00">Cpl/Itc/ReturnHandler.h</text>
</a>
</g>
</g>
<!-- Node2 -->
<g id="node2" class="node"><title>Node2</title>
<g id="a_node2"><a xlink:href="_async_return_handler_8h.html" target="_top" xlink:title=" ">
<polygon fill="white" stroke="black" points="302.5,-436.5 302.5,-455.5 448.5,-455.5 448.5,-436.5 302.5,-436.5"/>
<text text-anchor="middle" x="375.5" y="-443.5" font-family="Helvetica,sans-Serif" font-size="10.00">Cpl/Itc/AsyncReturnHandler.h</text>
</a>
</g>
</g>
<!-- Node1&#45;&gt;Node2 -->
<g id="edge1" class="edge"><title>Node1&#45;&gt;Node2</title>
<path fill="none" stroke="midnightblue" d="M539.473,-545.332C515.489,-537.537 484.836,-526.128 459.5,-512 429.867,-495.476 399.437,-469.126 384.664,-455.611"/>
<polygon fill="midnightblue" stroke="midnightblue" points="538.718,-548.765 549.308,-548.449 540.833,-542.092 538.718,-548.765"/>
</g>
<!-- Node20 -->
<g id="node20" class="node"><title>Node20</title>
<g id="a_node20"><a xlink:href="_null_return_handler_8h.html" target="_top" xlink:title=" ">
<polygon fill="white" stroke="black" points="654.5,-492.5 654.5,-511.5 788.5,-511.5 788.5,-492.5 654.5,-492.5"/>
<text text-anchor="middle" x="721.5" y="-499.5" font-family="Helvetica,sans-Serif" font-size="10.00">Cpl/Itc/NullReturnHandler.h</text>
</a>
</g>
</g>
<!-- Node1&#45;&gt;Node20 -->
<g id="edge23" class="edge"><title>Node1&#45;&gt;Node20</title>
<path fill="none" stroke="midnightblue" d="M611.655,-544.772C638.328,-534.629 675.569,-520.467 699.105,-511.516"/>
<polygon fill="midnightblue" stroke="midnightblue" points="610.103,-541.618 602,-548.444 612.591,-548.16 610.103,-541.618"/>
</g>
<!-- Node21 -->
<g id="node21" class="node"><title>Node21</title>
<g id="a_node21"><a xlink:href="_service_message_8h.html" target="_top" xlink:title=" ">
<polygon fill="white" stroke="black" points="469,-492.5 469,-511.5 598,-511.5 598,-492.5 469,-492.5"/>
<text text-anchor="middle" x="533.5" y="-499.5" font-family="Helvetica,sans-Serif" font-size="10.00">Cpl/Itc/ServiceMessage.h</text>
</a>
</g>
</g>
<!-- Node1&#45;&gt;Node21 -->
<g id="edge24" class="edge"><title>Node1&#45;&gt;Node21</title>
<path fill="none" stroke="midnightblue" d="M565.386,-540.431C557.324,-530.967 547.541,-519.483 540.955,-511.751"/>
<polygon fill="midnightblue" stroke="midnightblue" points="562.755,-542.74 571.904,-548.083 568.084,-538.201 562.755,-542.74"/>
</g>
<!-- Node25 -->
<g id="node25" class="node"><title>Node25</title>
<g id="a_node25"><a xlink:href="_sync_return_handler_8h.html" target="_top" xlink:title=" ">
<polygon fill="white" stroke="black" points="790.5,-375 790.5,-394 930.5,-394 930.5,-375 790.5,-375"/>
<text text-anchor="middle" x="860.5" y="-382" font-family="Helvetica,sans-Serif" font-size="10.00">Cpl/Itc/SyncReturnHandler.h</text>
</a>
</g>
</g>
<!-- Node1&#45;&gt;Node25 -->
<g id="edge35" class="edge"><title>Node1&#45;&gt;Node25</title>
<path fill="none" stroke="midnightblue" d="M593.789,-540.196C606.384,-526.096 625.756,-506.061 645.5,-492 709.797,-446.21 796.713,-409.854 837.53,-394.056"/>
<polygon fill="midnightblue" stroke="midnightblue" points="590.824,-538.269 586.88,-548.102 596.095,-542.875 590.824,-538.269"/>
</g>
<!-- Node3 -->
<g id="node3" class="node"><title>Node3</title>
<g id="a_node3"><a xlink:href="_response_message_8h.html" target="_top" xlink:title=" ">
<polygon fill="white" stroke="black" points="310.5,-375 310.5,-394 450.5,-394 450.5,-375 310.5,-375"/>
<text text-anchor="middle" x="380.5" y="-382" font-family="Helvetica,sans-Serif" font-size="10.00">Cpl/Itc/ResponseMessage.h</text>
</a>
</g>
</g>
<!-- Node2&#45;&gt;Node3 -->
<g id="edge2" class="edge"><title>Node2&#45;&gt;Node3</title>
<path fill="none" stroke="midnightblue" d="M377.07,-426.317C377.979,-415.496 379.08,-402.398 379.785,-394.009"/>
<polygon fill="midnightblue" stroke="midnightblue" points="373.566,-426.217 376.216,-436.475 380.542,-426.803 373.566,-426.217"/>
</g>
<!-- Node4 -->
<g id="node4" class="node"><title>Node4</title>
<g id="a_node4"><a xlink:href="_erase_request_8h.html" target="_top" xlink:title=" ">
<polygon fill="white" stroke="black" points="612,-308 612,-327 781,-327 781,-308 612,-308"/>
<text text-anchor="middle" x="696.5" y="-315" font-family="Helvetica,sans-Serif" font-size="10.00">Cpl/Dm/Persistent/EraseRequest.h</text>
</a>
</g>
</g>
<!-- Node3&#45;&gt;Node4 -->
<g id="edge3" class="edge"><title>Node3&#45;&gt;Node4</title>
<path fill="none" stroke="midnightblue" d="M432.133,-372.879C494.371,-360.077 597.718,-338.819 655.023,-327.032"/>
<polygon fill="midnightblue" stroke="midnightblue" points="431.226,-369.492 422.136,-374.936 432.637,-376.349 431.226,-369.492"/>
</g>
<!-- Node9 -->
<g id="node9" class="node"><title>Node9</title>
<g id="a_node9"><a xlink:href="_flush_request_8h.html" target="_top" xlink:title=" ">
<polygon fill="white" stroke="black" points="0,-308 0,-327 167,-327 167,-308 0,-308"/>
<text text-anchor="middle" x="83.5" y="-315" font-family="Helvetica,sans-Serif" font-size="10.00">Cpl/Dm/Persistent/FlushRequest.h</text>
</a>
</g>
</g>
<!-- Node3&#45;&gt;Node9 -->
<g id="edge8" class="edge"><title>Node3&#45;&gt;Node9</title>
<path fill="none" stroke="midnightblue" d="M331.26,-372.724C272.777,-359.924 176.408,-338.833 122.72,-327.083"/>
<polygon fill="midnightblue" stroke="midnightblue" points="330.85,-376.217 341.367,-374.936 332.347,-369.378 330.85,-376.217"/>
</g>
<!-- Node10 -->
<g id="node10" class="node"><title>Node10</title>
<g id="a_node10"><a xlink:href="_atomic_request_8h.html" target="_top" xlink:title=" ">
<polygon fill="white" stroke="black" points="799,-308 799,-327 922,-327 922,-308 799,-308"/>
<text text-anchor="middle" x="860.5" y="-315" font-family="Helvetica,sans-Serif" font-size="10.00">Cpl/Itc/AtomicRequest.h</text>
</a>
</g>
</g>
<!-- Node3&#45;&gt;Node10 -->
<g id="edge10" class="edge"><title>Node3&#45;&gt;Node10</title>
<path fill="none" stroke="midnightblue" d="M460.653,-375.487C543.305,-366.782 675.798,-351.6 789.5,-333 799.929,-331.294 811.159,-329.146 821.54,-327.031"/>
<polygon fill="midnightblue" stroke="midnightblue" points="460.157,-372.019 450.576,-376.542 460.886,-378.981 460.157,-372.019"/>
</g>
<!-- Node12 -->
<g id="node12" class="node"><title>Node12</title>
<g id="a_node12"><a xlink:href="_close_request_8h.html" target="_top" xlink:title=" ">
<polygon fill="white" stroke="black" points="185,-308 185,-327 302,-327 302,-308 185,-308"/>
<text text-anchor="middle" x="243.5" y="-315" font-family="Helvetica,sans-Serif" font-size="10.00">Cpl/Itc/CloseRequest.h</text>
</a>
</g>
</g>
<!-- Node3&#45;&gt;Node12 -->
<g id="edge12" class="edge"><title>Node3&#45;&gt;Node12</title>
<path fill="none" stroke="midnightblue" d="M352.981,-370.444C325.846,-357.569 285.142,-338.257 261.768,-327.167"/>
<polygon fill="midnightblue" stroke="midnightblue" points="351.772,-373.744 362.307,-374.869 354.773,-367.42 351.772,-373.744"/>
</g>
<!-- Node17 -->
<g id="node17" class="node"><title>Node17</title>
<g id="a_node17"><a xlink:href="_open_request_8h.html" target="_top" xlink:title=" ">
<polygon fill="white" stroke="black" points="320.5,-308 320.5,-327 436.5,-327 436.5,-308 320.5,-308"/>
<text text-anchor="middle" x="378.5" y="-315" font-family="Helvetica,sans-Serif" font-size="10.00">Cpl/Itc/OpenRequest.h</text>
</a>
</g>
</g>
<!-- Node3&#45;&gt;Node17 -->
<g id="edge18" class="edge"><title>Node3&#45;&gt;Node17</title>
<path fill="none" stroke="midnightblue" d="M379.917,-364.537C379.536,-352.17 379.058,-336.62 378.765,-327.127"/>
<polygon fill="midnightblue" stroke="midnightblue" points="376.424,-364.846 380.23,-374.734 383.421,-364.631 376.424,-364.846"/>
</g>
<!-- Node19 -->
<g id="node19" class="node"><title>Node19</title>
<g id="a_node19"><a xlink:href="_indexed_entry_requests_8h.html" target="_top" xlink:title=" ">
<polygon fill="white" stroke="black" points="455,-302.5 455,-332.5 594,-332.5 594,-302.5 455,-302.5"/>
<text text-anchor="start" x="463" y="-320.5" font-family="Helvetica,sans-Serif" font-size="10.00">Cpl/Persistent/IndexedEntry</text>
<text text-anchor="middle" x="524.5" y="-309.5" font-family="Helvetica,sans-Serif" font-size="10.00">Requests.h</text>
</a>
</g>
</g>
<!-- Node3&#45;&gt;Node19 -->
<g id="edge21" class="edge"><title>Node3&#45;&gt;Node19</title>
<path fill="none" stroke="midnightblue" d="M409.033,-370.621C433.392,-359.625 468.359,-343.841 493.422,-332.528"/>
<polygon fill="midnightblue" stroke="midnightblue" points="407.297,-367.564 399.622,-374.869 410.177,-373.944 407.297,-367.564"/>
</g>
<!-- Node5 -->
<g id="node5" class="node"><title>Node5</title>
<g id="a_node5"><a xlink:href="_dm_2_persistent_2_record_8h.html" target="_top" xlink:title=" ">
<polygon fill="white" stroke="black" points="293.5,-67.5 293.5,-86.5 431.5,-86.5 431.5,-67.5 293.5,-67.5"/>
<text text-anchor="middle" x="362.5" y="-74.5" font-family="Helvetica,sans-Serif" font-size="10.00">Cpl/Dm/Persistent/Record.h</text>
</a>
</g>
</g>
<!-- Node4&#45;&gt;Node5 -->
<g id="edge4" class="edge"><title>Node4&#45;&gt;Node5</title>
<path fill="none" stroke="midnightblue" d="M693.203,-297.818C685.246,-258.627 661.134,-167.756 602.5,-123 576.216,-102.937 492.844,-90.6156 431.721,-84.0508"/>
<polygon fill="midnightblue" stroke="midnightblue" points="689.799,-298.649 695.105,-307.819 696.675,-297.342 689.799,-298.649"/>
</g>
<!-- Node6 -->
<g id="node6" class="node"><title>Node6</title>
<g id="a_node6"><a xlink:href="_installer_record_8h_source.html" target="_top" xlink:title=" ">
<polygon fill="white" stroke="black" points="166,-0.5 166,-30.5 285,-30.5 285,-0.5 166,-0.5"/>
<text text-anchor="start" x="174" y="-18.5" font-family="Helvetica,sans-Serif" font-size="10.00">Storm/Thermostat/Main</text>
<text text-anchor="middle" x="225.5" y="-7.5" font-family="Helvetica,sans-Serif" font-size="10.00">/InstallerRecord.h</text>
</a>
</g>
</g>
<!-- Node5&#45;&gt;Node6 -->
<g id="edge5" class="edge"><title>Node5&#45;&gt;Node6</title>
<path fill="none" stroke="midnightblue" d="M333.628,-63.4605C311.437,-53.823 280.79,-40.5127 257.788,-30.523"/>
<polygon fill="midnightblue" stroke="midnightblue" points="332.305,-66.7018 342.871,-67.4751 335.093,-60.2811 332.305,-66.7018"/>
</g>
<!-- Node7 -->
<g id="node7" class="node"><title>Node7</title>
<g id="a_node7"><a xlink:href="_run_time_record_8h_source.html" target="_top" xlink:title=" ">
<polygon fill="white" stroke="black" points="303,-0.5 303,-30.5 422,-30.5 422,-0.5 303,-0.5"/>
<text text-anchor="start" x="311" y="-18.5" font-family="Helvetica,sans-Serif" font-size="10.00">Storm/Thermostat/Main</text>
<text text-anchor="middle" x="362.5" y="-7.5" font-family="Helvetica,sans-Serif" font-size="10.00">/RunTimeRecord.h</text>
</a>
</g>
</g>
<!-- Node5&#45;&gt;Node7 -->
<g id="edge6" class="edge"><title>Node5&#45;&gt;Node7</title>
<path fill="none" stroke="midnightblue" d="M362.5,-57.2349C362.5,-48.5864 362.5,-38.4969 362.5,-30.523"/>
<polygon fill="midnightblue" stroke="midnightblue" points="359,-57.4751 362.5,-67.4751 366,-57.4751 359,-57.4751"/>
</g>
<!-- Node8 -->
<g id="node8" class="node"><title>Node8</title>
<g id="a_node8"><a xlink:href="_user_record_8h_source.html" target="_top" xlink:title=" ">
<polygon fill="white" stroke="black" points="440,-0.5 440,-30.5 559,-30.5 559,-0.5 440,-0.5"/>
<text text-anchor="start" x="448" y="-18.5" font-family="Helvetica,sans-Serif" font-size="10.00">Storm/Thermostat/Main</text>
<text text-anchor="middle" x="499.5" y="-7.5" font-family="Helvetica,sans-Serif" font-size="10.00">/UserRecord.h</text>
</a>
</g>
</g>
<!-- Node5&#45;&gt;Node8 -->
<g id="edge7" class="edge"><title>Node5&#45;&gt;Node8</title>
<path fill="none" stroke="midnightblue" d="M391.372,-63.4605C413.563,-53.823 444.21,-40.5127 467.212,-30.523"/>
<polygon fill="midnightblue" stroke="midnightblue" points="389.907,-60.2811 382.129,-67.4751 392.695,-66.7018 389.907,-60.2811"/>
</g>
<!-- Node9&#45;&gt;Node5 -->
<g id="edge9" class="edge"><title>Node9&#45;&gt;Node5</title>
<path fill="none" stroke="midnightblue" d="M79.8652,-297.318C73.7392,-258.591 66.1761,-170.703 112.5,-123 137.04,-97.7295 228.304,-86.4745 293.462,-81.5835"/>
<polygon fill="midnightblue" stroke="midnightblue" points="76.5013,-298.405 81.6589,-307.659 83.3983,-297.208 76.5013,-298.405"/>
</g>
<!-- Node11 -->
<g id="node11" class="node"><title>Node11</title>
<g id="a_node11"><a xlink:href="_atomic_sync_8h.html" target="_top" xlink:title=" ">
<polygon fill="white" stroke="black" points="928.5,-246.5 928.5,-265.5 1038.5,-265.5 1038.5,-246.5 928.5,-246.5"/>
<text text-anchor="middle" x="983.5" y="-253.5" font-family="Helvetica,sans-Serif" font-size="10.00">Cpl/Itc/AtomicSync.h</text>
</a>
</g>
</g>
<!-- Node10&#45;&gt;Node11 -->
<g id="edge11" class="edge"><title>Node10&#45;&gt;Node11</title>
<path fill="none" stroke="midnightblue" d="M887.331,-303.521C911.185,-291.982 945.373,-275.443 965.91,-265.509"/>
<polygon fill="midnightblue" stroke="midnightblue" points="885.601,-300.47 878.123,-307.975 888.649,-306.771 885.601,-300.47"/>
</g>
<!-- Node13 -->
<g id="node13" class="node"><title>Node13</title>
<g id="a_node13"><a xlink:href="_close_sync_8h.html" target="_top" xlink:title=" ">
<polygon fill="white" stroke="black" points="310.5,-190.5 310.5,-209.5 414.5,-209.5 414.5,-190.5 310.5,-190.5"/>
<text text-anchor="middle" x="362.5" y="-197.5" font-family="Helvetica,sans-Serif" font-size="10.00">Cpl/Itc/CloseSync.h</text>
</a>
</g>
</g>
<!-- Node12&#45;&gt;Node13 -->
<g id="edge13" class="edge"><title>Node12&#45;&gt;Node13</title>
<path fill="none" stroke="midnightblue" d="M258.023,-300.34C271.314,-285.766 291.713,-263.932 310.5,-246 324.318,-232.811 341.176,-218.53 351.876,-209.674"/>
<polygon fill="midnightblue" stroke="midnightblue" points="255.206,-298.237 251.085,-307.997 260.393,-302.937 255.206,-298.237"/>
</g>
<!-- Node14 -->
<g id="node14" class="node"><title>Node14</title>
<g id="a_node14"><a xlink:href="_indexed_entry_server_8h.html" target="_top" xlink:title=" ">
<polygon fill="white" stroke="black" points="455,-123.5 455,-153.5 594,-153.5 594,-123.5 455,-123.5"/>
<text text-anchor="start" x="463" y="-141.5" font-family="Helvetica,sans-Serif" font-size="10.00">Cpl/Persistent/IndexedEntry</text>
<text text-anchor="middle" x="524.5" y="-130.5" font-family="Helvetica,sans-Serif" font-size="10.00">Server.h</text>
</a>
</g>
</g>
<!-- Node13&#45;&gt;Node14 -->
<g id="edge14" class="edge"><title>Node13&#45;&gt;Node14</title>
<path fill="none" stroke="midnightblue" d="M395.239,-186.976C421.578,-177.302 458.633,-163.692 486.32,-153.523"/>
<polygon fill="midnightblue" stroke="midnightblue" points="393.891,-183.742 385.711,-190.475 396.304,-190.313 393.891,-183.742"/>
</g>
<!-- Node15 -->
<g id="node15" class="node"><title>Node15</title>
<g id="a_node15"><a xlink:href="_record_server_8h.html" target="_top" xlink:title=" ">
<polygon fill="white" stroke="black" points="288,-129 288,-148 437,-148 437,-129 288,-129"/>
<text text-anchor="middle" x="362.5" y="-136" font-family="Helvetica,sans-Serif" font-size="10.00">Cpl/Persistent/RecordServer.h</text>
</a>
</g>
</g>
<!-- Node13&#45;&gt;Node15 -->
<g id="edge15" class="edge"><title>Node13&#45;&gt;Node15</title>
<path fill="none" stroke="midnightblue" d="M362.5,-180.317C362.5,-169.496 362.5,-156.398 362.5,-148.009"/>
<polygon fill="midnightblue" stroke="midnightblue" points="359,-180.475 362.5,-190.475 366,-180.475 359,-180.475"/>
</g>
<!-- Node16 -->
<g id="node16" class="node"><title>Node16</title>
<g id="a_node16"><a xlink:href="_algorithm_8h.html" target="_top" xlink:title=" ">
<polygon fill="white" stroke="black" points="121.5,-129 121.5,-148 269.5,-148 269.5,-129 121.5,-129"/>
<text text-anchor="middle" x="195.5" y="-136" font-family="Helvetica,sans-Serif" font-size="10.00">Storm/Thermostat/Algorithm.h</text>
</a>
</g>
</g>
<!-- Node13&#45;&gt;Node16 -->
<g id="edge17" class="edge"><title>Node13&#45;&gt;Node16</title>
<path fill="none" stroke="midnightblue" d="M329.052,-187.083C296.59,-175.517 248.133,-158.252 219.383,-148.009"/>
<polygon fill="midnightblue" stroke="midnightblue" points="327.978,-190.416 338.573,-190.475 330.328,-183.822 327.978,-190.416"/>
</g>
<!-- Node15&#45;&gt;Node5 -->
<g id="edge16" class="edge"><title>Node15&#45;&gt;Node5</title>
<path fill="none" stroke="midnightblue" d="M362.5,-118.817C362.5,-107.996 362.5,-94.898 362.5,-86.5091"/>
<polygon fill="midnightblue" stroke="midnightblue" points="359,-118.975 362.5,-128.975 366,-118.975 359,-118.975"/>
</g>
<!-- Node18 -->
<g id="node18" class="node"><title>Node18</title>
<g id="a_node18"><a xlink:href="_open_sync_8h.html" target="_top" xlink:title=" ">
<polygon fill="white" stroke="black" points="319.5,-246.5 319.5,-265.5 421.5,-265.5 421.5,-246.5 319.5,-246.5"/>
<text text-anchor="middle" x="370.5" y="-253.5" font-family="Helvetica,sans-Serif" font-size="10.00">Cpl/Itc/OpenSync.h</text>
</a>
</g>
</g>
<!-- Node17&#45;&gt;Node18 -->
<g id="edge19" class="edge"><title>Node17&#45;&gt;Node18</title>
<path fill="none" stroke="midnightblue" d="M375.988,-297.817C374.533,-286.996 372.772,-273.898 371.644,-265.509"/>
<polygon fill="midnightblue" stroke="midnightblue" points="372.552,-298.531 377.354,-307.975 379.49,-297.598 372.552,-298.531"/>
</g>
<!-- Node18&#45;&gt;Node13 -->
<g id="edge20" class="edge"><title>Node18&#45;&gt;Node13</title>
<path fill="none" stroke="midnightblue" d="M367.7,-236.101C366.372,-227.136 364.849,-216.858 363.796,-209.751"/>
<polygon fill="midnightblue" stroke="midnightblue" points="364.251,-236.704 369.179,-246.083 371.176,-235.678 364.251,-236.704"/>
</g>
<!-- Node19&#45;&gt;Node14 -->
<g id="edge22" class="edge"><title>Node19&#45;&gt;Node14</title>
<path fill="none" stroke="midnightblue" d="M524.5,-292.265C524.5,-254.796 524.5,-183.978 524.5,-153.753"/>
<polygon fill="midnightblue" stroke="midnightblue" points="521,-292.315 524.5,-302.315 528,-292.315 521,-292.315"/>
</g>
<!-- Node22 -->
<g id="node22" class="node"><title>Node22</title>
<g id="a_node22"><a xlink:href="_request_message_8h.html" target="_top" xlink:title=" ">
<polygon fill="white" stroke="black" points="466.5,-436.5 466.5,-455.5 598.5,-455.5 598.5,-436.5 466.5,-436.5"/>
<text text-anchor="middle" x="532.5" y="-443.5" font-family="Helvetica,sans-Serif" font-size="10.00">Cpl/Itc/RequestMessage.h</text>
</a>
</g>
</g>
<!-- Node21&#45;&gt;Node22 -->
<g id="edge25" class="edge"><title>Node21&#45;&gt;Node22</title>
<path fill="none" stroke="midnightblue" d="M533.145,-481.805C532.98,-472.91 532.792,-462.78 532.662,-455.751"/>
<polygon fill="midnightblue" stroke="midnightblue" points="529.65,-482.15 533.335,-492.083 536.649,-482.02 529.65,-482.15"/>
</g>
<!-- Node22&#45;&gt;Node3 -->
<g id="edge33" class="edge"><title>Node22&#45;&gt;Node3</title>
<path fill="none" stroke="midnightblue" d="M501.289,-432.782C471.751,-421.22 428.18,-404.164 402.237,-394.009"/>
<polygon fill="midnightblue" stroke="midnightblue" points="500.134,-436.089 510.722,-436.475 502.686,-429.571 500.134,-436.089"/>
</g>
<!-- Node22&#45;&gt;Node4 -->
<g id="edge26" class="edge"><title>Node22&#45;&gt;Node4</title>
<path fill="none" stroke="midnightblue" d="M542.378,-427.643C552.635,-410.866 570.031,-385.612 590.5,-369 614.558,-349.475 647.416,-335.332 670.143,-327.064"/>
<polygon fill="midnightblue" stroke="midnightblue" points="539.27,-426.023 537.195,-436.413 545.296,-429.585 539.27,-426.023"/>
</g>
<!-- Node22&#45;&gt;Node9 -->
<g id="edge27" class="edge"><title>Node22&#45;&gt;Node9</title>
<path fill="none" stroke="midnightblue" d="M462.006,-435.051C396.184,-425.395 302.935,-410.674 267.5,-400 202.601,-380.451 130.397,-343.727 99.23,-327.086"/>
<polygon fill="midnightblue" stroke="midnightblue" points="461.514,-438.516 471.914,-436.497 462.525,-431.59 461.514,-438.516"/>
</g>
<!-- Node22&#45;&gt;Node10 -->
<g id="edge30" class="edge"><title>Node22&#45;&gt;Node10</title>
<path fill="none" stroke="midnightblue" d="M552.272,-430.277C563.632,-421.666 578.067,-410.463 590.5,-400 606.146,-386.833 606.315,-378.353 624.5,-369 628.855,-366.76 752.773,-340.847 819.257,-327.04"/>
<polygon fill="midnightblue" stroke="midnightblue" points="550.154,-427.49 544.269,-436.301 554.364,-433.083 550.154,-427.49"/>
</g>
<!-- Node22&#45;&gt;Node12 -->
<g id="edge31" class="edge"><title>Node22&#45;&gt;Node12</title>
<path fill="none" stroke="midnightblue" d="M467.656,-434.894C404.307,-424.617 315.417,-408.967 301.5,-400 273.032,-381.659 254.281,-343.972 246.961,-327.053"/>
<polygon fill="midnightblue" stroke="midnightblue" points="467.159,-438.359 477.589,-436.495 468.274,-431.448 467.159,-438.359"/>
</g>
<!-- Node22&#45;&gt;Node17 -->
<g id="edge32" class="edge"><title>Node22&#45;&gt;Node17</title>
<path fill="none" stroke="midnightblue" d="M518.632,-428.313C504.673,-412.087 482.038,-387.282 459.5,-369 438.651,-352.088 411.752,-336.357 394.81,-327.085"/>
<polygon fill="midnightblue" stroke="midnightblue" points="516.304,-430.98 525.438,-436.348 521.646,-426.455 516.304,-430.98"/>
</g>
<!-- Node22&#45;&gt;Node19 -->
<g id="edge34" class="edge"><title>Node22&#45;&gt;Node19</title>
<path fill="none" stroke="midnightblue" d="M531.305,-426.108C529.694,-400.629 526.86,-355.811 525.41,-332.888"/>
<polygon fill="midnightblue" stroke="midnightblue" points="527.826,-426.546 531.95,-436.305 534.812,-426.104 527.826,-426.546"/>
</g>
<!-- Node23 -->
<g id="node23" class="node"><title>Node23</title>
<g id="a_node23"><a xlink:href="_listener_client_request_8h.html" target="_top" xlink:title=" ">
<polygon fill="white" stroke="black" points="633.5,-369.5 633.5,-399.5 771.5,-399.5 771.5,-369.5 633.5,-369.5"/>
<text text-anchor="start" x="641.5" y="-387.5" font-family="Helvetica,sans-Serif" font-size="10.00">Cpl/Io/Socket/ListenerClient</text>
<text text-anchor="middle" x="702.5" y="-376.5" font-family="Helvetica,sans-Serif" font-size="10.00">Request.h</text>
</a>
</g>
</g>
<!-- Node22&#45;&gt;Node23 -->
<g id="edge28" class="edge"><title>Node22&#45;&gt;Node23</title>
<path fill="none" stroke="midnightblue" d="M566.491,-433.103C594.153,-423.422 633.252,-409.737 662.434,-399.523"/>
<polygon fill="midnightblue" stroke="midnightblue" points="565.139,-429.868 556.857,-436.475 567.452,-436.475 565.139,-429.868"/>
</g>
<!-- Node24 -->
<g id="node24" class="node"><title>Node24</title>
<g id="a_node24"><a xlink:href="_listener_client_sync_8h.html" target="_top" xlink:title=" ">
<polygon fill="white" stroke="black" points="940.5,-302.5 940.5,-332.5 1078.5,-332.5 1078.5,-302.5 940.5,-302.5"/>
<text text-anchor="start" x="948.5" y="-320.5" font-family="Helvetica,sans-Serif" font-size="10.00">Cpl/Io/Socket/ListenerClient</text>
<text text-anchor="middle" x="1009.5" y="-309.5" font-family="Helvetica,sans-Serif" font-size="10.00">Sync.h</text>
</a>
</g>
</g>
<!-- Node23&#45;&gt;Node24 -->
<g id="edge29" class="edge"><title>Node23&#45;&gt;Node24</title>
<path fill="none" stroke="midnightblue" d="M778.625,-367.382C829.122,-356.691 894.747,-342.796 943.118,-332.555"/>
<polygon fill="midnightblue" stroke="midnightblue" points="777.795,-363.98 768.736,-369.476 779.245,-370.829 777.795,-363.98"/>
</g>
<!-- Node25&#45;&gt;Node10 -->
<g id="edge36" class="edge"><title>Node25&#45;&gt;Node10</title>
<path fill="none" stroke="midnightblue" d="M860.5,-364.537C860.5,-352.17 860.5,-336.62 860.5,-327.127"/>
<polygon fill="midnightblue" stroke="midnightblue" points="857,-364.734 860.5,-374.734 864,-364.734 857,-364.734"/>
</g>
<!-- Node25&#45;&gt;Node11 -->
<g id="edge37" class="edge"><title>Node25&#45;&gt;Node11</title>
<path fill="none" stroke="midnightblue" d="M940.863,-376.17C998.525,-369.053 1069.15,-355.878 1087.5,-333 1096.12,-322.252 1095.06,-313.515 1087.5,-302 1074.97,-282.926 1052.44,-271.899 1031.55,-265.542"/>
<polygon fill="midnightblue" stroke="midnightblue" points="940.147,-372.731 930.631,-377.388 940.974,-379.682 940.147,-372.731"/>
</g>
</g>
</svg>
