<?xml version="1.0" encoding="UTF-8" standalone="no"?>
<!DOCTYPE svg PUBLIC "-//W3C//DTD SVG 1.1//EN"
 "http://www.w3.org/Graphics/SVG/1.1/DTD/svg11.dtd">
<!-- Generated by graphviz version 2.38.0 (20140413.2041)
 -->
<!-- Title: Cpl/Container/RingBuffer.h Pages: 1 -->
<svg width="804pt" height="285pt"
 viewBox="0.00 0.00 804.00 285.00" xmlns="http://www.w3.org/2000/svg" xmlns:xlink="http://www.w3.org/1999/xlink">
<g id="graph0" class="graph" transform="scale(1 1) rotate(0) translate(4 281)">
<title>Cpl/Container/RingBuffer.h</title>
<polygon fill="white" stroke="none" points="-4,4 -4,-281 800,-281 800,4 -4,4"/>
<!-- Node1 -->
<g id="node1" class="node"><title>Node1</title>
<g id="a_node1"><a xlink:title=" ">
<polygon fill="#bfbfbf" stroke="black" points="293.5,-257.5 293.5,-276.5 425.5,-276.5 425.5,-257.5 293.5,-257.5"/>
<text text-anchor="middle" x="359.5" y="-264.5" font-family="Helvetica,sans-Serif" font-size="10.00">Cpl/Container/RingBuffer.h</text>
</a>
</g>
</g>
<!-- Node2 -->
<g id="node2" class="node"><title>Node2</title>
<g id="a_node2"><a xlink:href="_ring_buffer_m_t_8h.html" target="_top" xlink:title=" ">
<polygon fill="white" stroke="black" points="0.5,-196 0.5,-215 146.5,-215 146.5,-196 0.5,-196"/>
<text text-anchor="middle" x="73.5" y="-203" font-family="Helvetica,sans-Serif" font-size="10.00">Cpl/Container/RingBufferMT.h</text>
</a>
</g>
</g>
<!-- Node1&#45;&gt;Node2 -->
<g id="edge1" class="edge"><title>Node1&#45;&gt;Node2</title>
<path fill="none" stroke="midnightblue" d="M308.56,-255.402C253.113,-243.867 165.548,-225.65 114.401,-215.009"/>
<polygon fill="midnightblue" stroke="midnightblue" points="308.02,-258.865 318.523,-257.475 309.446,-252.012 308.02,-258.865"/>
</g>
<!-- Node5 -->
<g id="node5" class="node"><title>Node5</title>
<g id="a_node5"><a xlink:href="_ram_2_input_output_8h.html" target="_top" xlink:title=" ">
<polygon fill="white" stroke="black" points="164.5,-196 164.5,-215 292.5,-215 292.5,-196 164.5,-196"/>
<text text-anchor="middle" x="228.5" y="-203" font-family="Helvetica,sans-Serif" font-size="10.00">Cpl/Io/Ram/InputOutput.h</text>
</a>
</g>
</g>
<!-- Node1&#45;&gt;Node5 -->
<g id="edge4" class="edge"><title>Node1&#45;&gt;Node5</title>
<path fill="none" stroke="midnightblue" d="M331.598,-253.327C306.167,-241.776 269.301,-225.032 247.234,-215.009"/>
<polygon fill="midnightblue" stroke="midnightblue" points="330.179,-256.526 340.731,-257.475 333.073,-250.153 330.179,-256.526"/>
</g>
<!-- Node6 -->
<g id="node6" class="node"><title>Node6</title>
<g id="a_node6"><a xlink:href="_receiver_8h.html" target="_top" xlink:title=" ">
<polygon fill="white" stroke="black" points="310.5,-190.5 310.5,-220.5 408.5,-220.5 408.5,-190.5 310.5,-190.5"/>
<text text-anchor="start" x="318.5" y="-208.5" font-family="Helvetica,sans-Serif" font-size="10.00">Driver/Uart/Stream</text>
<text text-anchor="middle" x="359.5" y="-197.5" font-family="Helvetica,sans-Serif" font-size="10.00">/Receiver.h</text>
</a>
</g>
</g>
<!-- Node1&#45;&gt;Node6 -->
<g id="edge5" class="edge"><title>Node1&#45;&gt;Node6</title>
<path fill="none" stroke="midnightblue" d="M359.5,-247.235C359.5,-238.586 359.5,-228.497 359.5,-220.523"/>
<polygon fill="midnightblue" stroke="midnightblue" points="356,-247.475 359.5,-257.475 363,-247.475 356,-247.475"/>
</g>
<!-- Node9 -->
<g id="node9" class="node"><title>Node9</title>
<g id="a_node9"><a xlink:href="_transmitter_8h.html" target="_top" xlink:title=" ">
<polygon fill="white" stroke="black" points="426.5,-190.5 426.5,-220.5 524.5,-220.5 524.5,-190.5 426.5,-190.5"/>
<text text-anchor="start" x="434.5" y="-208.5" font-family="Helvetica,sans-Serif" font-size="10.00">Driver/Uart/Stream</text>
<text text-anchor="middle" x="475.5" y="-197.5" font-family="Helvetica,sans-Serif" font-size="10.00">/Transmitter.h</text>
</a>
</g>
</g>
<!-- Node1&#45;&gt;Node9 -->
<g id="edge8" class="edge"><title>Node1&#45;&gt;Node9</title>
<path fill="none" stroke="midnightblue" d="M385.221,-252.807C403.896,-243.228 429.122,-230.289 448.161,-220.523"/>
<polygon fill="midnightblue" stroke="midnightblue" points="383.42,-249.797 376.12,-257.475 386.615,-256.025 383.42,-249.797"/>
</g>
<!-- Node10 -->
<g id="node10" class="node"><title>Node10</title>
<g id="a_node10"><a xlink:href="_fsm_event_queue___8h.html" target="_top" xlink:title=" ">
<polygon fill="white" stroke="black" points="543,-190.5 543,-220.5 688,-220.5 688,-190.5 543,-190.5"/>
<text text-anchor="start" x="551" y="-208.5" font-family="Helvetica,sans-Serif" font-size="10.00">Storm/Component/Equipment</text>
<text text-anchor="middle" x="615.5" y="-197.5" font-family="Helvetica,sans-Serif" font-size="10.00">/Stage/FsmEventQueue_.h</text>
</a>
</g>
</g>
<!-- Node1&#45;&gt;Node10 -->
<g id="edge10" class="edge"><title>Node1&#45;&gt;Node10</title>
<path fill="none" stroke="midnightblue" d="M406.101,-255.169C447.931,-245.447 509.583,-231.118 555.166,-220.523"/>
<polygon fill="midnightblue" stroke="midnightblue" points="405.127,-251.802 396.179,-257.475 406.711,-258.62 405.127,-251.802"/>
</g>
<!-- Node3 -->
<g id="node3" class="node"><title>Node3</title>
<g id="a_node3"><a xlink:href="_ring_buffer_m_p_8h.html" target="_top" xlink:title=" ">
<polygon fill="white" stroke="black" points="0,-129 0,-148 147,-148 147,-129 0,-129"/>
<text text-anchor="middle" x="73.5" y="-136" font-family="Helvetica,sans-Serif" font-size="10.00">Cpl/Container/RingBufferMP.h</text>
</a>
</g>
</g>
<!-- Node2&#45;&gt;Node3 -->
<g id="edge2" class="edge"><title>Node2&#45;&gt;Node3</title>
<path fill="none" stroke="midnightblue" d="M73.5,-185.537C73.5,-173.17 73.5,-157.62 73.5,-148.127"/>
<polygon fill="midnightblue" stroke="midnightblue" points="70.0001,-185.734 73.5,-195.734 77.0001,-185.734 70.0001,-185.734"/>
</g>
<!-- Node4 -->
<g id="node4" class="node"><title>Node4</title>
<g id="a_node4"><a xlink:href="_indexed_entry_server_8h.html" target="_top" xlink:title=" ">
<polygon fill="white" stroke="black" points="4,-56.5 4,-86.5 143,-86.5 143,-56.5 4,-56.5"/>
<text text-anchor="start" x="12" y="-74.5" font-family="Helvetica,sans-Serif" font-size="10.00">Cpl/Persistent/IndexedEntry</text>
<text text-anchor="middle" x="73.5" y="-63.5" font-family="Helvetica,sans-Serif" font-size="10.00">Server.h</text>
</a>
</g>
</g>
<!-- Node3&#45;&gt;Node4 -->
<g id="edge3" class="edge"><title>Node3&#45;&gt;Node4</title>
<path fill="none" stroke="midnightblue" d="M73.5,-118.411C73.5,-108.222 73.5,-95.901 73.5,-86.589"/>
<polygon fill="midnightblue" stroke="midnightblue" points="70.0001,-118.734 73.5,-128.734 77.0001,-118.734 70.0001,-118.734"/>
</g>
<!-- Node7 -->
<g id="node7" class="node"><title>Node7</title>
<g id="a_node7"><a xlink:href="_driver_2_uart_2_stream_2_input_output___8h.html" target="_top" xlink:title=" ">
<polygon fill="white" stroke="black" points="337.5,-123.5 337.5,-153.5 435.5,-153.5 435.5,-123.5 337.5,-123.5"/>
<text text-anchor="start" x="345.5" y="-141.5" font-family="Helvetica,sans-Serif" font-size="10.00">Driver/Uart/Stream</text>
<text text-anchor="middle" x="386.5" y="-130.5" font-family="Helvetica,sans-Serif" font-size="10.00">/InputOutput_.h</text>
</a>
</g>
</g>
<!-- Node6&#45;&gt;Node7 -->
<g id="edge6" class="edge"><title>Node6&#45;&gt;Node7</title>
<path fill="none" stroke="midnightblue" d="M369.265,-180.991C373.081,-171.804 377.329,-161.578 380.653,-153.577"/>
<polygon fill="midnightblue" stroke="midnightblue" points="365.962,-179.818 365.359,-190.396 372.427,-182.504 365.962,-179.818"/>
</g>
<!-- Node8 -->
<g id="node8" class="node"><title>Node8</title>
<g id="a_node8"><a xlink:href="_serial_2_renesas_2_rx62n_2_input_output_8h.html" target="_top" xlink:title=" ">
<polygon fill="white" stroke="black" points="331,-56.5 331,-86.5 442,-86.5 442,-56.5 331,-56.5"/>
<text text-anchor="start" x="339" y="-74.5" font-family="Helvetica,sans-Serif" font-size="10.00">Cpl/Io/Serial/Renesas</text>
<text text-anchor="middle" x="386.5" y="-63.5" font-family="Helvetica,sans-Serif" font-size="10.00">/Rx62n/InputOutput.h</text>
</a>
</g>
</g>
<!-- Node7&#45;&gt;Node8 -->
<g id="edge7" class="edge"><title>Node7&#45;&gt;Node8</title>
<path fill="none" stroke="midnightblue" d="M386.5,-113.108C386.5,-104.154 386.5,-94.3227 386.5,-86.5765"/>
<polygon fill="midnightblue" stroke="midnightblue" points="383,-113.396 386.5,-123.396 390,-113.396 383,-113.396"/>
</g>
<!-- Node9&#45;&gt;Node7 -->
<g id="edge9" class="edge"><title>Node9&#45;&gt;Node7</title>
<path fill="none" stroke="midnightblue" d="M448.048,-184.451C434.357,-174.452 418.129,-162.6 405.774,-153.577"/>
<polygon fill="midnightblue" stroke="midnightblue" points="446.048,-187.324 456.188,-190.396 450.177,-181.672 446.048,-187.324"/>
</g>
<!-- Node11 -->
<g id="node11" class="node"><title>Node11</title>
<g id="a_node11"><a xlink:href="_storm_2_component_2_equipment_2_stage_2_basic_8h.html" target="_top" xlink:title=" ">
<polygon fill="white" stroke="black" points="543,-123.5 543,-153.5 688,-153.5 688,-123.5 543,-123.5"/>
<text text-anchor="start" x="551" y="-141.5" font-family="Helvetica,sans-Serif" font-size="10.00">Storm/Component/Equipment</text>
<text text-anchor="middle" x="615.5" y="-130.5" font-family="Helvetica,sans-Serif" font-size="10.00">/Stage/Basic.h</text>
</a>
</g>
</g>
<!-- Node10&#45;&gt;Node11 -->
<g id="edge11" class="edge"><title>Node10&#45;&gt;Node11</title>
<path fill="none" stroke="midnightblue" d="M615.5,-180.108C615.5,-171.154 615.5,-161.323 615.5,-153.577"/>
<polygon fill="midnightblue" stroke="midnightblue" points="612,-180.396 615.5,-190.396 619,-180.396 612,-180.396"/>
</g>
<!-- Node12 -->
<g id="node12" class="node"><title>Node12</title>
<g id="a_node12"><a xlink:href="_basic_cooling_8h.html" target="_top" xlink:title=" ">
<polygon fill="white" stroke="black" points="488,-56.5 488,-86.5 633,-86.5 633,-56.5 488,-56.5"/>
<text text-anchor="start" x="496" y="-74.5" font-family="Helvetica,sans-Serif" font-size="10.00">Storm/Component/Equipment</text>
<text text-anchor="middle" x="560.5" y="-63.5" font-family="Helvetica,sans-Serif" font-size="10.00">/Stage/BasicCooling.h</text>
</a>
</g>
</g>
<!-- Node11&#45;&gt;Node12 -->
<g id="edge12" class="edge"><title>Node11&#45;&gt;Node12</title>
<path fill="none" stroke="midnightblue" d="M597.084,-115.736C588.947,-106.119 579.614,-95.0888 572.411,-86.5765"/>
<polygon fill="midnightblue" stroke="midnightblue" points="594.435,-118.023 603.566,-123.396 599.778,-113.501 594.435,-118.023"/>
</g>
<!-- Node14 -->
<g id="node14" class="node"><title>Node14</title>
<g id="a_node14"><a xlink:href="_basic_indoor_heat_8h.html" target="_top" xlink:title=" ">
<polygon fill="white" stroke="black" points="651,-56.5 651,-86.5 796,-86.5 796,-56.5 651,-56.5"/>
<text text-anchor="start" x="659" y="-74.5" font-family="Helvetica,sans-Serif" font-size="10.00">Storm/Component/Equipment</text>
<text text-anchor="middle" x="723.5" y="-63.5" font-family="Helvetica,sans-Serif" font-size="10.00">/Stage/BasicIndoorHeat.h</text>
</a>
</g>
</g>
<!-- Node11&#45;&gt;Node14 -->
<g id="edge14" class="edge"><title>Node11&#45;&gt;Node14</title>
<path fill="none" stroke="midnightblue" d="M647.875,-118.015C664.682,-107.9 684.836,-95.7698 700.111,-86.5765"/>
<polygon fill="midnightblue" stroke="midnightblue" points="645.697,-115.241 638.934,-123.396 649.307,-121.238 645.697,-115.241"/>
</g>
<!-- Node13 -->
<g id="node13" class="node"><title>Node13</title>
<g id="a_node13"><a xlink:href="_algorithm_8h.html" target="_top" xlink:title=" ">
<polygon fill="white" stroke="black" points="567.5,-0.5 567.5,-19.5 715.5,-19.5 715.5,-0.5 567.5,-0.5"/>
<text text-anchor="middle" x="641.5" y="-7.5" font-family="Helvetica,sans-Serif" font-size="10.00">Storm/Thermostat/Algorithm.h</text>
</a>
</g>
</g>
<!-- Node12&#45;&gt;Node13 -->
<g id="edge13" class="edge"><title>Node12&#45;&gt;Node13</title>
<path fill="none" stroke="midnightblue" d="M588.151,-50.1886C602.332,-39.7719 618.857,-27.6329 629.714,-19.6578"/>
<polygon fill="midnightblue" stroke="midnightblue" points="585.683,-47.6584 579.696,-56.3993 589.827,-53.2999 585.683,-47.6584"/>
</g>
<!-- Node14&#45;&gt;Node13 -->
<g id="edge15" class="edge"><title>Node14&#45;&gt;Node13</title>
<path fill="none" stroke="midnightblue" d="M695.914,-50.483C681.468,-40.0013 664.526,-27.7081 653.432,-19.6578"/>
<polygon fill="midnightblue" stroke="midnightblue" points="693.918,-53.3592 704.067,-56.3993 698.029,-47.6936 693.918,-53.3592"/>
</g>
</g>
</svg>
