<?xml version="1.0" encoding="UTF-8" standalone="no"?>
<!DOCTYPE svg PUBLIC "-//W3C//DTD SVG 1.1//EN"
 "http://www.w3.org/Graphics/SVG/1.1/DTD/svg11.dtd">
<!-- Generated by graphviz version 2.38.0 (20140413.2041)
 -->
<!-- Title: Cpl/Container/RingBuffer.h Pages: 1 -->
<svg width="387pt" height="229pt"
 viewBox="0.00 0.00 386.50 229.00" xmlns="http://www.w3.org/2000/svg" xmlns:xlink="http://www.w3.org/1999/xlink">
<g id="graph0" class="graph" transform="scale(1 1) rotate(0) translate(4 225)">
<title>Cpl/Container/RingBuffer.h</title>
<polygon fill="white" stroke="none" points="-4,4 -4,-225 382.5,-225 382.5,4 -4,4"/>
<!-- Node1 -->
<g id="node1" class="node"><title>Node1</title>
<g id="a_node1"><a xlink:title=" ">
<polygon fill="#bfbfbf" stroke="black" points="147.5,-201.5 147.5,-220.5 279.5,-220.5 279.5,-201.5 147.5,-201.5"/>
<text text-anchor="middle" x="213.5" y="-208.5" font-family="Helvetica,sans-Serif" font-size="10.00">Cpl/Container/RingBuffer.h</text>
</a>
</g>
</g>
<!-- Node2 -->
<g id="node2" class="node"><title>Node2</title>
<g id="a_node2"><a xlink:href="_ring_buffer_m_t_8h.html" target="_top" xlink:title=" ">
<polygon fill="white" stroke="black" points="0.5,-140 0.5,-159 146.5,-159 146.5,-140 0.5,-140"/>
<text text-anchor="middle" x="73.5" y="-147" font-family="Helvetica,sans-Serif" font-size="10.00">Cpl/Container/RingBufferMT.h</text>
</a>
</g>
</g>
<!-- Node1&#45;&gt;Node2 -->
<g id="edge1" class="edge"><title>Node1&#45;&gt;Node2</title>
<path fill="none" stroke="midnightblue" d="M184.04,-197.48C156.85,-185.924 117.208,-169.076 93.5214,-159.009"/>
<polygon fill="midnightblue" stroke="midnightblue" points="182.869,-200.785 193.441,-201.475 185.607,-194.342 182.869,-200.785"/>
</g>
<!-- Node5 -->
<g id="node5" class="node"><title>Node5</title>
<g id="a_node5"><a xlink:href="_receiver_8h.html" target="_top" xlink:title=" ">
<polygon fill="white" stroke="black" points="164.5,-134.5 164.5,-164.5 262.5,-164.5 262.5,-134.5 164.5,-134.5"/>
<text text-anchor="start" x="172.5" y="-152.5" font-family="Helvetica,sans-Serif" font-size="10.00">Driver/Uart/Stream</text>
<text text-anchor="middle" x="213.5" y="-141.5" font-family="Helvetica,sans-Serif" font-size="10.00">/Receiver.h</text>
</a>
</g>
</g>
<!-- Node1&#45;&gt;Node5 -->
<g id="edge4" class="edge"><title>Node1&#45;&gt;Node5</title>
<path fill="none" stroke="midnightblue" d="M213.5,-191.235C213.5,-182.586 213.5,-172.497 213.5,-164.523"/>
<polygon fill="midnightblue" stroke="midnightblue" points="210,-191.475 213.5,-201.475 217,-191.475 210,-191.475"/>
</g>
<!-- Node8 -->
<g id="node8" class="node"><title>Node8</title>
<g id="a_node8"><a xlink:href="_transmitter_8h.html" target="_top" xlink:title=" ">
<polygon fill="white" stroke="black" points="280.5,-134.5 280.5,-164.5 378.5,-164.5 378.5,-134.5 280.5,-134.5"/>
<text text-anchor="start" x="288.5" y="-152.5" font-family="Helvetica,sans-Serif" font-size="10.00">Driver/Uart/Stream</text>
<text text-anchor="middle" x="329.5" y="-141.5" font-family="Helvetica,sans-Serif" font-size="10.00">/Transmitter.h</text>
</a>
</g>
</g>
<!-- Node1&#45;&gt;Node8 -->
<g id="edge7" class="edge"><title>Node1&#45;&gt;Node8</title>
<path fill="none" stroke="midnightblue" d="M239.221,-196.807C257.896,-187.228 283.122,-174.289 302.161,-164.523"/>
<polygon fill="midnightblue" stroke="midnightblue" points="237.42,-193.797 230.12,-201.475 240.615,-200.025 237.42,-193.797"/>
</g>
<!-- Node3 -->
<g id="node3" class="node"><title>Node3</title>
<g id="a_node3"><a xlink:href="_ring_buffer_m_p_8h.html" target="_top" xlink:title=" ">
<polygon fill="white" stroke="black" points="0,-73 0,-92 147,-92 147,-73 0,-73"/>
<text text-anchor="middle" x="73.5" y="-80" font-family="Helvetica,sans-Serif" font-size="10.00">Cpl/Container/RingBufferMP.h</text>
</a>
</g>
</g>
<!-- Node2&#45;&gt;Node3 -->
<g id="edge2" class="edge"><title>Node2&#45;&gt;Node3</title>
<path fill="none" stroke="midnightblue" d="M73.5,-129.537C73.5,-117.17 73.5,-101.62 73.5,-92.1273"/>
<polygon fill="midnightblue" stroke="midnightblue" points="70.0001,-129.734 73.5,-139.734 77.0001,-129.734 70.0001,-129.734"/>
</g>
<!-- Node4 -->
<g id="node4" class="node"><title>Node4</title>
<g id="a_node4"><a xlink:href="_indexed_entry_server_8h.html" target="_top" xlink:title=" ">
<polygon fill="white" stroke="black" points="4,-0.5 4,-30.5 143,-30.5 143,-0.5 4,-0.5"/>
<text text-anchor="start" x="12" y="-18.5" font-family="Helvetica,sans-Serif" font-size="10.00">Cpl/Persistent/IndexedEntry</text>
<text text-anchor="middle" x="73.5" y="-7.5" font-family="Helvetica,sans-Serif" font-size="10.00">Server.h</text>
</a>
</g>
</g>
<!-- Node3&#45;&gt;Node4 -->
<g id="edge3" class="edge"><title>Node3&#45;&gt;Node4</title>
<path fill="none" stroke="midnightblue" d="M73.5,-62.4107C73.5,-52.222 73.5,-39.901 73.5,-30.589"/>
<polygon fill="midnightblue" stroke="midnightblue" points="70.0001,-62.7338 73.5,-72.7338 77.0001,-62.7338 70.0001,-62.7338"/>
</g>
<!-- Node6 -->
<g id="node6" class="node"><title>Node6</title>
<g id="a_node6"><a xlink:href="_driver_2_uart_2_stream_2_input_output___8h.html" target="_top" xlink:title=" ">
<polygon fill="white" stroke="black" points="223.5,-67.5 223.5,-97.5 321.5,-97.5 321.5,-67.5 223.5,-67.5"/>
<text text-anchor="start" x="231.5" y="-85.5" font-family="Helvetica,sans-Serif" font-size="10.00">Driver/Uart/Stream</text>
<text text-anchor="middle" x="272.5" y="-74.5" font-family="Helvetica,sans-Serif" font-size="10.00">/InputOutput_.h</text>
</a>
</g>
</g>
<!-- Node5&#45;&gt;Node6 -->
<g id="edge5" class="edge"><title>Node5&#45;&gt;Node6</title>
<path fill="none" stroke="midnightblue" d="M233.255,-126.736C241.984,-117.119 251.996,-106.089 259.723,-97.5765"/>
<polygon fill="midnightblue" stroke="midnightblue" points="230.432,-124.639 226.302,-134.396 235.615,-129.344 230.432,-124.639"/>
</g>
<!-- Node7 -->
<g id="node7" class="node"><title>Node7</title>
<g id="a_node7"><a xlink:href="_serial_2_renesas_2_rx62n_2_input_output_8h.html" target="_top" xlink:title=" ">
<polygon fill="white" stroke="black" points="217,-0.5 217,-30.5 328,-30.5 328,-0.5 217,-0.5"/>
<text text-anchor="start" x="225" y="-18.5" font-family="Helvetica,sans-Serif" font-size="10.00">Cpl/Io/Serial/Renesas</text>
<text text-anchor="middle" x="272.5" y="-7.5" font-family="Helvetica,sans-Serif" font-size="10.00">/Rx62n/InputOutput.h</text>
</a>
</g>
</g>
<!-- Node6&#45;&gt;Node7 -->
<g id="edge6" class="edge"><title>Node6&#45;&gt;Node7</title>
<path fill="none" stroke="midnightblue" d="M272.5,-57.1081C272.5,-48.1539 272.5,-38.3227 272.5,-30.5765"/>
<polygon fill="midnightblue" stroke="midnightblue" points="269,-57.3959 272.5,-67.396 276,-57.396 269,-57.3959"/>
</g>
<!-- Node8&#45;&gt;Node6 -->
<g id="edge8" class="edge"><title>Node8&#45;&gt;Node6</title>
<path fill="none" stroke="midnightblue" d="M310.415,-126.736C301.981,-117.119 292.309,-106.089 284.844,-97.5765"/>
<polygon fill="midnightblue" stroke="midnightblue" points="307.907,-129.185 317.132,-134.396 313.17,-124.57 307.907,-129.185"/>
</g>
</g>
</svg>
