<?xml version="1.0" encoding="UTF-8" standalone="no"?>
<!DOCTYPE svg PUBLIC "-//W3C//DTD SVG 1.1//EN"
 "http://www.w3.org/Graphics/SVG/1.1/DTD/svg11.dtd">
<!-- Generated by graphviz version 2.38.0 (20140413.2041)
 -->
<!-- Title: Cpl/System/Runnable.h Pages: 1 -->
<svg width="2442pt" height="408pt"
 viewBox="0.00 0.00 2442.46 408.00" xmlns="http://www.w3.org/2000/svg" xmlns:xlink="http://www.w3.org/1999/xlink">
<g id="graph0" class="graph" transform="scale(1 1) rotate(0) translate(4 404)">
<title>Cpl/System/Runnable.h</title>
<polygon fill="white" stroke="none" points="-4,4 -4,-404 2438.46,-404 2438.46,4 -4,4"/>
<!-- Node1 -->
<g id="node1" class="node"><title>Node1</title>
<g id="a_node1"><a xlink:title=" ">
<polygon fill="#bfbfbf" stroke="black" points="573.5,-380.5 573.5,-399.5 692.5,-399.5 692.5,-380.5 573.5,-380.5"/>
<text text-anchor="middle" x="633" y="-387.5" font-family="Helvetica,sans-Serif" font-size="10.00">Cpl/System/Runnable.h</text>
</a>
</g>
</g>
<!-- Node2 -->
<g id="node2" class="node"><title>Node2</title>
<g id="a_node2"><a xlink:href="_listener_8h.html" target="_top" xlink:title=" ">
<polygon fill="white" stroke="black" points="358,-324.5 358,-343.5 480,-343.5 480,-324.5 358,-324.5"/>
<text text-anchor="middle" x="419" y="-331.5" font-family="Helvetica,sans-Serif" font-size="10.00">Cpl/Io/Socket/Listener.h</text>
</a>
</g>
</g>
<!-- Node1&#45;&gt;Node2 -->
<g id="edge1" class="edge"><title>Node1&#45;&gt;Node2</title>
<path fill="none" stroke="midnightblue" d="M589.245,-377.959C548.826,-367.76 489.627,-352.822 452.75,-343.516"/>
<polygon fill="midnightblue" stroke="midnightblue" points="588.539,-381.39 599.091,-380.444 590.251,-374.603 588.539,-381.39"/>
</g>
<!-- Node9 -->
<g id="node9" class="node"><title>Node9</title>
<g id="a_node9"><a xlink:href="_system_2_event_loop_8h.html" target="_top" xlink:title=" ">
<polygon fill="white" stroke="black" points="570.5,-324.5 570.5,-343.5 695.5,-343.5 695.5,-324.5 570.5,-324.5"/>
<text text-anchor="middle" x="633" y="-331.5" font-family="Helvetica,sans-Serif" font-size="10.00">Cpl/System/EventLoop.h</text>
</a>
</g>
</g>
<!-- Node1&#45;&gt;Node9 -->
<g id="edge9" class="edge"><title>Node1&#45;&gt;Node9</title>
<path fill="none" stroke="midnightblue" d="M633,-369.805C633,-360.91 633,-350.78 633,-343.751"/>
<polygon fill="midnightblue" stroke="midnightblue" points="629.5,-370.083 633,-380.083 636.5,-370.083 629.5,-370.083"/>
</g>
<!-- Node86 -->
<g id="node30" class="node"><title>Node86</title>
<g id="a_node30"><a xlink:href="_thread_8h.html" target="_top" xlink:title=" ">
<polygon fill="white" stroke="black" points="1271.5,-324.5 1271.5,-343.5 1380.5,-343.5 1380.5,-324.5 1271.5,-324.5"/>
<text text-anchor="middle" x="1326" y="-331.5" font-family="Helvetica,sans-Serif" font-size="10.00">Cpl/System/Thread.h</text>
</a>
</g>
</g>
<!-- Node1&#45;&gt;Node86 -->
<g id="edge39" class="edge"><title>Node1&#45;&gt;Node86</title>
<path fill="none" stroke="midnightblue" d="M702.725,-383.567C840.72,-372.814 1146.08,-349.019 1271.06,-339.281"/>
<polygon fill="midnightblue" stroke="midnightblue" points="702.382,-380.083 692.685,-384.349 702.926,-387.062 702.382,-380.083"/>
</g>
<!-- Node3 -->
<g id="node3" class="node"><title>Node3</title>
<g id="a_node3"><a xlink:href="_listener_client_request_8h.html" target="_top" xlink:title=" ">
<polygon fill="white" stroke="black" points="0,-257.5 0,-287.5 138,-287.5 138,-257.5 0,-257.5"/>
<text text-anchor="start" x="8" y="-275.5" font-family="Helvetica,sans-Serif" font-size="10.00">Cpl/Io/Socket/ListenerClient</text>
<text text-anchor="middle" x="69" y="-264.5" font-family="Helvetica,sans-Serif" font-size="10.00">Request.h</text>
</a>
</g>
</g>
<!-- Node2&#45;&gt;Node3 -->
<g id="edge2" class="edge"><title>Node2&#45;&gt;Node3</title>
<path fill="none" stroke="midnightblue" d="M357.679,-322.772C303.55,-313.718 222.511,-300.101 152,-288 147.531,-287.233 142.927,-286.439 138.286,-285.636"/>
<polygon fill="midnightblue" stroke="midnightblue" points="357.359,-326.267 367.799,-324.464 358.513,-319.363 357.359,-326.267"/>
</g>
<!-- Node4 -->
<g id="node4" class="node"><title>Node4</title>
<g id="a_node4"><a xlink:href="_listener_client_sync_8h.html" target="_top" xlink:title=" ">
<polygon fill="white" stroke="black" points="44,-190.5 44,-220.5 182,-220.5 182,-190.5 44,-190.5"/>
<text text-anchor="start" x="52" y="-208.5" font-family="Helvetica,sans-Serif" font-size="10.00">Cpl/Io/Socket/ListenerClient</text>
<text text-anchor="middle" x="113" y="-197.5" font-family="Helvetica,sans-Serif" font-size="10.00">Sync.h</text>
</a>
</g>
</g>
<!-- Node2&#45;&gt;Node4 -->
<g id="edge4" class="edge"><title>Node2&#45;&gt;Node4</title>
<path fill="none" stroke="midnightblue" d="M347.468,-331.183C298.867,-327.19 234.645,-316.333 185,-288 156.14,-271.53 132.931,-239.185 121.244,-220.577"/>
<polygon fill="midnightblue" stroke="midnightblue" points="347.36,-334.684 357.591,-331.934 347.878,-327.703 347.36,-334.684"/>
</g>
<!-- Node5 -->
<g id="node5" class="node"><title>Node5</title>
<g id="a_node5"><a xlink:href="_listener___8h.html" target="_top" xlink:title=" ">
<polygon fill="white" stroke="black" points="355.5,-263 355.5,-282 482.5,-282 482.5,-263 355.5,-263"/>
<text text-anchor="middle" x="419" y="-270" font-family="Helvetica,sans-Serif" font-size="10.00">Cpl/Io/Socket/Listener_.h</text>
</a>
</g>
</g>
<!-- Node2&#45;&gt;Node5 -->
<g id="edge5" class="edge"><title>Node2&#45;&gt;Node5</title>
<path fill="none" stroke="midnightblue" d="M419,-314.317C419,-303.496 419,-290.398 419,-282.009"/>
<polygon fill="midnightblue" stroke="midnightblue" points="415.5,-314.475 419,-324.475 422.5,-314.475 415.5,-314.475"/>
</g>
<!-- Node8 -->
<g id="node8" class="node"><title>Node8</title>
<g id="a_node8"><a xlink:href="_socket_8h.html" target="_top" xlink:title=" ">
<polygon fill="white" stroke="black" points="539,-263 539,-282 643,-282 643,-263 539,-263"/>
<text text-anchor="middle" x="591" y="-270" font-family="Helvetica,sans-Serif" font-size="10.00">Cpl/TShell/Socket.h</text>
</a>
</g>
</g>
<!-- Node2&#45;&gt;Node8 -->
<g id="edge8" class="edge"><title>Node2&#45;&gt;Node8</title>
<path fill="none" stroke="midnightblue" d="M453.45,-321.083C486.884,-309.517 536.791,-292.252 566.402,-282.009"/>
<polygon fill="midnightblue" stroke="midnightblue" points="451.95,-317.898 443.643,-324.475 454.238,-324.513 451.95,-317.898"/>
</g>
<!-- Node3&#45;&gt;Node4 -->
<g id="edge3" class="edge"><title>Node3&#45;&gt;Node4</title>
<path fill="none" stroke="midnightblue" d="M84.3209,-248.867C90.689,-239.459 97.882,-228.833 103.471,-220.577"/>
<polygon fill="midnightblue" stroke="midnightblue" points="81.2547,-247.153 78.5473,-257.396 87.0514,-251.077 81.2547,-247.153"/>
</g>
<!-- Node6 -->
<g id="node6" class="node"><title>Node6</title>
<g id="a_node6"><a xlink:href="_posix_2_listener_8h.html" target="_top" xlink:title=" ">
<polygon fill="white" stroke="black" points="244,-190.5 244,-220.5 348,-220.5 348,-190.5 244,-190.5"/>
<text text-anchor="start" x="252" y="-208.5" font-family="Helvetica,sans-Serif" font-size="10.00">Cpl/Io/Socket/Posix</text>
<text text-anchor="middle" x="296" y="-197.5" font-family="Helvetica,sans-Serif" font-size="10.00">/Listener.h</text>
</a>
</g>
</g>
<!-- Node5&#45;&gt;Node6 -->
<g id="edge6" class="edge"><title>Node5&#45;&gt;Node6</title>
<path fill="none" stroke="midnightblue" d="M393.822,-258.194C373.132,-247.261 343.895,-231.81 322.779,-220.652"/>
<polygon fill="midnightblue" stroke="midnightblue" points="392.19,-261.291 402.667,-262.869 395.46,-255.102 392.19,-261.291"/>
</g>
<!-- Node7 -->
<g id="node7" class="node"><title>Node7</title>
<g id="a_node7"><a xlink:href="_win32_2_listener_8h.html" target="_top" xlink:title=" ">
<polygon fill="white" stroke="black" points="366,-190.5 366,-220.5 472,-220.5 472,-190.5 366,-190.5"/>
<text text-anchor="start" x="374" y="-208.5" font-family="Helvetica,sans-Serif" font-size="10.00">Cpl/Io/Socket/Win32</text>
<text text-anchor="middle" x="419" y="-197.5" font-family="Helvetica,sans-Serif" font-size="10.00">/Listener.h</text>
</a>
</g>
</g>
<!-- Node5&#45;&gt;Node7 -->
<g id="edge7" class="edge"><title>Node5&#45;&gt;Node7</title>
<path fill="none" stroke="midnightblue" d="M419,-252.411C419,-242.222 419,-229.901 419,-220.589"/>
<polygon fill="midnightblue" stroke="midnightblue" points="415.5,-252.734 419,-262.734 422.5,-252.734 415.5,-252.734"/>
</g>
<!-- Node10 -->
<g id="node10" class="node"><title>Node10</title>
<g id="a_node10"><a xlink:href="_dm_2_event_loop_8h.html" target="_top" xlink:title=" ">
<polygon fill="white" stroke="black" points="769.5,-263 769.5,-282 876.5,-282 876.5,-263 769.5,-263"/>
<text text-anchor="middle" x="823" y="-270" font-family="Helvetica,sans-Serif" font-size="10.00">Cpl/Dm/EventLoop.h</text>
</a>
</g>
</g>
<!-- Node9&#45;&gt;Node10 -->
<g id="edge10" class="edge"><title>Node9&#45;&gt;Node10</title>
<path fill="none" stroke="midnightblue" d="M670.104,-321.381C707.035,-309.815 762.836,-292.341 795.828,-282.009"/>
<polygon fill="midnightblue" stroke="midnightblue" points="668.719,-318.147 660.222,-324.475 670.811,-324.827 668.719,-318.147"/>
</g>
<!-- Node82 -->
<g id="node26" class="node"><title>Node82</title>
<g id="a_node26"><a xlink:href="_mailbox_8h.html" target="_top" xlink:title=" ">
<polygon fill="white" stroke="black" points="661,-263 661,-282 751,-282 751,-263 661,-263"/>
<text text-anchor="middle" x="706" y="-270" font-family="Helvetica,sans-Serif" font-size="10.00">Cpl/Itc/Mailbox.h</text>
</a>
</g>
</g>
<!-- Node9&#45;&gt;Node82 -->
<g id="edge33" class="edge"><title>Node9&#45;&gt;Node82</title>
<path fill="none" stroke="midnightblue" d="M651.437,-317.973C665.399,-306.593 684.076,-291.369 695.56,-282.009"/>
<polygon fill="midnightblue" stroke="midnightblue" points="648.999,-315.444 643.459,-324.475 653.422,-320.87 648.999,-315.444"/>
</g>
<!-- Node83 -->
<g id="node27" class="node"><title>Node83</title>
<g id="a_node27"><a xlink:href="_itc_2_mailbox_server_8h.html" target="_top" xlink:title=" ">
<polygon fill="white" stroke="black" points="490.5,-196 490.5,-215 609.5,-215 609.5,-196 490.5,-196"/>
<text text-anchor="middle" x="550" y="-203" font-family="Helvetica,sans-Serif" font-size="10.00">Cpl/Itc/MailboxServer.h</text>
</a>
</g>
</g>
<!-- Node9&#45;&gt;Node83 -->
<g id="edge37" class="edge"><title>Node9&#45;&gt;Node83</title>
<path fill="none" stroke="midnightblue" d="M575.853,-321.082C558.126,-314.41 540.503,-304.051 530,-288 514.763,-264.715 533.396,-230.808 543.84,-215.091"/>
<polygon fill="midnightblue" stroke="midnightblue" points="575.073,-324.513 585.667,-324.422 577.328,-317.887 575.073,-324.513"/>
</g>
<!-- Node85 -->
<g id="node29" class="node"><title>Node85</title>
<g id="a_node29"><a xlink:href="_house_8h_source.html" target="_top" xlink:title=" ">
<polygon fill="white" stroke="black" points="194.5,-257.5 194.5,-287.5 337.5,-287.5 337.5,-257.5 194.5,-257.5"/>
<text text-anchor="start" x="202.5" y="-275.5" font-family="Helvetica,sans-Serif" font-size="10.00">Storm/Thermostat/SimHouse</text>
<text text-anchor="middle" x="266" y="-264.5" font-family="Helvetica,sans-Serif" font-size="10.00">/House.h</text>
</a>
</g>
</g>
<!-- Node9&#45;&gt;Node85 -->
<g id="edge38" class="edge"><title>Node9&#45;&gt;Node85</title>
<path fill="none" stroke="midnightblue" d="M565.86,-322.934C507.649,-314.097 421.178,-300.705 346,-288 343.216,-287.53 340.38,-287.044 337.515,-286.549"/>
<polygon fill="midnightblue" stroke="midnightblue" points="565.619,-326.438 576.031,-324.476 566.668,-319.517 565.619,-326.438"/>
</g>
<!-- Node11 -->
<g id="node11" class="node"><title>Node11</title>
<g id="a_node11"><a xlink:href="_dm_2_mailbox_server_8h.html" target="_top" xlink:title=" ">
<polygon fill="white" stroke="black" points="645,-196 645,-215 767,-215 767,-196 645,-196"/>
<text text-anchor="middle" x="706" y="-203" font-family="Helvetica,sans-Serif" font-size="10.00">Cpl/Dm/MailboxServer.h</text>
</a>
</g>
</g>
<!-- Node10&#45;&gt;Node11 -->
<g id="edge11" class="edge"><title>Node10&#45;&gt;Node11</title>
<path fill="none" stroke="midnightblue" d="M798.317,-257.787C775.128,-244.905 741.144,-226.024 721.529,-215.127"/>
<polygon fill="midnightblue" stroke="midnightblue" points="796.78,-260.937 807.221,-262.734 800.179,-254.818 796.78,-260.937"/>
</g>
<!-- Node31 -->
<g id="node22" class="node"><title>Node31</title>
<g id="a_node22"><a xlink:href="_subscriber_8h.html" target="_top" xlink:title=" ">
<polygon fill="white" stroke="black" points="1024.5,-196 1024.5,-215 1131.5,-215 1131.5,-196 1024.5,-196"/>
<text text-anchor="middle" x="1078" y="-203" font-family="Helvetica,sans-Serif" font-size="10.00">Cpl/Dm/Subscriber.h</text>
</a>
</g>
</g>
<!-- Node10&#45;&gt;Node31 -->
<g id="edge27" class="edge"><title>Node10&#45;&gt;Node31</title>
<path fill="none" stroke="midnightblue" d="M866.531,-260.404C916.857,-247.576 998.612,-226.736 1044.33,-215.083"/>
<polygon fill="midnightblue" stroke="midnightblue" points="865.425,-257.074 856.599,-262.936 867.154,-263.857 865.425,-257.074"/>
</g>
<!-- Node12 -->
<g id="node12" class="node"><title>Node12</title>
<g id="a_node12"><a xlink:href="_dm_2_periodic_scheduler_8h.html" target="_top" xlink:title=" ">
<polygon fill="white" stroke="black" points="164.5,-129 164.5,-148 303.5,-148 303.5,-129 164.5,-129"/>
<text text-anchor="middle" x="234" y="-136" font-family="Helvetica,sans-Serif" font-size="10.00">Cpl/Dm/PeriodicScheduler.h</text>
</a>
</g>
</g>
<!-- Node11&#45;&gt;Node12 -->
<g id="edge12" class="edge"><title>Node11&#45;&gt;Node12</title>
<path fill="none" stroke="midnightblue" d="M646.818,-194.383C637.196,-192.844 627.329,-191.328 618,-190 485.05,-171.079 450.877,-173.428 318,-154 305.992,-152.244 293.059,-150.126 281.024,-148.057"/>
<polygon fill="midnightblue" stroke="midnightblue" points="646.292,-197.844 656.723,-195.989 647.413,-190.934 646.292,-197.844"/>
</g>
<!-- Node13 -->
<g id="node13" class="node"><title>Node13</title>
<g id="a_node13"><a xlink:href="_chunk_8h.html" target="_top" xlink:title=" ">
<polygon fill="white" stroke="red" points="498.5,-129 498.5,-148 615.5,-148 615.5,-129 498.5,-129"/>
<text text-anchor="middle" x="557" y="-136" font-family="Helvetica,sans-Serif" font-size="10.00">Cpl/Persistent/Chunk.h</text>
</a>
</g>
</g>
<!-- Node11&#45;&gt;Node13 -->
<g id="edge13" class="edge"><title>Node11&#45;&gt;Node13</title>
<path fill="none" stroke="midnightblue" d="M676.844,-191.781C647.336,-178.909 602.513,-159.355 576.868,-148.167"/>
<polygon fill="midnightblue" stroke="midnightblue" points="675.649,-195.078 686.214,-195.869 678.448,-188.662 675.649,-195.078"/>
</g>
<!-- Node24 -->
<g id="node17" class="node"><title>Node24</title>
<g id="a_node17"><a xlink:href="_persistent_2_record_8h.html" target="_top" xlink:title=" ">
<polygon fill="white" stroke="black" points="360,-129 360,-148 480,-148 480,-129 360,-129"/>
<text text-anchor="middle" x="420" y="-136" font-family="Helvetica,sans-Serif" font-size="10.00">Cpl/Persistent/Record.h</text>
</a>
</g>
</g>
<!-- Node11&#45;&gt;Node24 -->
<g id="edge17" class="edge"><title>Node11&#45;&gt;Node24</title>
<path fill="none" stroke="midnightblue" d="M658.234,-193.644C601.883,-180.837 509.36,-159.809 457.767,-148.083"/>
<polygon fill="midnightblue" stroke="midnightblue" points="657.789,-197.132 668.316,-195.936 659.341,-190.306 657.789,-197.132"/>
</g>
<!-- Node25 -->
<g id="node18" class="node"><title>Node25</title>
<g id="a_node18"><a xlink:href="_record_server_8h.html" target="_top" xlink:title=" ">
<polygon fill="white" stroke="black" points="242.5,-62 242.5,-81 391.5,-81 391.5,-62 242.5,-62"/>
<text text-anchor="middle" x="317" y="-69" font-family="Helvetica,sans-Serif" font-size="10.00">Cpl/Persistent/RecordServer.h</text>
</a>
</g>
</g>
<!-- Node11&#45;&gt;Node25 -->
<g id="edge22" class="edge"><title>Node11&#45;&gt;Node25</title>
<path fill="none" stroke="midnightblue" d="M645.8,-194.34C636.498,-192.84 626.996,-191.347 618,-190 558.79,-181.132 398.487,-190.461 351,-154 327.287,-135.794 319.972,-98.0359 317.832,-81.0758"/>
<polygon fill="midnightblue" stroke="midnightblue" points="645.348,-197.813 655.781,-195.965 646.473,-190.904 645.348,-197.813"/>
</g>
<!-- Node26 -->
<g id="node19" class="node"><title>Node26</title>
<g id="a_node19"><a xlink:href="_region_media_8h.html" target="_top" xlink:title=" ">
<polygon fill="white" stroke="red" points="634,-129 634,-148 780,-148 780,-129 634,-129"/>
<text text-anchor="middle" x="707" y="-136" font-family="Helvetica,sans-Serif" font-size="10.00">Cpl/Persistent/RegionMedia.h</text>
</a>
</g>
</g>
<!-- Node11&#45;&gt;Node26 -->
<g id="edge23" class="edge"><title>Node11&#45;&gt;Node26</title>
<path fill="none" stroke="midnightblue" d="M706.292,-185.537C706.482,-173.17 706.721,-157.62 706.867,-148.127"/>
<polygon fill="midnightblue" stroke="midnightblue" points="702.789,-185.681 706.135,-195.734 709.788,-185.789 702.789,-185.681"/>
</g>
<!-- Node29 -->
<g id="node20" class="node"><title>Node29</title>
<g id="a_node20"><a xlink:href="_algorithm_8h.html" target="_top" xlink:title=" ">
<polygon fill="white" stroke="black" points="798,-129 798,-148 946,-148 946,-129 798,-129"/>
<text text-anchor="middle" x="872" y="-136" font-family="Helvetica,sans-Serif" font-size="10.00">Storm/Thermostat/Algorithm.h</text>
</a>
</g>
</g>
<!-- Node11&#45;&gt;Node29 -->
<g id="edge25" class="edge"><title>Node11&#45;&gt;Node29</title>
<path fill="none" stroke="midnightblue" d="M737.657,-192.104C770.616,-179.198 821.364,-159.327 850.13,-148.064"/>
<polygon fill="midnightblue" stroke="midnightblue" points="736.079,-188.963 728.044,-195.869 738.631,-195.481 736.079,-188.963"/>
</g>
<!-- Node30 -->
<g id="node21" class="node"><title>Node30</title>
<g id="a_node21"><a xlink:href="_event_monitor_8h_source.html" target="_top" xlink:title=" ">
<polygon fill="white" stroke="black" points="910,-56.5 910,-86.5 1050,-86.5 1050,-56.5 910,-56.5"/>
<text text-anchor="start" x="918" y="-74.5" font-family="Helvetica,sans-Serif" font-size="10.00">Storm/Thermostat/Ui</text>
<text text-anchor="middle" x="980" y="-63.5" font-family="Helvetica,sans-Serif" font-size="10.00">/PicoDisplay/EventMonitor.h</text>
</a>
</g>
</g>
<!-- Node11&#45;&gt;Node30 -->
<g id="edge26" class="edge"><title>Node11&#45;&gt;Node30</title>
<path fill="none" stroke="midnightblue" d="M777.289,-198.134C841.403,-191.002 929.336,-177.276 955,-154 974.185,-136.6 978.823,-104.904 979.837,-86.5886"/>
<polygon fill="midnightblue" stroke="midnightblue" points="776.783,-194.668 767.217,-199.222 777.535,-201.627 776.783,-194.668"/>
</g>
<!-- Node14 -->
<g id="node14" class="node"><title>Node14</title>
<g id="a_node14"><a xlink:href="_dm_2_persistent_2_record_8h.html" target="_top" xlink:title=" ">
<polygon fill="white" stroke="red" points="449,-0.5 449,-19.5 587,-19.5 587,-0.5 449,-0.5"/>
<text text-anchor="middle" x="518" y="-7.5" font-family="Helvetica,sans-Serif" font-size="10.00">Cpl/Dm/Persistent/Record.h</text>
</a>
</g>
</g>
<!-- Node13&#45;&gt;Node14 -->
<g id="edge14" class="edge"><title>Node13&#45;&gt;Node14</title>
<path fill="none" stroke="midnightblue" d="M574.284,-121.664C590.303,-104.988 609.865,-78.1332 597,-56 586.451,-37.85 565.54,-26.4129 547.881,-19.6125"/>
<polygon fill="midnightblue" stroke="midnightblue" points="571.535,-119.458 566.862,-128.967 576.444,-124.448 571.535,-119.458"/>
</g>
<!-- Node18 -->
<g id="node15" class="node"><title>Node18</title>
<g id="a_node15"><a xlink:href="_crc_chunk_8h.html" target="_top" xlink:title=" ">
<polygon fill="white" stroke="black" points="644,-62 644,-81 776,-81 776,-62 644,-62"/>
<text text-anchor="middle" x="710" y="-69" font-family="Helvetica,sans-Serif" font-size="10.00">Cpl/Persistent/CrcChunk.h</text>
</a>
</g>
</g>
<!-- Node13&#45;&gt;Node18 -->
<g id="edge15" class="edge"><title>Node13&#45;&gt;Node18</title>
<path fill="none" stroke="midnightblue" d="M586.544,-124.948C616.838,-112.079 663.151,-92.4032 689.599,-81.1672"/>
<polygon fill="midnightblue" stroke="midnightblue" points="585.153,-121.737 577.317,-128.869 587.89,-128.18 585.153,-121.737"/>
</g>
<!-- Node19 -->
<g id="node16" class="node"><title>Node19</title>
<g id="a_node16"><a xlink:href="_data_record_8h.html" target="_top" xlink:title=" ">
<polygon fill="white" stroke="red" points="448,-62 448,-81 588,-81 588,-62 448,-62"/>
<text text-anchor="middle" x="518" y="-69" font-family="Helvetica,sans-Serif" font-size="10.00">Cpl/Persistent/DataRecord.h</text>
</a>
</g>
</g>
<!-- Node13&#45;&gt;Node19 -->
<g id="edge16" class="edge"><title>Node13&#45;&gt;Node19</title>
<path fill="none" stroke="midnightblue" d="M546.521,-120.035C538.97,-107.45 529.104,-91.0072 523.176,-81.1273"/>
<polygon fill="midnightblue" stroke="midnightblue" points="543.594,-121.96 551.74,-128.734 549.597,-118.358 543.594,-121.96"/>
</g>
<!-- Node24&#45;&gt;Node14 -->
<g id="edge18" class="edge"><title>Node24&#45;&gt;Node14</title>
<path fill="none" stroke="midnightblue" d="M420.196,-118.733C421.278,-100.962 425.316,-74.3401 439,-56 452.121,-38.4153 474.283,-26.6598 491.801,-19.5876"/>
<polygon fill="midnightblue" stroke="midnightblue" points="416.691,-118.842 419.841,-128.958 423.686,-119.085 416.691,-118.842"/>
</g>
<!-- Node24&#45;&gt;Node19 -->
<g id="edge19" class="edge"><title>Node24&#45;&gt;Node19</title>
<path fill="none" stroke="midnightblue" d="M441.719,-123.095C461.106,-110.236 488.855,-91.8306 504.993,-81.1273"/>
<polygon fill="midnightblue" stroke="midnightblue" points="439.616,-120.29 433.217,-128.734 443.485,-126.123 439.616,-120.29"/>
</g>
<!-- Node24&#45;&gt;Node25 -->
<g id="edge20" class="edge"><title>Node24&#45;&gt;Node25</title>
<path fill="none" stroke="midnightblue" d="M397.449,-123.269C377.061,-110.403 347.708,-91.879 330.671,-81.1273"/>
<polygon fill="midnightblue" stroke="midnightblue" points="395.784,-126.357 406.109,-128.734 399.52,-120.437 395.784,-126.357"/>
</g>
<!-- Node25&#45;&gt;Node14 -->
<g id="edge21" class="edge"><title>Node25&#45;&gt;Node14</title>
<path fill="none" stroke="midnightblue" d="M355.752,-59.0286C394.817,-47.4647 454.204,-29.8849 489.255,-19.5091"/>
<polygon fill="midnightblue" stroke="midnightblue" points="354.394,-55.7805 345.798,-61.9751 356.381,-62.4926 354.394,-55.7805"/>
</g>
<!-- Node26&#45;&gt;Node18 -->
<g id="edge24" class="edge"><title>Node26&#45;&gt;Node18</title>
<path fill="none" stroke="midnightblue" d="M707.875,-118.537C708.446,-106.17 709.164,-90.6198 709.602,-81.1273"/>
<polygon fill="midnightblue" stroke="midnightblue" points="704.369,-118.583 707.405,-128.734 711.362,-118.906 704.369,-118.583"/>
</g>
<!-- Node32 -->
<g id="node23" class="node"><title>Node32</title>
<g id="a_node23"><a xlink:href="_model_point_common___8h.html" target="_top" xlink:title=" ">
<polygon fill="white" stroke="red" points="1171.5,-129 1171.5,-148 1324.5,-148 1324.5,-129 1171.5,-129"/>
<text text-anchor="middle" x="1248" y="-136" font-family="Helvetica,sans-Serif" font-size="10.00">Cpl/Dm/ModelPointCommon_.h</text>
</a>
</g>
</g>
<!-- Node31&#45;&gt;Node32 -->
<g id="edge28" class="edge"><title>Node31&#45;&gt;Node32</title>
<path fill="none" stroke="midnightblue" d="M1109.98,-192.271C1143.72,-179.37 1196.02,-159.376 1225.6,-148.064"/>
<polygon fill="midnightblue" stroke="midnightblue" points="1108.67,-189.028 1100.57,-195.869 1111.17,-195.566 1108.67,-189.028"/>
</g>
<!-- Node81 -->
<g id="node24" class="node"><title>Node81</title>
<g id="a_node24"><a xlink:href="_subscriber_composer_8h.html" target="_top" xlink:title=" ">
<polygon fill="white" stroke="red" points="1002.5,-129 1002.5,-148 1153.5,-148 1153.5,-129 1002.5,-129"/>
<text text-anchor="middle" x="1078" y="-136" font-family="Helvetica,sans-Serif" font-size="10.00">Cpl/Dm/SubscriberComposer.h</text>
</a>
</g>
</g>
<!-- Node31&#45;&gt;Node81 -->
<g id="edge29" class="edge"><title>Node31&#45;&gt;Node81</title>
<path fill="none" stroke="midnightblue" d="M1078,-185.537C1078,-173.17 1078,-157.62 1078,-148.127"/>
<polygon fill="midnightblue" stroke="midnightblue" points="1074.5,-185.734 1078,-195.734 1081.5,-185.734 1074.5,-185.734"/>
</g>
<!-- Node56 -->
<g id="node25" class="node"><title>Node56</title>
<g id="a_node25"><a xlink:href="_mp_thermostat_mode_8h.html" target="_top" xlink:title=" ">
<polygon fill="white" stroke="red" points="1342.5,-129 1342.5,-148 1501.5,-148 1501.5,-129 1342.5,-129"/>
<text text-anchor="middle" x="1422" y="-136" font-family="Helvetica,sans-Serif" font-size="10.00">Storm/Dm/MpThermostatMode.h</text>
</a>
</g>
</g>
<!-- Node31&#45;&gt;Node56 -->
<g id="edge32" class="edge"><title>Node31&#45;&gt;Node56</title>
<path fill="none" stroke="midnightblue" d="M1123.4,-193.774C1129.31,-192.459 1135.29,-191.169 1141,-190 1220.76,-173.665 1313.84,-157.503 1370.32,-148.016"/>
<polygon fill="midnightblue" stroke="midnightblue" points="1122.57,-190.375 1113.58,-195.993 1124.11,-197.203 1122.57,-190.375"/>
</g>
<!-- Node81&#45;&gt;Node14 -->
<g id="edge30" class="edge"><title>Node81&#45;&gt;Node14</title>
<path fill="none" stroke="midnightblue" d="M1079.4,-118.913C1079.7,-100.021 1076.84,-71.4076 1059,-56 1024.03,-25.7951 725.112,-15.4591 587.2,-12.2765"/>
<polygon fill="midnightblue" stroke="midnightblue" points="1075.9,-118.825 1078.93,-128.977 1082.89,-119.151 1075.9,-118.825"/>
</g>
<!-- Node81&#45;&gt;Node30 -->
<g id="edge31" class="edge"><title>Node81&#45;&gt;Node30</title>
<path fill="none" stroke="midnightblue" d="M1056.37,-123.153C1039.97,-112.275 1017.55,-97.4029 1001.24,-86.589"/>
<polygon fill="midnightblue" stroke="midnightblue" points="1054.52,-126.123 1064.78,-128.734 1058.38,-120.29 1054.52,-126.123"/>
</g>
<!-- Node82&#45;&gt;Node11 -->
<g id="edge34" class="edge"><title>Node82&#45;&gt;Node11</title>
<path fill="none" stroke="midnightblue" d="M706,-252.537C706,-240.17 706,-224.62 706,-215.127"/>
<polygon fill="midnightblue" stroke="midnightblue" points="702.5,-252.734 706,-262.734 709.5,-252.734 702.5,-252.734"/>
</g>
<!-- Node82&#45;&gt;Node83 -->
<g id="edge35" class="edge"><title>Node82&#45;&gt;Node83</title>
<path fill="none" stroke="midnightblue" d="M675.876,-258.948C644.989,-246.079 597.768,-226.403 570.801,-215.167"/>
<polygon fill="midnightblue" stroke="midnightblue" points="674.707,-262.253 685.284,-262.869 677.4,-255.792 674.707,-262.253"/>
</g>
<!-- Node84 -->
<g id="node28" class="node"><title>Node84</title>
<g id="a_node28"><a xlink:href="_itc_2_periodic_scheduler_8h.html" target="_top" xlink:title=" ">
<polygon fill="white" stroke="black" points="11.5,-129 11.5,-148 146.5,-148 146.5,-129 11.5,-129"/>
<text text-anchor="middle" x="79" y="-136" font-family="Helvetica,sans-Serif" font-size="10.00">Cpl/Itc/PeriodicScheduler.h</text>
</a>
</g>
</g>
<!-- Node83&#45;&gt;Node84 -->
<g id="edge36" class="edge"><title>Node83&#45;&gt;Node84</title>
<path fill="none" stroke="midnightblue" d="M502.269,-193.842C495.16,-192.437 487.903,-191.104 481,-190 337.059,-166.984 299.149,-175.676 155,-154 143.842,-152.322 131.824,-150.184 120.712,-148.069"/>
<polygon fill="midnightblue" stroke="midnightblue" points="502.024,-197.364 512.522,-195.933 503.423,-190.505 502.024,-197.364"/>
</g>
<!-- Node86&#45;&gt;Node5 -->
<g id="edge41" class="edge"><title>Node86&#45;&gt;Node5</title>
<path fill="none" stroke="midnightblue" d="M1261.14,-330.948C1125.29,-326.294 800.981,-313.324 530,-288 513.069,-286.418 494.744,-284.223 477.956,-282.02"/>
<polygon fill="midnightblue" stroke="midnightblue" points="1261.26,-334.454 1271.37,-331.295 1261.49,-327.458 1261.26,-334.454"/>
</g>
<!-- Node86&#45;&gt;Node8 -->
<g id="edge58" class="edge"><title>Node86&#45;&gt;Node8</title>
<path fill="none" stroke="midnightblue" d="M1260.88,-332.251C1140.15,-330.066 873.685,-321.509 652,-288 642.313,-286.536 631.898,-284.309 622.464,-282.037"/>
<polygon fill="midnightblue" stroke="midnightblue" points="1261,-335.753 1271.06,-332.426 1261.12,-328.754 1261,-335.753"/>
</g>
<!-- Node86&#45;&gt;Node10 -->
<g id="edge40" class="edge"><title>Node86&#45;&gt;Node10</title>
<path fill="none" stroke="midnightblue" d="M1261.03,-328.891C1174.88,-322.866 1018.31,-309.905 886,-288 876.367,-286.405 866.005,-284.22 856.522,-282.029"/>
<polygon fill="midnightblue" stroke="midnightblue" points="1260.96,-332.395 1271.18,-329.592 1261.44,-325.412 1260.96,-332.395"/>
</g>
<!-- Node87 -->
<g id="node31" class="node"><title>Node87</title>
<g id="a_node31"><a xlink:href="_bare_metal_2_thread_8h.html" target="_top" xlink:title=" ">
<polygon fill="white" stroke="black" points="1127.5,-257.5 1127.5,-287.5 1242.5,-287.5 1242.5,-257.5 1127.5,-257.5"/>
<text text-anchor="start" x="1135.5" y="-275.5" font-family="Helvetica,sans-Serif" font-size="10.00">Cpl/System/BareMetal</text>
<text text-anchor="middle" x="1185" y="-264.5" font-family="Helvetica,sans-Serif" font-size="10.00">/Thread.h</text>
</a>
</g>
</g>
<!-- Node86&#45;&gt;Node87 -->
<g id="edge42" class="edge"><title>Node86&#45;&gt;Node87</title>
<path fill="none" stroke="midnightblue" d="M1296.28,-320.461C1273.45,-310.823 1241.9,-297.513 1218.23,-287.523"/>
<polygon fill="midnightblue" stroke="midnightblue" points="1295.22,-323.812 1305.8,-324.475 1297.95,-317.363 1295.22,-323.812"/>
</g>
<!-- Node88 -->
<g id="node32" class="node"><title>Node88</title>
<g id="a_node32"><a xlink:href="_cpp11_2_thread_8h.html" target="_top" xlink:title=" ">
<polygon fill="white" stroke="black" points="1410,-263 1410,-282 1550,-282 1550,-263 1410,-263"/>
<text text-anchor="middle" x="1480" y="-270" font-family="Helvetica,sans-Serif" font-size="10.00">Cpl/System/Cpp11/Thread.h</text>
</a>
</g>
</g>
<!-- Node86&#45;&gt;Node88 -->
<g id="edge43" class="edge"><title>Node86&#45;&gt;Node88</title>
<path fill="none" stroke="midnightblue" d="M1357.62,-320.782C1387.55,-309.22 1431.69,-292.164 1457.98,-282.009"/>
<polygon fill="midnightblue" stroke="midnightblue" points="1356.13,-317.606 1348.06,-324.475 1358.65,-324.136 1356.13,-317.606"/>
</g>
<!-- Node89 -->
<g id="node33" class="node"><title>Node89</title>
<g id="a_node33"><a xlink:href="_free_r_t_o_s_2_thread_8h.html" target="_top" xlink:title=" ">
<polygon fill="white" stroke="black" points="1568.5,-257.5 1568.5,-287.5 1685.5,-287.5 1685.5,-257.5 1568.5,-257.5"/>
<text text-anchor="start" x="1576.5" y="-275.5" font-family="Helvetica,sans-Serif" font-size="10.00">Cpl/System/FreeRTOS</text>
<text text-anchor="middle" x="1627" y="-264.5" font-family="Helvetica,sans-Serif" font-size="10.00">/Thread.h</text>
</a>
</g>
</g>
<!-- Node86&#45;&gt;Node89 -->
<g id="edge44" class="edge"><title>Node86&#45;&gt;Node89</title>
<path fill="none" stroke="midnightblue" d="M1381.62,-322.571C1428.86,-313.638 1498.44,-300.303 1559,-288 1562.08,-287.375 1565.23,-286.728 1568.41,-286.069"/>
<polygon fill="midnightblue" stroke="midnightblue" points="1380.77,-319.169 1371.59,-324.464 1382.07,-326.048 1380.77,-319.169"/>
</g>
<!-- Node90 -->
<g id="node34" class="node"><title>Node90</title>
<g id="a_node34"><a xlink:href="_posix_2_thread_8h.html" target="_top" xlink:title=" ">
<polygon fill="white" stroke="black" points="1703.5,-263 1703.5,-282 1840.5,-282 1840.5,-263 1703.5,-263"/>
<text text-anchor="middle" x="1772" y="-270" font-family="Helvetica,sans-Serif" font-size="10.00">Cpl/System/Posix/Thread.h</text>
</a>
</g>
</g>
<!-- Node86&#45;&gt;Node90 -->
<g id="edge45" class="edge"><title>Node86&#45;&gt;Node90</title>
<path fill="none" stroke="midnightblue" d="M1390.75,-326.313C1464.39,-318.423 1588.13,-304.297 1694,-288 1705.3,-286.261 1717.47,-284.125 1728.76,-282.033"/>
<polygon fill="midnightblue" stroke="midnightblue" points="1390.27,-322.844 1380.7,-327.384 1391.02,-329.805 1390.27,-322.844"/>
</g>
<!-- Node91 -->
<g id="node35" class="node"><title>Node91</title>
<g id="a_node35"><a xlink:href="_r_p2040_2_thread_8h.html" target="_top" xlink:title=" ">
<polygon fill="white" stroke="black" points="1859,-263 1859,-282 2005,-282 2005,-263 1859,-263"/>
<text text-anchor="middle" x="1932" y="-270" font-family="Helvetica,sans-Serif" font-size="10.00">Cpl/System/RP2040/Thread.h</text>
</a>
</g>
</g>
<!-- Node86&#45;&gt;Node91 -->
<g id="edge46" class="edge"><title>Node86&#45;&gt;Node91</title>
<path fill="none" stroke="midnightblue" d="M1391.04,-329.289C1490.29,-323.204 1685.4,-309.577 1850,-288 1862.33,-286.384 1875.63,-284.217 1887.85,-282.052"/>
<polygon fill="midnightblue" stroke="midnightblue" points="1390.64,-325.807 1380.87,-329.907 1391.06,-332.794 1390.64,-325.807"/>
</g>
<!-- Node92 -->
<g id="node36" class="node"><title>Node92</title>
<g id="a_node36"><a xlink:href="_system_2_trace_8h.html" target="_top" xlink:title=" ">
<polygon fill="white" stroke="black" points="2294,-263 2294,-282 2398,-282 2398,-263 2294,-263"/>
<text text-anchor="middle" x="2346" y="-270" font-family="Helvetica,sans-Serif" font-size="10.00">Cpl/System/Trace.h</text>
</a>
</g>
</g>
<!-- Node86&#45;&gt;Node92 -->
<g id="edge47" class="edge"><title>Node86&#45;&gt;Node92</title>
<path fill="none" stroke="midnightblue" d="M1390.9,-331.533C1577.25,-327.07 2111.68,-312.448 2285,-288 2294.92,-286.601 2305.58,-284.335 2315.18,-282.006"/>
<polygon fill="midnightblue" stroke="midnightblue" points="1390.62,-328.038 1380.71,-331.775 1390.79,-335.036 1390.62,-328.038"/>
</g>
<!-- Node98 -->
<g id="node42" class="node"><title>Node98</title>
<g id="a_node42"><a xlink:href="_win32_2_thread_8h.html" target="_top" xlink:title=" ">
<polygon fill="white" stroke="black" points="2023.5,-263 2023.5,-282 2162.5,-282 2162.5,-263 2023.5,-263"/>
<text text-anchor="middle" x="2093" y="-270" font-family="Helvetica,sans-Serif" font-size="10.00">Cpl/System/Win32/Thread.h</text>
</a>
</g>
</g>
<!-- Node86&#45;&gt;Node98 -->
<g id="edge54" class="edge"><title>Node86&#45;&gt;Node98</title>
<path fill="none" stroke="midnightblue" d="M1390.91,-331.268C1513.23,-327.448 1786.04,-316.279 2014,-288 2026.32,-286.472 2039.62,-284.254 2051.73,-282.01"/>
<polygon fill="midnightblue" stroke="midnightblue" points="1390.5,-327.779 1380.61,-331.584 1390.71,-334.776 1390.5,-327.779"/>
</g>
<!-- Node99 -->
<g id="node43" class="node"><title>Node99</title>
<g id="a_node43"><a xlink:href="_threads_8h.html" target="_top" xlink:title=" ">
<polygon fill="white" stroke="black" points="1260.5,-263 1260.5,-282 1391.5,-282 1391.5,-263 1260.5,-263"/>
<text text-anchor="middle" x="1326" y="-270" font-family="Helvetica,sans-Serif" font-size="10.00">Cpl/TShell/Cmd/Threads.h</text>
</a>
</g>
</g>
<!-- Node86&#45;&gt;Node99 -->
<g id="edge55" class="edge"><title>Node86&#45;&gt;Node99</title>
<path fill="none" stroke="midnightblue" d="M1326,-314.317C1326,-303.496 1326,-290.398 1326,-282.009"/>
<polygon fill="midnightblue" stroke="midnightblue" points="1322.5,-314.475 1326,-324.475 1329.5,-314.475 1322.5,-314.475"/>
</g>
<!-- Node102 -->
<g id="node46" class="node"><title>Node102</title>
<g id="a_node46"><a xlink:href="_t_shell_2_stdio_8h.html" target="_top" xlink:title=" ">
<polygon fill="white" stroke="black" points="2180.5,-263 2180.5,-282 2275.5,-282 2275.5,-263 2180.5,-263"/>
<text text-anchor="middle" x="2228" y="-270" font-family="Helvetica,sans-Serif" font-size="10.00">Cpl/TShell/Stdio.h</text>
</a>
</g>
</g>
<!-- Node86&#45;&gt;Node102 -->
<g id="edge59" class="edge"><title>Node86&#45;&gt;Node102</title>
<path fill="none" stroke="midnightblue" d="M1390.83,-331.232C1561.72,-326.303 2021.63,-311.227 2172,-288 2181.03,-286.605 2190.72,-284.369 2199.45,-282.067"/>
<polygon fill="midnightblue" stroke="midnightblue" points="1390.62,-327.737 1380.73,-331.521 1390.82,-334.734 1390.62,-327.737"/>
</g>
<!-- Node103 -->
<g id="node47" class="node"><title>Node103</title>
<g id="a_node47"><a xlink:href="_receiver_8h.html" target="_top" xlink:title=" ">
<polygon fill="white" stroke="black" points="1011,-257.5 1011,-287.5 1109,-287.5 1109,-257.5 1011,-257.5"/>
<text text-anchor="start" x="1019" y="-275.5" font-family="Helvetica,sans-Serif" font-size="10.00">Driver/Uart/Stream</text>
<text text-anchor="middle" x="1060" y="-264.5" font-family="Helvetica,sans-Serif" font-size="10.00">/Receiver.h</text>
</a>
</g>
</g>
<!-- Node86&#45;&gt;Node103 -->
<g id="edge60" class="edge"><title>Node86&#45;&gt;Node103</title>
<path fill="none" stroke="midnightblue" d="M1274.45,-322.325C1232.3,-313.481 1171.19,-300.398 1118,-288 1115.07,-287.317 1112.06,-286.602 1109.02,-285.872"/>
<polygon fill="midnightblue" stroke="midnightblue" points="1273.97,-325.8 1284.48,-324.423 1275.4,-318.949 1273.97,-325.8"/>
</g>
<!-- Node106 -->
<g id="node50" class="node"><title>Node106</title>
<g id="a_node50"><a xlink:href="_transmitter_8h.html" target="_top" xlink:title=" ">
<polygon fill="white" stroke="black" points="895,-257.5 895,-287.5 993,-287.5 993,-257.5 895,-257.5"/>
<text text-anchor="start" x="903" y="-275.5" font-family="Helvetica,sans-Serif" font-size="10.00">Driver/Uart/Stream</text>
<text text-anchor="middle" x="944" y="-264.5" font-family="Helvetica,sans-Serif" font-size="10.00">/Transmitter.h</text>
</a>
</g>
</g>
<!-- Node86&#45;&gt;Node106 -->
<g id="edge63" class="edge"><title>Node86&#45;&gt;Node106</title>
<path fill="none" stroke="midnightblue" d="M1261.05,-326.049C1195.39,-318.539 1091.17,-305.287 1002,-288 999.147,-287.447 996.224,-286.841 993.281,-286.201"/>
<polygon fill="midnightblue" stroke="midnightblue" points="1260.91,-329.557 1271.25,-327.205 1261.7,-322.601 1260.91,-329.557"/>
</g>
<!-- Node92&#45;&gt;Node30 -->
<g id="edge53" class="edge"><title>Node92&#45;&gt;Node30</title>
<path fill="none" stroke="midnightblue" d="M2374.12,-257.954C2388.42,-249.465 2404.54,-237.069 2413,-221 2433.31,-182.446 2446.27,-154.35 2416,-123 2368.11,-73.394 1331.55,-71.8064 1050.02,-72.2944"/>
<polygon fill="midnightblue" stroke="midnightblue" points="2372.13,-255.056 2365.08,-262.967 2375.52,-261.178 2372.13,-255.056"/>
</g>
<!-- Node93 -->
<g id="node37" class="node"><title>Node93</title>
<g id="a_node37"><a xlink:href="helpers_8h.html" target="_top" xlink:title="This file defines helper functions/interface for writing unit tests.">
<polygon fill="white" stroke="black" points="2022.5,-196 2022.5,-215 2107.5,-215 2107.5,-196 2022.5,-196"/>
<text text-anchor="middle" x="2065" y="-203" font-family="Helvetica,sans-Serif" font-size="10.00">Catch/helpers.h</text>
</a>
</g>
</g>
<!-- Node92&#45;&gt;Node93 -->
<g id="edge48" class="edge"><title>Node92&#45;&gt;Node93</title>
<path fill="none" stroke="midnightblue" d="M2300.57,-260.583C2295.32,-259.357 2290.05,-258.14 2285,-257 2210.52,-240.169 2191.15,-239.264 2117,-221 2109.63,-219.184 2101.72,-217.066 2094.34,-215.018"/>
<polygon fill="midnightblue" stroke="midnightblue" points="2300.01,-264.048 2310.55,-262.932 2301.62,-257.234 2300.01,-264.048"/>
</g>
<!-- Node94 -->
<g id="node38" class="node"><title>Node94</title>
<g id="a_node38"><a xlink:href="_cpl_2_system_2_private___8h.html" target="_top" xlink:title="This file contains a collection of classes, interfaces, etc.">
<polygon fill="white" stroke="black" points="2288.5,-196 2288.5,-215 2403.5,-215 2403.5,-196 2288.5,-196"/>
<text text-anchor="middle" x="2346" y="-203" font-family="Helvetica,sans-Serif" font-size="10.00">Cpl/System/Private_.h</text>
</a>
</g>
</g>
<!-- Node92&#45;&gt;Node94 -->
<g id="edge49" class="edge"><title>Node92&#45;&gt;Node94</title>
<path fill="none" stroke="midnightblue" d="M2346,-252.537C2346,-240.17 2346,-224.62 2346,-215.127"/>
<polygon fill="midnightblue" stroke="midnightblue" points="2342.5,-252.734 2346,-262.734 2349.5,-252.734 2342.5,-252.734"/>
</g>
<!-- Node97 -->
<g id="node41" class="node"><title>Node97</title>
<g id="a_node41"><a xlink:href="_fsm__trace___8h.html" target="_top" xlink:title=" ">
<polygon fill="white" stroke="black" points="2125.5,-190.5 2125.5,-220.5 2270.5,-220.5 2270.5,-190.5 2125.5,-190.5"/>
<text text-anchor="start" x="2133.5" y="-208.5" font-family="Helvetica,sans-Serif" font-size="10.00">Storm/Component/Equipment</text>
<text text-anchor="middle" x="2198" y="-197.5" font-family="Helvetica,sans-Serif" font-size="10.00">/Stage/Fsm_trace_.h</text>
</a>
</g>
</g>
<!-- Node92&#45;&gt;Node97 -->
<g id="edge52" class="edge"><title>Node92&#45;&gt;Node97</title>
<path fill="none" stroke="midnightblue" d="M2317.01,-258.767C2291.96,-247.766 2255.81,-231.892 2229.94,-220.528"/>
<polygon fill="midnightblue" stroke="midnightblue" points="2315.78,-262.052 2326.35,-262.869 2318.6,-255.643 2315.78,-262.052"/>
</g>
<!-- Node95 -->
<g id="node39" class="node"><title>Node95</title>
<g id="a_node39"><a xlink:href="_cpl_2_t_shell_2_maker_8h.html" target="_top" xlink:title=" ">
<polygon fill="white" stroke="black" points="2161,-129 2161,-148 2261,-148 2261,-129 2161,-129"/>
<text text-anchor="middle" x="2211" y="-136" font-family="Helvetica,sans-Serif" font-size="10.00">Cpl/TShell/Maker.h</text>
</a>
</g>
</g>
<!-- Node94&#45;&gt;Node95 -->
<g id="edge50" class="edge"><title>Node94&#45;&gt;Node95</title>
<path fill="none" stroke="midnightblue" d="M2318.88,-191.444C2292.14,-178.569 2252.03,-159.257 2229,-148.167"/>
<polygon fill="midnightblue" stroke="midnightblue" points="2317.54,-194.684 2328.07,-195.869 2320.58,-188.377 2317.54,-194.684"/>
</g>
<!-- Node96 -->
<g id="node40" class="node"><title>Node96</title>
<g id="a_node40"><a xlink:href="_polled_maker_8h.html" target="_top" xlink:title=" ">
<polygon fill="white" stroke="black" points="2279.5,-129 2279.5,-148 2406.5,-148 2406.5,-129 2279.5,-129"/>
<text text-anchor="middle" x="2343" y="-136" font-family="Helvetica,sans-Serif" font-size="10.00">Cpl/TShell/PolledMaker.h</text>
</a>
</g>
</g>
<!-- Node94&#45;&gt;Node96 -->
<g id="edge51" class="edge"><title>Node94&#45;&gt;Node96</title>
<path fill="none" stroke="midnightblue" d="M2345.12,-185.537C2344.55,-173.17 2343.84,-157.62 2343.4,-148.127"/>
<polygon fill="midnightblue" stroke="midnightblue" points="2341.64,-185.906 2345.6,-195.734 2348.63,-185.583 2341.64,-185.906"/>
</g>
<!-- Node100 -->
<g id="node44" class="node"><title>Node100</title>
<g id="a_node44"><a xlink:href="_free_r_t_o_s_2_threads_8h.html" target="_top" xlink:title=" ">
<polygon fill="white" stroke="black" points="1401,-190.5 1401,-220.5 1535,-220.5 1535,-190.5 1401,-190.5"/>
<text text-anchor="start" x="1409" y="-208.5" font-family="Helvetica,sans-Serif" font-size="10.00">Cpl/TShell/Cmd/FreeRTOS</text>
<text text-anchor="middle" x="1468" y="-197.5" font-family="Helvetica,sans-Serif" font-size="10.00">/Threads.h</text>
</a>
</g>
</g>
<!-- Node99&#45;&gt;Node100 -->
<g id="edge56" class="edge"><title>Node99&#45;&gt;Node100</title>
<path fill="none" stroke="midnightblue" d="M1354.14,-258.621C1378.16,-247.625 1412.64,-231.841 1437.35,-220.528"/>
<polygon fill="midnightblue" stroke="midnightblue" points="1352.49,-255.524 1344.86,-262.869 1355.41,-261.889 1352.49,-255.524"/>
</g>
<!-- Node101 -->
<g id="node45" class="node"><title>Node101</title>
<g id="a_node45"><a xlink:href="_win32_2_threads_8h.html" target="_top" xlink:title=" ">
<polygon fill="white" stroke="black" points="1267.5,-190.5 1267.5,-220.5 1382.5,-220.5 1382.5,-190.5 1267.5,-190.5"/>
<text text-anchor="start" x="1275.5" y="-208.5" font-family="Helvetica,sans-Serif" font-size="10.00">Cpl/TShell/Cmd/Win32</text>
<text text-anchor="middle" x="1325" y="-197.5" font-family="Helvetica,sans-Serif" font-size="10.00">/Threads.h</text>
</a>
</g>
</g>
<!-- Node99&#45;&gt;Node101 -->
<g id="edge57" class="edge"><title>Node99&#45;&gt;Node101</title>
<path fill="none" stroke="midnightblue" d="M1325.71,-252.411C1325.55,-242.222 1325.36,-229.901 1325.22,-220.589"/>
<polygon fill="midnightblue" stroke="midnightblue" points="1322.21,-252.789 1325.87,-262.734 1329.21,-252.681 1322.21,-252.789"/>
</g>
<!-- Node104 -->
<g id="node48" class="node"><title>Node104</title>
<g id="a_node48"><a xlink:href="_driver_2_uart_2_stream_2_input_output___8h.html" target="_top" xlink:title=" ">
<polygon fill="white" stroke="black" points="1150,-190.5 1150,-220.5 1248,-220.5 1248,-190.5 1150,-190.5"/>
<text text-anchor="start" x="1158" y="-208.5" font-family="Helvetica,sans-Serif" font-size="10.00">Driver/Uart/Stream</text>
<text text-anchor="middle" x="1199" y="-197.5" font-family="Helvetica,sans-Serif" font-size="10.00">/InputOutput_.h</text>
</a>
</g>
</g>
<!-- Node103&#45;&gt;Node104 -->
<g id="edge61" class="edge"><title>Node103&#45;&gt;Node104</title>
<path fill="none" stroke="midnightblue" d="M1099.28,-253.131C1121.37,-242.802 1148.51,-230.11 1168.9,-220.577"/>
<polygon fill="midnightblue" stroke="midnightblue" points="1097.74,-249.989 1090.16,-257.396 1100.7,-256.33 1097.74,-249.989"/>
</g>
<!-- Node105 -->
<g id="node49" class="node"><title>Node105</title>
<g id="a_node49"><a xlink:href="_serial_2_renesas_2_rx62n_2_input_output_8h.html" target="_top" xlink:title=" ">
<polygon fill="white" stroke="black" points="1519.5,-123.5 1519.5,-153.5 1630.5,-153.5 1630.5,-123.5 1519.5,-123.5"/>
<text text-anchor="start" x="1527.5" y="-141.5" font-family="Helvetica,sans-Serif" font-size="10.00">Cpl/Io/Serial/Renesas</text>
<text text-anchor="middle" x="1575" y="-130.5" font-family="Helvetica,sans-Serif" font-size="10.00">/Rx62n/InputOutput.h</text>
</a>
</g>
</g>
<!-- Node104&#45;&gt;Node105 -->
<g id="edge62" class="edge"><title>Node104&#45;&gt;Node105</title>
<path fill="none" stroke="midnightblue" d="M1257.7,-190.059C1257.8,-190.039 1257.9,-190.019 1258,-190 1369.07,-168.473 1398.7,-174.332 1510,-154 1513.07,-153.439 1516.22,-152.835 1519.39,-152.203"/>
<polygon fill="midnightblue" stroke="midnightblue" points="1257.26,-186.575 1248.17,-192.028 1258.68,-193.43 1257.26,-186.575"/>
</g>
<!-- Node106&#45;&gt;Node104 -->
<g id="edge64" class="edge"><title>Node106&#45;&gt;Node104</title>
<path fill="none" stroke="midnightblue" d="M1002.99,-256.462C1047.57,-245.099 1108.05,-229.684 1149.98,-218.994"/>
<polygon fill="midnightblue" stroke="midnightblue" points="1001.99,-253.106 993.167,-258.967 1003.72,-259.889 1001.99,-253.106"/>
</g>
</g>
</svg>
