<?xml version="1.0" encoding="UTF-8" standalone="no"?>
<!DOCTYPE svg PUBLIC "-//W3C//DTD SVG 1.1//EN"
 "http://www.w3.org/Graphics/SVG/1.1/DTD/svg11.dtd">
<!-- Generated by graphviz version 2.38.0 (20140413.2041)
 -->
<!-- Title: Cpl/System/Runnable.h Pages: 1 -->
<svg width="2426pt" height="408pt"
 viewBox="0.00 0.00 2425.50 408.00" xmlns="http://www.w3.org/2000/svg" xmlns:xlink="http://www.w3.org/1999/xlink">
<g id="graph0" class="graph" transform="scale(1 1) rotate(0) translate(4 404)">
<title>Cpl/System/Runnable.h</title>
<polygon fill="white" stroke="none" points="-4,4 -4,-404 2421.5,-404 2421.5,4 -4,4"/>
<!-- Node1 -->
<g id="node1" class="node"><title>Node1</title>
<g id="a_node1"><a xlink:title=" ">
<polygon fill="#bfbfbf" stroke="black" points="550,-380.5 550,-399.5 669,-399.5 669,-380.5 550,-380.5"/>
<text text-anchor="middle" x="609.5" y="-387.5" font-family="Helvetica,sans-Serif" font-size="10.00">Cpl/System/Runnable.h</text>
</a>
</g>
</g>
<!-- Node2 -->
<g id="node2" class="node"><title>Node2</title>
<g id="a_node2"><a xlink:href="_listener_8h.html" target="_top" xlink:title=" ">
<polygon fill="white" stroke="black" points="249.5,-324.5 249.5,-343.5 371.5,-343.5 371.5,-324.5 249.5,-324.5"/>
<text text-anchor="middle" x="310.5" y="-331.5" font-family="Helvetica,sans-Serif" font-size="10.00">Cpl/Io/Socket/Listener.h</text>
</a>
</g>
</g>
<!-- Node1&#45;&gt;Node2 -->
<g id="edge1" class="edge"><title>Node1&#45;&gt;Node2</title>
<path fill="none" stroke="midnightblue" d="M552.27,-378.664C495.765,-368.459 410.38,-353.039 357.656,-343.516"/>
<polygon fill="midnightblue" stroke="midnightblue" points="551.66,-382.11 562.123,-380.444 552.904,-375.222 551.66,-382.11"/>
</g>
<!-- Node9 -->
<g id="node9" class="node"><title>Node9</title>
<g id="a_node9"><a xlink:href="_system_2_event_loop_8h.html" target="_top" xlink:title=" ">
<polygon fill="white" stroke="black" points="547,-324.5 547,-343.5 672,-343.5 672,-324.5 547,-324.5"/>
<text text-anchor="middle" x="609.5" y="-331.5" font-family="Helvetica,sans-Serif" font-size="10.00">Cpl/System/EventLoop.h</text>
</a>
</g>
</g>
<!-- Node1&#45;&gt;Node9 -->
<g id="edge9" class="edge"><title>Node1&#45;&gt;Node9</title>
<path fill="none" stroke="midnightblue" d="M609.5,-369.805C609.5,-360.91 609.5,-350.78 609.5,-343.751"/>
<polygon fill="midnightblue" stroke="midnightblue" points="606,-370.083 609.5,-380.083 613,-370.083 606,-370.083"/>
</g>
<!-- Node47 -->
<g id="node31" class="node"><title>Node47</title>
<g id="a_node31"><a xlink:href="_thread_8h.html" target="_top" xlink:title=" ">
<polygon fill="white" stroke="black" points="1211,-324.5 1211,-343.5 1320,-343.5 1320,-324.5 1211,-324.5"/>
<text text-anchor="middle" x="1265.5" y="-331.5" font-family="Helvetica,sans-Serif" font-size="10.00">Cpl/System/Thread.h</text>
</a>
</g>
</g>
<!-- Node1&#45;&gt;Node47 -->
<g id="edge41" class="edge"><title>Node1&#45;&gt;Node47</title>
<path fill="none" stroke="midnightblue" d="M679.511,-383.237C811.016,-372.412 1092.36,-349.253 1210.97,-339.489"/>
<polygon fill="midnightblue" stroke="midnightblue" points="678.842,-379.78 669.163,-384.089 679.417,-386.756 678.842,-379.78"/>
</g>
<!-- Node3 -->
<g id="node3" class="node"><title>Node3</title>
<g id="a_node3"><a xlink:href="_listener_client_request_8h.html" target="_top" xlink:title=" ">
<polygon fill="white" stroke="black" points="102.5,-257.5 102.5,-287.5 240.5,-287.5 240.5,-257.5 102.5,-257.5"/>
<text text-anchor="start" x="110.5" y="-275.5" font-family="Helvetica,sans-Serif" font-size="10.00">Cpl/Io/Socket/ListenerClient</text>
<text text-anchor="middle" x="171.5" y="-264.5" font-family="Helvetica,sans-Serif" font-size="10.00">Request.h</text>
</a>
</g>
</g>
<!-- Node2&#45;&gt;Node3 -->
<g id="edge2" class="edge"><title>Node2&#45;&gt;Node3</title>
<path fill="none" stroke="midnightblue" d="M281.206,-320.461C258.692,-310.823 227.597,-297.513 204.26,-287.523"/>
<polygon fill="midnightblue" stroke="midnightblue" points="280.014,-323.757 290.585,-324.475 282.769,-317.322 280.014,-323.757"/>
</g>
<!-- Node4 -->
<g id="node4" class="node"><title>Node4</title>
<g id="a_node4"><a xlink:href="_listener_client_sync_8h.html" target="_top" xlink:title=" ">
<polygon fill="white" stroke="black" points="54.5,-190.5 54.5,-220.5 192.5,-220.5 192.5,-190.5 54.5,-190.5"/>
<text text-anchor="start" x="62.5" y="-208.5" font-family="Helvetica,sans-Serif" font-size="10.00">Cpl/Io/Socket/ListenerClient</text>
<text text-anchor="middle" x="123.5" y="-197.5" font-family="Helvetica,sans-Serif" font-size="10.00">Sync.h</text>
</a>
</g>
</g>
<!-- Node2&#45;&gt;Node4 -->
<g id="edge4" class="edge"><title>Node2&#45;&gt;Node4</title>
<path fill="none" stroke="midnightblue" d="M239.239,-327.773C183.233,-322.007 111.734,-310.403 93.5,-288 77.1297,-267.887 96.2995,-238.01 110.642,-220.569"/>
<polygon fill="midnightblue" stroke="midnightblue" points="239.205,-331.286 249.5,-328.783 239.891,-324.32 239.205,-331.286"/>
</g>
<!-- Node5 -->
<g id="node5" class="node"><title>Node5</title>
<g id="a_node5"><a xlink:href="_listener___8h.html" target="_top" xlink:title=" ">
<polygon fill="white" stroke="black" points="381,-263 381,-282 508,-282 508,-263 381,-263"/>
<text text-anchor="middle" x="444.5" y="-270" font-family="Helvetica,sans-Serif" font-size="10.00">Cpl/Io/Socket/Listener_.h</text>
</a>
</g>
</g>
<!-- Node2&#45;&gt;Node5 -->
<g id="edge5" class="edge"><title>Node2&#45;&gt;Node5</title>
<path fill="none" stroke="midnightblue" d="M339.04,-320.327C365.055,-308.776 402.765,-292.032 425.337,-282.009"/>
<polygon fill="midnightblue" stroke="midnightblue" points="337.418,-317.218 329.699,-324.475 340.259,-323.616 337.418,-317.218"/>
</g>
<!-- Node8 -->
<g id="node8" class="node"><title>Node8</title>
<g id="a_node8"><a xlink:href="_socket_8h.html" target="_top" xlink:title=" ">
<polygon fill="white" stroke="black" points="258.5,-263 258.5,-282 362.5,-282 362.5,-263 258.5,-263"/>
<text text-anchor="middle" x="310.5" y="-270" font-family="Helvetica,sans-Serif" font-size="10.00">Cpl/TShell/Socket.h</text>
</a>
</g>
</g>
<!-- Node2&#45;&gt;Node8 -->
<g id="edge8" class="edge"><title>Node2&#45;&gt;Node8</title>
<path fill="none" stroke="midnightblue" d="M310.5,-314.317C310.5,-303.496 310.5,-290.398 310.5,-282.009"/>
<polygon fill="midnightblue" stroke="midnightblue" points="307,-314.475 310.5,-324.475 314,-314.475 307,-314.475"/>
</g>
<!-- Node3&#45;&gt;Node4 -->
<g id="edge3" class="edge"><title>Node3&#45;&gt;Node4</title>
<path fill="none" stroke="midnightblue" d="M155.001,-249.157C148.001,-239.679 140.055,-228.919 133.895,-220.577"/>
<polygon fill="midnightblue" stroke="midnightblue" points="152.329,-251.431 161.085,-257.396 157.96,-247.272 152.329,-251.431"/>
</g>
<!-- Node6 -->
<g id="node6" class="node"><title>Node6</title>
<g id="a_node6"><a xlink:href="_posix_2_listener_8h.html" target="_top" xlink:title=" ">
<polygon fill="white" stroke="black" points="392.5,-190.5 392.5,-220.5 496.5,-220.5 496.5,-190.5 392.5,-190.5"/>
<text text-anchor="start" x="400.5" y="-208.5" font-family="Helvetica,sans-Serif" font-size="10.00">Cpl/Io/Socket/Posix</text>
<text text-anchor="middle" x="444.5" y="-197.5" font-family="Helvetica,sans-Serif" font-size="10.00">/Listener.h</text>
</a>
</g>
</g>
<!-- Node5&#45;&gt;Node6 -->
<g id="edge6" class="edge"><title>Node5&#45;&gt;Node6</title>
<path fill="none" stroke="midnightblue" d="M444.5,-252.411C444.5,-242.222 444.5,-229.901 444.5,-220.589"/>
<polygon fill="midnightblue" stroke="midnightblue" points="441,-252.734 444.5,-262.734 448,-252.734 441,-252.734"/>
</g>
<!-- Node7 -->
<g id="node7" class="node"><title>Node7</title>
<g id="a_node7"><a xlink:href="_win32_2_listener_8h.html" target="_top" xlink:title=" ">
<polygon fill="white" stroke="black" points="268.5,-190.5 268.5,-220.5 374.5,-220.5 374.5,-190.5 268.5,-190.5"/>
<text text-anchor="start" x="276.5" y="-208.5" font-family="Helvetica,sans-Serif" font-size="10.00">Cpl/Io/Socket/Win32</text>
<text text-anchor="middle" x="321.5" y="-197.5" font-family="Helvetica,sans-Serif" font-size="10.00">/Listener.h</text>
</a>
</g>
</g>
<!-- Node5&#45;&gt;Node7 -->
<g id="edge7" class="edge"><title>Node5&#45;&gt;Node7</title>
<path fill="none" stroke="midnightblue" d="M419.322,-258.194C398.632,-247.261 369.395,-231.81 348.279,-220.652"/>
<polygon fill="midnightblue" stroke="midnightblue" points="417.69,-261.291 428.167,-262.869 420.96,-255.102 417.69,-261.291"/>
</g>
<!-- Node10 -->
<g id="node10" class="node"><title>Node10</title>
<g id="a_node10"><a xlink:href="_dm_2_event_loop_8h.html" target="_top" xlink:title=" ">
<polygon fill="white" stroke="black" points="673,-263 673,-282 780,-282 780,-263 673,-263"/>
<text text-anchor="middle" x="726.5" y="-270" font-family="Helvetica,sans-Serif" font-size="10.00">Cpl/Dm/EventLoop.h</text>
</a>
</g>
</g>
<!-- Node9&#45;&gt;Node10 -->
<g id="edge10" class="edge"><title>Node9&#45;&gt;Node10</title>
<path fill="none" stroke="midnightblue" d="M635.326,-319.867C658.001,-308.335 690.32,-291.899 709.768,-282.009"/>
<polygon fill="midnightblue" stroke="midnightblue" points="633.59,-316.822 626.263,-324.475 636.763,-323.062 633.59,-316.822"/>
</g>
<!-- Node44 -->
<g id="node28" class="node"><title>Node44</title>
<g id="a_node28"><a xlink:href="_mailbox_8h.html" target="_top" xlink:title=" ">
<polygon fill="white" stroke="black" points="564.5,-263 564.5,-282 654.5,-282 654.5,-263 564.5,-263"/>
<text text-anchor="middle" x="609.5" y="-270" font-family="Helvetica,sans-Serif" font-size="10.00">Cpl/Itc/Mailbox.h</text>
</a>
</g>
</g>
<!-- Node9&#45;&gt;Node44 -->
<g id="edge36" class="edge"><title>Node9&#45;&gt;Node44</title>
<path fill="none" stroke="midnightblue" d="M609.5,-314.317C609.5,-303.496 609.5,-290.398 609.5,-282.009"/>
<polygon fill="midnightblue" stroke="midnightblue" points="606,-314.475 609.5,-324.475 613,-314.475 606,-314.475"/>
</g>
<!-- Node45 -->
<g id="node29" class="node"><title>Node45</title>
<g id="a_node29"><a xlink:href="_itc_2_mailbox_server_8h.html" target="_top" xlink:title=" ">
<polygon fill="white" stroke="black" points="515,-196 515,-215 634,-215 634,-196 515,-196"/>
<text text-anchor="middle" x="574.5" y="-203" font-family="Helvetica,sans-Serif" font-size="10.00">Cpl/Itc/MailboxServer.h</text>
</a>
</g>
</g>
<!-- Node9&#45;&gt;Node45 -->
<g id="edge40" class="edge"><title>Node9&#45;&gt;Node45</title>
<path fill="none" stroke="midnightblue" d="M584.323,-319C573.312,-311.401 561.545,-300.906 555.5,-288 543.915,-263.265 559.592,-230.906 568.738,-215.461"/>
<polygon fill="midnightblue" stroke="midnightblue" points="582.557,-322.025 592.867,-324.464 586.328,-316.128 582.557,-322.025"/>
</g>
<!-- Node11 -->
<g id="node11" class="node"><title>Node11</title>
<g id="a_node11"><a xlink:href="_dm_2_mailbox_server_8h.html" target="_top" xlink:title=" ">
<polygon fill="white" stroke="black" points="659.5,-196 659.5,-215 781.5,-215 781.5,-196 659.5,-196"/>
<text text-anchor="middle" x="720.5" y="-203" font-family="Helvetica,sans-Serif" font-size="10.00">Cpl/Dm/MailboxServer.h</text>
</a>
</g>
</g>
<!-- Node10&#45;&gt;Node11 -->
<g id="edge11" class="edge"><title>Node10&#45;&gt;Node11</title>
<path fill="none" stroke="midnightblue" d="M724.75,-252.537C723.608,-240.17 722.173,-224.62 721.296,-215.127"/>
<polygon fill="midnightblue" stroke="midnightblue" points="721.286,-253.098 725.691,-262.734 728.257,-252.454 721.286,-253.098"/>
</g>
<!-- Node25 -->
<g id="node23" class="node"><title>Node25</title>
<g id="a_node23"><a xlink:href="_subscriber_8h.html" target="_top" xlink:title=" ">
<polygon fill="white" stroke="black" points="1059,-196 1059,-215 1166,-215 1166,-196 1059,-196"/>
<text text-anchor="middle" x="1112.5" y="-203" font-family="Helvetica,sans-Serif" font-size="10.00">Cpl/Dm/Subscriber.h</text>
</a>
</g>
</g>
<!-- Node10&#45;&gt;Node25 -->
<g id="edge30" class="edge"><title>Node10&#45;&gt;Node25</title>
<path fill="none" stroke="midnightblue" d="M771.66,-260.698C777.645,-259.387 783.711,-258.117 789.5,-257 883.822,-238.796 994.607,-222.589 1058.86,-213.696"/>
<polygon fill="midnightblue" stroke="midnightblue" points="770.717,-257.323 761.726,-262.927 772.249,-264.153 770.717,-257.323"/>
</g>
<!-- Node12 -->
<g id="node12" class="node"><title>Node12</title>
<g id="a_node12"><a xlink:href="_dm_2_periodic_scheduler_8h.html" target="_top" xlink:title=" ">
<polygon fill="white" stroke="black" points="799,-129 799,-148 938,-148 938,-129 799,-129"/>
<text text-anchor="middle" x="868.5" y="-136" font-family="Helvetica,sans-Serif" font-size="10.00">Cpl/Dm/PeriodicScheduler.h</text>
</a>
</g>
</g>
<!-- Node11&#45;&gt;Node12 -->
<g id="edge12" class="edge"><title>Node11&#45;&gt;Node12</title>
<path fill="none" stroke="midnightblue" d="M749.46,-191.781C778.77,-178.909 823.293,-159.355 848.765,-148.167"/>
<polygon fill="midnightblue" stroke="midnightblue" points="747.902,-188.643 740.153,-195.869 750.717,-195.052 747.902,-188.643"/>
</g>
<!-- Node13 -->
<g id="node13" class="node"><title>Node13</title>
<g id="a_node13"><a xlink:href="_chunk_8h.html" target="_top" xlink:title=" ">
<polygon fill="white" stroke="black" points="496,-129 496,-148 613,-148 613,-129 496,-129"/>
<text text-anchor="middle" x="554.5" y="-136" font-family="Helvetica,sans-Serif" font-size="10.00">Cpl/Persistent/Chunk.h</text>
</a>
</g>
</g>
<!-- Node11&#45;&gt;Node13 -->
<g id="edge13" class="edge"><title>Node11&#45;&gt;Node13</title>
<path fill="none" stroke="midnightblue" d="M688.843,-192.104C655.884,-179.198 605.136,-159.327 576.37,-148.064"/>
<polygon fill="midnightblue" stroke="midnightblue" points="687.869,-195.481 698.456,-195.869 690.421,-188.963 687.869,-195.481"/>
</g>
<!-- Node21 -->
<g id="node19" class="node"><title>Node21</title>
<g id="a_node19"><a xlink:href="_persistent_2_record_8h.html" target="_top" xlink:title=" ">
<polygon fill="white" stroke="black" points="660.5,-129 660.5,-148 780.5,-148 780.5,-129 660.5,-129"/>
<text text-anchor="middle" x="720.5" y="-136" font-family="Helvetica,sans-Serif" font-size="10.00">Cpl/Persistent/Record.h</text>
</a>
</g>
</g>
<!-- Node11&#45;&gt;Node21 -->
<g id="edge19" class="edge"><title>Node11&#45;&gt;Node21</title>
<path fill="none" stroke="midnightblue" d="M720.5,-185.537C720.5,-173.17 720.5,-157.62 720.5,-148.127"/>
<polygon fill="midnightblue" stroke="midnightblue" points="717,-185.734 720.5,-195.734 724,-185.734 717,-185.734"/>
</g>
<!-- Node22 -->
<g id="node20" class="node"><title>Node22</title>
<g id="a_node20"><a xlink:href="_record_server_8h.html" target="_top" xlink:title=" ">
<polygon fill="white" stroke="black" points="870,-62 870,-81 1019,-81 1019,-62 870,-62"/>
<text text-anchor="middle" x="944.5" y="-69" font-family="Helvetica,sans-Serif" font-size="10.00">Cpl/Persistent/RecordServer.h</text>
</a>
</g>
</g>
<!-- Node11&#45;&gt;Node22 -->
<g id="edge24" class="edge"><title>Node11&#45;&gt;Node22</title>
<path fill="none" stroke="midnightblue" d="M791.587,-198.197C850.396,-191.336 927.281,-177.987 946.5,-154 963.492,-132.793 953.871,-97.5525 947.998,-81.258"/>
<polygon fill="midnightblue" stroke="midnightblue" points="791.122,-194.727 781.576,-199.323 791.905,-201.683 791.122,-194.727"/>
</g>
<!-- Node23 -->
<g id="node21" class="node"><title>Node23</title>
<g id="a_node21"><a xlink:href="_region_media_8h.html" target="_top" xlink:title=" ">
<polygon fill="white" stroke="black" points="322.5,-129 322.5,-148 468.5,-148 468.5,-129 322.5,-129"/>
<text text-anchor="middle" x="395.5" y="-136" font-family="Helvetica,sans-Serif" font-size="10.00">Cpl/Persistent/RegionMedia.h</text>
</a>
</g>
</g>
<!-- Node11&#45;&gt;Node23 -->
<g id="edge25" class="edge"><title>Node11&#45;&gt;Node23</title>
<path fill="none" stroke="midnightblue" d="M667.791,-193.958C603.825,-181.165 497.217,-159.843 438.159,-148.032"/>
<polygon fill="midnightblue" stroke="midnightblue" points="667.185,-197.406 677.678,-195.936 668.558,-190.542 667.185,-197.406"/>
</g>
<!-- Node14 -->
<g id="node14" class="node"><title>Node14</title>
<g id="a_node14"><a xlink:href="_dm_2_persistent_2_record_8h.html" target="_top" xlink:title=" ">
<polygon fill="white" stroke="black" points="823.5,-0.5 823.5,-19.5 961.5,-19.5 961.5,-0.5 823.5,-0.5"/>
<text text-anchor="middle" x="892.5" y="-7.5" font-family="Helvetica,sans-Serif" font-size="10.00">Cpl/Dm/Persistent/Record.h</text>
</a>
</g>
</g>
<!-- Node13&#45;&gt;Node14 -->
<g id="edge14" class="edge"><title>Node13&#45;&gt;Node14</title>
<path fill="none" stroke="midnightblue" d="M575.529,-122.982C589.772,-113.043 608.94,-99.4568 625.5,-87 643.195,-73.6895 644.404,-65.2954 664.5,-56 714.76,-32.7526 776.664,-21.4978 823.28,-16.0586"/>
<polygon fill="midnightblue" stroke="midnightblue" points="573.172,-120.358 566.958,-128.939 577.167,-126.106 573.172,-120.358"/>
</g>
<!-- Node15 -->
<g id="node15" class="node"><title>Node15</title>
<g id="a_node15"><a xlink:href="_crc_chunk_8h.html" target="_top" xlink:title=" ">
<polygon fill="white" stroke="black" points="327.5,-62 327.5,-81 459.5,-81 459.5,-62 327.5,-62"/>
<text text-anchor="middle" x="393.5" y="-69" font-family="Helvetica,sans-Serif" font-size="10.00">Cpl/Persistent/CrcChunk.h</text>
</a>
</g>
</g>
<!-- Node13&#45;&gt;Node15 -->
<g id="edge15" class="edge"><title>Node13&#45;&gt;Node15</title>
<path fill="none" stroke="midnightblue" d="M523.796,-125.104C491.83,-112.198 442.61,-92.3272 414.712,-81.0637"/>
<polygon fill="midnightblue" stroke="midnightblue" points="522.537,-128.37 533.12,-128.869 525.158,-121.879 522.537,-128.37"/>
</g>
<!-- Node16 -->
<g id="node16" class="node"><title>Node16</title>
<g id="a_node16"><a xlink:href="_data_record_8h.html" target="_top" xlink:title=" ">
<polygon fill="white" stroke="red" points="673.5,-62 673.5,-81 813.5,-81 813.5,-62 673.5,-62"/>
<text text-anchor="middle" x="743.5" y="-69" font-family="Helvetica,sans-Serif" font-size="10.00">Cpl/Persistent/DataRecord.h</text>
</a>
</g>
</g>
<!-- Node13&#45;&gt;Node16 -->
<g id="edge16" class="edge"><title>Node13&#45;&gt;Node16</title>
<path fill="none" stroke="midnightblue" d="M589.098,-125.601C626.571,-112.714 685.425,-92.4728 718.599,-81.0637"/>
<polygon fill="midnightblue" stroke="midnightblue" points="587.916,-122.307 579.598,-128.869 590.192,-128.926 587.916,-122.307"/>
</g>
<!-- Node18 -->
<g id="node17" class="node"><title>Node18</title>
<g id="a_node17"><a xlink:href="_indexed_entry_record_8h.html" target="_top" xlink:title=" ">
<polygon fill="white" stroke="red" points="478,-56.5 478,-86.5 617,-86.5 617,-56.5 478,-56.5"/>
<text text-anchor="start" x="486" y="-74.5" font-family="Helvetica,sans-Serif" font-size="10.00">Cpl/Persistent/IndexedEntry</text>
<text text-anchor="middle" x="547.5" y="-63.5" font-family="Helvetica,sans-Serif" font-size="10.00">Record.h</text>
</a>
</g>
</g>
<!-- Node13&#45;&gt;Node18 -->
<g id="edge17" class="edge"><title>Node13&#45;&gt;Node18</title>
<path fill="none" stroke="midnightblue" d="M552.48,-118.739C551.376,-108.487 550.031,-96.0011 549.017,-86.589"/>
<polygon fill="midnightblue" stroke="midnightblue" points="549.005,-119.166 553.556,-128.734 555.965,-118.417 549.005,-119.166"/>
</g>
<!-- Node20 -->
<g id="node18" class="node"><title>Node20</title>
<g id="a_node18"><a xlink:href="_mirrored_chunk_8h.html" target="_top" xlink:title=" ">
<polygon fill="white" stroke="black" points="157.5,-62 157.5,-81 309.5,-81 309.5,-62 157.5,-62"/>
<text text-anchor="middle" x="233.5" y="-69" font-family="Helvetica,sans-Serif" font-size="10.00">Cpl/Persistent/MirroredChunk.h</text>
</a>
</g>
</g>
<!-- Node13&#45;&gt;Node20 -->
<g id="edge18" class="edge"><title>Node13&#45;&gt;Node20</title>
<path fill="none" stroke="midnightblue" d="M502.05,-126.879C438.828,-114.077 333.845,-92.8191 275.634,-81.0317"/>
<polygon fill="midnightblue" stroke="midnightblue" points="501.709,-130.381 512.205,-128.936 503.098,-123.52 501.709,-130.381"/>
</g>
<!-- Node21&#45;&gt;Node14 -->
<g id="edge20" class="edge"><title>Node21&#45;&gt;Node14</title>
<path fill="none" stroke="midnightblue" d="M753.166,-124.976C774.087,-116.102 801.205,-102.958 822.5,-87 849.487,-66.7765 874.589,-35.269 886.019,-19.9575"/>
<polygon fill="midnightblue" stroke="midnightblue" points="751.65,-121.815 743.741,-128.865 754.32,-128.286 751.65,-121.815"/>
</g>
<!-- Node21&#45;&gt;Node16 -->
<g id="edge21" class="edge"><title>Node21&#45;&gt;Node16</title>
<path fill="none" stroke="midnightblue" d="M726.944,-119.29C731.36,-106.808 737.02,-90.8135 740.447,-81.1273"/>
<polygon fill="midnightblue" stroke="midnightblue" points="723.638,-118.139 723.602,-128.734 730.237,-120.474 723.638,-118.139"/>
</g>
<!-- Node21&#45;&gt;Node22 -->
<g id="edge22" class="edge"><title>Node21&#45;&gt;Node22</title>
<path fill="none" stroke="midnightblue" d="M760.096,-126.01C804.43,-113.145 875.252,-92.5942 914.988,-81.0637"/>
<polygon fill="midnightblue" stroke="midnightblue" points="758.874,-122.72 750.245,-128.869 760.825,-129.443 758.874,-122.72"/>
</g>
<!-- Node22&#45;&gt;Node14 -->
<g id="edge23" class="edge"><title>Node22&#45;&gt;Node14</title>
<path fill="none" stroke="midnightblue" d="M930.227,-54.1685C920.424,-42.952 907.808,-28.5161 899.937,-19.5091"/>
<polygon fill="midnightblue" stroke="midnightblue" points="927.834,-56.7486 937.05,-61.9751 933.104,-52.1422 927.834,-56.7486"/>
</g>
<!-- Node23&#45;&gt;Node15 -->
<g id="edge26" class="edge"><title>Node23&#45;&gt;Node15</title>
<path fill="none" stroke="midnightblue" d="M394.917,-118.537C394.536,-106.17 394.058,-90.6198 393.765,-81.1273"/>
<polygon fill="midnightblue" stroke="midnightblue" points="391.424,-118.846 395.23,-128.734 398.421,-118.631 391.424,-118.846"/>
</g>
<!-- Node23&#45;&gt;Node18 -->
<g id="edge28" class="edge"><title>Node23&#45;&gt;Node18</title>
<path fill="none" stroke="midnightblue" d="M424.935,-124.913C450.673,-113.906 488.005,-97.9418 514.696,-86.5281"/>
<polygon fill="midnightblue" stroke="midnightblue" points="423.503,-121.718 415.684,-128.869 426.255,-128.155 423.503,-121.718"/>
</g>
<!-- Node23&#45;&gt;Node20 -->
<g id="edge29" class="edge"><title>Node23&#45;&gt;Node20</title>
<path fill="none" stroke="midnightblue" d="M364.606,-125.104C332.441,-112.198 282.915,-92.3272 254.843,-81.0637"/>
<polygon fill="midnightblue" stroke="midnightblue" points="363.403,-128.393 373.988,-128.869 366.01,-121.896 363.403,-128.393"/>
</g>
<!-- Node24 -->
<g id="node22" class="node"><title>Node24</title>
<g id="a_node22"><a xlink:href="_file_adapter_8h.html" target="_top" xlink:title=" ">
<polygon fill="white" stroke="black" points="0,-62 0,-81 139,-81 139,-62 0,-62"/>
<text text-anchor="middle" x="69.5" y="-69" font-family="Helvetica,sans-Serif" font-size="10.00">Cpl/Persistent/FileAdapter.h</text>
</a>
</g>
</g>
<!-- Node23&#45;&gt;Node24 -->
<g id="edge27" class="edge"><title>Node23&#45;&gt;Node24</title>
<path fill="none" stroke="midnightblue" d="M342.629,-126.958C278.466,-114.165 171.53,-92.8434 112.29,-81.0317"/>
<polygon fill="midnightblue" stroke="midnightblue" points="342.055,-130.413 352.546,-128.936 343.423,-123.548 342.055,-130.413"/>
</g>
<!-- Node26 -->
<g id="node24" class="node"><title>Node26</title>
<g id="a_node24"><a xlink:href="_model_point_common___8h.html" target="_top" xlink:title=" ">
<polygon fill="white" stroke="red" points="1182,-129 1182,-148 1335,-148 1335,-129 1182,-129"/>
<text text-anchor="middle" x="1258.5" y="-136" font-family="Helvetica,sans-Serif" font-size="10.00">Cpl/Dm/ModelPointCommon_.h</text>
</a>
</g>
</g>
<!-- Node25&#45;&gt;Node26 -->
<g id="edge31" class="edge"><title>Node25&#45;&gt;Node26</title>
<path fill="none" stroke="midnightblue" d="M1141.07,-191.781C1169.98,-178.909 1213.9,-159.355 1239.03,-148.167"/>
<polygon fill="midnightblue" stroke="midnightblue" points="1139.6,-188.604 1131.89,-195.869 1142.45,-194.999 1139.6,-188.604"/>
</g>
<!-- Node43 -->
<g id="node27" class="node"><title>Node43</title>
<g id="a_node27"><a xlink:href="_subscriber_composer_8h.html" target="_top" xlink:title=" ">
<polygon fill="white" stroke="red" points="1037,-62 1037,-81 1188,-81 1188,-62 1037,-62"/>
<text text-anchor="middle" x="1112.5" y="-69" font-family="Helvetica,sans-Serif" font-size="10.00">Cpl/Dm/SubscriberComposer.h</text>
</a>
</g>
</g>
<!-- Node25&#45;&gt;Node43 -->
<g id="edge34" class="edge"><title>Node25&#45;&gt;Node43</title>
<path fill="none" stroke="midnightblue" d="M1112.5,-185.775C1112.5,-156.746 1112.5,-102.038 1112.5,-81.0212"/>
<polygon fill="midnightblue" stroke="midnightblue" points="1109,-185.839 1112.5,-195.839 1116,-185.839 1109,-185.839"/>
</g>
<!-- Node27 -->
<g id="node25" class="node"><title>Node27</title>
<g id="a_node25"><a xlink:href="_array___8h.html" target="_top" xlink:title=" ">
<polygon fill="white" stroke="black" points="1206,-62 1206,-81 1311,-81 1311,-62 1206,-62"/>
<text text-anchor="middle" x="1258.5" y="-69" font-family="Helvetica,sans-Serif" font-size="10.00">Cpl/Dm/Mp/Array_.h</text>
</a>
</g>
</g>
<!-- Node26&#45;&gt;Node27 -->
<g id="edge32" class="edge"><title>Node26&#45;&gt;Node27</title>
<path fill="none" stroke="midnightblue" d="M1258.5,-118.537C1258.5,-106.17 1258.5,-90.6198 1258.5,-81.1273"/>
<polygon fill="midnightblue" stroke="midnightblue" points="1255,-118.734 1258.5,-128.734 1262,-118.734 1255,-118.734"/>
</g>
<!-- Node28 -->
<g id="node26" class="node"><title>Node28</title>
<g id="a_node26"><a xlink:href="_bool_8h.html" target="_top" xlink:title=" ">
<polygon fill="white" stroke="black" points="1329.5,-62 1329.5,-81 1425.5,-81 1425.5,-62 1329.5,-62"/>
<text text-anchor="middle" x="1377.5" y="-69" font-family="Helvetica,sans-Serif" font-size="10.00">Cpl/Dm/Mp/Bool.h</text>
</a>
</g>
</g>
<!-- Node26&#45;&gt;Node28 -->
<g id="edge33" class="edge"><title>Node26&#45;&gt;Node28</title>
<path fill="none" stroke="midnightblue" d="M1283.61,-123.787C1307.19,-110.905 1341.76,-92.0243 1361.71,-81.1273"/>
<polygon fill="midnightblue" stroke="midnightblue" points="1281.65,-120.868 1274.55,-128.734 1285,-127.012 1281.65,-120.868"/>
</g>
<!-- Node43&#45;&gt;Node14 -->
<g id="edge35" class="edge"><title>Node43&#45;&gt;Node14</title>
<path fill="none" stroke="midnightblue" d="M1071.17,-59.3225C1028.44,-47.7645 962.653,-29.9732 923.962,-19.5091"/>
<polygon fill="midnightblue" stroke="midnightblue" points="1070.41,-62.7429 1080.98,-61.9751 1072.24,-55.9857 1070.41,-62.7429"/>
</g>
<!-- Node44&#45;&gt;Node11 -->
<g id="edge37" class="edge"><title>Node44&#45;&gt;Node11</title>
<path fill="none" stroke="midnightblue" d="M633.211,-257.615C655.203,-244.737 687.241,-225.976 705.767,-215.127"/>
<polygon fill="midnightblue" stroke="midnightblue" points="631.331,-254.66 624.47,-262.734 634.868,-260.701 631.331,-254.66"/>
</g>
<!-- Node44&#45;&gt;Node45 -->
<g id="edge38" class="edge"><title>Node44&#45;&gt;Node45</title>
<path fill="none" stroke="midnightblue" d="M599.896,-253.663C593.146,-241.128 584.413,-224.91 579.145,-215.127"/>
<polygon fill="midnightblue" stroke="midnightblue" points="596.957,-255.588 604.78,-262.734 603.12,-252.27 596.957,-255.588"/>
</g>
<!-- Node46 -->
<g id="node30" class="node"><title>Node46</title>
<g id="a_node30"><a xlink:href="_itc_2_periodic_scheduler_8h.html" target="_top" xlink:title=" ">
<polygon fill="white" stroke="black" points="169,-129 169,-148 304,-148 304,-129 169,-129"/>
<text text-anchor="middle" x="236.5" y="-136" font-family="Helvetica,sans-Serif" font-size="10.00">Cpl/Itc/PeriodicScheduler.h</text>
</a>
</g>
</g>
<!-- Node45&#45;&gt;Node46 -->
<g id="edge39" class="edge"><title>Node45&#45;&gt;Node46</title>
<path fill="none" stroke="midnightblue" d="M524.719,-193.904C518.257,-192.568 511.724,-191.237 505.5,-190 420.346,-173.072 398.827,-170.033 313.5,-154 303.206,-152.066 292.138,-149.983 281.693,-148.017"/>
<polygon fill="midnightblue" stroke="midnightblue" points="524.256,-197.383 534.759,-195.994 525.683,-190.53 524.256,-197.383"/>
</g>
<!-- Node47&#45;&gt;Node5 -->
<g id="edge43" class="edge"><title>Node47&#45;&gt;Node5</title>
<path fill="none" stroke="midnightblue" d="M1200.44,-330.328C1075.32,-324.868 792.555,-310.97 555.5,-288 538.767,-286.379 520.67,-284.198 504.039,-282.02"/>
<polygon fill="midnightblue" stroke="midnightblue" points="1200.47,-333.833 1210.62,-330.769 1200.78,-326.839 1200.47,-333.833"/>
</g>
<!-- Node47&#45;&gt;Node8 -->
<g id="edge58" class="edge"><title>Node47&#45;&gt;Node8</title>
<path fill="none" stroke="midnightblue" d="M1200.48,-333.787C1052.5,-334.693 679.489,-331.978 371.5,-288 361.694,-286.6 351.151,-284.363 341.635,-282.061"/>
<polygon fill="midnightblue" stroke="midnightblue" points="1200.77,-337.285 1210.74,-333.716 1200.72,-330.285 1200.77,-337.285"/>
</g>
<!-- Node47&#45;&gt;Node10 -->
<g id="edge42" class="edge"><title>Node47&#45;&gt;Node10</title>
<path fill="none" stroke="midnightblue" d="M1200.69,-329.591C1108.77,-324.14 935.471,-311.592 789.5,-288 779.75,-286.424 769.259,-284.218 759.688,-282.002"/>
<polygon fill="midnightblue" stroke="midnightblue" points="1200.76,-333.101 1210.95,-330.19 1201.17,-326.113 1200.76,-333.101"/>
</g>
<!-- Node48 -->
<g id="node32" class="node"><title>Node48</title>
<g id="a_node32"><a xlink:href="_bare_metal_2_thread_8h.html" target="_top" xlink:title=" ">
<polygon fill="white" stroke="black" points="915,-257.5 915,-287.5 1030,-287.5 1030,-257.5 915,-257.5"/>
<text text-anchor="start" x="923" y="-275.5" font-family="Helvetica,sans-Serif" font-size="10.00">Cpl/System/BareMetal</text>
<text text-anchor="middle" x="972.5" y="-264.5" font-family="Helvetica,sans-Serif" font-size="10.00">/Thread.h</text>
</a>
</g>
</g>
<!-- Node47&#45;&gt;Node48 -->
<g id="edge44" class="edge"><title>Node47&#45;&gt;Node48</title>
<path fill="none" stroke="midnightblue" d="M1211.27,-322.464C1165.46,-313.501 1098.13,-300.18 1039.5,-288 1036.47,-287.371 1033.37,-286.719 1030.23,-286.058"/>
<polygon fill="midnightblue" stroke="midnightblue" points="1210.8,-325.938 1221.28,-324.421 1212.14,-319.068 1210.8,-325.938"/>
</g>
<!-- Node49 -->
<g id="node33" class="node"><title>Node49</title>
<g id="a_node33"><a xlink:href="_cpp11_2_thread_8h.html" target="_top" xlink:title=" ">
<polygon fill="white" stroke="black" points="1048.5,-263 1048.5,-282 1188.5,-282 1188.5,-263 1048.5,-263"/>
<text text-anchor="middle" x="1118.5" y="-270" font-family="Helvetica,sans-Serif" font-size="10.00">Cpl/System/Cpp11/Thread.h</text>
</a>
</g>
</g>
<!-- Node47&#45;&gt;Node49 -->
<g id="edge45" class="edge"><title>Node47&#45;&gt;Node49</title>
<path fill="none" stroke="midnightblue" d="M1234.94,-320.631C1206.38,-309.072 1164.5,-292.12 1139.52,-282.009"/>
<polygon fill="midnightblue" stroke="midnightblue" points="1233.86,-323.967 1244.44,-324.475 1236.48,-317.479 1233.86,-323.967"/>
</g>
<!-- Node50 -->
<g id="node34" class="node"><title>Node50</title>
<g id="a_node34"><a xlink:href="_free_r_t_o_s_2_thread_8h.html" target="_top" xlink:title=" ">
<polygon fill="white" stroke="black" points="1207,-257.5 1207,-287.5 1324,-287.5 1324,-257.5 1207,-257.5"/>
<text text-anchor="start" x="1215" y="-275.5" font-family="Helvetica,sans-Serif" font-size="10.00">Cpl/System/FreeRTOS</text>
<text text-anchor="middle" x="1265.5" y="-264.5" font-family="Helvetica,sans-Serif" font-size="10.00">/Thread.h</text>
</a>
</g>
</g>
<!-- Node47&#45;&gt;Node50 -->
<g id="edge46" class="edge"><title>Node47&#45;&gt;Node50</title>
<path fill="none" stroke="midnightblue" d="M1265.5,-314.235C1265.5,-305.586 1265.5,-295.497 1265.5,-287.523"/>
<polygon fill="midnightblue" stroke="midnightblue" points="1262,-314.475 1265.5,-324.475 1269,-314.475 1262,-314.475"/>
</g>
<!-- Node51 -->
<g id="node35" class="node"><title>Node51</title>
<g id="a_node35"><a xlink:href="_posix_2_thread_8h.html" target="_top" xlink:title=" ">
<polygon fill="white" stroke="black" points="1342,-263 1342,-282 1479,-282 1479,-263 1342,-263"/>
<text text-anchor="middle" x="1410.5" y="-270" font-family="Helvetica,sans-Serif" font-size="10.00">Cpl/System/Posix/Thread.h</text>
</a>
</g>
</g>
<!-- Node47&#45;&gt;Node51 -->
<g id="edge47" class="edge"><title>Node47&#45;&gt;Node51</title>
<path fill="none" stroke="midnightblue" d="M1295.64,-320.631C1323.81,-309.072 1365.12,-292.12 1389.76,-282.009"/>
<polygon fill="midnightblue" stroke="midnightblue" points="1294.2,-317.441 1286.27,-324.475 1296.86,-323.917 1294.2,-317.441"/>
</g>
<!-- Node52 -->
<g id="node36" class="node"><title>Node52</title>
<g id="a_node36"><a xlink:href="_r_p2040_2_thread_8h.html" target="_top" xlink:title=" ">
<polygon fill="white" stroke="black" points="1497.5,-263 1497.5,-282 1643.5,-282 1643.5,-263 1497.5,-263"/>
<text text-anchor="middle" x="1570.5" y="-270" font-family="Helvetica,sans-Serif" font-size="10.00">Cpl/System/RP2040/Thread.h</text>
</a>
</g>
</g>
<!-- Node47&#45;&gt;Node52 -->
<g id="edge48" class="edge"><title>Node47&#45;&gt;Node52</title>
<path fill="none" stroke="midnightblue" d="M1319.09,-322.546C1378.18,-311.018 1472.11,-292.694 1526.88,-282.009"/>
<polygon fill="midnightblue" stroke="midnightblue" points="1318.34,-319.125 1309.2,-324.475 1319.68,-325.996 1318.34,-319.125"/>
</g>
<!-- Node53 -->
<g id="node37" class="node"><title>Node53</title>
<g id="a_node37"><a xlink:href="_system_2_trace_8h.html" target="_top" xlink:title=" ">
<polygon fill="white" stroke="black" points="1935.5,-263 1935.5,-282 2039.5,-282 2039.5,-263 1935.5,-263"/>
<text text-anchor="middle" x="1987.5" y="-270" font-family="Helvetica,sans-Serif" font-size="10.00">Cpl/System/Trace.h</text>
</a>
</g>
</g>
<!-- Node47&#45;&gt;Node53 -->
<g id="edge49" class="edge"><title>Node47&#45;&gt;Node53</title>
<path fill="none" stroke="midnightblue" d="M1330.27,-332.136C1449.09,-329.767 1709.65,-320.924 1926.5,-288 1936.19,-286.529 1946.6,-284.301 1956.03,-282.029"/>
<polygon fill="midnightblue" stroke="midnightblue" points="1330.17,-328.637 1320.24,-332.328 1330.31,-335.636 1330.17,-328.637"/>
</g>
<!-- Node58 -->
<g id="node42" class="node"><title>Node58</title>
<g id="a_node42"><a xlink:href="_win32_2_thread_8h.html" target="_top" xlink:title=" ">
<polygon fill="white" stroke="black" points="1778,-263 1778,-282 1917,-282 1917,-263 1778,-263"/>
<text text-anchor="middle" x="1847.5" y="-270" font-family="Helvetica,sans-Serif" font-size="10.00">Cpl/System/Win32/Thread.h</text>
</a>
</g>
</g>
<!-- Node47&#45;&gt;Node58 -->
<g id="edge54" class="edge"><title>Node47&#45;&gt;Node58</title>
<path fill="none" stroke="midnightblue" d="M1330.15,-329.132C1426.1,-322.958 1611.76,-309.349 1768.5,-288 1780.38,-286.382 1793.2,-284.214 1804.98,-282.049"/>
<polygon fill="midnightblue" stroke="midnightblue" points="1329.78,-325.648 1320.02,-329.777 1330.22,-332.634 1329.78,-325.648"/>
</g>
<!-- Node59 -->
<g id="node43" class="node"><title>Node59</title>
<g id="a_node43"><a xlink:href="_threads_8h.html" target="_top" xlink:title=" ">
<polygon fill="white" stroke="black" points="2171,-263 2171,-282 2302,-282 2302,-263 2171,-263"/>
<text text-anchor="middle" x="2236.5" y="-270" font-family="Helvetica,sans-Serif" font-size="10.00">Cpl/TShell/Cmd/Threads.h</text>
</a>
</g>
</g>
<!-- Node47&#45;&gt;Node59 -->
<g id="edge55" class="edge"><title>Node47&#45;&gt;Node59</title>
<path fill="none" stroke="midnightblue" d="M1330.35,-332.926C1478.41,-332.063 1852.47,-325.953 2162.5,-288 2174.33,-286.552 2187.09,-284.302 2198.64,-282.002"/>
<polygon fill="midnightblue" stroke="midnightblue" points="1330.06,-329.427 1320.08,-332.979 1330.1,-336.427 1330.06,-329.427"/>
</g>
<!-- Node62 -->
<g id="node46" class="node"><title>Node62</title>
<g id="a_node46"><a xlink:href="_t_shell_2_stdio_8h.html" target="_top" xlink:title=" ">
<polygon fill="white" stroke="black" points="2058,-263 2058,-282 2153,-282 2153,-263 2058,-263"/>
<text text-anchor="middle" x="2105.5" y="-270" font-family="Helvetica,sans-Serif" font-size="10.00">Cpl/TShell/Stdio.h</text>
</a>
</g>
</g>
<!-- Node47&#45;&gt;Node62 -->
<g id="edge59" class="edge"><title>Node47&#45;&gt;Node62</title>
<path fill="none" stroke="midnightblue" d="M1330.62,-333.457C1465.43,-333.482 1784.56,-328.77 2048.5,-288 2057.68,-286.582 2067.54,-284.339 2076.43,-282.038"/>
<polygon fill="midnightblue" stroke="midnightblue" points="1330.47,-329.957 1320.46,-333.446 1330.46,-336.957 1330.47,-329.957"/>
</g>
<!-- Node63 -->
<g id="node47" class="node"><title>Node63</title>
<g id="a_node47"><a xlink:href="_receiver_8h.html" target="_top" xlink:title=" ">
<polygon fill="white" stroke="black" points="1661.5,-257.5 1661.5,-287.5 1759.5,-287.5 1759.5,-257.5 1661.5,-257.5"/>
<text text-anchor="start" x="1669.5" y="-275.5" font-family="Helvetica,sans-Serif" font-size="10.00">Driver/Uart/Stream</text>
<text text-anchor="middle" x="1710.5" y="-264.5" font-family="Helvetica,sans-Serif" font-size="10.00">/Receiver.h</text>
</a>
</g>
</g>
<!-- Node47&#45;&gt;Node63 -->
<g id="edge60" class="edge"><title>Node47&#45;&gt;Node63</title>
<path fill="none" stroke="midnightblue" d="M1330.36,-328.036C1407.54,-321.536 1540.1,-308.497 1652.5,-288 1655.36,-287.479 1658.29,-286.898 1661.23,-286.277"/>
<polygon fill="midnightblue" stroke="midnightblue" points="1329.98,-324.556 1320.31,-328.872 1330.56,-331.532 1329.98,-324.556"/>
</g>
<!-- Node66 -->
<g id="node50" class="node"><title>Node66</title>
<g id="a_node50"><a xlink:href="_transmitter_8h.html" target="_top" xlink:title=" ">
<polygon fill="white" stroke="black" points="798.5,-257.5 798.5,-287.5 896.5,-287.5 896.5,-257.5 798.5,-257.5"/>
<text text-anchor="start" x="806.5" y="-275.5" font-family="Helvetica,sans-Serif" font-size="10.00">Driver/Uart/Stream</text>
<text text-anchor="middle" x="847.5" y="-264.5" font-family="Helvetica,sans-Serif" font-size="10.00">/Transmitter.h</text>
</a>
</g>
</g>
<!-- Node47&#45;&gt;Node66 -->
<g id="edge63" class="edge"><title>Node47&#45;&gt;Node66</title>
<path fill="none" stroke="midnightblue" d="M1200.58,-327.264C1128.22,-320.319 1007.89,-307.126 905.5,-288 902.643,-287.466 899.717,-286.876 896.772,-286.248"/>
<polygon fill="midnightblue" stroke="midnightblue" points="1200.62,-330.783 1210.9,-328.244 1201.28,-323.815 1200.62,-330.783"/>
</g>
<!-- Node54 -->
<g id="node38" class="node"><title>Node54</title>
<g id="a_node38"><a xlink:href="helpers_8h.html" target="_top" xlink:title="This file defines helper functions/interface for writing unit tests.">
<polygon fill="white" stroke="black" points="1856,-196 1856,-215 1941,-215 1941,-196 1856,-196"/>
<text text-anchor="middle" x="1898.5" y="-203" font-family="Helvetica,sans-Serif" font-size="10.00">Catch/helpers.h</text>
</a>
</g>
</g>
<!-- Node53&#45;&gt;Node54 -->
<g id="edge50" class="edge"><title>Node53&#45;&gt;Node54</title>
<path fill="none" stroke="midnightblue" d="M1967.05,-256.568C1949.49,-243.738 1924.77,-225.685 1910.31,-215.127"/>
<polygon fill="midnightblue" stroke="midnightblue" points="1965.36,-259.662 1975.5,-262.734 1969.49,-254.009 1965.36,-259.662"/>
</g>
<!-- Node55 -->
<g id="node39" class="node"><title>Node55</title>
<g id="a_node39"><a xlink:href="_system_2_private___8h.html" target="_top" xlink:title="This file contains a collection of classes, interfaces, etc.">
<polygon fill="white" stroke="black" points="1959,-196 1959,-215 2074,-215 2074,-196 1959,-196"/>
<text text-anchor="middle" x="2016.5" y="-203" font-family="Helvetica,sans-Serif" font-size="10.00">Cpl/System/Private_.h</text>
</a>
</g>
</g>
<!-- Node53&#45;&gt;Node55 -->
<g id="edge51" class="edge"><title>Node53&#45;&gt;Node55</title>
<path fill="none" stroke="midnightblue" d="M1995.62,-253.29C2001.19,-240.808 2008.33,-224.814 2012.65,-215.127"/>
<polygon fill="midnightblue" stroke="midnightblue" points="1992.29,-252.175 1991.41,-262.734 1998.68,-255.028 1992.29,-252.175"/>
</g>
<!-- Node56 -->
<g id="node40" class="node"><title>Node56</title>
<g id="a_node40"><a xlink:href="_maker_8h.html" target="_top" xlink:title=" ">
<polygon fill="white" stroke="black" points="1900.5,-129 1900.5,-148 2000.5,-148 2000.5,-129 1900.5,-129"/>
<text text-anchor="middle" x="1950.5" y="-136" font-family="Helvetica,sans-Serif" font-size="10.00">Cpl/TShell/Maker.h</text>
</a>
</g>
</g>
<!-- Node55&#45;&gt;Node56 -->
<g id="edge52" class="edge"><title>Node55&#45;&gt;Node56</title>
<path fill="none" stroke="midnightblue" d="M2000.25,-188.497C1987.31,-175.75 1969.69,-158.395 1959.26,-148.127"/>
<polygon fill="midnightblue" stroke="midnightblue" points="1998.02,-191.211 2007.6,-195.734 2002.93,-186.223 1998.02,-191.211"/>
</g>
<!-- Node57 -->
<g id="node41" class="node"><title>Node57</title>
<g id="a_node41"><a xlink:href="_polled_maker_8h.html" target="_top" xlink:title=" ">
<polygon fill="white" stroke="black" points="2019,-129 2019,-148 2146,-148 2146,-129 2019,-129"/>
<text text-anchor="middle" x="2082.5" y="-136" font-family="Helvetica,sans-Serif" font-size="10.00">Cpl/TShell/PolledMaker.h</text>
</a>
</g>
</g>
<!-- Node55&#45;&gt;Node57 -->
<g id="edge53" class="edge"><title>Node55&#45;&gt;Node57</title>
<path fill="none" stroke="midnightblue" d="M2032.75,-188.497C2045.69,-175.75 2063.31,-158.395 2073.74,-148.127"/>
<polygon fill="midnightblue" stroke="midnightblue" points="2030.07,-186.223 2025.4,-195.734 2034.98,-191.211 2030.07,-186.223"/>
</g>
<!-- Node60 -->
<g id="node44" class="node"><title>Node60</title>
<g id="a_node44"><a xlink:href="_free_r_t_o_s_2_threads_8h.html" target="_top" xlink:title=" ">
<polygon fill="white" stroke="black" points="2283.5,-190.5 2283.5,-220.5 2417.5,-220.5 2417.5,-190.5 2283.5,-190.5"/>
<text text-anchor="start" x="2291.5" y="-208.5" font-family="Helvetica,sans-Serif" font-size="10.00">Cpl/TShell/Cmd/FreeRTOS</text>
<text text-anchor="middle" x="2350.5" y="-197.5" font-family="Helvetica,sans-Serif" font-size="10.00">/Threads.h</text>
</a>
</g>
</g>
<!-- Node59&#45;&gt;Node60 -->
<g id="edge56" class="edge"><title>Node59&#45;&gt;Node60</title>
<path fill="none" stroke="midnightblue" d="M2260.61,-257.753C2279.77,-246.827 2306.47,-231.603 2325.79,-220.589"/>
<polygon fill="midnightblue" stroke="midnightblue" points="2258.83,-254.74 2251.87,-262.734 2262.3,-260.821 2258.83,-254.74"/>
</g>
<!-- Node61 -->
<g id="node45" class="node"><title>Node61</title>
<g id="a_node45"><a xlink:href="_win32_2_threads_8h.html" target="_top" xlink:title=" ">
<polygon fill="white" stroke="black" points="2150,-190.5 2150,-220.5 2265,-220.5 2265,-190.5 2150,-190.5"/>
<text text-anchor="start" x="2158" y="-208.5" font-family="Helvetica,sans-Serif" font-size="10.00">Cpl/TShell/Cmd/Win32</text>
<text text-anchor="middle" x="2207.5" y="-197.5" font-family="Helvetica,sans-Serif" font-size="10.00">/Threads.h</text>
</a>
</g>
</g>
<!-- Node59&#45;&gt;Node61 -->
<g id="edge57" class="edge"><title>Node59&#45;&gt;Node61</title>
<path fill="none" stroke="midnightblue" d="M2228.42,-253.39C2223.79,-243.02 2218.07,-230.201 2213.79,-220.589"/>
<polygon fill="midnightblue" stroke="midnightblue" points="2225.32,-255.028 2232.59,-262.734 2231.71,-252.175 2225.32,-255.028"/>
</g>
<!-- Node64 -->
<g id="node48" class="node"><title>Node64</title>
<g id="a_node48"><a xlink:href="_driver_2_uart_2_stream_2_input_output___8h.html" target="_top" xlink:title=" ">
<polygon fill="white" stroke="black" points="1499.5,-190.5 1499.5,-220.5 1597.5,-220.5 1597.5,-190.5 1499.5,-190.5"/>
<text text-anchor="start" x="1507.5" y="-208.5" font-family="Helvetica,sans-Serif" font-size="10.00">Driver/Uart/Stream</text>
<text text-anchor="middle" x="1548.5" y="-197.5" font-family="Helvetica,sans-Serif" font-size="10.00">/InputOutput_.h</text>
</a>
</g>
</g>
<!-- Node63&#45;&gt;Node64 -->
<g id="edge61" class="edge"><title>Node63&#45;&gt;Node64</title>
<path fill="none" stroke="midnightblue" d="M1665.75,-253.544C1639.83,-243.143 1607.66,-230.238 1583.58,-220.577"/>
<polygon fill="midnightblue" stroke="midnightblue" points="1664.76,-256.92 1675.35,-257.396 1667.37,-250.424 1664.76,-256.92"/>
</g>
<!-- Node65 -->
<g id="node49" class="node"><title>Node65</title>
<g id="a_node49"><a xlink:href="_serial_2_renesas_2_rx62n_2_input_output_8h.html" target="_top" xlink:title=" ">
<polygon fill="white" stroke="black" points="1493,-123.5 1493,-153.5 1604,-153.5 1604,-123.5 1493,-123.5"/>
<text text-anchor="start" x="1501" y="-141.5" font-family="Helvetica,sans-Serif" font-size="10.00">Cpl/Io/Serial/Renesas</text>
<text text-anchor="middle" x="1548.5" y="-130.5" font-family="Helvetica,sans-Serif" font-size="10.00">/Rx62n/InputOutput.h</text>
</a>
</g>
</g>
<!-- Node64&#45;&gt;Node65 -->
<g id="edge62" class="edge"><title>Node64&#45;&gt;Node65</title>
<path fill="none" stroke="midnightblue" d="M1548.5,-180.108C1548.5,-171.154 1548.5,-161.323 1548.5,-153.577"/>
<polygon fill="midnightblue" stroke="midnightblue" points="1545,-180.396 1548.5,-190.396 1552,-180.396 1545,-180.396"/>
</g>
<!-- Node66&#45;&gt;Node64 -->
<g id="edge64" class="edge"><title>Node66&#45;&gt;Node64</title>
<path fill="none" stroke="midnightblue" d="M906.806,-256.968C1132.91,-220.865 1392.89,-210.495 1499.37,-207.572"/>
<polygon fill="midnightblue" stroke="midnightblue" points="906.058,-253.544 896.745,-258.596 907.175,-260.454 906.058,-253.544"/>
</g>
</g>
</svg>
