<?xml version="1.0" encoding="UTF-8" standalone="no"?>
<!DOCTYPE svg PUBLIC "-//W3C//DTD SVG 1.1//EN"
 "http://www.w3.org/Graphics/SVG/1.1/DTD/svg11.dtd">
<!-- Generated by graphviz version 2.38.0 (20140413.2041)
 -->
<!-- Title: Driver/TPipe/RxFrameHandler.h Pages: 1 -->
<svg width="443pt" height="431pt"
 viewBox="0.00 0.00 443.00 431.00" xmlns="http://www.w3.org/2000/svg" xmlns:xlink="http://www.w3.org/1999/xlink">
<g id="graph0" class="graph" transform="scale(1 1) rotate(0) translate(4 427)">
<title>Driver/TPipe/RxFrameHandler.h</title>
<polygon fill="white" stroke="none" points="-4,4 -4,-427 439,-427 439,4 -4,4"/>
<!-- Node1 -->
<g id="node1" class="node"><title>Node1</title>
<g id="a_node1"><a xlink:title=" ">
<polygon fill="#bfbfbf" stroke="black" points="141,-403.5 141,-422.5 296,-422.5 296,-403.5 141,-403.5"/>
<text text-anchor="middle" x="218.5" y="-410.5" font-family="Helvetica,sans-Serif" font-size="10.00">Driver/TPipe/RxFrameHandler.h</text>
</a>
</g>
</g>
<!-- Node2 -->
<g id="node2" class="node"><title>Node2</title>
<g id="a_node2"><a xlink:href="_rx_frame_handler_api_8h.html" target="_top" xlink:title=" ">
<polygon fill="white" stroke="black" points="145.5,-280.5 145.5,-310.5 291.5,-310.5 291.5,-280.5 145.5,-280.5"/>
<text text-anchor="start" x="153.5" y="-298.5" font-family="Helvetica,sans-Serif" font-size="10.00">Driver/TPipe/RxFrameHandler</text>
<text text-anchor="middle" x="218.5" y="-287.5" font-family="Helvetica,sans-Serif" font-size="10.00">Api.h</text>
</a>
</g>
</g>
<!-- Node1&#45;&gt;Node2 -->
<g id="edge1" class="edge"><title>Node1&#45;&gt;Node2</title>
<path fill="none" stroke="midnightblue" d="M218.5,-403.319C218.5,-385.967 218.5,-346.457 218.5,-320.658"/>
<polygon fill="midnightblue" stroke="midnightblue" points="222,-320.545 218.5,-310.545 215,-320.545 222,-320.545"/>
</g>
<!-- Node6 -->
<g id="node6" class="node"><title>Node6</title>
<g id="a_node6"><a xlink:href="_key_8h.html" target="_top" xlink:title=" ">
<polygon fill="white" stroke="black" points="77.5,-112.5 77.5,-131.5 181.5,-131.5 181.5,-112.5 77.5,-112.5"/>
<text text-anchor="middle" x="129.5" y="-119.5" font-family="Helvetica,sans-Serif" font-size="10.00">Cpl/Container/Key.h</text>
</a>
</g>
</g>
<!-- Node1&#45;&gt;Node6 -->
<g id="edge20" class="edge"><title>Node1&#45;&gt;Node6</title>
<path fill="none" stroke="midnightblue" d="M202.273,-403.283C173.722,-386.63 117.5,-347.377 117.5,-296.5 117.5,-296.5 117.5,-296.5 117.5,-233 117.5,-200.758 122.658,-163.512 126.211,-141.681"/>
<polygon fill="midnightblue" stroke="midnightblue" points="129.712,-141.967 127.931,-131.523 122.81,-140.798 129.712,-141.967"/>
</g>
<!-- Node15 -->
<g id="node15" class="node"><title>Node15</title>
<g id="a_node15"><a xlink:href="_map_8h.html" target="_top" xlink:title=" ">
<polygon fill="white" stroke="black" points="283,-347.5 283,-366.5 388,-366.5 388,-347.5 283,-347.5"/>
<text text-anchor="middle" x="335.5" y="-354.5" font-family="Helvetica,sans-Serif" font-size="10.00">Cpl/Container/Map.h</text>
</a>
</g>
</g>
<!-- Node1&#45;&gt;Node15 -->
<g id="edge16" class="edge"><title>Node1&#45;&gt;Node15</title>
<path fill="none" stroke="midnightblue" d="M237.039,-403.444C256.123,-394.636 286.075,-380.812 307.936,-370.722"/>
<polygon fill="midnightblue" stroke="midnightblue" points="309.435,-373.885 317.048,-366.516 306.501,-367.529 309.435,-373.885"/>
</g>
<!-- Node3 -->
<g id="node3" class="node"><title>Node3</title>
<g id="a_node3"><a xlink:href="_map_item_8h.html" target="_top" xlink:title=" ">
<polygon fill="white" stroke="black" points="167,-224.5 167,-243.5 292,-243.5 292,-224.5 167,-224.5"/>
<text text-anchor="middle" x="229.5" y="-231.5" font-family="Helvetica,sans-Serif" font-size="10.00">Cpl/Container/MapItem.h</text>
</a>
</g>
</g>
<!-- Node2&#45;&gt;Node3 -->
<g id="edge2" class="edge"><title>Node2&#45;&gt;Node3</title>
<path fill="none" stroke="midnightblue" d="M221.107,-280.399C222.59,-272.377 224.465,-262.233 226.067,-253.569"/>
<polygon fill="midnightblue" stroke="midnightblue" points="229.523,-254.127 227.899,-243.658 222.64,-252.855 229.523,-254.127"/>
</g>
<!-- Node4 -->
<g id="node4" class="node"><title>Node4</title>
<g id="a_node4"><a xlink:href="_dict_item_8h.html" target="_top" xlink:title=" ">
<polygon fill="white" stroke="black" points="168,-168.5 168,-187.5 291,-187.5 291,-168.5 168,-168.5"/>
<text text-anchor="middle" x="229.5" y="-175.5" font-family="Helvetica,sans-Serif" font-size="10.00">Cpl/Container/DictItem.h</text>
</a>
</g>
</g>
<!-- Node3&#45;&gt;Node4 -->
<g id="edge3" class="edge"><title>Node3&#45;&gt;Node4</title>
<path fill="none" stroke="midnightblue" d="M229.5,-224.083C229.5,-217.006 229.5,-206.861 229.5,-197.986"/>
<polygon fill="midnightblue" stroke="midnightblue" points="233,-197.751 229.5,-187.751 226,-197.751 233,-197.751"/>
</g>
<!-- Node5 -->
<g id="node5" class="node"><title>Node5</title>
<g id="a_node5"><a xlink:href="_item_8h.html" target="_top" xlink:title=" ">
<polygon fill="white" stroke="black" points="199.5,-112.5 199.5,-131.5 305.5,-131.5 305.5,-112.5 199.5,-112.5"/>
<text text-anchor="middle" x="252.5" y="-119.5" font-family="Helvetica,sans-Serif" font-size="10.00">Cpl/Container/Item.h</text>
</a>
</g>
</g>
<!-- Node4&#45;&gt;Node5 -->
<g id="edge4" class="edge"><title>Node4&#45;&gt;Node5</title>
<path fill="none" stroke="midnightblue" d="M233.298,-168.083C236.413,-160.77 240.923,-150.181 244.789,-141.103"/>
<polygon fill="midnightblue" stroke="midnightblue" points="248.074,-142.323 248.773,-131.751 241.634,-139.58 248.074,-142.323"/>
</g>
<!-- Node4&#45;&gt;Node6 -->
<g id="edge5" class="edge"><title>Node4&#45;&gt;Node6</title>
<path fill="none" stroke="midnightblue" d="M213.433,-168.324C197.542,-159.743 172.993,-146.486 154.542,-136.522"/>
<polygon fill="midnightblue" stroke="midnightblue" points="155.989,-133.326 145.527,-131.655 152.663,-139.486 155.989,-133.326"/>
</g>
<!-- Node7 -->
<g id="node7" class="node"><title>Node7</title>
<g id="a_node7"><a xlink:href="_fatal_error_8h.html" target="_top" xlink:title=" ">
<polygon fill="white" stroke="black" points="213.5,-56.5 213.5,-75.5 335.5,-75.5 335.5,-56.5 213.5,-56.5"/>
<text text-anchor="middle" x="274.5" y="-63.5" font-family="Helvetica,sans-Serif" font-size="10.00">Cpl/System/FatalError.h</text>
</a>
</g>
</g>
<!-- Node6&#45;&gt;Node7 -->
<g id="edge6" class="edge"><title>Node6&#45;&gt;Node7</title>
<path fill="none" stroke="midnightblue" d="M152.476,-112.444C176.657,-103.438 214.918,-89.1891 242.146,-79.049"/>
<polygon fill="midnightblue" stroke="midnightblue" points="243.482,-82.2864 251.632,-75.5164 241.039,-75.7265 243.482,-82.2864"/>
</g>
<!-- Node10 -->
<g id="node10" class="node"><title>Node10</title>
<g id="a_node10"><a xlink:title=" ">
<polygon fill="white" stroke="#bfbfbf" points="0,-56.5 0,-75.5 49,-75.5 49,-56.5 0,-56.5"/>
<text text-anchor="middle" x="24.5" y="-63.5" font-family="Helvetica,sans-Serif" font-size="10.00">stdint.h</text>
</a>
</g>
</g>
<!-- Node6&#45;&gt;Node10 -->
<g id="edge9" class="edge"><title>Node6&#45;&gt;Node10</title>
<path fill="none" stroke="midnightblue" d="M112.63,-112.324C95.7912,-103.664 69.6935,-90.2424 50.262,-80.249"/>
<polygon fill="midnightblue" stroke="midnightblue" points="51.8218,-77.1155 41.3282,-75.6545 48.6204,-83.3405 51.8218,-77.1155"/>
</g>
<!-- Node11 -->
<g id="node11" class="node"><title>Node11</title>
<g id="a_node11"><a xlink:href="_string_8h.html" target="_top" xlink:title=" ">
<polygon fill="white" stroke="black" points="106,-56.5 106,-75.5 155,-75.5 155,-56.5 106,-56.5"/>
<text text-anchor="middle" x="130.5" y="-63.5" font-family="Helvetica,sans-Serif" font-size="10.00">string.h</text>
</a>
</g>
</g>
<!-- Node6&#45;&gt;Node11 -->
<g id="edge10" class="edge"><title>Node6&#45;&gt;Node11</title>
<path fill="none" stroke="midnightblue" d="M124.499,-112.083C123.122,-104.927 122.882,-94.6353 123.696,-85.6911"/>
<polygon fill="midnightblue" stroke="midnightblue" points="127.165,-86.1635 125.207,-75.7511 120.244,-85.1117 127.165,-86.1635"/>
</g>
<!-- Node12 -->
<g id="node12" class="node"><title>Node12</title>
<g id="a_node12"><a xlink:title=" ">
<polygon fill="white" stroke="#bfbfbf" points="10,-0.5 10,-19.5 87,-19.5 87,-0.5 10,-0.5"/>
<text text-anchor="middle" x="48.5" y="-7.5" font-family="Helvetica,sans-Serif" font-size="10.00">colony_map.h</text>
</a>
</g>
</g>
<!-- Node6&#45;&gt;Node12 -->
<g id="edge15" class="edge"><title>Node6&#45;&gt;Node12</title>
<path fill="none" stroke="midnightblue" d="M123.144,-112.368C109.718,-94.135 78.268,-51.4257 60.779,-27.6752"/>
<polygon fill="midnightblue" stroke="midnightblue" points="63.5743,-25.5685 54.8264,-19.5914 57.9376,-29.7192 63.5743,-25.5685"/>
</g>
<!-- Node8 -->
<g id="node8" class="node"><title>Node8</title>
<g id="a_node8"><a xlink:title=" ">
<polygon fill="white" stroke="#bfbfbf" points="248.5,-0.5 248.5,-19.5 300.5,-19.5 300.5,-0.5 248.5,-0.5"/>
<text text-anchor="middle" x="274.5" y="-7.5" font-family="Helvetica,sans-Serif" font-size="10.00">stddef.h</text>
</a>
</g>
</g>
<!-- Node7&#45;&gt;Node8 -->
<g id="edge7" class="edge"><title>Node7&#45;&gt;Node8</title>
<path fill="none" stroke="midnightblue" d="M274.5,-56.083C274.5,-49.0059 274.5,-38.8611 274.5,-29.9865"/>
<polygon fill="midnightblue" stroke="midnightblue" points="278,-29.751 274.5,-19.7511 271,-29.7511 278,-29.751"/>
</g>
<!-- Node9 -->
<g id="node9" class="node"><title>Node9</title>
<g id="a_node9"><a xlink:title=" ">
<polygon fill="white" stroke="#bfbfbf" points="321,-0.5 321,-19.5 406,-19.5 406,-0.5 321,-0.5"/>
<text text-anchor="middle" x="363.5" y="-7.5" font-family="Helvetica,sans-Serif" font-size="10.00">colony_config.h</text>
</a>
</g>
</g>
<!-- Node7&#45;&gt;Node9 -->
<g id="edge8" class="edge"><title>Node7&#45;&gt;Node9</title>
<path fill="none" stroke="midnightblue" d="M288.799,-56.324C302.683,-47.9002 323.992,-34.9709 340.304,-25.0741"/>
<polygon fill="midnightblue" stroke="midnightblue" points="342.502,-27.8341 349.236,-19.6545 338.871,-21.8495 342.502,-27.8341"/>
</g>
<!-- Node11&#45;&gt;Node6 -->
<g id="edge12" class="edge"><title>Node11&#45;&gt;Node6</title>
<path fill="none" stroke="midnightblue" d="M135.469,-75.7511C136.864,-82.8579 137.12,-93.1357 136.322,-102.101"/>
<polygon fill="midnightblue" stroke="midnightblue" points="132.847,-101.676 134.831,-112.083 139.77,-102.71 132.847,-101.676"/>
</g>
<!-- Node11&#45;&gt;Node12 -->
<g id="edge11" class="edge"><title>Node11&#45;&gt;Node12</title>
<path fill="none" stroke="midnightblue" d="M117.325,-56.324C104.653,-47.979 85.2666,-35.2122 70.2944,-25.3524"/>
<polygon fill="midnightblue" stroke="midnightblue" points="71.9187,-22.2313 61.642,-19.6545 68.0688,-28.0776 71.9187,-22.2313"/>
</g>
<!-- Node13 -->
<g id="node13" class="node"><title>Node13</title>
<g id="a_node13"><a xlink:title=" ">
<polygon fill="white" stroke="#bfbfbf" points="177.5,-0.5 177.5,-19.5 229.5,-19.5 229.5,-0.5 177.5,-0.5"/>
<text text-anchor="middle" x="203.5" y="-7.5" font-family="Helvetica,sans-Serif" font-size="10.00">stdarg.h</text>
</a>
</g>
</g>
<!-- Node11&#45;&gt;Node13 -->
<g id="edge13" class="edge"><title>Node11&#45;&gt;Node13</title>
<path fill="none" stroke="midnightblue" d="M142.229,-56.324C153.337,-48.1066 170.242,-35.6017 183.483,-25.8069"/>
<polygon fill="midnightblue" stroke="midnightblue" points="185.6,-28.5948 191.558,-19.8339 181.437,-22.9671 185.6,-28.5948"/>
</g>
<!-- Node14 -->
<g id="node14" class="node"><title>Node14</title>
<g id="a_node14"><a xlink:title=" ">
<polygon fill="white" stroke="#bfbfbf" points="105.5,-0.5 105.5,-19.5 159.5,-19.5 159.5,-0.5 105.5,-0.5"/>
<text text-anchor="middle" x="132.5" y="-7.5" font-family="Helvetica,sans-Serif" font-size="10.00">iostream</text>
</a>
</g>
</g>
<!-- Node11&#45;&gt;Node14 -->
<g id="edge14" class="edge"><title>Node11&#45;&gt;Node14</title>
<path fill="none" stroke="midnightblue" d="M130.83,-56.083C131.092,-49.0059 131.468,-38.8611 131.797,-29.9865"/>
<polygon fill="midnightblue" stroke="midnightblue" points="135.303,-29.8738 132.176,-19.7511 128.308,-29.6147 135.303,-29.8738"/>
</g>
<!-- Node16 -->
<g id="node16" class="node"><title>Node16</title>
<g id="a_node16"><a xlink:href="_avl_tree___8h.html" target="_top" xlink:title=" ">
<polygon fill="white" stroke="black" points="310,-286 310,-305 435,-305 435,-286 310,-286"/>
<text text-anchor="middle" x="372.5" y="-293" font-family="Helvetica,sans-Serif" font-size="10.00">Cpl/Container/AvlTree_.h</text>
</a>
</g>
</g>
<!-- Node15&#45;&gt;Node16 -->
<g id="edge17" class="edge"><title>Node15&#45;&gt;Node16</title>
<path fill="none" stroke="midnightblue" d="M340.801,-347.475C346.241,-338.727 354.859,-324.869 361.736,-313.809"/>
<polygon fill="midnightblue" stroke="midnightblue" points="364.9,-315.349 367.209,-305.009 358.956,-311.653 364.9,-315.349"/>
</g>
<!-- Node16&#45;&gt;Node3 -->
<g id="edge19" class="edge"><title>Node16&#45;&gt;Node3</title>
<path fill="none" stroke="midnightblue" d="M352.012,-285.975C327.694,-275.857 286.951,-258.905 259.183,-247.351"/>
<polygon fill="midnightblue" stroke="midnightblue" points="260.528,-244.119 249.95,-243.509 257.839,-250.582 260.528,-244.119"/>
</g>
<!-- Node16&#45;&gt;Node9 -->
<g id="edge18" class="edge"><title>Node16&#45;&gt;Node9</title>
<path fill="none" stroke="midnightblue" d="M371.74,-285.815C370.126,-266.586 366.5,-218.957 366.5,-179 366.5,-179 366.5,-179 366.5,-121 366.5,-88.9361 365.211,-51.6344 364.322,-29.7446"/>
<polygon fill="midnightblue" stroke="midnightblue" points="367.811,-29.399 363.892,-19.5556 360.817,-29.6944 367.811,-29.399"/>
</g>
</g>
</svg>
