<?xml version="1.0" encoding="UTF-8" standalone="no"?>
<!DOCTYPE svg PUBLIC "-//W3C//DTD SVG 1.1//EN"
 "http://www.w3.org/Graphics/SVG/1.1/DTD/svg11.dtd">
<!-- Generated by graphviz version 2.38.0 (20140413.2041)
 -->
<!-- Title: Driver/TPipe/RxFrameHandlerApi.h Pages: 1 -->
<svg width="403pt" height="173pt"
 viewBox="0.00 0.00 402.50 173.00" xmlns="http://www.w3.org/2000/svg" xmlns:xlink="http://www.w3.org/1999/xlink">
<g id="graph0" class="graph" transform="scale(1 1) rotate(0) translate(4 169)">
<title>Driver/TPipe/RxFrameHandlerApi.h</title>
<polygon fill="white" stroke="none" points="-4,4 -4,-169 398.5,-169 398.5,4 -4,4"/>
<!-- Node1 -->
<g id="node1" class="node"><title>Node1</title>
<g id="a_node1"><a xlink:title=" ">
<polygon fill="#bfbfbf" stroke="black" points="98,-134.5 98,-164.5 244,-164.5 244,-134.5 98,-134.5"/>
<text text-anchor="start" x="106" y="-152.5" font-family="Helvetica,sans-Serif" font-size="10.00">Driver/TPipe/RxFrameHandler</text>
<text text-anchor="middle" x="171" y="-141.5" font-family="Helvetica,sans-Serif" font-size="10.00">Api.h</text>
</a>
</g>
</g>
<!-- Node2 -->
<g id="node2" class="node"><title>Node2</title>
<g id="a_node2"><a xlink:href="_driver_2_button_2_t_pipe_2_hal_8h.html" target="_top" xlink:title="This file defines the concrete implementation for the Button HAL that gets its raw inputs via a Drive...">
<polygon fill="white" stroke="black" points="0,-67.5 0,-97.5 102,-97.5 102,-67.5 0,-67.5"/>
<text text-anchor="start" x="8" y="-85.5" font-family="Helvetica,sans-Serif" font-size="10.00">Driver/Button/TPipe</text>
<text text-anchor="middle" x="51" y="-74.5" font-family="Helvetica,sans-Serif" font-size="10.00">/Hal.h</text>
</a>
</g>
</g>
<!-- Node1&#45;&gt;Node2 -->
<g id="edge1" class="edge"><title>Node1&#45;&gt;Node2</title>
<path fill="none" stroke="midnightblue" d="M136.062,-129.575C117.185,-119.35 94.2739,-106.94 76.9874,-97.5765"/>
<polygon fill="midnightblue" stroke="midnightblue" points="134.502,-132.711 144.962,-134.396 137.836,-126.556 134.502,-132.711"/>
</g>
<!-- Node3 -->
<g id="node3" class="node"><title>Node3</title>
<g id="a_node3"><a xlink:href="_pipe_8h.html" target="_top" xlink:title=" ">
<polygon fill="white" stroke="black" points="120.5,-73 120.5,-92 221.5,-92 221.5,-73 120.5,-73"/>
<text text-anchor="middle" x="171" y="-80" font-family="Helvetica,sans-Serif" font-size="10.00">Driver/TPipe/Pipe.h</text>
</a>
</g>
</g>
<!-- Node1&#45;&gt;Node3 -->
<g id="edge2" class="edge"><title>Node1&#45;&gt;Node3</title>
<path fill="none" stroke="midnightblue" d="M171,-124.25C171,-113.017 171,-100.377 171,-92.1945"/>
<polygon fill="midnightblue" stroke="midnightblue" points="167.5,-124.396 171,-134.396 174.5,-124.396 167.5,-124.396"/>
</g>
<!-- Node6 -->
<g id="node6" class="node"><title>Node6</title>
<g id="a_node6"><a xlink:href="_rx_frame_handler_8h.html" target="_top" xlink:title=" ">
<polygon fill="white" stroke="black" points="239.5,-73 239.5,-92 394.5,-92 394.5,-73 239.5,-73"/>
<text text-anchor="middle" x="317" y="-80" font-family="Helvetica,sans-Serif" font-size="10.00">Driver/TPipe/RxFrameHandler.h</text>
</a>
</g>
</g>
<!-- Node1&#45;&gt;Node6 -->
<g id="edge5" class="edge"><title>Node1&#45;&gt;Node6</title>
<path fill="none" stroke="midnightblue" d="M211.891,-130.295C240.046,-117.76 276.16,-101.682 297.892,-92.007"/>
<polygon fill="midnightblue" stroke="midnightblue" points="210.392,-127.131 202.68,-134.396 213.239,-133.526 210.392,-127.131"/>
</g>
<!-- Node4 -->
<g id="node4" class="node"><title>Node4</title>
<g id="a_node4"><a xlink:href="_driver_2_pico_display_2_t_pipe_2_api_8h.html" target="_top" xlink:title="This file defines the interface for initializing the concrete implementation of the PicoDisplay drive...">
<polygon fill="white" stroke="black" points="62.5,-0.5 62.5,-30.5 159.5,-30.5 159.5,-0.5 62.5,-0.5"/>
<text text-anchor="start" x="70.5" y="-18.5" font-family="Helvetica,sans-Serif" font-size="10.00">Driver/PicoDisplay</text>
<text text-anchor="middle" x="111" y="-7.5" font-family="Helvetica,sans-Serif" font-size="10.00">/TPipe/Api.h</text>
</a>
</g>
</g>
<!-- Node3&#45;&gt;Node4 -->
<g id="edge3" class="edge"><title>Node3&#45;&gt;Node4</title>
<path fill="none" stroke="midnightblue" d="M156.05,-65.3041C146.201,-54.6349 133.433,-40.8021 124.005,-30.589"/>
<polygon fill="midnightblue" stroke="midnightblue" points="153.553,-67.7597 162.908,-72.7338 158.697,-63.0118 153.553,-67.7597"/>
</g>
<!-- Node5 -->
<g id="node5" class="node"><title>Node5</title>
<g id="a_node5"><a xlink:href="_driver_2_t_pipe_2_maker_8h.html" target="_top" xlink:title=" ">
<polygon fill="white" stroke="black" points="177.5,-6 177.5,-25 286.5,-25 286.5,-6 177.5,-6"/>
<text text-anchor="middle" x="232" y="-13" font-family="Helvetica,sans-Serif" font-size="10.00">Driver/TPipe/Maker.h</text>
</a>
</g>
</g>
<!-- Node3&#45;&gt;Node5 -->
<g id="edge4" class="edge"><title>Node3&#45;&gt;Node5</title>
<path fill="none" stroke="midnightblue" d="M186.358,-65.1348C198.288,-52.4228 214.359,-35.2978 223.904,-25.1273"/>
<polygon fill="midnightblue" stroke="midnightblue" points="183.518,-63.0468 179.227,-72.7338 188.622,-67.837 183.518,-63.0468"/>
</g>
</g>
</svg>
