<?xml version="1.0" encoding="UTF-8" standalone="no"?>
<!DOCTYPE svg PUBLIC "-//W3C//DTD SVG 1.1//EN"
 "http://www.w3.org/Graphics/SVG/1.1/DTD/svg11.dtd">
<!-- Generated by graphviz version 2.38.0 (20140413.2041)
 -->
<!-- Title: Cpl/Itc/SAP.h Pages: 1 -->
<svg width="1087pt" height="520pt"
 viewBox="0.00 0.00 1086.50 520.00" xmlns="http://www.w3.org/2000/svg" xmlns:xlink="http://www.w3.org/1999/xlink">
<g id="graph0" class="graph" transform="scale(1 1) rotate(0) translate(4 516)">
<title>Cpl/Itc/SAP.h</title>
<polygon fill="white" stroke="none" points="-4,4 -4,-516 1082.5,-516 1082.5,4 -4,4"/>
<!-- Node1 -->
<g id="node1" class="node"><title>Node1</title>
<g id="a_node1"><a xlink:title=" ">
<polygon fill="#bfbfbf" stroke="black" points="563,-492.5 563,-511.5 640,-511.5 640,-492.5 563,-492.5"/>
<text text-anchor="middle" x="601.5" y="-499.5" font-family="Helvetica,sans-Serif" font-size="10.00">Cpl/Itc/SAP.h</text>
</a>
</g>
</g>
<!-- Node2 -->
<g id="node2" class="node"><title>Node2</title>
<g id="a_node2"><a xlink:href="_erase_request_8h.html" target="_top" xlink:title=" ">
<polygon fill="white" stroke="black" points="326,-308 326,-327 495,-327 495,-308 326,-308"/>
<text text-anchor="middle" x="410.5" y="-315" font-family="Helvetica,sans-Serif" font-size="10.00">Cpl/Dm/Persistent/EraseRequest.h</text>
</a>
</g>
</g>
<!-- Node1&#45;&gt;Node2 -->
<g id="edge1" class="edge"><title>Node1&#45;&gt;Node2</title>
<path fill="none" stroke="midnightblue" d="M552.526,-494.524C499.742,-484.562 418.707,-459.872 384.5,-400 370.501,-375.498 391.604,-342.473 403.415,-327.072"/>
<polygon fill="midnightblue" stroke="midnightblue" points="552.226,-498.026 562.683,-496.327 553.449,-491.133 552.226,-498.026"/>
</g>
<!-- Node7 -->
<g id="node7" class="node"><title>Node7</title>
<g id="a_node7"><a xlink:href="_flush_request_8h.html" target="_top" xlink:title=" ">
<polygon fill="white" stroke="black" points="141,-308 141,-327 308,-327 308,-308 141,-308"/>
<text text-anchor="middle" x="224.5" y="-315" font-family="Helvetica,sans-Serif" font-size="10.00">Cpl/Dm/Persistent/FlushRequest.h</text>
</a>
</g>
</g>
<!-- Node1&#45;&gt;Node7 -->
<g id="edge6" class="edge"><title>Node1&#45;&gt;Node7</title>
<path fill="none" stroke="midnightblue" d="M552.909,-494.748C513.893,-488.479 458.405,-476.7 413.5,-456 336.483,-420.497 259.248,-351.317 233.485,-327.112"/>
<polygon fill="midnightblue" stroke="midnightblue" points="552.537,-498.232 562.954,-496.3 553.606,-491.314 552.537,-498.232"/>
</g>
<!-- Node8 -->
<g id="node8" class="node"><title>Node8</title>
<g id="a_node8"><a xlink:href="_listener_client_request_8h.html" target="_top" xlink:title=" ">
<polygon fill="white" stroke="black" points="790.5,-369.5 790.5,-399.5 928.5,-399.5 928.5,-369.5 790.5,-369.5"/>
<text text-anchor="start" x="798.5" y="-387.5" font-family="Helvetica,sans-Serif" font-size="10.00">Cpl/Io/Socket/ListenerClient</text>
<text text-anchor="middle" x="859.5" y="-376.5" font-family="Helvetica,sans-Serif" font-size="10.00">Request.h</text>
</a>
</g>
</g>
<!-- Node1&#45;&gt;Node8 -->
<g id="edge8" class="edge"><title>Node1&#45;&gt;Node8</title>
<path fill="none" stroke="midnightblue" d="M650.487,-494.483C686.804,-488.239 736.696,-476.617 776.5,-456 804.704,-441.391 831.635,-415.595 846.818,-399.586"/>
<polygon fill="midnightblue" stroke="midnightblue" points="649.453,-491.106 640.151,-496.179 650.586,-498.013 649.453,-491.106"/>
</g>
<!-- Node10 -->
<g id="node10" class="node"><title>Node10</title>
<g id="a_node10"><a xlink:href="_atomic_request_8h.html" target="_top" xlink:title=" ">
<polygon fill="white" stroke="black" points="0,-308 0,-327 123,-327 123,-308 0,-308"/>
<text text-anchor="middle" x="61.5" y="-315" font-family="Helvetica,sans-Serif" font-size="10.00">Cpl/Itc/AtomicRequest.h</text>
</a>
</g>
</g>
<!-- Node1&#45;&gt;Node10 -->
<g id="edge10" class="edge"><title>Node1&#45;&gt;Node10</title>
<path fill="none" stroke="midnightblue" d="M552.792,-494.565C506.094,-487.655 433.967,-475.035 373.5,-456 255.777,-418.941 122.854,-351.039 77.5794,-327.117"/>
<polygon fill="midnightblue" stroke="midnightblue" points="552.537,-498.064 562.935,-496.035 553.541,-491.137 552.537,-498.064"/>
</g>
<!-- Node12 -->
<g id="node12" class="node"><title>Node12</title>
<g id="a_node12"><a xlink:href="_close_request_8h.html" target="_top" xlink:title=" ">
<polygon fill="white" stroke="black" points="513,-308 513,-327 630,-327 630,-308 513,-308"/>
<text text-anchor="middle" x="571.5" y="-315" font-family="Helvetica,sans-Serif" font-size="10.00">Cpl/Itc/CloseRequest.h</text>
</a>
</g>
</g>
<!-- Node1&#45;&gt;Node12 -->
<g id="edge12" class="edge"><title>Node1&#45;&gt;Node12</title>
<path fill="none" stroke="midnightblue" d="M615.01,-484.301C620.668,-476.253 626.598,-466.156 629.5,-456 631.942,-447.453 631.52,-444.656 629.5,-436 619.263,-392.135 590.166,-345.835 577.506,-327.106"/>
<polygon fill="midnightblue" stroke="midnightblue" points="612.124,-482.315 608.912,-492.411 617.719,-486.521 612.124,-482.315"/>
</g>
<!-- Node17 -->
<g id="node17" class="node"><title>Node17</title>
<g id="a_node17"><a xlink:href="_open_request_8h.html" target="_top" xlink:title=" ">
<polygon fill="white" stroke="black" points="648.5,-308 648.5,-327 764.5,-327 764.5,-308 648.5,-308"/>
<text text-anchor="middle" x="706.5" y="-315" font-family="Helvetica,sans-Serif" font-size="10.00">Cpl/Itc/OpenRequest.h</text>
</a>
</g>
</g>
<!-- Node1&#45;&gt;Node17 -->
<g id="edge18" class="edge"><title>Node1&#45;&gt;Node17</title>
<path fill="none" stroke="midnightblue" d="M618.932,-485.443C627.394,-477.265 637.268,-466.728 644.5,-456 674.653,-411.271 696.425,-349.493 703.779,-327.068"/>
<polygon fill="midnightblue" stroke="midnightblue" points="616.306,-483.107 611.384,-492.489 621.082,-488.224 616.306,-483.107"/>
</g>
<!-- Node19 -->
<g id="node19" class="node"><title>Node19</title>
<g id="a_node19"><a xlink:href="_request_message_8h.html" target="_top" xlink:title=" ">
<polygon fill="white" stroke="black" points="488.5,-436.5 488.5,-455.5 620.5,-455.5 620.5,-436.5 488.5,-436.5"/>
<text text-anchor="middle" x="554.5" y="-443.5" font-family="Helvetica,sans-Serif" font-size="10.00">Cpl/Itc/RequestMessage.h</text>
</a>
</g>
</g>
<!-- Node1&#45;&gt;Node19 -->
<g id="edge21" class="edge"><title>Node1&#45;&gt;Node19</title>
<path fill="none" stroke="midnightblue" d="M587.079,-484.431C578.842,-474.967 568.846,-463.483 562.117,-455.751"/>
<polygon fill="midnightblue" stroke="midnightblue" points="584.534,-486.838 593.739,-492.083 589.814,-482.242 584.534,-486.838"/>
</g>
<!-- Node21 -->
<g id="node21" class="node"><title>Node21</title>
<g id="a_node21"><a xlink:href="_indexed_entry_requests_8h.html" target="_top" xlink:title=" ">
<polygon fill="white" stroke="black" points="783,-302.5 783,-332.5 922,-332.5 922,-302.5 783,-302.5"/>
<text text-anchor="start" x="791" y="-320.5" font-family="Helvetica,sans-Serif" font-size="10.00">Cpl/Persistent/IndexedEntry</text>
<text text-anchor="middle" x="852.5" y="-309.5" font-family="Helvetica,sans-Serif" font-size="10.00">Requests.h</text>
</a>
</g>
</g>
<!-- Node1&#45;&gt;Node21 -->
<g id="edge37" class="edge"><title>Node1&#45;&gt;Node21</title>
<path fill="none" stroke="midnightblue" d="M622.263,-486.641C634.842,-477.882 651.174,-466.405 665.5,-456 717.643,-418.129 729.46,-407.013 781.5,-369 798.601,-356.509 818.232,-342.577 832.511,-332.515"/>
<polygon fill="midnightblue" stroke="midnightblue" points="620.066,-483.905 613.849,-492.484 624.059,-489.655 620.066,-483.905"/>
</g>
<!-- Node3 -->
<g id="node3" class="node"><title>Node3</title>
<g id="a_node3"><a xlink:href="_dm_2_persistent_2_record_8h.html" target="_top" xlink:title=" ">
<polygon fill="white" stroke="black" points="341.5,-67.5 341.5,-86.5 479.5,-86.5 479.5,-67.5 341.5,-67.5"/>
<text text-anchor="middle" x="410.5" y="-74.5" font-family="Helvetica,sans-Serif" font-size="10.00">Cpl/Dm/Persistent/Record.h</text>
</a>
</g>
</g>
<!-- Node2&#45;&gt;Node3 -->
<g id="edge2" class="edge"><title>Node2&#45;&gt;Node3</title>
<path fill="none" stroke="midnightblue" d="M410.5,-297.671C410.5,-249.103 410.5,-120.989 410.5,-86.5994"/>
<polygon fill="midnightblue" stroke="midnightblue" points="407,-297.729 410.5,-307.729 414,-297.729 407,-297.729"/>
</g>
<!-- Node4 -->
<g id="node4" class="node"><title>Node4</title>
<g id="a_node4"><a xlink:href="_installer_record_8h_source.html" target="_top" xlink:title=" ">
<polygon fill="white" stroke="black" points="214,-0.5 214,-30.5 333,-30.5 333,-0.5 214,-0.5"/>
<text text-anchor="start" x="222" y="-18.5" font-family="Helvetica,sans-Serif" font-size="10.00">Storm/Thermostat/Main</text>
<text text-anchor="middle" x="273.5" y="-7.5" font-family="Helvetica,sans-Serif" font-size="10.00">/InstallerRecord.h</text>
</a>
</g>
</g>
<!-- Node3&#45;&gt;Node4 -->
<g id="edge3" class="edge"><title>Node3&#45;&gt;Node4</title>
<path fill="none" stroke="midnightblue" d="M381.628,-63.4605C359.437,-53.823 328.79,-40.5127 305.788,-30.523"/>
<polygon fill="midnightblue" stroke="midnightblue" points="380.305,-66.7018 390.871,-67.4751 383.093,-60.2811 380.305,-66.7018"/>
</g>
<!-- Node5 -->
<g id="node5" class="node"><title>Node5</title>
<g id="a_node5"><a xlink:href="_run_time_record_8h_source.html" target="_top" xlink:title=" ">
<polygon fill="white" stroke="black" points="351,-0.5 351,-30.5 470,-30.5 470,-0.5 351,-0.5"/>
<text text-anchor="start" x="359" y="-18.5" font-family="Helvetica,sans-Serif" font-size="10.00">Storm/Thermostat/Main</text>
<text text-anchor="middle" x="410.5" y="-7.5" font-family="Helvetica,sans-Serif" font-size="10.00">/RunTimeRecord.h</text>
</a>
</g>
</g>
<!-- Node3&#45;&gt;Node5 -->
<g id="edge4" class="edge"><title>Node3&#45;&gt;Node5</title>
<path fill="none" stroke="midnightblue" d="M410.5,-57.2349C410.5,-48.5864 410.5,-38.4969 410.5,-30.523"/>
<polygon fill="midnightblue" stroke="midnightblue" points="407,-57.4751 410.5,-67.4751 414,-57.4751 407,-57.4751"/>
</g>
<!-- Node6 -->
<g id="node6" class="node"><title>Node6</title>
<g id="a_node6"><a xlink:href="_user_record_8h_source.html" target="_top" xlink:title=" ">
<polygon fill="white" stroke="black" points="488,-0.5 488,-30.5 607,-30.5 607,-0.5 488,-0.5"/>
<text text-anchor="start" x="496" y="-18.5" font-family="Helvetica,sans-Serif" font-size="10.00">Storm/Thermostat/Main</text>
<text text-anchor="middle" x="547.5" y="-7.5" font-family="Helvetica,sans-Serif" font-size="10.00">/UserRecord.h</text>
</a>
</g>
</g>
<!-- Node3&#45;&gt;Node6 -->
<g id="edge5" class="edge"><title>Node3&#45;&gt;Node6</title>
<path fill="none" stroke="midnightblue" d="M439.372,-63.4605C461.563,-53.823 492.21,-40.5127 515.212,-30.523"/>
<polygon fill="midnightblue" stroke="midnightblue" points="437.907,-60.2811 430.129,-67.4751 440.695,-66.7018 437.907,-60.2811"/>
</g>
<!-- Node7&#45;&gt;Node3 -->
<g id="edge7" class="edge"><title>Node7&#45;&gt;Node3</title>
<path fill="none" stroke="midnightblue" d="M237.547,-299.77C274.094,-252.907 376.578,-121.497 403.794,-86.5994"/>
<polygon fill="midnightblue" stroke="midnightblue" points="234.73,-297.691 231.34,-307.729 240.25,-301.996 234.73,-297.691"/>
</g>
<!-- Node9 -->
<g id="node9" class="node"><title>Node9</title>
<g id="a_node9"><a xlink:href="_listener_client_sync_8h.html" target="_top" xlink:title=" ">
<polygon fill="white" stroke="black" points="940.5,-302.5 940.5,-332.5 1078.5,-332.5 1078.5,-302.5 940.5,-302.5"/>
<text text-anchor="start" x="948.5" y="-320.5" font-family="Helvetica,sans-Serif" font-size="10.00">Cpl/Io/Socket/ListenerClient</text>
<text text-anchor="middle" x="1009.5" y="-309.5" font-family="Helvetica,sans-Serif" font-size="10.00">Sync.h</text>
</a>
</g>
</g>
<!-- Node8&#45;&gt;Node9 -->
<g id="edge9" class="edge"><title>Node8&#45;&gt;Node9</title>
<path fill="none" stroke="midnightblue" d="M901.254,-365.407C925.201,-355.029 954.818,-342.195 977.016,-332.577"/>
<polygon fill="midnightblue" stroke="midnightblue" points="899.832,-362.208 892.048,-369.396 902.615,-368.631 899.832,-362.208"/>
</g>
<!-- Node11 -->
<g id="node11" class="node"><title>Node11</title>
<g id="a_node11"><a xlink:href="_atomic_sync_8h.html" target="_top" xlink:title=" ">
<polygon fill="white" stroke="black" points="6.5,-246.5 6.5,-265.5 116.5,-265.5 116.5,-246.5 6.5,-246.5"/>
<text text-anchor="middle" x="61.5" y="-253.5" font-family="Helvetica,sans-Serif" font-size="10.00">Cpl/Itc/AtomicSync.h</text>
</a>
</g>
</g>
<!-- Node10&#45;&gt;Node11 -->
<g id="edge11" class="edge"><title>Node10&#45;&gt;Node11</title>
<path fill="none" stroke="midnightblue" d="M61.5,-297.817C61.5,-286.996 61.5,-273.898 61.5,-265.509"/>
<polygon fill="midnightblue" stroke="midnightblue" points="58.0001,-297.975 61.5,-307.975 65.0001,-297.975 58.0001,-297.975"/>
</g>
<!-- Node13 -->
<g id="node13" class="node"><title>Node13</title>
<g id="a_node13"><a xlink:href="_close_sync_8h.html" target="_top" xlink:title=" ">
<polygon fill="white" stroke="black" points="630.5,-190.5 630.5,-209.5 734.5,-209.5 734.5,-190.5 630.5,-190.5"/>
<text text-anchor="middle" x="682.5" y="-197.5" font-family="Helvetica,sans-Serif" font-size="10.00">Cpl/Itc/CloseSync.h</text>
</a>
</g>
</g>
<!-- Node12&#45;&gt;Node13 -->
<g id="edge13" class="edge"><title>Node12&#45;&gt;Node13</title>
<path fill="none" stroke="midnightblue" d="M585.213,-299.922C597.471,-285.347 616.128,-263.75 633.5,-246 646.426,-232.793 662.335,-218.516 672.449,-209.666"/>
<polygon fill="midnightblue" stroke="midnightblue" points="582.197,-298.073 578.476,-307.993 587.571,-302.559 582.197,-298.073"/>
</g>
<!-- Node14 -->
<g id="node14" class="node"><title>Node14</title>
<g id="a_node14"><a xlink:href="_indexed_entry_server_8h.html" target="_top" xlink:title=" ">
<polygon fill="white" stroke="black" points="776,-123.5 776,-153.5 915,-153.5 915,-123.5 776,-123.5"/>
<text text-anchor="start" x="784" y="-141.5" font-family="Helvetica,sans-Serif" font-size="10.00">Cpl/Persistent/IndexedEntry</text>
<text text-anchor="middle" x="845.5" y="-130.5" font-family="Helvetica,sans-Serif" font-size="10.00">Server.h</text>
</a>
</g>
</g>
<!-- Node13&#45;&gt;Node14 -->
<g id="edge14" class="edge"><title>Node13&#45;&gt;Node14</title>
<path fill="none" stroke="midnightblue" d="M715.441,-186.976C741.943,-177.302 779.226,-163.692 807.084,-153.523"/>
<polygon fill="midnightblue" stroke="midnightblue" points="714.047,-183.758 705.854,-190.475 716.448,-190.334 714.047,-183.758"/>
</g>
<!-- Node15 -->
<g id="node15" class="node"><title>Node15</title>
<g id="a_node15"><a xlink:href="_record_server_8h.html" target="_top" xlink:title=" ">
<polygon fill="white" stroke="black" points="608,-129 608,-148 757,-148 757,-129 608,-129"/>
<text text-anchor="middle" x="682.5" y="-136" font-family="Helvetica,sans-Serif" font-size="10.00">Cpl/Persistent/RecordServer.h</text>
</a>
</g>
</g>
<!-- Node13&#45;&gt;Node15 -->
<g id="edge15" class="edge"><title>Node13&#45;&gt;Node15</title>
<path fill="none" stroke="midnightblue" d="M682.5,-180.317C682.5,-169.496 682.5,-156.398 682.5,-148.009"/>
<polygon fill="midnightblue" stroke="midnightblue" points="679,-180.475 682.5,-190.475 686,-180.475 679,-180.475"/>
</g>
<!-- Node16 -->
<g id="node16" class="node"><title>Node16</title>
<g id="a_node16"><a xlink:href="_algorithm_8h.html" target="_top" xlink:title=" ">
<polygon fill="white" stroke="black" points="441.5,-129 441.5,-148 589.5,-148 589.5,-129 441.5,-129"/>
<text text-anchor="middle" x="515.5" y="-136" font-family="Helvetica,sans-Serif" font-size="10.00">Storm/Thermostat/Algorithm.h</text>
</a>
</g>
</g>
<!-- Node13&#45;&gt;Node16 -->
<g id="edge17" class="edge"><title>Node13&#45;&gt;Node16</title>
<path fill="none" stroke="midnightblue" d="M649.052,-187.083C616.59,-175.517 568.133,-158.252 539.383,-148.009"/>
<polygon fill="midnightblue" stroke="midnightblue" points="647.978,-190.416 658.573,-190.475 650.328,-183.822 647.978,-190.416"/>
</g>
<!-- Node15&#45;&gt;Node3 -->
<g id="edge16" class="edge"><title>Node15&#45;&gt;Node3</title>
<path fill="none" stroke="midnightblue" d="M633.725,-126.83C580.976,-115.292 497.941,-97.1277 449.399,-86.5091"/>
<polygon fill="midnightblue" stroke="midnightblue" points="633.012,-130.257 643.529,-128.975 634.508,-123.419 633.012,-130.257"/>
</g>
<!-- Node18 -->
<g id="node18" class="node"><title>Node18</title>
<g id="a_node18"><a xlink:href="_open_sync_8h.html" target="_top" xlink:title=" ">
<polygon fill="white" stroke="black" points="642.5,-246.5 642.5,-265.5 744.5,-265.5 744.5,-246.5 642.5,-246.5"/>
<text text-anchor="middle" x="693.5" y="-253.5" font-family="Helvetica,sans-Serif" font-size="10.00">Cpl/Itc/OpenSync.h</text>
</a>
</g>
</g>
<!-- Node17&#45;&gt;Node18 -->
<g id="edge19" class="edge"><title>Node17&#45;&gt;Node18</title>
<path fill="none" stroke="midnightblue" d="M702.492,-298.157C700.114,-287.272 697.211,-273.986 695.359,-265.509"/>
<polygon fill="midnightblue" stroke="midnightblue" points="699.083,-298.953 704.637,-307.975 705.922,-297.458 699.083,-298.953"/>
</g>
<!-- Node18&#45;&gt;Node13 -->
<g id="edge20" class="edge"><title>Node18&#45;&gt;Node13</title>
<path fill="none" stroke="midnightblue" d="M689.65,-236.101C687.824,-227.136 685.73,-216.858 684.283,-209.751"/>
<polygon fill="midnightblue" stroke="midnightblue" points="686.258,-236.983 691.684,-246.083 693.117,-235.586 686.258,-236.983"/>
</g>
<!-- Node19&#45;&gt;Node2 -->
<g id="edge22" class="edge"><title>Node19&#45;&gt;Node2</title>
<path fill="none" stroke="midnightblue" d="M488.505,-434.53C450.13,-426.946 407.096,-415.333 395.5,-400 378.838,-377.968 395.607,-343.14 405.032,-327.103"/>
<polygon fill="midnightblue" stroke="midnightblue" points="488.177,-438.031 498.656,-436.467 489.489,-431.155 488.177,-438.031"/>
</g>
<!-- Node19&#45;&gt;Node7 -->
<g id="edge23" class="edge"><title>Node19&#45;&gt;Node7</title>
<path fill="none" stroke="midnightblue" d="M502.734,-434.308C468.582,-426.526 423.177,-414.777 384.5,-400 328.588,-378.638 266.544,-343.475 239.017,-327.229"/>
<polygon fill="midnightblue" stroke="midnightblue" points="501.978,-437.726 512.501,-436.496 503.508,-430.895 501.978,-437.726"/>
</g>
<!-- Node19&#45;&gt;Node8 -->
<g id="edge24" class="edge"><title>Node19&#45;&gt;Node8</title>
<path fill="none" stroke="midnightblue" d="M608.29,-434.506C658.945,-424.625 735.076,-409.773 790.248,-399.01"/>
<polygon fill="midnightblue" stroke="midnightblue" points="607.344,-431.125 598.199,-436.475 608.684,-437.996 607.344,-431.125"/>
</g>
<!-- Node19&#45;&gt;Node10 -->
<g id="edge25" class="edge"><title>Node19&#45;&gt;Node10</title>
<path fill="none" stroke="midnightblue" d="M487.48,-434.854C438.844,-426.918 371.657,-414.769 313.5,-400 227.709,-378.213 128.451,-343.109 84.4874,-327.034"/>
<polygon fill="midnightblue" stroke="midnightblue" points="487.137,-438.344 497.567,-436.483 488.253,-431.434 487.137,-438.344"/>
</g>
<!-- Node19&#45;&gt;Node12 -->
<g id="edge26" class="edge"><title>Node19&#45;&gt;Node12</title>
<path fill="none" stroke="midnightblue" d="M557.012,-426.306C560.739,-398.576 567.586,-347.628 570.323,-327.256"/>
<polygon fill="midnightblue" stroke="midnightblue" points="553.532,-425.928 555.668,-436.305 560.469,-426.86 553.532,-425.928"/>
</g>
<!-- Node19&#45;&gt;Node17 -->
<g id="edge27" class="edge"><title>Node19&#45;&gt;Node17</title>
<path fill="none" stroke="midnightblue" d="M572.69,-429.861C604.768,-403.165 670.413,-348.533 695.979,-327.256"/>
<polygon fill="midnightblue" stroke="midnightblue" points="570.395,-427.218 564.948,-436.305 574.873,-432.598 570.395,-427.218"/>
</g>
<!-- Node20 -->
<g id="node20" class="node"><title>Node20</title>
<g id="a_node20"><a xlink:href="_response_message_8h.html" target="_top" xlink:title=" ">
<polygon fill="white" stroke="black" points="404.5,-375 404.5,-394 544.5,-394 544.5,-375 404.5,-375"/>
<text text-anchor="middle" x="474.5" y="-382" font-family="Helvetica,sans-Serif" font-size="10.00">Cpl/Itc/ResponseMessage.h</text>
</a>
</g>
</g>
<!-- Node19&#45;&gt;Node20 -->
<g id="edge28" class="edge"><title>Node19&#45;&gt;Node20</title>
<path fill="none" stroke="midnightblue" d="M534.727,-430.294C519.381,-418.88 498.645,-403.458 485.941,-394.009"/>
<polygon fill="midnightblue" stroke="midnightblue" points="532.925,-433.316 543.038,-436.475 537.103,-427.699 532.925,-433.316"/>
</g>
<!-- Node19&#45;&gt;Node21 -->
<g id="edge36" class="edge"><title>Node19&#45;&gt;Node21</title>
<path fill="none" stroke="midnightblue" d="M584.335,-432.335C640.273,-408.59 760.532,-357.54 819.091,-332.682"/>
<polygon fill="midnightblue" stroke="midnightblue" points="582.82,-429.176 574.983,-436.305 585.555,-435.619 582.82,-429.176"/>
</g>
<!-- Node20&#45;&gt;Node2 -->
<g id="edge29" class="edge"><title>Node20&#45;&gt;Node2</title>
<path fill="none" stroke="midnightblue" d="M458.743,-367.497C446.192,-354.75 429.104,-337.395 418.995,-327.127"/>
<polygon fill="midnightblue" stroke="midnightblue" points="456.359,-370.064 465.869,-374.734 461.347,-365.152 456.359,-370.064"/>
</g>
<!-- Node20&#45;&gt;Node7 -->
<g id="edge30" class="edge"><title>Node20&#45;&gt;Node7</title>
<path fill="none" stroke="midnightblue" d="M431.823,-372.404C382.483,-359.576 302.331,-338.736 257.513,-327.083"/>
<polygon fill="midnightblue" stroke="midnightblue" points="431.001,-375.807 441.56,-374.936 432.762,-369.032 431.001,-375.807"/>
</g>
<!-- Node20&#45;&gt;Node10 -->
<g id="edge31" class="edge"><title>Node20&#45;&gt;Node10</title>
<path fill="none" stroke="midnightblue" d="M398.878,-373.651C329.242,-364.277 223.156,-349.226 131.5,-333 121.479,-331.226 110.696,-329.101 100.667,-327.031"/>
<polygon fill="midnightblue" stroke="midnightblue" points="398.505,-377.132 408.881,-374.992 399.435,-370.194 398.505,-377.132"/>
</g>
<!-- Node20&#45;&gt;Node12 -->
<g id="edge32" class="edge"><title>Node20&#45;&gt;Node12</title>
<path fill="none" stroke="midnightblue" d="M495.997,-369.095C515.186,-356.236 542.653,-337.831 558.625,-327.127"/>
<polygon fill="midnightblue" stroke="midnightblue" points="493.941,-366.259 487.582,-374.734 497.838,-372.075 493.941,-366.259"/>
</g>
<!-- Node20&#45;&gt;Node17 -->
<g id="edge33" class="edge"><title>Node20&#45;&gt;Node17</title>
<path fill="none" stroke="midnightblue" d="M515.221,-372.091C561.118,-359.232 634.693,-338.618 675.934,-327.064"/>
<polygon fill="midnightblue" stroke="midnightblue" points="513.993,-368.8 505.308,-374.869 515.881,-375.541 513.993,-368.8"/>
</g>
<!-- Node20&#45;&gt;Node21 -->
<g id="edge34" class="edge"><title>Node20&#45;&gt;Node21</title>
<path fill="none" stroke="midnightblue" d="M536.543,-373.285C597.046,-363.261 691.652,-347.423 773.5,-333 776.521,-332.468 779.607,-331.92 782.723,-331.363"/>
<polygon fill="midnightblue" stroke="midnightblue" points="535.688,-369.879 526.394,-374.965 536.831,-376.785 535.688,-369.879"/>
</g>
<!-- Node21&#45;&gt;Node14 -->
<g id="edge35" class="edge"><title>Node21&#45;&gt;Node14</title>
<path fill="none" stroke="midnightblue" d="M851.542,-292.265C850.06,-254.796 847.259,-183.978 846.064,-153.753"/>
<polygon fill="midnightblue" stroke="midnightblue" points="848.046,-292.461 851.939,-302.315 855.041,-292.184 848.046,-292.461"/>
</g>
</g>
</svg>
