<?xml version="1.0" encoding="UTF-8" standalone="no"?>
<!DOCTYPE svg PUBLIC "-//W3C//DTD SVG 1.1//EN"
 "http://www.w3.org/Graphics/SVG/1.1/DTD/svg11.dtd">
<!-- Generated by graphviz version 2.38.0 (20140413.2041)
 -->
<!-- Title: Cpl/Container/SList.h Pages: 1 -->
<svg width="2089pt" height="453pt"
 viewBox="0.00 0.00 2089.00 453.00" xmlns="http://www.w3.org/2000/svg" xmlns:xlink="http://www.w3.org/1999/xlink">
<g id="graph0" class="graph" transform="scale(1 1) rotate(0) translate(4 449)">
<title>Cpl/Container/SList.h</title>
<polygon fill="white" stroke="none" points="-4,4 -4,-449 2085,-449 2085,4 -4,4"/>
<!-- Node1 -->
<g id="node1" class="node"><title>Node1</title>
<g id="a_node1"><a xlink:title=" ">
<polygon fill="#bfbfbf" stroke="black" points="870,-425.5 870,-444.5 979,-444.5 979,-425.5 870,-425.5"/>
<text text-anchor="middle" x="924.5" y="-432.5" font-family="Helvetica,sans-Serif" font-size="10.00">Cpl/Container/SList.h</text>
</a>
</g>
</g>
<!-- Node2 -->
<g id="node2" class="node"><title>Node2</title>
<g id="a_node2"><a xlink:href="_model_database_8h.html" target="_top" xlink:title=" ">
<polygon fill="white" stroke="black" points="595.5,-369.5 595.5,-388.5 723.5,-388.5 723.5,-369.5 595.5,-369.5"/>
<text text-anchor="middle" x="659.5" y="-376.5" font-family="Helvetica,sans-Serif" font-size="10.00">Cpl/Dm/ModelDatabase.h</text>
</a>
</g>
</g>
<!-- Node1&#45;&gt;Node2 -->
<g id="edge1" class="edge"><title>Node1&#45;&gt;Node2</title>
<path fill="none" stroke="midnightblue" d="M872.528,-423.41C822.446,-413.204 747.636,-397.96 701.294,-388.516"/>
<polygon fill="midnightblue" stroke="midnightblue" points="872.012,-426.876 882.51,-425.444 873.41,-420.017 872.012,-426.876"/>
</g>
<!-- Node22 -->
<g id="node22" class="node"><title>Node22</title>
<g id="a_node22"><a xlink:href="_tee_output_8h.html" target="_top" xlink:title=" ">
<polygon fill="white" stroke="black" points="875,-369.5 875,-388.5 974,-388.5 974,-369.5 875,-369.5"/>
<text text-anchor="middle" x="924.5" y="-376.5" font-family="Helvetica,sans-Serif" font-size="10.00">Cpl/Io/TeeOutput.h</text>
</a>
</g>
</g>
<!-- Node1&#45;&gt;Node22 -->
<g id="edge22" class="edge"><title>Node1&#45;&gt;Node22</title>
<path fill="none" stroke="midnightblue" d="M924.5,-414.805C924.5,-405.91 924.5,-395.78 924.5,-388.751"/>
<polygon fill="midnightblue" stroke="midnightblue" points="921,-415.083 924.5,-425.083 928,-415.083 921,-415.083"/>
</g>
<!-- Node23 -->
<g id="node23" class="node"><title>Node23</title>
<g id="a_node23"><a xlink:href="_mailbox_8h.html" target="_top" xlink:title=" ">
<polygon fill="white" stroke="black" points="1058.5,-369.5 1058.5,-388.5 1148.5,-388.5 1148.5,-369.5 1058.5,-369.5"/>
<text text-anchor="middle" x="1103.5" y="-376.5" font-family="Helvetica,sans-Serif" font-size="10.00">Cpl/Itc/Mailbox.h</text>
</a>
</g>
</g>
<!-- Node1&#45;&gt;Node23 -->
<g id="edge23" class="edge"><title>Node1&#45;&gt;Node23</title>
<path fill="none" stroke="midnightblue" d="M962.831,-422.436C996.58,-412.255 1044.95,-397.664 1075.27,-388.516"/>
<polygon fill="midnightblue" stroke="midnightblue" points="961.426,-419.204 952.863,-425.444 963.448,-425.906 961.426,-419.204"/>
</g>
<!-- Node3 -->
<g id="node3" class="node"><title>Node3</title>
<g id="a_node3"><a xlink:href="_model_point_common___8h.html" target="_top" xlink:title=" ">
<polygon fill="white" stroke="black" points="430,-257.5 430,-276.5 583,-276.5 583,-257.5 430,-257.5"/>
<text text-anchor="middle" x="506.5" y="-264.5" font-family="Helvetica,sans-Serif" font-size="10.00">Cpl/Dm/ModelPointCommon_.h</text>
</a>
</g>
</g>
<!-- Node2&#45;&gt;Node3 -->
<g id="edge2" class="edge"><title>Node2&#45;&gt;Node3</title>
<path fill="none" stroke="midnightblue" d="M639.216,-363.417C606.856,-340.151 544.541,-295.35 518.45,-276.591"/>
<polygon fill="midnightblue" stroke="midnightblue" points="637.332,-366.373 647.494,-369.368 641.418,-360.689 637.332,-366.373"/>
</g>
<!-- Node4 -->
<g id="node4" class="node"><title>Node4</title>
<g id="a_node4"><a xlink:href="_array___8h.html" target="_top" xlink:title=" ">
<polygon fill="white" stroke="black" points="125,-196 125,-215 230,-215 230,-196 125,-196"/>
<text text-anchor="middle" x="177.5" y="-203" font-family="Helvetica,sans-Serif" font-size="10.00">Cpl/Dm/Mp/Array_.h</text>
</a>
</g>
</g>
<!-- Node3&#45;&gt;Node4 -->
<g id="edge3" class="edge"><title>Node3&#45;&gt;Node4</title>
<path fill="none" stroke="midnightblue" d="M439.379,-255.883C385.254,-247.438 307.258,-234.619 239.5,-221 230.613,-219.214 221.058,-217.084 212.175,-215.014"/>
<polygon fill="midnightblue" stroke="midnightblue" points="439.118,-259.384 449.537,-257.46 440.192,-252.467 439.118,-259.384"/>
</g>
<!-- Node5 -->
<g id="node5" class="node"><title>Node5</title>
<g id="a_node5"><a xlink:href="_bool_8h.html" target="_top" xlink:title=" ">
<polygon fill="white" stroke="black" points="248.5,-196 248.5,-215 344.5,-215 344.5,-196 248.5,-196"/>
<text text-anchor="middle" x="296.5" y="-203" font-family="Helvetica,sans-Serif" font-size="10.00">Cpl/Dm/Mp/Bool.h</text>
</a>
</g>
</g>
<!-- Node3&#45;&gt;Node5 -->
<g id="edge4" class="edge"><title>Node3&#45;&gt;Node5</title>
<path fill="none" stroke="midnightblue" d="M466.532,-254.676C425.727,-243.114 363.308,-225.429 326.532,-215.009"/>
<polygon fill="midnightblue" stroke="midnightblue" points="465.837,-258.116 476.412,-257.475 467.745,-251.382 465.837,-258.116"/>
</g>
<!-- Node6 -->
<g id="node6" class="node"><title>Node6</title>
<g id="a_node6"><a xlink:href="_elapsed_precision_time_8h.html" target="_top" xlink:title=" ">
<polygon fill="white" stroke="black" points="362.5,-190.5 362.5,-220.5 506.5,-220.5 506.5,-190.5 362.5,-190.5"/>
<text text-anchor="start" x="370.5" y="-208.5" font-family="Helvetica,sans-Serif" font-size="10.00">Cpl/Dm/Mp/ElapsedPrecision</text>
<text text-anchor="middle" x="434.5" y="-197.5" font-family="Helvetica,sans-Serif" font-size="10.00">Time.h</text>
</a>
</g>
</g>
<!-- Node3&#45;&gt;Node6 -->
<g id="edge5" class="edge"><title>Node3&#45;&gt;Node6</title>
<path fill="none" stroke="midnightblue" d="M488.254,-250.921C476.949,-241.579 462.527,-229.662 451.469,-220.523"/>
<polygon fill="midnightblue" stroke="midnightblue" points="486.246,-253.803 496.184,-257.475 490.705,-248.407 486.246,-253.803"/>
</g>
<!-- Node7 -->
<g id="node7" class="node"><title>Node7</title>
<g id="a_node7"><a xlink:href="_enum___8h.html" target="_top" xlink:title=" ">
<polygon fill="white" stroke="black" points="525,-196 525,-215 632,-215 632,-196 525,-196"/>
<text text-anchor="middle" x="578.5" y="-203" font-family="Helvetica,sans-Serif" font-size="10.00">Cpl/Dm/Mp/Enum_.h</text>
</a>
</g>
</g>
<!-- Node3&#45;&gt;Node7 -->
<g id="edge6" class="edge"><title>Node3&#45;&gt;Node7</title>
<path fill="none" stroke="midnightblue" d="M524.684,-250.973C538.455,-239.593 556.877,-224.369 568.203,-215.009"/>
<polygon fill="midnightblue" stroke="midnightblue" points="522.295,-248.407 516.816,-257.475 526.754,-253.803 522.295,-248.407"/>
</g>
<!-- Node8 -->
<g id="node8" class="node"><title>Node8</title>
<g id="a_node8"><a xlink:href="_numeric_8h.html" target="_top" xlink:title=" ">
<polygon fill="white" stroke="black" points="650,-196 650,-215 763,-215 763,-196 650,-196"/>
<text text-anchor="middle" x="706.5" y="-203" font-family="Helvetica,sans-Serif" font-size="10.00">Cpl/Dm/Mp/Numeric.h</text>
</a>
</g>
</g>
<!-- Node3&#45;&gt;Node8 -->
<g id="edge7" class="edge"><title>Node3&#45;&gt;Node8</title>
<path fill="none" stroke="midnightblue" d="M545.059,-254.529C583.93,-242.965 643.021,-225.385 677.898,-215.009"/>
<polygon fill="midnightblue" stroke="midnightblue" points="543.742,-251.269 535.155,-257.475 545.738,-257.978 543.742,-251.269"/>
</g>
<!-- Node20 -->
<g id="node20" class="node"><title>Node20</title>
<g id="a_node20"><a xlink:href="_ref_counter_8h.html" target="_top" xlink:title=" ">
<polygon fill="white" stroke="black" points="781,-196 781,-215 906,-215 906,-196 781,-196"/>
<text text-anchor="middle" x="843.5" y="-203" font-family="Helvetica,sans-Serif" font-size="10.00">Cpl/Dm/Mp/RefCounter.h</text>
</a>
</g>
</g>
<!-- Node3&#45;&gt;Node20 -->
<g id="edge20" class="edge"><title>Node3&#45;&gt;Node20</title>
<path fill="none" stroke="midnightblue" d="M569.694,-255.826C623.443,-247.039 702.641,-233.777 771.5,-221 781.404,-219.162 792.052,-217.078 802.042,-215.074"/>
<polygon fill="midnightblue" stroke="midnightblue" points="568.934,-252.403 559.628,-257.468 570.061,-259.312 568.934,-252.403"/>
</g>
<!-- Node21 -->
<g id="node21" class="node"><title>Node21</title>
<g id="a_node21"><a xlink:href="_dm_2_mp_2_string___8h.html" target="_top" xlink:title=" ">
<polygon fill="white" stroke="black" points="0,-196 0,-215 107,-215 107,-196 0,-196"/>
<text text-anchor="middle" x="53.5" y="-203" font-family="Helvetica,sans-Serif" font-size="10.00">Cpl/Dm/Mp/String_.h</text>
</a>
</g>
</g>
<!-- Node3&#45;&gt;Node21 -->
<g id="edge21" class="edge"><title>Node3&#45;&gt;Node21</title>
<path fill="none" stroke="midnightblue" d="M419.735,-258.902C340.228,-251.715 219.44,-239.074 115.5,-221 106.134,-219.371 96.0636,-217.201 86.8194,-215.036"/>
<polygon fill="midnightblue" stroke="midnightblue" points="419.434,-262.389 429.706,-259.794 420.058,-255.417 419.434,-262.389"/>
</g>
<!-- Node9 -->
<g id="node9" class="node"><title>Node9</title>
<g id="a_node9"><a xlink:href="_bit_array16_8h.html" target="_top" xlink:title=" ">
<polygon fill="white" stroke="black" points="645.5,-134.5 645.5,-153.5 767.5,-153.5 767.5,-134.5 645.5,-134.5"/>
<text text-anchor="middle" x="706.5" y="-141.5" font-family="Helvetica,sans-Serif" font-size="10.00">Cpl/Dm/Mp/BitArray16.h</text>
</a>
</g>
</g>
<!-- Node8&#45;&gt;Node9 -->
<g id="edge8" class="edge"><title>Node8&#45;&gt;Node9</title>
<path fill="none" stroke="midnightblue" d="M706.5,-185.817C706.5,-174.996 706.5,-161.898 706.5,-153.509"/>
<polygon fill="midnightblue" stroke="midnightblue" points="703,-185.975 706.5,-195.975 710,-185.975 703,-185.975"/>
</g>
<!-- Node10 -->
<g id="node10" class="node"><title>Node10</title>
<g id="a_node10"><a xlink:href="_double_8h.html" target="_top" xlink:title=" ">
<polygon fill="white" stroke="black" points="786,-134.5 786,-153.5 893,-153.5 893,-134.5 786,-134.5"/>
<text text-anchor="middle" x="839.5" y="-141.5" font-family="Helvetica,sans-Serif" font-size="10.00">Cpl/Dm/Mp/Double.h</text>
</a>
</g>
</g>
<!-- Node8&#45;&gt;Node10 -->
<g id="edge9" class="edge"><title>Node8&#45;&gt;Node10</title>
<path fill="none" stroke="midnightblue" d="M734.827,-191.827C760.647,-180.276 798.076,-163.532 820.48,-153.509"/>
<polygon fill="midnightblue" stroke="midnightblue" points="733.255,-188.697 725.556,-195.975 736.113,-195.086 733.255,-188.697"/>
</g>
<!-- Node11 -->
<g id="node11" class="node"><title>Node11</title>
<g id="a_node11"><a xlink:href="_float_8h.html" target="_top" xlink:title=" ">
<polygon fill="white" stroke="black" points="911.5,-134.5 911.5,-153.5 1009.5,-153.5 1009.5,-134.5 911.5,-134.5"/>
<text text-anchor="middle" x="960.5" y="-141.5" font-family="Helvetica,sans-Serif" font-size="10.00">Cpl/Dm/Mp/Float.h</text>
</a>
</g>
</g>
<!-- Node8&#45;&gt;Node11 -->
<g id="edge10" class="edge"><title>Node8&#45;&gt;Node11</title>
<path fill="none" stroke="midnightblue" d="M752.663,-193.686C801.95,-182.141 879.034,-164.084 924.176,-153.509"/>
<polygon fill="midnightblue" stroke="midnightblue" points="751.83,-190.286 742.892,-195.975 753.427,-197.102 751.83,-190.286"/>
</g>
<!-- Node12 -->
<g id="node12" class="node"><title>Node12</title>
<g id="a_node12"><a xlink:href="_int32_8h.html" target="_top" xlink:title=" ">
<polygon fill="white" stroke="black" points="1027.5,-134.5 1027.5,-153.5 1125.5,-153.5 1125.5,-134.5 1027.5,-134.5"/>
<text text-anchor="middle" x="1076.5" y="-141.5" font-family="Helvetica,sans-Serif" font-size="10.00">Cpl/Dm/Mp/Int32.h</text>
</a>
</g>
</g>
<!-- Node8&#45;&gt;Node12 -->
<g id="edge11" class="edge"><title>Node8&#45;&gt;Node12</title>
<path fill="none" stroke="midnightblue" d="M752.409,-193.81C758.806,-192.452 765.306,-191.141 771.5,-190 880.603,-169.909 908.797,-170.506 1018.5,-154 1021.42,-153.56 1024.43,-153.105 1027.46,-152.643"/>
<polygon fill="midnightblue" stroke="midnightblue" points="751.53,-190.42 742.502,-195.965 753.018,-197.26 751.53,-190.42"/>
</g>
<!-- Node13 -->
<g id="node13" class="node"><title>Node13</title>
<g id="a_node13"><a xlink:href="_int64_8h.html" target="_top" xlink:title=" ">
<polygon fill="white" stroke="black" points="171.5,-134.5 171.5,-153.5 269.5,-153.5 269.5,-134.5 171.5,-134.5"/>
<text text-anchor="middle" x="220.5" y="-141.5" font-family="Helvetica,sans-Serif" font-size="10.00">Cpl/Dm/Mp/Int64.h</text>
</a>
</g>
</g>
<!-- Node8&#45;&gt;Node13 -->
<g id="edge12" class="edge"><title>Node8&#45;&gt;Node13</title>
<path fill="none" stroke="midnightblue" d="M661.35,-193.846C654.393,-192.418 647.272,-191.077 640.5,-190 480.824,-164.61 438.89,-174.404 278.5,-154 275.569,-153.627 272.557,-153.223 269.521,-152.8"/>
<polygon fill="midnightblue" stroke="midnightblue" points="660.855,-197.32 671.365,-195.981 662.315,-190.473 660.855,-197.32"/>
</g>
<!-- Node14 -->
<g id="node14" class="node"><title>Node14</title>
<g id="a_node14"><a xlink:href="_uint32_8h.html" target="_top" xlink:title=" ">
<polygon fill="white" stroke="black" points="287.5,-134.5 287.5,-153.5 391.5,-153.5 391.5,-134.5 287.5,-134.5"/>
<text text-anchor="middle" x="339.5" y="-141.5" font-family="Helvetica,sans-Serif" font-size="10.00">Cpl/Dm/Mp/Uint32.h</text>
</a>
</g>
</g>
<!-- Node8&#45;&gt;Node14 -->
<g id="edge13" class="edge"><title>Node8&#45;&gt;Node14</title>
<path fill="none" stroke="midnightblue" d="M659.641,-193.795C653.223,-192.449 646.708,-191.145 640.5,-190 628.403,-187.769 474.585,-164.965 391.664,-152.705"/>
<polygon fill="midnightblue" stroke="midnightblue" points="659.077,-197.253 669.588,-195.928 660.544,-190.409 659.077,-197.253"/>
</g>
<!-- Node17 -->
<g id="node17" class="node"><title>Node17</title>
<g id="a_node17"><a xlink:href="_uint64_8h.html" target="_top" xlink:title=" ">
<polygon fill="white" stroke="black" points="409.5,-134.5 409.5,-153.5 513.5,-153.5 513.5,-134.5 409.5,-134.5"/>
<text text-anchor="middle" x="461.5" y="-141.5" font-family="Helvetica,sans-Serif" font-size="10.00">Cpl/Dm/Mp/Uint64.h</text>
</a>
</g>
</g>
<!-- Node8&#45;&gt;Node17 -->
<g id="edge16" class="edge"><title>Node8&#45;&gt;Node17</title>
<path fill="none" stroke="midnightblue" d="M661.674,-193.614C614.122,-182.065 539.988,-164.061 496.537,-153.509"/>
<polygon fill="midnightblue" stroke="midnightblue" points="660.854,-197.016 671.397,-195.975 662.506,-190.214 660.854,-197.016"/>
</g>
<!-- Node19 -->
<g id="node19" class="node"><title>Node19</title>
<g id="a_node19"><a xlink:href="_void_8h.html" target="_top" xlink:title=" ">
<polygon fill="white" stroke="black" points="531.5,-134.5 531.5,-153.5 627.5,-153.5 627.5,-134.5 531.5,-134.5"/>
<text text-anchor="middle" x="579.5" y="-141.5" font-family="Helvetica,sans-Serif" font-size="10.00">Cpl/Dm/Mp/Void.h</text>
</a>
</g>
</g>
<!-- Node8&#45;&gt;Node19 -->
<g id="edge19" class="edge"><title>Node8&#45;&gt;Node19</title>
<path fill="none" stroke="midnightblue" d="M679.124,-191.674C654.481,-180.129 618.961,-163.487 597.662,-153.509"/>
<polygon fill="midnightblue" stroke="midnightblue" points="677.764,-194.902 688.304,-195.975 680.733,-188.563 677.764,-194.902"/>
</g>
<!-- Node15 -->
<g id="node15" class="node"><title>Node15</title>
<g id="a_node15"><a xlink:href="_ring_buffer_m_p_8h.html" target="_top" xlink:title=" ">
<polygon fill="white" stroke="black" points="593,-73 593,-92 740,-92 740,-73 593,-73"/>
<text text-anchor="middle" x="666.5" y="-80" font-family="Helvetica,sans-Serif" font-size="10.00">Cpl/Container/RingBufferMP.h</text>
</a>
</g>
</g>
<!-- Node14&#45;&gt;Node15 -->
<g id="edge14" class="edge"><title>Node14&#45;&gt;Node15</title>
<path fill="none" stroke="midnightblue" d="M396.563,-132.617C459.89,-121.094 560.893,-102.716 619.736,-92.0091"/>
<polygon fill="midnightblue" stroke="midnightblue" points="395.563,-129.241 386.351,-134.475 396.816,-136.128 395.563,-129.241"/>
</g>
<!-- Node16 -->
<g id="node16" class="node"><title>Node16</title>
<g id="a_node16"><a xlink:href="_indexed_entry_server_8h.html" target="_top" xlink:title=" ">
<polygon fill="white" stroke="black" points="840,-0.5 840,-30.5 979,-30.5 979,-0.5 840,-0.5"/>
<text text-anchor="start" x="848" y="-18.5" font-family="Helvetica,sans-Serif" font-size="10.00">Cpl/Persistent/IndexedEntry</text>
<text text-anchor="middle" x="909.5" y="-7.5" font-family="Helvetica,sans-Serif" font-size="10.00">Server.h</text>
</a>
</g>
</g>
<!-- Node15&#45;&gt;Node16 -->
<g id="edge15" class="edge"><title>Node15&#45;&gt;Node16</title>
<path fill="none" stroke="midnightblue" d="M708.227,-70.3384C749.375,-59.3319 812.396,-42.4743 856.94,-30.5592"/>
<polygon fill="midnightblue" stroke="midnightblue" points="707.274,-66.9703 698.518,-72.9355 709.083,-73.7326 707.274,-66.9703"/>
</g>
<!-- Node18 -->
<g id="node18" class="node"><title>Node18</title>
<g id="a_node18"><a xlink:href="_indexed_entry_record_8h.html" target="_top" xlink:title=" ">
<polygon fill="white" stroke="black" points="1084,-67.5 1084,-97.5 1223,-97.5 1223,-67.5 1084,-67.5"/>
<text text-anchor="start" x="1092" y="-85.5" font-family="Helvetica,sans-Serif" font-size="10.00">Cpl/Persistent/IndexedEntry</text>
<text text-anchor="middle" x="1153.5" y="-74.5" font-family="Helvetica,sans-Serif" font-size="10.00">Record.h</text>
</a>
</g>
</g>
<!-- Node17&#45;&gt;Node18 -->
<g id="edge17" class="edge"><title>Node17&#45;&gt;Node18</title>
<path fill="none" stroke="midnightblue" d="M523.68,-133.935C733.392,-110.38 969.141,-94.5623 1083.79,-87.5558"/>
<polygon fill="midnightblue" stroke="midnightblue" points="523.257,-130.461 513.713,-135.063 524.044,-137.416 523.257,-130.461"/>
</g>
<!-- Node18&#45;&gt;Node16 -->
<g id="edge18" class="edge"><title>Node18&#45;&gt;Node16</title>
<path fill="none" stroke="midnightblue" d="M1091,-64.8498C1051.22,-54.2523 1000.26,-40.6775 962.47,-30.6109"/>
<polygon fill="midnightblue" stroke="midnightblue" points="1090.29,-68.2838 1100.86,-67.476 1092.09,-61.5197 1090.29,-68.2838"/>
</g>
<!-- Node24 -->
<g id="node24" class="node"><title>Node24</title>
<g id="a_node24"><a xlink:href="_dm_2_mailbox_server_8h.html" target="_top" xlink:title=" ">
<polygon fill="white" stroke="black" points="1455.5,-313.5 1455.5,-332.5 1577.5,-332.5 1577.5,-313.5 1455.5,-313.5"/>
<text text-anchor="middle" x="1516.5" y="-320.5" font-family="Helvetica,sans-Serif" font-size="10.00">Cpl/Dm/MailboxServer.h</text>
</a>
</g>
</g>
<!-- Node23&#45;&gt;Node24 -->
<g id="edge24" class="edge"><title>Node23&#45;&gt;Node24</title>
<path fill="none" stroke="midnightblue" d="M1158.88,-370.759C1236,-360.676 1375.25,-342.469 1455.34,-331.997"/>
<polygon fill="midnightblue" stroke="midnightblue" points="1158.34,-367.3 1148.88,-372.067 1159.25,-374.24 1158.34,-367.3"/>
</g>
<!-- Node36 -->
<g id="node36" class="node"><title>Node36</title>
<g id="a_node36"><a xlink:href="_itc_2_mailbox_server_8h.html" target="_top" xlink:title=" ">
<polygon fill="white" stroke="black" points="1044,-313.5 1044,-332.5 1163,-332.5 1163,-313.5 1044,-313.5"/>
<text text-anchor="middle" x="1103.5" y="-320.5" font-family="Helvetica,sans-Serif" font-size="10.00">Cpl/Itc/MailboxServer.h</text>
</a>
</g>
</g>
<!-- Node23&#45;&gt;Node36 -->
<g id="edge45" class="edge"><title>Node23&#45;&gt;Node36</title>
<path fill="none" stroke="midnightblue" d="M1103.5,-358.805C1103.5,-349.91 1103.5,-339.78 1103.5,-332.751"/>
<polygon fill="midnightblue" stroke="midnightblue" points="1100,-359.083 1103.5,-369.083 1107,-359.083 1100,-359.083"/>
</g>
<!-- Node25 -->
<g id="node25" class="node"><title>Node25</title>
<g id="a_node25"><a xlink:href="_dm_2_periodic_scheduler_8h.html" target="_top" xlink:title=" ">
<polygon fill="white" stroke="black" points="1206,-257.5 1206,-276.5 1345,-276.5 1345,-257.5 1206,-257.5"/>
<text text-anchor="middle" x="1275.5" y="-264.5" font-family="Helvetica,sans-Serif" font-size="10.00">Cpl/Dm/PeriodicScheduler.h</text>
</a>
</g>
</g>
<!-- Node24&#45;&gt;Node25 -->
<g id="edge25" class="edge"><title>Node24&#45;&gt;Node25</title>
<path fill="none" stroke="midnightblue" d="M1468.38,-311.217C1422.84,-301.013 1355.39,-285.901 1313.51,-276.516"/>
<polygon fill="midnightblue" stroke="midnightblue" points="1467.79,-314.672 1478.31,-313.444 1469.32,-307.842 1467.79,-314.672"/>
</g>
<!-- Node26 -->
<g id="node26" class="node"><title>Node26</title>
<g id="a_node26"><a xlink:href="_chunk_8h.html" target="_top" xlink:title=" ">
<polygon fill="white" stroke="black" points="1559,-257.5 1559,-276.5 1676,-276.5 1676,-257.5 1559,-257.5"/>
<text text-anchor="middle" x="1617.5" y="-264.5" font-family="Helvetica,sans-Serif" font-size="10.00">Cpl/Persistent/Chunk.h</text>
</a>
</g>
</g>
<!-- Node24&#45;&gt;Node26 -->
<g id="edge26" class="edge"><title>Node24&#45;&gt;Node26</title>
<path fill="none" stroke="midnightblue" d="M1541.58,-308.59C1560.26,-298.605 1585.2,-285.267 1601.31,-276.655"/>
<polygon fill="midnightblue" stroke="midnightblue" points="1539.9,-305.522 1532.73,-313.324 1543.2,-311.696 1539.9,-305.522"/>
</g>
<!-- Node32 -->
<g id="node32" class="node"><title>Node32</title>
<g id="a_node32"><a xlink:href="_persistent_2_record_8h.html" target="_top" xlink:title=" ">
<polygon fill="white" stroke="black" points="1773.5,-257.5 1773.5,-276.5 1893.5,-276.5 1893.5,-257.5 1773.5,-257.5"/>
<text text-anchor="middle" x="1833.5" y="-264.5" font-family="Helvetica,sans-Serif" font-size="10.00">Cpl/Persistent/Record.h</text>
</a>
</g>
</g>
<!-- Node24&#45;&gt;Node32 -->
<g id="edge34" class="edge"><title>Node24&#45;&gt;Node32</title>
<path fill="none" stroke="midnightblue" d="M1576.8,-311.727C1636.71,-301.523 1727.49,-286.058 1783.51,-276.516"/>
<polygon fill="midnightblue" stroke="midnightblue" points="1576,-308.314 1566.73,-313.444 1577.18,-315.214 1576,-308.314"/>
</g>
<!-- Node33 -->
<g id="node33" class="node"><title>Node33</title>
<g id="a_node33"><a xlink:href="_record_server_8h.html" target="_top" xlink:title=" ">
<polygon fill="white" stroke="black" points="1932,-196 1932,-215 2081,-215 2081,-196 1932,-196"/>
<text text-anchor="middle" x="2006.5" y="-203" font-family="Helvetica,sans-Serif" font-size="10.00">Cpl/Persistent/RecordServer.h</text>
</a>
</g>
</g>
<!-- Node24&#45;&gt;Node33 -->
<g id="edge39" class="edge"><title>Node24&#45;&gt;Node33</title>
<path fill="none" stroke="midnightblue" d="M1588.02,-317.738C1683.34,-311.359 1846.52,-297.81 1902.5,-277 1941.55,-262.483 1980.22,-230.384 1997.34,-215.019"/>
<polygon fill="midnightblue" stroke="midnightblue" points="1587.63,-314.256 1577.88,-318.406 1588.09,-321.241 1587.63,-314.256"/>
</g>
<!-- Node34 -->
<g id="node34" class="node"><title>Node34</title>
<g id="a_node34"><a xlink:href="_region_media_8h.html" target="_top" xlink:title=" ">
<polygon fill="white" stroke="black" points="1363.5,-257.5 1363.5,-276.5 1509.5,-276.5 1509.5,-257.5 1363.5,-257.5"/>
<text text-anchor="middle" x="1436.5" y="-264.5" font-family="Helvetica,sans-Serif" font-size="10.00">Cpl/Persistent/RegionMedia.h</text>
</a>
</g>
</g>
<!-- Node24&#45;&gt;Node34 -->
<g id="edge40" class="edge"><title>Node24&#45;&gt;Node34</title>
<path fill="none" stroke="midnightblue" d="M1495.2,-307.622C1480.58,-297.757 1461.67,-284.992 1449.32,-276.655"/>
<polygon fill="midnightblue" stroke="midnightblue" points="1493.4,-310.63 1503.65,-313.324 1497.32,-304.828 1493.4,-310.63"/>
</g>
<!-- Node26&#45;&gt;Node18 -->
<g id="edge32" class="edge"><title>Node26&#45;&gt;Node18</title>
<path fill="none" stroke="midnightblue" d="M1634.02,-249.533C1648.44,-233.141 1664.98,-207.909 1650.5,-190 1597.52,-124.464 1346.94,-97.4362 1223.1,-87.9361"/>
<polygon fill="midnightblue" stroke="midnightblue" points="1631.11,-247.516 1626.85,-257.213 1636.23,-252.294 1631.11,-247.516"/>
</g>
<!-- Node27 -->
<g id="node27" class="node"><title>Node27</title>
<g id="a_node27"><a xlink:href="_dm_2_persistent_2_record_8h.html" target="_top" xlink:title=" ">
<polygon fill="white" stroke="black" points="1859.5,-134.5 1859.5,-153.5 1997.5,-153.5 1997.5,-134.5 1859.5,-134.5"/>
<text text-anchor="middle" x="1928.5" y="-141.5" font-family="Helvetica,sans-Serif" font-size="10.00">Cpl/Dm/Persistent/Record.h</text>
</a>
</g>
</g>
<!-- Node26&#45;&gt;Node27 -->
<g id="edge27" class="edge"><title>Node26&#45;&gt;Node27</title>
<path fill="none" stroke="midnightblue" d="M1638.51,-251.877C1651.53,-243.079 1668.55,-231.48 1683.5,-221 1702.79,-207.474 1705.01,-199.648 1726.5,-190 1768.62,-171.093 1819.35,-159.829 1859.44,-153.299"/>
<polygon fill="midnightblue" stroke="midnightblue" points="1636.55,-248.978 1630.22,-257.471 1640.47,-254.781 1636.55,-248.978"/>
</g>
<!-- Node28 -->
<g id="node28" class="node"><title>Node28</title>
<g id="a_node28"><a xlink:href="_crc_chunk_8h.html" target="_top" xlink:title=" ">
<polygon fill="white" stroke="black" points="1339.5,-196 1339.5,-215 1471.5,-215 1471.5,-196 1339.5,-196"/>
<text text-anchor="middle" x="1405.5" y="-203" font-family="Helvetica,sans-Serif" font-size="10.00">Cpl/Persistent/CrcChunk.h</text>
</a>
</g>
</g>
<!-- Node26&#45;&gt;Node28 -->
<g id="edge28" class="edge"><title>Node26&#45;&gt;Node28</title>
<path fill="none" stroke="midnightblue" d="M1577.41,-254.749C1536.23,-243.189 1473.02,-225.451 1435.82,-215.009"/>
<polygon fill="midnightblue" stroke="midnightblue" points="1576.55,-258.143 1587.13,-257.475 1578.44,-251.403 1576.55,-258.143"/>
</g>
<!-- Node29 -->
<g id="node29" class="node"><title>Node29</title>
<g id="a_node29"><a xlink:href="_data_record_8h.html" target="_top" xlink:title=" ">
<polygon fill="white" stroke="black" points="1735.5,-196 1735.5,-215 1875.5,-215 1875.5,-196 1735.5,-196"/>
<text text-anchor="middle" x="1805.5" y="-203" font-family="Helvetica,sans-Serif" font-size="10.00">Cpl/Persistent/DataRecord.h</text>
</a>
</g>
</g>
<!-- Node26&#45;&gt;Node29 -->
<g id="edge29" class="edge"><title>Node26&#45;&gt;Node29</title>
<path fill="none" stroke="midnightblue" d="M1654.21,-254.381C1690.76,-242.815 1745.97,-225.341 1778.61,-215.009"/>
<polygon fill="midnightblue" stroke="midnightblue" points="1652.91,-251.121 1644.44,-257.475 1655.03,-257.795 1652.91,-251.121"/>
</g>
<!-- Node31 -->
<g id="node31" class="node"><title>Node31</title>
<g id="a_node31"><a xlink:href="_mirrored_chunk_8h.html" target="_top" xlink:title=" ">
<polygon fill="white" stroke="black" points="1489.5,-196 1489.5,-215 1641.5,-215 1641.5,-196 1489.5,-196"/>
<text text-anchor="middle" x="1565.5" y="-203" font-family="Helvetica,sans-Serif" font-size="10.00">Cpl/Persistent/MirroredChunk.h</text>
</a>
</g>
</g>
<!-- Node26&#45;&gt;Node31 -->
<g id="edge33" class="edge"><title>Node26&#45;&gt;Node31</title>
<path fill="none" stroke="midnightblue" d="M1603.23,-249.669C1593.42,-238.452 1580.81,-224.016 1572.94,-215.009"/>
<polygon fill="midnightblue" stroke="midnightblue" points="1600.83,-252.249 1610.05,-257.475 1606.1,-247.642 1600.83,-252.249"/>
</g>
<!-- Node30 -->
<g id="node30" class="node"><title>Node30</title>
<g id="a_node30"><a xlink:href="_index_record_8h.html" target="_top" xlink:title=" ">
<polygon fill="white" stroke="black" points="1697.5,-134.5 1697.5,-153.5 1841.5,-153.5 1841.5,-134.5 1697.5,-134.5"/>
<text text-anchor="middle" x="1769.5" y="-141.5" font-family="Helvetica,sans-Serif" font-size="10.00">Cpl/Persistent/IndexRecord.h</text>
</a>
</g>
</g>
<!-- Node29&#45;&gt;Node30 -->
<g id="edge30" class="edge"><title>Node29&#45;&gt;Node30</title>
<path fill="none" stroke="midnightblue" d="M1795.02,-187.171C1788.32,-176.108 1779.94,-162.251 1774.65,-153.509"/>
<polygon fill="midnightblue" stroke="midnightblue" points="1792.17,-189.231 1800.34,-195.975 1798.16,-185.607 1792.17,-189.231"/>
</g>
<!-- Node30&#45;&gt;Node18 -->
<g id="edge31" class="edge"><title>Node30&#45;&gt;Node18</title>
<path fill="none" stroke="midnightblue" d="M1686.88,-134.339C1685.75,-134.225 1684.62,-134.112 1683.5,-134 1518.64,-117.52 1324.8,-99.3595 1223.4,-89.9517"/>
<polygon fill="midnightblue" stroke="midnightblue" points="1686.94,-137.863 1697.24,-135.389 1687.65,-130.899 1686.94,-137.863"/>
</g>
<!-- Node32&#45;&gt;Node27 -->
<g id="edge35" class="edge"><title>Node32&#45;&gt;Node27</title>
<path fill="none" stroke="midnightblue" d="M1853.32,-251.054C1863.39,-242.865 1875.38,-232.133 1884.5,-221 1902.66,-198.827 1917.88,-168.233 1924.68,-153.545"/>
<polygon fill="midnightblue" stroke="midnightblue" points="1851.1,-248.345 1845.42,-257.288 1855.44,-253.839 1851.1,-248.345"/>
</g>
<!-- Node32&#45;&gt;Node29 -->
<g id="edge36" class="edge"><title>Node32&#45;&gt;Node29</title>
<path fill="none" stroke="midnightblue" d="M1825.19,-248.335C1820.01,-237.328 1813.58,-223.663 1809.5,-215.009"/>
<polygon fill="midnightblue" stroke="midnightblue" points="1822.06,-249.917 1829.49,-257.475 1828.4,-246.937 1822.06,-249.917"/>
</g>
<!-- Node32&#45;&gt;Node33 -->
<g id="edge37" class="edge"><title>Node32&#45;&gt;Node33</title>
<path fill="none" stroke="midnightblue" d="M1868.15,-254.083C1901.78,-242.517 1951.98,-225.252 1981.76,-215.009"/>
<polygon fill="midnightblue" stroke="midnightblue" points="1866.6,-250.913 1858.29,-257.475 1868.88,-257.532 1866.6,-250.913"/>
</g>
<!-- Node33&#45;&gt;Node27 -->
<g id="edge38" class="edge"><title>Node33&#45;&gt;Node27</title>
<path fill="none" stroke="midnightblue" d="M1987.22,-189.794C1972.26,-178.38 1952.04,-162.958 1939.65,-153.509"/>
<polygon fill="midnightblue" stroke="midnightblue" points="1985.25,-192.693 1995.32,-195.975 1989.5,-187.127 1985.25,-192.693"/>
</g>
<!-- Node34&#45;&gt;Node18 -->
<g id="edge43" class="edge"><title>Node34&#45;&gt;Node18</title>
<path fill="none" stroke="midnightblue" d="M1353.11,-256.753C1280.58,-247.911 1185.13,-234.035 1172.5,-221 1139.97,-187.425 1145.83,-125.774 1150.58,-97.8807"/>
<polygon fill="midnightblue" stroke="midnightblue" points="1352.84,-260.245 1363.19,-257.966 1353.68,-253.295 1352.84,-260.245"/>
</g>
<!-- Node34&#45;&gt;Node28 -->
<g id="edge41" class="edge"><title>Node34&#45;&gt;Node28</title>
<path fill="none" stroke="midnightblue" d="M1427.3,-248.335C1421.56,-237.328 1414.44,-223.663 1409.93,-215.009"/>
<polygon fill="midnightblue" stroke="midnightblue" points="1424.33,-250.224 1432.06,-257.475 1430.54,-246.989 1424.33,-250.224"/>
</g>
<!-- Node34&#45;&gt;Node31 -->
<g id="edge44" class="edge"><title>Node34&#45;&gt;Node31</title>
<path fill="none" stroke="midnightblue" d="M1464.31,-253.174C1489.34,-241.629 1525.42,-224.987 1547.05,-215.009"/>
<polygon fill="midnightblue" stroke="midnightblue" points="1462.6,-250.108 1454.98,-257.475 1465.53,-256.465 1462.6,-250.108"/>
</g>
<!-- Node35 -->
<g id="node35" class="node"><title>Node35</title>
<g id="a_node35"><a xlink:href="_file_adapter_8h.html" target="_top" xlink:title=" ">
<polygon fill="white" stroke="black" points="1182,-196 1182,-215 1321,-215 1321,-196 1182,-196"/>
<text text-anchor="middle" x="1251.5" y="-203" font-family="Helvetica,sans-Serif" font-size="10.00">Cpl/Persistent/FileAdapter.h</text>
</a>
</g>
</g>
<!-- Node34&#45;&gt;Node35 -->
<g id="edge42" class="edge"><title>Node34&#45;&gt;Node35</title>
<path fill="none" stroke="midnightblue" d="M1400.37,-254.381C1364.41,-242.815 1310.08,-225.341 1277.96,-215.009"/>
<polygon fill="midnightblue" stroke="midnightblue" points="1399.4,-257.745 1409.99,-257.475 1401.55,-251.081 1399.4,-257.745"/>
</g>
<!-- Node37 -->
<g id="node37" class="node"><title>Node37</title>
<g id="a_node37"><a xlink:href="_itc_2_periodic_scheduler_8h.html" target="_top" xlink:title=" ">
<polygon fill="white" stroke="black" points="1036,-257.5 1036,-276.5 1171,-276.5 1171,-257.5 1036,-257.5"/>
<text text-anchor="middle" x="1103.5" y="-264.5" font-family="Helvetica,sans-Serif" font-size="10.00">Cpl/Itc/PeriodicScheduler.h</text>
</a>
</g>
</g>
<!-- Node36&#45;&gt;Node37 -->
<g id="edge46" class="edge"><title>Node36&#45;&gt;Node37</title>
<path fill="none" stroke="midnightblue" d="M1103.5,-302.805C1103.5,-293.91 1103.5,-283.78 1103.5,-276.751"/>
<polygon fill="midnightblue" stroke="midnightblue" points="1100,-303.083 1103.5,-313.083 1107,-303.083 1100,-303.083"/>
</g>
</g>
</svg>
