<?xml version="1.0" encoding="UTF-8" standalone="no"?>
<!DOCTYPE svg PUBLIC "-//W3C//DTD SVG 1.1//EN"
 "http://www.w3.org/Graphics/SVG/1.1/DTD/svg11.dtd">
<!-- Generated by graphviz version 2.38.0 (20140413.2041)
 -->
<!-- Title: Cpl/System/Semaphore.h Pages: 1 -->
<svg width="3814pt" height="397pt"
 viewBox="0.00 0.00 3814.00 397.00" xmlns="http://www.w3.org/2000/svg" xmlns:xlink="http://www.w3.org/1999/xlink">
<g id="graph0" class="graph" transform="scale(1 1) rotate(0) translate(4 393)">
<title>Cpl/System/Semaphore.h</title>
<polygon fill="white" stroke="none" points="-4,4 -4,-393 3810,-393 3810,4 -4,4"/>
<!-- Node1 -->
<g id="node1" class="node"><title>Node1</title>
<g id="a_node1"><a xlink:title=" ">
<polygon fill="#bfbfbf" stroke="black" points="3001.5,-369.5 3001.5,-388.5 3129.5,-388.5 3129.5,-369.5 3001.5,-369.5"/>
<text text-anchor="middle" x="3065.5" y="-376.5" font-family="Helvetica,sans-Serif" font-size="10.00">Cpl/System/Semaphore.h</text>
</a>
</g>
</g>
<!-- Node2 -->
<g id="node2" class="node"><title>Node2</title>
<g id="a_node2"><a xlink:href="_ram_2_input_output_8h.html" target="_top" xlink:title=" ">
<polygon fill="white" stroke="black" points="2415.5,-308 2415.5,-327 2543.5,-327 2543.5,-308 2415.5,-308"/>
<text text-anchor="middle" x="2479.5" y="-315" font-family="Helvetica,sans-Serif" font-size="10.00">Cpl/Io/Ram/InputOutput.h</text>
</a>
</g>
</g>
<!-- Node1&#45;&gt;Node2 -->
<g id="edge1" class="edge"><title>Node1&#45;&gt;Node2</title>
<path fill="none" stroke="midnightblue" d="M2991.26,-374.024C2891.23,-368.089 2707.81,-355.169 2552.5,-333 2541.37,-331.411 2529.38,-329.228 2518.39,-327.037"/>
<polygon fill="midnightblue" stroke="midnightblue" points="2991.08,-377.519 3001.26,-374.611 2991.49,-370.531 2991.08,-377.519"/>
</g>
<!-- Node3 -->
<g id="node3" class="node"><title>Node3</title>
<g id="a_node3"><a xlink:href="_bare_metal_2_thread_8h.html" target="_top" xlink:title=" ">
<polygon fill="white" stroke="black" points="2562,-302.5 2562,-332.5 2677,-332.5 2677,-302.5 2562,-302.5"/>
<text text-anchor="start" x="2570" y="-320.5" font-family="Helvetica,sans-Serif" font-size="10.00">Cpl/System/BareMetal</text>
<text text-anchor="middle" x="2619.5" y="-309.5" font-family="Helvetica,sans-Serif" font-size="10.00">/Thread.h</text>
</a>
</g>
</g>
<!-- Node1&#45;&gt;Node3 -->
<g id="edge2" class="edge"><title>Node1&#45;&gt;Node3</title>
<path fill="none" stroke="midnightblue" d="M2991.16,-371.279C2914.53,-363.858 2791.73,-350.594 2686.5,-333 2683.45,-332.49 2680.32,-331.934 2677.18,-331.346"/>
<polygon fill="midnightblue" stroke="midnightblue" points="2990.91,-374.771 3001.2,-372.243 2991.58,-367.803 2990.91,-374.771"/>
</g>
<!-- Node4 -->
<g id="node4" class="node"><title>Node4</title>
<g id="a_node4"><a xlink:href="_cpp11_2_thread_8h.html" target="_top" xlink:title=" ">
<polygon fill="white" stroke="black" points="2695.5,-308 2695.5,-327 2835.5,-327 2835.5,-308 2695.5,-308"/>
<text text-anchor="middle" x="2765.5" y="-315" font-family="Helvetica,sans-Serif" font-size="10.00">Cpl/System/Cpp11/Thread.h</text>
</a>
</g>
</g>
<!-- Node1&#45;&gt;Node4 -->
<g id="edge3" class="edge"><title>Node1&#45;&gt;Node4</title>
<path fill="none" stroke="midnightblue" d="M3012.43,-367.474C2954.29,-355.943 2862.16,-337.672 2808.4,-327.009"/>
<polygon fill="midnightblue" stroke="midnightblue" points="3012.03,-370.963 3022.52,-369.475 3013.39,-364.096 3012.03,-370.963"/>
</g>
<!-- Node5 -->
<g id="node5" class="node"><title>Node5</title>
<g id="a_node5"><a xlink:href="_system_2_event_loop_8h.html" target="_top" xlink:title=" ">
<polygon fill="white" stroke="black" points="2854,-308 2854,-327 2979,-327 2979,-308 2854,-308"/>
<text text-anchor="middle" x="2916.5" y="-315" font-family="Helvetica,sans-Serif" font-size="10.00">Cpl/System/EventLoop.h</text>
</a>
</g>
</g>
<!-- Node1&#45;&gt;Node5 -->
<g id="edge4" class="edge"><title>Node1&#45;&gt;Node5</title>
<path fill="none" stroke="midnightblue" d="M3034.53,-365.631C3005.58,-354.072 2963.13,-337.12 2937.81,-327.009"/>
<polygon fill="midnightblue" stroke="midnightblue" points="3033.57,-369.017 3044.15,-369.475 3036.16,-362.516 3033.57,-369.017"/>
</g>
<!-- Node82 -->
<g id="node46" class="node"><title>Node82</title>
<g id="a_node46"><a xlink:href="_posix_2_thread_8h.html" target="_top" xlink:title=" ">
<polygon fill="white" stroke="black" points="2997,-308 2997,-327 3134,-327 3134,-308 2997,-308"/>
<text text-anchor="middle" x="3065.5" y="-315" font-family="Helvetica,sans-Serif" font-size="10.00">Cpl/System/Posix/Thread.h</text>
</a>
</g>
</g>
<!-- Node1&#45;&gt;Node82 -->
<g id="edge57" class="edge"><title>Node1&#45;&gt;Node82</title>
<path fill="none" stroke="midnightblue" d="M3065.5,-359.317C3065.5,-348.496 3065.5,-335.398 3065.5,-327.009"/>
<polygon fill="midnightblue" stroke="midnightblue" points="3062,-359.475 3065.5,-369.475 3069,-359.475 3062,-359.475"/>
</g>
<!-- Node83 -->
<g id="node47" class="node"><title>Node83</title>
<g id="a_node47"><a xlink:href="_cpl_2_system_2_posix_2mappings___8h.html" target="_top" xlink:title="This file provides the mappings for Platform specific types, etc.">
<polygon fill="white" stroke="black" points="3152.5,-308 3152.5,-327 3306.5,-327 3306.5,-308 3152.5,-308"/>
<text text-anchor="middle" x="3229.5" y="-315" font-family="Helvetica,sans-Serif" font-size="10.00">Cpl/System/Posix/mappings_.h</text>
</a>
</g>
</g>
<!-- Node1&#45;&gt;Node83 -->
<g id="edge58" class="edge"><title>Node1&#45;&gt;Node83</title>
<path fill="none" stroke="midnightblue" d="M3098.76,-365.933C3130.64,-354.368 3177.93,-337.208 3206.05,-327.009"/>
<polygon fill="midnightblue" stroke="midnightblue" points="3097.2,-362.774 3089,-369.475 3099.59,-369.355 3097.2,-362.774"/>
</g>
<!-- Node84 -->
<g id="node48" class="node"><title>Node84</title>
<g id="a_node48"><a xlink:href="_r_p2040_2_thread_8h.html" target="_top" xlink:title=" ">
<polygon fill="white" stroke="black" points="3324.5,-308 3324.5,-327 3470.5,-327 3470.5,-308 3324.5,-308"/>
<text text-anchor="middle" x="3397.5" y="-315" font-family="Helvetica,sans-Serif" font-size="10.00">Cpl/System/RP2040/Thread.h</text>
</a>
</g>
</g>
<!-- Node1&#45;&gt;Node84 -->
<g id="edge59" class="edge"><title>Node1&#45;&gt;Node84</title>
<path fill="none" stroke="midnightblue" d="M3123.04,-367.688C3187.31,-356.17 3290.15,-337.738 3350.02,-327.009"/>
<polygon fill="midnightblue" stroke="midnightblue" points="3122.29,-364.266 3113.07,-369.475 3123.53,-371.156 3122.29,-364.266"/>
</g>
<!-- Node85 -->
<g id="node49" class="node"><title>Node85</title>
<g id="a_node49"><a xlink:href="_sim_tick_8h.html" target="_top" xlink:title=" ">
<polygon fill="white" stroke="black" points="3489,-308 3489,-327 3604,-327 3604,-308 3489,-308"/>
<text text-anchor="middle" x="3546.5" y="-315" font-family="Helvetica,sans-Serif" font-size="10.00">Cpl/System/SimTick.h</text>
</a>
</g>
</g>
<!-- Node1&#45;&gt;Node85 -->
<g id="edge60" class="edge"><title>Node1&#45;&gt;Node85</title>
<path fill="none" stroke="midnightblue" d="M3139.71,-372.295C3222.81,-365.359 3361.32,-352.157 3479.5,-333 3489.6,-331.362 3500.48,-329.189 3510.47,-327.024"/>
<polygon fill="midnightblue" stroke="midnightblue" points="3139.29,-368.818 3129.61,-373.13 3139.86,-375.794 3139.29,-368.818"/>
</g>
<!-- Node86 -->
<g id="node50" class="node"><title>Node86</title>
<g id="a_node50"><a xlink:href="_win32_2_thread_8h.html" target="_top" xlink:title=" ">
<polygon fill="white" stroke="black" points="3622,-308 3622,-327 3761,-327 3761,-308 3622,-308"/>
<text text-anchor="middle" x="3691.5" y="-315" font-family="Helvetica,sans-Serif" font-size="10.00">Cpl/System/Win32/Thread.h</text>
</a>
</g>
</g>
<!-- Node1&#45;&gt;Node86 -->
<g id="edge61" class="edge"><title>Node1&#45;&gt;Node86</title>
<path fill="none" stroke="midnightblue" d="M3140.09,-374.289C3245.78,-368.483 3445.01,-355.519 3613.5,-333 3625.38,-331.413 3638.19,-329.229 3649.93,-327.039"/>
<polygon fill="midnightblue" stroke="midnightblue" points="3139.64,-370.808 3129.85,-374.845 3140.02,-377.798 3139.64,-370.808"/>
</g>
<!-- Node6 -->
<g id="node6" class="node"><title>Node6</title>
<g id="a_node6"><a xlink:href="_dm_2_event_loop_8h.html" target="_top" xlink:title=" ">
<polygon fill="white" stroke="black" points="2709,-241 2709,-260 2816,-260 2816,-241 2709,-241"/>
<text text-anchor="middle" x="2762.5" y="-248" font-family="Helvetica,sans-Serif" font-size="10.00">Cpl/Dm/EventLoop.h</text>
</a>
</g>
</g>
<!-- Node5&#45;&gt;Node6 -->
<g id="edge5" class="edge"><title>Node5&#45;&gt;Node6</title>
<path fill="none" stroke="midnightblue" d="M2886.76,-303.948C2856.27,-291.079 2809.66,-271.403 2783.03,-260.167"/>
<polygon fill="midnightblue" stroke="midnightblue" points="2885.48,-307.204 2896.05,-307.869 2888.2,-300.755 2885.48,-307.204"/>
</g>
<!-- Node78 -->
<g id="node42" class="node"><title>Node78</title>
<g id="a_node42"><a xlink:href="_mailbox_8h.html" target="_top" xlink:title=" ">
<polygon fill="white" stroke="black" points="2834.5,-241 2834.5,-260 2924.5,-260 2924.5,-241 2834.5,-241"/>
<text text-anchor="middle" x="2879.5" y="-248" font-family="Helvetica,sans-Serif" font-size="10.00">Cpl/Itc/Mailbox.h</text>
</a>
</g>
</g>
<!-- Node5&#45;&gt;Node78 -->
<g id="edge51" class="edge"><title>Node5&#45;&gt;Node78</title>
<path fill="none" stroke="midnightblue" d="M2906.56,-299.035C2899.39,-286.45 2890.03,-270.007 2884.41,-260.127"/>
<polygon fill="midnightblue" stroke="midnightblue" points="2903.52,-300.775 2911.51,-307.734 2909.6,-297.312 2903.52,-300.775"/>
</g>
<!-- Node79 -->
<g id="node43" class="node"><title>Node79</title>
<g id="a_node43"><a xlink:href="_itc_2_mailbox_server_8h.html" target="_top" xlink:title=" ">
<polygon fill="white" stroke="black" points="2893,-179.5 2893,-198.5 3012,-198.5 3012,-179.5 2893,-179.5"/>
<text text-anchor="middle" x="2952.5" y="-186.5" font-family="Helvetica,sans-Serif" font-size="10.00">Cpl/Itc/MailboxServer.h</text>
</a>
</g>
</g>
<!-- Node5&#45;&gt;Node79 -->
<g id="edge55" class="edge"><title>Node5&#45;&gt;Node79</title>
<path fill="none" stroke="midnightblue" d="M2922.99,-298.393C2926.31,-288.82 2930.33,-276.837 2933.5,-266 2940.53,-241.983 2947.27,-213.229 2950.51,-198.954"/>
<polygon fill="midnightblue" stroke="midnightblue" points="2919.63,-297.393 2919.6,-307.988 2926.23,-299.724 2919.63,-297.393"/>
</g>
<!-- Node81 -->
<g id="node45" class="node"><title>Node81</title>
<g id="a_node45"><a xlink:href="_house_8h_source.html" target="_top" xlink:title=" ">
<polygon fill="white" stroke="black" points="2981,-235.5 2981,-265.5 3124,-265.5 3124,-235.5 2981,-235.5"/>
<text text-anchor="start" x="2989" y="-253.5" font-family="Helvetica,sans-Serif" font-size="10.00">Storm/Thermostat/SimHouse</text>
<text text-anchor="middle" x="3052.5" y="-242.5" font-family="Helvetica,sans-Serif" font-size="10.00">/House.h</text>
</a>
</g>
</g>
<!-- Node5&#45;&gt;Node81 -->
<g id="edge56" class="edge"><title>Node5&#45;&gt;Node81</title>
<path fill="none" stroke="midnightblue" d="M2943.75,-303.474C2966.75,-292.485 2999.58,-276.791 3023.15,-265.528"/>
<polygon fill="midnightblue" stroke="midnightblue" points="2942.07,-300.398 2934.56,-307.869 2945.09,-306.714 2942.07,-300.398"/>
</g>
<!-- Node7 -->
<g id="node7" class="node"><title>Node7</title>
<g id="a_node7"><a xlink:href="_dm_2_mailbox_server_8h.html" target="_top" xlink:title=" ">
<polygon fill="white" stroke="black" points="2727.5,-179.5 2727.5,-198.5 2849.5,-198.5 2849.5,-179.5 2727.5,-179.5"/>
<text text-anchor="middle" x="2788.5" y="-186.5" font-family="Helvetica,sans-Serif" font-size="10.00">Cpl/Dm/MailboxServer.h</text>
</a>
</g>
</g>
<!-- Node6&#45;&gt;Node7 -->
<g id="edge6" class="edge"><title>Node6&#45;&gt;Node7</title>
<path fill="none" stroke="midnightblue" d="M2770.37,-231.497C2775.15,-220.55 2781.04,-207.075 2784.78,-198.509"/>
<polygon fill="midnightblue" stroke="midnightblue" points="2767.02,-230.41 2766.23,-240.975 2773.44,-233.213 2767.02,-230.41"/>
</g>
<!-- Node27 -->
<g id="node22" class="node"><title>Node27</title>
<g id="a_node22"><a xlink:href="_subscriber_8h.html" target="_top" xlink:title=" ">
<polygon fill="white" stroke="black" points="1797,-179.5 1797,-198.5 1904,-198.5 1904,-179.5 1797,-179.5"/>
<text text-anchor="middle" x="1850.5" y="-186.5" font-family="Helvetica,sans-Serif" font-size="10.00">Cpl/Dm/Subscriber.h</text>
</a>
</g>
</g>
<!-- Node6&#45;&gt;Node27 -->
<g id="edge28" class="edge"><title>Node6&#45;&gt;Node27</title>
<path fill="none" stroke="midnightblue" d="M2698.76,-245.342C2528,-234.201 2062.45,-203.828 1904.08,-193.495"/>
<polygon fill="midnightblue" stroke="midnightblue" points="2698.65,-248.842 2708.86,-246 2699.1,-241.856 2698.65,-248.842"/>
</g>
<!-- Node8 -->
<g id="node8" class="node"><title>Node8</title>
<g id="a_node8"><a xlink:href="_dm_2_periodic_scheduler_8h.html" target="_top" xlink:title=" ">
<polygon fill="white" stroke="black" points="2621,-123.5 2621,-142.5 2760,-142.5 2760,-123.5 2621,-123.5"/>
<text text-anchor="middle" x="2690.5" y="-130.5" font-family="Helvetica,sans-Serif" font-size="10.00">Cpl/Dm/PeriodicScheduler.h</text>
</a>
</g>
</g>
<!-- Node7&#45;&gt;Node8 -->
<g id="edge7" class="edge"><title>Node7&#45;&gt;Node8</title>
<path fill="none" stroke="midnightblue" d="M2763.91,-174.453C2745.82,-164.483 2721.77,-151.228 2706.21,-142.655"/>
<polygon fill="midnightblue" stroke="midnightblue" points="2762.31,-177.563 2772.75,-179.324 2765.69,-171.432 2762.31,-177.563"/>
</g>
<!-- Node9 -->
<g id="node9" class="node"><title>Node9</title>
<g id="a_node9"><a xlink:href="_chunk_8h.html" target="_top" xlink:title=" ">
<polygon fill="white" stroke="black" points="3005,-123.5 3005,-142.5 3122,-142.5 3122,-123.5 3005,-123.5"/>
<text text-anchor="middle" x="3063.5" y="-130.5" font-family="Helvetica,sans-Serif" font-size="10.00">Cpl/Persistent/Chunk.h</text>
</a>
</g>
</g>
<!-- Node7&#45;&gt;Node9 -->
<g id="edge8" class="edge"><title>Node7&#45;&gt;Node9</title>
<path fill="none" stroke="midnightblue" d="M2842.11,-177.473C2894.08,-167.268 2971.94,-151.979 3020.13,-142.516"/>
<polygon fill="midnightblue" stroke="midnightblue" points="2841.21,-174.082 2832.07,-179.444 2842.56,-180.951 2841.21,-174.082"/>
</g>
<!-- Node20 -->
<g id="node15" class="node"><title>Node20</title>
<g id="a_node15"><a xlink:href="_persistent_2_record_8h.html" target="_top" xlink:title=" ">
<polygon fill="white" stroke="black" points="2816.5,-123.5 2816.5,-142.5 2936.5,-142.5 2936.5,-123.5 2816.5,-123.5"/>
<text text-anchor="middle" x="2876.5" y="-130.5" font-family="Helvetica,sans-Serif" font-size="10.00">Cpl/Persistent/Record.h</text>
</a>
</g>
</g>
<!-- Node7&#45;&gt;Node20 -->
<g id="edge14" class="edge"><title>Node7&#45;&gt;Node20</title>
<path fill="none" stroke="midnightblue" d="M2811.48,-173.901C2827.61,-163.999 2848.68,-151.071 2862.4,-142.655"/>
<polygon fill="midnightblue" stroke="midnightblue" points="2809.33,-171.111 2802.64,-179.324 2812.99,-177.077 2809.33,-171.111"/>
</g>
<!-- Node21 -->
<g id="node16" class="node"><title>Node21</title>
<g id="a_node16"><a xlink:href="_record_server_8h.html" target="_top" xlink:title=" ">
<polygon fill="white" stroke="black" points="2641,-62 2641,-81 2790,-81 2790,-62 2641,-62"/>
<text text-anchor="middle" x="2715.5" y="-69" font-family="Helvetica,sans-Serif" font-size="10.00">Cpl/Persistent/RecordServer.h</text>
</a>
</g>
</g>
<!-- Node7&#45;&gt;Node21 -->
<g id="edge19" class="edge"><title>Node7&#45;&gt;Node21</title>
<path fill="none" stroke="midnightblue" d="M2785.77,-169.323C2783.15,-155.711 2778.26,-137.237 2769.5,-123 2758.74,-105.509 2740.33,-90.1552 2728.05,-81.0995"/>
<polygon fill="midnightblue" stroke="midnightblue" points="2782.35,-170.134 2787.47,-179.414 2789.26,-168.972 2782.35,-170.134"/>
</g>
<!-- Node22 -->
<g id="node17" class="node"><title>Node22</title>
<g id="a_node17"><a xlink:href="_region_media_8h.html" target="_top" xlink:title=" ">
<polygon fill="white" stroke="black" points="3203.5,-123.5 3203.5,-142.5 3349.5,-142.5 3349.5,-123.5 3203.5,-123.5"/>
<text text-anchor="middle" x="3276.5" y="-130.5" font-family="Helvetica,sans-Serif" font-size="10.00">Cpl/Persistent/RegionMedia.h</text>
</a>
</g>
</g>
<!-- Node7&#45;&gt;Node22 -->
<g id="edge20" class="edge"><title>Node7&#45;&gt;Node22</title>
<path fill="none" stroke="midnightblue" d="M2859.85,-180.105C2951.65,-169.946 3110.33,-152.388 3203.11,-142.121"/>
<polygon fill="midnightblue" stroke="midnightblue" points="2859.37,-176.637 2849.81,-181.216 2860.14,-183.594 2859.37,-176.637"/>
</g>
<!-- Node25 -->
<g id="node20" class="node"><title>Node25</title>
<g id="a_node20"><a xlink:href="_algorithm_8h.html" target="_top" xlink:title=" ">
<polygon fill="white" stroke="black" points="2416.5,-123.5 2416.5,-142.5 2564.5,-142.5 2564.5,-123.5 2416.5,-123.5"/>
<text text-anchor="middle" x="2490.5" y="-130.5" font-family="Helvetica,sans-Serif" font-size="10.00">Storm/Thermostat/Algorithm.h</text>
</a>
</g>
</g>
<!-- Node7&#45;&gt;Node25 -->
<g id="edge26" class="edge"><title>Node7&#45;&gt;Node25</title>
<path fill="none" stroke="midnightblue" d="M2731.11,-177.601C2674.79,-167.395 2589.94,-152.019 2537.5,-142.516"/>
<polygon fill="midnightblue" stroke="midnightblue" points="2730.82,-181.104 2741.28,-179.444 2732.07,-174.217 2730.82,-181.104"/>
</g>
<!-- Node26 -->
<g id="node21" class="node"><title>Node26</title>
<g id="a_node21"><a xlink:href="_event_monitor_8h_source.html" target="_top" xlink:title=" ">
<polygon fill="white" stroke="black" points="2482.5,-56.5 2482.5,-86.5 2622.5,-86.5 2622.5,-56.5 2482.5,-56.5"/>
<text text-anchor="start" x="2490.5" y="-74.5" font-family="Helvetica,sans-Serif" font-size="10.00">Storm/Thermostat/Ui</text>
<text text-anchor="middle" x="2552.5" y="-63.5" font-family="Helvetica,sans-Serif" font-size="10.00">/PicoDisplay/EventMonitor.h</text>
</a>
</g>
</g>
<!-- Node7&#45;&gt;Node26 -->
<g id="edge27" class="edge"><title>Node7&#45;&gt;Node26</title>
<path fill="none" stroke="midnightblue" d="M2717.54,-180.285C2683.47,-174.098 2643.26,-162.974 2611.5,-143 2588.8,-128.724 2570.49,-102.823 2560.58,-86.7037"/>
<polygon fill="midnightblue" stroke="midnightblue" points="2716.98,-183.741 2727.43,-181.976 2718.16,-176.841 2716.98,-183.741"/>
</g>
<!-- Node10 -->
<g id="node10" class="node"><title>Node10</title>
<g id="a_node10"><a xlink:href="_dm_2_persistent_2_record_8h.html" target="_top" xlink:title=" ">
<polygon fill="white" stroke="red" points="2697.5,-0.5 2697.5,-19.5 2835.5,-19.5 2835.5,-0.5 2697.5,-0.5"/>
<text text-anchor="middle" x="2766.5" y="-7.5" font-family="Helvetica,sans-Serif" font-size="10.00">Cpl/Dm/Persistent/Record.h</text>
</a>
</g>
</g>
<!-- Node9&#45;&gt;Node10 -->
<g id="edge9" class="edge"><title>Node9&#45;&gt;Node10</title>
<path fill="none" stroke="midnightblue" d="M3052.81,-114.523C3041.04,-96.8539 3020.43,-70.1884 2995.5,-56 2946.55,-28.1402 2883.25,-17.2677 2835.61,-13.1489"/>
<polygon fill="midnightblue" stroke="midnightblue" points="3050.08,-116.742 3058.41,-123.278 3055.97,-112.969 3050.08,-116.742"/>
</g>
<!-- Node14 -->
<g id="node11" class="node"><title>Node14</title>
<g id="a_node11"><a xlink:href="_crc_chunk_8h.html" target="_top" xlink:title=" ">
<polygon fill="white" stroke="black" points="3370.5,-62 3370.5,-81 3502.5,-81 3502.5,-62 3370.5,-62"/>
<text text-anchor="middle" x="3436.5" y="-69" font-family="Helvetica,sans-Serif" font-size="10.00">Cpl/Persistent/CrcChunk.h</text>
</a>
</g>
</g>
<!-- Node9&#45;&gt;Node14 -->
<g id="edge10" class="edge"><title>Node9&#45;&gt;Node14</title>
<path fill="none" stroke="midnightblue" d="M3132.33,-122.425C3192.81,-113.816 3283.14,-100.485 3361.5,-87 3372.09,-85.1781 3383.48,-83.0575 3394.12,-81.0096"/>
<polygon fill="midnightblue" stroke="midnightblue" points="3131.55,-119.001 3122.14,-123.871 3132.53,-125.932 3131.55,-119.001"/>
</g>
<!-- Node15 -->
<g id="node12" class="node"><title>Node15</title>
<g id="a_node12"><a xlink:href="_data_record_8h.html" target="_top" xlink:title=" ">
<polygon fill="white" stroke="red" points="2846.5,-62 2846.5,-81 2986.5,-81 2986.5,-62 2846.5,-62"/>
<text text-anchor="middle" x="2916.5" y="-69" font-family="Helvetica,sans-Serif" font-size="10.00">Cpl/Persistent/DataRecord.h</text>
</a>
</g>
</g>
<!-- Node9&#45;&gt;Node15 -->
<g id="edge11" class="edge"><title>Node9&#45;&gt;Node15</title>
<path fill="none" stroke="midnightblue" d="M3032.94,-119.631C3004.38,-108.072 2962.5,-91.12 2937.52,-81.0091"/>
<polygon fill="midnightblue" stroke="midnightblue" points="3031.86,-122.967 3042.44,-123.475 3034.48,-116.479 3031.86,-122.967"/>
</g>
<!-- Node17 -->
<g id="node13" class="node"><title>Node17</title>
<g id="a_node13"><a xlink:href="_indexed_entry_record_8h.html" target="_top" xlink:title=" ">
<polygon fill="white" stroke="red" points="3043,-56.5 3043,-86.5 3182,-86.5 3182,-56.5 3043,-56.5"/>
<text text-anchor="start" x="3051" y="-74.5" font-family="Helvetica,sans-Serif" font-size="10.00">Cpl/Persistent/IndexedEntry</text>
<text text-anchor="middle" x="3112.5" y="-63.5" font-family="Helvetica,sans-Serif" font-size="10.00">Record.h</text>
</a>
</g>
</g>
<!-- Node9&#45;&gt;Node17 -->
<g id="edge12" class="edge"><title>Node9&#45;&gt;Node17</title>
<path fill="none" stroke="midnightblue" d="M3077.06,-115.53C3084.57,-106.417 3093.79,-95.2136 3100.95,-86.523"/>
<polygon fill="midnightblue" stroke="midnightblue" points="3074.18,-113.531 3070.52,-123.475 3079.58,-117.981 3074.18,-113.531"/>
</g>
<!-- Node19 -->
<g id="node14" class="node"><title>Node19</title>
<g id="a_node14"><a xlink:href="_mirrored_chunk_8h.html" target="_top" xlink:title=" ">
<polygon fill="white" stroke="black" points="3200.5,-62 3200.5,-81 3352.5,-81 3352.5,-62 3200.5,-62"/>
<text text-anchor="middle" x="3276.5" y="-69" font-family="Helvetica,sans-Serif" font-size="10.00">Cpl/Persistent/MirroredChunk.h</text>
</a>
</g>
</g>
<!-- Node9&#45;&gt;Node19 -->
<g id="edge13" class="edge"><title>Node9&#45;&gt;Node19</title>
<path fill="none" stroke="midnightblue" d="M3103.78,-120.749C3145.16,-109.189 3208.66,-91.4511 3246.04,-81.0091"/>
<polygon fill="midnightblue" stroke="midnightblue" points="3102.71,-117.414 3094.02,-123.475 3104.59,-124.156 3102.71,-117.414"/>
</g>
<!-- Node20&#45;&gt;Node10 -->
<g id="edge15" class="edge"><title>Node20&#45;&gt;Node10</title>
<path fill="none" stroke="midnightblue" d="M2861.75,-115.773C2838.12,-89.7791 2792.58,-39.69 2774.34,-19.6232"/>
<polygon fill="midnightblue" stroke="midnightblue" points="2859.27,-118.253 2868.59,-123.298 2864.45,-113.544 2859.27,-118.253"/>
</g>
<!-- Node20&#45;&gt;Node15 -->
<g id="edge16" class="edge"><title>Node20&#45;&gt;Node15</title>
<path fill="none" stroke="midnightblue" d="M2887.93,-115.005C2895.4,-103.888 2904.84,-89.8395 2910.78,-81.0091"/>
<polygon fill="midnightblue" stroke="midnightblue" points="2884.91,-113.223 2882.23,-123.475 2890.71,-117.129 2884.91,-113.223"/>
</g>
<!-- Node20&#45;&gt;Node21 -->
<g id="edge17" class="edge"><title>Node20&#45;&gt;Node21</title>
<path fill="none" stroke="midnightblue" d="M2843.85,-119.933C2812.56,-108.368 2766.12,-91.2083 2738.52,-81.0091"/>
<polygon fill="midnightblue" stroke="midnightblue" points="2842.84,-123.292 2853.43,-123.475 2845.27,-116.726 2842.84,-123.292"/>
</g>
<!-- Node21&#45;&gt;Node10 -->
<g id="edge18" class="edge"><title>Node21&#45;&gt;Node10</title>
<path fill="none" stroke="midnightblue" d="M2729.5,-54.1685C2739.11,-42.952 2751.49,-28.5161 2759.21,-19.5091"/>
<polygon fill="midnightblue" stroke="midnightblue" points="2726.66,-52.1047 2722.81,-61.9751 2731.97,-56.6603 2726.66,-52.1047"/>
</g>
<!-- Node22&#45;&gt;Node14 -->
<g id="edge21" class="edge"><title>Node22&#45;&gt;Node14</title>
<path fill="none" stroke="midnightblue" d="M3308.95,-119.933C3340.05,-108.368 3386.19,-91.2083 3413.62,-81.0091"/>
<polygon fill="midnightblue" stroke="midnightblue" points="3307.58,-116.709 3299.42,-123.475 3310.02,-123.27 3307.58,-116.709"/>
</g>
<!-- Node22&#45;&gt;Node17 -->
<g id="edge23" class="edge"><title>Node22&#45;&gt;Node17</title>
<path fill="none" stroke="midnightblue" d="M3243.36,-119.976C3216.69,-110.302 3179.18,-96.6919 3151.15,-86.523"/>
<polygon fill="midnightblue" stroke="midnightblue" points="3242.41,-123.355 3253,-123.475 3244.8,-116.774 3242.41,-123.355"/>
</g>
<!-- Node22&#45;&gt;Node19 -->
<g id="edge24" class="edge"><title>Node22&#45;&gt;Node19</title>
<path fill="none" stroke="midnightblue" d="M3276.5,-113.317C3276.5,-102.496 3276.5,-89.398 3276.5,-81.0091"/>
<polygon fill="midnightblue" stroke="midnightblue" points="3273,-113.475 3276.5,-123.475 3280,-113.475 3273,-113.475"/>
</g>
<!-- Node23 -->
<g id="node18" class="node"><title>Node23</title>
<g id="a_node18"><a xlink:href="_file_adapter_8h.html" target="_top" xlink:title=" ">
<polygon fill="white" stroke="black" points="3667,-62 3667,-81 3806,-81 3806,-62 3667,-62"/>
<text text-anchor="middle" x="3736.5" y="-69" font-family="Helvetica,sans-Serif" font-size="10.00">Cpl/Persistent/FileAdapter.h</text>
</a>
</g>
</g>
<!-- Node22&#45;&gt;Node23 -->
<g id="edge22" class="edge"><title>Node22&#45;&gt;Node23</title>
<path fill="none" stroke="midnightblue" d="M3359.98,-122.772C3454.32,-112.232 3601.98,-95.3658 3657.5,-87 3668.94,-85.2756 3681.27,-83.1452 3692.71,-81.0533"/>
<polygon fill="midnightblue" stroke="midnightblue" points="3359.43,-119.311 3349.88,-123.899 3360.21,-126.268 3359.43,-119.311"/>
</g>
<!-- Node24 -->
<g id="node19" class="node"><title>Node24</title>
<g id="a_node19"><a xlink:href="_null_region_media_8h.html" target="_top" xlink:title=" ">
<polygon fill="white" stroke="black" points="3520.5,-56.5 3520.5,-86.5 3648.5,-86.5 3648.5,-56.5 3520.5,-56.5"/>
<text text-anchor="start" x="3528.5" y="-74.5" font-family="Helvetica,sans-Serif" font-size="10.00">Cpl/Persistent/NullRegion</text>
<text text-anchor="middle" x="3584.5" y="-63.5" font-family="Helvetica,sans-Serif" font-size="10.00">Media.h</text>
</a>
</g>
</g>
<!-- Node22&#45;&gt;Node24 -->
<g id="edge25" class="edge"><title>Node22&#45;&gt;Node24</title>
<path fill="none" stroke="midnightblue" d="M3331.67,-121.546C3379.31,-112.494 3449.97,-99.0028 3511.5,-87 3514.42,-86.431 3517.4,-85.8473 3520.41,-85.2559"/>
<polygon fill="midnightblue" stroke="midnightblue" points="3330.74,-118.16 3321.57,-123.465 3332.05,-125.038 3330.74,-118.16"/>
</g>
<!-- Node28 -->
<g id="node23" class="node"><title>Node28</title>
<g id="a_node23"><a xlink:href="_model_point_common___8h.html" target="_top" xlink:title=" ">
<polygon fill="white" stroke="red" points="1261,-123.5 1261,-142.5 1414,-142.5 1414,-123.5 1261,-123.5"/>
<text text-anchor="middle" x="1337.5" y="-130.5" font-family="Helvetica,sans-Serif" font-size="10.00">Cpl/Dm/ModelPointCommon_.h</text>
</a>
</g>
</g>
<!-- Node27&#45;&gt;Node28 -->
<g id="edge29" class="edge"><title>Node27&#45;&gt;Node28</title>
<path fill="none" stroke="midnightblue" d="M1786.58,-181.272C1692.16,-171.332 1515.65,-152.753 1414.32,-142.086"/>
<polygon fill="midnightblue" stroke="midnightblue" points="1786.26,-184.757 1796.57,-182.323 1786.99,-177.795 1786.26,-184.757"/>
</g>
<!-- Node52 -->
<g id="node28" class="node"><title>Node52</title>
<g id="a_node28"><a xlink:href="_mp_thermostat_mode_8h.html" target="_top" xlink:title=" ">
<polygon fill="white" stroke="red" points="0,-0.5 0,-19.5 159,-19.5 159,-0.5 0,-0.5"/>
<text text-anchor="middle" x="79.5" y="-7.5" font-family="Helvetica,sans-Serif" font-size="10.00">Storm/Dm/MpThermostatMode.h</text>
</a>
</g>
</g>
<!-- Node27&#45;&gt;Node52 -->
<g id="edge50" class="edge"><title>Node27&#45;&gt;Node52</title>
<path fill="none" stroke="midnightblue" d="M1786.68,-186.835C1474.19,-180.829 118.118,-151.129 57.5,-87 39.5719,-68.0336 60.3744,-35.3564 72.2923,-19.7679"/>
<polygon fill="midnightblue" stroke="midnightblue" points="1786.85,-190.339 1796.92,-187.031 1786.99,-183.341 1786.85,-190.339"/>
</g>
<!-- Node77 -->
<g id="node41" class="node"><title>Node77</title>
<g id="a_node41"><a xlink:href="_subscriber_composer_8h.html" target="_top" xlink:title=" ">
<polygon fill="white" stroke="red" points="2247,-123.5 2247,-142.5 2398,-142.5 2398,-123.5 2247,-123.5"/>
<text text-anchor="middle" x="2322.5" y="-130.5" font-family="Helvetica,sans-Serif" font-size="10.00">Cpl/Dm/SubscriberComposer.h</text>
</a>
</g>
</g>
<!-- Node27&#45;&gt;Node77 -->
<g id="edge47" class="edge"><title>Node27&#45;&gt;Node77</title>
<path fill="none" stroke="midnightblue" d="M1914.16,-180.717C2000.88,-170.795 2155.89,-153.062 2247.94,-142.53"/>
<polygon fill="midnightblue" stroke="midnightblue" points="1913.72,-177.244 1904.18,-181.858 1914.52,-184.199 1913.72,-177.244"/>
</g>
<!-- Node29 -->
<g id="node24" class="node"><title>Node29</title>
<g id="a_node24"><a xlink:href="_array___8h.html" target="_top" xlink:title=" ">
<polygon fill="white" stroke="black" points="1166,-62 1166,-81 1271,-81 1271,-62 1166,-62"/>
<text text-anchor="middle" x="1218.5" y="-69" font-family="Helvetica,sans-Serif" font-size="10.00">Cpl/Dm/Mp/Array_.h</text>
</a>
</g>
</g>
<!-- Node28&#45;&gt;Node29 -->
<g id="edge30" class="edge"><title>Node28&#45;&gt;Node29</title>
<path fill="none" stroke="midnightblue" d="M1311.23,-118.867C1288.17,-107.335 1255.3,-90.8992 1235.52,-81.0091"/>
<polygon fill="midnightblue" stroke="midnightblue" points="1309.94,-122.133 1320.45,-123.475 1313.07,-115.872 1309.94,-122.133"/>
</g>
<!-- Node30 -->
<g id="node25" class="node"><title>Node30</title>
<g id="a_node25"><a xlink:href="_bool_8h.html" target="_top" xlink:title=" ">
<polygon fill="white" stroke="red" points="1289.5,-62 1289.5,-81 1385.5,-81 1385.5,-62 1289.5,-62"/>
<text text-anchor="middle" x="1337.5" y="-69" font-family="Helvetica,sans-Serif" font-size="10.00">Cpl/Dm/Mp/Bool.h</text>
</a>
</g>
</g>
<!-- Node28&#45;&gt;Node30 -->
<g id="edge31" class="edge"><title>Node28&#45;&gt;Node30</title>
<path fill="none" stroke="midnightblue" d="M1337.5,-113.317C1337.5,-102.496 1337.5,-89.398 1337.5,-81.0091"/>
<polygon fill="midnightblue" stroke="midnightblue" points="1334,-113.475 1337.5,-123.475 1341,-113.475 1334,-113.475"/>
</g>
<!-- Node48 -->
<g id="node26" class="node"><title>Node48</title>
<g id="a_node26"><a xlink:href="_elapsed_precision_time_8h.html" target="_top" xlink:title=" ">
<polygon fill="white" stroke="red" points="1403.5,-56.5 1403.5,-86.5 1547.5,-86.5 1547.5,-56.5 1403.5,-56.5"/>
<text text-anchor="start" x="1411.5" y="-74.5" font-family="Helvetica,sans-Serif" font-size="10.00">Cpl/Dm/Mp/ElapsedPrecision</text>
<text text-anchor="middle" x="1475.5" y="-63.5" font-family="Helvetica,sans-Serif" font-size="10.00">Time.h</text>
</a>
</g>
</g>
<!-- Node28&#45;&gt;Node48 -->
<g id="edge32" class="edge"><title>Node28&#45;&gt;Node48</title>
<path fill="none" stroke="midnightblue" d="M1366.58,-119.461C1388.94,-109.823 1419.81,-96.5127 1442.98,-86.523"/>
<polygon fill="midnightblue" stroke="midnightblue" points="1365.07,-116.302 1357.27,-123.475 1367.84,-122.73 1365.07,-116.302"/>
</g>
<!-- Node50 -->
<g id="node27" class="node"><title>Node50</title>
<g id="a_node27"><a xlink:href="_enum___8h.html" target="_top" xlink:title=" ">
<polygon fill="white" stroke="red" points="67,-62 67,-81 174,-81 174,-62 67,-62"/>
<text text-anchor="middle" x="120.5" y="-69" font-family="Helvetica,sans-Serif" font-size="10.00">Cpl/Dm/Mp/Enum_.h</text>
</a>
</g>
</g>
<!-- Node28&#45;&gt;Node50 -->
<g id="edge33" class="edge"><title>Node28&#45;&gt;Node50</title>
<path fill="none" stroke="midnightblue" d="M1250.86,-130.723C1019.28,-126.975 389.609,-114.491 183.5,-87 173.265,-85.6349 162.25,-83.3782 152.337,-81.0472"/>
<polygon fill="midnightblue" stroke="midnightblue" points="1250.86,-134.224 1260.92,-130.885 1250.98,-127.225 1250.86,-134.224"/>
</g>
<!-- Node53 -->
<g id="node29" class="node"><title>Node53</title>
<g id="a_node29"><a xlink:href="_numeric_8h.html" target="_top" xlink:title=" ">
<polygon fill="white" stroke="red" points="1566,-62 1566,-81 1679,-81 1679,-62 1566,-62"/>
<text text-anchor="middle" x="1622.5" y="-69" font-family="Helvetica,sans-Serif" font-size="10.00">Cpl/Dm/Mp/Numeric.h</text>
</a>
</g>
</g>
<!-- Node28&#45;&gt;Node53 -->
<g id="edge35" class="edge"><title>Node28&#45;&gt;Node53</title>
<path fill="none" stroke="midnightblue" d="M1389.91,-121.44C1434.3,-112.445 1499.61,-99.0926 1556.5,-87 1565.45,-85.0973 1575.07,-83.0079 1584.13,-81.0223"/>
<polygon fill="midnightblue" stroke="midnightblue" points="1389.04,-118.045 1379.93,-123.46 1390.42,-124.906 1389.04,-118.045"/>
</g>
<!-- Node63 -->
<g id="node30" class="node"><title>Node63</title>
<g id="a_node30"><a xlink:href="_ref_counter_8h.html" target="_top" xlink:title=" ">
<polygon fill="white" stroke="red" points="1697,-62 1697,-81 1822,-81 1822,-62 1697,-62"/>
<text text-anchor="middle" x="1759.5" y="-69" font-family="Helvetica,sans-Serif" font-size="10.00">Cpl/Dm/Mp/RefCounter.h</text>
</a>
</g>
</g>
<!-- Node28&#45;&gt;Node63 -->
<g id="edge36" class="edge"><title>Node28&#45;&gt;Node63</title>
<path fill="none" stroke="midnightblue" d="M1424.43,-122.557C1495.4,-114.432 1598.2,-101.714 1687.5,-87 1697.94,-85.2794 1709.18,-83.1503 1719.6,-81.0585"/>
<polygon fill="midnightblue" stroke="midnightblue" points="1423.74,-119.114 1414.2,-123.723 1424.53,-126.069 1423.74,-119.114"/>
</g>
<!-- Node64 -->
<g id="node31" class="node"><title>Node64</title>
<g id="a_node31"><a xlink:href="_dm_2_mp_2_string___8h.html" target="_top" xlink:title=" ">
<polygon fill="white" stroke="red" points="1840,-62 1840,-81 1947,-81 1947,-62 1840,-62"/>
<text text-anchor="middle" x="1893.5" y="-69" font-family="Helvetica,sans-Serif" font-size="10.00">Cpl/Dm/Mp/String_.h</text>
</a>
</g>
</g>
<!-- Node28&#45;&gt;Node64 -->
<g id="edge37" class="edge"><title>Node28&#45;&gt;Node64</title>
<path fill="none" stroke="midnightblue" d="M1424.57,-127.619C1523.43,-121.82 1689.31,-109.585 1830.5,-87 1840.25,-85.4399 1850.74,-83.239 1860.32,-81.0222"/>
<polygon fill="midnightblue" stroke="midnightblue" points="1424.11,-124.14 1414.33,-128.211 1424.52,-131.128 1424.11,-124.14"/>
</g>
<!-- Node66 -->
<g id="node32" class="node"><title>Node66</title>
<g id="a_node32"><a xlink:href="_mp_comfort_config_8h.html" target="_top" xlink:title=" ">
<polygon fill="white" stroke="red" points="1965.5,-62 1965.5,-81 2113.5,-81 2113.5,-62 1965.5,-62"/>
<text text-anchor="middle" x="2039.5" y="-69" font-family="Helvetica,sans-Serif" font-size="10.00">Storm/Dm/MpComfortConfig.h</text>
</a>
</g>
</g>
<!-- Node28&#45;&gt;Node66 -->
<g id="edge38" class="edge"><title>Node28&#45;&gt;Node66</title>
<path fill="none" stroke="midnightblue" d="M1424.55,-128.361C1544.42,-122.735 1766.93,-110.085 1955.5,-87 1968.28,-85.4355 1982.07,-83.2598 1994.72,-81.0689"/>
<polygon fill="midnightblue" stroke="midnightblue" points="1424.16,-124.875 1414.33,-128.835 1424.48,-131.868 1424.16,-124.875"/>
</g>
<!-- Node67 -->
<g id="node33" class="node"><title>Node67</title>
<g id="a_node33"><a xlink:href="_mp_cycle_info_8h.html" target="_top" xlink:title=" ">
<polygon fill="white" stroke="red" points="2132,-62 2132,-81 2259,-81 2259,-62 2132,-62"/>
<text text-anchor="middle" x="2195.5" y="-69" font-family="Helvetica,sans-Serif" font-size="10.00">Storm/Dm/MpCycleInfo.h</text>
</a>
</g>
</g>
<!-- Node28&#45;&gt;Node67 -->
<g id="edge39" class="edge"><title>Node28&#45;&gt;Node67</title>
<path fill="none" stroke="midnightblue" d="M1424.33,-130.953C1569.46,-128.325 1870.25,-119.124 2122.5,-87 2134.04,-85.5309 2146.48,-83.3026 2157.78,-81.0305"/>
<polygon fill="midnightblue" stroke="midnightblue" points="1424.09,-127.457 1414.15,-131.131 1424.21,-134.456 1424.09,-127.457"/>
</g>
<!-- Node68 -->
<g id="node34" class="node"><title>Node68</title>
<g id="a_node34"><a xlink:href="_mp_equipment_begin_times_8h.html" target="_top" xlink:title=" ">
<polygon fill="white" stroke="red" points="2277,-56.5 2277,-86.5 2426,-86.5 2426,-56.5 2277,-56.5"/>
<text text-anchor="start" x="2285" y="-74.5" font-family="Helvetica,sans-Serif" font-size="10.00">Storm/Dm/MpEquipmentBegin</text>
<text text-anchor="middle" x="2351.5" y="-63.5" font-family="Helvetica,sans-Serif" font-size="10.00">Times.h</text>
</a>
</g>
</g>
<!-- Node28&#45;&gt;Node68 -->
<g id="edge40" class="edge"><title>Node28&#45;&gt;Node68</title>
<path fill="none" stroke="midnightblue" d="M1424.39,-131.344C1589.26,-129.312 1958.64,-121 2267.5,-87 2270.59,-86.6599 2273.74,-86.2781 2276.91,-85.8636"/>
<polygon fill="midnightblue" stroke="midnightblue" points="1424.26,-127.845 1414.3,-131.463 1424.34,-134.844 1424.26,-127.845"/>
</g>
<!-- Node69 -->
<g id="node35" class="node"><title>Node69</title>
<g id="a_node35"><a xlink:href="_mp_equipment_config_8h.html" target="_top" xlink:title=" ">
<polygon fill="white" stroke="red" points="192.5,-62 192.5,-81 352.5,-81 352.5,-62 192.5,-62"/>
<text text-anchor="middle" x="272.5" y="-69" font-family="Helvetica,sans-Serif" font-size="10.00">Storm/Dm/MpEquipmentConfig.h</text>
</a>
</g>
</g>
<!-- Node28&#45;&gt;Node69 -->
<g id="edge41" class="edge"><title>Node28&#45;&gt;Node69</title>
<path fill="none" stroke="midnightblue" d="M1250.53,-131.353C1079.69,-129.338 688.448,-121.056 361.5,-87 347.486,-85.5403 332.326,-83.3148 318.557,-81.0424"/>
<polygon fill="midnightblue" stroke="midnightblue" points="1250.68,-134.855 1260.72,-131.468 1250.76,-127.855 1250.68,-134.855"/>
</g>
<!-- Node70 -->
<g id="node36" class="node"><title>Node70</title>
<g id="a_node36"><a xlink:href="_mp_hvac_relay_outputs_8h.html" target="_top" xlink:title=" ">
<polygon fill="white" stroke="red" points="371,-62 371,-81 538,-81 538,-62 371,-62"/>
<text text-anchor="middle" x="454.5" y="-69" font-family="Helvetica,sans-Serif" font-size="10.00">Storm/Dm/MpHvacRelayOutputs.h</text>
</a>
</g>
</g>
<!-- Node28&#45;&gt;Node70 -->
<g id="edge42" class="edge"><title>Node28&#45;&gt;Node70</title>
<path fill="none" stroke="midnightblue" d="M1250.54,-129.826C1104.79,-125.559 802.138,-114.038 547.5,-87 533.038,-85.4644 517.391,-83.244 503.131,-81.0005"/>
<polygon fill="midnightblue" stroke="midnightblue" points="1250.66,-133.33 1260.76,-130.12 1250.86,-126.333 1250.66,-133.33"/>
</g>
<!-- Node71 -->
<g id="node37" class="node"><title>Node71</title>
<g id="a_node37"><a xlink:href="_mp_idt_alarm_8h.html" target="_top" xlink:title=" ">
<polygon fill="white" stroke="red" points="556.5,-62 556.5,-81 678.5,-81 678.5,-62 556.5,-62"/>
<text text-anchor="middle" x="617.5" y="-69" font-family="Helvetica,sans-Serif" font-size="10.00">Storm/Dm/MpIdtAlarm.h</text>
</a>
</g>
</g>
<!-- Node28&#45;&gt;Node71 -->
<g id="edge43" class="edge"><title>Node28&#45;&gt;Node71</title>
<path fill="none" stroke="midnightblue" d="M1250.33,-129.705C1125.23,-125.564 887.784,-114.548 687.5,-87 676.557,-85.4949 664.763,-83.2838 654.031,-81.0395"/>
<polygon fill="midnightblue" stroke="midnightblue" points="1250.5,-133.212 1260.61,-130.038 1250.73,-126.216 1250.5,-133.212"/>
</g>
<!-- Node72 -->
<g id="node38" class="node"><title>Node72</title>
<g id="a_node38"><a xlink:href="_mp_setpoints_8h.html" target="_top" xlink:title=" ">
<polygon fill="white" stroke="red" points="697,-62 697,-81 824,-81 824,-62 697,-62"/>
<text text-anchor="middle" x="760.5" y="-69" font-family="Helvetica,sans-Serif" font-size="10.00">Storm/Dm/MpSetpoints.h</text>
</a>
</g>
</g>
<!-- Node28&#45;&gt;Node72 -->
<g id="edge44" class="edge"><title>Node28&#45;&gt;Node72</title>
<path fill="none" stroke="midnightblue" d="M1250.48,-127.159C1149.57,-120.873 978.411,-108.128 832.5,-87 821.521,-85.4102 809.689,-83.2264 798.851,-81.0358"/>
<polygon fill="midnightblue" stroke="midnightblue" points="1250.43,-130.663 1260.62,-127.784 1250.86,-123.676 1250.43,-130.663"/>
</g>
<!-- Node73 -->
<g id="node39" class="node"><title>Node73</title>
<g id="a_node39"><a xlink:href="_mp_simple_alarm_8h.html" target="_top" xlink:title=" ">
<polygon fill="white" stroke="red" points="842,-62 842,-81 983,-81 983,-62 842,-62"/>
<text text-anchor="middle" x="912.5" y="-69" font-family="Helvetica,sans-Serif" font-size="10.00">Storm/Dm/MpSimpleAlarm.h</text>
</a>
</g>
</g>
<!-- Node28&#45;&gt;Node73 -->
<g id="edge45" class="edge"><title>Node28&#45;&gt;Node73</title>
<path fill="none" stroke="midnightblue" d="M1252.98,-122.257C1182.82,-113.87 1080.48,-100.943 991.5,-87 980.203,-85.2299 968.038,-83.1061 956.72,-81.0368"/>
<polygon fill="midnightblue" stroke="midnightblue" points="1252.75,-125.754 1263.1,-123.461 1253.58,-118.804 1252.75,-125.754"/>
</g>
<!-- Node74 -->
<g id="node40" class="node"><title>Node74</title>
<g id="a_node40"><a xlink:href="_mp_system_config_8h.html" target="_top" xlink:title=" ">
<polygon fill="white" stroke="red" points="1001,-62 1001,-81 1148,-81 1148,-62 1001,-62"/>
<text text-anchor="middle" x="1074.5" y="-69" font-family="Helvetica,sans-Serif" font-size="10.00">Storm/Dm/MpSystemConfig.h</text>
</a>
</g>
</g>
<!-- Node28&#45;&gt;Node74 -->
<g id="edge46" class="edge"><title>Node28&#45;&gt;Node74</title>
<path fill="none" stroke="midnightblue" d="M1290.02,-121.258C1239,-109.716 1158.95,-91.6056 1112.11,-81.0091"/>
<polygon fill="midnightblue" stroke="midnightblue" points="1289.29,-124.682 1299.82,-123.475 1290.84,-117.855 1289.29,-124.682"/>
</g>
<!-- Node50&#45;&gt;Node52 -->
<g id="edge34" class="edge"><title>Node50&#45;&gt;Node52</title>
<path fill="none" stroke="midnightblue" d="M108.789,-53.5051C101.129,-42.388 91.4483,-28.3395 85.3634,-19.5091"/>
<polygon fill="midnightblue" stroke="midnightblue" points="106.07,-55.7267 114.626,-61.9751 111.834,-51.7548 106.07,-55.7267"/>
</g>
<!-- Node77&#45;&gt;Node10 -->
<g id="edge48" class="edge"><title>Node77&#45;&gt;Node10</title>
<path fill="none" stroke="midnightblue" d="M2359.73,-120.102C2382.15,-112.204 2410.83,-100.767 2434.5,-87 2453.64,-75.8671 2453.21,-64.8666 2473.5,-56 2545.65,-24.4689 2636.22,-14.5536 2697.41,-11.6792"/>
<polygon fill="midnightblue" stroke="midnightblue" points="2358.55,-116.809 2350.23,-123.372 2360.82,-123.428 2358.55,-116.809"/>
</g>
<!-- Node77&#45;&gt;Node26 -->
<g id="edge49" class="edge"><title>Node77&#45;&gt;Node26</title>
<path fill="none" stroke="midnightblue" d="M2365.57,-120.859C2403.12,-111.144 2457.77,-97.0055 2498.29,-86.523"/>
<polygon fill="midnightblue" stroke="midnightblue" points="2364.26,-117.582 2355.45,-123.475 2366.01,-124.359 2364.26,-117.582"/>
</g>
<!-- Node78&#45;&gt;Node7 -->
<g id="edge52" class="edge"><title>Node78&#45;&gt;Node7</title>
<path fill="none" stroke="midnightblue" d="M2857.98,-235.43C2840.44,-223.959 2816.23,-208.134 2801.51,-198.509"/>
<polygon fill="midnightblue" stroke="midnightblue" points="2856.18,-238.432 2866.46,-240.975 2860.01,-232.573 2856.18,-238.432"/>
</g>
<!-- Node78&#45;&gt;Node79 -->
<g id="edge53" class="edge"><title>Node78&#45;&gt;Node79</title>
<path fill="none" stroke="midnightblue" d="M2897.94,-234.473C2911.9,-223.093 2930.58,-207.869 2942.06,-198.509"/>
<polygon fill="midnightblue" stroke="midnightblue" points="2895.5,-231.944 2889.96,-240.975 2899.92,-237.37 2895.5,-231.944"/>
</g>
<!-- Node80 -->
<g id="node44" class="node"><title>Node80</title>
<g id="a_node44"><a xlink:href="_itc_2_periodic_scheduler_8h.html" target="_top" xlink:title=" ">
<polygon fill="white" stroke="black" points="3368,-123.5 3368,-142.5 3503,-142.5 3503,-123.5 3368,-123.5"/>
<text text-anchor="middle" x="3435.5" y="-130.5" font-family="Helvetica,sans-Serif" font-size="10.00">Cpl/Itc/PeriodicScheduler.h</text>
</a>
</g>
</g>
<!-- Node79&#45;&gt;Node80 -->
<g id="edge54" class="edge"><title>Node79&#45;&gt;Node80</title>
<path fill="none" stroke="midnightblue" d="M3022.08,-180.416C3102.95,-171.571 3240.42,-156.445 3358.5,-143 3361.58,-142.65 3364.72,-142.29 3367.9,-141.925"/>
<polygon fill="midnightblue" stroke="midnightblue" points="3021.58,-176.949 3012.02,-181.515 3022.34,-183.908 3021.58,-176.949"/>
</g>
</g>
</svg>
