<?xml version="1.0" encoding="UTF-8" standalone="no"?>
<!DOCTYPE svg PUBLIC "-//W3C//DTD SVG 1.1//EN"
 "http://www.w3.org/Graphics/SVG/1.1/DTD/svg11.dtd">
<!-- Generated by graphviz version 2.38.0 (20140413.2041)
 -->
<!-- Title: Cpl/Io/Serial/Renesas/Rx62n/InputOutput.h Pages: 1 -->
<svg width="929pt" height="453pt"
 viewBox="0.00 0.00 928.50 453.00" xmlns="http://www.w3.org/2000/svg" xmlns:xlink="http://www.w3.org/1999/xlink">
<g id="graph0" class="graph" transform="scale(1 1) rotate(0) translate(4 449)">
<title>Cpl/Io/Serial/Renesas/Rx62n/InputOutput.h</title>
<polygon fill="white" stroke="none" points="-4,4 -4,-449 924.5,-449 924.5,4 -4,4"/>
<!-- Node1 -->
<g id="node1" class="node"><title>Node1</title>
<g id="a_node1"><a xlink:title=" ">
<polygon fill="#bfbfbf" stroke="black" points="111,-414.5 111,-444.5 222,-444.5 222,-414.5 111,-414.5"/>
<text text-anchor="start" x="119" y="-432.5" font-family="Helvetica,sans-Serif" font-size="10.00">Cpl/Io/Serial/Renesas</text>
<text text-anchor="middle" x="166.5" y="-421.5" font-family="Helvetica,sans-Serif" font-size="10.00">/Rx62n/InputOutput.h</text>
</a>
</g>
</g>
<!-- Node2 -->
<g id="node2" class="node"><title>Node2</title>
<g id="a_node2"><a xlink:href="_driver_2_uart_2_stream_2_input_output___8h.html" target="_top" xlink:title=" ">
<polygon fill="white" stroke="black" points="179.5,-347.5 179.5,-377.5 277.5,-377.5 277.5,-347.5 179.5,-347.5"/>
<text text-anchor="start" x="187.5" y="-365.5" font-family="Helvetica,sans-Serif" font-size="10.00">Driver/Uart/Stream</text>
<text text-anchor="middle" x="228.5" y="-354.5" font-family="Helvetica,sans-Serif" font-size="10.00">/InputOutput_.h</text>
</a>
</g>
</g>
<!-- Node1&#45;&gt;Node2 -->
<g id="edge1" class="edge"><title>Node1&#45;&gt;Node2</title>
<path fill="none" stroke="midnightblue" d="M179.953,-414.396C188.159,-405.793 198.811,-394.626 208.045,-384.945"/>
<polygon fill="midnightblue" stroke="midnightblue" points="210.704,-387.228 215.073,-377.577 205.638,-382.397 210.704,-387.228"/>
</g>
<!-- Node27 -->
<g id="node27" class="node"><title>Node27</title>
<g id="a_node27"><a xlink:href="_cpl_2_io_2_serial_2_renesas_2_rx62n_2_hal_8h.html" target="_top" xlink:title="This file defines a hardware abstraction layer (HAL) for initializing the UARTs (SCIn) peripherals on...">
<polygon fill="white" stroke="black" points="49,-347.5 49,-377.5 160,-377.5 160,-347.5 49,-347.5"/>
<text text-anchor="start" x="57" y="-365.5" font-family="Helvetica,sans-Serif" font-size="10.00">Cpl/Io/Serial/Renesas</text>
<text text-anchor="middle" x="104.5" y="-354.5" font-family="Helvetica,sans-Serif" font-size="10.00">/Rx62n/Hal.h</text>
</a>
</g>
</g>
<!-- Node1&#45;&gt;Node27 -->
<g id="edge40" class="edge"><title>Node1&#45;&gt;Node27</title>
<path fill="none" stroke="midnightblue" d="M153.047,-414.396C144.841,-405.793 134.189,-394.626 124.955,-384.945"/>
<polygon fill="midnightblue" stroke="midnightblue" points="127.362,-382.397 117.927,-377.577 122.296,-387.228 127.362,-382.397"/>
</g>
<!-- Node3 -->
<g id="node3" class="node"><title>Node3</title>
<g id="a_node3"><a xlink:href="_input_output_8h.html" target="_top" xlink:title=" ">
<polygon fill="white" stroke="black" points="652.5,-286 652.5,-305 756.5,-305 756.5,-286 652.5,-286"/>
<text text-anchor="middle" x="704.5" y="-293" font-family="Helvetica,sans-Serif" font-size="10.00">Cpl/Io/InputOutput.h</text>
</a>
</g>
</g>
<!-- Node2&#45;&gt;Node3 -->
<g id="edge2" class="edge"><title>Node2&#45;&gt;Node3</title>
<path fill="none" stroke="midnightblue" d="M277.648,-354.789C364.852,-342.881 546.461,-318.081 642.257,-305"/>
<polygon fill="midnightblue" stroke="midnightblue" points="642.943,-308.438 652.378,-303.618 641.996,-301.503 642.943,-308.438"/>
</g>
<!-- Node18 -->
<g id="node18" class="node"><title>Node18</title>
<g id="a_node18"><a xlink:href="_transmitter_8h.html" target="_top" xlink:title=" ">
<polygon fill="white" stroke="black" points="237.5,-280.5 237.5,-310.5 335.5,-310.5 335.5,-280.5 237.5,-280.5"/>
<text text-anchor="start" x="245.5" y="-298.5" font-family="Helvetica,sans-Serif" font-size="10.00">Driver/Uart/Stream</text>
<text text-anchor="middle" x="286.5" y="-287.5" font-family="Helvetica,sans-Serif" font-size="10.00">/Transmitter.h</text>
</a>
</g>
</g>
<!-- Node2&#45;&gt;Node18 -->
<g id="edge23" class="edge"><title>Node2&#45;&gt;Node18</title>
<path fill="none" stroke="midnightblue" d="M241.085,-347.396C248.686,-338.878 258.529,-327.847 267.108,-318.233"/>
<polygon fill="midnightblue" stroke="midnightblue" points="269.893,-320.368 273.939,-310.577 264.67,-315.708 269.893,-320.368"/>
</g>
<!-- Node26 -->
<g id="node26" class="node"><title>Node26</title>
<g id="a_node26"><a xlink:href="_receiver_8h.html" target="_top" xlink:title=" ">
<polygon fill="white" stroke="black" points="121.5,-280.5 121.5,-310.5 219.5,-310.5 219.5,-280.5 121.5,-280.5"/>
<text text-anchor="start" x="129.5" y="-298.5" font-family="Helvetica,sans-Serif" font-size="10.00">Driver/Uart/Stream</text>
<text text-anchor="middle" x="170.5" y="-287.5" font-family="Helvetica,sans-Serif" font-size="10.00">/Receiver.h</text>
</a>
</g>
</g>
<!-- Node2&#45;&gt;Node26 -->
<g id="edge36" class="edge"><title>Node2&#45;&gt;Node26</title>
<path fill="none" stroke="midnightblue" d="M215.915,-347.396C208.314,-338.878 198.471,-327.847 189.892,-318.233"/>
<polygon fill="midnightblue" stroke="midnightblue" points="192.33,-315.708 183.061,-310.577 187.107,-320.368 192.33,-315.708"/>
</g>
<!-- Node4 -->
<g id="node4" class="node"><title>Node4</title>
<g id="a_node4"><a xlink:href="_input_8h.html" target="_top" xlink:title=" ">
<polygon fill="white" stroke="black" points="667,-224.5 667,-243.5 742,-243.5 742,-224.5 667,-224.5"/>
<text text-anchor="middle" x="704.5" y="-231.5" font-family="Helvetica,sans-Serif" font-size="10.00">Cpl/Io/Input.h</text>
</a>
</g>
</g>
<!-- Node3&#45;&gt;Node4 -->
<g id="edge3" class="edge"><title>Node3&#45;&gt;Node4</title>
<path fill="none" stroke="midnightblue" d="M704.5,-285.975C704.5,-277.58 704.5,-264.481 704.5,-253.663"/>
<polygon fill="midnightblue" stroke="midnightblue" points="708,-253.509 704.5,-243.509 701,-253.509 708,-253.509"/>
</g>
<!-- Node17 -->
<g id="node17" class="node"><title>Node17</title>
<g id="a_node17"><a xlink:href="_output_8h.html" target="_top" xlink:title=" ">
<polygon fill="white" stroke="black" points="760,-224.5 760,-243.5 843,-243.5 843,-224.5 760,-224.5"/>
<text text-anchor="middle" x="801.5" y="-231.5" font-family="Helvetica,sans-Serif" font-size="10.00">Cpl/Io/Output.h</text>
</a>
</g>
</g>
<!-- Node3&#45;&gt;Node17 -->
<g id="edge18" class="edge"><title>Node3&#45;&gt;Node17</title>
<path fill="none" stroke="midnightblue" d="M718.398,-285.975C734.172,-276.299 760.137,-260.372 778.849,-248.894"/>
<polygon fill="midnightblue" stroke="midnightblue" points="780.934,-251.721 787.628,-243.509 777.274,-245.754 780.934,-251.721"/>
</g>
<!-- Node5 -->
<g id="node5" class="node"><title>Node5</title>
<g id="a_node5"><a xlink:href="_string_8h.html" target="_top" xlink:title=" ">
<polygon fill="white" stroke="black" points="708.5,-168.5 708.5,-187.5 798.5,-187.5 798.5,-168.5 708.5,-168.5"/>
<text text-anchor="middle" x="753.5" y="-175.5" font-family="Helvetica,sans-Serif" font-size="10.00">Cpl/Text/String.h</text>
</a>
</g>
</g>
<!-- Node4&#45;&gt;Node5 -->
<g id="edge4" class="edge"><title>Node4&#45;&gt;Node5</title>
<path fill="none" stroke="midnightblue" d="M712.591,-224.083C719.655,-216.298 730.088,-204.801 738.649,-195.367"/>
<polygon fill="midnightblue" stroke="midnightblue" points="741.431,-197.509 745.559,-187.751 736.247,-192.805 741.431,-197.509"/>
</g>
<!-- Node14 -->
<g id="node14" class="node"><title>Node14</title>
<g id="a_node14"><a xlink:href="_close_8h.html" target="_top" xlink:title=" ">
<polygon fill="white" stroke="black" points="612.5,-168.5 612.5,-187.5 690.5,-187.5 690.5,-168.5 612.5,-168.5"/>
<text text-anchor="middle" x="651.5" y="-175.5" font-family="Helvetica,sans-Serif" font-size="10.00">Cpl/Io/Close.h</text>
</a>
</g>
</g>
<!-- Node4&#45;&gt;Node14 -->
<g id="edge15" class="edge"><title>Node4&#45;&gt;Node14</title>
<path fill="none" stroke="midnightblue" d="M695.748,-224.083C688.03,-216.22 676.595,-204.569 667.283,-195.081"/>
<polygon fill="midnightblue" stroke="midnightblue" points="669.592,-192.436 660.089,-187.751 664.596,-197.34 669.592,-192.436"/>
</g>
<!-- Node16 -->
<g id="node16" class="node"><title>Node16</title>
<g id="a_node16"><a xlink:href="_is_eos_8h.html" target="_top" xlink:title=" ">
<polygon fill="white" stroke="black" points="817,-168.5 817,-187.5 896,-187.5 896,-168.5 817,-168.5"/>
<text text-anchor="middle" x="856.5" y="-175.5" font-family="Helvetica,sans-Serif" font-size="10.00">Cpl/Io/IsEos.h</text>
</a>
</g>
</g>
<!-- Node4&#45;&gt;Node16 -->
<g id="edge17" class="edge"><title>Node4&#45;&gt;Node16</title>
<path fill="none" stroke="midnightblue" d="M728.585,-224.444C754.045,-215.399 794.394,-201.064 822.959,-190.916"/>
<polygon fill="midnightblue" stroke="midnightblue" points="824.277,-194.162 832.528,-187.516 821.933,-187.566 824.277,-194.162"/>
</g>
<!-- Node6 -->
<g id="node6" class="node"><title>Node6</title>
<g id="a_node6"><a xlink:title=" ">
<polygon fill="white" stroke="#bfbfbf" points="457,-56.5 457,-75.5 534,-75.5 534,-56.5 457,-56.5"/>
<text text-anchor="middle" x="495.5" y="-63.5" font-family="Helvetica,sans-Serif" font-size="10.00">colony_map.h</text>
</a>
</g>
</g>
<!-- Node5&#45;&gt;Node6 -->
<g id="edge5" class="edge"><title>Node5&#45;&gt;Node6</title>
<path fill="none" stroke="midnightblue" d="M751.653,-168.27C748.175,-154.096 739.251,-126.231 720.5,-112 693.334,-91.3826 601.858,-78.2143 544.248,-71.7536"/>
<polygon fill="midnightblue" stroke="midnightblue" points="544.58,-68.2691 534.259,-70.6622 543.819,-75.2276 544.58,-68.2691"/>
</g>
<!-- Node7 -->
<g id="node7" class="node"><title>Node7</title>
<g id="a_node7"><a xlink:href="_key_8h.html" target="_top" xlink:title=" ">
<polygon fill="white" stroke="black" points="607.5,-112.5 607.5,-131.5 711.5,-131.5 711.5,-112.5 607.5,-112.5"/>
<text text-anchor="middle" x="659.5" y="-119.5" font-family="Helvetica,sans-Serif" font-size="10.00">Cpl/Container/Key.h</text>
</a>
</g>
</g>
<!-- Node5&#45;&gt;Node7 -->
<g id="edge6" class="edge"><title>Node5&#45;&gt;Node7</title>
<path fill="none" stroke="midnightblue" d="M733.282,-168.324C716.795,-159.9 693.99,-146.971 677.99,-137.074"/>
<polygon fill="midnightblue" stroke="midnightblue" points="679.773,-134.06 669.455,-131.655 676.021,-139.97 679.773,-134.06"/>
</g>
<!-- Node12 -->
<g id="node12" class="node"><title>Node12</title>
<g id="a_node12"><a xlink:title=" ">
<polygon fill="white" stroke="#bfbfbf" points="868.5,-112.5 868.5,-131.5 920.5,-131.5 920.5,-112.5 868.5,-112.5"/>
<text text-anchor="middle" x="894.5" y="-119.5" font-family="Helvetica,sans-Serif" font-size="10.00">stdarg.h</text>
</a>
</g>
</g>
<!-- Node5&#45;&gt;Node12 -->
<g id="edge13" class="edge"><title>Node5&#45;&gt;Node12</title>
<path fill="none" stroke="midnightblue" d="M775.842,-168.444C799.253,-159.478 836.236,-145.314 862.69,-135.183"/>
<polygon fill="midnightblue" stroke="midnightblue" points="864.176,-138.361 872.263,-131.516 861.672,-131.824 864.176,-138.361"/>
</g>
<!-- Node13 -->
<g id="node13" class="node"><title>Node13</title>
<g id="a_node13"><a xlink:title=" ">
<polygon fill="white" stroke="#bfbfbf" points="767.5,-112.5 767.5,-131.5 821.5,-131.5 821.5,-112.5 767.5,-112.5"/>
<text text-anchor="middle" x="794.5" y="-119.5" font-family="Helvetica,sans-Serif" font-size="10.00">iostream</text>
</a>
</g>
</g>
<!-- Node5&#45;&gt;Node13 -->
<g id="edge14" class="edge"><title>Node5&#45;&gt;Node13</title>
<path fill="none" stroke="midnightblue" d="M760.27,-168.083C766.062,-160.455 774.558,-149.264 781.638,-139.941"/>
<polygon fill="midnightblue" stroke="midnightblue" points="784.596,-141.832 787.856,-131.751 779.021,-137.599 784.596,-141.832"/>
</g>
<!-- Node7&#45;&gt;Node5 -->
<g id="edge11" class="edge"><title>Node7&#45;&gt;Node5</title>
<path fill="none" stroke="midnightblue" d="M679.675,-131.655C696.152,-140.071 718.957,-152.999 734.969,-162.901"/>
<polygon fill="midnightblue" stroke="midnightblue" points="733.194,-165.919 743.512,-168.324 736.945,-160.01 733.194,-165.919"/>
</g>
<!-- Node7&#45;&gt;Node6 -->
<g id="edge12" class="edge"><title>Node7&#45;&gt;Node6</title>
<path fill="none" stroke="midnightblue" d="M633.514,-112.444C605.804,-103.32 561.748,-88.8133 530.884,-78.6509"/>
<polygon fill="midnightblue" stroke="midnightblue" points="531.958,-75.3196 521.365,-75.5164 529.768,-81.9684 531.958,-75.3196"/>
</g>
<!-- Node8 -->
<g id="node8" class="node"><title>Node8</title>
<g id="a_node8"><a xlink:href="_fatal_error_8h.html" target="_top" xlink:title=" ">
<polygon fill="white" stroke="black" points="598.5,-56.5 598.5,-75.5 720.5,-75.5 720.5,-56.5 598.5,-56.5"/>
<text text-anchor="middle" x="659.5" y="-63.5" font-family="Helvetica,sans-Serif" font-size="10.00">Cpl/System/FatalError.h</text>
</a>
</g>
</g>
<!-- Node7&#45;&gt;Node8 -->
<g id="edge7" class="edge"><title>Node7&#45;&gt;Node8</title>
<path fill="none" stroke="midnightblue" d="M659.5,-112.083C659.5,-105.006 659.5,-94.8611 659.5,-85.9865"/>
<polygon fill="midnightblue" stroke="midnightblue" points="663,-85.751 659.5,-75.7511 656,-85.7511 663,-85.751"/>
</g>
<!-- Node11 -->
<g id="node11" class="node"><title>Node11</title>
<g id="a_node11"><a xlink:title=" ">
<polygon fill="white" stroke="#bfbfbf" points="58,-56.5 58,-75.5 107,-75.5 107,-56.5 58,-56.5"/>
<text text-anchor="middle" x="82.5" y="-63.5" font-family="Helvetica,sans-Serif" font-size="10.00">stdint.h</text>
</a>
</g>
</g>
<!-- Node7&#45;&gt;Node11 -->
<g id="edge10" class="edge"><title>Node7&#45;&gt;Node11</title>
<path fill="none" stroke="midnightblue" d="M607.284,-113.087C604.314,-112.702 601.371,-112.337 598.5,-112 417.966,-90.8288 200.818,-75.0349 117.437,-69.3262"/>
<polygon fill="midnightblue" stroke="midnightblue" points="117.472,-65.8206 107.258,-68.634 116.997,-72.8045 117.472,-65.8206"/>
</g>
<!-- Node9 -->
<g id="node9" class="node"><title>Node9</title>
<g id="a_node9"><a xlink:title=" ">
<polygon fill="white" stroke="#bfbfbf" points="590.5,-0.5 590.5,-19.5 642.5,-19.5 642.5,-0.5 590.5,-0.5"/>
<text text-anchor="middle" x="616.5" y="-7.5" font-family="Helvetica,sans-Serif" font-size="10.00">stddef.h</text>
</a>
</g>
</g>
<!-- Node8&#45;&gt;Node9 -->
<g id="edge8" class="edge"><title>Node8&#45;&gt;Node9</title>
<path fill="none" stroke="midnightblue" d="M652.399,-56.083C646.263,-48.3768 637.23,-37.0333 629.761,-27.6531"/>
<polygon fill="midnightblue" stroke="midnightblue" points="632.436,-25.3936 623.468,-19.7511 626.96,-29.7542 632.436,-25.3936"/>
</g>
<!-- Node10 -->
<g id="node10" class="node"><title>Node10</title>
<g id="a_node10"><a xlink:title=" ">
<polygon fill="white" stroke="#bfbfbf" points="661,-0.5 661,-19.5 746,-19.5 746,-0.5 661,-0.5"/>
<text text-anchor="middle" x="703.5" y="-7.5" font-family="Helvetica,sans-Serif" font-size="10.00">colony_config.h</text>
</a>
</g>
</g>
<!-- Node8&#45;&gt;Node10 -->
<g id="edge9" class="edge"><title>Node8&#45;&gt;Node10</title>
<path fill="none" stroke="midnightblue" d="M666.766,-56.083C673.045,-48.3768 682.288,-37.0333 689.931,-27.6531"/>
<polygon fill="midnightblue" stroke="midnightblue" points="692.766,-29.7143 696.369,-19.7511 687.339,-25.2926 692.766,-29.7143"/>
</g>
<!-- Node15 -->
<g id="node15" class="node"><title>Node15</title>
<g id="a_node15"><a xlink:href="_item_8h.html" target="_top" xlink:title=" ">
<polygon fill="white" stroke="black" points="483.5,-112.5 483.5,-131.5 589.5,-131.5 589.5,-112.5 483.5,-112.5"/>
<text text-anchor="middle" x="536.5" y="-119.5" font-family="Helvetica,sans-Serif" font-size="10.00">Cpl/Container/Item.h</text>
</a>
</g>
</g>
<!-- Node14&#45;&gt;Node15 -->
<g id="edge16" class="edge"><title>Node14&#45;&gt;Node15</title>
<path fill="none" stroke="midnightblue" d="M633.278,-168.444C614.604,-159.675 585.344,-145.935 563.883,-135.858"/>
<polygon fill="midnightblue" stroke="midnightblue" points="565.176,-132.599 554.637,-131.516 562.201,-138.935 565.176,-132.599"/>
</g>
<!-- Node17&#45;&gt;Node5 -->
<g id="edge19" class="edge"><title>Node17&#45;&gt;Node5</title>
<path fill="none" stroke="midnightblue" d="M793.574,-224.083C786.654,-216.298 776.435,-204.801 768.048,-195.367"/>
<polygon fill="midnightblue" stroke="midnightblue" points="770.538,-192.9 761.279,-187.751 765.306,-197.55 770.538,-192.9"/>
</g>
<!-- Node17&#45;&gt;Node12 -->
<g id="edge22" class="edge"><title>Node17&#45;&gt;Node12</title>
<path fill="none" stroke="midnightblue" d="M843.131,-226.285C865.674,-220.297 891.674,-209.047 905.5,-188 914.614,-174.127 909.87,-155.11 904.046,-141.231"/>
<polygon fill="midnightblue" stroke="midnightblue" points="907.024,-139.341 899.593,-131.79 900.693,-142.327 907.024,-139.341"/>
</g>
<!-- Node17&#45;&gt;Node14 -->
<g id="edge20" class="edge"><title>Node17&#45;&gt;Node14</title>
<path fill="none" stroke="midnightblue" d="M777.732,-224.444C752.607,-215.399 712.789,-201.064 684.6,-190.916"/>
<polygon fill="midnightblue" stroke="midnightblue" points="685.751,-187.611 675.157,-187.516 683.38,-194.197 685.751,-187.611"/>
</g>
<!-- Node17&#45;&gt;Node16 -->
<g id="edge21" class="edge"><title>Node17&#45;&gt;Node16</title>
<path fill="none" stroke="midnightblue" d="M810.582,-224.083C818.671,-216.141 830.695,-204.335 840.41,-194.797"/>
<polygon fill="midnightblue" stroke="midnightblue" points="842.903,-197.254 847.587,-187.751 837.999,-192.26 842.903,-197.254"/>
</g>
<!-- Node19 -->
<g id="node19" class="node"><title>Node19</title>
<g id="a_node19"><a xlink:href="_driver_2_uart_2_hal_8h.html" target="_top" xlink:title="This file defines a hardware abstraction layer (HAL) for accessing a hardware register based UART.">
<polygon fill="white" stroke="black" points="0,-224.5 0,-243.5 89,-243.5 89,-224.5 0,-224.5"/>
<text text-anchor="middle" x="44.5" y="-231.5" font-family="Helvetica,sans-Serif" font-size="10.00">Driver/Uart/Hal.h</text>
</a>
</g>
</g>
<!-- Node18&#45;&gt;Node19 -->
<g id="edge24" class="edge"><title>Node18&#45;&gt;Node19</title>
<path fill="none" stroke="midnightblue" d="M237.457,-282.22C234.426,-281.467 231.422,-280.723 228.5,-280 181.227,-268.31 127.079,-255.088 89.8266,-246.017"/>
<polygon fill="midnightblue" stroke="midnightblue" points="90.3313,-242.538 79.7872,-243.573 88.6757,-249.339 90.3313,-242.538"/>
</g>
<!-- Node20 -->
<g id="node20" class="node"><title>Node20</title>
<g id="a_node20"><a xlink:href="_ring_buffer_8h.html" target="_top" xlink:title=" ">
<polygon fill="white" stroke="black" points="107.5,-224.5 107.5,-243.5 239.5,-243.5 239.5,-224.5 107.5,-224.5"/>
<text text-anchor="middle" x="173.5" y="-231.5" font-family="Helvetica,sans-Serif" font-size="10.00">Cpl/Container/RingBuffer.h</text>
</a>
</g>
</g>
<!-- Node18&#45;&gt;Node20 -->
<g id="edge27" class="edge"><title>Node18&#45;&gt;Node20</title>
<path fill="none" stroke="midnightblue" d="M259.721,-280.399C241.438,-270.773 217.352,-258.09 199.285,-248.577"/>
<polygon fill="midnightblue" stroke="midnightblue" points="200.422,-245.22 189.943,-243.658 197.16,-251.414 200.422,-245.22"/>
</g>
<!-- Node21 -->
<g id="node21" class="node"><title>Node21</title>
<g id="a_node21"><a xlink:href="_thread_8h.html" target="_top" xlink:title=" ">
<polygon fill="white" stroke="black" points="258,-224.5 258,-243.5 367,-243.5 367,-224.5 258,-224.5"/>
<text text-anchor="middle" x="312.5" y="-231.5" font-family="Helvetica,sans-Serif" font-size="10.00">Cpl/System/Thread.h</text>
</a>
</g>
</g>
<!-- Node18&#45;&gt;Node21 -->
<g id="edge29" class="edge"><title>Node18&#45;&gt;Node21</title>
<path fill="none" stroke="midnightblue" d="M292.662,-280.399C296.245,-272.199 300.797,-261.781 304.637,-252.994"/>
<polygon fill="midnightblue" stroke="midnightblue" points="307.92,-254.223 308.717,-243.658 301.505,-251.42 307.92,-254.223"/>
</g>
<!-- Node19&#45;&gt;Node6 -->
<g id="edge26" class="edge"><title>Node19&#45;&gt;Node6</title>
<path fill="none" stroke="midnightblue" d="M49.6193,-224.356C58.4018,-210.305 77.7135,-182.613 101.5,-168 212.633,-99.7248 368.507,-77.3938 446.706,-70.2511"/>
<polygon fill="midnightblue" stroke="midnightblue" points="447.098,-73.7303 456.758,-69.3781 446.492,-66.7565 447.098,-73.7303"/>
</g>
<!-- Node19&#45;&gt;Node11 -->
<g id="edge25" class="edge"><title>Node19&#45;&gt;Node11</title>
<path fill="none" stroke="midnightblue" d="M40.5236,-224.306C31.7251,-203.727 12.7422,-150.851 30.5,-112 36.2773,-99.3602 47.5523,-88.911 58.1306,-81.2737"/>
<polygon fill="midnightblue" stroke="midnightblue" points="60.3488,-84.0009 66.7167,-75.5333 56.4582,-78.1817 60.3488,-84.0009"/>
</g>
<!-- Node20&#45;&gt;Node11 -->
<g id="edge28" class="edge"><title>Node20&#45;&gt;Node11</title>
<path fill="none" stroke="midnightblue" d="M149.903,-224.413C133.637,-217.23 112.959,-205.34 101.5,-188 80.8612,-156.77 79.6226,-111.274 80.8624,-85.8997"/>
<polygon fill="midnightblue" stroke="midnightblue" points="84.3639,-85.9938 81.5456,-75.7807 77.3798,-85.5221 84.3639,-85.9938"/>
</g>
<!-- Node21&#45;&gt;Node6 -->
<g id="edge30" class="edge"><title>Node21&#45;&gt;Node6</title>
<path fill="none" stroke="midnightblue" d="M356.386,-224.451C380.781,-217.866 410.382,-206.631 431.5,-188 440.023,-180.481 471.545,-116.634 486.935,-84.8406"/>
<polygon fill="midnightblue" stroke="midnightblue" points="490.124,-86.2839 491.315,-75.7562 483.819,-83.2436 490.124,-86.2839"/>
</g>
<!-- Node22 -->
<g id="node22" class="node"><title>Node22</title>
<g id="a_node22"><a xlink:href="_runnable_8h.html" target="_top" xlink:title=" ">
<polygon fill="white" stroke="black" points="111,-168.5 111,-187.5 230,-187.5 230,-168.5 111,-168.5"/>
<text text-anchor="middle" x="170.5" y="-175.5" font-family="Helvetica,sans-Serif" font-size="10.00">Cpl/System/Runnable.h</text>
</a>
</g>
</g>
<!-- Node21&#45;&gt;Node22 -->
<g id="edge31" class="edge"><title>Node21&#45;&gt;Node22</title>
<path fill="none" stroke="midnightblue" d="M290,-224.444C266.423,-215.478 229.178,-201.314 202.536,-191.183"/>
<polygon fill="midnightblue" stroke="midnightblue" points="203.486,-187.8 192.895,-187.516 200.998,-194.342 203.486,-187.8"/>
</g>
<!-- Node23 -->
<g id="node23" class="node"><title>Node23</title>
<g id="a_node23"><a xlink:href="_signable_8h.html" target="_top" xlink:title=" ">
<polygon fill="white" stroke="black" points="478.5,-168.5 478.5,-187.5 594.5,-187.5 594.5,-168.5 478.5,-168.5"/>
<text text-anchor="middle" x="536.5" y="-175.5" font-family="Helvetica,sans-Serif" font-size="10.00">Cpl/System/Signable.h</text>
</a>
</g>
</g>
<!-- Node21&#45;&gt;Node23 -->
<g id="edge32" class="edge"><title>Node21&#45;&gt;Node23</title>
<path fill="none" stroke="midnightblue" d="M347.993,-224.444C386.824,-215.083 449.156,-200.056 491.418,-189.868"/>
<polygon fill="midnightblue" stroke="midnightblue" points="492.271,-193.263 501.173,-187.516 490.631,-186.458 492.271,-193.263"/>
</g>
<!-- Node24 -->
<g id="node24" class="node"><title>Node24</title>
<g id="a_node24"><a xlink:href="_traverser_8h.html" target="_top" xlink:title=" ">
<polygon fill="white" stroke="black" points="248.5,-168.5 248.5,-187.5 356.5,-187.5 356.5,-168.5 248.5,-168.5"/>
<text text-anchor="middle" x="302.5" y="-175.5" font-family="Helvetica,sans-Serif" font-size="10.00">Cpl/Type/Traverser.h</text>
</a>
</g>
</g>
<!-- Node21&#45;&gt;Node24 -->
<g id="edge34" class="edge"><title>Node21&#45;&gt;Node24</title>
<path fill="none" stroke="midnightblue" d="M310.849,-224.083C309.524,-216.927 307.618,-206.635 305.961,-197.691"/>
<polygon fill="midnightblue" stroke="midnightblue" points="309.383,-196.947 304.121,-187.751 302.5,-198.221 309.383,-196.947"/>
</g>
<!-- Node25 -->
<g id="node25" class="node"><title>Node25</title>
<g id="a_node25"><a xlink:title=" ">
<polygon fill="white" stroke="#bfbfbf" points="374.5,-168.5 374.5,-187.5 422.5,-187.5 422.5,-168.5 374.5,-168.5"/>
<text text-anchor="middle" x="398.5" y="-175.5" font-family="Helvetica,sans-Serif" font-size="10.00">stdlib.h</text>
</a>
</g>
</g>
<!-- Node21&#45;&gt;Node25 -->
<g id="edge35" class="edge"><title>Node21&#45;&gt;Node25</title>
<path fill="none" stroke="midnightblue" d="M326.317,-224.324C339.733,-215.9 360.324,-202.971 376.086,-193.074"/>
<polygon fill="midnightblue" stroke="midnightblue" points="378.109,-195.936 384.717,-187.655 374.387,-190.008 378.109,-195.936"/>
</g>
<!-- Node23&#45;&gt;Node15 -->
<g id="edge33" class="edge"><title>Node23&#45;&gt;Node15</title>
<path fill="none" stroke="midnightblue" d="M536.5,-168.083C536.5,-161.006 536.5,-150.861 536.5,-141.986"/>
<polygon fill="midnightblue" stroke="midnightblue" points="540,-141.751 536.5,-131.751 533,-141.751 540,-141.751"/>
</g>
<!-- Node26&#45;&gt;Node19 -->
<g id="edge37" class="edge"><title>Node26&#45;&gt;Node19</title>
<path fill="none" stroke="midnightblue" d="M140.64,-280.399C119.877,-270.595 92.3999,-257.619 72.1394,-248.052"/>
<polygon fill="midnightblue" stroke="midnightblue" points="73.3712,-244.763 62.8341,-243.658 70.3821,-251.093 73.3712,-244.763"/>
</g>
<!-- Node26&#45;&gt;Node20 -->
<g id="edge38" class="edge"><title>Node26&#45;&gt;Node20</title>
<path fill="none" stroke="midnightblue" d="M171.211,-280.399C171.611,-272.466 172.116,-262.458 172.549,-253.858"/>
<polygon fill="midnightblue" stroke="midnightblue" points="176.055,-253.821 173.063,-243.658 169.064,-253.469 176.055,-253.821"/>
</g>
<!-- Node26&#45;&gt;Node21 -->
<g id="edge39" class="edge"><title>Node26&#45;&gt;Node21</title>
<path fill="none" stroke="midnightblue" d="M204.152,-280.399C227.977,-270.416 259.646,-257.147 282.588,-247.534"/>
<polygon fill="midnightblue" stroke="midnightblue" points="283.967,-250.751 291.838,-243.658 281.262,-244.294 283.967,-250.751"/>
</g>
<!-- Node27&#45;&gt;Node19 -->
<g id="edge41" class="edge"><title>Node27&#45;&gt;Node19</title>
<path fill="none" stroke="midnightblue" d="M97.8497,-347.479C86.9086,-324.411 65.1237,-278.482 53.0515,-253.029"/>
<polygon fill="midnightblue" stroke="midnightblue" points="56.1163,-251.324 48.6685,-243.789 49.7917,-254.324 56.1163,-251.324"/>
</g>
</g>
</svg>
