<?xml version="1.0" encoding="UTF-8" standalone="no"?>
<!DOCTYPE svg PUBLIC "-//W3C//DTD SVG 1.1//EN"
 "http://www.w3.org/Graphics/SVG/1.1/DTD/svg11.dtd">
<!-- Generated by graphviz version 2.38.0 (20140413.2041)
 -->
<!-- Title: Cpl/Io/Serial/RP2040/Uart/InputOutput.h Pages: 1 -->
<svg width="592pt" height="375pt"
 viewBox="0.00 0.00 592.00 375.00" xmlns="http://www.w3.org/2000/svg" xmlns:xlink="http://www.w3.org/1999/xlink">
<g id="graph0" class="graph" transform="scale(1 1) rotate(0) translate(4 371)">
<title>Cpl/Io/Serial/RP2040/Uart/InputOutput.h</title>
<polygon fill="white" stroke="none" points="-4,4 -4,-371 588,-371 588,4 -4,4"/>
<!-- Node1 -->
<g id="node1" class="node"><title>Node1</title>
<g id="a_node1"><a xlink:title=" ">
<polygon fill="#bfbfbf" stroke="black" points="366,-336.5 366,-366.5 473,-366.5 473,-336.5 366,-336.5"/>
<text text-anchor="start" x="374" y="-354.5" font-family="Helvetica,sans-Serif" font-size="10.00">Cpl/Io/Serial/RP2040</text>
<text text-anchor="middle" x="419.5" y="-343.5" font-family="Helvetica,sans-Serif" font-size="10.00">/Uart/InputOutput.h</text>
</a>
</g>
</g>
<!-- Node2 -->
<g id="node2" class="node"><title>Node2</title>
<g id="a_node2"><a xlink:href="_input_output_8h.html" target="_top" xlink:title=" ">
<polygon fill="white" stroke="black" points="315.5,-280.5 315.5,-299.5 419.5,-299.5 419.5,-280.5 315.5,-280.5"/>
<text text-anchor="middle" x="367.5" y="-287.5" font-family="Helvetica,sans-Serif" font-size="10.00">Cpl/Io/InputOutput.h</text>
</a>
</g>
</g>
<!-- Node1&#45;&gt;Node2 -->
<g id="edge1" class="edge"><title>Node1&#45;&gt;Node2</title>
<path fill="none" stroke="midnightblue" d="M407.177,-336.399C399.543,-327.664 389.709,-316.413 381.742,-307.296"/>
<polygon fill="midnightblue" stroke="midnightblue" points="384.282,-304.884 375.066,-299.658 379.012,-309.491 384.282,-304.884"/>
</g>
<!-- Node10 -->
<g id="node10" class="node"><title>Node10</title>
<g id="a_node10"><a xlink:title=" ">
<polygon fill="white" stroke="#bfbfbf" points="0,-56.5 0,-75.5 49,-75.5 49,-56.5 0,-56.5"/>
<text text-anchor="middle" x="24.5" y="-63.5" font-family="Helvetica,sans-Serif" font-size="10.00">stdint.h</text>
</a>
</g>
</g>
<!-- Node1&#45;&gt;Node10 -->
<g id="edge26" class="edge"><title>Node1&#45;&gt;Node10</title>
<path fill="none" stroke="midnightblue" d="M365.817,-346.098C257.817,-335.758 24.5,-305.287 24.5,-235 24.5,-235 24.5,-235 24.5,-177 24.5,-144.948 24.5,-107.643 24.5,-85.7489"/>
<polygon fill="midnightblue" stroke="midnightblue" points="28.0001,-85.5577 24.5,-75.5578 21.0001,-85.5578 28.0001,-85.5577"/>
</g>
<!-- Node17 -->
<g id="node17" class="node"><title>Node17</title>
<g id="a_node17"><a xlink:href="_bsp_2_api_8h.html" target="_top" xlink:title="This file defines the common/generic interfaces that all Colony.">
<polygon fill="white" stroke="black" points="479,-112.5 479,-131.5 538,-131.5 538,-112.5 479,-112.5"/>
<text text-anchor="middle" x="508.5" y="-119.5" font-family="Helvetica,sans-Serif" font-size="10.00">Bsp/Api.h</text>
</a>
</g>
</g>
<!-- Node1&#45;&gt;Node17 -->
<g id="edge22" class="edge"><title>Node1&#45;&gt;Node17</title>
<path fill="none" stroke="midnightblue" d="M425.067,-336.269C440.536,-296.728 484.031,-185.548 501.301,-141.402"/>
<polygon fill="midnightblue" stroke="midnightblue" points="504.624,-142.515 505.008,-131.927 498.105,-139.965 504.624,-142.515"/>
</g>
<!-- Node18 -->
<g id="node18" class="node"><title>Node18</title>
<g id="a_node18"><a xlink:title=" ">
<polygon fill="white" stroke="#bfbfbf" points="501,-280.5 501,-299.5 584,-299.5 584,-280.5 501,-280.5"/>
<text text-anchor="middle" x="542.5" y="-287.5" font-family="Helvetica,sans-Serif" font-size="10.00">hardware/uart.h</text>
</a>
</g>
</g>
<!-- Node1&#45;&gt;Node18 -->
<g id="edge25" class="edge"><title>Node1&#45;&gt;Node18</title>
<path fill="none" stroke="midnightblue" d="M448.649,-336.399C468.918,-326.595 495.741,-313.619 515.519,-304.052"/>
<polygon fill="midnightblue" stroke="midnightblue" points="517.124,-307.163 524.602,-299.658 514.076,-300.862 517.124,-307.163"/>
</g>
<!-- Node3 -->
<g id="node3" class="node"><title>Node3</title>
<g id="a_node3"><a xlink:href="_input_8h.html" target="_top" xlink:title=" ">
<polygon fill="white" stroke="black" points="233,-224.5 233,-243.5 308,-243.5 308,-224.5 233,-224.5"/>
<text text-anchor="middle" x="270.5" y="-231.5" font-family="Helvetica,sans-Serif" font-size="10.00">Cpl/Io/Input.h</text>
</a>
</g>
</g>
<!-- Node2&#45;&gt;Node3 -->
<g id="edge2" class="edge"><title>Node2&#45;&gt;Node3</title>
<path fill="none" stroke="midnightblue" d="M351.915,-280.324C336.501,-271.743 312.688,-258.486 294.79,-248.522"/>
<polygon fill="midnightblue" stroke="midnightblue" points="296.486,-245.461 286.046,-243.655 293.081,-251.577 296.486,-245.461"/>
</g>
<!-- Node16 -->
<g id="node16" class="node"><title>Node16</title>
<g id="a_node16"><a xlink:href="_output_8h.html" target="_top" xlink:title=" ">
<polygon fill="white" stroke="black" points="326,-224.5 326,-243.5 409,-243.5 409,-224.5 326,-224.5"/>
<text text-anchor="middle" x="367.5" y="-231.5" font-family="Helvetica,sans-Serif" font-size="10.00">Cpl/Io/Output.h</text>
</a>
</g>
</g>
<!-- Node2&#45;&gt;Node16 -->
<g id="edge17" class="edge"><title>Node2&#45;&gt;Node16</title>
<path fill="none" stroke="midnightblue" d="M367.5,-280.083C367.5,-273.006 367.5,-262.861 367.5,-253.986"/>
<polygon fill="midnightblue" stroke="midnightblue" points="371,-253.751 367.5,-243.751 364,-253.751 371,-253.751"/>
</g>
<!-- Node4 -->
<g id="node4" class="node"><title>Node4</title>
<g id="a_node4"><a xlink:href="_string_8h.html" target="_top" xlink:title=" ">
<polygon fill="white" stroke="black" points="122.5,-168.5 122.5,-187.5 212.5,-187.5 212.5,-168.5 122.5,-168.5"/>
<text text-anchor="middle" x="167.5" y="-175.5" font-family="Helvetica,sans-Serif" font-size="10.00">Cpl/Text/String.h</text>
</a>
</g>
</g>
<!-- Node3&#45;&gt;Node4 -->
<g id="edge3" class="edge"><title>Node3&#45;&gt;Node4</title>
<path fill="none" stroke="midnightblue" d="M253.951,-224.324C237.508,-215.703 212.065,-202.364 193.032,-192.386"/>
<polygon fill="midnightblue" stroke="midnightblue" points="194.489,-189.198 184.008,-187.655 191.239,-195.398 194.489,-189.198"/>
</g>
<!-- Node13 -->
<g id="node13" class="node"><title>Node13</title>
<g id="a_node13"><a xlink:href="_close_8h.html" target="_top" xlink:title=" ">
<polygon fill="white" stroke="black" points="328.5,-168.5 328.5,-187.5 406.5,-187.5 406.5,-168.5 328.5,-168.5"/>
<text text-anchor="middle" x="367.5" y="-175.5" font-family="Helvetica,sans-Serif" font-size="10.00">Cpl/Io/Close.h</text>
</a>
</g>
</g>
<!-- Node3&#45;&gt;Node13 -->
<g id="edge14" class="edge"><title>Node3&#45;&gt;Node13</title>
<path fill="none" stroke="midnightblue" d="M286.085,-224.324C301.499,-215.743 325.312,-202.486 343.21,-192.522"/>
<polygon fill="midnightblue" stroke="midnightblue" points="344.919,-195.577 351.954,-187.655 341.514,-189.461 344.919,-195.577"/>
</g>
<!-- Node15 -->
<g id="node15" class="node"><title>Node15</title>
<g id="a_node15"><a xlink:href="_is_eos_8h.html" target="_top" xlink:title=" ">
<polygon fill="white" stroke="black" points="231,-168.5 231,-187.5 310,-187.5 310,-168.5 231,-168.5"/>
<text text-anchor="middle" x="270.5" y="-175.5" font-family="Helvetica,sans-Serif" font-size="10.00">Cpl/Io/IsEos.h</text>
</a>
</g>
</g>
<!-- Node3&#45;&gt;Node15 -->
<g id="edge16" class="edge"><title>Node3&#45;&gt;Node15</title>
<path fill="none" stroke="midnightblue" d="M270.5,-224.083C270.5,-217.006 270.5,-206.861 270.5,-197.986"/>
<polygon fill="midnightblue" stroke="midnightblue" points="274,-197.751 270.5,-187.751 267,-197.751 274,-197.751"/>
</g>
<!-- Node5 -->
<g id="node5" class="node"><title>Node5</title>
<g id="a_node5"><a xlink:title=" ">
<polygon fill="white" stroke="#bfbfbf" points="208,-56.5 208,-75.5 285,-75.5 285,-56.5 208,-56.5"/>
<text text-anchor="middle" x="246.5" y="-63.5" font-family="Helvetica,sans-Serif" font-size="10.00">colony_map.h</text>
</a>
</g>
</g>
<!-- Node4&#45;&gt;Node5 -->
<g id="edge4" class="edge"><title>Node4&#45;&gt;Node5</title>
<path fill="none" stroke="midnightblue" d="M171.497,-168.161C177.533,-155.241 189.741,-130.704 203.5,-112 211.167,-101.578 221.068,-91.0609 229.437,-82.8177"/>
<polygon fill="midnightblue" stroke="midnightblue" points="232.075,-85.1371 236.868,-75.6884 227.229,-80.0859 232.075,-85.1371"/>
</g>
<!-- Node6 -->
<g id="node6" class="node"><title>Node6</title>
<g id="a_node6"><a xlink:href="_key_8h.html" target="_top" xlink:title=" ">
<polygon fill="white" stroke="black" points="52.5,-112.5 52.5,-131.5 156.5,-131.5 156.5,-112.5 52.5,-112.5"/>
<text text-anchor="middle" x="104.5" y="-119.5" font-family="Helvetica,sans-Serif" font-size="10.00">Cpl/Container/Key.h</text>
</a>
</g>
</g>
<!-- Node4&#45;&gt;Node6 -->
<g id="edge5" class="edge"><title>Node4&#45;&gt;Node6</title>
<path fill="none" stroke="midnightblue" d="M152.263,-168.324C141.33,-160.42 127.112,-148.548 116.875,-138.938"/>
<polygon fill="midnightblue" stroke="midnightblue" points="119.24,-136.354 109.658,-131.834 114.329,-141.343 119.24,-136.354"/>
</g>
<!-- Node11 -->
<g id="node11" class="node"><title>Node11</title>
<g id="a_node11"><a xlink:title=" ">
<polygon fill="white" stroke="#bfbfbf" points="408.5,-112.5 408.5,-131.5 460.5,-131.5 460.5,-112.5 408.5,-112.5"/>
<text text-anchor="middle" x="434.5" y="-119.5" font-family="Helvetica,sans-Serif" font-size="10.00">stdarg.h</text>
</a>
</g>
</g>
<!-- Node4&#45;&gt;Node11 -->
<g id="edge12" class="edge"><title>Node4&#45;&gt;Node11</title>
<path fill="none" stroke="midnightblue" d="M212.576,-169.086C257.34,-161.041 328.142,-147.821 398.278,-132.175"/>
<polygon fill="midnightblue" stroke="midnightblue" points="399.179,-135.56 408.168,-129.952 397.644,-128.731 399.179,-135.56"/>
</g>
<!-- Node12 -->
<g id="node12" class="node"><title>Node12</title>
<g id="a_node12"><a xlink:title=" ">
<polygon fill="white" stroke="#bfbfbf" points="212.5,-112.5 212.5,-131.5 266.5,-131.5 266.5,-112.5 212.5,-112.5"/>
<text text-anchor="middle" x="239.5" y="-119.5" font-family="Helvetica,sans-Serif" font-size="10.00">iostream</text>
</a>
</g>
</g>
<!-- Node4&#45;&gt;Node12 -->
<g id="edge13" class="edge"><title>Node4&#45;&gt;Node12</title>
<path fill="none" stroke="midnightblue" d="M179.068,-168.324C189.92,-160.185 206.381,-147.839 219.383,-138.087"/>
<polygon fill="midnightblue" stroke="midnightblue" points="221.821,-140.634 227.721,-131.834 217.621,-135.034 221.821,-140.634"/>
</g>
<!-- Node6&#45;&gt;Node4 -->
<g id="edge10" class="edge"><title>Node6&#45;&gt;Node4</title>
<path fill="none" stroke="midnightblue" d="M119.841,-131.751C130.737,-139.639 144.861,-151.433 155.061,-161.002"/>
<polygon fill="midnightblue" stroke="midnightblue" points="152.678,-163.568 162.263,-168.083 157.586,-158.576 152.678,-163.568"/>
</g>
<!-- Node6&#45;&gt;Node5 -->
<g id="edge11" class="edge"><title>Node6&#45;&gt;Node5</title>
<path fill="none" stroke="midnightblue" d="M127,-112.444C150.577,-103.478 187.822,-89.314 214.464,-79.1827"/>
<polygon fill="midnightblue" stroke="midnightblue" points="216.002,-82.3424 224.105,-75.5164 213.514,-75.7995 216.002,-82.3424"/>
</g>
<!-- Node7 -->
<g id="node7" class="node"><title>Node7</title>
<g id="a_node7"><a xlink:href="_fatal_error_8h.html" target="_top" xlink:title=" ">
<polygon fill="white" stroke="black" points="67.5,-56.5 67.5,-75.5 189.5,-75.5 189.5,-56.5 67.5,-56.5"/>
<text text-anchor="middle" x="128.5" y="-63.5" font-family="Helvetica,sans-Serif" font-size="10.00">Cpl/System/FatalError.h</text>
</a>
</g>
</g>
<!-- Node6&#45;&gt;Node7 -->
<g id="edge6" class="edge"><title>Node6&#45;&gt;Node7</title>
<path fill="none" stroke="midnightblue" d="M108.463,-112.083C111.713,-104.77 116.419,-94.1814 120.454,-85.1034"/>
<polygon fill="midnightblue" stroke="midnightblue" points="123.748,-86.3107 124.611,-75.7511 117.351,-83.4677 123.748,-86.3107"/>
</g>
<!-- Node6&#45;&gt;Node10 -->
<g id="edge9" class="edge"><title>Node6&#45;&gt;Node10</title>
<path fill="none" stroke="midnightblue" d="M91.6466,-112.324C79.2836,-103.979 60.3699,-91.2122 45.7628,-81.3524"/>
<polygon fill="midnightblue" stroke="midnightblue" points="47.5682,-78.3483 37.3215,-75.6545 43.6518,-84.1503 47.5682,-78.3483"/>
</g>
<!-- Node8 -->
<g id="node8" class="node"><title>Node8</title>
<g id="a_node8"><a xlink:title=" ">
<polygon fill="white" stroke="#bfbfbf" points="102.5,-0.5 102.5,-19.5 154.5,-19.5 154.5,-0.5 102.5,-0.5"/>
<text text-anchor="middle" x="128.5" y="-7.5" font-family="Helvetica,sans-Serif" font-size="10.00">stddef.h</text>
</a>
</g>
</g>
<!-- Node7&#45;&gt;Node8 -->
<g id="edge7" class="edge"><title>Node7&#45;&gt;Node8</title>
<path fill="none" stroke="midnightblue" d="M128.5,-56.083C128.5,-49.0059 128.5,-38.8611 128.5,-29.9865"/>
<polygon fill="midnightblue" stroke="midnightblue" points="132,-29.751 128.5,-19.7511 125,-29.7511 132,-29.751"/>
</g>
<!-- Node9 -->
<g id="node9" class="node"><title>Node9</title>
<g id="a_node9"><a xlink:title=" ">
<polygon fill="white" stroke="#bfbfbf" points="270,-0.5 270,-19.5 355,-19.5 355,-0.5 270,-0.5"/>
<text text-anchor="middle" x="312.5" y="-7.5" font-family="Helvetica,sans-Serif" font-size="10.00">colony_config.h</text>
</a>
</g>
</g>
<!-- Node7&#45;&gt;Node9 -->
<g id="edge8" class="edge"><title>Node7&#45;&gt;Node9</title>
<path fill="none" stroke="midnightblue" d="M157.655,-56.4435C189.013,-47.2406 239.031,-32.5617 273.697,-22.3879"/>
<polygon fill="midnightblue" stroke="midnightblue" points="274.871,-25.6909 283.481,-19.5164 272.9,-18.9742 274.871,-25.6909"/>
</g>
<!-- Node14 -->
<g id="node14" class="node"><title>Node14</title>
<g id="a_node14"><a xlink:href="_item_8h.html" target="_top" xlink:title=" ">
<polygon fill="white" stroke="black" points="284.5,-112.5 284.5,-131.5 390.5,-131.5 390.5,-112.5 284.5,-112.5"/>
<text text-anchor="middle" x="337.5" y="-119.5" font-family="Helvetica,sans-Serif" font-size="10.00">Cpl/Container/Item.h</text>
</a>
</g>
</g>
<!-- Node13&#45;&gt;Node14 -->
<g id="edge15" class="edge"><title>Node13&#45;&gt;Node14</title>
<path fill="none" stroke="midnightblue" d="M362.546,-168.083C358.396,-160.613 352.347,-149.724 347.233,-140.52"/>
<polygon fill="midnightblue" stroke="midnightblue" points="350.278,-138.793 342.362,-131.751 344.159,-142.192 350.278,-138.793"/>
</g>
<!-- Node16&#45;&gt;Node4 -->
<g id="edge18" class="edge"><title>Node16&#45;&gt;Node4</title>
<path fill="none" stroke="midnightblue" d="M335.809,-224.444C301.432,-215.162 246.423,-200.309 208.711,-190.127"/>
<polygon fill="midnightblue" stroke="midnightblue" points="209.609,-186.744 199.042,-187.516 207.784,-193.502 209.609,-186.744"/>
</g>
<!-- Node16&#45;&gt;Node11 -->
<g id="edge21" class="edge"><title>Node16&#45;&gt;Node11</title>
<path fill="none" stroke="midnightblue" d="M379.902,-224.399C390.791,-216.228 406.29,-202.987 415.5,-188 424.252,-173.757 429.143,-155.284 431.763,-141.673"/>
<polygon fill="midnightblue" stroke="midnightblue" points="435.252,-142.026 433.463,-131.584 428.35,-140.863 435.252,-142.026"/>
</g>
<!-- Node16&#45;&gt;Node13 -->
<g id="edge19" class="edge"><title>Node16&#45;&gt;Node13</title>
<path fill="none" stroke="midnightblue" d="M367.5,-224.083C367.5,-217.006 367.5,-206.861 367.5,-197.986"/>
<polygon fill="midnightblue" stroke="midnightblue" points="371,-197.751 367.5,-187.751 364,-197.751 371,-197.751"/>
</g>
<!-- Node16&#45;&gt;Node15 -->
<g id="edge20" class="edge"><title>Node16&#45;&gt;Node15</title>
<path fill="none" stroke="midnightblue" d="M351.915,-224.324C336.501,-215.743 312.688,-202.486 294.79,-192.522"/>
<polygon fill="midnightblue" stroke="midnightblue" points="296.486,-189.461 286.046,-187.655 293.081,-195.577 296.486,-189.461"/>
</g>
<!-- Node17&#45;&gt;Node5 -->
<g id="edge24" class="edge"><title>Node17&#45;&gt;Node5</title>
<path fill="none" stroke="midnightblue" d="M478.709,-114.036C475.602,-113.336 472.488,-112.646 469.5,-112 409.565,-99.0398 340.306,-85.2481 295.077,-76.4004"/>
<polygon fill="midnightblue" stroke="midnightblue" points="295.728,-72.9614 285.242,-74.4803 294.386,-79.8317 295.728,-72.9614"/>
</g>
<!-- Node17&#45;&gt;Node9 -->
<g id="edge23" class="edge"><title>Node17&#45;&gt;Node9</title>
<path fill="none" stroke="midnightblue" d="M493.12,-112.368C459.129,-93.2916 377.398,-47.4223 336.564,-24.5054"/>
<polygon fill="midnightblue" stroke="midnightblue" points="338.242,-21.4334 327.808,-19.5914 334.816,-27.5378 338.242,-21.4334"/>
</g>
</g>
</svg>
