<?xml version="1.0" encoding="UTF-8" standalone="no"?>
<!DOCTYPE svg PUBLIC "-//W3C//DTD SVG 1.1//EN"
 "http://www.w3.org/Graphics/SVG/1.1/DTD/svg11.dtd">
<!-- Generated by graphviz version 2.38.0 (20140413.2041)
 -->
<!-- Title: Cpl/System/Signable.h Pages: 1 -->
<svg width="2573pt" height="464pt"
 viewBox="0.00 0.00 2572.50 464.00" xmlns="http://www.w3.org/2000/svg" xmlns:xlink="http://www.w3.org/1999/xlink">
<g id="graph0" class="graph" transform="scale(1 1) rotate(0) translate(4 460)">
<title>Cpl/System/Signable.h</title>
<polygon fill="white" stroke="none" points="-4,4 -4,-460 2568.5,-460 2568.5,4 -4,4"/>
<!-- Node1 -->
<g id="node1" class="node"><title>Node1</title>
<g id="a_node1"><a xlink:title=" ">
<polygon fill="#bfbfbf" stroke="black" points="631,-436.5 631,-455.5 747,-455.5 747,-436.5 631,-436.5"/>
<text text-anchor="middle" x="689" y="-443.5" font-family="Helvetica,sans-Serif" font-size="10.00">Cpl/System/Signable.h</text>
</a>
</g>
</g>
<!-- Node2 -->
<g id="node2" class="node"><title>Node2</title>
<g id="a_node2"><a xlink:href="_sync_return_handler_8h.html" target="_top" xlink:title=" ">
<polygon fill="white" stroke="black" points="156,-380.5 156,-399.5 296,-399.5 296,-380.5 156,-380.5"/>
<text text-anchor="middle" x="226" y="-387.5" font-family="Helvetica,sans-Serif" font-size="10.00">Cpl/Itc/SyncReturnHandler.h</text>
</a>
</g>
</g>
<!-- Node1&#45;&gt;Node2 -->
<g id="edge1" class="edge"><title>Node1&#45;&gt;Node2</title>
<path fill="none" stroke="midnightblue" d="M620.792,-437.045C533.741,-426.892 383.927,-409.419 296.017,-399.166"/>
<polygon fill="midnightblue" stroke="midnightblue" points="620.491,-440.533 630.83,-438.216 621.302,-433.581 620.491,-440.533"/>
</g>
<!-- Node5 -->
<g id="node5" class="node"><title>Node5</title>
<g id="a_node5"><a xlink:href="_system_2_event_loop_8h.html" target="_top" xlink:title=" ">
<polygon fill="white" stroke="black" points="305.5,-319 305.5,-338 430.5,-338 430.5,-319 305.5,-319"/>
<text text-anchor="middle" x="368" y="-326" font-family="Helvetica,sans-Serif" font-size="10.00">Cpl/System/EventLoop.h</text>
</a>
</g>
</g>
<!-- Node1&#45;&gt;Node5 -->
<g id="edge5" class="edge"><title>Node1&#45;&gt;Node5</title>
<path fill="none" stroke="midnightblue" d="M655.374,-432.901C590.302,-409.487 448.589,-358.497 392.022,-338.143"/>
<polygon fill="midnightblue" stroke="midnightblue" points="654.541,-436.321 665.135,-436.413 656.911,-429.734 654.541,-436.321"/>
</g>
<!-- Node43 -->
<g id="node24" class="node"><title>Node43</title>
<g id="a_node24"><a xlink:href="_semaphore_8h.html" target="_top" xlink:title=" ">
<polygon fill="white" stroke="black" points="763,-380.5 763,-399.5 891,-399.5 891,-380.5 763,-380.5"/>
<text text-anchor="middle" x="827" y="-387.5" font-family="Helvetica,sans-Serif" font-size="10.00">Cpl/System/Semaphore.h</text>
</a>
</g>
</g>
<!-- Node1&#45;&gt;Node43 -->
<g id="edge34" class="edge"><title>Node1&#45;&gt;Node43</title>
<path fill="none" stroke="midnightblue" d="M720.249,-432.772C746.171,-422.629 782.362,-408.467 805.236,-399.516"/>
<polygon fill="midnightblue" stroke="midnightblue" points="718.904,-429.54 710.867,-436.444 721.454,-436.059 718.904,-429.54"/>
</g>
<!-- Node51 -->
<g id="node32" class="node"><title>Node51</title>
<g id="a_node32"><a xlink:href="_thread_8h.html" target="_top" xlink:title=" ">
<polygon fill="white" stroke="black" points="1570.5,-380.5 1570.5,-399.5 1679.5,-399.5 1679.5,-380.5 1570.5,-380.5"/>
<text text-anchor="middle" x="1625" y="-387.5" font-family="Helvetica,sans-Serif" font-size="10.00">Cpl/System/Thread.h</text>
</a>
</g>
</g>
<!-- Node1&#45;&gt;Node51 -->
<g id="edge43" class="edge"><title>Node1&#45;&gt;Node51</title>
<path fill="none" stroke="midnightblue" d="M757.199,-441.065C934.765,-430.821 1408.8,-403.473 1570.26,-394.158"/>
<polygon fill="midnightblue" stroke="midnightblue" points="756.979,-437.572 747.197,-441.642 757.382,-444.561 756.979,-437.572"/>
</g>
<!-- Node3 -->
<g id="node3" class="node"><title>Node3</title>
<g id="a_node3"><a xlink:href="_atomic_request_8h.html" target="_top" xlink:title=" ">
<polygon fill="white" stroke="black" points="164.5,-319 164.5,-338 287.5,-338 287.5,-319 164.5,-319"/>
<text text-anchor="middle" x="226" y="-326" font-family="Helvetica,sans-Serif" font-size="10.00">Cpl/Itc/AtomicRequest.h</text>
</a>
</g>
</g>
<!-- Node2&#45;&gt;Node3 -->
<g id="edge2" class="edge"><title>Node2&#45;&gt;Node3</title>
<path fill="none" stroke="midnightblue" d="M226,-370.317C226,-359.496 226,-346.398 226,-338.009"/>
<polygon fill="midnightblue" stroke="midnightblue" points="222.5,-370.475 226,-380.475 229.5,-370.475 222.5,-370.475"/>
</g>
<!-- Node4 -->
<g id="node4" class="node"><title>Node4</title>
<g id="a_node4"><a xlink:href="_atomic_sync_8h.html" target="_top" xlink:title=" ">
<polygon fill="white" stroke="black" points="126,-252 126,-271 236,-271 236,-252 126,-252"/>
<text text-anchor="middle" x="181" y="-259" font-family="Helvetica,sans-Serif" font-size="10.00">Cpl/Itc/AtomicSync.h</text>
</a>
</g>
</g>
<!-- Node2&#45;&gt;Node4 -->
<g id="edge4" class="edge"><title>Node2&#45;&gt;Node4</title>
<path fill="none" stroke="midnightblue" d="M191.403,-375.921C177.486,-368.747 162.887,-358.337 155,-344 141.398,-319.276 162.309,-286.358 173.994,-271.028"/>
<polygon fill="midnightblue" stroke="midnightblue" points="190.302,-379.272 200.839,-380.378 193.292,-372.942 190.302,-379.272"/>
</g>
<!-- Node3&#45;&gt;Node4 -->
<g id="edge3" class="edge"><title>Node3&#45;&gt;Node4</title>
<path fill="none" stroke="midnightblue" d="M214.164,-310.404C205.42,-297.773 193.88,-281.104 186.973,-271.127"/>
<polygon fill="midnightblue" stroke="midnightblue" points="211.361,-312.504 219.931,-318.734 217.117,-308.52 211.361,-312.504"/>
</g>
<!-- Node6 -->
<g id="node6" class="node"><title>Node6</title>
<g id="a_node6"><a xlink:href="_dm_2_event_loop_8h.html" target="_top" xlink:title=" ">
<polygon fill="white" stroke="black" points="724.5,-252 724.5,-271 831.5,-271 831.5,-252 724.5,-252"/>
<text text-anchor="middle" x="778" y="-259" font-family="Helvetica,sans-Serif" font-size="10.00">Cpl/Dm/EventLoop.h</text>
</a>
</g>
</g>
<!-- Node5&#45;&gt;Node6 -->
<g id="edge6" class="edge"><title>Node5&#45;&gt;Node6</title>
<path fill="none" stroke="midnightblue" d="M417.938,-316.951C424.998,-315.562 432.174,-314.205 439,-313 539.496,-295.266 657.485,-278.629 724.426,-269.577"/>
<polygon fill="midnightblue" stroke="midnightblue" points="416.851,-313.599 407.733,-318.995 418.225,-320.463 416.851,-313.599"/>
</g>
<!-- Node40 -->
<g id="node21" class="node"><title>Node40</title>
<g id="a_node21"><a xlink:href="_mailbox_8h.html" target="_top" xlink:title=" ">
<polygon fill="white" stroke="black" points="360,-252 360,-271 450,-271 450,-252 360,-252"/>
<text text-anchor="middle" x="405" y="-259" font-family="Helvetica,sans-Serif" font-size="10.00">Cpl/Itc/Mailbox.h</text>
</a>
</g>
</g>
<!-- Node5&#45;&gt;Node40 -->
<g id="edge29" class="edge"><title>Node5&#45;&gt;Node40</title>
<path fill="none" stroke="midnightblue" d="M377.942,-310.035C385.105,-297.45 394.465,-281.007 400.089,-271.127"/>
<polygon fill="midnightblue" stroke="midnightblue" points="374.895,-308.312 372.99,-318.734 380.979,-311.775 374.895,-308.312"/>
</g>
<!-- Node41 -->
<g id="node22" class="node"><title>Node41</title>
<g id="a_node22"><a xlink:href="_itc_2_mailbox_server_8h.html" target="_top" xlink:title=" ">
<polygon fill="white" stroke="black" points="272.5,-185 272.5,-204 391.5,-204 391.5,-185 272.5,-185"/>
<text text-anchor="middle" x="332" y="-192" font-family="Helvetica,sans-Serif" font-size="10.00">Cpl/Itc/MailboxServer.h</text>
</a>
</g>
</g>
<!-- Node5&#45;&gt;Node41 -->
<g id="edge33" class="edge"><title>Node5&#45;&gt;Node41</title>
<path fill="none" stroke="midnightblue" d="M361.324,-309.071C357.999,-299.561 354.05,-287.732 351,-277 343.534,-250.726 336.787,-219.089 333.729,-204.135"/>
<polygon fill="midnightblue" stroke="midnightblue" points="358.079,-310.394 364.73,-318.641 364.674,-308.046 358.079,-310.394"/>
</g>
<!-- Node7 -->
<g id="node7" class="node"><title>Node7</title>
<g id="a_node7"><a xlink:href="_dm_2_mailbox_server_8h.html" target="_top" xlink:title=" ">
<polygon fill="white" stroke="black" points="575,-185 575,-204 697,-204 697,-185 575,-185"/>
<text text-anchor="middle" x="636" y="-192" font-family="Helvetica,sans-Serif" font-size="10.00">Cpl/Dm/MailboxServer.h</text>
</a>
</g>
</g>
<!-- Node6&#45;&gt;Node7 -->
<g id="edge7" class="edge"><title>Node6&#45;&gt;Node7</title>
<path fill="none" stroke="midnightblue" d="M749.846,-247.613C721.721,-234.739 679.268,-215.306 654.934,-204.167"/>
<polygon fill="midnightblue" stroke="midnightblue" points="748.594,-250.889 759.143,-251.869 751.508,-244.524 748.594,-250.889"/>
</g>
<!-- Node21 -->
<g id="node18" class="node"><title>Node21</title>
<g id="a_node18"><a xlink:href="_subscriber_8h.html" target="_top" xlink:title=" ">
<polygon fill="white" stroke="black" points="889.5,-185 889.5,-204 996.5,-204 996.5,-185 889.5,-185"/>
<text text-anchor="middle" x="943" y="-192" font-family="Helvetica,sans-Serif" font-size="10.00">Cpl/Dm/Subscriber.h</text>
</a>
</g>
</g>
<!-- Node6&#45;&gt;Node21 -->
<g id="edge25" class="edge"><title>Node6&#45;&gt;Node21</title>
<path fill="none" stroke="midnightblue" d="M809.466,-248.104C842.227,-235.198 892.67,-215.327 921.261,-204.064"/>
<polygon fill="midnightblue" stroke="midnightblue" points="807.932,-244.947 799.911,-251.869 810.498,-251.46 807.932,-244.947"/>
</g>
<!-- Node8 -->
<g id="node8" class="node"><title>Node8</title>
<g id="a_node8"><a xlink:href="_dm_2_periodic_scheduler_8h.html" target="_top" xlink:title=" ">
<polygon fill="white" stroke="black" points="752.5,-123.5 752.5,-142.5 891.5,-142.5 891.5,-123.5 752.5,-123.5"/>
<text text-anchor="middle" x="822" y="-130.5" font-family="Helvetica,sans-Serif" font-size="10.00">Cpl/Dm/PeriodicScheduler.h</text>
</a>
</g>
</g>
<!-- Node7&#45;&gt;Node8 -->
<g id="edge8" class="edge"><title>Node7&#45;&gt;Node8</title>
<path fill="none" stroke="midnightblue" d="M672.323,-181.881C708.477,-170.315 763.103,-152.841 795.4,-142.509"/>
<polygon fill="midnightblue" stroke="midnightblue" points="671.107,-178.595 662.649,-184.975 673.24,-185.262 671.107,-178.595"/>
</g>
<!-- Node9 -->
<g id="node9" class="node"><title>Node9</title>
<g id="a_node9"><a xlink:href="_chunk_8h.html" target="_top" xlink:title=" ">
<polygon fill="white" stroke="black" points="429.5,-123.5 429.5,-142.5 546.5,-142.5 546.5,-123.5 429.5,-123.5"/>
<text text-anchor="middle" x="488" y="-130.5" font-family="Helvetica,sans-Serif" font-size="10.00">Cpl/Persistent/Chunk.h</text>
</a>
</g>
</g>
<!-- Node7&#45;&gt;Node9 -->
<g id="edge9" class="edge"><title>Node7&#45;&gt;Node9</title>
<path fill="none" stroke="midnightblue" d="M605.234,-181.131C576.481,-169.572 534.315,-152.62 509.165,-142.509"/>
<polygon fill="midnightblue" stroke="midnightblue" points="604.211,-184.492 614.795,-184.975 606.822,-177.998 604.211,-184.492"/>
</g>
<!-- Node17 -->
<g id="node15" class="node"><title>Node17</title>
<g id="a_node15"><a xlink:href="_persistent_2_record_8h.html" target="_top" xlink:title=" ">
<polygon fill="white" stroke="black" points="576,-123.5 576,-142.5 696,-142.5 696,-123.5 576,-123.5"/>
<text text-anchor="middle" x="636" y="-130.5" font-family="Helvetica,sans-Serif" font-size="10.00">Cpl/Persistent/Record.h</text>
</a>
</g>
</g>
<!-- Node7&#45;&gt;Node17 -->
<g id="edge15" class="edge"><title>Node7&#45;&gt;Node17</title>
<path fill="none" stroke="midnightblue" d="M636,-174.817C636,-163.996 636,-150.898 636,-142.509"/>
<polygon fill="midnightblue" stroke="midnightblue" points="632.5,-174.975 636,-184.975 639.5,-174.975 632.5,-174.975"/>
</g>
<!-- Node18 -->
<g id="node16" class="node"><title>Node18</title>
<g id="a_node16"><a xlink:href="_record_server_8h.html" target="_top" xlink:title=" ">
<polygon fill="white" stroke="black" points="712.5,-62 712.5,-81 861.5,-81 861.5,-62 712.5,-62"/>
<text text-anchor="middle" x="787" y="-69" font-family="Helvetica,sans-Serif" font-size="10.00">Cpl/Persistent/RecordServer.h</text>
</a>
</g>
</g>
<!-- Node7&#45;&gt;Node18 -->
<g id="edge20" class="edge"><title>Node7&#45;&gt;Node18</title>
<path fill="none" stroke="midnightblue" d="M656.794,-178.926C670.656,-169.054 689.168,-155.568 705,-143 731.909,-121.639 762.249,-94.7918 777.364,-81.2176"/>
<polygon fill="midnightblue" stroke="midnightblue" points="654.572,-176.211 648.432,-184.845 658.616,-181.924 654.572,-176.211"/>
</g>
<!-- Node19 -->
<g id="node17" class="node"><title>Node19</title>
<g id="a_node17"><a xlink:href="_region_media_8h.html" target="_top" xlink:title=" ">
<polygon fill="white" stroke="red" points="265,-123.5 265,-142.5 411,-142.5 411,-123.5 265,-123.5"/>
<text text-anchor="middle" x="338" y="-130.5" font-family="Helvetica,sans-Serif" font-size="10.00">Cpl/Persistent/RegionMedia.h</text>
</a>
</g>
</g>
<!-- Node7&#45;&gt;Node19 -->
<g id="edge21" class="edge"><title>Node7&#45;&gt;Node19</title>
<path fill="none" stroke="midnightblue" d="M583.282,-182.974C525.528,-171.443 434.02,-153.172 380.617,-142.509"/>
<polygon fill="midnightblue" stroke="midnightblue" points="582.812,-186.449 593.304,-184.975 584.183,-179.585 582.812,-186.449"/>
</g>
<!-- Node10 -->
<g id="node10" class="node"><title>Node10</title>
<g id="a_node10"><a xlink:href="_dm_2_persistent_2_record_8h.html" target="_top" xlink:title=" ">
<polygon fill="white" stroke="black" points="666,-0.5 666,-19.5 804,-19.5 804,-0.5 666,-0.5"/>
<text text-anchor="middle" x="735" y="-7.5" font-family="Helvetica,sans-Serif" font-size="10.00">Cpl/Dm/Persistent/Record.h</text>
</a>
</g>
</g>
<!-- Node9&#45;&gt;Node10 -->
<g id="edge10" class="edge"><title>Node9&#45;&gt;Node10</title>
<path fill="none" stroke="midnightblue" d="M487.38,-113.461C487.864,-96.1273 491.478,-70.7626 507,-56 529.511,-34.5895 607.447,-22.654 665.978,-16.5419"/>
<polygon fill="midnightblue" stroke="midnightblue" points="483.88,-113.514 487.421,-123.499 490.88,-113.485 483.88,-113.514"/>
</g>
<!-- Node11 -->
<g id="node11" class="node"><title>Node11</title>
<g id="a_node11"><a xlink:href="_crc_chunk_8h.html" target="_top" xlink:title=" ">
<polygon fill="white" stroke="black" points="170,-62 170,-81 302,-81 302,-62 170,-62"/>
<text text-anchor="middle" x="236" y="-69" font-family="Helvetica,sans-Serif" font-size="10.00">Cpl/Persistent/CrcChunk.h</text>
</a>
</g>
</g>
<!-- Node9&#45;&gt;Node11 -->
<g id="edge11" class="edge"><title>Node9&#45;&gt;Node11</title>
<path fill="none" stroke="midnightblue" d="M441.894,-121.114C392.982,-109.565 316.731,-91.5615 272.038,-81.0091"/>
<polygon fill="midnightblue" stroke="midnightblue" points="441.358,-124.583 451.895,-123.475 442.966,-117.771 441.358,-124.583"/>
</g>
<!-- Node12 -->
<g id="node12" class="node"><title>Node12</title>
<g id="a_node12"><a xlink:href="_data_record_8h.html" target="_top" xlink:title=" ">
<polygon fill="white" stroke="red" points="516,-62 516,-81 656,-81 656,-62 516,-62"/>
<text text-anchor="middle" x="586" y="-69" font-family="Helvetica,sans-Serif" font-size="10.00">Cpl/Persistent/DataRecord.h</text>
</a>
</g>
</g>
<!-- Node9&#45;&gt;Node12 -->
<g id="edge12" class="edge"><title>Node9&#45;&gt;Node12</title>
<path fill="none" stroke="midnightblue" d="M510.657,-118.244C529.589,-106.75 555.986,-90.7226 571.985,-81.0091"/>
<polygon fill="midnightblue" stroke="midnightblue" points="508.772,-115.294 502.041,-123.475 512.405,-121.277 508.772,-115.294"/>
</g>
<!-- Node14 -->
<g id="node13" class="node"><title>Node14</title>
<g id="a_node13"><a xlink:href="_indexed_entry_record_8h.html" target="_top" xlink:title=" ">
<polygon fill="white" stroke="red" points="320.5,-56.5 320.5,-86.5 459.5,-86.5 459.5,-56.5 320.5,-56.5"/>
<text text-anchor="start" x="328.5" y="-74.5" font-family="Helvetica,sans-Serif" font-size="10.00">Cpl/Persistent/IndexedEntry</text>
<text text-anchor="middle" x="390" y="-63.5" font-family="Helvetica,sans-Serif" font-size="10.00">Record.h</text>
</a>
</g>
</g>
<!-- Node9&#45;&gt;Node14 -->
<g id="edge13" class="edge"><title>Node9&#45;&gt;Node14</title>
<path fill="none" stroke="midnightblue" d="M465.396,-118.276C449.713,-108.754 428.886,-96.1096 413.097,-86.523"/>
<polygon fill="midnightblue" stroke="midnightblue" points="463.595,-121.277 473.959,-123.475 467.228,-115.294 463.595,-121.277"/>
</g>
<!-- Node16 -->
<g id="node14" class="node"><title>Node16</title>
<g id="a_node14"><a xlink:href="_mirrored_chunk_8h.html" target="_top" xlink:title=" ">
<polygon fill="white" stroke="black" points="0,-62 0,-81 152,-81 152,-62 0,-62"/>
<text text-anchor="middle" x="76" y="-69" font-family="Helvetica,sans-Serif" font-size="10.00">Cpl/Persistent/MirroredChunk.h</text>
</a>
</g>
</g>
<!-- Node9&#45;&gt;Node16 -->
<g id="edge14" class="edge"><title>Node9&#45;&gt;Node16</title>
<path fill="none" stroke="midnightblue" d="M419.379,-122.821C338.603,-111.971 209.34,-94.4473 161,-87 149.164,-85.1765 136.424,-83.0766 124.502,-81.0513"/>
<polygon fill="midnightblue" stroke="midnightblue" points="419.09,-126.314 429.467,-124.176 420.021,-119.376 419.09,-126.314"/>
</g>
<!-- Node17&#45;&gt;Node10 -->
<g id="edge16" class="edge"><title>Node17&#45;&gt;Node10</title>
<path fill="none" stroke="midnightblue" d="M649.554,-115.435C670.899,-89.346 711.597,-39.6031 727.945,-19.6232"/>
<polygon fill="midnightblue" stroke="midnightblue" points="646.743,-113.342 643.12,-123.298 652.161,-117.775 646.743,-113.342"/>
</g>
<!-- Node17&#45;&gt;Node12 -->
<g id="edge17" class="edge"><title>Node17&#45;&gt;Node12</title>
<path fill="none" stroke="midnightblue" d="M622.276,-115.669C612.85,-104.452 600.719,-90.0161 593.15,-81.0091"/>
<polygon fill="midnightblue" stroke="midnightblue" points="619.723,-118.071 628.836,-123.475 625.082,-113.568 619.723,-118.071"/>
</g>
<!-- Node17&#45;&gt;Node18 -->
<g id="edge18" class="edge"><title>Node17&#45;&gt;Node18</title>
<path fill="none" stroke="midnightblue" d="M667.006,-119.782C696.35,-108.22 739.634,-91.1641 765.406,-81.0091"/>
<polygon fill="midnightblue" stroke="midnightblue" points="665.655,-116.553 657.635,-123.475 668.222,-123.065 665.655,-116.553"/>
</g>
<!-- Node18&#45;&gt;Node10 -->
<g id="edge19" class="edge"><title>Node18&#45;&gt;Node10</title>
<path fill="none" stroke="midnightblue" d="M772.727,-54.1685C762.924,-42.952 750.308,-28.5161 742.437,-19.5091"/>
<polygon fill="midnightblue" stroke="midnightblue" points="770.334,-56.7486 779.55,-61.9751 775.604,-52.1422 770.334,-56.7486"/>
</g>
<!-- Node19&#45;&gt;Node11 -->
<g id="edge22" class="edge"><title>Node19&#45;&gt;Node11</title>
<path fill="none" stroke="midnightblue" d="M314.687,-118.401C294.964,-106.896 267.314,-90.7667 250.587,-81.0091"/>
<polygon fill="midnightblue" stroke="midnightblue" points="312.985,-121.46 323.386,-123.475 316.512,-115.413 312.985,-121.46"/>
</g>
<!-- Node19&#45;&gt;Node14 -->
<g id="edge23" class="edge"><title>Node19&#45;&gt;Node14</title>
<path fill="none" stroke="midnightblue" d="M352.149,-115.811C360.156,-106.649 370.071,-95.3032 377.745,-86.523"/>
<polygon fill="midnightblue" stroke="midnightblue" points="349.396,-113.642 345.45,-123.475 354.666,-118.249 349.396,-113.642"/>
</g>
<!-- Node19&#45;&gt;Node16 -->
<g id="edge24" class="edge"><title>Node19&#45;&gt;Node16</title>
<path fill="none" stroke="midnightblue" d="M290.701,-121.258C239.876,-109.716 160.129,-91.6056 113.469,-81.0091"/>
<polygon fill="midnightblue" stroke="midnightblue" points="289.935,-124.674 300.462,-123.475 291.485,-117.847 289.935,-124.674"/>
</g>
<!-- Node22 -->
<g id="node19" class="node"><title>Node22</title>
<g id="a_node19"><a xlink:href="_model_point_common___8h.html" target="_top" xlink:title=" ">
<polygon fill="white" stroke="red" points="971.5,-123.5 971.5,-142.5 1124.5,-142.5 1124.5,-123.5 971.5,-123.5"/>
<text text-anchor="middle" x="1048" y="-130.5" font-family="Helvetica,sans-Serif" font-size="10.00">Cpl/Dm/ModelPointCommon_.h</text>
</a>
</g>
</g>
<!-- Node21&#45;&gt;Node22 -->
<g id="edge26" class="edge"><title>Node21&#45;&gt;Node22</title>
<path fill="none" stroke="midnightblue" d="M966.999,-179.901C987.302,-168.396 1015.76,-152.267 1032.98,-142.509"/>
<polygon fill="midnightblue" stroke="midnightblue" points="965.019,-177 958.044,-184.975 968.47,-183.09 965.019,-177"/>
</g>
<!-- Node39 -->
<g id="node20" class="node"><title>Node39</title>
<g id="a_node20"><a xlink:href="_subscriber_composer_8h.html" target="_top" xlink:title=" ">
<polygon fill="white" stroke="red" points="879.5,-62 879.5,-81 1030.5,-81 1030.5,-62 879.5,-62"/>
<text text-anchor="middle" x="955" y="-69" font-family="Helvetica,sans-Serif" font-size="10.00">Cpl/Dm/SubscriberComposer.h</text>
</a>
</g>
</g>
<!-- Node21&#45;&gt;Node39 -->
<g id="edge27" class="edge"><title>Node21&#45;&gt;Node39</title>
<path fill="none" stroke="midnightblue" d="M944.85,-174.845C947.486,-148.271 952.215,-100.582 954.145,-81.1232"/>
<polygon fill="midnightblue" stroke="midnightblue" points="941.367,-174.501 943.863,-184.798 948.333,-175.192 941.367,-174.501"/>
</g>
<!-- Node39&#45;&gt;Node10 -->
<g id="edge28" class="edge"><title>Node39&#45;&gt;Node10</title>
<path fill="none" stroke="midnightblue" d="M913.671,-59.3225C870.936,-47.7645 805.153,-29.9732 766.462,-19.5091"/>
<polygon fill="midnightblue" stroke="midnightblue" points="912.912,-62.7429 923.479,-61.9751 914.74,-55.9857 912.912,-62.7429"/>
</g>
<!-- Node40&#45;&gt;Node7 -->
<g id="edge30" class="edge"><title>Node40&#45;&gt;Node7</title>
<path fill="none" stroke="midnightblue" d="M445.545,-249.091C491.245,-236.232 564.502,-215.618 605.566,-204.064"/>
<polygon fill="midnightblue" stroke="midnightblue" points="444.353,-245.791 435.675,-251.869 446.249,-252.529 444.353,-245.791"/>
</g>
<!-- Node40&#45;&gt;Node41 -->
<g id="edge31" class="edge"><title>Node40&#45;&gt;Node41</title>
<path fill="none" stroke="midnightblue" d="M387.431,-244.856C373.08,-232.078 353.329,-214.492 341.689,-204.127"/>
<polygon fill="midnightblue" stroke="midnightblue" points="385.359,-247.698 395.155,-251.734 390.014,-242.47 385.359,-247.698"/>
</g>
<!-- Node42 -->
<g id="node23" class="node"><title>Node42</title>
<g id="a_node23"><a xlink:href="_itc_2_periodic_scheduler_8h.html" target="_top" xlink:title=" ">
<polygon fill="white" stroke="black" points="111.5,-123.5 111.5,-142.5 246.5,-142.5 246.5,-123.5 111.5,-123.5"/>
<text text-anchor="middle" x="179" y="-130.5" font-family="Helvetica,sans-Serif" font-size="10.00">Cpl/Itc/PeriodicScheduler.h</text>
</a>
</g>
</g>
<!-- Node41&#45;&gt;Node42 -->
<g id="edge32" class="edge"><title>Node41&#45;&gt;Node42</title>
<path fill="none" stroke="midnightblue" d="M300.583,-181.282C270.851,-169.72 226.993,-152.664 200.881,-142.509"/>
<polygon fill="midnightblue" stroke="midnightblue" points="299.49,-184.613 310.079,-184.975 302.027,-178.089 299.49,-184.613"/>
</g>
<!-- Node43&#45;&gt;Node5 -->
<g id="edge37" class="edge"><title>Node43&#45;&gt;Node5</title>
<path fill="none" stroke="midnightblue" d="M752.671,-382.296C674.379,-374.787 547.625,-361.358 439,-344 428.44,-342.313 417.065,-340.147 406.581,-338.007"/>
<polygon fill="midnightblue" stroke="midnightblue" points="752.631,-385.808 762.918,-383.271 753.294,-378.839 752.631,-385.808"/>
</g>
<!-- Node44 -->
<g id="node25" class="node"><title>Node44</title>
<g id="a_node25"><a xlink:href="_bare_metal_2_thread_8h.html" target="_top" xlink:title=" ">
<polygon fill="white" stroke="black" points="1075.5,-313.5 1075.5,-343.5 1190.5,-343.5 1190.5,-313.5 1075.5,-313.5"/>
<text text-anchor="start" x="1083.5" y="-331.5" font-family="Helvetica,sans-Serif" font-size="10.00">Cpl/System/BareMetal</text>
<text text-anchor="middle" x="1133" y="-320.5" font-family="Helvetica,sans-Serif" font-size="10.00">/Thread.h</text>
</a>
</g>
</g>
<!-- Node43&#45;&gt;Node44 -->
<g id="edge35" class="edge"><title>Node43&#45;&gt;Node44</title>
<path fill="none" stroke="midnightblue" d="M884.22,-378.675C932.69,-369.822 1003.99,-356.545 1066,-344 1069.03,-343.386 1072.14,-342.748 1075.28,-342.096"/>
<polygon fill="midnightblue" stroke="midnightblue" points="883.445,-375.259 874.235,-380.495 884.701,-382.145 883.445,-375.259"/>
</g>
<!-- Node45 -->
<g id="node26" class="node"><title>Node45</title>
<g id="a_node26"><a xlink:href="_cpp11_2_thread_8h.html" target="_top" xlink:title=" ">
<polygon fill="white" stroke="black" points="1209,-319 1209,-338 1349,-338 1349,-319 1209,-319"/>
<text text-anchor="middle" x="1279" y="-326" font-family="Helvetica,sans-Serif" font-size="10.00">Cpl/System/Cpp11/Thread.h</text>
</a>
</g>
</g>
<!-- Node43&#45;&gt;Node45 -->
<g id="edge36" class="edge"><title>Node43&#45;&gt;Node45</title>
<path fill="none" stroke="midnightblue" d="M901.318,-381.313C976.534,-373.228 1096.1,-359.536 1199,-344 1210.58,-342.251 1223.07,-340.112 1234.65,-338.02"/>
<polygon fill="midnightblue" stroke="midnightblue" points="900.576,-377.873 891.005,-382.417 901.321,-384.833 900.576,-377.873"/>
</g>
<!-- Node46 -->
<g id="node27" class="node"><title>Node46</title>
<g id="a_node27"><a xlink:href="_posix_2_thread_8h.html" target="_top" xlink:title=" ">
<polygon fill="white" stroke="black" points="1367.5,-319 1367.5,-338 1504.5,-338 1504.5,-319 1367.5,-319"/>
<text text-anchor="middle" x="1436" y="-326" font-family="Helvetica,sans-Serif" font-size="10.00">Cpl/System/Posix/Thread.h</text>
</a>
</g>
</g>
<!-- Node43&#45;&gt;Node46 -->
<g id="edge38" class="edge"><title>Node43&#45;&gt;Node46</title>
<path fill="none" stroke="midnightblue" d="M901.372,-385.033C1004.3,-379.011 1195.84,-365.888 1358,-344 1369.88,-342.397 1382.69,-340.209 1394.43,-338.019"/>
<polygon fill="midnightblue" stroke="midnightblue" points="901.17,-381.539 891.389,-385.611 901.574,-388.527 901.17,-381.539"/>
</g>
<!-- Node47 -->
<g id="node28" class="node"><title>Node47</title>
<g id="a_node28"><a xlink:href="_posix_2mappings___8h.html" target="_top" xlink:title="This file provides the mappings for Platform specific types, etc.">
<polygon fill="white" stroke="black" points="582,-319 582,-338 736,-338 736,-319 582,-319"/>
<text text-anchor="middle" x="659" y="-326" font-family="Helvetica,sans-Serif" font-size="10.00">Cpl/System/Posix/mappings_.h</text>
</a>
</g>
</g>
<!-- Node43&#45;&gt;Node47 -->
<g id="edge39" class="edge"><title>Node43&#45;&gt;Node47</title>
<path fill="none" stroke="midnightblue" d="M793.351,-377.083C760.695,-365.517 711.948,-348.252 683.026,-338.009"/>
<polygon fill="midnightblue" stroke="midnightblue" points="792.335,-380.436 802.93,-380.475 794.672,-373.837 792.335,-380.436"/>
</g>
<!-- Node48 -->
<g id="node29" class="node"><title>Node48</title>
<g id="a_node29"><a xlink:href="_r_p2040_2_thread_8h.html" target="_top" xlink:title=" ">
<polygon fill="white" stroke="black" points="754,-319 754,-338 900,-338 900,-319 754,-319"/>
<text text-anchor="middle" x="827" y="-326" font-family="Helvetica,sans-Serif" font-size="10.00">Cpl/System/RP2040/Thread.h</text>
</a>
</g>
</g>
<!-- Node43&#45;&gt;Node48 -->
<g id="edge40" class="edge"><title>Node43&#45;&gt;Node48</title>
<path fill="none" stroke="midnightblue" d="M827,-370.317C827,-359.496 827,-346.398 827,-338.009"/>
<polygon fill="midnightblue" stroke="midnightblue" points="823.5,-370.475 827,-380.475 830.5,-370.475 823.5,-370.475"/>
</g>
<!-- Node49 -->
<g id="node30" class="node"><title>Node49</title>
<g id="a_node30"><a xlink:href="_sim_tick_8h.html" target="_top" xlink:title=" ">
<polygon fill="white" stroke="black" points="448.5,-319 448.5,-338 563.5,-338 563.5,-319 448.5,-319"/>
<text text-anchor="middle" x="506" y="-326" font-family="Helvetica,sans-Serif" font-size="10.00">Cpl/System/SimTick.h</text>
</a>
</g>
</g>
<!-- Node43&#45;&gt;Node49 -->
<g id="edge41" class="edge"><title>Node43&#45;&gt;Node49</title>
<path fill="none" stroke="midnightblue" d="M765.352,-378.749C713.84,-370.022 638.501,-356.885 573,-344 563.658,-342.162 553.612,-340.057 544.214,-338.031"/>
<polygon fill="midnightblue" stroke="midnightblue" points="764.884,-382.219 775.327,-380.434 766.05,-375.317 764.884,-382.219"/>
</g>
<!-- Node50 -->
<g id="node31" class="node"><title>Node50</title>
<g id="a_node31"><a xlink:href="_win32_2_thread_8h.html" target="_top" xlink:title=" ">
<polygon fill="white" stroke="black" points="918.5,-319 918.5,-338 1057.5,-338 1057.5,-319 918.5,-319"/>
<text text-anchor="middle" x="988" y="-326" font-family="Helvetica,sans-Serif" font-size="10.00">Cpl/System/Win32/Thread.h</text>
</a>
</g>
</g>
<!-- Node43&#45;&gt;Node50 -->
<g id="edge42" class="edge"><title>Node43&#45;&gt;Node50</title>
<path fill="none" stroke="midnightblue" d="M859.652,-376.933C890.945,-365.368 937.378,-348.208 964.975,-338.009"/>
<polygon fill="midnightblue" stroke="midnightblue" points="858.234,-373.726 850.067,-380.475 860.661,-380.292 858.234,-373.726"/>
</g>
<!-- Node51&#45;&gt;Node6 -->
<g id="edge44" class="edge"><title>Node51&#45;&gt;Node6</title>
<path fill="none" stroke="midnightblue" d="M1601.01,-375.193C1586.54,-366.626 1567.89,-355.156 1552,-344 1533.88,-331.279 1533.64,-321.009 1513,-313 1388.69,-264.769 979.318,-261.603 831.683,-262.089"/>
<polygon fill="midnightblue" stroke="midnightblue" points="1599.45,-378.334 1609.85,-380.372 1602.99,-372.295 1599.45,-378.334"/>
</g>
<!-- Node51&#45;&gt;Node44 -->
<g id="edge48" class="edge"><title>Node51&#45;&gt;Node44</title>
<path fill="none" stroke="midnightblue" d="M1560.31,-384.329C1476.74,-377.797 1326.94,-364.395 1200,-344 1196.94,-343.509 1193.82,-342.968 1190.67,-342.393"/>
<polygon fill="midnightblue" stroke="midnightblue" points="1560.17,-387.829 1570.41,-385.11 1560.71,-380.849 1560.17,-387.829"/>
</g>
<!-- Node51&#45;&gt;Node45 -->
<g id="edge49" class="edge"><title>Node51&#45;&gt;Node45</title>
<path fill="none" stroke="midnightblue" d="M1562.9,-378.796C1508.76,-369.838 1428.13,-356.346 1358,-344 1347.29,-342.114 1335.77,-340.032 1324.93,-338.047"/>
<polygon fill="midnightblue" stroke="midnightblue" points="1562.59,-382.293 1573.03,-380.47 1563.73,-375.386 1562.59,-382.293"/>
</g>
<!-- Node51&#45;&gt;Node46 -->
<g id="edge51" class="edge"><title>Node51&#45;&gt;Node46</title>
<path fill="none" stroke="midnightblue" d="M1588.09,-377.381C1551.35,-365.815 1495.85,-348.341 1463.03,-338.009"/>
<polygon fill="midnightblue" stroke="midnightblue" points="1587.33,-380.811 1597.92,-380.475 1589.43,-374.134 1587.33,-380.811"/>
</g>
<!-- Node51&#45;&gt;Node48 -->
<g id="edge52" class="edge"><title>Node51&#45;&gt;Node48</title>
<path fill="none" stroke="midnightblue" d="M1560.24,-387.364C1434.37,-383.647 1148.08,-372.559 909,-344 896.224,-342.474 882.421,-340.256 869.848,-338.013"/>
<polygon fill="midnightblue" stroke="midnightblue" points="1560.37,-390.869 1570.47,-387.66 1560.57,-383.872 1560.37,-390.869"/>
</g>
<!-- Node51&#45;&gt;Node50 -->
<g id="edge58" class="edge"><title>Node51&#45;&gt;Node50</title>
<path fill="none" stroke="midnightblue" d="M1560.39,-385.974C1456.06,-380.601 1244.17,-367.667 1066,-344 1054.12,-342.422 1041.31,-340.242 1029.57,-338.051"/>
<polygon fill="midnightblue" stroke="midnightblue" points="1560.28,-389.474 1570.45,-386.486 1560.64,-382.483 1560.28,-389.474"/>
</g>
<!-- Node52 -->
<g id="node33" class="node"><title>Node52</title>
<g id="a_node33"><a xlink:href="_listener___8h.html" target="_top" xlink:title=" ">
<polygon fill="white" stroke="black" points="1561.5,-319 1561.5,-338 1688.5,-338 1688.5,-319 1561.5,-319"/>
<text text-anchor="middle" x="1625" y="-326" font-family="Helvetica,sans-Serif" font-size="10.00">Cpl/Io/Socket/Listener_.h</text>
</a>
</g>
</g>
<!-- Node51&#45;&gt;Node52 -->
<g id="edge45" class="edge"><title>Node51&#45;&gt;Node52</title>
<path fill="none" stroke="midnightblue" d="M1625,-370.317C1625,-359.496 1625,-346.398 1625,-338.009"/>
<polygon fill="midnightblue" stroke="midnightblue" points="1621.5,-370.475 1625,-380.475 1628.5,-370.475 1621.5,-370.475"/>
</g>
<!-- Node55 -->
<g id="node36" class="node"><title>Node55</title>
<g id="a_node36"><a xlink:href="_free_r_t_o_s_2_thread_8h.html" target="_top" xlink:title=" ">
<polygon fill="white" stroke="black" points="2447.5,-313.5 2447.5,-343.5 2564.5,-343.5 2564.5,-313.5 2447.5,-313.5"/>
<text text-anchor="start" x="2455.5" y="-331.5" font-family="Helvetica,sans-Serif" font-size="10.00">Cpl/System/FreeRTOS</text>
<text text-anchor="middle" x="2506" y="-320.5" font-family="Helvetica,sans-Serif" font-size="10.00">/Thread.h</text>
</a>
</g>
</g>
<!-- Node51&#45;&gt;Node55 -->
<g id="edge50" class="edge"><title>Node51&#45;&gt;Node55</title>
<path fill="none" stroke="midnightblue" d="M1689.9,-388.808C1828.11,-387.655 2161.46,-380.911 2438,-344 2441.11,-343.585 2444.29,-343.104 2447.49,-342.576"/>
<polygon fill="midnightblue" stroke="midnightblue" points="1689.48,-385.311 1679.5,-388.888 1689.53,-392.311 1689.48,-385.311"/>
</g>
<!-- Node56 -->
<g id="node37" class="node"><title>Node56</title>
<g id="a_node37"><a xlink:href="_system_2_trace_8h.html" target="_top" xlink:title=" ">
<polygon fill="white" stroke="black" points="1943,-319 1943,-338 2047,-338 2047,-319 1943,-319"/>
<text text-anchor="middle" x="1995" y="-326" font-family="Helvetica,sans-Serif" font-size="10.00">Cpl/System/Trace.h</text>
</a>
</g>
</g>
<!-- Node51&#45;&gt;Node56 -->
<g id="edge53" class="edge"><title>Node51&#45;&gt;Node56</title>
<path fill="none" stroke="midnightblue" d="M1689.87,-381.145C1752.38,-373.193 1849.51,-359.832 1933,-344 1942.01,-342.291 1951.7,-340.165 1960.68,-338.074"/>
<polygon fill="midnightblue" stroke="midnightblue" points="1689.24,-377.697 1679.76,-382.422 1690.12,-384.641 1689.24,-377.697"/>
</g>
<!-- Node61 -->
<g id="node42" class="node"><title>Node61</title>
<g id="a_node42"><a xlink:href="_threads_8h.html" target="_top" xlink:title=" ">
<polygon fill="white" stroke="black" points="2065.5,-319 2065.5,-338 2196.5,-338 2196.5,-319 2065.5,-319"/>
<text text-anchor="middle" x="2131" y="-326" font-family="Helvetica,sans-Serif" font-size="10.00">Cpl/TShell/Cmd/Threads.h</text>
</a>
</g>
</g>
<!-- Node51&#45;&gt;Node61 -->
<g id="edge59" class="edge"><title>Node51&#45;&gt;Node61</title>
<path fill="none" stroke="midnightblue" d="M1689.84,-383.999C1774.37,-377.075 1926.7,-363.212 2056,-344 2067.15,-342.343 2079.16,-340.188 2090.24,-338.048"/>
<polygon fill="midnightblue" stroke="midnightblue" points="1689.3,-380.531 1679.62,-384.829 1689.87,-387.508 1689.3,-380.531"/>
</g>
<!-- Node64 -->
<g id="node45" class="node"><title>Node64</title>
<g id="a_node45"><a xlink:href="_socket_8h.html" target="_top" xlink:title=" ">
<polygon fill="white" stroke="black" points="1707,-319 1707,-338 1811,-338 1811,-319 1707,-319"/>
<text text-anchor="middle" x="1759" y="-326" font-family="Helvetica,sans-Serif" font-size="10.00">Cpl/TShell/Socket.h</text>
</a>
</g>
</g>
<!-- Node51&#45;&gt;Node64 -->
<g id="edge62" class="edge"><title>Node51&#45;&gt;Node64</title>
<path fill="none" stroke="midnightblue" d="M1653.54,-376.327C1679.55,-364.776 1717.26,-348.032 1739.84,-338.009"/>
<polygon fill="midnightblue" stroke="midnightblue" points="1651.92,-373.218 1644.2,-380.475 1654.76,-379.616 1651.92,-373.218"/>
</g>
<!-- Node65 -->
<g id="node46" class="node"><title>Node65</title>
<g id="a_node46"><a xlink:href="_t_shell_2_stdio_8h.html" target="_top" xlink:title=" ">
<polygon fill="white" stroke="black" points="1829.5,-319 1829.5,-338 1924.5,-338 1924.5,-319 1829.5,-319"/>
<text text-anchor="middle" x="1877" y="-326" font-family="Helvetica,sans-Serif" font-size="10.00">Cpl/TShell/Stdio.h</text>
</a>
</g>
</g>
<!-- Node51&#45;&gt;Node65 -->
<g id="edge63" class="edge"><title>Node51&#45;&gt;Node65</title>
<path fill="none" stroke="midnightblue" d="M1673.07,-378.222C1712.58,-369.286 1769.99,-356.129 1820,-344 1827.74,-342.123 1836.06,-340.043 1843.88,-338.059"/>
<polygon fill="midnightblue" stroke="midnightblue" points="1672.16,-374.839 1663.17,-380.456 1673.7,-381.667 1672.16,-374.839"/>
</g>
<!-- Node66 -->
<g id="node47" class="node"><title>Node66</title>
<g id="a_node47"><a xlink:href="_receiver_8h.html" target="_top" xlink:title=" ">
<polygon fill="white" stroke="black" points="2331,-313.5 2331,-343.5 2429,-343.5 2429,-313.5 2331,-313.5"/>
<text text-anchor="start" x="2339" y="-331.5" font-family="Helvetica,sans-Serif" font-size="10.00">Driver/Uart/Stream</text>
<text text-anchor="middle" x="2380" y="-320.5" font-family="Helvetica,sans-Serif" font-size="10.00">/Receiver.h</text>
</a>
</g>
</g>
<!-- Node51&#45;&gt;Node66 -->
<g id="edge64" class="edge"><title>Node51&#45;&gt;Node66</title>
<path fill="none" stroke="midnightblue" d="M1689.64,-388.709C1813.23,-387.297 2091.26,-379.989 2322,-344 2324.87,-343.552 2327.81,-343.029 2330.76,-342.452"/>
<polygon fill="midnightblue" stroke="midnightblue" points="1689.55,-385.21 1679.59,-388.815 1689.63,-392.209 1689.55,-385.21"/>
</g>
<!-- Node69 -->
<g id="node50" class="node"><title>Node69</title>
<g id="a_node50"><a xlink:href="_transmitter_8h.html" target="_top" xlink:title=" ">
<polygon fill="white" stroke="black" points="2215,-313.5 2215,-343.5 2313,-343.5 2313,-313.5 2215,-313.5"/>
<text text-anchor="start" x="2223" y="-331.5" font-family="Helvetica,sans-Serif" font-size="10.00">Driver/Uart/Stream</text>
<text text-anchor="middle" x="2264" y="-320.5" font-family="Helvetica,sans-Serif" font-size="10.00">/Transmitter.h</text>
</a>
</g>
</g>
<!-- Node51&#45;&gt;Node69 -->
<g id="edge67" class="edge"><title>Node51&#45;&gt;Node69</title>
<path fill="none" stroke="midnightblue" d="M1689.78,-387.427C1797.39,-384.042 2019.52,-373.782 2205,-344 2208.23,-343.482 2211.54,-342.876 2214.87,-342.212"/>
<polygon fill="midnightblue" stroke="midnightblue" points="1689.61,-383.93 1679.73,-387.733 1689.83,-390.927 1689.61,-383.93"/>
</g>
<!-- Node53 -->
<g id="node34" class="node"><title>Node53</title>
<g id="a_node34"><a xlink:href="_posix_2_listener_8h.html" target="_top" xlink:title=" ">
<polygon fill="white" stroke="black" points="1630,-246.5 1630,-276.5 1734,-276.5 1734,-246.5 1630,-246.5"/>
<text text-anchor="start" x="1638" y="-264.5" font-family="Helvetica,sans-Serif" font-size="10.00">Cpl/Io/Socket/Posix</text>
<text text-anchor="middle" x="1682" y="-253.5" font-family="Helvetica,sans-Serif" font-size="10.00">/Listener.h</text>
</a>
</g>
</g>
<!-- Node52&#45;&gt;Node53 -->
<g id="edge46" class="edge"><title>Node52&#45;&gt;Node53</title>
<path fill="none" stroke="midnightblue" d="M1639.48,-310.989C1648.8,-300.364 1660.78,-286.702 1669.65,-276.589"/>
<polygon fill="midnightblue" stroke="midnightblue" points="1636.65,-308.908 1632.69,-318.734 1641.91,-313.523 1636.65,-308.908"/>
</g>
<!-- Node54 -->
<g id="node35" class="node"><title>Node54</title>
<g id="a_node35"><a xlink:href="_win32_2_listener_8h.html" target="_top" xlink:title=" ">
<polygon fill="white" stroke="black" points="1506,-246.5 1506,-276.5 1612,-276.5 1612,-246.5 1506,-246.5"/>
<text text-anchor="start" x="1514" y="-264.5" font-family="Helvetica,sans-Serif" font-size="10.00">Cpl/Io/Socket/Win32</text>
<text text-anchor="middle" x="1559" y="-253.5" font-family="Helvetica,sans-Serif" font-size="10.00">/Listener.h</text>
</a>
</g>
</g>
<!-- Node52&#45;&gt;Node54 -->
<g id="edge47" class="edge"><title>Node52&#45;&gt;Node54</title>
<path fill="none" stroke="midnightblue" d="M1608.87,-311.617C1598,-300.907 1583.78,-286.902 1573.31,-276.589"/>
<polygon fill="midnightblue" stroke="midnightblue" points="1606.52,-314.211 1616.1,-318.734 1611.43,-309.223 1606.52,-314.211"/>
</g>
<!-- Node57 -->
<g id="node38" class="node"><title>Node57</title>
<g id="a_node38"><a xlink:href="helpers_8h.html" target="_top" xlink:title="This file defines helper functions/interface for writing unit tests.">
<polygon fill="white" stroke="black" points="1947.5,-252 1947.5,-271 2032.5,-271 2032.5,-252 1947.5,-252"/>
<text text-anchor="middle" x="1990" y="-259" font-family="Helvetica,sans-Serif" font-size="10.00">Catch/helpers.h</text>
</a>
</g>
</g>
<!-- Node56&#45;&gt;Node57 -->
<g id="edge54" class="edge"><title>Node56&#45;&gt;Node57</title>
<path fill="none" stroke="midnightblue" d="M1993.54,-308.537C1992.59,-296.17 1991.39,-280.62 1990.66,-271.127"/>
<polygon fill="midnightblue" stroke="midnightblue" points="1990.07,-309.032 1994.33,-318.734 1997.05,-308.495 1990.07,-309.032"/>
</g>
<!-- Node58 -->
<g id="node39" class="node"><title>Node58</title>
<g id="a_node39"><a xlink:href="_system_2_private___8h.html" target="_top" xlink:title="This file contains a collection of classes, interfaces, etc.">
<polygon fill="white" stroke="black" points="1814.5,-252 1814.5,-271 1929.5,-271 1929.5,-252 1814.5,-252"/>
<text text-anchor="middle" x="1872" y="-259" font-family="Helvetica,sans-Serif" font-size="10.00">Cpl/System/Private_.h</text>
</a>
</g>
</g>
<!-- Node56&#45;&gt;Node58 -->
<g id="edge55" class="edge"><title>Node56&#45;&gt;Node58</title>
<path fill="none" stroke="midnightblue" d="M1969.65,-314.103C1945.29,-301.231 1909.2,-282.16 1888.4,-271.167"/>
<polygon fill="midnightblue" stroke="midnightblue" points="1968.19,-317.291 1978.67,-318.869 1971.46,-311.102 1968.19,-317.291"/>
</g>
<!-- Node59 -->
<g id="node40" class="node"><title>Node59</title>
<g id="a_node40"><a xlink:href="_maker_8h.html" target="_top" xlink:title=" ">
<polygon fill="white" stroke="black" points="1756,-185 1756,-204 1856,-204 1856,-185 1756,-185"/>
<text text-anchor="middle" x="1806" y="-192" font-family="Helvetica,sans-Serif" font-size="10.00">Cpl/TShell/Maker.h</text>
</a>
</g>
</g>
<!-- Node58&#45;&gt;Node59 -->
<g id="edge56" class="edge"><title>Node58&#45;&gt;Node59</title>
<path fill="none" stroke="midnightblue" d="M1855.75,-244.497C1842.81,-231.75 1825.19,-214.395 1814.76,-204.127"/>
<polygon fill="midnightblue" stroke="midnightblue" points="1853.52,-247.211 1863.1,-251.734 1858.43,-242.223 1853.52,-247.211"/>
</g>
<!-- Node60 -->
<g id="node41" class="node"><title>Node60</title>
<g id="a_node41"><a xlink:href="_polled_maker_8h.html" target="_top" xlink:title=" ">
<polygon fill="white" stroke="black" points="1874.5,-185 1874.5,-204 2001.5,-204 2001.5,-185 1874.5,-185"/>
<text text-anchor="middle" x="1938" y="-192" font-family="Helvetica,sans-Serif" font-size="10.00">Cpl/TShell/PolledMaker.h</text>
</a>
</g>
</g>
<!-- Node58&#45;&gt;Node60 -->
<g id="edge57" class="edge"><title>Node58&#45;&gt;Node60</title>
<path fill="none" stroke="midnightblue" d="M1888.25,-244.497C1901.19,-231.75 1918.81,-214.395 1929.24,-204.127"/>
<polygon fill="midnightblue" stroke="midnightblue" points="1885.57,-242.223 1880.9,-251.734 1890.48,-247.211 1885.57,-242.223"/>
</g>
<!-- Node62 -->
<g id="node43" class="node"><title>Node62</title>
<g id="a_node43"><a xlink:href="_free_r_t_o_s_2_threads_8h.html" target="_top" xlink:title=" ">
<polygon fill="white" stroke="black" points="2184,-246.5 2184,-276.5 2318,-276.5 2318,-246.5 2184,-246.5"/>
<text text-anchor="start" x="2192" y="-264.5" font-family="Helvetica,sans-Serif" font-size="10.00">Cpl/TShell/Cmd/FreeRTOS</text>
<text text-anchor="middle" x="2251" y="-253.5" font-family="Helvetica,sans-Serif" font-size="10.00">/Threads.h</text>
</a>
</g>
</g>
<!-- Node61&#45;&gt;Node62 -->
<g id="edge60" class="edge"><title>Node61&#45;&gt;Node62</title>
<path fill="none" stroke="midnightblue" d="M2156.1,-313.902C2176.29,-302.966 2204.56,-287.653 2224.99,-276.589"/>
<polygon fill="midnightblue" stroke="midnightblue" points="2154.31,-310.893 2147.18,-318.734 2157.64,-317.048 2154.31,-310.893"/>
</g>
<!-- Node63 -->
<g id="node44" class="node"><title>Node63</title>
<g id="a_node44"><a xlink:href="_win32_2_threads_8h.html" target="_top" xlink:title=" ">
<polygon fill="white" stroke="black" points="2050.5,-246.5 2050.5,-276.5 2165.5,-276.5 2165.5,-246.5 2050.5,-246.5"/>
<text text-anchor="start" x="2058.5" y="-264.5" font-family="Helvetica,sans-Serif" font-size="10.00">Cpl/TShell/Cmd/Win32</text>
<text text-anchor="middle" x="2108" y="-253.5" font-family="Helvetica,sans-Serif" font-size="10.00">/Threads.h</text>
</a>
</g>
</g>
<!-- Node61&#45;&gt;Node63 -->
<g id="edge61" class="edge"><title>Node61&#45;&gt;Node63</title>
<path fill="none" stroke="midnightblue" d="M2124.48,-309.065C2120.83,-298.753 2116.35,-286.101 2112.99,-276.589"/>
<polygon fill="midnightblue" stroke="midnightblue" points="2121.26,-310.474 2127.9,-318.734 2127.86,-308.139 2121.26,-310.474"/>
</g>
<!-- Node67 -->
<g id="node48" class="node"><title>Node67</title>
<g id="a_node48"><a xlink:href="_driver_2_uart_2_stream_2_input_output___8h.html" target="_top" xlink:title=" ">
<polygon fill="white" stroke="black" points="2336,-246.5 2336,-276.5 2434,-276.5 2434,-246.5 2336,-246.5"/>
<text text-anchor="start" x="2344" y="-264.5" font-family="Helvetica,sans-Serif" font-size="10.00">Driver/Uart/Stream</text>
<text text-anchor="middle" x="2385" y="-253.5" font-family="Helvetica,sans-Serif" font-size="10.00">/InputOutput_.h</text>
</a>
</g>
</g>
<!-- Node66&#45;&gt;Node67 -->
<g id="edge65" class="edge"><title>Node66&#45;&gt;Node67</title>
<path fill="none" stroke="midnightblue" d="M2381.85,-303.403C2382.55,-294.37 2383.31,-284.408 2383.92,-276.577"/>
<polygon fill="midnightblue" stroke="midnightblue" points="2378.36,-303.157 2381.08,-313.396 2385.34,-303.694 2378.36,-303.157"/>
</g>
<!-- Node68 -->
<g id="node49" class="node"><title>Node68</title>
<g id="a_node49"><a xlink:href="_serial_2_renesas_2_rx62n_2_input_output_8h.html" target="_top" xlink:title=" ">
<polygon fill="white" stroke="black" points="2329.5,-179.5 2329.5,-209.5 2440.5,-209.5 2440.5,-179.5 2329.5,-179.5"/>
<text text-anchor="start" x="2337.5" y="-197.5" font-family="Helvetica,sans-Serif" font-size="10.00">Cpl/Io/Serial/Renesas</text>
<text text-anchor="middle" x="2385" y="-186.5" font-family="Helvetica,sans-Serif" font-size="10.00">/Rx62n/InputOutput.h</text>
</a>
</g>
</g>
<!-- Node67&#45;&gt;Node68 -->
<g id="edge66" class="edge"><title>Node67&#45;&gt;Node68</title>
<path fill="none" stroke="midnightblue" d="M2385,-236.108C2385,-227.154 2385,-217.323 2385,-209.577"/>
<polygon fill="midnightblue" stroke="midnightblue" points="2381.5,-236.396 2385,-246.396 2388.5,-236.396 2381.5,-236.396"/>
</g>
<!-- Node69&#45;&gt;Node67 -->
<g id="edge68" class="edge"><title>Node69&#45;&gt;Node67</title>
<path fill="none" stroke="midnightblue" d="M2299.23,-308.575C2318.26,-298.35 2341.37,-285.94 2358.8,-276.577"/>
<polygon fill="midnightblue" stroke="midnightblue" points="2297.41,-305.58 2290.26,-313.396 2300.72,-311.747 2297.41,-305.58"/>
</g>
</g>
</svg>
