<?xml version="1.0" encoding="UTF-8" standalone="no"?>
<!DOCTYPE svg PUBLIC "-//W3C//DTD SVG 1.1//EN"
 "http://www.w3.org/Graphics/SVG/1.1/DTD/svg11.dtd">
<!-- Generated by graphviz version 2.38.0 (20140413.2041)
 -->
<!-- Title: Cpl/System/Signable.h Pages: 1 -->
<svg width="2656pt" height="397pt"
 viewBox="0.00 0.00 2655.50 397.00" xmlns="http://www.w3.org/2000/svg" xmlns:xlink="http://www.w3.org/1999/xlink">
<g id="graph0" class="graph" transform="scale(1 1) rotate(0) translate(4 393)">
<title>Cpl/System/Signable.h</title>
<polygon fill="white" stroke="none" points="-4,4 -4,-393 2651.5,-393 2651.5,4 -4,4"/>
<!-- Node1 -->
<g id="node1" class="node"><title>Node1</title>
<g id="a_node1"><a xlink:title=" ">
<polygon fill="#bfbfbf" stroke="black" points="568,-369.5 568,-388.5 684,-388.5 684,-369.5 568,-369.5"/>
<text text-anchor="middle" x="626" y="-376.5" font-family="Helvetica,sans-Serif" font-size="10.00">Cpl/System/Signable.h</text>
</a>
</g>
</g>
<!-- Node2 -->
<g id="node2" class="node"><title>Node2</title>
<g id="a_node2"><a xlink:href="_sync_return_handler_8h.html" target="_top" xlink:title=" ">
<polygon fill="white" stroke="black" points="53,-313.5 53,-332.5 193,-332.5 193,-313.5 53,-313.5"/>
<text text-anchor="middle" x="123" y="-320.5" font-family="Helvetica,sans-Serif" font-size="10.00">Cpl/Itc/SyncReturnHandler.h</text>
</a>
</g>
</g>
<!-- Node1&#45;&gt;Node2 -->
<g id="edge1" class="edge"><title>Node1&#45;&gt;Node2</title>
<path fill="none" stroke="midnightblue" d="M557.681,-370.666C462.165,-360.411 289.615,-341.887 193.134,-331.529"/>
<polygon fill="midnightblue" stroke="midnightblue" points="557.492,-374.165 567.808,-371.753 558.239,-367.205 557.492,-374.165"/>
</g>
<!-- Node5 -->
<g id="node5" class="node"><title>Node5</title>
<g id="a_node5"><a xlink:href="_system_2_event_loop_8h.html" target="_top" xlink:title=" ">
<polygon fill="white" stroke="black" points="202.5,-252 202.5,-271 327.5,-271 327.5,-252 202.5,-252"/>
<text text-anchor="middle" x="265" y="-259" font-family="Helvetica,sans-Serif" font-size="10.00">Cpl/System/EventLoop.h</text>
</a>
</g>
</g>
<!-- Node1&#45;&gt;Node5 -->
<g id="edge5" class="edge"><title>Node1&#45;&gt;Node5</title>
<path fill="none" stroke="midnightblue" d="M589.529,-366.331C516.974,-343.118 356.024,-291.623 292.015,-271.143"/>
<polygon fill="midnightblue" stroke="midnightblue" points="588.57,-369.699 599.161,-369.413 590.703,-363.032 588.57,-369.699"/>
</g>
<!-- Node82 -->
<g id="node23" class="node"><title>Node82</title>
<g id="a_node23"><a xlink:href="_semaphore_8h.html" target="_top" xlink:title=" ">
<polygon fill="white" stroke="black" points="714,-313.5 714,-332.5 842,-332.5 842,-313.5 714,-313.5"/>
<text text-anchor="middle" x="778" y="-320.5" font-family="Helvetica,sans-Serif" font-size="10.00">Cpl/System/Semaphore.h</text>
</a>
</g>
</g>
<!-- Node1&#45;&gt;Node82 -->
<g id="edge27" class="edge"><title>Node1&#45;&gt;Node82</title>
<path fill="none" stroke="midnightblue" d="M659.668,-366.039C688.268,-355.879 728.612,-341.546 754.028,-332.516"/>
<polygon fill="midnightblue" stroke="midnightblue" points="658.336,-362.798 650.085,-369.444 660.68,-369.394 658.336,-362.798"/>
</g>
<!-- Node91 -->
<g id="node32" class="node"><title>Node91</title>
<g id="a_node32"><a xlink:href="_thread_8h.html" target="_top" xlink:title=" ">
<polygon fill="white" stroke="black" points="1635.5,-313.5 1635.5,-332.5 1744.5,-332.5 1744.5,-313.5 1635.5,-313.5"/>
<text text-anchor="middle" x="1690" y="-320.5" font-family="Helvetica,sans-Serif" font-size="10.00">Cpl/System/Thread.h</text>
</a>
</g>
</g>
<!-- Node1&#45;&gt;Node91 -->
<g id="edge37" class="edge"><title>Node1&#45;&gt;Node91</title>
<path fill="none" stroke="midnightblue" d="M694.559,-374.521C891.591,-364.521 1456.73,-335.839 1635.26,-326.778"/>
<polygon fill="midnightblue" stroke="midnightblue" points="694.15,-371.037 684.34,-375.039 694.505,-378.028 694.15,-371.037"/>
</g>
<!-- Node3 -->
<g id="node3" class="node"><title>Node3</title>
<g id="a_node3"><a xlink:href="_atomic_request_8h.html" target="_top" xlink:title=" ">
<polygon fill="white" stroke="black" points="61.5,-252 61.5,-271 184.5,-271 184.5,-252 61.5,-252"/>
<text text-anchor="middle" x="123" y="-259" font-family="Helvetica,sans-Serif" font-size="10.00">Cpl/Itc/AtomicRequest.h</text>
</a>
</g>
</g>
<!-- Node2&#45;&gt;Node3 -->
<g id="edge2" class="edge"><title>Node2&#45;&gt;Node3</title>
<path fill="none" stroke="midnightblue" d="M123,-303.317C123,-292.496 123,-279.398 123,-271.009"/>
<polygon fill="midnightblue" stroke="midnightblue" points="119.5,-303.475 123,-313.475 126.5,-303.475 119.5,-303.475"/>
</g>
<!-- Node4 -->
<g id="node4" class="node"><title>Node4</title>
<g id="a_node4"><a xlink:href="_atomic_sync_8h.html" target="_top" xlink:title=" ">
<polygon fill="white" stroke="black" points="0,-185 0,-204 110,-204 110,-185 0,-185"/>
<text text-anchor="middle" x="55" y="-192" font-family="Helvetica,sans-Serif" font-size="10.00">Cpl/Itc/AtomicSync.h</text>
</a>
</g>
</g>
<!-- Node2&#45;&gt;Node4 -->
<g id="edge4" class="edge"><title>Node2&#45;&gt;Node4</title>
<path fill="none" stroke="midnightblue" d="M88.4033,-308.921C74.4856,-301.747 59.8872,-291.337 52,-277 38.9648,-253.305 47.0505,-219.6 51.9969,-204.012"/>
<polygon fill="midnightblue" stroke="midnightblue" points="87.3022,-312.272 97.839,-313.378 90.2922,-305.942 87.3022,-312.272"/>
</g>
<!-- Node3&#45;&gt;Node4 -->
<g id="edge3" class="edge"><title>Node3&#45;&gt;Node4</title>
<path fill="none" stroke="midnightblue" d="M106.258,-244.497C92.9226,-231.75 74.7667,-214.395 64.0255,-204.127"/>
<polygon fill="midnightblue" stroke="midnightblue" points="104.182,-247.354 113.829,-251.734 109.019,-242.294 104.182,-247.354"/>
</g>
<!-- Node6 -->
<g id="node6" class="node"><title>Node6</title>
<g id="a_node6"><a xlink:href="_dm_2_event_loop_8h.html" target="_top" xlink:title=" ">
<polygon fill="white" stroke="black" points="1419.5,-185 1419.5,-204 1526.5,-204 1526.5,-185 1419.5,-185"/>
<text text-anchor="middle" x="1473" y="-192" font-family="Helvetica,sans-Serif" font-size="10.00">Cpl/Dm/EventLoop.h</text>
</a>
</g>
</g>
<!-- Node5&#45;&gt;Node6 -->
<g id="edge6" class="edge"><title>Node5&#45;&gt;Node6</title>
<path fill="none" stroke="midnightblue" d="M311.156,-249.982C319.393,-248.418 327.922,-246.998 336,-246 750.751,-194.76 1256.26,-193.717 1419.47,-194.902"/>
<polygon fill="midnightblue" stroke="midnightblue" points="310.428,-246.558 301.304,-251.943 311.795,-253.423 310.428,-246.558"/>
</g>
<!-- Node78 -->
<g id="node19" class="node"><title>Node78</title>
<g id="a_node19"><a xlink:href="_mailbox_8h.html" target="_top" xlink:title=" ">
<polygon fill="white" stroke="black" points="350,-185 350,-204 440,-204 440,-185 350,-185"/>
<text text-anchor="middle" x="395" y="-192" font-family="Helvetica,sans-Serif" font-size="10.00">Cpl/Itc/Mailbox.h</text>
</a>
</g>
</g>
<!-- Node5&#45;&gt;Node78 -->
<g id="edge21" class="edge"><title>Node5&#45;&gt;Node78</title>
<path fill="none" stroke="midnightblue" d="M291.452,-247.274C317.2,-234.4 355.583,-215.209 377.666,-204.167"/>
<polygon fill="midnightblue" stroke="midnightblue" points="289.642,-244.266 282.263,-251.869 292.773,-250.527 289.642,-244.266"/>
</g>
<!-- Node79 -->
<g id="node20" class="node"><title>Node79</title>
<g id="a_node20"><a xlink:href="_itc_2_mailbox_server_8h.html" target="_top" xlink:title=" ">
<polygon fill="white" stroke="black" points="299.5,-123.5 299.5,-142.5 418.5,-142.5 418.5,-123.5 299.5,-123.5"/>
<text text-anchor="middle" x="359" y="-130.5" font-family="Helvetica,sans-Serif" font-size="10.00">Cpl/Itc/MailboxServer.h</text>
</a>
</g>
</g>
<!-- Node5&#45;&gt;Node79 -->
<g id="edge25" class="edge"><title>Node5&#45;&gt;Node79</title>
<path fill="none" stroke="midnightblue" d="M277.543,-243.62C297.803,-216.356 337.019,-163.581 352.494,-142.756"/>
<polygon fill="midnightblue" stroke="midnightblue" points="274.616,-241.691 271.461,-251.805 280.235,-245.866 274.616,-241.691"/>
</g>
<!-- Node81 -->
<g id="node22" class="node"><title>Node81</title>
<g id="a_node22"><a xlink:href="_house_8h_source.html" target="_top" xlink:title=" ">
<polygon fill="white" stroke="black" points="150.5,-179.5 150.5,-209.5 293.5,-209.5 293.5,-179.5 150.5,-179.5"/>
<text text-anchor="start" x="158.5" y="-197.5" font-family="Helvetica,sans-Serif" font-size="10.00">Storm/Thermostat/SimHouse</text>
<text text-anchor="middle" x="222" y="-186.5" font-family="Helvetica,sans-Serif" font-size="10.00">/House.h</text>
</a>
</g>
</g>
<!-- Node5&#45;&gt;Node81 -->
<g id="edge26" class="edge"><title>Node5&#45;&gt;Node81</title>
<path fill="none" stroke="midnightblue" d="M253.658,-243.355C246.692,-232.824 237.878,-219.502 231.32,-209.589"/>
<polygon fill="midnightblue" stroke="midnightblue" points="250.764,-245.325 259.201,-251.734 256.602,-241.463 250.764,-245.325"/>
</g>
<!-- Node7 -->
<g id="node7" class="node"><title>Node7</title>
<g id="a_node7"><a xlink:href="_dm_2_mailbox_server_8h.html" target="_top" xlink:title=" ">
<polygon fill="white" stroke="black" points="1371,-123.5 1371,-142.5 1493,-142.5 1493,-123.5 1371,-123.5"/>
<text text-anchor="middle" x="1432" y="-130.5" font-family="Helvetica,sans-Serif" font-size="10.00">Cpl/Dm/MailboxServer.h</text>
</a>
</g>
</g>
<!-- Node6&#45;&gt;Node7 -->
<g id="edge7" class="edge"><title>Node6&#45;&gt;Node7</title>
<path fill="none" stroke="midnightblue" d="M1461.29,-176.505C1453.63,-165.388 1443.95,-151.34 1437.86,-142.509"/>
<polygon fill="midnightblue" stroke="midnightblue" points="1458.57,-178.727 1467.13,-184.975 1464.33,-174.755 1458.57,-178.727"/>
</g>
<!-- Node27 -->
<g id="node15" class="node"><title>Node27</title>
<g id="a_node15"><a xlink:href="_subscriber_8h.html" target="_top" xlink:title=" ">
<polygon fill="white" stroke="black" points="1955.5,-123.5 1955.5,-142.5 2062.5,-142.5 2062.5,-123.5 1955.5,-123.5"/>
<text text-anchor="middle" x="2009" y="-130.5" font-family="Helvetica,sans-Serif" font-size="10.00">Cpl/Dm/Subscriber.h</text>
</a>
</g>
</g>
<!-- Node6&#45;&gt;Node27 -->
<g id="edge16" class="edge"><title>Node6&#45;&gt;Node27</title>
<path fill="none" stroke="midnightblue" d="M1536.63,-183.558C1547.74,-181.945 1559.2,-180.36 1570,-179 1708.54,-161.555 1872.32,-146.141 1955.18,-138.709"/>
<polygon fill="midnightblue" stroke="midnightblue" points="1535.94,-180.122 1526.56,-185.041 1536.96,-187.047 1535.94,-180.122"/>
</g>
<!-- Node8 -->
<g id="node8" class="node"><title>Node8</title>
<g id="a_node8"><a xlink:href="_dm_2_periodic_scheduler_8h.html" target="_top" xlink:title=" ">
<polygon fill="white" stroke="black" points="1727.5,-67.5 1727.5,-86.5 1866.5,-86.5 1866.5,-67.5 1727.5,-67.5"/>
<text text-anchor="middle" x="1797" y="-74.5" font-family="Helvetica,sans-Serif" font-size="10.00">Cpl/Dm/PeriodicScheduler.h</text>
</a>
</g>
</g>
<!-- Node7&#45;&gt;Node8 -->
<g id="edge8" class="edge"><title>Node7&#45;&gt;Node8</title>
<path fill="none" stroke="midnightblue" d="M1499.73,-121.979C1568.68,-111.779 1674.41,-96.1372 1739.44,-86.5164"/>
<polygon fill="midnightblue" stroke="midnightblue" points="1499.22,-118.518 1489.84,-123.444 1500.24,-125.442 1499.22,-118.518"/>
</g>
<!-- Node9 -->
<g id="node9" class="node"><title>Node9</title>
<g id="a_node9"><a xlink:href="_chunk_8h.html" target="_top" xlink:title=" ">
<polygon fill="white" stroke="red" points="1047.5,-67.5 1047.5,-86.5 1164.5,-86.5 1164.5,-67.5 1047.5,-67.5"/>
<text text-anchor="middle" x="1106" y="-74.5" font-family="Helvetica,sans-Serif" font-size="10.00">Cpl/Persistent/Chunk.h</text>
</a>
</g>
</g>
<!-- Node7&#45;&gt;Node9 -->
<g id="edge9" class="edge"><title>Node7&#45;&gt;Node9</title>
<path fill="none" stroke="midnightblue" d="M1370.37,-121.791C1308.77,-111.587 1215.14,-96.078 1157.41,-86.5164"/>
<polygon fill="midnightblue" stroke="midnightblue" points="1369.91,-125.262 1380.34,-123.444 1371.05,-118.356 1369.91,-125.262"/>
</g>
<!-- Node20 -->
<g id="node10" class="node"><title>Node20</title>
<g id="a_node10"><a xlink:href="_persistent_2_record_8h.html" target="_top" xlink:title=" ">
<polygon fill="white" stroke="red" points="1183,-67.5 1183,-86.5 1303,-86.5 1303,-67.5 1183,-67.5"/>
<text text-anchor="middle" x="1243" y="-74.5" font-family="Helvetica,sans-Serif" font-size="10.00">Cpl/Persistent/Record.h</text>
</a>
</g>
</g>
<!-- Node7&#45;&gt;Node20 -->
<g id="edge10" class="edge"><title>Node7&#45;&gt;Node20</title>
<path fill="none" stroke="midnightblue" d="M1391.99,-120.568C1356.33,-110.381 1304.96,-95.7034 1272.81,-86.5164"/>
<polygon fill="midnightblue" stroke="midnightblue" points="1391.48,-124.062 1402.05,-123.444 1393.4,-117.331 1391.48,-124.062"/>
</g>
<!-- Node21 -->
<g id="node11" class="node"><title>Node21</title>
<g id="a_node11"><a xlink:href="_record_server_8h.html" target="_top" xlink:title=" ">
<polygon fill="white" stroke="red" points="1212.5,-6 1212.5,-25 1361.5,-25 1361.5,-6 1212.5,-6"/>
<text text-anchor="middle" x="1287" y="-13" font-family="Helvetica,sans-Serif" font-size="10.00">Cpl/Persistent/RecordServer.h</text>
</a>
</g>
</g>
<!-- Node7&#45;&gt;Node21 -->
<g id="edge12" class="edge"><title>Node7&#45;&gt;Node21</title>
<path fill="none" stroke="midnightblue" d="M1402.84,-119.025C1386.47,-111.021 1366.15,-99.8408 1350,-87 1326.1,-67.9997 1303.67,-39.3928 1293.19,-25.1689"/>
<polygon fill="midnightblue" stroke="midnightblue" points="1401.43,-122.229 1411.96,-123.359 1404.43,-115.906 1401.43,-122.229"/>
</g>
<!-- Node22 -->
<g id="node12" class="node"><title>Node22</title>
<g id="a_node12"><a xlink:href="_region_media_8h.html" target="_top" xlink:title=" ">
<polygon fill="white" stroke="red" points="1359,-67.5 1359,-86.5 1505,-86.5 1505,-67.5 1359,-67.5"/>
<text text-anchor="middle" x="1432" y="-74.5" font-family="Helvetica,sans-Serif" font-size="10.00">Cpl/Persistent/RegionMedia.h</text>
</a>
</g>
</g>
<!-- Node7&#45;&gt;Node22 -->
<g id="edge13" class="edge"><title>Node7&#45;&gt;Node22</title>
<path fill="none" stroke="midnightblue" d="M1432,-112.805C1432,-103.91 1432,-93.7798 1432,-86.7511"/>
<polygon fill="midnightblue" stroke="midnightblue" points="1428.5,-113.083 1432,-123.083 1435.5,-113.083 1428.5,-113.083"/>
</g>
<!-- Node25 -->
<g id="node13" class="node"><title>Node25</title>
<g id="a_node13"><a xlink:href="_algorithm_8h.html" target="_top" xlink:title=" ">
<polygon fill="white" stroke="black" points="1523,-67.5 1523,-86.5 1671,-86.5 1671,-67.5 1523,-67.5"/>
<text text-anchor="middle" x="1597" y="-74.5" font-family="Helvetica,sans-Serif" font-size="10.00">Storm/Thermostat/Algorithm.h</text>
</a>
</g>
</g>
<!-- Node7&#45;&gt;Node25 -->
<g id="edge14" class="edge"><title>Node7&#45;&gt;Node25</title>
<path fill="none" stroke="midnightblue" d="M1467.74,-120.304C1498.83,-110.129 1543.15,-95.6246 1570.98,-86.5164"/>
<polygon fill="midnightblue" stroke="midnightblue" points="1466.56,-117.007 1458.14,-123.444 1468.74,-123.659 1466.56,-117.007"/>
</g>
<!-- Node26 -->
<g id="node14" class="node"><title>Node26</title>
<g id="a_node14"><a xlink:href="_event_monitor_8h_source.html" target="_top" xlink:title=" ">
<polygon fill="white" stroke="black" points="1890,-0.5 1890,-30.5 2030,-30.5 2030,-0.5 1890,-0.5"/>
<text text-anchor="start" x="1898" y="-18.5" font-family="Helvetica,sans-Serif" font-size="10.00">Storm/Thermostat/Ui</text>
<text text-anchor="middle" x="1960" y="-7.5" font-family="Helvetica,sans-Serif" font-size="10.00">/PicoDisplay/EventMonitor.h</text>
</a>
</g>
</g>
<!-- Node7&#45;&gt;Node26 -->
<g id="edge15" class="edge"><title>Node7&#45;&gt;Node26</title>
<path fill="none" stroke="midnightblue" d="M1503.27,-124.712C1553.61,-118.213 1622.13,-106.607 1680,-87 1698.45,-80.7491 1700.64,-73.4999 1719,-67 1774.91,-47.2081 1841.01,-34.0357 1889.83,-26.1213"/>
<polygon fill="midnightblue" stroke="midnightblue" points="1502.62,-121.266 1493.14,-125.984 1503.5,-128.212 1502.62,-121.266"/>
</g>
<!-- Node20&#45;&gt;Node21 -->
<g id="edge11" class="edge"><title>Node20&#45;&gt;Node21</title>
<path fill="none" stroke="midnightblue" d="M1255.32,-59.3377C1263.58,-48.1694 1274.11,-33.9278 1280.71,-25.0091"/>
<polygon fill="midnightblue" stroke="midnightblue" points="1252.44,-57.3537 1249.3,-67.4751 1258.06,-61.5158 1252.44,-57.3537"/>
</g>
<!-- Node28 -->
<g id="node16" class="node"><title>Node28</title>
<g id="a_node16"><a xlink:href="_model_point_common___8h.html" target="_top" xlink:title=" ">
<polygon fill="white" stroke="red" points="2053.5,-67.5 2053.5,-86.5 2206.5,-86.5 2206.5,-67.5 2053.5,-67.5"/>
<text text-anchor="middle" x="2130" y="-74.5" font-family="Helvetica,sans-Serif" font-size="10.00">Cpl/Dm/ModelPointCommon_.h</text>
</a>
</g>
</g>
<!-- Node27&#45;&gt;Node28 -->
<g id="edge17" class="edge"><title>Node27&#45;&gt;Node28</title>
<path fill="none" stroke="midnightblue" d="M2037.31,-119.368C2059.97,-109.255 2091.13,-95.3486 2110.92,-86.5164"/>
<polygon fill="midnightblue" stroke="midnightblue" points="2035.88,-116.172 2028.17,-123.444 2038.73,-122.564 2035.88,-116.172"/>
</g>
<!-- Node77 -->
<g id="node17" class="node"><title>Node77</title>
<g id="a_node17"><a xlink:href="_subscriber_composer_8h.html" target="_top" xlink:title=" ">
<polygon fill="white" stroke="red" points="1884.5,-67.5 1884.5,-86.5 2035.5,-86.5 2035.5,-67.5 1884.5,-67.5"/>
<text text-anchor="middle" x="1960" y="-74.5" font-family="Helvetica,sans-Serif" font-size="10.00">Cpl/Dm/SubscriberComposer.h</text>
</a>
</g>
</g>
<!-- Node27&#45;&gt;Node77 -->
<g id="edge18" class="edge"><title>Node27&#45;&gt;Node77</title>
<path fill="none" stroke="midnightblue" d="M1993.97,-115.431C1985.38,-105.967 1974.96,-94.4827 1967.94,-86.7511"/>
<polygon fill="midnightblue" stroke="midnightblue" points="1991.6,-118.029 2000.91,-123.083 1996.78,-113.325 1991.6,-118.029"/>
</g>
<!-- Node52 -->
<g id="node18" class="node"><title>Node52</title>
<g id="a_node18"><a xlink:href="_mp_thermostat_mode_8h.html" target="_top" xlink:title=" ">
<polygon fill="white" stroke="red" points="2224.5,-67.5 2224.5,-86.5 2383.5,-86.5 2383.5,-67.5 2224.5,-67.5"/>
<text text-anchor="middle" x="2304" y="-74.5" font-family="Helvetica,sans-Serif" font-size="10.00">Storm/Dm/MpThermostatMode.h</text>
</a>
</g>
</g>
<!-- Node27&#45;&gt;Node52 -->
<g id="edge20" class="edge"><title>Node27&#45;&gt;Node52</title>
<path fill="none" stroke="midnightblue" d="M2065.81,-121.601C2121.56,-111.395 2205.56,-96.0189 2257.48,-86.5164"/>
<polygon fill="midnightblue" stroke="midnightblue" points="2064.95,-118.2 2055.74,-123.444 2066.21,-125.086 2064.95,-118.2"/>
</g>
<!-- Node77&#45;&gt;Node26 -->
<g id="edge19" class="edge"><title>Node77&#45;&gt;Node26</title>
<path fill="none" stroke="midnightblue" d="M1960,-57.2349C1960,-48.5864 1960,-38.4969 1960,-30.523"/>
<polygon fill="midnightblue" stroke="midnightblue" points="1956.5,-57.4751 1960,-67.4751 1963.5,-57.4751 1956.5,-57.4751"/>
</g>
<!-- Node78&#45;&gt;Node7 -->
<g id="edge22" class="edge"><title>Node78&#45;&gt;Node7</title>
<path fill="none" stroke="midnightblue" d="M450.407,-190.321C628.417,-180.107 1184.95,-148.175 1370.84,-137.509"/>
<polygon fill="midnightblue" stroke="midnightblue" points="450.008,-186.838 440.225,-190.905 450.41,-193.826 450.008,-186.838"/>
</g>
<!-- Node78&#45;&gt;Node79 -->
<g id="edge23" class="edge"><title>Node78&#45;&gt;Node79</title>
<path fill="none" stroke="midnightblue" d="M384.515,-176.171C377.821,-165.108 369.438,-151.251 364.148,-142.509"/>
<polygon fill="midnightblue" stroke="midnightblue" points="381.671,-178.231 389.842,-184.975 387.66,-174.607 381.671,-178.231"/>
</g>
<!-- Node80 -->
<g id="node21" class="node"><title>Node80</title>
<g id="a_node21"><a xlink:href="_itc_2_periodic_scheduler_8h.html" target="_top" xlink:title=" ">
<polygon fill="white" stroke="black" points="291.5,-67.5 291.5,-86.5 426.5,-86.5 426.5,-67.5 291.5,-67.5"/>
<text text-anchor="middle" x="359" y="-74.5" font-family="Helvetica,sans-Serif" font-size="10.00">Cpl/Itc/PeriodicScheduler.h</text>
</a>
</g>
</g>
<!-- Node79&#45;&gt;Node80 -->
<g id="edge24" class="edge"><title>Node79&#45;&gt;Node80</title>
<path fill="none" stroke="midnightblue" d="M359,-112.805C359,-103.91 359,-93.7798 359,-86.7511"/>
<polygon fill="midnightblue" stroke="midnightblue" points="355.5,-113.083 359,-123.083 362.5,-113.083 355.5,-113.083"/>
</g>
<!-- Node82&#45;&gt;Node5 -->
<g id="edge31" class="edge"><title>Node82&#45;&gt;Node5</title>
<path fill="none" stroke="midnightblue" d="M703.536,-316.704C615.452,-309.912 464.538,-296.618 336,-277 325.304,-275.368 313.782,-273.196 303.196,-271.031"/>
<polygon fill="midnightblue" stroke="midnightblue" points="703.461,-320.208 713.698,-317.48 703.994,-313.229 703.461,-320.208"/>
</g>
<!-- Node83 -->
<g id="node24" class="node"><title>Node83</title>
<g id="a_node24"><a xlink:href="_ram_2_input_output_8h.html" target="_top" xlink:title=" ">
<polygon fill="white" stroke="black" points="479,-252 479,-271 607,-271 607,-252 479,-252"/>
<text text-anchor="middle" x="543" y="-259" font-family="Helvetica,sans-Serif" font-size="10.00">Cpl/Io/Ram/InputOutput.h</text>
</a>
</g>
</g>
<!-- Node82&#45;&gt;Node83 -->
<g id="edge28" class="edge"><title>Node82&#45;&gt;Node83</title>
<path fill="none" stroke="midnightblue" d="M734.43,-310.968C688.798,-299.415 618.11,-281.517 576.607,-271.009"/>
<polygon fill="midnightblue" stroke="midnightblue" points="733.777,-314.413 744.33,-313.475 735.495,-307.628 733.777,-314.413"/>
</g>
<!-- Node84 -->
<g id="node25" class="node"><title>Node84</title>
<g id="a_node25"><a xlink:href="_bare_metal_2_thread_8h.html" target="_top" xlink:title=" ">
<polygon fill="white" stroke="black" points="797.5,-246.5 797.5,-276.5 912.5,-276.5 912.5,-246.5 797.5,-246.5"/>
<text text-anchor="start" x="805.5" y="-264.5" font-family="Helvetica,sans-Serif" font-size="10.00">Cpl/System/BareMetal</text>
<text text-anchor="middle" x="855" y="-253.5" font-family="Helvetica,sans-Serif" font-size="10.00">/Thread.h</text>
</a>
</g>
</g>
<!-- Node82&#45;&gt;Node84 -->
<g id="edge29" class="edge"><title>Node82&#45;&gt;Node84</title>
<path fill="none" stroke="midnightblue" d="M797.159,-307.195C809.301,-297.813 824.91,-285.751 836.853,-276.523"/>
<polygon fill="midnightblue" stroke="midnightblue" points="794.805,-304.591 789.032,-313.475 799.085,-310.13 794.805,-304.591"/>
</g>
<!-- Node85 -->
<g id="node26" class="node"><title>Node85</title>
<g id="a_node26"><a xlink:href="_cpp11_2_thread_8h.html" target="_top" xlink:title=" ">
<polygon fill="white" stroke="black" points="931,-252 931,-271 1071,-271 1071,-252 931,-252"/>
<text text-anchor="middle" x="1001" y="-259" font-family="Helvetica,sans-Serif" font-size="10.00">Cpl/System/Cpp11/Thread.h</text>
</a>
</g>
</g>
<!-- Node82&#45;&gt;Node85 -->
<g id="edge30" class="edge"><title>Node82&#45;&gt;Node85</title>
<path fill="none" stroke="midnightblue" d="M819.618,-310.896C862.929,-299.34 929.808,-281.495 969.109,-271.009"/>
<polygon fill="midnightblue" stroke="midnightblue" points="818.71,-307.515 809.95,-313.475 820.515,-314.279 818.71,-307.515"/>
</g>
<!-- Node86 -->
<g id="node27" class="node"><title>Node86</title>
<g id="a_node27"><a xlink:href="_posix_2_thread_8h.html" target="_top" xlink:title=" ">
<polygon fill="white" stroke="black" points="1089.5,-252 1089.5,-271 1226.5,-271 1226.5,-252 1089.5,-252"/>
<text text-anchor="middle" x="1158" y="-259" font-family="Helvetica,sans-Serif" font-size="10.00">Cpl/System/Posix/Thread.h</text>
</a>
</g>
</g>
<!-- Node82&#45;&gt;Node86 -->
<g id="edge32" class="edge"><title>Node82&#45;&gt;Node86</title>
<path fill="none" stroke="midnightblue" d="M849.654,-312.061C910.917,-303.387 1001.38,-290.161 1080,-277 1090.87,-275.181 1102.56,-273.083 1113.5,-271.057"/>
<polygon fill="midnightblue" stroke="midnightblue" points="849.114,-308.603 839.701,-313.467 850.092,-315.534 849.114,-308.603"/>
</g>
<!-- Node87 -->
<g id="node28" class="node"><title>Node87</title>
<g id="a_node28"><a xlink:href="_cpl_2_system_2_posix_2mappings___8h.html" target="_top" xlink:title="This file provides the mappings for Platform specific types, etc.">
<polygon fill="white" stroke="black" points="625,-252 625,-271 779,-271 779,-252 625,-252"/>
<text text-anchor="middle" x="702" y="-259" font-family="Helvetica,sans-Serif" font-size="10.00">Cpl/System/Posix/mappings_.h</text>
</a>
</g>
</g>
<!-- Node82&#45;&gt;Node87 -->
<g id="edge33" class="edge"><title>Node82&#45;&gt;Node87</title>
<path fill="none" stroke="midnightblue" d="M759.216,-307.294C744.637,-295.88 724.938,-280.458 712.869,-271.009"/>
<polygon fill="midnightblue" stroke="midnightblue" points="757.079,-310.066 767.111,-313.475 761.395,-304.555 757.079,-310.066"/>
</g>
<!-- Node88 -->
<g id="node29" class="node"><title>Node88</title>
<g id="a_node29"><a xlink:href="_r_p2040_2_thread_8h.html" target="_top" xlink:title=" ">
<polygon fill="white" stroke="black" points="1245,-252 1245,-271 1391,-271 1391,-252 1245,-252"/>
<text text-anchor="middle" x="1318" y="-259" font-family="Helvetica,sans-Serif" font-size="10.00">Cpl/System/RP2040/Thread.h</text>
</a>
</g>
</g>
<!-- Node82&#45;&gt;Node88 -->
<g id="edge34" class="edge"><title>Node82&#45;&gt;Node88</title>
<path fill="none" stroke="midnightblue" d="M852.302,-316.402C942.894,-309.181 1100.56,-295.336 1235,-277 1247.32,-275.32 1260.61,-273.157 1272.87,-271.017"/>
<polygon fill="midnightblue" stroke="midnightblue" points="851.824,-312.929 842.131,-317.207 852.376,-319.907 851.824,-312.929"/>
</g>
<!-- Node89 -->
<g id="node30" class="node"><title>Node89</title>
<g id="a_node30"><a xlink:href="_sim_tick_8h.html" target="_top" xlink:title=" ">
<polygon fill="white" stroke="black" points="345.5,-252 345.5,-271 460.5,-271 460.5,-252 345.5,-252"/>
<text text-anchor="middle" x="403" y="-259" font-family="Helvetica,sans-Serif" font-size="10.00">Cpl/System/SimTick.h</text>
</a>
</g>
</g>
<!-- Node82&#45;&gt;Node89 -->
<g id="edge35" class="edge"><title>Node82&#45;&gt;Node89</title>
<path fill="none" stroke="midnightblue" d="M703.625,-312.577C641.099,-304.31 549.461,-291.386 470,-277 460.28,-275.24 449.82,-273.097 440.121,-271.005"/>
<polygon fill="midnightblue" stroke="midnightblue" points="703.419,-316.08 713.79,-313.914 704.331,-309.14 703.419,-316.08"/>
</g>
<!-- Node90 -->
<g id="node31" class="node"><title>Node90</title>
<g id="a_node31"><a xlink:href="_win32_2_thread_8h.html" target="_top" xlink:title=" ">
<polygon fill="white" stroke="black" points="1409.5,-252 1409.5,-271 1548.5,-271 1548.5,-252 1409.5,-252"/>
<text text-anchor="middle" x="1479" y="-259" font-family="Helvetica,sans-Serif" font-size="10.00">Cpl/System/Win32/Thread.h</text>
</a>
</g>
</g>
<!-- Node82&#45;&gt;Node90 -->
<g id="edge36" class="edge"><title>Node82&#45;&gt;Node90</title>
<path fill="none" stroke="midnightblue" d="M852.521,-319.243C969.507,-314.322 1203.22,-302.1 1400,-277 1412.17,-275.447 1425.31,-273.249 1437.31,-271.032"/>
<polygon fill="midnightblue" stroke="midnightblue" points="852.098,-315.757 842.252,-319.669 852.388,-322.751 852.098,-315.757"/>
</g>
<!-- Node91&#45;&gt;Node6 -->
<g id="edge38" class="edge"><title>Node91&#45;&gt;Node6</title>
<path fill="none" stroke="midnightblue" d="M1690.13,-302.868C1689.18,-285.683 1685.02,-260.924 1670,-246 1649.96,-226.091 1578.02,-211.342 1526.88,-203.079"/>
<polygon fill="midnightblue" stroke="midnightblue" points="1686.64,-303.423 1690.36,-313.342 1693.64,-303.265 1686.64,-303.423"/>
</g>
<!-- Node91&#45;&gt;Node84 -->
<g id="edge42" class="edge"><title>Node91&#45;&gt;Node84</title>
<path fill="none" stroke="midnightblue" d="M1624.85,-321.571C1492.04,-319.953 1180.65,-312.35 922,-277 918.934,-276.581 915.8,-276.098 912.643,-275.567"/>
<polygon fill="midnightblue" stroke="midnightblue" points="1625.21,-325.075 1635.25,-321.69 1625.29,-318.076 1625.21,-325.075"/>
</g>
<!-- Node91&#45;&gt;Node85 -->
<g id="edge43" class="edge"><title>Node91&#45;&gt;Node85</title>
<path fill="none" stroke="midnightblue" d="M1625.02,-319.511C1513.27,-314.716 1277.64,-302.353 1080,-277 1067.83,-275.439 1054.69,-273.237 1042.69,-271.021"/>
<polygon fill="midnightblue" stroke="midnightblue" points="1624.98,-323.012 1635.12,-319.938 1625.28,-316.018 1624.98,-323.012"/>
</g>
<!-- Node91&#45;&gt;Node86 -->
<g id="edge45" class="edge"><title>Node91&#45;&gt;Node86</title>
<path fill="none" stroke="midnightblue" d="M1625.18,-317.318C1536.9,-310.544 1374.04,-296.635 1236,-277 1224.41,-275.351 1211.92,-273.199 1200.4,-271.059"/>
<polygon fill="midnightblue" stroke="midnightblue" points="1625.07,-320.82 1635.31,-318.089 1625.6,-313.84 1625.07,-320.82"/>
</g>
<!-- Node91&#45;&gt;Node88 -->
<g id="edge46" class="edge"><title>Node91&#45;&gt;Node88</title>
<path fill="none" stroke="midnightblue" d="M1625.53,-312.395C1566.73,-303.538 1477.45,-289.855 1400,-277 1388.73,-275.13 1376.61,-273.033 1365.23,-271.028"/>
<polygon fill="midnightblue" stroke="midnightblue" points="1625.02,-315.856 1635.43,-313.882 1626.06,-308.934 1625.02,-315.856"/>
</g>
<!-- Node91&#45;&gt;Node90 -->
<g id="edge54" class="edge"><title>Node91&#45;&gt;Node90</title>
<path fill="none" stroke="midnightblue" d="M1650.1,-310.749C1609.11,-299.189 1546.2,-281.451 1509.18,-271.009"/>
<polygon fill="midnightblue" stroke="midnightblue" points="1649.19,-314.13 1659.77,-313.475 1651.09,-307.392 1649.19,-314.13"/>
</g>
<!-- Node92 -->
<g id="node33" class="node"><title>Node92</title>
<g id="a_node33"><a xlink:href="_listener___8h.html" target="_top" xlink:title=" ">
<polygon fill="white" stroke="black" points="1718.5,-252 1718.5,-271 1845.5,-271 1845.5,-252 1718.5,-252"/>
<text text-anchor="middle" x="1782" y="-259" font-family="Helvetica,sans-Serif" font-size="10.00">Cpl/Io/Socket/Listener_.h</text>
</a>
</g>
</g>
<!-- Node91&#45;&gt;Node92 -->
<g id="edge39" class="edge"><title>Node91&#45;&gt;Node92</title>
<path fill="none" stroke="midnightblue" d="M1711.76,-307.93C1729.49,-296.459 1753.96,-280.634 1768.84,-271.009"/>
<polygon fill="midnightblue" stroke="midnightblue" points="1709.68,-305.106 1703.18,-313.475 1713.48,-310.983 1709.68,-305.106"/>
</g>
<!-- Node95 -->
<g id="node36" class="node"><title>Node95</title>
<g id="a_node36"><a xlink:href="_free_r_t_o_s_2_thread_8h.html" target="_top" xlink:title=" ">
<polygon fill="white" stroke="black" points="2245.5,-246.5 2245.5,-276.5 2362.5,-276.5 2362.5,-246.5 2245.5,-246.5"/>
<text text-anchor="start" x="2253.5" y="-264.5" font-family="Helvetica,sans-Serif" font-size="10.00">Cpl/System/FreeRTOS</text>
<text text-anchor="middle" x="2304" y="-253.5" font-family="Helvetica,sans-Serif" font-size="10.00">/Thread.h</text>
</a>
</g>
</g>
<!-- Node91&#45;&gt;Node95 -->
<g id="edge44" class="edge"><title>Node91&#45;&gt;Node95</title>
<path fill="none" stroke="midnightblue" d="M1754.7,-319.348C1857.24,-314.544 2063.15,-302.445 2236,-277 2239.1,-276.543 2242.28,-276.029 2245.48,-275.475"/>
<polygon fill="midnightblue" stroke="midnightblue" points="1754.34,-315.861 1744.51,-319.817 1754.66,-322.853 1754.34,-315.861"/>
</g>
<!-- Node96 -->
<g id="node37" class="node"><title>Node96</title>
<g id="a_node37"><a xlink:href="_system_2_trace_8h.html" target="_top" xlink:title=" ">
<polygon fill="white" stroke="black" points="2381,-252 2381,-271 2485,-271 2485,-252 2381,-252"/>
<text text-anchor="middle" x="2433" y="-259" font-family="Helvetica,sans-Serif" font-size="10.00">Cpl/System/Trace.h</text>
</a>
</g>
</g>
<!-- Node91&#45;&gt;Node96 -->
<g id="edge47" class="edge"><title>Node91&#45;&gt;Node96</title>
<path fill="none" stroke="midnightblue" d="M1754.96,-321.326C1876.68,-319.265 2147.11,-310.903 2372,-277 2381.69,-275.54 2392.1,-273.314 2401.54,-271.041"/>
<polygon fill="midnightblue" stroke="midnightblue" points="1754.64,-317.831 1744.7,-321.491 1754.76,-324.83 1754.64,-317.831"/>
</g>
<!-- Node102 -->
<g id="node43" class="node"><title>Node102</title>
<g id="a_node43"><a xlink:href="_threads_8h.html" target="_top" xlink:title=" ">
<polygon fill="white" stroke="black" points="1863.5,-252 1863.5,-271 1994.5,-271 1994.5,-252 1863.5,-252"/>
<text text-anchor="middle" x="1929" y="-259" font-family="Helvetica,sans-Serif" font-size="10.00">Cpl/TShell/Cmd/Threads.h</text>
</a>
</g>
</g>
<!-- Node91&#45;&gt;Node102 -->
<g id="edge55" class="edge"><title>Node91&#45;&gt;Node102</title>
<path fill="none" stroke="midnightblue" d="M1734.02,-311.041C1780.42,-299.49 1852.52,-281.539 1894.82,-271.009"/>
<polygon fill="midnightblue" stroke="midnightblue" points="1733.1,-307.663 1724.24,-313.475 1734.79,-314.456 1733.1,-307.663"/>
</g>
<!-- Node105 -->
<g id="node46" class="node"><title>Node105</title>
<g id="a_node46"><a xlink:href="_socket_8h.html" target="_top" xlink:title=" ">
<polygon fill="white" stroke="black" points="2503,-252 2503,-271 2607,-271 2607,-252 2503,-252"/>
<text text-anchor="middle" x="2555" y="-259" font-family="Helvetica,sans-Serif" font-size="10.00">Cpl/TShell/Socket.h</text>
</a>
</g>
</g>
<!-- Node91&#45;&gt;Node105 -->
<g id="edge58" class="edge"><title>Node91&#45;&gt;Node105</title>
<path fill="none" stroke="midnightblue" d="M1755.27,-322.256C1892.7,-321.939 2221.64,-316.671 2494,-277 2503.8,-275.572 2514.34,-273.327 2523.86,-271.027"/>
<polygon fill="midnightblue" stroke="midnightblue" points="1754.92,-318.757 1744.93,-322.271 1754.93,-325.757 1754.92,-318.757"/>
</g>
<!-- Node106 -->
<g id="node47" class="node"><title>Node106</title>
<g id="a_node47"><a xlink:href="_t_shell_2_stdio_8h.html" target="_top" xlink:title=" ">
<polygon fill="white" stroke="black" points="1566.5,-252 1566.5,-271 1661.5,-271 1661.5,-252 1566.5,-252"/>
<text text-anchor="middle" x="1614" y="-259" font-family="Helvetica,sans-Serif" font-size="10.00">Cpl/TShell/Stdio.h</text>
</a>
</g>
</g>
<!-- Node91&#45;&gt;Node106 -->
<g id="edge59" class="edge"><title>Node91&#45;&gt;Node106</title>
<path fill="none" stroke="midnightblue" d="M1671.22,-307.294C1656.64,-295.88 1636.94,-280.458 1624.87,-271.009"/>
<polygon fill="midnightblue" stroke="midnightblue" points="1669.08,-310.066 1679.11,-313.475 1673.39,-304.555 1669.08,-310.066"/>
</g>
<!-- Node107 -->
<g id="node48" class="node"><title>Node107</title>
<g id="a_node48"><a xlink:href="_receiver_8h.html" target="_top" xlink:title=" ">
<polygon fill="white" stroke="black" points="2013,-246.5 2013,-276.5 2111,-276.5 2111,-246.5 2013,-246.5"/>
<text text-anchor="start" x="2021" y="-264.5" font-family="Helvetica,sans-Serif" font-size="10.00">Driver/Uart/Stream</text>
<text text-anchor="middle" x="2062" y="-253.5" font-family="Helvetica,sans-Serif" font-size="10.00">/Receiver.h</text>
</a>
</g>
</g>
<!-- Node91&#45;&gt;Node107 -->
<g id="edge60" class="edge"><title>Node91&#45;&gt;Node107</title>
<path fill="none" stroke="midnightblue" d="M1755.04,-314.655C1818.77,-306.995 1918.51,-293.766 2004,-277 2006.85,-276.441 2009.77,-275.83 2012.72,-275.187"/>
<polygon fill="midnightblue" stroke="midnightblue" points="1754.26,-311.224 1744.74,-315.883 1755.09,-318.175 1754.26,-311.224"/>
</g>
<!-- Node110 -->
<g id="node50" class="node"><title>Node110</title>
<g id="a_node50"><a xlink:href="_transmitter_8h.html" target="_top" xlink:title=" ">
<polygon fill="white" stroke="black" points="2129,-246.5 2129,-276.5 2227,-276.5 2227,-246.5 2129,-246.5"/>
<text text-anchor="start" x="2137" y="-264.5" font-family="Helvetica,sans-Serif" font-size="10.00">Driver/Uart/Stream</text>
<text text-anchor="middle" x="2178" y="-253.5" font-family="Helvetica,sans-Serif" font-size="10.00">/Transmitter.h</text>
</a>
</g>
</g>
<!-- Node91&#45;&gt;Node110 -->
<g id="edge62" class="edge"><title>Node91&#45;&gt;Node110</title>
<path fill="none" stroke="midnightblue" d="M1754.86,-318.067C1839.39,-312.29 1991.56,-299.659 2120,-277 2122.86,-276.495 2125.79,-275.927 2128.74,-275.316"/>
<polygon fill="midnightblue" stroke="midnightblue" points="1754.39,-314.59 1744.65,-318.754 1754.86,-321.575 1754.39,-314.59"/>
</g>
<!-- Node93 -->
<g id="node34" class="node"><title>Node93</title>
<g id="a_node34"><a xlink:href="_posix_2_listener_8h.html" target="_top" xlink:title=" ">
<polygon fill="white" stroke="black" points="1579,-179.5 1579,-209.5 1683,-209.5 1683,-179.5 1579,-179.5"/>
<text text-anchor="start" x="1587" y="-197.5" font-family="Helvetica,sans-Serif" font-size="10.00">Cpl/Io/Socket/Posix</text>
<text text-anchor="middle" x="1631" y="-186.5" font-family="Helvetica,sans-Serif" font-size="10.00">/Listener.h</text>
</a>
</g>
</g>
<!-- Node92&#45;&gt;Node93 -->
<g id="edge40" class="edge"><title>Node92&#45;&gt;Node93</title>
<path fill="none" stroke="midnightblue" d="M1752.76,-247.913C1727.19,-236.906 1690.1,-220.942 1663.59,-209.528"/>
<polygon fill="midnightblue" stroke="midnightblue" points="1751.38,-251.129 1761.95,-251.869 1754.15,-244.7 1751.38,-251.129"/>
</g>
<!-- Node94 -->
<g id="node35" class="node"><title>Node94</title>
<g id="a_node35"><a xlink:href="_win32_2_listener_8h.html" target="_top" xlink:title=" ">
<polygon fill="white" stroke="black" points="1701,-179.5 1701,-209.5 1807,-209.5 1807,-179.5 1701,-179.5"/>
<text text-anchor="start" x="1709" y="-197.5" font-family="Helvetica,sans-Serif" font-size="10.00">Cpl/Io/Socket/Win32</text>
<text text-anchor="middle" x="1754" y="-186.5" font-family="Helvetica,sans-Serif" font-size="10.00">/Listener.h</text>
</a>
</g>
</g>
<!-- Node92&#45;&gt;Node94 -->
<g id="edge41" class="edge"><title>Node92&#45;&gt;Node94</title>
<path fill="none" stroke="midnightblue" d="M1774.2,-242.39C1769.73,-232.02 1764.21,-219.201 1760.07,-209.589"/>
<polygon fill="midnightblue" stroke="midnightblue" points="1771.05,-243.934 1778.22,-251.734 1777.48,-241.165 1771.05,-243.934"/>
</g>
<!-- Node96&#45;&gt;Node26 -->
<g id="edge53" class="edge"><title>Node96&#45;&gt;Node26</title>
<path fill="none" stroke="midnightblue" d="M2469.28,-247.847C2486.38,-239.84 2505.16,-227.612 2515,-210 2521.72,-197.971 2520.54,-191.614 2515,-179 2485.39,-111.614 2459.92,-97.6439 2393,-67 2330.04,-38.1697 2135.83,-24.7521 2030.19,-19.4442"/>
<polygon fill="midnightblue" stroke="midnightblue" points="2467.79,-244.676 2460.01,-251.869 2470.58,-251.098 2467.79,-244.676"/>
</g>
<!-- Node97 -->
<g id="node38" class="node"><title>Node97</title>
<g id="a_node38"><a xlink:href="helpers_8h.html" target="_top" xlink:title="This file defines helper functions/interface for writing unit tests.">
<polygon fill="white" stroke="black" points="2562.5,-185 2562.5,-204 2647.5,-204 2647.5,-185 2562.5,-185"/>
<text text-anchor="middle" x="2605" y="-192" font-family="Helvetica,sans-Serif" font-size="10.00">Catch/helpers.h</text>
</a>
</g>
</g>
<!-- Node96&#45;&gt;Node97 -->
<g id="edge48" class="edge"><title>Node96&#45;&gt;Node97</title>
<path fill="none" stroke="midnightblue" d="M2465.36,-248.271C2499.5,-235.37 2552.41,-215.376 2582.34,-204.064"/>
<polygon fill="midnightblue" stroke="midnightblue" points="2463.96,-245.059 2455.84,-251.869 2466.43,-251.607 2463.96,-245.059"/>
</g>
<!-- Node98 -->
<g id="node39" class="node"><title>Node98</title>
<g id="a_node39"><a xlink:href="_cpl_2_system_2_private___8h.html" target="_top" xlink:title="This file contains a collection of classes, interfaces, etc.">
<polygon fill="white" stroke="black" points="2227.5,-185 2227.5,-204 2342.5,-204 2342.5,-185 2227.5,-185"/>
<text text-anchor="middle" x="2285" y="-192" font-family="Helvetica,sans-Serif" font-size="10.00">Cpl/System/Private_.h</text>
</a>
</g>
</g>
<!-- Node96&#45;&gt;Node98 -->
<g id="edge49" class="edge"><title>Node96&#45;&gt;Node98</title>
<path fill="none" stroke="midnightblue" d="M2404.04,-247.781C2374.73,-234.909 2330.21,-215.355 2304.73,-204.167"/>
<polygon fill="midnightblue" stroke="midnightblue" points="2402.78,-251.052 2413.35,-251.869 2405.6,-244.643 2402.78,-251.052"/>
</g>
<!-- Node101 -->
<g id="node42" class="node"><title>Node101</title>
<g id="a_node42"><a xlink:href="_fsm__trace___8h.html" target="_top" xlink:title=" ">
<polygon fill="white" stroke="black" points="2360.5,-179.5 2360.5,-209.5 2505.5,-209.5 2505.5,-179.5 2360.5,-179.5"/>
<text text-anchor="start" x="2368.5" y="-197.5" font-family="Helvetica,sans-Serif" font-size="10.00">Storm/Component/Equipment</text>
<text text-anchor="middle" x="2433" y="-186.5" font-family="Helvetica,sans-Serif" font-size="10.00">/Stage/Fsm_trace_.h</text>
</a>
</g>
</g>
<!-- Node96&#45;&gt;Node101 -->
<g id="edge52" class="edge"><title>Node96&#45;&gt;Node101</title>
<path fill="none" stroke="midnightblue" d="M2433,-241.411C2433,-231.222 2433,-218.901 2433,-209.589"/>
<polygon fill="midnightblue" stroke="midnightblue" points="2429.5,-241.734 2433,-251.734 2436.5,-241.734 2429.5,-241.734"/>
</g>
<!-- Node99 -->
<g id="node40" class="node"><title>Node99</title>
<g id="a_node40"><a xlink:href="_cpl_2_t_shell_2_maker_8h.html" target="_top" xlink:title=" ">
<polygon fill="white" stroke="black" points="2145,-123.5 2145,-142.5 2245,-142.5 2245,-123.5 2145,-123.5"/>
<text text-anchor="middle" x="2195" y="-130.5" font-family="Helvetica,sans-Serif" font-size="10.00">Cpl/TShell/Maker.h</text>
</a>
</g>
</g>
<!-- Node98&#45;&gt;Node99 -->
<g id="edge50" class="edge"><title>Node98&#45;&gt;Node99</title>
<path fill="none" stroke="midnightblue" d="M2263.72,-179.43C2246.37,-167.959 2222.43,-152.134 2207.87,-142.509"/>
<polygon fill="midnightblue" stroke="midnightblue" points="2261.83,-182.38 2272.11,-184.975 2265.69,-176.541 2261.83,-182.38"/>
</g>
<!-- Node100 -->
<g id="node41" class="node"><title>Node100</title>
<g id="a_node41"><a xlink:href="_polled_maker_8h.html" target="_top" xlink:title=" ">
<polygon fill="white" stroke="black" points="2263.5,-123.5 2263.5,-142.5 2390.5,-142.5 2390.5,-123.5 2263.5,-123.5"/>
<text text-anchor="middle" x="2327" y="-130.5" font-family="Helvetica,sans-Serif" font-size="10.00">Cpl/TShell/PolledMaker.h</text>
</a>
</g>
</g>
<!-- Node98&#45;&gt;Node100 -->
<g id="edge51" class="edge"><title>Node98&#45;&gt;Node100</title>
<path fill="none" stroke="midnightblue" d="M2297,-176.505C2304.84,-165.388 2314.76,-151.34 2320.99,-142.509"/>
<polygon fill="midnightblue" stroke="midnightblue" points="2293.93,-174.787 2291.02,-184.975 2299.64,-178.824 2293.93,-174.787"/>
</g>
<!-- Node103 -->
<g id="node44" class="node"><title>Node103</title>
<g id="a_node44"><a xlink:href="_free_r_t_o_s_2_threads_8h.html" target="_top" xlink:title=" ">
<polygon fill="white" stroke="black" points="1825,-179.5 1825,-209.5 1959,-209.5 1959,-179.5 1825,-179.5"/>
<text text-anchor="start" x="1833" y="-197.5" font-family="Helvetica,sans-Serif" font-size="10.00">Cpl/TShell/Cmd/FreeRTOS</text>
<text text-anchor="middle" x="1892" y="-186.5" font-family="Helvetica,sans-Serif" font-size="10.00">/Threads.h</text>
</a>
</g>
</g>
<!-- Node102&#45;&gt;Node103 -->
<g id="edge56" class="edge"><title>Node102&#45;&gt;Node103</title>
<path fill="none" stroke="midnightblue" d="M1919.06,-243.035C1913.09,-232.556 1905.61,-219.402 1900.02,-209.589"/>
<polygon fill="midnightblue" stroke="midnightblue" points="1916.02,-244.775 1924.01,-251.734 1922.1,-241.312 1916.02,-244.775"/>
</g>
<!-- Node104 -->
<g id="node45" class="node"><title>Node104</title>
<g id="a_node45"><a xlink:href="_win32_2_threads_8h.html" target="_top" xlink:title=" ">
<polygon fill="white" stroke="black" points="1977.5,-179.5 1977.5,-209.5 2092.5,-209.5 2092.5,-179.5 1977.5,-179.5"/>
<text text-anchor="start" x="1985.5" y="-197.5" font-family="Helvetica,sans-Serif" font-size="10.00">Cpl/TShell/Cmd/Win32</text>
<text text-anchor="middle" x="2035" y="-186.5" font-family="Helvetica,sans-Serif" font-size="10.00">/Threads.h</text>
</a>
</g>
</g>
<!-- Node102&#45;&gt;Node104 -->
<g id="edge57" class="edge"><title>Node102&#45;&gt;Node104</title>
<path fill="none" stroke="midnightblue" d="M1951.91,-246.454C1969.69,-235.551 1994.23,-220.503 2012.02,-209.589"/>
<polygon fill="midnightblue" stroke="midnightblue" points="1949.99,-243.523 1943.3,-251.734 1953.65,-249.49 1949.99,-243.523"/>
</g>
<!-- Node108 -->
<g id="node49" class="node"><title>Node108</title>
<g id="a_node49"><a xlink:href="_driver_2_uart_2_stream_2_input_output___8h.html" target="_top" xlink:title=" ">
<polygon fill="white" stroke="red" points="2111,-179.5 2111,-209.5 2209,-209.5 2209,-179.5 2111,-179.5"/>
<text text-anchor="start" x="2119" y="-197.5" font-family="Helvetica,sans-Serif" font-size="10.00">Driver/Uart/Stream</text>
<text text-anchor="middle" x="2160" y="-186.5" font-family="Helvetica,sans-Serif" font-size="10.00">/InputOutput_.h</text>
</a>
</g>
</g>
<!-- Node107&#45;&gt;Node108 -->
<g id="edge61" class="edge"><title>Node107&#45;&gt;Node108</title>
<path fill="none" stroke="midnightblue" d="M2091.8,-240.734C2106.97,-230.676 2125.04,-218.685 2138.78,-209.577"/>
<polygon fill="midnightblue" stroke="midnightblue" points="2089.66,-237.952 2083.26,-246.396 2093.53,-243.785 2089.66,-237.952"/>
</g>
<!-- Node110&#45;&gt;Node108 -->
<g id="edge63" class="edge"><title>Node110&#45;&gt;Node108</title>
<path fill="none" stroke="midnightblue" d="M2171.41,-236.697C2168.89,-227.587 2166.09,-217.493 2163.9,-209.577"/>
<polygon fill="midnightblue" stroke="midnightblue" points="2168.05,-237.693 2174.09,-246.396 2174.8,-235.825 2168.05,-237.693"/>
</g>
</g>
</svg>
