<?xml version="1.0" encoding="UTF-8" standalone="no"?>
<!DOCTYPE svg PUBLIC "-//W3C//DTD SVG 1.1//EN"
 "http://www.w3.org/Graphics/SVG/1.1/DTD/svg11.dtd">
<!-- Generated by graphviz version 2.38.0 (20140413.2041)
 -->
<!-- Title: Storm/Thermostat/Ui/PicoDisplay/Private_.h Pages: 1 -->
<svg width="298pt" height="151pt"
 viewBox="0.00 0.00 297.50 151.00" xmlns="http://www.w3.org/2000/svg" xmlns:xlink="http://www.w3.org/1999/xlink">
<g id="graph0" class="graph" transform="scale(1 1) rotate(0) translate(4 147)">
<title>Storm/Thermostat/Ui/PicoDisplay/Private_.h</title>
<polygon fill="white" stroke="none" points="-4,4 -4,-147 293.5,-147 293.5,4 -4,4"/>
<!-- Node1 -->
<g id="node1" class="node"><title>Node1</title>
<g id="a_node1"><a xlink:title="This file defines the INTERNAL interface used by the UI sub&#45;system.">
<polygon fill="#bfbfbf" stroke="black" points="93.5,-112.5 93.5,-142.5 212.5,-142.5 212.5,-112.5 93.5,-112.5"/>
<text text-anchor="start" x="101.5" y="-130.5" font-family="Helvetica,sans-Serif" font-size="10.00">Storm/Thermostat/Ui</text>
<text text-anchor="middle" x="153" y="-119.5" font-family="Helvetica,sans-Serif" font-size="10.00">/PicoDisplay/Private_.h</text>
</a>
</g>
</g>
<!-- Node2 -->
<g id="node2" class="node"><title>Node2</title>
<g id="a_node2"><a xlink:href="_thermostat_mode_8h.html" target="_top" xlink:title=" ">
<polygon fill="white" stroke="black" points="0,-56.5 0,-75.5 152,-75.5 152,-56.5 0,-56.5"/>
<text text-anchor="middle" x="76" y="-63.5" font-family="Helvetica,sans-Serif" font-size="10.00">Storm/Type/ThermostatMode.h</text>
</a>
</g>
</g>
<!-- Node1&#45;&gt;Node2 -->
<g id="edge1" class="edge"><title>Node1&#45;&gt;Node2</title>
<path fill="none" stroke="midnightblue" d="M134.752,-112.399C122.871,-103.218 107.393,-91.2579 95.3059,-81.9182"/>
<polygon fill="midnightblue" stroke="midnightblue" points="97.2571,-79.0028 87.2042,-75.6578 92.977,-84.5418 97.2571,-79.0028"/>
</g>
<!-- Node4 -->
<g id="node4" class="node"><title>Node4</title>
<g id="a_node4"><a xlink:href="_fan_mode_8h.html" target="_top" xlink:title=" ">
<polygon fill="white" stroke="black" points="170.5,-56.5 170.5,-75.5 289.5,-75.5 289.5,-56.5 170.5,-56.5"/>
<text text-anchor="middle" x="230" y="-63.5" font-family="Helvetica,sans-Serif" font-size="10.00">Storm/Type/FanMode.h</text>
</a>
</g>
</g>
<!-- Node1&#45;&gt;Node4 -->
<g id="edge3" class="edge"><title>Node1&#45;&gt;Node4</title>
<path fill="none" stroke="midnightblue" d="M171.248,-112.399C183.129,-103.218 198.607,-91.2579 210.694,-81.9182"/>
<polygon fill="midnightblue" stroke="midnightblue" points="213.023,-84.5418 218.796,-75.6578 208.743,-79.0028 213.023,-84.5418"/>
</g>
<!-- Node3 -->
<g id="node3" class="node"><title>Node3</title>
<g id="a_node3"><a xlink:href="enum_8h_source.html" target="_top" xlink:title=" ">
<polygon fill="white" stroke="black" points="107.5,-0.5 107.5,-19.5 198.5,-19.5 198.5,-0.5 107.5,-0.5"/>
<text text-anchor="middle" x="153" y="-7.5" font-family="Helvetica,sans-Serif" font-size="10.00">Cpl/Type/enum.h</text>
</a>
</g>
</g>
<!-- Node2&#45;&gt;Node3 -->
<g id="edge2" class="edge"><title>Node2&#45;&gt;Node3</title>
<path fill="none" stroke="midnightblue" d="M88.3714,-56.324C100.158,-48.0577 118.132,-35.4527 132.136,-25.6322"/>
<polygon fill="midnightblue" stroke="midnightblue" points="134.482,-28.2619 140.659,-19.6545 130.462,-22.5307 134.482,-28.2619"/>
</g>
<!-- Node4&#45;&gt;Node3 -->
<g id="edge4" class="edge"><title>Node4&#45;&gt;Node3</title>
<path fill="none" stroke="midnightblue" d="M217.629,-56.324C205.842,-48.0577 187.868,-35.4527 173.864,-25.6322"/>
<polygon fill="midnightblue" stroke="midnightblue" points="175.538,-22.5307 165.341,-19.6545 171.518,-28.2619 175.538,-22.5307"/>
</g>
</g>
</svg>
