<?xml version="1.0" encoding="UTF-8" standalone="no"?>
<!DOCTYPE svg PUBLIC "-//W3C//DTD SVG 1.1//EN"
 "http://www.w3.org/Graphics/SVG/1.1/DTD/svg11.dtd">
<!-- Generated by graphviz version 2.38.0 (20140413.2041)
 -->
<!-- Title: Cpl/Text/Frame/StreamDecoder.h Pages: 1 -->
<svg width="647pt" height="207pt"
 viewBox="0.00 0.00 646.50 207.00" xmlns="http://www.w3.org/2000/svg" xmlns:xlink="http://www.w3.org/1999/xlink">
<g id="graph0" class="graph" transform="scale(1 1) rotate(0) translate(4 203)">
<title>Cpl/Text/Frame/StreamDecoder.h</title>
<polygon fill="white" stroke="none" points="-4,4 -4,-203 642.5,-203 642.5,4 -4,4"/>
<!-- Node1 -->
<g id="node1" class="node"><title>Node1</title>
<g id="a_node1"><a xlink:title=" ">
<polygon fill="#bfbfbf" stroke="black" points="214.5,-179.5 214.5,-198.5 377.5,-198.5 377.5,-179.5 214.5,-179.5"/>
<text text-anchor="middle" x="296" y="-186.5" font-family="Helvetica,sans-Serif" font-size="10.00">Cpl/Text/Frame/StreamDecoder.h</text>
</a>
</g>
</g>
<!-- Node2 -->
<g id="node2" class="node"><title>Node2</title>
<g id="a_node2"><a xlink:href="_processor_8h.html" target="_top" xlink:title=" ">
<polygon fill="white" stroke="black" points="0.5,-123.5 0.5,-142.5 117.5,-142.5 117.5,-123.5 0.5,-123.5"/>
<text text-anchor="middle" x="59" y="-130.5" font-family="Helvetica,sans-Serif" font-size="10.00">Cpl/TShell/Processor.h</text>
</a>
</g>
</g>
<!-- Node1&#45;&gt;Node2 -->
<g id="edge1" class="edge"><title>Node1&#45;&gt;Node2</title>
<path fill="none" stroke="midnightblue" d="M248.676,-177.217C203.892,-167.013 137.564,-151.901 96.3777,-142.516"/>
<polygon fill="midnightblue" stroke="midnightblue" points="247.919,-180.634 258.447,-179.444 249.474,-173.809 247.919,-180.634"/>
</g>
<!-- Node6 -->
<g id="node6" class="node"><title>Node6</title>
<g id="a_node6"><a xlink:href="_ascii_decoder_8h.html" target="_top" xlink:title=" ">
<polygon fill="white" stroke="black" points="135.5,-123.5 135.5,-142.5 288.5,-142.5 288.5,-123.5 135.5,-123.5"/>
<text text-anchor="middle" x="212" y="-130.5" font-family="Helvetica,sans-Serif" font-size="10.00">Cpl/Text/Frame/AsciiDecoder.h</text>
</a>
</g>
</g>
<!-- Node1&#45;&gt;Node6 -->
<g id="edge5" class="edge"><title>Node1&#45;&gt;Node6</title>
<path fill="none" stroke="midnightblue" d="M274.068,-173.901C258.665,-163.999 238.554,-151.071 225.463,-142.655"/>
<polygon fill="midnightblue" stroke="midnightblue" points="272.199,-176.86 282.504,-179.324 275.985,-170.972 272.199,-176.86"/>
</g>
<!-- Node7 -->
<g id="node7" class="node"><title>Node7</title>
<g id="a_node7"><a xlink:href="_line_decoder_8h.html" target="_top" xlink:title=" ">
<polygon fill="white" stroke="black" points="306.5,-123.5 306.5,-142.5 455.5,-142.5 455.5,-123.5 306.5,-123.5"/>
<text text-anchor="middle" x="381" y="-130.5" font-family="Helvetica,sans-Serif" font-size="10.00">Cpl/Text/Frame/LineDecoder.h</text>
</a>
</g>
</g>
<!-- Node1&#45;&gt;Node7 -->
<g id="edge6" class="edge"><title>Node1&#45;&gt;Node7</title>
<path fill="none" stroke="midnightblue" d="M318.194,-173.901C333.78,-163.999 354.13,-151.071 367.377,-142.655"/>
<polygon fill="midnightblue" stroke="midnightblue" points="316.221,-171.007 309.657,-179.324 319.974,-176.916 316.221,-171.007"/>
</g>
<!-- Node8 -->
<g id="node8" class="node"><title>Node8</title>
<g id="a_node8"><a xlink:href="_pipe_8h.html" target="_top" xlink:title=" ">
<polygon fill="white" stroke="black" points="473.5,-123.5 473.5,-142.5 574.5,-142.5 574.5,-123.5 473.5,-123.5"/>
<text text-anchor="middle" x="524" y="-130.5" font-family="Helvetica,sans-Serif" font-size="10.00">Driver/TPipe/Pipe.h</text>
</a>
</g>
</g>
<!-- Node1&#45;&gt;Node8 -->
<g id="edge9" class="edge"><title>Node1&#45;&gt;Node8</title>
<path fill="none" stroke="midnightblue" d="M342.071,-177.088C385.146,-166.887 448.586,-151.861 488.042,-142.516"/>
<polygon fill="midnightblue" stroke="midnightblue" points="341.051,-173.733 332.127,-179.444 342.665,-180.545 341.051,-173.733"/>
</g>
<!-- Node3 -->
<g id="node3" class="node"><title>Node3</title>
<g id="a_node3"><a xlink:href="_cpl_2_t_shell_2_maker_8h.html" target="_top" xlink:title=" ">
<polygon fill="white" stroke="black" points="188,-62 188,-81 288,-81 288,-62 188,-62"/>
<text text-anchor="middle" x="238" y="-69" font-family="Helvetica,sans-Serif" font-size="10.00">Cpl/TShell/Maker.h</text>
</a>
</g>
</g>
<!-- Node2&#45;&gt;Node3 -->
<g id="edge2" class="edge"><title>Node2&#45;&gt;Node3</title>
<path fill="none" stroke="midnightblue" d="M94.4029,-120.232C129.198,-108.666 181.452,-91.2966 212.401,-81.0091"/>
<polygon fill="midnightblue" stroke="midnightblue" points="93.0318,-116.999 84.6463,-123.475 95.2399,-123.642 93.0318,-116.999"/>
</g>
<!-- Node4 -->
<g id="node4" class="node"><title>Node4</title>
<g id="a_node4"><a xlink:href="_polled_processor_8h.html" target="_top" xlink:title=" ">
<polygon fill="white" stroke="black" points="0,-62 0,-81 144,-81 144,-62 0,-62"/>
<text text-anchor="middle" x="72" y="-69" font-family="Helvetica,sans-Serif" font-size="10.00">Cpl/TShell/PolledProcessor.h</text>
</a>
</g>
</g>
<!-- Node2&#45;&gt;Node4 -->
<g id="edge3" class="edge"><title>Node2&#45;&gt;Node4</title>
<path fill="none" stroke="midnightblue" d="M63.0076,-113.657C65.3859,-102.772 68.2887,-89.4863 70.1409,-81.0091"/>
<polygon fill="midnightblue" stroke="midnightblue" points="59.5778,-112.958 60.8626,-123.475 66.4165,-114.453 59.5778,-112.958"/>
</g>
<!-- Node5 -->
<g id="node5" class="node"><title>Node5</title>
<g id="a_node5"><a xlink:href="_polled_maker_8h.html" target="_top" xlink:title=" ">
<polygon fill="white" stroke="black" points="156.5,-0.5 156.5,-19.5 283.5,-19.5 283.5,-0.5 156.5,-0.5"/>
<text text-anchor="middle" x="220" y="-7.5" font-family="Helvetica,sans-Serif" font-size="10.00">Cpl/TShell/PolledMaker.h</text>
</a>
</g>
</g>
<!-- Node4&#45;&gt;Node5 -->
<g id="edge4" class="edge"><title>Node4&#45;&gt;Node5</title>
<path fill="none" stroke="midnightblue" d="M102.766,-58.1313C131.519,-46.5717 173.685,-29.62 198.835,-19.5091"/>
<polygon fill="midnightblue" stroke="midnightblue" points="101.178,-54.9975 93.2048,-61.9751 103.789,-61.4923 101.178,-54.9975"/>
</g>
<!-- Node7&#45;&gt;Node3 -->
<g id="edge7" class="edge"><title>Node7&#45;&gt;Node3</title>
<path fill="none" stroke="midnightblue" d="M351.273,-119.631C323.492,-108.072 282.75,-91.12 258.45,-81.0091"/>
<polygon fill="midnightblue" stroke="midnightblue" points="349.934,-122.865 360.512,-123.475 352.623,-116.402 349.934,-122.865"/>
</g>
<!-- Node7&#45;&gt;Node5 -->
<g id="edge8" class="edge"><title>Node7&#45;&gt;Node5</title>
<path fill="none" stroke="midnightblue" d="M365.605,-116.268C349.369,-100.122 322.633,-74.7746 297,-56 277.389,-41.636 252.871,-27.9652 236.841,-19.5399"/>
<polygon fill="midnightblue" stroke="midnightblue" points="363.149,-118.762 372.682,-123.386 368.114,-113.827 363.149,-118.762"/>
</g>
<!-- Node9 -->
<g id="node9" class="node"><title>Node9</title>
<g id="a_node9"><a xlink:href="_driver_2_pico_display_2_t_pipe_2_api_8h.html" target="_top" xlink:title="This file defines the interface for initializing the concrete implementation of the PicoDisplay drive...">
<polygon fill="white" stroke="black" points="414.5,-56.5 414.5,-86.5 511.5,-86.5 511.5,-56.5 414.5,-56.5"/>
<text text-anchor="start" x="422.5" y="-74.5" font-family="Helvetica,sans-Serif" font-size="10.00">Driver/PicoDisplay</text>
<text text-anchor="middle" x="463" y="-63.5" font-family="Helvetica,sans-Serif" font-size="10.00">/TPipe/Api.h</text>
</a>
</g>
</g>
<!-- Node8&#45;&gt;Node9 -->
<g id="edge10" class="edge"><title>Node8&#45;&gt;Node9</title>
<path fill="none" stroke="midnightblue" d="M507.975,-116.369C498.485,-107.113 486.562,-95.4824 477.376,-86.523"/>
<polygon fill="midnightblue" stroke="midnightblue" points="505.658,-118.998 515.26,-123.475 510.546,-113.987 505.658,-118.998"/>
</g>
<!-- Node10 -->
<g id="node10" class="node"><title>Node10</title>
<g id="a_node10"><a xlink:href="_driver_2_t_pipe_2_maker_8h.html" target="_top" xlink:title=" ">
<polygon fill="white" stroke="black" points="529.5,-62 529.5,-81 638.5,-81 638.5,-62 529.5,-62"/>
<text text-anchor="middle" x="584" y="-69" font-family="Helvetica,sans-Serif" font-size="10.00">Driver/TPipe/Maker.h</text>
</a>
</g>
</g>
<!-- Node8&#45;&gt;Node10 -->
<g id="edge11" class="edge"><title>Node8&#45;&gt;Node10</title>
<path fill="none" stroke="midnightblue" d="M539.807,-116.325C551.207,-105.02 566.159,-90.1928 575.419,-81.0091"/>
<polygon fill="midnightblue" stroke="midnightblue" points="537.233,-113.948 532.597,-123.475 542.162,-118.919 537.233,-113.948"/>
</g>
</g>
</svg>
