<?xml version="1.0" encoding="UTF-8" standalone="no"?>
<!DOCTYPE svg PUBLIC "-//W3C//DTD SVG 1.1//EN"
 "http://www.w3.org/Graphics/SVG/1.1/DTD/svg11.dtd">
<!-- Generated by graphviz version 2.38.0 (20140413.2041)
 -->
<!-- Title: Cpl/Text/String.h Pages: 1 -->
<svg width="3273pt" height="330pt"
 viewBox="0.00 0.00 3273.44 330.00" xmlns="http://www.w3.org/2000/svg" xmlns:xlink="http://www.w3.org/1999/xlink">
<g id="graph0" class="graph" transform="scale(1 1) rotate(0) translate(4 326)">
<title>Cpl/Text/String.h</title>
<polygon fill="white" stroke="none" points="-4,4 -4,-326 3269.44,-326 3269.44,4 -4,4"/>
<!-- Node1 -->
<g id="node1" class="node"><title>Node1</title>
<g id="a_node1"><a xlink:title=" ">
<polygon fill="#bfbfbf" stroke="black" points="2010.5,-302.5 2010.5,-321.5 2100.5,-321.5 2100.5,-302.5 2010.5,-302.5"/>
<text text-anchor="middle" x="2055.5" y="-309.5" font-family="Helvetica,sans-Serif" font-size="10.00">Cpl/Text/String.h</text>
</a>
</g>
</g>
<!-- Node2 -->
<g id="node2" class="node"><title>Node2</title>
<g id="a_node2"><a xlink:href="_api_md5_8h.html" target="_top" xlink:title=" ">
<polygon fill="white" stroke="black" points="102,-246.5 102,-265.5 227,-265.5 227,-246.5 102,-246.5"/>
<text text-anchor="middle" x="164.5" y="-253.5" font-family="Helvetica,sans-Serif" font-size="10.00">Cpl/Checksum/ApiMd5.h</text>
</a>
</g>
</g>
<!-- Node1&#45;&gt;Node2 -->
<g id="edge1" class="edge"><title>Node1&#45;&gt;Node2</title>
<path fill="none" stroke="midnightblue" d="M2000.39,-310.141C1785.94,-306.676 986.393,-292.618 328.5,-266 295.022,-264.646 257.727,-262.638 227.171,-260.863"/>
<polygon fill="midnightblue" stroke="midnightblue" points="2000.4,-313.641 2010.46,-310.303 2000.51,-306.642 2000.4,-313.641"/>
</g>
<!-- Node4 -->
<g id="node4" class="node"><title>Node4</title>
<g id="a_node4"><a xlink:href="_key_8h.html" target="_top" xlink:title=" ">
<polygon fill="white" stroke="black" points="337.5,-246.5 337.5,-265.5 441.5,-265.5 441.5,-246.5 337.5,-246.5"/>
<text text-anchor="middle" x="389.5" y="-253.5" font-family="Helvetica,sans-Serif" font-size="10.00">Cpl/Container/Key.h</text>
</a>
</g>
</g>
<!-- Node1&#45;&gt;Node4 -->
<g id="edge3" class="edge"><title>Node1&#45;&gt;Node4</title>
<path fill="none" stroke="midnightblue" d="M2000.21,-311.414C1794.71,-312.609 1056.23,-313.361 450.5,-266 447.568,-265.771 444.571,-265.505 441.554,-265.213"/>
<polygon fill="midnightblue" stroke="midnightblue" points="2000.47,-314.913 2010.45,-311.352 2000.42,-307.913 2000.47,-314.913"/>
</g>
<!-- Node43 -->
<g id="node7" class="node"><title>Node43</title>
<g id="a_node7"><a xlink:href="_model_database_api_8h.html" target="_top" xlink:title=" ">
<polygon fill="white" stroke="black" points="2170.5,-246.5 2170.5,-265.5 2312.5,-265.5 2312.5,-246.5 2170.5,-246.5"/>
<text text-anchor="middle" x="2241.5" y="-253.5" font-family="Helvetica,sans-Serif" font-size="10.00">Cpl/Dm/ModelDatabaseApi.h</text>
</a>
</g>
</g>
<!-- Node1&#45;&gt;Node43 -->
<g id="edge7" class="edge"><title>Node1&#45;&gt;Node43</title>
<path fill="none" stroke="midnightblue" d="M2094.88,-299.568C2129.97,-289.381 2180.52,-274.703 2212.17,-265.516"/>
<polygon fill="midnightblue" stroke="midnightblue" points="2093.6,-296.294 2084.97,-302.444 2095.55,-303.017 2093.6,-296.294"/>
</g>
<!-- Node75 -->
<g id="node10" class="node"><title>Node75</title>
<g id="a_node10"><a xlink:href="_numeric_8h.html" target="_top" xlink:title=" ">
<polygon fill="white" stroke="black" points="1904,-62 1904,-81 2017,-81 2017,-62 1904,-62"/>
<text text-anchor="middle" x="1960.5" y="-69" font-family="Helvetica,sans-Serif" font-size="10.00">Cpl/Dm/Mp/Numeric.h</text>
</a>
</g>
</g>
<!-- Node1&#45;&gt;Node75 -->
<g id="edge26" class="edge"><title>Node1&#45;&gt;Node75</title>
<path fill="none" stroke="midnightblue" d="M2038.66,-295.376C2019.99,-276.94 1990.64,-244.414 1976.5,-210 1957.78,-164.429 1958.78,-103.671 1959.92,-81.2712"/>
<polygon fill="midnightblue" stroke="midnightblue" points="2036.3,-297.965 2045.93,-302.379 2041.16,-292.922 2036.3,-297.965"/>
</g>
<!-- Node101 -->
<g id="node20" class="node"><title>Node101</title>
<g id="a_node20"><a xlink:href="_model_point_8h.html" target="_top" xlink:title=" ">
<polygon fill="white" stroke="black" points="2043,-246.5 2043,-265.5 2152,-265.5 2152,-246.5 2043,-246.5"/>
<text text-anchor="middle" x="2097.5" y="-253.5" font-family="Helvetica,sans-Serif" font-size="10.00">Cpl/Dm/ModelPoint.h</text>
</a>
</g>
</g>
<!-- Node1&#45;&gt;Node101 -->
<g id="edge20" class="edge"><title>Node1&#45;&gt;Node101</title>
<path fill="none" stroke="midnightblue" d="M2068.61,-294.144C2075.93,-284.736 2084.74,-273.405 2090.69,-265.751"/>
<polygon fill="midnightblue" stroke="midnightblue" points="2065.81,-292.041 2062.44,-302.083 2071.34,-296.338 2065.81,-292.041"/>
</g>
<!-- Node106 -->
<g id="node24" class="node"><title>Node106</title>
<g id="a_node24"><a xlink:href="_input_8h.html" target="_top" xlink:title=" ">
<polygon fill="white" stroke="black" points="1147,-246.5 1147,-265.5 1222,-265.5 1222,-246.5 1147,-246.5"/>
<text text-anchor="middle" x="1184.5" y="-253.5" font-family="Helvetica,sans-Serif" font-size="10.00">Cpl/Io/Input.h</text>
</a>
</g>
</g>
<!-- Node1&#45;&gt;Node106 -->
<g id="edge27" class="edge"><title>Node1&#45;&gt;Node106</title>
<path fill="none" stroke="midnightblue" d="M1999.89,-307.552C1836.34,-297.413 1359.83,-267.87 1222.16,-259.335"/>
<polygon fill="midnightblue" stroke="midnightblue" points="2000,-311.066 2010.2,-308.192 2000.44,-304.079 2000,-311.066"/>
</g>
<!-- Node134 -->
<g id="node36" class="node"><title>Node134</title>
<g id="a_node36"><a xlink:href="_line_reader_api_8h.html" target="_top" xlink:title=" ">
<polygon fill="white" stroke="black" points="468.5,-246.5 468.5,-265.5 584.5,-265.5 584.5,-246.5 468.5,-246.5"/>
<text text-anchor="middle" x="526.5" y="-253.5" font-family="Helvetica,sans-Serif" font-size="10.00">Cpl/Io/LineReaderApi.h</text>
</a>
</g>
</g>
<!-- Node1&#45;&gt;Node134 -->
<g id="edge41" class="edge"><title>Node1&#45;&gt;Node134</title>
<path fill="none" stroke="midnightblue" d="M2000.01,-311.342C1806.06,-312.103 1140.53,-311.04 593.5,-266 590.576,-265.759 587.584,-265.48 584.565,-265.171"/>
<polygon fill="midnightblue" stroke="midnightblue" points="2000.25,-314.842 2010.23,-311.299 2000.22,-307.842 2000.25,-314.842"/>
</g>
<!-- Node135 -->
<g id="node37" class="node"><title>Node135</title>
<g id="a_node37"><a xlink:href="_line_writer_api_8h.html" target="_top" xlink:title=" ">
<polygon fill="white" stroke="red" points="1837,-246.5 1837,-265.5 1948,-265.5 1948,-246.5 1837,-246.5"/>
<text text-anchor="middle" x="1892.5" y="-253.5" font-family="Helvetica,sans-Serif" font-size="10.00">Cpl/Io/LineWriterApi.h</text>
</a>
</g>
</g>
<!-- Node1&#45;&gt;Node135 -->
<g id="edge43" class="edge"><title>Node1&#45;&gt;Node135</title>
<path fill="none" stroke="midnightblue" d="M2019.8,-299.172C1989.1,-289.004 1945.58,-274.585 1918.21,-265.516"/>
<polygon fill="midnightblue" stroke="midnightblue" points="2019.08,-302.621 2029.67,-302.444 2021.28,-295.976 2019.08,-302.621"/>
</g>
<!-- Node137 -->
<g id="node38" class="node"><title>Node137</title>
<g id="a_node38"><a xlink:href="_output_8h.html" target="_top" xlink:title=" ">
<polygon fill="white" stroke="red" points="1625,-246.5 1625,-265.5 1708,-265.5 1708,-246.5 1625,-246.5"/>
<text text-anchor="middle" x="1666.5" y="-253.5" font-family="Helvetica,sans-Serif" font-size="10.00">Cpl/Io/Output.h</text>
</a>
</g>
</g>
<!-- Node1&#45;&gt;Node137 -->
<g id="edge44" class="edge"><title>Node1&#45;&gt;Node137</title>
<path fill="none" stroke="midnightblue" d="M2000.5,-304.49C1933.35,-296.36 1816.37,-281.609 1716.5,-266 1713.8,-265.578 1711.02,-265.126 1708.22,-264.658"/>
<polygon fill="midnightblue" stroke="midnightblue" points="2000.09,-307.966 2010.44,-305.689 2000.93,-301.017 2000.09,-307.966"/>
</g>
<!-- Node147 -->
<g id="node39" class="node"><title>Node147</title>
<g id="a_node39"><a xlink:href="_system_2_trace_8h.html" target="_top" xlink:title=" ">
<polygon fill="white" stroke="red" points="1985.5,-185 1985.5,-204 2089.5,-204 2089.5,-185 1985.5,-185"/>
<text text-anchor="middle" x="2037.5" y="-192" font-family="Helvetica,sans-Serif" font-size="10.00">Cpl/System/Trace.h</text>
</a>
</g>
</g>
<!-- Node1&#45;&gt;Node147 -->
<g id="edge55" class="edge"><title>Node1&#45;&gt;Node147</title>
<path fill="none" stroke="midnightblue" d="M2044.74,-293.685C2040.32,-285.595 2035.73,-275.637 2033.5,-266 2028.47,-244.262 2032.61,-217.8 2035.43,-204.318"/>
<polygon fill="midnightblue" stroke="midnightblue" points="2041.8,-295.603 2049.86,-302.481 2047.85,-292.078 2041.8,-295.603"/>
</g>
<!-- Node148 -->
<g id="node40" class="node"><title>Node148</title>
<g id="a_node40"><a xlink:href="_cpl_2_system_2_private___8h.html" target="_top" xlink:title="This file contains a collection of classes, interfaces, etc.">
<polygon fill="white" stroke="red" points="2094,-123.5 2094,-142.5 2209,-142.5 2209,-123.5 2094,-123.5"/>
<text text-anchor="middle" x="2151.5" y="-130.5" font-family="Helvetica,sans-Serif" font-size="10.00">Cpl/System/Private_.h</text>
</a>
</g>
</g>
<!-- Node1&#45;&gt;Node148 -->
<g id="edge54" class="edge"><title>Node1&#45;&gt;Node148</title>
<path fill="none" stroke="midnightblue" d="M2111.06,-310.732C2323.58,-309.44 3074.71,-302.311 3109.5,-266 3163.85,-209.28 3376.68,-263.36 2875.5,-179 2586.68,-130.385 2509.06,-170.809 2217.5,-143 2214.74,-142.736 2211.91,-142.443 2209.06,-142.128"/>
<polygon fill="midnightblue" stroke="midnightblue" points="2110.75,-307.234 2100.77,-310.793 2110.79,-314.234 2110.75,-307.234"/>
</g>
<!-- Node11 -->
<g id="node41" class="node"><title>Node11</title>
<g id="a_node41"><a xlink:href="_cmd_2_command_8h.html" target="_top" xlink:title=" ">
<polygon fill="white" stroke="red" points="2330.5,-246.5 2330.5,-265.5 2470.5,-265.5 2470.5,-246.5 2330.5,-246.5"/>
<text text-anchor="middle" x="2400.5" y="-253.5" font-family="Helvetica,sans-Serif" font-size="10.00">Cpl/TShell/Cmd/Command.h</text>
</a>
</g>
</g>
<!-- Node1&#45;&gt;Node11 -->
<g id="edge56" class="edge"><title>Node1&#45;&gt;Node11</title>
<path fill="none" stroke="midnightblue" d="M2110.6,-302.375C2175.22,-292.262 2281.65,-275.603 2346,-265.53"/>
<polygon fill="midnightblue" stroke="midnightblue" points="2109.94,-298.936 2100.6,-303.94 2111.02,-305.852 2109.94,-298.936"/>
</g>
<!-- Node16 -->
<g id="node42" class="node"><title>Node16</title>
<g id="a_node42"><a xlink:href="_threads_8h.html" target="_top" xlink:title=" ">
<polygon fill="white" stroke="red" points="2736,-185 2736,-204 2867,-204 2867,-185 2736,-185"/>
<text text-anchor="middle" x="2801.5" y="-192" font-family="Helvetica,sans-Serif" font-size="10.00">Cpl/TShell/Cmd/Threads.h</text>
</a>
</g>
</g>
<!-- Node1&#45;&gt;Node16 -->
<g id="edge59" class="edge"><title>Node1&#45;&gt;Node16</title>
<path fill="none" stroke="midnightblue" d="M2110.66,-311.709C2192.84,-311.312 2351.47,-304.919 2479.5,-266 2497.76,-260.449 2499.43,-252.14 2517.5,-246 2606.75,-215.677 2633.78,-226.947 2726.5,-210 2736.81,-208.116 2747.89,-206.014 2758.3,-204.008"/>
<polygon fill="midnightblue" stroke="midnightblue" points="2110.54,-308.209 2100.54,-311.729 2110.55,-315.209 2110.54,-308.209"/>
</g>
<!-- Node151 -->
<g id="node43" class="node"><title>Node151</title>
<g id="a_node43"><a xlink:href="_f_string_8h.html" target="_top" xlink:title=" ">
<polygon fill="white" stroke="red" points="602.5,-246.5 602.5,-265.5 698.5,-265.5 698.5,-246.5 602.5,-246.5"/>
<text text-anchor="middle" x="650.5" y="-253.5" font-family="Helvetica,sans-Serif" font-size="10.00">Cpl/Text/FString.h</text>
</a>
</g>
</g>
<!-- Node1&#45;&gt;Node151 -->
<g id="edge60" class="edge"><title>Node1&#45;&gt;Node151</title>
<path fill="none" stroke="midnightblue" d="M2000.33,-308.879C1773.19,-300.15 912.338,-267.064 698.704,-258.853"/>
<polygon fill="midnightblue" stroke="midnightblue" points="2000.22,-312.378 2010.34,-309.264 2000.49,-305.383 2000.22,-312.378"/>
</g>
<!-- Node160 -->
<g id="node44" class="node"><title>Node160</title>
<g id="a_node44"><a xlink:href="_string_decoder_8h.html" target="_top" xlink:title=" ">
<polygon fill="white" stroke="black" points="2527,-246.5 2527,-265.5 2684,-265.5 2684,-246.5 2527,-246.5"/>
<text text-anchor="middle" x="2605.5" y="-253.5" font-family="Helvetica,sans-Serif" font-size="10.00">Cpl/Text/Frame/StringDecoder.h</text>
</a>
</g>
</g>
<!-- Node1&#45;&gt;Node160 -->
<g id="edge63" class="edge"><title>Node1&#45;&gt;Node160</title>
<path fill="none" stroke="midnightblue" d="M2110.5,-305.6C2208.53,-295.975 2413.73,-275.828 2526.72,-264.735"/>
<polygon fill="midnightblue" stroke="midnightblue" points="2110.12,-302.12 2100.51,-306.581 2110.8,-309.087 2110.12,-302.12"/>
</g>
<!-- Node161 -->
<g id="node45" class="node"><title>Node161</title>
<g id="a_node45"><a xlink:href="_string_encoder_8h.html" target="_top" xlink:title=" ">
<polygon fill="white" stroke="black" points="2702,-246.5 2702,-265.5 2859,-265.5 2859,-246.5 2702,-246.5"/>
<text text-anchor="middle" x="2780.5" y="-253.5" font-family="Helvetica,sans-Serif" font-size="10.00">Cpl/Text/Frame/StringEncoder.h</text>
</a>
</g>
</g>
<!-- Node1&#45;&gt;Node161 -->
<g id="edge64" class="edge"><title>Node1&#45;&gt;Node161</title>
<path fill="none" stroke="midnightblue" d="M2110.97,-307.669C2221.64,-300.894 2477.69,-284.567 2692.5,-266 2695.56,-265.735 2698.68,-265.457 2701.83,-265.169"/>
<polygon fill="midnightblue" stroke="midnightblue" points="2110.49,-304.192 2100.72,-308.295 2110.91,-311.179 2110.49,-304.192"/>
</g>
<!-- Node38 -->
<g id="node46" class="node"><title>Node38</title>
<g id="a_node46"><a xlink:href="_string_item_8h.html" target="_top" xlink:title=" ">
<polygon fill="white" stroke="red" points="2877.5,-246.5 2877.5,-265.5 2987.5,-265.5 2987.5,-246.5 2877.5,-246.5"/>
<text text-anchor="middle" x="2932.5" y="-253.5" font-family="Helvetica,sans-Serif" font-size="10.00">Cpl/Text/StringItem.h</text>
</a>
</g>
</g>
<!-- Node1&#45;&gt;Node38 -->
<g id="edge65" class="edge"><title>Node1&#45;&gt;Node38</title>
<path fill="none" stroke="midnightblue" d="M2111.17,-309.493C2242.9,-305.582 2583.93,-293.443 2867.5,-266 2870.68,-265.693 2873.93,-265.345 2877.22,-264.969"/>
<polygon fill="midnightblue" stroke="midnightblue" points="2110.83,-306.001 2100.94,-309.792 2111.04,-312.998 2110.83,-306.001"/>
</g>
<!-- Node162 -->
<g id="node47" class="node"><title>Node162</title>
<g id="a_node47"><a xlink:href="_text_2_string___8h.html" target="_top" xlink:title=" ">
<polygon fill="white" stroke="red" points="3006,-246.5 3006,-265.5 3101,-265.5 3101,-246.5 3006,-246.5"/>
<text text-anchor="middle" x="3053.5" y="-253.5" font-family="Helvetica,sans-Serif" font-size="10.00">Cpl/Text/String_.h</text>
</a>
</g>
</g>
<!-- Node1&#45;&gt;Node162 -->
<g id="edge66" class="edge"><title>Node1&#45;&gt;Node162</title>
<path fill="none" stroke="midnightblue" d="M2110.69,-310.456C2256.04,-308.569 2661.25,-300.381 2996.5,-266 2999.59,-265.683 3002.77,-265.311 3005.96,-264.902"/>
<polygon fill="midnightblue" stroke="midnightblue" points="2110.64,-306.956 2100.68,-310.581 2110.73,-313.955 2110.64,-306.956"/>
</g>
<!-- Node166 -->
<g id="node48" class="node"><title>Node166</title>
<g id="a_node48"><a xlink:href="format_8h.html" target="_top" xlink:title="This file contains some general purpose string formatting functions.">
<polygon fill="white" stroke="red" points="2400.5,-123.5 2400.5,-142.5 2492.5,-142.5 2492.5,-123.5 2400.5,-123.5"/>
<text text-anchor="middle" x="2446.5" y="-130.5" font-family="Helvetica,sans-Serif" font-size="10.00">Cpl/Text/format.h</text>
</a>
</g>
</g>
<!-- Node1&#45;&gt;Node166 -->
<g id="edge67" class="edge"><title>Node1&#45;&gt;Node166</title>
<path fill="none" stroke="midnightblue" d="M2110.89,-311.031C2341.26,-310.893 3213.42,-307.616 3253.5,-266 3362.51,-152.82 2679.52,-136.676 2492.78,-134.38"/>
<polygon fill="midnightblue" stroke="midnightblue" points="2110.73,-307.531 2100.73,-311.035 2110.73,-314.531 2110.73,-307.531"/>
</g>
<!-- Node167 -->
<g id="node49" class="node"><title>Node167</title>
<g id="a_node49"><a xlink:href="_guid_8h.html" target="_top" xlink:title=" ">
<polygon fill="white" stroke="black" points="3158,-246.5 3158,-265.5 3245,-265.5 3245,-246.5 3158,-246.5"/>
<text text-anchor="middle" x="3201.5" y="-253.5" font-family="Helvetica,sans-Serif" font-size="10.00">Cpl/Type/Guid.h</text>
</a>
</g>
</g>
<!-- Node1&#45;&gt;Node167 -->
<g id="edge70" class="edge"><title>Node1&#45;&gt;Node167</title>
<path fill="none" stroke="midnightblue" d="M2110.8,-310.908C2270.99,-310.171 2749.05,-304.637 3143.5,-266 3148.17,-265.543 3153.03,-264.96 3157.86,-264.31"/>
<polygon fill="midnightblue" stroke="midnightblue" points="2110.69,-307.409 2100.71,-310.95 2110.72,-314.409 2110.69,-307.409"/>
</g>
<!-- Node168 -->
<g id="node50" class="node"><title>Node168</title>
<g id="a_node50"><a xlink:href="_tx_8h.html" target="_top" xlink:title=" ">
<polygon fill="white" stroke="red" points="1726,-246.5 1726,-265.5 1819,-265.5 1819,-246.5 1726,-246.5"/>
<text text-anchor="middle" x="1772.5" y="-253.5" font-family="Helvetica,sans-Serif" font-size="10.00">Driver/TPipe/Tx.h</text>
</a>
</g>
</g>
<!-- Node1&#45;&gt;Node168 -->
<g id="edge71" class="edge"><title>Node1&#45;&gt;Node168</title>
<path fill="none" stroke="midnightblue" d="M2000.67,-300.537C1947.18,-290.332 1866.83,-274.999 1817.13,-265.516"/>
<polygon fill="midnightblue" stroke="midnightblue" points="2000.18,-304.007 2010.66,-302.444 2001.49,-297.131 2000.18,-304.007"/>
</g>
<!-- Node3 -->
<g id="node3" class="node"><title>Node3</title>
<g id="a_node3"><a xlink:href="_md5_aladdin_8h.html" target="_top" xlink:title=" ">
<polygon fill="white" stroke="black" points="0,-185 0,-204 143,-204 143,-185 0,-185"/>
<text text-anchor="middle" x="71.5" y="-192" font-family="Helvetica,sans-Serif" font-size="10.00">Cpl/Checksum/Md5Aladdin.h</text>
</a>
</g>
</g>
<!-- Node2&#45;&gt;Node3 -->
<g id="edge2" class="edge"><title>Node2&#45;&gt;Node3</title>
<path fill="none" stroke="midnightblue" d="M142.507,-240.93C124.579,-229.459 99.8443,-213.634 84.7999,-204.009"/>
<polygon fill="midnightblue" stroke="midnightblue" points="140.866,-244.034 151.175,-246.475 144.638,-238.138 140.866,-244.034"/>
</g>
<!-- Node4&#45;&gt;Node1 -->
<g id="edge5" class="edge"><title>Node4&#45;&gt;Node1</title>
<path fill="none" stroke="midnightblue" d="M451.76,-264.414C457.435,-265.029 463.079,-265.576 468.5,-266 1077.85,-313.644 1821.55,-312.599 2010.34,-311.393"/>
<polygon fill="midnightblue" stroke="midnightblue" points="451.887,-260.905 441.554,-263.245 451.09,-267.86 451.887,-260.905"/>
</g>
<!-- Node5 -->
<g id="node5" class="node"><title>Node5</title>
<g id="a_node5"><a xlink:href="_dict_item_8h.html" target="_top" xlink:title=" ">
<polygon fill="white" stroke="red" points="161,-185 161,-204 284,-204 284,-185 161,-185"/>
<text text-anchor="middle" x="222.5" y="-192" font-family="Helvetica,sans-Serif" font-size="10.00">Cpl/Container/DictItem.h</text>
</a>
</g>
</g>
<!-- Node4&#45;&gt;Node5 -->
<g id="edge4" class="edge"><title>Node4&#45;&gt;Node5</title>
<path fill="none" stroke="midnightblue" d="M356.052,-243.083C323.59,-231.517 275.133,-214.252 246.383,-204.009"/>
<polygon fill="midnightblue" stroke="midnightblue" points="354.978,-246.416 365.573,-246.475 357.328,-239.822 354.978,-246.416"/>
</g>
<!-- Node35 -->
<g id="node6" class="node"><title>Node35</title>
<g id="a_node6"><a xlink:href="_rx_frame_handler_8h.html" target="_top" xlink:title=" ">
<polygon fill="white" stroke="black" points="302,-185 302,-204 457,-204 457,-185 302,-185"/>
<text text-anchor="middle" x="379.5" y="-192" font-family="Helvetica,sans-Serif" font-size="10.00">Driver/TPipe/RxFrameHandler.h</text>
</a>
</g>
</g>
<!-- Node4&#45;&gt;Node35 -->
<g id="edge6" class="edge"><title>Node4&#45;&gt;Node35</title>
<path fill="none" stroke="midnightblue" d="M386.36,-236.317C384.541,-225.496 382.34,-212.398 380.93,-204.009"/>
<polygon fill="midnightblue" stroke="midnightblue" points="382.958,-237.194 388.067,-246.475 389.861,-236.033 382.958,-237.194"/>
</g>
<!-- Node44 -->
<g id="node8" class="node"><title>Node44</title>
<g id="a_node8"><a xlink:href="_model_database_8h.html" target="_top" xlink:title=" ">
<polygon fill="white" stroke="red" points="2465.5,-185 2465.5,-204 2593.5,-204 2593.5,-185 2465.5,-185"/>
<text text-anchor="middle" x="2529.5" y="-192" font-family="Helvetica,sans-Serif" font-size="10.00">Cpl/Dm/ModelDatabase.h</text>
</a>
</g>
</g>
<!-- Node43&#45;&gt;Node44 -->
<g id="edge8" class="edge"><title>Node43&#45;&gt;Node44</title>
<path fill="none" stroke="midnightblue" d="M2292.8,-244.402C2348.63,-232.867 2436.81,-214.65 2488.31,-204.009"/>
<polygon fill="midnightblue" stroke="midnightblue" points="2291.85,-241.024 2282.76,-246.475 2293.26,-247.879 2291.85,-241.024"/>
</g>
<!-- Node12 -->
<g id="node19" class="node"><title>Node12</title>
<g id="a_node19"><a xlink:href="_dm_8h.html" target="_top" xlink:title=" ">
<polygon fill="white" stroke="black" points="2611.5,-185 2611.5,-204 2717.5,-204 2717.5,-185 2611.5,-185"/>
<text text-anchor="middle" x="2664.5" y="-192" font-family="Helvetica,sans-Serif" font-size="10.00">Cpl/Dm/TShell/Dm.h</text>
</a>
</g>
</g>
<!-- Node43&#45;&gt;Node12 -->
<g id="edge19" class="edge"><title>Node43&#45;&gt;Node12</title>
<path fill="none" stroke="midnightblue" d="M2322.87,-245.319C2420.85,-233.589 2575.67,-214.796 2602.5,-210 2611.75,-208.347 2621.69,-206.193 2630.85,-204.053"/>
<polygon fill="midnightblue" stroke="midnightblue" points="2322.2,-241.874 2312.69,-246.537 2323.03,-248.824 2322.2,-241.874"/>
</g>
<!-- Node45 -->
<g id="node9" class="node"><title>Node45</title>
<g id="a_node9"><a xlink:href="_model_point_common___8h.html" target="_top" xlink:title=" ">
<polygon fill="white" stroke="red" points="2227,-123.5 2227,-142.5 2380,-142.5 2380,-123.5 2227,-123.5"/>
<text text-anchor="middle" x="2303.5" y="-130.5" font-family="Helvetica,sans-Serif" font-size="10.00">Cpl/Dm/ModelPointCommon_.h</text>
</a>
</g>
</g>
<!-- Node44&#45;&gt;Node45 -->
<g id="edge9" class="edge"><title>Node44&#45;&gt;Node45</title>
<path fill="none" stroke="midnightblue" d="M2487.32,-182.396C2443.43,-170.84 2375.65,-152.995 2335.82,-142.509"/>
<polygon fill="midnightblue" stroke="midnightblue" points="2486.56,-185.814 2497.12,-184.975 2488.34,-179.044 2486.56,-185.814"/>
</g>
<!-- Node45&#45;&gt;Node75 -->
<g id="edge10" class="edge"><title>Node45&#45;&gt;Node75</title>
<path fill="none" stroke="midnightblue" d="M2244.46,-121.759C2178.09,-110.246 2071.53,-91.7602 2009.55,-81.0091"/>
<polygon fill="midnightblue" stroke="midnightblue" points="2243.91,-125.214 2254.36,-123.475 2245.1,-118.317 2243.91,-125.214"/>
</g>
<!-- Node76 -->
<g id="node11" class="node"><title>Node76</title>
<g id="a_node11"><a xlink:href="_bit_array16_8h.html" target="_top" xlink:title=" ">
<polygon fill="white" stroke="black" points="2385.5,-0.5 2385.5,-19.5 2507.5,-19.5 2507.5,-0.5 2385.5,-0.5"/>
<text text-anchor="middle" x="2446.5" y="-7.5" font-family="Helvetica,sans-Serif" font-size="10.00">Cpl/Dm/Mp/BitArray16.h</text>
</a>
</g>
</g>
<!-- Node75&#45;&gt;Node76 -->
<g id="edge11" class="edge"><title>Node75&#45;&gt;Node76</title>
<path fill="none" stroke="midnightblue" d="M2026.99,-62.5758C2109.13,-52.7519 2253.15,-35.417 2376.5,-20 2379.42,-19.6353 2382.4,-19.2599 2385.42,-18.879"/>
<polygon fill="midnightblue" stroke="midnightblue" points="2026.55,-59.1029 2017.04,-63.7652 2027.38,-66.0534 2026.55,-59.1029"/>
</g>
<!-- Node77 -->
<g id="node12" class="node"><title>Node77</title>
<g id="a_node12"><a xlink:href="_double_8h.html" target="_top" xlink:title=" ">
<polygon fill="white" stroke="black" points="2144,-0.5 2144,-19.5 2251,-19.5 2251,-0.5 2144,-0.5"/>
<text text-anchor="middle" x="2197.5" y="-7.5" font-family="Helvetica,sans-Serif" font-size="10.00">Cpl/Dm/Mp/Double.h</text>
</a>
</g>
</g>
<!-- Node75&#45;&gt;Node77 -->
<g id="edge12" class="edge"><title>Node75&#45;&gt;Node77</title>
<path fill="none" stroke="midnightblue" d="M2004.44,-59.4685C2050.46,-47.9147 2121.75,-30.0173 2163.61,-19.5091"/>
<polygon fill="midnightblue" stroke="midnightblue" points="2003.3,-56.1454 1994.46,-61.9751 2005.01,-62.9347 2003.3,-56.1454"/>
</g>
<!-- Node78 -->
<g id="node13" class="node"><title>Node78</title>
<g id="a_node13"><a xlink:href="_float_8h.html" target="_top" xlink:title=" ">
<polygon fill="white" stroke="red" points="2269.5,-0.5 2269.5,-19.5 2367.5,-19.5 2367.5,-0.5 2269.5,-0.5"/>
<text text-anchor="middle" x="2318.5" y="-7.5" font-family="Helvetica,sans-Serif" font-size="10.00">Cpl/Dm/Mp/Float.h</text>
</a>
</g>
</g>
<!-- Node75&#45;&gt;Node78 -->
<g id="edge13" class="edge"><title>Node75&#45;&gt;Node78</title>
<path fill="none" stroke="midnightblue" d="M2021.79,-60.3131C2091.77,-48.6836 2204.85,-29.8895 2269.32,-19.1745"/>
<polygon fill="midnightblue" stroke="midnightblue" points="2021.08,-56.8829 2011.79,-61.9751 2022.23,-63.7881 2021.08,-56.8829"/>
</g>
<!-- Node79 -->
<g id="node14" class="node"><title>Node79</title>
<g id="a_node14"><a xlink:href="_int32_8h.html" target="_top" xlink:title=" ">
<polygon fill="white" stroke="black" points="1553.5,-0.5 1553.5,-19.5 1651.5,-19.5 1651.5,-0.5 1553.5,-0.5"/>
<text text-anchor="middle" x="1602.5" y="-7.5" font-family="Helvetica,sans-Serif" font-size="10.00">Cpl/Dm/Mp/Int32.h</text>
</a>
</g>
</g>
<!-- Node75&#45;&gt;Node79 -->
<g id="edge14" class="edge"><title>Node75&#45;&gt;Node79</title>
<path fill="none" stroke="midnightblue" d="M1899.21,-60.3131C1829.23,-48.6836 1716.15,-29.8895 1651.68,-19.1745"/>
<polygon fill="midnightblue" stroke="midnightblue" points="1898.77,-63.7881 1909.21,-61.9751 1899.92,-56.8829 1898.77,-63.7881"/>
</g>
<!-- Node80 -->
<g id="node15" class="node"><title>Node80</title>
<g id="a_node15"><a xlink:href="_int64_8h.html" target="_top" xlink:title=" ">
<polygon fill="white" stroke="black" points="1669.5,-0.5 1669.5,-19.5 1767.5,-19.5 1767.5,-0.5 1669.5,-0.5"/>
<text text-anchor="middle" x="1718.5" y="-7.5" font-family="Helvetica,sans-Serif" font-size="10.00">Cpl/Dm/Mp/Int64.h</text>
</a>
</g>
</g>
<!-- Node75&#45;&gt;Node80 -->
<g id="edge15" class="edge"><title>Node75&#45;&gt;Node80</title>
<path fill="none" stroke="midnightblue" d="M1915.93,-59.5412C1868.95,-47.99 1795.94,-30.0394 1753.11,-19.5091"/>
<polygon fill="midnightblue" stroke="midnightblue" points="1915.28,-62.9862 1925.83,-61.9751 1916.95,-56.1887 1915.28,-62.9862"/>
</g>
<!-- Node81 -->
<g id="node16" class="node"><title>Node81</title>
<g id="a_node16"><a xlink:href="_uint32_8h.html" target="_top" xlink:title=" ">
<polygon fill="white" stroke="red" points="1785.5,-0.5 1785.5,-19.5 1889.5,-19.5 1889.5,-0.5 1785.5,-0.5"/>
<text text-anchor="middle" x="1837.5" y="-7.5" font-family="Helvetica,sans-Serif" font-size="10.00">Cpl/Dm/Mp/Uint32.h</text>
</a>
</g>
</g>
<!-- Node75&#45;&gt;Node81 -->
<g id="edge16" class="edge"><title>Node75&#45;&gt;Node81</title>
<path fill="none" stroke="midnightblue" d="M1933.67,-57.5207C1909.81,-45.9816 1875.63,-29.4433 1855.09,-19.5091"/>
<polygon fill="midnightblue" stroke="midnightblue" points="1932.35,-60.7711 1942.88,-61.9751 1935.4,-54.4697 1932.35,-60.7711"/>
</g>
<!-- Node84 -->
<g id="node17" class="node"><title>Node84</title>
<g id="a_node17"><a xlink:href="_uint64_8h.html" target="_top" xlink:title=" ">
<polygon fill="white" stroke="red" points="1907.5,-0.5 1907.5,-19.5 2011.5,-19.5 2011.5,-0.5 1907.5,-0.5"/>
<text text-anchor="middle" x="1959.5" y="-7.5" font-family="Helvetica,sans-Serif" font-size="10.00">Cpl/Dm/Mp/Uint64.h</text>
</a>
</g>
</g>
<!-- Node75&#45;&gt;Node84 -->
<g id="edge17" class="edge"><title>Node75&#45;&gt;Node84</title>
<path fill="none" stroke="midnightblue" d="M1960.19,-51.8165C1960,-40.9962 1959.78,-27.898 1959.64,-19.5091"/>
<polygon fill="midnightblue" stroke="midnightblue" points="1956.69,-52.0354 1960.36,-61.9751 1963.69,-51.9177 1956.69,-52.0354"/>
</g>
<!-- Node86 -->
<g id="node18" class="node"><title>Node86</title>
<g id="a_node18"><a xlink:href="_void_8h.html" target="_top" xlink:title=" ">
<polygon fill="white" stroke="black" points="2029.5,-0.5 2029.5,-19.5 2125.5,-19.5 2125.5,-0.5 2029.5,-0.5"/>
<text text-anchor="middle" x="2077.5" y="-7.5" font-family="Helvetica,sans-Serif" font-size="10.00">Cpl/Dm/Mp/Void.h</text>
</a>
</g>
</g>
<!-- Node75&#45;&gt;Node86 -->
<g id="edge18" class="edge"><title>Node75&#45;&gt;Node86</title>
<path fill="none" stroke="midnightblue" d="M1986.33,-57.3665C2009,-45.8347 2041.32,-29.3992 2060.77,-19.5091"/>
<polygon fill="midnightblue" stroke="midnightblue" points="1984.59,-54.3223 1977.26,-61.9751 1987.76,-60.5618 1984.59,-54.3223"/>
</g>
<!-- Node101&#45;&gt;Node45 -->
<g id="edge22" class="edge"><title>Node101&#45;&gt;Node45</title>
<path fill="none" stroke="midnightblue" d="M2153.74,-244.431C2194.27,-235.925 2244.68,-223.244 2261.5,-210 2284.24,-192.097 2296.5,-158.299 2301.2,-142.518"/>
<polygon fill="midnightblue" stroke="midnightblue" points="2153.03,-241.004 2143.94,-246.447 2154.44,-247.86 2153.03,-241.004"/>
</g>
<!-- Node102 -->
<g id="node21" class="node"><title>Node102</title>
<g id="a_node21"><a xlink:href="helpers_8h.html" target="_top" xlink:title="This file defines helper functions/interface for writing unit tests.">
<polygon fill="white" stroke="black" points="1991,-123.5 1991,-142.5 2076,-142.5 2076,-123.5 1991,-123.5"/>
<text text-anchor="middle" x="2033.5" y="-130.5" font-family="Helvetica,sans-Serif" font-size="10.00">Catch/helpers.h</text>
</a>
</g>
</g>
<!-- Node101&#45;&gt;Node102 -->
<g id="edge21" class="edge"><title>Node101&#45;&gt;Node102</title>
<path fill="none" stroke="midnightblue" d="M2102.42,-236.597C2105.69,-220.46 2107.85,-196.854 2098.5,-179 2089.45,-161.736 2070.44,-149.779 2055.31,-142.553"/>
<polygon fill="midnightblue" stroke="midnightblue" points="2099,-235.877 2100.11,-246.413 2105.81,-237.481 2099,-235.877"/>
</g>
<!-- Node103 -->
<g id="node22" class="node"><title>Node103</title>
<g id="a_node22"><a xlink:href="_dm_2_persistent_2_record_8h.html" target="_top" xlink:title=" ">
<polygon fill="white" stroke="red" points="2309.5,-185 2309.5,-204 2447.5,-204 2447.5,-185 2309.5,-185"/>
<text text-anchor="middle" x="2378.5" y="-192" font-family="Helvetica,sans-Serif" font-size="10.00">Cpl/Dm/Persistent/Record.h</text>
</a>
</g>
</g>
<!-- Node101&#45;&gt;Node103 -->
<g id="edge23" class="edge"><title>Node101&#45;&gt;Node103</title>
<path fill="none" stroke="midnightblue" d="M2147.55,-244.402C2202.03,-232.867 2288.06,-214.65 2338.31,-204.009"/>
<polygon fill="midnightblue" stroke="midnightblue" points="2146.82,-240.979 2137.76,-246.475 2148.27,-247.828 2146.82,-240.979"/>
</g>
<!-- Node104 -->
<g id="node23" class="node"><title>Node104</title>
<g id="a_node23"><a xlink:href="_subscriber_8h.html" target="_top" xlink:title=" ">
<polygon fill="white" stroke="red" points="2146,-185 2146,-204 2253,-204 2253,-185 2146,-185"/>
<text text-anchor="middle" x="2199.5" y="-192" font-family="Helvetica,sans-Serif" font-size="10.00">Cpl/Dm/Subscriber.h</text>
</a>
</g>
</g>
<!-- Node101&#45;&gt;Node104 -->
<g id="edge24" class="edge"><title>Node101&#45;&gt;Node104</title>
<path fill="none" stroke="midnightblue" d="M2120.81,-241.401C2140.54,-229.896 2168.19,-213.767 2184.91,-204.009"/>
<polygon fill="midnightblue" stroke="midnightblue" points="2118.99,-238.413 2112.11,-246.475 2122.52,-244.46 2118.99,-238.413"/>
</g>
<!-- Node104&#45;&gt;Node45 -->
<g id="edge25" class="edge"><title>Node104&#45;&gt;Node45</title>
<path fill="none" stroke="midnightblue" d="M2223.27,-179.901C2243.38,-168.396 2271.57,-152.267 2288.63,-142.509"/>
<polygon fill="midnightblue" stroke="midnightblue" points="2221.34,-176.971 2214.4,-184.975 2224.82,-183.047 2221.34,-176.971"/>
</g>
<!-- Node107 -->
<g id="node25" class="node"><title>Node107</title>
<g id="a_node25"><a xlink:href="_input_api_8h.html" target="_top" xlink:title=" ">
<polygon fill="white" stroke="red" points="671.5,-185 671.5,-204 779.5,-204 779.5,-185 671.5,-185"/>
<text text-anchor="middle" x="725.5" y="-192" font-family="Helvetica,sans-Serif" font-size="10.00">Cpl/Io/File/InputApi.h</text>
</a>
</g>
</g>
<!-- Node106&#45;&gt;Node107 -->
<g id="edge28" class="edge"><title>Node106&#45;&gt;Node107</title>
<path fill="none" stroke="midnightblue" d="M1136.87,-251.339C1062.26,-245.211 913.397,-231.399 788.5,-210 778.986,-208.37 768.755,-206.199 759.362,-204.034"/>
<polygon fill="midnightblue" stroke="midnightblue" points="1136.65,-254.833 1146.9,-252.153 1137.22,-247.856 1136.65,-254.833"/>
</g>
<!-- Node112 -->
<g id="node26" class="node"><title>Node112</title>
<g id="a_node26"><a xlink:href="_input_output_8h.html" target="_top" xlink:title=" ">
<polygon fill="white" stroke="red" points="1711.5,-185 1711.5,-204 1815.5,-204 1815.5,-185 1711.5,-185"/>
<text text-anchor="middle" x="1763.5" y="-192" font-family="Helvetica,sans-Serif" font-size="10.00">Cpl/Io/InputOutput.h</text>
</a>
</g>
</g>
<!-- Node106&#45;&gt;Node112 -->
<g id="edge29" class="edge"><title>Node106&#45;&gt;Node112</title>
<path fill="none" stroke="midnightblue" d="M1232.08,-253.134C1323.52,-249.045 1529.95,-237.382 1701.5,-210 1711.11,-208.467 1721.43,-206.274 1730.85,-204.057"/>
<polygon fill="midnightblue" stroke="midnightblue" points="1231.87,-249.64 1222.03,-253.573 1232.17,-256.633 1231.87,-249.64"/>
</g>
<!-- Node124 -->
<g id="node27" class="node"><title>Node124</title>
<g id="a_node27"><a xlink:href="_line_reader_8h.html" target="_top" xlink:title=" ">
<polygon fill="white" stroke="black" points="475.5,-185 475.5,-204 577.5,-204 577.5,-185 475.5,-185"/>
<text text-anchor="middle" x="526.5" y="-192" font-family="Helvetica,sans-Serif" font-size="10.00">Cpl/Io/LineReader.h</text>
</a>
</g>
</g>
<!-- Node106&#45;&gt;Node124 -->
<g id="edge30" class="edge"><title>Node106&#45;&gt;Node124</title>
<path fill="none" stroke="midnightblue" d="M1136.75,-252.08C1040.58,-245.99 816.762,-230.755 629.5,-210 612.539,-208.12 594.064,-205.652 577.505,-203.287"/>
<polygon fill="midnightblue" stroke="midnightblue" points="1136.54,-255.574 1146.74,-252.709 1136.98,-248.588 1136.54,-255.574"/>
</g>
<!-- Node125 -->
<g id="node28" class="node"><title>Node125</title>
<g id="a_node28"><a xlink:href="_serial_2_r_p2040_2_stdio_2_input_8h.html" target="_top" xlink:title=" ">
<polygon fill="white" stroke="black" points="798,-179.5 798,-209.5 905,-209.5 905,-179.5 798,-179.5"/>
<text text-anchor="start" x="806" y="-197.5" font-family="Helvetica,sans-Serif" font-size="10.00">Cpl/Io/Serial/RP2040</text>
<text text-anchor="middle" x="851.5" y="-186.5" font-family="Helvetica,sans-Serif" font-size="10.00">/Stdio/Input.h</text>
</a>
</g>
</g>
<!-- Node106&#45;&gt;Node125 -->
<g id="edge31" class="edge"><title>Node106&#45;&gt;Node125</title>
<path fill="none" stroke="midnightblue" d="M1136.82,-247.954C1082.74,-239.755 992.012,-225.365 914.5,-210 911.417,-209.389 908.255,-208.738 905.068,-208.064"/>
<polygon fill="midnightblue" stroke="midnightblue" points="1136.39,-251.43 1146.8,-249.461 1137.44,-244.508 1136.39,-251.43"/>
</g>
<!-- Node126 -->
<g id="node29" class="node"><title>Node126</title>
<g id="a_node29"><a xlink:href="_input___8h.html" target="_top" xlink:title=" ">
<polygon fill="white" stroke="red" points="923.5,-185 923.5,-204 1029.5,-204 1029.5,-185 923.5,-185"/>
<text text-anchor="middle" x="976.5" y="-192" font-family="Helvetica,sans-Serif" font-size="10.00">Cpl/Io/Stdio/Input_.h</text>
</a>
</g>
</g>
<!-- Node106&#45;&gt;Node126 -->
<g id="edge32" class="edge"><title>Node106&#45;&gt;Node126</title>
<path fill="none" stroke="midnightblue" d="M1144.91,-243.676C1104.5,-232.114 1042.67,-214.429 1006.25,-204.009"/>
<polygon fill="midnightblue" stroke="midnightblue" points="1144.12,-247.09 1154.7,-246.475 1146.05,-240.36 1144.12,-247.09"/>
</g>
<!-- Node128 -->
<g id="node30" class="node"><title>Node128</title>
<g id="a_node30"><a xlink:href="_system_2_r_p2040_2_stdio_8h.html" target="_top" xlink:title="This interface returns the Cpl Io Stream for the for SDK&#39;s stdio.">
<polygon fill="white" stroke="black" points="1268,-185 1268,-204 1407,-204 1407,-185 1268,-185"/>
<text text-anchor="middle" x="1337.5" y="-192" font-family="Helvetica,sans-Serif" font-size="10.00">Cpl/System/RP2040/Stdio.h</text>
</a>
</g>
</g>
<!-- Node106&#45;&gt;Node128 -->
<g id="edge33" class="edge"><title>Node106&#45;&gt;Node128</title>
<path fill="none" stroke="midnightblue" d="M1215.92,-242.782C1245.65,-231.22 1289.51,-214.164 1315.62,-204.009"/>
<polygon fill="midnightblue" stroke="midnightblue" points="1214.47,-239.589 1206.42,-246.475 1217.01,-246.113 1214.47,-239.589"/>
</g>
<!-- Node129 -->
<g id="node31" class="node"><title>Node129</title>
<g id="a_node31"><a xlink:href="_processor_api_8h.html" target="_top" xlink:title=" ">
<polygon fill="white" stroke="red" points="1425,-185 1425,-204 1556,-204 1556,-185 1425,-185"/>
<text text-anchor="middle" x="1490.5" y="-192" font-family="Helvetica,sans-Serif" font-size="10.00">Cpl/TShell/ProcessorApi.h</text>
</a>
</g>
</g>
<!-- Node106&#45;&gt;Node129 -->
<g id="edge34" class="edge"><title>Node106&#45;&gt;Node129</title>
<path fill="none" stroke="midnightblue" d="M1232.15,-245.735C1290.87,-234.316 1389.86,-215.07 1446.74,-204.009"/>
<polygon fill="midnightblue" stroke="midnightblue" points="1231.17,-242.36 1222.02,-247.704 1232.51,-249.231 1231.17,-242.36"/>
</g>
<!-- Node131 -->
<g id="node32" class="node"><title>Node131</title>
<g id="a_node32"><a xlink:href="_stream_decoder_8h.html" target="_top" xlink:title=" ">
<polygon fill="white" stroke="red" points="1048,-185 1048,-204 1211,-204 1211,-185 1048,-185"/>
<text text-anchor="middle" x="1129.5" y="-192" font-family="Helvetica,sans-Serif" font-size="10.00">Cpl/Text/Frame/StreamDecoder.h</text>
</a>
</g>
</g>
<!-- Node106&#45;&gt;Node131 -->
<g id="edge35" class="edge"><title>Node106&#45;&gt;Node131</title>
<path fill="none" stroke="midnightblue" d="M1169.71,-238.997C1159.3,-227.736 1145.77,-213.104 1137.37,-204.009"/>
<polygon fill="midnightblue" stroke="midnightblue" points="1167.26,-241.508 1176.62,-246.475 1172.4,-236.756 1167.26,-241.508"/>
</g>
<!-- Node32 -->
<g id="node33" class="node"><title>Node32</title>
<g id="a_node33"><a xlink:href="_pipe_8h.html" target="_top" xlink:title=" ">
<polygon fill="white" stroke="red" points="1490,-123.5 1490,-142.5 1591,-142.5 1591,-123.5 1490,-123.5"/>
<text text-anchor="middle" x="1540.5" y="-130.5" font-family="Helvetica,sans-Serif" font-size="10.00">Driver/TPipe/Pipe.h</text>
</a>
</g>
</g>
<!-- Node106&#45;&gt;Node32 -->
<g id="edge39" class="edge"><title>Node106&#45;&gt;Node32</title>
<path fill="none" stroke="midnightblue" d="M1198.26,-238.613C1215.45,-218.557 1244.34,-186.345 1258.5,-179 1297.83,-158.598 1419.73,-144.748 1489.71,-138.247"/>
<polygon fill="midnightblue" stroke="midnightblue" points="1195.49,-236.469 1191.68,-246.357 1200.82,-241 1195.49,-236.469"/>
</g>
<!-- Node33 -->
<g id="node34" class="node"><title>Node33</title>
<g id="a_node34"><a xlink:href="_driver_2_pico_display_2_t_pipe_2_api_8h.html" target="_top" xlink:title="This file defines the interface for initializing the concrete implementation of the PicoDisplay drive...">
<polygon fill="white" stroke="black" points="1492,-56.5 1492,-86.5 1589,-86.5 1589,-56.5 1492,-56.5"/>
<text text-anchor="start" x="1500" y="-74.5" font-family="Helvetica,sans-Serif" font-size="10.00">Driver/PicoDisplay</text>
<text text-anchor="middle" x="1540.5" y="-63.5" font-family="Helvetica,sans-Serif" font-size="10.00">/TPipe/Api.h</text>
</a>
</g>
</g>
<!-- Node106&#45;&gt;Node33 -->
<g id="edge38" class="edge"><title>Node106&#45;&gt;Node33</title>
<path fill="none" stroke="midnightblue" d="M1136.59,-254.477C1013.62,-252.641 694.207,-244.558 662.5,-210 653.185,-199.848 653.363,-189.312 662.5,-179 717.996,-116.365 1315.66,-83.1759 1491.87,-74.7029"/>
<polygon fill="midnightblue" stroke="midnightblue" points="1136.78,-257.98 1146.83,-254.623 1136.88,-250.981 1136.78,-257.98"/>
</g>
<!-- Node36 -->
<g id="node35" class="node"><title>Node36</title>
<g id="a_node35"><a xlink:href="_main_8h.html" target="_top" xlink:title="This file defines the hardware/platform independent start&#45;up interface(s) for the Storm::Thermostat a...">
<polygon fill="white" stroke="black" points="1574,-179.5 1574,-209.5 1693,-209.5 1693,-179.5 1574,-179.5"/>
<text text-anchor="start" x="1582" y="-197.5" font-family="Helvetica,sans-Serif" font-size="10.00">Storm/Thermostat/Main</text>
<text text-anchor="middle" x="1633.5" y="-186.5" font-family="Helvetica,sans-Serif" font-size="10.00">/Main.h</text>
</a>
</g>
</g>
<!-- Node106&#45;&gt;Node36 -->
<g id="edge40" class="edge"><title>Node106&#45;&gt;Node36</title>
<path fill="none" stroke="midnightblue" d="M1232.28,-250.723C1304.5,-243.947 1445.62,-229.49 1564.5,-210 1567.52,-209.505 1570.61,-208.968 1573.72,-208.403"/>
<polygon fill="midnightblue" stroke="midnightblue" points="1231.77,-247.255 1222.14,-251.666 1232.42,-254.225 1231.77,-247.255"/>
</g>
<!-- Node131&#45;&gt;Node32 -->
<g id="edge36" class="edge"><title>Node131&#45;&gt;Node32</title>
<path fill="none" stroke="midnightblue" d="M1195.33,-183.485C1205.43,-181.969 1215.74,-180.434 1225.5,-179 1318.69,-165.306 1427.47,-149.892 1489.74,-141.123"/>
<polygon fill="midnightblue" stroke="midnightblue" points="1194.7,-180.041 1185.33,-184.99 1195.74,-186.964 1194.7,-180.041"/>
</g>
<!-- Node32&#45;&gt;Node33 -->
<g id="edge37" class="edge"><title>Node32&#45;&gt;Node33</title>
<path fill="none" stroke="midnightblue" d="M1540.5,-113.235C1540.5,-104.586 1540.5,-94.4969 1540.5,-86.523"/>
<polygon fill="midnightblue" stroke="midnightblue" points="1537,-113.475 1540.5,-123.475 1544,-113.475 1537,-113.475"/>
</g>
<!-- Node134&#45;&gt;Node124 -->
<g id="edge42" class="edge"><title>Node134&#45;&gt;Node124</title>
<path fill="none" stroke="midnightblue" d="M526.5,-236.317C526.5,-225.496 526.5,-212.398 526.5,-204.009"/>
<polygon fill="midnightblue" stroke="midnightblue" points="523,-236.475 526.5,-246.475 530,-236.475 523,-236.475"/>
</g>
<!-- Node137&#45;&gt;Node112 -->
<g id="edge45" class="edge"><title>Node137&#45;&gt;Node112</title>
<path fill="none" stroke="midnightblue" d="M1688.93,-241.244C1707.66,-229.75 1733.79,-213.723 1749.63,-204.009"/>
<polygon fill="midnightblue" stroke="midnightblue" points="1687.09,-238.263 1680.4,-246.475 1690.75,-244.23 1687.09,-238.263"/>
</g>
<!-- Node137&#45;&gt;Node128 -->
<g id="edge46" class="edge"><title>Node137&#45;&gt;Node128</title>
<path fill="none" stroke="midnightblue" d="M1614.67,-245.807C1563.9,-236.78 1484.36,-222.573 1415.5,-210 1405.07,-208.095 1393.85,-206.024 1383.27,-204.06"/>
<polygon fill="midnightblue" stroke="midnightblue" points="1614.28,-249.293 1624.74,-247.597 1615.5,-242.401 1614.28,-249.293"/>
</g>
<!-- Node137&#45;&gt;Node129 -->
<g id="edge50" class="edge"><title>Node137&#45;&gt;Node129</title>
<path fill="none" stroke="midnightblue" d="M1631.69,-243.232C1597.48,-231.666 1546.1,-214.297 1515.67,-204.009"/>
<polygon fill="midnightblue" stroke="midnightblue" points="1630.69,-246.588 1641.28,-246.475 1632.93,-239.957 1630.69,-246.588"/>
</g>
<!-- Node137&#45;&gt;Node32 -->
<g id="edge52" class="edge"><title>Node137&#45;&gt;Node32</title>
<path fill="none" stroke="midnightblue" d="M1715.49,-244.163C1759.33,-233.971 1817.72,-218.975 1824.5,-210 1832.8,-199.004 1833.45,-189.477 1824.5,-179 1795.08,-144.55 1664.62,-136.33 1591.18,-134.462"/>
<polygon fill="midnightblue" stroke="midnightblue" points="1714.5,-240.799 1705.54,-246.452 1716.07,-247.621 1714.5,-240.799"/>
</g>
<!-- Node137&#45;&gt;Node33 -->
<g id="edge51" class="edge"><title>Node137&#45;&gt;Node33</title>
<path fill="none" stroke="midnightblue" d="M1718.08,-245.135C1767.18,-235.224 1834.72,-220.021 1842.5,-210 1850.95,-199.118 1850.46,-190.246 1842.5,-179 1784.69,-97.3153 1658.87,-77.8477 1589.26,-73.4881"/>
<polygon fill="midnightblue" stroke="midnightblue" points="1717.35,-241.713 1708.23,-247.104 1718.72,-248.577 1717.35,-241.713"/>
</g>
<!-- Node137&#45;&gt;Node36 -->
<g id="edge53" class="edge"><title>Node137&#45;&gt;Node36</title>
<path fill="none" stroke="midnightblue" d="M1656.89,-237.678C1651.93,-228.727 1645.95,-217.945 1641.28,-209.523"/>
<polygon fill="midnightblue" stroke="midnightblue" points="1653.86,-239.428 1661.77,-246.475 1659.98,-236.032 1653.86,-239.428"/>
</g>
<!-- Node137&#45;&gt;Node147 -->
<g id="edge47" class="edge"><title>Node137&#45;&gt;Node147</title>
<path fill="none" stroke="midnightblue" d="M1718.21,-245.738C1818.3,-228.936 1923.97,-212.655 1985.46,-203.326"/>
<polygon fill="midnightblue" stroke="midnightblue" points="1717.51,-242.306 1708.23,-247.418 1718.67,-249.209 1717.51,-242.306"/>
</g>
<!-- Node147&#45;&gt;Node102 -->
<g id="edge48" class="edge"><title>Node147&#45;&gt;Node102</title>
<path fill="none" stroke="midnightblue" d="M2036.24,-174.817C2035.52,-163.996 2034.64,-150.898 2034.07,-142.509"/>
<polygon fill="midnightblue" stroke="midnightblue" points="2032.76,-175.232 2036.93,-184.975 2039.75,-174.763 2032.76,-175.232"/>
</g>
<!-- Node147&#45;&gt;Node148 -->
<g id="edge49" class="edge"><title>Node147&#45;&gt;Node148</title>
<path fill="none" stroke="midnightblue" d="M2062.96,-180.212C2085.04,-168.688 2116.33,-152.355 2135.2,-142.509"/>
<polygon fill="midnightblue" stroke="midnightblue" points="2061.08,-177.245 2053.83,-184.975 2064.32,-183.451 2061.08,-177.245"/>
</g>
<!-- Node11&#45;&gt;Node12 -->
<g id="edge57" class="edge"><title>Node11&#45;&gt;Node12</title>
<path fill="none" stroke="midnightblue" d="M2449.23,-244.295C2490.17,-235.267 2550.19,-221.944 2602.5,-210 2610.8,-208.105 2619.71,-206.039 2628.12,-204.075"/>
<polygon fill="midnightblue" stroke="midnightblue" points="2448.26,-240.924 2439.25,-246.494 2449.77,-247.76 2448.26,-240.924"/>
</g>
<!-- Node11&#45;&gt;Node16 -->
<g id="edge58" class="edge"><title>Node11&#45;&gt;Node16</title>
<path fill="none" stroke="midnightblue" d="M2480.24,-245.211C2546.35,-236.802 2642.73,-223.87 2726.5,-210 2737.23,-208.224 2748.78,-206.098 2759.52,-204.028"/>
<polygon fill="midnightblue" stroke="midnightblue" points="2479.78,-241.74 2470.3,-246.469 2480.66,-248.685 2479.78,-241.74"/>
</g>
<!-- Node151&#45;&gt;Node75 -->
<g id="edge61" class="edge"><title>Node151&#45;&gt;Node75</title>
<path fill="none" stroke="midnightblue" d="M647.613,-236.26C646.09,-218.779 647.078,-193.31 662.5,-179 708.7,-136.13 1659.34,-87.1348 1903.66,-75.2157"/>
<polygon fill="midnightblue" stroke="midnightblue" points="644.164,-236.894 648.85,-246.396 651.113,-236.046 644.164,-236.894"/>
</g>
<!-- Node151&#45;&gt;Node124 -->
<g id="edge62" class="edge"><title>Node151&#45;&gt;Node124</title>
<path fill="none" stroke="midnightblue" d="M623.451,-242.021C599.403,-230.482 564.937,-213.943 544.233,-204.009"/>
<polygon fill="midnightblue" stroke="midnightblue" points="622.204,-245.304 632.734,-246.475 625.232,-238.993 622.204,-245.304"/>
</g>
<!-- Node166&#45;&gt;Node75 -->
<g id="edge69" class="edge"><title>Node166&#45;&gt;Node75</title>
<path fill="none" stroke="midnightblue" d="M2390.31,-123.249C2389.7,-123.165 2389.1,-123.082 2388.5,-123 2255.62,-104.857 2098.98,-87.3623 2017.01,-78.5033"/>
<polygon fill="midnightblue" stroke="midnightblue" points="2389.91,-126.727 2400.3,-124.676 2390.9,-119.797 2389.91,-126.727"/>
</g>
<!-- Node166&#45;&gt;Node76 -->
<g id="edge68" class="edge"><title>Node166&#45;&gt;Node76</title>
<path fill="none" stroke="midnightblue" d="M2446.5,-112.988C2446.5,-86.3457 2446.5,-38.995 2446.5,-19.6232"/>
<polygon fill="midnightblue" stroke="midnightblue" points="2443,-113.298 2446.5,-123.298 2450,-113.298 2443,-113.298"/>
</g>
<!-- Node168&#45;&gt;Node32 -->
<g id="edge72" class="edge"><title>Node168&#45;&gt;Node32</title>
<path fill="none" stroke="midnightblue" d="M1806.32,-241.964C1820.14,-234.764 1834.68,-224.321 1842.5,-210 1849.1,-197.907 1851.5,-189.436 1842.5,-179 1810.66,-142.061 1668.58,-134.975 1591.17,-133.911"/>
<polygon fill="midnightblue" stroke="midnightblue" points="1804.48,-238.966 1796.97,-246.438 1807.5,-245.281 1804.48,-238.966"/>
</g>
</g>
</svg>
