<?xml version="1.0" encoding="UTF-8" standalone="no"?>
<!DOCTYPE svg PUBLIC "-//W3C//DTD SVG 1.1//EN"
 "http://www.w3.org/Graphics/SVG/1.1/DTD/svg11.dtd">
<!-- Generated by graphviz version 2.38.0 (20140413.2041)
 -->
<!-- Title: Cpl/Text/String.h Pages: 1 -->
<svg width="3208pt" height="319pt"
 viewBox="0.00 0.00 3208.00 319.00" xmlns="http://www.w3.org/2000/svg" xmlns:xlink="http://www.w3.org/1999/xlink">
<g id="graph0" class="graph" transform="scale(1 1) rotate(0) translate(4 315)">
<title>Cpl/Text/String.h</title>
<polygon fill="white" stroke="none" points="-4,4 -4,-315 3204,-315 3204,4 -4,4"/>
<!-- Node1 -->
<g id="node1" class="node"><title>Node1</title>
<g id="a_node1"><a xlink:title=" ">
<polygon fill="#bfbfbf" stroke="black" points="1639.5,-291.5 1639.5,-310.5 1729.5,-310.5 1729.5,-291.5 1639.5,-291.5"/>
<text text-anchor="middle" x="1684.5" y="-298.5" font-family="Helvetica,sans-Serif" font-size="10.00">Cpl/Text/String.h</text>
</a>
</g>
</g>
<!-- Node2 -->
<g id="node2" class="node"><title>Node2</title>
<g id="a_node2"><a xlink:href="_api_md5_8h.html" target="_top" xlink:title=" ">
<polygon fill="white" stroke="black" points="23,-235.5 23,-254.5 148,-254.5 148,-235.5 23,-235.5"/>
<text text-anchor="middle" x="85.5" y="-242.5" font-family="Helvetica,sans-Serif" font-size="10.00">Cpl/Checksum/ApiMd5.h</text>
</a>
</g>
</g>
<!-- Node1&#45;&gt;Node2 -->
<g id="edge1" class="edge"><title>Node1&#45;&gt;Node2</title>
<path fill="none" stroke="midnightblue" d="M1629.11,-299.842C1431.15,-298.959 740.132,-293.157 171.5,-255 164.011,-254.497 156.166,-253.848 148.391,-253.128"/>
<polygon fill="midnightblue" stroke="midnightblue" points="1629.25,-303.342 1639.26,-299.885 1629.28,-296.342 1629.25,-303.342"/>
</g>
<!-- Node4 -->
<g id="node4" class="node"><title>Node4</title>
<g id="a_node4"><a xlink:href="_key_8h.html" target="_top" xlink:title=" ">
<polygon fill="white" stroke="black" points="180.5,-235.5 180.5,-254.5 284.5,-254.5 284.5,-235.5 180.5,-235.5"/>
<text text-anchor="middle" x="232.5" y="-242.5" font-family="Helvetica,sans-Serif" font-size="10.00">Cpl/Container/Key.h</text>
</a>
</g>
</g>
<!-- Node1&#45;&gt;Node4 -->
<g id="edge3" class="edge"><title>Node1&#45;&gt;Node4</title>
<path fill="none" stroke="midnightblue" d="M1629.31,-300.24C1441.25,-300.679 808.965,-298.734 289.5,-255 287.771,-254.854 286.019,-254.695 284.253,-254.524"/>
<polygon fill="midnightblue" stroke="midnightblue" points="1629.51,-303.739 1639.5,-300.212 1629.49,-296.739 1629.51,-303.739"/>
</g>
<!-- Node31 -->
<g id="node6" class="node"><title>Node31</title>
<g id="a_node6"><a xlink:href="_model_database_api_8h.html" target="_top" xlink:title=" ">
<polygon fill="white" stroke="black" points="849.5,-235.5 849.5,-254.5 991.5,-254.5 991.5,-235.5 849.5,-235.5"/>
<text text-anchor="middle" x="920.5" y="-242.5" font-family="Helvetica,sans-Serif" font-size="10.00">Cpl/Dm/ModelDatabaseApi.h</text>
</a>
</g>
</g>
<!-- Node1&#45;&gt;Node31 -->
<g id="edge6" class="edge"><title>Node1&#45;&gt;Node31</title>
<path fill="none" stroke="midnightblue" d="M1629.13,-297.229C1512.65,-291.208 1233.79,-275.786 1000.5,-255 997.577,-254.74 994.594,-254.461 991.583,-254.17"/>
<polygon fill="midnightblue" stroke="midnightblue" points="1629.06,-300.73 1639.22,-297.748 1629.42,-293.739 1629.06,-300.73"/>
</g>
<!-- Node38 -->
<g id="node9" class="node"><title>Node38</title>
<g id="a_node9"><a xlink:href="_numeric_8h.html" target="_top" xlink:title=" ">
<polygon fill="white" stroke="black" points="760,-56.5 760,-75.5 873,-75.5 873,-56.5 760,-56.5"/>
<text text-anchor="middle" x="816.5" y="-63.5" font-family="Helvetica,sans-Serif" font-size="10.00">Cpl/Dm/Mp/Numeric.h</text>
</a>
</g>
</g>
<!-- Node1&#45;&gt;Node38 -->
<g id="edge25" class="edge"><title>Node1&#45;&gt;Node38</title>
<path fill="none" stroke="midnightblue" d="M1629,-299.636C1428.35,-298.04 741.083,-290.083 524.5,-255 436.334,-240.719 385.139,-270.415 331.5,-199 323.226,-187.984 322.972,-178.821 331.5,-168 384.006,-101.379 643.536,-77.46 759.89,-69.9904"/>
<polygon fill="midnightblue" stroke="midnightblue" points="1629.27,-303.138 1639.3,-299.715 1629.32,-296.138 1629.27,-303.138"/>
</g>
<!-- Node52 -->
<g id="node19" class="node"><title>Node52</title>
<g id="a_node19"><a xlink:href="_model_point_8h.html" target="_top" xlink:title=" ">
<polygon fill="white" stroke="black" points="534,-235.5 534,-254.5 643,-254.5 643,-235.5 534,-235.5"/>
<text text-anchor="middle" x="588.5" y="-242.5" font-family="Helvetica,sans-Serif" font-size="10.00">Cpl/Dm/ModelPoint.h</text>
</a>
</g>
</g>
<!-- Node1&#45;&gt;Node52 -->
<g id="edge19" class="edge"><title>Node1&#45;&gt;Node52</title>
<path fill="none" stroke="midnightblue" d="M1629.31,-297.281C1441.68,-288.036 829.726,-257.885 643.056,-248.688"/>
<polygon fill="midnightblue" stroke="midnightblue" points="1629.33,-300.786 1639.49,-297.782 1629.68,-293.795 1629.33,-300.786"/>
</g>
<!-- Node57 -->
<g id="node23" class="node"><title>Node57</title>
<g id="a_node23"><a xlink:href="_input_8h.html" target="_top" xlink:title=" ">
<polygon fill="white" stroke="black" points="1647,-235.5 1647,-254.5 1722,-254.5 1722,-235.5 1647,-235.5"/>
<text text-anchor="middle" x="1684.5" y="-242.5" font-family="Helvetica,sans-Serif" font-size="10.00">Cpl/Io/Input.h</text>
</a>
</g>
</g>
<!-- Node1&#45;&gt;Node57 -->
<g id="edge26" class="edge"><title>Node1&#45;&gt;Node57</title>
<path fill="none" stroke="midnightblue" d="M1684.5,-280.805C1684.5,-271.91 1684.5,-261.78 1684.5,-254.751"/>
<polygon fill="midnightblue" stroke="midnightblue" points="1681,-281.083 1684.5,-291.083 1688,-281.083 1681,-281.083"/>
</g>
<!-- Node84 -->
<g id="node32" class="node"><title>Node84</title>
<g id="a_node32"><a xlink:href="_line_reader_api_8h.html" target="_top" xlink:title=" ">
<polygon fill="white" stroke="black" points="1123.5,-235.5 1123.5,-254.5 1239.5,-254.5 1239.5,-235.5 1123.5,-235.5"/>
<text text-anchor="middle" x="1181.5" y="-242.5" font-family="Helvetica,sans-Serif" font-size="10.00">Cpl/Io/LineReaderApi.h</text>
</a>
</g>
</g>
<!-- Node1&#45;&gt;Node84 -->
<g id="edge35" class="edge"><title>Node1&#45;&gt;Node84</title>
<path fill="none" stroke="midnightblue" d="M1629.06,-294.828C1546.18,-286.971 1385.1,-271.22 1248.5,-255 1245.59,-254.654 1242.6,-254.29 1239.59,-253.914"/>
<polygon fill="midnightblue" stroke="midnightblue" points="1628.97,-298.335 1639.26,-295.792 1629.63,-291.366 1628.97,-298.335"/>
</g>
<!-- Node85 -->
<g id="node33" class="node"><title>Node85</title>
<g id="a_node33"><a xlink:href="_line_writer_api_8h.html" target="_top" xlink:title=" ">
<polygon fill="white" stroke="black" points="1902,-235.5 1902,-254.5 2013,-254.5 2013,-235.5 1902,-235.5"/>
<text text-anchor="middle" x="1957.5" y="-242.5" font-family="Helvetica,sans-Serif" font-size="10.00">Cpl/Io/LineWriterApi.h</text>
</a>
</g>
</g>
<!-- Node1&#45;&gt;Node85 -->
<g id="edge37" class="edge"><title>Node1&#45;&gt;Node85</title>
<path fill="none" stroke="midnightblue" d="M1737.72,-289.473C1789.31,-279.268 1866.6,-263.979 1914.44,-254.516"/>
<polygon fill="midnightblue" stroke="midnightblue" points="1736.89,-286.07 1727.76,-291.444 1738.25,-292.937 1736.89,-286.07"/>
</g>
<!-- Node87 -->
<g id="node35" class="node"><title>Node87</title>
<g id="a_node35"><a xlink:href="_output_8h.html" target="_top" xlink:title=" ">
<polygon fill="white" stroke="red" points="2269,-235.5 2269,-254.5 2352,-254.5 2352,-235.5 2269,-235.5"/>
<text text-anchor="middle" x="2310.5" y="-242.5" font-family="Helvetica,sans-Serif" font-size="10.00">Cpl/Io/Output.h</text>
</a>
</g>
</g>
<!-- Node1&#45;&gt;Node87 -->
<g id="edge39" class="edge"><title>Node1&#45;&gt;Node87</title>
<path fill="none" stroke="midnightblue" d="M1739.5,-295.255C1862.81,-284.619 2159.13,-259.058 2268.78,-249.599"/>
<polygon fill="midnightblue" stroke="midnightblue" points="1739.18,-291.77 1729.52,-296.116 1739.78,-298.744 1739.18,-291.77"/>
</g>
<!-- Node97 -->
<g id="node40" class="node"><title>Node97</title>
<g id="a_node40"><a xlink:href="_system_2_trace_8h.html" target="_top" xlink:title=" ">
<polygon fill="white" stroke="black" points="2914.5,-174 2914.5,-193 3018.5,-193 3018.5,-174 2914.5,-174"/>
<text text-anchor="middle" x="2966.5" y="-181" font-family="Helvetica,sans-Serif" font-size="10.00">Cpl/System/Trace.h</text>
</a>
</g>
</g>
<!-- Node1&#45;&gt;Node97 -->
<g id="edge52" class="edge"><title>Node1&#45;&gt;Node97</title>
<path fill="none" stroke="midnightblue" d="M1739.74,-298.939C1879.49,-295.836 2244.33,-285.025 2361.5,-255 2381.92,-249.768 2384.1,-240.287 2404.5,-235 2620.6,-179.003 2684.85,-232.924 2905.5,-199 2915.18,-197.511 2925.6,-195.277 2935.03,-193.006"/>
<polygon fill="midnightblue" stroke="midnightblue" points="1739.6,-295.441 1729.67,-299.157 1739.75,-302.439 1739.6,-295.441"/>
</g>
<!-- Node98 -->
<g id="node41" class="node"><title>Node98</title>
<g id="a_node41"><a xlink:href="_system_2_private___8h.html" target="_top" xlink:title="This file contains a collection of classes, interfaces, etc.">
<polygon fill="white" stroke="red" points="2905,-112.5 2905,-131.5 3020,-131.5 3020,-112.5 2905,-112.5"/>
<text text-anchor="middle" x="2962.5" y="-119.5" font-family="Helvetica,sans-Serif" font-size="10.00">Cpl/System/Private_.h</text>
</a>
</g>
</g>
<!-- Node1&#45;&gt;Node98 -->
<g id="edge51" class="edge"><title>Node1&#45;&gt;Node98</title>
<path fill="none" stroke="midnightblue" d="M1740.01,-299.207C1885.05,-296.703 2272.66,-287.118 2396.5,-255 2416.51,-249.809 2418.48,-240.17 2438.5,-235 2501.98,-218.605 2982.57,-246.756 3027.5,-199 3036.94,-188.965 3033.89,-180.204 3027.5,-168 3018.45,-150.736 2999.44,-138.779 2984.31,-131.553"/>
<polygon fill="midnightblue" stroke="midnightblue" points="1739.53,-295.715 1729.59,-299.382 1739.64,-302.714 1739.53,-295.715"/>
</g>
<!-- Node11 -->
<g id="node42" class="node"><title>Node11</title>
<g id="a_node42"><a xlink:href="_cmd_2_command_8h.html" target="_top" xlink:title=" ">
<polygon fill="white" stroke="red" points="1257.5,-235.5 1257.5,-254.5 1397.5,-254.5 1397.5,-235.5 1257.5,-235.5"/>
<text text-anchor="middle" x="1327.5" y="-242.5" font-family="Helvetica,sans-Serif" font-size="10.00">Cpl/TShell/Cmd/Command.h</text>
</a>
</g>
</g>
<!-- Node1&#45;&gt;Node11 -->
<g id="edge53" class="edge"><title>Node1&#45;&gt;Node11</title>
<path fill="none" stroke="midnightblue" d="M1629.38,-291.663C1562.69,-281.575 1451.01,-264.682 1383.79,-254.515"/>
<polygon fill="midnightblue" stroke="midnightblue" points="1628.87,-295.126 1639.29,-293.161 1629.92,-288.205 1628.87,-295.126"/>
</g>
<!-- Node16 -->
<g id="node43" class="node"><title>Node16</title>
<g id="a_node43"><a xlink:href="_threads_8h.html" target="_top" xlink:title=" ">
<polygon fill="white" stroke="red" points="1127,-174 1127,-193 1258,-193 1258,-174 1127,-174"/>
<text text-anchor="middle" x="1192.5" y="-181" font-family="Helvetica,sans-Serif" font-size="10.00">Cpl/TShell/Cmd/Threads.h</text>
</a>
</g>
</g>
<!-- Node1&#45;&gt;Node16 -->
<g id="edge56" class="edge"><title>Node1&#45;&gt;Node16</title>
<path fill="none" stroke="midnightblue" d="M1638.07,-289.101C1540.72,-266.247 1316.97,-213.719 1228.98,-193.065"/>
<polygon fill="midnightblue" stroke="midnightblue" points="1637.39,-292.535 1647.92,-291.413 1638.99,-285.72 1637.39,-292.535"/>
</g>
<!-- Node100 -->
<g id="node44" class="node"><title>Node100</title>
<g id="a_node44"><a xlink:href="_f_string_8h.html" target="_top" xlink:title=" ">
<polygon fill="white" stroke="red" points="1009.5,-235.5 1009.5,-254.5 1105.5,-254.5 1105.5,-235.5 1009.5,-235.5"/>
<text text-anchor="middle" x="1057.5" y="-242.5" font-family="Helvetica,sans-Serif" font-size="10.00">Cpl/Text/FString.h</text>
</a>
</g>
</g>
<!-- Node1&#45;&gt;Node100 -->
<g id="edge57" class="edge"><title>Node1&#45;&gt;Node100</title>
<path fill="none" stroke="midnightblue" d="M1629.24,-297.071C1527.27,-291.346 1302.73,-277.256 1114.5,-255 1111.61,-254.659 1108.65,-254.279 1105.67,-253.875"/>
<polygon fill="midnightblue" stroke="midnightblue" points="1629.13,-300.57 1639.31,-297.631 1629.52,-293.58 1629.13,-300.57"/>
</g>
<!-- Node108 -->
<g id="node45" class="node"><title>Node108</title>
<g id="a_node45"><a xlink:href="_string_decoder_8h.html" target="_top" xlink:title=" ">
<polygon fill="white" stroke="black" points="2447,-235.5 2447,-254.5 2604,-254.5 2604,-235.5 2447,-235.5"/>
<text text-anchor="middle" x="2525.5" y="-242.5" font-family="Helvetica,sans-Serif" font-size="10.00">Cpl/Text/Frame/StringDecoder.h</text>
</a>
</g>
</g>
<!-- Node1&#45;&gt;Node108 -->
<g id="edge60" class="edge"><title>Node1&#45;&gt;Node108</title>
<path fill="none" stroke="midnightblue" d="M1739.66,-297.37C1863.6,-291.31 2173.57,-275.31 2432.5,-255 2437.19,-254.632 2442.01,-254.232 2446.87,-253.812"/>
<polygon fill="midnightblue" stroke="midnightblue" points="1739.47,-293.875 1729.65,-297.858 1739.81,-300.867 1739.47,-293.875"/>
</g>
<!-- Node109 -->
<g id="node46" class="node"><title>Node109</title>
<g id="a_node46"><a xlink:href="_string_encoder_8h.html" target="_top" xlink:title=" ">
<polygon fill="white" stroke="black" points="2622,-235.5 2622,-254.5 2779,-254.5 2779,-235.5 2622,-235.5"/>
<text text-anchor="middle" x="2700.5" y="-242.5" font-family="Helvetica,sans-Serif" font-size="10.00">Cpl/Text/Frame/StringEncoder.h</text>
</a>
</g>
</g>
<!-- Node1&#45;&gt;Node109 -->
<g id="edge61" class="edge"><title>Node1&#45;&gt;Node109</title>
<path fill="none" stroke="midnightblue" d="M1739.84,-298.376C1883.92,-293.918 2282.45,-280.122 2613.5,-255 2616.23,-254.793 2619,-254.571 2621.8,-254.336"/>
<polygon fill="midnightblue" stroke="midnightblue" points="1739.4,-294.888 1729.51,-298.693 1739.61,-301.884 1739.4,-294.888"/>
</g>
<!-- Node27 -->
<g id="node47" class="node"><title>Node27</title>
<g id="a_node47"><a xlink:href="_string_item_8h.html" target="_top" xlink:title=" ">
<polygon fill="white" stroke="red" points="2797.5,-235.5 2797.5,-254.5 2907.5,-254.5 2907.5,-235.5 2797.5,-235.5"/>
<text text-anchor="middle" x="2852.5" y="-242.5" font-family="Helvetica,sans-Serif" font-size="10.00">Cpl/Text/StringItem.h</text>
</a>
</g>
</g>
<!-- Node1&#45;&gt;Node27 -->
<g id="edge62" class="edge"><title>Node1&#45;&gt;Node27</title>
<path fill="none" stroke="midnightblue" d="M1739.73,-299.679C1901.36,-298.326 2387.28,-291.298 2788.5,-255 2791.41,-254.737 2794.38,-254.435 2797.38,-254.104"/>
<polygon fill="midnightblue" stroke="midnightblue" points="1739.53,-296.181 1729.56,-299.761 1739.59,-303.18 1739.53,-296.181"/>
</g>
<!-- Node110 -->
<g id="node48" class="node"><title>Node110</title>
<g id="a_node48"><a xlink:href="_text_2_string___8h.html" target="_top" xlink:title=" ">
<polygon fill="white" stroke="red" points="2926,-235.5 2926,-254.5 3021,-254.5 3021,-235.5 2926,-235.5"/>
<text text-anchor="middle" x="2973.5" y="-242.5" font-family="Helvetica,sans-Serif" font-size="10.00">Cpl/Text/String_.h</text>
</a>
</g>
</g>
<!-- Node1&#45;&gt;Node110 -->
<g id="edge63" class="edge"><title>Node1&#45;&gt;Node110</title>
<path fill="none" stroke="midnightblue" d="M1739.83,-300.341C1913.6,-300.908 2463.73,-298.854 2916.5,-255 2919.59,-254.701 2922.77,-254.342 2925.97,-253.942"/>
<polygon fill="midnightblue" stroke="midnightblue" points="1739.67,-296.841 1729.66,-300.304 1739.65,-303.841 1739.67,-296.841"/>
</g>
<!-- Node114 -->
<g id="node49" class="node"><title>Node114</title>
<g id="a_node49"><a xlink:href="format_8h.html" target="_top" xlink:title="This file contains some general purpose string formatting functions.">
<polygon fill="white" stroke="black" points="3038.5,-112.5 3038.5,-131.5 3130.5,-131.5 3130.5,-112.5 3038.5,-112.5"/>
<text text-anchor="middle" x="3084.5" y="-119.5" font-family="Helvetica,sans-Serif" font-size="10.00">Cpl/Text/format.h</text>
</a>
</g>
</g>
<!-- Node1&#45;&gt;Node114 -->
<g id="edge64" class="edge"><title>Node1&#45;&gt;Node114</title>
<path fill="none" stroke="midnightblue" d="M1739.71,-299.82C1986.25,-298.803 2976.76,-292.399 3030.5,-255 3072.98,-225.442 3082.09,-156.166 3084,-131.725"/>
<polygon fill="midnightblue" stroke="midnightblue" points="1739.54,-296.32 1729.55,-299.86 1739.57,-303.32 1739.54,-296.32"/>
</g>
<!-- Node115 -->
<g id="node50" class="node"><title>Node115</title>
<g id="a_node50"><a xlink:href="_guid_8h.html" target="_top" xlink:title=" ">
<polygon fill="white" stroke="black" points="3113,-235.5 3113,-254.5 3200,-254.5 3200,-235.5 3113,-235.5"/>
<text text-anchor="middle" x="3156.5" y="-242.5" font-family="Helvetica,sans-Serif" font-size="10.00">Cpl/Type/Guid.h</text>
</a>
</g>
</g>
<!-- Node1&#45;&gt;Node115 -->
<g id="edge67" class="edge"><title>Node1&#45;&gt;Node115</title>
<path fill="none" stroke="midnightblue" d="M1739.91,-299.142C1967.06,-295.486 2827.68,-280.226 3098.5,-255 3103.17,-254.565 3108.03,-253.996 3112.87,-253.355"/>
<polygon fill="midnightblue" stroke="midnightblue" points="1739.52,-295.648 1729.58,-299.308 1739.63,-302.647 1739.52,-295.648"/>
</g>
<!-- Node3 -->
<g id="node3" class="node"><title>Node3</title>
<g id="a_node3"><a xlink:href="_md5_aladdin_8h.html" target="_top" xlink:title=" ">
<polygon fill="white" stroke="black" points="0,-174 0,-193 143,-193 143,-174 0,-174"/>
<text text-anchor="middle" x="71.5" y="-181" font-family="Helvetica,sans-Serif" font-size="10.00">Cpl/Checksum/Md5Aladdin.h</text>
</a>
</g>
</g>
<!-- Node2&#45;&gt;Node3 -->
<g id="edge2" class="edge"><title>Node2&#45;&gt;Node3</title>
<path fill="none" stroke="midnightblue" d="M81.1841,-225.657C78.6229,-214.772 75.4968,-201.486 73.5021,-193.009"/>
<polygon fill="midnightblue" stroke="midnightblue" points="77.7967,-226.543 83.4941,-235.475 84.6106,-224.939 77.7967,-226.543"/>
</g>
<!-- Node4&#45;&gt;Node1 -->
<g id="edge5" class="edge"><title>Node4&#45;&gt;Node1</title>
<path fill="none" stroke="midnightblue" d="M294.735,-253.742C299.065,-254.222 303.352,-254.651 307.5,-255 829.889,-298.98 1466.37,-300.7 1639.37,-300.232"/>
<polygon fill="midnightblue" stroke="midnightblue" points="294.943,-250.243 284.601,-252.546 294.122,-257.194 294.943,-250.243"/>
</g>
<!-- Node5 -->
<g id="node5" class="node"><title>Node5</title>
<g id="a_node5"><a xlink:href="_dict_item_8h.html" target="_top" xlink:title=" ">
<polygon fill="white" stroke="red" points="161,-174 161,-193 284,-193 284,-174 161,-174"/>
<text text-anchor="middle" x="222.5" y="-181" font-family="Helvetica,sans-Serif" font-size="10.00">Cpl/Container/DictItem.h</text>
</a>
</g>
</g>
<!-- Node4&#45;&gt;Node5 -->
<g id="edge4" class="edge"><title>Node4&#45;&gt;Node5</title>
<path fill="none" stroke="midnightblue" d="M229.36,-225.317C227.541,-214.496 225.34,-201.398 223.93,-193.009"/>
<polygon fill="midnightblue" stroke="midnightblue" points="225.958,-226.194 231.067,-235.475 232.861,-225.033 225.958,-226.194"/>
</g>
<!-- Node32 -->
<g id="node7" class="node"><title>Node32</title>
<g id="a_node7"><a xlink:href="_model_database_8h.html" target="_top" xlink:title=" ">
<polygon fill="white" stroke="black" points="660.5,-174 660.5,-193 788.5,-193 788.5,-174 660.5,-174"/>
<text text-anchor="middle" x="724.5" y="-181" font-family="Helvetica,sans-Serif" font-size="10.00">Cpl/Dm/ModelDatabase.h</text>
</a>
</g>
</g>
<!-- Node31&#45;&gt;Node32 -->
<g id="edge7" class="edge"><title>Node31&#45;&gt;Node32</title>
<path fill="none" stroke="midnightblue" d="M882.712,-232.529C844.619,-220.965 786.709,-203.385 752.53,-193.009"/>
<polygon fill="midnightblue" stroke="midnightblue" points="881.832,-235.919 892.418,-235.475 883.866,-229.221 881.832,-235.919"/>
</g>
<!-- Node12 -->
<g id="node18" class="node"><title>Node12</title>
<g id="a_node18"><a xlink:href="_dm_8h.html" target="_top" xlink:title=" ">
<polygon fill="white" stroke="black" points="882.5,-174 882.5,-193 988.5,-193 988.5,-174 882.5,-174"/>
<text text-anchor="middle" x="935.5" y="-181" font-family="Helvetica,sans-Serif" font-size="10.00">Cpl/Dm/TShell/Dm.h</text>
</a>
</g>
</g>
<!-- Node31&#45;&gt;Node12 -->
<g id="edge18" class="edge"><title>Node31&#45;&gt;Node12</title>
<path fill="none" stroke="midnightblue" d="M925.124,-225.657C927.868,-214.772 931.218,-201.486 933.355,-193.009"/>
<polygon fill="midnightblue" stroke="midnightblue" points="921.7,-224.923 922.649,-235.475 928.488,-226.634 921.7,-224.923"/>
</g>
<!-- Node33 -->
<g id="node8" class="node"><title>Node33</title>
<g id="a_node8"><a xlink:href="_model_point_common___8h.html" target="_top" xlink:title=" ">
<polygon fill="white" stroke="red" points="574,-112.5 574,-131.5 727,-131.5 727,-112.5 574,-112.5"/>
<text text-anchor="middle" x="650.5" y="-119.5" font-family="Helvetica,sans-Serif" font-size="10.00">Cpl/Dm/ModelPointCommon_.h</text>
</a>
</g>
</g>
<!-- Node32&#45;&gt;Node33 -->
<g id="edge8" class="edge"><title>Node32&#45;&gt;Node33</title>
<path fill="none" stroke="midnightblue" d="M705.811,-167.473C691.657,-156.093 672.724,-140.869 661.083,-131.509"/>
<polygon fill="midnightblue" stroke="midnightblue" points="703.911,-170.437 713.898,-173.975 708.298,-164.981 703.911,-170.437"/>
</g>
<!-- Node33&#45;&gt;Node38 -->
<g id="edge9" class="edge"><title>Node33&#45;&gt;Node38</title>
<path fill="none" stroke="midnightblue" d="M686.453,-109.304C717.732,-99.1294 762.321,-84.6246 790.32,-75.5164"/>
<polygon fill="midnightblue" stroke="midnightblue" points="685.23,-106.022 676.803,-112.444 687.395,-112.678 685.23,-106.022"/>
</g>
<!-- Node39 -->
<g id="node10" class="node"><title>Node39</title>
<g id="a_node10"><a xlink:href="_bit_array16_8h.html" target="_top" xlink:title=" ">
<polygon fill="white" stroke="black" points="1686.5,-0.5 1686.5,-19.5 1808.5,-19.5 1808.5,-0.5 1686.5,-0.5"/>
<text text-anchor="middle" x="1747.5" y="-7.5" font-family="Helvetica,sans-Serif" font-size="10.00">Cpl/Dm/Mp/BitArray16.h</text>
</a>
</g>
</g>
<!-- Node38&#45;&gt;Node39 -->
<g id="edge10" class="edge"><title>Node38&#45;&gt;Node39</title>
<path fill="none" stroke="midnightblue" d="M883.354,-61.1223C1056.81,-51.0617 1519.33,-24.2342 1686.31,-14.5494"/>
<polygon fill="midnightblue" stroke="midnightblue" points="883.117,-57.6301 873.337,-61.7033 883.523,-64.6183 883.117,-57.6301"/>
</g>
<!-- Node40 -->
<g id="node11" class="node"><title>Node40</title>
<g id="a_node11"><a xlink:href="_double_8h.html" target="_top" xlink:title=" ">
<polygon fill="white" stroke="black" points="883,-0.5 883,-19.5 990,-19.5 990,-0.5 883,-0.5"/>
<text text-anchor="middle" x="936.5" y="-7.5" font-family="Helvetica,sans-Serif" font-size="10.00">Cpl/Dm/Mp/Double.h</text>
</a>
</g>
</g>
<!-- Node38&#45;&gt;Node40 -->
<g id="edge11" class="edge"><title>Node38&#45;&gt;Node40</title>
<path fill="none" stroke="midnightblue" d="M844.873,-52.2321C867.32,-42.1312 898.035,-28.3091 917.575,-19.5164"/>
<polygon fill="midnightblue" stroke="midnightblue" points="843.197,-49.1481 835.514,-56.4435 846.07,-55.5316 843.197,-49.1481"/>
</g>
<!-- Node41 -->
<g id="node12" class="node"><title>Node41</title>
<g id="a_node12"><a xlink:href="_float_8h.html" target="_top" xlink:title=" ">
<polygon fill="white" stroke="black" points="1008.5,-0.5 1008.5,-19.5 1106.5,-19.5 1106.5,-0.5 1008.5,-0.5"/>
<text text-anchor="middle" x="1057.5" y="-7.5" font-family="Helvetica,sans-Serif" font-size="10.00">Cpl/Dm/Mp/Float.h</text>
</a>
</g>
</g>
<!-- Node38&#45;&gt;Node41 -->
<g id="edge12" class="edge"><title>Node38&#45;&gt;Node41</title>
<path fill="none" stroke="midnightblue" d="M864.623,-54.2172C910.162,-44.0134 977.61,-28.9006 1019.49,-19.5164"/>
<polygon fill="midnightblue" stroke="midnightblue" points="863.68,-50.8417 854.687,-56.4435 865.21,-57.6723 863.68,-50.8417"/>
</g>
<!-- Node42 -->
<g id="node13" class="node"><title>Node42</title>
<g id="a_node13"><a xlink:href="_int32_8h.html" target="_top" xlink:title=" ">
<polygon fill="white" stroke="black" points="1124.5,-0.5 1124.5,-19.5 1222.5,-19.5 1222.5,-0.5 1124.5,-0.5"/>
<text text-anchor="middle" x="1173.5" y="-7.5" font-family="Helvetica,sans-Serif" font-size="10.00">Cpl/Dm/Mp/Int32.h</text>
</a>
</g>
</g>
<!-- Node38&#45;&gt;Node42 -->
<g id="edge13" class="edge"><title>Node38&#45;&gt;Node42</title>
<path fill="none" stroke="midnightblue" d="M883.474,-55.0097C944.08,-45.9479 1035.79,-32.183 1115.5,-20 1118.42,-19.5535 1121.42,-19.0927 1124.45,-18.6266"/>
<polygon fill="midnightblue" stroke="midnightblue" points="882.648,-51.594 873.276,-56.5339 883.683,-58.5171 882.648,-51.594"/>
</g>
<!-- Node43 -->
<g id="node14" class="node"><title>Node43</title>
<g id="a_node14"><a xlink:href="_int64_8h.html" target="_top" xlink:title=" ">
<polygon fill="white" stroke="black" points="408.5,-0.5 408.5,-19.5 506.5,-19.5 506.5,-0.5 408.5,-0.5"/>
<text text-anchor="middle" x="457.5" y="-7.5" font-family="Helvetica,sans-Serif" font-size="10.00">Cpl/Dm/Mp/Int64.h</text>
</a>
</g>
</g>
<!-- Node38&#45;&gt;Node43 -->
<g id="edge14" class="edge"><title>Node38&#45;&gt;Node43</title>
<path fill="none" stroke="midnightblue" d="M749.638,-55.1125C688.631,-46.065 595.987,-32.261 515.5,-20 512.579,-19.555 509.575,-19.0953 506.545,-18.6299"/>
<polygon fill="midnightblue" stroke="midnightblue" points="749.495,-58.6294 759.9,-56.6337 750.521,-51.7051 749.495,-58.6294"/>
</g>
<!-- Node44 -->
<g id="node15" class="node"><title>Node44</title>
<g id="a_node15"><a xlink:href="_uint32_8h.html" target="_top" xlink:title=" ">
<polygon fill="white" stroke="red" points="524.5,-0.5 524.5,-19.5 628.5,-19.5 628.5,-0.5 524.5,-0.5"/>
<text text-anchor="middle" x="576.5" y="-7.5" font-family="Helvetica,sans-Serif" font-size="10.00">Cpl/Dm/Mp/Uint32.h</text>
</a>
</g>
</g>
<!-- Node38&#45;&gt;Node44 -->
<g id="edge15" class="edge"><title>Node38&#45;&gt;Node44</title>
<path fill="none" stroke="midnightblue" d="M768.577,-54.2172C723.226,-44.0134 656.058,-28.9006 614.351,-19.5164"/>
<polygon fill="midnightblue" stroke="midnightblue" points="767.947,-57.663 778.471,-56.4435 769.484,-50.8337 767.947,-57.663"/>
</g>
<!-- Node47 -->
<g id="node16" class="node"><title>Node47</title>
<g id="a_node16"><a xlink:href="_uint64_8h.html" target="_top" xlink:title=" ">
<polygon fill="white" stroke="red" points="646.5,-0.5 646.5,-19.5 750.5,-19.5 750.5,-0.5 646.5,-0.5"/>
<text text-anchor="middle" x="698.5" y="-7.5" font-family="Helvetica,sans-Serif" font-size="10.00">Cpl/Dm/Mp/Uint64.h</text>
</a>
</g>
</g>
<!-- Node38&#45;&gt;Node47 -->
<g id="edge16" class="edge"><title>Node38&#45;&gt;Node47</title>
<path fill="none" stroke="midnightblue" d="M788.6,-52.2321C766.527,-42.1312 736.324,-28.3091 717.11,-19.5164"/>
<polygon fill="midnightblue" stroke="midnightblue" points="787.253,-55.4648 797.803,-56.4435 790.166,-49.0997 787.253,-55.4648"/>
</g>
<!-- Node49 -->
<g id="node17" class="node"><title>Node49</title>
<g id="a_node17"><a xlink:href="_void_8h.html" target="_top" xlink:title=" ">
<polygon fill="white" stroke="black" points="768.5,-0.5 768.5,-19.5 864.5,-19.5 864.5,-0.5 768.5,-0.5"/>
<text text-anchor="middle" x="816.5" y="-7.5" font-family="Helvetica,sans-Serif" font-size="10.00">Cpl/Dm/Mp/Void.h</text>
</a>
</g>
</g>
<!-- Node38&#45;&gt;Node49 -->
<g id="edge17" class="edge"><title>Node38&#45;&gt;Node49</title>
<path fill="none" stroke="midnightblue" d="M816.5,-45.8045C816.5,-36.9102 816.5,-26.7798 816.5,-19.7511"/>
<polygon fill="midnightblue" stroke="midnightblue" points="813,-46.083 816.5,-56.083 820,-46.083 813,-46.083"/>
</g>
<!-- Node52&#45;&gt;Node33 -->
<g id="edge21" class="edge"><title>Node52&#45;&gt;Node33</title>
<path fill="none" stroke="midnightblue" d="M558.678,-230.606C546.021,-223.234 532.577,-212.753 525.5,-199 519.196,-186.749 517.578,-179.272 525.5,-168 538.895,-148.941 561.178,-137.916 583.25,-131.553"/>
<polygon fill="midnightblue" stroke="midnightblue" points="557.187,-233.778 567.653,-235.427 560.499,-227.611 557.187,-233.778"/>
</g>
<!-- Node53 -->
<g id="node20" class="node"><title>Node53</title>
<g id="a_node20"><a xlink:href="helpers_8h.html" target="_top" xlink:title="This file defines helper functions/interface for writing unit tests.">
<polygon fill="white" stroke="black" points="1824,-112.5 1824,-131.5 1909,-131.5 1909,-112.5 1824,-112.5"/>
<text text-anchor="middle" x="1866.5" y="-119.5" font-family="Helvetica,sans-Serif" font-size="10.00">Catch/helpers.h</text>
</a>
</g>
</g>
<!-- Node52&#45;&gt;Node53 -->
<g id="edge20" class="edge"><title>Node52&#45;&gt;Node53</title>
<path fill="none" stroke="midnightblue" d="M650.33,-233.632C692.322,-225.876 748.85,-214.032 797.5,-199 832.354,-188.231 837.87,-175.829 873.5,-168 1058.8,-127.284 1658.32,-123.313 1823.83,-123.003"/>
<polygon fill="midnightblue" stroke="midnightblue" points="649.464,-230.232 640.252,-235.467 650.717,-237.119 649.464,-230.232"/>
</g>
<!-- Node54 -->
<g id="node21" class="node"><title>Node54</title>
<g id="a_node21"><a xlink:href="_dm_2_persistent_2_record_8h.html" target="_top" xlink:title=" ">
<polygon fill="white" stroke="black" points="340.5,-174 340.5,-193 478.5,-193 478.5,-174 340.5,-174"/>
<text text-anchor="middle" x="409.5" y="-181" font-family="Helvetica,sans-Serif" font-size="10.00">Cpl/Dm/Persistent/Record.h</text>
</a>
</g>
</g>
<!-- Node52&#45;&gt;Node54 -->
<g id="edge22" class="edge"><title>Node52&#45;&gt;Node54</title>
<path fill="none" stroke="midnightblue" d="M553.097,-232.232C518.302,-220.666 466.048,-203.297 435.099,-193.009"/>
<polygon fill="midnightblue" stroke="midnightblue" points="552.26,-235.642 562.854,-235.475 554.468,-228.999 552.26,-235.642"/>
</g>
<!-- Node55 -->
<g id="node22" class="node"><title>Node55</title>
<g id="a_node22"><a xlink:href="_subscriber_8h.html" target="_top" xlink:title=" ">
<polygon fill="white" stroke="red" points="535,-174 535,-193 642,-193 642,-174 535,-174"/>
<text text-anchor="middle" x="588.5" y="-181" font-family="Helvetica,sans-Serif" font-size="10.00">Cpl/Dm/Subscriber.h</text>
</a>
</g>
</g>
<!-- Node52&#45;&gt;Node55 -->
<g id="edge23" class="edge"><title>Node52&#45;&gt;Node55</title>
<path fill="none" stroke="midnightblue" d="M588.5,-225.317C588.5,-214.496 588.5,-201.398 588.5,-193.009"/>
<polygon fill="midnightblue" stroke="midnightblue" points="585,-225.475 588.5,-235.475 592,-225.475 585,-225.475"/>
</g>
<!-- Node55&#45;&gt;Node33 -->
<g id="edge24" class="edge"><title>Node55&#45;&gt;Node33</title>
<path fill="none" stroke="midnightblue" d="M604.834,-166.825C616.613,-155.52 632.064,-140.693 641.633,-131.509"/>
<polygon fill="midnightblue" stroke="midnightblue" points="602.175,-164.526 597.383,-173.975 607.022,-169.576 602.175,-164.526"/>
</g>
<!-- Node58 -->
<g id="node24" class="node"><title>Node58</title>
<g id="a_node24"><a xlink:href="_input_api_8h.html" target="_top" xlink:title=" ">
<polygon fill="white" stroke="red" points="1707.5,-174 1707.5,-193 1815.5,-193 1815.5,-174 1707.5,-174"/>
<text text-anchor="middle" x="1761.5" y="-181" font-family="Helvetica,sans-Serif" font-size="10.00">Cpl/Io/File/InputApi.h</text>
</a>
</g>
</g>
<!-- Node57&#45;&gt;Node58 -->
<g id="edge27" class="edge"><title>Node57&#45;&gt;Node58</title>
<path fill="none" stroke="midnightblue" d="M1703.53,-229.294C1718.3,-217.88 1738.26,-202.458 1750.49,-193.009"/>
<polygon fill="midnightblue" stroke="midnightblue" points="1701.31,-226.591 1695.53,-235.475 1705.59,-232.13 1701.31,-226.591"/>
</g>
<!-- Node63 -->
<g id="node25" class="node"><title>Node63</title>
<g id="a_node25"><a xlink:href="_input_output_8h.html" target="_top" xlink:title=" ">
<polygon fill="white" stroke="red" points="1833.5,-174 1833.5,-193 1937.5,-193 1937.5,-174 1833.5,-174"/>
<text text-anchor="middle" x="1885.5" y="-181" font-family="Helvetica,sans-Serif" font-size="10.00">Cpl/Io/InputOutput.h</text>
</a>
</g>
</g>
<!-- Node57&#45;&gt;Node63 -->
<g id="edge28" class="edge"><title>Node57&#45;&gt;Node63</title>
<path fill="none" stroke="midnightblue" d="M1723.25,-232.529C1762.32,-220.965 1821.7,-203.385 1856.76,-193.009"/>
<polygon fill="midnightblue" stroke="midnightblue" points="1721.89,-229.281 1713.3,-235.475 1723.88,-235.993 1721.89,-229.281"/>
</g>
<!-- Node74 -->
<g id="node26" class="node"><title>Node74</title>
<g id="a_node26"><a xlink:href="_line_reader_8h.html" target="_top" xlink:title=" ">
<polygon fill="white" stroke="black" points="1006.5,-174 1006.5,-193 1108.5,-193 1108.5,-174 1006.5,-174"/>
<text text-anchor="middle" x="1057.5" y="-181" font-family="Helvetica,sans-Serif" font-size="10.00">Cpl/Io/LineReader.h</text>
</a>
</g>
</g>
<!-- Node57&#45;&gt;Node74 -->
<g id="edge29" class="edge"><title>Node57&#45;&gt;Node74</title>
<path fill="none" stroke="midnightblue" d="M1636.59,-242.748C1538.57,-239.628 1308.26,-229.425 1117.5,-199 1108.08,-197.498 1097.96,-195.288 1088.76,-193.043"/>
<polygon fill="midnightblue" stroke="midnightblue" points="1636.67,-246.252 1646.77,-243.062 1636.88,-239.256 1636.67,-246.252"/>
</g>
<!-- Node75 -->
<g id="node27" class="node"><title>Node75</title>
<g id="a_node27"><a xlink:href="_serial_2_r_p2040_2_stdio_2_input_8h.html" target="_top" xlink:title=" ">
<polygon fill="white" stroke="black" points="1276,-168.5 1276,-198.5 1383,-198.5 1383,-168.5 1276,-168.5"/>
<text text-anchor="start" x="1284" y="-186.5" font-family="Helvetica,sans-Serif" font-size="10.00">Cpl/Io/Serial/RP2040</text>
<text text-anchor="middle" x="1329.5" y="-175.5" font-family="Helvetica,sans-Serif" font-size="10.00">/Stdio/Input.h</text>
</a>
</g>
</g>
<!-- Node57&#45;&gt;Node75 -->
<g id="edge30" class="edge"><title>Node57&#45;&gt;Node75</title>
<path fill="none" stroke="midnightblue" d="M1636.57,-237.712C1578.57,-229.85 1478.04,-215.412 1392.5,-199 1389.41,-198.408 1386.25,-197.772 1383.06,-197.108"/>
<polygon fill="midnightblue" stroke="midnightblue" points="1636.17,-241.19 1646.55,-239.057 1637.11,-234.252 1636.17,-241.19"/>
</g>
<!-- Node76 -->
<g id="node28" class="node"><title>Node76</title>
<g id="a_node28"><a xlink:href="_input___8h.html" target="_top" xlink:title=" ">
<polygon fill="white" stroke="red" points="1401.5,-174 1401.5,-193 1507.5,-193 1507.5,-174 1401.5,-174"/>
<text text-anchor="middle" x="1454.5" y="-181" font-family="Helvetica,sans-Serif" font-size="10.00">Cpl/Io/Stdio/Input_.h</text>
</a>
</g>
</g>
<!-- Node57&#45;&gt;Node76 -->
<g id="edge31" class="edge"><title>Node57&#45;&gt;Node76</title>
<path fill="none" stroke="midnightblue" d="M1641.86,-232.968C1597.2,-221.415 1528.01,-203.517 1487.39,-193.009"/>
<polygon fill="midnightblue" stroke="midnightblue" points="1640.99,-236.359 1651.55,-235.475 1642.74,-229.582 1640.99,-236.359"/>
</g>
<!-- Node78 -->
<g id="node29" class="node"><title>Node78</title>
<g id="a_node29"><a xlink:href="_system_2_r_p2040_2_stdio_8h.html" target="_top" xlink:title="This interface returns the Cpl Io Stream for the for SDK&#39;s stdio.">
<polygon fill="white" stroke="black" points="1956,-174 1956,-193 2095,-193 2095,-174 1956,-174"/>
<text text-anchor="middle" x="2025.5" y="-181" font-family="Helvetica,sans-Serif" font-size="10.00">Cpl/System/RP2040/Stdio.h</text>
</a>
</g>
</g>
<!-- Node57&#45;&gt;Node78 -->
<g id="edge32" class="edge"><title>Node57&#45;&gt;Node78</title>
<path fill="none" stroke="midnightblue" d="M1732.31,-235.957C1784.85,-227.079 1871.74,-212.281 1946.5,-199 1957.21,-197.098 1968.73,-195.008 1979.56,-193.023"/>
<polygon fill="midnightblue" stroke="midnightblue" points="1731.55,-232.536 1722.27,-237.652 1732.71,-239.438 1731.55,-232.536"/>
</g>
<!-- Node79 -->
<g id="node30" class="node"><title>Node79</title>
<g id="a_node30"><a xlink:href="_processor_api_8h.html" target="_top" xlink:title=" ">
<polygon fill="white" stroke="red" points="2113,-174 2113,-193 2244,-193 2244,-174 2113,-174"/>
<text text-anchor="middle" x="2178.5" y="-181" font-family="Helvetica,sans-Serif" font-size="10.00">Cpl/TShell/ProcessorApi.h</text>
</a>
</g>
</g>
<!-- Node57&#45;&gt;Node79 -->
<g id="edge33" class="edge"><title>Node57&#45;&gt;Node79</title>
<path fill="none" stroke="midnightblue" d="M1732.19,-240.191C1810.12,-233.673 1969.52,-219.11 2103.5,-199 2114.65,-197.327 2126.66,-195.166 2137.74,-193.026"/>
<polygon fill="midnightblue" stroke="midnightblue" points="1731.87,-236.706 1722.19,-241.02 1732.45,-243.682 1731.87,-236.706"/>
</g>
<!-- Node81 -->
<g id="node31" class="node"><title>Node81</title>
<g id="a_node31"><a xlink:href="_stream_decoder_8h.html" target="_top" xlink:title=" ">
<polygon fill="white" stroke="red" points="1526,-174 1526,-193 1689,-193 1689,-174 1526,-174"/>
<text text-anchor="middle" x="1607.5" y="-181" font-family="Helvetica,sans-Serif" font-size="10.00">Cpl/Text/Frame/StreamDecoder.h</text>
</a>
</g>
</g>
<!-- Node57&#45;&gt;Node81 -->
<g id="edge34" class="edge"><title>Node57&#45;&gt;Node81</title>
<path fill="none" stroke="midnightblue" d="M1665.47,-229.294C1650.7,-217.88 1630.74,-202.458 1618.51,-193.009"/>
<polygon fill="midnightblue" stroke="midnightblue" points="1663.41,-232.13 1673.47,-235.475 1667.69,-226.591 1663.41,-232.13"/>
</g>
<!-- Node84&#45;&gt;Node74 -->
<g id="edge36" class="edge"><title>Node84&#45;&gt;Node74</title>
<path fill="none" stroke="midnightblue" d="M1154.45,-231.021C1130.4,-219.482 1095.94,-202.943 1075.23,-193.009"/>
<polygon fill="midnightblue" stroke="midnightblue" points="1153.2,-234.304 1163.73,-235.475 1156.23,-227.993 1153.2,-234.304"/>
</g>
<!-- Node86 -->
<g id="node34" class="node"><title>Node86</title>
<g id="a_node34"><a xlink:href="_line_writer_8h.html" target="_top" xlink:title=" ">
<polygon fill="white" stroke="black" points="2262,-174 2262,-193 2359,-193 2359,-174 2262,-174"/>
<text text-anchor="middle" x="2310.5" y="-181" font-family="Helvetica,sans-Serif" font-size="10.00">Cpl/Io/LineWriter.h</text>
</a>
</g>
</g>
<!-- Node85&#45;&gt;Node86 -->
<g id="edge38" class="edge"><title>Node85&#45;&gt;Node86</title>
<path fill="none" stroke="midnightblue" d="M2023.29,-235.884C2083.49,-228.011 2174.88,-214.935 2253.5,-199 2261.91,-197.296 2270.93,-195.149 2279.27,-193.033"/>
<polygon fill="midnightblue" stroke="midnightblue" points="2022.63,-232.44 2013.16,-237.198 2023.53,-239.382 2022.63,-232.44"/>
</g>
<!-- Node87&#45;&gt;Node63 -->
<g id="edge42" class="edge"><title>Node87&#45;&gt;Node63</title>
<path fill="none" stroke="midnightblue" d="M2258.78,-239.42C2187.97,-232.736 2057,-218.901 1946.5,-199 1937.39,-197.36 1927.61,-195.211 1918.6,-193.071"/>
<polygon fill="midnightblue" stroke="midnightblue" points="2258.51,-242.909 2268.79,-240.354 2259.16,-235.939 2258.51,-242.909"/>
</g>
<!-- Node87&#45;&gt;Node78 -->
<g id="edge46" class="edge"><title>Node87&#45;&gt;Node78</title>
<path fill="none" stroke="midnightblue" d="M2259.74,-233.402C2204.49,-221.867 2117.23,-203.65 2066.26,-193.009"/>
<polygon fill="midnightblue" stroke="midnightblue" points="2259.16,-236.857 2269.67,-235.475 2260.59,-230.005 2259.16,-236.857"/>
</g>
<!-- Node87&#45;&gt;Node79 -->
<g id="edge50" class="edge"><title>Node87&#45;&gt;Node79</title>
<path fill="none" stroke="midnightblue" d="M2282.39,-231.327C2256.76,-219.776 2219.61,-203.032 2197.38,-193.009"/>
<polygon fill="midnightblue" stroke="midnightblue" points="2281.03,-234.556 2291.59,-235.475 2283.91,-228.175 2281.03,-234.556"/>
</g>
<!-- Node87&#45;&gt;Node86 -->
<g id="edge43" class="edge"><title>Node87&#45;&gt;Node86</title>
<path fill="none" stroke="midnightblue" d="M2310.5,-225.317C2310.5,-214.496 2310.5,-201.398 2310.5,-193.009"/>
<polygon fill="midnightblue" stroke="midnightblue" points="2307,-225.475 2310.5,-235.475 2314,-225.475 2307,-225.475"/>
</g>
<!-- Node88 -->
<g id="node36" class="node"><title>Node88</title>
<g id="a_node36"><a xlink:href="_atomic_output_api_8h.html" target="_top" xlink:title=" ">
<polygon fill="white" stroke="red" points="2377.5,-174 2377.5,-193 2505.5,-193 2505.5,-174 2377.5,-174"/>
<text text-anchor="middle" x="2441.5" y="-181" font-family="Helvetica,sans-Serif" font-size="10.00">Cpl/Io/AtomicOutputApi.h</text>
</a>
</g>
</g>
<!-- Node87&#45;&gt;Node88 -->
<g id="edge40" class="edge"><title>Node87&#45;&gt;Node88</title>
<path fill="none" stroke="midnightblue" d="M2338.4,-231.327C2363.83,-219.776 2400.7,-203.032 2422.77,-193.009"/>
<polygon fill="midnightblue" stroke="midnightblue" points="2336.93,-228.153 2329.27,-235.475 2339.82,-234.526 2336.93,-228.153"/>
</g>
<!-- Node90 -->
<g id="node37" class="node"><title>Node90</title>
<g id="a_node37"><a xlink:href="_output_api_8h.html" target="_top" xlink:title=" ">
<polygon fill="white" stroke="red" points="2523.5,-174 2523.5,-193 2639.5,-193 2639.5,-174 2523.5,-174"/>
<text text-anchor="middle" x="2581.5" y="-181" font-family="Helvetica,sans-Serif" font-size="10.00">Cpl/Io/File/OutputApi.h</text>
</a>
</g>
</g>
<!-- Node87&#45;&gt;Node90 -->
<g id="edge41" class="edge"><title>Node87&#45;&gt;Node90</title>
<path fill="none" stroke="midnightblue" d="M2359.1,-233.33C2411.65,-221.792 2494.38,-203.628 2542.74,-193.009"/>
<polygon fill="midnightblue" stroke="midnightblue" points="2358.34,-229.912 2349.33,-235.475 2359.85,-236.749 2358.34,-229.912"/>
</g>
<!-- Node92 -->
<g id="node38" class="node"><title>Node92</title>
<g id="a_node38"><a xlink:href="_serial_2_r_p2040_2_stdio_2_output_8h.html" target="_top" xlink:title=" ">
<polygon fill="white" stroke="black" points="2658,-168.5 2658,-198.5 2765,-198.5 2765,-168.5 2658,-168.5"/>
<text text-anchor="start" x="2666" y="-186.5" font-family="Helvetica,sans-Serif" font-size="10.00">Cpl/Io/Serial/RP2040</text>
<text text-anchor="middle" x="2711.5" y="-175.5" font-family="Helvetica,sans-Serif" font-size="10.00">/Stdio/Output.h</text>
</a>
</g>
</g>
<!-- Node87&#45;&gt;Node92 -->
<g id="edge44" class="edge"><title>Node87&#45;&gt;Node92</title>
<path fill="none" stroke="midnightblue" d="M2362.06,-235.649C2363.56,-235.428 2365.04,-235.211 2366.5,-235 2491.56,-216.973 2524.11,-221.197 2648.5,-199 2651.59,-198.448 2654.76,-197.843 2657.96,-197.204"/>
<polygon fill="midnightblue" stroke="midnightblue" points="2361.43,-232.205 2352.07,-237.166 2362.48,-239.126 2361.43,-232.205"/>
</g>
<!-- Node93 -->
<g id="node39" class="node"><title>Node93</title>
<g id="a_node39"><a xlink:href="_output___8h.html" target="_top" xlink:title=" ">
<polygon fill="white" stroke="red" points="2783,-174 2783,-193 2896,-193 2896,-174 2783,-174"/>
<text text-anchor="middle" x="2839.5" y="-181" font-family="Helvetica,sans-Serif" font-size="10.00">Cpl/Io/Stdio/Output_.h</text>
</a>
</g>
</g>
<!-- Node87&#45;&gt;Node93 -->
<g id="edge45" class="edge"><title>Node87&#45;&gt;Node93</title>
<path fill="none" stroke="midnightblue" d="M2362.05,-235.574C2363.55,-235.374 2365.03,-235.182 2366.5,-235 2547.15,-212.543 2594.61,-226.877 2774.5,-199 2784.55,-197.442 2795.38,-195.242 2805.25,-193.025"/>
<polygon fill="midnightblue" stroke="midnightblue" points="2361.46,-232.122 2352.04,-236.985 2362.43,-239.054 2361.46,-232.122"/>
</g>
<!-- Node87&#45;&gt;Node97 -->
<g id="edge47" class="edge"><title>Node87&#45;&gt;Node97</title>
<path fill="none" stroke="midnightblue" d="M2362.04,-235.532C2363.54,-235.345 2365.03,-235.167 2366.5,-235 2605.06,-207.922 2668.11,-234.886 2905.5,-199 2915.19,-197.536 2925.6,-195.309 2935.04,-193.037"/>
<polygon fill="midnightblue" stroke="midnightblue" points="2361.47,-232.077 2352.03,-236.886 2362.41,-239.014 2361.47,-232.077"/>
</g>
<!-- Node97&#45;&gt;Node53 -->
<g id="edge48" class="edge"><title>Node97&#45;&gt;Node53</title>
<path fill="none" stroke="midnightblue" d="M2925.48,-171.627C2918.84,-170.191 2912.01,-168.906 2905.5,-168 2708.23,-140.537 2079.29,-126.987 1909.23,-123.767"/>
<polygon fill="midnightblue" stroke="midnightblue" points="2925.15,-175.143 2935.68,-173.972 2926.72,-168.321 2925.15,-175.143"/>
</g>
<!-- Node97&#45;&gt;Node98 -->
<g id="edge49" class="edge"><title>Node97&#45;&gt;Node98</title>
<path fill="none" stroke="midnightblue" d="M2965.24,-163.817C2964.52,-152.996 2963.64,-139.898 2963.07,-131.509"/>
<polygon fill="midnightblue" stroke="midnightblue" points="2961.76,-164.232 2965.93,-173.975 2968.75,-163.763 2961.76,-164.232"/>
</g>
<!-- Node11&#45;&gt;Node12 -->
<g id="edge54" class="edge"><title>Node11&#45;&gt;Node12</title>
<path fill="none" stroke="midnightblue" d="M1249.29,-234.199C1167.39,-223.781 1044.31,-207.645 997.5,-199 988.369,-197.314 978.555,-195.173 969.489,-193.057"/>
<polygon fill="midnightblue" stroke="midnightblue" points="1248.95,-237.684 1259.31,-235.472 1249.83,-230.74 1248.95,-237.684"/>
</g>
<!-- Node11&#45;&gt;Node16 -->
<g id="edge55" class="edge"><title>Node11&#45;&gt;Node16</title>
<path fill="none" stroke="midnightblue" d="M1298.75,-231.327C1272.54,-219.776 1234.55,-203.032 1211.81,-193.009"/>
<polygon fill="midnightblue" stroke="midnightblue" points="1297.6,-234.645 1308.16,-235.475 1300.42,-228.239 1297.6,-234.645"/>
</g>
<!-- Node100&#45;&gt;Node38 -->
<g id="edge58" class="edge"><title>Node100&#45;&gt;Node38</title>
<path fill="none" stroke="midnightblue" d="M1003.82,-233.404C953.182,-223.006 883.568,-207.506 873.5,-199 833.839,-165.492 820.998,-99.2937 817.577,-75.6476"/>
<polygon fill="midnightblue" stroke="midnightblue" points="1003.17,-236.844 1013.67,-235.412 1004.57,-229.985 1003.17,-236.844"/>
</g>
<!-- Node100&#45;&gt;Node74 -->
<g id="edge59" class="edge"><title>Node100&#45;&gt;Node74</title>
<path fill="none" stroke="midnightblue" d="M1057.5,-225.317C1057.5,-214.496 1057.5,-201.398 1057.5,-193.009"/>
<polygon fill="midnightblue" stroke="midnightblue" points="1054,-225.475 1057.5,-235.475 1061,-225.475 1054,-225.475"/>
</g>
<!-- Node114&#45;&gt;Node38 -->
<g id="edge66" class="edge"><title>Node114&#45;&gt;Node38</title>
<path fill="none" stroke="midnightblue" d="M3028.06,-112.037C2571.38,-71.9628 1173.3,-67.558 873.477,-67.0627"/>
<polygon fill="midnightblue" stroke="midnightblue" points="3028.07,-115.552 3038.35,-112.96 3028.7,-108.58 3028.07,-115.552"/>
</g>
<!-- Node114&#45;&gt;Node39 -->
<g id="edge65" class="edge"><title>Node114&#45;&gt;Node39</title>
<path fill="none" stroke="midnightblue" d="M3028.19,-111.934C2553.53,-54.9303 1992.2,-23.389 1808.73,-14.0031"/>
<polygon fill="midnightblue" stroke="midnightblue" points="3027.98,-115.434 3038.33,-113.157 3028.82,-108.484 3027.98,-115.434"/>
</g>
</g>
</svg>
