<?xml version="1.0" encoding="UTF-8" standalone="no"?>
<!DOCTYPE svg PUBLIC "-//W3C//DTD SVG 1.1//EN"
 "http://www.w3.org/Graphics/SVG/1.1/DTD/svg11.dtd">
<!-- Generated by graphviz version 2.38.0 (20140413.2041)
 -->
<!-- Title: Cpl/Dm/SubscriberApi.h Pages: 1 -->
<svg width="2374pt" height="509pt"
 viewBox="0.00 0.00 2374.23 509.00" xmlns="http://www.w3.org/2000/svg" xmlns:xlink="http://www.w3.org/1999/xlink">
<g id="graph0" class="graph" transform="scale(1 1) rotate(0) translate(4 505)">
<title>Cpl/Dm/SubscriberApi.h</title>
<polygon fill="white" stroke="none" points="-4,4 -4,-505 2370.23,-505 2370.23,4 -4,4"/>
<!-- Node1 -->
<g id="node1" class="node"><title>Node1</title>
<g id="a_node1"><a xlink:title=" ">
<polygon fill="#bfbfbf" stroke="black" points="927.229,-481.5 927.229,-500.5 1048.23,-500.5 1048.23,-481.5 927.229,-481.5"/>
<text text-anchor="middle" x="987.729" y="-488.5" font-family="Helvetica,sans-Serif" font-size="10.00">Cpl/Dm/SubscriberApi.h</text>
</a>
</g>
</g>
<!-- Node2 -->
<g id="node2" class="node"><title>Node2</title>
<g id="a_node2"><a xlink:href="_dm_2_event_loop_8h.html" target="_top" xlink:title=" ">
<polygon fill="white" stroke="black" points="842.229,-369.5 842.229,-388.5 949.229,-388.5 949.229,-369.5 842.229,-369.5"/>
<text text-anchor="middle" x="895.729" y="-376.5" font-family="Helvetica,sans-Serif" font-size="10.00">Cpl/Dm/EventLoop.h</text>
</a>
</g>
</g>
<!-- Node1&#45;&gt;Node2 -->
<g id="edge1" class="edge"><title>Node1&#45;&gt;Node2</title>
<path fill="none" stroke="midnightblue" d="M917.456,-478.648C898.538,-472.027 880.169,-461.556 868.729,-445 856.087,-426.703 875.067,-401.569 887.096,-388.567"/>
<polygon fill="midnightblue" stroke="midnightblue" points="916.47,-482.007 927.06,-481.684 918.581,-475.333 916.47,-482.007"/>
</g>
<!-- Node17 -->
<g id="node17" class="node"><title>Node17</title>
<g id="a_node17"><a xlink:href="_subscriber_8h.html" target="_top" xlink:title=" ">
<polygon fill="white" stroke="black" points="980.229,-313.5 980.229,-332.5 1087.23,-332.5 1087.23,-313.5 980.229,-313.5"/>
<text text-anchor="middle" x="1033.73" y="-320.5" font-family="Helvetica,sans-Serif" font-size="10.00">Cpl/Dm/Subscriber.h</text>
</a>
</g>
</g>
<!-- Node1&#45;&gt;Node17 -->
<g id="edge54" class="edge"><title>Node1&#45;&gt;Node17</title>
<path fill="none" stroke="midnightblue" d="M1000.23,-472.742C1005.49,-464.678 1011.2,-454.726 1014.73,-445 1029.31,-404.822 1032.71,-353.143 1033.49,-332.792"/>
<polygon fill="midnightblue" stroke="midnightblue" points="997.184,-470.989 994.411,-481.214 1002.96,-474.95 997.184,-470.989"/>
</g>
<!-- Node36 -->
<g id="node36" class="node"><title>Node36</title>
<g id="a_node36"><a xlink:href="_model_point_8h.html" target="_top" xlink:title=" ">
<polygon fill="white" stroke="black" points="1062.23,-369.5 1062.23,-388.5 1171.23,-388.5 1171.23,-369.5 1062.23,-369.5"/>
<text text-anchor="middle" x="1116.73" y="-376.5" font-family="Helvetica,sans-Serif" font-size="10.00">Cpl/Dm/ModelPoint.h</text>
</a>
</g>
</g>
<!-- Node1&#45;&gt;Node36 -->
<g id="edge47" class="edge"><title>Node1&#45;&gt;Node36</title>
<path fill="none" stroke="midnightblue" d="M1008.3,-475.448C1020.09,-466.893 1035.03,-455.689 1047.73,-445 1070.4,-425.927 1095.3,-401.54 1108.09,-388.742"/>
<polygon fill="midnightblue" stroke="midnightblue" points="1006.07,-472.744 999.989,-481.421 1010.15,-478.429 1006.07,-472.744"/>
</g>
<!-- Node38 -->
<g id="node38" class="node"><title>Node38</title>
<g id="a_node38"><a xlink:href="_notification_api___8h.html" target="_top" xlink:title=" ">
<polygon fill="white" stroke="black" points="877.729,-425.5 877.729,-444.5 1005.73,-444.5 1005.73,-425.5 877.729,-425.5"/>
<text text-anchor="middle" x="941.729" y="-432.5" font-family="Helvetica,sans-Serif" font-size="10.00">Cpl/Dm/NotificationApi_.h</text>
</a>
</g>
</g>
<!-- Node1&#45;&gt;Node38 -->
<g id="edge52" class="edge"><title>Node1&#45;&gt;Node38</title>
<path fill="none" stroke="midnightblue" d="M973.615,-473.431C965.553,-463.967 955.77,-452.483 949.184,-444.751"/>
<polygon fill="midnightblue" stroke="midnightblue" points="970.984,-475.74 980.133,-481.083 976.313,-471.201 970.984,-475.74"/>
</g>
<!-- Node3 -->
<g id="node3" class="node"><title>Node3</title>
<g id="a_node3"><a xlink:href="_dm_2_mailbox_server_8h.html" target="_top" xlink:title=" ">
<polygon fill="white" stroke="black" points="724.729,-313.5 724.729,-332.5 846.729,-332.5 846.729,-313.5 724.729,-313.5"/>
<text text-anchor="middle" x="785.729" y="-320.5" font-family="Helvetica,sans-Serif" font-size="10.00">Cpl/Dm/MailboxServer.h</text>
</a>
</g>
</g>
<!-- Node2&#45;&gt;Node3 -->
<g id="edge2" class="edge"><title>Node2&#45;&gt;Node3</title>
<path fill="none" stroke="midnightblue" d="M868.967,-364.862C848.57,-354.849 821.063,-341.346 803.359,-332.655"/>
<polygon fill="midnightblue" stroke="midnightblue" points="867.537,-368.059 878.056,-369.324 870.622,-361.775 867.537,-368.059"/>
</g>
<!-- Node2&#45;&gt;Node17 -->
<g id="edge24" class="edge"><title>Node2&#45;&gt;Node17</title>
<path fill="none" stroke="midnightblue" d="M926.979,-365.772C952.9,-355.629 989.092,-341.467 1011.97,-332.516"/>
<polygon fill="midnightblue" stroke="midnightblue" points="925.633,-362.54 917.596,-369.444 928.184,-369.059 925.633,-362.54"/>
</g>
<!-- Node4 -->
<g id="node4" class="node"><title>Node4</title>
<g id="a_node4"><a xlink:href="_dm_2_periodic_scheduler_8h.html" target="_top" xlink:title=" ">
<polygon fill="white" stroke="black" points="858.229,-257.5 858.229,-276.5 997.229,-276.5 997.229,-257.5 858.229,-257.5"/>
<text text-anchor="middle" x="927.729" y="-264.5" font-family="Helvetica,sans-Serif" font-size="10.00">Cpl/Dm/PeriodicScheduler.h</text>
</a>
</g>
</g>
<!-- Node3&#45;&gt;Node4 -->
<g id="edge3" class="edge"><title>Node3&#45;&gt;Node4</title>
<path fill="none" stroke="midnightblue" d="M817.884,-309.772C844.558,-299.629 881.798,-285.467 905.334,-276.516"/>
<polygon fill="midnightblue" stroke="midnightblue" points="816.332,-306.618 808.23,-313.444 818.821,-313.16 816.332,-306.618"/>
</g>
<!-- Node5 -->
<g id="node5" class="node"><title>Node5</title>
<g id="a_node5"><a xlink:href="_chunk_8h.html" target="_top" xlink:title=" ">
<polygon fill="white" stroke="black" points="468.229,-257.5 468.229,-276.5 585.229,-276.5 585.229,-257.5 468.229,-257.5"/>
<text text-anchor="middle" x="526.729" y="-264.5" font-family="Helvetica,sans-Serif" font-size="10.00">Cpl/Persistent/Chunk.h</text>
</a>
</g>
</g>
<!-- Node3&#45;&gt;Node5 -->
<g id="edge4" class="edge"><title>Node3&#45;&gt;Node5</title>
<path fill="none" stroke="midnightblue" d="M734.628,-311.346C685.681,-301.141 612.775,-285.94 567.577,-276.516"/>
<polygon fill="midnightblue" stroke="midnightblue" points="734.186,-314.829 744.69,-313.444 735.615,-307.976 734.186,-314.829"/>
</g>
<!-- Node13 -->
<g id="node13" class="node"><title>Node13</title>
<g id="a_node13"><a xlink:href="_persistent_2_record_8h.html" target="_top" xlink:title=" ">
<polygon fill="white" stroke="black" points="681.729,-257.5 681.729,-276.5 801.729,-276.5 801.729,-257.5 681.729,-257.5"/>
<text text-anchor="middle" x="741.729" y="-264.5" font-family="Helvetica,sans-Serif" font-size="10.00">Cpl/Persistent/Record.h</text>
</a>
</g>
</g>
<!-- Node3&#45;&gt;Node13 -->
<g id="edge13" class="edge"><title>Node3&#45;&gt;Node13</title>
<path fill="none" stroke="midnightblue" d="M771.995,-305.144C764.329,-295.736 755.096,-284.405 748.86,-276.751"/>
<polygon fill="midnightblue" stroke="midnightblue" points="769.433,-307.541 778.464,-313.083 774.86,-303.12 769.433,-307.541"/>
</g>
<!-- Node14 -->
<g id="node14" class="node"><title>Node14</title>
<g id="a_node14"><a xlink:href="_record_server_8h.html" target="_top" xlink:title=" ">
<polygon fill="white" stroke="black" points="770.229,-196 770.229,-215 919.229,-215 919.229,-196 770.229,-196"/>
<text text-anchor="middle" x="844.729" y="-203" font-family="Helvetica,sans-Serif" font-size="10.00">Cpl/Persistent/RecordServer.h</text>
</a>
</g>
</g>
<!-- Node3&#45;&gt;Node14 -->
<g id="edge18" class="edge"><title>Node3&#45;&gt;Node14</title>
<path fill="none" stroke="midnightblue" d="M795.648,-304.697C800.336,-296.383 805.94,-286.239 810.729,-277 822.111,-255.043 834.494,-228.673 840.702,-215.263"/>
<polygon fill="midnightblue" stroke="midnightblue" points="792.57,-303.03 790.671,-313.453 798.656,-306.489 792.57,-303.03"/>
</g>
<!-- Node15 -->
<g id="node15" class="node"><title>Node15</title>
<g id="a_node15"><a xlink:href="_region_media_8h.html" target="_top" xlink:title=" ">
<polygon fill="white" stroke="black" points="170.729,-257.5 170.729,-276.5 316.729,-276.5 316.729,-257.5 170.729,-257.5"/>
<text text-anchor="middle" x="243.729" y="-264.5" font-family="Helvetica,sans-Serif" font-size="10.00">Cpl/Persistent/RegionMedia.h</text>
</a>
</g>
</g>
<!-- Node3&#45;&gt;Node15 -->
<g id="edge19" class="edge"><title>Node3&#45;&gt;Node15</title>
<path fill="none" stroke="midnightblue" d="M714.604,-314.914C611.5,-304.641 421.473,-285.709 317.115,-275.312"/>
<polygon fill="midnightblue" stroke="midnightblue" points="714.311,-318.402 724.609,-315.91 715.005,-311.436 714.311,-318.402"/>
</g>
<!-- Node6 -->
<g id="node6" class="node"><title>Node6</title>
<g id="a_node6"><a xlink:href="_dm_2_persistent_2_record_8h.html" target="_top" xlink:title=" ">
<polygon fill="white" stroke="black" points="775.729,-134.5 775.729,-153.5 913.729,-153.5 913.729,-134.5 775.729,-134.5"/>
<text text-anchor="middle" x="844.729" y="-141.5" font-family="Helvetica,sans-Serif" font-size="10.00">Cpl/Dm/Persistent/Record.h</text>
</a>
</g>
</g>
<!-- Node5&#45;&gt;Node6 -->
<g id="edge5" class="edge"><title>Node5&#45;&gt;Node6</title>
<path fill="none" stroke="midnightblue" d="M530.818,-247.513C535.742,-229.836 545.822,-203.88 564.729,-190 581.498,-177.69 698.152,-162.022 775.504,-152.794"/>
<polygon fill="midnightblue" stroke="midnightblue" points="527.409,-246.718 528.386,-257.268 534.201,-248.412 527.409,-246.718"/>
</g>
<!-- Node7 -->
<g id="node7" class="node"><title>Node7</title>
<g id="a_node7"><a xlink:href="_crc_chunk_8h.html" target="_top" xlink:title=" ">
<polygon fill="white" stroke="black" points="177.729,-196 177.729,-215 309.729,-215 309.729,-196 177.729,-196"/>
<text text-anchor="middle" x="243.729" y="-203" font-family="Helvetica,sans-Serif" font-size="10.00">Cpl/Persistent/CrcChunk.h</text>
</a>
</g>
</g>
<!-- Node5&#45;&gt;Node7 -->
<g id="edge6" class="edge"><title>Node5&#45;&gt;Node7</title>
<path fill="none" stroke="midnightblue" d="M476.323,-255.402C421.458,-243.867 334.811,-225.65 284.201,-215.009"/>
<polygon fill="midnightblue" stroke="midnightblue" points="475.676,-258.843 486.182,-257.475 477.116,-251.992 475.676,-258.843"/>
</g>
<!-- Node8 -->
<g id="node8" class="node"><title>Node8</title>
<g id="a_node8"><a xlink:href="_data_record_8h.html" target="_top" xlink:title=" ">
<polygon fill="white" stroke="black" points="573.729,-196 573.729,-215 713.729,-215 713.729,-196 573.729,-196"/>
<text text-anchor="middle" x="643.729" y="-203" font-family="Helvetica,sans-Serif" font-size="10.00">Cpl/Persistent/DataRecord.h</text>
</a>
</g>
</g>
<!-- Node5&#45;&gt;Node8 -->
<g id="edge7" class="edge"><title>Node5&#45;&gt;Node8</title>
<path fill="none" stroke="midnightblue" d="M552.555,-252.867C575.231,-241.335 607.549,-224.899 626.997,-215.009"/>
<polygon fill="midnightblue" stroke="midnightblue" points="550.82,-249.822 543.493,-257.475 553.993,-256.062 550.82,-249.822"/>
</g>
<!-- Node10 -->
<g id="node10" class="node"><title>Node10</title>
<g id="a_node10"><a xlink:href="_indexed_entry_record_8h.html" target="_top" xlink:title=" ">
<polygon fill="white" stroke="black" points="574.229,-67.5 574.229,-97.5 713.229,-97.5 713.229,-67.5 574.229,-67.5"/>
<text text-anchor="start" x="582.229" y="-85.5" font-family="Helvetica,sans-Serif" font-size="10.00">Cpl/Persistent/IndexedEntry</text>
<text text-anchor="middle" x="643.729" y="-74.5" font-family="Helvetica,sans-Serif" font-size="10.00">Record.h</text>
</a>
</g>
</g>
<!-- Node5&#45;&gt;Node10 -->
<g id="edge11" class="edge"><title>Node5&#45;&gt;Node10</title>
<path fill="none" stroke="midnightblue" d="M526.914,-247.055C528.178,-219.054 534.47,-166.442 562.729,-134 576.226,-118.505 595.652,-106.173 612.097,-97.5744"/>
<polygon fill="midnightblue" stroke="midnightblue" points="523.406,-247.326 526.631,-257.418 530.403,-247.518 523.406,-247.326"/>
</g>
<!-- Node12 -->
<g id="node12" class="node"><title>Node12</title>
<g id="a_node12"><a xlink:href="_mirrored_chunk_8h.html" target="_top" xlink:title=" ">
<polygon fill="white" stroke="black" points="327.729,-196 327.729,-215 479.729,-215 479.729,-196 327.729,-196"/>
<text text-anchor="middle" x="403.729" y="-203" font-family="Helvetica,sans-Serif" font-size="10.00">Cpl/Persistent/MirroredChunk.h</text>
</a>
</g>
</g>
<!-- Node5&#45;&gt;Node12 -->
<g id="edge12" class="edge"><title>Node5&#45;&gt;Node12</title>
<path fill="none" stroke="midnightblue" d="M499.898,-253.021C476.044,-241.482 441.856,-224.943 421.319,-215.009"/>
<polygon fill="midnightblue" stroke="midnightblue" points="498.58,-256.271 509.106,-257.475 501.628,-249.97 498.58,-256.271"/>
</g>
<!-- Node9 -->
<g id="node9" class="node"><title>Node9</title>
<g id="a_node9"><a xlink:href="_index_record_8h.html" target="_top" xlink:title=" ">
<polygon fill="white" stroke="black" points="571.729,-134.5 571.729,-153.5 715.729,-153.5 715.729,-134.5 571.729,-134.5"/>
<text text-anchor="middle" x="643.729" y="-141.5" font-family="Helvetica,sans-Serif" font-size="10.00">Cpl/Persistent/IndexRecord.h</text>
</a>
</g>
</g>
<!-- Node8&#45;&gt;Node9 -->
<g id="edge8" class="edge"><title>Node8&#45;&gt;Node9</title>
<path fill="none" stroke="midnightblue" d="M643.729,-185.817C643.729,-174.996 643.729,-161.898 643.729,-153.509"/>
<polygon fill="midnightblue" stroke="midnightblue" points="640.229,-185.975 643.729,-195.975 647.229,-185.975 640.229,-185.975"/>
</g>
<!-- Node9&#45;&gt;Node10 -->
<g id="edge9" class="edge"><title>Node9&#45;&gt;Node10</title>
<path fill="none" stroke="midnightblue" d="M643.729,-124.235C643.729,-115.586 643.729,-105.497 643.729,-97.523"/>
<polygon fill="midnightblue" stroke="midnightblue" points="640.229,-124.475 643.729,-134.475 647.229,-124.475 640.229,-124.475"/>
</g>
<!-- Node11 -->
<g id="node11" class="node"><title>Node11</title>
<g id="a_node11"><a xlink:href="_indexed_entry_server_8h.html" target="_top" xlink:title=" ">
<polygon fill="white" stroke="black" points="943.229,-0.5 943.229,-30.5 1082.23,-30.5 1082.23,-0.5 943.229,-0.5"/>
<text text-anchor="start" x="951.229" y="-18.5" font-family="Helvetica,sans-Serif" font-size="10.00">Cpl/Persistent/IndexedEntry</text>
<text text-anchor="middle" x="1012.73" y="-7.5" font-family="Helvetica,sans-Serif" font-size="10.00">Server.h</text>
</a>
</g>
</g>
<!-- Node10&#45;&gt;Node11 -->
<g id="edge10" class="edge"><title>Node10&#45;&gt;Node11</title>
<path fill="none" stroke="midnightblue" d="M723.433,-67.46C788.885,-55.9306 880.662,-39.7639 943.175,-28.7521"/>
<polygon fill="midnightblue" stroke="midnightblue" points="722.81,-64.0158 713.569,-69.1976 724.025,-70.9096 722.81,-64.0158"/>
</g>
<!-- Node13&#45;&gt;Node6 -->
<g id="edge14" class="edge"><title>Node13&#45;&gt;Node6</title>
<path fill="none" stroke="midnightblue" d="M742.277,-246.881C743.664,-230.276 747.959,-206.387 760.729,-190 774.661,-172.122 797.739,-160.491 816.183,-153.542"/>
<polygon fill="midnightblue" stroke="midnightblue" points="738.773,-246.852 741.712,-257.031 745.762,-247.241 738.773,-246.852"/>
</g>
<!-- Node13&#45;&gt;Node8 -->
<g id="edge15" class="edge"><title>Node13&#45;&gt;Node8</title>
<path fill="none" stroke="midnightblue" d="M719.073,-252.244C700.141,-240.75 673.743,-224.723 657.744,-215.009"/>
<polygon fill="midnightblue" stroke="midnightblue" points="717.324,-255.277 727.688,-257.475 720.957,-249.294 717.324,-255.277"/>
</g>
<!-- Node13&#45;&gt;Node14 -->
<g id="edge16" class="edge"><title>Node13&#45;&gt;Node14</title>
<path fill="none" stroke="midnightblue" d="M765.271,-252.401C785.187,-240.896 813.108,-224.767 829.999,-215.009"/>
<polygon fill="midnightblue" stroke="midnightblue" points="763.395,-249.442 756.487,-257.475 766.896,-255.504 763.395,-249.442"/>
</g>
<!-- Node14&#45;&gt;Node6 -->
<g id="edge17" class="edge"><title>Node14&#45;&gt;Node6</title>
<path fill="none" stroke="midnightblue" d="M844.729,-185.817C844.729,-174.996 844.729,-161.898 844.729,-153.509"/>
<polygon fill="midnightblue" stroke="midnightblue" points="841.229,-185.975 844.729,-195.975 848.229,-185.975 841.229,-185.975"/>
</g>
<!-- Node15&#45;&gt;Node7 -->
<g id="edge20" class="edge"><title>Node15&#45;&gt;Node7</title>
<path fill="none" stroke="midnightblue" d="M243.729,-247.317C243.729,-236.496 243.729,-223.398 243.729,-215.009"/>
<polygon fill="midnightblue" stroke="midnightblue" points="240.229,-247.475 243.729,-257.475 247.229,-247.475 240.229,-247.475"/>
</g>
<!-- Node15&#45;&gt;Node10 -->
<g id="edge22" class="edge"><title>Node15&#45;&gt;Node10</title>
<path fill="none" stroke="midnightblue" d="M160.309,-264.401C76.3078,-259.828 -34.818,-243.851 10.7293,-190 82.3363,-105.339 425.115,-87.9453 574.209,-84.3969"/>
<polygon fill="midnightblue" stroke="midnightblue" points="160.245,-267.902 170.407,-264.904 160.593,-260.911 160.245,-267.902"/>
</g>
<!-- Node15&#45;&gt;Node12 -->
<g id="edge23" class="edge"><title>Node15&#45;&gt;Node12</title>
<path fill="none" stroke="midnightblue" d="M276.179,-253.933C307.277,-242.368 353.421,-225.208 380.848,-215.009"/>
<polygon fill="midnightblue" stroke="midnightblue" points="274.806,-250.709 266.653,-257.475 277.246,-257.27 274.806,-250.709"/>
</g>
<!-- Node16 -->
<g id="node16" class="node"><title>Node16</title>
<g id="a_node16"><a xlink:href="_file_adapter_8h.html" target="_top" xlink:title=" ">
<polygon fill="white" stroke="black" points="20.2293,-196 20.2293,-215 159.229,-215 159.229,-196 20.2293,-196"/>
<text text-anchor="middle" x="89.7293" y="-203" font-family="Helvetica,sans-Serif" font-size="10.00">Cpl/Persistent/FileAdapter.h</text>
</a>
</g>
</g>
<!-- Node15&#45;&gt;Node16 -->
<g id="edge21" class="edge"><title>Node15&#45;&gt;Node16</title>
<path fill="none" stroke="midnightblue" d="M212.107,-253.782C182.181,-242.22 138.036,-225.164 111.753,-215.009"/>
<polygon fill="midnightblue" stroke="midnightblue" points="211.075,-257.136 221.665,-257.475 213.598,-250.606 211.075,-257.136"/>
</g>
<!-- Node18 -->
<g id="node18" class="node"><title>Node18</title>
<g id="a_node18"><a xlink:href="_model_point_common___8h.html" target="_top" xlink:title=" ">
<polygon fill="white" stroke="black" points="1398.23,-257.5 1398.23,-276.5 1551.23,-276.5 1551.23,-257.5 1398.23,-257.5"/>
<text text-anchor="middle" x="1474.73" y="-264.5" font-family="Helvetica,sans-Serif" font-size="10.00">Cpl/Dm/ModelPointCommon_.h</text>
</a>
</g>
</g>
<!-- Node17&#45;&gt;Node18 -->
<g id="edge25" class="edge"><title>Node17&#45;&gt;Node18</title>
<path fill="none" stroke="midnightblue" d="M1097.52,-314.188C1179.33,-304.172 1320.67,-286.864 1405.17,-276.518"/>
<polygon fill="midnightblue" stroke="midnightblue" points="1096.86,-310.743 1087.36,-315.433 1097.71,-317.691 1096.86,-310.743"/>
</g>
<!-- Node35 -->
<g id="node35" class="node"><title>Node35</title>
<g id="a_node35"><a xlink:href="_subscriber_composer_8h.html" target="_top" xlink:title=" ">
<polygon fill="white" stroke="black" points="937.229,-196 937.229,-215 1088.23,-215 1088.23,-196 937.229,-196"/>
<text text-anchor="middle" x="1012.73" y="-203" font-family="Helvetica,sans-Serif" font-size="10.00">Cpl/Dm/SubscriberComposer.h</text>
</a>
</g>
</g>
<!-- Node17&#45;&gt;Node35 -->
<g id="edge44" class="edge"><title>Node17&#45;&gt;Node35</title>
<path fill="none" stroke="midnightblue" d="M1030.3,-303.164C1025.7,-277.865 1017.72,-233.935 1014.33,-215.282"/>
<polygon fill="midnightblue" stroke="midnightblue" points="1026.92,-304.106 1032.15,-313.319 1033.81,-302.854 1026.92,-304.106"/>
</g>
<!-- Node19 -->
<g id="node19" class="node"><title>Node19</title>
<g id="a_node19"><a xlink:href="_array___8h.html" target="_top" xlink:title=" ">
<polygon fill="white" stroke="black" points="1814.23,-196 1814.23,-215 1919.23,-215 1919.23,-196 1814.23,-196"/>
<text text-anchor="middle" x="1866.73" y="-203" font-family="Helvetica,sans-Serif" font-size="10.00">Cpl/Dm/Mp/Array_.h</text>
</a>
</g>
</g>
<!-- Node18&#45;&gt;Node19 -->
<g id="edge26" class="edge"><title>Node18&#45;&gt;Node19</title>
<path fill="none" stroke="midnightblue" d="M1561.46,-256.436C1628.23,-248.529 1722.66,-236.158 1804.73,-221 1813.86,-219.314 1823.67,-217.173 1832.74,-215.057"/>
<polygon fill="midnightblue" stroke="midnightblue" points="1560.93,-252.975 1551.41,-257.619 1561.75,-259.927 1560.93,-252.975"/>
</g>
<!-- Node20 -->
<g id="node20" class="node"><title>Node20</title>
<g id="a_node20"><a xlink:href="_bool_8h.html" target="_top" xlink:title=" ">
<polygon fill="white" stroke="black" points="1144.73,-196 1144.73,-215 1240.73,-215 1240.73,-196 1144.73,-196"/>
<text text-anchor="middle" x="1192.73" y="-203" font-family="Helvetica,sans-Serif" font-size="10.00">Cpl/Dm/Mp/Bool.h</text>
</a>
</g>
</g>
<!-- Node18&#45;&gt;Node20 -->
<g id="edge27" class="edge"><title>Node18&#45;&gt;Node20</title>
<path fill="none" stroke="midnightblue" d="M1418.48,-255.587C1372.86,-246.941 1306.97,-233.996 1249.73,-221 1241.76,-219.191 1233.21,-217.097 1225.21,-215.072"/>
<polygon fill="midnightblue" stroke="midnightblue" points="1418,-259.057 1428.47,-257.473 1419.3,-252.178 1418,-259.057"/>
</g>
<!-- Node21 -->
<g id="node21" class="node"><title>Node21</title>
<g id="a_node21"><a xlink:href="_elapsed_precision_time_8h.html" target="_top" xlink:title=" ">
<polygon fill="white" stroke="black" points="1258.73,-190.5 1258.73,-220.5 1402.73,-220.5 1402.73,-190.5 1258.73,-190.5"/>
<text text-anchor="start" x="1266.73" y="-208.5" font-family="Helvetica,sans-Serif" font-size="10.00">Cpl/Dm/Mp/ElapsedPrecision</text>
<text text-anchor="middle" x="1330.73" y="-197.5" font-family="Helvetica,sans-Serif" font-size="10.00">Time.h</text>
</a>
</g>
</g>
<!-- Node18&#45;&gt;Node21 -->
<g id="edge28" class="edge"><title>Node18&#45;&gt;Node21</title>
<path fill="none" stroke="midnightblue" d="M1444.69,-253.59C1421.35,-243.942 1388.95,-230.558 1364.67,-220.523"/>
<polygon fill="midnightblue" stroke="midnightblue" points="1443.52,-256.891 1454.1,-257.475 1446.19,-250.422 1443.52,-256.891"/>
</g>
<!-- Node22 -->
<g id="node22" class="node"><title>Node22</title>
<g id="a_node22"><a xlink:href="_enum___8h.html" target="_top" xlink:title=" ">
<polygon fill="white" stroke="black" points="1421.23,-196 1421.23,-215 1528.23,-215 1528.23,-196 1421.23,-196"/>
<text text-anchor="middle" x="1474.73" y="-203" font-family="Helvetica,sans-Serif" font-size="10.00">Cpl/Dm/Mp/Enum_.h</text>
</a>
</g>
</g>
<!-- Node18&#45;&gt;Node22 -->
<g id="edge29" class="edge"><title>Node18&#45;&gt;Node22</title>
<path fill="none" stroke="midnightblue" d="M1474.73,-247.317C1474.73,-236.496 1474.73,-223.398 1474.73,-215.009"/>
<polygon fill="midnightblue" stroke="midnightblue" points="1471.23,-247.475 1474.73,-257.475 1478.23,-247.475 1471.23,-247.475"/>
</g>
<!-- Node23 -->
<g id="node23" class="node"><title>Node23</title>
<g id="a_node23"><a xlink:href="_numeric_8h.html" target="_top" xlink:title=" ">
<polygon fill="white" stroke="black" points="1937.23,-196 1937.23,-215 2050.23,-215 2050.23,-196 1937.23,-196"/>
<text text-anchor="middle" x="1993.73" y="-203" font-family="Helvetica,sans-Serif" font-size="10.00">Cpl/Dm/Mp/Numeric.h</text>
</a>
</g>
</g>
<!-- Node18&#45;&gt;Node23 -->
<g id="edge30" class="edge"><title>Node18&#45;&gt;Node23</title>
<path fill="none" stroke="midnightblue" d="M1561.67,-260.405C1653.15,-253.807 1801.15,-241.12 1927.73,-221 1937.81,-219.398 1948.66,-217.21 1958.59,-215.019"/>
<polygon fill="midnightblue" stroke="midnightblue" points="1561.35,-256.918 1551.63,-261.121 1561.85,-263.901 1561.35,-256.918"/>
</g>
<!-- Node33 -->
<g id="node33" class="node"><title>Node33</title>
<g id="a_node33"><a xlink:href="_ref_counter_8h.html" target="_top" xlink:title=" ">
<polygon fill="white" stroke="black" points="1546.23,-196 1546.23,-215 1671.23,-215 1671.23,-196 1546.23,-196"/>
<text text-anchor="middle" x="1608.73" y="-203" font-family="Helvetica,sans-Serif" font-size="10.00">Cpl/Dm/Mp/RefCounter.h</text>
</a>
</g>
</g>
<!-- Node18&#45;&gt;Node33 -->
<g id="edge42" class="edge"><title>Node18&#45;&gt;Node33</title>
<path fill="none" stroke="midnightblue" d="M1503.27,-253.327C1529.28,-241.776 1566.99,-225.032 1589.57,-215.009"/>
<polygon fill="midnightblue" stroke="midnightblue" points="1501.65,-250.218 1493.93,-257.475 1504.49,-256.616 1501.65,-250.218"/>
</g>
<!-- Node34 -->
<g id="node34" class="node"><title>Node34</title>
<g id="a_node34"><a xlink:href="_dm_2_mp_2_string___8h.html" target="_top" xlink:title=" ">
<polygon fill="white" stroke="black" points="1689.23,-196 1689.23,-215 1796.23,-215 1796.23,-196 1689.23,-196"/>
<text text-anchor="middle" x="1742.73" y="-203" font-family="Helvetica,sans-Serif" font-size="10.00">Cpl/Dm/Mp/String_.h</text>
</a>
</g>
</g>
<!-- Node18&#45;&gt;Node34 -->
<g id="edge43" class="edge"><title>Node18&#45;&gt;Node34</title>
<path fill="none" stroke="midnightblue" d="M1523.92,-255.349C1565.47,-246.317 1626.52,-232.962 1679.73,-221 1688.16,-219.104 1697.22,-217.037 1705.77,-215.073"/>
<polygon fill="midnightblue" stroke="midnightblue" points="1523.08,-251.948 1514.06,-257.491 1524.57,-258.789 1523.08,-251.948"/>
</g>
<!-- Node24 -->
<g id="node24" class="node"><title>Node24</title>
<g id="a_node24"><a xlink:href="_bit_array16_8h.html" target="_top" xlink:title=" ">
<polygon fill="white" stroke="black" points="2118.73,-134.5 2118.73,-153.5 2240.73,-153.5 2240.73,-134.5 2118.73,-134.5"/>
<text text-anchor="middle" x="2179.73" y="-141.5" font-family="Helvetica,sans-Serif" font-size="10.00">Cpl/Dm/Mp/BitArray16.h</text>
</a>
</g>
</g>
<!-- Node23&#45;&gt;Node24 -->
<g id="edge31" class="edge"><title>Node23&#45;&gt;Node24</title>
<path fill="none" stroke="midnightblue" d="M2030.05,-192.881C2066.21,-181.315 2120.83,-163.841 2153.13,-153.509"/>
<polygon fill="midnightblue" stroke="midnightblue" points="2028.84,-189.595 2020.38,-195.975 2030.97,-196.262 2028.84,-189.595"/>
</g>
<!-- Node25 -->
<g id="node25" class="node"><title>Node25</title>
<g id="a_node25"><a xlink:href="_double_8h.html" target="_top" xlink:title=" ">
<polygon fill="white" stroke="black" points="2259.23,-134.5 2259.23,-153.5 2366.23,-153.5 2366.23,-134.5 2259.23,-134.5"/>
<text text-anchor="middle" x="2312.73" y="-141.5" font-family="Helvetica,sans-Serif" font-size="10.00">Cpl/Dm/Mp/Double.h</text>
</a>
</g>
</g>
<!-- Node23&#45;&gt;Node25 -->
<g id="edge32" class="edge"><title>Node23&#45;&gt;Node25</title>
<path fill="none" stroke="midnightblue" d="M2049.4,-194.117C2111.17,-182.594 2209.71,-164.216 2267.11,-153.509"/>
<polygon fill="midnightblue" stroke="midnightblue" points="2048.62,-190.701 2039.43,-195.975 2049.91,-197.582 2048.62,-190.701"/>
</g>
<!-- Node26 -->
<g id="node26" class="node"><title>Node26</title>
<g id="a_node26"><a xlink:href="_float_8h.html" target="_top" xlink:title=" ">
<polygon fill="white" stroke="black" points="1534.73,-134.5 1534.73,-153.5 1632.73,-153.5 1632.73,-134.5 1534.73,-134.5"/>
<text text-anchor="middle" x="1583.73" y="-141.5" font-family="Helvetica,sans-Serif" font-size="10.00">Cpl/Dm/Mp/Float.h</text>
</a>
</g>
</g>
<!-- Node23&#45;&gt;Node26 -->
<g id="edge33" class="edge"><title>Node23&#45;&gt;Node26</title>
<path fill="none" stroke="midnightblue" d="M1947.36,-193.757C1940.79,-192.397 1934.1,-191.099 1927.73,-190 1801.48,-168.232 1768.6,-171.824 1641.73,-154 1638.8,-153.589 1635.8,-153.155 1632.76,-152.71"/>
<polygon fill="midnightblue" stroke="midnightblue" points="1947.03,-197.264 1957.54,-195.926 1948.49,-190.417 1947.03,-197.264"/>
</g>
<!-- Node27 -->
<g id="node27" class="node"><title>Node27</title>
<g id="a_node27"><a xlink:href="_int32_8h.html" target="_top" xlink:title=" ">
<polygon fill="white" stroke="black" points="1650.73,-134.5 1650.73,-153.5 1748.73,-153.5 1748.73,-134.5 1650.73,-134.5"/>
<text text-anchor="middle" x="1699.73" y="-141.5" font-family="Helvetica,sans-Serif" font-size="10.00">Cpl/Dm/Mp/Int32.h</text>
</a>
</g>
</g>
<!-- Node23&#45;&gt;Node27 -->
<g id="edge34" class="edge"><title>Node23&#45;&gt;Node27</title>
<path fill="none" stroke="midnightblue" d="M1945.44,-193.767C1939.48,-192.478 1933.47,-191.197 1927.73,-190 1864.14,-176.741 1790.35,-162.361 1744.35,-153.514"/>
<polygon fill="midnightblue" stroke="midnightblue" points="1944.85,-197.22 1955.37,-195.927 1946.34,-190.381 1944.85,-197.22"/>
</g>
<!-- Node28 -->
<g id="node28" class="node"><title>Node28</title>
<g id="a_node28"><a xlink:href="_int64_8h.html" target="_top" xlink:title=" ">
<polygon fill="white" stroke="black" points="1766.73,-134.5 1766.73,-153.5 1864.73,-153.5 1864.73,-134.5 1766.73,-134.5"/>
<text text-anchor="middle" x="1815.73" y="-141.5" font-family="Helvetica,sans-Serif" font-size="10.00">Cpl/Dm/Mp/Int64.h</text>
</a>
</g>
</g>
<!-- Node23&#45;&gt;Node28 -->
<g id="edge35" class="edge"><title>Node23&#45;&gt;Node28</title>
<path fill="none" stroke="midnightblue" d="M1958.52,-192.732C1923.92,-181.166 1871.96,-163.797 1841.19,-153.509"/>
<polygon fill="midnightblue" stroke="midnightblue" points="1957.63,-196.124 1968.23,-195.975 1959.85,-189.485 1957.63,-196.124"/>
</g>
<!-- Node29 -->
<g id="node29" class="node"><title>Node29</title>
<g id="a_node29"><a xlink:href="_uint32_8h.html" target="_top" xlink:title=" ">
<polygon fill="white" stroke="black" points="1882.73,-134.5 1882.73,-153.5 1986.73,-153.5 1986.73,-134.5 1882.73,-134.5"/>
<text text-anchor="middle" x="1934.73" y="-141.5" font-family="Helvetica,sans-Serif" font-size="10.00">Cpl/Dm/Mp/Uint32.h</text>
</a>
</g>
</g>
<!-- Node23&#45;&gt;Node29 -->
<g id="edge36" class="edge"><title>Node23&#45;&gt;Node29</title>
<path fill="none" stroke="midnightblue" d="M1978.19,-188.825C1966.98,-177.52 1952.27,-162.693 1943.17,-153.509"/>
<polygon fill="midnightblue" stroke="midnightblue" points="1975.75,-191.339 1985.28,-195.975 1980.72,-186.41 1975.75,-191.339"/>
</g>
<!-- Node31 -->
<g id="node31" class="node"><title>Node31</title>
<g id="a_node31"><a xlink:href="_uint64_8h.html" target="_top" xlink:title=" ">
<polygon fill="white" stroke="black" points="1256.73,-134.5 1256.73,-153.5 1360.73,-153.5 1360.73,-134.5 1256.73,-134.5"/>
<text text-anchor="middle" x="1308.73" y="-141.5" font-family="Helvetica,sans-Serif" font-size="10.00">Cpl/Dm/Mp/Uint64.h</text>
</a>
</g>
</g>
<!-- Node23&#45;&gt;Node31 -->
<g id="edge39" class="edge"><title>Node23&#45;&gt;Node31</title>
<path fill="none" stroke="midnightblue" d="M1949.08,-193.783C1941.97,-192.339 1934.67,-191.01 1927.73,-190 1818.84,-174.164 1489.67,-154.952 1361.04,-147.832"/>
<polygon fill="midnightblue" stroke="midnightblue" points="1948.8,-197.3 1959.3,-195.957 1950.25,-190.453 1948.8,-197.3"/>
</g>
<!-- Node32 -->
<g id="node32" class="node"><title>Node32</title>
<g id="a_node32"><a xlink:href="_void_8h.html" target="_top" xlink:title=" ">
<polygon fill="white" stroke="black" points="2004.73,-134.5 2004.73,-153.5 2100.73,-153.5 2100.73,-134.5 2004.73,-134.5"/>
<text text-anchor="middle" x="2052.73" y="-141.5" font-family="Helvetica,sans-Serif" font-size="10.00">Cpl/Dm/Mp/Void.h</text>
</a>
</g>
</g>
<!-- Node23&#45;&gt;Node32 -->
<g id="edge41" class="edge"><title>Node23&#45;&gt;Node32</title>
<path fill="none" stroke="midnightblue" d="M2009.27,-188.825C2020.48,-177.52 2035.19,-162.693 2044.29,-153.509"/>
<polygon fill="midnightblue" stroke="midnightblue" points="2006.74,-186.41 2002.18,-195.975 2011.71,-191.339 2006.74,-186.41"/>
</g>
<!-- Node30 -->
<g id="node30" class="node"><title>Node30</title>
<g id="a_node30"><a xlink:href="_ring_buffer_m_p_8h.html" target="_top" xlink:title=" ">
<polygon fill="white" stroke="black" points="1451.23,-73 1451.23,-92 1598.23,-92 1598.23,-73 1451.23,-73"/>
<text text-anchor="middle" x="1524.73" y="-80" font-family="Helvetica,sans-Serif" font-size="10.00">Cpl/Container/RingBufferMP.h</text>
</a>
</g>
</g>
<!-- Node29&#45;&gt;Node30 -->
<g id="edge37" class="edge"><title>Node29&#45;&gt;Node30</title>
<path fill="none" stroke="midnightblue" d="M1872.43,-133.813C1764.83,-118.1 1651.36,-101.725 1584.02,-92.0278"/>
<polygon fill="midnightblue" stroke="midnightblue" points="1872.09,-137.3 1882.49,-135.282 1873.1,-130.374 1872.09,-137.3"/>
</g>
<!-- Node30&#45;&gt;Node11 -->
<g id="edge38" class="edge"><title>Node30&#45;&gt;Node11</title>
<path fill="none" stroke="midnightblue" d="M1447.58,-71.7054C1348.46,-59.1223 1177.86,-37.464 1082.47,-25.3539"/>
<polygon fill="midnightblue" stroke="midnightblue" points="1447.17,-75.1816 1457.53,-72.969 1448.05,-68.2373 1447.17,-75.1816"/>
</g>
<!-- Node31&#45;&gt;Node10 -->
<g id="edge40" class="edge"><title>Node31&#45;&gt;Node10</title>
<path fill="none" stroke="midnightblue" d="M1246.42,-137.425C1121.97,-126.29 843.415,-101.367 713.248,-89.7201"/>
<polygon fill="midnightblue" stroke="midnightblue" points="1246.28,-140.926 1256.55,-138.331 1246.9,-133.954 1246.28,-140.926"/>
</g>
<!-- Node35&#45;&gt;Node6 -->
<g id="edge45" class="edge"><title>Node35&#45;&gt;Node6</title>
<path fill="none" stroke="midnightblue" d="M979.081,-192.583C946.424,-181.017 897.677,-163.752 868.755,-153.509"/>
<polygon fill="midnightblue" stroke="midnightblue" points="978.064,-195.936 988.659,-195.975 980.401,-189.337 978.064,-195.936"/>
</g>
<!-- Node35&#45;&gt;Node11 -->
<g id="edge46" class="edge"><title>Node35&#45;&gt;Node11</title>
<path fill="none" stroke="midnightblue" d="M1012.73,-185.881C1012.73,-148.328 1012.73,-64.2397 1012.73,-30.704"/>
<polygon fill="midnightblue" stroke="midnightblue" points="1009.23,-185.933 1012.73,-195.934 1016.23,-185.934 1009.23,-185.933"/>
</g>
<!-- Node36&#45;&gt;Node6 -->
<g id="edge50" class="edge"><title>Node36&#45;&gt;Node6</title>
<path fill="none" stroke="midnightblue" d="M1121.21,-359.473C1129.04,-322.049 1140.53,-237.01 1096.73,-190 1072.46,-163.946 979.826,-152.877 913.931,-148.242"/>
<polygon fill="midnightblue" stroke="midnightblue" points="1117.74,-358.94 1118.96,-369.464 1124.57,-360.477 1117.74,-358.94"/>
</g>
<!-- Node36&#45;&gt;Node17 -->
<g id="edge51" class="edge"><title>Node36&#45;&gt;Node17</title>
<path fill="none" stroke="midnightblue" d="M1094.63,-363.622C1079.47,-353.757 1059.85,-340.992 1047.03,-332.655"/>
<polygon fill="midnightblue" stroke="midnightblue" points="1093.1,-366.804 1103.39,-369.324 1096.92,-360.937 1093.1,-366.804"/>
</g>
<!-- Node36&#45;&gt;Node18 -->
<g id="edge49" class="edge"><title>Node36&#45;&gt;Node18</title>
<path fill="none" stroke="midnightblue" d="M1127,-360.55C1136.93,-345.355 1153.44,-324.076 1173.73,-313 1211.3,-292.495 1321.85,-279.921 1397.98,-273.452"/>
<polygon fill="midnightblue" stroke="midnightblue" points="1124,-358.739 1121.69,-369.078 1129.94,-362.438 1124,-358.739"/>
</g>
<!-- Node37 -->
<g id="node37" class="node"><title>Node37</title>
<g id="a_node37"><a xlink:href="helpers_8h.html" target="_top" xlink:title="This file defines helper functions/interface for writing unit tests.">
<polygon fill="white" stroke="black" points="1183.23,-313.5 1183.23,-332.5 1268.23,-332.5 1268.23,-313.5 1183.23,-313.5"/>
<text text-anchor="middle" x="1225.73" y="-320.5" font-family="Helvetica,sans-Serif" font-size="10.00">Catch/helpers.h</text>
</a>
</g>
</g>
<!-- Node36&#45;&gt;Node37 -->
<g id="edge48" class="edge"><title>Node36&#45;&gt;Node37</title>
<path fill="none" stroke="midnightblue" d="M1143.25,-364.862C1163.46,-354.849 1190.72,-341.346 1208.26,-332.655"/>
<polygon fill="midnightblue" stroke="midnightblue" points="1141.65,-361.748 1134.24,-369.324 1144.76,-368.021 1141.65,-361.748"/>
</g>
<!-- Node38&#45;&gt;Node2 -->
<g id="edge53" class="edge"><title>Node38&#45;&gt;Node2</title>
<path fill="none" stroke="midnightblue" d="M927.615,-417.431C919.553,-407.967 909.77,-396.483 903.184,-388.751"/>
<polygon fill="midnightblue" stroke="midnightblue" points="924.984,-419.74 934.133,-425.083 930.313,-415.201 924.984,-419.74"/>
</g>
</g>
</svg>
