<?xml version="1.0" encoding="UTF-8" standalone="no"?>
<!DOCTYPE svg PUBLIC "-//W3C//DTD SVG 1.1//EN"
 "http://www.w3.org/Graphics/SVG/1.1/DTD/svg11.dtd">
<!-- Generated by graphviz version 2.38.0 (20140413.2041)
 -->
<!-- Title: Storm/Type/SystemConfig.h Pages: 1 -->
<svg width="1715pt" height="408pt"
 viewBox="0.00 0.00 1715.00 408.00" xmlns="http://www.w3.org/2000/svg" xmlns:xlink="http://www.w3.org/1999/xlink">
<g id="graph0" class="graph" transform="scale(1 1) rotate(0) translate(4 404)">
<title>Storm/Type/SystemConfig.h</title>
<polygon fill="white" stroke="none" points="-4,4 -4,-404 1711,-404 1711,4 -4,4"/>
<!-- Node1 -->
<g id="node1" class="node"><title>Node1</title>
<g id="a_node1"><a xlink:title=" ">
<polygon fill="#bfbfbf" stroke="black" points="854.5,-380.5 854.5,-399.5 994.5,-399.5 994.5,-380.5 854.5,-380.5"/>
<text text-anchor="middle" x="924.5" y="-387.5" font-family="Helvetica,sans-Serif" font-size="10.00">Storm/Type/SystemConfig.h</text>
</a>
</g>
</g>
<!-- Node2 -->
<g id="node2" class="node"><title>Node2</title>
<g id="a_node2"><a xlink:href="_mp_system_config_8h.html" target="_top" xlink:title=" ">
<polygon fill="white" stroke="black" points="851,-324.5 851,-343.5 998,-343.5 998,-324.5 851,-324.5"/>
<text text-anchor="middle" x="924.5" y="-331.5" font-family="Helvetica,sans-Serif" font-size="10.00">Storm/Dm/MpSystemConfig.h</text>
</a>
</g>
</g>
<!-- Node1&#45;&gt;Node2 -->
<g id="edge1" class="edge"><title>Node1&#45;&gt;Node2</title>
<path fill="none" stroke="midnightblue" d="M924.5,-369.805C924.5,-360.91 924.5,-350.78 924.5,-343.751"/>
<polygon fill="midnightblue" stroke="midnightblue" points="921,-370.083 924.5,-380.083 928,-370.083 921,-370.083"/>
</g>
<!-- Node3 -->
<g id="node3" class="node"><title>Node3</title>
<g id="a_node3"><a xlink:href="_control_8h.html" target="_top" xlink:title=" ">
<polygon fill="white" stroke="black" points="219,-263 219,-282 356,-282 356,-263 219,-263"/>
<text text-anchor="middle" x="287.5" y="-270" font-family="Helvetica,sans-Serif" font-size="10.00">Storm/Component/Control.h</text>
</a>
</g>
</g>
<!-- Node2&#45;&gt;Node3 -->
<g id="edge2" class="edge"><title>Node2&#45;&gt;Node3</title>
<path fill="none" stroke="midnightblue" d="M840.718,-325.174C713.452,-313.287 473.816,-290.903 356.18,-279.915"/>
<polygon fill="midnightblue" stroke="midnightblue" points="840.524,-328.671 850.806,-326.116 841.175,-321.702 840.524,-328.671"/>
</g>
<!-- Node12 -->
<g id="node12" class="node"><title>Node12</title>
<g id="a_node12"><a xlink:href="_fan_control_8h.html" target="_top" xlink:title=" ">
<polygon fill="white" stroke="black" points="809.5,-62 809.5,-81 963.5,-81 963.5,-62 809.5,-62"/>
<text text-anchor="middle" x="886.5" y="-69" font-family="Helvetica,sans-Serif" font-size="10.00">Storm/Component/FanControl.h</text>
</a>
</g>
</g>
<!-- Node2&#45;&gt;Node12 -->
<g id="edge18" class="edge"><title>Node2&#45;&gt;Node12</title>
<path fill="none" stroke="midnightblue" d="M921.76,-314.216C914.183,-262.275 893.154,-118.115 887.769,-81.1999"/>
<polygon fill="midnightblue" stroke="midnightblue" points="918.329,-314.943 923.236,-324.333 925.255,-313.932 918.329,-314.943"/>
</g>
<!-- Node13 -->
<g id="node13" class="node"><title>Node13</title>
<g id="a_node13"><a xlink:href="_component_2_hvac_relay_outputs_8h.html" target="_top" xlink:title=" ">
<polygon fill="white" stroke="black" points="914.5,-123.5 914.5,-153.5 1060.5,-153.5 1060.5,-123.5 914.5,-123.5"/>
<text text-anchor="start" x="922.5" y="-141.5" font-family="Helvetica,sans-Serif" font-size="10.00">Storm/Component/HvacRelay</text>
<text text-anchor="middle" x="987.5" y="-130.5" font-family="Helvetica,sans-Serif" font-size="10.00">Outputs.h</text>
</a>
</g>
</g>
<!-- Node2&#45;&gt;Node13 -->
<g id="edge20" class="edge"><title>Node2&#45;&gt;Node13</title>
<path fill="none" stroke="midnightblue" d="M928.481,-314.618C931.982,-299.125 937.452,-276.437 943.5,-257 955.278,-219.146 972.548,-175.727 981.548,-153.789"/>
<polygon fill="midnightblue" stroke="midnightblue" points="925.042,-313.958 926.299,-324.478 931.877,-315.471 925.042,-313.958"/>
</g>
<!-- Node14 -->
<g id="node14" class="node"><title>Node14</title>
<g id="a_node14"><a xlink:href="_component_2_operating_mode_8h.html" target="_top" xlink:title=" ">
<polygon fill="white" stroke="black" points="952.5,-257.5 952.5,-287.5 1092.5,-287.5 1092.5,-257.5 952.5,-257.5"/>
<text text-anchor="start" x="960.5" y="-275.5" font-family="Helvetica,sans-Serif" font-size="10.00">Storm/Component/Operating</text>
<text text-anchor="middle" x="1022.5" y="-264.5" font-family="Helvetica,sans-Serif" font-size="10.00">Mode.h</text>
</a>
</g>
</g>
<!-- Node2&#45;&gt;Node14 -->
<g id="edge22" class="edge"><title>Node2&#45;&gt;Node14</title>
<path fill="none" stroke="midnightblue" d="M947.104,-319.276C962.787,-309.754 983.614,-297.11 999.403,-287.523"/>
<polygon fill="midnightblue" stroke="midnightblue" points="945.272,-316.294 938.541,-324.475 948.905,-322.277 945.272,-316.294"/>
</g>
<!-- Node15 -->
<g id="node15" class="node"><title>Node15</title>
<g id="a_node15"><a xlink:href="_pi_8h.html" target="_top" xlink:title=" ">
<polygon fill="white" stroke="black" points="1110.5,-263 1110.5,-282 1226.5,-282 1226.5,-263 1110.5,-263"/>
<text text-anchor="middle" x="1168.5" y="-270" font-family="Helvetica,sans-Serif" font-size="10.00">Storm/Component/Pi.h</text>
</a>
</g>
</g>
<!-- Node2&#45;&gt;Node15 -->
<g id="edge24" class="edge"><title>Node2&#45;&gt;Node15</title>
<path fill="none" stroke="midnightblue" d="M969.44,-322.041C1016.81,-310.49 1090.42,-292.539 1133.61,-282.009"/>
<polygon fill="midnightblue" stroke="midnightblue" points="968.345,-318.706 959.459,-324.475 970.004,-325.506 968.345,-318.706"/>
</g>
<!-- Node16 -->
<g id="node16" class="node"><title>Node16</title>
<g id="a_node16"><a xlink:href="_pi_pre_process_8h.html" target="_top" xlink:title=" ">
<polygon fill="white" stroke="black" points="691,-129 691,-148 858,-148 858,-129 691,-129"/>
<text text-anchor="middle" x="774.5" y="-136" font-family="Helvetica,sans-Serif" font-size="10.00">Storm/Component/PiPreProcess.h</text>
</a>
</g>
</g>
<!-- Node2&#45;&gt;Node16 -->
<g id="edge26" class="edge"><title>Node2&#45;&gt;Node16</title>
<path fill="none" stroke="midnightblue" d="M904.931,-318.207C894.658,-309.933 882.222,-299.076 872.5,-288 830.116,-239.713 791.911,-171.859 779.074,-148.112"/>
<polygon fill="midnightblue" stroke="midnightblue" points="902.917,-321.076 912.944,-324.498 907.24,-315.57 902.917,-321.076"/>
</g>
<!-- Node17 -->
<g id="node17" class="node"><title>Node17</title>
<g id="a_node17"><a xlink:href="_model_points_8h.html" target="_top" xlink:title="This file defines all of the Model Points for the Thermostat Application.">
<polygon fill="white" stroke="black" points="1282,-263 1282,-282 1443,-282 1443,-263 1282,-263"/>
<text text-anchor="middle" x="1362.5" y="-270" font-family="Helvetica,sans-Serif" font-size="10.00">Storm/Thermostat/ModelPoints.h</text>
</a>
</g>
</g>
<!-- Node2&#45;&gt;Node17 -->
<g id="edge30" class="edge"><title>Node2&#45;&gt;Node17</title>
<path fill="none" stroke="midnightblue" d="M997.293,-323.112C1081.84,-311.626 1219.91,-292.871 1299.86,-282.009"/>
<polygon fill="midnightblue" stroke="midnightblue" points="996.693,-319.661 987.255,-324.475 997.635,-326.597 996.693,-319.661"/>
</g>
<!-- Node4 -->
<g id="node4" class="node"><title>Node4</title>
<g id="a_node4"><a xlink:href="_cooling_8h.html" target="_top" xlink:title=" ">
<polygon fill="white" stroke="black" points="202,-123.5 202,-153.5 347,-153.5 347,-123.5 202,-123.5"/>
<text text-anchor="start" x="210" y="-141.5" font-family="Helvetica,sans-Serif" font-size="10.00">Storm/Component/Equipment</text>
<text text-anchor="middle" x="274.5" y="-130.5" font-family="Helvetica,sans-Serif" font-size="10.00">/Cooling.h</text>
</a>
</g>
</g>
<!-- Node3&#45;&gt;Node4 -->
<g id="edge3" class="edge"><title>Node3&#45;&gt;Node4</title>
<path fill="none" stroke="midnightblue" d="M285.632,-252.531C283,-225.812 278.261,-177.691 275.907,-153.783"/>
<polygon fill="midnightblue" stroke="midnightblue" points="282.184,-253.23 286.647,-262.839 289.15,-252.544 282.184,-253.23"/>
</g>
<!-- Node5 -->
<g id="node5" class="node"><title>Node5</title>
<g id="a_node5"><a xlink:href="_algorithm_8h.html" target="_top" xlink:title=" ">
<polygon fill="white" stroke="black" points="606.5,-0.5 606.5,-19.5 754.5,-19.5 754.5,-0.5 606.5,-0.5"/>
<text text-anchor="middle" x="680.5" y="-7.5" font-family="Helvetica,sans-Serif" font-size="10.00">Storm/Thermostat/Algorithm.h</text>
</a>
</g>
</g>
<!-- Node3&#45;&gt;Node5 -->
<g id="edge17" class="edge"><title>Node3&#45;&gt;Node5</title>
<path fill="none" stroke="midnightblue" d="M265.816,-256.939C228.758,-230.218 160.221,-171.63 192.5,-123 237.808,-54.7418 480.976,-26.2804 606.06,-16.017"/>
<polygon fill="midnightblue" stroke="midnightblue" points="263.86,-259.842 274.054,-262.73 267.885,-254.116 263.86,-259.842"/>
</g>
<!-- Node6 -->
<g id="node6" class="node"><title>Node6</title>
<g id="a_node6"><a xlink:href="_indoor_heating_8h.html" target="_top" xlink:title=" ">
<polygon fill="white" stroke="black" points="365,-123.5 365,-153.5 510,-153.5 510,-123.5 365,-123.5"/>
<text text-anchor="start" x="373" y="-141.5" font-family="Helvetica,sans-Serif" font-size="10.00">Storm/Component/Equipment</text>
<text text-anchor="middle" x="437.5" y="-130.5" font-family="Helvetica,sans-Serif" font-size="10.00">/IndoorHeating.h</text>
</a>
</g>
</g>
<!-- Node3&#45;&gt;Node6 -->
<g id="edge5" class="edge"><title>Node3&#45;&gt;Node6</title>
<path fill="none" stroke="midnightblue" d="M296.364,-253.865C306.024,-236.014 322.888,-208.479 343.5,-190 360.604,-174.666 383.193,-162.338 401.94,-153.703"/>
<polygon fill="midnightblue" stroke="midnightblue" points="293.177,-252.407 291.648,-262.891 299.381,-255.649 293.177,-252.407"/>
</g>
<!-- Node7 -->
<g id="node7" class="node"><title>Node7</title>
<g id="a_node7"><a xlink:href="_off_8h.html" target="_top" xlink:title=" ">
<polygon fill="white" stroke="black" points="0,-56.5 0,-86.5 145,-86.5 145,-56.5 0,-56.5"/>
<text text-anchor="start" x="8" y="-74.5" font-family="Helvetica,sans-Serif" font-size="10.00">Storm/Component/Equipment</text>
<text text-anchor="middle" x="72.5" y="-63.5" font-family="Helvetica,sans-Serif" font-size="10.00">/Off.h</text>
</a>
</g>
</g>
<!-- Node3&#45;&gt;Node7 -->
<g id="edge7" class="edge"><title>Node3&#45;&gt;Node7</title>
<path fill="none" stroke="midnightblue" d="M237.366,-260.112C211.875,-252.373 181.683,-240.002 159.5,-221 115.022,-182.901 87.6533,-116.093 77.2673,-86.8697"/>
<polygon fill="midnightblue" stroke="midnightblue" points="236.66,-263.551 247.238,-262.953 238.597,-256.824 236.66,-263.551"/>
</g>
<!-- Node8 -->
<g id="node8" class="node"><title>Node8</title>
<g id="a_node8"><a xlink:href="_stage_api_8h.html" target="_top" xlink:title=" ">
<polygon fill="white" stroke="black" points="353,-190.5 353,-220.5 498,-220.5 498,-190.5 353,-190.5"/>
<text text-anchor="start" x="361" y="-208.5" font-family="Helvetica,sans-Serif" font-size="10.00">Storm/Component/Equipment</text>
<text text-anchor="middle" x="425.5" y="-197.5" font-family="Helvetica,sans-Serif" font-size="10.00">/StageApi.h</text>
</a>
</g>
</g>
<!-- Node3&#45;&gt;Node8 -->
<g id="edge9" class="edge"><title>Node3&#45;&gt;Node8</title>
<path fill="none" stroke="midnightblue" d="M315.156,-258.474C338.486,-247.485 371.805,-231.791 395.717,-220.528"/>
<polygon fill="midnightblue" stroke="midnightblue" points="313.381,-255.441 305.825,-262.869 316.363,-261.774 313.381,-255.441"/>
</g>
<!-- Node4&#45;&gt;Node5 -->
<g id="edge4" class="edge"><title>Node4&#45;&gt;Node5</title>
<path fill="none" stroke="midnightblue" d="M303.413,-117.782C332.302,-99.0185 378.613,-71.427 422.5,-56 482.446,-34.9283 553.828,-23.4524 606.297,-17.3751"/>
<polygon fill="midnightblue" stroke="midnightblue" points="301.459,-114.878 295.029,-123.298 305.307,-120.725 301.459,-114.878"/>
</g>
<!-- Node6&#45;&gt;Node5 -->
<g id="edge6" class="edge"><title>Node6&#45;&gt;Node5</title>
<path fill="none" stroke="midnightblue" d="M429.253,-113.572C424.738,-95.6935 422.399,-71.7265 435.5,-56 456.952,-30.2489 542.242,-19.1841 606.202,-14.4616"/>
<polygon fill="midnightblue" stroke="midnightblue" points="425.923,-114.653 432.063,-123.287 432.647,-112.708 425.923,-114.653"/>
</g>
<!-- Node7&#45;&gt;Node5 -->
<g id="edge8" class="edge"><title>Node7&#45;&gt;Node5</title>
<path fill="none" stroke="midnightblue" d="M155.048,-56.577C156.543,-56.3785 158.028,-56.1859 159.5,-56 318.027,-35.975 504.834,-22.2148 606.106,-15.5703"/>
<polygon fill="midnightblue" stroke="midnightblue" points="154.49,-53.1208 145.068,-57.965 155.455,-60.0541 154.49,-53.1208"/>
</g>
<!-- Node8&#45;&gt;Node4 -->
<g id="edge10" class="edge"><title>Node8&#45;&gt;Node4</title>
<path fill="none" stroke="midnightblue" d="M383.468,-186.407C359.361,-176.029 329.546,-163.195 307.201,-153.577"/>
<polygon fill="midnightblue" stroke="midnightblue" points="382.166,-189.657 392.735,-190.396 384.934,-183.227 382.166,-189.657"/>
</g>
<!-- Node8&#45;&gt;Node6 -->
<g id="edge11" class="edge"><title>Node8&#45;&gt;Node6</title>
<path fill="none" stroke="midnightblue" d="M429.949,-180.403C431.616,-171.37 433.455,-161.408 434.901,-153.577"/>
<polygon fill="midnightblue" stroke="midnightblue" points="426.478,-179.927 428.104,-190.396 433.361,-181.198 426.478,-179.927"/>
</g>
<!-- Node9 -->
<g id="node9" class="node"><title>Node9</title>
<g id="a_node9"><a xlink:href="_storm_2_component_2_equipment_2_stage_2_basic_8h.html" target="_top" xlink:title=" ">
<polygon fill="white" stroke="black" points="528,-123.5 528,-153.5 673,-153.5 673,-123.5 528,-123.5"/>
<text text-anchor="start" x="536" y="-141.5" font-family="Helvetica,sans-Serif" font-size="10.00">Storm/Component/Equipment</text>
<text text-anchor="middle" x="600.5" y="-130.5" font-family="Helvetica,sans-Serif" font-size="10.00">/Stage/Basic.h</text>
</a>
</g>
</g>
<!-- Node8&#45;&gt;Node9 -->
<g id="edge12" class="edge"><title>Node8&#45;&gt;Node9</title>
<path fill="none" stroke="midnightblue" d="M473.104,-186.819C501.233,-176.371 536.361,-163.323 562.602,-153.577"/>
<polygon fill="midnightblue" stroke="midnightblue" points="471.628,-183.633 463.472,-190.396 474.065,-190.195 471.628,-183.633"/>
</g>
<!-- Node10 -->
<g id="node10" class="node"><title>Node10</title>
<g id="a_node10"><a xlink:href="_basic_cooling_8h.html" target="_top" xlink:title=" ">
<polygon fill="white" stroke="black" points="608,-56.5 608,-86.5 753,-86.5 753,-56.5 608,-56.5"/>
<text text-anchor="start" x="616" y="-74.5" font-family="Helvetica,sans-Serif" font-size="10.00">Storm/Component/Equipment</text>
<text text-anchor="middle" x="680.5" y="-63.5" font-family="Helvetica,sans-Serif" font-size="10.00">/Stage/BasicCooling.h</text>
</a>
</g>
</g>
<!-- Node9&#45;&gt;Node10 -->
<g id="edge13" class="edge"><title>Node9&#45;&gt;Node10</title>
<path fill="none" stroke="midnightblue" d="M625.875,-116.883C638.032,-107.005 652.279,-95.4293 663.175,-86.5765"/>
<polygon fill="midnightblue" stroke="midnightblue" points="623.413,-114.374 617.859,-123.396 627.827,-119.806 623.413,-114.374"/>
</g>
<!-- Node11 -->
<g id="node11" class="node"><title>Node11</title>
<g id="a_node11"><a xlink:href="_basic_indoor_heat_8h.html" target="_top" xlink:title=" ">
<polygon fill="white" stroke="black" points="445,-56.5 445,-86.5 590,-86.5 590,-56.5 445,-56.5"/>
<text text-anchor="start" x="453" y="-74.5" font-family="Helvetica,sans-Serif" font-size="10.00">Storm/Component/Equipment</text>
<text text-anchor="middle" x="517.5" y="-63.5" font-family="Helvetica,sans-Serif" font-size="10.00">/Stage/BasicIndoorHeat.h</text>
</a>
</g>
</g>
<!-- Node9&#45;&gt;Node11 -->
<g id="edge15" class="edge"><title>Node9&#45;&gt;Node11</title>
<path fill="none" stroke="midnightblue" d="M574.537,-117.168C561.845,-107.228 546.888,-95.5144 535.475,-86.5765"/>
<polygon fill="midnightblue" stroke="midnightblue" points="572.459,-119.986 582.49,-123.396 576.775,-114.475 572.459,-119.986"/>
</g>
<!-- Node10&#45;&gt;Node5 -->
<g id="edge14" class="edge"><title>Node10&#45;&gt;Node5</title>
<path fill="none" stroke="midnightblue" d="M680.5,-46.2892C680.5,-36.857 680.5,-26.6548 680.5,-19.6578"/>
<polygon fill="midnightblue" stroke="midnightblue" points="677,-46.3993 680.5,-56.3993 684,-46.3994 677,-46.3993"/>
</g>
<!-- Node11&#45;&gt;Node5 -->
<g id="edge16" class="edge"><title>Node11&#45;&gt;Node5</title>
<path fill="none" stroke="midnightblue" d="M565.596,-52.9436C595.627,-41.9812 632.976,-28.3476 656.782,-19.6578"/>
<polygon fill="midnightblue" stroke="midnightblue" points="564.322,-49.6825 556.129,-56.3993 566.723,-56.2581 564.322,-49.6825"/>
</g>
<!-- Node12&#45;&gt;Node5 -->
<g id="edge19" class="edge"><title>Node12&#45;&gt;Node5</title>
<path fill="none" stroke="midnightblue" d="M847.294,-59.1759C807.266,-47.6144 746.036,-29.929 709.96,-19.5091"/>
<polygon fill="midnightblue" stroke="midnightblue" points="846.407,-62.5627 856.985,-61.9751 848.349,-55.8376 846.407,-62.5627"/>
</g>
<!-- Node13&#45;&gt;Node5 -->
<g id="edge21" class="edge"><title>Node13&#45;&gt;Node5</title>
<path fill="none" stroke="midnightblue" d="M989.921,-113.247C990.312,-94.9533 987.527,-70.5955 972.5,-56 942.329,-26.6949 830.978,-16.4689 754.841,-12.9038"/>
<polygon fill="midnightblue" stroke="midnightblue" points="986.414,-113.28 989.369,-123.454 993.404,-113.657 986.414,-113.28"/>
</g>
<!-- Node14&#45;&gt;Node5 -->
<g id="edge23" class="edge"><title>Node14&#45;&gt;Node5</title>
<path fill="none" stroke="midnightblue" d="M1039.79,-248.771C1060.1,-219.116 1088.72,-165.947 1069.5,-123 1051.24,-82.2029 1035.02,-74.8654 994.5,-56 953.125,-36.7366 833.696,-23.5535 754.633,-16.6526"/>
<polygon fill="midnightblue" stroke="midnightblue" points="1036.76,-247.003 1033.82,-257.182 1042.46,-251.056 1036.76,-247.003"/>
</g>
<!-- Node15&#45;&gt;Node5 -->
<g id="edge25" class="edge"><title>Node15&#45;&gt;Node5</title>
<path fill="none" stroke="midnightblue" d="M1160.26,-253.822C1137.77,-206.411 1074.35,-78.5005 1034.5,-56 988.105,-29.8048 844.252,-18.4957 754.844,-13.8944"/>
<polygon fill="midnightblue" stroke="midnightblue" points="1157.1,-255.326 1164.53,-262.884 1163.44,-252.346 1157.1,-255.326"/>
</g>
<!-- Node16&#45;&gt;Node5 -->
<g id="edge29" class="edge"><title>Node16&#45;&gt;Node5</title>
<path fill="none" stroke="midnightblue" d="M775.957,-118.798C776.382,-101.073 774.445,-74.4848 761.5,-56 748.95,-38.0793 726.874,-26.4992 708.935,-19.5804"/>
<polygon fill="midnightblue" stroke="midnightblue" points="772.451,-118.823 775.428,-128.991 779.441,-119.186 772.451,-118.823"/>
</g>
<!-- Node16&#45;&gt;Node10 -->
<g id="edge27" class="edge"><title>Node16&#45;&gt;Node10</title>
<path fill="none" stroke="midnightblue" d="M753.313,-122.849C737.623,-112 716.369,-97.3028 700.875,-86.589"/>
<polygon fill="midnightblue" stroke="midnightblue" points="751.607,-125.925 761.823,-128.734 755.588,-120.167 751.607,-125.925"/>
</g>
<!-- Node16&#45;&gt;Node11 -->
<g id="edge28" class="edge"><title>Node16&#45;&gt;Node11</title>
<path fill="none" stroke="midnightblue" d="M730.92,-126.478C687.415,-115.475 620.397,-98.5246 573.088,-86.5592"/>
<polygon fill="midnightblue" stroke="midnightblue" points="730.085,-129.877 740.637,-128.936 731.801,-123.09 730.085,-129.877"/>
</g>
<!-- Node18 -->
<g id="node18" class="node"><title>Node18</title>
<g id="a_node18"><a xlink:href="_installer_record_8h_source.html" target="_top" xlink:title=" ">
<polygon fill="white" stroke="black" points="1451,-190.5 1451,-220.5 1570,-220.5 1570,-190.5 1451,-190.5"/>
<text text-anchor="start" x="1459" y="-208.5" font-family="Helvetica,sans-Serif" font-size="10.00">Storm/Thermostat/Main</text>
<text text-anchor="middle" x="1510.5" y="-197.5" font-family="Helvetica,sans-Serif" font-size="10.00">/InstallerRecord.h</text>
</a>
</g>
</g>
<!-- Node17&#45;&gt;Node18 -->
<g id="edge31" class="edge"><title>Node17&#45;&gt;Node18</title>
<path fill="none" stroke="midnightblue" d="M1391.49,-258.767C1416.54,-247.766 1452.69,-231.892 1478.56,-220.528"/>
<polygon fill="midnightblue" stroke="midnightblue" points="1389.9,-255.643 1382.15,-262.869 1392.72,-262.052 1389.9,-255.643"/>
</g>
<!-- Node19 -->
<g id="node19" class="node"><title>Node19</title>
<g id="a_node19"><a xlink:href="_run_time_record_8h_source.html" target="_top" xlink:title=" ">
<polygon fill="white" stroke="black" points="1588,-190.5 1588,-220.5 1707,-220.5 1707,-190.5 1588,-190.5"/>
<text text-anchor="start" x="1596" y="-208.5" font-family="Helvetica,sans-Serif" font-size="10.00">Storm/Thermostat/Main</text>
<text text-anchor="middle" x="1647.5" y="-197.5" font-family="Helvetica,sans-Serif" font-size="10.00">/RunTimeRecord.h</text>
</a>
</g>
</g>
<!-- Node17&#45;&gt;Node19 -->
<g id="edge32" class="edge"><title>Node17&#45;&gt;Node19</title>
<path fill="none" stroke="midnightblue" d="M1410.03,-260.659C1458.83,-249.53 1534.9,-232.181 1587.74,-220.129"/>
<polygon fill="midnightblue" stroke="midnightblue" points="1409.02,-257.299 1400.05,-262.936 1410.58,-264.124 1409.02,-257.299"/>
</g>
<!-- Node20 -->
<g id="node20" class="node"><title>Node20</title>
<g id="a_node20"><a xlink:href="_user_record_8h_source.html" target="_top" xlink:title=" ">
<polygon fill="white" stroke="black" points="1155,-190.5 1155,-220.5 1274,-220.5 1274,-190.5 1155,-190.5"/>
<text text-anchor="start" x="1163" y="-208.5" font-family="Helvetica,sans-Serif" font-size="10.00">Storm/Thermostat/Main</text>
<text text-anchor="middle" x="1214.5" y="-197.5" font-family="Helvetica,sans-Serif" font-size="10.00">/UserRecord.h</text>
</a>
</g>
</g>
<!-- Node17&#45;&gt;Node20 -->
<g id="edge33" class="edge"><title>Node17&#45;&gt;Node20</title>
<path fill="none" stroke="midnightblue" d="M1333.51,-258.767C1308.46,-247.766 1272.31,-231.892 1246.44,-220.528"/>
<polygon fill="midnightblue" stroke="midnightblue" points="1332.28,-262.052 1342.85,-262.869 1335.1,-255.643 1332.28,-262.052"/>
</g>
<!-- Node21 -->
<g id="node21" class="node"><title>Node21</title>
<g id="a_node21"><a xlink:href="_event_monitor_8h_source.html" target="_top" xlink:title=" ">
<polygon fill="white" stroke="black" points="1292.5,-190.5 1292.5,-220.5 1432.5,-220.5 1432.5,-190.5 1292.5,-190.5"/>
<text text-anchor="start" x="1300.5" y="-208.5" font-family="Helvetica,sans-Serif" font-size="10.00">Storm/Thermostat/Ui</text>
<text text-anchor="middle" x="1362.5" y="-197.5" font-family="Helvetica,sans-Serif" font-size="10.00">/PicoDisplay/EventMonitor.h</text>
</a>
</g>
</g>
<!-- Node17&#45;&gt;Node21 -->
<g id="edge34" class="edge"><title>Node17&#45;&gt;Node21</title>
<path fill="none" stroke="midnightblue" d="M1362.5,-252.411C1362.5,-242.222 1362.5,-229.901 1362.5,-220.589"/>
<polygon fill="midnightblue" stroke="midnightblue" points="1359,-252.734 1362.5,-262.734 1366,-252.734 1359,-252.734"/>
</g>
</g>
</svg>
