<?xml version="1.0" encoding="UTF-8" standalone="no"?>
<!DOCTYPE svg PUBLIC "-//W3C//DTD SVG 1.1//EN"
 "http://www.w3.org/Graphics/SVG/1.1/DTD/svg11.dtd">
<!-- Generated by graphviz version 2.38.0 (20140413.2041)
 -->
<!-- Title: Cpl/System/Trace.h Pages: 1 -->
<svg width="548pt" height="151pt"
 viewBox="0.00 0.00 547.50 151.00" xmlns="http://www.w3.org/2000/svg" xmlns:xlink="http://www.w3.org/1999/xlink">
<g id="graph0" class="graph" transform="scale(1 1) rotate(0) translate(4 147)">
<title>Cpl/System/Trace.h</title>
<polygon fill="white" stroke="none" points="-4,4 -4,-147 543.5,-147 543.5,4 -4,4"/>
<!-- Node1 -->
<g id="node1" class="node"><title>Node1</title>
<g id="a_node1"><a xlink:title=" ">
<polygon fill="#bfbfbf" stroke="black" points="182.5,-123.5 182.5,-142.5 286.5,-142.5 286.5,-123.5 182.5,-123.5"/>
<text text-anchor="middle" x="234.5" y="-130.5" font-family="Helvetica,sans-Serif" font-size="10.00">Cpl/System/Trace.h</text>
</a>
</g>
</g>
<!-- Node2 -->
<g id="node2" class="node"><title>Node2</title>
<g id="a_node2"><a xlink:href="helpers_8h.html" target="_top" xlink:title="This file defines helper functions/interface for writing unit tests.">
<polygon fill="white" stroke="black" points="0,-62 0,-81 85,-81 85,-62 0,-62"/>
<text text-anchor="middle" x="42.5" y="-69" font-family="Helvetica,sans-Serif" font-size="10.00">Catch/helpers.h</text>
</a>
</g>
</g>
<!-- Node1&#45;&gt;Node2 -->
<g id="edge1" class="edge"><title>Node1&#45;&gt;Node2</title>
<path fill="none" stroke="midnightblue" d="M197.005,-120.381C159.685,-108.815 103.297,-91.3407 69.9579,-81.0091"/>
<polygon fill="midnightblue" stroke="midnightblue" points="196.403,-123.858 206.991,-123.475 198.475,-117.172 196.403,-123.858"/>
</g>
<!-- Node3 -->
<g id="node3" class="node"><title>Node3</title>
<g id="a_node3"><a xlink:href="_cpl_2_system_2_private___8h.html" target="_top" xlink:title="This file contains a collection of classes, interfaces, etc.">
<polygon fill="white" stroke="black" points="103,-62 103,-81 218,-81 218,-62 103,-62"/>
<text text-anchor="middle" x="160.5" y="-69" font-family="Helvetica,sans-Serif" font-size="10.00">Cpl/System/Private_.h</text>
</a>
</g>
</g>
<!-- Node1&#45;&gt;Node3 -->
<g id="edge2" class="edge"><title>Node1&#45;&gt;Node3</title>
<path fill="none" stroke="midnightblue" d="M215.811,-116.973C201.657,-105.593 182.724,-90.3694 171.083,-81.0091"/>
<polygon fill="midnightblue" stroke="midnightblue" points="213.911,-119.937 223.898,-123.475 218.298,-114.481 213.911,-119.937"/>
</g>
<!-- Node6 -->
<g id="node6" class="node"><title>Node6</title>
<g id="a_node6"><a xlink:href="_fsm__trace___8h.html" target="_top" xlink:title=" ">
<polygon fill="white" stroke="black" points="236,-56.5 236,-86.5 381,-86.5 381,-56.5 236,-56.5"/>
<text text-anchor="start" x="244" y="-74.5" font-family="Helvetica,sans-Serif" font-size="10.00">Storm/Component/Equipment</text>
<text text-anchor="middle" x="308.5" y="-63.5" font-family="Helvetica,sans-Serif" font-size="10.00">/Stage/Fsm_trace_.h</text>
</a>
</g>
</g>
<!-- Node1&#45;&gt;Node6 -->
<g id="edge5" class="edge"><title>Node1&#45;&gt;Node6</title>
<path fill="none" stroke="midnightblue" d="M252.912,-117.195C264.581,-107.813 279.583,-95.7512 291.06,-86.523"/>
<polygon fill="midnightblue" stroke="midnightblue" points="250.702,-114.481 245.102,-123.475 255.089,-119.937 250.702,-114.481"/>
</g>
<!-- Node7 -->
<g id="node7" class="node"><title>Node7</title>
<g id="a_node7"><a xlink:href="_event_monitor_8h_source.html" target="_top" xlink:title=" ">
<polygon fill="white" stroke="black" points="399.5,-56.5 399.5,-86.5 539.5,-86.5 539.5,-56.5 399.5,-56.5"/>
<text text-anchor="start" x="407.5" y="-74.5" font-family="Helvetica,sans-Serif" font-size="10.00">Storm/Thermostat/Ui</text>
<text text-anchor="middle" x="469.5" y="-63.5" font-family="Helvetica,sans-Serif" font-size="10.00">/PicoDisplay/EventMonitor.h</text>
</a>
</g>
</g>
<!-- Node1&#45;&gt;Node7 -->
<g id="edge6" class="edge"><title>Node1&#45;&gt;Node7</title>
<path fill="none" stroke="midnightblue" d="M278.011,-120.983C316.394,-111.265 372.537,-97.0503 414.115,-86.523"/>
<polygon fill="midnightblue" stroke="midnightblue" points="277.005,-117.628 268.17,-123.475 278.723,-124.413 277.005,-117.628"/>
</g>
<!-- Node4 -->
<g id="node4" class="node"><title>Node4</title>
<g id="a_node4"><a xlink:href="_cpl_2_t_shell_2_maker_8h.html" target="_top" xlink:title=" ">
<polygon fill="white" stroke="black" points="44.5,-0.5 44.5,-19.5 144.5,-19.5 144.5,-0.5 44.5,-0.5"/>
<text text-anchor="middle" x="94.5" y="-7.5" font-family="Helvetica,sans-Serif" font-size="10.00">Cpl/TShell/Maker.h</text>
</a>
</g>
</g>
<!-- Node3&#45;&gt;Node4 -->
<g id="edge3" class="edge"><title>Node3&#45;&gt;Node4</title>
<path fill="none" stroke="midnightblue" d="M143.473,-55.1496C130.89,-43.8058 114.224,-28.7811 103.939,-19.5091"/>
<polygon fill="midnightblue" stroke="midnightblue" points="141.273,-57.8788 151.044,-61.9751 145.96,-52.6796 141.273,-57.8788"/>
</g>
<!-- Node5 -->
<g id="node5" class="node"><title>Node5</title>
<g id="a_node5"><a xlink:href="_polled_maker_8h.html" target="_top" xlink:title=" ">
<polygon fill="white" stroke="black" points="163,-0.5 163,-19.5 290,-19.5 290,-0.5 163,-0.5"/>
<text text-anchor="middle" x="226.5" y="-7.5" font-family="Helvetica,sans-Serif" font-size="10.00">Cpl/TShell/PolledMaker.h</text>
</a>
</g>
</g>
<!-- Node3&#45;&gt;Node5 -->
<g id="edge4" class="edge"><title>Node3&#45;&gt;Node5</title>
<path fill="none" stroke="midnightblue" d="M177.527,-55.1496C190.11,-43.8058 206.776,-28.7811 217.061,-19.5091"/>
<polygon fill="midnightblue" stroke="midnightblue" points="175.04,-52.6796 169.956,-61.9751 179.727,-57.8788 175.04,-52.6796"/>
</g>
</g>
</svg>
