<?xml version="1.0" encoding="UTF-8" standalone="no"?>
<!DOCTYPE svg PUBLIC "-//W3C//DTD SVG 1.1//EN"
 "http://www.w3.org/Graphics/SVG/1.1/DTD/svg11.dtd">
<!-- Generated by graphviz version 2.38.0 (20140413.2041)
 -->
<!-- Title: Cpl/System/Private_.h Pages: 1 -->
<svg width="1118pt" height="364pt"
 viewBox="0.00 0.00 1118.00 364.00" xmlns="http://www.w3.org/2000/svg" xmlns:xlink="http://www.w3.org/1999/xlink">
<g id="graph0" class="graph" transform="scale(1 1) rotate(0) translate(4 360)">
<title>Cpl/System/Private_.h</title>
<polygon fill="white" stroke="none" points="-4,4 -4,-360 1114,-360 1114,4 -4,4"/>
<!-- Node1 -->
<g id="node1" class="node"><title>Node1</title>
<g id="a_node1"><a xlink:title="This file contains a collection of classes, interfaces, etc.">
<polygon fill="#bfbfbf" stroke="black" points="145.5,-336.5 145.5,-355.5 260.5,-355.5 260.5,-336.5 145.5,-336.5"/>
<text text-anchor="middle" x="203" y="-343.5" font-family="Helvetica,sans-Serif" font-size="10.00">Cpl/System/Private_.h</text>
</a>
</g>
</g>
<!-- Node2 -->
<g id="node2" class="node"><title>Node2</title>
<g id="a_node2"><a xlink:href="_string_8h.html" target="_top" xlink:title=" ">
<polygon fill="white" stroke="black" points="84,-168.5 84,-187.5 174,-187.5 174,-168.5 84,-168.5"/>
<text text-anchor="middle" x="129" y="-175.5" font-family="Helvetica,sans-Serif" font-size="10.00">Cpl/Text/String.h</text>
</a>
</g>
</g>
<!-- Node1&#45;&gt;Node2 -->
<g id="edge1" class="edge"><title>Node1&#45;&gt;Node2</title>
<path fill="none" stroke="midnightblue" d="M199.021,-336.075C187.323,-309.832 152.87,-232.545 137.076,-197.117"/>
<polygon fill="midnightblue" stroke="midnightblue" points="140.088,-195.277 132.82,-187.568 133.694,-198.127 140.088,-195.277"/>
</g>
<!-- Node11 -->
<g id="node11" class="node"><title>Node11</title>
<g id="a_node11"><a xlink:href="_mutex_8h.html" target="_top" xlink:title=" ">
<polygon fill="white" stroke="black" points="0,-280.5 0,-299.5 106,-299.5 106,-280.5 0,-280.5"/>
<text text-anchor="middle" x="53" y="-287.5" font-family="Helvetica,sans-Serif" font-size="10.00">Cpl/System/Mutex.h</text>
</a>
</g>
</g>
<!-- Node1&#45;&gt;Node11 -->
<g id="edge12" class="edge"><title>Node1&#45;&gt;Node11</title>
<path fill="none" stroke="midnightblue" d="M179.232,-336.444C154.107,-327.399 114.289,-313.064 86.0996,-302.916"/>
<polygon fill="midnightblue" stroke="midnightblue" points="87.2512,-299.611 76.6567,-299.516 84.8801,-306.197 87.2512,-299.611"/>
</g>
<!-- Node12 -->
<g id="node12" class="node"><title>Node12</title>
<g id="a_node12"><a xlink:href="_system_2_trace_8h.html" target="_top" xlink:title=" ">
<polygon fill="white" stroke="black" points="217,-280.5 217,-299.5 321,-299.5 321,-280.5 217,-280.5"/>
<text text-anchor="middle" x="269" y="-287.5" font-family="Helvetica,sans-Serif" font-size="10.00">Cpl/System/Trace.h</text>
</a>
</g>
</g>
<!-- Node1&#45;&gt;Node12 -->
<g id="edge14" class="edge"><title>Node1&#45;&gt;Node12</title>
<path fill="none" stroke="midnightblue" d="M213.604,-336.324C223.456,-328.263 238.351,-316.077 250.215,-306.369"/>
<polygon fill="midnightblue" stroke="midnightblue" points="252.68,-308.875 258.203,-299.834 248.247,-303.457 252.68,-308.875"/>
</g>
<!-- Node22 -->
<g id="node22" class="node"><title>Node22</title>
<g id="a_node22"><a xlink:href="_private_startup___8h.html" target="_top" xlink:title="This file contains a collection of classes, interfaces, etc.">
<polygon fill="white" stroke="black" points="964,-224.5 964,-243.5 1110,-243.5 1110,-224.5 964,-224.5"/>
<text text-anchor="middle" x="1037" y="-231.5" font-family="Helvetica,sans-Serif" font-size="10.00">Cpl/System/PrivateStartup_.h</text>
</a>
</g>
</g>
<!-- Node1&#45;&gt;Node22 -->
<g id="edge30" class="edge"><title>Node1&#45;&gt;Node22</title>
<path fill="none" stroke="midnightblue" d="M260.653,-337.396C408.002,-317.961 798.304,-266.483 962.525,-244.823"/>
<polygon fill="midnightblue" stroke="midnightblue" points="963.081,-248.28 972.538,-243.502 962.166,-241.34 963.081,-248.28"/>
</g>
<!-- Node3 -->
<g id="node3" class="node"><title>Node3</title>
<g id="a_node3"><a xlink:title=" ">
<polygon fill="white" stroke="#bfbfbf" points="242.5,-56.5 242.5,-75.5 319.5,-75.5 319.5,-56.5 242.5,-56.5"/>
<text text-anchor="middle" x="281" y="-63.5" font-family="Helvetica,sans-Serif" font-size="10.00">colony_map.h</text>
</a>
</g>
</g>
<!-- Node2&#45;&gt;Node3 -->
<g id="edge2" class="edge"><title>Node2&#45;&gt;Node3</title>
<path fill="none" stroke="midnightblue" d="M166.363,-168.457C200.831,-159.871 248.629,-145.943 262,-132 273.815,-119.68 278.34,-100.427 280.043,-86.0681"/>
<polygon fill="midnightblue" stroke="midnightblue" points="283.554,-86.0819 280.89,-75.8275 276.578,-85.505 283.554,-86.0819"/>
</g>
<!-- Node4 -->
<g id="node4" class="node"><title>Node4</title>
<g id="a_node4"><a xlink:href="_key_8h.html" target="_top" xlink:title=" ">
<polygon fill="white" stroke="black" points="77,-112.5 77,-131.5 181,-131.5 181,-112.5 77,-112.5"/>
<text text-anchor="middle" x="129" y="-119.5" font-family="Helvetica,sans-Serif" font-size="10.00">Cpl/Container/Key.h</text>
</a>
</g>
</g>
<!-- Node2&#45;&gt;Node4 -->
<g id="edge3" class="edge"><title>Node2&#45;&gt;Node4</title>
<path fill="none" stroke="midnightblue" d="M123.834,-168.083C122.324,-160.927 121.894,-150.635 122.542,-141.691"/>
<polygon fill="midnightblue" stroke="midnightblue" points="126.015,-142.126 123.869,-131.751 119.077,-141.2 126.015,-142.126"/>
</g>
<!-- Node9 -->
<g id="node9" class="node"><title>Node9</title>
<g id="a_node9"><a xlink:title=" ">
<polygon fill="white" stroke="#bfbfbf" points="309,-112.5 309,-131.5 361,-131.5 361,-112.5 309,-112.5"/>
<text text-anchor="middle" x="335" y="-119.5" font-family="Helvetica,sans-Serif" font-size="10.00">stdarg.h</text>
</a>
</g>
</g>
<!-- Node2&#45;&gt;Node9 -->
<g id="edge10" class="edge"><title>Node2&#45;&gt;Node9</title>
<path fill="none" stroke="midnightblue" d="M161.641,-168.444C199.029,-158.643 260.108,-142.632 298.891,-132.465"/>
<polygon fill="midnightblue" stroke="midnightblue" points="299.936,-135.81 308.721,-129.889 298.16,-129.039 299.936,-135.81"/>
</g>
<!-- Node10 -->
<g id="node10" class="node"><title>Node10</title>
<g id="a_node10"><a xlink:title=" ">
<polygon fill="white" stroke="#bfbfbf" points="199,-112.5 199,-131.5 253,-131.5 253,-112.5 199,-112.5"/>
<text text-anchor="middle" x="226" y="-119.5" font-family="Helvetica,sans-Serif" font-size="10.00">iostream</text>
</a>
</g>
</g>
<!-- Node2&#45;&gt;Node10 -->
<g id="edge11" class="edge"><title>Node2&#45;&gt;Node10</title>
<path fill="none" stroke="midnightblue" d="M144.585,-168.324C159.999,-159.743 183.812,-146.486 201.71,-136.522"/>
<polygon fill="midnightblue" stroke="midnightblue" points="203.419,-139.577 210.454,-131.655 200.014,-133.461 203.419,-139.577"/>
</g>
<!-- Node4&#45;&gt;Node2 -->
<g id="edge8" class="edge"><title>Node4&#45;&gt;Node2</title>
<path fill="none" stroke="midnightblue" d="M134.131,-131.751C135.657,-138.858 136.104,-149.136 135.472,-158.101"/>
<polygon fill="midnightblue" stroke="midnightblue" points="131.993,-157.713 134.166,-168.083 138.934,-158.622 131.993,-157.713"/>
</g>
<!-- Node4&#45;&gt;Node3 -->
<g id="edge9" class="edge"><title>Node4&#45;&gt;Node3</title>
<path fill="none" stroke="midnightblue" d="M153.085,-112.444C178.545,-103.399 218.894,-89.064 247.459,-78.9158"/>
<polygon fill="midnightblue" stroke="midnightblue" points="248.777,-82.1622 257.028,-75.5164 246.433,-75.5661 248.777,-82.1622"/>
</g>
<!-- Node5 -->
<g id="node5" class="node"><title>Node5</title>
<g id="a_node5"><a xlink:href="_fatal_error_8h.html" target="_top" xlink:title=" ">
<polygon fill="white" stroke="black" points="35,-56.5 35,-75.5 157,-75.5 157,-56.5 35,-56.5"/>
<text text-anchor="middle" x="96" y="-63.5" font-family="Helvetica,sans-Serif" font-size="10.00">Cpl/System/FatalError.h</text>
</a>
</g>
</g>
<!-- Node4&#45;&gt;Node5 -->
<g id="edge4" class="edge"><title>Node4&#45;&gt;Node5</title>
<path fill="none" stroke="midnightblue" d="M123.551,-112.083C118.986,-104.613 112.332,-93.7244 106.707,-84.5199"/>
<polygon fill="midnightblue" stroke="midnightblue" points="109.549,-82.4588 101.348,-75.7511 103.576,-86.109 109.549,-82.4588"/>
</g>
<!-- Node8 -->
<g id="node8" class="node"><title>Node8</title>
<g id="a_node8"><a xlink:title=" ">
<polygon fill="white" stroke="#bfbfbf" points="175.5,-56.5 175.5,-75.5 224.5,-75.5 224.5,-56.5 175.5,-56.5"/>
<text text-anchor="middle" x="200" y="-63.5" font-family="Helvetica,sans-Serif" font-size="10.00">stdint.h</text>
</a>
</g>
</g>
<!-- Node4&#45;&gt;Node8 -->
<g id="edge7" class="edge"><title>Node4&#45;&gt;Node8</title>
<path fill="none" stroke="midnightblue" d="M140.407,-112.324C151.109,-104.185 167.341,-91.8395 180.163,-82.0874"/>
<polygon fill="midnightblue" stroke="midnightblue" points="182.544,-84.6734 188.385,-75.8339 178.307,-79.1018 182.544,-84.6734"/>
</g>
<!-- Node6 -->
<g id="node6" class="node"><title>Node6</title>
<g id="a_node6"><a xlink:title=" ">
<polygon fill="white" stroke="#bfbfbf" points="70,-0.5 70,-19.5 122,-19.5 122,-0.5 70,-0.5"/>
<text text-anchor="middle" x="96" y="-7.5" font-family="Helvetica,sans-Serif" font-size="10.00">stddef.h</text>
</a>
</g>
</g>
<!-- Node5&#45;&gt;Node6 -->
<g id="edge5" class="edge"><title>Node5&#45;&gt;Node6</title>
<path fill="none" stroke="midnightblue" d="M96,-56.083C96,-49.0059 96,-38.8611 96,-29.9865"/>
<polygon fill="midnightblue" stroke="midnightblue" points="99.5001,-29.751 96,-19.7511 92.5001,-29.7511 99.5001,-29.751"/>
</g>
<!-- Node7 -->
<g id="node7" class="node"><title>Node7</title>
<g id="a_node7"><a xlink:title=" ">
<polygon fill="white" stroke="#bfbfbf" points="516.5,-0.5 516.5,-19.5 601.5,-19.5 601.5,-0.5 516.5,-0.5"/>
<text text-anchor="middle" x="559" y="-7.5" font-family="Helvetica,sans-Serif" font-size="10.00">colony_config.h</text>
</a>
</g>
</g>
<!-- Node5&#45;&gt;Node7 -->
<g id="edge6" class="edge"><title>Node5&#45;&gt;Node7</title>
<path fill="none" stroke="midnightblue" d="M157.077,-57.0966C160.094,-56.7221 163.081,-56.3548 166,-56 287.595,-41.2224 430.525,-25.1926 506.036,-16.8288"/>
<polygon fill="midnightblue" stroke="midnightblue" points="506.68,-20.279 516.234,-15.7005 505.91,-13.3215 506.68,-20.279"/>
</g>
<!-- Node11&#45;&gt;Node3 -->
<g id="edge13" class="edge"><title>Node11&#45;&gt;Node3</title>
<path fill="none" stroke="midnightblue" d="M50.5505,-280.265C43.1812,-251.915 24.3065,-161.461 68,-112 70.7481,-108.889 170.077,-88.8475 232.106,-76.5832"/>
<polygon fill="midnightblue" stroke="midnightblue" points="232.963,-79.9817 242.096,-74.6115 231.607,-73.1142 232.963,-79.9817"/>
</g>
<!-- Node12&#45;&gt;Node2 -->
<g id="edge16" class="edge"><title>Node12&#45;&gt;Node2</title>
<path fill="none" stroke="midnightblue" d="M258.014,-280.368C234.195,-261.653 177.556,-217.151 147.878,-193.832"/>
<polygon fill="midnightblue" stroke="midnightblue" points="149.96,-191.018 139.935,-187.591 145.635,-196.522 149.96,-191.018"/>
</g>
<!-- Node12&#45;&gt;Node7 -->
<g id="edge15" class="edge"><title>Node12&#45;&gt;Node7</title>
<path fill="none" stroke="midnightblue" d="M321.061,-285.899C478.038,-275.86 936,-241.239 936,-179 936,-179 936,-179 936,-121 936,-54.2593 715.514,-25.2658 611.775,-15.318"/>
<polygon fill="midnightblue" stroke="midnightblue" points="611.796,-11.8047 601.514,-14.3597 611.145,-18.7744 611.796,-11.8047"/>
</g>
<!-- Node13 -->
<g id="node13" class="node"><title>Node13</title>
<g id="a_node13"><a xlink:href="_thread_8h.html" target="_top" xlink:title=" ">
<polygon fill="white" stroke="black" points="509.5,-224.5 509.5,-243.5 618.5,-243.5 618.5,-224.5 509.5,-224.5"/>
<text text-anchor="middle" x="564" y="-231.5" font-family="Helvetica,sans-Serif" font-size="10.00">Cpl/System/Thread.h</text>
</a>
</g>
</g>
<!-- Node12&#45;&gt;Node13 -->
<g id="edge17" class="edge"><title>Node12&#45;&gt;Node13</title>
<path fill="none" stroke="midnightblue" d="M315.744,-280.444C367.745,-270.925 451.751,-255.547 507.424,-245.356"/>
<polygon fill="midnightblue" stroke="midnightblue" points="508.269,-248.76 517.475,-243.516 507.008,-241.874 508.269,-248.76"/>
</g>
<!-- Node19 -->
<g id="node19" class="node"><title>Node19</title>
<g id="a_node19"><a xlink:href="_output_8h.html" target="_top" xlink:title=" ">
<polygon fill="white" stroke="black" points="227.5,-224.5 227.5,-243.5 310.5,-243.5 310.5,-224.5 227.5,-224.5"/>
<text text-anchor="middle" x="269" y="-231.5" font-family="Helvetica,sans-Serif" font-size="10.00">Cpl/Io/Output.h</text>
</a>
</g>
</g>
<!-- Node12&#45;&gt;Node19 -->
<g id="edge24" class="edge"><title>Node12&#45;&gt;Node19</title>
<path fill="none" stroke="midnightblue" d="M269,-280.083C269,-273.006 269,-262.861 269,-253.986"/>
<polygon fill="midnightblue" stroke="midnightblue" points="272.5,-253.751 269,-243.751 265.5,-253.751 272.5,-253.751"/>
</g>
<!-- Node13&#45;&gt;Node3 -->
<g id="edge18" class="edge"><title>Node13&#45;&gt;Node3</title>
<path fill="none" stroke="midnightblue" d="M534.823,-224.35C511.608,-216.737 478.845,-204.322 453,-188 410.71,-161.293 411.146,-140.438 370,-112 351.493,-99.2085 328.844,-87.809 311.026,-79.6838"/>
<polygon fill="midnightblue" stroke="midnightblue" points="312.24,-76.393 301.681,-75.5186 309.39,-82.7866 312.24,-76.393"/>
</g>
<!-- Node14 -->
<g id="node14" class="node"><title>Node14</title>
<g id="a_node14"><a xlink:href="_runnable_8h.html" target="_top" xlink:title=" ">
<polygon fill="white" stroke="black" points="788.5,-168.5 788.5,-187.5 907.5,-187.5 907.5,-168.5 788.5,-168.5"/>
<text text-anchor="middle" x="848" y="-175.5" font-family="Helvetica,sans-Serif" font-size="10.00">Cpl/System/Runnable.h</text>
</a>
</g>
</g>
<!-- Node13&#45;&gt;Node14 -->
<g id="edge19" class="edge"><title>Node13&#45;&gt;Node14</title>
<path fill="none" stroke="midnightblue" d="M609.001,-224.444C658.959,-214.944 739.601,-199.611 793.199,-189.42"/>
<polygon fill="midnightblue" stroke="midnightblue" points="794.04,-192.823 803.21,-187.516 792.732,-185.946 794.04,-192.823"/>
</g>
<!-- Node15 -->
<g id="node15" class="node"><title>Node15</title>
<g id="a_node15"><a xlink:href="_signable_8h.html" target="_top" xlink:title=" ">
<polygon fill="white" stroke="black" points="654,-168.5 654,-187.5 770,-187.5 770,-168.5 654,-168.5"/>
<text text-anchor="middle" x="712" y="-175.5" font-family="Helvetica,sans-Serif" font-size="10.00">Cpl/System/Signable.h</text>
</a>
</g>
</g>
<!-- Node13&#45;&gt;Node15 -->
<g id="edge20" class="edge"><title>Node13&#45;&gt;Node15</title>
<path fill="none" stroke="midnightblue" d="M587.451,-224.444C612.133,-215.438 651.185,-201.189 678.977,-191.049"/>
<polygon fill="midnightblue" stroke="midnightblue" points="680.464,-194.232 688.659,-187.516 678.065,-187.656 680.464,-194.232"/>
</g>
<!-- Node17 -->
<g id="node17" class="node"><title>Node17</title>
<g id="a_node17"><a xlink:href="_traverser_8h.html" target="_top" xlink:title=" ">
<polygon fill="white" stroke="black" points="462,-168.5 462,-187.5 570,-187.5 570,-168.5 462,-168.5"/>
<text text-anchor="middle" x="516" y="-175.5" font-family="Helvetica,sans-Serif" font-size="10.00">Cpl/Type/Traverser.h</text>
</a>
</g>
</g>
<!-- Node13&#45;&gt;Node17 -->
<g id="edge22" class="edge"><title>Node13&#45;&gt;Node17</title>
<path fill="none" stroke="midnightblue" d="M556.074,-224.083C549.154,-216.298 538.935,-204.801 530.548,-195.367"/>
<polygon fill="midnightblue" stroke="midnightblue" points="533.038,-192.9 523.779,-187.751 527.806,-197.55 533.038,-192.9"/>
</g>
<!-- Node18 -->
<g id="node18" class="node"><title>Node18</title>
<g id="a_node18"><a xlink:title=" ">
<polygon fill="white" stroke="#bfbfbf" points="588,-168.5 588,-187.5 636,-187.5 636,-168.5 588,-168.5"/>
<text text-anchor="middle" x="612" y="-175.5" font-family="Helvetica,sans-Serif" font-size="10.00">stdlib.h</text>
</a>
</g>
</g>
<!-- Node13&#45;&gt;Node18 -->
<g id="edge23" class="edge"><title>Node13&#45;&gt;Node18</title>
<path fill="none" stroke="midnightblue" d="M571.926,-224.083C578.846,-216.298 589.065,-204.801 597.452,-195.367"/>
<polygon fill="midnightblue" stroke="midnightblue" points="600.194,-197.55 604.221,-187.751 594.962,-192.9 600.194,-197.55"/>
</g>
<!-- Node16 -->
<g id="node16" class="node"><title>Node16</title>
<g id="a_node16"><a xlink:href="_item_8h.html" target="_top" xlink:title=" ">
<polygon fill="white" stroke="black" points="659,-112.5 659,-131.5 765,-131.5 765,-112.5 659,-112.5"/>
<text text-anchor="middle" x="712" y="-119.5" font-family="Helvetica,sans-Serif" font-size="10.00">Cpl/Container/Item.h</text>
</a>
</g>
</g>
<!-- Node15&#45;&gt;Node16 -->
<g id="edge21" class="edge"><title>Node15&#45;&gt;Node16</title>
<path fill="none" stroke="midnightblue" d="M712,-168.083C712,-161.006 712,-150.861 712,-141.986"/>
<polygon fill="midnightblue" stroke="midnightblue" points="715.5,-141.751 712,-131.751 708.5,-141.751 715.5,-141.751"/>
</g>
<!-- Node19&#45;&gt;Node2 -->
<g id="edge25" class="edge"><title>Node19&#45;&gt;Node2</title>
<path fill="none" stroke="midnightblue" d="M246.817,-224.444C223.572,-215.478 186.851,-201.314 160.585,-191.183"/>
<polygon fill="midnightblue" stroke="midnightblue" points="161.669,-187.85 151.08,-187.516 159.15,-194.381 161.669,-187.85"/>
</g>
<!-- Node19&#45;&gt;Node9 -->
<g id="edge29" class="edge"><title>Node19&#45;&gt;Node9</title>
<path fill="none" stroke="midnightblue" d="M274.179,-224.368C285.023,-206.296 310.294,-164.176 324.616,-140.307"/>
<polygon fill="midnightblue" stroke="midnightblue" points="327.701,-141.967 329.845,-131.591 321.699,-138.366 327.701,-141.967"/>
</g>
<!-- Node20 -->
<g id="node20" class="node"><title>Node20</title>
<g id="a_node20"><a xlink:href="_close_8h.html" target="_top" xlink:title=" ">
<polygon fill="white" stroke="black" points="328,-168.5 328,-187.5 406,-187.5 406,-168.5 328,-168.5"/>
<text text-anchor="middle" x="367" y="-175.5" font-family="Helvetica,sans-Serif" font-size="10.00">Cpl/Io/Close.h</text>
</a>
</g>
</g>
<!-- Node19&#45;&gt;Node20 -->
<g id="edge26" class="edge"><title>Node19&#45;&gt;Node20</title>
<path fill="none" stroke="midnightblue" d="M284.745,-224.324C300.319,-215.743 324.377,-202.486 342.459,-192.522"/>
<polygon fill="midnightblue" stroke="midnightblue" points="344.224,-195.546 351.294,-187.655 340.846,-189.415 344.224,-195.546"/>
</g>
<!-- Node21 -->
<g id="node21" class="node"><title>Node21</title>
<g id="a_node21"><a xlink:href="_is_eos_8h.html" target="_top" xlink:title=" ">
<polygon fill="white" stroke="black" points="192.5,-168.5 192.5,-187.5 271.5,-187.5 271.5,-168.5 192.5,-168.5"/>
<text text-anchor="middle" x="232" y="-175.5" font-family="Helvetica,sans-Serif" font-size="10.00">Cpl/Io/IsEos.h</text>
</a>
</g>
</g>
<!-- Node19&#45;&gt;Node21 -->
<g id="edge28" class="edge"><title>Node19&#45;&gt;Node21</title>
<path fill="none" stroke="midnightblue" d="M262.89,-224.083C257.718,-216.534 250.154,-205.495 243.806,-196.23"/>
<polygon fill="midnightblue" stroke="midnightblue" points="246.536,-194.022 237.996,-187.751 240.761,-197.979 246.536,-194.022"/>
</g>
<!-- Node20&#45;&gt;Node16 -->
<g id="edge27" class="edge"><title>Node20&#45;&gt;Node16</title>
<path fill="none" stroke="midnightblue" d="M406.24,-170.858C465.408,-161.597 578.06,-143.965 648.867,-132.882"/>
<polygon fill="midnightblue" stroke="midnightblue" points="649.661,-136.3 659,-131.296 648.579,-129.384 649.661,-136.3"/>
</g>
<!-- Node22&#45;&gt;Node16 -->
<g id="edge31" class="edge"><title>Node22&#45;&gt;Node16</title>
<path fill="none" stroke="midnightblue" d="M1023.91,-224.302C1002.45,-210.425 958.08,-183.287 917,-168 870.939,-150.859 816.508,-139.289 775.313,-132.177"/>
<polygon fill="midnightblue" stroke="midnightblue" points="775.847,-128.718 765.405,-130.508 774.685,-135.621 775.847,-128.718"/>
</g>
</g>
</svg>
