<?xml version="1.0" encoding="UTF-8" standalone="no"?>
<!DOCTYPE svg PUBLIC "-//W3C//DTD SVG 1.1//EN"
 "http://www.w3.org/Graphics/SVG/1.1/DTD/svg11.dtd">
<!-- Generated by graphviz version 2.38.0 (20140413.2041)
 -->
<!-- Title: Driver/LED/TPipe/RedGreenBlue.h Pages: 1 -->
<svg width="668pt" height="431pt"
 viewBox="0.00 0.00 667.50 431.00" xmlns="http://www.w3.org/2000/svg" xmlns:xlink="http://www.w3.org/1999/xlink">
<g id="graph0" class="graph" transform="scale(1 1) rotate(0) translate(4 427)">
<title>Driver/LED/TPipe/RedGreenBlue.h</title>
<polygon fill="white" stroke="none" points="-4,4 -4,-427 663.5,-427 663.5,4 -4,4"/>
<!-- Node1 -->
<g id="node1" class="node"><title>Node1</title>
<g id="a_node1"><a xlink:title=" ">
<polygon fill="#bfbfbf" stroke="black" points="208.5,-392.5 208.5,-422.5 347.5,-422.5 347.5,-392.5 208.5,-392.5"/>
<text text-anchor="start" x="216.5" y="-410.5" font-family="Helvetica,sans-Serif" font-size="10.00">Driver/LED/TPipe/RedGreen</text>
<text text-anchor="middle" x="278" y="-399.5" font-family="Helvetica,sans-Serif" font-size="10.00">Blue.h</text>
</a>
</g>
</g>
<!-- Node2 -->
<g id="node2" class="node"><title>Node2</title>
<g id="a_node2"><a xlink:href="_red_green_blue_8h.html" target="_top" xlink:title=" ">
<polygon fill="white" stroke="black" points="0,-168.5 0,-187.5 138,-187.5 138,-168.5 0,-168.5"/>
<text text-anchor="middle" x="69" y="-175.5" font-family="Helvetica,sans-Serif" font-size="10.00">Driver/LED/RedGreenBlue.h</text>
</a>
</g>
</g>
<!-- Node1&#45;&gt;Node2 -->
<g id="edge1" class="edge"><title>Node1&#45;&gt;Node2</title>
<path fill="none" stroke="midnightblue" d="M241.787,-392.479C203.546,-375.905 144.045,-344.796 109,-300 84.8826,-269.173 74.9959,-223.169 71.1889,-197.685"/>
<polygon fill="midnightblue" stroke="midnightblue" points="74.6285,-196.999 69.8383,-187.549 67.6898,-197.924 74.6285,-196.999"/>
</g>
<!-- Node4 -->
<g id="node4" class="node"><title>Node4</title>
<g id="a_node4"><a xlink:href="_tx_8h.html" target="_top" xlink:title=" ">
<polygon fill="white" stroke="black" points="566.5,-224.5 566.5,-243.5 659.5,-243.5 659.5,-224.5 566.5,-224.5"/>
<text text-anchor="middle" x="613" y="-231.5" font-family="Helvetica,sans-Serif" font-size="10.00">Driver/TPipe/Tx.h</text>
</a>
</g>
</g>
<!-- Node1&#45;&gt;Node4 -->
<g id="edge3" class="edge"><title>Node1&#45;&gt;Node4</title>
<path fill="none" stroke="midnightblue" d="M343.337,-392.479C375.527,-384.213 414.341,-372.164 447,-356 484.925,-337.23 489.803,-324.923 524,-300 547.57,-282.822 574.625,-263.056 592.659,-249.874"/>
<polygon fill="midnightblue" stroke="midnightblue" points="595.193,-252.356 601.2,-243.629 591.062,-246.705 595.193,-252.356"/>
</g>
<!-- Node13 -->
<g id="node13" class="node"><title>Node13</title>
<g id="a_node13"><a xlink:href="format_8h.html" target="_top" xlink:title="This file contains some general purpose string formatting functions.">
<polygon fill="white" stroke="black" points="232,-336.5 232,-355.5 324,-355.5 324,-336.5 232,-336.5"/>
<text text-anchor="middle" x="278" y="-343.5" font-family="Helvetica,sans-Serif" font-size="10.00">Cpl/Text/format.h</text>
</a>
</g>
</g>
<!-- Node1&#45;&gt;Node13 -->
<g id="edge15" class="edge"><title>Node1&#45;&gt;Node13</title>
<path fill="none" stroke="midnightblue" d="M278,-392.399C278,-384.466 278,-374.458 278,-365.858"/>
<polygon fill="midnightblue" stroke="midnightblue" points="281.5,-365.658 278,-355.658 274.5,-365.658 281.5,-365.658"/>
</g>
<!-- Node14 -->
<g id="node14" class="node"><title>Node14</title>
<g id="a_node14"><a xlink:href="_elapsed_time_8h.html" target="_top" xlink:title=" ">
<polygon fill="white" stroke="black" points="118,-280.5 118,-299.5 254,-299.5 254,-280.5 118,-280.5"/>
<text text-anchor="middle" x="186" y="-287.5" font-family="Helvetica,sans-Serif" font-size="10.00">Cpl/System/ElapsedTime.h</text>
</a>
</g>
</g>
<!-- Node1&#45;&gt;Node14 -->
<g id="edge27" class="edge"><title>Node1&#45;&gt;Node14</title>
<path fill="none" stroke="midnightblue" d="M260.062,-392.492C248.604,-382.982 233.905,-369.687 223,-356 211.265,-341.271 200.951,-322.369 194.214,-308.749"/>
<polygon fill="midnightblue" stroke="midnightblue" points="197.271,-307.029 189.796,-299.521 190.957,-310.052 197.271,-307.029"/>
</g>
<!-- Node17 -->
<g id="node17" class="node"><title>Node17</title>
<g id="a_node17"><a xlink:href="_f_string_8h.html" target="_top" xlink:title=" ">
<polygon fill="white" stroke="black" points="342,-336.5 342,-355.5 438,-355.5 438,-336.5 342,-336.5"/>
<text text-anchor="middle" x="390" y="-343.5" font-family="Helvetica,sans-Serif" font-size="10.00">Cpl/Text/FString.h</text>
</a>
</g>
</g>
<!-- Node1&#45;&gt;Node17 -->
<g id="edge21" class="edge"><title>Node1&#45;&gt;Node17</title>
<path fill="none" stroke="midnightblue" d="M304.542,-392.399C322.663,-382.773 346.536,-370.09 364.443,-360.577"/>
<polygon fill="midnightblue" stroke="midnightblue" points="366.514,-363.44 373.703,-355.658 363.23,-357.258 366.514,-363.44"/>
</g>
<!-- Node3 -->
<g id="node3" class="node"><title>Node3</title>
<g id="a_node3"><a xlink:title=" ">
<polygon fill="white" stroke="#bfbfbf" points="141.5,-56.5 141.5,-75.5 190.5,-75.5 190.5,-56.5 141.5,-56.5"/>
<text text-anchor="middle" x="166" y="-63.5" font-family="Helvetica,sans-Serif" font-size="10.00">stdint.h</text>
</a>
</g>
</g>
<!-- Node2&#45;&gt;Node3 -->
<g id="edge2" class="edge"><title>Node2&#45;&gt;Node3</title>
<path fill="none" stroke="midnightblue" d="M76.6114,-168.368C92.7609,-150.055 130.684,-107.049 151.571,-83.3624"/>
<polygon fill="midnightblue" stroke="midnightblue" points="154.435,-85.4067 158.424,-75.5914 149.185,-80.7769 154.435,-85.4067"/>
</g>
<!-- Node5 -->
<g id="node5" class="node"><title>Node5</title>
<g id="a_node5"><a xlink:href="_string_8h.html" target="_top" xlink:title=" ">
<polygon fill="white" stroke="black" points="344,-168.5 344,-187.5 434,-187.5 434,-168.5 344,-168.5"/>
<text text-anchor="middle" x="389" y="-175.5" font-family="Helvetica,sans-Serif" font-size="10.00">Cpl/Text/String.h</text>
</a>
</g>
</g>
<!-- Node4&#45;&gt;Node5 -->
<g id="edge4" class="edge"><title>Node4&#45;&gt;Node5</title>
<path fill="none" stroke="midnightblue" d="M577.507,-224.444C538.676,-215.083 476.344,-200.056 434.082,-189.868"/>
<polygon fill="midnightblue" stroke="midnightblue" points="434.869,-186.458 424.327,-187.516 433.229,-193.263 434.869,-186.458"/>
</g>
<!-- Node6 -->
<g id="node6" class="node"><title>Node6</title>
<g id="a_node6"><a xlink:title=" ">
<polygon fill="white" stroke="#bfbfbf" points="431.5,-56.5 431.5,-75.5 508.5,-75.5 508.5,-56.5 431.5,-56.5"/>
<text text-anchor="middle" x="470" y="-63.5" font-family="Helvetica,sans-Serif" font-size="10.00">colony_map.h</text>
</a>
</g>
</g>
<!-- Node5&#45;&gt;Node6 -->
<g id="edge5" class="edge"><title>Node5&#45;&gt;Node6</title>
<path fill="none" stroke="midnightblue" d="M406.117,-168.37C419.854,-160.615 438.657,-147.995 450,-132 459.711,-118.306 464.805,-99.772 467.414,-85.9988"/>
<polygon fill="midnightblue" stroke="midnightblue" points="470.929,-86.1902 469.069,-75.7599 464.018,-85.0735 470.929,-86.1902"/>
</g>
<!-- Node7 -->
<g id="node7" class="node"><title>Node7</title>
<g id="a_node7"><a xlink:href="_key_8h.html" target="_top" xlink:title=" ">
<polygon fill="white" stroke="black" points="337,-112.5 337,-131.5 441,-131.5 441,-112.5 337,-112.5"/>
<text text-anchor="middle" x="389" y="-119.5" font-family="Helvetica,sans-Serif" font-size="10.00">Cpl/Container/Key.h</text>
</a>
</g>
</g>
<!-- Node5&#45;&gt;Node7 -->
<g id="edge6" class="edge"><title>Node5&#45;&gt;Node7</title>
<path fill="none" stroke="midnightblue" d="M383.834,-168.083C382.324,-160.927 381.894,-150.635 382.542,-141.691"/>
<polygon fill="midnightblue" stroke="midnightblue" points="386.015,-142.126 383.869,-131.751 379.077,-141.2 386.015,-142.126"/>
</g>
<!-- Node11 -->
<g id="node11" class="node"><title>Node11</title>
<g id="a_node11"><a xlink:title=" ">
<polygon fill="white" stroke="#bfbfbf" points="195,-112.5 195,-131.5 247,-131.5 247,-112.5 195,-112.5"/>
<text text-anchor="middle" x="221" y="-119.5" font-family="Helvetica,sans-Serif" font-size="10.00">stdarg.h</text>
</a>
</g>
</g>
<!-- Node5&#45;&gt;Node11 -->
<g id="edge13" class="edge"><title>Node5&#45;&gt;Node11</title>
<path fill="none" stroke="midnightblue" d="M362.38,-168.444C333.911,-159.293 288.598,-144.728 256.969,-134.561"/>
<polygon fill="midnightblue" stroke="midnightblue" points="257.81,-131.156 247.219,-131.428 255.668,-137.82 257.81,-131.156"/>
</g>
<!-- Node12 -->
<g id="node12" class="node"><title>Node12</title>
<g id="a_node12"><a xlink:title=" ">
<polygon fill="white" stroke="#bfbfbf" points="265,-112.5 265,-131.5 319,-131.5 319,-112.5 265,-112.5"/>
<text text-anchor="middle" x="292" y="-119.5" font-family="Helvetica,sans-Serif" font-size="10.00">iostream</text>
</a>
</g>
</g>
<!-- Node5&#45;&gt;Node12 -->
<g id="edge14" class="edge"><title>Node5&#45;&gt;Node12</title>
<path fill="none" stroke="midnightblue" d="M373.415,-168.324C358.001,-159.743 334.188,-146.486 316.29,-136.522"/>
<polygon fill="midnightblue" stroke="midnightblue" points="317.986,-133.461 307.546,-131.655 314.581,-139.577 317.986,-133.461"/>
</g>
<!-- Node7&#45;&gt;Node3 -->
<g id="edge10" class="edge"><title>Node7&#45;&gt;Node3</title>
<path fill="none" stroke="midnightblue" d="M353.665,-112.444C311.774,-102.3 242.409,-85.5027 200.768,-75.4192"/>
<polygon fill="midnightblue" stroke="midnightblue" points="201.355,-71.9603 190.813,-73.0084 199.708,-78.7637 201.355,-71.9603"/>
</g>
<!-- Node7&#45;&gt;Node5 -->
<g id="edge11" class="edge"><title>Node7&#45;&gt;Node5</title>
<path fill="none" stroke="midnightblue" d="M394.131,-131.751C395.657,-138.858 396.104,-149.136 395.472,-158.101"/>
<polygon fill="midnightblue" stroke="midnightblue" points="391.993,-157.713 394.166,-168.083 398.934,-158.622 391.993,-157.713"/>
</g>
<!-- Node7&#45;&gt;Node6 -->
<g id="edge12" class="edge"><title>Node7&#45;&gt;Node6</title>
<path fill="none" stroke="midnightblue" d="M402.014,-112.324C414.532,-103.979 433.682,-91.2122 448.471,-81.3524"/>
<polygon fill="midnightblue" stroke="midnightblue" points="450.639,-84.1137 457.018,-75.6545 446.756,-78.2894 450.639,-84.1137"/>
</g>
<!-- Node8 -->
<g id="node8" class="node"><title>Node8</title>
<g id="a_node8"><a xlink:href="_fatal_error_8h.html" target="_top" xlink:title=" ">
<polygon fill="white" stroke="black" points="291,-56.5 291,-75.5 413,-75.5 413,-56.5 291,-56.5"/>
<text text-anchor="middle" x="352" y="-63.5" font-family="Helvetica,sans-Serif" font-size="10.00">Cpl/System/FatalError.h</text>
</a>
</g>
</g>
<!-- Node7&#45;&gt;Node8 -->
<g id="edge7" class="edge"><title>Node7&#45;&gt;Node8</title>
<path fill="none" stroke="midnightblue" d="M382.89,-112.083C377.718,-104.534 370.154,-93.4948 363.806,-84.2298"/>
<polygon fill="midnightblue" stroke="midnightblue" points="366.536,-82.0221 357.996,-75.7511 360.761,-85.9787 366.536,-82.0221"/>
</g>
<!-- Node9 -->
<g id="node9" class="node"><title>Node9</title>
<g id="a_node9"><a xlink:title=" ">
<polygon fill="white" stroke="#bfbfbf" points="326,-0.5 326,-19.5 378,-19.5 378,-0.5 326,-0.5"/>
<text text-anchor="middle" x="352" y="-7.5" font-family="Helvetica,sans-Serif" font-size="10.00">stddef.h</text>
</a>
</g>
</g>
<!-- Node8&#45;&gt;Node9 -->
<g id="edge8" class="edge"><title>Node8&#45;&gt;Node9</title>
<path fill="none" stroke="midnightblue" d="M352,-56.083C352,-49.0059 352,-38.8611 352,-29.9865"/>
<polygon fill="midnightblue" stroke="midnightblue" points="355.5,-29.751 352,-19.7511 348.5,-29.7511 355.5,-29.751"/>
</g>
<!-- Node10 -->
<g id="node10" class="node"><title>Node10</title>
<g id="a_node10"><a xlink:title=" ">
<polygon fill="white" stroke="#bfbfbf" points="445.5,-0.5 445.5,-19.5 530.5,-19.5 530.5,-0.5 445.5,-0.5"/>
<text text-anchor="middle" x="488" y="-7.5" font-family="Helvetica,sans-Serif" font-size="10.00">colony_config.h</text>
</a>
</g>
</g>
<!-- Node8&#45;&gt;Node10 -->
<g id="edge9" class="edge"><title>Node8&#45;&gt;Node10</title>
<path fill="none" stroke="midnightblue" d="M373.55,-56.4435C396.031,-47.5171 431.488,-33.4387 456.98,-23.3168"/>
<polygon fill="midnightblue" stroke="midnightblue" points="458.549,-26.4598 466.551,-19.5164 455.965,-19.9539 458.549,-26.4598"/>
</g>
<!-- Node13&#45;&gt;Node5 -->
<g id="edge16" class="edge"><title>Node13&#45;&gt;Node5</title>
<path fill="none" stroke="midnightblue" d="M280.005,-336.135C283.179,-323.183 290.137,-298.608 301,-280 320.698,-246.258 352.441,-213.305 371.936,-194.637"/>
<polygon fill="midnightblue" stroke="midnightblue" points="374.585,-196.951 379.471,-187.551 369.789,-191.852 374.585,-196.951"/>
</g>
<!-- Node13&#45;&gt;Node14 -->
<g id="edge17" class="edge"><title>Node13&#45;&gt;Node14</title>
<path fill="none" stroke="midnightblue" d="M263.219,-336.324C248.733,-327.822 226.427,-314.729 209.507,-304.797"/>
<polygon fill="midnightblue" stroke="midnightblue" points="211.141,-301.698 200.745,-299.655 207.597,-307.735 211.141,-301.698"/>
</g>
<!-- Node16 -->
<g id="node16" class="node"><title>Node16</title>
<g id="a_node16"><a xlink:title=" ">
<polygon fill="white" stroke="#bfbfbf" points="310,-280.5 310,-299.5 358,-299.5 358,-280.5 310,-280.5"/>
<text text-anchor="middle" x="334" y="-287.5" font-family="Helvetica,sans-Serif" font-size="10.00">stdlib.h</text>
</a>
</g>
</g>
<!-- Node13&#45;&gt;Node16 -->
<g id="edge20" class="edge"><title>Node13&#45;&gt;Node16</title>
<path fill="none" stroke="midnightblue" d="M286.997,-336.324C295.194,-328.42 307.506,-316.548 317.472,-306.938"/>
<polygon fill="midnightblue" stroke="midnightblue" points="320.07,-309.295 324.839,-299.834 315.211,-304.256 320.07,-309.295"/>
</g>
<!-- Node14&#45;&gt;Node3 -->
<g id="edge18" class="edge"><title>Node14&#45;&gt;Node3</title>
<path fill="none" stroke="midnightblue" d="M185.216,-280.297C182.273,-247.633 171.844,-131.866 167.708,-85.9573"/>
<polygon fill="midnightblue" stroke="midnightblue" points="171.184,-85.5293 166.8,-75.8837 164.212,-86.1575 171.184,-85.5293"/>
</g>
<!-- Node15 -->
<g id="node15" class="node"><title>Node15</title>
<g id="a_node15"><a xlink:title=" ">
<polygon fill="white" stroke="#bfbfbf" points="194,-224.5 194,-243.5 254,-243.5 254,-224.5 194,-224.5"/>
<text text-anchor="middle" x="224" y="-231.5" font-family="Helvetica,sans-Serif" font-size="10.00">memory.h</text>
</a>
</g>
</g>
<!-- Node14&#45;&gt;Node15 -->
<g id="edge19" class="edge"><title>Node14&#45;&gt;Node15</title>
<path fill="none" stroke="midnightblue" d="M192.275,-280.083C197.642,-272.455 205.518,-261.264 212.079,-251.941"/>
<polygon fill="midnightblue" stroke="midnightblue" points="214.949,-253.943 217.842,-243.751 209.225,-249.915 214.949,-253.943"/>
</g>
<!-- Node17&#45;&gt;Node5 -->
<g id="edge26" class="edge"><title>Node17&#45;&gt;Node5</title>
<path fill="none" stroke="midnightblue" d="M389.946,-336.075C389.789,-309.945 389.327,-233.211 389.112,-197.577"/>
<polygon fill="midnightblue" stroke="midnightblue" points="392.612,-197.547 389.052,-187.568 385.612,-197.589 392.612,-197.547"/>
</g>
<!-- Node18 -->
<g id="node18" class="node"><title>Node18</title>
<g id="a_node18"><a xlink:href="_f_string___8h.html" target="_top" xlink:title=" ">
<polygon fill="white" stroke="black" points="414.5,-280.5 414.5,-299.5 515.5,-299.5 515.5,-280.5 414.5,-280.5"/>
<text text-anchor="middle" x="465" y="-287.5" font-family="Helvetica,sans-Serif" font-size="10.00">Cpl/Text/FString_.h</text>
</a>
</g>
</g>
<!-- Node17&#45;&gt;Node18 -->
<g id="edge22" class="edge"><title>Node17&#45;&gt;Node18</title>
<path fill="none" stroke="midnightblue" d="M402.05,-336.324C413.463,-328.107 430.831,-315.602 444.435,-305.807"/>
<polygon fill="midnightblue" stroke="midnightblue" points="446.66,-308.517 452.731,-299.834 442.57,-302.837 446.66,-308.517"/>
</g>
<!-- Node18&#45;&gt;Node10 -->
<g id="edge23" class="edge"><title>Node18&#45;&gt;Node10</title>
<path fill="none" stroke="midnightblue" d="M479.136,-280.339C491.113,-272.312 507.904,-259.32 518,-244 534.632,-218.762 538,-209.225 538,-179 538,-179 538,-179 538,-121 538,-85.1842 515.76,-48.214 500.945,-27.5601"/>
<polygon fill="midnightblue" stroke="midnightblue" points="503.735,-25.4456 494.952,-19.5193 498.122,-29.6289 503.735,-25.4456"/>
</g>
<!-- Node19 -->
<g id="node19" class="node"><title>Node19</title>
<g id="a_node19"><a xlink:href="_text_2_string___8h.html" target="_top" xlink:title=" ">
<polygon fill="white" stroke="black" points="414.5,-224.5 414.5,-243.5 509.5,-243.5 509.5,-224.5 414.5,-224.5"/>
<text text-anchor="middle" x="462" y="-231.5" font-family="Helvetica,sans-Serif" font-size="10.00">Cpl/Text/String_.h</text>
</a>
</g>
</g>
<!-- Node18&#45;&gt;Node19 -->
<g id="edge24" class="edge"><title>Node18&#45;&gt;Node19</title>
<path fill="none" stroke="midnightblue" d="M464.505,-280.083C464.111,-273.006 463.548,-262.861 463.055,-253.986"/>
<polygon fill="midnightblue" stroke="midnightblue" points="466.536,-253.542 462.486,-243.751 459.546,-253.93 466.536,-253.542"/>
</g>
<!-- Node19&#45;&gt;Node5 -->
<g id="edge25" class="edge"><title>Node19&#45;&gt;Node5</title>
<path fill="none" stroke="midnightblue" d="M450.271,-224.324C439.163,-216.107 422.258,-203.602 409.017,-193.807"/>
<polygon fill="midnightblue" stroke="midnightblue" points="411.063,-190.967 400.942,-187.834 406.9,-196.595 411.063,-190.967"/>
</g>
</g>
</svg>
