<?xml version="1.0" encoding="UTF-8" standalone="no"?>
<!DOCTYPE svg PUBLIC "-//W3C//DTD SVG 1.1//EN"
 "http://www.w3.org/Graphics/SVG/1.1/DTD/svg11.dtd">
<!-- Generated by graphviz version 2.38.0 (20140413.2041)
 -->
<!-- Title: Storm/Type/ThermostatMode.h Pages: 1 -->
<svg width="726pt" height="229pt"
 viewBox="0.00 0.00 726.00 229.00" xmlns="http://www.w3.org/2000/svg" xmlns:xlink="http://www.w3.org/1999/xlink">
<g id="graph0" class="graph" transform="scale(1 1) rotate(0) translate(4 225)">
<title>Storm/Type/ThermostatMode.h</title>
<polygon fill="white" stroke="none" points="-4,4 -4,-225 722,-225 722,4 -4,4"/>
<!-- Node1 -->
<g id="node1" class="node"><title>Node1</title>
<g id="a_node1"><a xlink:title=" ">
<polygon fill="#bfbfbf" stroke="black" points="413,-201.5 413,-220.5 565,-220.5 565,-201.5 413,-201.5"/>
<text text-anchor="middle" x="489" y="-208.5" font-family="Helvetica,sans-Serif" font-size="10.00">Storm/Type/ThermostatMode.h</text>
</a>
</g>
</g>
<!-- Node2 -->
<g id="node2" class="node"><title>Node2</title>
<g id="a_node2"><a xlink:href="_mp_thermostat_mode_8h.html" target="_top" xlink:title=" ">
<polygon fill="white" stroke="black" points="299.5,-140 299.5,-159 458.5,-159 458.5,-140 299.5,-140"/>
<text text-anchor="middle" x="379" y="-147" font-family="Helvetica,sans-Serif" font-size="10.00">Storm/Dm/MpThermostatMode.h</text>
</a>
</g>
</g>
<!-- Node1&#45;&gt;Node2 -->
<g id="edge1" class="edge"><title>Node1&#45;&gt;Node2</title>
<path fill="none" stroke="midnightblue" d="M464.434,-196.712C443.129,-185.188 412.934,-168.855 394.731,-159.009"/>
<polygon fill="midnightblue" stroke="midnightblue" points="462.779,-199.796 473.24,-201.475 466.109,-193.639 462.779,-199.796"/>
</g>
<!-- Node10 -->
<g id="node10" class="node"><title>Node10</title>
<g id="a_node10"><a xlink:href="_storm_2_thermostat_2_ui_2_pico_display_2_private___8h.html" target="_top" xlink:title="This file defines the INTERNAL interface used by the UI sub&#45;system.">
<polygon fill="white" stroke="black" points="540.5,-134.5 540.5,-164.5 659.5,-164.5 659.5,-134.5 540.5,-134.5"/>
<text text-anchor="start" x="548.5" y="-152.5" font-family="Helvetica,sans-Serif" font-size="10.00">Storm/Thermostat/Ui</text>
<text text-anchor="middle" x="600" y="-141.5" font-family="Helvetica,sans-Serif" font-size="10.00">/PicoDisplay/Private_.h</text>
</a>
</g>
</g>
<!-- Node1&#45;&gt;Node10 -->
<g id="edge9" class="edge"><title>Node1&#45;&gt;Node10</title>
<path fill="none" stroke="midnightblue" d="M514.106,-196.542C531.925,-186.991 555.788,-174.199 573.839,-164.523"/>
<polygon fill="midnightblue" stroke="midnightblue" points="512.064,-193.666 504.904,-201.475 515.371,-199.835 512.064,-193.666"/>
</g>
<!-- Node3 -->
<g id="node3" class="node"><title>Node3</title>
<g id="a_node3"><a xlink:href="_component_2_operating_mode_8h.html" target="_top" xlink:title=" ">
<polygon fill="white" stroke="black" points="80,-67.5 80,-97.5 220,-97.5 220,-67.5 80,-67.5"/>
<text text-anchor="start" x="88" y="-85.5" font-family="Helvetica,sans-Serif" font-size="10.00">Storm/Component/Operating</text>
<text text-anchor="middle" x="150" y="-74.5" font-family="Helvetica,sans-Serif" font-size="10.00">Mode.h</text>
</a>
</g>
</g>
<!-- Node2&#45;&gt;Node3 -->
<g id="edge2" class="edge"><title>Node2&#45;&gt;Node3</title>
<path fill="none" stroke="midnightblue" d="M338.687,-137.058C299.861,-126.037 241.051,-109.344 199.422,-97.5281"/>
<polygon fill="midnightblue" stroke="midnightblue" points="338.015,-140.505 348.591,-139.869 339.926,-133.771 338.015,-140.505"/>
</g>
<!-- Node5 -->
<g id="node5" class="node"><title>Node5</title>
<g id="a_node5"><a xlink:href="_model_points_8h.html" target="_top" xlink:title="This file defines all of the Model Points for the Thermostat Application.">
<polygon fill="white" stroke="black" points="298.5,-73 298.5,-92 459.5,-92 459.5,-73 298.5,-73"/>
<text text-anchor="middle" x="379" y="-80" font-family="Helvetica,sans-Serif" font-size="10.00">Storm/Thermostat/ModelPoints.h</text>
</a>
</g>
</g>
<!-- Node2&#45;&gt;Node5 -->
<g id="edge4" class="edge"><title>Node2&#45;&gt;Node5</title>
<path fill="none" stroke="midnightblue" d="M379,-129.537C379,-117.17 379,-101.62 379,-92.1273"/>
<polygon fill="midnightblue" stroke="midnightblue" points="375.5,-129.734 379,-139.734 382.5,-129.734 375.5,-129.734"/>
</g>
<!-- Node4 -->
<g id="node4" class="node"><title>Node4</title>
<g id="a_node4"><a xlink:href="_algorithm_8h.html" target="_top" xlink:title=" ">
<polygon fill="white" stroke="black" points="0,-6 0,-25 148,-25 148,-6 0,-6"/>
<text text-anchor="middle" x="74" y="-13" font-family="Helvetica,sans-Serif" font-size="10.00">Storm/Thermostat/Algorithm.h</text>
</a>
</g>
</g>
<!-- Node3&#45;&gt;Node4 -->
<g id="edge3" class="edge"><title>Node3&#45;&gt;Node4</title>
<path fill="none" stroke="midnightblue" d="M125.647,-60.6722C111.615,-48.6707 94.7191,-34.2203 84.1659,-25.1945"/>
<polygon fill="midnightblue" stroke="midnightblue" points="123.635,-63.5561 133.509,-67.396 128.184,-58.2364 123.635,-63.5561"/>
</g>
<!-- Node6 -->
<g id="node6" class="node"><title>Node6</title>
<g id="a_node6"><a xlink:href="_installer_record_8h_source.html" target="_top" xlink:title=" ">
<polygon fill="white" stroke="black" points="166.5,-0.5 166.5,-30.5 285.5,-30.5 285.5,-0.5 166.5,-0.5"/>
<text text-anchor="start" x="174.5" y="-18.5" font-family="Helvetica,sans-Serif" font-size="10.00">Storm/Thermostat/Main</text>
<text text-anchor="middle" x="226" y="-7.5" font-family="Helvetica,sans-Serif" font-size="10.00">/InstallerRecord.h</text>
</a>
</g>
</g>
<!-- Node5&#45;&gt;Node6 -->
<g id="edge5" class="edge"><title>Node5&#45;&gt;Node6</title>
<path fill="none" stroke="midnightblue" d="M349.371,-68.9127C323.464,-57.9062 285.886,-41.9418 259.02,-30.5281"/>
<polygon fill="midnightblue" stroke="midnightblue" points="348.11,-72.1797 358.683,-72.8685 350.847,-65.737 348.11,-72.1797"/>
</g>
<!-- Node7 -->
<g id="node7" class="node"><title>Node7</title>
<g id="a_node7"><a xlink:href="_run_time_record_8h_source.html" target="_top" xlink:title=" ">
<polygon fill="white" stroke="black" points="303.5,-0.5 303.5,-30.5 422.5,-30.5 422.5,-0.5 303.5,-0.5"/>
<text text-anchor="start" x="311.5" y="-18.5" font-family="Helvetica,sans-Serif" font-size="10.00">Storm/Thermostat/Main</text>
<text text-anchor="middle" x="363" y="-7.5" font-family="Helvetica,sans-Serif" font-size="10.00">/RunTimeRecord.h</text>
</a>
</g>
</g>
<!-- Node5&#45;&gt;Node7 -->
<g id="edge6" class="edge"><title>Node5&#45;&gt;Node7</title>
<path fill="none" stroke="midnightblue" d="M374.382,-62.7386C371.858,-52.4873 368.785,-40.0011 366.468,-30.589"/>
<polygon fill="midnightblue" stroke="midnightblue" points="371.053,-63.8603 376.842,-72.7338 377.85,-62.1871 371.053,-63.8603"/>
</g>
<!-- Node8 -->
<g id="node8" class="node"><title>Node8</title>
<g id="a_node8"><a xlink:href="_user_record_8h_source.html" target="_top" xlink:title=" ">
<polygon fill="white" stroke="black" points="440.5,-0.5 440.5,-30.5 559.5,-30.5 559.5,-0.5 440.5,-0.5"/>
<text text-anchor="start" x="448.5" y="-18.5" font-family="Helvetica,sans-Serif" font-size="10.00">Storm/Thermostat/Main</text>
<text text-anchor="middle" x="500" y="-7.5" font-family="Helvetica,sans-Serif" font-size="10.00">/UserRecord.h</text>
</a>
</g>
</g>
<!-- Node5&#45;&gt;Node8 -->
<g id="edge7" class="edge"><title>Node5&#45;&gt;Node8</title>
<path fill="none" stroke="midnightblue" d="M404.314,-67.9015C424.672,-56.9655 453.176,-41.6532 473.773,-30.589"/>
<polygon fill="midnightblue" stroke="midnightblue" points="402.472,-64.9182 395.319,-72.7338 405.784,-71.0847 402.472,-64.9182"/>
</g>
<!-- Node9 -->
<g id="node9" class="node"><title>Node9</title>
<g id="a_node9"><a xlink:href="_event_monitor_8h_source.html" target="_top" xlink:title=" ">
<polygon fill="white" stroke="black" points="578,-0.5 578,-30.5 718,-30.5 718,-0.5 578,-0.5"/>
<text text-anchor="start" x="586" y="-18.5" font-family="Helvetica,sans-Serif" font-size="10.00">Storm/Thermostat/Ui</text>
<text text-anchor="middle" x="648" y="-7.5" font-family="Helvetica,sans-Serif" font-size="10.00">/PicoDisplay/EventMonitor.h</text>
</a>
</g>
</g>
<!-- Node5&#45;&gt;Node9 -->
<g id="edge8" class="edge"><title>Node5&#45;&gt;Node9</title>
<path fill="none" stroke="midnightblue" d="M424.328,-70.5471C469.856,-59.5459 540.194,-42.5498 589.817,-30.5592"/>
<polygon fill="midnightblue" stroke="midnightblue" points="423.342,-67.1846 414.444,-72.9355 424.986,-73.9888 423.342,-67.1846"/>
</g>
<!-- Node10&#45;&gt;Node9 -->
<g id="edge10" class="edge"><title>Node10&#45;&gt;Node9</title>
<path fill="none" stroke="midnightblue" d="M608.635,-124.754C618.621,-97.291 634.732,-52.9873 642.9,-30.5247"/>
<polygon fill="midnightblue" stroke="midnightblue" points="605.265,-123.78 605.137,-134.374 611.844,-126.172 605.265,-123.78"/>
</g>
</g>
</svg>
