<?xml version="1.0" encoding="UTF-8" standalone="no"?>
<!DOCTYPE svg PUBLIC "-//W3C//DTD SVG 1.1//EN"
 "http://www.w3.org/Graphics/SVG/1.1/DTD/svg11.dtd">
<!-- Generated by graphviz version 2.38.0 (20140413.2041)
 -->
<!-- Title: Cpl/System/Thread.h Pages: 1 -->
<svg width="3132pt" height="352pt"
 viewBox="0.00 0.00 3131.50 352.00" xmlns="http://www.w3.org/2000/svg" xmlns:xlink="http://www.w3.org/1999/xlink">
<g id="graph0" class="graph" transform="scale(1 1) rotate(0) translate(4 348)">
<title>Cpl/System/Thread.h</title>
<polygon fill="white" stroke="none" points="-4,4 -4,-348 3127.5,-348 3127.5,4 -4,4"/>
<!-- Node1 -->
<g id="node1" class="node"><title>Node1</title>
<g id="a_node1"><a xlink:title=" ">
<polygon fill="#bfbfbf" stroke="black" points="2170,-324.5 2170,-343.5 2279,-343.5 2279,-324.5 2170,-324.5"/>
<text text-anchor="middle" x="2224.5" y="-331.5" font-family="Helvetica,sans-Serif" font-size="10.00">Cpl/System/Thread.h</text>
</a>
</g>
</g>
<!-- Node2 -->
<g id="node2" class="node"><title>Node2</title>
<g id="a_node2"><a xlink:href="_dm_2_event_loop_8h.html" target="_top" xlink:title=" ">
<polygon fill="white" stroke="black" points="1228,-263 1228,-282 1335,-282 1335,-263 1228,-263"/>
<text text-anchor="middle" x="1281.5" y="-270" font-family="Helvetica,sans-Serif" font-size="10.00">Cpl/Dm/EventLoop.h</text>
</a>
</g>
</g>
<!-- Node1&#45;&gt;Node2 -->
<g id="edge1" class="edge"><title>Node1&#45;&gt;Node2</title>
<path fill="none" stroke="midnightblue" d="M2159.64,-333.636C2013.28,-334.211 1646.53,-330.823 1343.5,-288 1333.54,-286.592 1322.83,-284.353 1313.15,-282.052"/>
<polygon fill="midnightblue" stroke="midnightblue" points="2159.8,-337.136 2169.79,-333.589 2159.77,-330.136 2159.8,-337.136"/>
</g>
<!-- Node74 -->
<g id="node27" class="node"><title>Node74</title>
<g id="a_node27"><a xlink:href="_listener___8h.html" target="_top" xlink:title=" ">
<polygon fill="white" stroke="black" points="1353,-263 1353,-282 1480,-282 1480,-263 1353,-263"/>
<text text-anchor="middle" x="1416.5" y="-270" font-family="Helvetica,sans-Serif" font-size="10.00">Cpl/Io/Socket/Listener_.h</text>
</a>
</g>
</g>
<!-- Node1&#45;&gt;Node74 -->
<g id="edge36" class="edge"><title>Node1&#45;&gt;Node74</title>
<path fill="none" stroke="midnightblue" d="M2159.71,-332.03C2031.18,-329.448 1735.06,-320.21 1488.5,-288 1477.12,-286.513 1464.84,-284.28 1453.71,-282.009"/>
<polygon fill="midnightblue" stroke="midnightblue" points="2159.71,-335.531 2169.78,-332.226 2159.85,-328.532 2159.71,-335.531"/>
</g>
<!-- Node77 -->
<g id="node30" class="node"><title>Node77</title>
<g id="a_node30"><a xlink:href="_bare_metal_2_thread_8h.html" target="_top" xlink:title=" ">
<polygon fill="white" stroke="black" points="1498,-257.5 1498,-287.5 1613,-287.5 1613,-257.5 1498,-257.5"/>
<text text-anchor="start" x="1506" y="-275.5" font-family="Helvetica,sans-Serif" font-size="10.00">Cpl/System/BareMetal</text>
<text text-anchor="middle" x="1555.5" y="-264.5" font-family="Helvetica,sans-Serif" font-size="10.00">/Thread.h</text>
</a>
</g>
</g>
<!-- Node1&#45;&gt;Node77 -->
<g id="edge39" class="edge"><title>Node1&#45;&gt;Node77</title>
<path fill="none" stroke="midnightblue" d="M2159.86,-331.104C2049.27,-327.206 1816.88,-316.16 1622.5,-288 1619.44,-287.556 1616.31,-287.053 1613.15,-286.507"/>
<polygon fill="midnightblue" stroke="midnightblue" points="2159.74,-334.602 2169.85,-331.448 2159.98,-327.606 2159.74,-334.602"/>
</g>
<!-- Node78 -->
<g id="node31" class="node"><title>Node78</title>
<g id="a_node31"><a xlink:href="_cpp11_2_thread_8h.html" target="_top" xlink:title=" ">
<polygon fill="white" stroke="black" points="1631.5,-263 1631.5,-282 1771.5,-282 1771.5,-263 1631.5,-263"/>
<text text-anchor="middle" x="1701.5" y="-270" font-family="Helvetica,sans-Serif" font-size="10.00">Cpl/System/Cpp11/Thread.h</text>
</a>
</g>
</g>
<!-- Node1&#45;&gt;Node78 -->
<g id="edge40" class="edge"><title>Node1&#45;&gt;Node78</title>
<path fill="none" stroke="midnightblue" d="M2159.79,-328.085C2073.16,-321.13 1914.84,-307.104 1780.5,-288 1768.77,-286.331 1756.11,-284.172 1744.45,-282.032"/>
<polygon fill="midnightblue" stroke="midnightblue" points="2159.74,-331.592 2169.99,-328.898 2160.3,-324.614 2159.74,-331.592"/>
</g>
<!-- Node79 -->
<g id="node32" class="node"><title>Node79</title>
<g id="a_node32"><a xlink:href="_free_r_t_o_s_2_thread_8h.html" target="_top" xlink:title=" ">
<polygon fill="white" stroke="black" points="1790,-257.5 1790,-287.5 1907,-287.5 1907,-257.5 1790,-257.5"/>
<text text-anchor="start" x="1798" y="-275.5" font-family="Helvetica,sans-Serif" font-size="10.00">Cpl/System/FreeRTOS</text>
<text text-anchor="middle" x="1848.5" y="-264.5" font-family="Helvetica,sans-Serif" font-size="10.00">/Thread.h</text>
</a>
</g>
</g>
<!-- Node1&#45;&gt;Node79 -->
<g id="edge41" class="edge"><title>Node1&#45;&gt;Node79</title>
<path fill="none" stroke="midnightblue" d="M2159.76,-324.885C2097.1,-316.72 1999.51,-303.19 1915.5,-288 1912.81,-287.513 1910.06,-286.996 1907.28,-286.46"/>
<polygon fill="midnightblue" stroke="midnightblue" points="2159.53,-328.384 2169.89,-326.198 2160.43,-321.442 2159.53,-328.384"/>
</g>
<!-- Node80 -->
<g id="node33" class="node"><title>Node80</title>
<g id="a_node33"><a xlink:href="_posix_2_thread_8h.html" target="_top" xlink:title=" ">
<polygon fill="white" stroke="black" points="1925,-263 1925,-282 2062,-282 2062,-263 1925,-263"/>
<text text-anchor="middle" x="1993.5" y="-270" font-family="Helvetica,sans-Serif" font-size="10.00">Cpl/System/Posix/Thread.h</text>
</a>
</g>
</g>
<!-- Node1&#45;&gt;Node80 -->
<g id="edge42" class="edge"><title>Node1&#45;&gt;Node80</title>
<path fill="none" stroke="midnightblue" d="M2181.67,-321.968C2136.82,-310.415 2067.33,-292.517 2026.54,-282.009"/>
<polygon fill="midnightblue" stroke="midnightblue" points="2180.85,-325.37 2191.4,-324.475 2182.59,-318.591 2180.85,-325.37"/>
</g>
<!-- Node81 -->
<g id="node34" class="node"><title>Node81</title>
<g id="a_node34"><a xlink:href="_r_p2040_2_thread_8h.html" target="_top" xlink:title=" ">
<polygon fill="white" stroke="black" points="2080.5,-263 2080.5,-282 2226.5,-282 2226.5,-263 2080.5,-263"/>
<text text-anchor="middle" x="2153.5" y="-270" font-family="Helvetica,sans-Serif" font-size="10.00">Cpl/System/RP2040/Thread.h</text>
</a>
</g>
</g>
<!-- Node1&#45;&gt;Node81 -->
<g id="edge43" class="edge"><title>Node1&#45;&gt;Node81</title>
<path fill="none" stroke="midnightblue" d="M2206.57,-317.973C2192.99,-306.593 2174.82,-291.369 2163.65,-282.009"/>
<polygon fill="midnightblue" stroke="midnightblue" points="2204.41,-320.735 2214.33,-324.475 2208.91,-315.369 2204.41,-320.735"/>
</g>
<!-- Node82 -->
<g id="node35" class="node"><title>Node82</title>
<g id="a_node35"><a xlink:href="_system_2_trace_8h.html" target="_top" xlink:title=" ">
<polygon fill="white" stroke="black" points="2244.5,-263 2244.5,-282 2348.5,-282 2348.5,-263 2244.5,-263"/>
<text text-anchor="middle" x="2296.5" y="-270" font-family="Helvetica,sans-Serif" font-size="10.00">Cpl/System/Trace.h</text>
</a>
</g>
</g>
<!-- Node1&#45;&gt;Node82 -->
<g id="edge44" class="edge"><title>Node1&#45;&gt;Node82</title>
<path fill="none" stroke="midnightblue" d="M2242.68,-317.973C2256.46,-306.593 2274.88,-291.369 2286.2,-282.009"/>
<polygon fill="midnightblue" stroke="midnightblue" points="2240.29,-315.407 2234.82,-324.475 2244.75,-320.803 2240.29,-315.407"/>
</g>
<!-- Node88 -->
<g id="node41" class="node"><title>Node88</title>
<g id="a_node41"><a xlink:href="_win32_2_thread_8h.html" target="_top" xlink:title=" ">
<polygon fill="white" stroke="black" points="2367,-263 2367,-282 2506,-282 2506,-263 2367,-263"/>
<text text-anchor="middle" x="2436.5" y="-270" font-family="Helvetica,sans-Serif" font-size="10.00">Cpl/System/Win32/Thread.h</text>
</a>
</g>
</g>
<!-- Node1&#45;&gt;Node88 -->
<g id="edge51" class="edge"><title>Node1&#45;&gt;Node88</title>
<path fill="none" stroke="midnightblue" d="M2264.59,-321.749C2305.77,-310.189 2368.98,-292.451 2406.18,-282.009"/>
<polygon fill="midnightblue" stroke="midnightblue" points="2263.56,-318.403 2254.87,-324.475 2265.45,-325.143 2263.56,-318.403"/>
</g>
<!-- Node89 -->
<g id="node42" class="node"><title>Node89</title>
<g id="a_node42"><a xlink:href="_threads_8h.html" target="_top" xlink:title=" ">
<polygon fill="white" stroke="black" points="2524,-263 2524,-282 2655,-282 2655,-263 2524,-263"/>
<text text-anchor="middle" x="2589.5" y="-270" font-family="Helvetica,sans-Serif" font-size="10.00">Cpl/TShell/Cmd/Threads.h</text>
</a>
</g>
</g>
<!-- Node1&#45;&gt;Node89 -->
<g id="edge52" class="edge"><title>Node1&#45;&gt;Node89</title>
<path fill="none" stroke="midnightblue" d="M2289.02,-323.688C2347.86,-315.029 2437.16,-301.472 2514.5,-288 2524.95,-286.179 2536.2,-284.081 2546.72,-282.055"/>
<polygon fill="midnightblue" stroke="midnightblue" points="2288.5,-320.226 2279.12,-325.141 2289.52,-327.152 2288.5,-320.226"/>
</g>
<!-- Node92 -->
<g id="node45" class="node"><title>Node92</title>
<g id="a_node45"><a xlink:href="_socket_8h.html" target="_top" xlink:title=" ">
<polygon fill="white" stroke="black" points="2673.5,-263 2673.5,-282 2777.5,-282 2777.5,-263 2673.5,-263"/>
<text text-anchor="middle" x="2725.5" y="-270" font-family="Helvetica,sans-Serif" font-size="10.00">Cpl/TShell/Socket.h</text>
</a>
</g>
</g>
<!-- Node1&#45;&gt;Node92 -->
<g id="edge55" class="edge"><title>Node1&#45;&gt;Node92</title>
<path fill="none" stroke="midnightblue" d="M2289.34,-328.952C2375.3,-322.992 2531.53,-310.103 2663.5,-288 2672.99,-286.411 2683.18,-284.228 2692.52,-282.037"/>
<polygon fill="midnightblue" stroke="midnightblue" points="2288.95,-325.47 2279.21,-329.644 2289.42,-332.454 2288.95,-325.47"/>
</g>
<!-- Node93 -->
<g id="node46" class="node"><title>Node93</title>
<g id="a_node46"><a xlink:href="_t_shell_2_stdio_8h.html" target="_top" xlink:title=" ">
<polygon fill="white" stroke="black" points="2796,-263 2796,-282 2891,-282 2891,-263 2796,-263"/>
<text text-anchor="middle" x="2843.5" y="-270" font-family="Helvetica,sans-Serif" font-size="10.00">Cpl/TShell/Stdio.h</text>
</a>
</g>
</g>
<!-- Node1&#45;&gt;Node93 -->
<g id="edge56" class="edge"><title>Node1&#45;&gt;Node93</title>
<path fill="none" stroke="midnightblue" d="M2289.25,-331.37C2394.28,-327.932 2608.01,-317.629 2786.5,-288 2795.47,-286.512 2805.09,-284.306 2813.82,-282.061"/>
<polygon fill="midnightblue" stroke="midnightblue" points="2289.01,-327.876 2279.13,-331.691 2289.23,-334.872 2289.01,-327.876"/>
</g>
<!-- Node94 -->
<g id="node47" class="node"><title>Node94</title>
<g id="a_node47"><a xlink:href="_receiver_8h.html" target="_top" xlink:title=" ">
<polygon fill="white" stroke="black" points="2909.5,-257.5 2909.5,-287.5 3007.5,-287.5 3007.5,-257.5 2909.5,-257.5"/>
<text text-anchor="start" x="2917.5" y="-275.5" font-family="Helvetica,sans-Serif" font-size="10.00">Driver/Uart/Stream</text>
<text text-anchor="middle" x="2958.5" y="-264.5" font-family="Helvetica,sans-Serif" font-size="10.00">/Receiver.h</text>
</a>
</g>
</g>
<!-- Node1&#45;&gt;Node94 -->
<g id="edge57" class="edge"><title>Node1&#45;&gt;Node94</title>
<path fill="none" stroke="midnightblue" d="M2289.28,-332.428C2410.01,-330.534 2677.33,-322.436 2899.5,-288 2902.73,-287.499 2906.05,-286.907 2909.37,-286.253"/>
<polygon fill="midnightblue" stroke="midnightblue" points="2289.05,-328.931 2279.1,-332.578 2289.15,-335.93 2289.05,-328.931"/>
</g>
<!-- Node97 -->
<g id="node50" class="node"><title>Node97</title>
<g id="a_node50"><a xlink:href="_transmitter_8h.html" target="_top" xlink:title=" ">
<polygon fill="white" stroke="black" points="3025.5,-257.5 3025.5,-287.5 3123.5,-287.5 3123.5,-257.5 3025.5,-257.5"/>
<text text-anchor="start" x="3033.5" y="-275.5" font-family="Helvetica,sans-Serif" font-size="10.00">Driver/Uart/Stream</text>
<text text-anchor="middle" x="3074.5" y="-264.5" font-family="Helvetica,sans-Serif" font-size="10.00">/Transmitter.h</text>
</a>
</g>
</g>
<!-- Node1&#45;&gt;Node97 -->
<g id="edge60" class="edge"><title>Node1&#45;&gt;Node97</title>
<path fill="none" stroke="midnightblue" d="M2289.34,-333.429C2425.08,-333.426 2748.78,-328.7 3016.5,-288 3019.37,-287.563 3022.31,-287.048 3025.27,-286.478"/>
<polygon fill="midnightblue" stroke="midnightblue" points="2289.12,-329.929 2279.12,-333.42 2289.12,-336.929 2289.12,-329.929"/>
</g>
<!-- Node3 -->
<g id="node3" class="node"><title>Node3</title>
<g id="a_node3"><a xlink:href="_dm_2_mailbox_server_8h.html" target="_top" xlink:title=" ">
<polygon fill="white" stroke="black" points="895.5,-196 895.5,-215 1017.5,-215 1017.5,-196 895.5,-196"/>
<text text-anchor="middle" x="956.5" y="-203" font-family="Helvetica,sans-Serif" font-size="10.00">Cpl/Dm/MailboxServer.h</text>
</a>
</g>
</g>
<!-- Node2&#45;&gt;Node3 -->
<g id="edge2" class="edge"><title>Node2&#45;&gt;Node3</title>
<path fill="none" stroke="midnightblue" d="M1228.79,-260.958C1164.82,-248.165 1058.22,-226.843 999.159,-215.032"/>
<polygon fill="midnightblue" stroke="midnightblue" points="1228.19,-264.406 1238.68,-262.936 1229.56,-257.542 1228.19,-264.406"/>
</g>
<!-- Node23 -->
<g id="node18" class="node"><title>Node23</title>
<g id="a_node18"><a xlink:href="_subscriber_8h.html" target="_top" xlink:title=" ">
<polygon fill="white" stroke="black" points="1239,-196 1239,-215 1346,-215 1346,-196 1239,-196"/>
<text text-anchor="middle" x="1292.5" y="-203" font-family="Helvetica,sans-Serif" font-size="10.00">Cpl/Dm/Subscriber.h</text>
</a>
</g>
</g>
<!-- Node2&#45;&gt;Node23 -->
<g id="edge24" class="edge"><title>Node2&#45;&gt;Node23</title>
<path fill="none" stroke="midnightblue" d="M1284.71,-252.537C1286.8,-240.17 1289.43,-224.62 1291.04,-215.127"/>
<polygon fill="midnightblue" stroke="midnightblue" points="1281.2,-252.29 1282.98,-262.734 1288.1,-253.458 1281.2,-252.29"/>
</g>
<!-- Node4 -->
<g id="node4" class="node"><title>Node4</title>
<g id="a_node4"><a xlink:href="_dm_2_periodic_scheduler_8h.html" target="_top" xlink:title=" ">
<polygon fill="white" stroke="black" points="307,-129 307,-148 446,-148 446,-129 307,-129"/>
<text text-anchor="middle" x="376.5" y="-136" font-family="Helvetica,sans-Serif" font-size="10.00">Cpl/Dm/PeriodicScheduler.h</text>
</a>
</g>
</g>
<!-- Node3&#45;&gt;Node4 -->
<g id="edge3" class="edge"><title>Node3&#45;&gt;Node4</title>
<path fill="none" stroke="midnightblue" d="M885.365,-199.156C788.044,-191.429 608.059,-175.653 455.5,-154 443.765,-152.334 431.113,-150.176 419.448,-148.036"/>
<polygon fill="midnightblue" stroke="midnightblue" points="885.137,-202.649 895.382,-199.946 885.688,-195.671 885.137,-202.649"/>
</g>
<!-- Node5 -->
<g id="node5" class="node"><title>Node5</title>
<g id="a_node5"><a xlink:href="_chunk_8h.html" target="_top" xlink:title=" ">
<polygon fill="white" stroke="black" points="678,-129 678,-148 795,-148 795,-129 678,-129"/>
<text text-anchor="middle" x="736.5" y="-136" font-family="Helvetica,sans-Serif" font-size="10.00">Cpl/Persistent/Chunk.h</text>
</a>
</g>
</g>
<!-- Node3&#45;&gt;Node5 -->
<g id="edge4" class="edge"><title>Node3&#45;&gt;Node5</title>
<path fill="none" stroke="midnightblue" d="M917.611,-193.01C874.069,-180.145 804.511,-159.594 765.485,-148.064"/>
<polygon fill="midnightblue" stroke="midnightblue" points="916.704,-196.392 927.286,-195.869 918.687,-189.678 916.704,-196.392"/>
</g>
<!-- Node16 -->
<g id="node11" class="node"><title>Node16</title>
<g id="a_node11"><a xlink:href="_persistent_2_record_8h.html" target="_top" xlink:title=" ">
<polygon fill="white" stroke="black" points="852.5,-129 852.5,-148 972.5,-148 972.5,-129 852.5,-129"/>
<text text-anchor="middle" x="912.5" y="-136" font-family="Helvetica,sans-Serif" font-size="10.00">Cpl/Persistent/Record.h</text>
</a>
</g>
</g>
<!-- Node3&#45;&gt;Node16 -->
<g id="edge10" class="edge"><title>Node3&#45;&gt;Node16</title>
<path fill="none" stroke="midnightblue" d="M944.927,-187.404C936.377,-174.773 925.094,-158.104 918.34,-148.127"/>
<polygon fill="midnightblue" stroke="midnightblue" points="942.062,-189.415 950.566,-195.734 947.859,-185.491 942.062,-189.415"/>
</g>
<!-- Node17 -->
<g id="node12" class="node"><title>Node17</title>
<g id="a_node12"><a xlink:href="_record_server_8h.html" target="_top" xlink:title=" ">
<polygon fill="white" stroke="black" points="1016,-62 1016,-81 1165,-81 1165,-62 1016,-62"/>
<text text-anchor="middle" x="1090.5" y="-69" font-family="Helvetica,sans-Serif" font-size="10.00">Cpl/Persistent/RecordServer.h</text>
</a>
</g>
</g>
<!-- Node3&#45;&gt;Node17 -->
<g id="edge15" class="edge"><title>Node3&#45;&gt;Node17</title>
<path fill="none" stroke="midnightblue" d="M967.477,-187.452C979.136,-170.095 998.719,-142.97 1019.5,-123 1037.17,-106.021 1060.91,-90.3082 1075.96,-81.0584"/>
<polygon fill="midnightblue" stroke="midnightblue" points="964.436,-185.707 961.859,-195.983 970.282,-189.557 964.436,-185.707"/>
</g>
<!-- Node18 -->
<g id="node13" class="node"><title>Node18</title>
<g id="a_node13"><a xlink:href="_region_media_8h.html" target="_top" xlink:title=" ">
<polygon fill="white" stroke="black" points="464.5,-129 464.5,-148 610.5,-148 610.5,-129 464.5,-129"/>
<text text-anchor="middle" x="537.5" y="-136" font-family="Helvetica,sans-Serif" font-size="10.00">Cpl/Persistent/RegionMedia.h</text>
</a>
</g>
</g>
<!-- Node3&#45;&gt;Node18 -->
<g id="edge16" class="edge"><title>Node3&#45;&gt;Node18</title>
<path fill="none" stroke="midnightblue" d="M891.325,-194.389C809.197,-181.649 669.499,-159.977 592.497,-148.032"/>
<polygon fill="midnightblue" stroke="midnightblue" points="890.874,-197.861 901.292,-195.936 891.947,-190.944 890.874,-197.861"/>
</g>
<!-- Node21 -->
<g id="node16" class="node"><title>Node21</title>
<g id="a_node16"><a xlink:href="_algorithm_8h.html" target="_top" xlink:title=" ">
<polygon fill="white" stroke="black" points="1028.5,-129 1028.5,-148 1176.5,-148 1176.5,-129 1028.5,-129"/>
<text text-anchor="middle" x="1102.5" y="-136" font-family="Helvetica,sans-Serif" font-size="10.00">Storm/Thermostat/Algorithm.h</text>
</a>
</g>
</g>
<!-- Node3&#45;&gt;Node21 -->
<g id="edge22" class="edge"><title>Node3&#45;&gt;Node21</title>
<path fill="none" stroke="midnightblue" d="M985.069,-191.781C1013.98,-178.909 1057.9,-159.355 1083.03,-148.167"/>
<polygon fill="midnightblue" stroke="midnightblue" points="983.6,-188.604 975.888,-195.869 986.447,-194.999 983.6,-188.604"/>
</g>
<!-- Node22 -->
<g id="node17" class="node"><title>Node22</title>
<g id="a_node17"><a xlink:href="_event_monitor_8h_source.html" target="_top" xlink:title=" ">
<polygon fill="white" stroke="black" points="1183.5,-56.5 1183.5,-86.5 1323.5,-86.5 1323.5,-56.5 1183.5,-56.5"/>
<text text-anchor="start" x="1191.5" y="-74.5" font-family="Helvetica,sans-Serif" font-size="10.00">Storm/Thermostat/Ui</text>
<text text-anchor="middle" x="1253.5" y="-63.5" font-family="Helvetica,sans-Serif" font-size="10.00">/PicoDisplay/EventMonitor.h</text>
</a>
</g>
</g>
<!-- Node3&#45;&gt;Node22 -->
<g id="edge23" class="edge"><title>Node3&#45;&gt;Node22</title>
<path fill="none" stroke="midnightblue" d="M1028.1,-200.686C1075.65,-195.391 1137.86,-182.965 1185.5,-154 1213.06,-137.247 1234.71,-105.314 1245.66,-86.7829"/>
<polygon fill="midnightblue" stroke="midnightblue" points="1027.47,-197.232 1017.88,-201.74 1028.19,-204.195 1027.47,-197.232"/>
</g>
<!-- Node6 -->
<g id="node6" class="node"><title>Node6</title>
<g id="a_node6"><a xlink:href="_dm_2_persistent_2_record_8h.html" target="_top" xlink:title=" ">
<polygon fill="white" stroke="red" points="969.5,-0.5 969.5,-19.5 1107.5,-19.5 1107.5,-0.5 969.5,-0.5"/>
<text text-anchor="middle" x="1038.5" y="-7.5" font-family="Helvetica,sans-Serif" font-size="10.00">Cpl/Dm/Persistent/Record.h</text>
</a>
</g>
</g>
<!-- Node5&#45;&gt;Node6 -->
<g id="edge5" class="edge"><title>Node5&#45;&gt;Node6</title>
<path fill="none" stroke="midnightblue" d="M747.079,-120.428C759.738,-101.532 782.742,-71.6812 810.5,-56 859.154,-28.5144 921.898,-17.5977 969.245,-13.3668"/>
<polygon fill="midnightblue" stroke="midnightblue" points="744.063,-118.647 741.575,-128.945 749.942,-122.445 744.063,-118.647"/>
</g>
<!-- Node10 -->
<g id="node7" class="node"><title>Node10</title>
<g id="a_node7"><a xlink:href="_crc_chunk_8h.html" target="_top" xlink:title=" ">
<polygon fill="white" stroke="black" points="631.5,-62 631.5,-81 763.5,-81 763.5,-62 631.5,-62"/>
<text text-anchor="middle" x="697.5" y="-69" font-family="Helvetica,sans-Serif" font-size="10.00">Cpl/Persistent/CrcChunk.h</text>
</a>
</g>
</g>
<!-- Node5&#45;&gt;Node10 -->
<g id="edge6" class="edge"><title>Node5&#45;&gt;Node10</title>
<path fill="none" stroke="midnightblue" d="M726.021,-120.035C718.47,-107.45 708.604,-91.0072 702.676,-81.1273"/>
<polygon fill="midnightblue" stroke="midnightblue" points="723.094,-121.96 731.24,-128.734 729.097,-118.358 723.094,-121.96"/>
</g>
<!-- Node11 -->
<g id="node8" class="node"><title>Node11</title>
<g id="a_node8"><a xlink:href="_data_record_8h.html" target="_top" xlink:title=" ">
<polygon fill="white" stroke="red" points="819.5,-62 819.5,-81 959.5,-81 959.5,-62 819.5,-62"/>
<text text-anchor="middle" x="889.5" y="-69" font-family="Helvetica,sans-Serif" font-size="10.00">Cpl/Persistent/DataRecord.h</text>
</a>
</g>
</g>
<!-- Node5&#45;&gt;Node11 -->
<g id="edge7" class="edge"><title>Node5&#45;&gt;Node11</title>
<path fill="none" stroke="midnightblue" d="M766.044,-124.948C796.338,-112.079 842.651,-92.4032 869.099,-81.1672"/>
<polygon fill="midnightblue" stroke="midnightblue" points="764.653,-121.737 756.817,-128.869 767.39,-128.18 764.653,-121.737"/>
</g>
<!-- Node13 -->
<g id="node9" class="node"><title>Node13</title>
<g id="a_node9"><a xlink:href="_indexed_entry_record_8h.html" target="_top" xlink:title=" ">
<polygon fill="white" stroke="red" points="304,-56.5 304,-86.5 443,-86.5 443,-56.5 304,-56.5"/>
<text text-anchor="start" x="312" y="-74.5" font-family="Helvetica,sans-Serif" font-size="10.00">Cpl/Persistent/IndexedEntry</text>
<text text-anchor="middle" x="373.5" y="-63.5" font-family="Helvetica,sans-Serif" font-size="10.00">Record.h</text>
</a>
</g>
</g>
<!-- Node5&#45;&gt;Node13 -->
<g id="edge8" class="edge"><title>Node5&#45;&gt;Node13</title>
<path fill="none" stroke="midnightblue" d="M678.01,-127.197C620.579,-117.058 530.487,-101.091 452.5,-87 449.481,-86.4546 446.398,-85.8958 443.283,-85.33"/>
<polygon fill="midnightblue" stroke="midnightblue" points="677.536,-130.668 687.992,-128.959 678.753,-123.774 677.536,-130.668"/>
</g>
<!-- Node15 -->
<g id="node10" class="node"><title>Node15</title>
<g id="a_node10"><a xlink:href="_mirrored_chunk_8h.html" target="_top" xlink:title=" ">
<polygon fill="white" stroke="black" points="461.5,-62 461.5,-81 613.5,-81 613.5,-62 461.5,-62"/>
<text text-anchor="middle" x="537.5" y="-69" font-family="Helvetica,sans-Serif" font-size="10.00">Cpl/Persistent/MirroredChunk.h</text>
</a>
</g>
</g>
<!-- Node5&#45;&gt;Node15 -->
<g id="edge9" class="edge"><title>Node5&#45;&gt;Node15</title>
<path fill="none" stroke="midnightblue" d="M700.323,-125.683C660.88,-112.8 598.722,-92.4971 563.718,-81.0637"/>
<polygon fill="midnightblue" stroke="midnightblue" points="699.482,-129.091 710.074,-128.869 701.655,-122.437 699.482,-129.091"/>
</g>
<!-- Node16&#45;&gt;Node6 -->
<g id="edge11" class="edge"><title>Node16&#45;&gt;Node6</title>
<path fill="none" stroke="midnightblue" d="M930.471,-122.051C941.65,-112.257 956.19,-99.1808 968.5,-87 992.217,-63.5317 1018.42,-34.0459 1030.98,-19.6755"/>
<polygon fill="midnightblue" stroke="midnightblue" points="927.921,-119.63 922.67,-128.832 932.513,-124.913 927.921,-119.63"/>
</g>
<!-- Node16&#45;&gt;Node11 -->
<g id="edge12" class="edge"><title>Node16&#45;&gt;Node11</title>
<path fill="none" stroke="midnightblue" d="M906.056,-119.29C901.64,-106.808 895.98,-90.8135 892.553,-81.1273"/>
<polygon fill="midnightblue" stroke="midnightblue" points="902.763,-120.474 909.398,-128.734 909.362,-118.139 902.763,-120.474"/>
</g>
<!-- Node16&#45;&gt;Node17 -->
<g id="edge13" class="edge"><title>Node16&#45;&gt;Node17</title>
<path fill="none" stroke="midnightblue" d="M945.536,-125.436C980.847,-112.542 1035.94,-92.4243 1067.05,-81.0637"/>
<polygon fill="midnightblue" stroke="midnightblue" points="944.33,-122.151 936.137,-128.869 946.731,-128.726 944.33,-122.151"/>
</g>
<!-- Node17&#45;&gt;Node6 -->
<g id="edge14" class="edge"><title>Node17&#45;&gt;Node6</title>
<path fill="none" stroke="midnightblue" d="M1076.23,-54.1685C1066.42,-42.952 1053.81,-28.5161 1045.94,-19.5091"/>
<polygon fill="midnightblue" stroke="midnightblue" points="1073.83,-56.7486 1083.05,-61.9751 1079.1,-52.1422 1073.83,-56.7486"/>
</g>
<!-- Node18&#45;&gt;Node10 -->
<g id="edge17" class="edge"><title>Node18&#45;&gt;Node10</title>
<path fill="none" stroke="midnightblue" d="M568.013,-125.104C599.781,-112.198 648.695,-92.3272 676.42,-81.0637"/>
<polygon fill="midnightblue" stroke="midnightblue" points="566.694,-121.862 558.747,-128.869 569.329,-128.347 566.694,-121.862"/>
</g>
<!-- Node18&#45;&gt;Node13 -->
<g id="edge19" class="edge"><title>Node18&#45;&gt;Node13</title>
<path fill="none" stroke="midnightblue" d="M506.108,-125.058C478.326,-114.047 437.819,-97.9921 408.894,-86.5281"/>
<polygon fill="midnightblue" stroke="midnightblue" points="505.136,-128.438 515.722,-128.869 507.715,-121.93 505.136,-128.438"/>
</g>
<!-- Node18&#45;&gt;Node15 -->
<g id="edge20" class="edge"><title>Node18&#45;&gt;Node15</title>
<path fill="none" stroke="midnightblue" d="M537.5,-118.537C537.5,-106.17 537.5,-90.6198 537.5,-81.1273"/>
<polygon fill="midnightblue" stroke="midnightblue" points="534,-118.734 537.5,-128.734 541,-118.734 534,-118.734"/>
</g>
<!-- Node19 -->
<g id="node14" class="node"><title>Node19</title>
<g id="a_node14"><a xlink:href="_file_adapter_8h.html" target="_top" xlink:title=" ">
<polygon fill="white" stroke="black" points="0,-62 0,-81 139,-81 139,-62 0,-62"/>
<text text-anchor="middle" x="69.5" y="-69" font-family="Helvetica,sans-Serif" font-size="10.00">Cpl/Persistent/FileAdapter.h</text>
</a>
</g>
</g>
<!-- Node18&#45;&gt;Node19 -->
<g id="edge18" class="edge"><title>Node18&#45;&gt;Node19</title>
<path fill="none" stroke="midnightblue" d="M481.45,-127.27C472.451,-125.754 463.229,-124.275 454.5,-123 319,-103.209 283.914,-107.371 148.5,-87 137.055,-85.2783 124.727,-83.1487 113.292,-81.0569"/>
<polygon fill="midnightblue" stroke="midnightblue" points="481.029,-130.749 491.476,-128.988 482.211,-123.849 481.029,-130.749"/>
</g>
<!-- Node20 -->
<g id="node15" class="node"><title>Node20</title>
<g id="a_node15"><a xlink:href="_null_region_media_8h.html" target="_top" xlink:title=" ">
<polygon fill="white" stroke="black" points="157.5,-56.5 157.5,-86.5 285.5,-86.5 285.5,-56.5 157.5,-56.5"/>
<text text-anchor="start" x="165.5" y="-74.5" font-family="Helvetica,sans-Serif" font-size="10.00">Cpl/Persistent/NullRegion</text>
<text text-anchor="middle" x="221.5" y="-63.5" font-family="Helvetica,sans-Serif" font-size="10.00">Media.h</text>
</a>
</g>
</g>
<!-- Node18&#45;&gt;Node20 -->
<g id="edge21" class="edge"><title>Node18&#45;&gt;Node20</title>
<path fill="none" stroke="midnightblue" d="M486.037,-126.914C431.352,-115.666 344.789,-97.8601 285.685,-85.7027"/>
<polygon fill="midnightblue" stroke="midnightblue" points="485.363,-130.349 495.864,-128.936 486.774,-123.492 485.363,-130.349"/>
</g>
<!-- Node24 -->
<g id="node19" class="node"><title>Node24</title>
<g id="a_node19"><a xlink:href="_model_point_common___8h.html" target="_top" xlink:title=" ">
<polygon fill="white" stroke="red" points="1649,-129 1649,-148 1802,-148 1802,-129 1649,-129"/>
<text text-anchor="middle" x="1725.5" y="-136" font-family="Helvetica,sans-Serif" font-size="10.00">Cpl/Dm/ModelPointCommon_.h</text>
</a>
</g>
</g>
<!-- Node23&#45;&gt;Node24 -->
<g id="edge25" class="edge"><title>Node23&#45;&gt;Node24</title>
<path fill="none" stroke="midnightblue" d="M1337.2,-193.687C1343.33,-192.357 1349.56,-191.087 1355.5,-190 1456.26,-171.567 1573.59,-156.651 1648.65,-147.932"/>
<polygon fill="midnightblue" stroke="midnightblue" points="1336.04,-190.36 1327.04,-195.956 1337.57,-197.191 1336.04,-190.36"/>
</g>
<!-- Node48 -->
<g id="node24" class="node"><title>Node48</title>
<g id="a_node24"><a xlink:href="_mp_thermostat_mode_8h.html" target="_top" xlink:title=" ">
<polygon fill="white" stroke="red" points="1926,-0.5 1926,-19.5 2085,-19.5 2085,-0.5 1926,-0.5"/>
<text text-anchor="middle" x="2005.5" y="-7.5" font-family="Helvetica,sans-Serif" font-size="10.00">Storm/Dm/MpThermostatMode.h</text>
</a>
</g>
</g>
<!-- Node23&#45;&gt;Node48 -->
<g id="edge35" class="edge"><title>Node23&#45;&gt;Node48</title>
<path fill="none" stroke="midnightblue" d="M1335.58,-193.701C1342.22,-192.293 1349.02,-190.996 1355.5,-190 1556,-159.167 1611.29,-192.284 1810.5,-154 1909.21,-135.031 1966.88,-167.919 2026.5,-87 2041.77,-66.2816 2023.28,-35.006 2012.39,-19.8527"/>
<polygon fill="midnightblue" stroke="midnightblue" points="1334.35,-190.389 1325.35,-195.977 1335.87,-197.222 1334.35,-190.389"/>
</g>
<!-- Node73 -->
<g id="node26" class="node"><title>Node73</title>
<g id="a_node26"><a xlink:href="_subscriber_composer_8h.html" target="_top" xlink:title=" ">
<polygon fill="white" stroke="red" points="1233,-129 1233,-148 1384,-148 1384,-129 1233,-129"/>
<text text-anchor="middle" x="1308.5" y="-136" font-family="Helvetica,sans-Serif" font-size="10.00">Cpl/Dm/SubscriberComposer.h</text>
</a>
</g>
</g>
<!-- Node23&#45;&gt;Node73 -->
<g id="edge32" class="edge"><title>Node23&#45;&gt;Node73</title>
<path fill="none" stroke="midnightblue" d="M1297.07,-185.915C1300.13,-173.488 1304.02,-157.717 1306.38,-148.127"/>
<polygon fill="midnightblue" stroke="midnightblue" points="1293.65,-185.187 1294.66,-195.734 1300.45,-186.86 1293.65,-185.187"/>
</g>
<!-- Node25 -->
<g id="node20" class="node"><title>Node25</title>
<g id="a_node20"><a xlink:href="_array___8h.html" target="_top" xlink:title=" ">
<polygon fill="white" stroke="black" points="1673,-62 1673,-81 1778,-81 1778,-62 1673,-62"/>
<text text-anchor="middle" x="1725.5" y="-69" font-family="Helvetica,sans-Serif" font-size="10.00">Cpl/Dm/Mp/Array_.h</text>
</a>
</g>
</g>
<!-- Node24&#45;&gt;Node25 -->
<g id="edge26" class="edge"><title>Node24&#45;&gt;Node25</title>
<path fill="none" stroke="midnightblue" d="M1725.5,-118.537C1725.5,-106.17 1725.5,-90.6198 1725.5,-81.1273"/>
<polygon fill="midnightblue" stroke="midnightblue" points="1722,-118.734 1725.5,-128.734 1729,-118.734 1722,-118.734"/>
</g>
<!-- Node26 -->
<g id="node21" class="node"><title>Node26</title>
<g id="a_node21"><a xlink:href="_bool_8h.html" target="_top" xlink:title=" ">
<polygon fill="white" stroke="red" points="1796.5,-62 1796.5,-81 1892.5,-81 1892.5,-62 1796.5,-62"/>
<text text-anchor="middle" x="1844.5" y="-69" font-family="Helvetica,sans-Serif" font-size="10.00">Cpl/Dm/Mp/Bool.h</text>
</a>
</g>
</g>
<!-- Node24&#45;&gt;Node26 -->
<g id="edge27" class="edge"><title>Node24&#45;&gt;Node26</title>
<path fill="none" stroke="midnightblue" d="M1750.61,-123.787C1774.19,-110.905 1808.76,-92.0243 1828.71,-81.1273"/>
<polygon fill="midnightblue" stroke="midnightblue" points="1748.65,-120.868 1741.55,-128.734 1752,-127.012 1748.65,-120.868"/>
</g>
<!-- Node44 -->
<g id="node22" class="node"><title>Node44</title>
<g id="a_node22"><a xlink:href="_elapsed_precision_time_8h.html" target="_top" xlink:title=" ">
<polygon fill="white" stroke="red" points="1379.5,-56.5 1379.5,-86.5 1523.5,-86.5 1523.5,-56.5 1379.5,-56.5"/>
<text text-anchor="start" x="1387.5" y="-74.5" font-family="Helvetica,sans-Serif" font-size="10.00">Cpl/Dm/Mp/ElapsedPrecision</text>
<text text-anchor="middle" x="1451.5" y="-63.5" font-family="Helvetica,sans-Serif" font-size="10.00">Time.h</text>
</a>
</g>
</g>
<!-- Node24&#45;&gt;Node44 -->
<g id="edge28" class="edge"><title>Node24&#45;&gt;Node44</title>
<path fill="none" stroke="midnightblue" d="M1679.62,-126.616C1633.26,-115.617 1561.42,-98.575 1510.76,-86.5592"/>
<polygon fill="midnightblue" stroke="midnightblue" points="1678.86,-130.033 1689.4,-128.936 1680.48,-123.222 1678.86,-130.033"/>
</g>
<!-- Node46 -->
<g id="node23" class="node"><title>Node46</title>
<g id="a_node23"><a xlink:href="_enum___8h.html" target="_top" xlink:title=" ">
<polygon fill="white" stroke="red" points="1911,-62 1911,-81 2018,-81 2018,-62 1911,-62"/>
<text text-anchor="middle" x="1964.5" y="-69" font-family="Helvetica,sans-Serif" font-size="10.00">Cpl/Dm/Mp/Enum_.h</text>
</a>
</g>
</g>
<!-- Node24&#45;&gt;Node46 -->
<g id="edge29" class="edge"><title>Node24&#45;&gt;Node46</title>
<path fill="none" stroke="midnightblue" d="M1767.15,-126.172C1814.41,-113.319 1890.44,-92.6427 1933.01,-81.0637"/>
<polygon fill="midnightblue" stroke="midnightblue" points="1765.97,-122.867 1757.24,-128.869 1767.81,-129.621 1765.97,-122.867"/>
</g>
<!-- Node49 -->
<g id="node25" class="node"><title>Node49</title>
<g id="a_node25"><a xlink:href="_numeric_8h.html" target="_top" xlink:title=" ">
<polygon fill="white" stroke="red" points="1542,-62 1542,-81 1655,-81 1655,-62 1542,-62"/>
<text text-anchor="middle" x="1598.5" y="-69" font-family="Helvetica,sans-Serif" font-size="10.00">Cpl/Dm/Mp/Numeric.h</text>
</a>
</g>
</g>
<!-- Node24&#45;&gt;Node49 -->
<g id="edge31" class="edge"><title>Node24&#45;&gt;Node49</title>
<path fill="none" stroke="midnightblue" d="M1699.66,-124.274C1674.5,-111.4 1637.01,-92.2086 1615.43,-81.1672"/>
<polygon fill="midnightblue" stroke="midnightblue" points="1698.14,-127.428 1708.64,-128.869 1701.33,-121.197 1698.14,-127.428"/>
</g>
<!-- Node46&#45;&gt;Node48 -->
<g id="edge30" class="edge"><title>Node46&#45;&gt;Node48</title>
<path fill="none" stroke="midnightblue" d="M1976.21,-53.5051C1983.87,-42.388 1993.55,-28.3395 1999.64,-19.5091"/>
<polygon fill="midnightblue" stroke="midnightblue" points="1973.17,-51.7548 1970.37,-61.9751 1978.93,-55.7267 1973.17,-51.7548"/>
</g>
<!-- Node73&#45;&gt;Node6 -->
<g id="edge33" class="edge"><title>Node73&#45;&gt;Node6</title>
<path fill="none" stroke="midnightblue" d="M1321.79,-120.435C1334.06,-102.467 1348.21,-74.2974 1332.5,-56 1304.12,-22.9443 1185.41,-13.9146 1107.78,-11.5993"/>
<polygon fill="midnightblue" stroke="midnightblue" points="1318.76,-118.648 1315.71,-128.794 1324.42,-122.766 1318.76,-118.648"/>
</g>
<!-- Node73&#45;&gt;Node22 -->
<g id="edge34" class="edge"><title>Node73&#45;&gt;Node22</title>
<path fill="none" stroke="midnightblue" d="M1294.53,-120.989C1285.54,-110.364 1273.98,-96.702 1265.42,-86.589"/>
<polygon fill="midnightblue" stroke="midnightblue" points="1291.95,-123.361 1301.08,-128.734 1297.29,-118.839 1291.95,-123.361"/>
</g>
<!-- Node75 -->
<g id="node28" class="node"><title>Node75</title>
<g id="a_node28"><a xlink:href="_posix_2_listener_8h.html" target="_top" xlink:title=" ">
<polygon fill="white" stroke="black" points="1364.5,-190.5 1364.5,-220.5 1468.5,-220.5 1468.5,-190.5 1364.5,-190.5"/>
<text text-anchor="start" x="1372.5" y="-208.5" font-family="Helvetica,sans-Serif" font-size="10.00">Cpl/Io/Socket/Posix</text>
<text text-anchor="middle" x="1416.5" y="-197.5" font-family="Helvetica,sans-Serif" font-size="10.00">/Listener.h</text>
</a>
</g>
</g>
<!-- Node74&#45;&gt;Node75 -->
<g id="edge37" class="edge"><title>Node74&#45;&gt;Node75</title>
<path fill="none" stroke="midnightblue" d="M1416.5,-252.411C1416.5,-242.222 1416.5,-229.901 1416.5,-220.589"/>
<polygon fill="midnightblue" stroke="midnightblue" points="1413,-252.734 1416.5,-262.734 1420,-252.734 1413,-252.734"/>
</g>
<!-- Node76 -->
<g id="node29" class="node"><title>Node76</title>
<g id="a_node29"><a xlink:href="_win32_2_listener_8h.html" target="_top" xlink:title=" ">
<polygon fill="white" stroke="black" points="1486.5,-190.5 1486.5,-220.5 1592.5,-220.5 1592.5,-190.5 1486.5,-190.5"/>
<text text-anchor="start" x="1494.5" y="-208.5" font-family="Helvetica,sans-Serif" font-size="10.00">Cpl/Io/Socket/Win32</text>
<text text-anchor="middle" x="1539.5" y="-197.5" font-family="Helvetica,sans-Serif" font-size="10.00">/Listener.h</text>
</a>
</g>
</g>
<!-- Node74&#45;&gt;Node76 -->
<g id="edge38" class="edge"><title>Node74&#45;&gt;Node76</title>
<path fill="none" stroke="midnightblue" d="M1441.68,-258.194C1462.37,-247.261 1491.61,-231.81 1512.72,-220.652"/>
<polygon fill="midnightblue" stroke="midnightblue" points="1440.04,-255.102 1432.83,-262.869 1443.31,-261.291 1440.04,-255.102"/>
</g>
<!-- Node82&#45;&gt;Node22 -->
<g id="edge50" class="edge"><title>Node82&#45;&gt;Node22</title>
<path fill="none" stroke="midnightblue" d="M2252.34,-260.661C2246.69,-259.374 2240.97,-258.121 2235.5,-257 1972.16,-203.002 1903.5,-204.664 1639.5,-154 1525.32,-132.087 1392.84,-103.401 1316.54,-86.5578"/>
<polygon fill="midnightblue" stroke="midnightblue" points="2251.85,-264.14 2262.39,-262.995 2253.44,-257.322 2251.85,-264.14"/>
</g>
<!-- Node83 -->
<g id="node36" class="node"><title>Node83</title>
<g id="a_node36"><a xlink:href="helpers_8h.html" target="_top" xlink:title="This file defines helper functions/interface for writing unit tests.">
<polygon fill="white" stroke="black" points="2123,-196 2123,-215 2208,-215 2208,-196 2123,-196"/>
<text text-anchor="middle" x="2165.5" y="-203" font-family="Helvetica,sans-Serif" font-size="10.00">Catch/helpers.h</text>
</a>
</g>
</g>
<!-- Node82&#45;&gt;Node83 -->
<g id="edge45" class="edge"><title>Node82&#45;&gt;Node83</title>
<path fill="none" stroke="midnightblue" d="M2269.84,-258.274C2243.9,-245.4 2205.22,-226.209 2182.97,-215.167"/>
<polygon fill="midnightblue" stroke="midnightblue" points="2268.59,-261.559 2279.1,-262.869 2271.7,-255.288 2268.59,-261.559"/>
</g>
<!-- Node84 -->
<g id="node37" class="node"><title>Node84</title>
<g id="a_node37"><a xlink:href="_cpl_2_system_2_private___8h.html" target="_top" xlink:title="This file contains a collection of classes, interfaces, etc.">
<polygon fill="white" stroke="black" points="2226,-196 2226,-215 2341,-215 2341,-196 2226,-196"/>
<text text-anchor="middle" x="2283.5" y="-203" font-family="Helvetica,sans-Serif" font-size="10.00">Cpl/System/Private_.h</text>
</a>
</g>
</g>
<!-- Node82&#45;&gt;Node84 -->
<g id="edge46" class="edge"><title>Node82&#45;&gt;Node84</title>
<path fill="none" stroke="midnightblue" d="M2292.78,-252.915C2290.3,-240.488 2287.14,-224.717 2285.23,-215.127"/>
<polygon fill="midnightblue" stroke="midnightblue" points="2289.35,-253.614 2294.75,-262.734 2296.22,-252.242 2289.35,-253.614"/>
</g>
<!-- Node87 -->
<g id="node40" class="node"><title>Node87</title>
<g id="a_node40"><a xlink:href="_fsm__trace___8h.html" target="_top" xlink:title=" ">
<polygon fill="white" stroke="black" points="2359,-190.5 2359,-220.5 2504,-220.5 2504,-190.5 2359,-190.5"/>
<text text-anchor="start" x="2367" y="-208.5" font-family="Helvetica,sans-Serif" font-size="10.00">Storm/Component/Equipment</text>
<text text-anchor="middle" x="2431.5" y="-197.5" font-family="Helvetica,sans-Serif" font-size="10.00">/Stage/Fsm_trace_.h</text>
</a>
</g>
</g>
<!-- Node82&#45;&gt;Node87 -->
<g id="edge49" class="edge"><title>Node82&#45;&gt;Node87</title>
<path fill="none" stroke="midnightblue" d="M2323.55,-258.474C2346.38,-247.485 2378.97,-231.791 2402.36,-220.528"/>
<polygon fill="midnightblue" stroke="midnightblue" points="2321.92,-255.377 2314.43,-262.869 2324.96,-261.684 2321.92,-255.377"/>
</g>
<!-- Node85 -->
<g id="node38" class="node"><title>Node85</title>
<g id="a_node38"><a xlink:href="_cpl_2_t_shell_2_maker_8h.html" target="_top" xlink:title=" ">
<polygon fill="white" stroke="black" points="2167.5,-129 2167.5,-148 2267.5,-148 2267.5,-129 2167.5,-129"/>
<text text-anchor="middle" x="2217.5" y="-136" font-family="Helvetica,sans-Serif" font-size="10.00">Cpl/TShell/Maker.h</text>
</a>
</g>
</g>
<!-- Node84&#45;&gt;Node85 -->
<g id="edge47" class="edge"><title>Node84&#45;&gt;Node85</title>
<path fill="none" stroke="midnightblue" d="M2267.25,-188.497C2254.31,-175.75 2236.69,-158.395 2226.26,-148.127"/>
<polygon fill="midnightblue" stroke="midnightblue" points="2265.02,-191.211 2274.6,-195.734 2269.93,-186.223 2265.02,-191.211"/>
</g>
<!-- Node86 -->
<g id="node39" class="node"><title>Node86</title>
<g id="a_node39"><a xlink:href="_polled_maker_8h.html" target="_top" xlink:title=" ">
<polygon fill="white" stroke="black" points="2286,-129 2286,-148 2413,-148 2413,-129 2286,-129"/>
<text text-anchor="middle" x="2349.5" y="-136" font-family="Helvetica,sans-Serif" font-size="10.00">Cpl/TShell/PolledMaker.h</text>
</a>
</g>
</g>
<!-- Node84&#45;&gt;Node86 -->
<g id="edge48" class="edge"><title>Node84&#45;&gt;Node86</title>
<path fill="none" stroke="midnightblue" d="M2299.75,-188.497C2312.69,-175.75 2330.31,-158.395 2340.74,-148.127"/>
<polygon fill="midnightblue" stroke="midnightblue" points="2297.07,-186.223 2292.4,-195.734 2301.98,-191.211 2297.07,-186.223"/>
</g>
<!-- Node90 -->
<g id="node43" class="node"><title>Node90</title>
<g id="a_node43"><a xlink:href="_free_r_t_o_s_2_threads_8h.html" target="_top" xlink:title=" ">
<polygon fill="white" stroke="black" points="2522.5,-190.5 2522.5,-220.5 2656.5,-220.5 2656.5,-190.5 2522.5,-190.5"/>
<text text-anchor="start" x="2530.5" y="-208.5" font-family="Helvetica,sans-Serif" font-size="10.00">Cpl/TShell/Cmd/FreeRTOS</text>
<text text-anchor="middle" x="2589.5" y="-197.5" font-family="Helvetica,sans-Serif" font-size="10.00">/Threads.h</text>
</a>
</g>
</g>
<!-- Node89&#45;&gt;Node90 -->
<g id="edge53" class="edge"><title>Node89&#45;&gt;Node90</title>
<path fill="none" stroke="midnightblue" d="M2589.5,-252.411C2589.5,-242.222 2589.5,-229.901 2589.5,-220.589"/>
<polygon fill="midnightblue" stroke="midnightblue" points="2586,-252.734 2589.5,-262.734 2593,-252.734 2586,-252.734"/>
</g>
<!-- Node91 -->
<g id="node44" class="node"><title>Node91</title>
<g id="a_node44"><a xlink:href="_win32_2_threads_8h.html" target="_top" xlink:title=" ">
<polygon fill="white" stroke="black" points="2675,-190.5 2675,-220.5 2790,-220.5 2790,-190.5 2675,-190.5"/>
<text text-anchor="start" x="2683" y="-208.5" font-family="Helvetica,sans-Serif" font-size="10.00">Cpl/TShell/Cmd/Win32</text>
<text text-anchor="middle" x="2732.5" y="-197.5" font-family="Helvetica,sans-Serif" font-size="10.00">/Threads.h</text>
</a>
</g>
</g>
<!-- Node89&#45;&gt;Node91 -->
<g id="edge54" class="edge"><title>Node89&#45;&gt;Node91</title>
<path fill="none" stroke="midnightblue" d="M2617.83,-258.621C2642.02,-247.625 2676.75,-231.841 2701.64,-220.528"/>
<polygon fill="midnightblue" stroke="midnightblue" points="2616.14,-255.544 2608.49,-262.869 2619.04,-261.917 2616.14,-255.544"/>
</g>
<!-- Node95 -->
<g id="node48" class="node"><title>Node95</title>
<g id="a_node48"><a xlink:href="_driver_2_uart_2_stream_2_input_output___8h.html" target="_top" xlink:title=" ">
<polygon fill="white" stroke="black" points="2967.5,-190.5 2967.5,-220.5 3065.5,-220.5 3065.5,-190.5 2967.5,-190.5"/>
<text text-anchor="start" x="2975.5" y="-208.5" font-family="Helvetica,sans-Serif" font-size="10.00">Driver/Uart/Stream</text>
<text text-anchor="middle" x="3016.5" y="-197.5" font-family="Helvetica,sans-Serif" font-size="10.00">/InputOutput_.h</text>
</a>
</g>
</g>
<!-- Node94&#45;&gt;Node95 -->
<g id="edge58" class="edge"><title>Node94&#45;&gt;Node95</title>
<path fill="none" stroke="midnightblue" d="M2977.92,-249.736C2986.5,-240.119 2996.34,-229.089 3003.94,-220.577"/>
<polygon fill="midnightblue" stroke="midnightblue" points="2975.13,-247.604 2971.09,-257.396 2980.35,-252.265 2975.13,-247.604"/>
</g>
<!-- Node96 -->
<g id="node49" class="node"><title>Node96</title>
<g id="a_node49"><a xlink:href="_serial_2_renesas_2_rx62n_2_input_output_8h.html" target="_top" xlink:title=" ">
<polygon fill="white" stroke="black" points="2961,-123.5 2961,-153.5 3072,-153.5 3072,-123.5 2961,-123.5"/>
<text text-anchor="start" x="2969" y="-141.5" font-family="Helvetica,sans-Serif" font-size="10.00">Cpl/Io/Serial/Renesas</text>
<text text-anchor="middle" x="3016.5" y="-130.5" font-family="Helvetica,sans-Serif" font-size="10.00">/Rx62n/InputOutput.h</text>
</a>
</g>
</g>
<!-- Node95&#45;&gt;Node96 -->
<g id="edge59" class="edge"><title>Node95&#45;&gt;Node96</title>
<path fill="none" stroke="midnightblue" d="M3016.5,-180.108C3016.5,-171.154 3016.5,-161.323 3016.5,-153.577"/>
<polygon fill="midnightblue" stroke="midnightblue" points="3013,-180.396 3016.5,-190.396 3020,-180.396 3013,-180.396"/>
</g>
<!-- Node97&#45;&gt;Node95 -->
<g id="edge61" class="edge"><title>Node97&#45;&gt;Node95</title>
<path fill="none" stroke="midnightblue" d="M3055.08,-249.736C3046.5,-240.119 3036.66,-229.089 3029.06,-220.577"/>
<polygon fill="midnightblue" stroke="midnightblue" points="3052.65,-252.265 3061.91,-257.396 3057.87,-247.604 3052.65,-252.265"/>
</g>
</g>
</svg>
