<?xml version="1.0" encoding="UTF-8" standalone="no"?>
<!DOCTYPE svg PUBLIC "-//W3C//DTD SVG 1.1//EN"
 "http://www.w3.org/Graphics/SVG/1.1/DTD/svg11.dtd">
<!-- Generated by graphviz version 2.38.0 (20140413.2041)
 -->
<!-- Title: Cpl/System/Thread.h Pages: 1 -->
<svg width="2758pt" height="486pt"
 viewBox="0.00 0.00 2758.20 486.00" xmlns="http://www.w3.org/2000/svg" xmlns:xlink="http://www.w3.org/1999/xlink">
<g id="graph0" class="graph" transform="scale(1 1) rotate(0) translate(4 482)">
<title>Cpl/System/Thread.h</title>
<polygon fill="white" stroke="none" points="-4,4 -4,-482 2754.2,-482 2754.2,4 -4,4"/>
<!-- Node1 -->
<g id="node1" class="node"><title>Node1</title>
<g id="a_node1"><a xlink:title=" ">
<polygon fill="#bfbfbf" stroke="black" points="1796.7,-458.5 1796.7,-477.5 1905.7,-477.5 1905.7,-458.5 1796.7,-458.5"/>
<text text-anchor="middle" x="1851.2" y="-465.5" font-family="Helvetica,sans-Serif" font-size="10.00">Cpl/System/Thread.h</text>
</a>
</g>
</g>
<!-- Node2 -->
<g id="node2" class="node"><title>Node2</title>
<g id="a_node2"><a xlink:href="_dm_2_event_loop_8h.html" target="_top" xlink:title=" ">
<polygon fill="white" stroke="black" points="854.701,-397 854.701,-416 961.701,-416 961.701,-397 854.701,-397"/>
<text text-anchor="middle" x="908.201" y="-404" font-family="Helvetica,sans-Serif" font-size="10.00">Cpl/Dm/EventLoop.h</text>
</a>
</g>
</g>
<!-- Node1&#45;&gt;Node2 -->
<g id="edge1" class="edge"><title>Node1&#45;&gt;Node2</title>
<path fill="none" stroke="midnightblue" d="M1786.34,-467.636C1639.98,-468.211 1273.23,-464.823 970.201,-422 960.241,-420.592 949.528,-418.353 939.855,-416.052"/>
<polygon fill="midnightblue" stroke="midnightblue" points="1786.51,-471.136 1796.49,-467.589 1786.47,-464.136 1786.51,-471.136"/>
</g>
<!-- Node36 -->
<g id="node28" class="node"><title>Node36</title>
<g id="a_node28"><a xlink:href="_listener___8h.html" target="_top" xlink:title=" ">
<polygon fill="white" stroke="black" points="979.701,-397 979.701,-416 1106.7,-416 1106.7,-397 979.701,-397"/>
<text text-anchor="middle" x="1043.2" y="-404" font-family="Helvetica,sans-Serif" font-size="10.00">Cpl/Io/Socket/Listener_.h</text>
</a>
</g>
</g>
<!-- Node1&#45;&gt;Node36 -->
<g id="edge37" class="edge"><title>Node1&#45;&gt;Node36</title>
<path fill="none" stroke="midnightblue" d="M1786.41,-466.03C1657.88,-463.448 1361.77,-454.21 1115.2,-422 1103.82,-420.513 1091.55,-418.28 1080.41,-416.009"/>
<polygon fill="midnightblue" stroke="midnightblue" points="1786.41,-469.531 1796.48,-466.226 1786.55,-462.532 1786.41,-469.531"/>
</g>
<!-- Node39 -->
<g id="node31" class="node"><title>Node39</title>
<g id="a_node31"><a xlink:href="_bare_metal_2_thread_8h.html" target="_top" xlink:title=" ">
<polygon fill="white" stroke="black" points="1124.7,-391.5 1124.7,-421.5 1239.7,-421.5 1239.7,-391.5 1124.7,-391.5"/>
<text text-anchor="start" x="1132.7" y="-409.5" font-family="Helvetica,sans-Serif" font-size="10.00">Cpl/System/BareMetal</text>
<text text-anchor="middle" x="1182.2" y="-398.5" font-family="Helvetica,sans-Serif" font-size="10.00">/Thread.h</text>
</a>
</g>
</g>
<!-- Node1&#45;&gt;Node39 -->
<g id="edge40" class="edge"><title>Node1&#45;&gt;Node39</title>
<path fill="none" stroke="midnightblue" d="M1786.56,-465.104C1675.97,-461.206 1443.58,-450.16 1249.2,-422 1246.14,-421.556 1243.01,-421.053 1239.85,-420.507"/>
<polygon fill="midnightblue" stroke="midnightblue" points="1786.44,-468.602 1796.55,-465.448 1786.68,-461.606 1786.44,-468.602"/>
</g>
<!-- Node40 -->
<g id="node32" class="node"><title>Node40</title>
<g id="a_node32"><a xlink:href="_cpp11_2_thread_8h.html" target="_top" xlink:title=" ">
<polygon fill="white" stroke="black" points="1258.2,-397 1258.2,-416 1398.2,-416 1398.2,-397 1258.2,-397"/>
<text text-anchor="middle" x="1328.2" y="-404" font-family="Helvetica,sans-Serif" font-size="10.00">Cpl/System/Cpp11/Thread.h</text>
</a>
</g>
</g>
<!-- Node1&#45;&gt;Node40 -->
<g id="edge41" class="edge"><title>Node1&#45;&gt;Node40</title>
<path fill="none" stroke="midnightblue" d="M1786.49,-462.085C1699.87,-455.13 1541.54,-441.104 1407.2,-422 1395.47,-420.331 1382.82,-418.172 1371.15,-416.032"/>
<polygon fill="midnightblue" stroke="midnightblue" points="1786.45,-465.592 1796.69,-462.898 1787,-458.614 1786.45,-465.592"/>
</g>
<!-- Node41 -->
<g id="node33" class="node"><title>Node41</title>
<g id="a_node33"><a xlink:href="_free_r_t_o_s_2_thread_8h.html" target="_top" xlink:title=" ">
<polygon fill="white" stroke="black" points="1416.7,-391.5 1416.7,-421.5 1533.7,-421.5 1533.7,-391.5 1416.7,-391.5"/>
<text text-anchor="start" x="1424.7" y="-409.5" font-family="Helvetica,sans-Serif" font-size="10.00">Cpl/System/FreeRTOS</text>
<text text-anchor="middle" x="1475.2" y="-398.5" font-family="Helvetica,sans-Serif" font-size="10.00">/Thread.h</text>
</a>
</g>
</g>
<!-- Node1&#45;&gt;Node41 -->
<g id="edge42" class="edge"><title>Node1&#45;&gt;Node41</title>
<path fill="none" stroke="midnightblue" d="M1786.46,-458.885C1723.8,-450.72 1626.21,-437.19 1542.2,-422 1539.51,-421.513 1536.76,-420.996 1533.98,-420.46"/>
<polygon fill="midnightblue" stroke="midnightblue" points="1786.23,-462.384 1796.6,-460.198 1787.13,-455.442 1786.23,-462.384"/>
</g>
<!-- Node42 -->
<g id="node34" class="node"><title>Node42</title>
<g id="a_node34"><a xlink:href="_posix_2_thread_8h.html" target="_top" xlink:title=" ">
<polygon fill="white" stroke="black" points="1551.7,-397 1551.7,-416 1688.7,-416 1688.7,-397 1551.7,-397"/>
<text text-anchor="middle" x="1620.2" y="-404" font-family="Helvetica,sans-Serif" font-size="10.00">Cpl/System/Posix/Thread.h</text>
</a>
</g>
</g>
<!-- Node1&#45;&gt;Node42 -->
<g id="edge43" class="edge"><title>Node1&#45;&gt;Node42</title>
<path fill="none" stroke="midnightblue" d="M1808.37,-455.968C1763.52,-444.415 1694.03,-426.517 1653.24,-416.009"/>
<polygon fill="midnightblue" stroke="midnightblue" points="1807.55,-459.37 1818.1,-458.475 1809.29,-452.591 1807.55,-459.37"/>
</g>
<!-- Node43 -->
<g id="node35" class="node"><title>Node43</title>
<g id="a_node35"><a xlink:href="_r_p2040_2_thread_8h.html" target="_top" xlink:title=" ">
<polygon fill="white" stroke="black" points="1707.2,-397 1707.2,-416 1853.2,-416 1853.2,-397 1707.2,-397"/>
<text text-anchor="middle" x="1780.2" y="-404" font-family="Helvetica,sans-Serif" font-size="10.00">Cpl/System/RP2040/Thread.h</text>
</a>
</g>
</g>
<!-- Node1&#45;&gt;Node43 -->
<g id="edge44" class="edge"><title>Node1&#45;&gt;Node43</title>
<path fill="none" stroke="midnightblue" d="M1833.27,-451.973C1819.69,-440.593 1801.52,-425.369 1790.36,-416.009"/>
<polygon fill="midnightblue" stroke="midnightblue" points="1831.12,-454.735 1841.03,-458.475 1835.61,-449.369 1831.12,-454.735"/>
</g>
<!-- Node44 -->
<g id="node36" class="node"><title>Node44</title>
<g id="a_node36"><a xlink:href="_system_2_trace_8h.html" target="_top" xlink:title=" ">
<polygon fill="white" stroke="black" points="1871.2,-397 1871.2,-416 1975.2,-416 1975.2,-397 1871.2,-397"/>
<text text-anchor="middle" x="1923.2" y="-404" font-family="Helvetica,sans-Serif" font-size="10.00">Cpl/System/Trace.h</text>
</a>
</g>
</g>
<!-- Node1&#45;&gt;Node44 -->
<g id="edge45" class="edge"><title>Node1&#45;&gt;Node44</title>
<path fill="none" stroke="midnightblue" d="M1869.39,-451.973C1883.16,-440.593 1901.58,-425.369 1912.9,-416.009"/>
<polygon fill="midnightblue" stroke="midnightblue" points="1867,-449.407 1861.52,-458.475 1871.46,-454.803 1867,-449.407"/>
</g>
<!-- Node49 -->
<g id="node41" class="node"><title>Node49</title>
<g id="a_node41"><a xlink:href="_win32_2_thread_8h.html" target="_top" xlink:title=" ">
<polygon fill="white" stroke="black" points="1993.7,-397 1993.7,-416 2132.7,-416 2132.7,-397 1993.7,-397"/>
<text text-anchor="middle" x="2063.2" y="-404" font-family="Helvetica,sans-Serif" font-size="10.00">Cpl/System/Win32/Thread.h</text>
</a>
</g>
</g>
<!-- Node1&#45;&gt;Node49 -->
<g id="edge50" class="edge"><title>Node1&#45;&gt;Node49</title>
<path fill="none" stroke="midnightblue" d="M1891.29,-455.749C1932.48,-444.189 1995.68,-426.451 2032.88,-416.009"/>
<polygon fill="midnightblue" stroke="midnightblue" points="1890.26,-452.403 1881.58,-458.475 1892.15,-459.143 1890.26,-452.403"/>
</g>
<!-- Node50 -->
<g id="node42" class="node"><title>Node50</title>
<g id="a_node42"><a xlink:href="_threads_8h.html" target="_top" xlink:title=" ">
<polygon fill="white" stroke="black" points="2150.7,-397 2150.7,-416 2281.7,-416 2281.7,-397 2150.7,-397"/>
<text text-anchor="middle" x="2216.2" y="-404" font-family="Helvetica,sans-Serif" font-size="10.00">Cpl/TShell/Cmd/Threads.h</text>
</a>
</g>
</g>
<!-- Node1&#45;&gt;Node50 -->
<g id="edge51" class="edge"><title>Node1&#45;&gt;Node50</title>
<path fill="none" stroke="midnightblue" d="M1915.72,-457.688C1974.56,-449.029 2063.86,-435.472 2141.2,-422 2151.65,-420.179 2162.9,-418.081 2173.42,-416.055"/>
<polygon fill="midnightblue" stroke="midnightblue" points="1915.2,-454.226 1905.82,-459.141 1916.22,-461.152 1915.2,-454.226"/>
</g>
<!-- Node53 -->
<g id="node45" class="node"><title>Node53</title>
<g id="a_node45"><a xlink:href="_socket_8h.html" target="_top" xlink:title=" ">
<polygon fill="white" stroke="black" points="2300.2,-397 2300.2,-416 2404.2,-416 2404.2,-397 2300.2,-397"/>
<text text-anchor="middle" x="2352.2" y="-404" font-family="Helvetica,sans-Serif" font-size="10.00">Cpl/TShell/Socket.h</text>
</a>
</g>
</g>
<!-- Node1&#45;&gt;Node53 -->
<g id="edge54" class="edge"><title>Node1&#45;&gt;Node53</title>
<path fill="none" stroke="midnightblue" d="M1916.04,-462.952C2002,-456.992 2158.23,-444.103 2290.2,-422 2299.69,-420.411 2309.89,-418.228 2319.22,-416.037"/>
<polygon fill="midnightblue" stroke="midnightblue" points="1915.65,-459.47 1905.91,-463.644 1916.13,-466.454 1915.65,-459.47"/>
</g>
<!-- Node54 -->
<g id="node46" class="node"><title>Node54</title>
<g id="a_node46"><a xlink:href="_t_shell_2_stdio_8h.html" target="_top" xlink:title=" ">
<polygon fill="white" stroke="black" points="2422.7,-397 2422.7,-416 2517.7,-416 2517.7,-397 2422.7,-397"/>
<text text-anchor="middle" x="2470.2" y="-404" font-family="Helvetica,sans-Serif" font-size="10.00">Cpl/TShell/Stdio.h</text>
</a>
</g>
</g>
<!-- Node1&#45;&gt;Node54 -->
<g id="edge55" class="edge"><title>Node1&#45;&gt;Node54</title>
<path fill="none" stroke="midnightblue" d="M1915.95,-465.37C2020.98,-461.932 2234.71,-451.629 2413.2,-422 2422.17,-420.512 2431.79,-418.306 2440.52,-416.061"/>
<polygon fill="midnightblue" stroke="midnightblue" points="1915.71,-461.876 1905.83,-465.691 1915.93,-468.872 1915.71,-461.876"/>
</g>
<!-- Node55 -->
<g id="node47" class="node"><title>Node55</title>
<g id="a_node47"><a xlink:href="_receiver_8h.html" target="_top" xlink:title=" ">
<polygon fill="white" stroke="black" points="2536.2,-391.5 2536.2,-421.5 2634.2,-421.5 2634.2,-391.5 2536.2,-391.5"/>
<text text-anchor="start" x="2544.2" y="-409.5" font-family="Helvetica,sans-Serif" font-size="10.00">Driver/Uart/Stream</text>
<text text-anchor="middle" x="2585.2" y="-398.5" font-family="Helvetica,sans-Serif" font-size="10.00">/Receiver.h</text>
</a>
</g>
</g>
<!-- Node1&#45;&gt;Node55 -->
<g id="edge56" class="edge"><title>Node1&#45;&gt;Node55</title>
<path fill="none" stroke="midnightblue" d="M1915.98,-466.428C2036.71,-464.534 2304.04,-456.436 2526.2,-422 2529.43,-421.499 2532.75,-420.907 2536.08,-420.253"/>
<polygon fill="midnightblue" stroke="midnightblue" points="1915.75,-462.931 1905.8,-466.578 1915.85,-469.93 1915.75,-462.931"/>
</g>
<!-- Node58 -->
<g id="node50" class="node"><title>Node58</title>
<g id="a_node50"><a xlink:href="_transmitter_8h.html" target="_top" xlink:title=" ">
<polygon fill="white" stroke="black" points="2652.2,-391.5 2652.2,-421.5 2750.2,-421.5 2750.2,-391.5 2652.2,-391.5"/>
<text text-anchor="start" x="2660.2" y="-409.5" font-family="Helvetica,sans-Serif" font-size="10.00">Driver/Uart/Stream</text>
<text text-anchor="middle" x="2701.2" y="-398.5" font-family="Helvetica,sans-Serif" font-size="10.00">/Transmitter.h</text>
</a>
</g>
</g>
<!-- Node1&#45;&gt;Node58 -->
<g id="edge59" class="edge"><title>Node1&#45;&gt;Node58</title>
<path fill="none" stroke="midnightblue" d="M1916.04,-467.429C2051.79,-467.426 2375.48,-462.7 2643.2,-422 2646.07,-421.563 2649.01,-421.048 2651.97,-420.478"/>
<polygon fill="midnightblue" stroke="midnightblue" points="1915.82,-463.929 1905.82,-467.42 1915.82,-470.929 1915.82,-463.929"/>
</g>
<!-- Node3 -->
<g id="node3" class="node"><title>Node3</title>
<g id="a_node3"><a xlink:href="_dm_2_mailbox_server_8h.html" target="_top" xlink:title=" ">
<polygon fill="white" stroke="black" points="615.201,-330 615.201,-349 737.201,-349 737.201,-330 615.201,-330"/>
<text text-anchor="middle" x="676.201" y="-337" font-family="Helvetica,sans-Serif" font-size="10.00">Cpl/Dm/MailboxServer.h</text>
</a>
</g>
</g>
<!-- Node2&#45;&gt;Node3 -->
<g id="edge2" class="edge"><title>Node2&#45;&gt;Node3</title>
<path fill="none" stroke="midnightblue" d="M867.481,-394.091C821.583,-381.232 748.009,-360.618 706.767,-349.064"/>
<polygon fill="midnightblue" stroke="midnightblue" points="866.82,-397.541 877.394,-396.869 868.709,-390.8 866.82,-397.541"/>
</g>
<!-- Node17 -->
<g id="node17" class="node"><title>Node17</title>
<g id="a_node17"><a xlink:href="_subscriber_8h.html" target="_top" xlink:title=" ">
<polygon fill="white" stroke="black" points="952.701,-263 952.701,-282 1059.7,-282 1059.7,-263 952.701,-263"/>
<text text-anchor="middle" x="1006.2" y="-270" font-family="Helvetica,sans-Serif" font-size="10.00">Cpl/Dm/Subscriber.h</text>
</a>
</g>
</g>
<!-- Node2&#45;&gt;Node17 -->
<g id="edge24" class="edge"><title>Node2&#45;&gt;Node17</title>
<path fill="none" stroke="midnightblue" d="M920.417,-388.8C932.506,-372.299 951.561,-346.357 968.201,-324 979.207,-309.213 992.133,-292.085 999.719,-282.057"/>
<polygon fill="midnightblue" stroke="midnightblue" points="917.561,-386.776 914.478,-396.913 923.209,-390.911 917.561,-386.776"/>
</g>
<!-- Node4 -->
<g id="node4" class="node"><title>Node4</title>
<g id="a_node4"><a xlink:href="_dm_2_periodic_scheduler_8h.html" target="_top" xlink:title=" ">
<polygon fill="white" stroke="black" points="532.701,-263 532.701,-282 671.701,-282 671.701,-263 532.701,-263"/>
<text text-anchor="middle" x="602.201" y="-270" font-family="Helvetica,sans-Serif" font-size="10.00">Cpl/Dm/PeriodicScheduler.h</text>
</a>
</g>
</g>
<!-- Node3&#45;&gt;Node4 -->
<g id="edge3" class="edge"><title>Node3&#45;&gt;Node4</title>
<path fill="none" stroke="midnightblue" d="M658.392,-322.856C643.844,-310.078 623.823,-292.492 612.023,-282.127"/>
<polygon fill="midnightblue" stroke="midnightblue" points="656.398,-325.764 666.221,-329.734 661.018,-320.505 656.398,-325.764"/>
</g>
<!-- Node5 -->
<g id="node5" class="node"><title>Node5</title>
<g id="a_node5"><a xlink:href="_chunk_8h.html" target="_top" xlink:title=" ">
<polygon fill="white" stroke="black" points="397.701,-263 397.701,-282 514.701,-282 514.701,-263 397.701,-263"/>
<text text-anchor="middle" x="456.201" y="-270" font-family="Helvetica,sans-Serif" font-size="10.00">Cpl/Persistent/Chunk.h</text>
</a>
</g>
</g>
<!-- Node3&#45;&gt;Node5 -->
<g id="edge4" class="edge"><title>Node3&#45;&gt;Node5</title>
<path fill="none" stroke="midnightblue" d="M637.312,-327.01C593.771,-314.145 524.213,-293.594 485.186,-282.064"/>
<polygon fill="midnightblue" stroke="midnightblue" points="636.405,-330.392 646.987,-329.869 638.389,-323.678 636.405,-330.392"/>
</g>
<!-- Node13 -->
<g id="node13" class="node"><title>Node13</title>
<g id="a_node13"><a xlink:href="_persistent_2_record_8h.html" target="_top" xlink:title=" ">
<polygon fill="white" stroke="black" points="690.201,-263 690.201,-282 810.201,-282 810.201,-263 690.201,-263"/>
<text text-anchor="middle" x="750.201" y="-270" font-family="Helvetica,sans-Serif" font-size="10.00">Cpl/Persistent/Record.h</text>
</a>
</g>
</g>
<!-- Node3&#45;&gt;Node13 -->
<g id="edge13" class="edge"><title>Node3&#45;&gt;Node13</title>
<path fill="none" stroke="midnightblue" d="M694.011,-322.856C708.559,-310.078 728.58,-292.492 740.38,-282.127"/>
<polygon fill="midnightblue" stroke="midnightblue" points="691.385,-320.505 686.181,-329.734 696.004,-325.764 691.385,-320.505"/>
</g>
<!-- Node14 -->
<g id="node14" class="node"><title>Node14</title>
<g id="a_node14"><a xlink:href="_record_server_8h.html" target="_top" xlink:title=" ">
<polygon fill="white" stroke="black" points="763.701,-201.5 763.701,-220.5 912.701,-220.5 912.701,-201.5 763.701,-201.5"/>
<text text-anchor="middle" x="838.201" y="-208.5" font-family="Helvetica,sans-Serif" font-size="10.00">Cpl/Persistent/RecordServer.h</text>
</a>
</g>
</g>
<!-- Node3&#45;&gt;Node14 -->
<g id="edge18" class="edge"><title>Node3&#45;&gt;Node14</title>
<path fill="none" stroke="midnightblue" d="M747.292,-327.878C773.159,-320.637 800.585,-308.465 819.201,-288 836.59,-268.885 838.634,-236.28 838.531,-220.738"/>
<polygon fill="midnightblue" stroke="midnightblue" points="746.281,-324.524 737.476,-330.418 748.034,-331.301 746.281,-324.524"/>
</g>
<!-- Node15 -->
<g id="node15" class="node"><title>Node15</title>
<g id="a_node15"><a xlink:href="_region_media_8h.html" target="_top" xlink:title=" ">
<polygon fill="white" stroke="black" points="174.201,-263 174.201,-282 320.201,-282 320.201,-263 174.201,-263"/>
<text text-anchor="middle" x="247.201" y="-270" font-family="Helvetica,sans-Serif" font-size="10.00">Cpl/Persistent/RegionMedia.h</text>
</a>
</g>
</g>
<!-- Node3&#45;&gt;Node15 -->
<g id="edge19" class="edge"><title>Node3&#45;&gt;Node15</title>
<path fill="none" stroke="midnightblue" d="M609.727,-328.428C525.674,-315.693 382.431,-293.989 303.511,-282.032"/>
<polygon fill="midnightblue" stroke="midnightblue" points="609.265,-331.898 619.676,-329.936 610.313,-324.977 609.265,-331.898"/>
</g>
<!-- Node6 -->
<g id="node6" class="node"><title>Node6</title>
<g id="a_node6"><a xlink:href="_dm_2_persistent_2_record_8h.html" target="_top" xlink:title=" ">
<polygon fill="white" stroke="black" points="691.201,-140 691.201,-159 829.201,-159 829.201,-140 691.201,-140"/>
<text text-anchor="middle" x="760.201" y="-147" font-family="Helvetica,sans-Serif" font-size="10.00">Cpl/Dm/Persistent/Record.h</text>
</a>
</g>
</g>
<!-- Node5&#45;&gt;Node6 -->
<g id="edge5" class="edge"><title>Node5&#45;&gt;Node6</title>
<path fill="none" stroke="midnightblue" d="M473.565,-256.553C492.967,-240.586 525.912,-215.609 558.201,-201 586.608,-188.148 668.449,-169.687 718.816,-159.011"/>
<polygon fill="midnightblue" stroke="midnightblue" points="471.304,-253.881 465.887,-262.987 475.8,-259.247 471.304,-253.881"/>
</g>
<!-- Node7 -->
<g id="node7" class="node"><title>Node7</title>
<g id="a_node7"><a xlink:href="_crc_chunk_8h.html" target="_top" xlink:title=" ">
<polygon fill="white" stroke="black" points="341.201,-201.5 341.201,-220.5 473.201,-220.5 473.201,-201.5 341.201,-201.5"/>
<text text-anchor="middle" x="407.201" y="-208.5" font-family="Helvetica,sans-Serif" font-size="10.00">Cpl/Persistent/CrcChunk.h</text>
</a>
</g>
</g>
<!-- Node5&#45;&gt;Node7 -->
<g id="edge6" class="edge"><title>Node5&#45;&gt;Node7</title>
<path fill="none" stroke="midnightblue" d="M442.752,-255.169C433.515,-243.952 421.626,-229.516 414.209,-220.509"/>
<polygon fill="midnightblue" stroke="midnightblue" points="440.122,-257.481 449.181,-262.975 445.526,-253.031 440.122,-257.481"/>
</g>
<!-- Node8 -->
<g id="node8" class="node"><title>Node8</title>
<g id="a_node8"><a xlink:href="_data_record_8h.html" target="_top" xlink:title=" ">
<polygon fill="white" stroke="black" points="567.201,-201.5 567.201,-220.5 707.201,-220.5 707.201,-201.5 567.201,-201.5"/>
<text text-anchor="middle" x="637.201" y="-208.5" font-family="Helvetica,sans-Serif" font-size="10.00">Cpl/Persistent/DataRecord.h</text>
</a>
</g>
</g>
<!-- Node5&#45;&gt;Node8 -->
<g id="edge7" class="edge"><title>Node5&#45;&gt;Node8</title>
<path fill="none" stroke="midnightblue" d="M492,-259.732C527.184,-248.166 580.022,-230.797 611.317,-220.509"/>
<polygon fill="midnightblue" stroke="midnightblue" points="490.541,-256.527 482.134,-262.975 492.727,-263.177 490.541,-256.527"/>
</g>
<!-- Node10 -->
<g id="node10" class="node"><title>Node10</title>
<g id="a_node10"><a xlink:href="_indexed_entry_record_8h.html" target="_top" xlink:title=" ">
<polygon fill="white" stroke="black" points="481.701,-67.5 481.701,-97.5 620.701,-97.5 620.701,-67.5 481.701,-67.5"/>
<text text-anchor="start" x="489.701" y="-85.5" font-family="Helvetica,sans-Serif" font-size="10.00">Cpl/Persistent/IndexedEntry</text>
<text text-anchor="middle" x="551.201" y="-74.5" font-family="Helvetica,sans-Serif" font-size="10.00">Record.h</text>
</a>
</g>
</g>
<!-- Node5&#45;&gt;Node10 -->
<g id="edge11" class="edge"><title>Node5&#45;&gt;Node10</title>
<path fill="none" stroke="midnightblue" d="M465.722,-253.69C470.769,-244.081 476.987,-231.973 482.201,-221 500.312,-182.89 500.673,-171.403 520.201,-134 526.772,-121.415 535.267,-107.724 541.702,-97.7757"/>
<polygon fill="midnightblue" stroke="midnightblue" points="462.566,-252.171 460.977,-262.646 468.752,-255.448 462.566,-252.171"/>
</g>
<!-- Node12 -->
<g id="node12" class="node"><title>Node12</title>
<g id="a_node12"><a xlink:href="_mirrored_chunk_8h.html" target="_top" xlink:title=" ">
<polygon fill="white" stroke="black" points="171.201,-201.5 171.201,-220.5 323.201,-220.5 323.201,-201.5 171.201,-201.5"/>
<text text-anchor="middle" x="247.201" y="-208.5" font-family="Helvetica,sans-Serif" font-size="10.00">Cpl/Persistent/MirroredChunk.h</text>
</a>
</g>
</g>
<!-- Node5&#45;&gt;Node12 -->
<g id="edge12" class="edge"><title>Node5&#45;&gt;Node12</title>
<path fill="none" stroke="midnightblue" d="M416.424,-260.176C375.814,-248.614 313.692,-230.929 277.09,-220.509"/>
<polygon fill="midnightblue" stroke="midnightblue" points="415.681,-263.603 426.257,-262.975 417.597,-256.871 415.681,-263.603"/>
</g>
<!-- Node9 -->
<g id="node9" class="node"><title>Node9</title>
<g id="a_node9"><a xlink:href="_index_record_8h.html" target="_top" xlink:title=" ">
<polygon fill="white" stroke="black" points="529.201,-140 529.201,-159 673.201,-159 673.201,-140 529.201,-140"/>
<text text-anchor="middle" x="601.201" y="-147" font-family="Helvetica,sans-Serif" font-size="10.00">Cpl/Persistent/IndexRecord.h</text>
</a>
</g>
</g>
<!-- Node8&#45;&gt;Node9 -->
<g id="edge8" class="edge"><title>Node8&#45;&gt;Node9</title>
<path fill="none" stroke="midnightblue" d="M626.716,-192.671C620.023,-181.608 611.639,-167.751 606.35,-159.009"/>
<polygon fill="midnightblue" stroke="midnightblue" points="623.872,-194.731 632.044,-201.475 629.861,-191.107 623.872,-194.731"/>
</g>
<!-- Node9&#45;&gt;Node10 -->
<g id="edge9" class="edge"><title>Node9&#45;&gt;Node10</title>
<path fill="none" stroke="midnightblue" d="M588.258,-131.673C580.12,-121.094 569.741,-107.602 562.039,-97.589"/>
<polygon fill="midnightblue" stroke="midnightblue" points="585.587,-133.942 594.458,-139.734 591.135,-129.674 585.587,-133.942"/>
</g>
<!-- Node11 -->
<g id="node11" class="node"><title>Node11</title>
<g id="a_node11"><a xlink:href="_indexed_entry_server_8h.html" target="_top" xlink:title=" ">
<polygon fill="white" stroke="black" points="659.701,-0.5 659.701,-30.5 798.701,-30.5 798.701,-0.5 659.701,-0.5"/>
<text text-anchor="start" x="667.701" y="-18.5" font-family="Helvetica,sans-Serif" font-size="10.00">Cpl/Persistent/IndexedEntry</text>
<text text-anchor="middle" x="729.201" y="-7.5" font-family="Helvetica,sans-Serif" font-size="10.00">Server.h</text>
</a>
</g>
</g>
<!-- Node10&#45;&gt;Node11 -->
<g id="edge10" class="edge"><title>Node10&#45;&gt;Node11</title>
<path fill="none" stroke="midnightblue" d="M599.247,-63.9553C627.92,-53.4847 663.846,-40.3656 690.653,-30.5765"/>
<polygon fill="midnightblue" stroke="midnightblue" points="598.018,-60.6781 589.825,-67.396 600.419,-67.2534 598.018,-60.6781"/>
</g>
<!-- Node13&#45;&gt;Node6 -->
<g id="edge14" class="edge"><title>Node13&#45;&gt;Node6</title>
<path fill="none" stroke="midnightblue" d="M750.948,-252.807C751.592,-238.585 752.664,-218.538 754.201,-201 755.497,-186.224 757.676,-169.093 759.021,-159.061"/>
<polygon fill="midnightblue" stroke="midnightblue" points="747.451,-252.665 750.522,-262.805 754.445,-252.963 747.451,-252.665"/>
</g>
<!-- Node13&#45;&gt;Node8 -->
<g id="edge15" class="edge"><title>Node13&#45;&gt;Node8</title>
<path fill="none" stroke="midnightblue" d="M724.965,-258.212C703.08,-246.688 672.061,-230.355 653.362,-220.509"/>
<polygon fill="midnightblue" stroke="midnightblue" points="723.532,-261.413 734.011,-262.975 726.794,-255.219 723.532,-261.413"/>
</g>
<!-- Node13&#45;&gt;Node14 -->
<g id="edge16" class="edge"><title>Node13&#45;&gt;Node14</title>
<path fill="none" stroke="midnightblue" d="M771.48,-257.113C788.405,-245.669 811.512,-230.046 825.617,-220.509"/>
<polygon fill="midnightblue" stroke="midnightblue" points="769.133,-254.474 762.81,-262.975 773.054,-260.273 769.133,-254.474"/>
</g>
<!-- Node14&#45;&gt;Node6 -->
<g id="edge17" class="edge"><title>Node14&#45;&gt;Node6</title>
<path fill="none" stroke="midnightblue" d="M818.923,-195.294C803.96,-183.88 783.743,-168.458 771.356,-159.009"/>
<polygon fill="midnightblue" stroke="midnightblue" points="816.952,-198.193 827.026,-201.475 821.198,-192.627 816.952,-198.193"/>
</g>
<!-- Node15&#45;&gt;Node7 -->
<g id="edge20" class="edge"><title>Node15&#45;&gt;Node7</title>
<path fill="none" stroke="midnightblue" d="M279.651,-259.433C310.749,-247.868 356.894,-230.708 384.32,-220.509"/>
<polygon fill="midnightblue" stroke="midnightblue" points="278.278,-256.209 270.126,-262.975 280.718,-262.77 278.278,-256.209"/>
</g>
<!-- Node15&#45;&gt;Node10 -->
<g id="edge22" class="edge"><title>Node15&#45;&gt;Node10</title>
<path fill="none" stroke="midnightblue" d="M163.805,-265.233C101.66,-258.625 24.2288,-245.617 4.20144,-221 -1.40818,-214.105 -1.38508,-207.914 4.20144,-201 63.5301,-127.574 348.112,-97.9103 481.684,-87.8838"/>
<polygon fill="midnightblue" stroke="midnightblue" points="163.725,-268.743 174.029,-266.278 164.437,-261.779 163.725,-268.743"/>
</g>
<!-- Node15&#45;&gt;Node12 -->
<g id="edge23" class="edge"><title>Node15&#45;&gt;Node12</title>
<path fill="none" stroke="midnightblue" d="M247.201,-252.817C247.201,-241.996 247.201,-228.898 247.201,-220.509"/>
<polygon fill="midnightblue" stroke="midnightblue" points="243.702,-252.975 247.201,-262.975 250.702,-252.975 243.702,-252.975"/>
</g>
<!-- Node16 -->
<g id="node16" class="node"><title>Node16</title>
<g id="a_node16"><a xlink:href="_file_adapter_8h.html" target="_top" xlink:title=" ">
<polygon fill="white" stroke="black" points="13.7014,-201.5 13.7014,-220.5 152.701,-220.5 152.701,-201.5 13.7014,-201.5"/>
<text text-anchor="middle" x="83.2014" y="-208.5" font-family="Helvetica,sans-Serif" font-size="10.00">Cpl/Persistent/FileAdapter.h</text>
</a>
</g>
</g>
<!-- Node15&#45;&gt;Node16 -->
<g id="edge21" class="edge"><title>Node15&#45;&gt;Node16</title>
<path fill="none" stroke="midnightblue" d="M213.941,-259.433C182.065,-247.868 134.767,-230.708 106.655,-220.509"/>
<polygon fill="midnightblue" stroke="midnightblue" points="213.11,-262.855 223.704,-262.975 215.497,-256.274 213.11,-262.855"/>
</g>
<!-- Node18 -->
<g id="node18" class="node"><title>Node18</title>
<g id="a_node18"><a xlink:href="_model_point_common___8h.html" target="_top" xlink:title=" ">
<polygon fill="white" stroke="black" points="1190.7,-201.5 1190.7,-220.5 1343.7,-220.5 1343.7,-201.5 1190.7,-201.5"/>
<text text-anchor="middle" x="1267.2" y="-208.5" font-family="Helvetica,sans-Serif" font-size="10.00">Cpl/Dm/ModelPointCommon_.h</text>
</a>
</g>
</g>
<!-- Node17&#45;&gt;Node18 -->
<g id="edge25" class="edge"><title>Node17&#45;&gt;Node18</title>
<path fill="none" stroke="midnightblue" d="M1053.64,-260.686C1104.28,-249.141 1183.49,-231.084 1229.88,-220.509"/>
<polygon fill="midnightblue" stroke="midnightblue" points="1052.57,-257.34 1043.6,-262.975 1054.12,-264.165 1052.57,-257.34"/>
</g>
<!-- Node35 -->
<g id="node27" class="node"><title>Node35</title>
<g id="a_node27"><a xlink:href="_subscriber_composer_8h.html" target="_top" xlink:title=" ">
<polygon fill="white" stroke="black" points="930.701,-201.5 930.701,-220.5 1081.7,-220.5 1081.7,-201.5 930.701,-201.5"/>
<text text-anchor="middle" x="1006.2" y="-208.5" font-family="Helvetica,sans-Serif" font-size="10.00">Cpl/Dm/SubscriberComposer.h</text>
</a>
</g>
</g>
<!-- Node17&#45;&gt;Node35 -->
<g id="edge34" class="edge"><title>Node17&#45;&gt;Node35</title>
<path fill="none" stroke="midnightblue" d="M1006.2,-252.817C1006.2,-241.996 1006.2,-228.898 1006.2,-220.509"/>
<polygon fill="midnightblue" stroke="midnightblue" points="1002.7,-252.975 1006.2,-262.975 1009.7,-252.975 1002.7,-252.975"/>
</g>
<!-- Node19 -->
<g id="node19" class="node"><title>Node19</title>
<g id="a_node19"><a xlink:href="_array___8h.html" target="_top" xlink:title=" ">
<polygon fill="white" stroke="black" points="885.701,-140 885.701,-159 990.701,-159 990.701,-140 885.701,-140"/>
<text text-anchor="middle" x="938.201" y="-147" font-family="Helvetica,sans-Serif" font-size="10.00">Cpl/Dm/Mp/Array_.h</text>
</a>
</g>
</g>
<!-- Node18&#45;&gt;Node19 -->
<g id="edge26" class="edge"><title>Node18&#45;&gt;Node19</title>
<path fill="none" stroke="midnightblue" d="M1200.08,-199.883C1145.96,-191.438 1067.96,-178.619 1000.2,-165 991.315,-163.214 981.76,-161.084 972.876,-159.014"/>
<polygon fill="midnightblue" stroke="midnightblue" points="1199.82,-203.384 1210.24,-201.46 1200.89,-196.467 1199.82,-203.384"/>
</g>
<!-- Node20 -->
<g id="node20" class="node"><title>Node20</title>
<g id="a_node20"><a xlink:href="_bool_8h.html" target="_top" xlink:title=" ">
<polygon fill="white" stroke="black" points="1009.2,-140 1009.2,-159 1105.2,-159 1105.2,-140 1009.2,-140"/>
<text text-anchor="middle" x="1057.2" y="-147" font-family="Helvetica,sans-Serif" font-size="10.00">Cpl/Dm/Mp/Bool.h</text>
</a>
</g>
</g>
<!-- Node18&#45;&gt;Node20 -->
<g id="edge27" class="edge"><title>Node18&#45;&gt;Node20</title>
<path fill="none" stroke="midnightblue" d="M1227.23,-198.676C1186.43,-187.114 1124.01,-169.429 1087.23,-159.009"/>
<polygon fill="midnightblue" stroke="midnightblue" points="1226.54,-202.116 1237.11,-201.475 1228.45,-195.382 1226.54,-202.116"/>
</g>
<!-- Node21 -->
<g id="node21" class="node"><title>Node21</title>
<g id="a_node21"><a xlink:href="_elapsed_precision_time_8h.html" target="_top" xlink:title=" ">
<polygon fill="white" stroke="black" points="1123.2,-134.5 1123.2,-164.5 1267.2,-164.5 1267.2,-134.5 1123.2,-134.5"/>
<text text-anchor="start" x="1131.2" y="-152.5" font-family="Helvetica,sans-Serif" font-size="10.00">Cpl/Dm/Mp/ElapsedPrecision</text>
<text text-anchor="middle" x="1195.2" y="-141.5" font-family="Helvetica,sans-Serif" font-size="10.00">Time.h</text>
</a>
</g>
</g>
<!-- Node18&#45;&gt;Node21 -->
<g id="edge28" class="edge"><title>Node18&#45;&gt;Node21</title>
<path fill="none" stroke="midnightblue" d="M1248.96,-194.921C1237.65,-185.579 1223.23,-173.662 1212.17,-164.523"/>
<polygon fill="midnightblue" stroke="midnightblue" points="1246.95,-197.803 1256.89,-201.475 1251.41,-192.407 1246.95,-197.803"/>
</g>
<!-- Node22 -->
<g id="node22" class="node"><title>Node22</title>
<g id="a_node22"><a xlink:href="_enum___8h.html" target="_top" xlink:title=" ">
<polygon fill="white" stroke="black" points="1285.7,-140 1285.7,-159 1392.7,-159 1392.7,-140 1285.7,-140"/>
<text text-anchor="middle" x="1339.2" y="-147" font-family="Helvetica,sans-Serif" font-size="10.00">Cpl/Dm/Mp/Enum_.h</text>
</a>
</g>
</g>
<!-- Node18&#45;&gt;Node22 -->
<g id="edge29" class="edge"><title>Node18&#45;&gt;Node22</title>
<path fill="none" stroke="midnightblue" d="M1285.39,-194.973C1299.16,-183.593 1317.58,-168.369 1328.9,-159.009"/>
<polygon fill="midnightblue" stroke="midnightblue" points="1283,-192.407 1277.52,-201.475 1287.46,-197.803 1283,-192.407"/>
</g>
<!-- Node23 -->
<g id="node23" class="node"><title>Node23</title>
<g id="a_node23"><a xlink:href="_numeric_8h.html" target="_top" xlink:title=" ">
<polygon fill="white" stroke="red" points="1410.7,-140 1410.7,-159 1523.7,-159 1523.7,-140 1410.7,-140"/>
<text text-anchor="middle" x="1467.2" y="-147" font-family="Helvetica,sans-Serif" font-size="10.00">Cpl/Dm/Mp/Numeric.h</text>
</a>
</g>
</g>
<!-- Node18&#45;&gt;Node23 -->
<g id="edge30" class="edge"><title>Node18&#45;&gt;Node23</title>
<path fill="none" stroke="midnightblue" d="M1305.76,-198.529C1344.63,-186.965 1403.72,-169.385 1438.6,-159.009"/>
<polygon fill="midnightblue" stroke="midnightblue" points="1304.44,-195.269 1295.86,-201.475 1306.44,-201.978 1304.44,-195.269"/>
</g>
<!-- Node33 -->
<g id="node25" class="node"><title>Node33</title>
<g id="a_node25"><a xlink:href="_ref_counter_8h.html" target="_top" xlink:title=" ">
<polygon fill="white" stroke="black" points="1541.7,-140 1541.7,-159 1666.7,-159 1666.7,-140 1541.7,-140"/>
<text text-anchor="middle" x="1604.2" y="-147" font-family="Helvetica,sans-Serif" font-size="10.00">Cpl/Dm/Mp/RefCounter.h</text>
</a>
</g>
</g>
<!-- Node18&#45;&gt;Node33 -->
<g id="edge32" class="edge"><title>Node18&#45;&gt;Node33</title>
<path fill="none" stroke="midnightblue" d="M1330.4,-199.826C1384.14,-191.039 1463.34,-177.777 1532.2,-165 1542.11,-163.162 1552.75,-161.078 1562.74,-159.074"/>
<polygon fill="midnightblue" stroke="midnightblue" points="1329.64,-196.403 1320.33,-201.468 1330.76,-203.312 1329.64,-196.403"/>
</g>
<!-- Node34 -->
<g id="node26" class="node"><title>Node34</title>
<g id="a_node26"><a xlink:href="_dm_2_mp_2_string___8h.html" target="_top" xlink:title=" ">
<polygon fill="white" stroke="black" points="1684.7,-140 1684.7,-159 1791.7,-159 1791.7,-140 1684.7,-140"/>
<text text-anchor="middle" x="1738.2" y="-147" font-family="Helvetica,sans-Serif" font-size="10.00">Cpl/Dm/Mp/String_.h</text>
</a>
</g>
</g>
<!-- Node18&#45;&gt;Node34 -->
<g id="edge33" class="edge"><title>Node18&#45;&gt;Node34</title>
<path fill="none" stroke="midnightblue" d="M1354.02,-203.372C1436.9,-196.351 1565.1,-183.678 1675.2,-165 1684.72,-163.386 1694.95,-161.22 1704.34,-159.055"/>
<polygon fill="midnightblue" stroke="midnightblue" points="1353.57,-199.898 1343.89,-204.221 1354.15,-206.874 1353.57,-199.898"/>
</g>
<!-- Node24 -->
<g id="node24" class="node"><title>Node24</title>
<g id="a_node24"><a xlink:href="_bit_array16_8h.html" target="_top" xlink:title=" ">
<polygon fill="white" stroke="black" points="1406.2,-73 1406.2,-92 1528.2,-92 1528.2,-73 1406.2,-73"/>
<text text-anchor="middle" x="1467.2" y="-80" font-family="Helvetica,sans-Serif" font-size="10.00">Cpl/Dm/Mp/BitArray16.h</text>
</a>
</g>
</g>
<!-- Node23&#45;&gt;Node24 -->
<g id="edge31" class="edge"><title>Node23&#45;&gt;Node24</title>
<path fill="none" stroke="midnightblue" d="M1467.2,-129.537C1467.2,-117.17 1467.2,-101.62 1467.2,-92.1273"/>
<polygon fill="midnightblue" stroke="midnightblue" points="1463.7,-129.734 1467.2,-139.734 1470.7,-129.734 1463.7,-129.734"/>
</g>
<!-- Node35&#45;&gt;Node6 -->
<g id="edge35" class="edge"><title>Node35&#45;&gt;Node6</title>
<path fill="none" stroke="midnightblue" d="M961.193,-199.114C913.446,-187.565 839.01,-169.561 795.382,-159.009"/>
<polygon fill="midnightblue" stroke="midnightblue" points="960.413,-202.526 970.956,-201.475 962.059,-195.722 960.413,-202.526"/>
</g>
<!-- Node35&#45;&gt;Node11 -->
<g id="edge36" class="edge"><title>Node35&#45;&gt;Node11</title>
<path fill="none" stroke="midnightblue" d="M957.345,-198.804C931.898,-191.599 901.003,-180.614 876.201,-165 845.195,-145.48 771.595,-64.306 741.925,-30.9292"/>
<polygon fill="midnightblue" stroke="midnightblue" points="956.596,-202.228 967.164,-201.476 958.434,-195.473 956.596,-202.228"/>
</g>
<!-- Node37 -->
<g id="node29" class="node"><title>Node37</title>
<g id="a_node29"><a xlink:href="_posix_2_listener_8h.html" target="_top" xlink:title=" ">
<polygon fill="white" stroke="black" points="1101.2,-324.5 1101.2,-354.5 1205.2,-354.5 1205.2,-324.5 1101.2,-324.5"/>
<text text-anchor="start" x="1109.2" y="-342.5" font-family="Helvetica,sans-Serif" font-size="10.00">Cpl/Io/Socket/Posix</text>
<text text-anchor="middle" x="1153.2" y="-331.5" font-family="Helvetica,sans-Serif" font-size="10.00">/Listener.h</text>
</a>
</g>
</g>
<!-- Node36&#45;&gt;Node37 -->
<g id="edge38" class="edge"><title>Node36&#45;&gt;Node37</title>
<path fill="none" stroke="midnightblue" d="M1066.72,-391.604C1085.19,-380.689 1110.8,-365.553 1129.36,-354.589"/>
<polygon fill="midnightblue" stroke="midnightblue" points="1064.87,-388.633 1058.04,-396.734 1068.43,-394.66 1064.87,-388.633"/>
</g>
<!-- Node38 -->
<g id="node30" class="node"><title>Node38</title>
<g id="a_node30"><a xlink:href="_win32_2_listener_8h.html" target="_top" xlink:title=" ">
<polygon fill="white" stroke="black" points="977.201,-324.5 977.201,-354.5 1083.2,-354.5 1083.2,-324.5 977.201,-324.5"/>
<text text-anchor="start" x="985.201" y="-342.5" font-family="Helvetica,sans-Serif" font-size="10.00">Cpl/Io/Socket/Win32</text>
<text text-anchor="middle" x="1030.2" y="-331.5" font-family="Helvetica,sans-Serif" font-size="10.00">/Listener.h</text>
</a>
</g>
</g>
<!-- Node36&#45;&gt;Node38 -->
<g id="edge39" class="edge"><title>Node36&#45;&gt;Node38</title>
<path fill="none" stroke="midnightblue" d="M1039.45,-386.739C1037.4,-376.487 1034.9,-364.001 1033.02,-354.589"/>
<polygon fill="midnightblue" stroke="midnightblue" points="1036.05,-387.614 1041.45,-396.734 1042.92,-386.242 1036.05,-387.614"/>
</g>
<!-- Node45 -->
<g id="node37" class="node"><title>Node45</title>
<g id="a_node37"><a xlink:href="helpers_8h.html" target="_top" xlink:title="This file defines helper functions/interface for writing unit tests.">
<polygon fill="white" stroke="black" points="1896.7,-330 1896.7,-349 1981.7,-349 1981.7,-330 1896.7,-330"/>
<text text-anchor="middle" x="1939.2" y="-337" font-family="Helvetica,sans-Serif" font-size="10.00">Catch/helpers.h</text>
</a>
</g>
</g>
<!-- Node44&#45;&gt;Node45 -->
<g id="edge46" class="edge"><title>Node44&#45;&gt;Node45</title>
<path fill="none" stroke="midnightblue" d="M1927.78,-386.915C1930.84,-374.488 1934.72,-358.717 1937.08,-349.127"/>
<polygon fill="midnightblue" stroke="midnightblue" points="1924.35,-386.187 1925.36,-396.734 1931.15,-387.86 1924.35,-386.187"/>
</g>
<!-- Node46 -->
<g id="node38" class="node"><title>Node46</title>
<g id="a_node38"><a xlink:href="_system_2_private___8h.html" target="_top" xlink:title="This file contains a collection of classes, interfaces, etc.">
<polygon fill="white" stroke="black" points="1763.7,-330 1763.7,-349 1878.7,-349 1878.7,-330 1763.7,-330"/>
<text text-anchor="middle" x="1821.2" y="-337" font-family="Helvetica,sans-Serif" font-size="10.00">Cpl/System/Private_.h</text>
</a>
</g>
</g>
<!-- Node44&#45;&gt;Node46 -->
<g id="edge47" class="edge"><title>Node44&#45;&gt;Node46</title>
<path fill="none" stroke="midnightblue" d="M1900.87,-391.269C1880.68,-378.403 1851.61,-359.879 1834.74,-349.127"/>
<polygon fill="midnightblue" stroke="midnightblue" points="1899.13,-394.311 1909.45,-396.734 1902.89,-388.408 1899.13,-394.311"/>
</g>
<!-- Node47 -->
<g id="node39" class="node"><title>Node47</title>
<g id="a_node39"><a xlink:href="_maker_8h.html" target="_top" xlink:title=" ">
<polygon fill="white" stroke="black" points="1837.2,-263 1837.2,-282 1937.2,-282 1937.2,-263 1837.2,-263"/>
<text text-anchor="middle" x="1887.2" y="-270" font-family="Helvetica,sans-Serif" font-size="10.00">Cpl/TShell/Maker.h</text>
</a>
</g>
</g>
<!-- Node46&#45;&gt;Node47 -->
<g id="edge48" class="edge"><title>Node46&#45;&gt;Node47</title>
<path fill="none" stroke="midnightblue" d="M1837.45,-322.497C1850.39,-309.75 1868.02,-292.395 1878.44,-282.127"/>
<polygon fill="midnightblue" stroke="midnightblue" points="1834.77,-320.223 1830.1,-329.734 1839.68,-325.211 1834.77,-320.223"/>
</g>
<!-- Node48 -->
<g id="node40" class="node"><title>Node48</title>
<g id="a_node40"><a xlink:href="_polled_maker_8h.html" target="_top" xlink:title=" ">
<polygon fill="white" stroke="black" points="1691.7,-263 1691.7,-282 1818.7,-282 1818.7,-263 1691.7,-263"/>
<text text-anchor="middle" x="1755.2" y="-270" font-family="Helvetica,sans-Serif" font-size="10.00">Cpl/TShell/PolledMaker.h</text>
</a>
</g>
</g>
<!-- Node46&#45;&gt;Node48 -->
<g id="edge49" class="edge"><title>Node46&#45;&gt;Node48</title>
<path fill="none" stroke="midnightblue" d="M1804.95,-322.497C1792.01,-309.75 1774.39,-292.395 1763.96,-282.127"/>
<polygon fill="midnightblue" stroke="midnightblue" points="1802.72,-325.211 1812.3,-329.734 1807.63,-320.223 1802.72,-325.211"/>
</g>
<!-- Node51 -->
<g id="node43" class="node"><title>Node51</title>
<g id="a_node43"><a xlink:href="_free_r_t_o_s_2_threads_8h.html" target="_top" xlink:title=" ">
<polygon fill="white" stroke="black" points="2220.2,-324.5 2220.2,-354.5 2354.2,-354.5 2354.2,-324.5 2220.2,-324.5"/>
<text text-anchor="start" x="2228.2" y="-342.5" font-family="Helvetica,sans-Serif" font-size="10.00">Cpl/TShell/Cmd/FreeRTOS</text>
<text text-anchor="middle" x="2287.2" y="-331.5" font-family="Helvetica,sans-Serif" font-size="10.00">/Threads.h</text>
</a>
</g>
</g>
<!-- Node50&#45;&gt;Node51 -->
<g id="edge52" class="edge"><title>Node50&#45;&gt;Node51</title>
<path fill="none" stroke="midnightblue" d="M2233.21,-389.928C2244.95,-379.179 2260.44,-365.002 2271.81,-354.589"/>
<polygon fill="midnightblue" stroke="midnightblue" points="2230.79,-387.4 2225.78,-396.734 2235.52,-392.563 2230.79,-387.4"/>
</g>
<!-- Node52 -->
<g id="node44" class="node"><title>Node52</title>
<g id="a_node44"><a xlink:href="_win32_2_threads_8h.html" target="_top" xlink:title=" ">
<polygon fill="white" stroke="black" points="2086.7,-324.5 2086.7,-354.5 2201.7,-354.5 2201.7,-324.5 2086.7,-324.5"/>
<text text-anchor="start" x="2094.7" y="-342.5" font-family="Helvetica,sans-Serif" font-size="10.00">Cpl/TShell/Cmd/Win32</text>
<text text-anchor="middle" x="2144.2" y="-331.5" font-family="Helvetica,sans-Serif" font-size="10.00">/Threads.h</text>
</a>
</g>
</g>
<!-- Node50&#45;&gt;Node52 -->
<g id="edge53" class="edge"><title>Node50&#45;&gt;Node52</title>
<path fill="none" stroke="midnightblue" d="M2198.95,-389.928C2187.05,-379.179 2171.34,-365.002 2159.81,-354.589"/>
<polygon fill="midnightblue" stroke="midnightblue" points="2196.72,-392.631 2206.49,-396.734 2201.41,-387.435 2196.72,-392.631"/>
</g>
<!-- Node56 -->
<g id="node48" class="node"><title>Node56</title>
<g id="a_node48"><a xlink:href="_driver_2_uart_2_stream_2_input_output___8h.html" target="_top" xlink:title=" ">
<polygon fill="white" stroke="black" points="2594.2,-324.5 2594.2,-354.5 2692.2,-354.5 2692.2,-324.5 2594.2,-324.5"/>
<text text-anchor="start" x="2602.2" y="-342.5" font-family="Helvetica,sans-Serif" font-size="10.00">Driver/Uart/Stream</text>
<text text-anchor="middle" x="2643.2" y="-331.5" font-family="Helvetica,sans-Serif" font-size="10.00">/InputOutput_.h</text>
</a>
</g>
</g>
<!-- Node55&#45;&gt;Node56 -->
<g id="edge57" class="edge"><title>Node55&#45;&gt;Node56</title>
<path fill="none" stroke="midnightblue" d="M2604.62,-383.736C2613.2,-374.119 2623.05,-363.089 2630.64,-354.577"/>
<polygon fill="midnightblue" stroke="midnightblue" points="2601.83,-381.604 2597.79,-391.396 2607.06,-386.265 2601.83,-381.604"/>
</g>
<!-- Node57 -->
<g id="node49" class="node"><title>Node57</title>
<g id="a_node49"><a xlink:href="_serial_2_renesas_2_rx62n_2_input_output_8h.html" target="_top" xlink:title=" ">
<polygon fill="white" stroke="black" points="2587.7,-257.5 2587.7,-287.5 2698.7,-287.5 2698.7,-257.5 2587.7,-257.5"/>
<text text-anchor="start" x="2595.7" y="-275.5" font-family="Helvetica,sans-Serif" font-size="10.00">Cpl/Io/Serial/Renesas</text>
<text text-anchor="middle" x="2643.2" y="-264.5" font-family="Helvetica,sans-Serif" font-size="10.00">/Rx62n/InputOutput.h</text>
</a>
</g>
</g>
<!-- Node56&#45;&gt;Node57 -->
<g id="edge58" class="edge"><title>Node56&#45;&gt;Node57</title>
<path fill="none" stroke="midnightblue" d="M2643.2,-314.108C2643.2,-305.154 2643.2,-295.323 2643.2,-287.577"/>
<polygon fill="midnightblue" stroke="midnightblue" points="2639.7,-314.396 2643.2,-324.396 2646.7,-314.396 2639.7,-314.396"/>
</g>
<!-- Node58&#45;&gt;Node56 -->
<g id="edge60" class="edge"><title>Node58&#45;&gt;Node56</title>
<path fill="none" stroke="midnightblue" d="M2681.78,-383.736C2673.2,-374.119 2663.36,-363.089 2655.76,-354.577"/>
<polygon fill="midnightblue" stroke="midnightblue" points="2679.35,-386.265 2688.62,-391.396 2684.57,-381.604 2679.35,-386.265"/>
</g>
</g>
</svg>
