<?xml version="1.0" encoding="UTF-8" standalone="no"?>
<!DOCTYPE svg PUBLIC "-//W3C//DTD SVG 1.1//EN"
 "http://www.w3.org/Graphics/SVG/1.1/DTD/svg11.dtd">
<!-- Generated by graphviz version 2.38.0 (20140413.2041)
 -->
<!-- Title: Cpl/System/Tls.h Pages: 1 -->
<svg width="290pt" height="95pt"
 viewBox="0.00 0.00 289.50 95.00" xmlns="http://www.w3.org/2000/svg" xmlns:xlink="http://www.w3.org/1999/xlink">
<g id="graph0" class="graph" transform="scale(1 1) rotate(0) translate(4 91)">
<title>Cpl/System/Tls.h</title>
<polygon fill="white" stroke="none" points="-4,4 -4,-91 285.5,-91 285.5,4 -4,4"/>
<!-- Node1 -->
<g id="node1" class="node"><title>Node1</title>
<g id="a_node1"><a xlink:title=" ">
<polygon fill="#bfbfbf" stroke="black" points="87.5,-67.5 87.5,-86.5 179.5,-86.5 179.5,-67.5 87.5,-67.5"/>
<text text-anchor="middle" x="133.5" y="-74.5" font-family="Helvetica,sans-Serif" font-size="10.00">Cpl/System/Tls.h</text>
</a>
</g>
</g>
<!-- Node2 -->
<g id="node2" class="node"><title>Node2</title>
<g id="a_node2"><a xlink:href="_free_r_t_o_s_2_thread_8h.html" target="_top" xlink:title=" ">
<polygon fill="white" stroke="black" points="0,-0.5 0,-30.5 117,-30.5 117,-0.5 0,-0.5"/>
<text text-anchor="start" x="8" y="-18.5" font-family="Helvetica,sans-Serif" font-size="10.00">Cpl/System/FreeRTOS</text>
<text text-anchor="middle" x="58.5" y="-7.5" font-family="Helvetica,sans-Serif" font-size="10.00">/Thread.h</text>
</a>
</g>
</g>
<!-- Node1&#45;&gt;Node2 -->
<g id="edge1" class="edge"><title>Node1&#45;&gt;Node2</title>
<path fill="none" stroke="midnightblue" d="M114.839,-61.1955C103.012,-51.8129 87.8082,-39.7512 76.176,-30.523"/>
<polygon fill="midnightblue" stroke="midnightblue" points="112.745,-64.002 122.754,-67.4751 117.095,-58.5181 112.745,-64.002"/>
</g>
<!-- Node3 -->
<g id="node3" class="node"><title>Node3</title>
<g id="a_node3"><a xlink:href="_r_p2040_2_thread_8h.html" target="_top" xlink:title=" ">
<polygon fill="white" stroke="black" points="135.5,-6 135.5,-25 281.5,-25 281.5,-6 135.5,-6"/>
<text text-anchor="middle" x="208.5" y="-13" font-family="Helvetica,sans-Serif" font-size="10.00">Cpl/System/RP2040/Thread.h</text>
</a>
</g>
</g>
<!-- Node1&#45;&gt;Node3 -->
<g id="edge2" class="edge"><title>Node1&#45;&gt;Node3</title>
<path fill="none" stroke="midnightblue" d="M152.442,-60.9727C166.787,-49.5925 185.976,-34.3694 197.774,-25.0091"/>
<polygon fill="midnightblue" stroke="midnightblue" points="149.905,-58.5181 144.246,-67.4751 154.255,-64.002 149.905,-58.5181"/>
</g>
</g>
</svg>
