<?xml version="1.0" encoding="UTF-8" standalone="no"?>
<!DOCTYPE svg PUBLIC "-//W3C//DTD SVG 1.1//EN"
 "http://www.w3.org/Graphics/SVG/1.1/DTD/svg11.dtd">
<!-- Generated by graphviz version 2.38.0 (20140413.2041)
 -->
<!-- Title: Cpl/Type/Traverser.h Pages: 1 -->
<svg width="3453pt" height="408pt"
 viewBox="0.00 0.00 3453.00 408.00" xmlns="http://www.w3.org/2000/svg" xmlns:xlink="http://www.w3.org/1999/xlink">
<g id="graph0" class="graph" transform="scale(1 1) rotate(0) translate(4 404)">
<title>Cpl/Type/Traverser.h</title>
<polygon fill="white" stroke="none" points="-4,4 -4,-404 3449,-404 3449,4 -4,4"/>
<!-- Node1 -->
<g id="node1" class="node"><title>Node1</title>
<g id="a_node1"><a xlink:title=" ">
<polygon fill="#bfbfbf" stroke="black" points="2405,-380.5 2405,-399.5 2513,-399.5 2513,-380.5 2405,-380.5"/>
<text text-anchor="middle" x="2459" y="-387.5" font-family="Helvetica,sans-Serif" font-size="10.00">Cpl/Type/Traverser.h</text>
</a>
</g>
</g>
<!-- Node2 -->
<g id="node2" class="node"><title>Node2</title>
<g id="a_node2"><a xlink:href="_cpl_2_io_2_file_2_api_8h.html" target="_top" xlink:title=" ">
<polygon fill="white" stroke="black" points="2358,-324.5 2358,-343.5 2444,-343.5 2444,-324.5 2358,-324.5"/>
<text text-anchor="middle" x="2401" y="-331.5" font-family="Helvetica,sans-Serif" font-size="10.00">Cpl/Io/File/Api.h</text>
</a>
</g>
</g>
<!-- Node1&#45;&gt;Node2 -->
<g id="edge1" class="edge"><title>Node1&#45;&gt;Node2</title>
<path fill="none" stroke="midnightblue" d="M2442.09,-373.253C2431.8,-363.673 2419.03,-351.791 2410.49,-343.834"/>
<polygon fill="midnightblue" stroke="midnightblue" points="2439.98,-376.071 2449.68,-380.324 2444.75,-370.948 2439.98,-376.071"/>
</g>
<!-- Node3 -->
<g id="node3" class="node"><title>Node3</title>
<g id="a_node3"><a xlink:href="_thread_8h.html" target="_top" xlink:title=" ">
<polygon fill="white" stroke="black" points="2462.5,-324.5 2462.5,-343.5 2571.5,-343.5 2571.5,-324.5 2462.5,-324.5"/>
<text text-anchor="middle" x="2517" y="-331.5" font-family="Helvetica,sans-Serif" font-size="10.00">Cpl/System/Thread.h</text>
</a>
</g>
</g>
<!-- Node1&#45;&gt;Node3 -->
<g id="edge2" class="edge"><title>Node1&#45;&gt;Node3</title>
<path fill="none" stroke="midnightblue" d="M2475.91,-373.253C2486.2,-363.673 2498.97,-351.791 2507.51,-343.834"/>
<polygon fill="midnightblue" stroke="midnightblue" points="2473.25,-370.948 2468.32,-380.324 2478.02,-376.071 2473.25,-370.948"/>
</g>
<!-- Node4 -->
<g id="node4" class="node"><title>Node4</title>
<g id="a_node4"><a xlink:href="_dm_2_event_loop_8h.html" target="_top" xlink:title=" ">
<polygon fill="white" stroke="black" points="1134.5,-263 1134.5,-282 1241.5,-282 1241.5,-263 1134.5,-263"/>
<text text-anchor="middle" x="1188" y="-270" font-family="Helvetica,sans-Serif" font-size="10.00">Cpl/Dm/EventLoop.h</text>
</a>
</g>
</g>
<!-- Node3&#45;&gt;Node4 -->
<g id="edge3" class="edge"><title>Node3&#45;&gt;Node4</title>
<path fill="none" stroke="midnightblue" d="M2451.84,-324.067C2291.23,-311.654 1462.2,-282.869 1241.82,-275.331"/>
<polygon fill="midnightblue" stroke="midnightblue" points="2451.97,-327.59 2462.23,-324.931 2452.55,-320.614 2451.97,-327.59"/>
</g>
<!-- Node76 -->
<g id="node27" class="node"><title>Node76</title>
<g id="a_node27"><a xlink:href="_listener___8h.html" target="_top" xlink:title=" ">
<polygon fill="white" stroke="black" points="1796.5,-263 1796.5,-282 1923.5,-282 1923.5,-263 1796.5,-263"/>
<text text-anchor="middle" x="1860" y="-270" font-family="Helvetica,sans-Serif" font-size="10.00">Cpl/Io/Socket/Listener_.h</text>
</a>
</g>
</g>
<!-- Node3&#45;&gt;Node76 -->
<g id="edge35" class="edge"><title>Node3&#45;&gt;Node76</title>
<path fill="none" stroke="midnightblue" d="M2452.13,-323.992C2220.42,-300.356 2158.77,-318.538 1932,-288 1920.75,-286.485 1908.62,-284.271 1897.59,-282.027"/>
<polygon fill="midnightblue" stroke="midnightblue" points="2451.91,-327.488 2462.22,-325.037 2452.63,-320.526 2451.91,-327.488"/>
</g>
<!-- Node79 -->
<g id="node30" class="node"><title>Node79</title>
<g id="a_node30"><a xlink:href="_bare_metal_2_thread_8h.html" target="_top" xlink:title=" ">
<polygon fill="white" stroke="black" points="1941.5,-257.5 1941.5,-287.5 2056.5,-287.5 2056.5,-257.5 1941.5,-257.5"/>
<text text-anchor="start" x="1949.5" y="-275.5" font-family="Helvetica,sans-Serif" font-size="10.00">Cpl/System/BareMetal</text>
<text text-anchor="middle" x="1999" y="-264.5" font-family="Helvetica,sans-Serif" font-size="10.00">/Thread.h</text>
</a>
</g>
</g>
<!-- Node3&#45;&gt;Node79 -->
<g id="edge38" class="edge"><title>Node3&#45;&gt;Node79</title>
<path fill="none" stroke="midnightblue" d="M2452.03,-323.948C2279.67,-304.348 2233.48,-313.816 2066,-288 2062.94,-287.529 2059.81,-287.003 2056.66,-286.44"/>
<polygon fill="midnightblue" stroke="midnightblue" points="2451.87,-327.453 2462.21,-325.123 2452.68,-320.499 2451.87,-327.453"/>
</g>
<!-- Node80 -->
<g id="node31" class="node"><title>Node80</title>
<g id="a_node31"><a xlink:href="_cpp11_2_thread_8h.html" target="_top" xlink:title=" ">
<polygon fill="white" stroke="black" points="2075,-263 2075,-282 2215,-282 2215,-263 2075,-263"/>
<text text-anchor="middle" x="2145" y="-270" font-family="Helvetica,sans-Serif" font-size="10.00">Cpl/System/Cpp11/Thread.h</text>
</a>
</g>
</g>
<!-- Node3&#45;&gt;Node80 -->
<g id="edge39" class="edge"><title>Node3&#45;&gt;Node80</title>
<path fill="none" stroke="midnightblue" d="M2452.39,-323.629C2392.96,-314.879 2302.44,-301.219 2224,-288 2213,-286.146 2201.16,-284.035 2190.08,-282.008"/>
<polygon fill="midnightblue" stroke="midnightblue" points="2451.98,-327.106 2462.38,-325.097 2453,-320.181 2451.98,-327.106"/>
</g>
<!-- Node81 -->
<g id="node32" class="node"><title>Node81</title>
<g id="a_node32"><a xlink:href="_free_r_t_o_s_2_thread_8h.html" target="_top" xlink:title=" ">
<polygon fill="white" stroke="black" points="2233.5,-257.5 2233.5,-287.5 2350.5,-287.5 2350.5,-257.5 2233.5,-257.5"/>
<text text-anchor="start" x="2241.5" y="-275.5" font-family="Helvetica,sans-Serif" font-size="10.00">Cpl/System/FreeRTOS</text>
<text text-anchor="middle" x="2292" y="-264.5" font-family="Helvetica,sans-Serif" font-size="10.00">/Thread.h</text>
</a>
</g>
</g>
<!-- Node3&#45;&gt;Node81 -->
<g id="edge40" class="edge"><title>Node3&#45;&gt;Node81</title>
<path fill="none" stroke="midnightblue" d="M2474.87,-321.859C2438.13,-312.144 2384.67,-298.006 2345.03,-287.523"/>
<polygon fill="midnightblue" stroke="midnightblue" points="2474.2,-325.302 2484.76,-324.475 2475.99,-318.535 2474.2,-325.302"/>
</g>
<!-- Node82 -->
<g id="node33" class="node"><title>Node82</title>
<g id="a_node33"><a xlink:href="_posix_2_thread_8h.html" target="_top" xlink:title=" ">
<polygon fill="white" stroke="black" points="2368.5,-263 2368.5,-282 2505.5,-282 2505.5,-263 2368.5,-263"/>
<text text-anchor="middle" x="2437" y="-270" font-family="Helvetica,sans-Serif" font-size="10.00">Cpl/System/Posix/Thread.h</text>
</a>
</g>
</g>
<!-- Node3&#45;&gt;Node82 -->
<g id="edge41" class="edge"><title>Node3&#45;&gt;Node82</title>
<path fill="none" stroke="midnightblue" d="M2497.23,-318.294C2481.88,-306.88 2461.14,-291.458 2448.44,-282.009"/>
<polygon fill="midnightblue" stroke="midnightblue" points="2495.43,-321.316 2505.54,-324.475 2499.6,-315.699 2495.43,-321.316"/>
</g>
<!-- Node83 -->
<g id="node34" class="node"><title>Node83</title>
<g id="a_node34"><a xlink:href="_r_p2040_2_thread_8h.html" target="_top" xlink:title=" ">
<polygon fill="white" stroke="black" points="2524,-263 2524,-282 2670,-282 2670,-263 2524,-263"/>
<text text-anchor="middle" x="2597" y="-270" font-family="Helvetica,sans-Serif" font-size="10.00">Cpl/System/RP2040/Thread.h</text>
</a>
</g>
</g>
<!-- Node3&#45;&gt;Node83 -->
<g id="edge42" class="edge"><title>Node3&#45;&gt;Node83</title>
<path fill="none" stroke="midnightblue" d="M2536.77,-318.294C2552.12,-306.88 2572.86,-291.458 2585.56,-282.009"/>
<polygon fill="midnightblue" stroke="midnightblue" points="2534.4,-315.699 2528.46,-324.475 2538.57,-321.316 2534.4,-315.699"/>
</g>
<!-- Node84 -->
<g id="node35" class="node"><title>Node84</title>
<g id="a_node35"><a xlink:href="_system_2_trace_8h.html" target="_top" xlink:title=" ">
<polygon fill="white" stroke="black" points="1618,-263 1618,-282 1722,-282 1722,-263 1618,-263"/>
<text text-anchor="middle" x="1670" y="-270" font-family="Helvetica,sans-Serif" font-size="10.00">Cpl/System/Trace.h</text>
</a>
</g>
</g>
<!-- Node3&#45;&gt;Node84 -->
<g id="edge43" class="edge"><title>Node3&#45;&gt;Node84</title>
<path fill="none" stroke="midnightblue" d="M2452.06,-324.002C2156.23,-295.753 2078.95,-313.95 1787,-288 1765.7,-286.106 1742.29,-283.343 1722.04,-280.734"/>
<polygon fill="midnightblue" stroke="midnightblue" points="2451.93,-327.506 2462.22,-324.983 2452.61,-320.538 2451.93,-327.506"/>
</g>
<!-- Node90 -->
<g id="node41" class="node"><title>Node90</title>
<g id="a_node41"><a xlink:href="_win32_2_thread_8h.html" target="_top" xlink:title=" ">
<polygon fill="white" stroke="black" points="2688.5,-263 2688.5,-282 2827.5,-282 2827.5,-263 2688.5,-263"/>
<text text-anchor="middle" x="2758" y="-270" font-family="Helvetica,sans-Serif" font-size="10.00">Cpl/System/Win32/Thread.h</text>
</a>
</g>
</g>
<!-- Node3&#45;&gt;Node90 -->
<g id="edge50" class="edge"><title>Node3&#45;&gt;Node90</title>
<path fill="none" stroke="midnightblue" d="M2561.39,-322.041C2608.18,-310.49 2680.88,-292.539 2723.53,-282.009"/>
<polygon fill="midnightblue" stroke="midnightblue" points="2560.4,-318.68 2551.53,-324.475 2562.08,-325.476 2560.4,-318.68"/>
</g>
<!-- Node91 -->
<g id="node42" class="node"><title>Node91</title>
<g id="a_node42"><a xlink:href="_threads_8h.html" target="_top" xlink:title=" ">
<polygon fill="white" stroke="black" points="2845.5,-263 2845.5,-282 2976.5,-282 2976.5,-263 2845.5,-263"/>
<text text-anchor="middle" x="2911" y="-270" font-family="Helvetica,sans-Serif" font-size="10.00">Cpl/TShell/Cmd/Threads.h</text>
</a>
</g>
</g>
<!-- Node3&#45;&gt;Node91 -->
<g id="edge51" class="edge"><title>Node3&#45;&gt;Node91</title>
<path fill="none" stroke="midnightblue" d="M2581.63,-324.863C2646.18,-316.506 2748.16,-302.677 2836,-288 2846.73,-286.208 2858.28,-284.076 2869.02,-282.006"/>
<polygon fill="midnightblue" stroke="midnightblue" points="2581.07,-321.406 2571.6,-326.157 2581.96,-328.349 2581.07,-321.406"/>
</g>
<!-- Node94 -->
<g id="node45" class="node"><title>Node94</title>
<g id="a_node45"><a xlink:href="_socket_8h.html" target="_top" xlink:title=" ">
<polygon fill="white" stroke="black" points="2995,-263 2995,-282 3099,-282 3099,-263 2995,-263"/>
<text text-anchor="middle" x="3047" y="-270" font-family="Helvetica,sans-Serif" font-size="10.00">Cpl/TShell/Socket.h</text>
</a>
</g>
</g>
<!-- Node3&#45;&gt;Node94 -->
<g id="edge54" class="edge"><title>Node3&#45;&gt;Node94</title>
<path fill="none" stroke="midnightblue" d="M2581.83,-329.517C2672.5,-324.023 2842.1,-311.472 2985,-288 2994.6,-286.423 3004.93,-284.217 3014.34,-282.001"/>
<polygon fill="midnightblue" stroke="midnightblue" points="2581.48,-326.032 2571.71,-330.121 2581.9,-333.019 2581.48,-326.032"/>
</g>
<!-- Node95 -->
<g id="node46" class="node"><title>Node95</title>
<g id="a_node46"><a xlink:href="_t_shell_2_stdio_8h.html" target="_top" xlink:title=" ">
<polygon fill="white" stroke="black" points="3117.5,-263 3117.5,-282 3212.5,-282 3212.5,-263 3117.5,-263"/>
<text text-anchor="middle" x="3165" y="-270" font-family="Helvetica,sans-Serif" font-size="10.00">Cpl/TShell/Stdio.h</text>
</a>
</g>
</g>
<!-- Node3&#45;&gt;Node95 -->
<g id="edge55" class="edge"><title>Node3&#45;&gt;Node95</title>
<path fill="none" stroke="midnightblue" d="M2581.75,-331.729C2690.96,-328.77 2918.39,-319.095 3108,-288 3117.07,-286.513 3126.81,-284.279 3135.62,-282.008"/>
<polygon fill="midnightblue" stroke="midnightblue" points="2581.47,-328.235 2571.56,-331.995 2581.65,-335.233 2581.47,-328.235"/>
</g>
<!-- Node96 -->
<g id="node47" class="node"><title>Node96</title>
<g id="a_node47"><a xlink:href="_receiver_8h.html" target="_top" xlink:title=" ">
<polygon fill="white" stroke="black" points="3231,-257.5 3231,-287.5 3329,-287.5 3329,-257.5 3231,-257.5"/>
<text text-anchor="start" x="3239" y="-275.5" font-family="Helvetica,sans-Serif" font-size="10.00">Driver/Uart/Stream</text>
<text text-anchor="middle" x="3280" y="-264.5" font-family="Helvetica,sans-Serif" font-size="10.00">/Receiver.h</text>
</a>
</g>
</g>
<!-- Node3&#45;&gt;Node96 -->
<g id="edge56" class="edge"><title>Node3&#45;&gt;Node96</title>
<path fill="none" stroke="midnightblue" d="M2581.81,-332.682C2706.37,-331.226 2987.58,-323.854 3221,-288 3224.23,-287.504 3227.55,-286.915 3230.88,-286.263"/>
<polygon fill="midnightblue" stroke="midnightblue" points="2581.64,-329.183 2571.68,-332.791 2581.71,-336.183 2581.64,-329.183"/>
</g>
<!-- Node99 -->
<g id="node50" class="node"><title>Node99</title>
<g id="a_node50"><a xlink:href="_transmitter_8h.html" target="_top" xlink:title=" ">
<polygon fill="white" stroke="black" points="3347,-257.5 3347,-287.5 3445,-287.5 3445,-257.5 3347,-257.5"/>
<text text-anchor="start" x="3355" y="-275.5" font-family="Helvetica,sans-Serif" font-size="10.00">Driver/Uart/Stream</text>
<text text-anchor="middle" x="3396" y="-264.5" font-family="Helvetica,sans-Serif" font-size="10.00">/Transmitter.h</text>
</a>
</g>
</g>
<!-- Node3&#45;&gt;Node99 -->
<g id="edge59" class="edge"><title>Node3&#45;&gt;Node99</title>
<path fill="none" stroke="midnightblue" d="M2581.72,-333.617C2720.92,-334.034 3058.81,-330.158 3338,-288 3340.87,-287.566 3343.81,-287.054 3346.77,-286.485"/>
<polygon fill="midnightblue" stroke="midnightblue" points="2581.66,-330.117 2571.64,-333.578 2581.63,-337.117 2581.66,-330.117"/>
</g>
<!-- Node5 -->
<g id="node5" class="node"><title>Node5</title>
<g id="a_node5"><a xlink:href="_dm_2_mailbox_server_8h.html" target="_top" xlink:title=" ">
<polygon fill="white" stroke="black" points="1127,-196 1127,-215 1249,-215 1249,-196 1127,-196"/>
<text text-anchor="middle" x="1188" y="-203" font-family="Helvetica,sans-Serif" font-size="10.00">Cpl/Dm/MailboxServer.h</text>
</a>
</g>
</g>
<!-- Node4&#45;&gt;Node5 -->
<g id="edge4" class="edge"><title>Node4&#45;&gt;Node5</title>
<path fill="none" stroke="midnightblue" d="M1188,-252.537C1188,-240.17 1188,-224.62 1188,-215.127"/>
<polygon fill="midnightblue" stroke="midnightblue" points="1184.5,-252.734 1188,-262.734 1191.5,-252.734 1184.5,-252.734"/>
</g>
<!-- Node25 -->
<g id="node20" class="node"><title>Node25</title>
<g id="a_node20"><a xlink:href="_subscriber_8h.html" target="_top" xlink:title=" ">
<polygon fill="white" stroke="black" points="421.5,-196 421.5,-215 528.5,-215 528.5,-196 421.5,-196"/>
<text text-anchor="middle" x="475" y="-203" font-family="Helvetica,sans-Serif" font-size="10.00">Cpl/Dm/Subscriber.h</text>
</a>
</g>
</g>
<!-- Node4&#45;&gt;Node25 -->
<g id="edge26" class="edge"><title>Node4&#45;&gt;Node25</title>
<path fill="none" stroke="midnightblue" d="M1124.35,-265.698C985.589,-253.047 657.93,-223.177 528.726,-211.398"/>
<polygon fill="midnightblue" stroke="midnightblue" points="1124.13,-269.192 1134.41,-266.614 1124.77,-262.221 1124.13,-269.192"/>
</g>
<!-- Node6 -->
<g id="node6" class="node"><title>Node6</title>
<g id="a_node6"><a xlink:href="_dm_2_periodic_scheduler_8h.html" target="_top" xlink:title=" ">
<polygon fill="white" stroke="black" points="957.5,-129 957.5,-148 1096.5,-148 1096.5,-129 957.5,-129"/>
<text text-anchor="middle" x="1027" y="-136" font-family="Helvetica,sans-Serif" font-size="10.00">Cpl/Dm/PeriodicScheduler.h</text>
</a>
</g>
</g>
<!-- Node5&#45;&gt;Node6 -->
<g id="edge5" class="edge"><title>Node5&#45;&gt;Node6</title>
<path fill="none" stroke="midnightblue" d="M1157.3,-192.104C1125.33,-179.198 1076.11,-159.327 1048.21,-148.064"/>
<polygon fill="midnightblue" stroke="midnightblue" points="1156.04,-195.37 1166.62,-195.869 1158.66,-188.879 1156.04,-195.37"/>
</g>
<!-- Node7 -->
<g id="node7" class="node"><title>Node7</title>
<g id="a_node7"><a xlink:href="_chunk_8h.html" target="_top" xlink:title=" ">
<polygon fill="white" stroke="black" points="1284.5,-129 1284.5,-148 1401.5,-148 1401.5,-129 1284.5,-129"/>
<text text-anchor="middle" x="1343" y="-136" font-family="Helvetica,sans-Serif" font-size="10.00">Cpl/Persistent/Chunk.h</text>
</a>
</g>
</g>
<!-- Node5&#45;&gt;Node7 -->
<g id="edge6" class="edge"><title>Node5&#45;&gt;Node7</title>
<path fill="none" stroke="midnightblue" d="M1217.93,-191.948C1248.62,-179.079 1295.54,-159.403 1322.33,-148.167"/>
<polygon fill="midnightblue" stroke="midnightblue" points="1216.45,-188.773 1208.58,-195.869 1219.16,-195.229 1216.45,-188.773"/>
</g>
<!-- Node18 -->
<g id="node13" class="node"><title>Node18</title>
<g id="a_node13"><a xlink:href="_persistent_2_record_8h.html" target="_top" xlink:title=" ">
<polygon fill="white" stroke="black" points="1450,-129 1450,-148 1570,-148 1570,-129 1450,-129"/>
<text text-anchor="middle" x="1510" y="-136" font-family="Helvetica,sans-Serif" font-size="10.00">Cpl/Persistent/Record.h</text>
</a>
</g>
</g>
<!-- Node5&#45;&gt;Node18 -->
<g id="edge12" class="edge"><title>Node5&#45;&gt;Node18</title>
<path fill="none" stroke="midnightblue" d="M1240.61,-193.879C1304.03,-181.077 1409.34,-159.819 1467.74,-148.032"/>
<polygon fill="midnightblue" stroke="midnightblue" points="1239.54,-190.526 1230.43,-195.936 1240.92,-197.388 1239.54,-190.526"/>
</g>
<!-- Node19 -->
<g id="node14" class="node"><title>Node19</title>
<g id="a_node14"><a xlink:href="_record_server_8h.html" target="_top" xlink:title=" ">
<polygon fill="white" stroke="black" points="1666.5,-62 1666.5,-81 1815.5,-81 1815.5,-62 1666.5,-62"/>
<text text-anchor="middle" x="1741" y="-69" font-family="Helvetica,sans-Serif" font-size="10.00">Cpl/Persistent/RecordServer.h</text>
</a>
</g>
</g>
<!-- Node5&#45;&gt;Node19 -->
<g id="edge17" class="edge"><title>Node5&#45;&gt;Node19</title>
<path fill="none" stroke="midnightblue" d="M1259.27,-199.993C1355.96,-193.08 1523.06,-178.073 1579,-154 1599.02,-145.385 1598.26,-134.122 1617,-123 1648.19,-104.496 1687.41,-89.7913 1713.29,-81.1266"/>
<polygon fill="midnightblue" stroke="midnightblue" points="1259.01,-196.503 1249.28,-200.697 1259.5,-203.485 1259.01,-196.503"/>
</g>
<!-- Node20 -->
<g id="node15" class="node"><title>Node20</title>
<g id="a_node15"><a xlink:href="_region_media_8h.html" target="_top" xlink:title=" ">
<polygon fill="white" stroke="black" points="1115,-129 1115,-148 1261,-148 1261,-129 1115,-129"/>
<text text-anchor="middle" x="1188" y="-136" font-family="Helvetica,sans-Serif" font-size="10.00">Cpl/Persistent/RegionMedia.h</text>
</a>
</g>
</g>
<!-- Node5&#45;&gt;Node20 -->
<g id="edge18" class="edge"><title>Node5&#45;&gt;Node20</title>
<path fill="none" stroke="midnightblue" d="M1188,-185.537C1188,-173.17 1188,-157.62 1188,-148.127"/>
<polygon fill="midnightblue" stroke="midnightblue" points="1184.5,-185.734 1188,-195.734 1191.5,-185.734 1184.5,-185.734"/>
</g>
<!-- Node23 -->
<g id="node18" class="node"><title>Node23</title>
<g id="a_node18"><a xlink:href="_algorithm_8h.html" target="_top" xlink:title=" ">
<polygon fill="white" stroke="black" points="791,-129 791,-148 939,-148 939,-129 791,-129"/>
<text text-anchor="middle" x="865" y="-136" font-family="Helvetica,sans-Serif" font-size="10.00">Storm/Thermostat/Algorithm.h</text>
</a>
</g>
</g>
<!-- Node5&#45;&gt;Node23 -->
<g id="edge24" class="edge"><title>Node5&#45;&gt;Node23</title>
<path fill="none" stroke="midnightblue" d="M1135.62,-193.958C1072.04,-181.165 966.091,-159.843 907.396,-148.032"/>
<polygon fill="midnightblue" stroke="midnightblue" points="1134.95,-197.394 1145.44,-195.936 1136.33,-190.531 1134.95,-197.394"/>
</g>
<!-- Node24 -->
<g id="node19" class="node"><title>Node24</title>
<g id="a_node19"><a xlink:href="_event_monitor_8h_source.html" target="_top" xlink:title=" ">
<polygon fill="white" stroke="black" points="492,-56.5 492,-86.5 632,-86.5 632,-56.5 492,-56.5"/>
<text text-anchor="start" x="500" y="-74.5" font-family="Helvetica,sans-Serif" font-size="10.00">Storm/Thermostat/Ui</text>
<text text-anchor="middle" x="562" y="-63.5" font-family="Helvetica,sans-Serif" font-size="10.00">/PicoDisplay/EventMonitor.h</text>
</a>
</g>
</g>
<!-- Node5&#45;&gt;Node24 -->
<g id="edge25" class="edge"><title>Node5&#45;&gt;Node24</title>
<path fill="none" stroke="midnightblue" d="M1116.49,-200.612C1034.68,-195.015 897.145,-182.088 782,-154 772.75,-151.744 659.625,-109.297 599.316,-86.5788"/>
<polygon fill="midnightblue" stroke="midnightblue" points="1116.47,-204.118 1126.68,-201.291 1116.93,-197.134 1116.47,-204.118"/>
</g>
<!-- Node8 -->
<g id="node8" class="node"><title>Node8</title>
<g id="a_node8"><a xlink:href="_dm_2_persistent_2_record_8h.html" target="_top" xlink:title=" ">
<polygon fill="white" stroke="red" points="1471,-0.5 1471,-19.5 1609,-19.5 1609,-0.5 1471,-0.5"/>
<text text-anchor="middle" x="1540" y="-7.5" font-family="Helvetica,sans-Serif" font-size="10.00">Cpl/Dm/Persistent/Record.h</text>
</a>
</g>
</g>
<!-- Node7&#45;&gt;Node8 -->
<g id="edge7" class="edge"><title>Node7&#45;&gt;Node8</title>
<path fill="none" stroke="midnightblue" d="M1366.62,-123.626C1382.81,-113.864 1404.61,-100.231 1423,-87 1440.69,-74.2705 1443.02,-68.3256 1461,-56 1481.57,-41.8969 1506.84,-28.0609 1523.18,-19.5345"/>
<polygon fill="midnightblue" stroke="midnightblue" points="1364.59,-120.761 1357.8,-128.893 1368.18,-126.77 1364.59,-120.761"/>
</g>
<!-- Node12 -->
<g id="node9" class="node"><title>Node12</title>
<g id="a_node9"><a xlink:href="_crc_chunk_8h.html" target="_top" xlink:title=" ">
<polygon fill="white" stroke="black" points="1282,-62 1282,-81 1414,-81 1414,-62 1282,-62"/>
<text text-anchor="middle" x="1348" y="-69" font-family="Helvetica,sans-Serif" font-size="10.00">Cpl/Persistent/CrcChunk.h</text>
</a>
</g>
</g>
<!-- Node7&#45;&gt;Node12 -->
<g id="edge8" class="edge"><title>Node7&#45;&gt;Node12</title>
<path fill="none" stroke="midnightblue" d="M1344.46,-118.537C1345.41,-106.17 1346.61,-90.6198 1347.34,-81.1273"/>
<polygon fill="midnightblue" stroke="midnightblue" points="1340.95,-118.495 1343.67,-128.734 1347.93,-119.032 1340.95,-118.495"/>
</g>
<!-- Node13 -->
<g id="node10" class="node"><title>Node13</title>
<g id="a_node10"><a xlink:href="_data_record_8h.html" target="_top" xlink:title=" ">
<polygon fill="white" stroke="red" points="1470,-62 1470,-81 1610,-81 1610,-62 1470,-62"/>
<text text-anchor="middle" x="1540" y="-69" font-family="Helvetica,sans-Serif" font-size="10.00">Cpl/Persistent/DataRecord.h</text>
</a>
</g>
</g>
<!-- Node7&#45;&gt;Node13 -->
<g id="edge9" class="edge"><title>Node7&#45;&gt;Node13</title>
<path fill="none" stroke="midnightblue" d="M1379.06,-125.601C1418.12,-112.714 1479.47,-92.4728 1514.05,-81.0637"/>
<polygon fill="midnightblue" stroke="midnightblue" points="1377.56,-122.411 1369.16,-128.869 1379.75,-129.059 1377.56,-122.411"/>
</g>
<!-- Node15 -->
<g id="node11" class="node"><title>Node15</title>
<g id="a_node11"><a xlink:href="_indexed_entry_record_8h.html" target="_top" xlink:title=" ">
<polygon fill="white" stroke="red" points="954.5,-56.5 954.5,-86.5 1093.5,-86.5 1093.5,-56.5 954.5,-56.5"/>
<text text-anchor="start" x="962.5" y="-74.5" font-family="Helvetica,sans-Serif" font-size="10.00">Cpl/Persistent/IndexedEntry</text>
<text text-anchor="middle" x="1024" y="-63.5" font-family="Helvetica,sans-Serif" font-size="10.00">Record.h</text>
</a>
</g>
</g>
<!-- Node7&#45;&gt;Node15 -->
<g id="edge10" class="edge"><title>Node7&#45;&gt;Node15</title>
<path fill="none" stroke="midnightblue" d="M1290.94,-126.892C1237.01,-115.904 1152.46,-98.6758 1093,-86.5592"/>
<polygon fill="midnightblue" stroke="midnightblue" points="1290.47,-130.368 1300.97,-128.936 1291.87,-123.509 1290.47,-130.368"/>
</g>
<!-- Node17 -->
<g id="node12" class="node"><title>Node17</title>
<g id="a_node12"><a xlink:href="_mirrored_chunk_8h.html" target="_top" xlink:title=" ">
<polygon fill="white" stroke="black" points="1112,-62 1112,-81 1264,-81 1264,-62 1112,-62"/>
<text text-anchor="middle" x="1188" y="-69" font-family="Helvetica,sans-Serif" font-size="10.00">Cpl/Persistent/MirroredChunk.h</text>
</a>
</g>
</g>
<!-- Node7&#45;&gt;Node17 -->
<g id="edge11" class="edge"><title>Node7&#45;&gt;Node17</title>
<path fill="none" stroke="midnightblue" d="M1313.07,-124.948C1282.38,-112.079 1235.46,-92.4032 1208.67,-81.1672"/>
<polygon fill="midnightblue" stroke="midnightblue" points="1311.84,-128.229 1322.42,-128.869 1314.55,-121.773 1311.84,-128.229"/>
</g>
<!-- Node18&#45;&gt;Node8 -->
<g id="edge13" class="edge"><title>Node18&#45;&gt;Node8</title>
<path fill="none" stroke="midnightblue" d="M1563.79,-125.851C1584.74,-118.405 1606.63,-106.357 1619,-87 1626.42,-75.3891 1625.92,-67.9118 1619,-56 1608.45,-37.85 1587.54,-26.4129 1569.88,-19.6125"/>
<polygon fill="midnightblue" stroke="midnightblue" points="1562.7,-122.527 1554.28,-128.958 1564.87,-129.181 1562.7,-122.527"/>
</g>
<!-- Node18&#45;&gt;Node13 -->
<g id="edge14" class="edge"><title>Node18&#45;&gt;Node13</title>
<path fill="none" stroke="midnightblue" d="M1518.4,-119.29C1524.17,-106.808 1531.55,-90.8135 1536.02,-81.1273"/>
<polygon fill="midnightblue" stroke="midnightblue" points="1515.06,-118.187 1514.05,-128.734 1521.41,-121.121 1515.06,-118.187"/>
</g>
<!-- Node18&#45;&gt;Node19 -->
<g id="edge15" class="edge"><title>Node18&#45;&gt;Node19</title>
<path fill="none" stroke="midnightblue" d="M1550.55,-126.091C1596.24,-113.232 1669.5,-92.6185 1710.57,-81.0637"/>
<polygon fill="midnightblue" stroke="midnightblue" points="1549.35,-122.791 1540.68,-128.869 1551.25,-129.529 1549.35,-122.791"/>
</g>
<!-- Node19&#45;&gt;Node8 -->
<g id="edge16" class="edge"><title>Node19&#45;&gt;Node8</title>
<path fill="none" stroke="midnightblue" d="M1702.25,-59.0286C1663.18,-47.4647 1603.8,-29.8849 1568.74,-19.5091"/>
<polygon fill="midnightblue" stroke="midnightblue" points="1701.62,-62.4926 1712.2,-61.9751 1703.61,-55.7805 1701.62,-62.4926"/>
</g>
<!-- Node20&#45;&gt;Node12 -->
<g id="edge19" class="edge"><title>Node20&#45;&gt;Node12</title>
<path fill="none" stroke="midnightblue" d="M1218.51,-125.104C1250.28,-112.198 1299.19,-92.3272 1326.92,-81.0637"/>
<polygon fill="midnightblue" stroke="midnightblue" points="1217.19,-121.862 1209.25,-128.869 1219.83,-128.347 1217.19,-121.862"/>
</g>
<!-- Node20&#45;&gt;Node15 -->
<g id="edge21" class="edge"><title>Node20&#45;&gt;Node15</title>
<path fill="none" stroke="midnightblue" d="M1156.61,-125.058C1128.83,-114.047 1088.32,-97.9921 1059.39,-86.5281"/>
<polygon fill="midnightblue" stroke="midnightblue" points="1155.64,-128.438 1166.22,-128.869 1158.22,-121.93 1155.64,-128.438"/>
</g>
<!-- Node20&#45;&gt;Node17 -->
<g id="edge22" class="edge"><title>Node20&#45;&gt;Node17</title>
<path fill="none" stroke="midnightblue" d="M1188,-118.537C1188,-106.17 1188,-90.6198 1188,-81.1273"/>
<polygon fill="midnightblue" stroke="midnightblue" points="1184.5,-118.734 1188,-128.734 1191.5,-118.734 1184.5,-118.734"/>
</g>
<!-- Node21 -->
<g id="node16" class="node"><title>Node21</title>
<g id="a_node16"><a xlink:href="_file_adapter_8h.html" target="_top" xlink:title=" ">
<polygon fill="white" stroke="black" points="650.5,-62 650.5,-81 789.5,-81 789.5,-62 650.5,-62"/>
<text text-anchor="middle" x="720" y="-69" font-family="Helvetica,sans-Serif" font-size="10.00">Cpl/Persistent/FileAdapter.h</text>
</a>
</g>
</g>
<!-- Node20&#45;&gt;Node21 -->
<g id="edge20" class="edge"><title>Node20&#45;&gt;Node21</title>
<path fill="none" stroke="midnightblue" d="M1131.95,-127.27C1122.95,-125.754 1113.73,-124.275 1105,-123 969.5,-103.209 934.414,-107.371 799,-87 787.555,-85.2783 775.227,-83.1487 763.792,-81.0569"/>
<polygon fill="midnightblue" stroke="midnightblue" points="1131.53,-130.749 1141.98,-128.988 1132.71,-123.849 1131.53,-130.749"/>
</g>
<!-- Node22 -->
<g id="node17" class="node"><title>Node22</title>
<g id="a_node17"><a xlink:href="_null_region_media_8h.html" target="_top" xlink:title=" ">
<polygon fill="white" stroke="black" points="808,-56.5 808,-86.5 936,-86.5 936,-56.5 808,-56.5"/>
<text text-anchor="start" x="816" y="-74.5" font-family="Helvetica,sans-Serif" font-size="10.00">Cpl/Persistent/NullRegion</text>
<text text-anchor="middle" x="872" y="-63.5" font-family="Helvetica,sans-Serif" font-size="10.00">Media.h</text>
</a>
</g>
</g>
<!-- Node20&#45;&gt;Node22 -->
<g id="edge23" class="edge"><title>Node20&#45;&gt;Node22</title>
<path fill="none" stroke="midnightblue" d="M1136.54,-126.914C1081.85,-115.666 995.289,-97.8601 936.185,-85.7027"/>
<polygon fill="midnightblue" stroke="midnightblue" points="1135.86,-130.349 1146.36,-128.936 1137.27,-123.492 1135.86,-130.349"/>
</g>
<!-- Node26 -->
<g id="node21" class="node"><title>Node26</title>
<g id="a_node21"><a xlink:href="_model_point_common___8h.html" target="_top" xlink:title=" ">
<polygon fill="white" stroke="red" points="138.5,-129 138.5,-148 291.5,-148 291.5,-129 138.5,-129"/>
<text text-anchor="middle" x="215" y="-136" font-family="Helvetica,sans-Serif" font-size="10.00">Cpl/Dm/ModelPointCommon_.h</text>
</a>
</g>
</g>
<!-- Node25&#45;&gt;Node26 -->
<g id="edge27" class="edge"><title>Node25&#45;&gt;Node26</title>
<path fill="none" stroke="midnightblue" d="M430.937,-193.484C379.651,-180.663 296.042,-159.76 249.334,-148.083"/>
<polygon fill="midnightblue" stroke="midnightblue" points="430.192,-196.906 440.742,-195.936 431.89,-190.115 430.192,-196.906"/>
</g>
<!-- Node75 -->
<g id="node25" class="node"><title>Node75</title>
<g id="a_node25"><a xlink:href="_subscriber_composer_8h.html" target="_top" xlink:title=" ">
<polygon fill="white" stroke="red" points="486.5,-129 486.5,-148 637.5,-148 637.5,-129 486.5,-129"/>
<text text-anchor="middle" x="562" y="-136" font-family="Helvetica,sans-Serif" font-size="10.00">Cpl/Dm/SubscriberComposer.h</text>
</a>
</g>
</g>
<!-- Node25&#45;&gt;Node75 -->
<g id="edge31" class="edge"><title>Node25&#45;&gt;Node75</title>
<path fill="none" stroke="midnightblue" d="M494.986,-189.568C512.159,-176.738 536.321,-158.685 550.453,-148.127"/>
<polygon fill="midnightblue" stroke="midnightblue" points="492.649,-186.945 486.733,-195.734 496.839,-192.552 492.649,-186.945"/>
</g>
<!-- Node50 -->
<g id="node26" class="node"><title>Node50</title>
<g id="a_node26"><a xlink:href="_mp_thermostat_mode_8h.html" target="_top" xlink:title=" ">
<polygon fill="white" stroke="red" points="309.5,-129 309.5,-148 468.5,-148 468.5,-129 309.5,-129"/>
<text text-anchor="middle" x="389" y="-136" font-family="Helvetica,sans-Serif" font-size="10.00">Storm/Dm/MpThermostatMode.h</text>
</a>
</g>
</g>
<!-- Node25&#45;&gt;Node50 -->
<g id="edge34" class="edge"><title>Node25&#45;&gt;Node50</title>
<path fill="none" stroke="midnightblue" d="M455.244,-189.568C438.268,-176.738 414.384,-158.685 400.415,-148.127"/>
<polygon fill="midnightblue" stroke="midnightblue" points="453.314,-192.496 463.402,-195.734 457.534,-186.912 453.314,-192.496"/>
</g>
<!-- Node27 -->
<g id="node22" class="node"><title>Node27</title>
<g id="a_node22"><a xlink:href="_array___8h.html" target="_top" xlink:title=" ">
<polygon fill="white" stroke="black" points="162.5,-62 162.5,-81 267.5,-81 267.5,-62 162.5,-62"/>
<text text-anchor="middle" x="215" y="-69" font-family="Helvetica,sans-Serif" font-size="10.00">Cpl/Dm/Mp/Array_.h</text>
</a>
</g>
</g>
<!-- Node26&#45;&gt;Node27 -->
<g id="edge28" class="edge"><title>Node26&#45;&gt;Node27</title>
<path fill="none" stroke="midnightblue" d="M215,-118.537C215,-106.17 215,-90.6198 215,-81.1273"/>
<polygon fill="midnightblue" stroke="midnightblue" points="211.5,-118.734 215,-128.734 218.5,-118.734 211.5,-118.734"/>
</g>
<!-- Node28 -->
<g id="node23" class="node"><title>Node28</title>
<g id="a_node23"><a xlink:href="_bool_8h.html" target="_top" xlink:title=" ">
<polygon fill="white" stroke="red" points="286,-62 286,-81 382,-81 382,-62 286,-62"/>
<text text-anchor="middle" x="334" y="-69" font-family="Helvetica,sans-Serif" font-size="10.00">Cpl/Dm/Mp/Bool.h</text>
</a>
</g>
</g>
<!-- Node26&#45;&gt;Node28 -->
<g id="edge29" class="edge"><title>Node26&#45;&gt;Node28</title>
<path fill="none" stroke="midnightblue" d="M240.105,-123.787C263.69,-110.905 298.256,-92.0243 318.205,-81.1273"/>
<polygon fill="midnightblue" stroke="midnightblue" points="238.147,-120.868 231.049,-128.734 241.503,-127.012 238.147,-120.868"/>
</g>
<!-- Node46 -->
<g id="node24" class="node"><title>Node46</title>
<g id="a_node24"><a xlink:href="_elapsed_precision_time_8h.html" target="_top" xlink:title=" ">
<polygon fill="white" stroke="red" points="0,-56.5 0,-86.5 144,-86.5 144,-56.5 0,-56.5"/>
<text text-anchor="start" x="8" y="-74.5" font-family="Helvetica,sans-Serif" font-size="10.00">Cpl/Dm/Mp/ElapsedPrecision</text>
<text text-anchor="middle" x="72" y="-63.5" font-family="Helvetica,sans-Serif" font-size="10.00">Time.h</text>
</a>
</g>
</g>
<!-- Node26&#45;&gt;Node46 -->
<g id="edge30" class="edge"><title>Node26&#45;&gt;Node46</title>
<path fill="none" stroke="midnightblue" d="M186.665,-124.621C162.475,-113.625 127.751,-97.8413 102.862,-86.5281"/>
<polygon fill="midnightblue" stroke="midnightblue" points="185.459,-127.917 196.011,-128.869 188.355,-121.544 185.459,-127.917"/>
</g>
<!-- Node75&#45;&gt;Node8 -->
<g id="edge32" class="edge"><title>Node75&#45;&gt;Node8</title>
<path fill="none" stroke="midnightblue" d="M533.602,-124.382C502.452,-108.314 459.77,-80.2397 483,-56 517.194,-20.3196 1241.16,-12.8268 1470.78,-11.3454"/>
<polygon fill="midnightblue" stroke="midnightblue" points="532.301,-127.644 542.814,-128.965 535.42,-121.377 532.301,-127.644"/>
</g>
<!-- Node75&#45;&gt;Node24 -->
<g id="edge33" class="edge"><title>Node75&#45;&gt;Node24</title>
<path fill="none" stroke="midnightblue" d="M562,-118.411C562,-108.222 562,-95.901 562,-86.589"/>
<polygon fill="midnightblue" stroke="midnightblue" points="558.5,-118.734 562,-128.734 565.5,-118.734 558.5,-118.734"/>
</g>
<!-- Node77 -->
<g id="node28" class="node"><title>Node77</title>
<g id="a_node28"><a xlink:href="_posix_2_listener_8h.html" target="_top" xlink:title=" ">
<polygon fill="white" stroke="black" points="1864,-190.5 1864,-220.5 1968,-220.5 1968,-190.5 1864,-190.5"/>
<text text-anchor="start" x="1872" y="-208.5" font-family="Helvetica,sans-Serif" font-size="10.00">Cpl/Io/Socket/Posix</text>
<text text-anchor="middle" x="1916" y="-197.5" font-family="Helvetica,sans-Serif" font-size="10.00">/Listener.h</text>
</a>
</g>
</g>
<!-- Node76&#45;&gt;Node77 -->
<g id="edge36" class="edge"><title>Node76&#45;&gt;Node77</title>
<path fill="none" stroke="midnightblue" d="M1874.22,-254.989C1883.38,-244.364 1895.15,-230.702 1903.86,-220.589"/>
<polygon fill="midnightblue" stroke="midnightblue" points="1871.43,-252.873 1867.55,-262.734 1876.73,-257.442 1871.43,-252.873"/>
</g>
<!-- Node78 -->
<g id="node29" class="node"><title>Node78</title>
<g id="a_node29"><a xlink:href="_win32_2_listener_8h.html" target="_top" xlink:title=" ">
<polygon fill="white" stroke="black" points="1986,-190.5 1986,-220.5 2092,-220.5 2092,-190.5 1986,-190.5"/>
<text text-anchor="start" x="1994" y="-208.5" font-family="Helvetica,sans-Serif" font-size="10.00">Cpl/Io/Socket/Win32</text>
<text text-anchor="middle" x="2039" y="-197.5" font-family="Helvetica,sans-Serif" font-size="10.00">/Listener.h</text>
</a>
</g>
</g>
<!-- Node76&#45;&gt;Node78 -->
<g id="edge37" class="edge"><title>Node76&#45;&gt;Node78</title>
<path fill="none" stroke="midnightblue" d="M1893.47,-259.346C1923.81,-248.329 1968.52,-232.093 2000.37,-220.528"/>
<polygon fill="midnightblue" stroke="midnightblue" points="1891.97,-256.165 1883.77,-262.869 1894.36,-262.745 1891.97,-256.165"/>
</g>
<!-- Node84&#45;&gt;Node24 -->
<g id="edge49" class="edge"><title>Node84&#45;&gt;Node24</title>
<path fill="none" stroke="midnightblue" d="M1607.57,-267.798C1420.15,-256.084 864.908,-216.851 696,-154 671.495,-144.882 668.316,-136.625 646,-123 625.668,-110.586 602.452,-96.6468 585.587,-86.5631"/>
<polygon fill="midnightblue" stroke="midnightblue" points="1607.61,-271.306 1617.8,-268.433 1608.04,-264.32 1607.61,-271.306"/>
</g>
<!-- Node85 -->
<g id="node36" class="node"><title>Node85</title>
<g id="a_node36"><a xlink:href="helpers_8h.html" target="_top" xlink:title="This file defines helper functions/interface for writing unit tests.">
<polygon fill="white" stroke="black" points="1760.5,-196 1760.5,-215 1845.5,-215 1845.5,-196 1760.5,-196"/>
<text text-anchor="middle" x="1803" y="-203" font-family="Helvetica,sans-Serif" font-size="10.00">Catch/helpers.h</text>
</a>
</g>
</g>
<!-- Node84&#45;&gt;Node85 -->
<g id="edge44" class="edge"><title>Node84&#45;&gt;Node85</title>
<path fill="none" stroke="midnightblue" d="M1696.72,-258.444C1723.06,-245.569 1762.57,-226.257 1785.27,-215.167"/>
<polygon fill="midnightblue" stroke="midnightblue" points="1695.11,-255.333 1687.66,-262.869 1698.18,-261.622 1695.11,-255.333"/>
</g>
<!-- Node86 -->
<g id="node37" class="node"><title>Node86</title>
<g id="a_node37"><a xlink:href="_cpl_2_system_2_private___8h.html" target="_top" xlink:title="This file contains a collection of classes, interfaces, etc.">
<polygon fill="white" stroke="black" points="1464.5,-196 1464.5,-215 1579.5,-215 1579.5,-196 1464.5,-196"/>
<text text-anchor="middle" x="1522" y="-203" font-family="Helvetica,sans-Serif" font-size="10.00">Cpl/System/Private_.h</text>
</a>
</g>
</g>
<!-- Node84&#45;&gt;Node86 -->
<g id="edge45" class="edge"><title>Node84&#45;&gt;Node86</title>
<path fill="none" stroke="midnightblue" d="M1641.04,-258.781C1611.73,-245.909 1567.21,-226.355 1541.73,-215.167"/>
<polygon fill="midnightblue" stroke="midnightblue" points="1639.78,-262.052 1650.35,-262.869 1642.6,-255.643 1639.78,-262.052"/>
</g>
<!-- Node89 -->
<g id="node40" class="node"><title>Node89</title>
<g id="a_node40"><a xlink:href="_fsm__trace___8h.html" target="_top" xlink:title=" ">
<polygon fill="white" stroke="black" points="1597.5,-190.5 1597.5,-220.5 1742.5,-220.5 1742.5,-190.5 1597.5,-190.5"/>
<text text-anchor="start" x="1605.5" y="-208.5" font-family="Helvetica,sans-Serif" font-size="10.00">Storm/Component/Equipment</text>
<text text-anchor="middle" x="1670" y="-197.5" font-family="Helvetica,sans-Serif" font-size="10.00">/Stage/Fsm_trace_.h</text>
</a>
</g>
</g>
<!-- Node84&#45;&gt;Node89 -->
<g id="edge48" class="edge"><title>Node84&#45;&gt;Node89</title>
<path fill="none" stroke="midnightblue" d="M1670,-252.411C1670,-242.222 1670,-229.901 1670,-220.589"/>
<polygon fill="midnightblue" stroke="midnightblue" points="1666.5,-252.734 1670,-262.734 1673.5,-252.734 1666.5,-252.734"/>
</g>
<!-- Node87 -->
<g id="node38" class="node"><title>Node87</title>
<g id="a_node38"><a xlink:href="_cpl_2_t_shell_2_maker_8h.html" target="_top" xlink:title=" ">
<polygon fill="white" stroke="black" points="1772,-129 1772,-148 1872,-148 1872,-129 1772,-129"/>
<text text-anchor="middle" x="1822" y="-136" font-family="Helvetica,sans-Serif" font-size="10.00">Cpl/TShell/Maker.h</text>
</a>
</g>
</g>
<!-- Node86&#45;&gt;Node87 -->
<g id="edge46" class="edge"><title>Node86&#45;&gt;Node87</title>
<path fill="none" stroke="midnightblue" d="M1570.3,-193.818C1576.26,-192.521 1582.27,-191.223 1588,-190 1665.23,-173.527 1684.94,-171.278 1762,-154 1770.26,-152.148 1779.14,-150.058 1787.46,-148.053"/>
<polygon fill="midnightblue" stroke="midnightblue" points="1569.39,-190.432 1560.37,-195.986 1570.89,-197.271 1569.39,-190.432"/>
</g>
<!-- Node88 -->
<g id="node39" class="node"><title>Node88</title>
<g id="a_node39"><a xlink:href="_polled_maker_8h.html" target="_top" xlink:title=" ">
<polygon fill="white" stroke="black" points="1626.5,-129 1626.5,-148 1753.5,-148 1753.5,-129 1626.5,-129"/>
<text text-anchor="middle" x="1690" y="-136" font-family="Helvetica,sans-Serif" font-size="10.00">Cpl/TShell/PolledMaker.h</text>
</a>
</g>
</g>
<!-- Node86&#45;&gt;Node88 -->
<g id="edge47" class="edge"><title>Node86&#45;&gt;Node88</title>
<path fill="none" stroke="midnightblue" d="M1554.04,-192.104C1587.39,-179.198 1638.75,-159.327 1667.87,-148.064"/>
<polygon fill="midnightblue" stroke="midnightblue" points="1552.37,-188.996 1544.31,-195.869 1554.9,-195.524 1552.37,-188.996"/>
</g>
<!-- Node92 -->
<g id="node43" class="node"><title>Node92</title>
<g id="a_node43"><a xlink:href="_free_r_t_o_s_2_threads_8h.html" target="_top" xlink:title=" ">
<polygon fill="white" stroke="black" points="2772,-190.5 2772,-220.5 2906,-220.5 2906,-190.5 2772,-190.5"/>
<text text-anchor="start" x="2780" y="-208.5" font-family="Helvetica,sans-Serif" font-size="10.00">Cpl/TShell/Cmd/FreeRTOS</text>
<text text-anchor="middle" x="2839" y="-197.5" font-family="Helvetica,sans-Serif" font-size="10.00">/Threads.h</text>
</a>
</g>
</g>
<!-- Node91&#45;&gt;Node92 -->
<g id="edge52" class="edge"><title>Node91&#45;&gt;Node92</title>
<path fill="none" stroke="midnightblue" d="M2893.75,-255.928C2881.84,-245.179 2866.14,-231.002 2854.61,-220.589"/>
<polygon fill="midnightblue" stroke="midnightblue" points="2891.52,-258.631 2901.29,-262.734 2896.21,-253.435 2891.52,-258.631"/>
</g>
<!-- Node93 -->
<g id="node44" class="node"><title>Node93</title>
<g id="a_node44"><a xlink:href="_win32_2_threads_8h.html" target="_top" xlink:title=" ">
<polygon fill="white" stroke="black" points="2924.5,-190.5 2924.5,-220.5 3039.5,-220.5 3039.5,-190.5 2924.5,-190.5"/>
<text text-anchor="start" x="2932.5" y="-208.5" font-family="Helvetica,sans-Serif" font-size="10.00">Cpl/TShell/Cmd/Win32</text>
<text text-anchor="middle" x="2982" y="-197.5" font-family="Helvetica,sans-Serif" font-size="10.00">/Threads.h</text>
</a>
</g>
</g>
<!-- Node91&#45;&gt;Node93 -->
<g id="edge53" class="edge"><title>Node91&#45;&gt;Node93</title>
<path fill="none" stroke="midnightblue" d="M2928.01,-255.928C2939.75,-245.179 2955.24,-231.002 2966.61,-220.589"/>
<polygon fill="midnightblue" stroke="midnightblue" points="2925.59,-253.4 2920.58,-262.734 2930.31,-258.563 2925.59,-253.4"/>
</g>
<!-- Node97 -->
<g id="node48" class="node"><title>Node97</title>
<g id="a_node48"><a xlink:href="_driver_2_uart_2_stream_2_input_output___8h.html" target="_top" xlink:title=" ">
<polygon fill="white" stroke="black" points="3289,-190.5 3289,-220.5 3387,-220.5 3387,-190.5 3289,-190.5"/>
<text text-anchor="start" x="3297" y="-208.5" font-family="Helvetica,sans-Serif" font-size="10.00">Driver/Uart/Stream</text>
<text text-anchor="middle" x="3338" y="-197.5" font-family="Helvetica,sans-Serif" font-size="10.00">/InputOutput_.h</text>
</a>
</g>
</g>
<!-- Node96&#45;&gt;Node97 -->
<g id="edge57" class="edge"><title>Node96&#45;&gt;Node97</title>
<path fill="none" stroke="midnightblue" d="M3299.42,-249.736C3308,-240.119 3317.84,-229.089 3325.44,-220.577"/>
<polygon fill="midnightblue" stroke="midnightblue" points="3296.63,-247.604 3292.59,-257.396 3301.85,-252.265 3296.63,-247.604"/>
</g>
<!-- Node98 -->
<g id="node49" class="node"><title>Node98</title>
<g id="a_node49"><a xlink:href="_serial_2_renesas_2_rx62n_2_input_output_8h.html" target="_top" xlink:title=" ">
<polygon fill="white" stroke="black" points="3282.5,-123.5 3282.5,-153.5 3393.5,-153.5 3393.5,-123.5 3282.5,-123.5"/>
<text text-anchor="start" x="3290.5" y="-141.5" font-family="Helvetica,sans-Serif" font-size="10.00">Cpl/Io/Serial/Renesas</text>
<text text-anchor="middle" x="3338" y="-130.5" font-family="Helvetica,sans-Serif" font-size="10.00">/Rx62n/InputOutput.h</text>
</a>
</g>
</g>
<!-- Node97&#45;&gt;Node98 -->
<g id="edge58" class="edge"><title>Node97&#45;&gt;Node98</title>
<path fill="none" stroke="midnightblue" d="M3338,-180.108C3338,-171.154 3338,-161.323 3338,-153.577"/>
<polygon fill="midnightblue" stroke="midnightblue" points="3334.5,-180.396 3338,-190.396 3341.5,-180.396 3334.5,-180.396"/>
</g>
<!-- Node99&#45;&gt;Node97 -->
<g id="edge60" class="edge"><title>Node99&#45;&gt;Node97</title>
<path fill="none" stroke="midnightblue" d="M3376.58,-249.736C3368,-240.119 3358.16,-229.089 3350.56,-220.577"/>
<polygon fill="midnightblue" stroke="midnightblue" points="3374.15,-252.265 3383.41,-257.396 3379.37,-247.604 3374.15,-252.265"/>
</g>
</g>
</svg>
