<?xml version="1.0" encoding="UTF-8" standalone="no"?>
<!DOCTYPE svg PUBLIC "-//W3C//DTD SVG 1.1//EN"
 "http://www.w3.org/Graphics/SVG/1.1/DTD/svg11.dtd">
<!-- Generated by graphviz version 2.38.0 (20140413.2041)
 -->
<!-- Title: Cpl/Type/Traverser.h Pages: 1 -->
<svg width="3081pt" height="419pt"
 viewBox="0.00 0.00 3080.50 419.00" xmlns="http://www.w3.org/2000/svg" xmlns:xlink="http://www.w3.org/1999/xlink">
<g id="graph0" class="graph" transform="scale(1 1) rotate(0) translate(4 415)">
<title>Cpl/Type/Traverser.h</title>
<polygon fill="white" stroke="none" points="-4,4 -4,-415 3076.5,-415 3076.5,4 -4,4"/>
<!-- Node1 -->
<g id="node1" class="node"><title>Node1</title>
<g id="a_node1"><a xlink:title=" ">
<polygon fill="#bfbfbf" stroke="black" points="2061.5,-391.5 2061.5,-410.5 2169.5,-410.5 2169.5,-391.5 2061.5,-391.5"/>
<text text-anchor="middle" x="2115.5" y="-398.5" font-family="Helvetica,sans-Serif" font-size="10.00">Cpl/Type/Traverser.h</text>
</a>
</g>
</g>
<!-- Node2 -->
<g id="node2" class="node"><title>Node2</title>
<g id="a_node2"><a xlink:href="_cpl_2_io_2_file_2_api_8h.html" target="_top" xlink:title=" ">
<polygon fill="white" stroke="black" points="2014.5,-335.5 2014.5,-354.5 2100.5,-354.5 2100.5,-335.5 2014.5,-335.5"/>
<text text-anchor="middle" x="2057.5" y="-342.5" font-family="Helvetica,sans-Serif" font-size="10.00">Cpl/Io/File/Api.h</text>
</a>
</g>
</g>
<!-- Node1&#45;&gt;Node2 -->
<g id="edge1" class="edge"><title>Node1&#45;&gt;Node2</title>
<path fill="none" stroke="midnightblue" d="M2098.59,-384.253C2088.3,-374.673 2075.53,-362.791 2066.99,-354.834"/>
<polygon fill="midnightblue" stroke="midnightblue" points="2096.48,-387.071 2106.18,-391.324 2101.25,-381.948 2096.48,-387.071"/>
</g>
<!-- Node3 -->
<g id="node3" class="node"><title>Node3</title>
<g id="a_node3"><a xlink:href="_thread_8h.html" target="_top" xlink:title=" ">
<polygon fill="white" stroke="black" points="2119,-335.5 2119,-354.5 2228,-354.5 2228,-335.5 2119,-335.5"/>
<text text-anchor="middle" x="2173.5" y="-342.5" font-family="Helvetica,sans-Serif" font-size="10.00">Cpl/System/Thread.h</text>
</a>
</g>
</g>
<!-- Node1&#45;&gt;Node3 -->
<g id="edge2" class="edge"><title>Node1&#45;&gt;Node3</title>
<path fill="none" stroke="midnightblue" d="M2132.41,-384.253C2142.7,-374.673 2155.47,-362.791 2164.01,-354.834"/>
<polygon fill="midnightblue" stroke="midnightblue" points="2129.75,-381.948 2124.82,-391.324 2134.52,-387.071 2129.75,-381.948"/>
</g>
<!-- Node4 -->
<g id="node4" class="node"><title>Node4</title>
<g id="a_node4"><a xlink:href="_dm_2_event_loop_8h.html" target="_top" xlink:title=" ">
<polygon fill="white" stroke="black" points="1177,-274 1177,-293 1284,-293 1284,-274 1177,-274"/>
<text text-anchor="middle" x="1230.5" y="-281" font-family="Helvetica,sans-Serif" font-size="10.00">Cpl/Dm/EventLoop.h</text>
</a>
</g>
</g>
<!-- Node3&#45;&gt;Node4 -->
<g id="edge3" class="edge"><title>Node3&#45;&gt;Node4</title>
<path fill="none" stroke="midnightblue" d="M2108.74,-335.037C1745.83,-302.495 1649.31,-348.151 1292.5,-299 1282.43,-297.612 1271.58,-295.349 1261.83,-293.019"/>
<polygon fill="midnightblue" stroke="midnightblue" points="2108.45,-338.525 2118.73,-335.946 2109.09,-331.554 2108.45,-338.525"/>
</g>
<!-- Node38 -->
<g id="node28" class="node"><title>Node38</title>
<g id="a_node28"><a xlink:href="_listener___8h.html" target="_top" xlink:title=" ">
<polygon fill="white" stroke="black" points="1302,-274 1302,-293 1429,-293 1429,-274 1302,-274"/>
<text text-anchor="middle" x="1365.5" y="-281" font-family="Helvetica,sans-Serif" font-size="10.00">Cpl/Io/Socket/Listener_.h</text>
</a>
</g>
</g>
<!-- Node3&#45;&gt;Node38 -->
<g id="edge36" class="edge"><title>Node3&#45;&gt;Node38</title>
<path fill="none" stroke="midnightblue" d="M2108.47,-334.998C1810.03,-306.824 1730.89,-336.201 1437.5,-299 1426.12,-297.556 1413.84,-295.336 1402.7,-293.063"/>
<polygon fill="midnightblue" stroke="midnightblue" points="2108.44,-338.511 2118.72,-335.981 2109.1,-331.543 2108.44,-338.511"/>
</g>
<!-- Node41 -->
<g id="node31" class="node"><title>Node41</title>
<g id="a_node31"><a xlink:href="_bare_metal_2_thread_8h.html" target="_top" xlink:title=" ">
<polygon fill="white" stroke="black" points="1447,-268.5 1447,-298.5 1562,-298.5 1562,-268.5 1447,-268.5"/>
<text text-anchor="start" x="1455" y="-286.5" font-family="Helvetica,sans-Serif" font-size="10.00">Cpl/System/BareMetal</text>
<text text-anchor="middle" x="1504.5" y="-275.5" font-family="Helvetica,sans-Serif" font-size="10.00">/Thread.h</text>
</a>
</g>
</g>
<!-- Node3&#45;&gt;Node41 -->
<g id="edge39" class="edge"><title>Node3&#45;&gt;Node41</title>
<path fill="none" stroke="midnightblue" d="M2108.67,-335C1869.39,-310.893 1805.56,-331.977 1571.5,-299 1568.44,-298.568 1565.3,-298.075 1562.15,-297.536"/>
<polygon fill="midnightblue" stroke="midnightblue" points="2108.41,-338.492 2118.72,-336.029 2109.13,-331.529 2108.41,-338.492"/>
</g>
<!-- Node42 -->
<g id="node32" class="node"><title>Node42</title>
<g id="a_node32"><a xlink:href="_cpp11_2_thread_8h.html" target="_top" xlink:title=" ">
<polygon fill="white" stroke="black" points="1580.5,-274 1580.5,-293 1720.5,-293 1720.5,-274 1580.5,-274"/>
<text text-anchor="middle" x="1650.5" y="-281" font-family="Helvetica,sans-Serif" font-size="10.00">Cpl/System/Cpp11/Thread.h</text>
</a>
</g>
</g>
<!-- Node3&#45;&gt;Node42 -->
<g id="edge40" class="edge"><title>Node3&#45;&gt;Node42</title>
<path fill="none" stroke="midnightblue" d="M2108.7,-334.962C1939.32,-315.444 1894.33,-321.891 1729.5,-299 1717.62,-297.35 1704.81,-295.173 1693.03,-293.008"/>
<polygon fill="midnightblue" stroke="midnightblue" points="2108.37,-338.447 2118.71,-336.129 2109.18,-331.494 2108.37,-338.447"/>
</g>
<!-- Node43 -->
<g id="node33" class="node"><title>Node43</title>
<g id="a_node33"><a xlink:href="_free_r_t_o_s_2_thread_8h.html" target="_top" xlink:title=" ">
<polygon fill="white" stroke="black" points="1739,-268.5 1739,-298.5 1856,-298.5 1856,-268.5 1739,-268.5"/>
<text text-anchor="start" x="1747" y="-286.5" font-family="Helvetica,sans-Serif" font-size="10.00">Cpl/System/FreeRTOS</text>
<text text-anchor="middle" x="1797.5" y="-275.5" font-family="Helvetica,sans-Serif" font-size="10.00">/Thread.h</text>
</a>
</g>
</g>
<!-- Node3&#45;&gt;Node43 -->
<g id="edge41" class="edge"><title>Node3&#45;&gt;Node43</title>
<path fill="none" stroke="midnightblue" d="M2108.84,-334.825C2025.36,-322.943 1887.98,-303.246 1864.5,-299 1861.81,-298.513 1859.06,-297.996 1856.28,-297.46"/>
<polygon fill="midnightblue" stroke="midnightblue" points="2108.35,-338.29 2118.74,-336.234 2109.33,-331.36 2108.35,-338.29"/>
</g>
<!-- Node44 -->
<g id="node34" class="node"><title>Node44</title>
<g id="a_node34"><a xlink:href="_posix_2_thread_8h.html" target="_top" xlink:title=" ">
<polygon fill="white" stroke="black" points="1874,-274 1874,-293 2011,-293 2011,-274 1874,-274"/>
<text text-anchor="middle" x="1942.5" y="-281" font-family="Helvetica,sans-Serif" font-size="10.00">Cpl/System/Posix/Thread.h</text>
</a>
</g>
</g>
<!-- Node3&#45;&gt;Node44 -->
<g id="edge42" class="edge"><title>Node3&#45;&gt;Node44</title>
<path fill="none" stroke="midnightblue" d="M2130.67,-332.968C2085.82,-321.415 2016.33,-303.517 1975.54,-293.009"/>
<polygon fill="midnightblue" stroke="midnightblue" points="2129.85,-336.37 2140.4,-335.475 2131.59,-329.591 2129.85,-336.37"/>
</g>
<!-- Node45 -->
<g id="node35" class="node"><title>Node45</title>
<g id="a_node35"><a xlink:href="_r_p2040_2_thread_8h.html" target="_top" xlink:title=" ">
<polygon fill="white" stroke="black" points="2029.5,-274 2029.5,-293 2175.5,-293 2175.5,-274 2029.5,-274"/>
<text text-anchor="middle" x="2102.5" y="-281" font-family="Helvetica,sans-Serif" font-size="10.00">Cpl/System/RP2040/Thread.h</text>
</a>
</g>
</g>
<!-- Node3&#45;&gt;Node45 -->
<g id="edge43" class="edge"><title>Node3&#45;&gt;Node45</title>
<path fill="none" stroke="midnightblue" d="M2155.57,-328.973C2141.99,-317.593 2123.82,-302.369 2112.65,-293.009"/>
<polygon fill="midnightblue" stroke="midnightblue" points="2153.41,-331.735 2163.33,-335.475 2157.91,-326.369 2153.41,-331.735"/>
</g>
<!-- Node46 -->
<g id="node36" class="node"><title>Node46</title>
<g id="a_node36"><a xlink:href="_system_2_trace_8h.html" target="_top" xlink:title=" ">
<polygon fill="white" stroke="black" points="2193.5,-274 2193.5,-293 2297.5,-293 2297.5,-274 2193.5,-274"/>
<text text-anchor="middle" x="2245.5" y="-281" font-family="Helvetica,sans-Serif" font-size="10.00">Cpl/System/Trace.h</text>
</a>
</g>
</g>
<!-- Node3&#45;&gt;Node46 -->
<g id="edge44" class="edge"><title>Node3&#45;&gt;Node46</title>
<path fill="none" stroke="midnightblue" d="M2191.68,-328.973C2205.46,-317.593 2223.88,-302.369 2235.2,-293.009"/>
<polygon fill="midnightblue" stroke="midnightblue" points="2189.29,-326.407 2183.82,-335.475 2193.75,-331.803 2189.29,-326.407"/>
</g>
<!-- Node51 -->
<g id="node41" class="node"><title>Node51</title>
<g id="a_node41"><a xlink:href="_win32_2_thread_8h.html" target="_top" xlink:title=" ">
<polygon fill="white" stroke="black" points="2316,-274 2316,-293 2455,-293 2455,-274 2316,-274"/>
<text text-anchor="middle" x="2385.5" y="-281" font-family="Helvetica,sans-Serif" font-size="10.00">Cpl/System/Win32/Thread.h</text>
</a>
</g>
</g>
<!-- Node3&#45;&gt;Node51 -->
<g id="edge49" class="edge"><title>Node3&#45;&gt;Node51</title>
<path fill="none" stroke="midnightblue" d="M2213.59,-332.749C2254.77,-321.189 2317.98,-303.451 2355.18,-293.009"/>
<polygon fill="midnightblue" stroke="midnightblue" points="2212.56,-329.403 2203.87,-335.475 2214.45,-336.143 2212.56,-329.403"/>
</g>
<!-- Node52 -->
<g id="node42" class="node"><title>Node52</title>
<g id="a_node42"><a xlink:href="_threads_8h.html" target="_top" xlink:title=" ">
<polygon fill="white" stroke="black" points="2473,-274 2473,-293 2604,-293 2604,-274 2473,-274"/>
<text text-anchor="middle" x="2538.5" y="-281" font-family="Helvetica,sans-Serif" font-size="10.00">Cpl/TShell/Cmd/Threads.h</text>
</a>
</g>
</g>
<!-- Node3&#45;&gt;Node52 -->
<g id="edge50" class="edge"><title>Node3&#45;&gt;Node52</title>
<path fill="none" stroke="midnightblue" d="M2238.02,-334.688C2296.86,-326.029 2386.16,-312.472 2463.5,-299 2473.95,-297.179 2485.2,-295.081 2495.72,-293.055"/>
<polygon fill="midnightblue" stroke="midnightblue" points="2237.5,-331.226 2228.12,-336.141 2238.52,-338.152 2237.5,-331.226"/>
</g>
<!-- Node55 -->
<g id="node45" class="node"><title>Node55</title>
<g id="a_node45"><a xlink:href="_socket_8h.html" target="_top" xlink:title=" ">
<polygon fill="white" stroke="black" points="2622.5,-274 2622.5,-293 2726.5,-293 2726.5,-274 2622.5,-274"/>
<text text-anchor="middle" x="2674.5" y="-281" font-family="Helvetica,sans-Serif" font-size="10.00">Cpl/TShell/Socket.h</text>
</a>
</g>
</g>
<!-- Node3&#45;&gt;Node55 -->
<g id="edge53" class="edge"><title>Node3&#45;&gt;Node55</title>
<path fill="none" stroke="midnightblue" d="M2238.34,-339.952C2324.3,-333.992 2480.53,-321.103 2612.5,-299 2621.99,-297.411 2632.18,-295.228 2641.52,-293.037"/>
<polygon fill="midnightblue" stroke="midnightblue" points="2237.95,-336.47 2228.21,-340.644 2238.42,-343.454 2237.95,-336.47"/>
</g>
<!-- Node56 -->
<g id="node46" class="node"><title>Node56</title>
<g id="a_node46"><a xlink:href="_t_shell_2_stdio_8h.html" target="_top" xlink:title=" ">
<polygon fill="white" stroke="black" points="2745,-274 2745,-293 2840,-293 2840,-274 2745,-274"/>
<text text-anchor="middle" x="2792.5" y="-281" font-family="Helvetica,sans-Serif" font-size="10.00">Cpl/TShell/Stdio.h</text>
</a>
</g>
</g>
<!-- Node3&#45;&gt;Node56 -->
<g id="edge54" class="edge"><title>Node3&#45;&gt;Node56</title>
<path fill="none" stroke="midnightblue" d="M2238.25,-342.37C2343.28,-338.932 2557.01,-328.629 2735.5,-299 2744.47,-297.512 2754.09,-295.306 2762.82,-293.061"/>
<polygon fill="midnightblue" stroke="midnightblue" points="2238.01,-338.876 2228.13,-342.691 2238.23,-345.872 2238.01,-338.876"/>
</g>
<!-- Node57 -->
<g id="node47" class="node"><title>Node57</title>
<g id="a_node47"><a xlink:href="_receiver_8h.html" target="_top" xlink:title=" ">
<polygon fill="white" stroke="black" points="2858.5,-268.5 2858.5,-298.5 2956.5,-298.5 2956.5,-268.5 2858.5,-268.5"/>
<text text-anchor="start" x="2866.5" y="-286.5" font-family="Helvetica,sans-Serif" font-size="10.00">Driver/Uart/Stream</text>
<text text-anchor="middle" x="2907.5" y="-275.5" font-family="Helvetica,sans-Serif" font-size="10.00">/Receiver.h</text>
</a>
</g>
</g>
<!-- Node3&#45;&gt;Node57 -->
<g id="edge55" class="edge"><title>Node3&#45;&gt;Node57</title>
<path fill="none" stroke="midnightblue" d="M2238.28,-343.428C2359.01,-341.534 2626.33,-333.436 2848.5,-299 2851.73,-298.499 2855.05,-297.907 2858.37,-297.253"/>
<polygon fill="midnightblue" stroke="midnightblue" points="2238.05,-339.931 2228.1,-343.578 2238.15,-346.93 2238.05,-339.931"/>
</g>
<!-- Node60 -->
<g id="node50" class="node"><title>Node60</title>
<g id="a_node50"><a xlink:href="_transmitter_8h.html" target="_top" xlink:title=" ">
<polygon fill="white" stroke="black" points="2974.5,-268.5 2974.5,-298.5 3072.5,-298.5 3072.5,-268.5 2974.5,-268.5"/>
<text text-anchor="start" x="2982.5" y="-286.5" font-family="Helvetica,sans-Serif" font-size="10.00">Driver/Uart/Stream</text>
<text text-anchor="middle" x="3023.5" y="-275.5" font-family="Helvetica,sans-Serif" font-size="10.00">/Transmitter.h</text>
</a>
</g>
</g>
<!-- Node3&#45;&gt;Node60 -->
<g id="edge58" class="edge"><title>Node3&#45;&gt;Node60</title>
<path fill="none" stroke="midnightblue" d="M2238.34,-344.429C2374.08,-344.426 2697.78,-339.7 2965.5,-299 2968.37,-298.563 2971.31,-298.048 2974.27,-297.478"/>
<polygon fill="midnightblue" stroke="midnightblue" points="2238.12,-340.929 2228.12,-344.42 2238.12,-347.929 2238.12,-340.929"/>
</g>
<!-- Node5 -->
<g id="node5" class="node"><title>Node5</title>
<g id="a_node5"><a xlink:href="_dm_2_mailbox_server_8h.html" target="_top" xlink:title=" ">
<polygon fill="white" stroke="black" points="1170.5,-207 1170.5,-226 1292.5,-226 1292.5,-207 1170.5,-207"/>
<text text-anchor="middle" x="1231.5" y="-214" font-family="Helvetica,sans-Serif" font-size="10.00">Cpl/Dm/MailboxServer.h</text>
</a>
</g>
</g>
<!-- Node4&#45;&gt;Node5 -->
<g id="edge4" class="edge"><title>Node4&#45;&gt;Node5</title>
<path fill="none" stroke="midnightblue" d="M1230.79,-263.537C1230.98,-251.17 1231.22,-235.62 1231.37,-226.127"/>
<polygon fill="midnightblue" stroke="midnightblue" points="1227.29,-263.681 1230.63,-273.734 1234.29,-263.789 1227.29,-263.681"/>
</g>
<!-- Node19 -->
<g id="node18" class="node"><title>Node19</title>
<g id="a_node18"><a xlink:href="_subscriber_8h.html" target="_top" xlink:title=" ">
<polygon fill="white" stroke="black" points="570,-140 570,-159 677,-159 677,-140 570,-140"/>
<text text-anchor="middle" x="623.5" y="-147" font-family="Helvetica,sans-Serif" font-size="10.00">Cpl/Dm/Subscriber.h</text>
</a>
</g>
</g>
<!-- Node4&#45;&gt;Node19 -->
<g id="edge24" class="edge"><title>Node4&#45;&gt;Node19</title>
<path fill="none" stroke="midnightblue" d="M1181.34,-271.81C1063.99,-246.291 769.368,-182.221 662.77,-159.04"/>
<polygon fill="midnightblue" stroke="midnightblue" points="1180.63,-275.236 1191.14,-273.941 1182.11,-268.396 1180.63,-275.236"/>
</g>
<!-- Node6 -->
<g id="node6" class="node"><title>Node6</title>
<g id="a_node6"><a xlink:href="_dm_2_periodic_scheduler_8h.html" target="_top" xlink:title=" ">
<polygon fill="white" stroke="black" points="1089,-140 1089,-159 1228,-159 1228,-140 1089,-140"/>
<text text-anchor="middle" x="1158.5" y="-147" font-family="Helvetica,sans-Serif" font-size="10.00">Cpl/Dm/PeriodicScheduler.h</text>
</a>
</g>
</g>
<!-- Node5&#45;&gt;Node6 -->
<g id="edge5" class="edge"><title>Node5&#45;&gt;Node6</title>
<path fill="none" stroke="midnightblue" d="M1213.93,-199.856C1199.58,-187.078 1179.83,-169.492 1168.19,-159.127"/>
<polygon fill="midnightblue" stroke="midnightblue" points="1211.86,-202.698 1221.65,-206.734 1216.51,-197.47 1211.86,-202.698"/>
</g>
<!-- Node7 -->
<g id="node7" class="node"><title>Node7</title>
<g id="a_node7"><a xlink:href="_chunk_8h.html" target="_top" xlink:title=" ">
<polygon fill="white" stroke="black" points="1246,-140 1246,-159 1363,-159 1363,-140 1246,-140"/>
<text text-anchor="middle" x="1304.5" y="-147" font-family="Helvetica,sans-Serif" font-size="10.00">Cpl/Persistent/Chunk.h</text>
</a>
</g>
</g>
<!-- Node5&#45;&gt;Node7 -->
<g id="edge6" class="edge"><title>Node5&#45;&gt;Node7</title>
<path fill="none" stroke="midnightblue" d="M1249.07,-199.856C1263.42,-187.078 1283.17,-169.492 1294.81,-159.127"/>
<polygon fill="midnightblue" stroke="midnightblue" points="1246.49,-197.47 1241.35,-206.734 1251.14,-202.698 1246.49,-197.47"/>
</g>
<!-- Node15 -->
<g id="node14" class="node"><title>Node15</title>
<g id="a_node14"><a xlink:href="_persistent_2_record_8h.html" target="_top" xlink:title=" ">
<polygon fill="white" stroke="black" points="1428.5,-140 1428.5,-159 1548.5,-159 1548.5,-140 1428.5,-140"/>
<text text-anchor="middle" x="1488.5" y="-147" font-family="Helvetica,sans-Serif" font-size="10.00">Cpl/Persistent/Record.h</text>
</a>
</g>
</g>
<!-- Node5&#45;&gt;Node15 -->
<g id="edge13" class="edge"><title>Node5&#45;&gt;Node15</title>
<path fill="none" stroke="midnightblue" d="M1275.37,-204.404C1326.09,-191.576 1408.49,-170.736 1454.56,-159.083"/>
<polygon fill="midnightblue" stroke="midnightblue" points="1274.2,-201.09 1265.36,-206.936 1275.92,-207.877 1274.2,-201.09"/>
</g>
<!-- Node16 -->
<g id="node15" class="node"><title>Node16</title>
<g id="a_node15"><a xlink:href="_record_server_8h.html" target="_top" xlink:title=" ">
<polygon fill="white" stroke="black" points="1587,-73 1587,-92 1736,-92 1736,-73 1587,-73"/>
<text text-anchor="middle" x="1661.5" y="-80" font-family="Helvetica,sans-Serif" font-size="10.00">Cpl/Persistent/RecordServer.h</text>
</a>
</g>
</g>
<!-- Node5&#45;&gt;Node16 -->
<g id="edge18" class="edge"><title>Node5&#45;&gt;Node16</title>
<path fill="none" stroke="midnightblue" d="M1281.43,-204.903C1288.49,-203.521 1295.67,-202.178 1302.5,-201 1415.29,-181.54 1452.19,-209.832 1557.5,-165 1598.66,-147.479 1637.46,-109.363 1653.61,-92.1925"/>
<polygon fill="midnightblue" stroke="midnightblue" points="1280.34,-201.551 1271.22,-206.941 1281.72,-208.415 1280.34,-201.551"/>
</g>
<!-- Node17 -->
<g id="node16" class="node"><title>Node17</title>
<g id="a_node16"><a xlink:href="_region_media_8h.html" target="_top" xlink:title=" ">
<polygon fill="white" stroke="black" points="924.5,-140 924.5,-159 1070.5,-159 1070.5,-140 924.5,-140"/>
<text text-anchor="middle" x="997.5" y="-147" font-family="Helvetica,sans-Serif" font-size="10.00">Cpl/Persistent/RegionMedia.h</text>
</a>
</g>
</g>
<!-- Node5&#45;&gt;Node17 -->
<g id="edge19" class="edge"><title>Node5&#45;&gt;Node17</title>
<path fill="none" stroke="midnightblue" d="M1190.72,-204.172C1144.45,-191.319 1070.01,-170.643 1028.33,-159.064"/>
<polygon fill="midnightblue" stroke="midnightblue" points="1189.85,-207.564 1200.43,-206.869 1191.73,-200.82 1189.85,-207.564"/>
</g>
<!-- Node8 -->
<g id="node8" class="node"><title>Node8</title>
<g id="a_node8"><a xlink:href="_dm_2_persistent_2_record_8h.html" target="_top" xlink:title=" ">
<polygon fill="white" stroke="black" points="1391.5,-6 1391.5,-25 1529.5,-25 1529.5,-6 1391.5,-6"/>
<text text-anchor="middle" x="1460.5" y="-13" font-family="Helvetica,sans-Serif" font-size="10.00">Cpl/Dm/Persistent/Record.h</text>
</a>
</g>
</g>
<!-- Node7&#45;&gt;Node8 -->
<g id="edge7" class="edge"><title>Node7&#45;&gt;Node8</title>
<path fill="none" stroke="midnightblue" d="M1318.02,-131.944C1332.63,-114.619 1357.11,-87.1842 1381.5,-67 1401.82,-50.1882 1428.06,-34.4311 1444.59,-25.126"/>
<polygon fill="midnightblue" stroke="midnightblue" points="1315.03,-130.062 1311.33,-139.99 1320.42,-134.536 1315.03,-130.062"/>
</g>
<!-- Node9 -->
<g id="node9" class="node"><title>Node9</title>
<g id="a_node9"><a xlink:href="_crc_chunk_8h.html" target="_top" xlink:title=" ">
<polygon fill="white" stroke="black" points="874.5,-73 874.5,-92 1006.5,-92 1006.5,-73 874.5,-73"/>
<text text-anchor="middle" x="940.5" y="-80" font-family="Helvetica,sans-Serif" font-size="10.00">Cpl/Persistent/CrcChunk.h</text>
</a>
</g>
</g>
<!-- Node7&#45;&gt;Node9 -->
<g id="edge8" class="edge"><title>Node7&#45;&gt;Node9</title>
<path fill="none" stroke="midnightblue" d="M1255.96,-137.848C1249.43,-136.503 1242.81,-135.185 1236.5,-134 1138.7,-115.618 1113.48,-115.447 1015.5,-98 1005.19,-96.1632 994.094,-94.0792 983.689,-92.0755"/>
<polygon fill="midnightblue" stroke="midnightblue" points="1255.58,-141.346 1266.09,-139.968 1257.02,-134.494 1255.58,-141.346"/>
</g>
<!-- Node10 -->
<g id="node10" class="node"><title>Node10</title>
<g id="a_node10"><a xlink:href="_data_record_8h.html" target="_top" xlink:title=" ">
<polygon fill="white" stroke="red" points="1390.5,-73 1390.5,-92 1530.5,-92 1530.5,-73 1390.5,-73"/>
<text text-anchor="middle" x="1460.5" y="-80" font-family="Helvetica,sans-Serif" font-size="10.00">Cpl/Persistent/DataRecord.h</text>
</a>
</g>
</g>
<!-- Node7&#45;&gt;Node10 -->
<g id="edge9" class="edge"><title>Node7&#45;&gt;Node10</title>
<path fill="none" stroke="midnightblue" d="M1334.62,-135.948C1365.51,-123.079 1412.73,-103.403 1439.7,-92.1672"/>
<polygon fill="midnightblue" stroke="midnightblue" points="1333.1,-132.792 1325.22,-139.869 1335.79,-139.253 1333.1,-132.792"/>
</g>
<!-- Node12 -->
<g id="node11" class="node"><title>Node12</title>
<g id="a_node11"><a xlink:href="_indexed_entry_record_8h.html" target="_top" xlink:title=" ">
<polygon fill="white" stroke="black" points="1025,-67.5 1025,-97.5 1164,-97.5 1164,-67.5 1025,-67.5"/>
<text text-anchor="start" x="1033" y="-85.5" font-family="Helvetica,sans-Serif" font-size="10.00">Cpl/Persistent/IndexedEntry</text>
<text text-anchor="middle" x="1094.5" y="-74.5" font-family="Helvetica,sans-Serif" font-size="10.00">Record.h</text>
</a>
</g>
</g>
<!-- Node7&#45;&gt;Node12 -->
<g id="edge10" class="edge"><title>Node7&#45;&gt;Node12</title>
<path fill="none" stroke="midnightblue" d="M1266.62,-136.775C1231.01,-125.753 1177.67,-109.244 1139.82,-97.5281"/>
<polygon fill="midnightblue" stroke="midnightblue" points="1266.03,-140.255 1276.61,-139.869 1268.1,-133.568 1266.03,-140.255"/>
</g>
<!-- Node14 -->
<g id="node13" class="node"><title>Node14</title>
<g id="a_node13"><a xlink:href="_mirrored_chunk_8h.html" target="_top" xlink:title=" ">
<polygon fill="white" stroke="black" points="1182.5,-73 1182.5,-92 1334.5,-92 1334.5,-73 1182.5,-73"/>
<text text-anchor="middle" x="1258.5" y="-80" font-family="Helvetica,sans-Serif" font-size="10.00">Cpl/Persistent/MirroredChunk.h</text>
</a>
</g>
</g>
<!-- Node7&#45;&gt;Node14 -->
<g id="edge12" class="edge"><title>Node7&#45;&gt;Node14</title>
<path fill="none" stroke="midnightblue" d="M1292.4,-131.404C1283.46,-118.773 1271.67,-102.104 1264.61,-92.1273"/>
<polygon fill="midnightblue" stroke="midnightblue" points="1289.66,-133.593 1298.3,-139.734 1295.38,-129.549 1289.66,-133.593"/>
</g>
<!-- Node13 -->
<g id="node12" class="node"><title>Node13</title>
<g id="a_node12"><a xlink:href="_indexed_entry_server_8h.html" target="_top" xlink:title=" ">
<polygon fill="white" stroke="black" points="974,-0.5 974,-30.5 1113,-30.5 1113,-0.5 974,-0.5"/>
<text text-anchor="start" x="982" y="-18.5" font-family="Helvetica,sans-Serif" font-size="10.00">Cpl/Persistent/IndexedEntry</text>
<text text-anchor="middle" x="1043.5" y="-7.5" font-family="Helvetica,sans-Serif" font-size="10.00">Server.h</text>
</a>
</g>
</g>
<!-- Node12&#45;&gt;Node13 -->
<g id="edge11" class="edge"><title>Node12&#45;&gt;Node13</title>
<path fill="none" stroke="midnightblue" d="M1077.2,-59.4472C1069.71,-49.8986 1061.16,-39.0037 1054.54,-30.5765"/>
<polygon fill="midnightblue" stroke="midnightblue" points="1074.51,-61.6891 1083.43,-67.396 1080.01,-57.368 1074.51,-61.6891"/>
</g>
<!-- Node15&#45;&gt;Node8 -->
<g id="edge14" class="edge"><title>Node15&#45;&gt;Node8</title>
<path fill="none" stroke="midnightblue" d="M1509.95,-133.848C1521.03,-124.932 1533.46,-112.479 1539.5,-98 1544.8,-85.284 1546.12,-79.0845 1539.5,-67 1528.16,-46.2977 1504.32,-32.846 1485.78,-25.073"/>
<polygon fill="midnightblue" stroke="midnightblue" points="1507.74,-131.132 1501.87,-139.953 1511.96,-136.717 1507.74,-131.132"/>
</g>
<!-- Node15&#45;&gt;Node10 -->
<g id="edge15" class="edge"><title>Node15&#45;&gt;Node10</title>
<path fill="none" stroke="midnightblue" d="M1480.66,-130.29C1475.28,-117.808 1468.39,-101.814 1464.22,-92.1273"/>
<polygon fill="midnightblue" stroke="midnightblue" points="1477.55,-131.934 1484.72,-139.734 1483.98,-129.165 1477.55,-131.934"/>
</g>
<!-- Node15&#45;&gt;Node16 -->
<g id="edge16" class="edge"><title>Node15&#45;&gt;Node16</title>
<path fill="none" stroke="midnightblue" d="M1521.05,-136.271C1555.38,-123.37 1608.6,-103.376 1638.71,-92.0637"/>
<polygon fill="midnightblue" stroke="midnightblue" points="1519.6,-133.075 1511.47,-139.869 1522.07,-139.628 1519.6,-133.075"/>
</g>
<!-- Node16&#45;&gt;Node8 -->
<g id="edge17" class="edge"><title>Node16&#45;&gt;Node8</title>
<path fill="none" stroke="midnightblue" d="M1625.21,-69.7654C1585.39,-56.8862 1522.41,-36.5214 1486.98,-25.0637"/>
<polygon fill="midnightblue" stroke="midnightblue" points="1624.22,-73.1217 1634.81,-72.8685 1626.37,-66.4613 1624.22,-73.1217"/>
</g>
<!-- Node17&#45;&gt;Node9 -->
<g id="edge20" class="edge"><title>Node17&#45;&gt;Node9</title>
<path fill="none" stroke="midnightblue" d="M983.149,-132.135C972.002,-119.423 956.984,-102.298 948.065,-92.1273"/>
<polygon fill="midnightblue" stroke="midnightblue" points="980.588,-134.523 989.813,-139.734 985.851,-129.908 980.588,-134.523"/>
</g>
<!-- Node17&#45;&gt;Node12 -->
<g id="edge22" class="edge"><title>Node17&#45;&gt;Node12</title>
<path fill="none" stroke="midnightblue" d="M1018.91,-134.153C1035.14,-123.275 1057.34,-108.403 1073.47,-97.589"/>
<polygon fill="midnightblue" stroke="midnightblue" points="1016.94,-131.259 1010.58,-139.734 1020.84,-137.075 1016.94,-131.259"/>
</g>
<!-- Node17&#45;&gt;Node14 -->
<g id="edge23" class="edge"><title>Node17&#45;&gt;Node14</title>
<path fill="none" stroke="midnightblue" d="M1041.73,-137.484C1093.22,-124.663 1177.15,-103.76 1224.03,-92.0834"/>
<polygon fill="midnightblue" stroke="midnightblue" points="1040.75,-134.123 1031.89,-139.936 1042.44,-140.915 1040.75,-134.123"/>
</g>
<!-- Node18 -->
<g id="node17" class="node"><title>Node18</title>
<g id="a_node17"><a xlink:href="_file_adapter_8h.html" target="_top" xlink:title=" ">
<polygon fill="white" stroke="black" points="717,-73 717,-92 856,-92 856,-73 717,-73"/>
<text text-anchor="middle" x="786.5" y="-80" font-family="Helvetica,sans-Serif" font-size="10.00">Cpl/Persistent/FileAdapter.h</text>
</a>
</g>
</g>
<!-- Node17&#45;&gt;Node18 -->
<g id="edge21" class="edge"><title>Node17&#45;&gt;Node18</title>
<path fill="none" stroke="midnightblue" d="M959.673,-136.847C917.88,-123.973 851.571,-103.546 814.299,-92.0637"/>
<polygon fill="midnightblue" stroke="midnightblue" points="958.894,-140.269 969.481,-139.869 960.954,-133.58 958.894,-140.269"/>
</g>
<!-- Node20 -->
<g id="node19" class="node"><title>Node20</title>
<g id="a_node19"><a xlink:href="_model_point_common___8h.html" target="_top" xlink:title=" ">
<polygon fill="white" stroke="black" points="377,-73 377,-92 530,-92 530,-73 377,-73"/>
<text text-anchor="middle" x="453.5" y="-80" font-family="Helvetica,sans-Serif" font-size="10.00">Cpl/Dm/ModelPointCommon_.h</text>
</a>
</g>
</g>
<!-- Node19&#45;&gt;Node20 -->
<g id="edge25" class="edge"><title>Node19&#45;&gt;Node20</title>
<path fill="none" stroke="midnightblue" d="M591.516,-136.271C557.775,-123.37 505.483,-103.376 475.897,-92.0637"/>
<polygon fill="midnightblue" stroke="midnightblue" points="590.335,-139.566 600.925,-139.869 592.835,-133.028 590.335,-139.566"/>
</g>
<!-- Node37 -->
<g id="node27" class="node"><title>Node37</title>
<g id="a_node27"><a xlink:href="_subscriber_composer_8h.html" target="_top" xlink:title=" ">
<polygon fill="white" stroke="black" points="548,-73 548,-92 699,-92 699,-73 548,-73"/>
<text text-anchor="middle" x="623.5" y="-80" font-family="Helvetica,sans-Serif" font-size="10.00">Cpl/Dm/SubscriberComposer.h</text>
</a>
</g>
</g>
<!-- Node19&#45;&gt;Node37 -->
<g id="edge33" class="edge"><title>Node19&#45;&gt;Node37</title>
<path fill="none" stroke="midnightblue" d="M623.5,-129.537C623.5,-117.17 623.5,-101.62 623.5,-92.1273"/>
<polygon fill="midnightblue" stroke="midnightblue" points="620,-129.734 623.5,-139.734 627,-129.734 620,-129.734"/>
</g>
<!-- Node21 -->
<g id="node20" class="node"><title>Node21</title>
<g id="a_node20"><a xlink:href="_array___8h.html" target="_top" xlink:title=" ">
<polygon fill="white" stroke="black" points="0,-6 0,-25 105,-25 105,-6 0,-6"/>
<text text-anchor="middle" x="52.5" y="-13" font-family="Helvetica,sans-Serif" font-size="10.00">Cpl/Dm/Mp/Array_.h</text>
</a>
</g>
</g>
<!-- Node20&#45;&gt;Node21 -->
<g id="edge26" class="edge"><title>Node20&#45;&gt;Node21</title>
<path fill="none" stroke="midnightblue" d="M374.706,-71.6217C305.802,-62.5406 203.17,-47.9436 114.5,-31 105.488,-29.2779 95.8024,-27.1483 86.8273,-25.0564"/>
<polygon fill="midnightblue" stroke="midnightblue" points="374.675,-75.1474 385.045,-72.9762 375.584,-68.2067 374.675,-75.1474"/>
</g>
<!-- Node22 -->
<g id="node21" class="node"><title>Node22</title>
<g id="a_node21"><a xlink:href="_bool_8h.html" target="_top" xlink:title=" ">
<polygon fill="white" stroke="black" points="123.5,-6 123.5,-25 219.5,-25 219.5,-6 123.5,-6"/>
<text text-anchor="middle" x="171.5" y="-13" font-family="Helvetica,sans-Serif" font-size="10.00">Cpl/Dm/Mp/Bool.h</text>
</a>
</g>
</g>
<!-- Node20&#45;&gt;Node22 -->
<g id="edge27" class="edge"><title>Node20&#45;&gt;Node22</title>
<path fill="none" stroke="midnightblue" d="M404.065,-70.8263C358.416,-60.8698 288.768,-45.426 228.5,-31 220.655,-29.1222 212.224,-27.0225 204.315,-25.0167"/>
<polygon fill="midnightblue" stroke="midnightblue" points="403.481,-74.281 413.997,-72.9883 404.97,-67.4412 403.481,-74.281"/>
</g>
<!-- Node23 -->
<g id="node22" class="node"><title>Node23</title>
<g id="a_node22"><a xlink:href="_elapsed_precision_time_8h.html" target="_top" xlink:title=" ">
<polygon fill="white" stroke="black" points="237.5,-0.5 237.5,-30.5 381.5,-30.5 381.5,-0.5 237.5,-0.5"/>
<text text-anchor="start" x="245.5" y="-18.5" font-family="Helvetica,sans-Serif" font-size="10.00">Cpl/Dm/Mp/ElapsedPrecision</text>
<text text-anchor="middle" x="309.5" y="-7.5" font-family="Helvetica,sans-Serif" font-size="10.00">Time.h</text>
</a>
</g>
</g>
<!-- Node20&#45;&gt;Node23 -->
<g id="edge28" class="edge"><title>Node20&#45;&gt;Node23</title>
<path fill="none" stroke="midnightblue" d="M424.967,-68.6206C400.608,-57.6252 365.641,-41.8413 340.578,-30.5281"/>
<polygon fill="midnightblue" stroke="midnightblue" points="423.823,-71.9443 434.378,-72.8685 426.703,-65.5642 423.823,-71.9443"/>
</g>
<!-- Node24 -->
<g id="node23" class="node"><title>Node24</title>
<g id="a_node23"><a xlink:href="_enum___8h.html" target="_top" xlink:title=" ">
<polygon fill="white" stroke="black" points="400,-6 400,-25 507,-25 507,-6 400,-6"/>
<text text-anchor="middle" x="453.5" y="-13" font-family="Helvetica,sans-Serif" font-size="10.00">Cpl/Dm/Mp/Enum_.h</text>
</a>
</g>
</g>
<!-- Node20&#45;&gt;Node24 -->
<g id="edge29" class="edge"><title>Node20&#45;&gt;Node24</title>
<path fill="none" stroke="midnightblue" d="M453.5,-62.537C453.5,-50.1703 453.5,-34.6198 453.5,-25.1273"/>
<polygon fill="midnightblue" stroke="midnightblue" points="450,-62.7338 453.5,-72.7338 457,-62.7338 450,-62.7338"/>
</g>
<!-- Node25 -->
<g id="node24" class="node"><title>Node25</title>
<g id="a_node24"><a xlink:href="_numeric_8h.html" target="_top" xlink:title=" ">
<polygon fill="white" stroke="red" points="525,-6 525,-25 638,-25 638,-6 525,-6"/>
<text text-anchor="middle" x="581.5" y="-13" font-family="Helvetica,sans-Serif" font-size="10.00">Cpl/Dm/Mp/Numeric.h</text>
</a>
</g>
</g>
<!-- Node20&#45;&gt;Node25 -->
<g id="edge30" class="edge"><title>Node20&#45;&gt;Node25</title>
<path fill="none" stroke="midnightblue" d="M479.545,-68.2739C504.897,-55.3999 542.689,-36.2086 564.432,-25.1672"/>
<polygon fill="midnightblue" stroke="midnightblue" points="477.829,-65.22 470.497,-72.8685 480.998,-71.4614 477.829,-65.22"/>
</g>
<!-- Node35 -->
<g id="node25" class="node"><title>Node35</title>
<g id="a_node25"><a xlink:href="_ref_counter_8h.html" target="_top" xlink:title=" ">
<polygon fill="white" stroke="black" points="656,-6 656,-25 781,-25 781,-6 656,-6"/>
<text text-anchor="middle" x="718.5" y="-13" font-family="Helvetica,sans-Serif" font-size="10.00">Cpl/Dm/Mp/RefCounter.h</text>
</a>
</g>
</g>
<!-- Node20&#45;&gt;Node35 -->
<g id="edge31" class="edge"><title>Node20&#45;&gt;Node35</title>
<path fill="none" stroke="midnightblue" d="M498.411,-70.4841C550.683,-57.6627 635.9,-36.7605 683.506,-25.0834"/>
<polygon fill="midnightblue" stroke="midnightblue" points="497.295,-67.154 488.417,-72.9355 498.963,-73.9525 497.295,-67.154"/>
</g>
<!-- Node36 -->
<g id="node26" class="node"><title>Node36</title>
<g id="a_node26"><a xlink:href="_dm_2_mp_2_string___8h.html" target="_top" xlink:title=" ">
<polygon fill="white" stroke="black" points="799,-6 799,-25 906,-25 906,-6 799,-6"/>
<text text-anchor="middle" x="852.5" y="-13" font-family="Helvetica,sans-Serif" font-size="10.00">Cpl/Dm/Mp/String_.h</text>
</a>
</g>
</g>
<!-- Node20&#45;&gt;Node36 -->
<g id="edge32" class="edge"><title>Node20&#45;&gt;Node36</title>
<path fill="none" stroke="midnightblue" d="M511.937,-71.3217C520.829,-69.8336 529.904,-68.3494 538.5,-67 649.834,-49.5229 678.712,-51.6568 789.5,-31 798.768,-29.272 808.737,-27.1168 817.949,-25.0008"/>
<polygon fill="midnightblue" stroke="midnightblue" points="511.288,-67.8816 502.009,-72.9966 512.452,-74.7841 511.288,-67.8816"/>
</g>
<!-- Node37&#45;&gt;Node8 -->
<g id="edge34" class="edge"><title>Node37&#45;&gt;Node8</title>
<path fill="none" stroke="midnightblue" d="M677.912,-71.259C687.735,-69.6526 697.903,-68.147 707.5,-67 958.425,-37.011 1258.68,-23.5448 1391.5,-18.7271"/>
<polygon fill="midnightblue" stroke="midnightblue" points="677.118,-67.8435 667.84,-72.9589 678.283,-74.7459 677.118,-67.8435"/>
</g>
<!-- Node37&#45;&gt;Node13 -->
<g id="edge35" class="edge"><title>Node37&#45;&gt;Node13</title>
<path fill="none" stroke="midnightblue" d="M681.864,-71.2567C690.456,-69.7977 699.204,-68.3392 707.5,-67 799.511,-52.1459 905.935,-36.3909 973.932,-26.5052"/>
<polygon fill="midnightblue" stroke="midnightblue" points="681.154,-67.8273 671.887,-72.9625 682.334,-74.7272 681.154,-67.8273"/>
</g>
<!-- Node39 -->
<g id="node29" class="node"><title>Node39</title>
<g id="a_node29"><a xlink:href="_posix_2_listener_8h.html" target="_top" xlink:title=" ">
<polygon fill="white" stroke="black" points="1435.5,-201.5 1435.5,-231.5 1539.5,-231.5 1539.5,-201.5 1435.5,-201.5"/>
<text text-anchor="start" x="1443.5" y="-219.5" font-family="Helvetica,sans-Serif" font-size="10.00">Cpl/Io/Socket/Posix</text>
<text text-anchor="middle" x="1487.5" y="-208.5" font-family="Helvetica,sans-Serif" font-size="10.00">/Listener.h</text>
</a>
</g>
</g>
<!-- Node38&#45;&gt;Node39 -->
<g id="edge37" class="edge"><title>Node38&#45;&gt;Node39</title>
<path fill="none" stroke="midnightblue" d="M1390.75,-269.046C1411.26,-258.122 1440.09,-242.76 1460.94,-231.652"/>
<polygon fill="midnightblue" stroke="midnightblue" points="1388.88,-266.077 1381.7,-273.869 1392.17,-272.255 1388.88,-266.077"/>
</g>
<!-- Node40 -->
<g id="node30" class="node"><title>Node40</title>
<g id="a_node30"><a xlink:href="_win32_2_listener_8h.html" target="_top" xlink:title=" ">
<polygon fill="white" stroke="black" points="1311.5,-201.5 1311.5,-231.5 1417.5,-231.5 1417.5,-201.5 1311.5,-201.5"/>
<text text-anchor="start" x="1319.5" y="-219.5" font-family="Helvetica,sans-Serif" font-size="10.00">Cpl/Io/Socket/Win32</text>
<text text-anchor="middle" x="1364.5" y="-208.5" font-family="Helvetica,sans-Serif" font-size="10.00">/Listener.h</text>
</a>
</g>
</g>
<!-- Node38&#45;&gt;Node40 -->
<g id="edge38" class="edge"><title>Node38&#45;&gt;Node40</title>
<path fill="none" stroke="midnightblue" d="M1365.21,-263.411C1365.05,-253.222 1364.86,-240.901 1364.72,-231.589"/>
<polygon fill="midnightblue" stroke="midnightblue" points="1361.71,-263.789 1365.37,-273.734 1368.71,-263.681 1361.71,-263.789"/>
</g>
<!-- Node47 -->
<g id="node37" class="node"><title>Node47</title>
<g id="a_node37"><a xlink:href="helpers_8h.html" target="_top" xlink:title="This file defines helper functions/interface for writing unit tests.">
<polygon fill="white" stroke="black" points="2219,-207 2219,-226 2304,-226 2304,-207 2219,-207"/>
<text text-anchor="middle" x="2261.5" y="-214" font-family="Helvetica,sans-Serif" font-size="10.00">Catch/helpers.h</text>
</a>
</g>
</g>
<!-- Node46&#45;&gt;Node47 -->
<g id="edge45" class="edge"><title>Node46&#45;&gt;Node47</title>
<path fill="none" stroke="midnightblue" d="M2250.07,-263.915C2253.13,-251.488 2257.02,-235.717 2259.38,-226.127"/>
<polygon fill="midnightblue" stroke="midnightblue" points="2246.65,-263.187 2247.66,-273.734 2253.45,-264.86 2246.65,-263.187"/>
</g>
<!-- Node48 -->
<g id="node38" class="node"><title>Node48</title>
<g id="a_node38"><a xlink:href="_system_2_private___8h.html" target="_top" xlink:title="This file contains a collection of classes, interfaces, etc.">
<polygon fill="white" stroke="black" points="2086,-207 2086,-226 2201,-226 2201,-207 2086,-207"/>
<text text-anchor="middle" x="2143.5" y="-214" font-family="Helvetica,sans-Serif" font-size="10.00">Cpl/System/Private_.h</text>
</a>
</g>
</g>
<!-- Node46&#45;&gt;Node48 -->
<g id="edge46" class="edge"><title>Node46&#45;&gt;Node48</title>
<path fill="none" stroke="midnightblue" d="M2223.17,-268.269C2202.98,-255.403 2173.91,-236.879 2157.04,-226.127"/>
<polygon fill="midnightblue" stroke="midnightblue" points="2221.43,-271.311 2231.74,-273.734 2225.19,-265.408 2221.43,-271.311"/>
</g>
<!-- Node49 -->
<g id="node39" class="node"><title>Node49</title>
<g id="a_node39"><a xlink:href="_maker_8h.html" target="_top" xlink:title=" ">
<polygon fill="white" stroke="black" points="2159.5,-140 2159.5,-159 2259.5,-159 2259.5,-140 2159.5,-140"/>
<text text-anchor="middle" x="2209.5" y="-147" font-family="Helvetica,sans-Serif" font-size="10.00">Cpl/TShell/Maker.h</text>
</a>
</g>
</g>
<!-- Node48&#45;&gt;Node49 -->
<g id="edge47" class="edge"><title>Node48&#45;&gt;Node49</title>
<path fill="none" stroke="midnightblue" d="M2159.75,-199.497C2172.69,-186.75 2190.31,-169.395 2200.74,-159.127"/>
<polygon fill="midnightblue" stroke="midnightblue" points="2157.07,-197.223 2152.4,-206.734 2161.98,-202.211 2157.07,-197.223"/>
</g>
<!-- Node50 -->
<g id="node40" class="node"><title>Node50</title>
<g id="a_node40"><a xlink:href="_polled_maker_8h.html" target="_top" xlink:title=" ">
<polygon fill="white" stroke="black" points="2014,-140 2014,-159 2141,-159 2141,-140 2014,-140"/>
<text text-anchor="middle" x="2077.5" y="-147" font-family="Helvetica,sans-Serif" font-size="10.00">Cpl/TShell/PolledMaker.h</text>
</a>
</g>
</g>
<!-- Node48&#45;&gt;Node50 -->
<g id="edge48" class="edge"><title>Node48&#45;&gt;Node50</title>
<path fill="none" stroke="midnightblue" d="M2127.25,-199.497C2114.31,-186.75 2096.69,-169.395 2086.26,-159.127"/>
<polygon fill="midnightblue" stroke="midnightblue" points="2125.02,-202.211 2134.6,-206.734 2129.93,-197.223 2125.02,-202.211"/>
</g>
<!-- Node53 -->
<g id="node43" class="node"><title>Node53</title>
<g id="a_node43"><a xlink:href="_free_r_t_o_s_2_threads_8h.html" target="_top" xlink:title=" ">
<polygon fill="white" stroke="black" points="2542.5,-201.5 2542.5,-231.5 2676.5,-231.5 2676.5,-201.5 2542.5,-201.5"/>
<text text-anchor="start" x="2550.5" y="-219.5" font-family="Helvetica,sans-Serif" font-size="10.00">Cpl/TShell/Cmd/FreeRTOS</text>
<text text-anchor="middle" x="2609.5" y="-208.5" font-family="Helvetica,sans-Serif" font-size="10.00">/Threads.h</text>
</a>
</g>
</g>
<!-- Node52&#45;&gt;Node53 -->
<g id="edge51" class="edge"><title>Node52&#45;&gt;Node53</title>
<path fill="none" stroke="midnightblue" d="M2555.51,-266.928C2567.25,-256.179 2582.74,-242.002 2594.11,-231.589"/>
<polygon fill="midnightblue" stroke="midnightblue" points="2553.09,-264.4 2548.08,-273.734 2557.81,-269.563 2553.09,-264.4"/>
</g>
<!-- Node54 -->
<g id="node44" class="node"><title>Node54</title>
<g id="a_node44"><a xlink:href="_win32_2_threads_8h.html" target="_top" xlink:title=" ">
<polygon fill="white" stroke="black" points="2409,-201.5 2409,-231.5 2524,-231.5 2524,-201.5 2409,-201.5"/>
<text text-anchor="start" x="2417" y="-219.5" font-family="Helvetica,sans-Serif" font-size="10.00">Cpl/TShell/Cmd/Win32</text>
<text text-anchor="middle" x="2466.5" y="-208.5" font-family="Helvetica,sans-Serif" font-size="10.00">/Threads.h</text>
</a>
</g>
</g>
<!-- Node52&#45;&gt;Node54 -->
<g id="edge52" class="edge"><title>Node52&#45;&gt;Node54</title>
<path fill="none" stroke="midnightblue" d="M2521.25,-266.928C2509.34,-256.179 2493.64,-242.002 2482.11,-231.589"/>
<polygon fill="midnightblue" stroke="midnightblue" points="2519.02,-269.631 2528.79,-273.734 2523.71,-264.435 2519.02,-269.631"/>
</g>
<!-- Node58 -->
<g id="node48" class="node"><title>Node58</title>
<g id="a_node48"><a xlink:href="_driver_2_uart_2_stream_2_input_output___8h.html" target="_top" xlink:title=" ">
<polygon fill="white" stroke="black" points="2916.5,-201.5 2916.5,-231.5 3014.5,-231.5 3014.5,-201.5 2916.5,-201.5"/>
<text text-anchor="start" x="2924.5" y="-219.5" font-family="Helvetica,sans-Serif" font-size="10.00">Driver/Uart/Stream</text>
<text text-anchor="middle" x="2965.5" y="-208.5" font-family="Helvetica,sans-Serif" font-size="10.00">/InputOutput_.h</text>
</a>
</g>
</g>
<!-- Node57&#45;&gt;Node58 -->
<g id="edge56" class="edge"><title>Node57&#45;&gt;Node58</title>
<path fill="none" stroke="midnightblue" d="M2926.92,-260.736C2935.5,-251.119 2945.34,-240.089 2952.94,-231.577"/>
<polygon fill="midnightblue" stroke="midnightblue" points="2924.13,-258.604 2920.09,-268.396 2929.35,-263.265 2924.13,-258.604"/>
</g>
<!-- Node59 -->
<g id="node49" class="node"><title>Node59</title>
<g id="a_node49"><a xlink:href="_serial_2_renesas_2_rx62n_2_input_output_8h.html" target="_top" xlink:title=" ">
<polygon fill="white" stroke="black" points="2910,-134.5 2910,-164.5 3021,-164.5 3021,-134.5 2910,-134.5"/>
<text text-anchor="start" x="2918" y="-152.5" font-family="Helvetica,sans-Serif" font-size="10.00">Cpl/Io/Serial/Renesas</text>
<text text-anchor="middle" x="2965.5" y="-141.5" font-family="Helvetica,sans-Serif" font-size="10.00">/Rx62n/InputOutput.h</text>
</a>
</g>
</g>
<!-- Node58&#45;&gt;Node59 -->
<g id="edge57" class="edge"><title>Node58&#45;&gt;Node59</title>
<path fill="none" stroke="midnightblue" d="M2965.5,-191.108C2965.5,-182.154 2965.5,-172.323 2965.5,-164.577"/>
<polygon fill="midnightblue" stroke="midnightblue" points="2962,-191.396 2965.5,-201.396 2969,-191.396 2962,-191.396"/>
</g>
<!-- Node60&#45;&gt;Node58 -->
<g id="edge59" class="edge"><title>Node60&#45;&gt;Node58</title>
<path fill="none" stroke="midnightblue" d="M3004.08,-260.736C2995.5,-251.119 2985.66,-240.089 2978.06,-231.577"/>
<polygon fill="midnightblue" stroke="midnightblue" points="3001.65,-263.265 3010.91,-268.396 3006.87,-258.604 3001.65,-263.265"/>
</g>
</g>
</svg>
