<?xml version="1.0" encoding="UTF-8" standalone="no"?>
<!DOCTYPE svg PUBLIC "-//W3C//DTD SVG 1.1//EN"
 "http://www.w3.org/Graphics/SVG/1.1/DTD/svg11.dtd">
<!-- Generated by graphviz version 2.38.0 (20140413.2041)
 -->
<!-- Title: Driver/TPipe/Tx.h Pages: 1 -->
<svg width="330pt" height="162pt"
 viewBox="0.00 0.00 330.00 162.00" xmlns="http://www.w3.org/2000/svg" xmlns:xlink="http://www.w3.org/1999/xlink">
<g id="graph0" class="graph" transform="scale(1 1) rotate(0) translate(4 158)">
<title>Driver/TPipe/Tx.h</title>
<polygon fill="white" stroke="none" points="-4,4 -4,-158 326,-158 326,4 -4,4"/>
<!-- Node1 -->
<g id="node1" class="node"><title>Node1</title>
<g id="a_node1"><a xlink:title=" ">
<polygon fill="#bfbfbf" stroke="black" points="92,-134.5 92,-153.5 185,-153.5 185,-134.5 92,-134.5"/>
<text text-anchor="middle" x="138.5" y="-141.5" font-family="Helvetica,sans-Serif" font-size="10.00">Driver/TPipe/Tx.h</text>
</a>
</g>
</g>
<!-- Node2 -->
<g id="node2" class="node"><title>Node2</title>
<g id="a_node2"><a xlink:href="_t_pipe_2_red_green_blue_8h.html" target="_top" xlink:title=" ">
<polygon fill="white" stroke="black" points="0,-67.5 0,-97.5 139,-97.5 139,-67.5 0,-67.5"/>
<text text-anchor="start" x="8" y="-85.5" font-family="Helvetica,sans-Serif" font-size="10.00">Driver/LED/TPipe/RedGreen</text>
<text text-anchor="middle" x="69.5" y="-74.5" font-family="Helvetica,sans-Serif" font-size="10.00">Blue.h</text>
</a>
</g>
</g>
<!-- Node1&#45;&gt;Node2 -->
<g id="edge1" class="edge"><title>Node1&#45;&gt;Node2</title>
<path fill="none" stroke="midnightblue" d="M121.014,-127.921C110.18,-118.579 96.3597,-106.662 85.7619,-97.523"/>
<polygon fill="midnightblue" stroke="midnightblue" points="118.755,-130.595 128.614,-134.475 123.326,-125.294 118.755,-130.595"/>
</g>
<!-- Node3 -->
<g id="node3" class="node"><title>Node3</title>
<g id="a_node3"><a xlink:href="_pipe_8h.html" target="_top" xlink:title=" ">
<polygon fill="white" stroke="black" points="157,-73 157,-92 258,-92 258,-73 157,-73"/>
<text text-anchor="middle" x="207.5" y="-80" font-family="Helvetica,sans-Serif" font-size="10.00">Driver/TPipe/Pipe.h</text>
</a>
</g>
</g>
<!-- Node1&#45;&gt;Node3 -->
<g id="edge2" class="edge"><title>Node1&#45;&gt;Node3</title>
<path fill="none" stroke="midnightblue" d="M156.301,-127.65C169.456,-116.306 186.88,-101.281 197.632,-92.0091"/>
<polygon fill="midnightblue" stroke="midnightblue" points="153.674,-125.294 148.386,-134.475 158.245,-130.595 153.674,-125.294"/>
</g>
<!-- Node4 -->
<g id="node4" class="node"><title>Node4</title>
<g id="a_node4"><a xlink:href="_driver_2_pico_display_2_t_pipe_2_api_8h.html" target="_top" xlink:title="This file defines the interface for initializing the concrete implementation of the PicoDisplay drive...">
<polygon fill="white" stroke="black" points="98,-0.5 98,-30.5 195,-30.5 195,-0.5 98,-0.5"/>
<text text-anchor="start" x="106" y="-18.5" font-family="Helvetica,sans-Serif" font-size="10.00">Driver/PicoDisplay</text>
<text text-anchor="middle" x="146.5" y="-7.5" font-family="Helvetica,sans-Serif" font-size="10.00">/TPipe/Api.h</text>
</a>
</g>
</g>
<!-- Node3&#45;&gt;Node4 -->
<g id="edge3" class="edge"><title>Node3&#45;&gt;Node4</title>
<path fill="none" stroke="midnightblue" d="M192.301,-65.3041C182.288,-54.6349 169.307,-40.8021 159.722,-30.589"/>
<polygon fill="midnightblue" stroke="midnightblue" points="189.878,-67.837 199.273,-72.7338 194.982,-63.0468 189.878,-67.837"/>
</g>
<!-- Node5 -->
<g id="node5" class="node"><title>Node5</title>
<g id="a_node5"><a xlink:href="_driver_2_t_pipe_2_maker_8h.html" target="_top" xlink:title=" ">
<polygon fill="white" stroke="black" points="213,-6 213,-25 322,-25 322,-6 213,-6"/>
<text text-anchor="middle" x="267.5" y="-13" font-family="Helvetica,sans-Serif" font-size="10.00">Driver/TPipe/Maker.h</text>
</a>
</g>
</g>
<!-- Node3&#45;&gt;Node5 -->
<g id="edge4" class="edge"><title>Node3&#45;&gt;Node5</title>
<path fill="none" stroke="midnightblue" d="M222.606,-65.1348C234.341,-52.4228 250.148,-35.2978 259.536,-25.1273"/>
<polygon fill="midnightblue" stroke="midnightblue" points="219.803,-63.0118 215.592,-72.7338 224.947,-67.7597 219.803,-63.0118"/>
</g>
</g>
</svg>
