<?xml version="1.0" encoding="UTF-8" standalone="no"?>
<!DOCTYPE svg PUBLIC "-//W3C//DTD SVG 1.1//EN"
 "http://www.w3.org/Graphics/SVG/1.1/DTD/svg11.dtd">
<!-- Generated by graphviz version 2.38.0 (20140413.2041)
 -->
<!-- Title: Storm/Type/VirtualOutputs.h Pages: 1 -->
<svg width="1469pt" height="408pt"
 viewBox="0.00 0.00 1469.00 408.00" xmlns="http://www.w3.org/2000/svg" xmlns:xlink="http://www.w3.org/1999/xlink">
<g id="graph0" class="graph" transform="scale(1 1) rotate(0) translate(4 404)">
<title>Storm/Type/VirtualOutputs.h</title>
<polygon fill="white" stroke="none" points="-4,4 -4,-404 1465,-404 1465,4 -4,4"/>
<!-- Node1 -->
<g id="node1" class="node"><title>Node1</title>
<g id="a_node1"><a xlink:title=" ">
<polygon fill="#bfbfbf" stroke="black" points="706.5,-380.5 706.5,-399.5 847.5,-399.5 847.5,-380.5 706.5,-380.5"/>
<text text-anchor="middle" x="777" y="-387.5" font-family="Helvetica,sans-Serif" font-size="10.00">Storm/Type/VirtualOutputs.h</text>
</a>
</g>
</g>
<!-- Node2 -->
<g id="node2" class="node"><title>Node2</title>
<g id="a_node2"><a xlink:href="_mp_virtual_outputs_8h.html" target="_top" xlink:title=" ">
<polygon fill="white" stroke="black" points="703,-324.5 703,-343.5 851,-343.5 851,-324.5 703,-324.5"/>
<text text-anchor="middle" x="777" y="-331.5" font-family="Helvetica,sans-Serif" font-size="10.00">Storm/Dm/MpVirtualOutputs.h</text>
</a>
</g>
</g>
<!-- Node1&#45;&gt;Node2 -->
<g id="edge1" class="edge"><title>Node1&#45;&gt;Node2</title>
<path fill="none" stroke="midnightblue" d="M777,-369.805C777,-360.91 777,-350.78 777,-343.751"/>
<polygon fill="midnightblue" stroke="midnightblue" points="773.5,-370.083 777,-380.083 780.5,-370.083 773.5,-370.083"/>
</g>
<!-- Node3 -->
<g id="node3" class="node"><title>Node3</title>
<g id="a_node3"><a xlink:href="_air_filter_monitor_8h.html" target="_top" xlink:title=" ">
<polygon fill="white" stroke="black" points="0,-56.5 0,-86.5 132,-86.5 132,-56.5 0,-56.5"/>
<text text-anchor="start" x="8" y="-74.5" font-family="Helvetica,sans-Serif" font-size="10.00">Storm/Component/AirFilter</text>
<text text-anchor="middle" x="66" y="-63.5" font-family="Helvetica,sans-Serif" font-size="10.00">Monitor.h</text>
</a>
</g>
</g>
<!-- Node2&#45;&gt;Node3 -->
<g id="edge2" class="edge"><title>Node2&#45;&gt;Node3</title>
<path fill="none" stroke="midnightblue" d="M692.999,-323.775C629.483,-316.121 540.312,-303.922 463,-288 351.173,-264.97 322.466,-259.557 215,-221 147.038,-196.616 106.508,-214.436 67,-154 53.76,-133.747 57.7616,-104.187 61.8786,-86.7898"/>
<polygon fill="midnightblue" stroke="midnightblue" points="692.622,-327.255 702.966,-324.965 693.451,-320.304 692.622,-327.255"/>
</g>
<!-- Node5 -->
<g id="node5" class="node"><title>Node5</title>
<g id="a_node5"><a xlink:href="_control_8h.html" target="_top" xlink:title=" ">
<polygon fill="white" stroke="black" points="472.5,-263 472.5,-282 609.5,-282 609.5,-263 472.5,-263"/>
<text text-anchor="middle" x="541" y="-270" font-family="Helvetica,sans-Serif" font-size="10.00">Storm/Component/Control.h</text>
</a>
</g>
</g>
<!-- Node2&#45;&gt;Node5 -->
<g id="edge4" class="edge"><title>Node2&#45;&gt;Node5</title>
<path fill="none" stroke="midnightblue" d="M733.245,-321.968C687.418,-310.415 616.43,-292.517 574.75,-282.009"/>
<polygon fill="midnightblue" stroke="midnightblue" points="732.635,-325.424 743.187,-324.475 734.346,-318.637 732.635,-325.424"/>
</g>
<!-- Node13 -->
<g id="node13" class="node"><title>Node13</title>
<g id="a_node13"><a xlink:href="_fan_control_8h.html" target="_top" xlink:title=" ">
<polygon fill="white" stroke="black" points="699,-62 699,-81 853,-81 853,-62 699,-62"/>
<text text-anchor="middle" x="776" y="-69" font-family="Helvetica,sans-Serif" font-size="10.00">Storm/Component/FanControl.h</text>
</a>
</g>
</g>
<!-- Node2&#45;&gt;Node13 -->
<g id="edge20" class="edge"><title>Node2&#45;&gt;Node13</title>
<path fill="none" stroke="midnightblue" d="M776.928,-314.216C776.729,-262.275 776.175,-118.115 776.033,-81.1999"/>
<polygon fill="midnightblue" stroke="midnightblue" points="773.428,-314.346 776.967,-324.333 780.428,-314.319 773.428,-314.346"/>
</g>
<!-- Node14 -->
<g id="node14" class="node"><title>Node14</title>
<g id="a_node14"><a xlink:href="_component_2_hvac_relay_outputs_8h.html" target="_top" xlink:title=" ">
<polygon fill="white" stroke="black" points="807,-257.5 807,-287.5 953,-287.5 953,-257.5 807,-257.5"/>
<text text-anchor="start" x="815" y="-275.5" font-family="Helvetica,sans-Serif" font-size="10.00">Storm/Component/HvacRelay</text>
<text text-anchor="middle" x="880" y="-264.5" font-family="Helvetica,sans-Serif" font-size="10.00">Outputs.h</text>
</a>
</g>
</g>
<!-- Node2&#45;&gt;Node14 -->
<g id="edge22" class="edge"><title>Node2&#45;&gt;Node14</title>
<path fill="none" stroke="midnightblue" d="M800.757,-319.276C817.241,-309.754 839.13,-297.11 855.725,-287.523"/>
<polygon fill="midnightblue" stroke="midnightblue" points="798.666,-316.442 791.757,-324.475 802.167,-322.504 798.666,-316.442"/>
</g>
<!-- Node15 -->
<g id="node15" class="node"><title>Node15</title>
<g id="a_node15"><a xlink:href="_model_points_8h.html" target="_top" xlink:title="This file defines all of the Model Points for the Thermostat Application.">
<polygon fill="white" stroke="black" points="1025.5,-263 1025.5,-282 1186.5,-282 1186.5,-263 1025.5,-263"/>
<text text-anchor="middle" x="1106" y="-270" font-family="Helvetica,sans-Serif" font-size="10.00">Storm/Thermostat/ModelPoints.h</text>
</a>
</g>
</g>
<!-- Node2&#45;&gt;Node15 -->
<g id="edge24" class="edge"><title>Node2&#45;&gt;Node15</title>
<path fill="none" stroke="midnightblue" d="M834.019,-322.688C897.707,-311.17 999.625,-292.738 1058.95,-282.009"/>
<polygon fill="midnightblue" stroke="midnightblue" points="833.355,-319.251 824.138,-324.475 834.601,-326.14 833.355,-319.251"/>
</g>
<!-- Node4 -->
<g id="node4" class="node"><title>Node4</title>
<g id="a_node4"><a xlink:href="_algorithm_8h.html" target="_top" xlink:title=" ">
<polygon fill="white" stroke="black" points="502,-0.5 502,-19.5 650,-19.5 650,-0.5 502,-0.5"/>
<text text-anchor="middle" x="576" y="-7.5" font-family="Helvetica,sans-Serif" font-size="10.00">Storm/Thermostat/Algorithm.h</text>
</a>
</g>
</g>
<!-- Node3&#45;&gt;Node4 -->
<g id="edge3" class="edge"><title>Node3&#45;&gt;Node4</title>
<path fill="none" stroke="midnightblue" d="M142.299,-60.6522C154.89,-59.0681 167.809,-57.4679 180,-56 292.147,-42.4965 422.298,-27.9158 501.886,-19.1229"/>
<polygon fill="midnightblue" stroke="midnightblue" points="141.774,-57.1906 132.291,-61.9162 142.651,-64.1354 141.774,-57.1906"/>
</g>
<!-- Node5&#45;&gt;Node4 -->
<g id="edge19" class="edge"><title>Node5&#45;&gt;Node4</title>
<path fill="none" stroke="midnightblue" d="M577.488,-259.464C620.271,-243.153 689.129,-209.51 719,-154 725.529,-141.867 725.032,-135.387 719,-123 704.986,-94.2233 623.279,-40.6591 590.048,-19.7136"/>
<polygon fill="midnightblue" stroke="midnightblue" points="576.168,-256.221 567.996,-262.963 578.589,-262.789 576.168,-256.221"/>
</g>
<!-- Node6 -->
<g id="node6" class="node"><title>Node6</title>
<g id="a_node6"><a xlink:href="_cooling_8h.html" target="_top" xlink:title=" ">
<polygon fill="white" stroke="black" points="76.5,-123.5 76.5,-153.5 221.5,-153.5 221.5,-123.5 76.5,-123.5"/>
<text text-anchor="start" x="84.5" y="-141.5" font-family="Helvetica,sans-Serif" font-size="10.00">Storm/Component/Equipment</text>
<text text-anchor="middle" x="149" y="-130.5" font-family="Helvetica,sans-Serif" font-size="10.00">/Cooling.h</text>
</a>
</g>
</g>
<!-- Node5&#45;&gt;Node6 -->
<g id="edge5" class="edge"><title>Node5&#45;&gt;Node6</title>
<path fill="none" stroke="midnightblue" d="M462.153,-264.297C408.504,-257.515 336.69,-244.702 277,-221 234.152,-203.985 190.071,-172.148 166.465,-153.704"/>
<polygon fill="midnightblue" stroke="midnightblue" points="461.941,-267.797 472.292,-265.534 462.789,-260.848 461.941,-267.797"/>
</g>
<!-- Node7 -->
<g id="node7" class="node"><title>Node7</title>
<g id="a_node7"><a xlink:href="_indoor_heating_8h.html" target="_top" xlink:title=" ">
<polygon fill="white" stroke="black" points="402.5,-123.5 402.5,-153.5 547.5,-153.5 547.5,-123.5 402.5,-123.5"/>
<text text-anchor="start" x="410.5" y="-141.5" font-family="Helvetica,sans-Serif" font-size="10.00">Storm/Component/Equipment</text>
<text text-anchor="middle" x="475" y="-130.5" font-family="Helvetica,sans-Serif" font-size="10.00">/IndoorHeating.h</text>
</a>
</g>
</g>
<!-- Node5&#45;&gt;Node7 -->
<g id="edge7" class="edge"><title>Node5&#45;&gt;Node7</title>
<path fill="none" stroke="midnightblue" d="M532.049,-253.598C518.806,-227.111 494.256,-178.012 482.142,-153.783"/>
<polygon fill="midnightblue" stroke="midnightblue" points="529.067,-255.46 536.67,-262.839 535.328,-252.33 529.067,-255.46"/>
</g>
<!-- Node8 -->
<g id="node8" class="node"><title>Node8</title>
<g id="a_node8"><a xlink:href="_off_8h.html" target="_top" xlink:title=" ">
<polygon fill="white" stroke="black" points="565.5,-123.5 565.5,-153.5 710.5,-153.5 710.5,-123.5 565.5,-123.5"/>
<text text-anchor="start" x="573.5" y="-141.5" font-family="Helvetica,sans-Serif" font-size="10.00">Storm/Component/Equipment</text>
<text text-anchor="middle" x="638" y="-130.5" font-family="Helvetica,sans-Serif" font-size="10.00">/Off.h</text>
</a>
</g>
</g>
<!-- Node5&#45;&gt;Node8 -->
<g id="edge9" class="edge"><title>Node5&#45;&gt;Node8</title>
<path fill="none" stroke="midnightblue" d="M553.389,-254.641C572.658,-228.419 609.463,-178.334 627.504,-153.783"/>
<polygon fill="midnightblue" stroke="midnightblue" points="550.466,-252.708 547.364,-262.839 556.106,-256.853 550.466,-252.708"/>
</g>
<!-- Node9 -->
<g id="node9" class="node"><title>Node9</title>
<g id="a_node9"><a xlink:href="_stage_api_8h.html" target="_top" xlink:title=" ">
<polygon fill="white" stroke="black" points="286.5,-190.5 286.5,-220.5 431.5,-220.5 431.5,-190.5 286.5,-190.5"/>
<text text-anchor="start" x="294.5" y="-208.5" font-family="Helvetica,sans-Serif" font-size="10.00">Storm/Component/Equipment</text>
<text text-anchor="middle" x="359" y="-197.5" font-family="Helvetica,sans-Serif" font-size="10.00">/StageApi.h</text>
</a>
</g>
</g>
<!-- Node5&#45;&gt;Node9 -->
<g id="edge11" class="edge"><title>Node5&#45;&gt;Node9</title>
<path fill="none" stroke="midnightblue" d="M507.372,-259.49C476.517,-248.47 430.8,-232.143 398.279,-220.528"/>
<polygon fill="midnightblue" stroke="midnightblue" points="506.237,-262.801 516.832,-262.869 508.592,-256.209 506.237,-262.801"/>
</g>
<!-- Node6&#45;&gt;Node4 -->
<g id="edge6" class="edge"><title>Node6&#45;&gt;Node4</title>
<path fill="none" stroke="midnightblue" d="M164.356,-115.287C178.896,-96.1611 202.548,-69.5636 230,-56 276.366,-33.0915 414.808,-20.7231 501.871,-15.0259"/>
<polygon fill="midnightblue" stroke="midnightblue" points="161.44,-113.345 158.336,-123.475 167.08,-117.491 161.44,-113.345"/>
</g>
<!-- Node7&#45;&gt;Node4 -->
<g id="edge8" class="edge"><title>Node7&#45;&gt;Node4</title>
<path fill="none" stroke="midnightblue" d="M518.28,-118.579C532.107,-110.629 546.32,-100.13 556,-87 571.222,-66.3546 574.873,-35.0448 575.738,-19.8682"/>
<polygon fill="midnightblue" stroke="midnightblue" points="516.43,-115.601 509.3,-123.438 519.761,-121.757 516.43,-115.601"/>
</g>
<!-- Node8&#45;&gt;Node4 -->
<g id="edge10" class="edge"><title>Node8&#45;&gt;Node4</title>
<path fill="none" stroke="midnightblue" d="M626.611,-114.262C612.678,-85.8349 589.779,-39.113 580.307,-19.7885"/>
<polygon fill="midnightblue" stroke="midnightblue" points="623.584,-116.04 631.128,-123.479 629.87,-112.959 623.584,-116.04"/>
</g>
<!-- Node9&#45;&gt;Node6 -->
<g id="edge12" class="edge"><title>Node9&#45;&gt;Node6</title>
<path fill="none" stroke="midnightblue" d="M303.897,-187.444C269.856,-176.908 226.698,-163.549 194.589,-153.611"/>
<polygon fill="midnightblue" stroke="midnightblue" points="303.104,-190.863 313.692,-190.476 305.174,-184.176 303.104,-190.863"/>
</g>
<!-- Node9&#45;&gt;Node7 -->
<g id="edge13" class="edge"><title>Node9&#45;&gt;Node7</title>
<path fill="none" stroke="midnightblue" d="M393.272,-185.296C411.423,-175.125 433.32,-162.855 449.879,-153.577"/>
<polygon fill="midnightblue" stroke="midnightblue" points="391.183,-182.454 384.17,-190.396 394.605,-188.561 391.183,-182.454"/>
</g>
<!-- Node10 -->
<g id="node10" class="node"><title>Node10</title>
<g id="a_node10"><a xlink:href="_storm_2_component_2_equipment_2_stage_2_basic_8h.html" target="_top" xlink:title=" ">
<polygon fill="white" stroke="black" points="239.5,-123.5 239.5,-153.5 384.5,-153.5 384.5,-123.5 239.5,-123.5"/>
<text text-anchor="start" x="247.5" y="-141.5" font-family="Helvetica,sans-Serif" font-size="10.00">Storm/Component/Equipment</text>
<text text-anchor="middle" x="312" y="-130.5" font-family="Helvetica,sans-Serif" font-size="10.00">/Stage/Basic.h</text>
</a>
</g>
</g>
<!-- Node9&#45;&gt;Node10 -->
<g id="edge14" class="edge"><title>Node9&#45;&gt;Node10</title>
<path fill="none" stroke="midnightblue" d="M342.845,-182.157C335.991,-172.679 328.21,-161.919 322.178,-153.577"/>
<polygon fill="midnightblue" stroke="midnightblue" points="340.106,-184.343 348.802,-190.396 345.778,-180.242 340.106,-184.343"/>
</g>
<!-- Node11 -->
<g id="node11" class="node"><title>Node11</title>
<g id="a_node11"><a xlink:href="_basic_cooling_8h.html" target="_top" xlink:title=" ">
<polygon fill="white" stroke="black" points="239.5,-56.5 239.5,-86.5 384.5,-86.5 384.5,-56.5 239.5,-56.5"/>
<text text-anchor="start" x="247.5" y="-74.5" font-family="Helvetica,sans-Serif" font-size="10.00">Storm/Component/Equipment</text>
<text text-anchor="middle" x="312" y="-63.5" font-family="Helvetica,sans-Serif" font-size="10.00">/Stage/BasicCooling.h</text>
</a>
</g>
</g>
<!-- Node10&#45;&gt;Node11 -->
<g id="edge15" class="edge"><title>Node10&#45;&gt;Node11</title>
<path fill="none" stroke="midnightblue" d="M312,-113.108C312,-104.154 312,-94.3227 312,-86.5765"/>
<polygon fill="midnightblue" stroke="midnightblue" points="308.5,-113.396 312,-123.396 315.5,-113.396 308.5,-113.396"/>
</g>
<!-- Node12 -->
<g id="node12" class="node"><title>Node12</title>
<g id="a_node12"><a xlink:href="_basic_indoor_heat_8h.html" target="_top" xlink:title=" ">
<polygon fill="white" stroke="black" points="402.5,-56.5 402.5,-86.5 547.5,-86.5 547.5,-56.5 402.5,-56.5"/>
<text text-anchor="start" x="410.5" y="-74.5" font-family="Helvetica,sans-Serif" font-size="10.00">Storm/Component/Equipment</text>
<text text-anchor="middle" x="475" y="-63.5" font-family="Helvetica,sans-Serif" font-size="10.00">/Stage/BasicIndoorHeat.h</text>
</a>
</g>
</g>
<!-- Node10&#45;&gt;Node12 -->
<g id="edge17" class="edge"><title>Node10&#45;&gt;Node12</title>
<path fill="none" stroke="midnightblue" d="M356.683,-119.682C382.825,-109.257 415.366,-96.2805 439.7,-86.5765"/>
<polygon fill="midnightblue" stroke="midnightblue" points="355.361,-116.441 347.369,-123.396 357.954,-122.943 355.361,-116.441"/>
</g>
<!-- Node11&#45;&gt;Node4 -->
<g id="edge16" class="edge"><title>Node11&#45;&gt;Node4</title>
<path fill="none" stroke="midnightblue" d="M383.993,-54.2743C433.831,-43.0418 498.168,-28.5416 538.257,-19.5064"/>
<polygon fill="midnightblue" stroke="midnightblue" points="383.216,-50.8616 374.23,-56.4747 384.755,-57.6903 383.216,-50.8616"/>
</g>
<!-- Node12&#45;&gt;Node4 -->
<g id="edge18" class="edge"><title>Node12&#45;&gt;Node4</title>
<path fill="none" stroke="midnightblue" d="M507.984,-51.0688C525.988,-40.4624 547.383,-27.8586 561.304,-19.6578"/>
<polygon fill="midnightblue" stroke="midnightblue" points="505.775,-48.3079 498.936,-56.3993 509.328,-54.3391 505.775,-48.3079"/>
</g>
<!-- Node13&#45;&gt;Node4 -->
<g id="edge21" class="edge"><title>Node13&#45;&gt;Node4</title>
<path fill="none" stroke="midnightblue" d="M737.441,-59.0286C698.57,-47.4647 639.479,-29.8849 604.602,-19.5091"/>
<polygon fill="midnightblue" stroke="midnightblue" points="736.762,-62.4782 747.345,-61.9751 738.758,-55.7689 736.762,-62.4782"/>
</g>
<!-- Node14&#45;&gt;Node4 -->
<g id="edge23" class="edge"><title>Node14&#45;&gt;Node4</title>
<path fill="none" stroke="midnightblue" d="M886.44,-247.515C896.713,-203.312 911.006,-108.706 862,-56 834.02,-25.9075 725.12,-15.8979 650.076,-12.5932"/>
<polygon fill="midnightblue" stroke="midnightblue" points="883.006,-246.823 884.019,-257.369 889.804,-248.494 883.006,-246.823"/>
</g>
<!-- Node16 -->
<g id="node16" class="node"><title>Node16</title>
<g id="a_node16"><a xlink:href="_installer_record_8h_source.html" target="_top" xlink:title=" ">
<polygon fill="white" stroke="black" points="909.5,-190.5 909.5,-220.5 1028.5,-220.5 1028.5,-190.5 909.5,-190.5"/>
<text text-anchor="start" x="917.5" y="-208.5" font-family="Helvetica,sans-Serif" font-size="10.00">Storm/Thermostat/Main</text>
<text text-anchor="middle" x="969" y="-197.5" font-family="Helvetica,sans-Serif" font-size="10.00">/InstallerRecord.h</text>
</a>
</g>
</g>
<!-- Node15&#45;&gt;Node16 -->
<g id="edge25" class="edge"><title>Node15&#45;&gt;Node16</title>
<path fill="none" stroke="midnightblue" d="M1078.54,-258.474C1055.38,-247.485 1022.31,-231.791 998.567,-220.528"/>
<polygon fill="midnightblue" stroke="midnightblue" points="1077.27,-261.744 1087.81,-262.869 1080.27,-255.42 1077.27,-261.744"/>
</g>
<!-- Node17 -->
<g id="node17" class="node"><title>Node17</title>
<g id="a_node17"><a xlink:href="_run_time_record_8h_source.html" target="_top" xlink:title=" ">
<polygon fill="white" stroke="black" points="1046.5,-190.5 1046.5,-220.5 1165.5,-220.5 1165.5,-190.5 1046.5,-190.5"/>
<text text-anchor="start" x="1054.5" y="-208.5" font-family="Helvetica,sans-Serif" font-size="10.00">Storm/Thermostat/Main</text>
<text text-anchor="middle" x="1106" y="-197.5" font-family="Helvetica,sans-Serif" font-size="10.00">/RunTimeRecord.h</text>
</a>
</g>
</g>
<!-- Node15&#45;&gt;Node17 -->
<g id="edge26" class="edge"><title>Node15&#45;&gt;Node17</title>
<path fill="none" stroke="midnightblue" d="M1106,-252.411C1106,-242.222 1106,-229.901 1106,-220.589"/>
<polygon fill="midnightblue" stroke="midnightblue" points="1102.5,-252.734 1106,-262.734 1109.5,-252.734 1102.5,-252.734"/>
</g>
<!-- Node18 -->
<g id="node18" class="node"><title>Node18</title>
<g id="a_node18"><a xlink:href="_user_record_8h_source.html" target="_top" xlink:title=" ">
<polygon fill="white" stroke="black" points="1183.5,-190.5 1183.5,-220.5 1302.5,-220.5 1302.5,-190.5 1183.5,-190.5"/>
<text text-anchor="start" x="1191.5" y="-208.5" font-family="Helvetica,sans-Serif" font-size="10.00">Storm/Thermostat/Main</text>
<text text-anchor="middle" x="1243" y="-197.5" font-family="Helvetica,sans-Serif" font-size="10.00">/UserRecord.h</text>
</a>
</g>
</g>
<!-- Node15&#45;&gt;Node18 -->
<g id="edge27" class="edge"><title>Node15&#45;&gt;Node18</title>
<path fill="none" stroke="midnightblue" d="M1133.46,-258.474C1156.62,-247.485 1189.69,-231.791 1213.43,-220.528"/>
<polygon fill="midnightblue" stroke="midnightblue" points="1131.73,-255.42 1124.19,-262.869 1134.73,-261.744 1131.73,-255.42"/>
</g>
<!-- Node19 -->
<g id="node19" class="node"><title>Node19</title>
<g id="a_node19"><a xlink:href="_event_monitor_8h_source.html" target="_top" xlink:title=" ">
<polygon fill="white" stroke="black" points="1321,-190.5 1321,-220.5 1461,-220.5 1461,-190.5 1321,-190.5"/>
<text text-anchor="start" x="1329" y="-208.5" font-family="Helvetica,sans-Serif" font-size="10.00">Storm/Thermostat/Ui</text>
<text text-anchor="middle" x="1391" y="-197.5" font-family="Helvetica,sans-Serif" font-size="10.00">/PicoDisplay/EventMonitor.h</text>
</a>
</g>
</g>
<!-- Node15&#45;&gt;Node19 -->
<g id="edge28" class="edge"><title>Node15&#45;&gt;Node19</title>
<path fill="none" stroke="midnightblue" d="M1153.42,-260.685C1201.63,-249.689 1276.56,-232.6 1329.36,-220.559"/>
<polygon fill="midnightblue" stroke="midnightblue" points="1152.52,-257.299 1143.55,-262.936 1154.08,-264.124 1152.52,-257.299"/>
</g>
</g>
</svg>
