<?xml version="1.0" encoding="UTF-8" standalone="no"?>
<!DOCTYPE svg PUBLIC "-//W3C//DTD SVG 1.1//EN"
 "http://www.w3.org/Graphics/SVG/1.1/DTD/svg11.dtd">
<!-- Generated by graphviz version 2.38.0 (20140413.2041)
 -->
<!-- Title: Cpl::Dm::Mp::StringBase_ Pages: 1 -->
<svg width="1303pt" height="69pt"
 viewBox="0.00 0.00 1303.00 68.50" xmlns="http://www.w3.org/2000/svg" xmlns:xlink="http://www.w3.org/1999/xlink">
<g id="graph0" class="graph" transform="scale(1 1) rotate(0) translate(4 64.5)">
<title>Cpl::Dm::Mp::StringBase_</title>
<polygon fill="white" stroke="none" points="-4,4 -4,-64.5 1299,-64.5 1299,4 -4,4"/>
<!-- Node1 -->
<g id="node1" class="node"><title>Node1</title>
<g id="a_node1"><a xlink:title="This mostly concrete class provides the base implementation for a Point who&#39;s data is a null terminat...">
<polygon fill="#bfbfbf" stroke="black" points="473,-37 473,-56 604,-56 604,-37 473,-37"/>
<text text-anchor="middle" x="538.5" y="-44" font-family="Helvetica,sans-Serif" font-size="10.00">Cpl::Dm::Mp::StringBase_</text>
</a>
</g>
</g>
<!-- Node5 -->
<g id="node5" class="node"><title>Node5</title>
<g id="a_node5"><a xlink:href="class_cpl_1_1_dm_1_1_mp_1_1_string__.html" target="_top" xlink:title=" ">
<polygon fill="white" stroke="black" points="936,-19 936,-60 1108,-60 1108,-19 936,-19"/>
<text text-anchor="start" x="944" y="-48" font-family="Helvetica,sans-Serif" font-size="10.00">Cpl::Dm::Mp::String</text>
<text text-anchor="start" x="944" y="-37" font-family="Helvetica,sans-Serif" font-size="10.00">_&lt; OPTION_STORM_DM_MAX</text>
<text text-anchor="middle" x="1022" y="-26" font-family="Helvetica,sans-Serif" font-size="10.00">_FILE_NAME, MpFileNameString &gt;</text>
</a>
</g>
</g>
<!-- Node1&#45;&gt;Node5 -->
<g id="edge4" class="edge"><title>Node1&#45;&gt;Node5</title>
<path fill="none" stroke="midnightblue" d="M614.15,-47.5247C690.507,-48.2858 812.553,-48.7081 918,-45.5 923.819,-45.323 929.82,-45.0942 935.864,-44.8296"/>
<polygon fill="midnightblue" stroke="midnightblue" points="614.183,-44.025 604.147,-47.4205 614.11,-51.0246 614.183,-44.025"/>
</g>
<!-- Node7 -->
<g id="node7" class="node"><title>Node7</title>
<g id="a_node7"><a xlink:href="class_cpl_1_1_dm_1_1_mp_1_1_string__.html" target="_top" xlink:title="This mostly concrete template class provides the storage for a Point who&#39;s data is a null terminated ...">
<polygon fill="white" stroke="black" points="641,-0.5 641,-30.5 744,-30.5 744,-0.5 641,-0.5"/>
<text text-anchor="start" x="649" y="-18.5" font-family="Helvetica,sans-Serif" font-size="10.00">Cpl::Dm::Mp::String</text>
<text text-anchor="middle" x="692.5" y="-7.5" font-family="Helvetica,sans-Serif" font-size="10.00">_&lt; S, MPTYPE &gt;</text>
</a>
</g>
</g>
<!-- Node1&#45;&gt;Node7 -->
<g id="edge6" class="edge"><title>Node1&#45;&gt;Node7</title>
<path fill="none" stroke="midnightblue" d="M596.281,-34.9197C610.909,-31.9363 626.554,-28.7455 640.848,-25.8303"/>
<polygon fill="midnightblue" stroke="midnightblue" points="595.444,-31.5182 586.345,-36.946 596.843,-38.377 595.444,-31.5182"/>
</g>
<!-- Node2 -->
<g id="node2" class="node"><title>Node2</title>
<g id="a_node2"><a xlink:href="class_cpl_1_1_dm_1_1_model_point_common__.html" target="_top" xlink:title="This concrete class provide common infrastructure for a Model Point.">
<polygon fill="white" stroke="black" points="285,-37 285,-56 436,-56 436,-37 285,-37"/>
<text text-anchor="middle" x="360.5" y="-44" font-family="Helvetica,sans-Serif" font-size="10.00">Cpl::Dm::ModelPointCommon_</text>
</a>
</g>
</g>
<!-- Node2&#45;&gt;Node1 -->
<g id="edge1" class="edge"><title>Node2&#45;&gt;Node1</title>
<path fill="none" stroke="midnightblue" d="M446.19,-46.5C455.125,-46.5 464.107,-46.5 472.765,-46.5"/>
<polygon fill="midnightblue" stroke="midnightblue" points="446.14,-43.0001 436.14,-46.5 446.14,-50.0001 446.14,-43.0001"/>
</g>
<!-- Node3 -->
<g id="node3" class="node"><title>Node3</title>
<g id="a_node3"><a xlink:href="class_cpl_1_1_dm_1_1_model_point.html" target="_top" xlink:title="This mostly abstract class defines the interface for a Model Point.">
<polygon fill="white" stroke="black" points="141,-37 141,-56 248,-56 248,-37 141,-37"/>
<text text-anchor="middle" x="194.5" y="-44" font-family="Helvetica,sans-Serif" font-size="10.00">Cpl::Dm::ModelPoint</text>
</a>
</g>
</g>
<!-- Node3&#45;&gt;Node2 -->
<g id="edge2" class="edge"><title>Node3&#45;&gt;Node2</title>
<path fill="none" stroke="midnightblue" d="M258.561,-46.5C267.118,-46.5 275.967,-46.5 284.706,-46.5"/>
<polygon fill="midnightblue" stroke="midnightblue" points="258.293,-43.0001 248.293,-46.5 258.293,-50.0001 258.293,-43.0001"/>
</g>
<!-- Node4 -->
<g id="node4" class="node"><title>Node4</title>
<g id="a_node4"><a xlink:href="class_cpl_1_1_container_1_1_item.html" target="_top" xlink:title="This class is used by the Container classes to implement a various types of singly linked containers.">
<polygon fill="white" stroke="black" points="0,-37 0,-56 104,-56 104,-37 0,-37"/>
<text text-anchor="middle" x="52" y="-44" font-family="Helvetica,sans-Serif" font-size="10.00">Cpl::Container::Item</text>
</a>
</g>
</g>
<!-- Node4&#45;&gt;Node3 -->
<g id="edge3" class="edge"><title>Node4&#45;&gt;Node3</title>
<path fill="none" stroke="midnightblue" d="M114.339,-46.5C123.146,-46.5 132.143,-46.5 140.764,-46.5"/>
<polygon fill="midnightblue" stroke="midnightblue" points="114.121,-43.0001 104.121,-46.5 114.121,-50.0001 114.121,-43.0001"/>
</g>
<!-- Node6 -->
<g id="node6" class="node"><title>Node6</title>
<g id="a_node6"><a xlink:href="class_storm_1_1_dm_1_1_mp_file_name_string.html" target="_top" xlink:title="This class provides a concrete implementation for a Point who&#39;s data a null terminated string for sto...">
<polygon fill="white" stroke="black" points="1145,-30 1145,-49 1295,-49 1295,-30 1145,-30"/>
<text text-anchor="middle" x="1220" y="-37" font-family="Helvetica,sans-Serif" font-size="10.00">Storm::Dm::MpFileNameString</text>
</a>
</g>
</g>
<!-- Node5&#45;&gt;Node6 -->
<g id="edge5" class="edge"><title>Node5&#45;&gt;Node6</title>
<path fill="none" stroke="midnightblue" d="M1118.16,-39.5C1127.08,-39.5 1136.04,-39.5 1144.73,-39.5"/>
<polygon fill="midnightblue" stroke="midnightblue" points="1118.11,-36.0001 1108.11,-39.5 1118.11,-43.0001 1118.11,-36.0001"/>
</g>
<!-- Node7&#45;&gt;Node5 -->
<g id="edge7" class="edge"><title>Node7&#45;&gt;Node5</title>
<path fill="none" stroke="orange" stroke-dasharray="5,2" d="M754.663,-15.7264C799.875,-16.3681 862.89,-18.2563 918,-23.5 923.855,-24.0571 929.883,-24.7306 935.947,-25.482"/>
<polygon fill="orange" stroke="orange" points="754.477,-12.2239 744.434,-15.5981 754.389,-19.2233 754.477,-12.2239"/>
<text text-anchor="start" x="762" y="-37.5" font-family="Helvetica,sans-Serif" font-size="10.00"> &lt; OPTION_STORM_DM_MAX</text>
<text text-anchor="middle" x="840" y="-26.5" font-family="Helvetica,sans-Serif" font-size="10.00">_FILE_NAME, MpFileNameString &gt;</text>
</g>
</g>
</svg>
