<?xml version="1.0" encoding="UTF-8" standalone="no"?>
<!DOCTYPE svg PUBLIC "-//W3C//DTD SVG 1.1//EN"
 "http://www.w3.org/Graphics/SVG/1.1/DTD/svg11.dtd">
<!-- Generated by graphviz version 2.38.0 (20140413.2041)
 -->
<!-- Title: Cpl::System::Signable Pages: 1 -->
<svg width="934pt" height="380pt"
 viewBox="0.00 0.00 934.00 379.50" xmlns="http://www.w3.org/2000/svg" xmlns:xlink="http://www.w3.org/1999/xlink">
<g id="graph0" class="graph" transform="scale(1 1) rotate(0) translate(4 375.5)">
<title>Cpl::System::Signable</title>
<polygon fill="white" stroke="none" points="-4,4 -4,-375.5 930,-375.5 930,4 -4,4"/>
<!-- Node1 -->
<g id="node1" class="node"><title>Node1</title>
<g id="a_node1"><a xlink:title="This abstract class defines the interface by which a client can cause an object that is waiting&#45;on&#45;a&#45;...">
<polygon fill="#bfbfbf" stroke="black" points="140,-224 140,-243 254,-243 254,-224 140,-224"/>
<text text-anchor="middle" x="197" y="-231" font-family="Helvetica,sans-Serif" font-size="10.00">Cpl::System::Signable</text>
</a>
</g>
</g>
<!-- Node3 -->
<g id="node3" class="node"><title>Node3</title>
<g id="a_node3"><a xlink:href="class_cpl_1_1_system_1_1_event_loop.html" target="_top" xlink:title="This concrete class is a Runnable object that provides a event driven execution model for a thread.">
<polygon fill="white" stroke="black" points="291.5,-295 291.5,-314 414.5,-314 414.5,-295 291.5,-295"/>
<text text-anchor="middle" x="353" y="-302" font-family="Helvetica,sans-Serif" font-size="10.00">Cpl::System::EventLoop</text>
</a>
</g>
</g>
<!-- Node1&#45;&gt;Node3 -->
<g id="edge2" class="edge"><title>Node1&#45;&gt;Node3</title>
<path fill="none" stroke="midnightblue" d="M228.023,-247.342C258.368,-261.332 304.467,-282.585 331.068,-294.85"/>
<polygon fill="midnightblue" stroke="midnightblue" points="229.316,-244.084 218.769,-243.075 226.385,-250.441 229.316,-244.084"/>
</g>
<!-- Node10 -->
<g id="node10" class="node"><title>Node10</title>
<g id="a_node10"><a xlink:href="class_cpl_1_1_system_1_1_semaphore.html" target="_top" xlink:title="This semaphore class defines the interface for a Counting Semaphore.">
<polygon fill="white" stroke="black" points="290,-224 290,-243 416,-243 416,-224 290,-224"/>
<text text-anchor="middle" x="353" y="-231" font-family="Helvetica,sans-Serif" font-size="10.00">Cpl::System::Semaphore</text>
</a>
</g>
</g>
<!-- Node1&#45;&gt;Node10 -->
<g id="edge9" class="edge"><title>Node1&#45;&gt;Node10</title>
<path fill="none" stroke="midnightblue" d="M264.246,-233.5C272.713,-233.5 281.358,-233.5 289.759,-233.5"/>
<polygon fill="midnightblue" stroke="midnightblue" points="264.033,-230 254.033,-233.5 264.033,-237 264.033,-230"/>
</g>
<!-- Node11 -->
<g id="node11" class="node"><title>Node11</title>
<g id="a_node11"><a xlink:href="class_cpl_1_1_system_1_1_thread.html" target="_top" xlink:title="This abstract class defines the operations that can be performed on a thread.">
<polygon fill="white" stroke="black" points="299.5,-153 299.5,-172 406.5,-172 406.5,-153 299.5,-153"/>
<text text-anchor="middle" x="353" y="-160" font-family="Helvetica,sans-Serif" font-size="10.00">Cpl::System::Thread</text>
</a>
</g>
</g>
<!-- Node1&#45;&gt;Node11 -->
<g id="edge10" class="edge"><title>Node1&#45;&gt;Node11</title>
<path fill="none" stroke="midnightblue" d="M228.023,-219.658C258.368,-205.668 304.467,-184.415 331.068,-172.15"/>
<polygon fill="midnightblue" stroke="midnightblue" points="226.385,-216.559 218.769,-223.925 229.316,-222.916 226.385,-216.559"/>
</g>
<!-- Node2 -->
<g id="node2" class="node"><title>Node2</title>
<g id="a_node2"><a xlink:href="class_cpl_1_1_container_1_1_item.html" target="_top" xlink:title="This class is used by the Container classes to implement a various types of singly linked containers.">
<polygon fill="white" stroke="black" points="0,-224 0,-243 104,-243 104,-224 0,-224"/>
<text text-anchor="middle" x="52" y="-231" font-family="Helvetica,sans-Serif" font-size="10.00">Cpl::Container::Item</text>
</a>
</g>
</g>
<!-- Node2&#45;&gt;Node1 -->
<g id="edge1" class="edge"><title>Node2&#45;&gt;Node1</title>
<path fill="none" stroke="midnightblue" d="M114.39,-233.5C122.83,-233.5 131.463,-233.5 139.803,-233.5"/>
<polygon fill="midnightblue" stroke="midnightblue" points="114.222,-230 104.222,-233.5 114.222,-237 114.222,-230"/>
</g>
<!-- Node4 -->
<g id="node4" class="node"><title>Node4</title>
<g id="a_node4"><a xlink:href="class_cpl_1_1_dm_1_1_event_loop.html" target="_top" xlink:title="This class extends the Cpl::System::EventLoop class to support the asynchronous change notification g...">
<polygon fill="white" stroke="black" points="461.5,-333 461.5,-352 565.5,-352 565.5,-333 461.5,-333"/>
<text text-anchor="middle" x="513.5" y="-340" font-family="Helvetica,sans-Serif" font-size="10.00">Cpl::Dm::EventLoop</text>
</a>
</g>
</g>
<!-- Node3&#45;&gt;Node4 -->
<g id="edge3" class="edge"><title>Node3&#45;&gt;Node4</title>
<path fill="none" stroke="midnightblue" d="M403.919,-316.468C426.13,-321.793 451.921,-327.976 472.791,-332.98"/>
<polygon fill="midnightblue" stroke="midnightblue" points="404.537,-313.017 393.996,-314.089 402.905,-319.824 404.537,-313.017"/>
</g>
<!-- Node8 -->
<g id="node8" class="node"><title>Node8</title>
<g id="a_node8"><a xlink:href="class_cpl_1_1_itc_1_1_mailbox_server.html" target="_top" xlink:title="This class collects the common functions of a generic server providing a mailbox and Event loop.">
<polygon fill="white" stroke="black" points="455.5,-295 455.5,-314 571.5,-314 571.5,-295 455.5,-295"/>
<text text-anchor="middle" x="513.5" y="-302" font-family="Helvetica,sans-Serif" font-size="10.00">Cpl::Itc::MailboxServer</text>
</a>
</g>
</g>
<!-- Node3&#45;&gt;Node8 -->
<g id="edge7" class="edge"><title>Node3&#45;&gt;Node8</title>
<path fill="none" stroke="midnightblue" d="M424.958,-304.5C435.176,-304.5 445.58,-304.5 455.481,-304.5"/>
<polygon fill="midnightblue" stroke="midnightblue" points="424.827,-301 414.827,-304.5 424.827,-308 424.827,-301"/>
</g>
<!-- Node5 -->
<g id="node5" class="node"><title>Node5</title>
<g id="a_node5"><a xlink:href="class_cpl_1_1_dm_1_1_mailbox_server.html" target="_top" xlink:title="This class extends the Cpl::Dm::EventLoop and Cpl::Itc:Mailbox classes to support the asynchronous ch...">
<polygon fill="white" stroke="black" points="617.5,-333 617.5,-352 737.5,-352 737.5,-333 617.5,-333"/>
<text text-anchor="middle" x="677.5" y="-340" font-family="Helvetica,sans-Serif" font-size="10.00">Cpl::Dm::MailboxServer</text>
</a>
</g>
</g>
<!-- Node4&#45;&gt;Node5 -->
<g id="edge4" class="edge"><title>Node4&#45;&gt;Node5</title>
<path fill="none" stroke="midnightblue" d="M575.963,-342.5C589.542,-342.5 603.9,-342.5 617.384,-342.5"/>
<polygon fill="midnightblue" stroke="midnightblue" points="575.758,-339 565.758,-342.5 575.758,-346 575.758,-339"/>
</g>
<!-- Node6 -->
<g id="node6" class="node"><title>Node6</title>
<g id="a_node6"><a xlink:href="class_cpl_1_1_dm_1_1_periodic_scheduler.html" target="_top" xlink:title="This class extends the Cpl::Dm::MailboxServer class to add periodic scheduling to an event based &#39;thr...">
<polygon fill="white" stroke="black" points="784.5,-352 784.5,-371 921.5,-371 921.5,-352 784.5,-352"/>
<text text-anchor="middle" x="853" y="-359" font-family="Helvetica,sans-Serif" font-size="10.00">Cpl::Dm::PeriodicScheduler</text>
</a>
</g>
</g>
<!-- Node5&#45;&gt;Node6 -->
<g id="edge5" class="edge"><title>Node5&#45;&gt;Node6</title>
<path fill="none" stroke="midnightblue" d="M747.735,-350.082C759.811,-351.404 772.36,-352.779 784.392,-354.096"/>
<polygon fill="midnightblue" stroke="midnightblue" points="748.045,-346.595 737.724,-348.986 747.283,-353.553 748.045,-346.595"/>
</g>
<!-- Node7 -->
<g id="node7" class="node"><title>Node7</title>
<g id="a_node7"><a xlink:href="class_cpl_1_1_persistent_1_1_record_server.html" target="_top" xlink:title="This concrete class provides an Event driven Runnable object for executing the read/write operation t...">
<polygon fill="white" stroke="black" points="780,-314 780,-333 926,-333 926,-314 780,-314"/>
<text text-anchor="middle" x="853" y="-321" font-family="Helvetica,sans-Serif" font-size="10.00">Cpl::Persistent::RecordServer</text>
</a>
</g>
</g>
<!-- Node5&#45;&gt;Node7 -->
<g id="edge6" class="edge"><title>Node5&#45;&gt;Node7</title>
<path fill="none" stroke="midnightblue" d="M747.721,-334.92C758.286,-333.763 769.213,-332.566 779.839,-331.402"/>
<polygon fill="midnightblue" stroke="midnightblue" points="747.283,-331.447 737.724,-336.014 748.045,-338.405 747.283,-331.447"/>
</g>
<!-- Node9 -->
<g id="node9" class="node"><title>Node9</title>
<g id="a_node9"><a xlink:href="class_cpl_1_1_itc_1_1_periodic_scheduler.html" target="_top" xlink:title="This class extends the Cpl::Itc::MailboxServer class to add periodic scheduling to an event based &#39;th...">
<polygon fill="white" stroke="black" points="611,-295 611,-314 744,-314 744,-295 611,-295"/>
<text text-anchor="middle" x="677.5" y="-302" font-family="Helvetica,sans-Serif" font-size="10.00">Cpl::Itc::PeriodicScheduler</text>
</a>
</g>
</g>
<!-- Node8&#45;&gt;Node9 -->
<g id="edge8" class="edge"><title>Node8&#45;&gt;Node9</title>
<path fill="none" stroke="midnightblue" d="M581.86,-304.5C591.42,-304.5 601.241,-304.5 610.77,-304.5"/>
<polygon fill="midnightblue" stroke="midnightblue" points="581.615,-301 571.615,-304.5 581.615,-308 581.615,-301"/>
</g>
<!-- Node12 -->
<g id="node12" class="node"><title>Node12</title>
<g id="a_node12"><a xlink:href="class_cpl_1_1_system_1_1_bare_metal_1_1_thread.html" target="_top" xlink:title="This concrete class implements &#39;enough&#39; of a Thread object to support Cpl::System framework on a bare...">
<polygon fill="white" stroke="black" points="453,-245.5 453,-275.5 574,-275.5 574,-245.5 453,-245.5"/>
<text text-anchor="start" x="461" y="-263.5" font-family="Helvetica,sans-Serif" font-size="10.00">Cpl::System::BareMetal</text>
<text text-anchor="middle" x="513.5" y="-252.5" font-family="Helvetica,sans-Serif" font-size="10.00">::Thread</text>
</a>
</g>
</g>
<!-- Node11&#45;&gt;Node12 -->
<g id="edge11" class="edge"><title>Node11&#45;&gt;Node12</title>
<path fill="none" stroke="midnightblue" d="M372.709,-178.662C391.744,-194.555 422.556,-218.796 452,-235.5 458.326,-239.089 465.271,-242.446 472.129,-245.463"/>
<polygon fill="midnightblue" stroke="midnightblue" points="374.733,-175.79 364.838,-172.004 370.212,-181.135 374.733,-175.79"/>
</g>
<!-- Node13 -->
<g id="node13" class="node"><title>Node13</title>
<g id="a_node13"><a xlink:href="class_cpl_1_1_system_1_1_cpp11_1_1_thread.html" target="_top" xlink:title="This concrete class implements a Thread object using C++11 threads.">
<polygon fill="white" stroke="black" points="461.5,-196.5 461.5,-226.5 565.5,-226.5 565.5,-196.5 461.5,-196.5"/>
<text text-anchor="start" x="469.5" y="-214.5" font-family="Helvetica,sans-Serif" font-size="10.00">Cpl::System::Cpp11</text>
<text text-anchor="middle" x="513.5" y="-203.5" font-family="Helvetica,sans-Serif" font-size="10.00">::Thread</text>
</a>
</g>
</g>
<!-- Node11&#45;&gt;Node13 -->
<g id="edge12" class="edge"><title>Node11&#45;&gt;Node13</title>
<path fill="none" stroke="midnightblue" d="M394.572,-175.043C415.692,-181.572 441.668,-189.602 463.86,-196.463"/>
<polygon fill="midnightblue" stroke="midnightblue" points="395.524,-171.674 384.937,-172.064 393.457,-178.362 395.524,-171.674"/>
</g>
<!-- Node14 -->
<g id="node14" class="node"><title>Node14</title>
<g id="a_node14"><a xlink:href="class_cpl_1_1_system_1_1_free_r_t_o_s_1_1_thread.html" target="_top" xlink:title="This concrete class implements a Thread object using FreeRTOS threads.">
<polygon fill="white" stroke="black" points="452,-147.5 452,-177.5 575,-177.5 575,-147.5 452,-147.5"/>
<text text-anchor="start" x="460" y="-165.5" font-family="Helvetica,sans-Serif" font-size="10.00">Cpl::System::FreeRTOS</text>
<text text-anchor="middle" x="513.5" y="-154.5" font-family="Helvetica,sans-Serif" font-size="10.00">::Thread</text>
</a>
</g>
</g>
<!-- Node11&#45;&gt;Node14 -->
<g id="edge13" class="edge"><title>Node11&#45;&gt;Node14</title>
<path fill="none" stroke="midnightblue" d="M417.098,-162.5C428.509,-162.5 440.387,-162.5 451.73,-162.5"/>
<polygon fill="midnightblue" stroke="midnightblue" points="416.778,-159 406.778,-162.5 416.778,-166 416.778,-159"/>
</g>
<!-- Node15 -->
<g id="node15" class="node"><title>Node15</title>
<g id="a_node15"><a xlink:href="class_cpl_1_1_system_1_1_posix_1_1_thread.html" target="_top" xlink:title="This concrete class implements a Thread object using Posix threads.">
<polygon fill="white" stroke="black" points="463,-98.5 463,-128.5 564,-128.5 564,-98.5 463,-98.5"/>
<text text-anchor="start" x="471" y="-116.5" font-family="Helvetica,sans-Serif" font-size="10.00">Cpl::System::Posix</text>
<text text-anchor="middle" x="513.5" y="-105.5" font-family="Helvetica,sans-Serif" font-size="10.00">::Thread</text>
</a>
</g>
</g>
<!-- Node11&#45;&gt;Node15 -->
<g id="edge14" class="edge"><title>Node11&#45;&gt;Node15</title>
<path fill="none" stroke="midnightblue" d="M394.572,-149.957C415.692,-143.428 441.668,-135.398 463.86,-128.537"/>
<polygon fill="midnightblue" stroke="midnightblue" points="393.457,-146.638 384.937,-152.936 395.524,-153.326 393.457,-146.638"/>
</g>
<!-- Node16 -->
<g id="node16" class="node"><title>Node16</title>
<g id="a_node16"><a xlink:href="class_cpl_1_1_system_1_1_r_p2040_1_1_thread.html" target="_top" xlink:title="This concrete class implements a Thread object that maps 1 to 1 with a processor core on the Raspberr...">
<polygon fill="white" stroke="black" points="458,-49.5 458,-79.5 569,-79.5 569,-49.5 458,-49.5"/>
<text text-anchor="start" x="466" y="-67.5" font-family="Helvetica,sans-Serif" font-size="10.00">Cpl::System::RP2040</text>
<text text-anchor="middle" x="513.5" y="-56.5" font-family="Helvetica,sans-Serif" font-size="10.00">::Thread</text>
</a>
</g>
</g>
<!-- Node11&#45;&gt;Node16 -->
<g id="edge15" class="edge"><title>Node11&#45;&gt;Node16</title>
<path fill="none" stroke="midnightblue" d="M372.364,-146.224C391.31,-130.032 422.214,-105.247 452,-88.5 457.713,-85.288 463.942,-82.2994 470.162,-79.598"/>
<polygon fill="midnightblue" stroke="midnightblue" points="370.047,-143.601 364.781,-152.794 374.631,-148.891 370.047,-143.601"/>
</g>
<!-- Node17 -->
<g id="node17" class="node"><title>Node17</title>
<g id="a_node17"><a xlink:href="class_cpl_1_1_system_1_1_win32_1_1_thread.html" target="_top" xlink:title="This concrete class implements a Thread object using Win32 threads NOTE: The class/implementation use...">
<polygon fill="white" stroke="black" points="461.5,-0.5 461.5,-30.5 565.5,-30.5 565.5,-0.5 461.5,-0.5"/>
<text text-anchor="start" x="469.5" y="-18.5" font-family="Helvetica,sans-Serif" font-size="10.00">Cpl::System::Win32</text>
<text text-anchor="middle" x="513.5" y="-7.5" font-family="Helvetica,sans-Serif" font-size="10.00">::Thread</text>
</a>
</g>
</g>
<!-- Node11&#45;&gt;Node17 -->
<g id="edge16" class="edge"><title>Node11&#45;&gt;Node17</title>
<path fill="none" stroke="midnightblue" d="M364.368,-144.111C380.141,-117.634 412.538,-68.7496 452,-39.5 456.539,-36.1357 461.613,-33.17 466.839,-30.5756"/>
<polygon fill="midnightblue" stroke="midnightblue" points="361.332,-142.371 359.327,-152.774 367.382,-145.891 361.332,-142.371"/>
</g>
</g>
</svg>
