<?xml version="1.0" encoding="UTF-8" standalone="no"?>
<!DOCTYPE svg PUBLIC "-//W3C//DTD SVG 1.1//EN"
 "http://www.w3.org/Graphics/SVG/1.1/DTD/svg11.dtd">
<!-- Generated by graphviz version 2.38.0 (20140413.2041)
 -->
<!-- Title: Cpl::System::Runnable Pages: 1 -->
<svg width="835pt" height="176pt"
 viewBox="0.00 0.00 835.00 176.00" xmlns="http://www.w3.org/2000/svg" xmlns:xlink="http://www.w3.org/1999/xlink">
<g id="graph0" class="graph" transform="scale(1 1) rotate(0) translate(4 172)">
<title>Cpl::System::Runnable</title>
<polygon fill="white" stroke="none" points="-4,4 -4,-172 831,-172 831,4 -4,4"/>
<!-- Node1 -->
<g id="node1" class="node"><title>Node1</title>
<g id="a_node1"><a xlink:title="This is an abstract class defines the interface for an object that is &quot;executed&quot; when a Thread object...">
<polygon fill="#bfbfbf" stroke="black" points="0,-50 0,-69 117,-69 117,-50 0,-50"/>
<text text-anchor="middle" x="58.5" y="-57" font-family="Helvetica,sans-Serif" font-size="10.00">Cpl::System::Runnable</text>
</a>
</g>
</g>
<!-- Node2 -->
<g id="node2" class="node"><title>Node2</title>
<g id="a_node2"><a xlink:href="class_cpl_1_1_io_1_1_socket_1_1_listener.html" target="_top" xlink:title="This abstract class defines the interface for a SIMPLE socket listener.">
<polygon fill="white" stroke="black" points="171.5,-91 171.5,-110 293.5,-110 293.5,-91 171.5,-91"/>
<text text-anchor="middle" x="232.5" y="-98" font-family="Helvetica,sans-Serif" font-size="10.00">Cpl::Io::Socket::Listener</text>
</a>
</g>
</g>
<!-- Node1&#45;&gt;Node2 -->
<g id="edge1" class="edge"><title>Node1&#45;&gt;Node2</title>
<path fill="none" stroke="midnightblue" d="M109.124,-71.3291C135.288,-77.5658 166.959,-85.1153 191.526,-90.9714"/>
<polygon fill="midnightblue" stroke="midnightblue" points="109.932,-67.9235 99.3926,-69.0093 108.308,-74.7327 109.932,-67.9235"/>
</g>
<!-- Node6 -->
<g id="node6" class="node"><title>Node6</title>
<g id="a_node6"><a xlink:href="class_cpl_1_1_system_1_1_event_loop.html" target="_top" xlink:title="This concrete class is a Runnable object that provides a event driven execution model for a thread.">
<polygon fill="white" stroke="black" points="171,-50 171,-69 294,-69 294,-50 171,-50"/>
<text text-anchor="middle" x="232.5" y="-57" font-family="Helvetica,sans-Serif" font-size="10.00">Cpl::System::EventLoop</text>
</a>
</g>
</g>
<!-- Node1&#45;&gt;Node6 -->
<g id="edge5" class="edge"><title>Node1&#45;&gt;Node6</title>
<path fill="none" stroke="midnightblue" d="M127.545,-59.5C141.883,-59.5 156.918,-59.5 170.958,-59.5"/>
<polygon fill="midnightblue" stroke="midnightblue" points="127.252,-56.0001 117.252,-59.5 127.252,-63.0001 127.252,-56.0001"/>
</g>
<!-- Node13 -->
<g id="node13" class="node"><title>Node13</title>
<g id="a_node13"><a xlink:href="class_cpl_1_1_system_1_1_free_r_t_o_s_1_1_make_current_thread_a_cpl_thread.html" target="_top" xlink:title="This is a helper class that can be used to make the current thread a CPL thread.">
<polygon fill="white" stroke="black" points="153,-0.5 153,-30.5 312,-30.5 312,-0.5 153,-0.5"/>
<text text-anchor="start" x="161" y="-18.5" font-family="Helvetica,sans-Serif" font-size="10.00">Cpl::System::FreeRTOS</text>
<text text-anchor="middle" x="232.5" y="-7.5" font-family="Helvetica,sans-Serif" font-size="10.00">::MakeCurrentThreadACplThread</text>
</a>
</g>
</g>
<!-- Node1&#45;&gt;Node13 -->
<g id="edge12" class="edge"><title>Node1&#45;&gt;Node13</title>
<path fill="none" stroke="midnightblue" d="M106.511,-47.4739C126.913,-42.2547 151.029,-36.0856 172.608,-30.5654"/>
<polygon fill="midnightblue" stroke="midnightblue" points="105.642,-44.0834 96.8214,-49.9527 107.377,-50.8651 105.642,-44.0834"/>
</g>
<!-- Node3 -->
<g id="node3" class="node"><title>Node3</title>
<g id="a_node3"><a xlink:href="class_cpl_1_1_io_1_1_socket_1_1_listener__.html" target="_top" xlink:title="This private, mostly concrete helper class manages the top level threading aspects for a simple liste...">
<polygon fill="white" stroke="black" points="348,-94 348,-113 476,-113 476,-94 348,-94"/>
<text text-anchor="middle" x="412" y="-101" font-family="Helvetica,sans-Serif" font-size="10.00">Cpl::Io::Socket::Listener_</text>
</a>
</g>
</g>
<!-- Node2&#45;&gt;Node3 -->
<g id="edge2" class="edge"><title>Node2&#45;&gt;Node3</title>
<path fill="none" stroke="midnightblue" d="M304.014,-101.692C318.523,-101.937 333.711,-102.194 347.936,-102.434"/>
<polygon fill="midnightblue" stroke="midnightblue" points="303.651,-98.1852 293.593,-101.516 303.533,-105.184 303.651,-98.1852"/>
</g>
<!-- Node4 -->
<g id="node4" class="node"><title>Node4</title>
<g id="a_node4"><a xlink:href="class_cpl_1_1_io_1_1_socket_1_1_posix_1_1_listener.html" target="_top" xlink:title="This concrete class implements the Cpl::Io::Socket::Listener interface using IPv4 addressing for the ...">
<polygon fill="white" stroke="black" points="522,-137.5 522,-167.5 635,-167.5 635,-137.5 522,-137.5"/>
<text text-anchor="start" x="530" y="-155.5" font-family="Helvetica,sans-Serif" font-size="10.00">Cpl::Io::Socket::Posix</text>
<text text-anchor="middle" x="578.5" y="-144.5" font-family="Helvetica,sans-Serif" font-size="10.00">::Listener</text>
</a>
</g>
</g>
<!-- Node3&#45;&gt;Node4 -->
<g id="edge3" class="edge"><title>Node3&#45;&gt;Node4</title>
<path fill="none" stroke="midnightblue" d="M454.81,-115.954C476.783,-122.499 503.882,-130.571 527.019,-137.463"/>
<polygon fill="midnightblue" stroke="midnightblue" points="455.691,-112.565 445.108,-113.064 453.692,-119.273 455.691,-112.565"/>
</g>
<!-- Node5 -->
<g id="node5" class="node"><title>Node5</title>
<g id="a_node5"><a xlink:href="class_cpl_1_1_io_1_1_socket_1_1_win32_1_1_listener.html" target="_top" xlink:title="This concrete class implements the Cpl::Io::Socket::Listener interface using IPv4 addressing for the ...">
<polygon fill="white" stroke="black" points="521,-88.5 521,-118.5 636,-118.5 636,-88.5 521,-88.5"/>
<text text-anchor="start" x="529" y="-106.5" font-family="Helvetica,sans-Serif" font-size="10.00">Cpl::Io::Socket::Win32</text>
<text text-anchor="middle" x="578.5" y="-95.5" font-family="Helvetica,sans-Serif" font-size="10.00">::Listener</text>
</a>
</g>
</g>
<!-- Node3&#45;&gt;Node5 -->
<g id="edge4" class="edge"><title>Node3&#45;&gt;Node5</title>
<path fill="none" stroke="midnightblue" d="M486.278,-103.5C497.924,-103.5 509.813,-103.5 520.996,-103.5"/>
<polygon fill="midnightblue" stroke="midnightblue" points="486.13,-100 476.13,-103.5 486.13,-107 486.13,-100"/>
</g>
<!-- Node7 -->
<g id="node7" class="node"><title>Node7</title>
<g id="a_node7"><a xlink:href="class_cpl_1_1_dm_1_1_event_loop.html" target="_top" xlink:title="This class extends the Cpl::System::EventLoop class to support the asynchronous change notification g...">
<polygon fill="white" stroke="black" points="360,-50 360,-69 464,-69 464,-50 360,-50"/>
<text text-anchor="middle" x="412" y="-57" font-family="Helvetica,sans-Serif" font-size="10.00">Cpl::Dm::EventLoop</text>
</a>
</g>
</g>
<!-- Node6&#45;&gt;Node7 -->
<g id="edge6" class="edge"><title>Node6&#45;&gt;Node7</title>
<path fill="none" stroke="midnightblue" d="M304.273,-59.5C322.846,-59.5 342.516,-59.5 359.841,-59.5"/>
<polygon fill="midnightblue" stroke="midnightblue" points="304.089,-56.0001 294.089,-59.5 304.089,-63.0001 304.089,-56.0001"/>
</g>
<!-- Node11 -->
<g id="node11" class="node"><title>Node11</title>
<g id="a_node11"><a xlink:href="class_cpl_1_1_itc_1_1_mailbox_server.html" target="_top" xlink:title="This class collects the common functions of a generic server providing a mailbox and Event loop.">
<polygon fill="white" stroke="black" points="354,-12 354,-31 470,-31 470,-12 354,-12"/>
<text text-anchor="middle" x="412" y="-19" font-family="Helvetica,sans-Serif" font-size="10.00">Cpl::Itc::MailboxServer</text>
</a>
</g>
</g>
<!-- Node6&#45;&gt;Node11 -->
<g id="edge10" class="edge"><title>Node6&#45;&gt;Node11</title>
<path fill="none" stroke="midnightblue" d="M288.397,-47.7474C313.495,-42.3742 342.843,-36.0914 366.531,-31.0201"/>
<polygon fill="midnightblue" stroke="midnightblue" points="287.336,-44.3951 278.291,-49.911 288.802,-51.24 287.336,-44.3951"/>
</g>
<!-- Node8 -->
<g id="node8" class="node"><title>Node8</title>
<g id="a_node8"><a xlink:href="class_cpl_1_1_dm_1_1_mailbox_server.html" target="_top" xlink:title="This class extends the Cpl::Dm::EventLoop and Cpl::Itc:Mailbox classes to support the asynchronous ch...">
<polygon fill="white" stroke="black" points="518.5,-50 518.5,-69 638.5,-69 638.5,-50 518.5,-50"/>
<text text-anchor="middle" x="578.5" y="-57" font-family="Helvetica,sans-Serif" font-size="10.00">Cpl::Dm::MailboxServer</text>
</a>
</g>
</g>
<!-- Node7&#45;&gt;Node8 -->
<g id="edge7" class="edge"><title>Node7&#45;&gt;Node8</title>
<path fill="none" stroke="midnightblue" d="M474.42,-59.5C488.786,-59.5 504.06,-59.5 518.326,-59.5"/>
<polygon fill="midnightblue" stroke="midnightblue" points="474.147,-56.0001 464.147,-59.5 474.147,-63.0001 474.147,-56.0001"/>
</g>
<!-- Node9 -->
<g id="node9" class="node"><title>Node9</title>
<g id="a_node9"><a xlink:href="class_cpl_1_1_dm_1_1_periodic_scheduler.html" target="_top" xlink:title="This class extends the Cpl::Dm::MailboxServer class to add periodic scheduling to an event based &#39;thr...">
<polygon fill="white" stroke="black" points="685.5,-69 685.5,-88 822.5,-88 822.5,-69 685.5,-69"/>
<text text-anchor="middle" x="754" y="-76" font-family="Helvetica,sans-Serif" font-size="10.00">Cpl::Dm::PeriodicScheduler</text>
</a>
</g>
</g>
<!-- Node8&#45;&gt;Node9 -->
<g id="edge8" class="edge"><title>Node8&#45;&gt;Node9</title>
<path fill="none" stroke="midnightblue" d="M648.735,-67.0819C660.811,-68.4044 673.36,-69.7786 685.392,-71.0962"/>
<polygon fill="midnightblue" stroke="midnightblue" points="649.045,-63.5951 638.724,-65.9856 648.283,-70.5535 649.045,-63.5951"/>
</g>
<!-- Node10 -->
<g id="node10" class="node"><title>Node10</title>
<g id="a_node10"><a xlink:href="class_cpl_1_1_persistent_1_1_record_server.html" target="_top" xlink:title="This concrete class provides an Event driven Runnable object for executing the read/write operation t...">
<polygon fill="white" stroke="black" points="681,-31 681,-50 827,-50 827,-31 681,-31"/>
<text text-anchor="middle" x="754" y="-38" font-family="Helvetica,sans-Serif" font-size="10.00">Cpl::Persistent::RecordServer</text>
</a>
</g>
</g>
<!-- Node8&#45;&gt;Node10 -->
<g id="edge9" class="edge"><title>Node8&#45;&gt;Node10</title>
<path fill="none" stroke="midnightblue" d="M648.721,-51.9196C659.286,-50.7627 670.213,-49.566 680.839,-48.4023"/>
<polygon fill="midnightblue" stroke="midnightblue" points="648.283,-48.4465 638.724,-53.0144 649.045,-55.4049 648.283,-48.4465"/>
</g>
<!-- Node12 -->
<g id="node12" class="node"><title>Node12</title>
<g id="a_node12"><a xlink:href="class_cpl_1_1_itc_1_1_periodic_scheduler.html" target="_top" xlink:title="This class extends the Cpl::Itc::MailboxServer class to add periodic scheduling to an event based &#39;th...">
<polygon fill="white" stroke="black" points="512,-12 512,-31 645,-31 645,-12 512,-12"/>
<text text-anchor="middle" x="578.5" y="-19" font-family="Helvetica,sans-Serif" font-size="10.00">Cpl::Itc::PeriodicScheduler</text>
</a>
</g>
</g>
<!-- Node11&#45;&gt;Node12 -->
<g id="edge11" class="edge"><title>Node11&#45;&gt;Node12</title>
<path fill="none" stroke="midnightblue" d="M480.325,-21.5C490.713,-21.5 501.429,-21.5 511.781,-21.5"/>
<polygon fill="midnightblue" stroke="midnightblue" points="480.072,-18.0001 470.072,-21.5 480.072,-25.0001 480.072,-18.0001"/>
</g>
</g>
</svg>
