<?xml version="1.0" encoding="UTF-8" standalone="no"?>
<!DOCTYPE svg PUBLIC "-//W3C//DTD SVG 1.1//EN"
 "http://www.w3.org/Graphics/SVG/1.1/DTD/svg11.dtd">
<!-- Generated by graphviz version 2.38.0 (20140413.2041)
 -->
<!-- Title: Driver::LED::TPipe::RedGreeBlue Pages: 1 -->
<svg width="254pt" height="106pt"
 viewBox="0.00 0.00 253.50 106.00" xmlns="http://www.w3.org/2000/svg" xmlns:xlink="http://www.w3.org/1999/xlink">
<g id="graph0" class="graph" transform="scale(1 1) rotate(0) translate(4 102)">
<title>Driver::LED::TPipe::RedGreeBlue</title>
<polygon fill="white" stroke="none" points="-4,4 -4,-102 249.5,-102 249.5,4 -4,4"/>
<!-- Node1 -->
<g id="node1" class="node"><title>Node1</title>
<g id="a_node1"><a xlink:title="This concrete class implements the Red&#45;Green&#45;Blue LED interface by sending the LED state over the TPi...">
<polygon fill="#bfbfbf" stroke="black" points="85,-0.5 85,-30.5 183,-30.5 183,-0.5 85,-0.5"/>
<text text-anchor="start" x="93" y="-18.5" font-family="Helvetica,sans-Serif" font-size="10.00">Driver::LED::TPipe</text>
<text text-anchor="middle" x="134" y="-7.5" font-family="Helvetica,sans-Serif" font-size="10.00">::RedGreeBlue</text>
</a>
</g>
</g>
<!-- Node2 -->
<g id="node2" class="node"><title>Node2</title>
<g id="a_node2"><a xlink:href="class_driver_1_1_l_e_d_1_1_red_green_blue.html" target="_top" xlink:title="This abstract class defines a basic interface for a single Red&#45;Green&#45;Blue LED where the application c...">
<polygon fill="white" stroke="black" points="0,-78.5 0,-97.5 136,-97.5 136,-78.5 0,-78.5"/>
<text text-anchor="middle" x="68" y="-85.5" font-family="Helvetica,sans-Serif" font-size="10.00">Driver::LED::RedGreenBlue</text>
</a>
</g>
</g>
<!-- Node2&#45;&gt;Node1 -->
<g id="edge1" class="edge"><title>Node2&#45;&gt;Node1</title>
<path fill="none" stroke="midnightblue" d="M83.2181,-70.7443C94.5887,-58.5984 109.975,-42.1628 120.822,-30.5762"/>
<polygon fill="midnightblue" stroke="midnightblue" points="80.3721,-68.6631 76.0929,-78.3553 85.4823,-73.4471 80.3721,-68.6631"/>
</g>
<!-- Node3 -->
<g id="node3" class="node"><title>Node3</title>
<g id="a_node3"><a xlink:href="class_driver_1_1_t_pipe_1_1_tx.html" target="_top" xlink:title="This abstract class defines the &#39;Transmit Command&#39; interface for the TPipe.">
<polygon fill="white" stroke="black" points="154.5,-78.5 154.5,-97.5 245.5,-97.5 245.5,-78.5 154.5,-78.5"/>
<text text-anchor="middle" x="200" y="-85.5" font-family="Helvetica,sans-Serif" font-size="10.00">Driver::TPipe::Tx</text>
</a>
</g>
</g>
<!-- Node3&#45;&gt;Node1 -->
<g id="edge2" class="edge"><title>Node3&#45;&gt;Node1</title>
<path fill="none" stroke="#9a32cd" stroke-dasharray="5,2" d="M184.782,-70.7443C173.411,-58.5984 158.025,-42.1628 147.178,-30.5762"/>
<polygon fill="#9a32cd" stroke="#9a32cd" points="182.518,-73.4471 191.907,-78.3553 187.628,-68.6631 182.518,-73.4471"/>
<text text-anchor="middle" x="192" y="-52" font-family="Helvetica,sans-Serif" font-size="10.00"> m_tpipe</text>
</g>
</g>
</svg>
