<?xml version="1.0" encoding="UTF-8" standalone="no"?>
<!DOCTYPE svg PUBLIC "-//W3C//DTD SVG 1.1//EN"
 "http://www.w3.org/Graphics/SVG/1.1/DTD/svg11.dtd">
<!-- Generated by graphviz version 2.38.0 (20140413.2041)
 -->
<!-- Title: Cpl::Io::InputOutput Pages: 1 -->
<svg width="845pt" height="247pt"
 viewBox="0.00 0.00 845.00 247.00" xmlns="http://www.w3.org/2000/svg" xmlns:xlink="http://www.w3.org/1999/xlink">
<g id="graph0" class="graph" transform="scale(1 1) rotate(0) translate(4 243)">
<title>Cpl::Io::InputOutput</title>
<polygon fill="white" stroke="none" points="-4,4 -4,-243 841,-243 841,4 -4,4"/>
<!-- Node1 -->
<g id="node1" class="node"><title>Node1</title>
<g id="a_node1"><a xlink:title="This abstract class defines a interface for operating on an input&#45;output stream (example of a stream ...">
<polygon fill="#bfbfbf" stroke="black" points="369,-115.5 369,-134.5 471,-134.5 471,-115.5 369,-115.5"/>
<text text-anchor="middle" x="420" y="-122.5" font-family="Helvetica,sans-Serif" font-size="10.00">Cpl::Io::InputOutput</text>
</a>
</g>
</g>
<!-- Node7 -->
<g id="node7" class="node"><title>Node7</title>
<g id="a_node7"><a xlink:href="class_cpl_1_1_io_1_1_null.html" target="_top" xlink:title="This concrete class implements a NULL InputOutput stream &#45; that all of its input operations return &#39;E...">
<polygon fill="white" stroke="black" points="542.5,-219.5 542.5,-238.5 610.5,-238.5 610.5,-219.5 542.5,-219.5"/>
<text text-anchor="middle" x="576.5" y="-226.5" font-family="Helvetica,sans-Serif" font-size="10.00">Cpl::Io::Null</text>
</a>
</g>
</g>
<!-- Node1&#45;&gt;Node7 -->
<g id="edge8" class="edge"><title>Node1&#45;&gt;Node7</title>
<path fill="none" stroke="midnightblue" d="M434.336,-142.782C449.758,-162.113 476.913,-192.571 507,-210 517.786,-216.248 530.723,-220.524 542.436,-223.41"/>
<polygon fill="midnightblue" stroke="midnightblue" points="437.008,-140.516 428.107,-134.77 431.482,-144.813 437.008,-140.516"/>
</g>
<!-- Node8 -->
<g id="node8" class="node"><title>Node8</title>
<g id="a_node8"><a xlink:href="class_cpl_1_1_io_1_1_ram_1_1_input_output.html" target="_top" xlink:title="This concrete class implements an InputOutput stream using a Ring Buffer.">
<polygon fill="white" stroke="black" points="512.5,-181.5 512.5,-200.5 640.5,-200.5 640.5,-181.5 512.5,-181.5"/>
<text text-anchor="middle" x="576.5" y="-188.5" font-family="Helvetica,sans-Serif" font-size="10.00">Cpl::Io::Ram::InputOutput</text>
</a>
</g>
</g>
<!-- Node1&#45;&gt;Node8 -->
<g id="edge9" class="edge"><title>Node1&#45;&gt;Node8</title>
<path fill="none" stroke="midnightblue" d="M444.658,-139.86C461.539,-149.976 485.049,-163.096 507,-172 515.92,-175.618 525.764,-178.796 535.14,-181.465"/>
<polygon fill="midnightblue" stroke="midnightblue" points="446.374,-136.807 436.013,-134.594 442.733,-142.785 446.374,-136.807"/>
</g>
<!-- Node9 -->
<g id="node9" class="node"><title>Node9</title>
<g id="a_node9"><a xlink:href="class_cpl_1_1_io_1_1_serial_1_1_r_p2040_1_1_uart_1_1_input_output.html" target="_top" xlink:title="This concrete class implements a Input stream using Raspberry Pi UART interface/hardware.">
<polygon fill="white" stroke="black" points="518.5,-132 518.5,-162 634.5,-162 634.5,-132 518.5,-132"/>
<text text-anchor="start" x="526.5" y="-150" font-family="Helvetica,sans-Serif" font-size="10.00">Cpl::Io::Serial::RP2040</text>
<text text-anchor="middle" x="576.5" y="-139" font-family="Helvetica,sans-Serif" font-size="10.00">::Uart::InputOutput</text>
</a>
</g>
</g>
<!-- Node1&#45;&gt;Node9 -->
<g id="edge10" class="edge"><title>Node1&#45;&gt;Node9</title>
<path fill="none" stroke="midnightblue" d="M481.247,-133.579C493.454,-135.317 506.257,-137.14 518.353,-138.863"/>
<polygon fill="midnightblue" stroke="midnightblue" points="481.555,-130.088 471.162,-132.143 480.568,-137.018 481.555,-130.088"/>
</g>
<!-- Node10 -->
<g id="node10" class="node"><title>Node10</title>
<g id="a_node10"><a xlink:href="class_cpl_1_1_io_1_1_socket_1_1_input_output.html" target="_top" xlink:title="This concrete class provides a platform independent &#39;standard&#39; implementation of an InputOutput strea...">
<polygon fill="white" stroke="black" points="507,-93.5 507,-112.5 646,-112.5 646,-93.5 507,-93.5"/>
<text text-anchor="middle" x="576.5" y="-100.5" font-family="Helvetica,sans-Serif" font-size="10.00">Cpl::Io::Socket::InputOutput</text>
</a>
</g>
</g>
<!-- Node1&#45;&gt;Node10 -->
<g id="edge11" class="edge"><title>Node1&#45;&gt;Node10</title>
<path fill="none" stroke="midnightblue" d="M481.187,-116.43C490.214,-115.144 499.569,-113.812 508.724,-112.509"/>
<polygon fill="midnightblue" stroke="midnightblue" points="480.568,-112.982 471.162,-117.857 481.555,-119.912 480.568,-112.982"/>
</g>
<!-- Node11 -->
<g id="node11" class="node"><title>Node11</title>
<g id="a_node11"><a xlink:href="class_cpl_1_1_io_1_1_stdio_1_1_input_output__.html" target="_top" xlink:title="This concrete class implements a Input&#45;Output stream.">
<polygon fill="white" stroke="black" points="508.5,-55.5 508.5,-74.5 644.5,-74.5 644.5,-55.5 508.5,-55.5"/>
<text text-anchor="middle" x="576.5" y="-62.5" font-family="Helvetica,sans-Serif" font-size="10.00">Cpl::Io::Stdio::InputOutput_</text>
</a>
</g>
</g>
<!-- Node1&#45;&gt;Node11 -->
<g id="edge12" class="edge"><title>Node1&#45;&gt;Node11</title>
<path fill="none" stroke="midnightblue" d="M447.879,-110.694C464.578,-102.184 486.666,-91.6009 507,-84 516.364,-80.4998 526.66,-77.3125 536.361,-74.5904"/>
<polygon fill="midnightblue" stroke="midnightblue" points="445.999,-107.726 438.723,-115.427 449.214,-113.944 445.999,-107.726"/>
</g>
<!-- Node12 -->
<g id="node12" class="node"><title>Node12</title>
<g id="a_node12"><a xlink:href="class_driver_1_1_uart_1_1_stream_1_1_input_output__.html" target="_top" xlink:title="This private concrete class implements the InputOutput stream interface using the UART stream driver.">
<polygon fill="white" stroke="black" points="524.5,-6 524.5,-36 628.5,-36 628.5,-6 524.5,-6"/>
<text text-anchor="start" x="532.5" y="-24" font-family="Helvetica,sans-Serif" font-size="10.00">Driver::Uart::Stream</text>
<text text-anchor="middle" x="576.5" y="-13" font-family="Helvetica,sans-Serif" font-size="10.00">::InputOutput_</text>
</a>
</g>
</g>
<!-- Node1&#45;&gt;Node12 -->
<g id="edge13" class="edge"><title>Node1&#45;&gt;Node12</title>
<path fill="none" stroke="midnightblue" d="M436.05,-107.629C452.1,-90.0237 479.015,-63.022 507,-46 513.165,-42.25 519.981,-38.9306 526.852,-36.0358"/>
<polygon fill="midnightblue" stroke="midnightblue" points="433.134,-105.64 429.087,-115.432 438.357,-110.301 433.134,-105.64"/>
</g>
<!-- Node2 -->
<g id="node2" class="node"><title>Node2</title>
<g id="a_node2"><a xlink:href="class_cpl_1_1_io_1_1_input.html" target="_top" xlink:title="This partially abstract class defines a interface for operating on an input stream (example of a stre...">
<polygon fill="white" stroke="black" points="256.5,-134.5 256.5,-153.5 329.5,-153.5 329.5,-134.5 256.5,-134.5"/>
<text text-anchor="middle" x="293" y="-141.5" font-family="Helvetica,sans-Serif" font-size="10.00">Cpl::Io::Input</text>
</a>
</g>
</g>
<!-- Node2&#45;&gt;Node1 -->
<g id="edge1" class="edge"><title>Node2&#45;&gt;Node1</title>
<path fill="none" stroke="midnightblue" d="M339.782,-137.041C349.202,-135.609 359.169,-134.094 368.737,-132.64"/>
<polygon fill="midnightblue" stroke="midnightblue" points="339.18,-133.592 329.82,-138.555 340.232,-140.513 339.18,-133.592"/>
</g>
<!-- Node3 -->
<g id="node3" class="node"><title>Node3</title>
<g id="a_node3"><a xlink:href="class_cpl_1_1_io_1_1_close.html" target="_top" xlink:title="This abstract class defines a close operation that is intended to be used Input and Output streams/fi...">
<polygon fill="white" stroke="black" points="140.5,-134.5 140.5,-153.5 216.5,-153.5 216.5,-134.5 140.5,-134.5"/>
<text text-anchor="middle" x="178.5" y="-141.5" font-family="Helvetica,sans-Serif" font-size="10.00">Cpl::Io::Close</text>
</a>
</g>
</g>
<!-- Node3&#45;&gt;Node2 -->
<g id="edge2" class="edge"><title>Node3&#45;&gt;Node2</title>
<path fill="none" stroke="midnightblue" d="M226.794,-144C236.713,-144 247.014,-144 256.419,-144"/>
<polygon fill="midnightblue" stroke="midnightblue" points="226.649,-140.5 216.648,-144 226.648,-147.5 226.649,-140.5"/>
</g>
<!-- Node6 -->
<g id="node6" class="node"><title>Node6</title>
<g id="a_node6"><a xlink:href="class_cpl_1_1_io_1_1_output.html" target="_top" xlink:title="This partially abstract class defines a interface for operating on an output stream (example of a str...">
<polygon fill="white" stroke="black" points="253,-96.5 253,-115.5 333,-115.5 333,-96.5 253,-96.5"/>
<text text-anchor="middle" x="293" y="-103.5" font-family="Helvetica,sans-Serif" font-size="10.00">Cpl::Io::Output</text>
</a>
</g>
</g>
<!-- Node3&#45;&gt;Node6 -->
<g id="edge6" class="edge"><title>Node3&#45;&gt;Node6</title>
<path fill="none" stroke="midnightblue" d="M217.471,-131.174C232.567,-126.075 249.632,-120.311 263.621,-115.586"/>
<polygon fill="midnightblue" stroke="midnightblue" points="216.243,-127.895 207.889,-134.411 218.483,-134.527 216.243,-127.895"/>
</g>
<!-- Node4 -->
<g id="node4" class="node"><title>Node4</title>
<g id="a_node4"><a xlink:href="class_cpl_1_1_container_1_1_item.html" target="_top" xlink:title="This class is used by the Container classes to implement a various types of singly linked containers.">
<polygon fill="white" stroke="black" points="0,-134.5 0,-153.5 104,-153.5 104,-134.5 0,-134.5"/>
<text text-anchor="middle" x="52" y="-141.5" font-family="Helvetica,sans-Serif" font-size="10.00">Cpl::Container::Item</text>
</a>
</g>
</g>
<!-- Node4&#45;&gt;Node3 -->
<g id="edge3" class="edge"><title>Node4&#45;&gt;Node3</title>
<path fill="none" stroke="midnightblue" d="M114.622,-144C123.408,-144 132.211,-144 140.33,-144"/>
<polygon fill="midnightblue" stroke="midnightblue" points="114.358,-140.5 104.358,-144 114.358,-147.5 114.358,-140.5"/>
</g>
<!-- Node5 -->
<g id="node5" class="node"><title>Node5</title>
<g id="a_node5"><a xlink:href="class_cpl_1_1_io_1_1_is_eos.html" target="_top" xlink:title="This abstract class defines a isEos() operation that is intended to be used Input and Output streams.">
<polygon fill="white" stroke="black" points="140,-96.5 140,-115.5 217,-115.5 217,-96.5 140,-96.5"/>
<text text-anchor="middle" x="178.5" y="-103.5" font-family="Helvetica,sans-Serif" font-size="10.00">Cpl::Io::IsEos</text>
</a>
</g>
</g>
<!-- Node5&#45;&gt;Node2 -->
<g id="edge4" class="edge"><title>Node5&#45;&gt;Node2</title>
<path fill="none" stroke="midnightblue" d="M217.471,-118.826C232.567,-123.925 249.632,-129.689 263.621,-134.414"/>
<polygon fill="midnightblue" stroke="midnightblue" points="218.483,-115.473 207.889,-115.589 216.243,-122.105 218.483,-115.473"/>
</g>
<!-- Node5&#45;&gt;Node6 -->
<g id="edge7" class="edge"><title>Node5&#45;&gt;Node6</title>
<path fill="none" stroke="midnightblue" d="M227.474,-106C235.985,-106 244.755,-106 252.981,-106"/>
<polygon fill="midnightblue" stroke="midnightblue" points="227.274,-102.5 217.274,-106 227.274,-109.5 227.274,-102.5"/>
</g>
<!-- Node6&#45;&gt;Node1 -->
<g id="edge5" class="edge"><title>Node6&#45;&gt;Node1</title>
<path fill="none" stroke="midnightblue" d="M343.272,-113.489C351.695,-114.77 360.454,-116.101 368.899,-117.385"/>
<polygon fill="midnightblue" stroke="midnightblue" points="343.62,-110.002 333.208,-111.96 342.568,-116.923 343.62,-110.002"/>
</g>
<!-- Node13 -->
<g id="node13" class="node"><title>Node13</title>
<g id="a_node13"><a xlink:href="class_cpl_1_1_io_1_1_serial_1_1_renesas_1_1_rx62n_1_1_input_output.html" target="_top" xlink:title="This template provides a concrete implementation of the Cpl::Io InputOutput stream interface using on...">
<polygon fill="white" stroke="black" points="682,-0.5 682,-41.5 837,-41.5 837,-0.5 682,-0.5"/>
<text text-anchor="start" x="690" y="-29.5" font-family="Helvetica,sans-Serif" font-size="10.00">Cpl::Io::Serial::Renesas</text>
<text text-anchor="start" x="690" y="-18.5" font-family="Helvetica,sans-Serif" font-size="10.00">::Rx62n::InputOutput&lt; TXSIZE,</text>
<text text-anchor="middle" x="759.5" y="-7.5" font-family="Helvetica,sans-Serif" font-size="10.00"> RXSIZE &gt;</text>
</a>
</g>
</g>
<!-- Node12&#45;&gt;Node13 -->
<g id="edge14" class="edge"><title>Node12&#45;&gt;Node13</title>
<path fill="none" stroke="midnightblue" d="M639.188,-21C652.948,-21 667.701,-21 681.977,-21"/>
<polygon fill="midnightblue" stroke="midnightblue" points="638.883,-17.5001 628.883,-21 638.883,-24.5001 638.883,-17.5001"/>
</g>
</g>
</svg>
