<?xml version="1.0" encoding="UTF-8" standalone="no"?>
<!DOCTYPE svg PUBLIC "-//W3C//DTD SVG 1.1//EN"
 "http://www.w3.org/Graphics/SVG/1.1/DTD/svg11.dtd">
<!-- Generated by graphviz version 2.38.0 (20140413.2041)
 -->
<!-- Title: Cpl::Text::String_ Pages: 1 -->
<svg width="294pt" height="252pt"
 viewBox="0.00 0.00 294.00 252.00" xmlns="http://www.w3.org/2000/svg" xmlns:xlink="http://www.w3.org/1999/xlink">
<g id="graph0" class="graph" transform="scale(1 1) rotate(0) translate(4 248)">
<title>Cpl::Text::String_</title>
<polygon fill="white" stroke="none" points="-4,4 -4,-248 290,-248 290,4 -4,4"/>
<!-- Node1 -->
<g id="node1" class="node"><title>Node1</title>
<g id="a_node1"><a xlink:title="This partially concrete class implements the portions of the String Api that is independent of the in...">
<polygon fill="#bfbfbf" stroke="black" points="58,-112.5 58,-131.5 151,-131.5 151,-112.5 58,-112.5"/>
<text text-anchor="middle" x="104.5" y="-119.5" font-family="Helvetica,sans-Serif" font-size="10.00">Cpl::Text::String_</text>
</a>
</g>
</g>
<!-- Node4 -->
<g id="node4" class="node"><title>Node4</title>
<g id="a_node4"><a xlink:href="class_cpl_1_1_text_1_1_d_string.html" target="_top" xlink:title="This concrete class implements a simple &quot;dynamic storage&quot; String Type.">
<polygon fill="white" stroke="black" points="0,-56.5 0,-75.5 95,-75.5 95,-56.5 0,-56.5"/>
<text text-anchor="middle" x="47.5" y="-63.5" font-family="Helvetica,sans-Serif" font-size="10.00">Cpl::Text::DString</text>
</a>
</g>
</g>
<!-- Node1&#45;&gt;Node4 -->
<g id="edge3" class="edge"><title>Node1&#45;&gt;Node4</title>
<path fill="none" stroke="midnightblue" d="M87.8785,-105.253C77.766,-95.6731 65.2234,-83.7906 56.8247,-75.8339"/>
<polygon fill="midnightblue" stroke="midnightblue" points="85.6753,-107.987 95.342,-112.324 90.4895,-102.906 85.6753,-107.987"/>
</g>
<!-- Node5 -->
<g id="node5" class="node"><title>Node5</title>
<g id="a_node5"><a xlink:href="class_cpl_1_1_text_1_1_f_string__.html" target="_top" xlink:title="This mostly concrete class implements a &quot;fixed storage&quot; String Type.">
<polygon fill="white" stroke="black" points="113,-56.5 113,-75.5 212,-75.5 212,-56.5 113,-56.5"/>
<text text-anchor="middle" x="162.5" y="-63.5" font-family="Helvetica,sans-Serif" font-size="10.00">Cpl::Text::FString_</text>
</a>
</g>
</g>
<!-- Node1&#45;&gt;Node5 -->
<g id="edge4" class="edge"><title>Node1&#45;&gt;Node5</title>
<path fill="none" stroke="midnightblue" d="M121.413,-105.253C131.703,-95.6731 144.466,-83.7906 153.012,-75.8339"/>
<polygon fill="midnightblue" stroke="midnightblue" points="118.753,-102.948 113.819,-112.324 123.523,-108.071 118.753,-102.948"/>
</g>
<!-- Node2 -->
<g id="node2" class="node"><title>Node2</title>
<g id="a_node2"><a xlink:href="class_cpl_1_1_text_1_1_string.html" target="_top" xlink:title="This abstract class defines the operations that can be before on a NULL terminated string.">
<polygon fill="white" stroke="black" points="60.5,-168.5 60.5,-187.5 148.5,-187.5 148.5,-168.5 60.5,-168.5"/>
<text text-anchor="middle" x="104.5" y="-175.5" font-family="Helvetica,sans-Serif" font-size="10.00">Cpl::Text::String</text>
</a>
</g>
</g>
<!-- Node2&#45;&gt;Node1 -->
<g id="edge1" class="edge"><title>Node2&#45;&gt;Node1</title>
<path fill="none" stroke="midnightblue" d="M104.5,-157.805C104.5,-148.91 104.5,-138.78 104.5,-131.751"/>
<polygon fill="midnightblue" stroke="midnightblue" points="101,-158.083 104.5,-168.083 108,-158.083 101,-158.083"/>
</g>
<!-- Node3 -->
<g id="node3" class="node"><title>Node3</title>
<g id="a_node3"><a xlink:href="class_cpl_1_1_container_1_1_key.html" target="_top" xlink:title="This abstract class defines the interface that a contained object must support if it has comparable k...">
<polygon fill="white" stroke="black" points="54,-224.5 54,-243.5 155,-243.5 155,-224.5 54,-224.5"/>
<text text-anchor="middle" x="104.5" y="-231.5" font-family="Helvetica,sans-Serif" font-size="10.00">Cpl::Container::Key</text>
</a>
</g>
</g>
<!-- Node3&#45;&gt;Node2 -->
<g id="edge2" class="edge"><title>Node3&#45;&gt;Node2</title>
<path fill="none" stroke="midnightblue" d="M104.5,-213.805C104.5,-204.91 104.5,-194.78 104.5,-187.751"/>
<polygon fill="midnightblue" stroke="midnightblue" points="101,-214.083 104.5,-224.083 108,-214.083 101,-214.083"/>
</g>
<!-- Node6 -->
<g id="node6" class="node"><title>Node6</title>
<g id="a_node6"><a xlink:href="class_cpl_1_1_text_1_1_d_f_string.html" target="_top" xlink:title="This concrete class is a mix of FString and a DString &#45; the initial memory is dynamically allocated &#45;...">
<polygon fill="white" stroke="black" points="48,-0.5 48,-19.5 149,-19.5 149,-0.5 48,-0.5"/>
<text text-anchor="middle" x="98.5" y="-7.5" font-family="Helvetica,sans-Serif" font-size="10.00">Cpl::Text::DFString</text>
</a>
</g>
</g>
<!-- Node5&#45;&gt;Node6 -->
<g id="edge5" class="edge"><title>Node5&#45;&gt;Node6</title>
<path fill="none" stroke="midnightblue" d="M144.509,-49.8197C133.042,-40.1452 118.587,-27.9481 108.97,-19.8339"/>
<polygon fill="midnightblue" stroke="midnightblue" points="142.317,-52.5502 152.217,-56.324 146.831,-47.2002 142.317,-52.5502"/>
</g>
<!-- Node7 -->
<g id="node7" class="node"><title>Node7</title>
<g id="a_node7"><a xlink:href="class_cpl_1_1_text_1_1_f_string.html" target="_top" xlink:title="This template class represents a NULL terminated string of a specific length.">
<polygon fill="white" stroke="black" points="167,-0.5 167,-19.5 286,-19.5 286,-0.5 167,-0.5"/>
<text text-anchor="middle" x="226.5" y="-7.5" font-family="Helvetica,sans-Serif" font-size="10.00">Cpl::Text::FString&lt; S &gt;</text>
</a>
</g>
</g>
<!-- Node5&#45;&gt;Node7 -->
<g id="edge6" class="edge"><title>Node5&#45;&gt;Node7</title>
<path fill="none" stroke="midnightblue" d="M180.491,-49.8197C191.958,-40.1452 206.413,-27.9481 216.03,-19.8339"/>
<polygon fill="midnightblue" stroke="midnightblue" points="178.169,-47.2002 172.783,-56.324 182.683,-52.5502 178.169,-47.2002"/>
</g>
</g>
</svg>
