<?xml version="1.0" encoding="UTF-8" standalone="no"?>
<!DOCTYPE svg PUBLIC "-//W3C//DTD SVG 1.1//EN"
 "http://www.w3.org/Graphics/SVG/1.1/DTD/svg11.dtd">
<!-- Generated by graphviz version 2.38.0 (20140413.2041)
 -->
<!-- Title: Cpl::Text::FString_ Pages: 1 -->
<svg width="246pt" height="252pt"
 viewBox="0.00 0.00 246.00 252.00" xmlns="http://www.w3.org/2000/svg" xmlns:xlink="http://www.w3.org/1999/xlink">
<g id="graph0" class="graph" transform="scale(1 1) rotate(0) translate(4 248)">
<title>Cpl::Text::FString_</title>
<polygon fill="white" stroke="none" points="-4,4 -4,-248 242,-248 242,4 -4,4"/>
<!-- Node1 -->
<g id="node1" class="node"><title>Node1</title>
<g id="a_node1"><a xlink:title="This mostly concrete class implements a &quot;fixed storage&quot; String Type.">
<polygon fill="#bfbfbf" stroke="black" points="65,-56.5 65,-75.5 164,-75.5 164,-56.5 65,-56.5"/>
<text text-anchor="middle" x="114.5" y="-63.5" font-family="Helvetica,sans-Serif" font-size="10.00">Cpl::Text::FString_</text>
</a>
</g>
</g>
<!-- Node5 -->
<g id="node5" class="node"><title>Node5</title>
<g id="a_node5"><a xlink:href="class_cpl_1_1_text_1_1_d_f_string.html" target="_top" xlink:title="This concrete class is a mix of FString and a DString &#45; the initial memory is dynamically allocated &#45;...">
<polygon fill="white" stroke="black" points="0,-0.5 0,-19.5 101,-19.5 101,-0.5 0,-0.5"/>
<text text-anchor="middle" x="50.5" y="-7.5" font-family="Helvetica,sans-Serif" font-size="10.00">Cpl::Text::DFString</text>
</a>
</g>
</g>
<!-- Node1&#45;&gt;Node5 -->
<g id="edge4" class="edge"><title>Node1&#45;&gt;Node5</title>
<path fill="none" stroke="midnightblue" d="M96.5085,-49.8197C85.0424,-40.1452 70.5867,-27.9481 60.9698,-19.8339"/>
<polygon fill="midnightblue" stroke="midnightblue" points="94.3173,-52.5502 104.217,-56.324 98.8314,-47.2002 94.3173,-52.5502"/>
</g>
<!-- Node6 -->
<g id="node6" class="node"><title>Node6</title>
<g id="a_node6"><a xlink:href="class_cpl_1_1_text_1_1_f_string.html" target="_top" xlink:title="This template class represents a NULL terminated string of a specific length.">
<polygon fill="white" stroke="black" points="119,-0.5 119,-19.5 238,-19.5 238,-0.5 119,-0.5"/>
<text text-anchor="middle" x="178.5" y="-7.5" font-family="Helvetica,sans-Serif" font-size="10.00">Cpl::Text::FString&lt; S &gt;</text>
</a>
</g>
</g>
<!-- Node1&#45;&gt;Node6 -->
<g id="edge5" class="edge"><title>Node1&#45;&gt;Node6</title>
<path fill="none" stroke="midnightblue" d="M132.491,-49.8197C143.958,-40.1452 158.413,-27.9481 168.03,-19.8339"/>
<polygon fill="midnightblue" stroke="midnightblue" points="130.169,-47.2002 124.783,-56.324 134.683,-52.5502 130.169,-47.2002"/>
</g>
<!-- Node2 -->
<g id="node2" class="node"><title>Node2</title>
<g id="a_node2"><a xlink:href="class_cpl_1_1_text_1_1_string__.html" target="_top" xlink:title="This partially concrete class implements the portions of the String Api that is independent of the in...">
<polygon fill="white" stroke="black" points="68,-112.5 68,-131.5 161,-131.5 161,-112.5 68,-112.5"/>
<text text-anchor="middle" x="114.5" y="-119.5" font-family="Helvetica,sans-Serif" font-size="10.00">Cpl::Text::String_</text>
</a>
</g>
</g>
<!-- Node2&#45;&gt;Node1 -->
<g id="edge1" class="edge"><title>Node2&#45;&gt;Node1</title>
<path fill="none" stroke="midnightblue" d="M114.5,-101.805C114.5,-92.9102 114.5,-82.7798 114.5,-75.7511"/>
<polygon fill="midnightblue" stroke="midnightblue" points="111,-102.083 114.5,-112.083 118,-102.083 111,-102.083"/>
</g>
<!-- Node3 -->
<g id="node3" class="node"><title>Node3</title>
<g id="a_node3"><a xlink:href="class_cpl_1_1_text_1_1_string.html" target="_top" xlink:title="This abstract class defines the operations that can be before on a NULL terminated string.">
<polygon fill="white" stroke="black" points="70.5,-168.5 70.5,-187.5 158.5,-187.5 158.5,-168.5 70.5,-168.5"/>
<text text-anchor="middle" x="114.5" y="-175.5" font-family="Helvetica,sans-Serif" font-size="10.00">Cpl::Text::String</text>
</a>
</g>
</g>
<!-- Node3&#45;&gt;Node2 -->
<g id="edge2" class="edge"><title>Node3&#45;&gt;Node2</title>
<path fill="none" stroke="midnightblue" d="M114.5,-157.805C114.5,-148.91 114.5,-138.78 114.5,-131.751"/>
<polygon fill="midnightblue" stroke="midnightblue" points="111,-158.083 114.5,-168.083 118,-158.083 111,-158.083"/>
</g>
<!-- Node4 -->
<g id="node4" class="node"><title>Node4</title>
<g id="a_node4"><a xlink:href="class_cpl_1_1_container_1_1_key.html" target="_top" xlink:title="This abstract class defines the interface that a contained object must support if it has comparable k...">
<polygon fill="white" stroke="black" points="64,-224.5 64,-243.5 165,-243.5 165,-224.5 64,-224.5"/>
<text text-anchor="middle" x="114.5" y="-231.5" font-family="Helvetica,sans-Serif" font-size="10.00">Cpl::Container::Key</text>
</a>
</g>
</g>
<!-- Node4&#45;&gt;Node3 -->
<g id="edge3" class="edge"><title>Node4&#45;&gt;Node3</title>
<path fill="none" stroke="midnightblue" d="M114.5,-213.805C114.5,-204.91 114.5,-194.78 114.5,-187.751"/>
<polygon fill="midnightblue" stroke="midnightblue" points="111,-214.083 114.5,-224.083 118,-214.083 111,-214.083"/>
</g>
</g>
</svg>
