<?xml version="1.0" encoding="UTF-8" standalone="no"?>
<!DOCTYPE svg PUBLIC "-//W3C//DTD SVG 1.1//EN"
 "http://www.w3.org/Graphics/SVG/1.1/DTD/svg11.dtd">
<!-- Generated by graphviz version 2.38.0 (20140413.2041)
 -->
<!-- Title: Cpl::System::RP2040::Mutex_T Pages: 1 -->
<svg width="144pt" height="151pt"
 viewBox="0.00 0.00 144.00 151.00" xmlns="http://www.w3.org/2000/svg" xmlns:xlink="http://www.w3.org/1999/xlink">
<g id="graph0" class="graph" transform="scale(1 1) rotate(0) translate(4 147)">
<title>Cpl::System::RP2040::Mutex_T</title>
<polygon fill="white" stroke="none" points="-4,4 -4,-147 140,-147 140,4 -4,4"/>
<!-- Node1 -->
<g id="node1" class="node"><title>Node1</title>
<g id="a_node1"><a xlink:title="This class implements a brute force approach to initializing a &#39;pico mutex&#39; when the Cpl C++ library ...">
<polygon fill="#bfbfbf" stroke="black" points="12.5,-0.5 12.5,-30.5 123.5,-30.5 123.5,-0.5 12.5,-0.5"/>
<text text-anchor="start" x="20.5" y="-18.5" font-family="Helvetica,sans-Serif" font-size="10.00">Cpl::System::RP2040</text>
<text text-anchor="middle" x="68" y="-7.5" font-family="Helvetica,sans-Serif" font-size="10.00">::Mutex_T</text>
</a>
</g>
</g>
<!-- Node2 -->
<g id="node2" class="node"><title>Node2</title>
<g id="a_node2"><a xlink:href="class_cpl_1_1_system_1_1_startup_hook__.html" target="_top" xlink:title="This class defines a start&#45;up handler/hook that allows a Colony.Core sub&#45;system to register to be cal...">
<polygon fill="white" stroke="black" points="0,-67.5 0,-86.5 136,-86.5 136,-67.5 0,-67.5"/>
<text text-anchor="middle" x="68" y="-74.5" font-family="Helvetica,sans-Serif" font-size="10.00">Cpl::System::StartupHook_</text>
</a>
</g>
</g>
<!-- Node2&#45;&gt;Node1 -->
<g id="edge1" class="edge"><title>Node2&#45;&gt;Node1</title>
<path fill="none" stroke="midnightblue" d="M68,-57.2349C68,-48.5864 68,-38.4969 68,-30.523"/>
<polygon fill="midnightblue" stroke="midnightblue" points="64.5001,-57.4751 68,-67.4751 71.5001,-57.4751 64.5001,-57.4751"/>
</g>
<!-- Node3 -->
<g id="node3" class="node"><title>Node3</title>
<g id="a_node3"><a xlink:href="class_cpl_1_1_container_1_1_item.html" target="_top" xlink:title="This class is used by the Container classes to implement a various types of singly linked containers.">
<polygon fill="white" stroke="black" points="16,-123.5 16,-142.5 120,-142.5 120,-123.5 16,-123.5"/>
<text text-anchor="middle" x="68" y="-130.5" font-family="Helvetica,sans-Serif" font-size="10.00">Cpl::Container::Item</text>
</a>
</g>
</g>
<!-- Node3&#45;&gt;Node2 -->
<g id="edge2" class="edge"><title>Node3&#45;&gt;Node2</title>
<path fill="none" stroke="midnightblue" d="M68,-112.805C68,-103.91 68,-93.7798 68,-86.7511"/>
<polygon fill="midnightblue" stroke="midnightblue" points="64.5001,-113.083 68,-123.083 71.5001,-113.083 64.5001,-113.083"/>
</g>
</g>
</svg>
