<?xml version="1.0" encoding="UTF-8" standalone="no"?>
<!DOCTYPE svg PUBLIC "-//W3C//DTD SVG 1.1//EN"
 "http://www.w3.org/Graphics/SVG/1.1/DTD/svg11.dtd">
<!-- Generated by graphviz version 2.38.0 (20140413.2041)
 -->
<!-- Title: Cpl::System::Thread Pages: 1 -->
<svg width="564pt" height="284pt"
 viewBox="0.00 0.00 564.00 284.00" xmlns="http://www.w3.org/2000/svg" xmlns:xlink="http://www.w3.org/1999/xlink">
<g id="graph0" class="graph" transform="scale(1 1) rotate(0) translate(4 280)">
<title>Cpl::System::Thread</title>
<polygon fill="white" stroke="none" points="-4,4 -4,-280 560,-280 560,4 -4,4"/>
<!-- Node1 -->
<g id="node1" class="node"><title>Node1</title>
<g id="a_node1"><a xlink:title="This abstract class defines the operations that can be performed on a thread.">
<polygon fill="#bfbfbf" stroke="black" points="290,-128 290,-147 397,-147 397,-128 290,-128"/>
<text text-anchor="middle" x="343.5" y="-135" font-family="Helvetica,sans-Serif" font-size="10.00">Cpl::System::Thread</text>
</a>
</g>
</g>
<!-- Node4 -->
<g id="node4" class="node"><title>Node4</title>
<g id="a_node4"><a xlink:href="class_cpl_1_1_system_1_1_bare_metal_1_1_thread.html" target="_top" xlink:title="This concrete class implements &#39;enough&#39; of a Thread object to support Cpl::System framework on a bare...">
<polygon fill="white" stroke="black" points="434,-245.5 434,-275.5 555,-275.5 555,-245.5 434,-245.5"/>
<text text-anchor="start" x="442" y="-263.5" font-family="Helvetica,sans-Serif" font-size="10.00">Cpl::System::BareMetal</text>
<text text-anchor="middle" x="494.5" y="-252.5" font-family="Helvetica,sans-Serif" font-size="10.00">::Thread</text>
</a>
</g>
</g>
<!-- Node1&#45;&gt;Node4 -->
<g id="edge3" class="edge"><title>Node1&#45;&gt;Node4</title>
<path fill="none" stroke="midnightblue" d="M356.465,-155.34C371.881,-177.128 400.582,-213.867 433,-236.5 437.818,-239.864 443.175,-242.851 448.653,-245.476"/>
<polygon fill="midnightblue" stroke="midnightblue" points="359.266,-153.237 350.7,-147.003 353.509,-157.219 359.266,-153.237"/>
</g>
<!-- Node5 -->
<g id="node5" class="node"><title>Node5</title>
<g id="a_node5"><a xlink:href="class_cpl_1_1_system_1_1_cpp11_1_1_thread.html" target="_top" xlink:title="This concrete class implements a Thread object using C++11 threads.">
<polygon fill="white" stroke="black" points="442.5,-196.5 442.5,-226.5 546.5,-226.5 546.5,-196.5 442.5,-196.5"/>
<text text-anchor="start" x="450.5" y="-214.5" font-family="Helvetica,sans-Serif" font-size="10.00">Cpl::System::Cpp11</text>
<text text-anchor="middle" x="494.5" y="-203.5" font-family="Helvetica,sans-Serif" font-size="10.00">::Thread</text>
</a>
</g>
</g>
<!-- Node1&#45;&gt;Node5 -->
<g id="edge4" class="edge"><title>Node1&#45;&gt;Node5</title>
<path fill="none" stroke="midnightblue" d="M368.792,-152.417C386.31,-162.877 410.7,-176.839 433,-187.5 439.423,-190.571 446.348,-193.583 453.14,-196.381"/>
<polygon fill="midnightblue" stroke="midnightblue" points="370.195,-149.176 359.824,-147.009 366.581,-155.17 370.195,-149.176"/>
</g>
<!-- Node6 -->
<g id="node6" class="node"><title>Node6</title>
<g id="a_node6"><a xlink:href="class_cpl_1_1_system_1_1_free_r_t_o_s_1_1_thread.html" target="_top" xlink:title="This concrete class implements a Thread object using FreeRTOS threads.">
<polygon fill="white" stroke="black" points="433,-147.5 433,-177.5 556,-177.5 556,-147.5 433,-147.5"/>
<text text-anchor="start" x="441" y="-165.5" font-family="Helvetica,sans-Serif" font-size="10.00">Cpl::System::FreeRTOS</text>
<text text-anchor="middle" x="494.5" y="-154.5" font-family="Helvetica,sans-Serif" font-size="10.00">::Thread</text>
</a>
</g>
</g>
<!-- Node1&#45;&gt;Node6 -->
<g id="edge5" class="edge"><title>Node1&#45;&gt;Node6</title>
<path fill="none" stroke="midnightblue" d="M406.944,-147.977C415.496,-149.412 424.266,-150.884 432.787,-152.313"/>
<polygon fill="midnightblue" stroke="midnightblue" points="407.473,-144.517 397.032,-146.314 406.315,-151.421 407.473,-144.517"/>
</g>
<!-- Node7 -->
<g id="node7" class="node"><title>Node7</title>
<g id="a_node7"><a xlink:href="class_cpl_1_1_system_1_1_posix_1_1_thread.html" target="_top" xlink:title="This concrete class implements a Thread object using Posix threads.">
<polygon fill="white" stroke="black" points="444,-98.5 444,-128.5 545,-128.5 545,-98.5 444,-98.5"/>
<text text-anchor="start" x="452" y="-116.5" font-family="Helvetica,sans-Serif" font-size="10.00">Cpl::System::Posix</text>
<text text-anchor="middle" x="494.5" y="-105.5" font-family="Helvetica,sans-Serif" font-size="10.00">::Thread</text>
</a>
</g>
</g>
<!-- Node1&#45;&gt;Node7 -->
<g id="edge6" class="edge"><title>Node1&#45;&gt;Node7</title>
<path fill="none" stroke="midnightblue" d="M407.202,-127.4C419.469,-125.425 432.173,-123.378 443.939,-121.483"/>
<polygon fill="midnightblue" stroke="midnightblue" points="406.348,-123.993 397.032,-129.038 407.461,-130.904 406.348,-123.993"/>
</g>
<!-- Node8 -->
<g id="node8" class="node"><title>Node8</title>
<g id="a_node8"><a xlink:href="class_cpl_1_1_system_1_1_r_p2040_1_1_thread.html" target="_top" xlink:title="This concrete class implements a Thread object that maps 1 to 1 with a processor core on the Raspberr...">
<polygon fill="white" stroke="black" points="439,-49.5 439,-79.5 550,-79.5 550,-49.5 439,-49.5"/>
<text text-anchor="start" x="447" y="-67.5" font-family="Helvetica,sans-Serif" font-size="10.00">Cpl::System::RP2040</text>
<text text-anchor="middle" x="494.5" y="-56.5" font-family="Helvetica,sans-Serif" font-size="10.00">::Thread</text>
</a>
</g>
</g>
<!-- Node1&#45;&gt;Node8 -->
<g id="edge7" class="edge"><title>Node1&#45;&gt;Node8</title>
<path fill="none" stroke="midnightblue" d="M369.467,-122.551C386.954,-112.362 411.03,-98.8876 433,-88.5 439.538,-85.4088 446.588,-82.3633 453.486,-79.5337"/>
<polygon fill="midnightblue" stroke="midnightblue" points="367.331,-119.747 360.486,-127.833 370.88,-125.781 367.331,-119.747"/>
</g>
<!-- Node9 -->
<g id="node9" class="node"><title>Node9</title>
<g id="a_node9"><a xlink:href="class_cpl_1_1_system_1_1_win32_1_1_thread.html" target="_top" xlink:title="This concrete class implements a Thread object using Win32 threads NOTE: The class/implementation use...">
<polygon fill="white" stroke="black" points="442.5,-0.5 442.5,-30.5 546.5,-30.5 546.5,-0.5 442.5,-0.5"/>
<text text-anchor="start" x="450.5" y="-18.5" font-family="Helvetica,sans-Serif" font-size="10.00">Cpl::System::Win32</text>
<text text-anchor="middle" x="494.5" y="-7.5" font-family="Helvetica,sans-Serif" font-size="10.00">::Thread</text>
</a>
</g>
</g>
<!-- Node1&#45;&gt;Node9 -->
<g id="edge8" class="edge"><title>Node1&#45;&gt;Node9</title>
<path fill="none" stroke="midnightblue" d="M356.744,-119.515C372.256,-97.9154 400.872,-61.8107 433,-39.5 437.826,-36.1485 443.188,-33.1683 448.669,-30.5469"/>
<polygon fill="midnightblue" stroke="midnightblue" points="353.807,-117.607 350.926,-127.802 359.536,-121.629 353.807,-117.607"/>
</g>
<!-- Node2 -->
<g id="node2" class="node"><title>Node2</title>
<g id="a_node2"><a xlink:href="class_cpl_1_1_system_1_1_signable.html" target="_top" xlink:title="This abstract class defines the interface by which a client can cause an object that is waiting&#45;on&#45;a&#45;...">
<polygon fill="white" stroke="black" points="140,-128 140,-147 254,-147 254,-128 140,-128"/>
<text text-anchor="middle" x="197" y="-135" font-family="Helvetica,sans-Serif" font-size="10.00">Cpl::System::Signable</text>
</a>
</g>
</g>
<!-- Node2&#45;&gt;Node1 -->
<g id="edge1" class="edge"><title>Node2&#45;&gt;Node1</title>
<path fill="none" stroke="midnightblue" d="M264.288,-137.5C272.881,-137.5 281.588,-137.5 289.917,-137.5"/>
<polygon fill="midnightblue" stroke="midnightblue" points="264.281,-134 254.281,-137.5 264.281,-141 264.281,-134"/>
</g>
<!-- Node3 -->
<g id="node3" class="node"><title>Node3</title>
<g id="a_node3"><a xlink:href="class_cpl_1_1_container_1_1_item.html" target="_top" xlink:title="This class is used by the Container classes to implement a various types of singly linked containers.">
<polygon fill="white" stroke="black" points="0,-128 0,-147 104,-147 104,-128 0,-128"/>
<text text-anchor="middle" x="52" y="-135" font-family="Helvetica,sans-Serif" font-size="10.00">Cpl::Container::Item</text>
</a>
</g>
</g>
<!-- Node3&#45;&gt;Node2 -->
<g id="edge2" class="edge"><title>Node3&#45;&gt;Node2</title>
<path fill="none" stroke="midnightblue" d="M114.39,-137.5C122.83,-137.5 131.463,-137.5 139.803,-137.5"/>
<polygon fill="midnightblue" stroke="midnightblue" points="114.222,-134 104.222,-137.5 114.222,-141 114.222,-134"/>
</g>
</g>
</svg>
