<?xml version="1.0" encoding="UTF-8" standalone="no"?>
<!DOCTYPE svg PUBLIC "-//W3C//DTD SVG 1.1//EN"
 "http://www.w3.org/Graphics/SVG/1.1/DTD/svg11.dtd">
<!-- Generated by graphviz version 2.38.0 (20140413.2041)
 -->
<!-- Title: Driver::TPipe::RxFrameHandler Pages: 1 -->
<svg width="322pt" height="345pt"
 viewBox="0.00 0.00 321.50 345.00" xmlns="http://www.w3.org/2000/svg" xmlns:xlink="http://www.w3.org/1999/xlink">
<g id="graph0" class="graph" transform="scale(1 1) rotate(0) translate(4 341)">
<title>Driver::TPipe::RxFrameHandler</title>
<polygon fill="white" stroke="none" points="-4,4 -4,-341 317.5,-341 317.5,4 -4,4"/>
<!-- Node1 -->
<g id="node1" class="node"><title>Node1</title>
<g id="a_node1"><a xlink:title="This partially concrete class provides functionality that is common to all Frame handlers.">
<polygon fill="#bfbfbf" stroke="black" points="106.5,-0.5 106.5,-19.5 258.5,-19.5 258.5,-0.5 106.5,-0.5"/>
<text text-anchor="middle" x="182.5" y="-7.5" font-family="Helvetica,sans-Serif" font-size="10.00">Driver::TPipe::RxFrameHandler</text>
</a>
</g>
</g>
<!-- Node2 -->
<g id="node2" class="node"><title>Node2</title>
<g id="a_node2"><a xlink:href="class_driver_1_1_t_pipe_1_1_rx_frame_handler_api.html" target="_top" xlink:title="This abstract class defines the &#39;Received Frame Handler&#39; interface for the TPipe.">
<polygon fill="white" stroke="black" points="0,-73 0,-92 167,-92 167,-73 0,-73"/>
<text text-anchor="middle" x="83.5" y="-80" font-family="Helvetica,sans-Serif" font-size="10.00">Driver::TPipe::RxFrameHandlerApi</text>
</a>
</g>
</g>
<!-- Node2&#45;&gt;Node1 -->
<g id="edge1" class="edge"><title>Node2&#45;&gt;Node1</title>
<path fill="none" stroke="midnightblue" d="M103.788,-67.0528C123.775,-52.8194 153.657,-31.5399 170.261,-19.7154"/>
<polygon fill="midnightblue" stroke="midnightblue" points="101.755,-64.2036 95.6393,-72.8553 105.815,-69.9056 101.755,-64.2036"/>
</g>
<!-- Node3 -->
<g id="node3" class="node"><title>Node3</title>
<g id="a_node3"><a xlink:href="class_cpl_1_1_container_1_1_map_item.html" target="_top" xlink:title="This abstract class represents a item that can be contained in an Map (aka a sorted list implemented ...">
<polygon fill="white" stroke="black" points="22.5,-141 22.5,-160 144.5,-160 144.5,-141 22.5,-141"/>
<text text-anchor="middle" x="83.5" y="-148" font-family="Helvetica,sans-Serif" font-size="10.00">Cpl::Container::MapItem</text>
</a>
</g>
</g>
<!-- Node3&#45;&gt;Node2 -->
<g id="edge2" class="edge"><title>Node3&#45;&gt;Node2</title>
<path fill="none" stroke="midnightblue" d="M83.5,-130.541C83.5,-117.972 83.5,-102.063 83.5,-92.3411"/>
<polygon fill="midnightblue" stroke="midnightblue" points="80.0001,-130.872 83.5,-140.872 87.0001,-130.872 80.0001,-130.872"/>
</g>
<!-- Node4 -->
<g id="node4" class="node"><title>Node4</title>
<g id="a_node4"><a xlink:href="class_cpl_1_1_container_1_1_dict_item.html" target="_top" xlink:title="This abstract class represents a item that can be contained in Dictionary.">
<polygon fill="white" stroke="black" points="23,-203.5 23,-222.5 144,-222.5 144,-203.5 23,-203.5"/>
<text text-anchor="middle" x="83.5" y="-210.5" font-family="Helvetica,sans-Serif" font-size="10.00">Cpl::Container::DictItem</text>
</a>
</g>
</g>
<!-- Node4&#45;&gt;Node3 -->
<g id="edge3" class="edge"><title>Node4&#45;&gt;Node3</title>
<path fill="none" stroke="midnightblue" d="M83.5,-193.003C83.5,-182 83.5,-168.682 83.5,-160.152"/>
<polygon fill="midnightblue" stroke="midnightblue" points="80.0001,-193.332 83.5,-203.332 87.0001,-193.332 80.0001,-193.332"/>
</g>
<!-- Node5 -->
<g id="node5" class="node"><title>Node5</title>
<g id="a_node5"><a xlink:href="class_cpl_1_1_container_1_1_extended_item.html" target="_top" xlink:title="This class is used by the Container classes to implement a various types of DOUBLY linked containers.">
<polygon fill="white" stroke="black" points="11,-260.5 11,-279.5 156,-279.5 156,-260.5 11,-260.5"/>
<text text-anchor="middle" x="83.5" y="-267.5" font-family="Helvetica,sans-Serif" font-size="10.00">Cpl::Container::ExtendedItem</text>
</a>
</g>
</g>
<!-- Node5&#45;&gt;Node4 -->
<g id="edge4" class="edge"><title>Node5&#45;&gt;Node4</title>
<path fill="none" stroke="midnightblue" d="M83.5,-250.117C83.5,-240.817 83.5,-230.056 83.5,-222.715"/>
<polygon fill="midnightblue" stroke="midnightblue" points="80.0001,-250.406 83.5,-260.406 87.0001,-250.406 80.0001,-250.406"/>
</g>
<!-- Node6 -->
<g id="node6" class="node"><title>Node6</title>
<g id="a_node6"><a xlink:href="class_cpl_1_1_container_1_1_item.html" target="_top" xlink:title="This class is used by the Container classes to implement a various types of singly linked containers.">
<polygon fill="white" stroke="black" points="31.5,-317.5 31.5,-336.5 135.5,-336.5 135.5,-317.5 31.5,-317.5"/>
<text text-anchor="middle" x="83.5" y="-324.5" font-family="Helvetica,sans-Serif" font-size="10.00">Cpl::Container::Item</text>
</a>
</g>
</g>
<!-- Node6&#45;&gt;Node5 -->
<g id="edge5" class="edge"><title>Node6&#45;&gt;Node5</title>
<path fill="none" stroke="midnightblue" d="M83.5,-307.117C83.5,-297.817 83.5,-287.056 83.5,-279.715"/>
<polygon fill="midnightblue" stroke="midnightblue" points="80.0001,-307.406 83.5,-317.406 87.0001,-307.406 80.0001,-307.406"/>
</g>
<!-- Node7 -->
<g id="node7" class="node"><title>Node7</title>
<g id="a_node7"><a xlink:href="class_cpl_1_1_container_1_1_key_literal_string.html" target="_top" xlink:title="This class provides a &#39;Key&#39; wrapper for a C string literal.">
<polygon fill="white" stroke="black" points="185.5,-67.5 185.5,-97.5 313.5,-97.5 313.5,-67.5 185.5,-67.5"/>
<text text-anchor="start" x="193.5" y="-85.5" font-family="Helvetica,sans-Serif" font-size="10.00">Cpl::Container::KeyLiteral</text>
<text text-anchor="middle" x="249.5" y="-74.5" font-family="Helvetica,sans-Serif" font-size="10.00">String</text>
</a>
</g>
</g>
<!-- Node7&#45;&gt;Node1 -->
<g id="edge6" class="edge"><title>Node7&#45;&gt;Node1</title>
<path fill="none" stroke="#9a32cd" stroke-dasharray="5,2" d="M228.841,-59.7615C216.089,-46.3439 200.413,-29.8487 190.952,-19.8932"/>
<polygon fill="#9a32cd" stroke="#9a32cd" points="226.516,-62.3956 235.942,-67.2333 231.59,-57.5734 226.516,-62.3956"/>
<text text-anchor="middle" x="245" y="-41" font-family="Helvetica,sans-Serif" font-size="10.00"> m_mapKey</text>
</g>
<!-- Node8 -->
<g id="node8" class="node"><title>Node8</title>
<g id="a_node8"><a xlink:href="class_cpl_1_1_container_1_1_key_string_buffer.html" target="_top" xlink:title="This class provides a &#39;Key&#39; wrapper for a array of Character of length N, i.e.">
<polygon fill="white" stroke="black" points="186,-135.5 186,-165.5 313,-165.5 313,-135.5 186,-135.5"/>
<text text-anchor="start" x="194" y="-153.5" font-family="Helvetica,sans-Serif" font-size="10.00">Cpl::Container::KeyString</text>
<text text-anchor="middle" x="249.5" y="-142.5" font-family="Helvetica,sans-Serif" font-size="10.00">Buffer</text>
</a>
</g>
</g>
<!-- Node8&#45;&gt;Node7 -->
<g id="edge7" class="edge"><title>Node8&#45;&gt;Node7</title>
<path fill="none" stroke="midnightblue" d="M249.5,-125.032C249.5,-115.861 249.5,-105.745 249.5,-97.7931"/>
<polygon fill="midnightblue" stroke="midnightblue" points="246,-125.179 249.5,-135.179 253,-125.179 246,-125.179"/>
</g>
<!-- Node9 -->
<g id="node9" class="node"><title>Node9</title>
<g id="a_node9"><a xlink:href="class_cpl_1_1_container_1_1_key.html" target="_top" xlink:title="This abstract class defines the interface that a contained object must support if it has comparable k...">
<polygon fill="white" stroke="black" points="199,-203.5 199,-222.5 300,-222.5 300,-203.5 199,-203.5"/>
<text text-anchor="middle" x="249.5" y="-210.5" font-family="Helvetica,sans-Serif" font-size="10.00">Cpl::Container::Key</text>
</a>
</g>
</g>
<!-- Node9&#45;&gt;Node8 -->
<g id="edge8" class="edge"><title>Node9&#45;&gt;Node8</title>
<path fill="none" stroke="midnightblue" d="M249.5,-193.215C249.5,-184.356 249.5,-173.958 249.5,-165.759"/>
<polygon fill="midnightblue" stroke="midnightblue" points="246,-193.332 249.5,-203.332 253,-193.332 246,-193.332"/>
</g>
</g>
</svg>
