<?xml version="1.0" encoding="UTF-8" standalone="no"?>
<!DOCTYPE svg PUBLIC "-//W3C//DTD SVG 1.1//EN"
 "http://www.w3.org/Graphics/SVG/1.1/DTD/svg11.dtd">
<!-- Generated by graphviz version 2.38.0 (20140413.2041)
 -->
<!-- Title: Cpl::Io::Output Pages: 1 -->
<svg width="868pt" height="406pt"
 viewBox="0.00 0.00 868.00 405.50" xmlns="http://www.w3.org/2000/svg" xmlns:xlink="http://www.w3.org/1999/xlink">
<g id="graph0" class="graph" transform="scale(1 1) rotate(0) translate(4 401.5)">
<title>Cpl::Io::Output</title>
<polygon fill="white" stroke="none" points="-4,4 -4,-401.5 864,-401.5 864,4 -4,4"/>
<!-- Node1 -->
<g id="node1" class="node"><title>Node1</title>
<g id="a_node1"><a xlink:title="This partially abstract class defines a interface for operating on an output stream (example of a str...">
<polygon fill="#bfbfbf" stroke="black" points="253,-142.5 253,-161.5 333,-161.5 333,-142.5 253,-142.5"/>
<text text-anchor="middle" x="293" y="-149.5" font-family="Helvetica,sans-Serif" font-size="10.00">Cpl::Io::Output</text>
</a>
</g>
</g>
<!-- Node5 -->
<g id="node5" class="node"><title>Node5</title>
<g id="a_node5"><a xlink:href="class_cpl_1_1_io_1_1_atomic_output_api.html" target="_top" xlink:title="This abstract template class defines a interface for an Atomic outputs to a stream.">
<polygon fill="white" stroke="black" points="369,-348 369,-378 494,-378 494,-348 369,-348"/>
<text text-anchor="start" x="377" y="-366" font-family="Helvetica,sans-Serif" font-size="10.00">Cpl::Io::AtomicOutputApi</text>
<text text-anchor="middle" x="431.5" y="-355" font-family="Helvetica,sans-Serif" font-size="10.00">&lt; CONTEXT &gt;</text>
</a>
</g>
</g>
<!-- Node1&#45;&gt;Node5 -->
<g id="edge4" class="edge"><title>Node1&#45;&gt;Node5</title>
<path fill="none" stroke="midnightblue" d="M299.087,-171.422C308.501,-204.537 331.199,-272.819 369,-319 378.397,-330.48 391.48,-340.398 403.165,-347.896"/>
<polygon fill="midnightblue" stroke="midnightblue" points="302.42,-170.342 296.401,-161.622 295.669,-172.192 302.42,-170.342"/>
</g>
<!-- Node7 -->
<g id="node7" class="node"><title>Node7</title>
<g id="a_node7"><a xlink:href="class_cpl_1_1_io_1_1_file_1_1_output_api.html" target="_top" xlink:title="This abstract class defines the interface for a Random Access Input File.">
<polygon fill="white" stroke="black" points="373.5,-290.5 373.5,-309.5 489.5,-309.5 489.5,-290.5 373.5,-290.5"/>
<text text-anchor="middle" x="431.5" y="-297.5" font-family="Helvetica,sans-Serif" font-size="10.00">Cpl::Io::File::OutputApi</text>
</a>
</g>
</g>
<!-- Node1&#45;&gt;Node7 -->
<g id="edge6" class="edge"><title>Node1&#45;&gt;Node7</title>
<path fill="none" stroke="midnightblue" d="M309.907,-169.247C338.821,-200.597 399.089,-265.943 421.688,-290.446"/>
<polygon fill="midnightblue" stroke="midnightblue" points="312.309,-166.689 302.956,-161.711 307.163,-171.435 312.309,-166.689"/>
</g>
<!-- Node12 -->
<g id="node12" class="node"><title>Node12</title>
<g id="a_node12"><a xlink:href="class_cpl_1_1_io_1_1_input_output.html" target="_top" xlink:title="This abstract class defines a interface for operating on an input&#45;output stream (example of a stream ...">
<polygon fill="white" stroke="black" points="380.5,-164.5 380.5,-183.5 482.5,-183.5 482.5,-164.5 380.5,-164.5"/>
<text text-anchor="middle" x="431.5" y="-171.5" font-family="Helvetica,sans-Serif" font-size="10.00">Cpl::Io::InputOutput</text>
</a>
</g>
</g>
<!-- Node1&#45;&gt;Node12 -->
<g id="edge11" class="edge"><title>Node1&#45;&gt;Node12</title>
<path fill="none" stroke="midnightblue" d="M343.066,-159.908C355.203,-161.864 368.221,-163.962 380.406,-165.926"/>
<polygon fill="midnightblue" stroke="midnightblue" points="343.545,-156.44 333.115,-158.304 342.431,-163.351 343.545,-156.44"/>
</g>
<!-- Node19 -->
<g id="node19" class="node"><title>Node19</title>
<g id="a_node19"><a xlink:href="class_cpl_1_1_io_1_1_serial_1_1_r_p2040_1_1_stdio_1_1_output.html" target="_top" xlink:title="This concrete class implements a Input stream using Raspberry Pi RP2040&#39;s SDK.">
<polygon fill="white" stroke="black" points="373.5,-115 373.5,-145 489.5,-145 489.5,-115 373.5,-115"/>
<text text-anchor="start" x="381.5" y="-133" font-family="Helvetica,sans-Serif" font-size="10.00">Cpl::Io::Serial::RP2040</text>
<text text-anchor="middle" x="431.5" y="-122" font-family="Helvetica,sans-Serif" font-size="10.00">::Stdio::Output</text>
</a>
</g>
</g>
<!-- Node1&#45;&gt;Node19 -->
<g id="edge18" class="edge"><title>Node1&#45;&gt;Node19</title>
<path fill="none" stroke="midnightblue" d="M343.087,-144.089C352.892,-142.508 363.27,-140.836 373.32,-139.216"/>
<polygon fill="midnightblue" stroke="midnightblue" points="342.431,-140.649 333.115,-145.696 343.545,-147.56 342.431,-140.649"/>
</g>
<!-- Node20 -->
<g id="node20" class="node"><title>Node20</title>
<g id="a_node20"><a xlink:href="class_cpl_1_1_io_1_1_stdio_1_1_output__.html" target="_top" xlink:title="This concrete class implements a Output stream using the underlying platform&#39;s native OS &#39;file interf...">
<polygon fill="white" stroke="black" points="374.5,-57.5 374.5,-76.5 488.5,-76.5 488.5,-57.5 374.5,-57.5"/>
<text text-anchor="middle" x="431.5" y="-64.5" font-family="Helvetica,sans-Serif" font-size="10.00">Cpl::Io::Stdio::Output_</text>
</a>
</g>
</g>
<!-- Node1&#45;&gt;Node20 -->
<g id="edge19" class="edge"><title>Node1&#45;&gt;Node20</title>
<path fill="none" stroke="midnightblue" d="M317.731,-137.075C332.473,-127.817 351.821,-115.69 369,-105 384.558,-95.3188 402.373,-84.3205 414.811,-76.6562"/>
<polygon fill="midnightblue" stroke="midnightblue" points="315.814,-134.146 309.209,-142.43 319.538,-140.073 315.814,-134.146"/>
</g>
<!-- Node23 -->
<g id="node23" class="node"><title>Node23</title>
<g id="a_node23"><a xlink:href="class_cpl_1_1_io_1_1_tee_output.html" target="_top" xlink:title="This concrete class implements a Output stream that outputs the data to MANY (or none) output streams...">
<polygon fill="white" stroke="black" points="383,-19.5 383,-38.5 480,-38.5 480,-19.5 383,-19.5"/>
<text text-anchor="middle" x="431.5" y="-26.5" font-family="Helvetica,sans-Serif" font-size="10.00">Cpl::Io::TeeOutput</text>
</a>
</g>
</g>
<!-- Node1&#45;&gt;Node23 -->
<g id="edge22" class="edge"><title>Node1&#45;&gt;Node23</title>
<path fill="none" stroke="midnightblue" d="M302.782,-133.164C314.607,-109.822 337.815,-70.397 369,-48 374.355,-44.1539 380.509,-41.0715 386.808,-38.6049"/>
<polygon fill="midnightblue" stroke="midnightblue" points="299.534,-131.841 298.292,-142.363 305.824,-134.912 299.534,-131.841"/>
</g>
<!-- Node2 -->
<g id="node2" class="node"><title>Node2</title>
<g id="a_node2"><a xlink:href="class_cpl_1_1_io_1_1_close.html" target="_top" xlink:title="This abstract class defines a close operation that is intended to be used Input and Output streams/fi...">
<polygon fill="white" stroke="black" points="140.5,-161.5 140.5,-180.5 216.5,-180.5 216.5,-161.5 140.5,-161.5"/>
<text text-anchor="middle" x="178.5" y="-168.5" font-family="Helvetica,sans-Serif" font-size="10.00">Cpl::Io::Close</text>
</a>
</g>
</g>
<!-- Node2&#45;&gt;Node1 -->
<g id="edge1" class="edge"><title>Node2&#45;&gt;Node1</title>
<path fill="none" stroke="midnightblue" d="M226.719,-163.025C235.458,-161.549 244.497,-160.023 252.96,-158.593"/>
<polygon fill="midnightblue" stroke="midnightblue" points="225.926,-159.61 216.648,-164.726 227.092,-166.512 225.926,-159.61"/>
</g>
<!-- Node3 -->
<g id="node3" class="node"><title>Node3</title>
<g id="a_node3"><a xlink:href="class_cpl_1_1_container_1_1_item.html" target="_top" xlink:title="This class is used by the Container classes to implement a various types of singly linked containers.">
<polygon fill="white" stroke="black" points="0,-161.5 0,-180.5 104,-180.5 104,-161.5 0,-161.5"/>
<text text-anchor="middle" x="52" y="-168.5" font-family="Helvetica,sans-Serif" font-size="10.00">Cpl::Container::Item</text>
</a>
</g>
</g>
<!-- Node3&#45;&gt;Node2 -->
<g id="edge2" class="edge"><title>Node3&#45;&gt;Node2</title>
<path fill="none" stroke="midnightblue" d="M114.622,-171C123.408,-171 132.211,-171 140.33,-171"/>
<polygon fill="midnightblue" stroke="midnightblue" points="114.358,-167.5 104.358,-171 114.358,-174.5 114.358,-167.5"/>
</g>
<!-- Node4 -->
<g id="node4" class="node"><title>Node4</title>
<g id="a_node4"><a xlink:href="class_cpl_1_1_io_1_1_is_eos.html" target="_top" xlink:title="This abstract class defines a isEos() operation that is intended to be used Input and Output streams.">
<polygon fill="white" stroke="black" points="140,-123.5 140,-142.5 217,-142.5 217,-123.5 140,-123.5"/>
<text text-anchor="middle" x="178.5" y="-130.5" font-family="Helvetica,sans-Serif" font-size="10.00">Cpl::Io::IsEos</text>
</a>
</g>
</g>
<!-- Node4&#45;&gt;Node1 -->
<g id="edge3" class="edge"><title>Node4&#45;&gt;Node1</title>
<path fill="none" stroke="midnightblue" d="M227.193,-141.055C235.792,-142.507 244.665,-144.006 252.981,-145.41"/>
<polygon fill="midnightblue" stroke="midnightblue" points="227.717,-137.594 217.274,-139.38 226.551,-144.496 227.717,-137.594"/>
</g>
<!-- Node6 -->
<g id="node6" class="node"><title>Node6</title>
<g id="a_node6"><a xlink:href="class_cpl_1_1_io_1_1_atomic_output.html" target="_top" xlink:title="This concrete template class implements the AtomicOutputApi using a mutex to enforce the &#39;atomic&#45;ness...">
<polygon fill="white" stroke="black" points="544,-367 544,-397 655,-397 655,-367 544,-367"/>
<text text-anchor="start" x="552" y="-385" font-family="Helvetica,sans-Serif" font-size="10.00">Cpl::Io::AtomicOutput</text>
<text text-anchor="middle" x="599.5" y="-374" font-family="Helvetica,sans-Serif" font-size="10.00">&lt; CONTEXT &gt;</text>
</a>
</g>
</g>
<!-- Node5&#45;&gt;Node6 -->
<g id="edge5" class="edge"><title>Node5&#45;&gt;Node6</title>
<path fill="none" stroke="midnightblue" d="M504.319,-371.22C517.533,-372.733 531.132,-374.289 543.743,-375.733"/>
<polygon fill="midnightblue" stroke="midnightblue" points="504.645,-367.735 494.312,-370.075 503.849,-374.689 504.645,-367.735"/>
</g>
<!-- Node8 -->
<g id="node8" class="node"><title>Node8</title>
<g id="a_node8"><a xlink:href="class_cpl_1_1_io_1_1_file_1_1_input_output_api.html" target="_top" xlink:title="This abstract class defines the interface for a Random Access Input Output File.">
<polygon fill="white" stroke="black" points="530.5,-328.5 530.5,-347.5 668.5,-347.5 668.5,-328.5 530.5,-328.5"/>
<text text-anchor="middle" x="599.5" y="-335.5" font-family="Helvetica,sans-Serif" font-size="10.00">Cpl::Io::File::InputOutputApi</text>
</a>
</g>
</g>
<!-- Node7&#45;&gt;Node8 -->
<g id="edge7" class="edge"><title>Node7&#45;&gt;Node8</title>
<path fill="none" stroke="midnightblue" d="M484.153,-311.824C507.556,-317.182 534.857,-323.431 556.912,-328.48"/>
<polygon fill="midnightblue" stroke="midnightblue" points="484.918,-308.409 474.389,-309.589 483.356,-315.232 484.918,-308.409"/>
</g>
<!-- Node11 -->
<g id="node11" class="node"><title>Node11</title>
<g id="a_node11"><a xlink:href="class_cpl_1_1_io_1_1_file_1_1_output.html" target="_top" xlink:title="This concrete class provides a platform independent &#39;standard&#39; implementation of a Cpl::Io::File::Out...">
<polygon fill="white" stroke="black" points="548.5,-290.5 548.5,-309.5 650.5,-309.5 650.5,-290.5 548.5,-290.5"/>
<text text-anchor="middle" x="599.5" y="-297.5" font-family="Helvetica,sans-Serif" font-size="10.00">Cpl::Io::File::Output</text>
</a>
</g>
</g>
<!-- Node7&#45;&gt;Node11 -->
<g id="edge10" class="edge"><title>Node7&#45;&gt;Node11</title>
<path fill="none" stroke="midnightblue" d="M499.65,-300C515.96,-300 533.118,-300 548.476,-300"/>
<polygon fill="midnightblue" stroke="midnightblue" points="499.628,-296.5 489.628,-300 499.628,-303.5 499.628,-296.5"/>
</g>
<!-- Node9 -->
<g id="node9" class="node"><title>Node9</title>
<g id="a_node9"><a xlink:href="class_cpl_1_1_io_1_1_file_1_1_input_output.html" target="_top" xlink:title="This concrete class provides a platform independent &#39;standard&#39; implementation of an InputOutputFileAp...">
<polygon fill="white" stroke="black" points="720.5,-347.5 720.5,-366.5 844.5,-366.5 844.5,-347.5 720.5,-347.5"/>
<text text-anchor="middle" x="782.5" y="-354.5" font-family="Helvetica,sans-Serif" font-size="10.00">Cpl::Io::File::InputOutput</text>
</a>
</g>
</g>
<!-- Node8&#45;&gt;Node9 -->
<g id="edge8" class="edge"><title>Node8&#45;&gt;Node9</title>
<path fill="none" stroke="midnightblue" d="M678.702,-346.209C692.6,-347.668 706.893,-349.168 720.236,-350.569"/>
<polygon fill="midnightblue" stroke="midnightblue" points="678.981,-342.719 668.67,-345.156 678.25,-349.681 678.981,-342.719"/>
</g>
<!-- Node10 -->
<g id="node10" class="node"><title>Node10</title>
<g id="a_node10"><a xlink:href="class_cpl_1_1_io_1_1_file_1_1_null.html" target="_top" xlink:title="This concrete class implements a NULL InputOutputApi File that all of its input operations return &#39;En...">
<polygon fill="white" stroke="black" points="738,-309.5 738,-328.5 827,-328.5 827,-309.5 738,-309.5"/>
<text text-anchor="middle" x="782.5" y="-316.5" font-family="Helvetica,sans-Serif" font-size="10.00">Cpl::Io::File::Null</text>
</a>
</g>
</g>
<!-- Node8&#45;&gt;Node10 -->
<g id="edge9" class="edge"><title>Node8&#45;&gt;Node10</title>
<path fill="none" stroke="midnightblue" d="M678.818,-329.779C699.017,-327.658 720.041,-325.451 737.766,-323.591"/>
<polygon fill="midnightblue" stroke="midnightblue" points="678.25,-326.319 668.67,-330.844 678.981,-333.281 678.25,-326.319"/>
</g>
<!-- Node13 -->
<g id="node13" class="node"><title>Node13</title>
<g id="a_node13"><a xlink:href="class_cpl_1_1_io_1_1_null.html" target="_top" xlink:title="This concrete class implements a NULL InputOutput stream &#45; that all of its input operations return &#39;E...">
<polygon fill="white" stroke="black" points="565.5,-252.5 565.5,-271.5 633.5,-271.5 633.5,-252.5 565.5,-252.5"/>
<text text-anchor="middle" x="599.5" y="-259.5" font-family="Helvetica,sans-Serif" font-size="10.00">Cpl::Io::Null</text>
</a>
</g>
</g>
<!-- Node12&#45;&gt;Node13 -->
<g id="edge12" class="edge"><title>Node12&#45;&gt;Node13</title>
<path fill="none" stroke="midnightblue" d="M451.557,-190.125C470.409,-205.366 500.622,-227.934 530,-242 541.062,-247.297 553.813,-251.488 565.292,-254.636"/>
<polygon fill="midnightblue" stroke="midnightblue" points="453.685,-187.344 443.739,-183.695 449.239,-192.75 453.685,-187.344"/>
</g>
<!-- Node14 -->
<g id="node14" class="node"><title>Node14</title>
<g id="a_node14"><a xlink:href="class_cpl_1_1_io_1_1_serial_1_1_r_p2040_1_1_uart_1_1_input_output.html" target="_top" xlink:title="This concrete class implements a Input stream using Raspberry Pi UART interface/hardware.">
<polygon fill="white" stroke="black" points="541.5,-203 541.5,-233 657.5,-233 657.5,-203 541.5,-203"/>
<text text-anchor="start" x="549.5" y="-221" font-family="Helvetica,sans-Serif" font-size="10.00">Cpl::Io::Serial::RP2040</text>
<text text-anchor="middle" x="599.5" y="-210" font-family="Helvetica,sans-Serif" font-size="10.00">::Uart::InputOutput</text>
</a>
</g>
</g>
<!-- Node12&#45;&gt;Node14 -->
<g id="edge13" class="edge"><title>Node12&#45;&gt;Node14</title>
<path fill="none" stroke="midnightblue" d="M478.409,-186.169C497.985,-191.357 521.025,-197.465 541.662,-202.935"/>
<polygon fill="midnightblue" stroke="midnightblue" points="479.083,-182.726 468.52,-183.547 477.289,-189.493 479.083,-182.726"/>
</g>
<!-- Node15 -->
<g id="node15" class="node"><title>Node15</title>
<g id="a_node15"><a xlink:href="class_cpl_1_1_io_1_1_socket_1_1_input_output.html" target="_top" xlink:title="This concrete class provides a platform independent &#39;standard&#39; implementation of an InputOutput strea...">
<polygon fill="white" stroke="black" points="530,-164.5 530,-183.5 669,-183.5 669,-164.5 530,-164.5"/>
<text text-anchor="middle" x="599.5" y="-171.5" font-family="Helvetica,sans-Serif" font-size="10.00">Cpl::Io::Socket::InputOutput</text>
</a>
</g>
</g>
<!-- Node12&#45;&gt;Node15 -->
<g id="edge14" class="edge"><title>Node12&#45;&gt;Node15</title>
<path fill="none" stroke="midnightblue" d="M493.036,-174C504.962,-174 517.556,-174 529.73,-174"/>
<polygon fill="midnightblue" stroke="midnightblue" points="492.756,-170.5 482.756,-174 492.756,-177.5 492.756,-170.5"/>
</g>
<!-- Node16 -->
<g id="node16" class="node"><title>Node16</title>
<g id="a_node16"><a xlink:href="class_cpl_1_1_io_1_1_stdio_1_1_input_output__.html" target="_top" xlink:title="This concrete class implements a Input&#45;Output stream.">
<polygon fill="white" stroke="black" points="531.5,-126.5 531.5,-145.5 667.5,-145.5 667.5,-126.5 531.5,-126.5"/>
<text text-anchor="middle" x="599.5" y="-133.5" font-family="Helvetica,sans-Serif" font-size="10.00">Cpl::Io::Stdio::InputOutput_</text>
</a>
</g>
</g>
<!-- Node12&#45;&gt;Node16 -->
<g id="edge15" class="edge"><title>Node12&#45;&gt;Node16</title>
<path fill="none" stroke="midnightblue" d="M484.153,-162.176C507.556,-156.818 534.857,-150.569 556.912,-145.52"/>
<polygon fill="midnightblue" stroke="midnightblue" points="483.356,-158.768 474.389,-164.411 484.918,-165.591 483.356,-158.768"/>
</g>
<!-- Node17 -->
<g id="node17" class="node"><title>Node17</title>
<g id="a_node17"><a xlink:href="class_driver_1_1_uart_1_1_stream_1_1_input_output__.html" target="_top" xlink:title="This private concrete class implements the InputOutput stream interface using the UART stream driver.">
<polygon fill="white" stroke="black" points="547.5,-77 547.5,-107 651.5,-107 651.5,-77 547.5,-77"/>
<text text-anchor="start" x="555.5" y="-95" font-family="Helvetica,sans-Serif" font-size="10.00">Driver::Uart::Stream</text>
<text text-anchor="middle" x="599.5" y="-84" font-family="Helvetica,sans-Serif" font-size="10.00">::InputOutput_</text>
</a>
</g>
</g>
<!-- Node12&#45;&gt;Node17 -->
<g id="edge16" class="edge"><title>Node12&#45;&gt;Node17</title>
<path fill="none" stroke="midnightblue" d="M480.945,-160.767C485.496,-158.783 489.925,-156.536 494,-154 513.479,-141.876 510.74,-129.468 530,-117 535.845,-113.216 542.34,-109.904 548.937,-107.036"/>
<polygon fill="midnightblue" stroke="midnightblue" points="479.533,-157.561 471.506,-164.477 482.093,-164.076 479.533,-157.561"/>
</g>
<!-- Node18 -->
<g id="node18" class="node"><title>Node18</title>
<g id="a_node18"><a xlink:href="class_cpl_1_1_io_1_1_serial_1_1_renesas_1_1_rx62n_1_1_input_output.html" target="_top" xlink:title="This template provides a concrete implementation of the Cpl::Io InputOutput stream interface using on...">
<polygon fill="white" stroke="black" points="705,-71.5 705,-112.5 860,-112.5 860,-71.5 705,-71.5"/>
<text text-anchor="start" x="713" y="-100.5" font-family="Helvetica,sans-Serif" font-size="10.00">Cpl::Io::Serial::Renesas</text>
<text text-anchor="start" x="713" y="-89.5" font-family="Helvetica,sans-Serif" font-size="10.00">::Rx62n::InputOutput&lt; TXSIZE,</text>
<text text-anchor="middle" x="782.5" y="-78.5" font-family="Helvetica,sans-Serif" font-size="10.00"> RXSIZE &gt;</text>
</a>
</g>
</g>
<!-- Node17&#45;&gt;Node18 -->
<g id="edge17" class="edge"><title>Node17&#45;&gt;Node18</title>
<path fill="none" stroke="midnightblue" d="M662.188,-92C675.948,-92 690.701,-92 704.977,-92"/>
<polygon fill="midnightblue" stroke="midnightblue" points="661.883,-88.5001 651.883,-92 661.883,-95.5001 661.883,-88.5001"/>
</g>
<!-- Node21 -->
<g id="node21" class="node"><title>Node21</title>
<g id="a_node21"><a xlink:href="class_cpl_1_1_io_1_1_stdio_1_1_std_err.html" target="_top" xlink:title="This concrete class represents the C&#45;library &#39;stderr&#39; stream.">
<polygon fill="white" stroke="black" points="546,-38.5 546,-57.5 653,-57.5 653,-38.5 546,-38.5"/>
<text text-anchor="middle" x="599.5" y="-45.5" font-family="Helvetica,sans-Serif" font-size="10.00">Cpl::Io::Stdio::StdErr</text>
</a>
</g>
</g>
<!-- Node20&#45;&gt;Node21 -->
<g id="edge20" class="edge"><title>Node20&#45;&gt;Node21</title>
<path fill="none" stroke="midnightblue" d="M498.857,-59.4049C514.532,-57.6108 531.033,-55.7221 545.998,-54.0093"/>
<polygon fill="midnightblue" stroke="midnightblue" points="498.237,-55.9529 488.7,-60.5675 499.033,-62.9075 498.237,-55.9529"/>
</g>
<!-- Node22 -->
<g id="node22" class="node"><title>Node22</title>
<g id="a_node22"><a xlink:href="class_cpl_1_1_io_1_1_stdio_1_1_std_out.html" target="_top" xlink:title="This concrete class represents the C&#45;library &#39;stdout&#39; stream.">
<polygon fill="white" stroke="black" points="544.5,-0.5 544.5,-19.5 654.5,-19.5 654.5,-0.5 544.5,-0.5"/>
<text text-anchor="middle" x="599.5" y="-7.5" font-family="Helvetica,sans-Serif" font-size="10.00">Cpl::Io::Stdio::StdOut</text>
</a>
</g>
</g>
<!-- Node20&#45;&gt;Node22 -->
<g id="edge21" class="edge"><title>Node20&#45;&gt;Node22</title>
<path fill="none" stroke="midnightblue" d="M477.015,-54.3285C482.789,-52.3705 488.576,-50.2461 494,-48 510.715,-41.0777 513.186,-35.6786 530,-29 539.061,-25.4009 549.053,-22.2137 558.538,-19.527"/>
<polygon fill="midnightblue" stroke="midnightblue" points="475.809,-51.0404 467.379,-57.4586 477.971,-57.698 475.809,-51.0404"/>
</g>
</g>
</svg>
