<?xml version="1.0" encoding="UTF-8" standalone="no"?>
<!DOCTYPE svg PUBLIC "-//W3C//DTD SVG 1.1//EN"
 "http://www.w3.org/Graphics/SVG/1.1/DTD/svg11.dtd">
<!-- Generated by graphviz version 2.38.0 (20140413.2041)
 -->
<!-- Title: Cpl::System::StartupHook_ Pages: 1 -->
<svg width="248pt" height="151pt"
 viewBox="0.00 0.00 248.00 151.00" xmlns="http://www.w3.org/2000/svg" xmlns:xlink="http://www.w3.org/1999/xlink">
<g id="graph0" class="graph" transform="scale(1 1) rotate(0) translate(4 147)">
<title>Cpl::System::StartupHook_</title>
<polygon fill="white" stroke="none" points="-4,4 -4,-147 244,-147 244,4 -4,4"/>
<!-- Node1 -->
<g id="node1" class="node"><title>Node1</title>
<g id="a_node1"><a xlink:title="This class defines a start&#45;up handler/hook that allows a Colony.Core sub&#45;system to register to be cal...">
<polygon fill="#bfbfbf" stroke="black" points="51.5,-67.5 51.5,-86.5 187.5,-86.5 187.5,-67.5 51.5,-67.5"/>
<text text-anchor="middle" x="119.5" y="-74.5" font-family="Helvetica,sans-Serif" font-size="10.00">Cpl::System::StartupHook_</text>
</a>
</g>
</g>
<!-- Node3 -->
<g id="node3" class="node"><title>Node3</title>
<g id="a_node3"><a xlink:href="class_cpl_1_1_system_1_1_r_p2040_1_1_mutex___t.html" target="_top" xlink:title="This class implements a brute force approach to initializing a &#39;pico mutex&#39; when the Cpl C++ library ...">
<polygon fill="white" stroke="black" points="0,-0.5 0,-30.5 111,-30.5 111,-0.5 0,-0.5"/>
<text text-anchor="start" x="8" y="-18.5" font-family="Helvetica,sans-Serif" font-size="10.00">Cpl::System::RP2040</text>
<text text-anchor="middle" x="55.5" y="-7.5" font-family="Helvetica,sans-Serif" font-size="10.00">::Mutex_T</text>
</a>
</g>
</g>
<!-- Node1&#45;&gt;Node3 -->
<g id="edge2" class="edge"><title>Node1&#45;&gt;Node3</title>
<path fill="none" stroke="midnightblue" d="M102.985,-60.6459C92.981,-51.3456 80.3169,-39.572 70.5835,-30.523"/>
<polygon fill="midnightblue" stroke="midnightblue" points="100.623,-63.2295 110.33,-67.4751 105.39,-58.1028 100.623,-63.2295"/>
</g>
<!-- Node4 -->
<g id="node4" class="node"><title>Node4</title>
<g id="a_node4"><a xlink:href="class_cpl_1_1_system_1_1_r_p2040_1_1_semaphore___t.html" target="_top" xlink:title="This class implements a brute force approach to initializing a &#39;pico semaphore&#39; when the Cpl C++ libr...">
<polygon fill="white" stroke="black" points="129,-0.5 129,-30.5 240,-30.5 240,-0.5 129,-0.5"/>
<text text-anchor="start" x="137" y="-18.5" font-family="Helvetica,sans-Serif" font-size="10.00">Cpl::System::RP2040</text>
<text text-anchor="middle" x="184.5" y="-7.5" font-family="Helvetica,sans-Serif" font-size="10.00">::Semaphore_T</text>
</a>
</g>
</g>
<!-- Node1&#45;&gt;Node4 -->
<g id="edge3" class="edge"><title>Node1&#45;&gt;Node4</title>
<path fill="none" stroke="midnightblue" d="M136.273,-60.6459C146.433,-51.3456 159.295,-39.572 169.181,-30.523"/>
<polygon fill="midnightblue" stroke="midnightblue" points="133.826,-58.1413 128.813,-67.4751 138.552,-63.3047 133.826,-58.1413"/>
</g>
<!-- Node2 -->
<g id="node2" class="node"><title>Node2</title>
<g id="a_node2"><a xlink:href="class_cpl_1_1_container_1_1_item.html" target="_top" xlink:title="This class is used by the Container classes to implement a various types of singly linked containers.">
<polygon fill="white" stroke="black" points="67.5,-123.5 67.5,-142.5 171.5,-142.5 171.5,-123.5 67.5,-123.5"/>
<text text-anchor="middle" x="119.5" y="-130.5" font-family="Helvetica,sans-Serif" font-size="10.00">Cpl::Container::Item</text>
</a>
</g>
</g>
<!-- Node2&#45;&gt;Node1 -->
<g id="edge1" class="edge"><title>Node2&#45;&gt;Node1</title>
<path fill="none" stroke="midnightblue" d="M119.5,-112.805C119.5,-103.91 119.5,-93.7798 119.5,-86.7511"/>
<polygon fill="midnightblue" stroke="midnightblue" points="116,-113.083 119.5,-123.083 123,-113.083 116,-113.083"/>
</g>
</g>
</svg>
