<?xml version="1.0" encoding="UTF-8" standalone="no"?>
<!DOCTYPE svg PUBLIC "-//W3C//DTD SVG 1.1//EN"
 "http://www.w3.org/Graphics/SVG/1.1/DTD/svg11.dtd">
<!-- Generated by graphviz version 2.38.0 (20140413.2041)
 -->
<!-- Title: Driver::TPipe::Pipe Pages: 1 -->
<svg width="852pt" height="213pt"
 viewBox="0.00 0.00 852.00 213.00" xmlns="http://www.w3.org/2000/svg" xmlns:xlink="http://www.w3.org/1999/xlink">
<g id="graph0" class="graph" transform="scale(1 1) rotate(0) translate(4 209)">
<title>Driver::TPipe::Pipe</title>
<polygon fill="white" stroke="none" points="-4,4 -4,-209 848,-209 848,4 -4,4"/>
<!-- Node1 -->
<g id="node1" class="node"><title>Node1</title>
<g id="a_node1"><a xlink:title="This concrete class provides the implementation of TPipe.">
<polygon fill="#bfbfbf" stroke="black" points="745,-96.5 745,-115.5 844,-115.5 844,-96.5 745,-96.5"/>
<text text-anchor="middle" x="794.5" y="-103.5" font-family="Helvetica,sans-Serif" font-size="10.00">Driver::TPipe::Pipe</text>
</a>
</g>
</g>
<!-- Node2 -->
<g id="node2" class="node"><title>Node2</title>
<g id="a_node2"><a xlink:href="class_driver_1_1_t_pipe_1_1_tx.html" target="_top" xlink:title="This abstract class defines the &#39;Transmit Command&#39; interface for the TPipe.">
<polygon fill="white" stroke="black" points="544.5,-185.5 544.5,-204.5 635.5,-204.5 635.5,-185.5 544.5,-185.5"/>
<text text-anchor="middle" x="590" y="-192.5" font-family="Helvetica,sans-Serif" font-size="10.00">Driver::TPipe::Tx</text>
</a>
</g>
</g>
<!-- Node2&#45;&gt;Node1 -->
<g id="edge1" class="edge"><title>Node2&#45;&gt;Node1</title>
<path fill="none" stroke="midnightblue" d="M633.904,-182.522C640.655,-180.426 647.536,-178.211 654,-176 686.879,-164.753 695.937,-163.576 727,-148 746.286,-138.329 767.097,-124.597 780.204,-115.501"/>
<polygon fill="midnightblue" stroke="midnightblue" points="632.712,-179.226 624.169,-185.494 634.756,-185.921 632.712,-179.226"/>
</g>
<!-- Node3 -->
<g id="node3" class="node"><title>Node3</title>
<g id="a_node3"><a xlink:href="class_cpl_1_1_text_1_1_frame_1_1_stream_decoder.html" target="_top" xlink:title="This partially concrete class defines an interface a Text &quot;Decoder&quot; that has a Cpl::Io::Input stream ...">
<polygon fill="white" stroke="black" points="526,-136 526,-166 654,-166 654,-136 526,-136"/>
<text text-anchor="start" x="534" y="-154" font-family="Helvetica,sans-Serif" font-size="10.00">Cpl::Text::Frame::Stream</text>
<text text-anchor="middle" x="590" y="-143" font-family="Helvetica,sans-Serif" font-size="10.00">Decoder</text>
</a>
</g>
</g>
<!-- Node3&#45;&gt;Node1 -->
<g id="edge2" class="edge"><title>Node3&#45;&gt;Node1</title>
<path fill="none" stroke="#9a32cd" stroke-dasharray="5,2" d="M664.325,-134.705C693.279,-128.271 725.538,-121.103 750.575,-115.539"/>
<polygon fill="#9a32cd" stroke="#9a32cd" points="663.242,-131.361 654.239,-136.947 664.76,-138.194 663.242,-131.361"/>
<text text-anchor="middle" x="699.5" y="-136" font-family="Helvetica,sans-Serif" font-size="10.00"> m_deframer</text>
</g>
<!-- Node4 -->
<g id="node4" class="node"><title>Node4</title>
<g id="a_node4"><a xlink:href="class_cpl_1_1_text_1_1_frame_1_1_decoder__.html" target="_top" xlink:title="This private partially concrete class implements the basic/common logic for a frame decoder.">
<polygon fill="white" stroke="black" points="310,-167.5 310,-186.5 447,-186.5 447,-167.5 310,-167.5"/>
<text text-anchor="middle" x="378.5" y="-174.5" font-family="Helvetica,sans-Serif" font-size="10.00">Cpl::Text::Frame::Decoder_</text>
</a>
</g>
</g>
<!-- Node4&#45;&gt;Node3 -->
<g id="edge3" class="edge"><title>Node4&#45;&gt;Node3</title>
<path fill="none" stroke="midnightblue" d="M457.437,-167.328C479.962,-164.532 504.26,-161.517 525.771,-158.847"/>
<polygon fill="midnightblue" stroke="midnightblue" points="456.722,-163.889 447.229,-168.594 457.584,-170.836 456.722,-163.889"/>
</g>
<!-- Node5 -->
<g id="node5" class="node"><title>Node5</title>
<g id="a_node5"><a xlink:href="class_cpl_1_1_text_1_1_frame_1_1_decoder.html" target="_top" xlink:title="This class defines an interface for &#39;receiving&#39; (decode) a frame.">
<polygon fill="white" stroke="black" points="141,-167.5 141,-186.5 273,-186.5 273,-167.5 141,-167.5"/>
<text text-anchor="middle" x="207" y="-174.5" font-family="Helvetica,sans-Serif" font-size="10.00">Cpl::Text::Frame::Decoder</text>
</a>
</g>
</g>
<!-- Node5&#45;&gt;Node4 -->
<g id="edge4" class="edge"><title>Node5&#45;&gt;Node4</title>
<path fill="none" stroke="midnightblue" d="M283.32,-177C292.144,-177 301.106,-177 309.816,-177"/>
<polygon fill="midnightblue" stroke="midnightblue" points="283.048,-173.5 273.048,-177 283.048,-180.5 283.048,-173.5"/>
</g>
<!-- Node6 -->
<g id="node6" class="node"><title>Node6</title>
<g id="a_node6"><a xlink:href="class_cpl_1_1_io_1_1_input.html" target="_top" xlink:title="This partially abstract class defines a interface for operating on an input stream (example of a stre...">
<polygon fill="white" stroke="black" points="342,-129.5 342,-148.5 415,-148.5 415,-129.5 342,-129.5"/>
<text text-anchor="middle" x="378.5" y="-136.5" font-family="Helvetica,sans-Serif" font-size="10.00">Cpl::Io::Input</text>
</a>
</g>
</g>
<!-- Node6&#45;&gt;Node3 -->
<g id="edge5" class="edge"><title>Node6&#45;&gt;Node3</title>
<path fill="none" stroke="#9a32cd" stroke-dasharray="5,2" d="M425.045,-141.609C454.502,-143.296 493.26,-145.516 525.697,-147.374"/>
<polygon fill="#9a32cd" stroke="#9a32cd" points="425.223,-138.113 415.039,-141.036 424.822,-145.102 425.223,-138.113"/>
<text text-anchor="middle" x="486.5" y="-150" font-family="Helvetica,sans-Serif" font-size="10.00"> m_srcPtr</text>
</g>
<!-- Node7 -->
<g id="node7" class="node"><title>Node7</title>
<g id="a_node7"><a xlink:href="class_cpl_1_1_io_1_1_close.html" target="_top" xlink:title="This abstract class defines a close operation that is intended to be used Input and Output streams/fi...">
<polygon fill="white" stroke="black" points="169,-125.5 169,-144.5 245,-144.5 245,-125.5 169,-125.5"/>
<text text-anchor="middle" x="207" y="-132.5" font-family="Helvetica,sans-Serif" font-size="10.00">Cpl::Io::Close</text>
</a>
</g>
</g>
<!-- Node7&#45;&gt;Node6 -->
<g id="edge6" class="edge"><title>Node7&#45;&gt;Node6</title>
<path fill="none" stroke="midnightblue" d="M255.207,-136.907C266.902,-137.325 279.405,-137.723 291,-138 307.666,-138.397 326.141,-138.638 341.724,-138.784"/>
<polygon fill="midnightblue" stroke="midnightblue" points="255.302,-133.409 245.18,-136.539 255.044,-140.404 255.302,-133.409"/>
</g>
<!-- Node13 -->
<g id="node13" class="node"><title>Node13</title>
<g id="a_node13"><a xlink:href="class_cpl_1_1_io_1_1_output.html" target="_top" xlink:title="This partially abstract class defines a interface for operating on an output stream (example of a str...">
<polygon fill="white" stroke="black" points="338.5,-86.5 338.5,-105.5 418.5,-105.5 418.5,-86.5 338.5,-86.5"/>
<text text-anchor="middle" x="378.5" y="-93.5" font-family="Helvetica,sans-Serif" font-size="10.00">Cpl::Io::Output</text>
</a>
</g>
</g>
<!-- Node7&#45;&gt;Node13 -->
<g id="edge13" class="edge"><title>Node7&#45;&gt;Node13</title>
<path fill="none" stroke="midnightblue" d="M255.271,-124.123C281.438,-118.103 313.574,-110.709 338.326,-105.013"/>
<polygon fill="midnightblue" stroke="midnightblue" points="254.158,-120.788 245.197,-126.441 255.728,-127.61 254.158,-120.788"/>
</g>
<!-- Node8 -->
<g id="node8" class="node"><title>Node8</title>
<g id="a_node8"><a xlink:href="class_cpl_1_1_container_1_1_item.html" target="_top" xlink:title="This class is used by the Container classes to implement a various types of singly linked containers.">
<polygon fill="white" stroke="black" points="0,-125.5 0,-144.5 104,-144.5 104,-125.5 0,-125.5"/>
<text text-anchor="middle" x="52" y="-132.5" font-family="Helvetica,sans-Serif" font-size="10.00">Cpl::Container::Item</text>
</a>
</g>
</g>
<!-- Node8&#45;&gt;Node7 -->
<g id="edge7" class="edge"><title>Node8&#45;&gt;Node7</title>
<path fill="none" stroke="midnightblue" d="M114.4,-135C132.724,-135 152.252,-135 168.549,-135"/>
<polygon fill="midnightblue" stroke="midnightblue" points="114.372,-131.5 104.372,-135 114.372,-138.5 114.372,-131.5"/>
</g>
<!-- Node9 -->
<g id="node9" class="node"><title>Node9</title>
<g id="a_node9"><a xlink:href="class_cpl_1_1_io_1_1_is_eos.html" target="_top" xlink:title="This abstract class defines a isEos() operation that is intended to be used Input and Output streams.">
<polygon fill="white" stroke="black" points="168.5,-79.5 168.5,-98.5 245.5,-98.5 245.5,-79.5 168.5,-79.5"/>
<text text-anchor="middle" x="207" y="-86.5" font-family="Helvetica,sans-Serif" font-size="10.00">Cpl::Io::IsEos</text>
</a>
</g>
</g>
<!-- Node9&#45;&gt;Node6 -->
<g id="edge8" class="edge"><title>Node9&#45;&gt;Node6</title>
<path fill="none" stroke="midnightblue" d="M250.244,-101.461C279.589,-110.118 318.109,-121.481 345.051,-129.428"/>
<polygon fill="midnightblue" stroke="midnightblue" points="250.862,-97.9947 240.281,-98.5223 248.882,-104.709 250.862,-97.9947"/>
</g>
<!-- Node9&#45;&gt;Node13 -->
<g id="edge14" class="edge"><title>Node9&#45;&gt;Node13</title>
<path fill="none" stroke="midnightblue" d="M255.791,-89.8513C267.627,-90.1411 280.276,-90.5178 292,-91 307.154,-91.6233 323.805,-92.5437 338.355,-93.4254"/>
<polygon fill="midnightblue" stroke="midnightblue" points="255.72,-86.3489 245.643,-89.6185 255.56,-93.347 255.72,-86.3489"/>
</g>
<!-- Node10 -->
<g id="node10" class="node"><title>Node10</title>
<g id="a_node10"><a xlink:href="class_cpl_1_1_text_1_1_frame_1_1_stream_encoder.html" target="_top" xlink:title="This concrete class implements the Encoder API where the Output destination is a Cpl::Io::Output stre...">
<polygon fill="white" stroke="black" points="526,-39 526,-69 654,-69 654,-39 526,-39"/>
<text text-anchor="start" x="534" y="-57" font-family="Helvetica,sans-Serif" font-size="10.00">Cpl::Text::Frame::Stream</text>
<text text-anchor="middle" x="590" y="-46" font-family="Helvetica,sans-Serif" font-size="10.00">Encoder</text>
</a>
</g>
</g>
<!-- Node10&#45;&gt;Node1 -->
<g id="edge9" class="edge"><title>Node10&#45;&gt;Node1</title>
<path fill="none" stroke="#9a32cd" stroke-dasharray="5,2" d="M664.063,-66.2243C684.587,-70.2732 706.808,-75.242 727,-81 741.826,-85.2279 758.029,-91.2875 770.728,-96.382"/>
<polygon fill="#9a32cd" stroke="#9a32cd" points="664.623,-62.7678 654.141,-64.3112 663.298,-69.6412 664.623,-62.7678"/>
<text text-anchor="middle" x="699.5" y="-84" font-family="Helvetica,sans-Serif" font-size="10.00"> m_framer</text>
</g>
<!-- Node11 -->
<g id="node11" class="node"><title>Node11</title>
<g id="a_node11"><a xlink:href="class_cpl_1_1_text_1_1_frame_1_1_encoder__.html" target="_top" xlink:title="This Private Namespace partially concrete class implements common/helper method for supporting the En...">
<polygon fill="white" stroke="black" points="310,-37.5 310,-56.5 447,-56.5 447,-37.5 310,-37.5"/>
<text text-anchor="middle" x="378.5" y="-44.5" font-family="Helvetica,sans-Serif" font-size="10.00">Cpl::Text::Frame::Encoder_</text>
</a>
</g>
</g>
<!-- Node11&#45;&gt;Node10 -->
<g id="edge10" class="edge"><title>Node11&#45;&gt;Node10</title>
<path fill="none" stroke="midnightblue" d="M457.437,-49.6041C479.962,-50.3567 504.26,-51.1686 525.771,-51.8873"/>
<polygon fill="midnightblue" stroke="midnightblue" points="457.341,-46.099 447.229,-49.263 457.107,-53.0951 457.341,-46.099"/>
</g>
<!-- Node12 -->
<g id="node12" class="node"><title>Node12</title>
<g id="a_node12"><a xlink:href="class_cpl_1_1_text_1_1_frame_1_1_encoder.html" target="_top" xlink:title="This class defines an interface for &#39;transmitted&#39; (encoding) a frame.">
<polygon fill="white" stroke="black" points="141,-37.5 141,-56.5 273,-56.5 273,-37.5 141,-37.5"/>
<text text-anchor="middle" x="207" y="-44.5" font-family="Helvetica,sans-Serif" font-size="10.00">Cpl::Text::Frame::Encoder</text>
</a>
</g>
</g>
<!-- Node12&#45;&gt;Node11 -->
<g id="edge11" class="edge"><title>Node12&#45;&gt;Node11</title>
<path fill="none" stroke="midnightblue" d="M283.32,-47C292.144,-47 301.106,-47 309.816,-47"/>
<polygon fill="midnightblue" stroke="midnightblue" points="283.048,-43.5001 273.048,-47 283.048,-50.5001 283.048,-43.5001"/>
</g>
<!-- Node13&#45;&gt;Node1 -->
<g id="edge15" class="edge"><title>Node13&#45;&gt;Node1</title>
<path fill="none" stroke="#9a32cd" stroke-dasharray="5,2" d="M429.121,-97.1986C509.126,-99.1311 665.652,-102.912 744.961,-104.828"/>
<polygon fill="#9a32cd" stroke="#9a32cd" points="428.903,-93.6924 418.821,-96.9498 428.734,-100.69 428.903,-93.6924"/>
<text text-anchor="middle" x="590" y="-106" font-family="Helvetica,sans-Serif" font-size="10.00"> m_outfdPtr</text>
</g>
<!-- Node13&#45;&gt;Node10 -->
<g id="edge12" class="edge"><title>Node13&#45;&gt;Node10</title>
<path fill="none" stroke="#9a32cd" stroke-dasharray="5,2" d="M428.809,-86.1147C457.81,-80.3006 494.777,-72.8895 525.89,-66.6521"/>
<polygon fill="#9a32cd" stroke="#9a32cd" points="428.022,-82.7027 418.905,-88.1001 429.398,-89.5661 428.022,-82.7027"/>
<text text-anchor="middle" x="486.5" y="-82" font-family="Helvetica,sans-Serif" font-size="10.00"> m_dstPtr</text>
</g>
<!-- Node14 -->
<g id="node14" class="node"><title>Node14</title>
<g id="a_node14"><a xlink:href="class_cpl_1_1_system_1_1_mutex.html" target="_top" xlink:title="This mutex class defines the interface for a mutex that has &quot;recursive&quot; semantics.">
<polygon fill="white" stroke="black" points="538,-0.5 538,-19.5 642,-19.5 642,-0.5 538,-0.5"/>
<text text-anchor="middle" x="590" y="-7.5" font-family="Helvetica,sans-Serif" font-size="10.00">Cpl::System::Mutex</text>
</a>
</g>
</g>
<!-- Node14&#45;&gt;Node1 -->
<g id="edge16" class="edge"><title>Node14&#45;&gt;Node1</title>
<path fill="none" stroke="#9a32cd" stroke-dasharray="5,2" d="M643.682,-22.1759C669.688,-29.3815 700.981,-39.894 727,-54 748.903,-65.8746 771.041,-84.9092 783.443,-96.3579"/>
<polygon fill="#9a32cd" stroke="#9a32cd" points="644.562,-18.7881 633.996,-19.5756 642.747,-25.5487 644.562,-18.7881"/>
<text text-anchor="middle" x="699.5" y="-57" font-family="Helvetica,sans-Serif" font-size="10.00"> m_lock</text>
</g>
</g>
</svg>
