<?xml version="1.0" encoding="UTF-8" standalone="no"?>
<!DOCTYPE svg PUBLIC "-//W3C//DTD SVG 1.1//EN"
 "http://www.w3.org/Graphics/SVG/1.1/DTD/svg11.dtd">
<!-- Generated by graphviz version 2.38.0 (20140413.2041)
 -->
<!-- Title: Cpl::Container::ExtendedItem Pages: 1 -->
<svg width="1400pt" height="401pt"
 viewBox="0.00 0.00 1400.00 400.50" xmlns="http://www.w3.org/2000/svg" xmlns:xlink="http://www.w3.org/1999/xlink">
<g id="graph0" class="graph" transform="scale(1 1) rotate(0) translate(4 396.5)">
<title>Cpl::Container::ExtendedItem</title>
<polygon fill="white" stroke="none" points="-4,4 -4,-396.5 1396,-396.5 1396,4 -4,4"/>
<!-- Node1 -->
<g id="node1" class="node"><title>Node1</title>
<g id="a_node1"><a xlink:title="This class is used by the Container classes to implement a various types of DOUBLY linked containers.">
<polygon fill="#bfbfbf" stroke="black" points="140,-98 140,-117 285,-117 285,-98 140,-98"/>
<text text-anchor="middle" x="212.5" y="-105" font-family="Helvetica,sans-Serif" font-size="10.00">Cpl::Container::ExtendedItem</text>
</a>
</g>
</g>
<!-- Node3 -->
<g id="node3" class="node"><title>Node3</title>
<g id="a_node3"><a xlink:href="class_cpl_1_1_container_1_1_dict_item.html" target="_top" xlink:title="This abstract class represents a item that can be contained in Dictionary.">
<polygon fill="white" stroke="black" points="337,-183 337,-202 458,-202 458,-183 337,-183"/>
<text text-anchor="middle" x="397.5" y="-190" font-family="Helvetica,sans-Serif" font-size="10.00">Cpl::Container::DictItem</text>
</a>
</g>
</g>
<!-- Node1&#45;&gt;Node3 -->
<g id="edge2" class="edge"><title>Node1&#45;&gt;Node3</title>
<path fill="none" stroke="midnightblue" d="M237.401,-122.571C258.753,-135.61 291.176,-154.381 321,-167.5 334.523,-173.449 349.932,-178.792 363.287,-182.997"/>
<polygon fill="midnightblue" stroke="midnightblue" points="239.041,-119.471 228.693,-117.196 235.364,-125.427 239.041,-119.471"/>
</g>
<!-- Node20 -->
<g id="node20" class="node"><title>Node20</title>
<g id="a_node20"><a xlink:href="class_cpl_1_1_dm_1_1_subscriber_api.html" target="_top" xlink:title="This abstract class defines the Subscriber interface &#45; for change notifications &#45; to a Model Points d...">
<polygon fill="white" stroke="black" points="338,-139 338,-158 457,-158 457,-139 338,-139"/>
<text text-anchor="middle" x="397.5" y="-146" font-family="Helvetica,sans-Serif" font-size="10.00">Cpl::Dm::SubscriberApi</text>
</a>
</g>
</g>
<!-- Node1&#45;&gt;Node20 -->
<g id="edge19" class="edge"><title>Node1&#45;&gt;Node20</title>
<path fill="none" stroke="midnightblue" d="M265.93,-119.247C293.838,-125.499 327.716,-133.089 353.97,-138.971"/>
<polygon fill="midnightblue" stroke="midnightblue" points="266.467,-115.78 255.944,-117.009 264.937,-122.611 266.467,-115.78"/>
</g>
<!-- Node24 -->
<g id="node24" class="node"><title>Node24</title>
<g id="a_node24"><a xlink:href="class_cpl_1_1_itc_1_1_message.html" target="_top" xlink:title="This abstract class defines the operations for an ITC message.">
<polygon fill="white" stroke="black" points="350.5,-98 350.5,-117 444.5,-117 444.5,-98 350.5,-98"/>
<text text-anchor="middle" x="397.5" y="-105" font-family="Helvetica,sans-Serif" font-size="10.00">Cpl::Itc::Message</text>
</a>
</g>
</g>
<!-- Node1&#45;&gt;Node24 -->
<g id="edge23" class="edge"><title>Node1&#45;&gt;Node24</title>
<path fill="none" stroke="midnightblue" d="M295.166,-107.5C314.085,-107.5 333.572,-107.5 350.34,-107.5"/>
<polygon fill="midnightblue" stroke="midnightblue" points="295.039,-104 285.039,-107.5 295.039,-111 295.039,-104"/>
</g>
<!-- Node28 -->
<g id="node28" class="node"><title>Node28</title>
<g id="a_node28"><a xlink:href="class_cpl_1_1_memory_1_1_pool___1_1_block_info__.html" target="_top" xlink:title="Helper class so I can put my blocks into to my standard containers.">
<polygon fill="white" stroke="black" points="346,-48.5 346,-78.5 449,-78.5 449,-48.5 346,-48.5"/>
<text text-anchor="start" x="354" y="-66.5" font-family="Helvetica,sans-Serif" font-size="10.00">Cpl::Memory::Pool_</text>
<text text-anchor="middle" x="397.5" y="-55.5" font-family="Helvetica,sans-Serif" font-size="10.00">::BlockInfo_</text>
</a>
</g>
</g>
<!-- Node1&#45;&gt;Node28 -->
<g id="edge27" class="edge"><title>Node1&#45;&gt;Node28</title>
<path fill="none" stroke="midnightblue" d="M263.09,-95.5767C288.712,-89.4163 319.926,-81.9112 345.718,-75.7099"/>
<polygon fill="midnightblue" stroke="midnightblue" points="262.113,-92.2118 253.208,-97.9527 263.749,-99.0179 262.113,-92.2118"/>
</g>
<!-- Node29 -->
<g id="node29" class="node"><title>Node29</title>
<g id="a_node29"><a xlink:href="class_cpl_1_1_system_1_1_counter_callback__.html" target="_top" xlink:title="This abstract class defines the call&#45;back interface for a Counter object.">
<polygon fill="white" stroke="black" points="321,-8 321,-27 474,-27 474,-8 321,-8"/>
<text text-anchor="middle" x="397.5" y="-15" font-family="Helvetica,sans-Serif" font-size="10.00">Cpl::System::CounterCallback_</text>
</a>
</g>
</g>
<!-- Node1&#45;&gt;Node29 -->
<g id="edge28" class="edge"><title>Node1&#45;&gt;Node29</title>
<path fill="none" stroke="midnightblue" d="M233.802,-91.8212C254.666,-76.3643 288.589,-53.011 321,-38.5 331.182,-33.9411 342.588,-30.1482 353.388,-27.0982"/>
<polygon fill="midnightblue" stroke="midnightblue" points="231.591,-89.1052 225.703,-97.9134 235.798,-94.6994 231.591,-89.1052"/>
</g>
<!-- Node2 -->
<g id="node2" class="node"><title>Node2</title>
<g id="a_node2"><a xlink:href="class_cpl_1_1_container_1_1_item.html" target="_top" xlink:title="This class is used by the Container classes to implement a various types of singly linked containers.">
<polygon fill="white" stroke="black" points="0,-98 0,-117 104,-117 104,-98 0,-98"/>
<text text-anchor="middle" x="52" y="-105" font-family="Helvetica,sans-Serif" font-size="10.00">Cpl::Container::Item</text>
</a>
</g>
</g>
<!-- Node2&#45;&gt;Node1 -->
<g id="edge1" class="edge"><title>Node2&#45;&gt;Node1</title>
<path fill="none" stroke="midnightblue" d="M114.109,-107.5C122.516,-107.5 131.212,-107.5 139.789,-107.5"/>
<polygon fill="midnightblue" stroke="midnightblue" points="114.023,-104 104.023,-107.5 114.023,-111 114.023,-104"/>
</g>
<!-- Node4 -->
<g id="node4" class="node"><title>Node4</title>
<g id="a_node4"><a xlink:href="class_cpl_1_1_container_1_1_map_item.html" target="_top" xlink:title="This abstract class represents a item that can be contained in an Map (aka a sorted list implemented ...">
<polygon fill="white" stroke="black" points="533,-183 533,-202 655,-202 655,-183 533,-183"/>
<text text-anchor="middle" x="594" y="-190" font-family="Helvetica,sans-Serif" font-size="10.00">Cpl::Container::MapItem</text>
</a>
</g>
</g>
<!-- Node3&#45;&gt;Node4 -->
<g id="edge3" class="edge"><title>Node3&#45;&gt;Node4</title>
<path fill="none" stroke="midnightblue" d="M468.354,-192.5C489.429,-192.5 512.372,-192.5 532.764,-192.5"/>
<polygon fill="midnightblue" stroke="midnightblue" points="468.178,-189 458.178,-192.5 468.178,-196 468.178,-189"/>
</g>
<!-- Node5 -->
<g id="node5" class="node"><title>Node5</title>
<g id="a_node5"><a xlink:href="class_cpl_1_1_t_shell_1_1_command.html" target="_top" xlink:title="This class defines the interface for a TShell command.">
<polygon fill="white" stroke="black" points="729.5,-240 729.5,-259 844.5,-259 844.5,-240 729.5,-240"/>
<text text-anchor="middle" x="787" y="-247" font-family="Helvetica,sans-Serif" font-size="10.00">Cpl::TShell::Command</text>
</a>
</g>
</g>
<!-- Node4&#45;&gt;Node5 -->
<g id="edge4" class="edge"><title>Node4&#45;&gt;Node5</title>
<path fill="none" stroke="midnightblue" d="M636.953,-205.02C672.191,-215.536 721.799,-230.34 753.927,-239.928"/>
<polygon fill="midnightblue" stroke="midnightblue" points="637.552,-201.546 626.969,-202.041 635.551,-208.254 637.552,-201.546"/>
</g>
<!-- Node16 -->
<g id="node16" class="node"><title>Node16</title>
<g id="a_node16"><a xlink:href="class_cpl_1_1_text_1_1_string_item.html" target="_top" xlink:title="This partially concrete provides a wrapper class that allows a String object to be stored directly in...">
<polygon fill="white" stroke="black" points="733.5,-183 733.5,-202 840.5,-202 840.5,-183 733.5,-183"/>
<text text-anchor="middle" x="787" y="-190" font-family="Helvetica,sans-Serif" font-size="10.00">Cpl::Text::StringItem</text>
</a>
</g>
</g>
<!-- Node4&#45;&gt;Node16 -->
<g id="edge15" class="edge"><title>Node4&#45;&gt;Node16</title>
<path fill="none" stroke="midnightblue" d="M665.329,-192.5C687.784,-192.5 712.239,-192.5 733.226,-192.5"/>
<polygon fill="midnightblue" stroke="midnightblue" points="665.171,-189 655.171,-192.5 665.171,-196 665.171,-189"/>
</g>
<!-- Node6 -->
<g id="node6" class="node"><title>Node6</title>
<g id="a_node6"><a xlink:href="class_cpl_1_1_t_shell_1_1_cmd_1_1_command.html" target="_top" xlink:title="This partially concrete class implements infrastructure and/or common functionality for a Shell comma...">
<polygon fill="white" stroke="black" points="900,-259 900,-278 1041,-278 1041,-259 900,-259"/>
<text text-anchor="middle" x="970.5" y="-266" font-family="Helvetica,sans-Serif" font-size="10.00">Cpl::TShell::Cmd::Command</text>
</a>
</g>
</g>
<!-- Node5&#45;&gt;Node6 -->
<g id="edge5" class="edge"><title>Node5&#45;&gt;Node6</title>
<path fill="none" stroke="midnightblue" d="M854.878,-256.501C869.483,-258.03 884.976,-259.652 899.691,-261.192"/>
<polygon fill="midnightblue" stroke="midnightblue" points="855.24,-253.02 844.93,-255.46 854.511,-259.982 855.24,-253.02"/>
</g>
<!-- Node7 -->
<g id="node7" class="node"><title>Node7</title>
<g id="a_node7"><a xlink:href="class_cpl_1_1_dm_1_1_t_shell_1_1_dm.html" target="_top" xlink:title="This class implements a TShell command.">
<polygon fill="white" stroke="black" points="1093.5,-373 1093.5,-392 1200.5,-392 1200.5,-373 1093.5,-373"/>
<text text-anchor="middle" x="1147" y="-380" font-family="Helvetica,sans-Serif" font-size="10.00">Cpl::Dm::TShell::Dm</text>
</a>
</g>
</g>
<!-- Node6&#45;&gt;Node7 -->
<g id="edge6" class="edge"><title>Node6&#45;&gt;Node7</title>
<path fill="none" stroke="midnightblue" d="M986.806,-285.72C1006.57,-306.947 1042.97,-342.748 1081,-363.5 1087.91,-367.273 1095.66,-370.373 1103.33,-372.893"/>
<polygon fill="midnightblue" stroke="midnightblue" points="989.18,-283.129 979.851,-278.107 984.012,-287.851 989.18,-283.129"/>
</g>
<!-- Node8 -->
<g id="node8" class="node"><title>Node8</title>
<g id="a_node8"><a xlink:href="class_cpl_1_1_t_shell_1_1_cmd_1_1_bye.html" target="_top" xlink:title="This class implements a Shell command.">
<polygon fill="white" stroke="black" points="1090,-335 1090,-354 1204,-354 1204,-335 1090,-335"/>
<text text-anchor="middle" x="1147" y="-342" font-family="Helvetica,sans-Serif" font-size="10.00">Cpl::TShell::Cmd::Bye</text>
</a>
</g>
</g>
<!-- Node6&#45;&gt;Node8 -->
<g id="edge7" class="edge"><title>Node6&#45;&gt;Node8</title>
<path fill="none" stroke="midnightblue" d="M996.251,-283.169C1018.02,-295.635 1050.86,-313.386 1081,-325.5 1089.84,-329.051 1099.59,-332.258 1108.79,-334.982"/>
<polygon fill="midnightblue" stroke="midnightblue" points="997.764,-280.001 987.357,-278.017 994.256,-286.058 997.764,-280.001"/>
</g>
<!-- Node9 -->
<g id="node9" class="node"><title>Node9</title>
<g id="a_node9"><a xlink:href="class_cpl_1_1_t_shell_1_1_cmd_1_1_help.html" target="_top" xlink:title="This class implements a Shell command.">
<polygon fill="white" stroke="black" points="1089,-297 1089,-316 1205,-316 1205,-297 1089,-297"/>
<text text-anchor="middle" x="1147" y="-304" font-family="Helvetica,sans-Serif" font-size="10.00">Cpl::TShell::Cmd::Help</text>
</a>
</g>
</g>
<!-- Node6&#45;&gt;Node9 -->
<g id="edge8" class="edge"><title>Node6&#45;&gt;Node9</title>
<path fill="none" stroke="midnightblue" d="M1025.47,-280.253C1050.14,-285.626 1078.99,-291.909 1102.28,-296.98"/>
<polygon fill="midnightblue" stroke="midnightblue" points="1026.05,-276.797 1015.53,-278.089 1024.56,-283.637 1026.05,-276.797"/>
</g>
<!-- Node10 -->
<g id="node10" class="node"><title>Node10</title>
<g id="a_node10"><a xlink:href="class_cpl_1_1_t_shell_1_1_cmd_1_1_t_print.html" target="_top" xlink:title="This class implements a Shell command.">
<polygon fill="white" stroke="black" points="1085.5,-259 1085.5,-278 1208.5,-278 1208.5,-259 1085.5,-259"/>
<text text-anchor="middle" x="1147" y="-266" font-family="Helvetica,sans-Serif" font-size="10.00">Cpl::TShell::Cmd::TPrint</text>
</a>
</g>
</g>
<!-- Node6&#45;&gt;Node10 -->
<g id="edge9" class="edge"><title>Node6&#45;&gt;Node10</title>
<path fill="none" stroke="midnightblue" d="M1051.24,-268.5C1062.72,-268.5 1074.37,-268.5 1085.4,-268.5"/>
<polygon fill="midnightblue" stroke="midnightblue" points="1051.22,-265 1041.22,-268.5 1051.22,-272 1051.22,-265"/>
</g>
<!-- Node11 -->
<g id="node11" class="node"><title>Node11</title>
<g id="a_node11"><a xlink:href="class_cpl_1_1_t_shell_1_1_cmd_1_1_threads.html" target="_top" xlink:title="This class implements a Shell command.">
<polygon fill="white" stroke="black" points="1081,-221 1081,-240 1213,-240 1213,-221 1081,-221"/>
<text text-anchor="middle" x="1147" y="-228" font-family="Helvetica,sans-Serif" font-size="10.00">Cpl::TShell::Cmd::Threads</text>
</a>
</g>
</g>
<!-- Node6&#45;&gt;Node11 -->
<g id="edge10" class="edge"><title>Node6&#45;&gt;Node11</title>
<path fill="none" stroke="midnightblue" d="M1025.47,-256.747C1050.14,-251.374 1078.99,-245.091 1102.28,-240.02"/>
<polygon fill="midnightblue" stroke="midnightblue" points="1024.56,-253.363 1015.53,-258.911 1026.05,-260.203 1024.56,-253.363"/>
</g>
<!-- Node14 -->
<g id="node14" class="node"><title>Node14</title>
<g id="a_node14"><a xlink:href="class_cpl_1_1_t_shell_1_1_cmd_1_1_tick.html" target="_top" xlink:title="This class implements a Shell command.">
<polygon fill="white" stroke="black" points="1089,-183 1089,-202 1205,-202 1205,-183 1089,-183"/>
<text text-anchor="middle" x="1147" y="-190" font-family="Helvetica,sans-Serif" font-size="10.00">Cpl::TShell::Cmd::Tick</text>
</a>
</g>
</g>
<!-- Node6&#45;&gt;Node14 -->
<g id="edge13" class="edge"><title>Node6&#45;&gt;Node14</title>
<path fill="none" stroke="midnightblue" d="M1033.26,-255.335C1037.34,-253.619 1041.3,-251.684 1045,-249.5 1065.04,-237.685 1061.15,-223.628 1081,-211.5 1087.32,-207.639 1094.47,-204.527 1101.65,-202.03"/>
<polygon fill="midnightblue" stroke="midnightblue" points="1031.72,-252.175 1023.57,-258.951 1034.17,-258.734 1031.72,-252.175"/>
</g>
<!-- Node15 -->
<g id="node15" class="node"><title>Node15</title>
<g id="a_node15"><a xlink:href="class_cpl_1_1_t_shell_1_1_cmd_1_1_trace.html" target="_top" xlink:title="This class implements a Shell command.">
<polygon fill="white" stroke="black" points="1086,-145 1086,-164 1208,-164 1208,-145 1086,-145"/>
<text text-anchor="middle" x="1147" y="-152" font-family="Helvetica,sans-Serif" font-size="10.00">Cpl::TShell::Cmd::Trace</text>
</a>
</g>
</g>
<!-- Node6&#45;&gt;Node15 -->
<g id="edge14" class="edge"><title>Node6&#45;&gt;Node15</title>
<path fill="none" stroke="midnightblue" d="M1038.5,-254.137C1040.78,-252.731 1042.96,-251.19 1045,-249.5 1073.81,-225.689 1052.57,-197.761 1081,-173.5 1085.56,-169.608 1090.88,-166.513 1096.49,-164.051"/>
<polygon fill="midnightblue" stroke="midnightblue" points="1036.56,-251.202 1029.3,-258.917 1039.79,-257.414 1036.56,-251.202"/>
</g>
<!-- Node12 -->
<g id="node12" class="node"><title>Node12</title>
<g id="a_node12"><a xlink:href="class_cpl_1_1_t_shell_1_1_cmd_1_1_free_r_t_o_s_1_1_threads.html" target="_top" xlink:title="This class implements a TShell command.">
<polygon fill="white" stroke="black" points="1249,-240.5 1249,-270.5 1392,-270.5 1392,-240.5 1249,-240.5"/>
<text text-anchor="start" x="1257" y="-258.5" font-family="Helvetica,sans-Serif" font-size="10.00">Cpl::TShell::Cmd::FreeRTOS</text>
<text text-anchor="middle" x="1320.5" y="-247.5" font-family="Helvetica,sans-Serif" font-size="10.00">::Threads</text>
</a>
</g>
</g>
<!-- Node11&#45;&gt;Node12 -->
<g id="edge11" class="edge"><title>Node11&#45;&gt;Node12</title>
<path fill="none" stroke="midnightblue" d="M1223.26,-241.47C1231.79,-242.714 1240.46,-243.978 1248.93,-245.212"/>
<polygon fill="midnightblue" stroke="midnightblue" points="1223.73,-238.002 1213.33,-240.023 1222.72,-244.929 1223.73,-238.002"/>
</g>
<!-- Node13 -->
<g id="node13" class="node"><title>Node13</title>
<g id="a_node13"><a xlink:href="class_cpl_1_1_t_shell_1_1_cmd_1_1_win32_1_1_threads.html" target="_top" xlink:title="This class implements a TShell command.">
<polygon fill="white" stroke="black" points="1258.5,-191.5 1258.5,-221.5 1382.5,-221.5 1382.5,-191.5 1258.5,-191.5"/>
<text text-anchor="start" x="1266.5" y="-209.5" font-family="Helvetica,sans-Serif" font-size="10.00">Cpl::TShell::Cmd::Win32</text>
<text text-anchor="middle" x="1320.5" y="-198.5" font-family="Helvetica,sans-Serif" font-size="10.00">::Threads</text>
</a>
</g>
</g>
<!-- Node11&#45;&gt;Node13 -->
<g id="edge12" class="edge"><title>Node11&#45;&gt;Node13</title>
<path fill="none" stroke="midnightblue" d="M1223.47,-219.938C1235.12,-218.308 1247.02,-216.643 1258.31,-215.063"/>
<polygon fill="midnightblue" stroke="midnightblue" points="1222.74,-216.506 1213.33,-221.358 1223.71,-223.438 1222.74,-216.506"/>
</g>
<!-- Node17 -->
<g id="node17" class="node"><title>Node17</title>
<g id="a_node17"><a xlink:href="class_cpl_1_1_text_1_1_d_f_string_item.html" target="_top" xlink:title="This concrete class implements the StringItem class for a &#39;String&#39; using a &#39;DFString&#39; as the internal...">
<polygon fill="white" stroke="black" points="910.5,-221 910.5,-240 1030.5,-240 1030.5,-221 910.5,-221"/>
<text text-anchor="middle" x="970.5" y="-228" font-family="Helvetica,sans-Serif" font-size="10.00">Cpl::Text::DFStringItem</text>
</a>
</g>
</g>
<!-- Node16&#45;&gt;Node17 -->
<g id="edge16" class="edge"><title>Node16&#45;&gt;Node17</title>
<path fill="none" stroke="midnightblue" d="M843.792,-204.181C869.531,-209.57 899.699,-215.886 924.029,-220.98"/>
<polygon fill="midnightblue" stroke="midnightblue" points="844.305,-200.713 833.8,-202.089 842.871,-207.564 844.305,-200.713"/>
</g>
<!-- Node18 -->
<g id="node18" class="node"><title>Node18</title>
<g id="a_node18"><a xlink:href="class_cpl_1_1_text_1_1_d_string_item.html" target="_top" xlink:title="This concrete class implements the StringItem class for a &#39;String&#39; using a &#39;DString&#39; as the internal ...">
<polygon fill="white" stroke="black" points="913.5,-183 913.5,-202 1027.5,-202 1027.5,-183 913.5,-183"/>
<text text-anchor="middle" x="970.5" y="-190" font-family="Helvetica,sans-Serif" font-size="10.00">Cpl::Text::DStringItem</text>
</a>
</g>
</g>
<!-- Node16&#45;&gt;Node18 -->
<g id="edge17" class="edge"><title>Node16&#45;&gt;Node18</title>
<path fill="none" stroke="midnightblue" d="M851.049,-192.5C871.291,-192.5 893.566,-192.5 913.285,-192.5"/>
<polygon fill="midnightblue" stroke="midnightblue" points="850.985,-189 840.985,-192.5 850.985,-196 850.985,-189"/>
</g>
<!-- Node19 -->
<g id="node19" class="node"><title>Node19</title>
<g id="a_node19"><a xlink:href="class_cpl_1_1_text_1_1_f_string_item.html" target="_top" xlink:title="This template class implements the StringItem class for a &#39;String&#39; using a &#39;FString&#39; as the internal ...">
<polygon fill="white" stroke="black" points="901.5,-145 901.5,-164 1039.5,-164 1039.5,-145 901.5,-145"/>
<text text-anchor="middle" x="970.5" y="-152" font-family="Helvetica,sans-Serif" font-size="10.00">Cpl::Text::FStringItem&lt; S &gt;</text>
</a>
</g>
</g>
<!-- Node16&#45;&gt;Node19 -->
<g id="edge18" class="edge"><title>Node16&#45;&gt;Node19</title>
<path fill="none" stroke="midnightblue" d="M843.792,-180.819C869.531,-175.43 899.699,-169.114 924.029,-164.02"/>
<polygon fill="midnightblue" stroke="midnightblue" points="842.871,-177.436 833.8,-182.911 844.305,-184.287 842.871,-177.436"/>
</g>
<!-- Node21 -->
<g id="node21" class="node"><title>Node21</title>
<g id="a_node21"><a xlink:href="class_cpl_1_1_dm_1_1_subscriber_base.html" target="_top" xlink:title="This mostly concrete class defines the Subscriber interface &#45; for change notifications &#45; to a Model P...">
<polygon fill="white" stroke="black" points="530.5,-142 530.5,-161 657.5,-161 657.5,-142 530.5,-142"/>
<text text-anchor="middle" x="594" y="-149" font-family="Helvetica,sans-Serif" font-size="10.00">Cpl::Dm::SubscriberBase</text>
</a>
</g>
</g>
<!-- Node20&#45;&gt;Node21 -->
<g id="edge20" class="edge"><title>Node20&#45;&gt;Node21</title>
<path fill="none" stroke="midnightblue" d="M467.358,-149.562C487.91,-149.879 510.316,-150.225 530.441,-150.535"/>
<polygon fill="midnightblue" stroke="midnightblue" points="467.173,-146.059 457.12,-149.404 467.065,-153.058 467.173,-146.059"/>
</g>
<!-- Node22 -->
<g id="node22" class="node"><title>Node22</title>
<g id="a_node22"><a xlink:href="class_cpl_1_1_dm_1_1_subscriber.html" target="_top" xlink:title="This template class defines a type safe Subscriber.">
<polygon fill="white" stroke="black" points="735,-116.5 735,-146.5 839,-146.5 839,-116.5 735,-116.5"/>
<text text-anchor="start" x="743" y="-134.5" font-family="Helvetica,sans-Serif" font-size="10.00">Cpl::Dm::Subscriber</text>
<text text-anchor="middle" x="787" y="-123.5" font-family="Helvetica,sans-Serif" font-size="10.00">&lt; MP &gt;</text>
</a>
</g>
</g>
<!-- Node21&#45;&gt;Node22 -->
<g id="edge21" class="edge"><title>Node21&#45;&gt;Node22</title>
<path fill="none" stroke="midnightblue" d="M667.674,-143.89C690.042,-141.548 714.184,-139.02 734.792,-136.862"/>
<polygon fill="midnightblue" stroke="midnightblue" points="667.122,-140.429 657.541,-144.951 667.851,-147.391 667.122,-140.429"/>
</g>
<!-- Node23 -->
<g id="node23" class="node"><title>Node23</title>
<g id="a_node23"><a xlink:href="class_cpl_1_1_dm_1_1_subscriber_composer.html" target="_top" xlink:title="This template class is a composer pattern/class that manages the callback function for a Model Point&#39;...">
<polygon fill="white" stroke="black" points="896,-95.5 896,-125.5 1045,-125.5 1045,-95.5 896,-95.5"/>
<text text-anchor="start" x="904" y="-113.5" font-family="Helvetica,sans-Serif" font-size="10.00">Cpl::Dm::SubscriberComposer</text>
<text text-anchor="middle" x="970.5" y="-102.5" font-family="Helvetica,sans-Serif" font-size="10.00">&lt; CONTEXT, MP &gt;</text>
</a>
</g>
</g>
<!-- Node22&#45;&gt;Node23 -->
<g id="edge22" class="edge"><title>Node22&#45;&gt;Node23</title>
<path fill="none" stroke="midnightblue" d="M849.188,-124.42C864.157,-122.688 880.33,-120.817 895.816,-119.025"/>
<polygon fill="midnightblue" stroke="midnightblue" points="848.572,-120.968 839.041,-125.594 849.377,-127.922 848.572,-120.968"/>
</g>
<!-- Node25 -->
<g id="node25" class="node"><title>Node25</title>
<g id="a_node25"><a xlink:href="class_cpl_1_1_itc_1_1_response_message.html" target="_top" xlink:title="This template class represents a client response message, which is posted to the client&#39;s mailbox aft...">
<polygon fill="white" stroke="black" points="510,-92.5 510,-122.5 678,-122.5 678,-92.5 510,-92.5"/>
<text text-anchor="start" x="518" y="-110.5" font-family="Helvetica,sans-Serif" font-size="10.00">Cpl::Itc::ResponseMessage</text>
<text text-anchor="middle" x="594" y="-99.5" font-family="Helvetica,sans-Serif" font-size="10.00">&lt; CLIENT, SERVER, PAYLOAD &gt;</text>
</a>
</g>
</g>
<!-- Node24&#45;&gt;Node25 -->
<g id="edge24" class="edge"><title>Node24&#45;&gt;Node25</title>
<path fill="none" stroke="midnightblue" d="M454.989,-107.5C472.154,-107.5 491.388,-107.5 509.919,-107.5"/>
<polygon fill="midnightblue" stroke="midnightblue" points="454.594,-104 444.594,-107.5 454.594,-111 454.594,-104"/>
</g>
<!-- Node26 -->
<g id="node26" class="node"><title>Node26</title>
<g id="a_node26"><a xlink:href="class_cpl_1_1_itc_1_1_service_message.html" target="_top" xlink:title="This class represents a defined message, which is posted to a mailbox&#45;server as a request.">
<polygon fill="white" stroke="black" points="530.5,-54 530.5,-73 657.5,-73 657.5,-54 530.5,-54"/>
<text text-anchor="middle" x="594" y="-61" font-family="Helvetica,sans-Serif" font-size="10.00">Cpl::Itc::ServiceMessage</text>
</a>
</g>
</g>
<!-- Node24&#45;&gt;Node26 -->
<g id="edge25" class="edge"><title>Node24&#45;&gt;Node26</title>
<path fill="none" stroke="midnightblue" d="M450.591,-95.7159C481.989,-88.6131 521.459,-79.684 550.879,-73.0287"/>
<polygon fill="midnightblue" stroke="midnightblue" points="449.685,-92.3324 440.704,-97.9527 451.229,-99.1599 449.685,-92.3324"/>
</g>
<!-- Node27 -->
<g id="node27" class="node"><title>Node27</title>
<g id="a_node27"><a xlink:href="class_cpl_1_1_itc_1_1_request_message.html" target="_top" xlink:title="This template class represents a service request message to a particular server.">
<polygon fill="white" stroke="black" points="722,-49.5 722,-79.5 852,-79.5 852,-49.5 722,-49.5"/>
<text text-anchor="start" x="730" y="-67.5" font-family="Helvetica,sans-Serif" font-size="10.00">Cpl::Itc::RequestMessage</text>
<text text-anchor="middle" x="787" y="-56.5" font-family="Helvetica,sans-Serif" font-size="10.00">&lt; SERVER, PAYLOAD &gt;</text>
</a>
</g>
</g>
<!-- Node26&#45;&gt;Node27 -->
<g id="edge26" class="edge"><title>Node26&#45;&gt;Node27</title>
<path fill="none" stroke="midnightblue" d="M667.829,-63.8813C685.553,-63.9741 704.384,-64.0727 721.681,-64.1633"/>
<polygon fill="midnightblue" stroke="midnightblue" points="667.559,-60.3799 657.541,-63.8274 667.522,-67.3798 667.559,-60.3799"/>
</g>
<!-- Node30 -->
<g id="node30" class="node"><title>Node30</title>
<g id="a_node30"><a xlink:href="class_cpl_1_1_system_1_1_timer.html" target="_top" xlink:title="This mostly concrete interface defines the operations that can be performed on a software timer.">
<polygon fill="white" stroke="black" points="543.5,-7 543.5,-26 644.5,-26 644.5,-7 543.5,-7"/>
<text text-anchor="middle" x="594" y="-14" font-family="Helvetica,sans-Serif" font-size="10.00">Cpl::System::Timer</text>
</a>
</g>
</g>
<!-- Node29&#45;&gt;Node30 -->
<g id="edge29" class="edge"><title>Node29&#45;&gt;Node30</title>
<path fill="none" stroke="midnightblue" d="M484.382,-17.0584C504.506,-16.955 525.287,-16.8481 543.217,-16.756"/>
<polygon fill="midnightblue" stroke="midnightblue" points="484.238,-13.559 474.256,-17.1105 484.274,-20.559 484.238,-13.559"/>
</g>
<!-- Node31 -->
<g id="node31" class="node"><title>Node31</title>
<g id="a_node31"><a xlink:href="class_cpl_1_1_system_1_1_timer_composer.html" target="_top" xlink:title="This template class implements a Software Timer that is context independent and allows for a single c...">
<polygon fill="white" stroke="black" points="714,-0.5 714,-30.5 860,-30.5 860,-0.5 714,-0.5"/>
<text text-anchor="start" x="722" y="-18.5" font-family="Helvetica,sans-Serif" font-size="10.00">Cpl::System::TimerComposer</text>
<text text-anchor="middle" x="787" y="-7.5" font-family="Helvetica,sans-Serif" font-size="10.00">&lt; CONTEXT &gt;</text>
</a>
</g>
</g>
<!-- Node30&#45;&gt;Node31 -->
<g id="edge30" class="edge"><title>Node30&#45;&gt;Node31</title>
<path fill="none" stroke="midnightblue" d="M654.845,-16.1867C673.569,-16.0886 694.429,-15.9794 713.905,-15.8775"/>
<polygon fill="midnightblue" stroke="midnightblue" points="654.666,-12.6875 644.684,-16.2399 654.703,-19.6874 654.666,-12.6875"/>
</g>
</g>
</svg>
