<?xml version="1.0" encoding="UTF-8" standalone="no"?>
<!DOCTYPE svg PUBLIC "-//W3C//DTD SVG 1.1//EN"
 "http://www.w3.org/Graphics/SVG/1.1/DTD/svg11.dtd">
<!-- Generated by graphviz version 2.38.0 (20140413.2041)
 -->
<!-- Title: Cpl::Dm::Mp::String_&lt; S, MPTYPE &gt; Pages: 1 -->
<svg width="250pt" height="424pt"
 viewBox="0.00 0.00 250.00 424.00" xmlns="http://www.w3.org/2000/svg" xmlns:xlink="http://www.w3.org/1999/xlink">
<g id="graph0" class="graph" transform="scale(1 1) rotate(0) translate(4 420)">
<title>Cpl::Dm::Mp::String_&lt; S, MPTYPE &gt;</title>
<polygon fill="white" stroke="none" points="-4,4 -4,-420 246,-420 246,4 -4,4"/>
<!-- Node1 -->
<g id="node1" class="node"><title>Node1</title>
<g id="a_node1"><a xlink:title="This mostly concrete template class provides the storage for a Point who&#39;s data is a null terminated ...">
<polygon fill="#bfbfbf" stroke="black" points="34.5,-157.5 34.5,-187.5 137.5,-187.5 137.5,-157.5 34.5,-157.5"/>
<text text-anchor="start" x="42.5" y="-175.5" font-family="Helvetica,sans-Serif" font-size="10.00">Cpl::Dm::Mp::String</text>
<text text-anchor="middle" x="86" y="-164.5" font-family="Helvetica,sans-Serif" font-size="10.00">_&lt; S, MPTYPE &gt;</text>
</a>
</g>
</g>
<!-- Node6 -->
<g id="node6" class="node"><title>Node6</title>
<g id="a_node6"><a xlink:href="class_cpl_1_1_dm_1_1_mp_1_1_string__.html" target="_top" xlink:title=" ">
<polygon fill="white" stroke="black" points="0,-57.5 0,-98.5 172,-98.5 172,-57.5 0,-57.5"/>
<text text-anchor="start" x="8" y="-86.5" font-family="Helvetica,sans-Serif" font-size="10.00">Cpl::Dm::Mp::String</text>
<text text-anchor="start" x="8" y="-75.5" font-family="Helvetica,sans-Serif" font-size="10.00">_&lt; OPTION_STORM_DM_MAX</text>
<text text-anchor="middle" x="86" y="-64.5" font-family="Helvetica,sans-Serif" font-size="10.00">_FILE_NAME, MpFileNameString &gt;</text>
</a>
</g>
</g>
<!-- Node1&#45;&gt;Node6 -->
<g id="edge5" class="edge"><title>Node1&#45;&gt;Node6</title>
<path fill="none" stroke="orange" stroke-dasharray="5,2" d="M86,-147.282C86,-132.138 86,-112.882 86,-98.6823"/>
<polygon fill="orange" stroke="orange" points="82.5001,-147.451 86,-157.451 89.5001,-147.451 82.5001,-147.451"/>
<text text-anchor="start" x="86" y="-131" font-family="Helvetica,sans-Serif" font-size="10.00"> &lt; OPTION_STORM_DM_MAX</text>
<text text-anchor="middle" x="164" y="-120" font-family="Helvetica,sans-Serif" font-size="10.00">_FILE_NAME, MpFileNameString &gt;</text>
</g>
<!-- Node2 -->
<g id="node2" class="node"><title>Node2</title>
<g id="a_node2"><a xlink:href="class_cpl_1_1_dm_1_1_mp_1_1_string_base__.html" target="_top" xlink:title="This mostly concrete class provides the base implementation for a Point who&#39;s data is a null terminat...">
<polygon fill="white" stroke="black" points="20.5,-225.5 20.5,-244.5 151.5,-244.5 151.5,-225.5 20.5,-225.5"/>
<text text-anchor="middle" x="86" y="-232.5" font-family="Helvetica,sans-Serif" font-size="10.00">Cpl::Dm::Mp::StringBase_</text>
</a>
</g>
</g>
<!-- Node2&#45;&gt;Node1 -->
<g id="edge1" class="edge"><title>Node2&#45;&gt;Node1</title>
<path fill="none" stroke="midnightblue" d="M86,-215.215C86,-206.356 86,-195.958 86,-187.759"/>
<polygon fill="midnightblue" stroke="midnightblue" points="82.5001,-215.332 86,-225.332 89.5001,-215.332 82.5001,-215.332"/>
</g>
<!-- Node3 -->
<g id="node3" class="node"><title>Node3</title>
<g id="a_node3"><a xlink:href="class_cpl_1_1_dm_1_1_model_point_common__.html" target="_top" xlink:title="This concrete class provide common infrastructure for a Model Point.">
<polygon fill="white" stroke="black" points="10.5,-282.5 10.5,-301.5 161.5,-301.5 161.5,-282.5 10.5,-282.5"/>
<text text-anchor="middle" x="86" y="-289.5" font-family="Helvetica,sans-Serif" font-size="10.00">Cpl::Dm::ModelPointCommon_</text>
</a>
</g>
</g>
<!-- Node3&#45;&gt;Node2 -->
<g id="edge2" class="edge"><title>Node3&#45;&gt;Node2</title>
<path fill="none" stroke="midnightblue" d="M86,-272.117C86,-262.817 86,-252.056 86,-244.715"/>
<polygon fill="midnightblue" stroke="midnightblue" points="82.5001,-272.406 86,-282.406 89.5001,-272.406 82.5001,-272.406"/>
</g>
<!-- Node4 -->
<g id="node4" class="node"><title>Node4</title>
<g id="a_node4"><a xlink:href="class_cpl_1_1_dm_1_1_model_point.html" target="_top" xlink:title="This mostly abstract class defines the interface for a Model Point.">
<polygon fill="white" stroke="black" points="32.5,-339.5 32.5,-358.5 139.5,-358.5 139.5,-339.5 32.5,-339.5"/>
<text text-anchor="middle" x="86" y="-346.5" font-family="Helvetica,sans-Serif" font-size="10.00">Cpl::Dm::ModelPoint</text>
</a>
</g>
</g>
<!-- Node4&#45;&gt;Node3 -->
<g id="edge3" class="edge"><title>Node4&#45;&gt;Node3</title>
<path fill="none" stroke="midnightblue" d="M86,-329.117C86,-319.817 86,-309.056 86,-301.715"/>
<polygon fill="midnightblue" stroke="midnightblue" points="82.5001,-329.406 86,-339.406 89.5001,-329.406 82.5001,-329.406"/>
</g>
<!-- Node5 -->
<g id="node5" class="node"><title>Node5</title>
<g id="a_node5"><a xlink:href="class_cpl_1_1_container_1_1_item.html" target="_top" xlink:title="This class is used by the Container classes to implement a various types of singly linked containers.">
<polygon fill="white" stroke="black" points="34,-396.5 34,-415.5 138,-415.5 138,-396.5 34,-396.5"/>
<text text-anchor="middle" x="86" y="-403.5" font-family="Helvetica,sans-Serif" font-size="10.00">Cpl::Container::Item</text>
</a>
</g>
</g>
<!-- Node5&#45;&gt;Node4 -->
<g id="edge4" class="edge"><title>Node5&#45;&gt;Node4</title>
<path fill="none" stroke="midnightblue" d="M86,-386.117C86,-376.817 86,-366.056 86,-358.715"/>
<polygon fill="midnightblue" stroke="midnightblue" points="82.5001,-386.406 86,-396.406 89.5001,-386.406 82.5001,-386.406"/>
</g>
<!-- Node7 -->
<g id="node7" class="node"><title>Node7</title>
<g id="a_node7"><a xlink:href="class_storm_1_1_dm_1_1_mp_file_name_string.html" target="_top" xlink:title="This class provides a concrete implementation for a Point who&#39;s data a null terminated string for sto...">
<polygon fill="white" stroke="black" points="11,-0.5 11,-19.5 161,-19.5 161,-0.5 11,-0.5"/>
<text text-anchor="middle" x="86" y="-7.5" font-family="Helvetica,sans-Serif" font-size="10.00">Storm::Dm::MpFileNameString</text>
</a>
</g>
</g>
<!-- Node6&#45;&gt;Node7 -->
<g id="edge6" class="edge"><title>Node6&#45;&gt;Node7</title>
<path fill="none" stroke="midnightblue" d="M86,-47.1201C86,-37.1695 86,-26.8372 86,-19.7856"/>
<polygon fill="midnightblue" stroke="midnightblue" points="82.5001,-47.1978 86,-57.1978 89.5001,-47.1979 82.5001,-47.1978"/>
</g>
</g>
</svg>
