<?xml version="1.0" encoding="UTF-8" standalone="no"?>
<!DOCTYPE svg PUBLIC "-//W3C//DTD SVG 1.1//EN"
 "http://www.w3.org/Graphics/SVG/1.1/DTD/svg11.dtd">
<!-- Generated by graphviz version 2.38.0 (20140413.2041)
 -->
<!-- Title: Cpl::Io::Close Pages: 1 -->
<svg width="867pt" height="520pt"
 viewBox="0.00 0.00 867.00 520.00" xmlns="http://www.w3.org/2000/svg" xmlns:xlink="http://www.w3.org/1999/xlink">
<g id="graph0" class="graph" transform="scale(1 1) rotate(0) translate(4 516)">
<title>Cpl::Io::Close</title>
<polygon fill="white" stroke="none" points="-4,4 -4,-516 863,-516 863,4 -4,4"/>
<!-- Node1 -->
<g id="node1" class="node"><title>Node1</title>
<g id="a_node1"><a xlink:title="This abstract class defines a close operation that is intended to be used Input and Output streams/fi...">
<polygon fill="#bfbfbf" stroke="black" points="140,-246.5 140,-265.5 216,-265.5 216,-246.5 140,-246.5"/>
<text text-anchor="middle" x="178" y="-253.5" font-family="Helvetica,sans-Serif" font-size="10.00">Cpl::Io::Close</text>
</a>
</g>
</g>
<!-- Node3 -->
<g id="node3" class="node"><title>Node3</title>
<g id="a_node3"><a xlink:href="class_cpl_1_1_io_1_1_input.html" target="_top" xlink:title="This partially abstract class defines a interface for operating on an input stream (example of a stre...">
<polygon fill="white" stroke="black" points="255.5,-164.5 255.5,-183.5 328.5,-183.5 328.5,-164.5 255.5,-164.5"/>
<text text-anchor="middle" x="292" y="-171.5" font-family="Helvetica,sans-Serif" font-size="10.00">Cpl::Io::Input</text>
</a>
</g>
</g>
<!-- Node1&#45;&gt;Node3 -->
<g id="edge2" class="edge"><title>Node1&#45;&gt;Node3</title>
<path fill="none" stroke="midnightblue" d="M200.655,-240.145C223.481,-223.433 258.71,-197.641 277.73,-183.716"/>
<polygon fill="midnightblue" stroke="midnightblue" points="198.289,-237.54 192.288,-246.272 202.424,-243.188 198.289,-237.54"/>
</g>
<!-- Node20 -->
<g id="node20" class="node"><title>Node20</title>
<g id="a_node20"><a xlink:href="class_cpl_1_1_io_1_1_output.html" target="_top" xlink:title="This partially abstract class defines a interface for operating on an output stream (example of a str...">
<polygon fill="white" stroke="black" points="252,-309.5 252,-328.5 332,-328.5 332,-309.5 252,-309.5"/>
<text text-anchor="middle" x="292" y="-316.5" font-family="Helvetica,sans-Serif" font-size="10.00">Cpl::Io::Output</text>
</a>
</g>
</g>
<!-- Node1&#45;&gt;Node20 -->
<g id="edge19" class="edge"><title>Node1&#45;&gt;Node20</title>
<path fill="none" stroke="midnightblue" d="M204.816,-270.522C226.009,-282.443 255.428,-298.991 273.83,-309.342"/>
<polygon fill="midnightblue" stroke="midnightblue" points="206.442,-267.42 196.01,-265.568 203.01,-273.522 206.442,-267.42"/>
</g>
<!-- Node2 -->
<g id="node2" class="node"><title>Node2</title>
<g id="a_node2"><a xlink:href="class_cpl_1_1_container_1_1_item.html" target="_top" xlink:title="This class is used by the Container classes to implement a various types of singly linked containers.">
<polygon fill="white" stroke="black" points="0,-246.5 0,-265.5 104,-265.5 104,-246.5 0,-246.5"/>
<text text-anchor="middle" x="52" y="-253.5" font-family="Helvetica,sans-Serif" font-size="10.00">Cpl::Container::Item</text>
</a>
</g>
</g>
<!-- Node2&#45;&gt;Node1 -->
<g id="edge1" class="edge"><title>Node2&#45;&gt;Node1</title>
<path fill="none" stroke="midnightblue" d="M114.375,-256C123.126,-256 131.893,-256 139.98,-256"/>
<polygon fill="midnightblue" stroke="midnightblue" points="114.151,-252.5 104.151,-256 114.151,-259.5 114.151,-252.5"/>
</g>
<!-- Node4 -->
<g id="node4" class="node"><title>Node4</title>
<g id="a_node4"><a xlink:href="class_cpl_1_1_io_1_1_file_1_1_input_api.html" target="_top" xlink:title="This abstract class defines the interface for a Random Access Input File.">
<polygon fill="white" stroke="black" points="376,-164.5 376,-183.5 485,-183.5 485,-164.5 376,-164.5"/>
<text text-anchor="middle" x="430.5" y="-171.5" font-family="Helvetica,sans-Serif" font-size="10.00">Cpl::Io::File::InputApi</text>
</a>
</g>
</g>
<!-- Node3&#45;&gt;Node4 -->
<g id="edge3" class="edge"><title>Node3&#45;&gt;Node4</title>
<path fill="none" stroke="midnightblue" d="M338.685,-174C350.62,-174 363.592,-174 375.897,-174"/>
<polygon fill="midnightblue" stroke="midnightblue" points="338.507,-170.5 328.507,-174 338.507,-177.5 338.507,-170.5"/>
</g>
<!-- Node9 -->
<g id="node9" class="node"><title>Node9</title>
<g id="a_node9"><a xlink:href="class_cpl_1_1_io_1_1_input_output.html" target="_top" xlink:title="This abstract class defines a interface for operating on an input&#45;output stream (example of a stream ...">
<polygon fill="white" stroke="black" points="379.5,-202.5 379.5,-221.5 481.5,-221.5 481.5,-202.5 379.5,-202.5"/>
<text text-anchor="middle" x="430.5" y="-209.5" font-family="Helvetica,sans-Serif" font-size="10.00">Cpl::Io::InputOutput</text>
</a>
</g>
</g>
<!-- Node3&#45;&gt;Node9 -->
<g id="edge8" class="edge"><title>Node3&#45;&gt;Node9</title>
<path fill="none" stroke="midnightblue" d="M337.249,-186.318C356.003,-191.539 377.528,-197.532 395.066,-202.414"/>
<polygon fill="midnightblue" stroke="midnightblue" points="338.017,-182.899 327.445,-183.589 336.14,-189.643 338.017,-182.899"/>
</g>
<!-- Node17 -->
<g id="node17" class="node"><title>Node17</title>
<g id="a_node17"><a xlink:href="class_cpl_1_1_io_1_1_serial_1_1_r_p2040_1_1_stdio_1_1_input.html" target="_top" xlink:title="This concrete class implements a Input stream using Raspberry Pi RP2040&#39;s SDK.">
<polygon fill="white" stroke="black" points="372.5,-115 372.5,-145 488.5,-145 488.5,-115 372.5,-115"/>
<text text-anchor="start" x="380.5" y="-133" font-family="Helvetica,sans-Serif" font-size="10.00">Cpl::Io::Serial::RP2040</text>
<text text-anchor="middle" x="430.5" y="-122" font-family="Helvetica,sans-Serif" font-size="10.00">::Stdio::Input</text>
</a>
</g>
</g>
<!-- Node3&#45;&gt;Node17 -->
<g id="edge16" class="edge"><title>Node3&#45;&gt;Node17</title>
<path fill="none" stroke="midnightblue" d="M332.534,-161.256C348.235,-156.195 366.416,-150.335 382.763,-145.065"/>
<polygon fill="midnightblue" stroke="midnightblue" points="331.062,-158.053 322.618,-164.453 333.21,-164.716 331.062,-158.053"/>
</g>
<!-- Node18 -->
<g id="node18" class="node"><title>Node18</title>
<g id="a_node18"><a xlink:href="class_cpl_1_1_io_1_1_stdio_1_1_input__.html" target="_top" xlink:title="This concrete class implements a Input stream using the underlying platform&#39;s native OS &#39;file interfa...">
<polygon fill="white" stroke="black" points="377,-38.5 377,-57.5 484,-57.5 484,-38.5 377,-38.5"/>
<text text-anchor="middle" x="430.5" y="-45.5" font-family="Helvetica,sans-Serif" font-size="10.00">Cpl::Io::Stdio::Input_</text>
</a>
</g>
</g>
<!-- Node3&#45;&gt;Node18 -->
<g id="edge17" class="edge"><title>Node3&#45;&gt;Node18</title>
<path fill="none" stroke="midnightblue" d="M311.096,-157.296C339.967,-130.646 395.561,-79.3283 418.839,-57.8411"/>
<polygon fill="midnightblue" stroke="midnightblue" points="308.685,-154.758 303.711,-164.113 313.433,-159.902 308.685,-154.758"/>
</g>
<!-- Node5 -->
<g id="node5" class="node"><title>Node5</title>
<g id="a_node5"><a xlink:href="class_cpl_1_1_io_1_1_file_1_1_input.html" target="_top" xlink:title="This concrete class provides a platform independent &#39;standard&#39; implementation of a Cpl::Io::File::Inp...">
<polygon fill="white" stroke="black" points="551,-38.5 551,-57.5 646,-57.5 646,-38.5 551,-38.5"/>
<text text-anchor="middle" x="598.5" y="-45.5" font-family="Helvetica,sans-Serif" font-size="10.00">Cpl::Io::File::Input</text>
</a>
</g>
</g>
<!-- Node4&#45;&gt;Node5 -->
<g id="edge4" class="edge"><title>Node4&#45;&gt;Node5</title>
<path fill="none" stroke="midnightblue" d="M485.575,-159.674C488.224,-157.988 490.724,-156.105 493,-154 523.72,-125.585 497.665,-94.7345 529,-67 535.192,-61.5197 542.835,-57.6066 550.745,-54.8157"/>
<polygon fill="midnightblue" stroke="midnightblue" points="483.87,-156.616 476.694,-164.411 487.165,-162.792 483.87,-156.616"/>
</g>
<!-- Node6 -->
<g id="node6" class="node"><title>Node6</title>
<g id="a_node6"><a xlink:href="class_cpl_1_1_io_1_1_file_1_1_input_output_api.html" target="_top" xlink:title="This abstract class defines the interface for a Random Access Input Output File.">
<polygon fill="white" stroke="black" points="529.5,-240.5 529.5,-259.5 667.5,-259.5 667.5,-240.5 529.5,-240.5"/>
<text text-anchor="middle" x="598.5" y="-247.5" font-family="Helvetica,sans-Serif" font-size="10.00">Cpl::Io::File::InputOutputApi</text>
</a>
</g>
</g>
<!-- Node4&#45;&gt;Node6 -->
<g id="edge5" class="edge"><title>Node4&#45;&gt;Node6</title>
<path fill="none" stroke="midnightblue" d="M482.266,-187.338C486.003,-189.023 489.626,-190.903 493,-193 512.76,-205.279 509.064,-219.009 529,-231 535.451,-234.88 542.717,-237.99 550.044,-240.476"/>
<polygon fill="midnightblue" stroke="midnightblue" points="483.4,-184.022 472.816,-183.545 480.792,-190.518 483.4,-184.022"/>
</g>
<!-- Node7 -->
<g id="node7" class="node"><title>Node7</title>
<g id="a_node7"><a xlink:href="class_cpl_1_1_io_1_1_file_1_1_input_output.html" target="_top" xlink:title="This concrete class provides a platform independent &#39;standard&#39; implementation of an InputOutputFileAp...">
<polygon fill="white" stroke="black" points="719.5,-221.5 719.5,-240.5 843.5,-240.5 843.5,-221.5 719.5,-221.5"/>
<text text-anchor="middle" x="781.5" y="-228.5" font-family="Helvetica,sans-Serif" font-size="10.00">Cpl::Io::File::InputOutput</text>
</a>
</g>
</g>
<!-- Node6&#45;&gt;Node7 -->
<g id="edge6" class="edge"><title>Node6&#45;&gt;Node7</title>
<path fill="none" stroke="midnightblue" d="M677.702,-241.791C691.6,-240.332 705.893,-238.832 719.236,-237.431"/>
<polygon fill="midnightblue" stroke="midnightblue" points="677.25,-238.319 667.67,-242.844 677.981,-245.281 677.25,-238.319"/>
</g>
<!-- Node8 -->
<g id="node8" class="node"><title>Node8</title>
<g id="a_node8"><a xlink:href="class_cpl_1_1_io_1_1_file_1_1_null.html" target="_top" xlink:title="This concrete class implements a NULL InputOutputApi File that all of its input operations return &#39;En...">
<polygon fill="white" stroke="black" points="737,-259.5 737,-278.5 826,-278.5 826,-259.5 737,-259.5"/>
<text text-anchor="middle" x="781.5" y="-266.5" font-family="Helvetica,sans-Serif" font-size="10.00">Cpl::Io::File::Null</text>
</a>
</g>
</g>
<!-- Node6&#45;&gt;Node8 -->
<g id="edge7" class="edge"><title>Node6&#45;&gt;Node8</title>
<path fill="none" stroke="midnightblue" d="M677.818,-258.221C698.017,-260.342 719.041,-262.549 736.766,-264.409"/>
<polygon fill="midnightblue" stroke="midnightblue" points="677.981,-254.719 667.67,-257.156 677.25,-261.681 677.981,-254.719"/>
</g>
<!-- Node10 -->
<g id="node10" class="node"><title>Node10</title>
<g id="a_node10"><a xlink:href="class_cpl_1_1_io_1_1_null.html" target="_top" xlink:title="This concrete class implements a NULL InputOutput stream &#45; that all of its input operations return &#39;E...">
<polygon fill="white" stroke="black" points="564.5,-76.5 564.5,-95.5 632.5,-95.5 632.5,-76.5 564.5,-76.5"/>
<text text-anchor="middle" x="598.5" y="-83.5" font-family="Helvetica,sans-Serif" font-size="10.00">Cpl::Io::Null</text>
</a>
</g>
</g>
<!-- Node9&#45;&gt;Node10 -->
<g id="edge9" class="edge"><title>Node9&#45;&gt;Node10</title>
<path fill="none" stroke="midnightblue" d="M487.528,-197.314C489.457,-195.997 491.292,-194.563 493,-193 524.175,-164.473 497.413,-133.07 529,-105 538.686,-96.392 551.95,-91.649 564.228,-89.0485"/>
<polygon fill="midnightblue" stroke="midnightblue" points="485.558,-194.407 478.561,-202.363 488.992,-200.506 485.558,-194.407"/>
</g>
<!-- Node11 -->
<g id="node11" class="node"><title>Node11</title>
<g id="a_node11"><a xlink:href="class_cpl_1_1_io_1_1_ram_1_1_input_output.html" target="_top" xlink:title="This concrete class implements an InputOutput stream using a Ring Buffer.">
<polygon fill="white" stroke="black" points="534.5,-202.5 534.5,-221.5 662.5,-221.5 662.5,-202.5 534.5,-202.5"/>
<text text-anchor="middle" x="598.5" y="-209.5" font-family="Helvetica,sans-Serif" font-size="10.00">Cpl::Io::Ram::InputOutput</text>
</a>
</g>
</g>
<!-- Node9&#45;&gt;Node11 -->
<g id="edge10" class="edge"><title>Node9&#45;&gt;Node11</title>
<path fill="none" stroke="midnightblue" d="M492.104,-212C505.9,-212 520.588,-212 534.482,-212"/>
<polygon fill="midnightblue" stroke="midnightblue" points="491.756,-208.5 481.756,-212 491.756,-215.5 491.756,-208.5"/>
</g>
<!-- Node12 -->
<g id="node12" class="node"><title>Node12</title>
<g id="a_node12"><a xlink:href="class_cpl_1_1_io_1_1_serial_1_1_r_p2040_1_1_uart_1_1_input_output.html" target="_top" xlink:title="This concrete class implements a Input stream using Raspberry Pi UART interface/hardware.">
<polygon fill="white" stroke="black" points="540.5,-279 540.5,-309 656.5,-309 656.5,-279 540.5,-279"/>
<text text-anchor="start" x="548.5" y="-297" font-family="Helvetica,sans-Serif" font-size="10.00">Cpl::Io::Serial::RP2040</text>
<text text-anchor="middle" x="598.5" y="-286" font-family="Helvetica,sans-Serif" font-size="10.00">::Uart::InputOutput</text>
</a>
</g>
</g>
<!-- Node9&#45;&gt;Node12 -->
<g id="edge11" class="edge"><title>Node9&#45;&gt;Node12</title>
<path fill="none" stroke="midnightblue" d="M455.744,-226.845C479.669,-241.372 514.682,-262.268 529,-269 536.447,-272.501 544.528,-275.836 552.442,-278.863"/>
<polygon fill="midnightblue" stroke="midnightblue" points="457.544,-223.844 447.183,-221.632 453.904,-229.822 457.544,-223.844"/>
</g>
<!-- Node13 -->
<g id="node13" class="node"><title>Node13</title>
<g id="a_node13"><a xlink:href="class_cpl_1_1_io_1_1_socket_1_1_input_output.html" target="_top" xlink:title="This concrete class provides a platform independent &#39;standard&#39; implementation of an InputOutput strea...">
<polygon fill="white" stroke="black" points="529,-328.5 529,-347.5 668,-347.5 668,-328.5 529,-328.5"/>
<text text-anchor="middle" x="598.5" y="-335.5" font-family="Helvetica,sans-Serif" font-size="10.00">Cpl::Io::Socket::InputOutput</text>
</a>
</g>
</g>
<!-- Node9&#45;&gt;Node13 -->
<g id="edge12" class="edge"><title>Node9&#45;&gt;Node13</title>
<path fill="none" stroke="midnightblue" d="M461.641,-226.357C472.459,-232.545 484.158,-240.548 493,-250 516.362,-274.972 502.496,-296.392 529,-318 534.377,-322.384 540.68,-325.807 547.245,-328.48"/>
<polygon fill="midnightblue" stroke="midnightblue" points="463.303,-223.277 452.843,-221.594 459.97,-229.433 463.303,-223.277"/>
</g>
<!-- Node14 -->
<g id="node14" class="node"><title>Node14</title>
<g id="a_node14"><a xlink:href="class_cpl_1_1_io_1_1_stdio_1_1_input_output__.html" target="_top" xlink:title="This concrete class implements a Input&#45;Output stream.">
<polygon fill="white" stroke="black" points="530.5,-164.5 530.5,-183.5 666.5,-183.5 666.5,-164.5 530.5,-164.5"/>
<text text-anchor="middle" x="598.5" y="-171.5" font-family="Helvetica,sans-Serif" font-size="10.00">Cpl::Io::Stdio::InputOutput_</text>
</a>
</g>
</g>
<!-- Node9&#45;&gt;Node14 -->
<g id="edge13" class="edge"><title>Node9&#45;&gt;Node14</title>
<path fill="none" stroke="midnightblue" d="M483.153,-200.176C506.556,-194.818 533.857,-188.569 555.912,-183.52"/>
<polygon fill="midnightblue" stroke="midnightblue" points="482.356,-196.768 473.389,-202.411 483.918,-203.591 482.356,-196.768"/>
</g>
<!-- Node15 -->
<g id="node15" class="node"><title>Node15</title>
<g id="a_node15"><a xlink:href="class_driver_1_1_uart_1_1_stream_1_1_input_output__.html" target="_top" xlink:title="This private concrete class implements the InputOutput stream interface using the UART stream driver.">
<polygon fill="white" stroke="black" points="546.5,-115 546.5,-145 650.5,-145 650.5,-115 546.5,-115"/>
<text text-anchor="start" x="554.5" y="-133" font-family="Helvetica,sans-Serif" font-size="10.00">Driver::Uart::Stream</text>
<text text-anchor="middle" x="598.5" y="-122" font-family="Helvetica,sans-Serif" font-size="10.00">::InputOutput_</text>
</a>
</g>
</g>
<!-- Node9&#45;&gt;Node15 -->
<g id="edge14" class="edge"><title>Node9&#45;&gt;Node15</title>
<path fill="none" stroke="midnightblue" d="M482.266,-198.662C486.003,-196.977 489.626,-195.097 493,-193 512.76,-180.721 509.555,-167.772 529,-155 534.714,-151.247 541.065,-147.965 547.53,-145.122"/>
<polygon fill="midnightblue" stroke="midnightblue" points="480.792,-195.482 472.816,-202.455 483.4,-201.978 480.792,-195.482"/>
</g>
<!-- Node16 -->
<g id="node16" class="node"><title>Node16</title>
<g id="a_node16"><a xlink:href="class_cpl_1_1_io_1_1_serial_1_1_renesas_1_1_rx62n_1_1_input_output.html" target="_top" xlink:title="This template provides a concrete implementation of the Cpl::Io InputOutput stream interface using on...">
<polygon fill="white" stroke="black" points="704,-109.5 704,-150.5 859,-150.5 859,-109.5 704,-109.5"/>
<text text-anchor="start" x="712" y="-138.5" font-family="Helvetica,sans-Serif" font-size="10.00">Cpl::Io::Serial::Renesas</text>
<text text-anchor="start" x="712" y="-127.5" font-family="Helvetica,sans-Serif" font-size="10.00">::Rx62n::InputOutput&lt; TXSIZE,</text>
<text text-anchor="middle" x="781.5" y="-116.5" font-family="Helvetica,sans-Serif" font-size="10.00"> RXSIZE &gt;</text>
</a>
</g>
</g>
<!-- Node15&#45;&gt;Node16 -->
<g id="edge15" class="edge"><title>Node15&#45;&gt;Node16</title>
<path fill="none" stroke="midnightblue" d="M661.188,-130C674.948,-130 689.701,-130 703.977,-130"/>
<polygon fill="midnightblue" stroke="midnightblue" points="660.883,-126.5 650.883,-130 660.883,-133.5 660.883,-126.5"/>
</g>
<!-- Node19 -->
<g id="node19" class="node"><title>Node19</title>
<g id="a_node19"><a xlink:href="class_cpl_1_1_io_1_1_stdio_1_1_std_in.html" target="_top" xlink:title="This concrete class represents the C&#45;library &#39;stdin&#39; stream.">
<polygon fill="white" stroke="black" points="547,-0.5 547,-19.5 650,-19.5 650,-0.5 547,-0.5"/>
<text text-anchor="middle" x="598.5" y="-7.5" font-family="Helvetica,sans-Serif" font-size="10.00">Cpl::Io::Stdio::StdIn</text>
</a>
</g>
</g>
<!-- Node18&#45;&gt;Node19 -->
<g id="edge18" class="edge"><title>Node18&#45;&gt;Node19</title>
<path fill="none" stroke="midnightblue" d="M483.153,-36.1757C506.556,-30.8184 533.857,-24.5689 555.912,-19.5201"/>
<polygon fill="midnightblue" stroke="midnightblue" points="482.356,-32.7677 473.389,-38.411 483.918,-39.5912 482.356,-32.7677"/>
</g>
<!-- Node20&#45;&gt;Node9 -->
<g id="edge25" class="edge"><title>Node20&#45;&gt;Node9</title>
<path fill="none" stroke="midnightblue" d="M309.502,-302.097C324.183,-287.49 346.586,-266.232 368,-250 382.103,-239.31 399.327,-228.868 411.956,-221.644"/>
<polygon fill="midnightblue" stroke="midnightblue" points="306.759,-299.892 302.195,-309.454 311.725,-304.825 306.759,-299.892"/>
</g>
<!-- Node21 -->
<g id="node21" class="node"><title>Node21</title>
<g id="a_node21"><a xlink:href="class_cpl_1_1_io_1_1_atomic_output_api.html" target="_top" xlink:title="This abstract template class defines a interface for an Atomic outputs to a stream.">
<polygon fill="white" stroke="black" points="368,-348 368,-378 493,-378 493,-348 368,-348"/>
<text text-anchor="start" x="376" y="-366" font-family="Helvetica,sans-Serif" font-size="10.00">Cpl::Io::AtomicOutputApi</text>
<text text-anchor="middle" x="430.5" y="-355" font-family="Helvetica,sans-Serif" font-size="10.00">&lt; CONTEXT &gt;</text>
</a>
</g>
</g>
<!-- Node20&#45;&gt;Node21 -->
<g id="edge20" class="edge"><title>Node20&#45;&gt;Node21</title>
<path fill="none" stroke="midnightblue" d="M332.534,-331.744C348.235,-336.805 366.416,-342.665 382.763,-347.935"/>
<polygon fill="midnightblue" stroke="midnightblue" points="333.21,-328.284 322.618,-328.547 331.062,-334.947 333.21,-328.284"/>
</g>
<!-- Node23 -->
<g id="node23" class="node"><title>Node23</title>
<g id="a_node23"><a xlink:href="class_cpl_1_1_io_1_1_file_1_1_output_api.html" target="_top" xlink:title="This abstract class defines the interface for a Random Access Input File.">
<polygon fill="white" stroke="black" points="372.5,-309.5 372.5,-328.5 488.5,-328.5 488.5,-309.5 372.5,-309.5"/>
<text text-anchor="middle" x="430.5" y="-316.5" font-family="Helvetica,sans-Serif" font-size="10.00">Cpl::Io::File::OutputApi</text>
</a>
</g>
</g>
<!-- Node20&#45;&gt;Node23 -->
<g id="edge22" class="edge"><title>Node20&#45;&gt;Node23</title>
<path fill="none" stroke="midnightblue" d="M342.397,-319C352.11,-319 362.376,-319 372.32,-319"/>
<polygon fill="midnightblue" stroke="midnightblue" points="342.115,-315.5 332.115,-319 342.115,-322.5 342.115,-315.5"/>
</g>
<!-- Node25 -->
<g id="node25" class="node"><title>Node25</title>
<g id="a_node25"><a xlink:href="class_cpl_1_1_io_1_1_serial_1_1_r_p2040_1_1_stdio_1_1_output.html" target="_top" xlink:title="This concrete class implements a Input stream using Raspberry Pi RP2040&#39;s SDK.">
<polygon fill="white" stroke="black" points="372.5,-260 372.5,-290 488.5,-290 488.5,-260 372.5,-260"/>
<text text-anchor="start" x="380.5" y="-278" font-family="Helvetica,sans-Serif" font-size="10.00">Cpl::Io::Serial::RP2040</text>
<text text-anchor="middle" x="430.5" y="-267" font-family="Helvetica,sans-Serif" font-size="10.00">::Stdio::Output</text>
</a>
</g>
</g>
<!-- Node20&#45;&gt;Node25 -->
<g id="edge26" class="edge"><title>Node20&#45;&gt;Node25</title>
<path fill="none" stroke="midnightblue" d="M332.534,-306.256C348.235,-301.195 366.416,-295.335 382.763,-290.065"/>
<polygon fill="midnightblue" stroke="midnightblue" points="331.062,-303.053 322.618,-309.453 333.21,-309.716 331.062,-303.053"/>
</g>
<!-- Node26 -->
<g id="node26" class="node"><title>Node26</title>
<g id="a_node26"><a xlink:href="class_cpl_1_1_io_1_1_stdio_1_1_output__.html" target="_top" xlink:title="This concrete class implements a Output stream using the underlying platform&#39;s native OS &#39;file interf...">
<polygon fill="white" stroke="black" points="373.5,-454.5 373.5,-473.5 487.5,-473.5 487.5,-454.5 373.5,-454.5"/>
<text text-anchor="middle" x="430.5" y="-461.5" font-family="Helvetica,sans-Serif" font-size="10.00">Cpl::Io::Stdio::Output_</text>
</a>
</g>
</g>
<!-- Node20&#45;&gt;Node26 -->
<g id="edge27" class="edge"><title>Node20&#45;&gt;Node26</title>
<path fill="none" stroke="midnightblue" d="M302.848,-337.508C315.632,-360.303 339.688,-399.281 368,-426 380.323,-437.629 396.751,-447.561 409.529,-454.351"/>
<polygon fill="midnightblue" stroke="midnightblue" points="305.811,-335.631 297.936,-328.543 299.672,-338.995 305.811,-335.631"/>
</g>
<!-- Node29 -->
<g id="node29" class="node"><title>Node29</title>
<g id="a_node29"><a xlink:href="class_cpl_1_1_io_1_1_tee_output.html" target="_top" xlink:title="This concrete class implements a Output stream that outputs the data to MANY (or none) output streams...">
<polygon fill="white" stroke="black" points="382,-397.5 382,-416.5 479,-416.5 479,-397.5 382,-397.5"/>
<text text-anchor="middle" x="430.5" y="-404.5" font-family="Helvetica,sans-Serif" font-size="10.00">Cpl::Io::TeeOutput</text>
</a>
</g>
</g>
<!-- Node20&#45;&gt;Node29 -->
<g id="edge30" class="edge"><title>Node20&#45;&gt;Node29</title>
<path fill="none" stroke="midnightblue" d="M308.2,-336.447C322.327,-351.697 344.651,-373.462 368,-387 375.285,-391.224 383.58,-394.689 391.667,-397.478"/>
<polygon fill="midnightblue" stroke="midnightblue" points="310.54,-333.816 301.241,-328.739 305.344,-338.507 310.54,-333.816"/>
</g>
<!-- Node22 -->
<g id="node22" class="node"><title>Node22</title>
<g id="a_node22"><a xlink:href="class_cpl_1_1_io_1_1_atomic_output.html" target="_top" xlink:title="This concrete template class implements the AtomicOutputApi using a mutex to enforce the &#39;atomic&#45;ness...">
<polygon fill="white" stroke="black" points="543,-405 543,-435 654,-435 654,-405 543,-405"/>
<text text-anchor="start" x="551" y="-423" font-family="Helvetica,sans-Serif" font-size="10.00">Cpl::Io::AtomicOutput</text>
<text text-anchor="middle" x="598.5" y="-412" font-family="Helvetica,sans-Serif" font-size="10.00">&lt; CONTEXT &gt;</text>
</a>
</g>
</g>
<!-- Node21&#45;&gt;Node22 -->
<g id="edge21" class="edge"><title>Node21&#45;&gt;Node22</title>
<path fill="none" stroke="midnightblue" d="M485.131,-381.415C507.241,-389.007 532.543,-397.696 553.533,-404.903"/>
<polygon fill="midnightblue" stroke="midnightblue" points="486.144,-378.063 475.549,-378.125 483.87,-384.683 486.144,-378.063"/>
</g>
<!-- Node23&#45;&gt;Node6 -->
<g id="edge23" class="edge"><title>Node23&#45;&gt;Node6</title>
<path fill="none" stroke="midnightblue" d="M478.331,-305.866C483.401,-303.832 488.388,-301.547 493,-299 511.232,-288.931 510.552,-278.667 529,-269 536.324,-265.162 544.507,-262.032 552.596,-259.501"/>
<polygon fill="midnightblue" stroke="midnightblue" points="476.727,-302.727 468.556,-309.47 479.149,-309.294 476.727,-302.727"/>
</g>
<!-- Node24 -->
<g id="node24" class="node"><title>Node24</title>
<g id="a_node24"><a xlink:href="class_cpl_1_1_io_1_1_file_1_1_output.html" target="_top" xlink:title="This concrete class provides a platform independent &#39;standard&#39; implementation of a Cpl::Io::File::Out...">
<polygon fill="white" stroke="black" points="547.5,-366.5 547.5,-385.5 649.5,-385.5 649.5,-366.5 547.5,-366.5"/>
<text text-anchor="middle" x="598.5" y="-373.5" font-family="Helvetica,sans-Serif" font-size="10.00">Cpl::Io::File::Output</text>
</a>
</g>
</g>
<!-- Node23&#45;&gt;Node24 -->
<g id="edge24" class="edge"><title>Node23&#45;&gt;Node24</title>
<path fill="none" stroke="midnightblue" d="M476.015,-331.672C481.789,-333.63 487.576,-335.754 493,-338 509.715,-344.922 512.186,-350.321 529,-357 538.061,-360.599 548.053,-363.786 557.538,-366.473"/>
<polygon fill="midnightblue" stroke="midnightblue" points="476.971,-328.302 466.379,-328.541 474.809,-334.96 476.971,-328.302"/>
</g>
<!-- Node27 -->
<g id="node27" class="node"><title>Node27</title>
<g id="a_node27"><a xlink:href="class_cpl_1_1_io_1_1_stdio_1_1_std_err.html" target="_top" xlink:title="This concrete class represents the C&#45;library &#39;stderr&#39; stream.">
<polygon fill="white" stroke="black" points="545,-454.5 545,-473.5 652,-473.5 652,-454.5 545,-454.5"/>
<text text-anchor="middle" x="598.5" y="-461.5" font-family="Helvetica,sans-Serif" font-size="10.00">Cpl::Io::Stdio::StdErr</text>
</a>
</g>
</g>
<!-- Node26&#45;&gt;Node27 -->
<g id="edge28" class="edge"><title>Node26&#45;&gt;Node27</title>
<path fill="none" stroke="midnightblue" d="M497.857,-464C513.532,-464 530.033,-464 544.998,-464"/>
<polygon fill="midnightblue" stroke="midnightblue" points="497.7,-460.5 487.7,-464 497.7,-467.5 497.7,-460.5"/>
</g>
<!-- Node28 -->
<g id="node28" class="node"><title>Node28</title>
<g id="a_node28"><a xlink:href="class_cpl_1_1_io_1_1_stdio_1_1_std_out.html" target="_top" xlink:title="This concrete class represents the C&#45;library &#39;stdout&#39; stream.">
<polygon fill="white" stroke="black" points="543.5,-492.5 543.5,-511.5 653.5,-511.5 653.5,-492.5 543.5,-492.5"/>
<text text-anchor="middle" x="598.5" y="-499.5" font-family="Helvetica,sans-Serif" font-size="10.00">Cpl::Io::Stdio::StdOut</text>
</a>
</g>
</g>
<!-- Node26&#45;&gt;Node28 -->
<g id="edge29" class="edge"><title>Node26&#45;&gt;Node28</title>
<path fill="none" stroke="midnightblue" d="M483.153,-475.824C506.556,-481.182 533.857,-487.431 555.912,-492.48"/>
<polygon fill="midnightblue" stroke="midnightblue" points="483.918,-472.409 473.389,-473.589 482.356,-479.232 483.918,-472.409"/>
</g>
</g>
</svg>
