<?xml version="1.0" encoding="UTF-8" standalone="no"?>
<!DOCTYPE svg PUBLIC "-//W3C//DTD SVG 1.1//EN"
 "http://www.w3.org/Graphics/SVG/1.1/DTD/svg11.dtd">
<!-- Generated by graphviz version 2.38.0 (20140413.2041)
 -->
<!-- Title: Cpl::Io::IsEos Pages: 1 -->
<svg width="728pt" height="520pt"
 viewBox="0.00 0.00 728.00 520.00" xmlns="http://www.w3.org/2000/svg" xmlns:xlink="http://www.w3.org/1999/xlink">
<g id="graph0" class="graph" transform="scale(1 1) rotate(0) translate(4 516)">
<title>Cpl::Io::IsEos</title>
<polygon fill="white" stroke="none" points="-4,4 -4,-516 724,-516 724,4 -4,4"/>
<!-- Node1 -->
<g id="node1" class="node"><title>Node1</title>
<g id="a_node1"><a xlink:title="This abstract class defines a isEos() operation that is intended to be used Input and Output streams.">
<polygon fill="#bfbfbf" stroke="black" points="0,-236.5 0,-255.5 77,-255.5 77,-236.5 0,-236.5"/>
<text text-anchor="middle" x="38.5" y="-243.5" font-family="Helvetica,sans-Serif" font-size="10.00">Cpl::Io::IsEos</text>
</a>
</g>
</g>
<!-- Node2 -->
<g id="node2" class="node"><title>Node2</title>
<g id="a_node2"><a xlink:href="class_cpl_1_1_io_1_1_input.html" target="_top" xlink:title="This partially abstract class defines a interface for operating on an input stream (example of a stre...">
<polygon fill="white" stroke="black" points="116.5,-164.5 116.5,-183.5 189.5,-183.5 189.5,-164.5 116.5,-164.5"/>
<text text-anchor="middle" x="153" y="-171.5" font-family="Helvetica,sans-Serif" font-size="10.00">Cpl::Io::Input</text>
</a>
</g>
</g>
<!-- Node1&#45;&gt;Node2 -->
<g id="edge1" class="edge"><title>Node1&#45;&gt;Node2</title>
<path fill="none" stroke="midnightblue" d="M63.2337,-230.81C85.5304,-216.541 118.208,-195.627 137.068,-183.556"/>
<polygon fill="midnightblue" stroke="midnightblue" points="61.2083,-227.951 54.6723,-236.29 64.9817,-233.847 61.2083,-227.951"/>
</g>
<!-- Node19 -->
<g id="node19" class="node"><title>Node19</title>
<g id="a_node19"><a xlink:href="class_cpl_1_1_io_1_1_output.html" target="_top" xlink:title="This partially abstract class defines a interface for operating on an output stream (example of a str...">
<polygon fill="white" stroke="black" points="113,-309.5 113,-328.5 193,-328.5 193,-309.5 113,-309.5"/>
<text text-anchor="middle" x="153" y="-316.5" font-family="Helvetica,sans-Serif" font-size="10.00">Cpl::Io::Output</text>
</a>
</g>
</g>
<!-- Node1&#45;&gt;Node19 -->
<g id="edge18" class="edge"><title>Node1&#45;&gt;Node19</title>
<path fill="none" stroke="midnightblue" d="M62.784,-261.109C85.1756,-275.638 118.337,-297.157 137.289,-309.454"/>
<polygon fill="midnightblue" stroke="midnightblue" points="64.5013,-258.051 54.2074,-255.543 60.6909,-263.923 64.5013,-258.051"/>
</g>
<!-- Node3 -->
<g id="node3" class="node"><title>Node3</title>
<g id="a_node3"><a xlink:href="class_cpl_1_1_io_1_1_file_1_1_input_api.html" target="_top" xlink:title="This abstract class defines the interface for a Random Access Input File.">
<polygon fill="white" stroke="black" points="237,-164.5 237,-183.5 346,-183.5 346,-164.5 237,-164.5"/>
<text text-anchor="middle" x="291.5" y="-171.5" font-family="Helvetica,sans-Serif" font-size="10.00">Cpl::Io::File::InputApi</text>
</a>
</g>
</g>
<!-- Node2&#45;&gt;Node3 -->
<g id="edge2" class="edge"><title>Node2&#45;&gt;Node3</title>
<path fill="none" stroke="midnightblue" d="M199.685,-174C211.62,-174 224.592,-174 236.897,-174"/>
<polygon fill="midnightblue" stroke="midnightblue" points="199.507,-170.5 189.507,-174 199.507,-177.5 199.507,-170.5"/>
</g>
<!-- Node8 -->
<g id="node8" class="node"><title>Node8</title>
<g id="a_node8"><a xlink:href="class_cpl_1_1_io_1_1_input_output.html" target="_top" xlink:title="This abstract class defines a interface for operating on an input&#45;output stream (example of a stream ...">
<polygon fill="white" stroke="black" points="240.5,-202.5 240.5,-221.5 342.5,-221.5 342.5,-202.5 240.5,-202.5"/>
<text text-anchor="middle" x="291.5" y="-209.5" font-family="Helvetica,sans-Serif" font-size="10.00">Cpl::Io::InputOutput</text>
</a>
</g>
</g>
<!-- Node2&#45;&gt;Node8 -->
<g id="edge7" class="edge"><title>Node2&#45;&gt;Node8</title>
<path fill="none" stroke="midnightblue" d="M198.249,-186.318C217.003,-191.539 238.528,-197.532 256.066,-202.414"/>
<polygon fill="midnightblue" stroke="midnightblue" points="199.017,-182.899 188.445,-183.589 197.14,-189.643 199.017,-182.899"/>
</g>
<!-- Node16 -->
<g id="node16" class="node"><title>Node16</title>
<g id="a_node16"><a xlink:href="class_cpl_1_1_io_1_1_serial_1_1_r_p2040_1_1_stdio_1_1_input.html" target="_top" xlink:title="This concrete class implements a Input stream using Raspberry Pi RP2040&#39;s SDK.">
<polygon fill="white" stroke="black" points="233.5,-115 233.5,-145 349.5,-145 349.5,-115 233.5,-115"/>
<text text-anchor="start" x="241.5" y="-133" font-family="Helvetica,sans-Serif" font-size="10.00">Cpl::Io::Serial::RP2040</text>
<text text-anchor="middle" x="291.5" y="-122" font-family="Helvetica,sans-Serif" font-size="10.00">::Stdio::Input</text>
</a>
</g>
</g>
<!-- Node2&#45;&gt;Node16 -->
<g id="edge15" class="edge"><title>Node2&#45;&gt;Node16</title>
<path fill="none" stroke="midnightblue" d="M193.534,-161.256C209.235,-156.195 227.416,-150.335 243.763,-145.065"/>
<polygon fill="midnightblue" stroke="midnightblue" points="192.062,-158.053 183.618,-164.453 194.21,-164.716 192.062,-158.053"/>
</g>
<!-- Node17 -->
<g id="node17" class="node"><title>Node17</title>
<g id="a_node17"><a xlink:href="class_cpl_1_1_io_1_1_stdio_1_1_input__.html" target="_top" xlink:title="This concrete class implements a Input stream using the underlying platform&#39;s native OS &#39;file interfa...">
<polygon fill="white" stroke="black" points="238,-38.5 238,-57.5 345,-57.5 345,-38.5 238,-38.5"/>
<text text-anchor="middle" x="291.5" y="-45.5" font-family="Helvetica,sans-Serif" font-size="10.00">Cpl::Io::Stdio::Input_</text>
</a>
</g>
</g>
<!-- Node2&#45;&gt;Node17 -->
<g id="edge16" class="edge"><title>Node2&#45;&gt;Node17</title>
<path fill="none" stroke="midnightblue" d="M172.096,-157.296C200.967,-130.646 256.561,-79.3283 279.839,-57.8411"/>
<polygon fill="midnightblue" stroke="midnightblue" points="169.685,-154.758 164.711,-164.113 174.433,-159.902 169.685,-154.758"/>
</g>
<!-- Node4 -->
<g id="node4" class="node"><title>Node4</title>
<g id="a_node4"><a xlink:href="class_cpl_1_1_io_1_1_file_1_1_input.html" target="_top" xlink:title="This concrete class provides a platform independent &#39;standard&#39; implementation of a Cpl::Io::File::Inp...">
<polygon fill="white" stroke="black" points="412,-38.5 412,-57.5 507,-57.5 507,-38.5 412,-38.5"/>
<text text-anchor="middle" x="459.5" y="-45.5" font-family="Helvetica,sans-Serif" font-size="10.00">Cpl::Io::File::Input</text>
</a>
</g>
</g>
<!-- Node3&#45;&gt;Node4 -->
<g id="edge3" class="edge"><title>Node3&#45;&gt;Node4</title>
<path fill="none" stroke="midnightblue" d="M346.575,-159.674C349.224,-157.988 351.724,-156.105 354,-154 384.72,-125.585 358.665,-94.7345 390,-67 396.192,-61.5197 403.835,-57.6066 411.745,-54.8157"/>
<polygon fill="midnightblue" stroke="midnightblue" points="344.87,-156.616 337.694,-164.411 348.165,-162.792 344.87,-156.616"/>
</g>
<!-- Node5 -->
<g id="node5" class="node"><title>Node5</title>
<g id="a_node5"><a xlink:href="class_cpl_1_1_io_1_1_file_1_1_input_output_api.html" target="_top" xlink:title="This abstract class defines the interface for a Random Access Input Output File.">
<polygon fill="white" stroke="black" points="390.5,-240.5 390.5,-259.5 528.5,-259.5 528.5,-240.5 390.5,-240.5"/>
<text text-anchor="middle" x="459.5" y="-247.5" font-family="Helvetica,sans-Serif" font-size="10.00">Cpl::Io::File::InputOutputApi</text>
</a>
</g>
</g>
<!-- Node3&#45;&gt;Node5 -->
<g id="edge4" class="edge"><title>Node3&#45;&gt;Node5</title>
<path fill="none" stroke="midnightblue" d="M343.266,-187.338C347.003,-189.023 350.626,-190.903 354,-193 373.76,-205.279 370.064,-219.009 390,-231 396.451,-234.88 403.717,-237.99 411.044,-240.476"/>
<polygon fill="midnightblue" stroke="midnightblue" points="344.4,-184.022 333.816,-183.545 341.792,-190.518 344.4,-184.022"/>
</g>
<!-- Node6 -->
<g id="node6" class="node"><title>Node6</title>
<g id="a_node6"><a xlink:href="class_cpl_1_1_io_1_1_file_1_1_input_output.html" target="_top" xlink:title="This concrete class provides a platform independent &#39;standard&#39; implementation of an InputOutputFileAp...">
<polygon fill="white" stroke="black" points="580.5,-221.5 580.5,-240.5 704.5,-240.5 704.5,-221.5 580.5,-221.5"/>
<text text-anchor="middle" x="642.5" y="-228.5" font-family="Helvetica,sans-Serif" font-size="10.00">Cpl::Io::File::InputOutput</text>
</a>
</g>
</g>
<!-- Node5&#45;&gt;Node6 -->
<g id="edge5" class="edge"><title>Node5&#45;&gt;Node6</title>
<path fill="none" stroke="midnightblue" d="M538.702,-241.791C552.6,-240.332 566.893,-238.832 580.236,-237.431"/>
<polygon fill="midnightblue" stroke="midnightblue" points="538.25,-238.319 528.67,-242.844 538.981,-245.281 538.25,-238.319"/>
</g>
<!-- Node7 -->
<g id="node7" class="node"><title>Node7</title>
<g id="a_node7"><a xlink:href="class_cpl_1_1_io_1_1_file_1_1_null.html" target="_top" xlink:title="This concrete class implements a NULL InputOutputApi File that all of its input operations return &#39;En...">
<polygon fill="white" stroke="black" points="598,-259.5 598,-278.5 687,-278.5 687,-259.5 598,-259.5"/>
<text text-anchor="middle" x="642.5" y="-266.5" font-family="Helvetica,sans-Serif" font-size="10.00">Cpl::Io::File::Null</text>
</a>
</g>
</g>
<!-- Node5&#45;&gt;Node7 -->
<g id="edge6" class="edge"><title>Node5&#45;&gt;Node7</title>
<path fill="none" stroke="midnightblue" d="M538.818,-258.221C559.017,-260.342 580.041,-262.549 597.766,-264.409"/>
<polygon fill="midnightblue" stroke="midnightblue" points="538.981,-254.719 528.67,-257.156 538.25,-261.681 538.981,-254.719"/>
</g>
<!-- Node9 -->
<g id="node9" class="node"><title>Node9</title>
<g id="a_node9"><a xlink:href="class_cpl_1_1_io_1_1_null.html" target="_top" xlink:title="This concrete class implements a NULL InputOutput stream &#45; that all of its input operations return &#39;E...">
<polygon fill="white" stroke="black" points="425.5,-76.5 425.5,-95.5 493.5,-95.5 493.5,-76.5 425.5,-76.5"/>
<text text-anchor="middle" x="459.5" y="-83.5" font-family="Helvetica,sans-Serif" font-size="10.00">Cpl::Io::Null</text>
</a>
</g>
</g>
<!-- Node8&#45;&gt;Node9 -->
<g id="edge8" class="edge"><title>Node8&#45;&gt;Node9</title>
<path fill="none" stroke="midnightblue" d="M348.528,-197.314C350.457,-195.997 352.292,-194.563 354,-193 385.175,-164.473 358.413,-133.07 390,-105 399.686,-96.392 412.95,-91.649 425.228,-89.0485"/>
<polygon fill="midnightblue" stroke="midnightblue" points="346.558,-194.407 339.561,-202.363 349.992,-200.506 346.558,-194.407"/>
</g>
<!-- Node10 -->
<g id="node10" class="node"><title>Node10</title>
<g id="a_node10"><a xlink:href="class_cpl_1_1_io_1_1_ram_1_1_input_output.html" target="_top" xlink:title="This concrete class implements an InputOutput stream using a Ring Buffer.">
<polygon fill="white" stroke="black" points="395.5,-202.5 395.5,-221.5 523.5,-221.5 523.5,-202.5 395.5,-202.5"/>
<text text-anchor="middle" x="459.5" y="-209.5" font-family="Helvetica,sans-Serif" font-size="10.00">Cpl::Io::Ram::InputOutput</text>
</a>
</g>
</g>
<!-- Node8&#45;&gt;Node10 -->
<g id="edge9" class="edge"><title>Node8&#45;&gt;Node10</title>
<path fill="none" stroke="midnightblue" d="M353.104,-212C366.9,-212 381.588,-212 395.482,-212"/>
<polygon fill="midnightblue" stroke="midnightblue" points="352.756,-208.5 342.756,-212 352.756,-215.5 352.756,-208.5"/>
</g>
<!-- Node11 -->
<g id="node11" class="node"><title>Node11</title>
<g id="a_node11"><a xlink:href="class_cpl_1_1_io_1_1_serial_1_1_r_p2040_1_1_uart_1_1_input_output.html" target="_top" xlink:title="This concrete class implements a Input stream using Raspberry Pi UART interface/hardware.">
<polygon fill="white" stroke="black" points="401.5,-279 401.5,-309 517.5,-309 517.5,-279 401.5,-279"/>
<text text-anchor="start" x="409.5" y="-297" font-family="Helvetica,sans-Serif" font-size="10.00">Cpl::Io::Serial::RP2040</text>
<text text-anchor="middle" x="459.5" y="-286" font-family="Helvetica,sans-Serif" font-size="10.00">::Uart::InputOutput</text>
</a>
</g>
</g>
<!-- Node8&#45;&gt;Node11 -->
<g id="edge10" class="edge"><title>Node8&#45;&gt;Node11</title>
<path fill="none" stroke="midnightblue" d="M316.744,-226.845C340.669,-241.372 375.682,-262.268 390,-269 397.447,-272.501 405.528,-275.836 413.442,-278.863"/>
<polygon fill="midnightblue" stroke="midnightblue" points="318.544,-223.844 308.183,-221.632 314.904,-229.822 318.544,-223.844"/>
</g>
<!-- Node12 -->
<g id="node12" class="node"><title>Node12</title>
<g id="a_node12"><a xlink:href="class_cpl_1_1_io_1_1_socket_1_1_input_output.html" target="_top" xlink:title="This concrete class provides a platform independent &#39;standard&#39; implementation of an InputOutput strea...">
<polygon fill="white" stroke="black" points="390,-328.5 390,-347.5 529,-347.5 529,-328.5 390,-328.5"/>
<text text-anchor="middle" x="459.5" y="-335.5" font-family="Helvetica,sans-Serif" font-size="10.00">Cpl::Io::Socket::InputOutput</text>
</a>
</g>
</g>
<!-- Node8&#45;&gt;Node12 -->
<g id="edge11" class="edge"><title>Node8&#45;&gt;Node12</title>
<path fill="none" stroke="midnightblue" d="M322.641,-226.357C333.459,-232.545 345.158,-240.548 354,-250 377.362,-274.972 363.496,-296.392 390,-318 395.377,-322.384 401.68,-325.807 408.245,-328.48"/>
<polygon fill="midnightblue" stroke="midnightblue" points="324.303,-223.277 313.843,-221.594 320.97,-229.433 324.303,-223.277"/>
</g>
<!-- Node13 -->
<g id="node13" class="node"><title>Node13</title>
<g id="a_node13"><a xlink:href="class_cpl_1_1_io_1_1_stdio_1_1_input_output__.html" target="_top" xlink:title="This concrete class implements a Input&#45;Output stream.">
<polygon fill="white" stroke="black" points="391.5,-164.5 391.5,-183.5 527.5,-183.5 527.5,-164.5 391.5,-164.5"/>
<text text-anchor="middle" x="459.5" y="-171.5" font-family="Helvetica,sans-Serif" font-size="10.00">Cpl::Io::Stdio::InputOutput_</text>
</a>
</g>
</g>
<!-- Node8&#45;&gt;Node13 -->
<g id="edge12" class="edge"><title>Node8&#45;&gt;Node13</title>
<path fill="none" stroke="midnightblue" d="M344.153,-200.176C367.556,-194.818 394.857,-188.569 416.912,-183.52"/>
<polygon fill="midnightblue" stroke="midnightblue" points="343.356,-196.768 334.389,-202.411 344.918,-203.591 343.356,-196.768"/>
</g>
<!-- Node14 -->
<g id="node14" class="node"><title>Node14</title>
<g id="a_node14"><a xlink:href="class_driver_1_1_uart_1_1_stream_1_1_input_output__.html" target="_top" xlink:title="This private concrete class implements the InputOutput stream interface using the UART stream driver.">
<polygon fill="white" stroke="black" points="407.5,-115 407.5,-145 511.5,-145 511.5,-115 407.5,-115"/>
<text text-anchor="start" x="415.5" y="-133" font-family="Helvetica,sans-Serif" font-size="10.00">Driver::Uart::Stream</text>
<text text-anchor="middle" x="459.5" y="-122" font-family="Helvetica,sans-Serif" font-size="10.00">::InputOutput_</text>
</a>
</g>
</g>
<!-- Node8&#45;&gt;Node14 -->
<g id="edge13" class="edge"><title>Node8&#45;&gt;Node14</title>
<path fill="none" stroke="midnightblue" d="M343.266,-198.662C347.003,-196.977 350.626,-195.097 354,-193 373.76,-180.721 370.555,-167.772 390,-155 395.714,-151.247 402.065,-147.965 408.53,-145.122"/>
<polygon fill="midnightblue" stroke="midnightblue" points="341.792,-195.482 333.816,-202.455 344.4,-201.978 341.792,-195.482"/>
</g>
<!-- Node15 -->
<g id="node15" class="node"><title>Node15</title>
<g id="a_node15"><a xlink:href="class_cpl_1_1_io_1_1_serial_1_1_renesas_1_1_rx62n_1_1_input_output.html" target="_top" xlink:title="This template provides a concrete implementation of the Cpl::Io InputOutput stream interface using on...">
<polygon fill="white" stroke="black" points="565,-109.5 565,-150.5 720,-150.5 720,-109.5 565,-109.5"/>
<text text-anchor="start" x="573" y="-138.5" font-family="Helvetica,sans-Serif" font-size="10.00">Cpl::Io::Serial::Renesas</text>
<text text-anchor="start" x="573" y="-127.5" font-family="Helvetica,sans-Serif" font-size="10.00">::Rx62n::InputOutput&lt; TXSIZE,</text>
<text text-anchor="middle" x="642.5" y="-116.5" font-family="Helvetica,sans-Serif" font-size="10.00"> RXSIZE &gt;</text>
</a>
</g>
</g>
<!-- Node14&#45;&gt;Node15 -->
<g id="edge14" class="edge"><title>Node14&#45;&gt;Node15</title>
<path fill="none" stroke="midnightblue" d="M522.188,-130C535.948,-130 550.701,-130 564.977,-130"/>
<polygon fill="midnightblue" stroke="midnightblue" points="521.883,-126.5 511.883,-130 521.883,-133.5 521.883,-126.5"/>
</g>
<!-- Node18 -->
<g id="node18" class="node"><title>Node18</title>
<g id="a_node18"><a xlink:href="class_cpl_1_1_io_1_1_stdio_1_1_std_in.html" target="_top" xlink:title="This concrete class represents the C&#45;library &#39;stdin&#39; stream.">
<polygon fill="white" stroke="black" points="408,-0.5 408,-19.5 511,-19.5 511,-0.5 408,-0.5"/>
<text text-anchor="middle" x="459.5" y="-7.5" font-family="Helvetica,sans-Serif" font-size="10.00">Cpl::Io::Stdio::StdIn</text>
</a>
</g>
</g>
<!-- Node17&#45;&gt;Node18 -->
<g id="edge17" class="edge"><title>Node17&#45;&gt;Node18</title>
<path fill="none" stroke="midnightblue" d="M344.153,-36.1757C367.556,-30.8184 394.857,-24.5689 416.912,-19.5201"/>
<polygon fill="midnightblue" stroke="midnightblue" points="343.356,-32.7677 334.389,-38.411 344.918,-39.5912 343.356,-32.7677"/>
</g>
<!-- Node19&#45;&gt;Node8 -->
<g id="edge24" class="edge"><title>Node19&#45;&gt;Node8</title>
<path fill="none" stroke="midnightblue" d="M170.502,-302.097C185.183,-287.49 207.586,-266.232 229,-250 243.103,-239.31 260.327,-228.868 272.956,-221.644"/>
<polygon fill="midnightblue" stroke="midnightblue" points="167.759,-299.892 163.195,-309.454 172.725,-304.825 167.759,-299.892"/>
</g>
<!-- Node20 -->
<g id="node20" class="node"><title>Node20</title>
<g id="a_node20"><a xlink:href="class_cpl_1_1_io_1_1_atomic_output_api.html" target="_top" xlink:title="This abstract template class defines a interface for an Atomic outputs to a stream.">
<polygon fill="white" stroke="black" points="229,-348 229,-378 354,-378 354,-348 229,-348"/>
<text text-anchor="start" x="237" y="-366" font-family="Helvetica,sans-Serif" font-size="10.00">Cpl::Io::AtomicOutputApi</text>
<text text-anchor="middle" x="291.5" y="-355" font-family="Helvetica,sans-Serif" font-size="10.00">&lt; CONTEXT &gt;</text>
</a>
</g>
</g>
<!-- Node19&#45;&gt;Node20 -->
<g id="edge19" class="edge"><title>Node19&#45;&gt;Node20</title>
<path fill="none" stroke="midnightblue" d="M193.534,-331.744C209.235,-336.805 227.416,-342.665 243.763,-347.935"/>
<polygon fill="midnightblue" stroke="midnightblue" points="194.21,-328.284 183.618,-328.547 192.062,-334.947 194.21,-328.284"/>
</g>
<!-- Node22 -->
<g id="node22" class="node"><title>Node22</title>
<g id="a_node22"><a xlink:href="class_cpl_1_1_io_1_1_file_1_1_output_api.html" target="_top" xlink:title="This abstract class defines the interface for a Random Access Input File.">
<polygon fill="white" stroke="black" points="233.5,-309.5 233.5,-328.5 349.5,-328.5 349.5,-309.5 233.5,-309.5"/>
<text text-anchor="middle" x="291.5" y="-316.5" font-family="Helvetica,sans-Serif" font-size="10.00">Cpl::Io::File::OutputApi</text>
</a>
</g>
</g>
<!-- Node19&#45;&gt;Node22 -->
<g id="edge21" class="edge"><title>Node19&#45;&gt;Node22</title>
<path fill="none" stroke="midnightblue" d="M203.397,-319C213.11,-319 223.376,-319 233.32,-319"/>
<polygon fill="midnightblue" stroke="midnightblue" points="203.115,-315.5 193.115,-319 203.115,-322.5 203.115,-315.5"/>
</g>
<!-- Node24 -->
<g id="node24" class="node"><title>Node24</title>
<g id="a_node24"><a xlink:href="class_cpl_1_1_io_1_1_serial_1_1_r_p2040_1_1_stdio_1_1_output.html" target="_top" xlink:title="This concrete class implements a Input stream using Raspberry Pi RP2040&#39;s SDK.">
<polygon fill="white" stroke="black" points="233.5,-260 233.5,-290 349.5,-290 349.5,-260 233.5,-260"/>
<text text-anchor="start" x="241.5" y="-278" font-family="Helvetica,sans-Serif" font-size="10.00">Cpl::Io::Serial::RP2040</text>
<text text-anchor="middle" x="291.5" y="-267" font-family="Helvetica,sans-Serif" font-size="10.00">::Stdio::Output</text>
</a>
</g>
</g>
<!-- Node19&#45;&gt;Node24 -->
<g id="edge25" class="edge"><title>Node19&#45;&gt;Node24</title>
<path fill="none" stroke="midnightblue" d="M193.534,-306.256C209.235,-301.195 227.416,-295.335 243.763,-290.065"/>
<polygon fill="midnightblue" stroke="midnightblue" points="192.062,-303.053 183.618,-309.453 194.21,-309.716 192.062,-303.053"/>
</g>
<!-- Node25 -->
<g id="node25" class="node"><title>Node25</title>
<g id="a_node25"><a xlink:href="class_cpl_1_1_io_1_1_stdio_1_1_output__.html" target="_top" xlink:title="This concrete class implements a Output stream using the underlying platform&#39;s native OS &#39;file interf...">
<polygon fill="white" stroke="black" points="234.5,-454.5 234.5,-473.5 348.5,-473.5 348.5,-454.5 234.5,-454.5"/>
<text text-anchor="middle" x="291.5" y="-461.5" font-family="Helvetica,sans-Serif" font-size="10.00">Cpl::Io::Stdio::Output_</text>
</a>
</g>
</g>
<!-- Node19&#45;&gt;Node25 -->
<g id="edge26" class="edge"><title>Node19&#45;&gt;Node25</title>
<path fill="none" stroke="midnightblue" d="M163.848,-337.508C176.632,-360.303 200.688,-399.281 229,-426 241.323,-437.629 257.751,-447.561 270.529,-454.351"/>
<polygon fill="midnightblue" stroke="midnightblue" points="166.811,-335.631 158.936,-328.543 160.672,-338.995 166.811,-335.631"/>
</g>
<!-- Node28 -->
<g id="node28" class="node"><title>Node28</title>
<g id="a_node28"><a xlink:href="class_cpl_1_1_io_1_1_tee_output.html" target="_top" xlink:title="This concrete class implements a Output stream that outputs the data to MANY (or none) output streams...">
<polygon fill="white" stroke="black" points="243,-397.5 243,-416.5 340,-416.5 340,-397.5 243,-397.5"/>
<text text-anchor="middle" x="291.5" y="-404.5" font-family="Helvetica,sans-Serif" font-size="10.00">Cpl::Io::TeeOutput</text>
</a>
</g>
</g>
<!-- Node19&#45;&gt;Node28 -->
<g id="edge29" class="edge"><title>Node19&#45;&gt;Node28</title>
<path fill="none" stroke="midnightblue" d="M169.101,-336.799C183.162,-352.336 205.444,-374.46 229,-388 235.588,-391.787 243.016,-394.903 250.372,-397.437"/>
<polygon fill="midnightblue" stroke="midnightblue" points="171.415,-334.131 162.179,-328.941 166.163,-338.758 171.415,-334.131"/>
</g>
<!-- Node21 -->
<g id="node21" class="node"><title>Node21</title>
<g id="a_node21"><a xlink:href="class_cpl_1_1_io_1_1_atomic_output.html" target="_top" xlink:title="This concrete template class implements the AtomicOutputApi using a mutex to enforce the &#39;atomic&#45;ness...">
<polygon fill="white" stroke="black" points="404,-405 404,-435 515,-435 515,-405 404,-405"/>
<text text-anchor="start" x="412" y="-423" font-family="Helvetica,sans-Serif" font-size="10.00">Cpl::Io::AtomicOutput</text>
<text text-anchor="middle" x="459.5" y="-412" font-family="Helvetica,sans-Serif" font-size="10.00">&lt; CONTEXT &gt;</text>
</a>
</g>
</g>
<!-- Node20&#45;&gt;Node21 -->
<g id="edge20" class="edge"><title>Node20&#45;&gt;Node21</title>
<path fill="none" stroke="midnightblue" d="M346.131,-381.415C368.241,-389.007 393.543,-397.696 414.533,-404.903"/>
<polygon fill="midnightblue" stroke="midnightblue" points="347.144,-378.063 336.549,-378.125 344.87,-384.683 347.144,-378.063"/>
</g>
<!-- Node22&#45;&gt;Node5 -->
<g id="edge22" class="edge"><title>Node22&#45;&gt;Node5</title>
<path fill="none" stroke="midnightblue" d="M339.331,-305.866C344.401,-303.832 349.388,-301.547 354,-299 372.232,-288.931 371.552,-278.667 390,-269 397.324,-265.162 405.507,-262.032 413.596,-259.501"/>
<polygon fill="midnightblue" stroke="midnightblue" points="337.727,-302.727 329.556,-309.47 340.149,-309.294 337.727,-302.727"/>
</g>
<!-- Node23 -->
<g id="node23" class="node"><title>Node23</title>
<g id="a_node23"><a xlink:href="class_cpl_1_1_io_1_1_file_1_1_output.html" target="_top" xlink:title="This concrete class provides a platform independent &#39;standard&#39; implementation of a Cpl::Io::File::Out...">
<polygon fill="white" stroke="black" points="408.5,-366.5 408.5,-385.5 510.5,-385.5 510.5,-366.5 408.5,-366.5"/>
<text text-anchor="middle" x="459.5" y="-373.5" font-family="Helvetica,sans-Serif" font-size="10.00">Cpl::Io::File::Output</text>
</a>
</g>
</g>
<!-- Node22&#45;&gt;Node23 -->
<g id="edge23" class="edge"><title>Node22&#45;&gt;Node23</title>
<path fill="none" stroke="midnightblue" d="M337.015,-331.672C342.789,-333.63 348.576,-335.754 354,-338 370.715,-344.922 373.186,-350.321 390,-357 399.061,-360.599 409.053,-363.786 418.538,-366.473"/>
<polygon fill="midnightblue" stroke="midnightblue" points="337.971,-328.302 327.379,-328.541 335.809,-334.96 337.971,-328.302"/>
</g>
<!-- Node26 -->
<g id="node26" class="node"><title>Node26</title>
<g id="a_node26"><a xlink:href="class_cpl_1_1_io_1_1_stdio_1_1_std_err.html" target="_top" xlink:title="This concrete class represents the C&#45;library &#39;stderr&#39; stream.">
<polygon fill="white" stroke="black" points="406,-454.5 406,-473.5 513,-473.5 513,-454.5 406,-454.5"/>
<text text-anchor="middle" x="459.5" y="-461.5" font-family="Helvetica,sans-Serif" font-size="10.00">Cpl::Io::Stdio::StdErr</text>
</a>
</g>
</g>
<!-- Node25&#45;&gt;Node26 -->
<g id="edge27" class="edge"><title>Node25&#45;&gt;Node26</title>
<path fill="none" stroke="midnightblue" d="M358.857,-464C374.532,-464 391.033,-464 405.998,-464"/>
<polygon fill="midnightblue" stroke="midnightblue" points="358.7,-460.5 348.7,-464 358.7,-467.5 358.7,-460.5"/>
</g>
<!-- Node27 -->
<g id="node27" class="node"><title>Node27</title>
<g id="a_node27"><a xlink:href="class_cpl_1_1_io_1_1_stdio_1_1_std_out.html" target="_top" xlink:title="This concrete class represents the C&#45;library &#39;stdout&#39; stream.">
<polygon fill="white" stroke="black" points="404.5,-492.5 404.5,-511.5 514.5,-511.5 514.5,-492.5 404.5,-492.5"/>
<text text-anchor="middle" x="459.5" y="-499.5" font-family="Helvetica,sans-Serif" font-size="10.00">Cpl::Io::Stdio::StdOut</text>
</a>
</g>
</g>
<!-- Node25&#45;&gt;Node27 -->
<g id="edge28" class="edge"><title>Node25&#45;&gt;Node27</title>
<path fill="none" stroke="midnightblue" d="M344.153,-475.824C367.556,-481.182 394.857,-487.431 416.912,-492.48"/>
<polygon fill="midnightblue" stroke="midnightblue" points="344.918,-472.409 334.389,-473.589 343.356,-479.232 344.918,-472.409"/>
</g>
</g>
</svg>
