<?xml version="1.0" encoding="UTF-8" standalone="no"?>
<!DOCTYPE svg PUBLIC "-//W3C//DTD SVG 1.1//EN"
 "http://www.w3.org/Graphics/SVG/1.1/DTD/svg11.dtd">
<!-- Generated by graphviz version 2.38.0 (20140413.2041)
 -->
<!-- Title: Cpl::Io::Output Pages: 1 -->
<svg width="868pt" height="444pt"
 viewBox="0.00 0.00 868.00 443.50" xmlns="http://www.w3.org/2000/svg" xmlns:xlink="http://www.w3.org/1999/xlink">
<g id="graph0" class="graph" transform="scale(1 1) rotate(0) translate(4 439.5)">
<title>Cpl::Io::Output</title>
<polygon fill="white" stroke="none" points="-4,4 -4,-439.5 864,-439.5 864,4 -4,4"/>
<!-- Node1 -->
<g id="node1" class="node"><title>Node1</title>
<g id="a_node1"><a xlink:title="This partially abstract class defines a interface for operating on an output stream (example of a str...">
<polygon fill="#bfbfbf" stroke="black" points="253,-164.5 253,-183.5 333,-183.5 333,-164.5 253,-164.5"/>
<text text-anchor="middle" x="293" y="-171.5" font-family="Helvetica,sans-Serif" font-size="10.00">Cpl::Io::Output</text>
</a>
</g>
</g>
<!-- Node5 -->
<g id="node5" class="node"><title>Node5</title>
<g id="a_node5"><a xlink:href="class_cpl_1_1_io_1_1_atomic_output_api.html" target="_top" xlink:title="This abstract template class defines a interface for an Atomic outputs to a stream.">
<polygon fill="white" stroke="black" points="369,-386 369,-416 494,-416 494,-386 369,-386"/>
<text text-anchor="start" x="377" y="-404" font-family="Helvetica,sans-Serif" font-size="10.00">Cpl::Io::AtomicOutputApi</text>
<text text-anchor="middle" x="431.5" y="-393" font-family="Helvetica,sans-Serif" font-size="10.00">&lt; CONTEXT &gt;</text>
</a>
</g>
</g>
<!-- Node1&#45;&gt;Node5 -->
<g id="edge4" class="edge"><title>Node1&#45;&gt;Node5</title>
<path fill="none" stroke="midnightblue" d="M298.26,-193.795C306.725,-229.501 328.437,-305.734 369,-357 378.124,-368.531 391.035,-378.394 402.675,-385.842"/>
<polygon fill="midnightblue" stroke="midnightblue" points="301.598,-192.686 295.971,-183.709 294.771,-194.236 301.598,-192.686"/>
</g>
<!-- Node7 -->
<g id="node7" class="node"><title>Node7</title>
<g id="a_node7"><a xlink:href="class_cpl_1_1_io_1_1_file_1_1_output_api.html" target="_top" xlink:title="This abstract class defines the interface for a Random Access Input File.">
<polygon fill="white" stroke="black" points="373.5,-328.5 373.5,-347.5 489.5,-347.5 489.5,-328.5 373.5,-328.5"/>
<text text-anchor="middle" x="431.5" y="-335.5" font-family="Helvetica,sans-Serif" font-size="10.00">Cpl::Io::File::OutputApi</text>
</a>
</g>
</g>
<!-- Node1&#45;&gt;Node7 -->
<g id="edge6" class="edge"><title>Node1&#45;&gt;Node7</title>
<path fill="none" stroke="midnightblue" d="M308.662,-191.616C337.432,-226.182 400.409,-301.847 422.584,-328.489"/>
<polygon fill="midnightblue" stroke="midnightblue" points="311.217,-189.215 302.13,-183.768 305.837,-193.693 311.217,-189.215"/>
</g>
<!-- Node12 -->
<g id="node12" class="node"><title>Node12</title>
<g id="a_node12"><a xlink:href="class_cpl_1_1_io_1_1_input_output.html" target="_top" xlink:title="This abstract class defines a interface for operating on an input&#45;output stream (example of a stream ...">
<polygon fill="white" stroke="black" points="380.5,-186.5 380.5,-205.5 482.5,-205.5 482.5,-186.5 380.5,-186.5"/>
<text text-anchor="middle" x="431.5" y="-193.5" font-family="Helvetica,sans-Serif" font-size="10.00">Cpl::Io::InputOutput</text>
</a>
</g>
</g>
<!-- Node1&#45;&gt;Node12 -->
<g id="edge11" class="edge"><title>Node1&#45;&gt;Node12</title>
<path fill="none" stroke="midnightblue" d="M343.066,-181.908C355.203,-183.864 368.221,-185.962 380.406,-187.926"/>
<polygon fill="midnightblue" stroke="midnightblue" points="343.545,-178.44 333.115,-180.304 342.431,-185.351 343.545,-178.44"/>
</g>
<!-- Node20 -->
<g id="node20" class="node"><title>Node20</title>
<g id="a_node20"><a xlink:href="class_cpl_1_1_io_1_1_serial_1_1_r_p2040_1_1_stdio_1_1_output.html" target="_top" xlink:title="This concrete class implements a Input stream using Raspberry Pi RP2040&#39;s SDK.">
<polygon fill="white" stroke="black" points="373.5,-137 373.5,-167 489.5,-167 489.5,-137 373.5,-137"/>
<text text-anchor="start" x="381.5" y="-155" font-family="Helvetica,sans-Serif" font-size="10.00">Cpl::Io::Serial::RP2040</text>
<text text-anchor="middle" x="431.5" y="-144" font-family="Helvetica,sans-Serif" font-size="10.00">::Stdio::Output</text>
</a>
</g>
</g>
<!-- Node1&#45;&gt;Node20 -->
<g id="edge19" class="edge"><title>Node1&#45;&gt;Node20</title>
<path fill="none" stroke="midnightblue" d="M343.087,-166.089C352.892,-164.508 363.27,-162.836 373.32,-161.216"/>
<polygon fill="midnightblue" stroke="midnightblue" points="342.431,-162.649 333.115,-167.696 343.545,-169.56 342.431,-162.649"/>
</g>
<!-- Node21 -->
<g id="node21" class="node"><title>Node21</title>
<g id="a_node21"><a xlink:href="class_cpl_1_1_io_1_1_stdio_1_1_output__.html" target="_top" xlink:title="This concrete class implements a Output stream using the underlying platform&#39;s native OS &#39;file interf...">
<polygon fill="white" stroke="black" points="374.5,-79.5 374.5,-98.5 488.5,-98.5 488.5,-79.5 374.5,-79.5"/>
<text text-anchor="middle" x="431.5" y="-86.5" font-family="Helvetica,sans-Serif" font-size="10.00">Cpl::Io::Stdio::Output_</text>
</a>
</g>
</g>
<!-- Node1&#45;&gt;Node21 -->
<g id="edge20" class="edge"><title>Node1&#45;&gt;Node21</title>
<path fill="none" stroke="midnightblue" d="M317.731,-159.075C332.473,-149.817 351.821,-137.69 369,-127 384.558,-117.319 402.373,-106.32 414.811,-98.6562"/>
<polygon fill="midnightblue" stroke="midnightblue" points="315.814,-156.146 309.209,-164.43 319.538,-162.073 315.814,-156.146"/>
</g>
<!-- Node24 -->
<g id="node24" class="node"><title>Node24</title>
<g id="a_node24"><a xlink:href="class_cpl_1_1_io_1_1_tee_output.html" target="_top" xlink:title="This concrete class implements a Output stream that outputs the data to MANY (or none) output streams...">
<polygon fill="white" stroke="black" points="383,-41.5 383,-60.5 480,-60.5 480,-41.5 383,-41.5"/>
<text text-anchor="middle" x="431.5" y="-48.5" font-family="Helvetica,sans-Serif" font-size="10.00">Cpl::Io::TeeOutput</text>
</a>
</g>
</g>
<!-- Node1&#45;&gt;Node24 -->
<g id="edge23" class="edge"><title>Node1&#45;&gt;Node24</title>
<path fill="none" stroke="midnightblue" d="M302.782,-155.164C314.607,-131.822 337.815,-92.397 369,-70 374.355,-66.1539 380.509,-63.0715 386.808,-60.6049"/>
<polygon fill="midnightblue" stroke="midnightblue" points="299.534,-153.841 298.292,-164.363 305.824,-156.912 299.534,-153.841"/>
</g>
<!-- Node2 -->
<g id="node2" class="node"><title>Node2</title>
<g id="a_node2"><a xlink:href="class_cpl_1_1_io_1_1_close.html" target="_top" xlink:title="This abstract class defines a close operation that is intended to be used Input and Output streams/fi...">
<polygon fill="white" stroke="black" points="140.5,-183.5 140.5,-202.5 216.5,-202.5 216.5,-183.5 140.5,-183.5"/>
<text text-anchor="middle" x="178.5" y="-190.5" font-family="Helvetica,sans-Serif" font-size="10.00">Cpl::Io::Close</text>
</a>
</g>
</g>
<!-- Node2&#45;&gt;Node1 -->
<g id="edge1" class="edge"><title>Node2&#45;&gt;Node1</title>
<path fill="none" stroke="midnightblue" d="M226.719,-185.025C235.458,-183.549 244.497,-182.023 252.96,-180.593"/>
<polygon fill="midnightblue" stroke="midnightblue" points="225.926,-181.61 216.648,-186.726 227.092,-188.512 225.926,-181.61"/>
</g>
<!-- Node3 -->
<g id="node3" class="node"><title>Node3</title>
<g id="a_node3"><a xlink:href="class_cpl_1_1_container_1_1_item.html" target="_top" xlink:title="This class is used by the Container classes to implement a various types of singly linked containers.">
<polygon fill="white" stroke="black" points="0,-183.5 0,-202.5 104,-202.5 104,-183.5 0,-183.5"/>
<text text-anchor="middle" x="52" y="-190.5" font-family="Helvetica,sans-Serif" font-size="10.00">Cpl::Container::Item</text>
</a>
</g>
</g>
<!-- Node3&#45;&gt;Node2 -->
<g id="edge2" class="edge"><title>Node3&#45;&gt;Node2</title>
<path fill="none" stroke="midnightblue" d="M114.622,-193C123.408,-193 132.211,-193 140.33,-193"/>
<polygon fill="midnightblue" stroke="midnightblue" points="114.358,-189.5 104.358,-193 114.358,-196.5 114.358,-189.5"/>
</g>
<!-- Node4 -->
<g id="node4" class="node"><title>Node4</title>
<g id="a_node4"><a xlink:href="class_cpl_1_1_io_1_1_is_eos.html" target="_top" xlink:title="This abstract class defines a isEos() operation that is intended to be used Input and Output streams.">
<polygon fill="white" stroke="black" points="140,-145.5 140,-164.5 217,-164.5 217,-145.5 140,-145.5"/>
<text text-anchor="middle" x="178.5" y="-152.5" font-family="Helvetica,sans-Serif" font-size="10.00">Cpl::Io::IsEos</text>
</a>
</g>
</g>
<!-- Node4&#45;&gt;Node1 -->
<g id="edge3" class="edge"><title>Node4&#45;&gt;Node1</title>
<path fill="none" stroke="midnightblue" d="M227.193,-163.055C235.792,-164.507 244.665,-166.006 252.981,-167.41"/>
<polygon fill="midnightblue" stroke="midnightblue" points="227.717,-159.594 217.274,-161.38 226.551,-166.496 227.717,-159.594"/>
</g>
<!-- Node6 -->
<g id="node6" class="node"><title>Node6</title>
<g id="a_node6"><a xlink:href="class_cpl_1_1_io_1_1_atomic_output.html" target="_top" xlink:title="This concrete template class implements the AtomicOutputApi using a mutex to enforce the &#39;atomic&#45;ness...">
<polygon fill="white" stroke="black" points="544,-405 544,-435 655,-435 655,-405 544,-405"/>
<text text-anchor="start" x="552" y="-423" font-family="Helvetica,sans-Serif" font-size="10.00">Cpl::Io::AtomicOutput</text>
<text text-anchor="middle" x="599.5" y="-412" font-family="Helvetica,sans-Serif" font-size="10.00">&lt; CONTEXT &gt;</text>
</a>
</g>
</g>
<!-- Node5&#45;&gt;Node6 -->
<g id="edge5" class="edge"><title>Node5&#45;&gt;Node6</title>
<path fill="none" stroke="midnightblue" d="M504.319,-409.22C517.533,-410.733 531.132,-412.289 543.743,-413.733"/>
<polygon fill="midnightblue" stroke="midnightblue" points="504.645,-405.735 494.312,-408.075 503.849,-412.689 504.645,-405.735"/>
</g>
<!-- Node8 -->
<g id="node8" class="node"><title>Node8</title>
<g id="a_node8"><a xlink:href="class_cpl_1_1_io_1_1_file_1_1_input_output_api.html" target="_top" xlink:title="This abstract class defines the interface for a Random Access Input Output File.">
<polygon fill="white" stroke="black" points="530.5,-366.5 530.5,-385.5 668.5,-385.5 668.5,-366.5 530.5,-366.5"/>
<text text-anchor="middle" x="599.5" y="-373.5" font-family="Helvetica,sans-Serif" font-size="10.00">Cpl::Io::File::InputOutputApi</text>
</a>
</g>
</g>
<!-- Node7&#45;&gt;Node8 -->
<g id="edge7" class="edge"><title>Node7&#45;&gt;Node8</title>
<path fill="none" stroke="midnightblue" d="M484.153,-349.824C507.556,-355.182 534.857,-361.431 556.912,-366.48"/>
<polygon fill="midnightblue" stroke="midnightblue" points="484.918,-346.409 474.389,-347.589 483.356,-353.232 484.918,-346.409"/>
</g>
<!-- Node11 -->
<g id="node11" class="node"><title>Node11</title>
<g id="a_node11"><a xlink:href="class_cpl_1_1_io_1_1_file_1_1_output.html" target="_top" xlink:title="This concrete class provides a platform independent &#39;standard&#39; implementation of a Cpl::Io::File::Out...">
<polygon fill="white" stroke="black" points="548.5,-328.5 548.5,-347.5 650.5,-347.5 650.5,-328.5 548.5,-328.5"/>
<text text-anchor="middle" x="599.5" y="-335.5" font-family="Helvetica,sans-Serif" font-size="10.00">Cpl::Io::File::Output</text>
</a>
</g>
</g>
<!-- Node7&#45;&gt;Node11 -->
<g id="edge10" class="edge"><title>Node7&#45;&gt;Node11</title>
<path fill="none" stroke="midnightblue" d="M499.65,-338C515.96,-338 533.118,-338 548.476,-338"/>
<polygon fill="midnightblue" stroke="midnightblue" points="499.628,-334.5 489.628,-338 499.628,-341.5 499.628,-334.5"/>
</g>
<!-- Node9 -->
<g id="node9" class="node"><title>Node9</title>
<g id="a_node9"><a xlink:href="class_cpl_1_1_io_1_1_file_1_1_input_output.html" target="_top" xlink:title="This concrete class provides a platform independent &#39;standard&#39; implementation of an InputOutputFileAp...">
<polygon fill="white" stroke="black" points="720.5,-385.5 720.5,-404.5 844.5,-404.5 844.5,-385.5 720.5,-385.5"/>
<text text-anchor="middle" x="782.5" y="-392.5" font-family="Helvetica,sans-Serif" font-size="10.00">Cpl::Io::File::InputOutput</text>
</a>
</g>
</g>
<!-- Node8&#45;&gt;Node9 -->
<g id="edge8" class="edge"><title>Node8&#45;&gt;Node9</title>
<path fill="none" stroke="midnightblue" d="M678.702,-384.209C692.6,-385.668 706.893,-387.168 720.236,-388.569"/>
<polygon fill="midnightblue" stroke="midnightblue" points="678.981,-380.719 668.67,-383.156 678.25,-387.681 678.981,-380.719"/>
</g>
<!-- Node10 -->
<g id="node10" class="node"><title>Node10</title>
<g id="a_node10"><a xlink:href="class_cpl_1_1_io_1_1_file_1_1_null.html" target="_top" xlink:title="This concrete class implements a NULL InputOutputApi File that all of its input operations return &#39;En...">
<polygon fill="white" stroke="black" points="738,-347.5 738,-366.5 827,-366.5 827,-347.5 738,-347.5"/>
<text text-anchor="middle" x="782.5" y="-354.5" font-family="Helvetica,sans-Serif" font-size="10.00">Cpl::Io::File::Null</text>
</a>
</g>
</g>
<!-- Node8&#45;&gt;Node10 -->
<g id="edge9" class="edge"><title>Node8&#45;&gt;Node10</title>
<path fill="none" stroke="midnightblue" d="M678.818,-367.779C699.017,-365.658 720.041,-363.451 737.766,-361.591"/>
<polygon fill="midnightblue" stroke="midnightblue" points="678.25,-364.319 668.67,-368.844 678.981,-371.281 678.25,-364.319"/>
</g>
<!-- Node13 -->
<g id="node13" class="node"><title>Node13</title>
<g id="a_node13"><a xlink:href="class_cpl_1_1_io_1_1_null.html" target="_top" xlink:title="This concrete class implements a NULL InputOutput stream &#45; that all of its input operations return &#39;E...">
<polygon fill="white" stroke="black" points="565.5,-290.5 565.5,-309.5 633.5,-309.5 633.5,-290.5 565.5,-290.5"/>
<text text-anchor="middle" x="599.5" y="-297.5" font-family="Helvetica,sans-Serif" font-size="10.00">Cpl::Io::Null</text>
</a>
</g>
</g>
<!-- Node12&#45;&gt;Node13 -->
<g id="edge12" class="edge"><title>Node12&#45;&gt;Node13</title>
<path fill="none" stroke="midnightblue" d="M447.645,-213.189C465.501,-232.423 496.953,-263.212 530,-281 540.867,-286.849 553.697,-291.028 565.297,-293.949"/>
<polygon fill="midnightblue" stroke="midnightblue" points="450.177,-210.77 440.861,-205.725 444.997,-215.479 450.177,-210.77"/>
</g>
<!-- Node14 -->
<g id="node14" class="node"><title>Node14</title>
<g id="a_node14"><a xlink:href="class_cpl_1_1_io_1_1_ram_1_1_input_output.html" target="_top" xlink:title="This concrete class implements an InputOutput stream using a Ring Buffer.">
<polygon fill="white" stroke="black" points="535.5,-252.5 535.5,-271.5 663.5,-271.5 663.5,-252.5 535.5,-252.5"/>
<text text-anchor="middle" x="599.5" y="-259.5" font-family="Helvetica,sans-Serif" font-size="10.00">Cpl::Io::Ram::InputOutput</text>
</a>
</g>
</g>
<!-- Node12&#45;&gt;Node14 -->
<g id="edge13" class="edge"><title>Node12&#45;&gt;Node14</title>
<path fill="none" stroke="midnightblue" d="M459.555,-210.169C478.851,-219.926 505.597,-232.746 530,-242 540.194,-245.866 551.474,-249.437 561.888,-252.459"/>
<polygon fill="midnightblue" stroke="midnightblue" points="460.956,-206.955 450.459,-205.519 457.77,-213.188 460.956,-206.955"/>
</g>
<!-- Node15 -->
<g id="node15" class="node"><title>Node15</title>
<g id="a_node15"><a xlink:href="class_cpl_1_1_io_1_1_serial_1_1_r_p2040_1_1_uart_1_1_input_output.html" target="_top" xlink:title="This concrete class implements a Input stream using Raspberry Pi UART interface/hardware.">
<polygon fill="white" stroke="black" points="541.5,-203 541.5,-233 657.5,-233 657.5,-203 541.5,-203"/>
<text text-anchor="start" x="549.5" y="-221" font-family="Helvetica,sans-Serif" font-size="10.00">Cpl::Io::Serial::RP2040</text>
<text text-anchor="middle" x="599.5" y="-210" font-family="Helvetica,sans-Serif" font-size="10.00">::Uart::InputOutput</text>
</a>
</g>
</g>
<!-- Node12&#45;&gt;Node15 -->
<g id="edge14" class="edge"><title>Node12&#45;&gt;Node15</title>
<path fill="none" stroke="midnightblue" d="M492.959,-204.013C508.786,-206.11 525.796,-208.365 541.439,-210.438"/>
<polygon fill="midnightblue" stroke="midnightblue" points="493.129,-200.505 482.756,-202.66 492.209,-207.444 493.129,-200.505"/>
</g>
<!-- Node16 -->
<g id="node16" class="node"><title>Node16</title>
<g id="a_node16"><a xlink:href="class_cpl_1_1_io_1_1_socket_1_1_input_output.html" target="_top" xlink:title="This concrete class provides a platform independent &#39;standard&#39; implementation of an InputOutput strea...">
<polygon fill="white" stroke="black" points="530,-164.5 530,-183.5 669,-183.5 669,-164.5 530,-164.5"/>
<text text-anchor="middle" x="599.5" y="-171.5" font-family="Helvetica,sans-Serif" font-size="10.00">Cpl::Io::Socket::InputOutput</text>
</a>
</g>
</g>
<!-- Node12&#45;&gt;Node16 -->
<g id="edge15" class="edge"><title>Node12&#45;&gt;Node16</title>
<path fill="none" stroke="midnightblue" d="M492.675,-188.025C504.707,-186.43 517.433,-184.744 529.73,-183.114"/>
<polygon fill="midnightblue" stroke="midnightblue" points="492.209,-184.556 482.756,-189.34 493.129,-191.495 492.209,-184.556"/>
</g>
<!-- Node17 -->
<g id="node17" class="node"><title>Node17</title>
<g id="a_node17"><a xlink:href="class_cpl_1_1_io_1_1_stdio_1_1_input_output__.html" target="_top" xlink:title="This concrete class implements a Input&#45;Output stream.">
<polygon fill="white" stroke="black" points="531.5,-126.5 531.5,-145.5 667.5,-145.5 667.5,-126.5 531.5,-126.5"/>
<text text-anchor="middle" x="599.5" y="-133.5" font-family="Helvetica,sans-Serif" font-size="10.00">Cpl::Io::Stdio::InputOutput_</text>
</a>
</g>
</g>
<!-- Node12&#45;&gt;Node17 -->
<g id="edge16" class="edge"><title>Node12&#45;&gt;Node17</title>
<path fill="none" stroke="midnightblue" d="M475.809,-183.211C481.995,-181.012 488.217,-178.591 494,-176 510.904,-168.426 512.934,-162.202 530,-155 538.642,-151.353 548.189,-148.197 557.344,-145.562"/>
<polygon fill="midnightblue" stroke="midnightblue" points="474.529,-179.949 466.184,-186.478 476.779,-186.578 474.529,-179.949"/>
</g>
<!-- Node18 -->
<g id="node18" class="node"><title>Node18</title>
<g id="a_node18"><a xlink:href="class_driver_1_1_uart_1_1_stream_1_1_input_output__.html" target="_top" xlink:title="This private concrete class implements the InputOutput stream interface using the UART stream driver.">
<polygon fill="white" stroke="black" points="547.5,-77 547.5,-107 651.5,-107 651.5,-77 547.5,-77"/>
<text text-anchor="start" x="555.5" y="-95" font-family="Helvetica,sans-Serif" font-size="10.00">Driver::Uart::Stream</text>
<text text-anchor="middle" x="599.5" y="-84" font-family="Helvetica,sans-Serif" font-size="10.00">::InputOutput_</text>
</a>
</g>
</g>
<!-- Node12&#45;&gt;Node18 -->
<g id="edge17" class="edge"><title>Node12&#45;&gt;Node18</title>
<path fill="none" stroke="midnightblue" d="M484.599,-182.13C487.925,-180.326 491.098,-178.293 494,-176 518.103,-156.956 506.239,-136.469 530,-117 535.19,-112.748 541.167,-109.184 547.383,-106.207"/>
<polygon fill="midnightblue" stroke="midnightblue" points="483.086,-178.974 475.515,-186.386 486.056,-185.312 483.086,-178.974"/>
</g>
<!-- Node19 -->
<g id="node19" class="node"><title>Node19</title>
<g id="a_node19"><a xlink:href="class_cpl_1_1_io_1_1_serial_1_1_renesas_1_1_rx62n_1_1_input_output.html" target="_top" xlink:title="This template provides a concrete implementation of the Cpl::Io InputOutput stream interface using on...">
<polygon fill="white" stroke="black" points="705,-71.5 705,-112.5 860,-112.5 860,-71.5 705,-71.5"/>
<text text-anchor="start" x="713" y="-100.5" font-family="Helvetica,sans-Serif" font-size="10.00">Cpl::Io::Serial::Renesas</text>
<text text-anchor="start" x="713" y="-89.5" font-family="Helvetica,sans-Serif" font-size="10.00">::Rx62n::InputOutput&lt; TXSIZE,</text>
<text text-anchor="middle" x="782.5" y="-78.5" font-family="Helvetica,sans-Serif" font-size="10.00"> RXSIZE &gt;</text>
</a>
</g>
</g>
<!-- Node18&#45;&gt;Node19 -->
<g id="edge18" class="edge"><title>Node18&#45;&gt;Node19</title>
<path fill="none" stroke="midnightblue" d="M662.188,-92C675.948,-92 690.701,-92 704.977,-92"/>
<polygon fill="midnightblue" stroke="midnightblue" points="661.883,-88.5001 651.883,-92 661.883,-95.5001 661.883,-88.5001"/>
</g>
<!-- Node22 -->
<g id="node22" class="node"><title>Node22</title>
<g id="a_node22"><a xlink:href="class_cpl_1_1_io_1_1_stdio_1_1_std_err.html" target="_top" xlink:title="This concrete class represents the C&#45;library &#39;stderr&#39; stream.">
<polygon fill="white" stroke="black" points="546,-38.5 546,-57.5 653,-57.5 653,-38.5 546,-38.5"/>
<text text-anchor="middle" x="599.5" y="-45.5" font-family="Helvetica,sans-Serif" font-size="10.00">Cpl::Io::Stdio::StdErr</text>
</a>
</g>
</g>
<!-- Node21&#45;&gt;Node22 -->
<g id="edge21" class="edge"><title>Node21&#45;&gt;Node22</title>
<path fill="none" stroke="midnightblue" d="M480.727,-77.0884C505.914,-70.8677 536.315,-63.3589 559.921,-57.5286"/>
<polygon fill="midnightblue" stroke="midnightblue" points="479.87,-73.6949 471.001,-79.4907 481.549,-80.4907 479.87,-73.6949"/>
</g>
<!-- Node23 -->
<g id="node23" class="node"><title>Node23</title>
<g id="a_node23"><a xlink:href="class_cpl_1_1_io_1_1_stdio_1_1_std_out.html" target="_top" xlink:title="This concrete class represents the C&#45;library &#39;stdout&#39; stream.">
<polygon fill="white" stroke="black" points="544.5,-0.5 544.5,-19.5 654.5,-19.5 654.5,-0.5 544.5,-0.5"/>
<text text-anchor="middle" x="599.5" y="-7.5" font-family="Helvetica,sans-Serif" font-size="10.00">Cpl::Io::Stdio::StdOut</text>
</a>
</g>
</g>
<!-- Node21&#45;&gt;Node23 -->
<g id="edge22" class="edge"><title>Node21&#45;&gt;Node23</title>
<path fill="none" stroke="midnightblue" d="M484.006,-75.4997C487.492,-73.8606 490.861,-72.0338 494,-70 514.351,-56.8133 509.46,-41.8895 530,-29 536.168,-25.1297 543.131,-22.0342 550.195,-19.5619"/>
<polygon fill="midnightblue" stroke="midnightblue" points="482.477,-72.3449 474.585,-79.4136 485.163,-78.8093 482.477,-72.3449"/>
</g>
</g>
</svg>
