<?xml version="1.0" encoding="UTF-8" standalone="no"?>
<!DOCTYPE svg PUBLIC "-//W3C//DTD SVG 1.1//EN"
 "http://www.w3.org/Graphics/SVG/1.1/DTD/svg11.dtd">
<!-- Generated by graphviz version 2.38.0 (20140413.2041)
 -->
<!-- Title: Cpl::TShell::Command Pages: 1 -->
<svg width="1283pt" height="458pt"
 viewBox="0.00 0.00 1283.00 457.50" xmlns="http://www.w3.org/2000/svg" xmlns:xlink="http://www.w3.org/1999/xlink">
<g id="graph0" class="graph" transform="scale(1 1) rotate(0) translate(4 453.5)">
<title>Cpl::TShell::Command</title>
<polygon fill="white" stroke="none" points="-4,4 -4,-453.5 1279,-453.5 1279,4 -4,4"/>
<!-- Node1 -->
<g id="node1" class="node"><title>Node1</title>
<g id="a_node1"><a xlink:title="This class defines the interface for a TShell command.">
<polygon fill="#bfbfbf" stroke="black" points="636,-221 636,-240 751,-240 751,-221 636,-221"/>
<text text-anchor="middle" x="693.5" y="-228" font-family="Helvetica,sans-Serif" font-size="10.00">Cpl::TShell::Command</text>
</a>
</g>
</g>
<!-- Node6 -->
<g id="node6" class="node"><title>Node6</title>
<g id="a_node6"><a xlink:href="class_cpl_1_1_t_shell_1_1_cmd_1_1_command.html" target="_top" xlink:title="This partially concrete class implements infrastructure and/or common functionality for a Shell comma...">
<polygon fill="white" stroke="black" points="787,-221 787,-240 928,-240 928,-221 787,-221"/>
<text text-anchor="middle" x="857.5" y="-228" font-family="Helvetica,sans-Serif" font-size="10.00">Cpl::TShell::Cmd::Command</text>
</a>
</g>
</g>
<!-- Node1&#45;&gt;Node6 -->
<g id="edge5" class="edge"><title>Node1&#45;&gt;Node6</title>
<path fill="none" stroke="midnightblue" d="M761.285,-230.5C769.692,-230.5 778.31,-230.5 786.762,-230.5"/>
<polygon fill="midnightblue" stroke="midnightblue" points="761.16,-227 751.16,-230.5 761.16,-234 761.16,-227"/>
</g>
<!-- Node2 -->
<g id="node2" class="node"><title>Node2</title>
<g id="a_node2"><a xlink:href="class_cpl_1_1_container_1_1_map_item.html" target="_top" xlink:title="This abstract class represents a item that can be contained in an Map (aka a sorted list implemented ...">
<polygon fill="white" stroke="black" points="478,-221 478,-240 600,-240 600,-221 478,-221"/>
<text text-anchor="middle" x="539" y="-228" font-family="Helvetica,sans-Serif" font-size="10.00">Cpl::Container::MapItem</text>
</a>
</g>
</g>
<!-- Node2&#45;&gt;Node1 -->
<g id="edge1" class="edge"><title>Node2&#45;&gt;Node1</title>
<path fill="none" stroke="midnightblue" d="M610.482,-230.5C618.915,-230.5 627.441,-230.5 635.647,-230.5"/>
<polygon fill="midnightblue" stroke="midnightblue" points="610.272,-227 600.272,-230.5 610.272,-234 610.272,-227"/>
</g>
<!-- Node3 -->
<g id="node3" class="node"><title>Node3</title>
<g id="a_node3"><a xlink:href="class_cpl_1_1_container_1_1_dict_item.html" target="_top" xlink:title="This abstract class represents a item that can be contained in Dictionary.">
<polygon fill="white" stroke="black" points="321,-221 321,-240 442,-240 442,-221 321,-221"/>
<text text-anchor="middle" x="381.5" y="-228" font-family="Helvetica,sans-Serif" font-size="10.00">Cpl::Container::DictItem</text>
</a>
</g>
</g>
<!-- Node3&#45;&gt;Node2 -->
<g id="edge2" class="edge"><title>Node3&#45;&gt;Node2</title>
<path fill="none" stroke="midnightblue" d="M452.188,-230.5C460.792,-230.5 469.528,-230.5 477.97,-230.5"/>
<polygon fill="midnightblue" stroke="midnightblue" points="452.176,-227 442.176,-230.5 452.176,-234 452.176,-227"/>
</g>
<!-- Node4 -->
<g id="node4" class="node"><title>Node4</title>
<g id="a_node4"><a xlink:href="class_cpl_1_1_container_1_1_extended_item.html" target="_top" xlink:title="This class is used by the Container classes to implement a various types of DOUBLY linked containers.">
<polygon fill="white" stroke="black" points="140,-221 140,-240 285,-240 285,-221 140,-221"/>
<text text-anchor="middle" x="212.5" y="-228" font-family="Helvetica,sans-Serif" font-size="10.00">Cpl::Container::ExtendedItem</text>
</a>
</g>
</g>
<!-- Node4&#45;&gt;Node3 -->
<g id="edge3" class="edge"><title>Node4&#45;&gt;Node3</title>
<path fill="none" stroke="midnightblue" d="M295.342,-230.5C303.93,-230.5 312.542,-230.5 320.813,-230.5"/>
<polygon fill="midnightblue" stroke="midnightblue" points="295.292,-227 285.292,-230.5 295.292,-234 295.292,-227"/>
</g>
<!-- Node5 -->
<g id="node5" class="node"><title>Node5</title>
<g id="a_node5"><a xlink:href="class_cpl_1_1_container_1_1_item.html" target="_top" xlink:title="This class is used by the Container classes to implement a various types of singly linked containers.">
<polygon fill="white" stroke="black" points="0,-221 0,-240 104,-240 104,-221 0,-221"/>
<text text-anchor="middle" x="52" y="-228" font-family="Helvetica,sans-Serif" font-size="10.00">Cpl::Container::Item</text>
</a>
</g>
</g>
<!-- Node5&#45;&gt;Node4 -->
<g id="edge4" class="edge"><title>Node5&#45;&gt;Node4</title>
<path fill="none" stroke="midnightblue" d="M114.109,-230.5C122.516,-230.5 131.212,-230.5 139.789,-230.5"/>
<polygon fill="midnightblue" stroke="midnightblue" points="114.023,-227 104.023,-230.5 114.023,-234 114.023,-227"/>
</g>
<!-- Node7 -->
<g id="node7" class="node"><title>Node7</title>
<g id="a_node7"><a xlink:href="class_cpl_1_1_dm_1_1_t_shell_1_1_dm.html" target="_top" xlink:title="This class implements a TShell command.">
<polygon fill="white" stroke="black" points="976.5,-430 976.5,-449 1083.5,-449 1083.5,-430 976.5,-430"/>
<text text-anchor="middle" x="1030" y="-437" font-family="Helvetica,sans-Serif" font-size="10.00">Cpl::Dm::TShell::Dm</text>
</a>
</g>
</g>
<!-- Node6&#45;&gt;Node7 -->
<g id="edge6" class="edge"><title>Node6&#45;&gt;Node7</title>
<path fill="none" stroke="midnightblue" d="M863.865,-250.034C875.468,-288.572 906.588,-374.626 964,-420.5 968.868,-424.39 974.506,-427.483 980.388,-429.944"/>
<polygon fill="midnightblue" stroke="midnightblue" points="867.132,-248.73 860.994,-240.094 860.407,-250.673 867.132,-248.73"/>
</g>
<!-- Node8 -->
<g id="node8" class="node"><title>Node8</title>
<g id="a_node8"><a xlink:href="class_cpl_1_1_t_shell_1_1_cmd_1_1_bye.html" target="_top" xlink:title="This class implements a Shell command.">
<polygon fill="white" stroke="black" points="973,-392 973,-411 1087,-411 1087,-392 973,-392"/>
<text text-anchor="middle" x="1030" y="-399" font-family="Helvetica,sans-Serif" font-size="10.00">Cpl::TShell::Cmd::Bye</text>
</a>
</g>
</g>
<!-- Node6&#45;&gt;Node8 -->
<g id="edge7" class="edge"><title>Node6&#45;&gt;Node8</title>
<path fill="none" stroke="midnightblue" d="M866.368,-249.203C880.858,-281.364 914.845,-347.093 964,-382.5 969.342,-386.348 975.458,-389.422 981.752,-391.876"/>
<polygon fill="midnightblue" stroke="midnightblue" points="869.567,-247.782 862.354,-240.021 863.153,-250.586 869.567,-247.782"/>
</g>
<!-- Node9 -->
<g id="node9" class="node"><title>Node9</title>
<g id="a_node9"><a xlink:href="class_cpl_1_1_t_shell_1_1_cmd_1_1_help.html" target="_top" xlink:title="This class implements a Shell command.">
<polygon fill="white" stroke="black" points="972,-354 972,-373 1088,-373 1088,-354 972,-354"/>
<text text-anchor="middle" x="1030" y="-361" font-family="Helvetica,sans-Serif" font-size="10.00">Cpl::TShell::Cmd::Help</text>
</a>
</g>
</g>
<!-- Node6&#45;&gt;Node9 -->
<g id="edge8" class="edge"><title>Node6&#45;&gt;Node9</title>
<path fill="none" stroke="midnightblue" d="M870.479,-248.667C888.033,-273.874 923.133,-319.205 964,-344.5 970.198,-348.336 977.207,-351.429 984.269,-353.913"/>
<polygon fill="midnightblue" stroke="midnightblue" points="873.153,-246.375 864.635,-240.075 867.365,-250.312 873.153,-246.375"/>
</g>
<!-- Node10 -->
<g id="node10" class="node"><title>Node10</title>
<g id="a_node10"><a xlink:href="class_cpl_1_1_t_shell_1_1_cmd_1_1_t_print.html" target="_top" xlink:title="This class implements a Shell command.">
<polygon fill="white" stroke="black" points="968.5,-316 968.5,-335 1091.5,-335 1091.5,-316 968.5,-316"/>
<text text-anchor="middle" x="1030" y="-323" font-family="Helvetica,sans-Serif" font-size="10.00">Cpl::TShell::Cmd::TPrint</text>
</a>
</g>
</g>
<!-- Node6&#45;&gt;Node10 -->
<g id="edge9" class="edge"><title>Node6&#45;&gt;Node10</title>
<path fill="none" stroke="midnightblue" d="M876.832,-246.714C896.949,-263.754 930.811,-290.29 964,-306.5 971.606,-310.215 980.076,-313.343 988.321,-315.921"/>
<polygon fill="midnightblue" stroke="midnightblue" points="878.956,-243.923 869.095,-240.05 874.388,-249.228 878.956,-243.923"/>
</g>
<!-- Node11 -->
<g id="node11" class="node"><title>Node11</title>
<g id="a_node11"><a xlink:href="class_cpl_1_1_t_shell_1_1_cmd_1_1_threads.html" target="_top" xlink:title="This class implements a Shell command.">
<polygon fill="white" stroke="black" points="964,-278 964,-297 1096,-297 1096,-278 964,-278"/>
<text text-anchor="middle" x="1030" y="-285" font-family="Helvetica,sans-Serif" font-size="10.00">Cpl::TShell::Cmd::Threads</text>
</a>
</g>
</g>
<!-- Node6&#45;&gt;Node11 -->
<g id="edge10" class="edge"><title>Node6&#45;&gt;Node11</title>
<path fill="none" stroke="midnightblue" d="M893.458,-243.701C913.913,-251.271 940.299,-260.776 964,-268.5 973.949,-271.742 984.836,-275.027 994.807,-277.932"/>
<polygon fill="midnightblue" stroke="midnightblue" points="894.524,-240.363 883.931,-240.155 892.082,-246.923 894.524,-240.363"/>
</g>
<!-- Node14 -->
<g id="node14" class="node"><title>Node14</title>
<g id="a_node14"><a xlink:href="class_cpl_1_1_t_shell_1_1_cmd_1_1_tick.html" target="_top" xlink:title="This class implements a Shell command.">
<polygon fill="white" stroke="black" points="972,-240 972,-259 1088,-259 1088,-240 972,-240"/>
<text text-anchor="middle" x="1030" y="-247" font-family="Helvetica,sans-Serif" font-size="10.00">Cpl::TShell::Cmd::Tick</text>
</a>
</g>
</g>
<!-- Node6&#45;&gt;Node14 -->
<g id="edge13" class="edge"><title>Node6&#45;&gt;Node14</title>
<path fill="none" stroke="midnightblue" d="M938.571,-239.423C949.772,-240.671 961.092,-241.933 971.754,-243.121"/>
<polygon fill="midnightblue" stroke="midnightblue" points="938.667,-235.912 928.341,-238.283 937.892,-242.869 938.667,-235.912"/>
</g>
<!-- Node15 -->
<g id="node15" class="node"><title>Node15</title>
<g id="a_node15"><a xlink:href="class_cpl_1_1_t_shell_1_1_cmd_1_1_trace.html" target="_top" xlink:title="This class implements a Shell command.">
<polygon fill="white" stroke="black" points="969,-202 969,-221 1091,-221 1091,-202 969,-202"/>
<text text-anchor="middle" x="1030" y="-209" font-family="Helvetica,sans-Serif" font-size="10.00">Cpl::TShell::Cmd::Trace</text>
</a>
</g>
</g>
<!-- Node6&#45;&gt;Node15 -->
<g id="edge14" class="edge"><title>Node6&#45;&gt;Node15</title>
<path fill="none" stroke="midnightblue" d="M938.488,-221.586C948.691,-220.449 958.994,-219.301 968.811,-218.207"/>
<polygon fill="midnightblue" stroke="midnightblue" points="937.892,-218.131 928.341,-222.717 938.667,-225.088 937.892,-218.131"/>
</g>
<!-- Node16 -->
<g id="node16" class="node"><title>Node16</title>
<g id="a_node16"><a xlink:href="class_storm_1_1_t_shell_1_1_filter.html" target="_top" xlink:title="This class implements a Shell command.">
<polygon fill="white" stroke="black" points="978,-164 978,-183 1082,-183 1082,-164 978,-164"/>
<text text-anchor="middle" x="1030" y="-171" font-family="Helvetica,sans-Serif" font-size="10.00">Storm::TShell::Filter</text>
</a>
</g>
</g>
<!-- Node6&#45;&gt;Node16 -->
<g id="edge15" class="edge"><title>Node6&#45;&gt;Node16</title>
<path fill="none" stroke="midnightblue" d="M893.458,-217.299C913.913,-209.729 940.299,-200.224 964,-192.5 973.949,-189.258 984.836,-185.973 994.807,-183.068"/>
<polygon fill="midnightblue" stroke="midnightblue" points="892.082,-214.077 883.931,-220.845 894.524,-220.637 892.082,-214.077"/>
</g>
<!-- Node17 -->
<g id="node17" class="node"><title>Node17</title>
<g id="a_node17"><a xlink:href="class_storm_1_1_t_shell_1_1_state.html" target="_top" xlink:title="This class implements a Shell command.">
<polygon fill="white" stroke="black" points="977,-126 977,-145 1083,-145 1083,-126 977,-126"/>
<text text-anchor="middle" x="1030" y="-133" font-family="Helvetica,sans-Serif" font-size="10.00">Storm::TShell::State</text>
</a>
</g>
</g>
<!-- Node6&#45;&gt;Node17 -->
<g id="edge16" class="edge"><title>Node6&#45;&gt;Node17</title>
<path fill="none" stroke="midnightblue" d="M876.832,-214.286C896.949,-197.246 930.811,-170.71 964,-154.5 971.606,-150.785 980.076,-147.657 988.321,-145.079"/>
<polygon fill="midnightblue" stroke="midnightblue" points="874.388,-211.772 869.095,-220.95 878.956,-217.077 874.388,-211.772"/>
</g>
<!-- Node18 -->
<g id="node18" class="node"><title>Node18</title>
<g id="a_node18"><a xlink:href="class_storm_1_1_t_shell_1_1_user.html" target="_top" xlink:title="This class implements a Shell command.">
<polygon fill="white" stroke="black" points="978.5,-88 978.5,-107 1081.5,-107 1081.5,-88 978.5,-88"/>
<text text-anchor="middle" x="1030" y="-95" font-family="Helvetica,sans-Serif" font-size="10.00">Storm::TShell::User</text>
</a>
</g>
</g>
<!-- Node6&#45;&gt;Node18 -->
<g id="edge17" class="edge"><title>Node6&#45;&gt;Node18</title>
<path fill="none" stroke="midnightblue" d="M870.479,-212.333C888.033,-187.126 923.133,-141.795 964,-116.5 970.198,-112.664 977.207,-109.571 984.269,-107.087"/>
<polygon fill="midnightblue" stroke="midnightblue" points="867.365,-210.688 864.635,-220.925 873.153,-214.625 867.365,-210.688"/>
</g>
<!-- Node19 -->
<g id="node19" class="node"><title>Node19</title>
<g id="a_node19"><a xlink:href="class_storm_1_1_t_shell_1_1_white_box.html" target="_top" xlink:title="This class implements a Shell command.">
<polygon fill="white" stroke="black" points="967.5,-50 967.5,-69 1092.5,-69 1092.5,-50 967.5,-50"/>
<text text-anchor="middle" x="1030" y="-57" font-family="Helvetica,sans-Serif" font-size="10.00">Storm::TShell::WhiteBox</text>
</a>
</g>
</g>
<!-- Node6&#45;&gt;Node19 -->
<g id="edge18" class="edge"><title>Node6&#45;&gt;Node19</title>
<path fill="none" stroke="midnightblue" d="M866.368,-211.797C880.858,-179.636 914.845,-113.907 964,-78.5 969.342,-74.6519 975.458,-71.5782 981.752,-69.1242"/>
<polygon fill="midnightblue" stroke="midnightblue" points="863.153,-210.414 862.354,-220.979 869.567,-213.218 863.153,-210.414"/>
</g>
<!-- Node20 -->
<g id="node20" class="node"><title>Node20</title>
<g id="a_node20"><a xlink:href="class_storm_1_1_thermostat_1_1_sim_house_1_1_cmd.html" target="_top" xlink:title="This class implements a Shell command.">
<polygon fill="white" stroke="black" points="978,-0.5 978,-30.5 1082,-30.5 1082,-0.5 978,-0.5"/>
<text text-anchor="start" x="986" y="-18.5" font-family="Helvetica,sans-Serif" font-size="10.00">Storm::Thermostat::</text>
<text text-anchor="middle" x="1030" y="-7.5" font-family="Helvetica,sans-Serif" font-size="10.00">SimHouse::Cmd</text>
</a>
</g>
</g>
<!-- Node6&#45;&gt;Node20 -->
<g id="edge19" class="edge"><title>Node6&#45;&gt;Node20</title>
<path fill="none" stroke="midnightblue" d="M864.372,-210.834C876.7,-172.754 908.795,-88.4852 964,-40.5 968.38,-36.6927 973.403,-33.4343 978.673,-30.6527"/>
<polygon fill="midnightblue" stroke="midnightblue" points="860.937,-210.093 861.296,-220.682 867.618,-212.18 860.937,-210.093"/>
</g>
<!-- Node12 -->
<g id="node12" class="node"><title>Node12</title>
<g id="a_node12"><a xlink:href="class_cpl_1_1_t_shell_1_1_cmd_1_1_free_r_t_o_s_1_1_threads.html" target="_top" xlink:title="This class implements a TShell command.">
<polygon fill="white" stroke="black" points="1132,-297.5 1132,-327.5 1275,-327.5 1275,-297.5 1132,-297.5"/>
<text text-anchor="start" x="1140" y="-315.5" font-family="Helvetica,sans-Serif" font-size="10.00">Cpl::TShell::Cmd::FreeRTOS</text>
<text text-anchor="middle" x="1203.5" y="-304.5" font-family="Helvetica,sans-Serif" font-size="10.00">::Threads</text>
</a>
</g>
</g>
<!-- Node11&#45;&gt;Node12 -->
<g id="edge11" class="edge"><title>Node11&#45;&gt;Node12</title>
<path fill="none" stroke="midnightblue" d="M1106.26,-298.47C1114.79,-299.714 1123.46,-300.978 1131.93,-302.212"/>
<polygon fill="midnightblue" stroke="midnightblue" points="1106.73,-295.002 1096.33,-297.023 1105.72,-301.929 1106.73,-295.002"/>
</g>
<!-- Node13 -->
<g id="node13" class="node"><title>Node13</title>
<g id="a_node13"><a xlink:href="class_cpl_1_1_t_shell_1_1_cmd_1_1_win32_1_1_threads.html" target="_top" xlink:title="This class implements a TShell command.">
<polygon fill="white" stroke="black" points="1141.5,-248.5 1141.5,-278.5 1265.5,-278.5 1265.5,-248.5 1141.5,-248.5"/>
<text text-anchor="start" x="1149.5" y="-266.5" font-family="Helvetica,sans-Serif" font-size="10.00">Cpl::TShell::Cmd::Win32</text>
<text text-anchor="middle" x="1203.5" y="-255.5" font-family="Helvetica,sans-Serif" font-size="10.00">::Threads</text>
</a>
</g>
</g>
<!-- Node11&#45;&gt;Node13 -->
<g id="edge12" class="edge"><title>Node11&#45;&gt;Node13</title>
<path fill="none" stroke="midnightblue" d="M1106.47,-276.938C1118.12,-275.308 1130.02,-273.643 1141.31,-272.063"/>
<polygon fill="midnightblue" stroke="midnightblue" points="1105.74,-273.506 1096.33,-278.358 1106.71,-280.438 1105.74,-273.506"/>
</g>
</g>
</svg>
