<?xml version="1.0" encoding="UTF-8" standalone="no"?>
<!DOCTYPE svg PUBLIC "-//W3C//DTD SVG 1.1//EN"
 "http://www.w3.org/Graphics/SVG/1.1/DTD/svg11.dtd">
<!-- Generated by graphviz version 2.38.0 (20140413.2041)
 -->
<!-- Title: Cpl::TShell::Command Pages: 1 -->
<svg width="1283pt" height="256pt"
 viewBox="0.00 0.00 1283.00 256.00" xmlns="http://www.w3.org/2000/svg" xmlns:xlink="http://www.w3.org/1999/xlink">
<g id="graph0" class="graph" transform="scale(1 1) rotate(0) translate(4 252)">
<title>Cpl::TShell::Command</title>
<polygon fill="white" stroke="none" points="-4,4 -4,-252 1279,-252 1279,4 -4,4"/>
<!-- Node1 -->
<g id="node1" class="node"><title>Node1</title>
<g id="a_node1"><a xlink:title="This class defines the interface for a TShell command.">
<polygon fill="#bfbfbf" stroke="black" points="636,-114.5 636,-133.5 751,-133.5 751,-114.5 636,-114.5"/>
<text text-anchor="middle" x="693.5" y="-121.5" font-family="Helvetica,sans-Serif" font-size="10.00">Cpl::TShell::Command</text>
</a>
</g>
</g>
<!-- Node6 -->
<g id="node6" class="node"><title>Node6</title>
<g id="a_node6"><a xlink:href="class_cpl_1_1_t_shell_1_1_cmd_1_1_command.html" target="_top" xlink:title="This partially concrete class implements infrastructure and/or common functionality for a Shell comma...">
<polygon fill="white" stroke="black" points="787,-114.5 787,-133.5 928,-133.5 928,-114.5 787,-114.5"/>
<text text-anchor="middle" x="857.5" y="-121.5" font-family="Helvetica,sans-Serif" font-size="10.00">Cpl::TShell::Cmd::Command</text>
</a>
</g>
</g>
<!-- Node1&#45;&gt;Node6 -->
<g id="edge5" class="edge"><title>Node1&#45;&gt;Node6</title>
<path fill="none" stroke="midnightblue" d="M761.285,-124C769.692,-124 778.31,-124 786.762,-124"/>
<polygon fill="midnightblue" stroke="midnightblue" points="761.16,-120.5 751.16,-124 761.16,-127.5 761.16,-120.5"/>
</g>
<!-- Node2 -->
<g id="node2" class="node"><title>Node2</title>
<g id="a_node2"><a xlink:href="class_cpl_1_1_container_1_1_map_item.html" target="_top" xlink:title="This abstract class represents a item that can be contained in an Map (aka a sorted list implemented ...">
<polygon fill="white" stroke="black" points="478,-114.5 478,-133.5 600,-133.5 600,-114.5 478,-114.5"/>
<text text-anchor="middle" x="539" y="-121.5" font-family="Helvetica,sans-Serif" font-size="10.00">Cpl::Container::MapItem</text>
</a>
</g>
</g>
<!-- Node2&#45;&gt;Node1 -->
<g id="edge1" class="edge"><title>Node2&#45;&gt;Node1</title>
<path fill="none" stroke="midnightblue" d="M610.482,-124C618.915,-124 627.441,-124 635.647,-124"/>
<polygon fill="midnightblue" stroke="midnightblue" points="610.272,-120.5 600.272,-124 610.272,-127.5 610.272,-120.5"/>
</g>
<!-- Node3 -->
<g id="node3" class="node"><title>Node3</title>
<g id="a_node3"><a xlink:href="class_cpl_1_1_container_1_1_dict_item.html" target="_top" xlink:title="This abstract class represents a item that can be contained in Dictionary.">
<polygon fill="white" stroke="black" points="321,-114.5 321,-133.5 442,-133.5 442,-114.5 321,-114.5"/>
<text text-anchor="middle" x="381.5" y="-121.5" font-family="Helvetica,sans-Serif" font-size="10.00">Cpl::Container::DictItem</text>
</a>
</g>
</g>
<!-- Node3&#45;&gt;Node2 -->
<g id="edge2" class="edge"><title>Node3&#45;&gt;Node2</title>
<path fill="none" stroke="midnightblue" d="M452.188,-124C460.792,-124 469.528,-124 477.97,-124"/>
<polygon fill="midnightblue" stroke="midnightblue" points="452.176,-120.5 442.176,-124 452.176,-127.5 452.176,-120.5"/>
</g>
<!-- Node4 -->
<g id="node4" class="node"><title>Node4</title>
<g id="a_node4"><a xlink:href="class_cpl_1_1_container_1_1_extended_item.html" target="_top" xlink:title="This class is used by the Container classes to implement a various types of DOUBLY linked containers.">
<polygon fill="white" stroke="black" points="140,-114.5 140,-133.5 285,-133.5 285,-114.5 140,-114.5"/>
<text text-anchor="middle" x="212.5" y="-121.5" font-family="Helvetica,sans-Serif" font-size="10.00">Cpl::Container::ExtendedItem</text>
</a>
</g>
</g>
<!-- Node4&#45;&gt;Node3 -->
<g id="edge3" class="edge"><title>Node4&#45;&gt;Node3</title>
<path fill="none" stroke="midnightblue" d="M295.342,-124C303.93,-124 312.542,-124 320.813,-124"/>
<polygon fill="midnightblue" stroke="midnightblue" points="295.292,-120.5 285.292,-124 295.292,-127.5 295.292,-120.5"/>
</g>
<!-- Node5 -->
<g id="node5" class="node"><title>Node5</title>
<g id="a_node5"><a xlink:href="class_cpl_1_1_container_1_1_item.html" target="_top" xlink:title="This class is used by the Container classes to implement a various types of singly linked containers.">
<polygon fill="white" stroke="black" points="0,-114.5 0,-133.5 104,-133.5 104,-114.5 0,-114.5"/>
<text text-anchor="middle" x="52" y="-121.5" font-family="Helvetica,sans-Serif" font-size="10.00">Cpl::Container::Item</text>
</a>
</g>
</g>
<!-- Node5&#45;&gt;Node4 -->
<g id="edge4" class="edge"><title>Node5&#45;&gt;Node4</title>
<path fill="none" stroke="midnightblue" d="M114.109,-124C122.516,-124 131.212,-124 139.789,-124"/>
<polygon fill="midnightblue" stroke="midnightblue" points="114.023,-120.5 104.023,-124 114.023,-127.5 114.023,-120.5"/>
</g>
<!-- Node7 -->
<g id="node7" class="node"><title>Node7</title>
<g id="a_node7"><a xlink:href="class_cpl_1_1_dm_1_1_t_shell_1_1_dm.html" target="_top" xlink:title="This class implements a TShell command.">
<polygon fill="white" stroke="black" points="976.5,-228.5 976.5,-247.5 1083.5,-247.5 1083.5,-228.5 976.5,-228.5"/>
<text text-anchor="middle" x="1030" y="-235.5" font-family="Helvetica,sans-Serif" font-size="10.00">Cpl::Dm::TShell::Dm</text>
</a>
</g>
</g>
<!-- Node6&#45;&gt;Node7 -->
<g id="edge6" class="edge"><title>Node6&#45;&gt;Node7</title>
<path fill="none" stroke="midnightblue" d="M873.114,-141.248C892.018,-162.503 926.943,-198.334 964,-219 970.88,-222.837 978.61,-225.967 986.276,-228.497"/>
<polygon fill="midnightblue" stroke="midnightblue" points="875.676,-138.86 866.466,-133.624 870.4,-143.461 875.676,-138.86"/>
</g>
<!-- Node8 -->
<g id="node8" class="node"><title>Node8</title>
<g id="a_node8"><a xlink:href="class_cpl_1_1_t_shell_1_1_cmd_1_1_bye.html" target="_top" xlink:title="This class implements a Shell command.">
<polygon fill="white" stroke="black" points="973,-190.5 973,-209.5 1087,-209.5 1087,-190.5 973,-190.5"/>
<text text-anchor="middle" x="1030" y="-197.5" font-family="Helvetica,sans-Serif" font-size="10.00">Cpl::TShell::Cmd::Bye</text>
</a>
</g>
</g>
<!-- Node6&#45;&gt;Node8 -->
<g id="edge7" class="edge"><title>Node6&#45;&gt;Node8</title>
<path fill="none" stroke="midnightblue" d="M882.556,-138.898C903.489,-151.394 934.944,-169.061 964,-181 972.7,-184.575 982.31,-187.771 991.412,-190.476"/>
<polygon fill="midnightblue" stroke="midnightblue" points="884.094,-135.738 873.726,-133.56 880.473,-141.729 884.094,-135.738"/>
</g>
<!-- Node9 -->
<g id="node9" class="node"><title>Node9</title>
<g id="a_node9"><a xlink:href="class_cpl_1_1_t_shell_1_1_cmd_1_1_help.html" target="_top" xlink:title="This class implements a Shell command.">
<polygon fill="white" stroke="black" points="972,-152.5 972,-171.5 1088,-171.5 1088,-152.5 972,-152.5"/>
<text text-anchor="middle" x="1030" y="-159.5" font-family="Helvetica,sans-Serif" font-size="10.00">Cpl::TShell::Cmd::Help</text>
</a>
</g>
</g>
<!-- Node6&#45;&gt;Node9 -->
<g id="edge8" class="edge"><title>Node6&#45;&gt;Node9</title>
<path fill="none" stroke="midnightblue" d="M911.554,-135.824C935.591,-141.182 963.632,-147.431 986.285,-152.48"/>
<polygon fill="midnightblue" stroke="midnightblue" points="912.046,-132.348 901.524,-133.589 910.523,-139.181 912.046,-132.348"/>
</g>
<!-- Node10 -->
<g id="node10" class="node"><title>Node10</title>
<g id="a_node10"><a xlink:href="class_cpl_1_1_t_shell_1_1_cmd_1_1_t_print.html" target="_top" xlink:title="This class implements a Shell command.">
<polygon fill="white" stroke="black" points="968.5,-114.5 968.5,-133.5 1091.5,-133.5 1091.5,-114.5 968.5,-114.5"/>
<text text-anchor="middle" x="1030" y="-121.5" font-family="Helvetica,sans-Serif" font-size="10.00">Cpl::TShell::Cmd::TPrint</text>
</a>
</g>
</g>
<!-- Node6&#45;&gt;Node10 -->
<g id="edge9" class="edge"><title>Node6&#45;&gt;Node10</title>
<path fill="none" stroke="midnightblue" d="M938.348,-124C948.41,-124 958.573,-124 968.273,-124"/>
<polygon fill="midnightblue" stroke="midnightblue" points="938.341,-120.5 928.341,-124 938.341,-127.5 938.341,-120.5"/>
</g>
<!-- Node11 -->
<g id="node11" class="node"><title>Node11</title>
<g id="a_node11"><a xlink:href="class_cpl_1_1_t_shell_1_1_cmd_1_1_threads.html" target="_top" xlink:title="This class implements a Shell command.">
<polygon fill="white" stroke="black" points="964,-76.5 964,-95.5 1096,-95.5 1096,-76.5 964,-76.5"/>
<text text-anchor="middle" x="1030" y="-83.5" font-family="Helvetica,sans-Serif" font-size="10.00">Cpl::TShell::Cmd::Threads</text>
</a>
</g>
</g>
<!-- Node6&#45;&gt;Node11 -->
<g id="edge10" class="edge"><title>Node6&#45;&gt;Node11</title>
<path fill="none" stroke="midnightblue" d="M911.554,-112.176C935.591,-106.818 963.632,-100.569 986.285,-95.5201"/>
<polygon fill="midnightblue" stroke="midnightblue" points="910.523,-108.819 901.524,-114.411 912.046,-115.652 910.523,-108.819"/>
</g>
<!-- Node14 -->
<g id="node14" class="node"><title>Node14</title>
<g id="a_node14"><a xlink:href="class_cpl_1_1_t_shell_1_1_cmd_1_1_tick.html" target="_top" xlink:title="This class implements a Shell command.">
<polygon fill="white" stroke="black" points="972,-38.5 972,-57.5 1088,-57.5 1088,-38.5 972,-38.5"/>
<text text-anchor="middle" x="1030" y="-45.5" font-family="Helvetica,sans-Serif" font-size="10.00">Cpl::TShell::Cmd::Tick</text>
</a>
</g>
</g>
<!-- Node6&#45;&gt;Node14 -->
<g id="edge13" class="edge"><title>Node6&#45;&gt;Node14</title>
<path fill="none" stroke="midnightblue" d="M882.556,-109.102C903.489,-96.6064 934.944,-78.939 964,-67 972.7,-63.4253 982.31,-60.2293 991.412,-57.5244"/>
<polygon fill="midnightblue" stroke="midnightblue" points="880.473,-106.271 873.726,-114.44 884.094,-112.262 880.473,-106.271"/>
</g>
<!-- Node15 -->
<g id="node15" class="node"><title>Node15</title>
<g id="a_node15"><a xlink:href="class_cpl_1_1_t_shell_1_1_cmd_1_1_trace.html" target="_top" xlink:title="This class implements a Shell command.">
<polygon fill="white" stroke="black" points="969,-0.5 969,-19.5 1091,-19.5 1091,-0.5 969,-0.5"/>
<text text-anchor="middle" x="1030" y="-7.5" font-family="Helvetica,sans-Serif" font-size="10.00">Cpl::TShell::Cmd::Trace</text>
</a>
</g>
</g>
<!-- Node6&#45;&gt;Node15 -->
<g id="edge14" class="edge"><title>Node6&#45;&gt;Node15</title>
<path fill="none" stroke="midnightblue" d="M873.114,-106.752C892.018,-85.4969 926.943,-49.6664 964,-29 970.88,-25.1633 978.61,-22.0334 986.276,-19.5032"/>
<polygon fill="midnightblue" stroke="midnightblue" points="870.4,-104.539 866.466,-114.376 875.676,-109.14 870.4,-104.539"/>
</g>
<!-- Node12 -->
<g id="node12" class="node"><title>Node12</title>
<g id="a_node12"><a xlink:href="class_cpl_1_1_t_shell_1_1_cmd_1_1_free_r_t_o_s_1_1_threads.html" target="_top" xlink:title="This class implements a TShell command.">
<polygon fill="white" stroke="black" points="1132,-95 1132,-125 1275,-125 1275,-95 1132,-95"/>
<text text-anchor="start" x="1140" y="-113" font-family="Helvetica,sans-Serif" font-size="10.00">Cpl::TShell::Cmd::FreeRTOS</text>
<text text-anchor="middle" x="1203.5" y="-102" font-family="Helvetica,sans-Serif" font-size="10.00">::Threads</text>
</a>
</g>
</g>
<!-- Node11&#45;&gt;Node12 -->
<g id="edge11" class="edge"><title>Node11&#45;&gt;Node12</title>
<path fill="none" stroke="midnightblue" d="M1106.26,-96.5314C1114.79,-97.7253 1123.46,-98.9389 1131.93,-100.124"/>
<polygon fill="midnightblue" stroke="midnightblue" points="1106.71,-93.0616 1096.33,-95.1418 1105.74,-99.9941 1106.71,-93.0616"/>
</g>
<!-- Node13 -->
<g id="node13" class="node"><title>Node13</title>
<g id="a_node13"><a xlink:href="class_cpl_1_1_t_shell_1_1_cmd_1_1_win32_1_1_threads.html" target="_top" xlink:title="This class implements a TShell command.">
<polygon fill="white" stroke="black" points="1141.5,-46 1141.5,-76 1265.5,-76 1265.5,-46 1141.5,-46"/>
<text text-anchor="start" x="1149.5" y="-64" font-family="Helvetica,sans-Serif" font-size="10.00">Cpl::TShell::Cmd::Win32</text>
<text text-anchor="middle" x="1203.5" y="-53" font-family="Helvetica,sans-Serif" font-size="10.00">::Threads</text>
</a>
</g>
</g>
<!-- Node11&#45;&gt;Node13 -->
<g id="edge12" class="edge"><title>Node11&#45;&gt;Node13</title>
<path fill="none" stroke="midnightblue" d="M1106.47,-74.9981C1118.12,-73.3003 1130.02,-71.5651 1141.31,-69.9202"/>
<polygon fill="midnightblue" stroke="midnightblue" points="1105.72,-71.5713 1096.33,-76.4773 1106.73,-78.4981 1105.72,-71.5713"/>
</g>
</g>
</svg>
