<?xml version="1.0" encoding="UTF-8" standalone="no"?>
<!DOCTYPE svg PUBLIC "-//W3C//DTD SVG 1.1//EN"
 "http://www.w3.org/Graphics/SVG/1.1/DTD/svg11.dtd">
<!-- Generated by graphviz version 2.38.0 (20140413.2041)
 -->
<!-- Title: Cpl::Io::Serial::RP2040::Uart::InputOutput Pages: 1 -->
<svg width="268pt" height="267pt"
 viewBox="0.00 0.00 268.00 267.00" xmlns="http://www.w3.org/2000/svg" xmlns:xlink="http://www.w3.org/1999/xlink">
<g id="graph0" class="graph" transform="scale(1 1) rotate(0) translate(4 263)">
<title>Cpl::Io::Serial::RP2040::Uart::InputOutput</title>
<polygon fill="white" stroke="none" points="-4,4 -4,-263 264,-263 264,4 -4,4"/>
<!-- Node1 -->
<g id="node1" class="node"><title>Node1</title>
<g id="a_node1"><a xlink:title="This concrete class implements a Input stream using Raspberry Pi UART interface/hardware.">
<polygon fill="#bfbfbf" stroke="black" points="50,-0.5 50,-30.5 166,-30.5 166,-0.5 50,-0.5"/>
<text text-anchor="start" x="58" y="-18.5" font-family="Helvetica,sans-Serif" font-size="10.00">Cpl::Io::Serial::RP2040</text>
<text text-anchor="middle" x="108" y="-7.5" font-family="Helvetica,sans-Serif" font-size="10.00">::Uart::InputOutput</text>
</a>
</g>
</g>
<!-- Node1&#45;&gt;Node1 -->
<g id="edge9" class="edge"><title>Node1&#45;&gt;Node1</title>
<path fill="none" stroke="#9a32cd" stroke-dasharray="5,2" d="M176.485,-20.1087C181.159,-19.0492 184,-17.5129 184,-15.5 184,-12.2793 176.726,-10.2789 166.312,-9.49892"/>
<polygon fill="#9a32cd" stroke="#9a32cd" points="175.745,-16.6773 166.312,-21.5011 176.694,-23.6127 175.745,-16.6773"/>
<text text-anchor="middle" x="222" y="-18.5" font-family="Helvetica,sans-Serif" font-size="10.00"> m_uart0Instance</text>
<text text-anchor="middle" x="222" y="-7.5" font-family="Helvetica,sans-Serif" font-size="10.00">m_uart1Instance</text>
</g>
<!-- Node2 -->
<g id="node2" class="node"><title>Node2</title>
<g id="a_node2"><a xlink:href="class_cpl_1_1_io_1_1_input_output.html" target="_top" xlink:title="This abstract class defines a interface for operating on an input&#45;output stream (example of a stream ...">
<polygon fill="white" stroke="black" points="57,-68.5 57,-87.5 159,-87.5 159,-68.5 57,-68.5"/>
<text text-anchor="middle" x="108" y="-75.5" font-family="Helvetica,sans-Serif" font-size="10.00">Cpl::Io::InputOutput</text>
</a>
</g>
</g>
<!-- Node2&#45;&gt;Node1 -->
<g id="edge1" class="edge"><title>Node2&#45;&gt;Node1</title>
<path fill="none" stroke="midnightblue" d="M108,-58.2154C108,-49.3565 108,-38.9577 108,-30.7587"/>
<polygon fill="midnightblue" stroke="midnightblue" points="104.5,-58.3318 108,-68.3318 111.5,-58.3319 104.5,-58.3318"/>
</g>
<!-- Node3 -->
<g id="node3" class="node"><title>Node3</title>
<g id="a_node3"><a xlink:href="class_cpl_1_1_io_1_1_input.html" target="_top" xlink:title="This partially abstract class defines a interface for operating on an input stream (example of a stre...">
<polygon fill="white" stroke="black" points="15.5,-125.5 15.5,-144.5 88.5,-144.5 88.5,-125.5 15.5,-125.5"/>
<text text-anchor="middle" x="52" y="-132.5" font-family="Helvetica,sans-Serif" font-size="10.00">Cpl::Io::Input</text>
</a>
</g>
</g>
<!-- Node3&#45;&gt;Node2 -->
<g id="edge2" class="edge"><title>Node3&#45;&gt;Node2</title>
<path fill="none" stroke="midnightblue" d="M68.1658,-118.123C78.2448,-108.224 90.831,-95.8624 99.1266,-87.7149"/>
<polygon fill="midnightblue" stroke="midnightblue" points="65.432,-115.902 60.75,-125.406 70.337,-120.896 65.432,-115.902"/>
</g>
<!-- Node4 -->
<g id="node4" class="node"><title>Node4</title>
<g id="a_node4"><a xlink:href="class_cpl_1_1_io_1_1_close.html" target="_top" xlink:title="This abstract class defines a close operation that is intended to be used Input and Output streams/fi...">
<polygon fill="white" stroke="black" points="14,-182.5 14,-201.5 90,-201.5 90,-182.5 14,-182.5"/>
<text text-anchor="middle" x="52" y="-189.5" font-family="Helvetica,sans-Serif" font-size="10.00">Cpl::Io::Close</text>
</a>
</g>
</g>
<!-- Node4&#45;&gt;Node3 -->
<g id="edge3" class="edge"><title>Node4&#45;&gt;Node3</title>
<path fill="none" stroke="midnightblue" d="M52,-172.117C52,-162.817 52,-152.056 52,-144.715"/>
<polygon fill="midnightblue" stroke="midnightblue" points="48.5001,-172.406 52,-182.406 55.5001,-172.406 48.5001,-172.406"/>
</g>
<!-- Node7 -->
<g id="node7" class="node"><title>Node7</title>
<g id="a_node7"><a xlink:href="class_cpl_1_1_io_1_1_output.html" target="_top" xlink:title="This partially abstract class defines a interface for operating on an output stream (example of a str...">
<polygon fill="white" stroke="black" points="107,-125.5 107,-144.5 187,-144.5 187,-125.5 107,-125.5"/>
<text text-anchor="middle" x="147" y="-132.5" font-family="Helvetica,sans-Serif" font-size="10.00">Cpl::Io::Output</text>
</a>
</g>
</g>
<!-- Node4&#45;&gt;Node7 -->
<g id="edge7" class="edge"><title>Node4&#45;&gt;Node7</title>
<path fill="none" stroke="midnightblue" d="M75.5013,-177.394C93.2649,-167.11 117.102,-153.309 132.26,-144.533"/>
<polygon fill="midnightblue" stroke="midnightblue" points="73.7444,-174.367 66.8438,-182.406 77.2517,-180.425 73.7444,-174.367"/>
</g>
<!-- Node5 -->
<g id="node5" class="node"><title>Node5</title>
<g id="a_node5"><a xlink:href="class_cpl_1_1_container_1_1_item.html" target="_top" xlink:title="This class is used by the Container classes to implement a various types of singly linked containers.">
<polygon fill="white" stroke="black" points="0,-239.5 0,-258.5 104,-258.5 104,-239.5 0,-239.5"/>
<text text-anchor="middle" x="52" y="-246.5" font-family="Helvetica,sans-Serif" font-size="10.00">Cpl::Container::Item</text>
</a>
</g>
</g>
<!-- Node5&#45;&gt;Node4 -->
<g id="edge4" class="edge"><title>Node5&#45;&gt;Node4</title>
<path fill="none" stroke="midnightblue" d="M52,-229.117C52,-219.817 52,-209.056 52,-201.715"/>
<polygon fill="midnightblue" stroke="midnightblue" points="48.5001,-229.406 52,-239.406 55.5001,-229.406 48.5001,-229.406"/>
</g>
<!-- Node6 -->
<g id="node6" class="node"><title>Node6</title>
<g id="a_node6"><a xlink:href="class_cpl_1_1_io_1_1_is_eos.html" target="_top" xlink:title="This abstract class defines a isEos() operation that is intended to be used Input and Output streams.">
<polygon fill="white" stroke="black" points="108.5,-182.5 108.5,-201.5 185.5,-201.5 185.5,-182.5 108.5,-182.5"/>
<text text-anchor="middle" x="147" y="-189.5" font-family="Helvetica,sans-Serif" font-size="10.00">Cpl::Io::IsEos</text>
</a>
</g>
</g>
<!-- Node6&#45;&gt;Node3 -->
<g id="edge5" class="edge"><title>Node6&#45;&gt;Node3</title>
<path fill="none" stroke="midnightblue" d="M123.499,-177.394C105.735,-167.11 81.8979,-153.309 66.7395,-144.533"/>
<polygon fill="midnightblue" stroke="midnightblue" points="121.748,-180.425 132.156,-182.406 125.256,-174.367 121.748,-180.425"/>
</g>
<!-- Node6&#45;&gt;Node7 -->
<g id="edge8" class="edge"><title>Node6&#45;&gt;Node7</title>
<path fill="none" stroke="midnightblue" d="M147,-172.117C147,-162.817 147,-152.056 147,-144.715"/>
<polygon fill="midnightblue" stroke="midnightblue" points="143.5,-172.406 147,-182.406 150.5,-172.406 143.5,-172.406"/>
</g>
<!-- Node7&#45;&gt;Node2 -->
<g id="edge6" class="edge"><title>Node7&#45;&gt;Node2</title>
<path fill="none" stroke="midnightblue" d="M135.112,-117.234C128.204,-107.493 119.785,-95.6204 114.18,-87.7149"/>
<polygon fill="midnightblue" stroke="midnightblue" points="132.267,-119.273 140.906,-125.406 137.977,-115.224 132.267,-119.273"/>
</g>
</g>
</svg>
