<?xml version="1.0" encoding="UTF-8" standalone="no"?>
<!DOCTYPE svg PUBLIC "-//W3C//DTD SVG 1.1//EN"
 "http://www.w3.org/Graphics/SVG/1.1/DTD/svg11.dtd">
<!-- Generated by graphviz version 2.38.0 (20140413.2041)
 -->
<!-- Title: Cpl::Container::DictItem Pages: 1 -->
<svg width="1346pt" height="458pt"
 viewBox="0.00 0.00 1346.00 457.50" xmlns="http://www.w3.org/2000/svg" xmlns:xlink="http://www.w3.org/1999/xlink">
<g id="graph0" class="graph" transform="scale(1 1) rotate(0) translate(4 453.5)">
<title>Cpl::Container::DictItem</title>
<polygon fill="white" stroke="none" points="-4,4 -4,-453.5 1342,-453.5 1342,4 -4,4"/>
<!-- Node1 -->
<g id="node1" class="node"><title>Node1</title>
<g id="a_node1"><a xlink:title="This abstract class represents a item that can be contained in Dictionary.">
<polygon fill="#bfbfbf" stroke="black" points="321,-145 321,-164 442,-164 442,-145 321,-145"/>
<text text-anchor="middle" x="381.5" y="-152" font-family="Helvetica,sans-Serif" font-size="10.00">Cpl::Container::DictItem</text>
</a>
</g>
</g>
<!-- Node4 -->
<g id="node4" class="node"><title>Node4</title>
<g id="a_node4"><a xlink:href="class_cpl_1_1_container_1_1_map_item.html" target="_top" xlink:title="This abstract class represents a item that can be contained in an Map (aka a sorted list implemented ...">
<polygon fill="white" stroke="black" points="478,-145 478,-164 600,-164 600,-145 478,-145"/>
<text text-anchor="middle" x="539" y="-152" font-family="Helvetica,sans-Serif" font-size="10.00">Cpl::Container::MapItem</text>
</a>
</g>
</g>
<!-- Node1&#45;&gt;Node4 -->
<g id="edge3" class="edge"><title>Node1&#45;&gt;Node4</title>
<path fill="none" stroke="midnightblue" d="M452.188,-154.5C460.792,-154.5 469.528,-154.5 477.97,-154.5"/>
<polygon fill="midnightblue" stroke="midnightblue" points="452.176,-151 442.176,-154.5 452.176,-158 452.176,-151"/>
</g>
<!-- Node2 -->
<g id="node2" class="node"><title>Node2</title>
<g id="a_node2"><a xlink:href="class_cpl_1_1_container_1_1_extended_item.html" target="_top" xlink:title="This class is used by the Container classes to implement a various types of DOUBLY linked containers.">
<polygon fill="white" stroke="black" points="140,-145 140,-164 285,-164 285,-145 140,-145"/>
<text text-anchor="middle" x="212.5" y="-152" font-family="Helvetica,sans-Serif" font-size="10.00">Cpl::Container::ExtendedItem</text>
</a>
</g>
</g>
<!-- Node2&#45;&gt;Node1 -->
<g id="edge1" class="edge"><title>Node2&#45;&gt;Node1</title>
<path fill="none" stroke="midnightblue" d="M295.342,-154.5C303.93,-154.5 312.542,-154.5 320.813,-154.5"/>
<polygon fill="midnightblue" stroke="midnightblue" points="295.292,-151 285.292,-154.5 295.292,-158 295.292,-151"/>
</g>
<!-- Node3 -->
<g id="node3" class="node"><title>Node3</title>
<g id="a_node3"><a xlink:href="class_cpl_1_1_container_1_1_item.html" target="_top" xlink:title="This class is used by the Container classes to implement a various types of singly linked containers.">
<polygon fill="white" stroke="black" points="0,-145 0,-164 104,-164 104,-145 0,-145"/>
<text text-anchor="middle" x="52" y="-152" font-family="Helvetica,sans-Serif" font-size="10.00">Cpl::Container::Item</text>
</a>
</g>
</g>
<!-- Node3&#45;&gt;Node2 -->
<g id="edge2" class="edge"><title>Node3&#45;&gt;Node2</title>
<path fill="none" stroke="midnightblue" d="M114.109,-154.5C122.516,-154.5 131.212,-154.5 139.789,-154.5"/>
<polygon fill="midnightblue" stroke="midnightblue" points="114.023,-151 104.023,-154.5 114.023,-158 114.023,-151"/>
</g>
<!-- Node5 -->
<g id="node5" class="node"><title>Node5</title>
<g id="a_node5"><a xlink:href="class_cpl_1_1_t_shell_1_1_command.html" target="_top" xlink:title="This class defines the interface for a TShell command.">
<polygon fill="white" stroke="black" points="662,-202 662,-221 777,-221 777,-202 662,-202"/>
<text text-anchor="middle" x="719.5" y="-209" font-family="Helvetica,sans-Serif" font-size="10.00">Cpl::TShell::Command</text>
</a>
</g>
</g>
<!-- Node4&#45;&gt;Node5 -->
<g id="edge4" class="edge"><title>Node4&#45;&gt;Node5</title>
<path fill="none" stroke="midnightblue" d="M579.633,-167.156C612.537,-177.663 658.629,-192.382 688.526,-201.928"/>
<polygon fill="midnightblue" stroke="midnightblue" points="580.468,-163.748 569.877,-164.041 578.338,-170.417 580.468,-163.748"/>
</g>
<!-- Node21 -->
<g id="node21" class="node"><title>Node21</title>
<g id="a_node21"><a xlink:href="class_cpl_1_1_text_1_1_string_item.html" target="_top" xlink:title="This partially concrete provides a wrapper class that allows a String object to be stored directly in...">
<polygon fill="white" stroke="black" points="666,-145 666,-164 773,-164 773,-145 666,-145"/>
<text text-anchor="middle" x="719.5" y="-152" font-family="Helvetica,sans-Serif" font-size="10.00">Cpl::Text::StringItem</text>
</a>
</g>
</g>
<!-- Node4&#45;&gt;Node21 -->
<g id="edge20" class="edge"><title>Node4&#45;&gt;Node21</title>
<path fill="none" stroke="midnightblue" d="M610.545,-154.5C628.995,-154.5 648.56,-154.5 665.895,-154.5"/>
<polygon fill="midnightblue" stroke="midnightblue" points="610.432,-151 600.432,-154.5 610.432,-158 610.432,-151"/>
</g>
<!-- Node25 -->
<g id="node25" class="node"><title>Node25</title>
<g id="a_node25"><a xlink:href="class_driver_1_1_t_pipe_1_1_rx_frame_handler_api.html" target="_top" xlink:title="This abstract class defines the &#39;Received Frame Handler&#39; interface for the TPipe.">
<polygon fill="white" stroke="black" points="636,-88 636,-107 803,-107 803,-88 636,-88"/>
<text text-anchor="middle" x="719.5" y="-95" font-family="Helvetica,sans-Serif" font-size="10.00">Driver::TPipe::RxFrameHandlerApi</text>
</a>
</g>
</g>
<!-- Node4&#45;&gt;Node25 -->
<g id="edge24" class="edge"><title>Node4&#45;&gt;Node25</title>
<path fill="none" stroke="midnightblue" d="M579.633,-141.844C612.537,-131.337 658.629,-116.618 688.526,-107.072"/>
<polygon fill="midnightblue" stroke="midnightblue" points="578.338,-138.583 569.877,-144.959 580.468,-145.252 578.338,-138.583"/>
</g>
<!-- Node6 -->
<g id="node6" class="node"><title>Node6</title>
<g id="a_node6"><a xlink:href="class_cpl_1_1_t_shell_1_1_cmd_1_1_command.html" target="_top" xlink:title="This partially concrete class implements infrastructure and/or common functionality for a Shell comma...">
<polygon fill="white" stroke="black" points="844.5,-221 844.5,-240 985.5,-240 985.5,-221 844.5,-221"/>
<text text-anchor="middle" x="915" y="-228" font-family="Helvetica,sans-Serif" font-size="10.00">Cpl::TShell::Cmd::Command</text>
</a>
</g>
</g>
<!-- Node5&#45;&gt;Node6 -->
<g id="edge5" class="edge"><title>Node5&#45;&gt;Node6</title>
<path fill="none" stroke="midnightblue" d="M787.28,-218.057C805.667,-219.863 825.656,-221.825 844.208,-223.647"/>
<polygon fill="midnightblue" stroke="midnightblue" points="787.543,-214.566 777.249,-217.072 786.859,-221.533 787.543,-214.566"/>
</g>
<!-- Node7 -->
<g id="node7" class="node"><title>Node7</title>
<g id="a_node7"><a xlink:href="class_cpl_1_1_dm_1_1_t_shell_1_1_dm.html" target="_top" xlink:title="This class implements a TShell command.">
<polygon fill="white" stroke="black" points="1039.5,-430 1039.5,-449 1146.5,-449 1146.5,-430 1039.5,-430"/>
<text text-anchor="middle" x="1093" y="-437" font-family="Helvetica,sans-Serif" font-size="10.00">Cpl::Dm::TShell::Dm</text>
</a>
</g>
</g>
<!-- Node6&#45;&gt;Node7 -->
<g id="edge6" class="edge"><title>Node6&#45;&gt;Node7</title>
<path fill="none" stroke="midnightblue" d="M921.949,-250.045C934.699,-288.602 968.365,-374.689 1027,-420.5 1032,-424.409 1037.79,-427.514 1043.8,-429.98"/>
<polygon fill="midnightblue" stroke="midnightblue" points="925.151,-248.566 918.781,-240.1 918.481,-250.691 925.151,-248.566"/>
</g>
<!-- Node8 -->
<g id="node8" class="node"><title>Node8</title>
<g id="a_node8"><a xlink:href="class_cpl_1_1_t_shell_1_1_cmd_1_1_bye.html" target="_top" xlink:title="This class implements a Shell command.">
<polygon fill="white" stroke="black" points="1036,-392 1036,-411 1150,-411 1150,-392 1036,-392"/>
<text text-anchor="middle" x="1093" y="-399" font-family="Helvetica,sans-Serif" font-size="10.00">Cpl::TShell::Cmd::Bye</text>
</a>
</g>
</g>
<!-- Node6&#45;&gt;Node8 -->
<g id="edge7" class="edge"><title>Node6&#45;&gt;Node8</title>
<path fill="none" stroke="midnightblue" d="M924.546,-249.201C940.201,-281.36 976.568,-347.086 1027,-382.5 1032.48,-386.351 1038.75,-389.429 1045.17,-391.888"/>
<polygon fill="midnightblue" stroke="midnightblue" points="927.642,-247.561 920.199,-240.02 921.315,-250.556 927.642,-247.561"/>
</g>
<!-- Node9 -->
<g id="node9" class="node"><title>Node9</title>
<g id="a_node9"><a xlink:href="class_cpl_1_1_t_shell_1_1_cmd_1_1_help.html" target="_top" xlink:title="This class implements a Shell command.">
<polygon fill="white" stroke="black" points="1035,-354 1035,-373 1151,-373 1151,-354 1035,-354"/>
<text text-anchor="middle" x="1093" y="-361" font-family="Helvetica,sans-Serif" font-size="10.00">Cpl::TShell::Cmd::Help</text>
</a>
</g>
</g>
<!-- Node6&#45;&gt;Node9 -->
<g id="edge8" class="edge"><title>Node6&#45;&gt;Node9</title>
<path fill="none" stroke="midnightblue" d="M928.581,-248.312C947.236,-273.424 984.625,-319.009 1027,-344.5 1033.35,-348.318 1040.51,-351.408 1047.69,-353.896"/>
<polygon fill="midnightblue" stroke="midnightblue" points="931.293,-246.091 922.581,-240.062 925.632,-250.208 931.293,-246.091"/>
</g>
<!-- Node10 -->
<g id="node10" class="node"><title>Node10</title>
<g id="a_node10"><a xlink:href="class_cpl_1_1_t_shell_1_1_cmd_1_1_t_print.html" target="_top" xlink:title="This class implements a Shell command.">
<polygon fill="white" stroke="black" points="1031.5,-316 1031.5,-335 1154.5,-335 1154.5,-316 1031.5,-316"/>
<text text-anchor="middle" x="1093" y="-323" font-family="Helvetica,sans-Serif" font-size="10.00">Cpl::TShell::Cmd::TPrint</text>
</a>
</g>
</g>
<!-- Node6&#45;&gt;Node10 -->
<g id="edge9" class="edge"><title>Node6&#45;&gt;Node10</title>
<path fill="none" stroke="midnightblue" d="M935.153,-246.428C956.411,-263.409 992.31,-290.068 1027,-306.5 1034.86,-310.224 1043.61,-313.383 1052.08,-315.992"/>
<polygon fill="midnightblue" stroke="midnightblue" points="937.214,-243.593 927.242,-240.013 932.805,-249.03 937.214,-243.593"/>
</g>
<!-- Node11 -->
<g id="node11" class="node"><title>Node11</title>
<g id="a_node11"><a xlink:href="class_cpl_1_1_t_shell_1_1_cmd_1_1_threads.html" target="_top" xlink:title="This class implements a Shell command.">
<polygon fill="white" stroke="black" points="1027,-278 1027,-297 1159,-297 1159,-278 1027,-278"/>
<text text-anchor="middle" x="1093" y="-285" font-family="Helvetica,sans-Serif" font-size="10.00">Cpl::TShell::Cmd::Threads</text>
</a>
</g>
</g>
<!-- Node6&#45;&gt;Node11 -->
<g id="edge10" class="edge"><title>Node6&#45;&gt;Node11</title>
<path fill="none" stroke="midnightblue" d="M952.251,-243.376C973.872,-250.938 1001.91,-260.544 1027,-268.5 1037.09,-271.699 1048.11,-274.997 1058.18,-277.929"/>
<polygon fill="midnightblue" stroke="midnightblue" points="953.397,-240.069 942.803,-240.058 951.078,-246.673 953.397,-240.069"/>
</g>
<!-- Node14 -->
<g id="node14" class="node"><title>Node14</title>
<g id="a_node14"><a xlink:href="class_cpl_1_1_t_shell_1_1_cmd_1_1_tick.html" target="_top" xlink:title="This class implements a Shell command.">
<polygon fill="white" stroke="black" points="1035,-240 1035,-259 1151,-259 1151,-240 1035,-240"/>
<text text-anchor="middle" x="1093" y="-247" font-family="Helvetica,sans-Serif" font-size="10.00">Cpl::TShell::Cmd::Tick</text>
</a>
</g>
</g>
<!-- Node6&#45;&gt;Node14 -->
<g id="edge13" class="edge"><title>Node6&#45;&gt;Node14</title>
<path fill="none" stroke="midnightblue" d="M995.603,-239.094C1008.83,-240.521 1022.31,-241.977 1034.84,-243.329"/>
<polygon fill="midnightblue" stroke="midnightblue" points="995.878,-235.603 985.56,-238.009 995.126,-242.562 995.878,-235.603"/>
</g>
<!-- Node15 -->
<g id="node15" class="node"><title>Node15</title>
<g id="a_node15"><a xlink:href="class_cpl_1_1_t_shell_1_1_cmd_1_1_trace.html" target="_top" xlink:title="This class implements a Shell command.">
<polygon fill="white" stroke="black" points="1032,-202 1032,-221 1154,-221 1154,-202 1032,-202"/>
<text text-anchor="middle" x="1093" y="-209" font-family="Helvetica,sans-Serif" font-size="10.00">Cpl::TShell::Cmd::Trace</text>
</a>
</g>
</g>
<!-- Node6&#45;&gt;Node15 -->
<g id="edge14" class="edge"><title>Node6&#45;&gt;Node15</title>
<path fill="none" stroke="midnightblue" d="M995.677,-221.899C1007.8,-220.589 1020.14,-219.257 1031.77,-218.003"/>
<polygon fill="midnightblue" stroke="midnightblue" points="995.126,-218.438 985.56,-222.991 995.878,-225.397 995.126,-218.438"/>
</g>
<!-- Node16 -->
<g id="node16" class="node"><title>Node16</title>
<g id="a_node16"><a xlink:href="class_storm_1_1_t_shell_1_1_filter.html" target="_top" xlink:title="This class implements a Shell command.">
<polygon fill="white" stroke="black" points="1041,-164 1041,-183 1145,-183 1145,-164 1041,-164"/>
<text text-anchor="middle" x="1093" y="-171" font-family="Helvetica,sans-Serif" font-size="10.00">Storm::TShell::Filter</text>
</a>
</g>
</g>
<!-- Node6&#45;&gt;Node16 -->
<g id="edge15" class="edge"><title>Node6&#45;&gt;Node16</title>
<path fill="none" stroke="midnightblue" d="M970.93,-218.196C977.765,-216.195 984.598,-213.96 991,-211.5 1007.89,-205.011 1010.23,-199.295 1027,-192.5 1035.72,-188.968 1045.33,-185.788 1054.44,-183.084"/>
<polygon fill="midnightblue" stroke="midnightblue" points="969.662,-214.915 960.961,-220.96 971.533,-221.661 969.662,-214.915"/>
</g>
<!-- Node17 -->
<g id="node17" class="node"><title>Node17</title>
<g id="a_node17"><a xlink:href="class_storm_1_1_t_shell_1_1_state.html" target="_top" xlink:title="This class implements a Shell command.">
<polygon fill="white" stroke="black" points="1040,-126 1040,-145 1146,-145 1146,-126 1040,-126"/>
<text text-anchor="middle" x="1093" y="-133" font-family="Helvetica,sans-Serif" font-size="10.00">Storm::TShell::State</text>
</a>
</g>
</g>
<!-- Node6&#45;&gt;Node17 -->
<g id="edge16" class="edge"><title>Node6&#45;&gt;Node17</title>
<path fill="none" stroke="midnightblue" d="M982.537,-216.731C985.496,-215.17 988.337,-213.433 991,-211.5 1015.25,-193.901 1003.07,-172.536 1027,-154.5 1032.16,-150.608 1038.11,-147.511 1044.26,-145.047"/>
<polygon fill="midnightblue" stroke="midnightblue" points="981.014,-213.578 973.36,-220.905 983.912,-219.95 981.014,-213.578"/>
</g>
<!-- Node18 -->
<g id="node18" class="node"><title>Node18</title>
<g id="a_node18"><a xlink:href="class_storm_1_1_t_shell_1_1_user.html" target="_top" xlink:title="This class implements a Shell command.">
<polygon fill="white" stroke="black" points="1041.5,-88 1041.5,-107 1144.5,-107 1144.5,-88 1041.5,-88"/>
<text text-anchor="middle" x="1093" y="-95" font-family="Helvetica,sans-Serif" font-size="10.00">Storm::TShell::User</text>
</a>
</g>
</g>
<!-- Node6&#45;&gt;Node18 -->
<g id="edge17" class="edge"><title>Node6&#45;&gt;Node18</title>
<path fill="none" stroke="midnightblue" d="M985.439,-215.821C987.388,-214.499 989.249,-213.062 991,-211.5 1024.7,-181.445 993.854,-147.161 1027,-116.5 1031.23,-112.588 1036.22,-109.478 1041.53,-107.005"/>
<polygon fill="midnightblue" stroke="midnightblue" points="983.402,-212.952 976.411,-220.913 986.841,-219.049 983.402,-212.952"/>
</g>
<!-- Node19 -->
<g id="node19" class="node"><title>Node19</title>
<g id="a_node19"><a xlink:href="class_storm_1_1_t_shell_1_1_white_box.html" target="_top" xlink:title="This class implements a Shell command.">
<polygon fill="white" stroke="black" points="1030.5,-50 1030.5,-69 1155.5,-69 1155.5,-50 1030.5,-50"/>
<text text-anchor="middle" x="1093" y="-57" font-family="Helvetica,sans-Serif" font-size="10.00">Storm::TShell::WhiteBox</text>
</a>
</g>
</g>
<!-- Node6&#45;&gt;Node19 -->
<g id="edge18" class="edge"><title>Node6&#45;&gt;Node19</title>
<path fill="none" stroke="midnightblue" d="M986.319,-215.536C987.962,-214.291 989.528,-212.948 991,-211.5 1034.65,-168.551 984.134,-122.234 1027,-78.5 1030.79,-74.6377 1035.31,-71.5499 1040.18,-69.0831"/>
<polygon fill="midnightblue" stroke="midnightblue" points="984.194,-212.736 977.538,-220.979 987.882,-218.685 984.194,-212.736"/>
</g>
<!-- Node20 -->
<g id="node20" class="node"><title>Node20</title>
<g id="a_node20"><a xlink:href="class_storm_1_1_thermostat_1_1_sim_house_1_1_cmd.html" target="_top" xlink:title="This class implements a Shell command.">
<polygon fill="white" stroke="black" points="1041,-0.5 1041,-30.5 1145,-30.5 1145,-0.5 1041,-0.5"/>
<text text-anchor="start" x="1049" y="-18.5" font-family="Helvetica,sans-Serif" font-size="10.00">Storm::Thermostat::</text>
<text text-anchor="middle" x="1093" y="-7.5" font-family="Helvetica,sans-Serif" font-size="10.00">SimHouse::Cmd</text>
</a>
</g>
</g>
<!-- Node6&#45;&gt;Node20 -->
<g id="edge19" class="edge"><title>Node6&#45;&gt;Node20</title>
<path fill="none" stroke="midnightblue" d="M987.045,-215.15C988.431,-214.014 989.753,-212.799 991,-211.5 1044.79,-155.478 976.637,-99.6231 1027,-40.5 1030.84,-35.9901 1035.59,-32.2907 1040.77,-29.2568"/>
<polygon fill="midnightblue" stroke="midnightblue" points="984.881,-212.385 978.488,-220.834 988.754,-218.216 984.881,-212.385"/>
</g>
<!-- Node12 -->
<g id="node12" class="node"><title>Node12</title>
<g id="a_node12"><a xlink:href="class_cpl_1_1_t_shell_1_1_cmd_1_1_free_r_t_o_s_1_1_threads.html" target="_top" xlink:title="This class implements a TShell command.">
<polygon fill="white" stroke="black" points="1195,-297.5 1195,-327.5 1338,-327.5 1338,-297.5 1195,-297.5"/>
<text text-anchor="start" x="1203" y="-315.5" font-family="Helvetica,sans-Serif" font-size="10.00">Cpl::TShell::Cmd::FreeRTOS</text>
<text text-anchor="middle" x="1266.5" y="-304.5" font-family="Helvetica,sans-Serif" font-size="10.00">::Threads</text>
</a>
</g>
</g>
<!-- Node11&#45;&gt;Node12 -->
<g id="edge11" class="edge"><title>Node11&#45;&gt;Node12</title>
<path fill="none" stroke="midnightblue" d="M1169.26,-298.47C1177.79,-299.714 1186.46,-300.978 1194.93,-302.212"/>
<polygon fill="midnightblue" stroke="midnightblue" points="1169.73,-295.002 1159.33,-297.023 1168.72,-301.929 1169.73,-295.002"/>
</g>
<!-- Node13 -->
<g id="node13" class="node"><title>Node13</title>
<g id="a_node13"><a xlink:href="class_cpl_1_1_t_shell_1_1_cmd_1_1_win32_1_1_threads.html" target="_top" xlink:title="This class implements a TShell command.">
<polygon fill="white" stroke="black" points="1204.5,-248.5 1204.5,-278.5 1328.5,-278.5 1328.5,-248.5 1204.5,-248.5"/>
<text text-anchor="start" x="1212.5" y="-266.5" font-family="Helvetica,sans-Serif" font-size="10.00">Cpl::TShell::Cmd::Win32</text>
<text text-anchor="middle" x="1266.5" y="-255.5" font-family="Helvetica,sans-Serif" font-size="10.00">::Threads</text>
</a>
</g>
</g>
<!-- Node11&#45;&gt;Node13 -->
<g id="edge12" class="edge"><title>Node11&#45;&gt;Node13</title>
<path fill="none" stroke="midnightblue" d="M1169.47,-276.938C1181.12,-275.308 1193.02,-273.643 1204.31,-272.063"/>
<polygon fill="midnightblue" stroke="midnightblue" points="1168.74,-273.506 1159.33,-278.358 1169.71,-280.438 1168.74,-273.506"/>
</g>
<!-- Node22 -->
<g id="node22" class="node"><title>Node22</title>
<g id="a_node22"><a xlink:href="class_cpl_1_1_text_1_1_d_f_string_item.html" target="_top" xlink:title="This concrete class implements the StringItem class for a &#39;String&#39; using a &#39;DFString&#39; as the internal...">
<polygon fill="white" stroke="black" points="855,-183 855,-202 975,-202 975,-183 855,-183"/>
<text text-anchor="middle" x="915" y="-190" font-family="Helvetica,sans-Serif" font-size="10.00">Cpl::Text::DFStringItem</text>
</a>
</g>
</g>
<!-- Node21&#45;&gt;Node22 -->
<g id="edge21" class="edge"><title>Node21&#45;&gt;Node22</title>
<path fill="none" stroke="midnightblue" d="M779.253,-166.038C806.852,-171.458 839.355,-177.841 865.523,-182.98"/>
<polygon fill="midnightblue" stroke="midnightblue" points="779.815,-162.582 769.328,-164.089 778.466,-169.451 779.815,-162.582"/>
</g>
<!-- Node23 -->
<g id="node23" class="node"><title>Node23</title>
<g id="a_node23"><a xlink:href="class_cpl_1_1_text_1_1_d_string_item.html" target="_top" xlink:title="This concrete class implements the StringItem class for a &#39;String&#39; using a &#39;DString&#39; as the internal ...">
<polygon fill="white" stroke="black" points="858,-145 858,-164 972,-164 972,-145 858,-145"/>
<text text-anchor="middle" x="915" y="-152" font-family="Helvetica,sans-Serif" font-size="10.00">Cpl::Text::DStringItem</text>
</a>
</g>
</g>
<!-- Node21&#45;&gt;Node23 -->
<g id="edge22" class="edge"><title>Node21&#45;&gt;Node23</title>
<path fill="none" stroke="midnightblue" d="M783.176,-154.5C807.148,-154.5 834.319,-154.5 857.663,-154.5"/>
<polygon fill="midnightblue" stroke="midnightblue" points="783.119,-151 773.119,-154.5 783.119,-158 783.119,-151"/>
</g>
<!-- Node24 -->
<g id="node24" class="node"><title>Node24</title>
<g id="a_node24"><a xlink:href="class_cpl_1_1_text_1_1_f_string_item.html" target="_top" xlink:title="This template class implements the StringItem class for a &#39;String&#39; using a &#39;FString&#39; as the internal ...">
<polygon fill="white" stroke="black" points="846,-107 846,-126 984,-126 984,-107 846,-107"/>
<text text-anchor="middle" x="915" y="-114" font-family="Helvetica,sans-Serif" font-size="10.00">Cpl::Text::FStringItem&lt; S &gt;</text>
</a>
</g>
</g>
<!-- Node21&#45;&gt;Node24 -->
<g id="edge23" class="edge"><title>Node21&#45;&gt;Node24</title>
<path fill="none" stroke="midnightblue" d="M779.253,-142.962C806.852,-137.542 839.355,-131.159 865.523,-126.02"/>
<polygon fill="midnightblue" stroke="midnightblue" points="778.466,-139.549 769.328,-144.911 779.815,-146.418 778.466,-139.549"/>
</g>
<!-- Node26 -->
<g id="node26" class="node"><title>Node26</title>
<g id="a_node26"><a xlink:href="class_driver_1_1_t_pipe_1_1_rx_frame_handler.html" target="_top" xlink:title="This partially concrete class provides functionality that is common to all Frame handlers.">
<polygon fill="white" stroke="black" points="839,-69 839,-88 991,-88 991,-69 839,-69"/>
<text text-anchor="middle" x="915" y="-76" font-family="Helvetica,sans-Serif" font-size="10.00">Driver::TPipe::RxFrameHandler</text>
</a>
</g>
</g>
<!-- Node25&#45;&gt;Node26 -->
<g id="edge25" class="edge"><title>Node25&#45;&gt;Node26</title>
<path fill="none" stroke="midnightblue" d="M813.142,-88.4034C821.707,-87.5624 830.315,-86.7171 838.698,-85.894"/>
<polygon fill="midnightblue" stroke="midnightblue" points="812.733,-84.9266 803.123,-89.3872 813.417,-91.8931 812.733,-84.9266"/>
</g>
</g>
</svg>
