<?xml version="1.0" encoding="UTF-8" standalone="no"?>
<!DOCTYPE svg PUBLIC "-//W3C//DTD SVG 1.1//EN"
 "http://www.w3.org/Graphics/SVG/1.1/DTD/svg11.dtd">
<!-- Generated by graphviz version 2.38.0 (20140413.2041)
 -->
<!-- Title: Driver::LED::PimoroniPico::RedGreenBlue Pages: 1 -->
<svg width="262pt" height="95pt"
 viewBox="0.00 0.00 261.50 95.00" xmlns="http://www.w3.org/2000/svg" xmlns:xlink="http://www.w3.org/1999/xlink">
<g id="graph0" class="graph" transform="scale(1 1) rotate(0) translate(4 91)">
<title>Driver::LED::PimoroniPico::RedGreenBlue</title>
<polygon fill="white" stroke="none" points="-4,4 -4,-91 257.5,-91 257.5,4 -4,4"/>
<!-- Node1 -->
<g id="node1" class="node"><title>Node1</title>
<g id="a_node1"><a xlink:title="This concrete class is wrapper to the pimoroni RGBLED class.">
<polygon fill="#bfbfbf" stroke="black" points="70.5,-0.5 70.5,-30.5 201.5,-30.5 201.5,-0.5 70.5,-0.5"/>
<text text-anchor="start" x="78.5" y="-18.5" font-family="Helvetica,sans-Serif" font-size="10.00">Driver::LED::PimoroniPico</text>
<text text-anchor="middle" x="136" y="-7.5" font-family="Helvetica,sans-Serif" font-size="10.00">::RedGreenBlue</text>
</a>
</g>
</g>
<!-- Node2 -->
<g id="node2" class="node"><title>Node2</title>
<g id="a_node2"><a xlink:href="class_driver_1_1_l_e_d_1_1_red_green_blue.html" target="_top" xlink:title="This abstract class defines a basic interface for a single Red&#45;Green&#45;Blue LED where the application c...">
<polygon fill="white" stroke="black" points="0,-67.5 0,-86.5 136,-86.5 136,-67.5 0,-67.5"/>
<text text-anchor="middle" x="68" y="-74.5" font-family="Helvetica,sans-Serif" font-size="10.00">Driver::LED::RedGreenBlue</text>
</a>
</g>
</g>
<!-- Node2&#45;&gt;Node1 -->
<g id="edge1" class="edge"><title>Node2&#45;&gt;Node1</title>
<path fill="none" stroke="midnightblue" d="M85.5475,-60.6459C96.1765,-51.3456 109.632,-39.572 119.974,-30.523"/>
<polygon fill="midnightblue" stroke="midnightblue" points="82.9638,-58.256 77.7427,-67.4751 87.5733,-63.524 82.9638,-58.256"/>
</g>
<!-- Node3 -->
<g id="node3" class="node"><title>Node3</title>
<g id="a_node3"><a xlink:title=" ">
<polygon fill="white" stroke="#bfbfbf" points="154.5,-67.5 154.5,-86.5 253.5,-86.5 253.5,-67.5 154.5,-67.5"/>
<text text-anchor="middle" x="204" y="-74.5" font-family="Helvetica,sans-Serif" font-size="10.00">pimoroni::RGBLED</text>
</a>
</g>
</g>
<!-- Node3&#45;&gt;Node1 -->
<g id="edge2" class="edge"><title>Node3&#45;&gt;Node1</title>
<path fill="none" stroke="midnightblue" d="M186.453,-60.6459C175.824,-51.3456 162.368,-39.572 152.026,-30.523"/>
<polygon fill="midnightblue" stroke="midnightblue" points="184.427,-63.524 194.257,-67.4751 189.036,-58.256 184.427,-63.524"/>
</g>
</g>
</svg>
