<?xml version="1.0" encoding="UTF-8" standalone="no"?>
<!DOCTYPE svg PUBLIC "-//W3C//DTD SVG 1.1//EN"
 "http://www.w3.org/Graphics/SVG/1.1/DTD/svg11.dtd">
<!-- Generated by graphviz version 2.38.0 (20140413.2041)
 -->
<!-- Title: Cpl::System::CounterSource_ Pages: 1 -->
<svg width="368pt" height="308pt"
 viewBox="0.00 0.00 368.00 308.00" xmlns="http://www.w3.org/2000/svg" xmlns:xlink="http://www.w3.org/1999/xlink">
<g id="graph0" class="graph" transform="scale(1 1) rotate(0) translate(4 304)">
<title>Cpl::System::CounterSource_</title>
<polygon fill="white" stroke="none" points="-4,4 -4,-304 364,-304 364,4 -4,4"/>
<!-- Node1 -->
<g id="node1" class="node"><title>Node1</title>
<g id="a_node1"><a xlink:title="This abstract class defines the interface for registering for an Counter object with the Timer Manage...">
<polygon fill="#bfbfbf" stroke="black" points="147.5,-280.5 147.5,-299.5 293.5,-299.5 293.5,-280.5 147.5,-280.5"/>
<text text-anchor="middle" x="220.5" y="-287.5" font-family="Helvetica,sans-Serif" font-size="10.00">Cpl::System::CounterSource_</text>
</a>
</g>
</g>
<!-- Node2 -->
<g id="node2" class="node"><title>Node2</title>
<g id="a_node2"><a xlink:href="class_cpl_1_1_system_1_1_timer_manager.html" target="_top" xlink:title="This mostly concrete class implements manages a list of Software Timers.">
<polygon fill="white" stroke="black" points="151,-224.5 151,-243.5 290,-243.5 290,-224.5 151,-224.5"/>
<text text-anchor="middle" x="220.5" y="-231.5" font-family="Helvetica,sans-Serif" font-size="10.00">Cpl::System::TimerManager</text>
</a>
</g>
</g>
<!-- Node1&#45;&gt;Node2 -->
<g id="edge1" class="edge"><title>Node1&#45;&gt;Node2</title>
<path fill="none" stroke="midnightblue" d="M220.5,-269.805C220.5,-260.91 220.5,-250.78 220.5,-243.751"/>
<polygon fill="midnightblue" stroke="midnightblue" points="217,-270.083 220.5,-280.083 224,-270.083 217,-270.083"/>
</g>
<!-- Node3 -->
<g id="node3" class="node"><title>Node3</title>
<g id="a_node3"><a xlink:href="class_cpl_1_1_system_1_1_event_loop.html" target="_top" xlink:title="This concrete class is a Runnable object that provides a event driven execution model for a thread.">
<polygon fill="white" stroke="black" points="159,-168.5 159,-187.5 282,-187.5 282,-168.5 159,-168.5"/>
<text text-anchor="middle" x="220.5" y="-175.5" font-family="Helvetica,sans-Serif" font-size="10.00">Cpl::System::EventLoop</text>
</a>
</g>
</g>
<!-- Node2&#45;&gt;Node3 -->
<g id="edge2" class="edge"><title>Node2&#45;&gt;Node3</title>
<path fill="none" stroke="midnightblue" d="M220.5,-213.805C220.5,-204.91 220.5,-194.78 220.5,-187.751"/>
<polygon fill="midnightblue" stroke="midnightblue" points="217,-214.083 220.5,-224.083 224,-214.083 217,-214.083"/>
</g>
<!-- Node4 -->
<g id="node4" class="node"><title>Node4</title>
<g id="a_node4"><a xlink:href="class_cpl_1_1_dm_1_1_event_loop.html" target="_top" xlink:title="This class extends the Cpl::System::EventLoop class to support the asynchronous change notification g...">
<polygon fill="white" stroke="black" points="100.5,-112.5 100.5,-131.5 204.5,-131.5 204.5,-112.5 100.5,-112.5"/>
<text text-anchor="middle" x="152.5" y="-119.5" font-family="Helvetica,sans-Serif" font-size="10.00">Cpl::Dm::EventLoop</text>
</a>
</g>
</g>
<!-- Node3&#45;&gt;Node4 -->
<g id="edge3" class="edge"><title>Node3&#45;&gt;Node4</title>
<path fill="none" stroke="midnightblue" d="M201.738,-162.101C189.5,-152.382 173.941,-140.027 163.624,-131.834"/>
<polygon fill="midnightblue" stroke="midnightblue" points="199.567,-164.846 209.575,-168.324 203.92,-159.364 199.567,-164.846"/>
</g>
<!-- Node8 -->
<g id="node8" class="node"><title>Node8</title>
<g id="a_node8"><a xlink:href="class_cpl_1_1_itc_1_1_mailbox_server.html" target="_top" xlink:title="This class collects the common functions of a generic server providing a mailbox and Event loop.">
<polygon fill="white" stroke="black" points="230.5,-112.5 230.5,-131.5 346.5,-131.5 346.5,-112.5 230.5,-112.5"/>
<text text-anchor="middle" x="288.5" y="-119.5" font-family="Helvetica,sans-Serif" font-size="10.00">Cpl::Itc::MailboxServer</text>
</a>
</g>
</g>
<!-- Node3&#45;&gt;Node8 -->
<g id="edge7" class="edge"><title>Node3&#45;&gt;Node8</title>
<path fill="none" stroke="midnightblue" d="M239.262,-162.101C251.5,-152.382 267.059,-140.027 277.376,-131.834"/>
<polygon fill="midnightblue" stroke="midnightblue" points="237.08,-159.364 231.425,-168.324 241.433,-164.846 237.08,-159.364"/>
</g>
<!-- Node5 -->
<g id="node5" class="node"><title>Node5</title>
<g id="a_node5"><a xlink:href="class_cpl_1_1_dm_1_1_mailbox_server.html" target="_top" xlink:title="This class extends the Cpl::Dm::EventLoop and Cpl::Itc:Mailbox classes to support the asynchronous ch...">
<polygon fill="white" stroke="black" points="88.5,-56.5 88.5,-75.5 208.5,-75.5 208.5,-56.5 88.5,-56.5"/>
<text text-anchor="middle" x="148.5" y="-63.5" font-family="Helvetica,sans-Serif" font-size="10.00">Cpl::Dm::MailboxServer</text>
</a>
</g>
</g>
<!-- Node4&#45;&gt;Node5 -->
<g id="edge4" class="edge"><title>Node4&#45;&gt;Node5</title>
<path fill="none" stroke="midnightblue" d="M151.1,-102.101C150.436,-93.1357 149.675,-82.8579 149.148,-75.7511"/>
<polygon fill="midnightblue" stroke="midnightblue" points="147.61,-102.369 151.839,-112.083 154.591,-101.852 147.61,-102.369"/>
</g>
<!-- Node6 -->
<g id="node6" class="node"><title>Node6</title>
<g id="a_node6"><a xlink:href="class_cpl_1_1_dm_1_1_periodic_scheduler.html" target="_top" xlink:title="This class extends the Cpl::Dm::MailboxServer class to add periodic scheduling to an event based &#39;thr...">
<polygon fill="white" stroke="black" points="0,-0.5 0,-19.5 137,-19.5 137,-0.5 0,-0.5"/>
<text text-anchor="middle" x="68.5" y="-7.5" font-family="Helvetica,sans-Serif" font-size="10.00">Cpl::Dm::PeriodicScheduler</text>
</a>
</g>
</g>
<!-- Node5&#45;&gt;Node6 -->
<g id="edge5" class="edge"><title>Node5&#45;&gt;Node6</title>
<path fill="none" stroke="midnightblue" d="M127.199,-50.6221C112.585,-40.7574 93.6732,-27.9919 81.3215,-19.6545"/>
<polygon fill="midnightblue" stroke="midnightblue" points="125.4,-53.6302 135.647,-56.324 129.316,-47.8282 125.4,-53.6302"/>
</g>
<!-- Node7 -->
<g id="node7" class="node"><title>Node7</title>
<g id="a_node7"><a xlink:href="class_cpl_1_1_persistent_1_1_record_server.html" target="_top" xlink:title="This concrete class provides an Event driven Runnable object for executing the read/write operation t...">
<polygon fill="white" stroke="black" points="155.5,-0.5 155.5,-19.5 301.5,-19.5 301.5,-0.5 155.5,-0.5"/>
<text text-anchor="middle" x="228.5" y="-7.5" font-family="Helvetica,sans-Serif" font-size="10.00">Cpl::Persistent::RecordServer</text>
</a>
</g>
</g>
<!-- Node5&#45;&gt;Node7 -->
<g id="edge6" class="edge"><title>Node5&#45;&gt;Node7</title>
<path fill="none" stroke="midnightblue" d="M169.801,-50.6221C184.415,-40.7574 203.327,-27.9919 215.679,-19.6545"/>
<polygon fill="midnightblue" stroke="midnightblue" points="167.684,-47.8282 161.353,-56.324 171.6,-53.6302 167.684,-47.8282"/>
</g>
<!-- Node9 -->
<g id="node9" class="node"><title>Node9</title>
<g id="a_node9"><a xlink:href="class_cpl_1_1_itc_1_1_periodic_scheduler.html" target="_top" xlink:title="This class extends the Cpl::Itc::MailboxServer class to add periodic scheduling to an event based &#39;th...">
<polygon fill="white" stroke="black" points="227,-56.5 227,-75.5 360,-75.5 360,-56.5 227,-56.5"/>
<text text-anchor="middle" x="293.5" y="-63.5" font-family="Helvetica,sans-Serif" font-size="10.00">Cpl::Itc::PeriodicScheduler</text>
</a>
</g>
</g>
<!-- Node8&#45;&gt;Node9 -->
<g id="edge8" class="edge"><title>Node8&#45;&gt;Node9</title>
<path fill="none" stroke="midnightblue" d="M290.25,-102.101C291.08,-93.1357 292.032,-82.8579 292.69,-75.7511"/>
<polygon fill="midnightblue" stroke="midnightblue" points="286.763,-101.803 289.326,-112.083 293.733,-102.448 286.763,-101.803"/>
</g>
</g>
</svg>
