<?xml version="1.0" encoding="UTF-8" standalone="no"?>
<!DOCTYPE svg PUBLIC "-//W3C//DTD SVG 1.1//EN"
 "http://www.w3.org/Graphics/SVG/1.1/DTD/svg11.dtd">
<!-- Generated by graphviz version 2.38.0 (20140413.2041)
 -->
<!-- Title: Cpl::Container::ExtendedItem Pages: 1 -->
<svg width="1424pt" height="584pt"
 viewBox="0.00 0.00 1424.00 583.50" xmlns="http://www.w3.org/2000/svg" xmlns:xlink="http://www.w3.org/1999/xlink">
<g id="graph0" class="graph" transform="scale(1 1) rotate(0) translate(4 579.5)">
<title>Cpl::Container::ExtendedItem</title>
<polygon fill="white" stroke="none" points="-4,4 -4,-579.5 1420,-579.5 1420,4 -4,4"/>
<!-- Node1 -->
<g id="node1" class="node"><title>Node1</title>
<g id="a_node1"><a xlink:title="This class is used by the Container classes to implement a various types of DOUBLY linked containers.">
<polygon fill="#bfbfbf" stroke="black" points="140,-146 140,-165 285,-165 285,-146 140,-146"/>
<text text-anchor="middle" x="212.5" y="-153" font-family="Helvetica,sans-Serif" font-size="10.00">Cpl::Container::ExtendedItem</text>
</a>
</g>
</g>
<!-- Node3 -->
<g id="node3" class="node"><title>Node3</title>
<g id="a_node3"><a xlink:href="class_cpl_1_1_container_1_1_dict_item.html" target="_top" xlink:title="This abstract class represents a item that can be contained in Dictionary.">
<polygon fill="white" stroke="black" points="337,-231 337,-250 458,-250 458,-231 337,-231"/>
<text text-anchor="middle" x="397.5" y="-238" font-family="Helvetica,sans-Serif" font-size="10.00">Cpl::Container::DictItem</text>
</a>
</g>
</g>
<!-- Node1&#45;&gt;Node3 -->
<g id="edge2" class="edge"><title>Node1&#45;&gt;Node3</title>
<path fill="none" stroke="midnightblue" d="M237.401,-170.571C258.753,-183.61 291.176,-202.381 321,-215.5 334.523,-221.449 349.932,-226.792 363.287,-230.997"/>
<polygon fill="midnightblue" stroke="midnightblue" points="239.041,-167.471 228.693,-165.196 235.364,-173.427 239.041,-167.471"/>
</g>
<!-- Node27 -->
<g id="node27" class="node"><title>Node27</title>
<g id="a_node27"><a xlink:href="class_cpl_1_1_dm_1_1_subscriber_api.html" target="_top" xlink:title="This abstract class defines the Subscriber interface &#45; for change notifications &#45; to a Model Points d...">
<polygon fill="white" stroke="black" points="338,-187 338,-206 457,-206 457,-187 338,-187"/>
<text text-anchor="middle" x="397.5" y="-194" font-family="Helvetica,sans-Serif" font-size="10.00">Cpl::Dm::SubscriberApi</text>
</a>
</g>
</g>
<!-- Node1&#45;&gt;Node27 -->
<g id="edge26" class="edge"><title>Node1&#45;&gt;Node27</title>
<path fill="none" stroke="midnightblue" d="M265.93,-167.247C293.838,-173.499 327.716,-181.089 353.97,-186.971"/>
<polygon fill="midnightblue" stroke="midnightblue" points="266.467,-163.78 255.944,-165.009 264.937,-170.611 266.467,-163.78"/>
</g>
<!-- Node31 -->
<g id="node31" class="node"><title>Node31</title>
<g id="a_node31"><a xlink:href="class_cpl_1_1_itc_1_1_message.html" target="_top" xlink:title="This abstract class defines the operations for an ITC message.">
<polygon fill="white" stroke="black" points="350.5,-146 350.5,-165 444.5,-165 444.5,-146 350.5,-146"/>
<text text-anchor="middle" x="397.5" y="-153" font-family="Helvetica,sans-Serif" font-size="10.00">Cpl::Itc::Message</text>
</a>
</g>
</g>
<!-- Node1&#45;&gt;Node31 -->
<g id="edge30" class="edge"><title>Node1&#45;&gt;Node31</title>
<path fill="none" stroke="midnightblue" d="M295.166,-155.5C314.085,-155.5 333.572,-155.5 350.34,-155.5"/>
<polygon fill="midnightblue" stroke="midnightblue" points="295.039,-152 285.039,-155.5 295.039,-159 295.039,-152"/>
</g>
<!-- Node35 -->
<g id="node35" class="node"><title>Node35</title>
<g id="a_node35"><a xlink:href="class_cpl_1_1_memory_1_1_pool___1_1_block_info__.html" target="_top" xlink:title="Helper class so I can put my blocks into to my standard containers.">
<polygon fill="white" stroke="black" points="346,-96.5 346,-126.5 449,-126.5 449,-96.5 346,-96.5"/>
<text text-anchor="start" x="354" y="-114.5" font-family="Helvetica,sans-Serif" font-size="10.00">Cpl::Memory::Pool_</text>
<text text-anchor="middle" x="397.5" y="-103.5" font-family="Helvetica,sans-Serif" font-size="10.00">::BlockInfo_</text>
</a>
</g>
</g>
<!-- Node1&#45;&gt;Node35 -->
<g id="edge34" class="edge"><title>Node1&#45;&gt;Node35</title>
<path fill="none" stroke="midnightblue" d="M263.09,-143.577C288.712,-137.416 319.926,-129.911 345.718,-123.71"/>
<polygon fill="midnightblue" stroke="midnightblue" points="262.113,-140.212 253.208,-145.953 263.749,-147.018 262.113,-140.212"/>
</g>
<!-- Node36 -->
<g id="node36" class="node"><title>Node36</title>
<g id="a_node36"><a xlink:href="class_cpl_1_1_system_1_1_counter_callback__.html" target="_top" xlink:title="This abstract class defines the call&#45;back interface for a Counter object.">
<polygon fill="white" stroke="black" points="321,-56 321,-75 474,-75 474,-56 321,-56"/>
<text text-anchor="middle" x="397.5" y="-63" font-family="Helvetica,sans-Serif" font-size="10.00">Cpl::System::CounterCallback_</text>
</a>
</g>
</g>
<!-- Node1&#45;&gt;Node36 -->
<g id="edge35" class="edge"><title>Node1&#45;&gt;Node36</title>
<path fill="none" stroke="midnightblue" d="M233.802,-139.821C254.666,-124.364 288.589,-101.011 321,-86.5 331.182,-81.9411 342.588,-78.1482 353.388,-75.0982"/>
<polygon fill="midnightblue" stroke="midnightblue" points="231.591,-137.105 225.703,-145.913 235.798,-142.699 231.591,-137.105"/>
</g>
<!-- Node2 -->
<g id="node2" class="node"><title>Node2</title>
<g id="a_node2"><a xlink:href="class_cpl_1_1_container_1_1_item.html" target="_top" xlink:title="This class is used by the Container classes to implement a various types of singly linked containers.">
<polygon fill="white" stroke="black" points="0,-146 0,-165 104,-165 104,-146 0,-146"/>
<text text-anchor="middle" x="52" y="-153" font-family="Helvetica,sans-Serif" font-size="10.00">Cpl::Container::Item</text>
</a>
</g>
</g>
<!-- Node2&#45;&gt;Node1 -->
<g id="edge1" class="edge"><title>Node2&#45;&gt;Node1</title>
<path fill="none" stroke="midnightblue" d="M114.109,-155.5C122.516,-155.5 131.212,-155.5 139.789,-155.5"/>
<polygon fill="midnightblue" stroke="midnightblue" points="114.023,-152 104.023,-155.5 114.023,-159 114.023,-152"/>
</g>
<!-- Node4 -->
<g id="node4" class="node"><title>Node4</title>
<g id="a_node4"><a xlink:href="class_cpl_1_1_container_1_1_map_item.html" target="_top" xlink:title="This abstract class represents a item that can be contained in an Map (aka a sorted list implemented ...">
<polygon fill="white" stroke="black" points="533,-231 533,-250 655,-250 655,-231 533,-231"/>
<text text-anchor="middle" x="594" y="-238" font-family="Helvetica,sans-Serif" font-size="10.00">Cpl::Container::MapItem</text>
</a>
</g>
</g>
<!-- Node3&#45;&gt;Node4 -->
<g id="edge3" class="edge"><title>Node3&#45;&gt;Node4</title>
<path fill="none" stroke="midnightblue" d="M468.354,-240.5C489.429,-240.5 512.372,-240.5 532.764,-240.5"/>
<polygon fill="midnightblue" stroke="midnightblue" points="468.178,-237 458.178,-240.5 468.178,-244 468.178,-237"/>
</g>
<!-- Node5 -->
<g id="node5" class="node"><title>Node5</title>
<g id="a_node5"><a xlink:href="class_cpl_1_1_t_shell_1_1_command.html" target="_top" xlink:title="This class defines the interface for a TShell command.">
<polygon fill="white" stroke="black" points="740,-328 740,-347 855,-347 855,-328 740,-328"/>
<text text-anchor="middle" x="797.5" y="-335" font-family="Helvetica,sans-Serif" font-size="10.00">Cpl::TShell::Command</text>
</a>
</g>
</g>
<!-- Node4&#45;&gt;Node5 -->
<g id="edge4" class="edge"><title>Node4&#45;&gt;Node5</title>
<path fill="none" stroke="midnightblue" d="M624.112,-254.514C665.624,-274.497 740.751,-310.663 776.524,-327.884"/>
<polygon fill="midnightblue" stroke="midnightblue" points="625.586,-251.339 615.057,-250.155 622.549,-257.647 625.586,-251.339"/>
</g>
<!-- Node21 -->
<g id="node21" class="node"><title>Node21</title>
<g id="a_node21"><a xlink:href="class_cpl_1_1_text_1_1_string_item.html" target="_top" xlink:title="This partially concrete provides a wrapper class that allows a String object to be stored directly in...">
<polygon fill="white" stroke="black" points="744,-252 744,-271 851,-271 851,-252 744,-252"/>
<text text-anchor="middle" x="797.5" y="-259" font-family="Helvetica,sans-Serif" font-size="10.00">Cpl::Text::StringItem</text>
</a>
</g>
</g>
<!-- Node4&#45;&gt;Node21 -->
<g id="edge20" class="edge"><title>Node4&#45;&gt;Node21</title>
<path fill="none" stroke="midnightblue" d="M665.282,-247.825C691.076,-250.513 719.811,-253.508 743.8,-256.008"/>
<polygon fill="midnightblue" stroke="midnightblue" points="665.493,-244.328 655.184,-246.772 664.767,-251.29 665.493,-244.328"/>
</g>
<!-- Node25 -->
<g id="node25" class="node"><title>Node25</title>
<g id="a_node25"><a xlink:href="class_driver_1_1_t_pipe_1_1_rx_frame_handler_api.html" target="_top" xlink:title="This abstract class defines the &#39;Received Frame Handler&#39; interface for the TPipe.">
<polygon fill="white" stroke="black" points="714,-214 714,-233 881,-233 881,-214 714,-214"/>
<text text-anchor="middle" x="797.5" y="-221" font-family="Helvetica,sans-Serif" font-size="10.00">Driver::TPipe::RxFrameHandlerApi</text>
</a>
</g>
</g>
<!-- Node4&#45;&gt;Node25 -->
<g id="edge24" class="edge"><title>Node4&#45;&gt;Node25</title>
<path fill="none" stroke="midnightblue" d="M665.316,-234.568C681,-233.244 697.77,-231.83 713.899,-230.469"/>
<polygon fill="midnightblue" stroke="midnightblue" points="664.854,-231.094 655.184,-235.422 665.443,-238.069 664.854,-231.094"/>
</g>
<!-- Node6 -->
<g id="node6" class="node"><title>Node6</title>
<g id="a_node6"><a xlink:href="class_cpl_1_1_t_shell_1_1_cmd_1_1_command.html" target="_top" xlink:title="This partially concrete class implements infrastructure and/or common functionality for a Shell comma...">
<polygon fill="white" stroke="black" points="922.5,-347 922.5,-366 1063.5,-366 1063.5,-347 922.5,-347"/>
<text text-anchor="middle" x="993" y="-354" font-family="Helvetica,sans-Serif" font-size="10.00">Cpl::TShell::Cmd::Command</text>
</a>
</g>
</g>
<!-- Node5&#45;&gt;Node6 -->
<g id="edge5" class="edge"><title>Node5&#45;&gt;Node6</title>
<path fill="none" stroke="midnightblue" d="M865.28,-344.057C883.667,-345.863 903.656,-347.825 922.208,-349.647"/>
<polygon fill="midnightblue" stroke="midnightblue" points="865.543,-340.566 855.249,-343.072 864.859,-347.533 865.543,-340.566"/>
</g>
<!-- Node7 -->
<g id="node7" class="node"><title>Node7</title>
<g id="a_node7"><a xlink:href="class_cpl_1_1_dm_1_1_t_shell_1_1_dm.html" target="_top" xlink:title="This class implements a TShell command.">
<polygon fill="white" stroke="black" points="1117.5,-556 1117.5,-575 1224.5,-575 1224.5,-556 1117.5,-556"/>
<text text-anchor="middle" x="1171" y="-563" font-family="Helvetica,sans-Serif" font-size="10.00">Cpl::Dm::TShell::Dm</text>
</a>
</g>
</g>
<!-- Node6&#45;&gt;Node7 -->
<g id="edge6" class="edge"><title>Node6&#45;&gt;Node7</title>
<path fill="none" stroke="midnightblue" d="M999.949,-376.045C1012.7,-414.602 1046.37,-500.689 1105,-546.5 1110,-550.409 1115.79,-553.514 1121.8,-555.98"/>
<polygon fill="midnightblue" stroke="midnightblue" points="1003.15,-374.566 996.781,-366.1 996.481,-376.691 1003.15,-374.566"/>
</g>
<!-- Node8 -->
<g id="node8" class="node"><title>Node8</title>
<g id="a_node8"><a xlink:href="class_cpl_1_1_t_shell_1_1_cmd_1_1_bye.html" target="_top" xlink:title="This class implements a Shell command.">
<polygon fill="white" stroke="black" points="1114,-518 1114,-537 1228,-537 1228,-518 1114,-518"/>
<text text-anchor="middle" x="1171" y="-525" font-family="Helvetica,sans-Serif" font-size="10.00">Cpl::TShell::Cmd::Bye</text>
</a>
</g>
</g>
<!-- Node6&#45;&gt;Node8 -->
<g id="edge7" class="edge"><title>Node6&#45;&gt;Node8</title>
<path fill="none" stroke="midnightblue" d="M1002.55,-375.201C1018.2,-407.36 1054.57,-473.086 1105,-508.5 1110.48,-512.351 1116.75,-515.429 1123.17,-517.888"/>
<polygon fill="midnightblue" stroke="midnightblue" points="1005.64,-373.561 998.199,-366.02 999.315,-376.556 1005.64,-373.561"/>
</g>
<!-- Node9 -->
<g id="node9" class="node"><title>Node9</title>
<g id="a_node9"><a xlink:href="class_cpl_1_1_t_shell_1_1_cmd_1_1_help.html" target="_top" xlink:title="This class implements a Shell command.">
<polygon fill="white" stroke="black" points="1113,-480 1113,-499 1229,-499 1229,-480 1113,-480"/>
<text text-anchor="middle" x="1171" y="-487" font-family="Helvetica,sans-Serif" font-size="10.00">Cpl::TShell::Cmd::Help</text>
</a>
</g>
</g>
<!-- Node6&#45;&gt;Node9 -->
<g id="edge8" class="edge"><title>Node6&#45;&gt;Node9</title>
<path fill="none" stroke="midnightblue" d="M1006.58,-374.312C1025.24,-399.424 1062.63,-445.009 1105,-470.5 1111.35,-474.318 1118.51,-477.408 1125.69,-479.896"/>
<polygon fill="midnightblue" stroke="midnightblue" points="1009.29,-372.091 1000.58,-366.062 1003.63,-376.208 1009.29,-372.091"/>
</g>
<!-- Node10 -->
<g id="node10" class="node"><title>Node10</title>
<g id="a_node10"><a xlink:href="class_cpl_1_1_t_shell_1_1_cmd_1_1_t_print.html" target="_top" xlink:title="This class implements a Shell command.">
<polygon fill="white" stroke="black" points="1109.5,-442 1109.5,-461 1232.5,-461 1232.5,-442 1109.5,-442"/>
<text text-anchor="middle" x="1171" y="-449" font-family="Helvetica,sans-Serif" font-size="10.00">Cpl::TShell::Cmd::TPrint</text>
</a>
</g>
</g>
<!-- Node6&#45;&gt;Node10 -->
<g id="edge9" class="edge"><title>Node6&#45;&gt;Node10</title>
<path fill="none" stroke="midnightblue" d="M1013.15,-372.428C1034.41,-389.409 1070.31,-416.068 1105,-432.5 1112.86,-436.224 1121.61,-439.383 1130.08,-441.992"/>
<polygon fill="midnightblue" stroke="midnightblue" points="1015.21,-369.593 1005.24,-366.013 1010.8,-375.03 1015.21,-369.593"/>
</g>
<!-- Node11 -->
<g id="node11" class="node"><title>Node11</title>
<g id="a_node11"><a xlink:href="class_cpl_1_1_t_shell_1_1_cmd_1_1_threads.html" target="_top" xlink:title="This class implements a Shell command.">
<polygon fill="white" stroke="black" points="1105,-404 1105,-423 1237,-423 1237,-404 1105,-404"/>
<text text-anchor="middle" x="1171" y="-411" font-family="Helvetica,sans-Serif" font-size="10.00">Cpl::TShell::Cmd::Threads</text>
</a>
</g>
</g>
<!-- Node6&#45;&gt;Node11 -->
<g id="edge10" class="edge"><title>Node6&#45;&gt;Node11</title>
<path fill="none" stroke="midnightblue" d="M1030.25,-369.376C1051.87,-376.938 1079.91,-386.544 1105,-394.5 1115.09,-397.699 1126.11,-400.997 1136.18,-403.929"/>
<polygon fill="midnightblue" stroke="midnightblue" points="1031.4,-366.069 1020.8,-366.058 1029.08,-372.673 1031.4,-366.069"/>
</g>
<!-- Node14 -->
<g id="node14" class="node"><title>Node14</title>
<g id="a_node14"><a xlink:href="class_cpl_1_1_t_shell_1_1_cmd_1_1_tick.html" target="_top" xlink:title="This class implements a Shell command.">
<polygon fill="white" stroke="black" points="1113,-366 1113,-385 1229,-385 1229,-366 1113,-366"/>
<text text-anchor="middle" x="1171" y="-373" font-family="Helvetica,sans-Serif" font-size="10.00">Cpl::TShell::Cmd::Tick</text>
</a>
</g>
</g>
<!-- Node6&#45;&gt;Node14 -->
<g id="edge13" class="edge"><title>Node6&#45;&gt;Node14</title>
<path fill="none" stroke="midnightblue" d="M1073.6,-365.094C1086.83,-366.521 1100.31,-367.977 1112.84,-369.329"/>
<polygon fill="midnightblue" stroke="midnightblue" points="1073.88,-361.603 1063.56,-364.009 1073.13,-368.562 1073.88,-361.603"/>
</g>
<!-- Node15 -->
<g id="node15" class="node"><title>Node15</title>
<g id="a_node15"><a xlink:href="class_cpl_1_1_t_shell_1_1_cmd_1_1_trace.html" target="_top" xlink:title="This class implements a Shell command.">
<polygon fill="white" stroke="black" points="1110,-328 1110,-347 1232,-347 1232,-328 1110,-328"/>
<text text-anchor="middle" x="1171" y="-335" font-family="Helvetica,sans-Serif" font-size="10.00">Cpl::TShell::Cmd::Trace</text>
</a>
</g>
</g>
<!-- Node6&#45;&gt;Node15 -->
<g id="edge14" class="edge"><title>Node6&#45;&gt;Node15</title>
<path fill="none" stroke="midnightblue" d="M1073.68,-347.899C1085.8,-346.589 1098.14,-345.257 1109.77,-344.003"/>
<polygon fill="midnightblue" stroke="midnightblue" points="1073.13,-344.438 1063.56,-348.991 1073.88,-351.397 1073.13,-344.438"/>
</g>
<!-- Node16 -->
<g id="node16" class="node"><title>Node16</title>
<g id="a_node16"><a xlink:href="class_storm_1_1_t_shell_1_1_filter.html" target="_top" xlink:title="This class implements a Shell command.">
<polygon fill="white" stroke="black" points="1119,-290 1119,-309 1223,-309 1223,-290 1119,-290"/>
<text text-anchor="middle" x="1171" y="-297" font-family="Helvetica,sans-Serif" font-size="10.00">Storm::TShell::Filter</text>
</a>
</g>
</g>
<!-- Node6&#45;&gt;Node16 -->
<g id="edge15" class="edge"><title>Node6&#45;&gt;Node16</title>
<path fill="none" stroke="midnightblue" d="M1048.93,-344.196C1055.77,-342.195 1062.6,-339.96 1069,-337.5 1085.89,-331.011 1088.23,-325.295 1105,-318.5 1113.72,-314.968 1123.33,-311.788 1132.44,-309.084"/>
<polygon fill="midnightblue" stroke="midnightblue" points="1047.66,-340.915 1038.96,-346.96 1049.53,-347.661 1047.66,-340.915"/>
</g>
<!-- Node17 -->
<g id="node17" class="node"><title>Node17</title>
<g id="a_node17"><a xlink:href="class_storm_1_1_t_shell_1_1_state.html" target="_top" xlink:title="This class implements a Shell command.">
<polygon fill="white" stroke="black" points="1118,-252 1118,-271 1224,-271 1224,-252 1118,-252"/>
<text text-anchor="middle" x="1171" y="-259" font-family="Helvetica,sans-Serif" font-size="10.00">Storm::TShell::State</text>
</a>
</g>
</g>
<!-- Node6&#45;&gt;Node17 -->
<g id="edge16" class="edge"><title>Node6&#45;&gt;Node17</title>
<path fill="none" stroke="midnightblue" d="M1060.54,-342.731C1063.5,-341.17 1066.34,-339.433 1069,-337.5 1093.25,-319.901 1081.07,-298.536 1105,-280.5 1110.16,-276.608 1116.11,-273.511 1122.26,-271.047"/>
<polygon fill="midnightblue" stroke="midnightblue" points="1059.01,-339.578 1051.36,-346.905 1061.91,-345.95 1059.01,-339.578"/>
</g>
<!-- Node18 -->
<g id="node18" class="node"><title>Node18</title>
<g id="a_node18"><a xlink:href="class_storm_1_1_t_shell_1_1_user.html" target="_top" xlink:title="This class implements a Shell command.">
<polygon fill="white" stroke="black" points="1119.5,-214 1119.5,-233 1222.5,-233 1222.5,-214 1119.5,-214"/>
<text text-anchor="middle" x="1171" y="-221" font-family="Helvetica,sans-Serif" font-size="10.00">Storm::TShell::User</text>
</a>
</g>
</g>
<!-- Node6&#45;&gt;Node18 -->
<g id="edge17" class="edge"><title>Node6&#45;&gt;Node18</title>
<path fill="none" stroke="midnightblue" d="M1063.44,-341.821C1065.39,-340.499 1067.25,-339.062 1069,-337.5 1102.7,-307.445 1071.85,-273.161 1105,-242.5 1109.23,-238.588 1114.22,-235.478 1119.53,-233.005"/>
<polygon fill="midnightblue" stroke="midnightblue" points="1061.4,-338.952 1054.41,-346.913 1064.84,-345.049 1061.4,-338.952"/>
</g>
<!-- Node19 -->
<g id="node19" class="node"><title>Node19</title>
<g id="a_node19"><a xlink:href="class_storm_1_1_t_shell_1_1_white_box.html" target="_top" xlink:title="This class implements a Shell command.">
<polygon fill="white" stroke="black" points="1108.5,-176 1108.5,-195 1233.5,-195 1233.5,-176 1108.5,-176"/>
<text text-anchor="middle" x="1171" y="-183" font-family="Helvetica,sans-Serif" font-size="10.00">Storm::TShell::WhiteBox</text>
</a>
</g>
</g>
<!-- Node6&#45;&gt;Node19 -->
<g id="edge18" class="edge"><title>Node6&#45;&gt;Node19</title>
<path fill="none" stroke="midnightblue" d="M1064.32,-341.536C1065.96,-340.291 1067.53,-338.948 1069,-337.5 1112.65,-294.551 1062.13,-248.234 1105,-204.5 1108.79,-200.638 1113.31,-197.55 1118.18,-195.083"/>
<polygon fill="midnightblue" stroke="midnightblue" points="1062.19,-338.736 1055.54,-346.979 1065.88,-344.685 1062.19,-338.736"/>
</g>
<!-- Node20 -->
<g id="node20" class="node"><title>Node20</title>
<g id="a_node20"><a xlink:href="class_storm_1_1_thermostat_1_1_sim_house_1_1_cmd.html" target="_top" xlink:title="This class implements a Shell command.">
<polygon fill="white" stroke="black" points="1119,-126.5 1119,-156.5 1223,-156.5 1223,-126.5 1119,-126.5"/>
<text text-anchor="start" x="1127" y="-144.5" font-family="Helvetica,sans-Serif" font-size="10.00">Storm::Thermostat::</text>
<text text-anchor="middle" x="1171" y="-133.5" font-family="Helvetica,sans-Serif" font-size="10.00">SimHouse::Cmd</text>
</a>
</g>
</g>
<!-- Node6&#45;&gt;Node20 -->
<g id="edge19" class="edge"><title>Node6&#45;&gt;Node20</title>
<path fill="none" stroke="midnightblue" d="M1065.04,-341.15C1066.43,-340.014 1067.75,-338.799 1069,-337.5 1122.79,-281.478 1054.64,-225.623 1105,-166.5 1108.84,-161.99 1113.59,-158.291 1118.77,-155.257"/>
<polygon fill="midnightblue" stroke="midnightblue" points="1062.88,-338.385 1056.49,-346.834 1066.75,-344.216 1062.88,-338.385"/>
</g>
<!-- Node12 -->
<g id="node12" class="node"><title>Node12</title>
<g id="a_node12"><a xlink:href="class_cpl_1_1_t_shell_1_1_cmd_1_1_free_r_t_o_s_1_1_threads.html" target="_top" xlink:title="This class implements a TShell command.">
<polygon fill="white" stroke="black" points="1273,-423.5 1273,-453.5 1416,-453.5 1416,-423.5 1273,-423.5"/>
<text text-anchor="start" x="1281" y="-441.5" font-family="Helvetica,sans-Serif" font-size="10.00">Cpl::TShell::Cmd::FreeRTOS</text>
<text text-anchor="middle" x="1344.5" y="-430.5" font-family="Helvetica,sans-Serif" font-size="10.00">::Threads</text>
</a>
</g>
</g>
<!-- Node11&#45;&gt;Node12 -->
<g id="edge11" class="edge"><title>Node11&#45;&gt;Node12</title>
<path fill="none" stroke="midnightblue" d="M1247.26,-424.47C1255.79,-425.714 1264.46,-426.978 1272.93,-428.212"/>
<polygon fill="midnightblue" stroke="midnightblue" points="1247.73,-421.002 1237.33,-423.023 1246.72,-427.929 1247.73,-421.002"/>
</g>
<!-- Node13 -->
<g id="node13" class="node"><title>Node13</title>
<g id="a_node13"><a xlink:href="class_cpl_1_1_t_shell_1_1_cmd_1_1_win32_1_1_threads.html" target="_top" xlink:title="This class implements a TShell command.">
<polygon fill="white" stroke="black" points="1282.5,-374.5 1282.5,-404.5 1406.5,-404.5 1406.5,-374.5 1282.5,-374.5"/>
<text text-anchor="start" x="1290.5" y="-392.5" font-family="Helvetica,sans-Serif" font-size="10.00">Cpl::TShell::Cmd::Win32</text>
<text text-anchor="middle" x="1344.5" y="-381.5" font-family="Helvetica,sans-Serif" font-size="10.00">::Threads</text>
</a>
</g>
</g>
<!-- Node11&#45;&gt;Node13 -->
<g id="edge12" class="edge"><title>Node11&#45;&gt;Node13</title>
<path fill="none" stroke="midnightblue" d="M1247.47,-402.938C1259.12,-401.308 1271.02,-399.643 1282.31,-398.063"/>
<polygon fill="midnightblue" stroke="midnightblue" points="1246.74,-399.506 1237.33,-404.358 1247.71,-406.438 1246.74,-399.506"/>
</g>
<!-- Node22 -->
<g id="node22" class="node"><title>Node22</title>
<g id="a_node22"><a xlink:href="class_cpl_1_1_text_1_1_d_f_string_item.html" target="_top" xlink:title="This concrete class implements the StringItem class for a &#39;String&#39; using a &#39;DFString&#39; as the internal...">
<polygon fill="white" stroke="black" points="933,-309 933,-328 1053,-328 1053,-309 933,-309"/>
<text text-anchor="middle" x="993" y="-316" font-family="Helvetica,sans-Serif" font-size="10.00">Cpl::Text::DFStringItem</text>
</a>
</g>
</g>
<!-- Node21&#45;&gt;Node22 -->
<g id="edge21" class="edge"><title>Node21&#45;&gt;Node22</title>
<path fill="none" stroke="midnightblue" d="M836.387,-274.312C859.557,-281.982 889.864,-291.72 917,-299.5 928.492,-302.795 941.058,-306.095 952.563,-308.999"/>
<polygon fill="midnightblue" stroke="midnightblue" points="837.196,-270.893 826.602,-271.056 834.985,-277.535 837.196,-270.893"/>
</g>
<!-- Node23 -->
<g id="node23" class="node"><title>Node23</title>
<g id="a_node23"><a xlink:href="class_cpl_1_1_text_1_1_d_string_item.html" target="_top" xlink:title="This concrete class implements the StringItem class for a &#39;String&#39; using a &#39;DString&#39; as the internal ...">
<polygon fill="white" stroke="black" points="936,-271 936,-290 1050,-290 1050,-271 936,-271"/>
<text text-anchor="middle" x="993" y="-278" font-family="Helvetica,sans-Serif" font-size="10.00">Cpl::Text::DStringItem</text>
</a>
</g>
</g>
<!-- Node21&#45;&gt;Node23 -->
<g id="edge22" class="edge"><title>Node21&#45;&gt;Node23</title>
<path fill="none" stroke="midnightblue" d="M861.176,-267.654C885.148,-270.008 912.319,-272.676 935.663,-274.968"/>
<polygon fill="midnightblue" stroke="midnightblue" points="861.413,-264.161 851.119,-266.667 860.729,-271.127 861.413,-264.161"/>
</g>
<!-- Node24 -->
<g id="node24" class="node"><title>Node24</title>
<g id="a_node24"><a xlink:href="class_cpl_1_1_text_1_1_f_string_item.html" target="_top" xlink:title="This template class implements the StringItem class for a &#39;String&#39; using a &#39;FString&#39; as the internal ...">
<polygon fill="white" stroke="black" points="924,-233 924,-252 1062,-252 1062,-233 924,-233"/>
<text text-anchor="middle" x="993" y="-240" font-family="Helvetica,sans-Serif" font-size="10.00">Cpl::Text::FStringItem&lt; S &gt;</text>
</a>
</g>
</g>
<!-- Node21&#45;&gt;Node24 -->
<g id="edge23" class="edge"><title>Node21&#45;&gt;Node24</title>
<path fill="none" stroke="midnightblue" d="M861.33,-255.331C881.281,-253.372 903.435,-251.196 923.749,-249.202"/>
<polygon fill="midnightblue" stroke="midnightblue" points="860.729,-251.873 851.119,-256.333 861.413,-258.839 860.729,-251.873"/>
</g>
<!-- Node26 -->
<g id="node26" class="node"><title>Node26</title>
<g id="a_node26"><a xlink:href="class_driver_1_1_t_pipe_1_1_rx_frame_handler.html" target="_top" xlink:title="This partially concrete class provides functionality that is common to all Frame handlers.">
<polygon fill="white" stroke="black" points="917,-195 917,-214 1069,-214 1069,-195 917,-195"/>
<text text-anchor="middle" x="993" y="-202" font-family="Helvetica,sans-Serif" font-size="10.00">Driver::TPipe::RxFrameHandler</text>
</a>
</g>
</g>
<!-- Node25&#45;&gt;Node26 -->
<g id="edge25" class="edge"><title>Node25&#45;&gt;Node26</title>
<path fill="none" stroke="midnightblue" d="M891.142,-214.403C899.707,-213.562 908.315,-212.717 916.698,-211.894"/>
<polygon fill="midnightblue" stroke="midnightblue" points="890.733,-210.927 881.123,-215.387 891.417,-217.893 890.733,-210.927"/>
</g>
<!-- Node28 -->
<g id="node28" class="node"><title>Node28</title>
<g id="a_node28"><a xlink:href="class_cpl_1_1_dm_1_1_subscriber_base.html" target="_top" xlink:title="This mostly concrete class defines the Subscriber interface &#45; for change notifications &#45; to a Model P...">
<polygon fill="white" stroke="black" points="530.5,-190 530.5,-209 657.5,-209 657.5,-190 530.5,-190"/>
<text text-anchor="middle" x="594" y="-197" font-family="Helvetica,sans-Serif" font-size="10.00">Cpl::Dm::SubscriberBase</text>
</a>
</g>
</g>
<!-- Node27&#45;&gt;Node28 -->
<g id="edge27" class="edge"><title>Node27&#45;&gt;Node28</title>
<path fill="none" stroke="midnightblue" d="M467.358,-197.562C487.91,-197.879 510.316,-198.225 530.441,-198.535"/>
<polygon fill="midnightblue" stroke="midnightblue" points="467.173,-194.059 457.12,-197.404 467.065,-201.058 467.173,-194.059"/>
</g>
<!-- Node29 -->
<g id="node29" class="node"><title>Node29</title>
<g id="a_node29"><a xlink:href="class_cpl_1_1_dm_1_1_subscriber.html" target="_top" xlink:title="This template class defines a type safe Subscriber.">
<polygon fill="white" stroke="black" points="745.5,-164.5 745.5,-194.5 849.5,-194.5 849.5,-164.5 745.5,-164.5"/>
<text text-anchor="start" x="753.5" y="-182.5" font-family="Helvetica,sans-Serif" font-size="10.00">Cpl::Dm::Subscriber</text>
<text text-anchor="middle" x="797.5" y="-171.5" font-family="Helvetica,sans-Serif" font-size="10.00">&lt; MP &gt;</text>
</a>
</g>
</g>
<!-- Node28&#45;&gt;Node29 -->
<g id="edge28" class="edge"><title>Node28&#45;&gt;Node29</title>
<path fill="none" stroke="midnightblue" d="M667.736,-192.281C693.456,-189.728 721.822,-186.912 745.368,-184.575"/>
<polygon fill="midnightblue" stroke="midnightblue" points="667.257,-188.811 657.651,-193.282 667.948,-195.777 667.257,-188.811"/>
</g>
<!-- Node30 -->
<g id="node30" class="node"><title>Node30</title>
<g id="a_node30"><a xlink:href="class_cpl_1_1_dm_1_1_subscriber_composer.html" target="_top" xlink:title="This template class is a composer pattern/class that manages the callback function for a Model Point&#39;...">
<polygon fill="white" stroke="black" points="918.5,-145.5 918.5,-175.5 1067.5,-175.5 1067.5,-145.5 918.5,-145.5"/>
<text text-anchor="start" x="926.5" y="-163.5" font-family="Helvetica,sans-Serif" font-size="10.00">Cpl::Dm::SubscriberComposer</text>
<text text-anchor="middle" x="993" y="-152.5" font-family="Helvetica,sans-Serif" font-size="10.00">&lt; CONTEXT, MP &gt;</text>
</a>
</g>
</g>
<!-- Node29&#45;&gt;Node30 -->
<g id="edge29" class="edge"><title>Node29&#45;&gt;Node30</title>
<path fill="none" stroke="midnightblue" d="M859.713,-173.489C878.346,-171.66 899.021,-169.63 918.382,-167.729"/>
<polygon fill="midnightblue" stroke="midnightblue" points="859.203,-170.023 849.593,-174.483 859.887,-176.989 859.203,-170.023"/>
</g>
<!-- Node32 -->
<g id="node32" class="node"><title>Node32</title>
<g id="a_node32"><a xlink:href="class_cpl_1_1_itc_1_1_response_message.html" target="_top" xlink:title="This template class represents a client response message, which is posted to the client&#39;s mailbox aft...">
<polygon fill="white" stroke="black" points="510,-140.5 510,-170.5 678,-170.5 678,-140.5 510,-140.5"/>
<text text-anchor="start" x="518" y="-158.5" font-family="Helvetica,sans-Serif" font-size="10.00">Cpl::Itc::ResponseMessage</text>
<text text-anchor="middle" x="594" y="-147.5" font-family="Helvetica,sans-Serif" font-size="10.00">&lt; CLIENT, SERVER, PAYLOAD &gt;</text>
</a>
</g>
</g>
<!-- Node31&#45;&gt;Node32 -->
<g id="edge31" class="edge"><title>Node31&#45;&gt;Node32</title>
<path fill="none" stroke="midnightblue" d="M454.989,-155.5C472.154,-155.5 491.388,-155.5 509.919,-155.5"/>
<polygon fill="midnightblue" stroke="midnightblue" points="454.594,-152 444.594,-155.5 454.594,-159 454.594,-152"/>
</g>
<!-- Node33 -->
<g id="node33" class="node"><title>Node33</title>
<g id="a_node33"><a xlink:href="class_cpl_1_1_itc_1_1_service_message.html" target="_top" xlink:title="This class represents a defined message, which is posted to a mailbox&#45;server as a request.">
<polygon fill="white" stroke="black" points="530.5,-102 530.5,-121 657.5,-121 657.5,-102 530.5,-102"/>
<text text-anchor="middle" x="594" y="-109" font-family="Helvetica,sans-Serif" font-size="10.00">Cpl::Itc::ServiceMessage</text>
</a>
</g>
</g>
<!-- Node31&#45;&gt;Node33 -->
<g id="edge32" class="edge"><title>Node31&#45;&gt;Node33</title>
<path fill="none" stroke="midnightblue" d="M450.591,-143.716C481.989,-136.613 521.459,-127.684 550.879,-121.029"/>
<polygon fill="midnightblue" stroke="midnightblue" points="449.685,-140.332 440.704,-145.953 451.229,-147.16 449.685,-140.332"/>
</g>
<!-- Node34 -->
<g id="node34" class="node"><title>Node34</title>
<g id="a_node34"><a xlink:href="class_cpl_1_1_itc_1_1_request_message.html" target="_top" xlink:title="This template class represents a service request message to a particular server.">
<polygon fill="white" stroke="black" points="732.5,-98.5 732.5,-128.5 862.5,-128.5 862.5,-98.5 732.5,-98.5"/>
<text text-anchor="start" x="740.5" y="-116.5" font-family="Helvetica,sans-Serif" font-size="10.00">Cpl::Itc::RequestMessage</text>
<text text-anchor="middle" x="797.5" y="-105.5" font-family="Helvetica,sans-Serif" font-size="10.00">&lt; SERVER, PAYLOAD &gt;</text>
</a>
</g>
</g>
<!-- Node33&#45;&gt;Node34 -->
<g id="edge33" class="edge"><title>Node33&#45;&gt;Node34</title>
<path fill="none" stroke="midnightblue" d="M667.871,-112.223C689.016,-112.433 711.939,-112.661 732.498,-112.865"/>
<polygon fill="midnightblue" stroke="midnightblue" points="667.686,-108.721 657.651,-112.122 667.616,-115.721 667.686,-108.721"/>
</g>
<!-- Node37 -->
<g id="node37" class="node"><title>Node37</title>
<g id="a_node37"><a xlink:href="class_cpl_1_1_system_1_1_timer.html" target="_top" xlink:title="This mostly concrete interface defines the operations that can be performed on a software timer.">
<polygon fill="white" stroke="black" points="543.5,-55 543.5,-74 644.5,-74 644.5,-55 543.5,-55"/>
<text text-anchor="middle" x="594" y="-62" font-family="Helvetica,sans-Serif" font-size="10.00">Cpl::System::Timer</text>
</a>
</g>
</g>
<!-- Node36&#45;&gt;Node37 -->
<g id="edge36" class="edge"><title>Node36&#45;&gt;Node37</title>
<path fill="none" stroke="midnightblue" d="M484.382,-65.0584C504.506,-64.955 525.287,-64.8481 543.217,-64.756"/>
<polygon fill="midnightblue" stroke="midnightblue" points="484.238,-61.559 474.256,-65.1105 484.274,-68.559 484.238,-61.559"/>
</g>
<!-- Node38 -->
<g id="node38" class="node"><title>Node38</title>
<g id="a_node38"><a xlink:href="class_cpl_1_1_system_1_1_timer_composer.html" target="_top" xlink:title="This template class implements a Software Timer that is context independent and allows for a single c...">
<polygon fill="white" stroke="black" points="724.5,-49.5 724.5,-79.5 870.5,-79.5 870.5,-49.5 724.5,-49.5"/>
<text text-anchor="start" x="732.5" y="-67.5" font-family="Helvetica,sans-Serif" font-size="10.00">Cpl::System::TimerComposer</text>
<text text-anchor="middle" x="797.5" y="-56.5" font-family="Helvetica,sans-Serif" font-size="10.00">&lt; CONTEXT &gt;</text>
</a>
</g>
</g>
<!-- Node37&#45;&gt;Node38 -->
<g id="edge37" class="edge"><title>Node37&#45;&gt;Node38</title>
<path fill="none" stroke="midnightblue" d="M654.672,-64.5C676.51,-64.5 701.455,-64.5 724.273,-64.5"/>
<polygon fill="midnightblue" stroke="midnightblue" points="654.551,-61.0001 644.551,-64.5 654.55,-68.0001 654.551,-61.0001"/>
</g>
<!-- Node39 -->
<g id="node39" class="node"><title>Node39</title>
<g id="a_node39"><a xlink:href="class_storm_1_1_thermostat_1_1_algorithm.html" target="_top" xlink:title="This concrete class is a &quot;maker&quot; pattern assembles the objects needed for the thermostat&#39;s control al...">
<polygon fill="white" stroke="black" points="745.5,-0.5 745.5,-30.5 849.5,-30.5 849.5,-0.5 745.5,-0.5"/>
<text text-anchor="start" x="753.5" y="-18.5" font-family="Helvetica,sans-Serif" font-size="10.00">Storm::Thermostat::</text>
<text text-anchor="middle" x="797.5" y="-7.5" font-family="Helvetica,sans-Serif" font-size="10.00">Algorithm</text>
</a>
</g>
</g>
<!-- Node37&#45;&gt;Node39 -->
<g id="edge38" class="edge"><title>Node37&#45;&gt;Node39</title>
<path fill="none" stroke="midnightblue" d="M644.378,-52.4925C675.061,-45.0311 714.423,-35.4591 745.42,-27.9214"/>
<polygon fill="midnightblue" stroke="midnightblue" points="643.219,-49.1721 634.33,-54.936 644.873,-55.9739 643.219,-49.1721"/>
</g>
</g>
</svg>
