<?xml version="1.0" encoding="UTF-8" standalone="no"?>
<!DOCTYPE svg PUBLIC "-//W3C//DTD SVG 1.1//EN"
 "http://www.w3.org/Graphics/SVG/1.1/DTD/svg11.dtd">
<!-- Generated by graphviz version 2.38.0 (20140413.2041)
 -->
<!-- Title: Cpl::Io::Close Pages: 1 -->
<svg width="867pt" height="481pt"
 viewBox="0.00 0.00 867.00 481.00" xmlns="http://www.w3.org/2000/svg" xmlns:xlink="http://www.w3.org/1999/xlink">
<g id="graph0" class="graph" transform="scale(1 1) rotate(0) translate(4 477)">
<title>Cpl::Io::Close</title>
<polygon fill="white" stroke="none" points="-4,4 -4,-477 863,-477 863,4 -4,4"/>
<!-- Node1 -->
<g id="node1" class="node"><title>Node1</title>
<g id="a_node1"><a xlink:title="This abstract class defines a close operation that is intended to be used Input and Output streams/fi...">
<polygon fill="#bfbfbf" stroke="black" points="140,-219.5 140,-238.5 216,-238.5 216,-219.5 140,-219.5"/>
<text text-anchor="middle" x="178" y="-226.5" font-family="Helvetica,sans-Serif" font-size="10.00">Cpl::Io::Close</text>
</a>
</g>
</g>
<!-- Node3 -->
<g id="node3" class="node"><title>Node3</title>
<g id="a_node3"><a xlink:href="class_cpl_1_1_io_1_1_input.html" target="_top" xlink:title="This partially abstract class defines a interface for operating on an input stream (example of a stre...">
<polygon fill="white" stroke="black" points="255.5,-143.5 255.5,-162.5 328.5,-162.5 328.5,-143.5 255.5,-143.5"/>
<text text-anchor="middle" x="292" y="-150.5" font-family="Helvetica,sans-Serif" font-size="10.00">Cpl::Io::Input</text>
</a>
</g>
</g>
<!-- Node1&#45;&gt;Node3 -->
<g id="edge2" class="edge"><title>Node1&#45;&gt;Node3</title>
<path fill="none" stroke="midnightblue" d="M201.487,-213.741C224.009,-198.458 257.972,-175.412 276.93,-162.547"/>
<polygon fill="midnightblue" stroke="midnightblue" points="199.494,-210.863 193.185,-219.375 203.425,-216.656 199.494,-210.863"/>
</g>
<!-- Node19 -->
<g id="node19" class="node"><title>Node19</title>
<g id="a_node19"><a xlink:href="class_cpl_1_1_io_1_1_output.html" target="_top" xlink:title="This partially abstract class defines a interface for operating on an output stream (example of a str...">
<polygon fill="white" stroke="black" points="252,-276.5 252,-295.5 332,-295.5 332,-276.5 252,-276.5"/>
<text text-anchor="middle" x="292" y="-283.5" font-family="Helvetica,sans-Serif" font-size="10.00">Cpl::Io::Output</text>
</a>
</g>
</g>
<!-- Node1&#45;&gt;Node19 -->
<g id="edge18" class="edge"><title>Node1&#45;&gt;Node19</title>
<path fill="none" stroke="midnightblue" d="M206.858,-243.178C227.233,-253.547 254.324,-267.334 272.193,-276.428"/>
<polygon fill="midnightblue" stroke="midnightblue" points="208.246,-239.957 197.746,-238.541 205.071,-246.196 208.246,-239.957"/>
</g>
<!-- Node2 -->
<g id="node2" class="node"><title>Node2</title>
<g id="a_node2"><a xlink:href="class_cpl_1_1_container_1_1_item.html" target="_top" xlink:title="This class is used by the Container classes to implement a various types of singly linked containers.">
<polygon fill="white" stroke="black" points="0,-219.5 0,-238.5 104,-238.5 104,-219.5 0,-219.5"/>
<text text-anchor="middle" x="52" y="-226.5" font-family="Helvetica,sans-Serif" font-size="10.00">Cpl::Container::Item</text>
</a>
</g>
</g>
<!-- Node2&#45;&gt;Node1 -->
<g id="edge1" class="edge"><title>Node2&#45;&gt;Node1</title>
<path fill="none" stroke="midnightblue" d="M114.375,-229C123.126,-229 131.893,-229 139.98,-229"/>
<polygon fill="midnightblue" stroke="midnightblue" points="114.151,-225.5 104.151,-229 114.151,-232.5 114.151,-225.5"/>
</g>
<!-- Node4 -->
<g id="node4" class="node"><title>Node4</title>
<g id="a_node4"><a xlink:href="class_cpl_1_1_io_1_1_file_1_1_input_api.html" target="_top" xlink:title="This abstract class defines the interface for a Random Access Input File.">
<polygon fill="white" stroke="black" points="376,-143.5 376,-162.5 485,-162.5 485,-143.5 376,-143.5"/>
<text text-anchor="middle" x="430.5" y="-150.5" font-family="Helvetica,sans-Serif" font-size="10.00">Cpl::Io::File::InputApi</text>
</a>
</g>
</g>
<!-- Node3&#45;&gt;Node4 -->
<g id="edge3" class="edge"><title>Node3&#45;&gt;Node4</title>
<path fill="none" stroke="midnightblue" d="M338.685,-153C350.62,-153 363.592,-153 375.897,-153"/>
<polygon fill="midnightblue" stroke="midnightblue" points="338.507,-149.5 328.507,-153 338.507,-156.5 338.507,-149.5"/>
</g>
<!-- Node9 -->
<g id="node9" class="node"><title>Node9</title>
<g id="a_node9"><a xlink:href="class_cpl_1_1_io_1_1_input_output.html" target="_top" xlink:title="This abstract class defines a interface for operating on an input&#45;output stream (example of a stream ...">
<polygon fill="white" stroke="black" points="379.5,-181.5 379.5,-200.5 481.5,-200.5 481.5,-181.5 379.5,-181.5"/>
<text text-anchor="middle" x="430.5" y="-188.5" font-family="Helvetica,sans-Serif" font-size="10.00">Cpl::Io::InputOutput</text>
</a>
</g>
</g>
<!-- Node3&#45;&gt;Node9 -->
<g id="edge8" class="edge"><title>Node3&#45;&gt;Node9</title>
<path fill="none" stroke="midnightblue" d="M337.249,-165.318C356.003,-170.539 377.528,-176.532 395.066,-181.414"/>
<polygon fill="midnightblue" stroke="midnightblue" points="338.017,-161.899 327.445,-162.589 336.14,-168.643 338.017,-161.899"/>
</g>
<!-- Node16 -->
<g id="node16" class="node"><title>Node16</title>
<g id="a_node16"><a xlink:href="class_cpl_1_1_io_1_1_serial_1_1_r_p2040_1_1_stdio_1_1_input.html" target="_top" xlink:title="This concrete class implements a Input stream using Raspberry Pi RP2040&#39;s SDK.">
<polygon fill="white" stroke="black" points="372.5,-94 372.5,-124 488.5,-124 488.5,-94 372.5,-94"/>
<text text-anchor="start" x="380.5" y="-112" font-family="Helvetica,sans-Serif" font-size="10.00">Cpl::Io::Serial::RP2040</text>
<text text-anchor="middle" x="430.5" y="-101" font-family="Helvetica,sans-Serif" font-size="10.00">::Stdio::Input</text>
</a>
</g>
</g>
<!-- Node3&#45;&gt;Node16 -->
<g id="edge15" class="edge"><title>Node3&#45;&gt;Node16</title>
<path fill="none" stroke="midnightblue" d="M332.534,-140.256C348.235,-135.195 366.416,-129.335 382.763,-124.065"/>
<polygon fill="midnightblue" stroke="midnightblue" points="331.062,-137.053 322.618,-143.453 333.21,-143.716 331.062,-137.053"/>
</g>
<!-- Node17 -->
<g id="node17" class="node"><title>Node17</title>
<g id="a_node17"><a xlink:href="class_cpl_1_1_io_1_1_stdio_1_1_input__.html" target="_top" xlink:title="This concrete class implements a Input stream using the underlying platform&#39;s native OS &#39;file interfa...">
<polygon fill="white" stroke="black" points="377,-27.5 377,-46.5 484,-46.5 484,-27.5 377,-27.5"/>
<text text-anchor="middle" x="430.5" y="-34.5" font-family="Helvetica,sans-Serif" font-size="10.00">Cpl::Io::Stdio::Input_</text>
</a>
</g>
</g>
<!-- Node3&#45;&gt;Node17 -->
<g id="edge16" class="edge"><title>Node3&#45;&gt;Node17</title>
<path fill="none" stroke="midnightblue" d="M310.415,-136.135C325.359,-121.869 347.644,-101.081 368,-84 384.059,-70.5247 403.383,-56.0196 416.03,-46.7436"/>
<polygon fill="midnightblue" stroke="midnightblue" points="307.716,-133.874 302.926,-143.325 312.564,-138.924 307.716,-133.874"/>
</g>
<!-- Node5 -->
<g id="node5" class="node"><title>Node5</title>
<g id="a_node5"><a xlink:href="class_cpl_1_1_io_1_1_file_1_1_input.html" target="_top" xlink:title="This concrete class provides a platform independent &#39;standard&#39; implementation of a Cpl::Io::File::Inp...">
<polygon fill="white" stroke="black" points="551,-38.5 551,-57.5 646,-57.5 646,-38.5 551,-38.5"/>
<text text-anchor="middle" x="598.5" y="-45.5" font-family="Helvetica,sans-Serif" font-size="10.00">Cpl::Io::File::Input</text>
</a>
</g>
</g>
<!-- Node4&#45;&gt;Node5 -->
<g id="edge4" class="edge"><title>Node4&#45;&gt;Node5</title>
<path fill="none" stroke="midnightblue" d="M484.172,-139.038C487.305,-137.259 490.283,-135.256 493,-133 518.707,-111.656 502.831,-87.7756 529,-67 535.379,-61.9354 543.022,-58.2194 550.853,-55.4932"/>
<polygon fill="midnightblue" stroke="midnightblue" points="482.485,-135.966 475.017,-143.481 485.541,-142.264 482.485,-135.966"/>
</g>
<!-- Node6 -->
<g id="node6" class="node"><title>Node6</title>
<g id="a_node6"><a xlink:href="class_cpl_1_1_io_1_1_file_1_1_input_output_api.html" target="_top" xlink:title="This abstract class defines the interface for a Random Access Input Output File.">
<polygon fill="white" stroke="black" points="529.5,-213.5 529.5,-232.5 667.5,-232.5 667.5,-213.5 529.5,-213.5"/>
<text text-anchor="middle" x="598.5" y="-220.5" font-family="Helvetica,sans-Serif" font-size="10.00">Cpl::Io::File::InputOutputApi</text>
</a>
</g>
</g>
<!-- Node4&#45;&gt;Node6 -->
<g id="edge5" class="edge"><title>Node4&#45;&gt;Node6</title>
<path fill="none" stroke="midnightblue" d="M480.683,-166.081C484.95,-167.844 489.116,-169.812 493,-172 511.65,-182.509 510.199,-193.763 529,-204 536.045,-207.836 543.929,-210.949 551.771,-213.459"/>
<polygon fill="midnightblue" stroke="midnightblue" points="481.844,-162.779 471.252,-162.544 479.386,-169.333 481.844,-162.779"/>
</g>
<!-- Node7 -->
<g id="node7" class="node"><title>Node7</title>
<g id="a_node7"><a xlink:href="class_cpl_1_1_io_1_1_file_1_1_input_output.html" target="_top" xlink:title="This concrete class provides a platform independent &#39;standard&#39; implementation of an InputOutputFileAp...">
<polygon fill="white" stroke="black" points="719.5,-196.5 719.5,-215.5 843.5,-215.5 843.5,-196.5 719.5,-196.5"/>
<text text-anchor="middle" x="781.5" y="-203.5" font-family="Helvetica,sans-Serif" font-size="10.00">Cpl::Io::File::InputOutput</text>
</a>
</g>
</g>
<!-- Node6&#45;&gt;Node7 -->
<g id="edge6" class="edge"><title>Node6&#45;&gt;Node7</title>
<path fill="none" stroke="midnightblue" d="M677.702,-215.655C691.6,-214.35 705.893,-213.007 719.236,-211.754"/>
<polygon fill="midnightblue" stroke="midnightblue" points="677.299,-212.177 667.67,-216.597 677.954,-219.147 677.299,-212.177"/>
</g>
<!-- Node8 -->
<g id="node8" class="node"><title>Node8</title>
<g id="a_node8"><a xlink:href="class_cpl_1_1_io_1_1_file_1_1_null.html" target="_top" xlink:title="This concrete class implements a NULL InputOutputApi File that all of its input operations return &#39;En...">
<polygon fill="white" stroke="black" points="737,-234.5 737,-253.5 826,-253.5 826,-234.5 737,-234.5"/>
<text text-anchor="middle" x="781.5" y="-241.5" font-family="Helvetica,sans-Serif" font-size="10.00">Cpl::Io::File::Null</text>
</a>
</g>
</g>
<!-- Node6&#45;&gt;Node8 -->
<g id="edge7" class="edge"><title>Node6&#45;&gt;Node8</title>
<path fill="none" stroke="midnightblue" d="M677.818,-232.087C698.017,-234.43 719.041,-236.869 736.766,-238.926"/>
<polygon fill="midnightblue" stroke="midnightblue" points="678.007,-228.585 667.67,-230.909 677.2,-235.539 678.007,-228.585"/>
</g>
<!-- Node10 -->
<g id="node10" class="node"><title>Node10</title>
<g id="a_node10"><a xlink:href="class_cpl_1_1_io_1_1_null.html" target="_top" xlink:title="This concrete class implements a NULL InputOutput stream &#45; that all of its input operations return &#39;E...">
<polygon fill="white" stroke="black" points="564.5,-251.5 564.5,-270.5 632.5,-270.5 632.5,-251.5 564.5,-251.5"/>
<text text-anchor="middle" x="598.5" y="-258.5" font-family="Helvetica,sans-Serif" font-size="10.00">Cpl::Io::Null</text>
</a>
</g>
</g>
<!-- Node9&#45;&gt;Node10 -->
<g id="edge9" class="edge"><title>Node9&#45;&gt;Node10</title>
<path fill="none" stroke="midnightblue" d="M467.009,-204.536C475.678,-208.24 484.811,-212.489 493,-217 510.062,-226.399 511.366,-233.724 529,-242 540.061,-247.191 552.811,-251.208 564.29,-254.183"/>
<polygon fill="midnightblue" stroke="midnightblue" points="468.071,-201.188 457.493,-200.6 465.396,-207.656 468.071,-201.188"/>
</g>
<!-- Node11 -->
<g id="node11" class="node"><title>Node11</title>
<g id="a_node11"><a xlink:href="class_cpl_1_1_io_1_1_serial_1_1_r_p2040_1_1_uart_1_1_input_output.html" target="_top" xlink:title="This concrete class implements a Input stream using Raspberry Pi UART interface/hardware.">
<polygon fill="white" stroke="black" points="540.5,-77 540.5,-107 656.5,-107 656.5,-77 540.5,-77"/>
<text text-anchor="start" x="548.5" y="-95" font-family="Helvetica,sans-Serif" font-size="10.00">Cpl::Io::Serial::RP2040</text>
<text text-anchor="middle" x="598.5" y="-84" font-family="Helvetica,sans-Serif" font-size="10.00">::Uart::InputOutput</text>
</a>
</g>
</g>
<!-- Node9&#45;&gt;Node11 -->
<g id="edge10" class="edge"><title>Node9&#45;&gt;Node11</title>
<path fill="none" stroke="midnightblue" d="M485.141,-177.071C487.901,-175.551 490.543,-173.866 493,-172 516.563,-154.104 505.776,-134.333 529,-116 533.352,-112.565 538.232,-109.601 543.329,-107.049"/>
<polygon fill="midnightblue" stroke="midnightblue" points="483.557,-173.949 476.015,-181.39 486.552,-180.276 483.557,-173.949"/>
</g>
<!-- Node12 -->
<g id="node12" class="node"><title>Node12</title>
<g id="a_node12"><a xlink:href="class_cpl_1_1_io_1_1_socket_1_1_input_output.html" target="_top" xlink:title="This concrete class provides a platform independent &#39;standard&#39; implementation of an InputOutput strea...">
<polygon fill="white" stroke="black" points="529,-175.5 529,-194.5 668,-194.5 668,-175.5 529,-175.5"/>
<text text-anchor="middle" x="598.5" y="-182.5" font-family="Helvetica,sans-Serif" font-size="10.00">Cpl::Io::Socket::InputOutput</text>
</a>
</g>
</g>
<!-- Node9&#45;&gt;Node12 -->
<g id="edge11" class="edge"><title>Node9&#45;&gt;Node12</title>
<path fill="none" stroke="midnightblue" d="M492.036,-188.812C503.962,-188.381 516.556,-187.926 528.73,-187.486"/>
<polygon fill="midnightblue" stroke="midnightblue" points="491.623,-185.325 481.756,-189.184 491.876,-192.32 491.623,-185.325"/>
</g>
<!-- Node13 -->
<g id="node13" class="node"><title>Node13</title>
<g id="a_node13"><a xlink:href="class_cpl_1_1_io_1_1_stdio_1_1_input_output__.html" target="_top" xlink:title="This concrete class implements a Input&#45;Output stream.">
<polygon fill="white" stroke="black" points="530.5,-289.5 530.5,-308.5 666.5,-308.5 666.5,-289.5 530.5,-289.5"/>
<text text-anchor="middle" x="598.5" y="-296.5" font-family="Helvetica,sans-Serif" font-size="10.00">Cpl::Io::Stdio::InputOutput_</text>
</a>
</g>
</g>
<!-- Node9&#45;&gt;Node13 -->
<g id="edge12" class="edge"><title>Node9&#45;&gt;Node13</title>
<path fill="none" stroke="midnightblue" d="M474.266,-204.746C480.988,-208.085 487.516,-212.133 493,-217 517.121,-238.405 503.545,-260.199 529,-280 533.968,-283.865 539.675,-286.943 545.63,-289.396"/>
<polygon fill="midnightblue" stroke="midnightblue" points="475.617,-201.516 465.06,-200.625 472.756,-207.905 475.617,-201.516"/>
</g>
<!-- Node14 -->
<g id="node14" class="node"><title>Node14</title>
<g id="a_node14"><a xlink:href="class_driver_1_1_uart_1_1_stream_1_1_input_output__.html" target="_top" xlink:title="This private concrete class implements the InputOutput stream interface using the UART stream driver.">
<polygon fill="white" stroke="black" points="546.5,-126 546.5,-156 650.5,-156 650.5,-126 546.5,-126"/>
<text text-anchor="start" x="554.5" y="-144" font-family="Helvetica,sans-Serif" font-size="10.00">Driver::Uart::Stream</text>
<text text-anchor="middle" x="598.5" y="-133" font-family="Helvetica,sans-Serif" font-size="10.00">::InputOutput_</text>
</a>
</g>
</g>
<!-- Node9&#45;&gt;Node14 -->
<g id="edge13" class="edge"><title>Node9&#45;&gt;Node14</title>
<path fill="none" stroke="midnightblue" d="M472.749,-178.576C495.35,-171.768 523.537,-163.278 547.396,-156.091"/>
<polygon fill="midnightblue" stroke="midnightblue" points="471.68,-175.242 463.114,-181.478 473.699,-181.945 471.68,-175.242"/>
</g>
<!-- Node15 -->
<g id="node15" class="node"><title>Node15</title>
<g id="a_node15"><a xlink:href="class_cpl_1_1_io_1_1_serial_1_1_renesas_1_1_rx62n_1_1_input_output.html" target="_top" xlink:title="This template provides a concrete implementation of the Cpl::Io InputOutput stream interface using on...">
<polygon fill="white" stroke="black" points="704,-120.5 704,-161.5 859,-161.5 859,-120.5 704,-120.5"/>
<text text-anchor="start" x="712" y="-149.5" font-family="Helvetica,sans-Serif" font-size="10.00">Cpl::Io::Serial::Renesas</text>
<text text-anchor="start" x="712" y="-138.5" font-family="Helvetica,sans-Serif" font-size="10.00">::Rx62n::InputOutput&lt; TXSIZE,</text>
<text text-anchor="middle" x="781.5" y="-127.5" font-family="Helvetica,sans-Serif" font-size="10.00"> RXSIZE &gt;</text>
</a>
</g>
</g>
<!-- Node14&#45;&gt;Node15 -->
<g id="edge14" class="edge"><title>Node14&#45;&gt;Node15</title>
<path fill="none" stroke="midnightblue" d="M661.188,-141C674.948,-141 689.701,-141 703.977,-141"/>
<polygon fill="midnightblue" stroke="midnightblue" points="660.883,-137.5 650.883,-141 660.883,-144.5 660.883,-137.5"/>
</g>
<!-- Node18 -->
<g id="node18" class="node"><title>Node18</title>
<g id="a_node18"><a xlink:href="class_cpl_1_1_io_1_1_stdio_1_1_std_in.html" target="_top" xlink:title="This concrete class represents the C&#45;library &#39;stdin&#39; stream.">
<polygon fill="white" stroke="black" points="547,-0.5 547,-19.5 650,-19.5 650,-0.5 547,-0.5"/>
<text text-anchor="middle" x="598.5" y="-7.5" font-family="Helvetica,sans-Serif" font-size="10.00">Cpl::Io::Stdio::StdIn</text>
</a>
</g>
</g>
<!-- Node17&#45;&gt;Node18 -->
<g id="edge17" class="edge"><title>Node17&#45;&gt;Node18</title>
<path fill="none" stroke="midnightblue" d="M494.085,-26.8205C511.467,-23.9934 530.121,-20.9592 546.736,-18.2568"/>
<polygon fill="midnightblue" stroke="midnightblue" points="493.332,-23.3969 484.023,-28.457 494.456,-30.3061 493.332,-23.3969"/>
</g>
<!-- Node19&#45;&gt;Node9 -->
<g id="edge24" class="edge"><title>Node19&#45;&gt;Node9</title>
<path fill="none" stroke="midnightblue" d="M308.441,-268.761C322.729,-253.596 345.153,-231.704 368,-217 378.235,-210.413 390.42,-204.855 401.234,-200.591"/>
<polygon fill="midnightblue" stroke="midnightblue" points="305.597,-266.682 301.39,-276.405 310.743,-271.428 305.597,-266.682"/>
</g>
<!-- Node20 -->
<g id="node20" class="node"><title>Node20</title>
<g id="a_node20"><a xlink:href="class_cpl_1_1_io_1_1_atomic_output_api.html" target="_top" xlink:title="This abstract template class defines a interface for an Atomic outputs to a stream.">
<polygon fill="white" stroke="black" points="368,-315 368,-345 493,-345 493,-315 368,-315"/>
<text text-anchor="start" x="376" y="-333" font-family="Helvetica,sans-Serif" font-size="10.00">Cpl::Io::AtomicOutputApi</text>
<text text-anchor="middle" x="430.5" y="-322" font-family="Helvetica,sans-Serif" font-size="10.00">&lt; CONTEXT &gt;</text>
</a>
</g>
</g>
<!-- Node19&#45;&gt;Node20 -->
<g id="edge19" class="edge"><title>Node19&#45;&gt;Node20</title>
<path fill="none" stroke="midnightblue" d="M332.534,-298.744C348.235,-303.805 366.416,-309.665 382.763,-314.935"/>
<polygon fill="midnightblue" stroke="midnightblue" points="333.21,-295.284 322.618,-295.547 331.062,-301.947 333.21,-295.284"/>
</g>
<!-- Node22 -->
<g id="node22" class="node"><title>Node22</title>
<g id="a_node22"><a xlink:href="class_cpl_1_1_io_1_1_file_1_1_output_api.html" target="_top" xlink:title="This abstract class defines the interface for a Random Access Input File.">
<polygon fill="white" stroke="black" points="372.5,-276.5 372.5,-295.5 488.5,-295.5 488.5,-276.5 372.5,-276.5"/>
<text text-anchor="middle" x="430.5" y="-283.5" font-family="Helvetica,sans-Serif" font-size="10.00">Cpl::Io::File::OutputApi</text>
</a>
</g>
</g>
<!-- Node19&#45;&gt;Node22 -->
<g id="edge21" class="edge"><title>Node19&#45;&gt;Node22</title>
<path fill="none" stroke="midnightblue" d="M342.397,-286C352.11,-286 362.376,-286 372.32,-286"/>
<polygon fill="midnightblue" stroke="midnightblue" points="342.115,-282.5 332.115,-286 342.115,-289.5 342.115,-282.5"/>
</g>
<!-- Node24 -->
<g id="node24" class="node"><title>Node24</title>
<g id="a_node24"><a xlink:href="class_cpl_1_1_io_1_1_serial_1_1_r_p2040_1_1_stdio_1_1_output.html" target="_top" xlink:title="This concrete class implements a Input stream using Raspberry Pi RP2040&#39;s SDK.">
<polygon fill="white" stroke="black" points="372.5,-227 372.5,-257 488.5,-257 488.5,-227 372.5,-227"/>
<text text-anchor="start" x="380.5" y="-245" font-family="Helvetica,sans-Serif" font-size="10.00">Cpl::Io::Serial::RP2040</text>
<text text-anchor="middle" x="430.5" y="-234" font-family="Helvetica,sans-Serif" font-size="10.00">::Stdio::Output</text>
</a>
</g>
</g>
<!-- Node19&#45;&gt;Node24 -->
<g id="edge25" class="edge"><title>Node19&#45;&gt;Node24</title>
<path fill="none" stroke="midnightblue" d="M332.534,-273.256C348.235,-268.195 366.416,-262.335 382.763,-257.065"/>
<polygon fill="midnightblue" stroke="midnightblue" points="331.062,-270.053 322.618,-276.453 333.21,-276.716 331.062,-270.053"/>
</g>
<!-- Node25 -->
<g id="node25" class="node"><title>Node25</title>
<g id="a_node25"><a xlink:href="class_cpl_1_1_io_1_1_stdio_1_1_output__.html" target="_top" xlink:title="This concrete class implements a Output stream using the underlying platform&#39;s native OS &#39;file interf...">
<polygon fill="white" stroke="black" points="373.5,-415.5 373.5,-434.5 487.5,-434.5 487.5,-415.5 373.5,-415.5"/>
<text text-anchor="middle" x="430.5" y="-422.5" font-family="Helvetica,sans-Serif" font-size="10.00">Cpl::Io::Stdio::Output_</text>
</a>
</g>
</g>
<!-- Node19&#45;&gt;Node25 -->
<g id="edge26" class="edge"><title>Node19&#45;&gt;Node25</title>
<path fill="none" stroke="midnightblue" d="M302.533,-304.854C314.995,-328.003 338.723,-367.342 368,-393 378.772,-402.44 392.818,-410.018 404.767,-415.426"/>
<polygon fill="midnightblue" stroke="midnightblue" points="305.499,-302.972 297.759,-295.737 299.298,-306.219 305.499,-302.972"/>
</g>
<!-- Node28 -->
<g id="node28" class="node"><title>Node28</title>
<g id="a_node28"><a xlink:href="class_cpl_1_1_io_1_1_tee_output.html" target="_top" xlink:title="This concrete class implements a Output stream that outputs the data to MANY (or none) output streams...">
<polygon fill="white" stroke="black" points="382,-364.5 382,-383.5 479,-383.5 479,-364.5 382,-364.5"/>
<text text-anchor="middle" x="430.5" y="-371.5" font-family="Helvetica,sans-Serif" font-size="10.00">Cpl::Io::TeeOutput</text>
</a>
</g>
</g>
<!-- Node19&#45;&gt;Node28 -->
<g id="edge29" class="edge"><title>Node19&#45;&gt;Node28</title>
<path fill="none" stroke="midnightblue" d="M308.2,-303.447C322.327,-318.697 344.651,-340.462 368,-354 375.285,-358.224 383.58,-361.689 391.667,-364.478"/>
<polygon fill="midnightblue" stroke="midnightblue" points="310.54,-300.816 301.241,-295.739 305.344,-305.507 310.54,-300.816"/>
</g>
<!-- Node21 -->
<g id="node21" class="node"><title>Node21</title>
<g id="a_node21"><a xlink:href="class_cpl_1_1_io_1_1_atomic_output.html" target="_top" xlink:title="This concrete template class implements the AtomicOutputApi using a mutex to enforce the &#39;atomic&#45;ness...">
<polygon fill="white" stroke="black" points="543,-366 543,-396 654,-396 654,-366 543,-366"/>
<text text-anchor="start" x="551" y="-384" font-family="Helvetica,sans-Serif" font-size="10.00">Cpl::Io::AtomicOutput</text>
<text text-anchor="middle" x="598.5" y="-373" font-family="Helvetica,sans-Serif" font-size="10.00">&lt; CONTEXT &gt;</text>
</a>
</g>
</g>
<!-- Node20&#45;&gt;Node21 -->
<g id="edge20" class="edge"><title>Node20&#45;&gt;Node21</title>
<path fill="none" stroke="midnightblue" d="M490.21,-348.038C509.331,-353.912 530.337,-360.366 548.655,-365.994"/>
<polygon fill="midnightblue" stroke="midnightblue" points="490.995,-344.617 480.408,-345.026 488.939,-351.308 490.995,-344.617"/>
</g>
<!-- Node22&#45;&gt;Node6 -->
<g id="edge22" class="edge"><title>Node22&#45;&gt;Node6</title>
<path fill="none" stroke="midnightblue" d="M476.235,-273.055C481.973,-270.93 487.692,-268.572 493,-266 510.305,-257.615 511.515,-250.004 529,-242 537.08,-238.302 546.033,-235.181 554.729,-232.605"/>
<polygon fill="midnightblue" stroke="midnightblue" points="474.919,-269.807 466.63,-276.405 477.225,-276.416 474.919,-269.807"/>
</g>
<!-- Node23 -->
<g id="node23" class="node"><title>Node23</title>
<g id="a_node23"><a xlink:href="class_cpl_1_1_io_1_1_file_1_1_output.html" target="_top" xlink:title="This concrete class provides a platform independent &#39;standard&#39; implementation of a Cpl::Io::File::Out...">
<polygon fill="white" stroke="black" points="547.5,-327.5 547.5,-346.5 649.5,-346.5 649.5,-327.5 547.5,-327.5"/>
<text text-anchor="middle" x="598.5" y="-334.5" font-family="Helvetica,sans-Serif" font-size="10.00">Cpl::Io::File::Output</text>
</a>
</g>
</g>
<!-- Node22&#45;&gt;Node23 -->
<g id="edge23" class="edge"><title>Node22&#45;&gt;Node23</title>
<path fill="none" stroke="midnightblue" d="M473.113,-298.566C479.78,-300.663 486.592,-302.855 493,-305 509.131,-310.401 512.792,-312.834 529,-318 539.347,-321.298 550.675,-324.574 561.087,-327.453"/>
<polygon fill="midnightblue" stroke="midnightblue" points="474.099,-295.207 463.511,-295.578 472.019,-301.891 474.099,-295.207"/>
</g>
<!-- Node26 -->
<g id="node26" class="node"><title>Node26</title>
<g id="a_node26"><a xlink:href="class_cpl_1_1_io_1_1_stdio_1_1_std_err.html" target="_top" xlink:title="This concrete class represents the C&#45;library &#39;stderr&#39; stream.">
<polygon fill="white" stroke="black" points="545,-453.5 545,-472.5 652,-472.5 652,-453.5 545,-453.5"/>
<text text-anchor="middle" x="598.5" y="-460.5" font-family="Helvetica,sans-Serif" font-size="10.00">Cpl::Io::Stdio::StdErr</text>
</a>
</g>
</g>
<!-- Node25&#45;&gt;Node26 -->
<g id="edge27" class="edge"><title>Node25&#45;&gt;Node26</title>
<path fill="none" stroke="midnightblue" d="M483.153,-436.824C506.556,-442.182 533.857,-448.431 555.912,-453.48"/>
<polygon fill="midnightblue" stroke="midnightblue" points="483.918,-433.409 473.389,-434.589 482.356,-440.232 483.918,-433.409"/>
</g>
<!-- Node27 -->
<g id="node27" class="node"><title>Node27</title>
<g id="a_node27"><a xlink:href="class_cpl_1_1_io_1_1_stdio_1_1_std_out.html" target="_top" xlink:title="This concrete class represents the C&#45;library &#39;stdout&#39; stream.">
<polygon fill="white" stroke="black" points="543.5,-415.5 543.5,-434.5 653.5,-434.5 653.5,-415.5 543.5,-415.5"/>
<text text-anchor="middle" x="598.5" y="-422.5" font-family="Helvetica,sans-Serif" font-size="10.00">Cpl::Io::Stdio::StdOut</text>
</a>
</g>
</g>
<!-- Node25&#45;&gt;Node27 -->
<g id="edge28" class="edge"><title>Node25&#45;&gt;Node27</title>
<path fill="none" stroke="midnightblue" d="M497.978,-425C513.035,-425 528.848,-425 543.325,-425"/>
<polygon fill="midnightblue" stroke="midnightblue" points="497.7,-421.5 487.7,-425 497.7,-428.5 497.7,-421.5"/>
</g>
</g>
</svg>
