<?xml version="1.0" encoding="UTF-8" standalone="no"?>
<!DOCTYPE svg PUBLIC "-//W3C//DTD SVG 1.1//EN"
 "http://www.w3.org/Graphics/SVG/1.1/DTD/svg11.dtd">
<!-- Generated by graphviz version 2.38.0 (20140413.2041)
 -->
<!-- Title: Cpl::Io::Input Pages: 1 -->
<svg width="852pt" height="356pt"
 viewBox="0.00 0.00 852.00 356.00" xmlns="http://www.w3.org/2000/svg" xmlns:xlink="http://www.w3.org/1999/xlink">
<g id="graph0" class="graph" transform="scale(1 1) rotate(0) translate(4 352)">
<title>Cpl::Io::Input</title>
<polygon fill="white" stroke="none" points="-4,4 -4,-352 848,-352 848,4 -4,4"/>
<!-- Node1 -->
<g id="node1" class="node"><title>Node1</title>
<g id="a_node1"><a xlink:title="This partially abstract class defines a interface for operating on an input stream (example of a stre...">
<polygon fill="#bfbfbf" stroke="black" points="253,-126.5 253,-145.5 326,-145.5 326,-126.5 253,-126.5"/>
<text text-anchor="middle" x="289.5" y="-133.5" font-family="Helvetica,sans-Serif" font-size="10.00">Cpl::Io::Input</text>
</a>
</g>
</g>
<!-- Node5 -->
<g id="node5" class="node"><title>Node5</title>
<g id="a_node5"><a xlink:href="class_cpl_1_1_io_1_1_file_1_1_input_api.html" target="_top" xlink:title="This abstract class defines the interface for a Random Access Input File.">
<polygon fill="white" stroke="black" points="365.5,-290.5 365.5,-309.5 474.5,-309.5 474.5,-290.5 365.5,-290.5"/>
<text text-anchor="middle" x="420" y="-297.5" font-family="Helvetica,sans-Serif" font-size="10.00">Cpl::Io::File::InputApi</text>
</a>
</g>
</g>
<!-- Node1&#45;&gt;Node5 -->
<g id="edge4" class="edge"><title>Node1&#45;&gt;Node5</title>
<path fill="none" stroke="midnightblue" d="M304.649,-154.057C331.889,-188.823 390.761,-263.96 411.548,-290.489"/>
<polygon fill="midnightblue" stroke="midnightblue" points="307.076,-151.481 298.153,-145.768 301.566,-155.798 307.076,-151.481"/>
</g>
<!-- Node10 -->
<g id="node10" class="node"><title>Node10</title>
<g id="a_node10"><a xlink:href="class_cpl_1_1_io_1_1_input_output.html" target="_top" xlink:title="This abstract class defines a interface for operating on an input&#45;output stream (example of a stream ...">
<polygon fill="white" stroke="black" points="369,-148.5 369,-167.5 471,-167.5 471,-148.5 369,-148.5"/>
<text text-anchor="middle" x="420" y="-155.5" font-family="Helvetica,sans-Serif" font-size="10.00">Cpl::Io::InputOutput</text>
</a>
</g>
</g>
<!-- Node1&#45;&gt;Node10 -->
<g id="edge9" class="edge"><title>Node1&#45;&gt;Node10</title>
<path fill="none" stroke="midnightblue" d="M336.21,-143.826C346.834,-145.645 358.196,-147.59 368.994,-149.439"/>
<polygon fill="midnightblue" stroke="midnightblue" points="336.742,-140.366 326.294,-142.128 335.56,-147.266 336.742,-140.366"/>
</g>
<!-- Node18 -->
<g id="node18" class="node"><title>Node18</title>
<g id="a_node18"><a xlink:href="class_cpl_1_1_io_1_1_serial_1_1_r_p2040_1_1_stdio_1_1_input.html" target="_top" xlink:title="This concrete class implements a Input stream using Raspberry Pi RP2040&#39;s SDK.">
<polygon fill="white" stroke="black" points="362,-99 362,-129 478,-129 478,-99 362,-99"/>
<text text-anchor="start" x="370" y="-117" font-family="Helvetica,sans-Serif" font-size="10.00">Cpl::Io::Serial::RP2040</text>
<text text-anchor="middle" x="420" y="-106" font-family="Helvetica,sans-Serif" font-size="10.00">::Stdio::Input</text>
</a>
</g>
</g>
<!-- Node1&#45;&gt;Node18 -->
<g id="edge17" class="edge"><title>Node1&#45;&gt;Node18</title>
<path fill="none" stroke="midnightblue" d="M336.406,-128.141C344.608,-126.736 353.246,-125.257 361.72,-123.807"/>
<polygon fill="midnightblue" stroke="midnightblue" points="335.56,-124.734 326.294,-129.872 336.742,-131.634 335.56,-124.734"/>
</g>
<!-- Node19 -->
<g id="node19" class="node"><title>Node19</title>
<g id="a_node19"><a xlink:href="class_cpl_1_1_io_1_1_stdio_1_1_input__.html" target="_top" xlink:title="This concrete class implements a Input stream using the underlying platform&#39;s native OS &#39;file interfa...">
<polygon fill="white" stroke="black" points="366.5,-41.5 366.5,-60.5 473.5,-60.5 473.5,-41.5 366.5,-41.5"/>
<text text-anchor="middle" x="420" y="-48.5" font-family="Helvetica,sans-Serif" font-size="10.00">Cpl::Io::Stdio::Input_</text>
</a>
</g>
</g>
<!-- Node1&#45;&gt;Node19 -->
<g id="edge18" class="edge"><title>Node1&#45;&gt;Node19</title>
<path fill="none" stroke="midnightblue" d="M313.857,-120.55C340.239,-103.098 382.362,-75.2352 404.431,-60.6369"/>
<polygon fill="midnightblue" stroke="midnightblue" points="311.65,-117.813 305.241,-126.249 315.512,-123.652 311.65,-117.813"/>
</g>
<!-- Node2 -->
<g id="node2" class="node"><title>Node2</title>
<g id="a_node2"><a xlink:href="class_cpl_1_1_io_1_1_close.html" target="_top" xlink:title="This abstract class defines a close operation that is intended to be used Input and Output streams/fi...">
<polygon fill="white" stroke="black" points="140.5,-145.5 140.5,-164.5 216.5,-164.5 216.5,-145.5 140.5,-145.5"/>
<text text-anchor="middle" x="178.5" y="-152.5" font-family="Helvetica,sans-Serif" font-size="10.00">Cpl::Io::Close</text>
</a>
</g>
</g>
<!-- Node2&#45;&gt;Node1 -->
<g id="edge1" class="edge"><title>Node2&#45;&gt;Node1</title>
<path fill="none" stroke="midnightblue" d="M226.82,-146.751C235.582,-145.224 244.595,-143.653 252.933,-142.2"/>
<polygon fill="midnightblue" stroke="midnightblue" points="225.957,-143.349 216.707,-148.514 227.159,-150.245 225.957,-143.349"/>
</g>
<!-- Node3 -->
<g id="node3" class="node"><title>Node3</title>
<g id="a_node3"><a xlink:href="class_cpl_1_1_container_1_1_item.html" target="_top" xlink:title="This class is used by the Container classes to implement a various types of singly linked containers.">
<polygon fill="white" stroke="black" points="0,-145.5 0,-164.5 104,-164.5 104,-145.5 0,-145.5"/>
<text text-anchor="middle" x="52" y="-152.5" font-family="Helvetica,sans-Serif" font-size="10.00">Cpl::Container::Item</text>
</a>
</g>
</g>
<!-- Node3&#45;&gt;Node2 -->
<g id="edge2" class="edge"><title>Node3&#45;&gt;Node2</title>
<path fill="none" stroke="midnightblue" d="M114.622,-155C123.408,-155 132.211,-155 140.33,-155"/>
<polygon fill="midnightblue" stroke="midnightblue" points="114.358,-151.5 104.358,-155 114.358,-158.5 114.358,-151.5"/>
</g>
<!-- Node4 -->
<g id="node4" class="node"><title>Node4</title>
<g id="a_node4"><a xlink:href="class_cpl_1_1_io_1_1_is_eos.html" target="_top" xlink:title="This abstract class defines a isEos() operation that is intended to be used Input and Output streams.">
<polygon fill="white" stroke="black" points="140,-107.5 140,-126.5 217,-126.5 217,-107.5 140,-107.5"/>
<text text-anchor="middle" x="178.5" y="-114.5" font-family="Helvetica,sans-Serif" font-size="10.00">Cpl::Io::IsEos</text>
</a>
</g>
</g>
<!-- Node4&#45;&gt;Node1 -->
<g id="edge3" class="edge"><title>Node4&#45;&gt;Node1</title>
<path fill="none" stroke="midnightblue" d="M226.996,-125.279C235.641,-126.786 244.524,-128.335 252.757,-129.77"/>
<polygon fill="midnightblue" stroke="midnightblue" points="227.464,-121.808 217.012,-123.539 226.262,-128.704 227.464,-121.808"/>
</g>
<!-- Node6 -->
<g id="node6" class="node"><title>Node6</title>
<g id="a_node6"><a xlink:href="class_cpl_1_1_io_1_1_file_1_1_input.html" target="_top" xlink:title="This concrete class provides a platform independent &#39;standard&#39; implementation of a Cpl::Io::File::Inp...">
<polygon fill="white" stroke="black" points="536,-328.5 536,-347.5 631,-347.5 631,-328.5 536,-328.5"/>
<text text-anchor="middle" x="583.5" y="-335.5" font-family="Helvetica,sans-Serif" font-size="10.00">Cpl::Io::File::Input</text>
</a>
</g>
</g>
<!-- Node5&#45;&gt;Node6 -->
<g id="edge5" class="edge"><title>Node5&#45;&gt;Node6</title>
<path fill="none" stroke="midnightblue" d="M471.558,-311.896C494.259,-317.237 520.678,-323.454 542.04,-328.48"/>
<polygon fill="midnightblue" stroke="midnightblue" points="472.289,-308.473 461.753,-309.589 470.686,-315.286 472.289,-308.473"/>
</g>
<!-- Node7 -->
<g id="node7" class="node"><title>Node7</title>
<g id="a_node7"><a xlink:href="class_cpl_1_1_io_1_1_file_1_1_input_output_api.html" target="_top" xlink:title="This abstract class defines the interface for a Random Access Input Output File.">
<polygon fill="white" stroke="black" points="514.5,-290.5 514.5,-309.5 652.5,-309.5 652.5,-290.5 514.5,-290.5"/>
<text text-anchor="middle" x="583.5" y="-297.5" font-family="Helvetica,sans-Serif" font-size="10.00">Cpl::Io::File::InputOutputApi</text>
</a>
</g>
</g>
<!-- Node5&#45;&gt;Node7 -->
<g id="edge6" class="edge"><title>Node5&#45;&gt;Node7</title>
<path fill="none" stroke="midnightblue" d="M485.052,-300C494.666,-300 504.609,-300 514.306,-300"/>
<polygon fill="midnightblue" stroke="midnightblue" points="484.777,-296.5 474.777,-300 484.777,-303.5 484.777,-296.5"/>
</g>
<!-- Node8 -->
<g id="node8" class="node"><title>Node8</title>
<g id="a_node8"><a xlink:href="class_cpl_1_1_io_1_1_file_1_1_input_output.html" target="_top" xlink:title="This concrete class provides a platform independent &#39;standard&#39; implementation of an InputOutputFileAp...">
<polygon fill="white" stroke="black" points="704.5,-309.5 704.5,-328.5 828.5,-328.5 828.5,-309.5 704.5,-309.5"/>
<text text-anchor="middle" x="766.5" y="-316.5" font-family="Helvetica,sans-Serif" font-size="10.00">Cpl::Io::File::InputOutput</text>
</a>
</g>
</g>
<!-- Node7&#45;&gt;Node8 -->
<g id="edge7" class="edge"><title>Node7&#45;&gt;Node8</title>
<path fill="none" stroke="midnightblue" d="M662.702,-308.209C676.6,-309.668 690.893,-311.168 704.236,-312.569"/>
<polygon fill="midnightblue" stroke="midnightblue" points="662.981,-304.719 652.67,-307.156 662.25,-311.681 662.981,-304.719"/>
</g>
<!-- Node9 -->
<g id="node9" class="node"><title>Node9</title>
<g id="a_node9"><a xlink:href="class_cpl_1_1_io_1_1_file_1_1_null.html" target="_top" xlink:title="This concrete class implements a NULL InputOutputApi File that all of its input operations return &#39;En...">
<polygon fill="white" stroke="black" points="722,-271.5 722,-290.5 811,-290.5 811,-271.5 722,-271.5"/>
<text text-anchor="middle" x="766.5" y="-278.5" font-family="Helvetica,sans-Serif" font-size="10.00">Cpl::Io::File::Null</text>
</a>
</g>
</g>
<!-- Node7&#45;&gt;Node9 -->
<g id="edge8" class="edge"><title>Node7&#45;&gt;Node9</title>
<path fill="none" stroke="midnightblue" d="M662.818,-291.779C683.017,-289.658 704.041,-287.451 721.766,-285.591"/>
<polygon fill="midnightblue" stroke="midnightblue" points="662.25,-288.319 652.67,-292.844 662.981,-295.281 662.25,-288.319"/>
</g>
<!-- Node11 -->
<g id="node11" class="node"><title>Node11</title>
<g id="a_node11"><a xlink:href="class_cpl_1_1_io_1_1_null.html" target="_top" xlink:title="This concrete class implements a NULL InputOutput stream &#45; that all of its input operations return &#39;E...">
<polygon fill="white" stroke="black" points="549.5,-252.5 549.5,-271.5 617.5,-271.5 617.5,-252.5 549.5,-252.5"/>
<text text-anchor="middle" x="583.5" y="-259.5" font-family="Helvetica,sans-Serif" font-size="10.00">Cpl::Io::Null</text>
</a>
</g>
</g>
<!-- Node10&#45;&gt;Node11 -->
<g id="edge10" class="edge"><title>Node10&#45;&gt;Node11</title>
<path fill="none" stroke="midnightblue" d="M435.506,-175.478C452.424,-194.757 482.159,-225.376 514,-243 524.798,-248.977 537.612,-253.183 549.22,-256.09"/>
<polygon fill="midnightblue" stroke="midnightblue" points="438.039,-173.056 428.873,-167.744 432.726,-177.613 438.039,-173.056"/>
</g>
<!-- Node12 -->
<g id="node12" class="node"><title>Node12</title>
<g id="a_node12"><a xlink:href="class_cpl_1_1_io_1_1_ram_1_1_input_output.html" target="_top" xlink:title="This concrete class implements an InputOutput stream using a Ring Buffer.">
<polygon fill="white" stroke="black" points="519.5,-214.5 519.5,-233.5 647.5,-233.5 647.5,-214.5 519.5,-214.5"/>
<text text-anchor="middle" x="583.5" y="-221.5" font-family="Helvetica,sans-Serif" font-size="10.00">Cpl::Io::Ram::InputOutput</text>
</a>
</g>
</g>
<!-- Node10&#45;&gt;Node12 -->
<g id="edge11" class="edge"><title>Node10&#45;&gt;Node12</title>
<path fill="none" stroke="midnightblue" d="M446.98,-172.385C465.33,-182.162 490.705,-194.919 514,-204 524.042,-207.915 535.17,-211.479 545.486,-214.478"/>
<polygon fill="midnightblue" stroke="midnightblue" points="448.535,-169.247 438.072,-167.579 445.211,-175.408 448.535,-169.247"/>
</g>
<!-- Node13 -->
<g id="node13" class="node"><title>Node13</title>
<g id="a_node13"><a xlink:href="class_cpl_1_1_io_1_1_serial_1_1_r_p2040_1_1_uart_1_1_input_output.html" target="_top" xlink:title="This concrete class implements a Input stream using Raspberry Pi UART interface/hardware.">
<polygon fill="white" stroke="black" points="525.5,-165 525.5,-195 641.5,-195 641.5,-165 525.5,-165"/>
<text text-anchor="start" x="533.5" y="-183" font-family="Helvetica,sans-Serif" font-size="10.00">Cpl::Io::Serial::RP2040</text>
<text text-anchor="middle" x="583.5" y="-172" font-family="Helvetica,sans-Serif" font-size="10.00">::Uart::InputOutput</text>
</a>
</g>
</g>
<!-- Node10&#45;&gt;Node13 -->
<g id="edge12" class="edge"><title>Node10&#45;&gt;Node13</title>
<path fill="none" stroke="midnightblue" d="M481.469,-166.237C495.813,-168.191 511.07,-170.27 525.265,-172.203"/>
<polygon fill="midnightblue" stroke="midnightblue" points="481.595,-162.722 471.214,-164.84 480.65,-169.658 481.595,-162.722"/>
</g>
<!-- Node14 -->
<g id="node14" class="node"><title>Node14</title>
<g id="a_node14"><a xlink:href="class_cpl_1_1_io_1_1_socket_1_1_input_output.html" target="_top" xlink:title="This concrete class provides a platform independent &#39;standard&#39; implementation of an InputOutput strea...">
<polygon fill="white" stroke="black" points="514,-126.5 514,-145.5 653,-145.5 653,-126.5 514,-126.5"/>
<text text-anchor="middle" x="583.5" y="-133.5" font-family="Helvetica,sans-Serif" font-size="10.00">Cpl::Io::Socket::InputOutput</text>
</a>
</g>
</g>
<!-- Node10&#45;&gt;Node14 -->
<g id="edge13" class="edge"><title>Node10&#45;&gt;Node14</title>
<path fill="none" stroke="midnightblue" d="M481.246,-149.793C491.899,-148.342 503.063,-146.821 513.925,-145.341"/>
<polygon fill="midnightblue" stroke="midnightblue" points="480.65,-146.342 471.214,-151.16 481.595,-153.278 480.65,-146.342"/>
</g>
<!-- Node15 -->
<g id="node15" class="node"><title>Node15</title>
<g id="a_node15"><a xlink:href="class_cpl_1_1_io_1_1_stdio_1_1_input_output__.html" target="_top" xlink:title="This concrete class implements a Input&#45;Output stream.">
<polygon fill="white" stroke="black" points="515.5,-88.5 515.5,-107.5 651.5,-107.5 651.5,-88.5 515.5,-88.5"/>
<text text-anchor="middle" x="583.5" y="-95.5" font-family="Helvetica,sans-Serif" font-size="10.00">Cpl::Io::Stdio::InputOutput_</text>
</a>
</g>
</g>
<!-- Node10&#45;&gt;Node15 -->
<g id="edge14" class="edge"><title>Node10&#45;&gt;Node15</title>
<path fill="none" stroke="midnightblue" d="M461.134,-145.006C466.865,-142.837 472.633,-140.479 478,-138 494.816,-130.232 496.934,-124.202 514,-117 522.642,-113.353 532.189,-110.197 541.344,-107.562"/>
<polygon fill="midnightblue" stroke="midnightblue" points="459.806,-141.764 451.6,-148.466 462.194,-148.344 459.806,-141.764"/>
</g>
<!-- Node16 -->
<g id="node16" class="node"><title>Node16</title>
<g id="a_node16"><a xlink:href="class_driver_1_1_uart_1_1_stream_1_1_input_output__.html" target="_top" xlink:title="This private concrete class implements the InputOutput stream interface using the UART stream driver.">
<polygon fill="white" stroke="black" points="531.5,-39 531.5,-69 635.5,-69 635.5,-39 531.5,-39"/>
<text text-anchor="start" x="539.5" y="-57" font-family="Helvetica,sans-Serif" font-size="10.00">Driver::Uart::Stream</text>
<text text-anchor="middle" x="583.5" y="-46" font-family="Helvetica,sans-Serif" font-size="10.00">::InputOutput_</text>
</a>
</g>
</g>
<!-- Node10&#45;&gt;Node16 -->
<g id="edge15" class="edge"><title>Node10&#45;&gt;Node16</title>
<path fill="none" stroke="midnightblue" d="M468.988,-144.029C472.181,-142.246 475.225,-140.245 478,-138 501.882,-118.68 490.239,-98.4687 514,-79 519.19,-74.7475 525.167,-71.1843 531.383,-68.2072"/>
<polygon fill="midnightblue" stroke="midnightblue" points="467.191,-141.009 459.695,-148.497 470.224,-147.318 467.191,-141.009"/>
</g>
<!-- Node17 -->
<g id="node17" class="node"><title>Node17</title>
<g id="a_node17"><a xlink:href="class_cpl_1_1_io_1_1_serial_1_1_renesas_1_1_rx62n_1_1_input_output.html" target="_top" xlink:title="This template provides a concrete implementation of the Cpl::Io InputOutput stream interface using on...">
<polygon fill="white" stroke="black" points="689,-33.5 689,-74.5 844,-74.5 844,-33.5 689,-33.5"/>
<text text-anchor="start" x="697" y="-62.5" font-family="Helvetica,sans-Serif" font-size="10.00">Cpl::Io::Serial::Renesas</text>
<text text-anchor="start" x="697" y="-51.5" font-family="Helvetica,sans-Serif" font-size="10.00">::Rx62n::InputOutput&lt; TXSIZE,</text>
<text text-anchor="middle" x="766.5" y="-40.5" font-family="Helvetica,sans-Serif" font-size="10.00"> RXSIZE &gt;</text>
</a>
</g>
</g>
<!-- Node16&#45;&gt;Node17 -->
<g id="edge16" class="edge"><title>Node16&#45;&gt;Node17</title>
<path fill="none" stroke="midnightblue" d="M646.188,-54C659.948,-54 674.701,-54 688.977,-54"/>
<polygon fill="midnightblue" stroke="midnightblue" points="645.883,-50.5001 635.883,-54 645.883,-57.5001 645.883,-50.5001"/>
</g>
<!-- Node20 -->
<g id="node20" class="node"><title>Node20</title>
<g id="a_node20"><a xlink:href="class_cpl_1_1_io_1_1_stdio_1_1_std_in.html" target="_top" xlink:title="This concrete class represents the C&#45;library &#39;stdin&#39; stream.">
<polygon fill="white" stroke="black" points="532,-0.5 532,-19.5 635,-19.5 635,-0.5 532,-0.5"/>
<text text-anchor="middle" x="583.5" y="-7.5" font-family="Helvetica,sans-Serif" font-size="10.00">Cpl::Io::Stdio::StdIn</text>
</a>
</g>
</g>
<!-- Node19&#45;&gt;Node20 -->
<g id="edge19" class="edge"><title>Node19&#45;&gt;Node20</title>
<path fill="none" stroke="midnightblue" d="M468.245,-39.0058C492.685,-32.8013 522.102,-25.3331 544.966,-19.5286"/>
<polygon fill="midnightblue" stroke="midnightblue" points="467.289,-35.6376 458.457,-41.4907 469.011,-42.4224 467.289,-35.6376"/>
</g>
</g>
</svg>
