<?xml version="1.0" encoding="UTF-8" standalone="no"?>
<!DOCTYPE svg PUBLIC "-//W3C//DTD SVG 1.1//EN"
 "http://www.w3.org/Graphics/SVG/1.1/DTD/svg11.dtd">
<!-- Generated by graphviz version 2.38.0 (20140413.2041)
 -->
<!-- Title: Cpl::Io::Input Pages: 1 -->
<svg width="852pt" height="318pt"
 viewBox="0.00 0.00 852.00 318.00" xmlns="http://www.w3.org/2000/svg" xmlns:xlink="http://www.w3.org/1999/xlink">
<g id="graph0" class="graph" transform="scale(1 1) rotate(0) translate(4 314)">
<title>Cpl::Io::Input</title>
<polygon fill="white" stroke="none" points="-4,4 -4,-314 848,-314 848,4 -4,4"/>
<!-- Node1 -->
<g id="node1" class="node"><title>Node1</title>
<g id="a_node1"><a xlink:title="This partially abstract class defines a interface for operating on an input stream (example of a stre...">
<polygon fill="#bfbfbf" stroke="black" points="253,-104.5 253,-123.5 326,-123.5 326,-104.5 253,-104.5"/>
<text text-anchor="middle" x="289.5" y="-111.5" font-family="Helvetica,sans-Serif" font-size="10.00">Cpl::Io::Input</text>
</a>
</g>
</g>
<!-- Node5 -->
<g id="node5" class="node"><title>Node5</title>
<g id="a_node5"><a xlink:href="class_cpl_1_1_io_1_1_file_1_1_input_api.html" target="_top" xlink:title="This abstract class defines the interface for a Random Access Input File.">
<polygon fill="white" stroke="black" points="365.5,-252.5 365.5,-271.5 474.5,-271.5 474.5,-252.5 365.5,-252.5"/>
<text text-anchor="middle" x="420" y="-259.5" font-family="Helvetica,sans-Serif" font-size="10.00">Cpl::Io::File::InputApi</text>
</a>
</g>
</g>
<!-- Node1&#45;&gt;Node5 -->
<g id="edge4" class="edge"><title>Node1&#45;&gt;Node5</title>
<path fill="none" stroke="midnightblue" d="M305.824,-131.649C333.176,-163.152 389.521,-228.047 410.705,-252.446"/>
<polygon fill="midnightblue" stroke="midnightblue" points="308.13,-128.967 298.931,-123.711 302.845,-133.556 308.13,-128.967"/>
</g>
<!-- Node10 -->
<g id="node10" class="node"><title>Node10</title>
<g id="a_node10"><a xlink:href="class_cpl_1_1_io_1_1_input_output.html" target="_top" xlink:title="This abstract class defines a interface for operating on an input&#45;output stream (example of a stream ...">
<polygon fill="white" stroke="black" points="369,-126.5 369,-145.5 471,-145.5 471,-126.5 369,-126.5"/>
<text text-anchor="middle" x="420" y="-133.5" font-family="Helvetica,sans-Serif" font-size="10.00">Cpl::Io::InputOutput</text>
</a>
</g>
</g>
<!-- Node1&#45;&gt;Node10 -->
<g id="edge9" class="edge"><title>Node1&#45;&gt;Node10</title>
<path fill="none" stroke="midnightblue" d="M336.21,-121.826C346.834,-123.645 358.196,-125.59 368.994,-127.439"/>
<polygon fill="midnightblue" stroke="midnightblue" points="336.742,-118.366 326.294,-120.128 335.56,-125.266 336.742,-118.366"/>
</g>
<!-- Node17 -->
<g id="node17" class="node"><title>Node17</title>
<g id="a_node17"><a xlink:href="class_cpl_1_1_io_1_1_serial_1_1_r_p2040_1_1_stdio_1_1_input.html" target="_top" xlink:title="This concrete class implements a Input stream using Raspberry Pi RP2040&#39;s SDK.">
<polygon fill="white" stroke="black" points="362,-77 362,-107 478,-107 478,-77 362,-77"/>
<text text-anchor="start" x="370" y="-95" font-family="Helvetica,sans-Serif" font-size="10.00">Cpl::Io::Serial::RP2040</text>
<text text-anchor="middle" x="420" y="-84" font-family="Helvetica,sans-Serif" font-size="10.00">::Stdio::Input</text>
</a>
</g>
</g>
<!-- Node1&#45;&gt;Node17 -->
<g id="edge16" class="edge"><title>Node1&#45;&gt;Node17</title>
<path fill="none" stroke="midnightblue" d="M336.406,-106.141C344.608,-104.736 353.246,-103.257 361.72,-101.807"/>
<polygon fill="midnightblue" stroke="midnightblue" points="335.56,-102.734 326.294,-107.872 336.742,-109.634 335.56,-102.734"/>
</g>
<!-- Node18 -->
<g id="node18" class="node"><title>Node18</title>
<g id="a_node18"><a xlink:href="class_cpl_1_1_io_1_1_stdio_1_1_input__.html" target="_top" xlink:title="This concrete class implements a Input stream using the underlying platform&#39;s native OS &#39;file interfa...">
<polygon fill="white" stroke="black" points="366.5,-19.5 366.5,-38.5 473.5,-38.5 473.5,-19.5 366.5,-19.5"/>
<text text-anchor="middle" x="420" y="-26.5" font-family="Helvetica,sans-Serif" font-size="10.00">Cpl::Io::Stdio::Input_</text>
</a>
</g>
</g>
<!-- Node1&#45;&gt;Node18 -->
<g id="edge17" class="edge"><title>Node1&#45;&gt;Node18</title>
<path fill="none" stroke="midnightblue" d="M313.857,-98.5497C340.239,-81.0984 382.362,-53.2352 404.431,-38.6369"/>
<polygon fill="midnightblue" stroke="midnightblue" points="311.65,-95.8132 305.241,-104.249 315.512,-101.652 311.65,-95.8132"/>
</g>
<!-- Node2 -->
<g id="node2" class="node"><title>Node2</title>
<g id="a_node2"><a xlink:href="class_cpl_1_1_io_1_1_close.html" target="_top" xlink:title="This abstract class defines a close operation that is intended to be used Input and Output streams/fi...">
<polygon fill="white" stroke="black" points="140.5,-123.5 140.5,-142.5 216.5,-142.5 216.5,-123.5 140.5,-123.5"/>
<text text-anchor="middle" x="178.5" y="-130.5" font-family="Helvetica,sans-Serif" font-size="10.00">Cpl::Io::Close</text>
</a>
</g>
</g>
<!-- Node2&#45;&gt;Node1 -->
<g id="edge1" class="edge"><title>Node2&#45;&gt;Node1</title>
<path fill="none" stroke="midnightblue" d="M226.82,-124.751C235.582,-123.224 244.595,-121.653 252.933,-120.2"/>
<polygon fill="midnightblue" stroke="midnightblue" points="225.957,-121.349 216.707,-126.514 227.159,-128.245 225.957,-121.349"/>
</g>
<!-- Node3 -->
<g id="node3" class="node"><title>Node3</title>
<g id="a_node3"><a xlink:href="class_cpl_1_1_container_1_1_item.html" target="_top" xlink:title="This class is used by the Container classes to implement a various types of singly linked containers.">
<polygon fill="white" stroke="black" points="0,-123.5 0,-142.5 104,-142.5 104,-123.5 0,-123.5"/>
<text text-anchor="middle" x="52" y="-130.5" font-family="Helvetica,sans-Serif" font-size="10.00">Cpl::Container::Item</text>
</a>
</g>
</g>
<!-- Node3&#45;&gt;Node2 -->
<g id="edge2" class="edge"><title>Node3&#45;&gt;Node2</title>
<path fill="none" stroke="midnightblue" d="M114.622,-133C123.408,-133 132.211,-133 140.33,-133"/>
<polygon fill="midnightblue" stroke="midnightblue" points="114.358,-129.5 104.358,-133 114.358,-136.5 114.358,-129.5"/>
</g>
<!-- Node4 -->
<g id="node4" class="node"><title>Node4</title>
<g id="a_node4"><a xlink:href="class_cpl_1_1_io_1_1_is_eos.html" target="_top" xlink:title="This abstract class defines a isEos() operation that is intended to be used Input and Output streams.">
<polygon fill="white" stroke="black" points="140,-85.5 140,-104.5 217,-104.5 217,-85.5 140,-85.5"/>
<text text-anchor="middle" x="178.5" y="-92.5" font-family="Helvetica,sans-Serif" font-size="10.00">Cpl::Io::IsEos</text>
</a>
</g>
</g>
<!-- Node4&#45;&gt;Node1 -->
<g id="edge3" class="edge"><title>Node4&#45;&gt;Node1</title>
<path fill="none" stroke="midnightblue" d="M226.996,-103.279C235.641,-104.786 244.524,-106.335 252.757,-107.77"/>
<polygon fill="midnightblue" stroke="midnightblue" points="227.464,-99.808 217.012,-101.539 226.262,-106.704 227.464,-99.808"/>
</g>
<!-- Node6 -->
<g id="node6" class="node"><title>Node6</title>
<g id="a_node6"><a xlink:href="class_cpl_1_1_io_1_1_file_1_1_input.html" target="_top" xlink:title="This concrete class provides a platform independent &#39;standard&#39; implementation of a Cpl::Io::File::Inp...">
<polygon fill="white" stroke="black" points="536,-290.5 536,-309.5 631,-309.5 631,-290.5 536,-290.5"/>
<text text-anchor="middle" x="583.5" y="-297.5" font-family="Helvetica,sans-Serif" font-size="10.00">Cpl::Io::File::Input</text>
</a>
</g>
</g>
<!-- Node5&#45;&gt;Node6 -->
<g id="edge5" class="edge"><title>Node5&#45;&gt;Node6</title>
<path fill="none" stroke="midnightblue" d="M471.558,-273.896C494.259,-279.237 520.678,-285.454 542.04,-290.48"/>
<polygon fill="midnightblue" stroke="midnightblue" points="472.289,-270.473 461.753,-271.589 470.686,-277.286 472.289,-270.473"/>
</g>
<!-- Node7 -->
<g id="node7" class="node"><title>Node7</title>
<g id="a_node7"><a xlink:href="class_cpl_1_1_io_1_1_file_1_1_input_output_api.html" target="_top" xlink:title="This abstract class defines the interface for a Random Access Input Output File.">
<polygon fill="white" stroke="black" points="514.5,-252.5 514.5,-271.5 652.5,-271.5 652.5,-252.5 514.5,-252.5"/>
<text text-anchor="middle" x="583.5" y="-259.5" font-family="Helvetica,sans-Serif" font-size="10.00">Cpl::Io::File::InputOutputApi</text>
</a>
</g>
</g>
<!-- Node5&#45;&gt;Node7 -->
<g id="edge6" class="edge"><title>Node5&#45;&gt;Node7</title>
<path fill="none" stroke="midnightblue" d="M485.052,-262C494.666,-262 504.609,-262 514.306,-262"/>
<polygon fill="midnightblue" stroke="midnightblue" points="484.777,-258.5 474.777,-262 484.777,-265.5 484.777,-258.5"/>
</g>
<!-- Node8 -->
<g id="node8" class="node"><title>Node8</title>
<g id="a_node8"><a xlink:href="class_cpl_1_1_io_1_1_file_1_1_input_output.html" target="_top" xlink:title="This concrete class provides a platform independent &#39;standard&#39; implementation of an InputOutputFileAp...">
<polygon fill="white" stroke="black" points="704.5,-271.5 704.5,-290.5 828.5,-290.5 828.5,-271.5 704.5,-271.5"/>
<text text-anchor="middle" x="766.5" y="-278.5" font-family="Helvetica,sans-Serif" font-size="10.00">Cpl::Io::File::InputOutput</text>
</a>
</g>
</g>
<!-- Node7&#45;&gt;Node8 -->
<g id="edge7" class="edge"><title>Node7&#45;&gt;Node8</title>
<path fill="none" stroke="midnightblue" d="M662.702,-270.209C676.6,-271.668 690.893,-273.168 704.236,-274.569"/>
<polygon fill="midnightblue" stroke="midnightblue" points="662.981,-266.719 652.67,-269.156 662.25,-273.681 662.981,-266.719"/>
</g>
<!-- Node9 -->
<g id="node9" class="node"><title>Node9</title>
<g id="a_node9"><a xlink:href="class_cpl_1_1_io_1_1_file_1_1_null.html" target="_top" xlink:title="This concrete class implements a NULL InputOutputApi File that all of its input operations return &#39;En...">
<polygon fill="white" stroke="black" points="722,-233.5 722,-252.5 811,-252.5 811,-233.5 722,-233.5"/>
<text text-anchor="middle" x="766.5" y="-240.5" font-family="Helvetica,sans-Serif" font-size="10.00">Cpl::Io::File::Null</text>
</a>
</g>
</g>
<!-- Node7&#45;&gt;Node9 -->
<g id="edge8" class="edge"><title>Node7&#45;&gt;Node9</title>
<path fill="none" stroke="midnightblue" d="M662.818,-253.779C683.017,-251.658 704.041,-249.451 721.766,-247.591"/>
<polygon fill="midnightblue" stroke="midnightblue" points="662.25,-250.319 652.67,-254.844 662.981,-257.281 662.25,-250.319"/>
</g>
<!-- Node11 -->
<g id="node11" class="node"><title>Node11</title>
<g id="a_node11"><a xlink:href="class_cpl_1_1_io_1_1_null.html" target="_top" xlink:title="This concrete class implements a NULL InputOutput stream &#45; that all of its input operations return &#39;E...">
<polygon fill="white" stroke="black" points="549.5,-214.5 549.5,-233.5 617.5,-233.5 617.5,-214.5 549.5,-214.5"/>
<text text-anchor="middle" x="583.5" y="-221.5" font-family="Helvetica,sans-Serif" font-size="10.00">Cpl::Io::Null</text>
</a>
</g>
</g>
<!-- Node10&#45;&gt;Node11 -->
<g id="edge10" class="edge"><title>Node10&#45;&gt;Node11</title>
<path fill="none" stroke="midnightblue" d="M439.533,-152.591C457.45,-167.861 485.937,-190.176 514,-204 525.003,-209.42 537.74,-213.639 549.224,-216.775"/>
<polygon fill="midnightblue" stroke="midnightblue" points="441.479,-149.645 431.634,-145.728 436.887,-154.929 441.479,-149.645"/>
</g>
<!-- Node12 -->
<g id="node12" class="node"><title>Node12</title>
<g id="a_node12"><a xlink:href="class_cpl_1_1_io_1_1_serial_1_1_r_p2040_1_1_uart_1_1_input_output.html" target="_top" xlink:title="This concrete class implements a Input stream using Raspberry Pi UART interface/hardware.">
<polygon fill="white" stroke="black" points="525.5,-165 525.5,-195 641.5,-195 641.5,-165 525.5,-165"/>
<text text-anchor="start" x="533.5" y="-183" font-family="Helvetica,sans-Serif" font-size="10.00">Cpl::Io::Serial::RP2040</text>
<text text-anchor="middle" x="583.5" y="-172" font-family="Helvetica,sans-Serif" font-size="10.00">::Uart::InputOutput</text>
</a>
</g>
</g>
<!-- Node10&#45;&gt;Node12 -->
<g id="edge11" class="edge"><title>Node10&#45;&gt;Node12</title>
<path fill="none" stroke="midnightblue" d="M465.927,-148.24C484.915,-153.413 507.218,-159.49 527.203,-164.935"/>
<polygon fill="midnightblue" stroke="midnightblue" points="466.611,-144.799 456.043,-145.547 464.771,-151.553 466.611,-144.799"/>
</g>
<!-- Node13 -->
<g id="node13" class="node"><title>Node13</title>
<g id="a_node13"><a xlink:href="class_cpl_1_1_io_1_1_socket_1_1_input_output.html" target="_top" xlink:title="This concrete class provides a platform independent &#39;standard&#39; implementation of an InputOutput strea...">
<polygon fill="white" stroke="black" points="514,-126.5 514,-145.5 653,-145.5 653,-126.5 514,-126.5"/>
<text text-anchor="middle" x="583.5" y="-133.5" font-family="Helvetica,sans-Serif" font-size="10.00">Cpl::Io::Socket::InputOutput</text>
</a>
</g>
</g>
<!-- Node10&#45;&gt;Node13 -->
<g id="edge12" class="edge"><title>Node10&#45;&gt;Node13</title>
<path fill="none" stroke="midnightblue" d="M481.246,-136C491.899,-136 503.063,-136 513.925,-136"/>
<polygon fill="midnightblue" stroke="midnightblue" points="481.214,-132.5 471.214,-136 481.214,-139.5 481.214,-132.5"/>
</g>
<!-- Node14 -->
<g id="node14" class="node"><title>Node14</title>
<g id="a_node14"><a xlink:href="class_cpl_1_1_io_1_1_stdio_1_1_input_output__.html" target="_top" xlink:title="This concrete class implements a Input&#45;Output stream.">
<polygon fill="white" stroke="black" points="515.5,-88.5 515.5,-107.5 651.5,-107.5 651.5,-88.5 515.5,-88.5"/>
<text text-anchor="middle" x="583.5" y="-95.5" font-family="Helvetica,sans-Serif" font-size="10.00">Cpl::Io::Stdio::InputOutput_</text>
</a>
</g>
</g>
<!-- Node10&#45;&gt;Node14 -->
<g id="edge13" class="edge"><title>Node10&#45;&gt;Node14</title>
<path fill="none" stroke="midnightblue" d="M471.558,-124.104C494.259,-118.763 520.678,-112.546 542.04,-107.52"/>
<polygon fill="midnightblue" stroke="midnightblue" points="470.686,-120.714 461.753,-126.411 472.289,-127.527 470.686,-120.714"/>
</g>
<!-- Node15 -->
<g id="node15" class="node"><title>Node15</title>
<g id="a_node15"><a xlink:href="class_driver_1_1_uart_1_1_stream_1_1_input_output__.html" target="_top" xlink:title="This private concrete class implements the InputOutput stream interface using the UART stream driver.">
<polygon fill="white" stroke="black" points="531.5,-39 531.5,-69 635.5,-69 635.5,-39 531.5,-39"/>
<text text-anchor="start" x="539.5" y="-57" font-family="Helvetica,sans-Serif" font-size="10.00">Driver::Uart::Stream</text>
<text text-anchor="middle" x="583.5" y="-46" font-family="Helvetica,sans-Serif" font-size="10.00">::InputOutput_</text>
</a>
</g>
</g>
<!-- Node10&#45;&gt;Node15 -->
<g id="edge14" class="edge"><title>Node10&#45;&gt;Node15</title>
<path fill="none" stroke="midnightblue" d="M465.716,-122.592C469.998,-120.639 474.167,-118.447 478,-116 497.338,-103.652 494.74,-91.4684 514,-79 519.845,-75.2162 526.34,-71.9043 532.937,-69.0362"/>
<polygon fill="midnightblue" stroke="midnightblue" points="464.161,-119.447 456.248,-126.492 466.827,-125.92 464.161,-119.447"/>
</g>
<!-- Node16 -->
<g id="node16" class="node"><title>Node16</title>
<g id="a_node16"><a xlink:href="class_cpl_1_1_io_1_1_serial_1_1_renesas_1_1_rx62n_1_1_input_output.html" target="_top" xlink:title="This template provides a concrete implementation of the Cpl::Io InputOutput stream interface using on...">
<polygon fill="white" stroke="black" points="689,-33.5 689,-74.5 844,-74.5 844,-33.5 689,-33.5"/>
<text text-anchor="start" x="697" y="-62.5" font-family="Helvetica,sans-Serif" font-size="10.00">Cpl::Io::Serial::Renesas</text>
<text text-anchor="start" x="697" y="-51.5" font-family="Helvetica,sans-Serif" font-size="10.00">::Rx62n::InputOutput&lt; TXSIZE,</text>
<text text-anchor="middle" x="766.5" y="-40.5" font-family="Helvetica,sans-Serif" font-size="10.00"> RXSIZE &gt;</text>
</a>
</g>
</g>
<!-- Node15&#45;&gt;Node16 -->
<g id="edge15" class="edge"><title>Node15&#45;&gt;Node16</title>
<path fill="none" stroke="midnightblue" d="M646.188,-54C659.948,-54 674.701,-54 688.977,-54"/>
<polygon fill="midnightblue" stroke="midnightblue" points="645.883,-50.5001 635.883,-54 645.883,-57.5001 645.883,-50.5001"/>
</g>
<!-- Node19 -->
<g id="node19" class="node"><title>Node19</title>
<g id="a_node19"><a xlink:href="class_cpl_1_1_io_1_1_stdio_1_1_std_in.html" target="_top" xlink:title="This concrete class represents the C&#45;library &#39;stdin&#39; stream.">
<polygon fill="white" stroke="black" points="532,-0.5 532,-19.5 635,-19.5 635,-0.5 532,-0.5"/>
<text text-anchor="middle" x="583.5" y="-7.5" font-family="Helvetica,sans-Serif" font-size="10.00">Cpl::Io::Stdio::StdIn</text>
</a>
</g>
</g>
<!-- Node18&#45;&gt;Node19 -->
<g id="edge18" class="edge"><title>Node18&#45;&gt;Node19</title>
<path fill="none" stroke="midnightblue" d="M484.14,-21.5718C500.002,-19.7057 516.816,-17.7275 531.971,-15.9445"/>
<polygon fill="midnightblue" stroke="midnightblue" points="483.404,-18.1342 473.881,-22.7787 484.222,-25.0862 483.404,-18.1342"/>
</g>
</g>
</svg>
