<?xml version="1.0" encoding="UTF-8" standalone="no"?>
<!DOCTYPE svg PUBLIC "-//W3C//DTD SVG 1.1//EN"
 "http://www.w3.org/Graphics/SVG/1.1/DTD/svg11.dtd">
<!-- Generated by graphviz version 2.38.0 (20140413.2041)
 -->
<!-- Title: Driver::LED::RedGreenBlue Pages: 1 -->
<svg width="256pt" height="95pt"
 viewBox="0.00 0.00 255.50 95.00" xmlns="http://www.w3.org/2000/svg" xmlns:xlink="http://www.w3.org/1999/xlink">
<g id="graph0" class="graph" transform="scale(1 1) rotate(0) translate(4 91)">
<title>Driver::LED::RedGreenBlue</title>
<polygon fill="white" stroke="none" points="-4,4 -4,-91 251.5,-91 251.5,4 -4,4"/>
<!-- Node1 -->
<g id="node1" class="node"><title>Node1</title>
<g id="a_node1"><a xlink:title="This abstract class defines a basic interface for a single Red&#45;Green&#45;Blue LED where the application c...">
<polygon fill="#bfbfbf" stroke="black" points="63.5,-67.5 63.5,-86.5 199.5,-86.5 199.5,-67.5 63.5,-67.5"/>
<text text-anchor="middle" x="131.5" y="-74.5" font-family="Helvetica,sans-Serif" font-size="10.00">Driver::LED::RedGreenBlue</text>
</a>
</g>
</g>
<!-- Node2 -->
<g id="node2" class="node"><title>Node2</title>
<g id="a_node2"><a xlink:href="class_driver_1_1_l_e_d_1_1_pimoroni_pico_1_1_red_green_blue.html" target="_top" xlink:title="This concrete class is wrapper to the pimoroni RGBLED class.">
<polygon fill="white" stroke="black" points="0,-0.5 0,-30.5 131,-30.5 131,-0.5 0,-0.5"/>
<text text-anchor="start" x="8" y="-18.5" font-family="Helvetica,sans-Serif" font-size="10.00">Driver::LED::PimoroniPico</text>
<text text-anchor="middle" x="65.5" y="-7.5" font-family="Helvetica,sans-Serif" font-size="10.00">::RedGreenBlue</text>
</a>
</g>
</g>
<!-- Node1&#45;&gt;Node2 -->
<g id="edge1" class="edge"><title>Node1&#45;&gt;Node2</title>
<path fill="none" stroke="midnightblue" d="M114.469,-60.6459C104.152,-51.3456 91.0925,-39.572 81.0549,-30.523"/>
<polygon fill="midnightblue" stroke="midnightblue" points="112.273,-63.3788 122.044,-67.4751 116.96,-58.1796 112.273,-63.3788"/>
</g>
<!-- Node3 -->
<g id="node3" class="node"><title>Node3</title>
<g id="a_node3"><a xlink:href="class_driver_1_1_l_e_d_1_1_t_pipe_1_1_red_gree_blue.html" target="_top" xlink:title="This concrete class implements the Red&#45;Green&#45;Blue LED interface by sending the LED state over the TPi...">
<polygon fill="white" stroke="black" points="149.5,-0.5 149.5,-30.5 247.5,-30.5 247.5,-0.5 149.5,-0.5"/>
<text text-anchor="start" x="157.5" y="-18.5" font-family="Helvetica,sans-Serif" font-size="10.00">Driver::LED::TPipe</text>
<text text-anchor="middle" x="198.5" y="-7.5" font-family="Helvetica,sans-Serif" font-size="10.00">::RedGreeBlue</text>
</a>
</g>
</g>
<!-- Node1&#45;&gt;Node3 -->
<g id="edge2" class="edge"><title>Node1&#45;&gt;Node3</title>
<path fill="none" stroke="midnightblue" d="M148.789,-60.6459C159.262,-51.3456 172.52,-39.572 182.709,-30.523"/>
<polygon fill="midnightblue" stroke="midnightblue" points="146.253,-58.2179 141.099,-67.4751 150.901,-63.4519 146.253,-58.2179"/>
</g>
</g>
</svg>
