<?xml version="1.0" encoding="UTF-8" standalone="no"?>
<!DOCTYPE svg PUBLIC "-//W3C//DTD SVG 1.1//EN"
 "http://www.w3.org/Graphics/SVG/1.1/DTD/svg11.dtd">
<!-- Generated by graphviz version 2.38.0 (20140413.2041)
 -->
<!-- Title: Cpl::Container::Item Pages: 1 -->
<svg width="791pt" height="1201pt"
 viewBox="0.00 0.00 791.00 1200.50" xmlns="http://www.w3.org/2000/svg" xmlns:xlink="http://www.w3.org/1999/xlink">
<g id="graph0" class="graph" transform="scale(1 1) rotate(0) translate(4 1196.5)">
<title>Cpl::Container::Item</title>
<polygon fill="white" stroke="none" points="-4,4 -4,-1196.5 787,-1196.5 787,4 -4,4"/>
<!-- Node1 -->
<g id="node1" class="node"><title>Node1</title>
<g id="a_node1"><a xlink:title="This class is used by the Container classes to implement a various types of singly linked containers.">
<polygon fill="#bfbfbf" stroke="black" points="0,-367 0,-386 104,-386 104,-367 0,-367"/>
<text text-anchor="middle" x="52" y="-374" font-family="Helvetica,sans-Serif" font-size="10.00">Cpl::Container::Item</text>
</a>
</g>
</g>
<!-- Node2 -->
<g id="node2" class="node"><title>Node2</title>
<g id="a_node2"><a xlink:href="class_cpl_1_1_container_1_1_extended_item.html" target="_top" xlink:title="This class is used by the Container classes to implement a various types of DOUBLY linked containers.">
<polygon fill="white" stroke="black" points="141,-1065 141,-1084 286,-1084 286,-1065 141,-1065"/>
<text text-anchor="middle" x="213.5" y="-1072" font-family="Helvetica,sans-Serif" font-size="10.00">Cpl::Container::ExtendedItem</text>
</a>
</g>
</g>
<!-- Node1&#45;&gt;Node2 -->
<g id="edge1" class="edge"><title>Node1&#45;&gt;Node2</title>
<path fill="none" stroke="midnightblue" d="M57.4339,-395.903C81.2212,-500.001 193.27,-990.348 210.322,-1064.97"/>
<polygon fill="midnightblue" stroke="midnightblue" points="60.8339,-395.071 55.194,-386.102 54.0097,-396.63 60.8339,-395.071"/>
</g>
<!-- Node40 -->
<g id="node13" class="node"><title>Node40</title>
<g id="a_node13"><a xlink:href="class_cpl_1_1_dm_1_1_model_point.html" target="_top" xlink:title="This mostly abstract class defines the interface for a Model Point.">
<polygon fill="white" stroke="black" points="160,-564 160,-583 267,-583 267,-564 160,-564"/>
<text text-anchor="middle" x="213.5" y="-571" font-family="Helvetica,sans-Serif" font-size="10.00">Cpl::Dm::ModelPoint</text>
</a>
</g>
</g>
<!-- Node1&#45;&gt;Node40 -->
<g id="edge12" class="edge"><title>Node1&#45;&gt;Node40</title>
<path fill="none" stroke="midnightblue" d="M61.7291,-395.323C75.7033,-424.173 105.199,-480.118 141,-519.5 157.637,-537.802 181.19,-554.2 196.649,-563.999"/>
<polygon fill="midnightblue" stroke="midnightblue" points="64.7527,-393.531 57.3,-386 58.4299,-396.534 64.7527,-393.531"/>
</g>
<!-- Node89 -->
<g id="node28" class="node"><title>Node89</title>
<g id="a_node28"><a xlink:href="class_cpl_1_1_io_1_1_close.html" target="_top" xlink:title="This abstract class defines a close operation that is intended to be used Input and Output streams/fi...">
<polygon fill="white" stroke="black" points="175.5,-491 175.5,-510 251.5,-510 251.5,-491 175.5,-491"/>
<text text-anchor="middle" x="213.5" y="-498" font-family="Helvetica,sans-Serif" font-size="10.00">Cpl::Io::Close</text>
</a>
</g>
</g>
<!-- Node1&#45;&gt;Node89 -->
<g id="edge27" class="edge"><title>Node1&#45;&gt;Node89</title>
<path fill="none" stroke="midnightblue" d="M65.426,-394.415C80.9412,-415.619 109.326,-450.782 141,-472.5 152.434,-480.34 166.379,-486.432 178.906,-490.901"/>
<polygon fill="midnightblue" stroke="midnightblue" points="68.0781,-392.106 59.4146,-386.008 62.3838,-396.178 68.0781,-392.106"/>
</g>
<!-- Node117 -->
<g id="node31" class="node"><title>Node117</title>
<g id="a_node31"><a xlink:href="class_cpl_1_1_io_1_1_line_reader_api.html" target="_top" xlink:title="This abstract class defines a interface for a stream line reader.">
<polygon fill="white" stroke="black" points="156.5,-444 156.5,-463 270.5,-463 270.5,-444 156.5,-444"/>
<text text-anchor="middle" x="213.5" y="-451" font-family="Helvetica,sans-Serif" font-size="10.00">Cpl::Io::LineReaderApi</text>
</a>
</g>
</g>
<!-- Node1&#45;&gt;Node117 -->
<g id="edge30" class="edge"><title>Node1&#45;&gt;Node117</title>
<path fill="none" stroke="midnightblue" d="M78.1976,-391.242C95.5817,-401.164 119.369,-414.255 141,-424.5 156.012,-431.61 173.256,-438.636 187.048,-443.992"/>
<polygon fill="midnightblue" stroke="midnightblue" points="79.6659,-388.049 69.253,-386.094 76.1741,-394.116 79.6659,-388.049"/>
</g>
<!-- Node119 -->
<g id="node33" class="node"><title>Node119</title>
<g id="a_node33"><a xlink:href="class_cpl_1_1_io_1_1_line_writer_api.html" target="_top" xlink:title="This abstract class defines a interface for a stream line writer.">
<polygon fill="white" stroke="black" points="159,-396 159,-415 268,-415 268,-396 159,-396"/>
<text text-anchor="middle" x="213.5" y="-403" font-family="Helvetica,sans-Serif" font-size="10.00">Cpl::Io::LineWriterApi</text>
</a>
</g>
</g>
<!-- Node1&#45;&gt;Node119 -->
<g id="edge32" class="edge"><title>Node1&#45;&gt;Node119</title>
<path fill="none" stroke="midnightblue" d="M114.587,-387.698C129.633,-390.433 145.589,-393.334 160.156,-395.983"/>
<polygon fill="midnightblue" stroke="midnightblue" points="114.81,-384.181 104.345,-385.835 113.557,-391.068 114.81,-384.181"/>
</g>
<!-- Node121 -->
<g id="node35" class="node"><title>Node121</title>
<g id="a_node35"><a xlink:href="class_cpl_1_1_memory_1_1_allocator.html" target="_top" xlink:title="This abstract class defines the interface for a Memory Allocator.">
<polygon fill="white" stroke="black" points="155.5,-339 155.5,-358 271.5,-358 271.5,-339 155.5,-339"/>
<text text-anchor="middle" x="213.5" y="-346" font-family="Helvetica,sans-Serif" font-size="10.00">Cpl::Memory::Allocator</text>
</a>
</g>
</g>
<!-- Node1&#45;&gt;Node121 -->
<g id="edge34" class="edge"><title>Node1&#45;&gt;Node121</title>
<path fill="none" stroke="midnightblue" d="M114.215,-365.754C128.709,-363.209 144.067,-360.513 158.228,-358.027"/>
<polygon fill="midnightblue" stroke="midnightblue" points="113.589,-362.31 104.345,-367.486 114.799,-369.205 113.589,-362.31"/>
</g>
<!-- Node129 -->
<g id="node41" class="node"><title>Node129</title>
<g id="a_node41"><a xlink:href="class_cpl_1_1_system_1_1_shutdown_1_1_handler.html" target="_top" xlink:title="This call defines the callback interface that is used when the application is shutdown.">
<polygon fill="white" stroke="black" points="154,-289.5 154,-319.5 273,-319.5 273,-289.5 154,-289.5"/>
<text text-anchor="start" x="162" y="-307.5" font-family="Helvetica,sans-Serif" font-size="10.00">Cpl::System::Shutdown</text>
<text text-anchor="middle" x="213.5" y="-296.5" font-family="Helvetica,sans-Serif" font-size="10.00">::Handler</text>
</a>
</g>
</g>
<!-- Node1&#45;&gt;Node129 -->
<g id="edge41" class="edge"><title>Node1&#45;&gt;Node129</title>
<path fill="none" stroke="midnightblue" d="M78.0801,-361.769C95.4124,-351.923 119.186,-339.071 141,-329.5 148.948,-326.013 157.55,-322.662 165.941,-319.609"/>
<polygon fill="midnightblue" stroke="midnightblue" points="76.0945,-358.873 69.1671,-366.889 79.5816,-364.943 76.0945,-358.873"/>
</g>
<!-- Node130 -->
<g id="node42" class="node"><title>Node130</title>
<g id="a_node42"><a xlink:href="class_cpl_1_1_system_1_1_signable.html" target="_top" xlink:title="This abstract class defines the interface by which a client can cause an object that is waiting&#45;on&#45;a&#45;...">
<polygon fill="white" stroke="black" points="156.5,-175 156.5,-194 270.5,-194 270.5,-175 156.5,-175"/>
<text text-anchor="middle" x="213.5" y="-182" font-family="Helvetica,sans-Serif" font-size="10.00">Cpl::System::Signable</text>
</a>
</g>
</g>
<!-- Node1&#45;&gt;Node130 -->
<g id="edge42" class="edge"><title>Node1&#45;&gt;Node130</title>
<path fill="none" stroke="midnightblue" d="M67.5155,-359.027C100.309,-319.551 179.229,-224.55 204.543,-194.079"/>
<polygon fill="midnightblue" stroke="midnightblue" points="64.6075,-357.05 60.9096,-366.979 69.9919,-361.523 64.6075,-357.05"/>
</g>
<!-- Node147 -->
<g id="node46" class="node"><title>Node147</title>
<g id="a_node46"><a xlink:href="class_cpl_1_1_system_1_1_sim_tick.html" target="_top" xlink:title="This class define the interface to provide a simulates system tick (in milliseconds) to the applicati...">
<polygon fill="white" stroke="black" points="157,-137 157,-156 270,-156 270,-137 157,-137"/>
<text text-anchor="middle" x="213.5" y="-144" font-family="Helvetica,sans-Serif" font-size="10.00">Cpl::System::SimTick</text>
</a>
</g>
</g>
<!-- Node1&#45;&gt;Node147 -->
<g id="edge46" class="edge"><title>Node1&#45;&gt;Node147</title>
<path fill="none" stroke="midnightblue" d="M55.4011,-356.785C61.5613,-315.001 81.8412,-217.146 141,-165.5 145.644,-161.445 151.061,-158.243 156.796,-155.717"/>
<polygon fill="midnightblue" stroke="midnightblue" points="51.9207,-356.405 54.0437,-366.785 58.8571,-357.347 51.9207,-356.405"/>
</g>
<!-- Node148 -->
<g id="node47" class="node"><title>Node148</title>
<g id="a_node47"><a xlink:href="class_cpl_1_1_system_1_1_startup_hook__.html" target="_top" xlink:title="This class defines a start&#45;up handler/hook that allows a Colony.Core sub&#45;system to register to be cal...">
<polygon fill="white" stroke="black" points="145.5,-55 145.5,-74 281.5,-74 281.5,-55 145.5,-55"/>
<text text-anchor="middle" x="213.5" y="-62" font-family="Helvetica,sans-Serif" font-size="10.00">Cpl::System::StartupHook_</text>
</a>
</g>
</g>
<!-- Node1&#45;&gt;Node148 -->
<g id="edge47" class="edge"><title>Node1&#45;&gt;Node148</title>
<path fill="none" stroke="midnightblue" d="M56.4447,-356.609C64.8505,-312.259 89.5954,-203.227 141,-127.5 156.332,-104.914 181.602,-85.2712 197.631,-74.1604"/>
<polygon fill="midnightblue" stroke="midnightblue" points="52.9634,-356.19 54.6142,-366.655 59.85,-357.445 52.9634,-356.19"/>
</g>
<!-- Node3 -->
<g id="node3" class="node"><title>Node3</title>
<g id="a_node3"><a xlink:href="class_cpl_1_1_container_1_1_dict_item.html" target="_top" xlink:title="This abstract class represents a item that can be contained in Dictionary.">
<polygon fill="white" stroke="black" points="345,-1172 345,-1191 466,-1191 466,-1172 345,-1172"/>
<text text-anchor="middle" x="405.5" y="-1179" font-family="Helvetica,sans-Serif" font-size="10.00">Cpl::Container::DictItem</text>
</a>
</g>
</g>
<!-- Node2&#45;&gt;Node3 -->
<g id="edge2" class="edge"><title>Node2&#45;&gt;Node3</title>
<path fill="none" stroke="midnightblue" d="M231.451,-1091.39C251.613,-1110.57 287.079,-1141.52 323,-1159.5 333.353,-1164.68 345.078,-1168.76 356.342,-1171.92"/>
<polygon fill="midnightblue" stroke="midnightblue" points="233.645,-1088.64 224.028,-1084.2 228.775,-1093.67 233.645,-1088.64"/>
</g>
<!-- Node27 -->
<g id="node5" class="node"><title>Node27</title>
<g id="a_node5"><a xlink:href="class_cpl_1_1_dm_1_1_subscriber_api.html" target="_top" xlink:title="This abstract class defines the Subscriber interface &#45; for change notifications &#45; to a Model Points d...">
<polygon fill="white" stroke="black" points="346,-1131 346,-1150 465,-1150 465,-1131 346,-1131"/>
<text text-anchor="middle" x="405.5" y="-1138" font-family="Helvetica,sans-Serif" font-size="10.00">Cpl::Dm::SubscriberApi</text>
</a>
</g>
</g>
<!-- Node2&#45;&gt;Node27 -->
<g id="edge4" class="edge"><title>Node2&#45;&gt;Node27</title>
<path fill="none" stroke="midnightblue" d="M243.779,-1088.43C265.339,-1098.31 295.555,-1111.38 323,-1120.5 334.89,-1124.45 347.989,-1128 360.143,-1130.98"/>
<polygon fill="midnightblue" stroke="midnightblue" points="245.068,-1085.17 234.524,-1084.14 242.125,-1091.52 245.068,-1085.17"/>
</g>
<!-- Node31 -->
<g id="node7" class="node"><title>Node31</title>
<g id="a_node7"><a xlink:href="class_cpl_1_1_itc_1_1_message.html" target="_top" xlink:title="This abstract class defines the operations for an ITC message.">
<polygon fill="white" stroke="black" points="358.5,-1092 358.5,-1111 452.5,-1111 452.5,-1092 358.5,-1092"/>
<text text-anchor="middle" x="405.5" y="-1099" font-family="Helvetica,sans-Serif" font-size="10.00">Cpl::Itc::Message</text>
</a>
</g>
</g>
<!-- Node2&#45;&gt;Node31 -->
<g id="edge6" class="edge"><title>Node2&#45;&gt;Node31</title>
<path fill="none" stroke="midnightblue" d="M291.449,-1085.43C314.141,-1088.66 338.259,-1092.09 358.364,-1094.94"/>
<polygon fill="midnightblue" stroke="midnightblue" points="291.88,-1081.96 281.487,-1084.02 290.895,-1088.89 291.88,-1081.96"/>
</g>
<!-- Node35 -->
<g id="node10" class="node"><title>Node35</title>
<g id="a_node10"><a xlink:href="class_cpl_1_1_memory_1_1_pool___1_1_block_info__.html" target="_top" xlink:title="Helper class so I can put my blocks into to my standard containers.">
<polygon fill="white" stroke="black" points="354,-1042.5 354,-1072.5 457,-1072.5 457,-1042.5 354,-1042.5"/>
<text text-anchor="start" x="362" y="-1060.5" font-family="Helvetica,sans-Serif" font-size="10.00">Cpl::Memory::Pool_</text>
<text text-anchor="middle" x="405.5" y="-1049.5" font-family="Helvetica,sans-Serif" font-size="10.00">::BlockInfo_</text>
</a>
</g>
</g>
<!-- Node2&#45;&gt;Node35 -->
<g id="edge9" class="edge"><title>Node2&#45;&gt;Node35</title>
<path fill="none" stroke="midnightblue" d="M296.191,-1067.19C315.731,-1065.44 336.038,-1063.63 353.715,-1062.04"/>
<polygon fill="midnightblue" stroke="midnightblue" points="295.708,-1063.72 286.06,-1068.1 296.332,-1070.69 295.708,-1063.72"/>
</g>
<!-- Node36 -->
<g id="node11" class="node"><title>Node36</title>
<g id="a_node11"><a xlink:href="class_cpl_1_1_system_1_1_counter_callback__.html" target="_top" xlink:title="This abstract class defines the call&#45;back interface for a Counter object.">
<polygon fill="white" stroke="black" points="329,-1004 329,-1023 482,-1023 482,-1004 329,-1004"/>
<text text-anchor="middle" x="405.5" y="-1011" font-family="Helvetica,sans-Serif" font-size="10.00">Cpl::System::CounterCallback_</text>
</a>
</g>
</g>
<!-- Node2&#45;&gt;Node36 -->
<g id="edge10" class="edge"><title>Node2&#45;&gt;Node36</title>
<path fill="none" stroke="midnightblue" d="M247.06,-1061.02C268.424,-1052.47 297.1,-1041.54 323,-1033.5 335.384,-1029.66 349.007,-1026.07 361.512,-1023.02"/>
<polygon fill="midnightblue" stroke="midnightblue" points="245.46,-1057.89 237.5,-1064.88 248.083,-1064.38 245.46,-1057.89"/>
</g>
<!-- Node4 -->
<g id="node4" class="node"><title>Node4</title>
<g id="a_node4"><a xlink:href="class_cpl_1_1_container_1_1_map_item.html" target="_top" xlink:title="This abstract class represents a item that can be contained in an Map (aka a sorted list implemented ...">
<polygon fill="white" stroke="red" points="634.5,-1173 634.5,-1192 756.5,-1192 756.5,-1173 634.5,-1173"/>
<text text-anchor="middle" x="695.5" y="-1180" font-family="Helvetica,sans-Serif" font-size="10.00">Cpl::Container::MapItem</text>
</a>
</g>
</g>
<!-- Node3&#45;&gt;Node4 -->
<g id="edge3" class="edge"><title>Node3&#45;&gt;Node4</title>
<path fill="none" stroke="midnightblue" d="M476.245,-1181.74C524.591,-1181.91 588.309,-1182.13 634.408,-1182.29"/>
<polygon fill="midnightblue" stroke="midnightblue" points="476.186,-1178.24 466.174,-1181.71 476.162,-1185.24 476.186,-1178.24"/>
</g>
<!-- Node28 -->
<g id="node6" class="node"><title>Node28</title>
<g id="a_node6"><a xlink:href="class_cpl_1_1_dm_1_1_subscriber_base.html" target="_top" xlink:title="This mostly concrete class defines the Subscriber interface &#45; for change notifications &#45; to a Model P...">
<polygon fill="white" stroke="red" points="632,-1135 632,-1154 759,-1154 759,-1135 632,-1135"/>
<text text-anchor="middle" x="695.5" y="-1142" font-family="Helvetica,sans-Serif" font-size="10.00">Cpl::Dm::SubscriberBase</text>
</a>
</g>
</g>
<!-- Node27&#45;&gt;Node28 -->
<g id="edge5" class="edge"><title>Node27&#45;&gt;Node28</title>
<path fill="none" stroke="midnightblue" d="M475.349,-1141.46C522.956,-1142.12 585.788,-1142.99 631.965,-1143.63"/>
<polygon fill="midnightblue" stroke="midnightblue" points="475.176,-1137.95 465.128,-1141.31 475.079,-1144.95 475.176,-1137.95"/>
</g>
<!-- Node32 -->
<g id="node8" class="node"><title>Node32</title>
<g id="a_node8"><a xlink:href="class_cpl_1_1_itc_1_1_response_message.html" target="_top" xlink:title="This template class represents a client response message, which is posted to the client&#39;s mailbox aft...">
<polygon fill="white" stroke="black" points="611.5,-1085.5 611.5,-1115.5 779.5,-1115.5 779.5,-1085.5 611.5,-1085.5"/>
<text text-anchor="start" x="619.5" y="-1103.5" font-family="Helvetica,sans-Serif" font-size="10.00">Cpl::Itc::ResponseMessage</text>
<text text-anchor="middle" x="695.5" y="-1092.5" font-family="Helvetica,sans-Serif" font-size="10.00">&lt; CLIENT, SERVER, PAYLOAD &gt;</text>
</a>
</g>
</g>
<!-- Node31&#45;&gt;Node32 -->
<g id="edge7" class="edge"><title>Node31&#45;&gt;Node32</title>
<path fill="none" stroke="midnightblue" d="M462.891,-1101.3C505.201,-1101.16 563.788,-1100.95 611.451,-1100.79"/>
<polygon fill="midnightblue" stroke="midnightblue" points="462.76,-1097.8 452.772,-1101.34 462.784,-1104.8 462.76,-1097.8"/>
</g>
<!-- Node33 -->
<g id="node9" class="node"><title>Node33</title>
<g id="a_node9"><a xlink:href="class_cpl_1_1_itc_1_1_service_message.html" target="_top" xlink:title="This class represents a defined message, which is posted to a mailbox&#45;server as a request.">
<polygon fill="white" stroke="red" points="632,-1047 632,-1066 759,-1066 759,-1047 632,-1047"/>
<text text-anchor="middle" x="695.5" y="-1054" font-family="Helvetica,sans-Serif" font-size="10.00">Cpl::Itc::ServiceMessage</text>
</a>
</g>
</g>
<!-- Node31&#45;&gt;Node33 -->
<g id="edge8" class="edge"><title>Node31&#45;&gt;Node33</title>
<path fill="none" stroke="midnightblue" d="M462.908,-1092.69C512.041,-1085.01 583.113,-1073.9 633.542,-1066.02"/>
<polygon fill="midnightblue" stroke="midnightblue" points="462.112,-1089.27 452.772,-1094.27 463.193,-1096.18 462.112,-1089.27"/>
</g>
<!-- Node37 -->
<g id="node12" class="node"><title>Node37</title>
<g id="a_node12"><a xlink:href="class_cpl_1_1_system_1_1_timer.html" target="_top" xlink:title="This mostly concrete interface defines the operations that can be performed on a software timer.">
<polygon fill="white" stroke="red" points="645,-1007 645,-1026 746,-1026 746,-1007 645,-1007"/>
<text text-anchor="middle" x="695.5" y="-1014" font-family="Helvetica,sans-Serif" font-size="10.00">Cpl::System::Timer</text>
</a>
</g>
</g>
<!-- Node36&#45;&gt;Node37 -->
<g id="edge11" class="edge"><title>Node36&#45;&gt;Node37</title>
<path fill="none" stroke="midnightblue" d="M492.272,-1014.39C541.971,-1014.91 602.797,-1015.54 644.684,-1015.98"/>
<polygon fill="midnightblue" stroke="midnightblue" points="492.205,-1010.89 482.169,-1014.29 492.132,-1017.89 492.205,-1010.89"/>
</g>
<!-- Node41 -->
<g id="node14" class="node"><title>Node41</title>
<g id="a_node14"><a xlink:href="class_cpl_1_1_dm_1_1_model_point_common__.html" target="_top" xlink:title="This concrete class provide common infrastructure for a Model Point.">
<polygon fill="white" stroke="red" points="330,-628 330,-647 481,-647 481,-628 330,-628"/>
<text text-anchor="middle" x="405.5" y="-635" font-family="Helvetica,sans-Serif" font-size="10.00">Cpl::Dm::ModelPointCommon_</text>
</a>
</g>
</g>
<!-- Node40&#45;&gt;Node41 -->
<g id="edge13" class="edge"><title>Node40&#45;&gt;Node41</title>
<path fill="none" stroke="midnightblue" d="M252.739,-586.381C289.238,-598.675 343.386,-616.914 376.171,-627.958"/>
<polygon fill="midnightblue" stroke="midnightblue" points="253.539,-582.957 242.945,-583.081 251.304,-589.591 253.539,-582.957"/>
</g>
<!-- Node42 -->
<g id="node15" class="node"><title>Node42</title>
<g id="a_node15"><a xlink:href="class_cpl_1_1_dm_1_1_mp_1_1_enum__.html" target="_top" xlink:title=" ">
<polygon fill="white" stroke="red" points="631,-947 631,-988 760,-988 760,-947 631,-947"/>
<text text-anchor="start" x="639" y="-976" font-family="Helvetica,sans-Serif" font-size="10.00">Cpl::Dm::Mp::Enum_</text>
<text text-anchor="start" x="639" y="-965" font-family="Helvetica,sans-Serif" font-size="10.00">&lt; Storm::Type::FanMode,</text>
<text text-anchor="middle" x="695.5" y="-954" font-family="Helvetica,sans-Serif" font-size="10.00"> MpFanMode &gt;</text>
</a>
</g>
</g>
<!-- Node41&#45;&gt;Node42 -->
<g id="edge14" class="edge"><title>Node41&#45;&gt;Node42</title>
<path fill="none" stroke="midnightblue" d="M412.475,-656.748C425.232,-695.828 457.94,-786.134 506,-849.5 542.181,-897.204 556.126,-907.603 608,-937.5 615.161,-941.627 622.982,-945.316 630.899,-948.573"/>
<polygon fill="midnightblue" stroke="midnightblue" points="415.786,-655.61 409.41,-647.149 409.118,-657.739 415.786,-655.61"/>
</g>
<!-- Node44 -->
<g id="node16" class="node"><title>Node44</title>
<g id="a_node16"><a xlink:href="class_cpl_1_1_dm_1_1_mp_1_1_enum__.html" target="_top" xlink:title=" ">
<polygon fill="white" stroke="red" points="614.5,-887 614.5,-928 776.5,-928 776.5,-887 614.5,-887"/>
<text text-anchor="start" x="622.5" y="-916" font-family="Helvetica,sans-Serif" font-size="10.00">Cpl::Dm::Mp::Enum_</text>
<text text-anchor="start" x="622.5" y="-905" font-family="Helvetica,sans-Serif" font-size="10.00">&lt; Storm::Type::ThermostatMode,</text>
<text text-anchor="middle" x="695.5" y="-894" font-family="Helvetica,sans-Serif" font-size="10.00"> MpThermostatMode &gt;</text>
</a>
</g>
</g>
<!-- Node41&#45;&gt;Node44 -->
<g id="edge15" class="edge"><title>Node41&#45;&gt;Node44</title>
<path fill="none" stroke="midnightblue" d="M414.875,-656.719C429.784,-689.454 463.404,-756.997 506,-803.5 543.83,-844.8 558.341,-851.601 608,-877.5 614.483,-880.881 621.429,-884.016 628.462,-886.883"/>
<polygon fill="midnightblue" stroke="midnightblue" points="417.979,-655.086 410.704,-647.384 411.588,-657.942 417.979,-655.086"/>
</g>
<!-- Node46 -->
<g id="node17" class="node"><title>Node46</title>
<g id="a_node17"><a xlink:href="class_cpl_1_1_dm_1_1_mp_1_1_numeric.html" target="_top" xlink:title=" ">
<polygon fill="white" stroke="red" points="628.5,-837.5 628.5,-867.5 762.5,-867.5 762.5,-837.5 628.5,-837.5"/>
<text text-anchor="start" x="636.5" y="-855.5" font-family="Helvetica,sans-Serif" font-size="10.00">Cpl::Dm::Mp::Numeric</text>
<text text-anchor="middle" x="695.5" y="-844.5" font-family="Helvetica,sans-Serif" font-size="10.00">&lt; WORDSIZE, MPTYPE &gt;</text>
</a>
</g>
</g>
<!-- Node41&#45;&gt;Node46 -->
<g id="edge16" class="edge"><title>Node41&#45;&gt;Node46</title>
<path fill="none" stroke="midnightblue" d="M418.484,-655.57C435.833,-680.895 469.848,-727.536 506,-760.5 546.26,-797.21 558.461,-805.821 608,-828.5 615.369,-831.873 623.313,-834.867 631.294,-837.495"/>
<polygon fill="midnightblue" stroke="midnightblue" points="421.373,-653.594 412.874,-647.269 415.574,-657.514 421.373,-653.594"/>
</g>
<!-- Node50 -->
<g id="node18" class="node"><title>Node50</title>
<g id="a_node18"><a xlink:href="class_cpl_1_1_dm_1_1_mp_1_1_numeric.html" target="_top" xlink:title=" ">
<polygon fill="white" stroke="red" points="639,-788.5 639,-818.5 752,-818.5 752,-788.5 639,-788.5"/>
<text text-anchor="start" x="647" y="-806.5" font-family="Helvetica,sans-Serif" font-size="10.00">Cpl::Dm::Mp::Numeric</text>
<text text-anchor="middle" x="695.5" y="-795.5" font-family="Helvetica,sans-Serif" font-size="10.00">&lt; double, Double &gt;</text>
</a>
</g>
</g>
<!-- Node41&#45;&gt;Node50 -->
<g id="edge17" class="edge"><title>Node41&#45;&gt;Node50</title>
<path fill="none" stroke="midnightblue" d="M424.411,-654.222C457.756,-684.359 532.817,-747.608 608,-779.5 617.756,-783.638 628.432,-787.272 638.852,-790.376"/>
<polygon fill="midnightblue" stroke="midnightblue" points="426.598,-651.48 416.857,-647.313 421.874,-656.645 426.598,-651.48"/>
</g>
<!-- Node52 -->
<g id="node19" class="node"><title>Node52</title>
<g id="a_node19"><a xlink:href="class_cpl_1_1_dm_1_1_mp_1_1_numeric.html" target="_top" xlink:title=" ">
<polygon fill="white" stroke="red" points="639,-739.5 639,-769.5 752,-769.5 752,-739.5 639,-739.5"/>
<text text-anchor="start" x="647" y="-757.5" font-family="Helvetica,sans-Serif" font-size="10.00">Cpl::Dm::Mp::Numeric</text>
<text text-anchor="middle" x="695.5" y="-746.5" font-family="Helvetica,sans-Serif" font-size="10.00">&lt; float, Float &gt;</text>
</a>
</g>
</g>
<!-- Node41&#45;&gt;Node52 -->
<g id="edge18" class="edge"><title>Node41&#45;&gt;Node52</title>
<path fill="none" stroke="midnightblue" d="M433.282,-651.741C471.29,-671.512 543.443,-707.441 608,-730.5 617.833,-734.012 628.444,-737.33 638.753,-740.315"/>
<polygon fill="midnightblue" stroke="midnightblue" points="434.863,-648.618 424.38,-647.08 431.616,-654.819 434.863,-648.618"/>
</g>
<!-- Node54 -->
<g id="node20" class="node"><title>Node54</title>
<g id="a_node20"><a xlink:href="class_cpl_1_1_dm_1_1_mp_1_1_numeric.html" target="_top" xlink:title=" ">
<polygon fill="white" stroke="red" points="639,-690.5 639,-720.5 752,-720.5 752,-690.5 639,-690.5"/>
<text text-anchor="start" x="647" y="-708.5" font-family="Helvetica,sans-Serif" font-size="10.00">Cpl::Dm::Mp::Numeric</text>
<text text-anchor="middle" x="695.5" y="-697.5" font-family="Helvetica,sans-Serif" font-size="10.00">&lt; int32_t, Int32 &gt;</text>
</a>
</g>
</g>
<!-- Node41&#45;&gt;Node54 -->
<g id="edge19" class="edge"><title>Node41&#45;&gt;Node54</title>
<path fill="none" stroke="midnightblue" d="M455.455,-649.384C471.55,-653.271 489.534,-657.593 506,-661.5 550.632,-672.092 601.26,-683.898 638.8,-692.612"/>
<polygon fill="midnightblue" stroke="midnightblue" points="456.25,-645.976 445.708,-647.028 454.605,-652.78 456.25,-645.976"/>
</g>
<!-- Node56 -->
<g id="node21" class="node"><title>Node56</title>
<g id="a_node21"><a xlink:href="class_cpl_1_1_dm_1_1_mp_1_1_numeric.html" target="_top" xlink:title=" ">
<polygon fill="white" stroke="red" points="639,-641.5 639,-671.5 752,-671.5 752,-641.5 639,-641.5"/>
<text text-anchor="start" x="647" y="-659.5" font-family="Helvetica,sans-Serif" font-size="10.00">Cpl::Dm::Mp::Numeric</text>
<text text-anchor="middle" x="695.5" y="-648.5" font-family="Helvetica,sans-Serif" font-size="10.00">&lt; int64_t, Int64 &gt;</text>
</a>
</g>
</g>
<!-- Node41&#45;&gt;Node56 -->
<g id="edge20" class="edge"><title>Node41&#45;&gt;Node56</title>
<path fill="none" stroke="midnightblue" d="M491.049,-643.078C538.744,-646.224 596.993,-650.067 638.923,-652.833"/>
<polygon fill="midnightblue" stroke="midnightblue" points="491.25,-639.584 481.042,-642.418 490.79,-646.568 491.25,-639.584"/>
</g>
<!-- Node58 -->
<g id="node22" class="node"><title>Node58</title>
<g id="a_node22"><a xlink:href="class_cpl_1_1_dm_1_1_mp_1_1_numeric.html" target="_top" xlink:title=" ">
<polygon fill="white" stroke="red" points="639,-592.5 639,-622.5 752,-622.5 752,-592.5 639,-592.5"/>
<text text-anchor="start" x="647" y="-610.5" font-family="Helvetica,sans-Serif" font-size="10.00">Cpl::Dm::Mp::Numeric</text>
<text text-anchor="middle" x="695.5" y="-599.5" font-family="Helvetica,sans-Serif" font-size="10.00">&lt; size_t, MPTYPE &gt;</text>
</a>
</g>
</g>
<!-- Node41&#45;&gt;Node58 -->
<g id="edge21" class="edge"><title>Node41&#45;&gt;Node58</title>
<path fill="none" stroke="midnightblue" d="M491.049,-628.693C538.744,-623.725 596.993,-617.657 638.923,-613.289"/>
<polygon fill="midnightblue" stroke="midnightblue" points="490.625,-625.218 481.042,-629.735 491.351,-632.18 490.625,-625.218"/>
</g>
<!-- Node62 -->
<g id="node23" class="node"><title>Node62</title>
<g id="a_node23"><a xlink:href="class_cpl_1_1_dm_1_1_mp_1_1_numeric.html" target="_top" xlink:title=" ">
<polygon fill="white" stroke="red" points="639,-543.5 639,-573.5 752,-573.5 752,-543.5 639,-543.5"/>
<text text-anchor="start" x="647" y="-561.5" font-family="Helvetica,sans-Serif" font-size="10.00">Cpl::Dm::Mp::Numeric</text>
<text text-anchor="middle" x="695.5" y="-550.5" font-family="Helvetica,sans-Serif" font-size="10.00">&lt; uint32_t, Uint32 &gt;</text>
</a>
</g>
</g>
<!-- Node41&#45;&gt;Node62 -->
<g id="edge22" class="edge"><title>Node41&#45;&gt;Node62</title>
<path fill="none" stroke="midnightblue" d="M450.95,-625.307C501.751,-611.372 584.924,-588.557 639.696,-573.533"/>
<polygon fill="midnightblue" stroke="midnightblue" points="449.957,-621.95 441.24,-627.971 451.809,-628.701 449.957,-621.95"/>
</g>
<!-- Node64 -->
<g id="node24" class="node"><title>Node64</title>
<g id="a_node24"><a xlink:href="class_cpl_1_1_dm_1_1_mp_1_1_numeric.html" target="_top" xlink:title=" ">
<polygon fill="white" stroke="red" points="639,-494.5 639,-524.5 752,-524.5 752,-494.5 639,-494.5"/>
<text text-anchor="start" x="647" y="-512.5" font-family="Helvetica,sans-Serif" font-size="10.00">Cpl::Dm::Mp::Numeric</text>
<text text-anchor="middle" x="695.5" y="-501.5" font-family="Helvetica,sans-Serif" font-size="10.00">&lt; uint64_t, Uint64 &gt;</text>
</a>
</g>
</g>
<!-- Node41&#45;&gt;Node64 -->
<g id="edge23" class="edge"><title>Node41&#45;&gt;Node64</title>
<path fill="none" stroke="midnightblue" d="M430.777,-622.825C467.869,-600.906 541.371,-559.424 608,-533.5 617.731,-529.714 628.294,-526.266 638.586,-523.238"/>
<polygon fill="midnightblue" stroke="midnightblue" points="428.961,-619.833 422.158,-627.955 432.541,-625.848 428.961,-619.833"/>
</g>
<!-- Node66 -->
<g id="node25" class="node"><title>Node66</title>
<g id="a_node25"><a xlink:href="class_cpl_1_1_dm_1_1_mp_1_1_array_base__.html" target="_top" xlink:title="This a mostly concrete class provides &#39;common&#39; implementation for a Model Point who&#39;s data is a array...">
<polygon fill="white" stroke="red" points="631.5,-456 631.5,-475 759.5,-475 759.5,-456 631.5,-456"/>
<text text-anchor="middle" x="695.5" y="-463" font-family="Helvetica,sans-Serif" font-size="10.00">Cpl::Dm::Mp::ArrayBase_</text>
</a>
</g>
</g>
<!-- Node41&#45;&gt;Node66 -->
<g id="edge24" class="edge"><title>Node41&#45;&gt;Node66</title>
<path fill="none" stroke="midnightblue" d="M423.633,-620.772C440.157,-604.619 465.85,-579.446 488,-557.5 496.037,-549.537 496.925,-546.256 506,-539.5 547.312,-508.744 559.714,-502.42 608,-484.5 618.09,-480.755 629.13,-477.638 639.845,-475.085"/>
<polygon fill="midnightblue" stroke="midnightblue" points="421.021,-618.432 416.314,-627.924 425.913,-623.439 421.021,-618.432"/>
</g>
<!-- Node69 -->
<g id="node26" class="node"><title>Node69</title>
<g id="a_node26"><a xlink:href="class_cpl_1_1_dm_1_1_mp_1_1_bool.html" target="_top" xlink:title="This class provides a concrete implementation for a Point who&#39;s data is a bool.">
<polygon fill="white" stroke="black" points="647,-418 647,-437 744,-437 744,-418 647,-418"/>
<text text-anchor="middle" x="695.5" y="-425" font-family="Helvetica,sans-Serif" font-size="10.00">Cpl::Dm::Mp::Bool</text>
</a>
</g>
</g>
<!-- Node41&#45;&gt;Node69 -->
<g id="edge25" class="edge"><title>Node41&#45;&gt;Node69</title>
<path fill="none" stroke="midnightblue" d="M428.239,-621.723C446.82,-607.105 472.88,-583.713 488,-557.5 504.05,-529.674 484.815,-511.647 506,-487.5 541.333,-447.226 603.601,-433.756 646.857,-429.378"/>
<polygon fill="midnightblue" stroke="midnightblue" points="426.111,-618.945 420.295,-627.801 430.364,-624.505 426.111,-618.945"/>
</g>
<!-- Node70 -->
<g id="node27" class="node"><title>Node70</title>
<g id="a_node27"><a xlink:href="class_cpl_1_1_dm_1_1_mp_1_1_elapsed_precision_time.html" target="_top" xlink:title="This class provides a concrete implementation for a Point who&#39;s data a Cpl::System::ElapsedTime::Prec...">
<polygon fill="white" stroke="black" points="608,-380 608,-399 783,-399 783,-380 608,-380"/>
<text text-anchor="middle" x="695.5" y="-387" font-family="Helvetica,sans-Serif" font-size="10.00">Cpl::Dm::Mp::ElapsedPrecisionTime</text>
</a>
</g>
</g>
<!-- Node41&#45;&gt;Node70 -->
<g id="edge26" class="edge"><title>Node41&#45;&gt;Node70</title>
<path fill="none" stroke="midnightblue" d="M429.233,-621.841C448.223,-607.441 474.325,-584.302 488,-557.5 512.51,-509.461 470.385,-477.997 506,-437.5 521.723,-419.622 577.309,-406.877 624.077,-399.033"/>
<polygon fill="midnightblue" stroke="midnightblue" points="427.07,-619.086 421.078,-627.824 431.211,-624.73 427.07,-619.086"/>
</g>
<!-- Node90 -->
<g id="node29" class="node"><title>Node90</title>
<g id="a_node29"><a xlink:href="class_cpl_1_1_io_1_1_input.html" target="_top" xlink:title="This partially abstract class defines a interface for operating on an input stream (example of a stre...">
<polygon fill="white" stroke="red" points="369,-529 369,-548 442,-548 442,-529 369,-529"/>
<text text-anchor="middle" x="405.5" y="-536" font-family="Helvetica,sans-Serif" font-size="10.00">Cpl::Io::Input</text>
</a>
</g>
</g>
<!-- Node89&#45;&gt;Node90 -->
<g id="edge28" class="edge"><title>Node89&#45;&gt;Node90</title>
<path fill="none" stroke="midnightblue" d="M261.515,-509.903C294.695,-516.539 338.464,-525.293 368.796,-531.359"/>
<polygon fill="midnightblue" stroke="midnightblue" points="262.077,-506.446 251.585,-507.917 260.704,-513.31 262.077,-506.446"/>
</g>
<!-- Node107 -->
<g id="node30" class="node"><title>Node107</title>
<g id="a_node30"><a xlink:href="class_cpl_1_1_io_1_1_output.html" target="_top" xlink:title="This partially abstract class defines a interface for operating on an output stream (example of a str...">
<polygon fill="white" stroke="red" points="365.5,-491 365.5,-510 445.5,-510 445.5,-491 365.5,-491"/>
<text text-anchor="middle" x="405.5" y="-498" font-family="Helvetica,sans-Serif" font-size="10.00">Cpl::Io::Output</text>
</a>
</g>
</g>
<!-- Node89&#45;&gt;Node107 -->
<g id="edge29" class="edge"><title>Node89&#45;&gt;Node107</title>
<path fill="none" stroke="midnightblue" d="M261.983,-500.5C293.819,-500.5 335.243,-500.5 365.219,-500.5"/>
<polygon fill="midnightblue" stroke="midnightblue" points="261.585,-497 251.585,-500.5 261.585,-504 261.585,-497"/>
</g>
<!-- Node118 -->
<g id="node32" class="node"><title>Node118</title>
<g id="a_node32"><a xlink:href="class_cpl_1_1_io_1_1_line_reader.html" target="_top" xlink:title="This concrete class implements a Line Reader stream using a previously opened Input stream.">
<polygon fill="white" stroke="black" points="355.5,-453 355.5,-472 455.5,-472 455.5,-453 355.5,-453"/>
<text text-anchor="middle" x="405.5" y="-460" font-family="Helvetica,sans-Serif" font-size="10.00">Cpl::Io::LineReader</text>
</a>
</g>
</g>
<!-- Node117&#45;&gt;Node118 -->
<g id="edge31" class="edge"><title>Node117&#45;&gt;Node118</title>
<path fill="none" stroke="midnightblue" d="M281.043,-456.652C305.543,-457.813 332.824,-459.105 355.498,-460.179"/>
<polygon fill="midnightblue" stroke="midnightblue" points="280.89,-453.141 270.735,-456.164 280.558,-460.133 280.89,-453.141"/>
</g>
<!-- Node120 -->
<g id="node34" class="node"><title>Node120</title>
<g id="a_node34"><a xlink:href="class_cpl_1_1_io_1_1_line_writer.html" target="_top" xlink:title="This concrete class implements a Line Writer stream using a previously opened Output stream.">
<polygon fill="white" stroke="black" points="358,-415 358,-434 453,-434 453,-415 358,-415"/>
<text text-anchor="middle" x="405.5" y="-422" font-family="Helvetica,sans-Serif" font-size="10.00">Cpl::Io::LineWriter</text>
</a>
</g>
</g>
<!-- Node119&#45;&gt;Node120 -->
<g id="edge33" class="edge"><title>Node119&#45;&gt;Node120</title>
<path fill="none" stroke="midnightblue" d="M278.327,-411.883C304.313,-414.481 333.799,-417.43 357.728,-419.823"/>
<polygon fill="midnightblue" stroke="midnightblue" points="278.483,-408.381 268.185,-410.868 277.787,-415.346 278.483,-408.381"/>
</g>
<!-- Node122 -->
<g id="node36" class="node"><title>Node122</title>
<g id="a_node36"><a xlink:href="class_cpl_1_1_memory_1_1_s_pool.html" target="_top" xlink:title=" ">
<polygon fill="white" stroke="red" points="610.5,-301.5 610.5,-331.5 780.5,-331.5 780.5,-301.5 610.5,-301.5"/>
<text text-anchor="start" x="618.5" y="-319.5" font-family="Helvetica,sans-Serif" font-size="10.00">Cpl::Memory::SPool</text>
<text text-anchor="middle" x="695.5" y="-308.5" font-family="Helvetica,sans-Serif" font-size="10.00">&lt; Cpl::Io::Socket::InputOutput, N &gt;</text>
</a>
</g>
</g>
<!-- Node121&#45;&gt;Node122 -->
<g id="edge35" class="edge"><title>Node121&#45;&gt;Node122</title>
<path fill="none" stroke="midnightblue" d="M268.55,-359.864C285.86,-362.992 305.163,-365.95 323,-367.5 396.058,-373.848 415.203,-376.356 488,-367.5 543.72,-360.721 606.071,-344.013 647.536,-331.556"/>
<polygon fill="midnightblue" stroke="midnightblue" points="269.087,-356.404 258.615,-358.012 267.804,-363.285 269.087,-356.404"/>
</g>
<!-- Node124 -->
<g id="node37" class="node"><title>Node124</title>
<g id="a_node37"><a xlink:href="class_cpl_1_1_memory_1_1_contiguous_allocator.html" target="_top" xlink:title="This abstract class is used &#39;extend&#39; the Memory Allocator to have contiguous semantics.">
<polygon fill="white" stroke="red" points="323,-339 323,-358 488,-358 488,-339 323,-339"/>
<text text-anchor="middle" x="405.5" y="-346" font-family="Helvetica,sans-Serif" font-size="10.00">Cpl::Memory::ContiguousAllocator</text>
</a>
</g>
</g>
<!-- Node121&#45;&gt;Node124 -->
<g id="edge36" class="edge"><title>Node121&#45;&gt;Node124</title>
<path fill="none" stroke="midnightblue" d="M281.562,-348.5C294.946,-348.5 309.141,-348.5 322.95,-348.5"/>
<polygon fill="midnightblue" stroke="midnightblue" points="281.506,-345 271.506,-348.5 281.506,-352 281.506,-345"/>
</g>
<!-- Node126 -->
<g id="node38" class="node"><title>Node126</title>
<g id="a_node38"><a xlink:href="class_cpl_1_1_memory_1_1_h_pool.html" target="_top" xlink:title="This template class defines a concrete Allocator that allocates its block memory from the HEAP.">
<polygon fill="white" stroke="black" points="341.5,-301 341.5,-320 469.5,-320 469.5,-301 341.5,-301"/>
<text text-anchor="middle" x="405.5" y="-308" font-family="Helvetica,sans-Serif" font-size="10.00">Cpl::Memory::HPool&lt; T &gt;</text>
</a>
</g>
</g>
<!-- Node121&#45;&gt;Node126 -->
<g id="edge37" class="edge"><title>Node121&#45;&gt;Node126</title>
<path fill="none" stroke="midnightblue" d="M272.548,-336.89C299.57,-331.486 331.318,-325.136 356.9,-320.02"/>
<polygon fill="midnightblue" stroke="midnightblue" points="271.564,-333.518 262.445,-338.911 272.937,-340.382 271.564,-333.518"/>
</g>
<!-- Node127 -->
<g id="node39" class="node"><title>Node127</title>
<g id="a_node39"><a xlink:href="class_cpl_1_1_memory_1_1_pool__.html" target="_top" xlink:title="This private concrete class implements a Memory Allocator using a pool of fixed size blocks.">
<polygon fill="white" stroke="black" points="354,-263 354,-282 457,-282 457,-263 354,-263"/>
<text text-anchor="middle" x="405.5" y="-270" font-family="Helvetica,sans-Serif" font-size="10.00">Cpl::Memory::Pool_</text>
</a>
</g>
</g>
<!-- Node121&#45;&gt;Node127 -->
<g id="edge38" class="edge"><title>Node121&#45;&gt;Node127</title>
<path fill="none" stroke="midnightblue" d="M271.722,-335.403C276.691,-333.405 281.525,-331.117 286,-328.5 306.076,-316.762 302.672,-302.797 323,-291.5 332.398,-286.278 343.172,-282.487 353.742,-279.736"/>
<polygon fill="midnightblue" stroke="midnightblue" points="270.27,-332.206 262.057,-338.898 272.651,-338.788 270.27,-332.206"/>
</g>
<!-- Node128 -->
<g id="node40" class="node"><title>Node128</title>
<g id="a_node40"><a xlink:href="class_cpl_1_1_memory_1_1_s_pool.html" target="_top" xlink:title="This template class defines a concrete Allocator that STATICALLY allocates all of its Memory and can ...">
<polygon fill="white" stroke="black" points="353.5,-213.5 353.5,-243.5 457.5,-243.5 457.5,-213.5 353.5,-213.5"/>
<text text-anchor="start" x="361.5" y="-231.5" font-family="Helvetica,sans-Serif" font-size="10.00">Cpl::Memory::SPool</text>
<text text-anchor="middle" x="405.5" y="-220.5" font-family="Helvetica,sans-Serif" font-size="10.00">&lt; T, N &gt;</text>
</a>
</g>
</g>
<!-- Node121&#45;&gt;Node128 -->
<g id="edge39" class="edge"><title>Node121&#45;&gt;Node128</title>
<path fill="none" stroke="midnightblue" d="M277.241,-334.519C280.342,-332.746 283.289,-330.749 286,-328.5 314.604,-304.765 294.693,-277.589 323,-253.5 331.679,-246.114 342.51,-240.91 353.414,-237.243"/>
<polygon fill="midnightblue" stroke="midnightblue" points="275.614,-331.419 268.158,-338.946 278.68,-337.711 275.614,-331.419"/>
</g>
<!-- Node128&#45;&gt;Node122 -->
<g id="edge40" class="edge"><title>Node128&#45;&gt;Node122</title>
<path fill="none" stroke="orange" stroke-dasharray="5,2" d="M465.277,-246.459C518.222,-262.637 595.179,-286.152 645.039,-301.387"/>
<polygon fill="orange" stroke="orange" points="466.268,-243.103 455.682,-243.528 464.222,-249.797 466.268,-243.103"/>
<text text-anchor="start" x="506" y="-297.5" font-family="Helvetica,sans-Serif" font-size="10.00"> &lt; Cpl::Io::Socket::</text>
<text text-anchor="middle" x="548" y="-286.5" font-family="Helvetica,sans-Serif" font-size="10.00">InputOutput, N &gt;</text>
</g>
<!-- Node131 -->
<g id="node43" class="node"><title>Node131</title>
<g id="a_node43"><a xlink:href="class_cpl_1_1_system_1_1_event_loop.html" target="_top" xlink:title="This concrete class is a Runnable object that provides a event driven execution model for a thread.">
<polygon fill="white" stroke="red" points="344,-175 344,-194 467,-194 467,-175 344,-175"/>
<text text-anchor="middle" x="405.5" y="-182" font-family="Helvetica,sans-Serif" font-size="10.00">Cpl::System::EventLoop</text>
</a>
</g>
</g>
<!-- Node130&#45;&gt;Node131 -->
<g id="edge43" class="edge"><title>Node130&#45;&gt;Node131</title>
<path fill="none" stroke="midnightblue" d="M280.907,-184.5C301.346,-184.5 323.732,-184.5 343.77,-184.5"/>
<polygon fill="midnightblue" stroke="midnightblue" points="280.735,-181 270.735,-184.5 280.735,-188 280.735,-181"/>
</g>
<!-- Node139 -->
<g id="node44" class="node"><title>Node139</title>
<g id="a_node44"><a xlink:href="class_cpl_1_1_system_1_1_semaphore.html" target="_top" xlink:title="This semaphore class defines the interface for a Counting Semaphore.">
<polygon fill="white" stroke="black" points="342.5,-137 342.5,-156 468.5,-156 468.5,-137 342.5,-137"/>
<text text-anchor="middle" x="405.5" y="-144" font-family="Helvetica,sans-Serif" font-size="10.00">Cpl::System::Semaphore</text>
</a>
</g>
</g>
<!-- Node130&#45;&gt;Node139 -->
<g id="edge44" class="edge"><title>Node130&#45;&gt;Node139</title>
<path fill="none" stroke="midnightblue" d="M272.548,-172.89C299.57,-167.486 331.318,-161.136 356.9,-156.02"/>
<polygon fill="midnightblue" stroke="midnightblue" points="271.564,-169.518 262.445,-174.911 272.937,-176.382 271.564,-169.518"/>
</g>
<!-- Node140 -->
<g id="node45" class="node"><title>Node140</title>
<g id="a_node45"><a xlink:href="class_cpl_1_1_system_1_1_thread.html" target="_top" xlink:title="This abstract class defines the operations that can be performed on a thread.">
<polygon fill="white" stroke="red" points="352,-99 352,-118 459,-118 459,-99 352,-99"/>
<text text-anchor="middle" x="405.5" y="-106" font-family="Helvetica,sans-Serif" font-size="10.00">Cpl::System::Thread</text>
</a>
</g>
</g>
<!-- Node130&#45;&gt;Node140 -->
<g id="edge45" class="edge"><title>Node130&#45;&gt;Node140</title>
<path fill="none" stroke="midnightblue" d="M273.795,-171.495C278.038,-169.738 282.154,-167.749 286,-165.5 306.348,-153.599 302.472,-139.087 323,-127.5 331.857,-122.501 341.963,-118.815 351.974,-116.098"/>
<polygon fill="midnightblue" stroke="midnightblue" points="272.526,-168.233 264.36,-174.984 274.953,-174.798 272.526,-168.233"/>
</g>
<!-- Node149 -->
<g id="node48" class="node"><title>Node149</title>
<g id="a_node48"><a xlink:href="class_cpl_1_1_system_1_1_r_p2040_1_1_mutex___t.html" target="_top" xlink:title="This class implements a brute force approach to initializing a &#39;pico mutex&#39; when the Cpl C++ library ...">
<polygon fill="white" stroke="black" points="350,-49.5 350,-79.5 461,-79.5 461,-49.5 350,-49.5"/>
<text text-anchor="start" x="358" y="-67.5" font-family="Helvetica,sans-Serif" font-size="10.00">Cpl::System::RP2040</text>
<text text-anchor="middle" x="405.5" y="-56.5" font-family="Helvetica,sans-Serif" font-size="10.00">::Mutex_T</text>
</a>
</g>
</g>
<!-- Node148&#45;&gt;Node149 -->
<g id="edge48" class="edge"><title>Node148&#45;&gt;Node149</title>
<path fill="none" stroke="midnightblue" d="M291.82,-64.5C311.281,-64.5 331.768,-64.5 349.857,-64.5"/>
<polygon fill="midnightblue" stroke="midnightblue" points="291.754,-61.0001 281.754,-64.5 291.754,-68.0001 291.754,-61.0001"/>
</g>
<!-- Node150 -->
<g id="node49" class="node"><title>Node150</title>
<g id="a_node49"><a xlink:href="class_cpl_1_1_system_1_1_r_p2040_1_1_semaphore___t.html" target="_top" xlink:title="This class implements a brute force approach to initializing a &#39;pico semaphore&#39; when the Cpl C++ libr...">
<polygon fill="white" stroke="black" points="350,-0.5 350,-30.5 461,-30.5 461,-0.5 350,-0.5"/>
<text text-anchor="start" x="358" y="-18.5" font-family="Helvetica,sans-Serif" font-size="10.00">Cpl::System::RP2040</text>
<text text-anchor="middle" x="405.5" y="-7.5" font-family="Helvetica,sans-Serif" font-size="10.00">::Semaphore_T</text>
</a>
</g>
</g>
<!-- Node148&#45;&gt;Node150 -->
<g id="edge49" class="edge"><title>Node148&#45;&gt;Node150</title>
<path fill="none" stroke="midnightblue" d="M261.481,-52.3838C288.253,-45.4794 321.928,-36.7948 349.876,-29.5873"/>
<polygon fill="midnightblue" stroke="midnightblue" points="260.394,-49.0496 251.585,-54.936 262.142,-55.8278 260.394,-49.0496"/>
</g>
</g>
</svg>
