<?xml version="1.0" encoding="UTF-8" standalone="no"?>
<!DOCTYPE svg PUBLIC "-//W3C//DTD SVG 1.1//EN"
 "http://www.w3.org/Graphics/SVG/1.1/DTD/svg11.dtd">
<!-- Generated by graphviz version 2.38.0 (20140413.2041)
 -->
<!-- Title: Cpl::Io::IsEos Pages: 1 -->
<svg width="728pt" height="481pt"
 viewBox="0.00 0.00 728.00 481.00" xmlns="http://www.w3.org/2000/svg" xmlns:xlink="http://www.w3.org/1999/xlink">
<g id="graph0" class="graph" transform="scale(1 1) rotate(0) translate(4 477)">
<title>Cpl::Io::IsEos</title>
<polygon fill="white" stroke="none" points="-4,4 -4,-477 724,-477 724,4 -4,4"/>
<!-- Node1 -->
<g id="node1" class="node"><title>Node1</title>
<g id="a_node1"><a xlink:title="This abstract class defines a isEos() operation that is intended to be used Input and Output streams.">
<polygon fill="#bfbfbf" stroke="black" points="0,-209.5 0,-228.5 77,-228.5 77,-209.5 0,-209.5"/>
<text text-anchor="middle" x="38.5" y="-216.5" font-family="Helvetica,sans-Serif" font-size="10.00">Cpl::Io::IsEos</text>
</a>
</g>
</g>
<!-- Node2 -->
<g id="node2" class="node"><title>Node2</title>
<g id="a_node2"><a xlink:href="class_cpl_1_1_io_1_1_input.html" target="_top" xlink:title="This partially abstract class defines a interface for operating on an input stream (example of a stre...">
<polygon fill="white" stroke="black" points="116.5,-143.5 116.5,-162.5 189.5,-162.5 189.5,-143.5 116.5,-143.5"/>
<text text-anchor="middle" x="153" y="-150.5" font-family="Helvetica,sans-Serif" font-size="10.00">Cpl::Io::Input</text>
</a>
</g>
</g>
<!-- Node1&#45;&gt;Node2 -->
<g id="edge1" class="edge"><title>Node1&#45;&gt;Node2</title>
<path fill="none" stroke="midnightblue" d="M64.7905,-204.163C86.4863,-191.435 117.107,-173.471 135.698,-162.564"/>
<polygon fill="midnightblue" stroke="midnightblue" points="62.954,-201.182 56.0998,-209.261 66.4961,-207.22 62.954,-201.182"/>
</g>
<!-- Node18 -->
<g id="node18" class="node"><title>Node18</title>
<g id="a_node18"><a xlink:href="class_cpl_1_1_io_1_1_output.html" target="_top" xlink:title="This partially abstract class defines a interface for operating on an output stream (example of a str...">
<polygon fill="white" stroke="black" points="113,-276.5 113,-295.5 193,-295.5 193,-276.5 113,-276.5"/>
<text text-anchor="middle" x="153" y="-283.5" font-family="Helvetica,sans-Serif" font-size="10.00">Cpl::Io::Output</text>
</a>
</g>
</g>
<!-- Node1&#45;&gt;Node18 -->
<g id="edge17" class="edge"><title>Node1&#45;&gt;Node18</title>
<path fill="none" stroke="midnightblue" d="M64.3322,-233.789C86.136,-246.774 117.212,-265.282 135.911,-276.418"/>
<polygon fill="midnightblue" stroke="midnightblue" points="66.0012,-230.709 55.6185,-228.599 62.4193,-236.723 66.0012,-230.709"/>
</g>
<!-- Node3 -->
<g id="node3" class="node"><title>Node3</title>
<g id="a_node3"><a xlink:href="class_cpl_1_1_io_1_1_file_1_1_input_api.html" target="_top" xlink:title="This abstract class defines the interface for a Random Access Input File.">
<polygon fill="white" stroke="black" points="237,-143.5 237,-162.5 346,-162.5 346,-143.5 237,-143.5"/>
<text text-anchor="middle" x="291.5" y="-150.5" font-family="Helvetica,sans-Serif" font-size="10.00">Cpl::Io::File::InputApi</text>
</a>
</g>
</g>
<!-- Node2&#45;&gt;Node3 -->
<g id="edge2" class="edge"><title>Node2&#45;&gt;Node3</title>
<path fill="none" stroke="midnightblue" d="M199.685,-153C211.62,-153 224.592,-153 236.897,-153"/>
<polygon fill="midnightblue" stroke="midnightblue" points="199.507,-149.5 189.507,-153 199.507,-156.5 199.507,-149.5"/>
</g>
<!-- Node8 -->
<g id="node8" class="node"><title>Node8</title>
<g id="a_node8"><a xlink:href="class_cpl_1_1_io_1_1_input_output.html" target="_top" xlink:title="This abstract class defines a interface for operating on an input&#45;output stream (example of a stream ...">
<polygon fill="white" stroke="black" points="240.5,-181.5 240.5,-200.5 342.5,-200.5 342.5,-181.5 240.5,-181.5"/>
<text text-anchor="middle" x="291.5" y="-188.5" font-family="Helvetica,sans-Serif" font-size="10.00">Cpl::Io::InputOutput</text>
</a>
</g>
</g>
<!-- Node2&#45;&gt;Node8 -->
<g id="edge7" class="edge"><title>Node2&#45;&gt;Node8</title>
<path fill="none" stroke="midnightblue" d="M198.249,-165.318C217.003,-170.539 238.528,-176.532 256.066,-181.414"/>
<polygon fill="midnightblue" stroke="midnightblue" points="199.017,-161.899 188.445,-162.589 197.14,-168.643 199.017,-161.899"/>
</g>
<!-- Node15 -->
<g id="node15" class="node"><title>Node15</title>
<g id="a_node15"><a xlink:href="class_cpl_1_1_io_1_1_serial_1_1_r_p2040_1_1_stdio_1_1_input.html" target="_top" xlink:title="This concrete class implements a Input stream using Raspberry Pi RP2040&#39;s SDK.">
<polygon fill="white" stroke="black" points="233.5,-94 233.5,-124 349.5,-124 349.5,-94 233.5,-94"/>
<text text-anchor="start" x="241.5" y="-112" font-family="Helvetica,sans-Serif" font-size="10.00">Cpl::Io::Serial::RP2040</text>
<text text-anchor="middle" x="291.5" y="-101" font-family="Helvetica,sans-Serif" font-size="10.00">::Stdio::Input</text>
</a>
</g>
</g>
<!-- Node2&#45;&gt;Node15 -->
<g id="edge14" class="edge"><title>Node2&#45;&gt;Node15</title>
<path fill="none" stroke="midnightblue" d="M193.534,-140.256C209.235,-135.195 227.416,-129.335 243.763,-124.065"/>
<polygon fill="midnightblue" stroke="midnightblue" points="192.062,-137.053 183.618,-143.453 194.21,-143.716 192.062,-137.053"/>
</g>
<!-- Node16 -->
<g id="node16" class="node"><title>Node16</title>
<g id="a_node16"><a xlink:href="class_cpl_1_1_io_1_1_stdio_1_1_input__.html" target="_top" xlink:title="This concrete class implements a Input stream using the underlying platform&#39;s native OS &#39;file interfa...">
<polygon fill="white" stroke="black" points="238,-31.5 238,-50.5 345,-50.5 345,-31.5 238,-31.5"/>
<text text-anchor="middle" x="291.5" y="-38.5" font-family="Helvetica,sans-Serif" font-size="10.00">Cpl::Io::Stdio::Input_</text>
</a>
</g>
</g>
<!-- Node2&#45;&gt;Node16 -->
<g id="edge15" class="edge"><title>Node2&#45;&gt;Node16</title>
<path fill="none" stroke="midnightblue" d="M171.231,-135.912C186.064,-121.509 208.287,-100.646 229,-84 244.334,-71.6766 262.976,-58.9306 275.688,-50.548"/>
<polygon fill="midnightblue" stroke="midnightblue" points="168.504,-133.684 163.808,-143.181 173.402,-138.685 168.504,-133.684"/>
</g>
<!-- Node4 -->
<g id="node4" class="node"><title>Node4</title>
<g id="a_node4"><a xlink:href="class_cpl_1_1_io_1_1_file_1_1_input.html" target="_top" xlink:title="This concrete class provides a platform independent &#39;standard&#39; implementation of a Cpl::Io::File::Inp...">
<polygon fill="white" stroke="black" points="412,-38.5 412,-57.5 507,-57.5 507,-38.5 412,-38.5"/>
<text text-anchor="middle" x="459.5" y="-45.5" font-family="Helvetica,sans-Serif" font-size="10.00">Cpl::Io::File::Input</text>
</a>
</g>
</g>
<!-- Node3&#45;&gt;Node4 -->
<g id="edge3" class="edge"><title>Node3&#45;&gt;Node4</title>
<path fill="none" stroke="midnightblue" d="M345.172,-139.038C348.305,-137.259 351.283,-135.256 354,-133 379.707,-111.656 363.831,-87.7756 390,-67 396.379,-61.9354 404.022,-58.2194 411.853,-55.4932"/>
<polygon fill="midnightblue" stroke="midnightblue" points="343.485,-135.966 336.017,-143.481 346.541,-142.264 343.485,-135.966"/>
</g>
<!-- Node5 -->
<g id="node5" class="node"><title>Node5</title>
<g id="a_node5"><a xlink:href="class_cpl_1_1_io_1_1_file_1_1_input_output_api.html" target="_top" xlink:title="This abstract class defines the interface for a Random Access Input Output File.">
<polygon fill="white" stroke="black" points="390.5,-213.5 390.5,-232.5 528.5,-232.5 528.5,-213.5 390.5,-213.5"/>
<text text-anchor="middle" x="459.5" y="-220.5" font-family="Helvetica,sans-Serif" font-size="10.00">Cpl::Io::File::InputOutputApi</text>
</a>
</g>
</g>
<!-- Node3&#45;&gt;Node5 -->
<g id="edge4" class="edge"><title>Node3&#45;&gt;Node5</title>
<path fill="none" stroke="midnightblue" d="M341.683,-166.081C345.95,-167.844 350.116,-169.812 354,-172 372.65,-182.509 371.199,-193.763 390,-204 397.045,-207.836 404.929,-210.949 412.771,-213.459"/>
<polygon fill="midnightblue" stroke="midnightblue" points="342.844,-162.779 332.252,-162.544 340.386,-169.333 342.844,-162.779"/>
</g>
<!-- Node6 -->
<g id="node6" class="node"><title>Node6</title>
<g id="a_node6"><a xlink:href="class_cpl_1_1_io_1_1_file_1_1_input_output.html" target="_top" xlink:title="This concrete class provides a platform independent &#39;standard&#39; implementation of an InputOutputFileAp...">
<polygon fill="white" stroke="black" points="580.5,-196.5 580.5,-215.5 704.5,-215.5 704.5,-196.5 580.5,-196.5"/>
<text text-anchor="middle" x="642.5" y="-203.5" font-family="Helvetica,sans-Serif" font-size="10.00">Cpl::Io::File::InputOutput</text>
</a>
</g>
</g>
<!-- Node5&#45;&gt;Node6 -->
<g id="edge5" class="edge"><title>Node5&#45;&gt;Node6</title>
<path fill="none" stroke="midnightblue" d="M538.702,-215.655C552.6,-214.35 566.893,-213.007 580.236,-211.754"/>
<polygon fill="midnightblue" stroke="midnightblue" points="538.299,-212.177 528.67,-216.597 538.954,-219.147 538.299,-212.177"/>
</g>
<!-- Node7 -->
<g id="node7" class="node"><title>Node7</title>
<g id="a_node7"><a xlink:href="class_cpl_1_1_io_1_1_file_1_1_null.html" target="_top" xlink:title="This concrete class implements a NULL InputOutputApi File that all of its input operations return &#39;En...">
<polygon fill="white" stroke="black" points="598,-234.5 598,-253.5 687,-253.5 687,-234.5 598,-234.5"/>
<text text-anchor="middle" x="642.5" y="-241.5" font-family="Helvetica,sans-Serif" font-size="10.00">Cpl::Io::File::Null</text>
</a>
</g>
</g>
<!-- Node5&#45;&gt;Node7 -->
<g id="edge6" class="edge"><title>Node5&#45;&gt;Node7</title>
<path fill="none" stroke="midnightblue" d="M538.818,-232.087C559.017,-234.43 580.041,-236.869 597.766,-238.926"/>
<polygon fill="midnightblue" stroke="midnightblue" points="539.007,-228.585 528.67,-230.909 538.2,-235.539 539.007,-228.585"/>
</g>
<!-- Node9 -->
<g id="node9" class="node"><title>Node9</title>
<g id="a_node9"><a xlink:href="class_cpl_1_1_io_1_1_null.html" target="_top" xlink:title="This concrete class implements a NULL InputOutput stream &#45; that all of its input operations return &#39;E...">
<polygon fill="white" stroke="black" points="425.5,-251.5 425.5,-270.5 493.5,-270.5 493.5,-251.5 425.5,-251.5"/>
<text text-anchor="middle" x="459.5" y="-258.5" font-family="Helvetica,sans-Serif" font-size="10.00">Cpl::Io::Null</text>
</a>
</g>
</g>
<!-- Node8&#45;&gt;Node9 -->
<g id="edge8" class="edge"><title>Node8&#45;&gt;Node9</title>
<path fill="none" stroke="midnightblue" d="M328.009,-204.536C336.678,-208.24 345.811,-212.489 354,-217 371.062,-226.399 372.366,-233.724 390,-242 401.061,-247.191 413.811,-251.208 425.29,-254.183"/>
<polygon fill="midnightblue" stroke="midnightblue" points="329.071,-201.188 318.493,-200.6 326.396,-207.656 329.071,-201.188"/>
</g>
<!-- Node10 -->
<g id="node10" class="node"><title>Node10</title>
<g id="a_node10"><a xlink:href="class_cpl_1_1_io_1_1_serial_1_1_r_p2040_1_1_uart_1_1_input_output.html" target="_top" xlink:title="This concrete class implements a Input stream using Raspberry Pi UART interface/hardware.">
<polygon fill="white" stroke="black" points="401.5,-77 401.5,-107 517.5,-107 517.5,-77 401.5,-77"/>
<text text-anchor="start" x="409.5" y="-95" font-family="Helvetica,sans-Serif" font-size="10.00">Cpl::Io::Serial::RP2040</text>
<text text-anchor="middle" x="459.5" y="-84" font-family="Helvetica,sans-Serif" font-size="10.00">::Uart::InputOutput</text>
</a>
</g>
</g>
<!-- Node8&#45;&gt;Node10 -->
<g id="edge9" class="edge"><title>Node8&#45;&gt;Node10</title>
<path fill="none" stroke="midnightblue" d="M346.141,-177.071C348.901,-175.551 351.543,-173.866 354,-172 377.563,-154.104 366.776,-134.333 390,-116 394.352,-112.565 399.232,-109.601 404.329,-107.049"/>
<polygon fill="midnightblue" stroke="midnightblue" points="344.557,-173.949 337.015,-181.39 347.552,-180.276 344.557,-173.949"/>
</g>
<!-- Node11 -->
<g id="node11" class="node"><title>Node11</title>
<g id="a_node11"><a xlink:href="class_cpl_1_1_io_1_1_socket_1_1_input_output.html" target="_top" xlink:title="This concrete class provides a platform independent &#39;standard&#39; implementation of an InputOutput strea...">
<polygon fill="white" stroke="black" points="390,-175.5 390,-194.5 529,-194.5 529,-175.5 390,-175.5"/>
<text text-anchor="middle" x="459.5" y="-182.5" font-family="Helvetica,sans-Serif" font-size="10.00">Cpl::Io::Socket::InputOutput</text>
</a>
</g>
</g>
<!-- Node8&#45;&gt;Node11 -->
<g id="edge10" class="edge"><title>Node8&#45;&gt;Node11</title>
<path fill="none" stroke="midnightblue" d="M353.036,-188.812C364.962,-188.381 377.556,-187.926 389.73,-187.486"/>
<polygon fill="midnightblue" stroke="midnightblue" points="352.623,-185.325 342.756,-189.184 352.876,-192.32 352.623,-185.325"/>
</g>
<!-- Node12 -->
<g id="node12" class="node"><title>Node12</title>
<g id="a_node12"><a xlink:href="class_cpl_1_1_io_1_1_stdio_1_1_input_output__.html" target="_top" xlink:title="This concrete class implements a Input&#45;Output stream.">
<polygon fill="white" stroke="black" points="391.5,-289.5 391.5,-308.5 527.5,-308.5 527.5,-289.5 391.5,-289.5"/>
<text text-anchor="middle" x="459.5" y="-296.5" font-family="Helvetica,sans-Serif" font-size="10.00">Cpl::Io::Stdio::InputOutput_</text>
</a>
</g>
</g>
<!-- Node8&#45;&gt;Node12 -->
<g id="edge11" class="edge"><title>Node8&#45;&gt;Node12</title>
<path fill="none" stroke="midnightblue" d="M335.266,-204.746C341.988,-208.085 348.516,-212.133 354,-217 378.121,-238.405 364.545,-260.199 390,-280 394.968,-283.865 400.675,-286.943 406.63,-289.396"/>
<polygon fill="midnightblue" stroke="midnightblue" points="336.617,-201.516 326.06,-200.625 333.756,-207.905 336.617,-201.516"/>
</g>
<!-- Node13 -->
<g id="node13" class="node"><title>Node13</title>
<g id="a_node13"><a xlink:href="class_driver_1_1_uart_1_1_stream_1_1_input_output__.html" target="_top" xlink:title="This private concrete class implements the InputOutput stream interface using the UART stream driver.">
<polygon fill="white" stroke="black" points="407.5,-126 407.5,-156 511.5,-156 511.5,-126 407.5,-126"/>
<text text-anchor="start" x="415.5" y="-144" font-family="Helvetica,sans-Serif" font-size="10.00">Driver::Uart::Stream</text>
<text text-anchor="middle" x="459.5" y="-133" font-family="Helvetica,sans-Serif" font-size="10.00">::InputOutput_</text>
</a>
</g>
</g>
<!-- Node8&#45;&gt;Node13 -->
<g id="edge12" class="edge"><title>Node8&#45;&gt;Node13</title>
<path fill="none" stroke="midnightblue" d="M333.749,-178.576C356.35,-171.768 384.537,-163.278 408.396,-156.091"/>
<polygon fill="midnightblue" stroke="midnightblue" points="332.68,-175.242 324.114,-181.478 334.699,-181.945 332.68,-175.242"/>
</g>
<!-- Node14 -->
<g id="node14" class="node"><title>Node14</title>
<g id="a_node14"><a xlink:href="class_cpl_1_1_io_1_1_serial_1_1_renesas_1_1_rx62n_1_1_input_output.html" target="_top" xlink:title="This template provides a concrete implementation of the Cpl::Io InputOutput stream interface using on...">
<polygon fill="white" stroke="black" points="565,-120.5 565,-161.5 720,-161.5 720,-120.5 565,-120.5"/>
<text text-anchor="start" x="573" y="-149.5" font-family="Helvetica,sans-Serif" font-size="10.00">Cpl::Io::Serial::Renesas</text>
<text text-anchor="start" x="573" y="-138.5" font-family="Helvetica,sans-Serif" font-size="10.00">::Rx62n::InputOutput&lt; TXSIZE,</text>
<text text-anchor="middle" x="642.5" y="-127.5" font-family="Helvetica,sans-Serif" font-size="10.00"> RXSIZE &gt;</text>
</a>
</g>
</g>
<!-- Node13&#45;&gt;Node14 -->
<g id="edge13" class="edge"><title>Node13&#45;&gt;Node14</title>
<path fill="none" stroke="midnightblue" d="M522.188,-141C535.948,-141 550.701,-141 564.977,-141"/>
<polygon fill="midnightblue" stroke="midnightblue" points="521.883,-137.5 511.883,-141 521.883,-144.5 521.883,-137.5"/>
</g>
<!-- Node17 -->
<g id="node17" class="node"><title>Node17</title>
<g id="a_node17"><a xlink:href="class_cpl_1_1_io_1_1_stdio_1_1_std_in.html" target="_top" xlink:title="This concrete class represents the C&#45;library &#39;stdin&#39; stream.">
<polygon fill="white" stroke="black" points="408,-0.5 408,-19.5 511,-19.5 511,-0.5 408,-0.5"/>
<text text-anchor="middle" x="459.5" y="-7.5" font-family="Helvetica,sans-Serif" font-size="10.00">Cpl::Io::Stdio::StdIn</text>
</a>
</g>
</g>
<!-- Node16&#45;&gt;Node17 -->
<g id="edge16" class="edge"><title>Node16&#45;&gt;Node17</title>
<path fill="none" stroke="midnightblue" d="M353.911,-29.5317C371.644,-26.2201 390.79,-22.6446 407.794,-19.4691"/>
<polygon fill="midnightblue" stroke="midnightblue" points="352.848,-26.1697 343.66,-31.446 354.133,-33.0507 352.848,-26.1697"/>
</g>
<!-- Node18&#45;&gt;Node8 -->
<g id="edge23" class="edge"><title>Node18&#45;&gt;Node8</title>
<path fill="none" stroke="midnightblue" d="M169.441,-268.761C183.729,-253.596 206.153,-231.704 229,-217 239.235,-210.413 251.42,-204.855 262.234,-200.591"/>
<polygon fill="midnightblue" stroke="midnightblue" points="166.597,-266.682 162.39,-276.405 171.743,-271.428 166.597,-266.682"/>
</g>
<!-- Node19 -->
<g id="node19" class="node"><title>Node19</title>
<g id="a_node19"><a xlink:href="class_cpl_1_1_io_1_1_atomic_output_api.html" target="_top" xlink:title="This abstract template class defines a interface for an Atomic outputs to a stream.">
<polygon fill="white" stroke="black" points="229,-315 229,-345 354,-345 354,-315 229,-315"/>
<text text-anchor="start" x="237" y="-333" font-family="Helvetica,sans-Serif" font-size="10.00">Cpl::Io::AtomicOutputApi</text>
<text text-anchor="middle" x="291.5" y="-322" font-family="Helvetica,sans-Serif" font-size="10.00">&lt; CONTEXT &gt;</text>
</a>
</g>
</g>
<!-- Node18&#45;&gt;Node19 -->
<g id="edge18" class="edge"><title>Node18&#45;&gt;Node19</title>
<path fill="none" stroke="midnightblue" d="M193.534,-298.744C209.235,-303.805 227.416,-309.665 243.763,-314.935"/>
<polygon fill="midnightblue" stroke="midnightblue" points="194.21,-295.284 183.618,-295.547 192.062,-301.947 194.21,-295.284"/>
</g>
<!-- Node21 -->
<g id="node21" class="node"><title>Node21</title>
<g id="a_node21"><a xlink:href="class_cpl_1_1_io_1_1_file_1_1_output_api.html" target="_top" xlink:title="This abstract class defines the interface for a Random Access Input File.">
<polygon fill="white" stroke="black" points="233.5,-276.5 233.5,-295.5 349.5,-295.5 349.5,-276.5 233.5,-276.5"/>
<text text-anchor="middle" x="291.5" y="-283.5" font-family="Helvetica,sans-Serif" font-size="10.00">Cpl::Io::File::OutputApi</text>
</a>
</g>
</g>
<!-- Node18&#45;&gt;Node21 -->
<g id="edge20" class="edge"><title>Node18&#45;&gt;Node21</title>
<path fill="none" stroke="midnightblue" d="M203.397,-286C213.11,-286 223.376,-286 233.32,-286"/>
<polygon fill="midnightblue" stroke="midnightblue" points="203.115,-282.5 193.115,-286 203.115,-289.5 203.115,-282.5"/>
</g>
<!-- Node23 -->
<g id="node23" class="node"><title>Node23</title>
<g id="a_node23"><a xlink:href="class_cpl_1_1_io_1_1_serial_1_1_r_p2040_1_1_stdio_1_1_output.html" target="_top" xlink:title="This concrete class implements a Input stream using Raspberry Pi RP2040&#39;s SDK.">
<polygon fill="white" stroke="black" points="233.5,-227 233.5,-257 349.5,-257 349.5,-227 233.5,-227"/>
<text text-anchor="start" x="241.5" y="-245" font-family="Helvetica,sans-Serif" font-size="10.00">Cpl::Io::Serial::RP2040</text>
<text text-anchor="middle" x="291.5" y="-234" font-family="Helvetica,sans-Serif" font-size="10.00">::Stdio::Output</text>
</a>
</g>
</g>
<!-- Node18&#45;&gt;Node23 -->
<g id="edge24" class="edge"><title>Node18&#45;&gt;Node23</title>
<path fill="none" stroke="midnightblue" d="M193.534,-273.256C209.235,-268.195 227.416,-262.335 243.763,-257.065"/>
<polygon fill="midnightblue" stroke="midnightblue" points="192.062,-270.053 183.618,-276.453 194.21,-276.716 192.062,-270.053"/>
</g>
<!-- Node24 -->
<g id="node24" class="node"><title>Node24</title>
<g id="a_node24"><a xlink:href="class_cpl_1_1_io_1_1_stdio_1_1_output__.html" target="_top" xlink:title="This concrete class implements a Output stream using the underlying platform&#39;s native OS &#39;file interf...">
<polygon fill="white" stroke="black" points="234.5,-415.5 234.5,-434.5 348.5,-434.5 348.5,-415.5 234.5,-415.5"/>
<text text-anchor="middle" x="291.5" y="-422.5" font-family="Helvetica,sans-Serif" font-size="10.00">Cpl::Io::Stdio::Output_</text>
</a>
</g>
</g>
<!-- Node18&#45;&gt;Node24 -->
<g id="edge25" class="edge"><title>Node18&#45;&gt;Node24</title>
<path fill="none" stroke="midnightblue" d="M163.533,-304.854C175.995,-328.003 199.723,-367.342 229,-393 239.772,-402.44 253.818,-410.018 265.767,-415.426"/>
<polygon fill="midnightblue" stroke="midnightblue" points="166.499,-302.972 158.759,-295.737 160.298,-306.219 166.499,-302.972"/>
</g>
<!-- Node27 -->
<g id="node27" class="node"><title>Node27</title>
<g id="a_node27"><a xlink:href="class_cpl_1_1_io_1_1_tee_output.html" target="_top" xlink:title="This concrete class implements a Output stream that outputs the data to MANY (or none) output streams...">
<polygon fill="white" stroke="black" points="243,-364.5 243,-383.5 340,-383.5 340,-364.5 243,-364.5"/>
<text text-anchor="middle" x="291.5" y="-371.5" font-family="Helvetica,sans-Serif" font-size="10.00">Cpl::Io::TeeOutput</text>
</a>
</g>
</g>
<!-- Node18&#45;&gt;Node27 -->
<g id="edge28" class="edge"><title>Node18&#45;&gt;Node27</title>
<path fill="none" stroke="midnightblue" d="M169.101,-303.799C183.162,-319.336 205.444,-341.46 229,-355 235.588,-358.787 243.016,-361.903 250.372,-364.437"/>
<polygon fill="midnightblue" stroke="midnightblue" points="171.415,-301.131 162.179,-295.941 166.163,-305.758 171.415,-301.131"/>
</g>
<!-- Node20 -->
<g id="node20" class="node"><title>Node20</title>
<g id="a_node20"><a xlink:href="class_cpl_1_1_io_1_1_atomic_output.html" target="_top" xlink:title="This concrete template class implements the AtomicOutputApi using a mutex to enforce the &#39;atomic&#45;ness...">
<polygon fill="white" stroke="black" points="404,-366 404,-396 515,-396 515,-366 404,-366"/>
<text text-anchor="start" x="412" y="-384" font-family="Helvetica,sans-Serif" font-size="10.00">Cpl::Io::AtomicOutput</text>
<text text-anchor="middle" x="459.5" y="-373" font-family="Helvetica,sans-Serif" font-size="10.00">&lt; CONTEXT &gt;</text>
</a>
</g>
</g>
<!-- Node19&#45;&gt;Node20 -->
<g id="edge19" class="edge"><title>Node19&#45;&gt;Node20</title>
<path fill="none" stroke="midnightblue" d="M351.21,-348.038C370.331,-353.912 391.337,-360.366 409.655,-365.994"/>
<polygon fill="midnightblue" stroke="midnightblue" points="351.995,-344.617 341.408,-345.026 349.939,-351.308 351.995,-344.617"/>
</g>
<!-- Node21&#45;&gt;Node5 -->
<g id="edge21" class="edge"><title>Node21&#45;&gt;Node5</title>
<path fill="none" stroke="midnightblue" d="M337.235,-273.055C342.973,-270.93 348.692,-268.572 354,-266 371.305,-257.615 372.515,-250.004 390,-242 398.08,-238.302 407.033,-235.181 415.729,-232.605"/>
<polygon fill="midnightblue" stroke="midnightblue" points="335.919,-269.807 327.63,-276.405 338.225,-276.416 335.919,-269.807"/>
</g>
<!-- Node22 -->
<g id="node22" class="node"><title>Node22</title>
<g id="a_node22"><a xlink:href="class_cpl_1_1_io_1_1_file_1_1_output.html" target="_top" xlink:title="This concrete class provides a platform independent &#39;standard&#39; implementation of a Cpl::Io::File::Out...">
<polygon fill="white" stroke="black" points="408.5,-327.5 408.5,-346.5 510.5,-346.5 510.5,-327.5 408.5,-327.5"/>
<text text-anchor="middle" x="459.5" y="-334.5" font-family="Helvetica,sans-Serif" font-size="10.00">Cpl::Io::File::Output</text>
</a>
</g>
</g>
<!-- Node21&#45;&gt;Node22 -->
<g id="edge22" class="edge"><title>Node21&#45;&gt;Node22</title>
<path fill="none" stroke="midnightblue" d="M334.113,-298.566C340.78,-300.663 347.592,-302.855 354,-305 370.131,-310.401 373.792,-312.834 390,-318 400.347,-321.298 411.675,-324.574 422.087,-327.453"/>
<polygon fill="midnightblue" stroke="midnightblue" points="335.099,-295.207 324.511,-295.578 333.019,-301.891 335.099,-295.207"/>
</g>
<!-- Node25 -->
<g id="node25" class="node"><title>Node25</title>
<g id="a_node25"><a xlink:href="class_cpl_1_1_io_1_1_stdio_1_1_std_err.html" target="_top" xlink:title="This concrete class represents the C&#45;library &#39;stderr&#39; stream.">
<polygon fill="white" stroke="black" points="406,-453.5 406,-472.5 513,-472.5 513,-453.5 406,-453.5"/>
<text text-anchor="middle" x="459.5" y="-460.5" font-family="Helvetica,sans-Serif" font-size="10.00">Cpl::Io::Stdio::StdErr</text>
</a>
</g>
</g>
<!-- Node24&#45;&gt;Node25 -->
<g id="edge26" class="edge"><title>Node24&#45;&gt;Node25</title>
<path fill="none" stroke="midnightblue" d="M344.153,-436.824C367.556,-442.182 394.857,-448.431 416.912,-453.48"/>
<polygon fill="midnightblue" stroke="midnightblue" points="344.918,-433.409 334.389,-434.589 343.356,-440.232 344.918,-433.409"/>
</g>
<!-- Node26 -->
<g id="node26" class="node"><title>Node26</title>
<g id="a_node26"><a xlink:href="class_cpl_1_1_io_1_1_stdio_1_1_std_out.html" target="_top" xlink:title="This concrete class represents the C&#45;library &#39;stdout&#39; stream.">
<polygon fill="white" stroke="black" points="404.5,-415.5 404.5,-434.5 514.5,-434.5 514.5,-415.5 404.5,-415.5"/>
<text text-anchor="middle" x="459.5" y="-422.5" font-family="Helvetica,sans-Serif" font-size="10.00">Cpl::Io::Stdio::StdOut</text>
</a>
</g>
</g>
<!-- Node24&#45;&gt;Node26 -->
<g id="edge27" class="edge"><title>Node24&#45;&gt;Node26</title>
<path fill="none" stroke="midnightblue" d="M358.978,-425C374.035,-425 389.848,-425 404.325,-425"/>
<polygon fill="midnightblue" stroke="midnightblue" points="358.7,-421.5 348.7,-425 358.7,-428.5 358.7,-421.5"/>
</g>
</g>
</svg>
