<?xml version="1.0" encoding="UTF-8" standalone="no"?>
<!DOCTYPE svg PUBLIC "-//W3C//DTD SVG 1.1//EN"
 "http://www.w3.org/Graphics/SVG/1.1/DTD/svg11.dtd">
<!-- Generated by graphviz version 2.38.0 (20140413.2041)
 -->
<!-- Title: Cpl::System::Timer Pages: 1 -->
<svg width="276pt" height="263pt"
 viewBox="0.00 0.00 276.00 263.00" xmlns="http://www.w3.org/2000/svg" xmlns:xlink="http://www.w3.org/1999/xlink">
<g id="graph0" class="graph" transform="scale(1 1) rotate(0) translate(4 259)">
<title>Cpl::System::Timer</title>
<polygon fill="white" stroke="none" points="-4,4 -4,-259 272,-259 272,4 -4,4"/>
<!-- Node1 -->
<g id="node1" class="node"><title>Node1</title>
<g id="a_node1"><a xlink:title="This mostly concrete interface defines the operations that can be performed on a software timer.">
<polygon fill="#bfbfbf" stroke="black" points="93.5,-67.5 93.5,-86.5 194.5,-86.5 194.5,-67.5 93.5,-67.5"/>
<text text-anchor="middle" x="144" y="-74.5" font-family="Helvetica,sans-Serif" font-size="10.00">Cpl::System::Timer</text>
</a>
</g>
</g>
<!-- Node5 -->
<g id="node5" class="node"><title>Node5</title>
<g id="a_node5"><a xlink:href="class_cpl_1_1_system_1_1_timer_composer.html" target="_top" xlink:title="This template class implements a Software Timer that is context independent and allows for a single c...">
<polygon fill="white" stroke="black" points="0,-0.5 0,-30.5 146,-30.5 146,-0.5 0,-0.5"/>
<text text-anchor="start" x="8" y="-18.5" font-family="Helvetica,sans-Serif" font-size="10.00">Cpl::System::TimerComposer</text>
<text text-anchor="middle" x="73" y="-7.5" font-family="Helvetica,sans-Serif" font-size="10.00">&lt; CONTEXT &gt;</text>
</a>
</g>
</g>
<!-- Node1&#45;&gt;Node5 -->
<g id="edge4" class="edge"><title>Node1&#45;&gt;Node5</title>
<path fill="none" stroke="midnightblue" d="M126.007,-60.9215C114.859,-51.579 100.638,-39.6616 89.7333,-30.523"/>
<polygon fill="midnightblue" stroke="midnightblue" points="123.915,-63.7346 133.827,-67.4751 128.411,-58.3694 123.915,-63.7346"/>
</g>
<!-- Node6 -->
<g id="node6" class="node"><title>Node6</title>
<g id="a_node6"><a xlink:href="class_storm_1_1_thermostat_1_1_algorithm.html" target="_top" xlink:title="This concrete class is a &quot;maker&quot; pattern assembles the objects needed for the thermostat&#39;s control al...">
<polygon fill="white" stroke="black" points="164,-0.5 164,-30.5 268,-30.5 268,-0.5 164,-0.5"/>
<text text-anchor="start" x="172" y="-18.5" font-family="Helvetica,sans-Serif" font-size="10.00">Storm::Thermostat::</text>
<text text-anchor="middle" x="216" y="-7.5" font-family="Helvetica,sans-Serif" font-size="10.00">Algorithm</text>
</a>
</g>
</g>
<!-- Node1&#45;&gt;Node6 -->
<g id="edge5" class="edge"><title>Node1&#45;&gt;Node6</title>
<path fill="none" stroke="midnightblue" d="M162.246,-60.9215C173.551,-51.579 187.973,-39.6616 199.031,-30.523"/>
<polygon fill="midnightblue" stroke="midnightblue" points="159.795,-58.4069 154.316,-67.4751 164.254,-63.8028 159.795,-58.4069"/>
</g>
<!-- Node2 -->
<g id="node2" class="node"><title>Node2</title>
<g id="a_node2"><a xlink:href="class_cpl_1_1_system_1_1_counter_callback__.html" target="_top" xlink:title="This abstract class defines the call&#45;back interface for a Counter object.">
<polygon fill="white" stroke="black" points="67.5,-123.5 67.5,-142.5 220.5,-142.5 220.5,-123.5 67.5,-123.5"/>
<text text-anchor="middle" x="144" y="-130.5" font-family="Helvetica,sans-Serif" font-size="10.00">Cpl::System::CounterCallback_</text>
</a>
</g>
</g>
<!-- Node2&#45;&gt;Node1 -->
<g id="edge1" class="edge"><title>Node2&#45;&gt;Node1</title>
<path fill="none" stroke="midnightblue" d="M144,-112.805C144,-103.91 144,-93.7798 144,-86.7511"/>
<polygon fill="midnightblue" stroke="midnightblue" points="140.5,-113.083 144,-123.083 147.5,-113.083 140.5,-113.083"/>
</g>
<!-- Node3 -->
<g id="node3" class="node"><title>Node3</title>
<g id="a_node3"><a xlink:href="class_cpl_1_1_container_1_1_extended_item.html" target="_top" xlink:title="This class is used by the Container classes to implement a various types of DOUBLY linked containers.">
<polygon fill="white" stroke="black" points="71.5,-179.5 71.5,-198.5 216.5,-198.5 216.5,-179.5 71.5,-179.5"/>
<text text-anchor="middle" x="144" y="-186.5" font-family="Helvetica,sans-Serif" font-size="10.00">Cpl::Container::ExtendedItem</text>
</a>
</g>
</g>
<!-- Node3&#45;&gt;Node2 -->
<g id="edge2" class="edge"><title>Node3&#45;&gt;Node2</title>
<path fill="none" stroke="midnightblue" d="M144,-168.805C144,-159.91 144,-149.78 144,-142.751"/>
<polygon fill="midnightblue" stroke="midnightblue" points="140.5,-169.083 144,-179.083 147.5,-169.083 140.5,-169.083"/>
</g>
<!-- Node4 -->
<g id="node4" class="node"><title>Node4</title>
<g id="a_node4"><a xlink:href="class_cpl_1_1_container_1_1_item.html" target="_top" xlink:title="This class is used by the Container classes to implement a various types of singly linked containers.">
<polygon fill="white" stroke="black" points="92,-235.5 92,-254.5 196,-254.5 196,-235.5 92,-235.5"/>
<text text-anchor="middle" x="144" y="-242.5" font-family="Helvetica,sans-Serif" font-size="10.00">Cpl::Container::Item</text>
</a>
</g>
</g>
<!-- Node4&#45;&gt;Node3 -->
<g id="edge3" class="edge"><title>Node4&#45;&gt;Node3</title>
<path fill="none" stroke="midnightblue" d="M144,-224.805C144,-215.91 144,-205.78 144,-198.751"/>
<polygon fill="midnightblue" stroke="midnightblue" points="140.5,-225.083 144,-235.083 147.5,-225.083 140.5,-225.083"/>
</g>
</g>
</svg>
