<?xml version="1.0" encoding="UTF-8" standalone="no"?>
<!DOCTYPE svg PUBLIC "-//W3C//DTD SVG 1.1//EN"
 "http://www.w3.org/Graphics/SVG/1.1/DTD/svg11.dtd">
<!-- Generated by graphviz version 2.38.0 (20140413.2041)
 -->
<!-- Title: Cpl::Container::DictItem Pages: 1 -->
<svg width="1283pt" height="256pt"
 viewBox="0.00 0.00 1283.00 256.00" xmlns="http://www.w3.org/2000/svg" xmlns:xlink="http://www.w3.org/1999/xlink">
<g id="graph0" class="graph" transform="scale(1 1) rotate(0) translate(4 252)">
<title>Cpl::Container::DictItem</title>
<polygon fill="white" stroke="none" points="-4,4 -4,-252 1279,-252 1279,4 -4,4"/>
<!-- Node1 -->
<g id="node1" class="node"><title>Node1</title>
<g id="a_node1"><a xlink:title="This abstract class represents a item that can be contained in Dictionary.">
<polygon fill="#bfbfbf" stroke="black" points="321,-66.5 321,-85.5 442,-85.5 442,-66.5 321,-66.5"/>
<text text-anchor="middle" x="381.5" y="-73.5" font-family="Helvetica,sans-Serif" font-size="10.00">Cpl::Container::DictItem</text>
</a>
</g>
</g>
<!-- Node4 -->
<g id="node4" class="node"><title>Node4</title>
<g id="a_node4"><a xlink:href="class_cpl_1_1_container_1_1_map_item.html" target="_top" xlink:title="This abstract class represents a item that can be contained in an Map (aka a sorted list implemented ...">
<polygon fill="white" stroke="black" points="478,-66.5 478,-85.5 600,-85.5 600,-66.5 478,-66.5"/>
<text text-anchor="middle" x="539" y="-73.5" font-family="Helvetica,sans-Serif" font-size="10.00">Cpl::Container::MapItem</text>
</a>
</g>
</g>
<!-- Node1&#45;&gt;Node4 -->
<g id="edge3" class="edge"><title>Node1&#45;&gt;Node4</title>
<path fill="none" stroke="midnightblue" d="M452.188,-76C460.792,-76 469.528,-76 477.97,-76"/>
<polygon fill="midnightblue" stroke="midnightblue" points="452.176,-72.5001 442.176,-76 452.176,-79.5001 452.176,-72.5001"/>
</g>
<!-- Node2 -->
<g id="node2" class="node"><title>Node2</title>
<g id="a_node2"><a xlink:href="class_cpl_1_1_container_1_1_extended_item.html" target="_top" xlink:title="This class is used by the Container classes to implement a various types of DOUBLY linked containers.">
<polygon fill="white" stroke="black" points="140,-66.5 140,-85.5 285,-85.5 285,-66.5 140,-66.5"/>
<text text-anchor="middle" x="212.5" y="-73.5" font-family="Helvetica,sans-Serif" font-size="10.00">Cpl::Container::ExtendedItem</text>
</a>
</g>
</g>
<!-- Node2&#45;&gt;Node1 -->
<g id="edge1" class="edge"><title>Node2&#45;&gt;Node1</title>
<path fill="none" stroke="midnightblue" d="M295.342,-76C303.93,-76 312.542,-76 320.813,-76"/>
<polygon fill="midnightblue" stroke="midnightblue" points="295.292,-72.5001 285.292,-76 295.292,-79.5001 295.292,-72.5001"/>
</g>
<!-- Node3 -->
<g id="node3" class="node"><title>Node3</title>
<g id="a_node3"><a xlink:href="class_cpl_1_1_container_1_1_item.html" target="_top" xlink:title="This class is used by the Container classes to implement a various types of singly linked containers.">
<polygon fill="white" stroke="black" points="0,-66.5 0,-85.5 104,-85.5 104,-66.5 0,-66.5"/>
<text text-anchor="middle" x="52" y="-73.5" font-family="Helvetica,sans-Serif" font-size="10.00">Cpl::Container::Item</text>
</a>
</g>
</g>
<!-- Node3&#45;&gt;Node2 -->
<g id="edge2" class="edge"><title>Node3&#45;&gt;Node2</title>
<path fill="none" stroke="midnightblue" d="M114.109,-76C122.516,-76 131.212,-76 139.789,-76"/>
<polygon fill="midnightblue" stroke="midnightblue" points="114.023,-72.5001 104.023,-76 114.023,-79.5001 114.023,-72.5001"/>
</g>
<!-- Node5 -->
<g id="node5" class="node"><title>Node5</title>
<g id="a_node5"><a xlink:href="class_cpl_1_1_t_shell_1_1_command.html" target="_top" xlink:title="This class defines the interface for a TShell command.">
<polygon fill="white" stroke="black" points="636,-104.5 636,-123.5 751,-123.5 751,-104.5 636,-104.5"/>
<text text-anchor="middle" x="693.5" y="-111.5" font-family="Helvetica,sans-Serif" font-size="10.00">Cpl::TShell::Command</text>
</a>
</g>
</g>
<!-- Node4&#45;&gt;Node5 -->
<g id="edge4" class="edge"><title>Node4&#45;&gt;Node5</title>
<path fill="none" stroke="midnightblue" d="M588.318,-88.04C609.623,-93.3488 634.304,-99.4988 654.295,-104.48"/>
<polygon fill="midnightblue" stroke="midnightblue" points="589.032,-84.6108 578.482,-85.589 587.339,-91.4031 589.032,-84.6108"/>
</g>
<!-- Node16 -->
<g id="node16" class="node"><title>Node16</title>
<g id="a_node16"><a xlink:href="class_cpl_1_1_text_1_1_string_item.html" target="_top" xlink:title="This partially concrete provides a wrapper class that allows a String object to be stored directly in...">
<polygon fill="white" stroke="black" points="640,-47.5 640,-66.5 747,-66.5 747,-47.5 640,-47.5"/>
<text text-anchor="middle" x="693.5" y="-54.5" font-family="Helvetica,sans-Serif" font-size="10.00">Cpl::Text::StringItem</text>
</a>
</g>
</g>
<!-- Node4&#45;&gt;Node16 -->
<g id="edge15" class="edge"><title>Node4&#45;&gt;Node16</title>
<path fill="none" stroke="midnightblue" d="M610.419,-67.2265C620.227,-66.0045 630.165,-64.7664 639.578,-63.5936"/>
<polygon fill="midnightblue" stroke="midnightblue" points="609.763,-63.7811 600.272,-68.4907 610.628,-70.7274 609.763,-63.7811"/>
</g>
<!-- Node6 -->
<g id="node6" class="node"><title>Node6</title>
<g id="a_node6"><a xlink:href="class_cpl_1_1_t_shell_1_1_cmd_1_1_command.html" target="_top" xlink:title="This partially concrete class implements infrastructure and/or common functionality for a Shell comma...">
<polygon fill="white" stroke="black" points="787,-114.5 787,-133.5 928,-133.5 928,-114.5 787,-114.5"/>
<text text-anchor="middle" x="857.5" y="-121.5" font-family="Helvetica,sans-Serif" font-size="10.00">Cpl::TShell::Cmd::Command</text>
</a>
</g>
</g>
<!-- Node5&#45;&gt;Node6 -->
<g id="edge5" class="edge"><title>Node5&#45;&gt;Node6</title>
<path fill="none" stroke="midnightblue" d="M761.285,-118.123C769.692,-118.641 778.31,-119.173 786.762,-119.695"/>
<polygon fill="midnightblue" stroke="midnightblue" points="761.356,-114.62 751.16,-117.498 760.925,-121.607 761.356,-114.62"/>
</g>
<!-- Node7 -->
<g id="node7" class="node"><title>Node7</title>
<g id="a_node7"><a xlink:href="class_cpl_1_1_dm_1_1_t_shell_1_1_dm.html" target="_top" xlink:title="This class implements a TShell command.">
<polygon fill="white" stroke="black" points="976.5,-228.5 976.5,-247.5 1083.5,-247.5 1083.5,-228.5 976.5,-228.5"/>
<text text-anchor="middle" x="1030" y="-235.5" font-family="Helvetica,sans-Serif" font-size="10.00">Cpl::Dm::TShell::Dm</text>
</a>
</g>
</g>
<!-- Node6&#45;&gt;Node7 -->
<g id="edge6" class="edge"><title>Node6&#45;&gt;Node7</title>
<path fill="none" stroke="midnightblue" d="M873.114,-141.248C892.018,-162.503 926.943,-198.334 964,-219 970.88,-222.837 978.61,-225.967 986.276,-228.497"/>
<polygon fill="midnightblue" stroke="midnightblue" points="875.676,-138.86 866.466,-133.624 870.4,-143.461 875.676,-138.86"/>
</g>
<!-- Node8 -->
<g id="node8" class="node"><title>Node8</title>
<g id="a_node8"><a xlink:href="class_cpl_1_1_t_shell_1_1_cmd_1_1_bye.html" target="_top" xlink:title="This class implements a Shell command.">
<polygon fill="white" stroke="black" points="973,-190.5 973,-209.5 1087,-209.5 1087,-190.5 973,-190.5"/>
<text text-anchor="middle" x="1030" y="-197.5" font-family="Helvetica,sans-Serif" font-size="10.00">Cpl::TShell::Cmd::Bye</text>
</a>
</g>
</g>
<!-- Node6&#45;&gt;Node8 -->
<g id="edge7" class="edge"><title>Node6&#45;&gt;Node8</title>
<path fill="none" stroke="midnightblue" d="M882.556,-138.898C903.489,-151.394 934.944,-169.061 964,-181 972.7,-184.575 982.31,-187.771 991.412,-190.476"/>
<polygon fill="midnightblue" stroke="midnightblue" points="884.094,-135.738 873.726,-133.56 880.473,-141.729 884.094,-135.738"/>
</g>
<!-- Node9 -->
<g id="node9" class="node"><title>Node9</title>
<g id="a_node9"><a xlink:href="class_cpl_1_1_t_shell_1_1_cmd_1_1_help.html" target="_top" xlink:title="This class implements a Shell command.">
<polygon fill="white" stroke="black" points="972,-152.5 972,-171.5 1088,-171.5 1088,-152.5 972,-152.5"/>
<text text-anchor="middle" x="1030" y="-159.5" font-family="Helvetica,sans-Serif" font-size="10.00">Cpl::TShell::Cmd::Help</text>
</a>
</g>
</g>
<!-- Node6&#45;&gt;Node9 -->
<g id="edge8" class="edge"><title>Node6&#45;&gt;Node9</title>
<path fill="none" stroke="midnightblue" d="M911.554,-135.824C935.591,-141.182 963.632,-147.431 986.285,-152.48"/>
<polygon fill="midnightblue" stroke="midnightblue" points="912.046,-132.348 901.524,-133.589 910.523,-139.181 912.046,-132.348"/>
</g>
<!-- Node10 -->
<g id="node10" class="node"><title>Node10</title>
<g id="a_node10"><a xlink:href="class_cpl_1_1_t_shell_1_1_cmd_1_1_t_print.html" target="_top" xlink:title="This class implements a Shell command.">
<polygon fill="white" stroke="black" points="968.5,-114.5 968.5,-133.5 1091.5,-133.5 1091.5,-114.5 968.5,-114.5"/>
<text text-anchor="middle" x="1030" y="-121.5" font-family="Helvetica,sans-Serif" font-size="10.00">Cpl::TShell::Cmd::TPrint</text>
</a>
</g>
</g>
<!-- Node6&#45;&gt;Node10 -->
<g id="edge9" class="edge"><title>Node6&#45;&gt;Node10</title>
<path fill="none" stroke="midnightblue" d="M938.348,-124C948.41,-124 958.573,-124 968.273,-124"/>
<polygon fill="midnightblue" stroke="midnightblue" points="938.341,-120.5 928.341,-124 938.341,-127.5 938.341,-120.5"/>
</g>
<!-- Node11 -->
<g id="node11" class="node"><title>Node11</title>
<g id="a_node11"><a xlink:href="class_cpl_1_1_t_shell_1_1_cmd_1_1_threads.html" target="_top" xlink:title="This class implements a Shell command.">
<polygon fill="white" stroke="black" points="964,-76.5 964,-95.5 1096,-95.5 1096,-76.5 964,-76.5"/>
<text text-anchor="middle" x="1030" y="-83.5" font-family="Helvetica,sans-Serif" font-size="10.00">Cpl::TShell::Cmd::Threads</text>
</a>
</g>
</g>
<!-- Node6&#45;&gt;Node11 -->
<g id="edge10" class="edge"><title>Node6&#45;&gt;Node11</title>
<path fill="none" stroke="midnightblue" d="M911.554,-112.176C935.591,-106.818 963.632,-100.569 986.285,-95.5201"/>
<polygon fill="midnightblue" stroke="midnightblue" points="910.523,-108.819 901.524,-114.411 912.046,-115.652 910.523,-108.819"/>
</g>
<!-- Node14 -->
<g id="node14" class="node"><title>Node14</title>
<g id="a_node14"><a xlink:href="class_cpl_1_1_t_shell_1_1_cmd_1_1_tick.html" target="_top" xlink:title="This class implements a Shell command.">
<polygon fill="white" stroke="black" points="972,-38.5 972,-57.5 1088,-57.5 1088,-38.5 972,-38.5"/>
<text text-anchor="middle" x="1030" y="-45.5" font-family="Helvetica,sans-Serif" font-size="10.00">Cpl::TShell::Cmd::Tick</text>
</a>
</g>
</g>
<!-- Node6&#45;&gt;Node14 -->
<g id="edge13" class="edge"><title>Node6&#45;&gt;Node14</title>
<path fill="none" stroke="midnightblue" d="M916.505,-110.809C920.503,-109.097 924.378,-107.169 928,-105 947.958,-93.0461 944.147,-79.1283 964,-67 970.321,-63.1386 977.467,-60.0271 984.65,-57.5302"/>
<polygon fill="midnightblue" stroke="midnightblue" points="915.113,-107.593 907.014,-114.424 917.604,-114.135 915.113,-107.593"/>
</g>
<!-- Node15 -->
<g id="node15" class="node"><title>Node15</title>
<g id="a_node15"><a xlink:href="class_cpl_1_1_t_shell_1_1_cmd_1_1_trace.html" target="_top" xlink:title="This class implements a Shell command.">
<polygon fill="white" stroke="black" points="969,-0.5 969,-19.5 1091,-19.5 1091,-0.5 969,-0.5"/>
<text text-anchor="middle" x="1030" y="-7.5" font-family="Helvetica,sans-Serif" font-size="10.00">Cpl::TShell::Cmd::Trace</text>
</a>
</g>
</g>
<!-- Node6&#45;&gt;Node15 -->
<g id="edge14" class="edge"><title>Node6&#45;&gt;Node15</title>
<path fill="none" stroke="midnightblue" d="M921.585,-109.629C923.836,-108.226 925.987,-106.688 928,-105 956.643,-80.9894 935.568,-53.2606 964,-29 968.561,-25.108 973.885,-22.0126 979.486,-19.5509"/>
<polygon fill="midnightblue" stroke="midnightblue" points="919.713,-106.657 912.473,-114.392 922.957,-112.861 919.713,-106.657"/>
</g>
<!-- Node12 -->
<g id="node12" class="node"><title>Node12</title>
<g id="a_node12"><a xlink:href="class_cpl_1_1_t_shell_1_1_cmd_1_1_free_r_t_o_s_1_1_threads.html" target="_top" xlink:title="This class implements a TShell command.">
<polygon fill="white" stroke="black" points="1132,-95 1132,-125 1275,-125 1275,-95 1132,-95"/>
<text text-anchor="start" x="1140" y="-113" font-family="Helvetica,sans-Serif" font-size="10.00">Cpl::TShell::Cmd::FreeRTOS</text>
<text text-anchor="middle" x="1203.5" y="-102" font-family="Helvetica,sans-Serif" font-size="10.00">::Threads</text>
</a>
</g>
</g>
<!-- Node11&#45;&gt;Node12 -->
<g id="edge11" class="edge"><title>Node11&#45;&gt;Node12</title>
<path fill="none" stroke="midnightblue" d="M1106.26,-96.5314C1114.79,-97.7253 1123.46,-98.9389 1131.93,-100.124"/>
<polygon fill="midnightblue" stroke="midnightblue" points="1106.71,-93.0616 1096.33,-95.1418 1105.74,-99.9941 1106.71,-93.0616"/>
</g>
<!-- Node13 -->
<g id="node13" class="node"><title>Node13</title>
<g id="a_node13"><a xlink:href="class_cpl_1_1_t_shell_1_1_cmd_1_1_win32_1_1_threads.html" target="_top" xlink:title="This class implements a TShell command.">
<polygon fill="white" stroke="black" points="1141.5,-46 1141.5,-76 1265.5,-76 1265.5,-46 1141.5,-46"/>
<text text-anchor="start" x="1149.5" y="-64" font-family="Helvetica,sans-Serif" font-size="10.00">Cpl::TShell::Cmd::Win32</text>
<text text-anchor="middle" x="1203.5" y="-53" font-family="Helvetica,sans-Serif" font-size="10.00">::Threads</text>
</a>
</g>
</g>
<!-- Node11&#45;&gt;Node13 -->
<g id="edge12" class="edge"><title>Node11&#45;&gt;Node13</title>
<path fill="none" stroke="midnightblue" d="M1106.47,-74.9981C1118.12,-73.3003 1130.02,-71.5651 1141.31,-69.9202"/>
<polygon fill="midnightblue" stroke="midnightblue" points="1105.72,-71.5713 1096.33,-76.4773 1106.73,-78.4981 1105.72,-71.5713"/>
</g>
<!-- Node17 -->
<g id="node17" class="node"><title>Node17</title>
<g id="a_node17"><a xlink:href="class_cpl_1_1_text_1_1_d_f_string_item.html" target="_top" xlink:title="This concrete class implements the StringItem class for a &#39;String&#39; using a &#39;DFString&#39; as the internal...">
<polygon fill="white" stroke="black" points="797.5,-76.5 797.5,-95.5 917.5,-95.5 917.5,-76.5 797.5,-76.5"/>
<text text-anchor="middle" x="857.5" y="-83.5" font-family="Helvetica,sans-Serif" font-size="10.00">Cpl::Text::DFStringItem</text>
</a>
</g>
</g>
<!-- Node16&#45;&gt;Node17 -->
<g id="edge16" class="edge"><title>Node16&#45;&gt;Node17</title>
<path fill="none" stroke="midnightblue" d="M756.992,-68.1868C772.29,-70.9255 788.52,-73.8307 803.335,-76.4828"/>
<polygon fill="midnightblue" stroke="midnightblue" points="757.557,-64.7324 747.097,-66.4155 756.324,-71.6229 757.557,-64.7324"/>
</g>
<!-- Node18 -->
<g id="node18" class="node"><title>Node18</title>
<g id="a_node18"><a xlink:href="class_cpl_1_1_text_1_1_d_string_item.html" target="_top" xlink:title="This concrete class implements the StringItem class for a &#39;String&#39; using a &#39;DString&#39; as the internal ...">
<polygon fill="white" stroke="black" points="800.5,-38.5 800.5,-57.5 914.5,-57.5 914.5,-38.5 800.5,-38.5"/>
<text text-anchor="middle" x="857.5" y="-45.5" font-family="Helvetica,sans-Serif" font-size="10.00">Cpl::Text::DStringItem</text>
</a>
</g>
</g>
<!-- Node16&#45;&gt;Node18 -->
<g id="edge17" class="edge"><title>Node16&#45;&gt;Node18</title>
<path fill="none" stroke="midnightblue" d="M757.25,-53.5139C771.42,-52.7267 786.376,-51.8958 800.259,-51.1245"/>
<polygon fill="midnightblue" stroke="midnightblue" points="756.887,-50.0286 747.097,-54.078 757.276,-57.0178 756.887,-50.0286"/>
</g>
<!-- Node19 -->
<g id="node19" class="node"><title>Node19</title>
<g id="a_node19"><a xlink:href="class_cpl_1_1_text_1_1_f_string_item.html" target="_top" xlink:title="This template class implements the StringItem class for a &#39;String&#39; using a &#39;FString&#39; as the internal ...">
<polygon fill="white" stroke="black" points="788.5,-0.5 788.5,-19.5 926.5,-19.5 926.5,-0.5 788.5,-0.5"/>
<text text-anchor="middle" x="857.5" y="-7.5" font-family="Helvetica,sans-Serif" font-size="10.00">Cpl::Text::FStringItem&lt; S &gt;</text>
</a>
</g>
</g>
<!-- Node16&#45;&gt;Node19 -->
<g id="edge18" class="edge"><title>Node16&#45;&gt;Node19</title>
<path fill="none" stroke="midnightblue" d="M734.953,-44.4955C751.113,-39.5684 769.909,-33.9219 787,-29 797.938,-25.8499 809.882,-22.5385 820.734,-19.5786"/>
<polygon fill="midnightblue" stroke="midnightblue" points="733.81,-41.1851 725.272,-47.4576 735.858,-47.8789 733.81,-41.1851"/>
</g>
</g>
</svg>
