<?xml version="1.0" encoding="UTF-8" standalone="no"?>
<!DOCTYPE svg PUBLIC "-//W3C//DTD SVG 1.1//EN"
 "http://www.w3.org/Graphics/SVG/1.1/DTD/svg11.dtd">
<!-- Generated by graphviz version 2.38.0 (20140413.2041)
 -->
<!-- Title: Driver::TPipe::Maker Pages: 1 -->
<svg width="1055pt" height="216pt"
 viewBox="0.00 0.00 1055.00 216.00" xmlns="http://www.w3.org/2000/svg" xmlns:xlink="http://www.w3.org/1999/xlink">
<g id="graph0" class="graph" transform="scale(1 1) rotate(0) translate(4 212)">
<title>Driver::TPipe::Maker</title>
<polygon fill="white" stroke="none" points="-4,4 -4,-212 1051,-212 1051,4 -4,4"/>
<!-- Node1 -->
<g id="node1" class="node"><title>Node1</title>
<g id="a_node1"><a xlink:title="This concrete class is a &quot;Maker&quot; that assembles the objects needed for TPipe.">
<polygon fill="#bfbfbf" stroke="black" points="940,-101 940,-120 1047,-120 1047,-101 940,-101"/>
<text text-anchor="middle" x="993.5" y="-108" font-family="Helvetica,sans-Serif" font-size="10.00">Driver::TPipe::Maker</text>
</a>
</g>
</g>
<!-- Node2 -->
<g id="node2" class="node"><title>Node2</title>
<g id="a_node2"><a xlink:href="class_cpl_1_1_text_1_1_frame_1_1_stream_decoder.html" target="_top" xlink:title="This partially concrete class defines an interface a Text &quot;Decoder&quot; that has a Cpl::Io::Input stream ...">
<polygon fill="white" stroke="black" points="526,-177.5 526,-207.5 654,-207.5 654,-177.5 526,-177.5"/>
<text text-anchor="start" x="534" y="-195.5" font-family="Helvetica,sans-Serif" font-size="10.00">Cpl::Text::Frame::Stream</text>
<text text-anchor="middle" x="590" y="-184.5" font-family="Helvetica,sans-Serif" font-size="10.00">Decoder</text>
</a>
</g>
</g>
<!-- Node2&#45;&gt;Node1 -->
<g id="edge1" class="edge"><title>Node2&#45;&gt;Node1</title>
<path fill="none" stroke="midnightblue" d="M664.437,-190.364C684.796,-189.034 706.84,-186.903 727,-183.5 815.619,-168.543 917.265,-136.185 965.011,-120.05"/>
<polygon fill="midnightblue" stroke="midnightblue" points="664.052,-186.88 654.279,-190.972 664.47,-193.868 664.052,-186.88"/>
</g>
<!-- Node13 -->
<g id="node13" class="node"><title>Node13</title>
<g id="a_node13"><a xlink:href="class_driver_1_1_t_pipe_1_1_pipe.html" target="_top" xlink:title="This concrete class provides the implementation of TPipe.">
<polygon fill="white" stroke="black" points="745,-101 745,-120 844,-120 844,-101 745,-101"/>
<text text-anchor="middle" x="794.5" y="-108" font-family="Helvetica,sans-Serif" font-size="10.00">Driver::TPipe::Pipe</text>
</a>
</g>
</g>
<!-- Node2&#45;&gt;Node13 -->
<g id="edge16" class="edge"><title>Node2&#45;&gt;Node13</title>
<path fill="none" stroke="#9a32cd" stroke-dasharray="5,2" d="M655.841,-174.515C678.712,-167.392 704.357,-158.504 727,-148.5 745.609,-140.278 765.728,-128.311 778.905,-120.012"/>
<polygon fill="#9a32cd" stroke="#9a32cd" points="654.764,-171.184 646.226,-177.458 656.813,-177.878 654.764,-171.184"/>
<text text-anchor="middle" x="699.5" y="-171.5" font-family="Helvetica,sans-Serif" font-size="10.00"> m_deframer</text>
</g>
<!-- Node3 -->
<g id="node3" class="node"><title>Node3</title>
<g id="a_node3"><a xlink:href="class_cpl_1_1_text_1_1_frame_1_1_decoder__.html" target="_top" xlink:title="This private partially concrete class implements the basic/common logic for a frame decoder.">
<polygon fill="white" stroke="black" points="310,-183 310,-202 447,-202 447,-183 310,-183"/>
<text text-anchor="middle" x="378.5" y="-190" font-family="Helvetica,sans-Serif" font-size="10.00">Cpl::Text::Frame::Decoder_</text>
</a>
</g>
</g>
<!-- Node3&#45;&gt;Node2 -->
<g id="edge2" class="edge"><title>Node3&#45;&gt;Node2</title>
<path fill="none" stroke="midnightblue" d="M457.437,-192.5C479.962,-192.5 504.26,-192.5 525.771,-192.5"/>
<polygon fill="midnightblue" stroke="midnightblue" points="457.229,-189 447.229,-192.5 457.229,-196 457.229,-189"/>
</g>
<!-- Node4 -->
<g id="node4" class="node"><title>Node4</title>
<g id="a_node4"><a xlink:href="class_cpl_1_1_text_1_1_frame_1_1_decoder.html" target="_top" xlink:title="This class defines an interface for &#39;receiving&#39; (decode) a frame.">
<polygon fill="white" stroke="black" points="141,-183 141,-202 273,-202 273,-183 141,-183"/>
<text text-anchor="middle" x="207" y="-190" font-family="Helvetica,sans-Serif" font-size="10.00">Cpl::Text::Frame::Decoder</text>
</a>
</g>
</g>
<!-- Node4&#45;&gt;Node3 -->
<g id="edge3" class="edge"><title>Node4&#45;&gt;Node3</title>
<path fill="none" stroke="midnightblue" d="M283.32,-192.5C292.144,-192.5 301.106,-192.5 309.816,-192.5"/>
<polygon fill="midnightblue" stroke="midnightblue" points="283.048,-189 273.048,-192.5 283.048,-196 283.048,-189"/>
</g>
<!-- Node5 -->
<g id="node5" class="node"><title>Node5</title>
<g id="a_node5"><a xlink:href="class_cpl_1_1_io_1_1_input.html" target="_top" xlink:title="This partially abstract class defines a interface for operating on an input stream (example of a stre...">
<polygon fill="white" stroke="black" points="342,-137 342,-156 415,-156 415,-137 342,-137"/>
<text text-anchor="middle" x="378.5" y="-144" font-family="Helvetica,sans-Serif" font-size="10.00">Cpl::Io::Input</text>
</a>
</g>
</g>
<!-- Node5&#45;&gt;Node2 -->
<g id="edge4" class="edge"><title>Node5&#45;&gt;Node2</title>
<path fill="none" stroke="#9a32cd" stroke-dasharray="5,2" d="M425.045,-156.5C454.502,-162.968 493.26,-171.478 525.697,-178.6"/>
<polygon fill="#9a32cd" stroke="#9a32cd" points="425.557,-153.029 415.039,-154.303 424.056,-159.867 425.557,-153.029"/>
<text text-anchor="middle" x="486.5" y="-177.5" font-family="Helvetica,sans-Serif" font-size="10.00"> m_srcPtr</text>
</g>
<!-- Node6 -->
<g id="node6" class="node"><title>Node6</title>
<g id="a_node6"><a xlink:href="class_cpl_1_1_io_1_1_close.html" target="_top" xlink:title="This abstract class defines a close operation that is intended to be used Input and Output streams/fi...">
<polygon fill="white" stroke="black" points="169,-124 169,-143 245,-143 245,-124 169,-124"/>
<text text-anchor="middle" x="207" y="-131" font-family="Helvetica,sans-Serif" font-size="10.00">Cpl::Io::Close</text>
</a>
</g>
</g>
<!-- Node6&#45;&gt;Node5 -->
<g id="edge5" class="edge"><title>Node6&#45;&gt;Node5</title>
<path fill="none" stroke="midnightblue" d="M255.351,-137.132C282.761,-139.234 316.699,-141.837 341.841,-143.765"/>
<polygon fill="midnightblue" stroke="midnightblue" points="255.436,-133.628 245.197,-136.353 254.901,-140.607 255.436,-133.628"/>
</g>
<!-- Node12 -->
<g id="node12" class="node"><title>Node12</title>
<g id="a_node12"><a xlink:href="class_cpl_1_1_io_1_1_output.html" target="_top" xlink:title="This partially abstract class defines a interface for operating on an output stream (example of a str...">
<polygon fill="white" stroke="black" points="338.5,-62 338.5,-81 418.5,-81 418.5,-62 338.5,-62"/>
<text text-anchor="middle" x="378.5" y="-69" font-family="Helvetica,sans-Serif" font-size="10.00">Cpl::Io::Output</text>
</a>
</g>
</g>
<!-- Node6&#45;&gt;Node12 -->
<g id="edge12" class="edge"><title>Node6&#45;&gt;Node12</title>
<path fill="none" stroke="midnightblue" d="M243.607,-120.476C275.811,-108.696 322.479,-91.6256 351.357,-81.0625"/>
<polygon fill="midnightblue" stroke="midnightblue" points="242.302,-117.226 234.113,-123.948 244.707,-123.8 242.302,-117.226"/>
</g>
<!-- Node7 -->
<g id="node7" class="node"><title>Node7</title>
<g id="a_node7"><a xlink:href="class_cpl_1_1_container_1_1_item.html" target="_top" xlink:title="This class is used by the Container classes to implement a various types of singly linked containers.">
<polygon fill="white" stroke="black" points="0,-124 0,-143 104,-143 104,-124 0,-124"/>
<text text-anchor="middle" x="52" y="-131" font-family="Helvetica,sans-Serif" font-size="10.00">Cpl::Container::Item</text>
</a>
</g>
</g>
<!-- Node7&#45;&gt;Node6 -->
<g id="edge6" class="edge"><title>Node7&#45;&gt;Node6</title>
<path fill="none" stroke="midnightblue" d="M114.4,-133.5C132.724,-133.5 152.252,-133.5 168.549,-133.5"/>
<polygon fill="midnightblue" stroke="midnightblue" points="114.372,-130 104.372,-133.5 114.372,-137 114.372,-130"/>
</g>
<!-- Node8 -->
<g id="node8" class="node"><title>Node8</title>
<g id="a_node8"><a xlink:href="class_cpl_1_1_io_1_1_is_eos.html" target="_top" xlink:title="This abstract class defines a isEos() operation that is intended to be used Input and Output streams.">
<polygon fill="white" stroke="black" points="168.5,-74 168.5,-93 245.5,-93 245.5,-74 168.5,-74"/>
<text text-anchor="middle" x="207" y="-81" font-family="Helvetica,sans-Serif" font-size="10.00">Cpl::Io::IsEos</text>
</a>
</g>
</g>
<!-- Node8&#45;&gt;Node5 -->
<g id="edge7" class="edge"><title>Node8&#45;&gt;Node5</title>
<path fill="none" stroke="midnightblue" d="M243.279,-96.6124C275.655,-108.646 322.852,-126.188 351.793,-136.945"/>
<polygon fill="midnightblue" stroke="midnightblue" points="244.336,-93.2716 233.743,-93.0683 241.897,-99.8331 244.336,-93.2716"/>
</g>
<!-- Node8&#45;&gt;Node12 -->
<g id="edge13" class="edge"><title>Node8&#45;&gt;Node12</title>
<path fill="none" stroke="midnightblue" d="M255.656,-80.1261C281.715,-78.2812 313.604,-76.0236 338.221,-74.2808"/>
<polygon fill="midnightblue" stroke="midnightblue" points="255.345,-76.6393 245.618,-80.8368 255.84,-83.6218 255.345,-76.6393"/>
</g>
<!-- Node9 -->
<g id="node9" class="node"><title>Node9</title>
<g id="a_node9"><a xlink:href="class_cpl_1_1_text_1_1_frame_1_1_stream_encoder.html" target="_top" xlink:title="This concrete class implements the Encoder API where the Output destination is a Cpl::Io::Output stre...">
<polygon fill="white" stroke="black" points="526,-0.5 526,-30.5 654,-30.5 654,-0.5 526,-0.5"/>
<text text-anchor="start" x="534" y="-18.5" font-family="Helvetica,sans-Serif" font-size="10.00">Cpl::Text::Frame::Stream</text>
<text text-anchor="middle" x="590" y="-7.5" font-family="Helvetica,sans-Serif" font-size="10.00">Encoder</text>
</a>
</g>
</g>
<!-- Node9&#45;&gt;Node1 -->
<g id="edge8" class="edge"><title>Node9&#45;&gt;Node1</title>
<path fill="none" stroke="#9a32cd" stroke-dasharray="5,2" d="M664.233,-18.3788C684.678,-20.0055 706.816,-22.5435 727,-26.5 818.327,-44.4018 922.43,-82.8774 968.455,-100.863"/>
<polygon fill="#9a32cd" stroke="#9a32cd" points="664.263,-14.8717 654.034,-17.63 663.751,-21.8529 664.263,-14.8717"/>
<text text-anchor="middle" x="794.5" y="-59.5" font-family="Helvetica,sans-Serif" font-size="10.00"> m_framer</text>
</g>
<!-- Node9&#45;&gt;Node13 -->
<g id="edge17" class="edge"><title>Node9&#45;&gt;Node13</title>
<path fill="none" stroke="#9a32cd" stroke-dasharray="5,2" d="M664.052,-24.6028C685.214,-29.2045 707.778,-36.1188 727,-46.5 752.378,-60.2054 774.945,-86.2782 786.107,-100.551"/>
<polygon fill="#9a32cd" stroke="#9a32cd" points="664.618,-21.1464 654.121,-22.5859 663.224,-28.0064 664.618,-21.1464"/>
<text text-anchor="middle" x="699.5" y="-49.5" font-family="Helvetica,sans-Serif" font-size="10.00"> m_framer</text>
</g>
<!-- Node10 -->
<g id="node10" class="node"><title>Node10</title>
<g id="a_node10"><a xlink:href="class_cpl_1_1_text_1_1_frame_1_1_encoder__.html" target="_top" xlink:title="This Private Namespace partially concrete class implements common/helper method for supporting the En...">
<polygon fill="white" stroke="black" points="310,-3 310,-22 447,-22 447,-3 310,-3"/>
<text text-anchor="middle" x="378.5" y="-10" font-family="Helvetica,sans-Serif" font-size="10.00">Cpl::Text::Frame::Encoder_</text>
</a>
</g>
</g>
<!-- Node10&#45;&gt;Node9 -->
<g id="edge9" class="edge"><title>Node10&#45;&gt;Node9</title>
<path fill="none" stroke="midnightblue" d="M457.437,-13.616C479.962,-13.9386 504.26,-14.2865 525.771,-14.5946"/>
<polygon fill="midnightblue" stroke="midnightblue" points="457.278,-10.1135 447.229,-13.4699 457.178,-17.1128 457.278,-10.1135"/>
</g>
<!-- Node11 -->
<g id="node11" class="node"><title>Node11</title>
<g id="a_node11"><a xlink:href="class_cpl_1_1_text_1_1_frame_1_1_encoder.html" target="_top" xlink:title="This class defines an interface for &#39;transmitted&#39; (encoding) a frame.">
<polygon fill="white" stroke="black" points="141,-3 141,-22 273,-22 273,-3 141,-3"/>
<text text-anchor="middle" x="207" y="-10" font-family="Helvetica,sans-Serif" font-size="10.00">Cpl::Text::Frame::Encoder</text>
</a>
</g>
</g>
<!-- Node11&#45;&gt;Node10 -->
<g id="edge10" class="edge"><title>Node11&#45;&gt;Node10</title>
<path fill="none" stroke="midnightblue" d="M283.32,-12.5C292.144,-12.5 301.106,-12.5 309.816,-12.5"/>
<polygon fill="midnightblue" stroke="midnightblue" points="283.048,-9.0001 273.048,-12.5 283.048,-16.0001 283.048,-9.0001"/>
</g>
<!-- Node12&#45;&gt;Node9 -->
<g id="edge11" class="edge"><title>Node12&#45;&gt;Node9</title>
<path fill="none" stroke="#9a32cd" stroke-dasharray="5,2" d="M420.911,-59.0342C434.882,-54.9239 450.587,-50.4073 465,-46.5 485.025,-41.0715 506.964,-35.473 526.747,-30.5529"/>
<polygon fill="#9a32cd" stroke="#9a32cd" points="419.683,-55.7473 411.087,-61.9408 421.669,-62.4597 419.683,-55.7473"/>
<text text-anchor="middle" x="486.5" y="-49.5" font-family="Helvetica,sans-Serif" font-size="10.00"> m_dstPtr</text>
</g>
<!-- Node12&#45;&gt;Node13 -->
<g id="edge18" class="edge"><title>Node12&#45;&gt;Node13</title>
<path fill="none" stroke="#9a32cd" stroke-dasharray="5,2" d="M428.952,-70.4681C484.071,-69.9336 575.75,-70.8819 654,-80.5 689.652,-84.8821 729.671,-93.9246 757.672,-100.942"/>
<polygon fill="#9a32cd" stroke="#9a32cd" points="428.722,-66.9705 418.763,-70.588 428.804,-73.97 428.722,-66.9705"/>
<text text-anchor="middle" x="590" y="-83.5" font-family="Helvetica,sans-Serif" font-size="10.00"> m_outfdPtr</text>
</g>
<!-- Node13&#45;&gt;Node1 -->
<g id="edge14" class="edge"><title>Node13&#45;&gt;Node1</title>
<path fill="none" stroke="#9a32cd" stroke-dasharray="5,2" d="M854.351,-110.5C881.519,-110.5 913.519,-110.5 939.875,-110.5"/>
<polygon fill="#9a32cd" stroke="#9a32cd" points="854.197,-107 844.197,-110.5 854.197,-114 854.197,-107"/>
<text text-anchor="middle" x="892" y="-113.5" font-family="Helvetica,sans-Serif" font-size="10.00"> m_processor</text>
</g>
<!-- Node14 -->
<g id="node14" class="node"><title>Node14</title>
<g id="a_node14"><a xlink:href="class_driver_1_1_t_pipe_1_1_tx.html" target="_top" xlink:title="This abstract class defines the &#39;Transmit Command&#39; interface for the TPipe.">
<polygon fill="white" stroke="black" points="544.5,-101 544.5,-120 635.5,-120 635.5,-101 544.5,-101"/>
<text text-anchor="middle" x="590" y="-108" font-family="Helvetica,sans-Serif" font-size="10.00">Driver::TPipe::Tx</text>
</a>
</g>
</g>
<!-- Node14&#45;&gt;Node13 -->
<g id="edge15" class="edge"><title>Node14&#45;&gt;Node13</title>
<path fill="none" stroke="midnightblue" d="M645.847,-110.5C676.691,-110.5 714.867,-110.5 744.673,-110.5"/>
<polygon fill="midnightblue" stroke="midnightblue" points="645.69,-107 635.69,-110.5 645.69,-114 645.69,-107"/>
</g>
<!-- Node15 -->
<g id="node15" class="node"><title>Node15</title>
<g id="a_node15"><a xlink:href="class_cpl_1_1_system_1_1_mutex.html" target="_top" xlink:title="This mutex class defines the interface for a mutex that has &quot;recursive&quot; semantics.">
<polygon fill="white" stroke="black" points="538,-139 538,-158 642,-158 642,-139 538,-139"/>
<text text-anchor="middle" x="590" y="-146" font-family="Helvetica,sans-Serif" font-size="10.00">Cpl::System::Mutex</text>
</a>
</g>
</g>
<!-- Node15&#45;&gt;Node13 -->
<g id="edge19" class="edge"><title>Node15&#45;&gt;Node13</title>
<path fill="none" stroke="#9a32cd" stroke-dasharray="5,2" d="M651.692,-137.111C681.437,-131.529 716.778,-124.897 744.737,-119.651"/>
<polygon fill="#9a32cd" stroke="#9a32cd" points="651.021,-133.676 641.838,-138.96 652.312,-140.556 651.021,-133.676"/>
<text text-anchor="middle" x="699.5" y="-136.5" font-family="Helvetica,sans-Serif" font-size="10.00"> m_lock</text>
</g>
</g>
</svg>
