<?xml version="1.0" encoding="UTF-8" standalone="no"?>
<!DOCTYPE svg PUBLIC "-//W3C//DTD SVG 1.1//EN"
 "http://www.w3.org/Graphics/SVG/1.1/DTD/svg11.dtd">
<!-- Generated by graphviz version 2.38.0 (20140413.2041)
 -->
<!-- Title: Cpl::Io::InputOutput Pages: 1 -->
<svg width="845pt" height="209pt"
 viewBox="0.00 0.00 845.00 209.00" xmlns="http://www.w3.org/2000/svg" xmlns:xlink="http://www.w3.org/1999/xlink">
<g id="graph0" class="graph" transform="scale(1 1) rotate(0) translate(4 205)">
<title>Cpl::Io::InputOutput</title>
<polygon fill="white" stroke="none" points="-4,4 -4,-205 841,-205 841,4 -4,4"/>
<!-- Node1 -->
<g id="node1" class="node"><title>Node1</title>
<g id="a_node1"><a xlink:title="This abstract class defines a interface for operating on an input&#45;output stream (example of a stream ...">
<polygon fill="#bfbfbf" stroke="black" points="369,-93.5 369,-112.5 471,-112.5 471,-93.5 369,-93.5"/>
<text text-anchor="middle" x="420" y="-100.5" font-family="Helvetica,sans-Serif" font-size="10.00">Cpl::Io::InputOutput</text>
</a>
</g>
</g>
<!-- Node7 -->
<g id="node7" class="node"><title>Node7</title>
<g id="a_node7"><a xlink:href="class_cpl_1_1_io_1_1_null.html" target="_top" xlink:title="This concrete class implements a NULL InputOutput stream &#45; that all of its input operations return &#39;E...">
<polygon fill="white" stroke="black" points="542.5,-181.5 542.5,-200.5 610.5,-200.5 610.5,-181.5 542.5,-181.5"/>
<text text-anchor="middle" x="576.5" y="-188.5" font-family="Helvetica,sans-Serif" font-size="10.00">Cpl::Io::Null</text>
</a>
</g>
</g>
<!-- Node1&#45;&gt;Node7 -->
<g id="edge8" class="edge"><title>Node1&#45;&gt;Node7</title>
<path fill="none" stroke="midnightblue" d="M437.822,-120.007C454.165,-135.624 480.353,-158.351 507,-172 517.984,-177.626 530.839,-181.756 542.428,-184.7"/>
<polygon fill="midnightblue" stroke="midnightblue" points="440.23,-117.466 430.631,-112.982 435.338,-122.473 440.23,-117.466"/>
</g>
<!-- Node8 -->
<g id="node8" class="node"><title>Node8</title>
<g id="a_node8"><a xlink:href="class_cpl_1_1_io_1_1_serial_1_1_r_p2040_1_1_uart_1_1_input_output.html" target="_top" xlink:title="This concrete class implements a Input stream using Raspberry Pi UART interface/hardware.">
<polygon fill="white" stroke="black" points="518.5,-132 518.5,-162 634.5,-162 634.5,-132 518.5,-132"/>
<text text-anchor="start" x="526.5" y="-150" font-family="Helvetica,sans-Serif" font-size="10.00">Cpl::Io::Serial::RP2040</text>
<text text-anchor="middle" x="576.5" y="-139" font-family="Helvetica,sans-Serif" font-size="10.00">::Uart::InputOutput</text>
</a>
</g>
</g>
<!-- Node1&#45;&gt;Node8 -->
<g id="edge9" class="edge"><title>Node1&#45;&gt;Node8</title>
<path fill="none" stroke="midnightblue" d="M464.231,-115.312C482.341,-120.469 503.569,-126.515 522.6,-131.935"/>
<polygon fill="midnightblue" stroke="midnightblue" points="465.1,-111.92 454.524,-112.547 463.183,-118.653 465.1,-111.92"/>
</g>
<!-- Node9 -->
<g id="node9" class="node"><title>Node9</title>
<g id="a_node9"><a xlink:href="class_cpl_1_1_io_1_1_socket_1_1_input_output.html" target="_top" xlink:title="This concrete class provides a platform independent &#39;standard&#39; implementation of an InputOutput strea...">
<polygon fill="white" stroke="black" points="507,-93.5 507,-112.5 646,-112.5 646,-93.5 507,-93.5"/>
<text text-anchor="middle" x="576.5" y="-100.5" font-family="Helvetica,sans-Serif" font-size="10.00">Cpl::Io::Socket::InputOutput</text>
</a>
</g>
</g>
<!-- Node1&#45;&gt;Node9 -->
<g id="edge10" class="edge"><title>Node1&#45;&gt;Node9</title>
<path fill="none" stroke="midnightblue" d="M481.215,-103C489.594,-103 498.255,-103 506.775,-103"/>
<polygon fill="midnightblue" stroke="midnightblue" points="481.162,-99.5001 471.162,-103 481.162,-106.5 481.162,-99.5001"/>
</g>
<!-- Node10 -->
<g id="node10" class="node"><title>Node10</title>
<g id="a_node10"><a xlink:href="class_cpl_1_1_io_1_1_stdio_1_1_input_output__.html" target="_top" xlink:title="This concrete class implements a Input&#45;Output stream.">
<polygon fill="white" stroke="black" points="508.5,-55.5 508.5,-74.5 644.5,-74.5 644.5,-55.5 508.5,-55.5"/>
<text text-anchor="middle" x="576.5" y="-62.5" font-family="Helvetica,sans-Serif" font-size="10.00">Cpl::Io::Stdio::InputOutput_</text>
</a>
</g>
</g>
<!-- Node1&#45;&gt;Node10 -->
<g id="edge11" class="edge"><title>Node1&#45;&gt;Node10</title>
<path fill="none" stroke="midnightblue" d="M469.952,-90.96C491.536,-85.6512 516.541,-79.5012 536.793,-74.5201"/>
<polygon fill="midnightblue" stroke="midnightblue" points="468.862,-87.6238 459.987,-93.411 470.533,-94.4213 468.862,-87.6238"/>
</g>
<!-- Node11 -->
<g id="node11" class="node"><title>Node11</title>
<g id="a_node11"><a xlink:href="class_driver_1_1_uart_1_1_stream_1_1_input_output__.html" target="_top" xlink:title="This private concrete class implements the InputOutput stream interface using the UART stream driver.">
<polygon fill="white" stroke="black" points="524.5,-6 524.5,-36 628.5,-36 628.5,-6 524.5,-6"/>
<text text-anchor="start" x="532.5" y="-24" font-family="Helvetica,sans-Serif" font-size="10.00">Driver::Uart::Stream</text>
<text text-anchor="middle" x="576.5" y="-13" font-family="Helvetica,sans-Serif" font-size="10.00">::InputOutput_</text>
</a>
</g>
</g>
<!-- Node1&#45;&gt;Node11 -->
<g id="edge12" class="edge"><title>Node1&#45;&gt;Node11</title>
<path fill="none" stroke="midnightblue" d="M441.602,-87.3351C458.52,-74.9761 483.445,-57.8951 507,-46 514.119,-42.4048 521.883,-39.0651 529.543,-36.0729"/>
<polygon fill="midnightblue" stroke="midnightblue" points="439.485,-84.5483 433.535,-93.3151 443.653,-90.1717 439.485,-84.5483"/>
</g>
<!-- Node2 -->
<g id="node2" class="node"><title>Node2</title>
<g id="a_node2"><a xlink:href="class_cpl_1_1_io_1_1_input.html" target="_top" xlink:title="This partially abstract class defines a interface for operating on an input stream (example of a stre...">
<polygon fill="white" stroke="black" points="256.5,-112.5 256.5,-131.5 329.5,-131.5 329.5,-112.5 256.5,-112.5"/>
<text text-anchor="middle" x="293" y="-119.5" font-family="Helvetica,sans-Serif" font-size="10.00">Cpl::Io::Input</text>
</a>
</g>
</g>
<!-- Node2&#45;&gt;Node1 -->
<g id="edge1" class="edge"><title>Node2&#45;&gt;Node1</title>
<path fill="none" stroke="midnightblue" d="M339.782,-115.041C349.202,-113.609 359.169,-112.094 368.737,-110.64"/>
<polygon fill="midnightblue" stroke="midnightblue" points="339.18,-111.592 329.82,-116.555 340.232,-118.513 339.18,-111.592"/>
</g>
<!-- Node3 -->
<g id="node3" class="node"><title>Node3</title>
<g id="a_node3"><a xlink:href="class_cpl_1_1_io_1_1_close.html" target="_top" xlink:title="This abstract class defines a close operation that is intended to be used Input and Output streams/fi...">
<polygon fill="white" stroke="black" points="140.5,-112.5 140.5,-131.5 216.5,-131.5 216.5,-112.5 140.5,-112.5"/>
<text text-anchor="middle" x="178.5" y="-119.5" font-family="Helvetica,sans-Serif" font-size="10.00">Cpl::Io::Close</text>
</a>
</g>
</g>
<!-- Node3&#45;&gt;Node2 -->
<g id="edge2" class="edge"><title>Node3&#45;&gt;Node2</title>
<path fill="none" stroke="midnightblue" d="M226.794,-122C236.713,-122 247.014,-122 256.419,-122"/>
<polygon fill="midnightblue" stroke="midnightblue" points="226.649,-118.5 216.648,-122 226.648,-125.5 226.649,-118.5"/>
</g>
<!-- Node6 -->
<g id="node6" class="node"><title>Node6</title>
<g id="a_node6"><a xlink:href="class_cpl_1_1_io_1_1_output.html" target="_top" xlink:title="This partially abstract class defines a interface for operating on an output stream (example of a str...">
<polygon fill="white" stroke="black" points="253,-74.5 253,-93.5 333,-93.5 333,-74.5 253,-74.5"/>
<text text-anchor="middle" x="293" y="-81.5" font-family="Helvetica,sans-Serif" font-size="10.00">Cpl::Io::Output</text>
</a>
</g>
</g>
<!-- Node3&#45;&gt;Node6 -->
<g id="edge6" class="edge"><title>Node3&#45;&gt;Node6</title>
<path fill="none" stroke="midnightblue" d="M217.471,-109.174C232.567,-104.075 249.632,-98.3109 263.621,-93.5859"/>
<polygon fill="midnightblue" stroke="midnightblue" points="216.243,-105.895 207.889,-112.411 218.483,-112.527 216.243,-105.895"/>
</g>
<!-- Node4 -->
<g id="node4" class="node"><title>Node4</title>
<g id="a_node4"><a xlink:href="class_cpl_1_1_container_1_1_item.html" target="_top" xlink:title="This class is used by the Container classes to implement a various types of singly linked containers.">
<polygon fill="white" stroke="black" points="0,-112.5 0,-131.5 104,-131.5 104,-112.5 0,-112.5"/>
<text text-anchor="middle" x="52" y="-119.5" font-family="Helvetica,sans-Serif" font-size="10.00">Cpl::Container::Item</text>
</a>
</g>
</g>
<!-- Node4&#45;&gt;Node3 -->
<g id="edge3" class="edge"><title>Node4&#45;&gt;Node3</title>
<path fill="none" stroke="midnightblue" d="M114.622,-122C123.408,-122 132.211,-122 140.33,-122"/>
<polygon fill="midnightblue" stroke="midnightblue" points="114.358,-118.5 104.358,-122 114.358,-125.5 114.358,-118.5"/>
</g>
<!-- Node5 -->
<g id="node5" class="node"><title>Node5</title>
<g id="a_node5"><a xlink:href="class_cpl_1_1_io_1_1_is_eos.html" target="_top" xlink:title="This abstract class defines a isEos() operation that is intended to be used Input and Output streams.">
<polygon fill="white" stroke="black" points="140,-74.5 140,-93.5 217,-93.5 217,-74.5 140,-74.5"/>
<text text-anchor="middle" x="178.5" y="-81.5" font-family="Helvetica,sans-Serif" font-size="10.00">Cpl::Io::IsEos</text>
</a>
</g>
</g>
<!-- Node5&#45;&gt;Node2 -->
<g id="edge4" class="edge"><title>Node5&#45;&gt;Node2</title>
<path fill="none" stroke="midnightblue" d="M217.471,-96.8259C232.567,-101.925 249.632,-107.689 263.621,-112.414"/>
<polygon fill="midnightblue" stroke="midnightblue" points="218.483,-93.4733 207.889,-93.589 216.243,-100.105 218.483,-93.4733"/>
</g>
<!-- Node5&#45;&gt;Node6 -->
<g id="edge7" class="edge"><title>Node5&#45;&gt;Node6</title>
<path fill="none" stroke="midnightblue" d="M227.474,-84C235.985,-84 244.755,-84 252.981,-84"/>
<polygon fill="midnightblue" stroke="midnightblue" points="227.274,-80.5001 217.274,-84 227.274,-87.5001 227.274,-80.5001"/>
</g>
<!-- Node6&#45;&gt;Node1 -->
<g id="edge5" class="edge"><title>Node6&#45;&gt;Node1</title>
<path fill="none" stroke="midnightblue" d="M343.272,-91.4893C351.695,-92.7697 360.454,-94.1011 368.899,-95.3847"/>
<polygon fill="midnightblue" stroke="midnightblue" points="343.62,-88.0022 333.208,-89.9596 342.568,-94.9227 343.62,-88.0022"/>
</g>
<!-- Node12 -->
<g id="node12" class="node"><title>Node12</title>
<g id="a_node12"><a xlink:href="class_cpl_1_1_io_1_1_serial_1_1_renesas_1_1_rx62n_1_1_input_output.html" target="_top" xlink:title="This template provides a concrete implementation of the Cpl::Io InputOutput stream interface using on...">
<polygon fill="white" stroke="black" points="682,-0.5 682,-41.5 837,-41.5 837,-0.5 682,-0.5"/>
<text text-anchor="start" x="690" y="-29.5" font-family="Helvetica,sans-Serif" font-size="10.00">Cpl::Io::Serial::Renesas</text>
<text text-anchor="start" x="690" y="-18.5" font-family="Helvetica,sans-Serif" font-size="10.00">::Rx62n::InputOutput&lt; TXSIZE,</text>
<text text-anchor="middle" x="759.5" y="-7.5" font-family="Helvetica,sans-Serif" font-size="10.00"> RXSIZE &gt;</text>
</a>
</g>
</g>
<!-- Node11&#45;&gt;Node12 -->
<g id="edge13" class="edge"><title>Node11&#45;&gt;Node12</title>
<path fill="none" stroke="midnightblue" d="M639.188,-21C652.948,-21 667.701,-21 681.977,-21"/>
<polygon fill="midnightblue" stroke="midnightblue" points="638.883,-17.5001 628.883,-21 638.883,-24.5001 638.883,-17.5001"/>
</g>
</g>
</svg>
