<?xml version="1.0" encoding="UTF-8" standalone="no"?>
<!DOCTYPE svg PUBLIC "-//W3C//DTD SVG 1.1//EN"
 "http://www.w3.org/Graphics/SVG/1.1/DTD/svg11.dtd">
<!-- Generated by graphviz version 2.38.0 (20140413.2041)
 -->
<!-- Title: Cpl::Text::Frame::StreamDecoder Pages: 1 -->
<svg width="667pt" height="127pt"
 viewBox="0.00 0.00 667.00 126.50" xmlns="http://www.w3.org/2000/svg" xmlns:xlink="http://www.w3.org/1999/xlink">
<g id="graph0" class="graph" transform="scale(1 1) rotate(0) translate(4 122.5)">
<title>Cpl::Text::Frame::StreamDecoder</title>
<polygon fill="white" stroke="none" points="-4,4 -4,-122.5 663,-122.5 663,4 -4,4"/>
<!-- Node1 -->
<g id="node1" class="node"><title>Node1</title>
<g id="a_node1"><a xlink:title="This partially concrete class defines an interface a Text &quot;Decoder&quot; that has a Cpl::Io::Input stream ...">
<polygon fill="#bfbfbf" stroke="black" points="341,-39 341,-69 469,-69 469,-39 341,-39"/>
<text text-anchor="start" x="349" y="-57" font-family="Helvetica,sans-Serif" font-size="10.00">Cpl::Text::Frame::Stream</text>
<text text-anchor="middle" x="405" y="-46" font-family="Helvetica,sans-Serif" font-size="10.00">Decoder</text>
</a>
</g>
</g>
<!-- Node4 -->
<g id="node4" class="node"><title>Node4</title>
<g id="a_node4"><a xlink:href="class_cpl_1_1_text_1_1_frame_1_1_ascii_decoder.html" target="_top" xlink:title="This concrete template class provide a basic implementation of the Frame::Decoder interface that uses...">
<polygon fill="white" stroke="black" points="505,-88 505,-118 659,-118 659,-88 505,-88"/>
<text text-anchor="start" x="513" y="-106" font-family="Helvetica,sans-Serif" font-size="10.00">Cpl::Text::Frame::AsciiDecoder</text>
<text text-anchor="middle" x="582" y="-95" font-family="Helvetica,sans-Serif" font-size="10.00">&lt; BUFSIZE &gt;</text>
</a>
</g>
</g>
<!-- Node1&#45;&gt;Node4 -->
<g id="edge3" class="edge"><title>Node1&#45;&gt;Node4</title>
<path fill="none" stroke="midnightblue" d="M469.647,-71.8212C488.542,-77.1118 509.043,-82.8522 527.244,-87.9484"/>
<polygon fill="midnightblue" stroke="midnightblue" points="470.507,-68.4274 459.934,-69.1014 468.62,-75.1682 470.507,-68.4274"/>
</g>
<!-- Node5 -->
<g id="node5" class="node"><title>Node5</title>
<g id="a_node5"><a xlink:href="class_cpl_1_1_text_1_1_frame_1_1_line_decoder.html" target="_top" xlink:title="This concrete template class provide a basic implementation of the Frame::Decoder interface that uses...">
<polygon fill="white" stroke="black" points="507,-39 507,-69 657,-69 657,-39 507,-39"/>
<text text-anchor="start" x="515" y="-57" font-family="Helvetica,sans-Serif" font-size="10.00">Cpl::Text::Frame::LineDecoder</text>
<text text-anchor="middle" x="582" y="-46" font-family="Helvetica,sans-Serif" font-size="10.00">&lt; BUFSIZE &gt;</text>
</a>
</g>
</g>
<!-- Node1&#45;&gt;Node5 -->
<g id="edge4" class="edge"><title>Node1&#45;&gt;Node5</title>
<path fill="none" stroke="midnightblue" d="M479.351,-54C488.459,-54 497.776,-54 506.895,-54"/>
<polygon fill="midnightblue" stroke="midnightblue" points="479.179,-50.5001 469.179,-54 479.179,-57.5001 479.179,-50.5001"/>
</g>
<!-- Node6 -->
<g id="node6" class="node"><title>Node6</title>
<g id="a_node6"><a xlink:href="class_driver_1_1_t_pipe_1_1_maker.html" target="_top" xlink:title="This concrete class is a &quot;Maker&quot; that assembles the objects needed for TPipe.">
<polygon fill="white" stroke="black" points="528.5,-0.5 528.5,-19.5 635.5,-19.5 635.5,-0.5 528.5,-0.5"/>
<text text-anchor="middle" x="582" y="-7.5" font-family="Helvetica,sans-Serif" font-size="10.00">Driver::TPipe::Maker</text>
</a>
</g>
</g>
<!-- Node1&#45;&gt;Node6 -->
<g id="edge5" class="edge"><title>Node1&#45;&gt;Node6</title>
<path fill="none" stroke="midnightblue" d="M475.298,-36.4782C485.264,-33.9648 495.394,-31.4137 505,-29 517.267,-25.9177 530.651,-22.5674 542.722,-19.5506"/>
<polygon fill="midnightblue" stroke="midnightblue" points="474.252,-33.1324 465.412,-38.9726 475.964,-39.9197 474.252,-33.1324"/>
</g>
<!-- Node2 -->
<g id="node2" class="node"><title>Node2</title>
<g id="a_node2"><a xlink:href="class_cpl_1_1_text_1_1_frame_1_1_decoder__.html" target="_top" xlink:title="This private partially concrete class implements the basic/common logic for a frame decoder.">
<polygon fill="white" stroke="black" points="168,-44.5 168,-63.5 305,-63.5 305,-44.5 168,-44.5"/>
<text text-anchor="middle" x="236.5" y="-51.5" font-family="Helvetica,sans-Serif" font-size="10.00">Cpl::Text::Frame::Decoder_</text>
</a>
</g>
</g>
<!-- Node2&#45;&gt;Node1 -->
<g id="edge1" class="edge"><title>Node2&#45;&gt;Node1</title>
<path fill="none" stroke="midnightblue" d="M315.254,-54C323.848,-54 332.522,-54 340.905,-54"/>
<polygon fill="midnightblue" stroke="midnightblue" points="315.222,-50.5001 305.222,-54 315.222,-57.5001 315.222,-50.5001"/>
</g>
<!-- Node3 -->
<g id="node3" class="node"><title>Node3</title>
<g id="a_node3"><a xlink:href="class_cpl_1_1_text_1_1_frame_1_1_decoder.html" target="_top" xlink:title="This class defines an interface for &#39;receiving&#39; (decode) a frame.">
<polygon fill="white" stroke="black" points="0,-44.5 0,-63.5 132,-63.5 132,-44.5 0,-44.5"/>
<text text-anchor="middle" x="66" y="-51.5" font-family="Helvetica,sans-Serif" font-size="10.00">Cpl::Text::Frame::Decoder</text>
</a>
</g>
</g>
<!-- Node3&#45;&gt;Node2 -->
<g id="edge2" class="edge"><title>Node3&#45;&gt;Node2</title>
<path fill="none" stroke="midnightblue" d="M142.372,-54C150.822,-54 159.394,-54 167.74,-54"/>
<polygon fill="midnightblue" stroke="midnightblue" points="142.147,-50.5001 132.146,-54 142.146,-57.5001 142.147,-50.5001"/>
</g>
</g>
</svg>
