<?xml version="1.0" encoding="UTF-8" standalone="no"?>
<!DOCTYPE svg PUBLIC "-//W3C//DTD SVG 1.1//EN"
 "http://www.w3.org/Graphics/SVG/1.1/DTD/svg11.dtd">
<!-- Generated by graphviz version 2.38.0 (20140413.2041)
 -->
<!-- Title: Cpl/Text/format.h Pages: 1 -->
<svg width="1819pt" height="475pt"
 viewBox="0.00 0.00 1818.50 475.00" xmlns="http://www.w3.org/2000/svg" xmlns:xlink="http://www.w3.org/1999/xlink">
<g id="graph0" class="graph" transform="scale(1 1) rotate(0) translate(4 471)">
<title>Cpl/Text/format.h</title>
<polygon fill="white" stroke="none" points="-4,4 -4,-471 1814.5,-471 1814.5,4 -4,4"/>
<!-- Node1 -->
<g id="node1" class="node"><title>Node1</title>
<g id="a_node1"><a xlink:title="This file contains some general purpose string formatting functions.">
<polygon fill="#bfbfbf" stroke="black" points="1162,-447.5 1162,-466.5 1254,-466.5 1254,-447.5 1162,-447.5"/>
<text text-anchor="middle" x="1208" y="-454.5" font-family="Helvetica,sans-Serif" font-size="10.00">Cpl/Text/format.h</text>
</a>
</g>
</g>
<!-- Node2 -->
<g id="node2" class="node"><title>Node2</title>
<g id="a_node2"><a xlink:href="_bit_array16_8h.html" target="_top" xlink:title=" ">
<polygon fill="white" stroke="black" points="787,-324.5 787,-343.5 909,-343.5 909,-324.5 787,-324.5"/>
<text text-anchor="middle" x="848" y="-331.5" font-family="Helvetica,sans-Serif" font-size="10.00">Cpl/Dm/Mp/BitArray16.h</text>
</a>
</g>
</g>
<!-- Node1&#45;&gt;Node2 -->
<g id="edge1" class="edge"><title>Node1&#45;&gt;Node2</title>
<path fill="none" stroke="midnightblue" d="M1173.15,-444.286C1101.11,-420.072 937.227,-364.99 873.768,-343.661"/>
<polygon fill="midnightblue" stroke="midnightblue" points="1172.09,-447.623 1182.69,-447.492 1174.32,-440.988 1172.09,-447.623"/>
</g>
<!-- Node3 -->
<g id="node3" class="node"><title>Node3</title>
<g id="a_node3"><a xlink:href="_numeric_8h.html" target="_top" xlink:title=" ">
<polygon fill="white" stroke="black" points="1151.5,-386 1151.5,-405 1264.5,-405 1264.5,-386 1151.5,-386"/>
<text text-anchor="middle" x="1208" y="-393" font-family="Helvetica,sans-Serif" font-size="10.00">Cpl/Dm/Mp/Numeric.h</text>
</a>
</g>
</g>
<!-- Node1&#45;&gt;Node3 -->
<g id="edge2" class="edge"><title>Node1&#45;&gt;Node3</title>
<path fill="none" stroke="midnightblue" d="M1208,-437.317C1208,-426.496 1208,-413.398 1208,-405.009"/>
<polygon fill="midnightblue" stroke="midnightblue" points="1204.5,-437.475 1208,-447.475 1211.5,-437.475 1204.5,-437.475"/>
</g>
<!-- Node35 -->
<g id="node35" class="node"><title>Node35</title>
<g id="a_node35"><a xlink:href="_t_pipe_2_red_green_blue_8h.html" target="_top" xlink:title=" ">
<polygon fill="white" stroke="black" points="1282.5,-380.5 1282.5,-410.5 1421.5,-410.5 1421.5,-380.5 1282.5,-380.5"/>
<text text-anchor="start" x="1290.5" y="-398.5" font-family="Helvetica,sans-Serif" font-size="10.00">Driver/LED/TPipe/RedGreen</text>
<text text-anchor="middle" x="1352" y="-387.5" font-family="Helvetica,sans-Serif" font-size="10.00">Blue.h</text>
</a>
</g>
</g>
<!-- Node1&#45;&gt;Node35 -->
<g id="edge53" class="edge"><title>Node1&#45;&gt;Node35</title>
<path fill="none" stroke="midnightblue" d="M1238.03,-443.59C1261.38,-433.942 1293.78,-420.558 1318.06,-410.523"/>
<polygon fill="midnightblue" stroke="midnightblue" points="1236.54,-440.422 1228.63,-447.475 1239.21,-446.891 1236.54,-440.422"/>
</g>
<!-- Node3&#45;&gt;Node2 -->
<g id="edge3" class="edge"><title>Node3&#45;&gt;Node2</title>
<path fill="none" stroke="midnightblue" d="M1146.47,-384.33C1076.84,-372.822 964.666,-354.282 899.484,-343.509"/>
<polygon fill="midnightblue" stroke="midnightblue" points="1145.98,-387.798 1156.42,-385.975 1147.13,-380.891 1145.98,-387.798"/>
</g>
<!-- Node4 -->
<g id="node4" class="node"><title>Node4</title>
<g id="a_node4"><a xlink:href="_double_8h.html" target="_top" xlink:title=" ">
<polygon fill="white" stroke="black" points="1633.5,-324.5 1633.5,-343.5 1740.5,-343.5 1740.5,-324.5 1633.5,-324.5"/>
<text text-anchor="middle" x="1687" y="-331.5" font-family="Helvetica,sans-Serif" font-size="10.00">Cpl/Dm/Mp/Double.h</text>
</a>
</g>
</g>
<!-- Node3&#45;&gt;Node4 -->
<g id="edge4" class="edge"><title>Node3&#45;&gt;Node4</title>
<path fill="none" stroke="midnightblue" d="M1253.39,-383.818C1260.27,-382.405 1267.31,-381.076 1274,-380 1428.39,-355.182 1468.79,-363.061 1624,-344 1627.07,-343.623 1630.22,-343.221 1633.4,-342.803"/>
<polygon fill="midnightblue" stroke="midnightblue" points="1252.53,-380.422 1243.48,-385.928 1253.99,-387.269 1252.53,-380.422"/>
</g>
<!-- Node5 -->
<g id="node5" class="node"><title>Node5</title>
<g id="a_node5"><a xlink:href="_float_8h.html" target="_top" xlink:title=" ">
<polygon fill="white" stroke="black" points="927,-324.5 927,-343.5 1025,-343.5 1025,-324.5 927,-324.5"/>
<text text-anchor="middle" x="976" y="-331.5" font-family="Helvetica,sans-Serif" font-size="10.00">Cpl/Dm/Mp/Float.h</text>
</a>
</g>
</g>
<!-- Node3&#45;&gt;Node5 -->
<g id="edge5" class="edge"><title>Node3&#45;&gt;Node5</title>
<path fill="none" stroke="midnightblue" d="M1164.99,-383.468C1119.94,-371.915 1050.15,-354.017 1009.18,-343.509"/>
<polygon fill="midnightblue" stroke="midnightblue" points="1164.2,-386.881 1174.76,-385.975 1165.94,-380.1 1164.2,-386.881"/>
</g>
<!-- Node26 -->
<g id="node26" class="node"><title>Node26</title>
<g id="a_node26"><a xlink:href="_int32_8h.html" target="_top" xlink:title=" ">
<polygon fill="white" stroke="black" points="1043,-324.5 1043,-343.5 1141,-343.5 1141,-324.5 1043,-324.5"/>
<text text-anchor="middle" x="1092" y="-331.5" font-family="Helvetica,sans-Serif" font-size="10.00">Cpl/Dm/Mp/Int32.h</text>
</a>
</g>
</g>
<!-- Node3&#45;&gt;Node26 -->
<g id="edge41" class="edge"><title>Node3&#45;&gt;Node26</title>
<path fill="none" stroke="midnightblue" d="M1182.4,-381.367C1159.91,-369.835 1127.87,-353.399 1108.59,-343.509"/>
<polygon fill="midnightblue" stroke="midnightblue" points="1180.88,-384.525 1191.38,-385.975 1184.08,-378.297 1180.88,-384.525"/>
</g>
<!-- Node27 -->
<g id="node27" class="node"><title>Node27</title>
<g id="a_node27"><a xlink:href="_int64_8h.html" target="_top" xlink:title=" ">
<polygon fill="white" stroke="black" points="1159,-324.5 1159,-343.5 1257,-343.5 1257,-324.5 1159,-324.5"/>
<text text-anchor="middle" x="1208" y="-331.5" font-family="Helvetica,sans-Serif" font-size="10.00">Cpl/Dm/Mp/Int64.h</text>
</a>
</g>
</g>
<!-- Node3&#45;&gt;Node27 -->
<g id="edge42" class="edge"><title>Node3&#45;&gt;Node27</title>
<path fill="none" stroke="midnightblue" d="M1208,-375.817C1208,-364.996 1208,-351.898 1208,-343.509"/>
<polygon fill="midnightblue" stroke="midnightblue" points="1204.5,-375.975 1208,-385.975 1211.5,-375.975 1204.5,-375.975"/>
</g>
<!-- Node28 -->
<g id="node28" class="node"><title>Node28</title>
<g id="a_node28"><a xlink:href="_uint32_8h.html" target="_top" xlink:title=" ">
<polygon fill="white" stroke="black" points="1275,-324.5 1275,-343.5 1379,-343.5 1379,-324.5 1275,-324.5"/>
<text text-anchor="middle" x="1327" y="-331.5" font-family="Helvetica,sans-Serif" font-size="10.00">Cpl/Dm/Mp/Uint32.h</text>
</a>
</g>
</g>
<!-- Node3&#45;&gt;Node28 -->
<g id="edge43" class="edge"><title>Node3&#45;&gt;Node28</title>
<path fill="none" stroke="midnightblue" d="M1234.27,-381.367C1257.33,-369.835 1290.2,-353.399 1309.98,-343.509"/>
<polygon fill="midnightblue" stroke="midnightblue" points="1232.43,-378.372 1225.05,-385.975 1235.56,-384.633 1232.43,-378.372"/>
</g>
<!-- Node32 -->
<g id="node32" class="node"><title>Node32</title>
<g id="a_node32"><a xlink:href="_uint64_8h.html" target="_top" xlink:title=" ">
<polygon fill="white" stroke="black" points="1397,-324.5 1397,-343.5 1501,-343.5 1501,-324.5 1397,-324.5"/>
<text text-anchor="middle" x="1449" y="-331.5" font-family="Helvetica,sans-Serif" font-size="10.00">Cpl/Dm/Mp/Uint64.h</text>
</a>
</g>
</g>
<!-- Node3&#45;&gt;Node32 -->
<g id="edge49" class="edge"><title>Node3&#45;&gt;Node32</title>
<path fill="none" stroke="midnightblue" d="M1252.39,-383.541C1299.18,-371.99 1371.88,-354.039 1414.53,-343.509"/>
<polygon fill="midnightblue" stroke="midnightblue" points="1251.4,-380.18 1242.53,-385.975 1253.08,-386.976 1251.4,-380.18"/>
</g>
<!-- Node34 -->
<g id="node34" class="node"><title>Node34</title>
<g id="a_node34"><a xlink:href="_void_8h.html" target="_top" xlink:title=" ">
<polygon fill="white" stroke="black" points="1519,-324.5 1519,-343.5 1615,-343.5 1615,-324.5 1519,-324.5"/>
<text text-anchor="middle" x="1567" y="-331.5" font-family="Helvetica,sans-Serif" font-size="10.00">Cpl/Dm/Mp/Void.h</text>
</a>
</g>
</g>
<!-- Node3&#45;&gt;Node34 -->
<g id="edge52" class="edge"><title>Node3&#45;&gt;Node34</title>
<path fill="none" stroke="midnightblue" d="M1254.86,-383.812C1261.28,-382.463 1267.79,-381.154 1274,-380 1378.31,-360.606 1405.15,-360.274 1510,-344 1512.87,-343.554 1515.82,-343.094 1518.8,-342.629"/>
<polygon fill="midnightblue" stroke="midnightblue" points="1253.96,-380.426 1244.92,-385.947 1255.43,-387.271 1253.96,-380.426"/>
</g>
<!-- Node6 -->
<g id="node6" class="node"><title>Node6</title>
<g id="a_node6"><a xlink:href="_control_8h.html" target="_top" xlink:title=" ">
<polygon fill="white" stroke="black" points="783.5,-263 783.5,-282 920.5,-282 920.5,-263 783.5,-263"/>
<text text-anchor="middle" x="852" y="-270" font-family="Helvetica,sans-Serif" font-size="10.00">Storm/Component/Control.h</text>
</a>
</g>
</g>
<!-- Node5&#45;&gt;Node6 -->
<g id="edge6" class="edge"><title>Node5&#45;&gt;Node6</title>
<path fill="none" stroke="midnightblue" d="M948.951,-320.021C924.903,-308.482 890.437,-291.943 869.733,-282.009"/>
<polygon fill="midnightblue" stroke="midnightblue" points="947.704,-323.304 958.234,-324.475 950.732,-316.993 947.704,-323.304"/>
</g>
<!-- Node15 -->
<g id="node15" class="node"><title>Node15</title>
<g id="a_node15"><a xlink:href="_fan_control_8h.html" target="_top" xlink:title=" ">
<polygon fill="white" stroke="black" points="906,-62 906,-81 1060,-81 1060,-62 906,-62"/>
<text text-anchor="middle" x="983" y="-69" font-family="Helvetica,sans-Serif" font-size="10.00">Storm/Component/FanControl.h</text>
</a>
</g>
</g>
<!-- Node5&#45;&gt;Node15 -->
<g id="edge22" class="edge"><title>Node5&#45;&gt;Node15</title>
<path fill="none" stroke="midnightblue" d="M975.123,-313.918C973.619,-276.997 971.155,-193.235 976,-123 977.023,-108.165 979.718,-91.0526 981.45,-81.0405"/>
<polygon fill="midnightblue" stroke="midnightblue" points="971.638,-314.343 975.566,-324.183 978.631,-314.041 971.638,-314.343"/>
</g>
<!-- Node16 -->
<g id="node16" class="node"><title>Node16</title>
<g id="a_node16"><a xlink:href="_component_2_hvac_relay_outputs_8h.html" target="_top" xlink:title=" ">
<polygon fill="white" stroke="black" points="985,-123.5 985,-153.5 1131,-153.5 1131,-123.5 985,-123.5"/>
<text text-anchor="start" x="993" y="-141.5" font-family="Helvetica,sans-Serif" font-size="10.00">Storm/Component/HvacRelay</text>
<text text-anchor="middle" x="1058" y="-130.5" font-family="Helvetica,sans-Serif" font-size="10.00">Outputs.h</text>
</a>
</g>
</g>
<!-- Node5&#45;&gt;Node16 -->
<g id="edge24" class="edge"><title>Node5&#45;&gt;Node16</title>
<path fill="none" stroke="midnightblue" d="M979.38,-314.141C984.926,-285.97 997.54,-231.744 1019,-190 1025.89,-176.601 1036.46,-163.186 1044.87,-153.554"/>
<polygon fill="midnightblue" stroke="midnightblue" points="975.897,-313.726 977.486,-324.201 982.776,-315.022 975.897,-313.726"/>
</g>
<!-- Node17 -->
<g id="node17" class="node"><title>Node17</title>
<g id="a_node17"><a xlink:href="_idt_selection_8h.html" target="_top" xlink:title=" ">
<polygon fill="white" stroke="black" points="1116,-62 1116,-81 1274,-81 1274,-62 1116,-62"/>
<text text-anchor="middle" x="1195" y="-69" font-family="Helvetica,sans-Serif" font-size="10.00">Storm/Component/IdtSelection.h</text>
</a>
</g>
</g>
<!-- Node5&#45;&gt;Node17 -->
<g id="edge26" class="edge"><title>Node5&#45;&gt;Node17</title>
<path fill="none" stroke="midnightblue" d="M986.739,-315.733C991.807,-307.426 997.857,-297.279 1003,-288 1026.7,-245.233 1017.08,-223.175 1053,-190 1083.74,-161.609 1107.59,-180.467 1140,-154 1165.39,-133.271 1183.63,-97.7918 1191.17,-81.3477"/>
<polygon fill="midnightblue" stroke="midnightblue" points="983.618,-314.126 981.354,-324.476 989.578,-317.797 983.618,-314.126"/>
</g>
<!-- Node18 -->
<g id="node18" class="node"><title>Node18</title>
<g id="a_node18"><a xlink:href="_component_2_operating_mode_8h.html" target="_top" xlink:title=" ">
<polygon fill="white" stroke="black" points="0,-123.5 0,-153.5 140,-153.5 140,-123.5 0,-123.5"/>
<text text-anchor="start" x="8" y="-141.5" font-family="Helvetica,sans-Serif" font-size="10.00">Storm/Component/Operating</text>
<text text-anchor="middle" x="70" y="-130.5" font-family="Helvetica,sans-Serif" font-size="10.00">Mode.h</text>
</a>
</g>
</g>
<!-- Node5&#45;&gt;Node18 -->
<g id="edge28" class="edge"><title>Node5&#45;&gt;Node18</title>
<path fill="none" stroke="midnightblue" d="M916.756,-324.2C796.026,-316.478 224.119,-331.14 154,-288 103.797,-257.113 80.8857,-184.513 73.172,-153.714"/>
<polygon fill="midnightblue" stroke="midnightblue" points="916.752,-327.711 927,-325.02 917.311,-320.733 916.752,-327.711"/>
</g>
<!-- Node19 -->
<g id="node19" class="node"><title>Node19</title>
<g id="a_node19"><a xlink:href="_pi_8h.html" target="_top" xlink:title=" ">
<polygon fill="white" stroke="black" points="116,-62 116,-81 232,-81 232,-62 116,-62"/>
<text text-anchor="middle" x="174" y="-69" font-family="Helvetica,sans-Serif" font-size="10.00">Storm/Component/Pi.h</text>
</a>
</g>
</g>
<!-- Node5&#45;&gt;Node19 -->
<g id="edge30" class="edge"><title>Node5&#45;&gt;Node19</title>
<path fill="none" stroke="midnightblue" d="M916.797,-323.856C803.027,-307.448 771.834,-310.894 663,-288 447.928,-242.759 333.118,-318.171 187,-154 168.71,-133.45 170.543,-97.8814 172.602,-81.3813"/>
<polygon fill="midnightblue" stroke="midnightblue" points="916.558,-327.358 926.959,-325.342 917.571,-320.431 916.558,-327.358"/>
</g>
<!-- Node20 -->
<g id="node20" class="node"><title>Node20</title>
<g id="a_node20"><a xlink:href="_pi_pre_process_8h.html" target="_top" xlink:title=" ">
<polygon fill="white" stroke="black" points="196.5,-129 196.5,-148 363.5,-148 363.5,-129 196.5,-129"/>
<text text-anchor="middle" x="280" y="-136" font-family="Helvetica,sans-Serif" font-size="10.00">Storm/Component/PiPreProcess.h</text>
</a>
</g>
</g>
<!-- Node5&#45;&gt;Node20 -->
<g id="edge32" class="edge"><title>Node5&#45;&gt;Node20</title>
<path fill="none" stroke="midnightblue" d="M923.597,-322.419C882.672,-313.893 824.473,-301.189 774,-288 593.344,-240.791 379.273,-171.976 306.052,-148.064"/>
<polygon fill="midnightblue" stroke="midnightblue" points="923.112,-325.893 933.614,-324.495 924.532,-319.039 923.112,-325.893"/>
</g>
<!-- Node21 -->
<g id="node21" class="node"><title>Node21</title>
<g id="a_node21"><a xlink:href="_model_points_8h.html" target="_top" xlink:title="This file defines all of the Model Points for the Thermostat Application.">
<polygon fill="white" stroke="black" points="1176.5,-263 1176.5,-282 1337.5,-282 1337.5,-263 1176.5,-263"/>
<text text-anchor="middle" x="1257" y="-270" font-family="Helvetica,sans-Serif" font-size="10.00">Storm/Thermostat/ModelPoints.h</text>
</a>
</g>
</g>
<!-- Node5&#45;&gt;Node21 -->
<g id="edge36" class="edge"><title>Node5&#45;&gt;Node21</title>
<path fill="none" stroke="midnightblue" d="M1026.05,-322.402C1080.53,-310.867 1166.56,-292.65 1216.81,-282.009"/>
<polygon fill="midnightblue" stroke="midnightblue" points="1025.32,-318.979 1016.26,-324.475 1026.77,-325.828 1025.32,-318.979"/>
</g>
<!-- Node7 -->
<g id="node7" class="node"><title>Node7</title>
<g id="a_node7"><a xlink:href="_cooling_8h.html" target="_top" xlink:title=" ">
<polygon fill="white" stroke="black" points="707.5,-123.5 707.5,-153.5 852.5,-153.5 852.5,-123.5 707.5,-123.5"/>
<text text-anchor="start" x="715.5" y="-141.5" font-family="Helvetica,sans-Serif" font-size="10.00">Storm/Component/Equipment</text>
<text text-anchor="middle" x="780" y="-130.5" font-family="Helvetica,sans-Serif" font-size="10.00">/Cooling.h</text>
</a>
</g>
</g>
<!-- Node6&#45;&gt;Node7 -->
<g id="edge7" class="edge"><title>Node6&#45;&gt;Node7</title>
<path fill="none" stroke="midnightblue" d="M842.426,-253.948C828.025,-227.546 801.065,-178.119 787.791,-153.783"/>
<polygon fill="midnightblue" stroke="midnightblue" points="839.415,-255.736 847.276,-262.839 845.56,-252.384 839.415,-255.736"/>
</g>
<!-- Node8 -->
<g id="node8" class="node"><title>Node8</title>
<g id="a_node8"><a xlink:href="_algorithm_8h.html" target="_top" xlink:title=" ">
<polygon fill="white" stroke="black" points="602,-0.5 602,-19.5 750,-19.5 750,-0.5 602,-0.5"/>
<text text-anchor="middle" x="676" y="-7.5" font-family="Helvetica,sans-Serif" font-size="10.00">Storm/Thermostat/Algorithm.h</text>
</a>
</g>
</g>
<!-- Node6&#45;&gt;Node8 -->
<g id="edge21" class="edge"><title>Node6&#45;&gt;Node8</title>
<path fill="none" stroke="midnightblue" d="M866.269,-255.058C873.4,-245.74 881.285,-233.475 885,-221 906.206,-149.782 912.812,-106.174 858,-56 828.95,-29.4074 786.701,-17.9 750.221,-13.1583"/>
<polygon fill="midnightblue" stroke="midnightblue" points="863.407,-253.029 859.823,-263 868.843,-257.44 863.407,-253.029"/>
</g>
<!-- Node9 -->
<g id="node9" class="node"><title>Node9</title>
<g id="a_node9"><a xlink:href="_indoor_heating_8h.html" target="_top" xlink:title=" ">
<polygon fill="white" stroke="black" points="544.5,-123.5 544.5,-153.5 689.5,-153.5 689.5,-123.5 544.5,-123.5"/>
<text text-anchor="start" x="552.5" y="-141.5" font-family="Helvetica,sans-Serif" font-size="10.00">Storm/Component/Equipment</text>
<text text-anchor="middle" x="617" y="-130.5" font-family="Helvetica,sans-Serif" font-size="10.00">/IndoorHeating.h</text>
</a>
</g>
</g>
<!-- Node6&#45;&gt;Node9 -->
<g id="edge9" class="edge"><title>Node6&#45;&gt;Node9</title>
<path fill="none" stroke="midnightblue" d="M776.825,-261.408C724.798,-252.976 661.538,-239.369 642,-221 623.238,-203.36 618.431,-172.049 617.277,-153.799"/>
<polygon fill="midnightblue" stroke="midnightblue" points="776.305,-264.87 786.729,-262.974 777.399,-257.956 776.305,-264.87"/>
</g>
<!-- Node10 -->
<g id="node10" class="node"><title>Node10</title>
<g id="a_node10"><a xlink:href="_off_8h.html" target="_top" xlink:title=" ">
<polygon fill="white" stroke="black" points="704.5,-56.5 704.5,-86.5 849.5,-86.5 849.5,-56.5 704.5,-56.5"/>
<text text-anchor="start" x="712.5" y="-74.5" font-family="Helvetica,sans-Serif" font-size="10.00">Storm/Component/Equipment</text>
<text text-anchor="middle" x="777" y="-63.5" font-family="Helvetica,sans-Serif" font-size="10.00">/Off.h</text>
</a>
</g>
</g>
<!-- Node6&#45;&gt;Node10 -->
<g id="edge11" class="edge"><title>Node6&#45;&gt;Node10</title>
<path fill="none" stroke="midnightblue" d="M859.08,-253.285C869.307,-223.781 884.556,-164.647 861,-123 851.534,-106.264 834.058,-94.463 817.488,-86.5016"/>
<polygon fill="midnightblue" stroke="midnightblue" points="855.774,-252.134 855.62,-262.728 862.347,-254.542 855.774,-252.134"/>
</g>
<!-- Node11 -->
<g id="node11" class="node"><title>Node11</title>
<g id="a_node11"><a xlink:href="_stage_api_8h.html" target="_top" xlink:title=" ">
<polygon fill="white" stroke="black" points="651.5,-190.5 651.5,-220.5 796.5,-220.5 796.5,-190.5 651.5,-190.5"/>
<text text-anchor="start" x="659.5" y="-208.5" font-family="Helvetica,sans-Serif" font-size="10.00">Storm/Component/Equipment</text>
<text text-anchor="middle" x="724" y="-197.5" font-family="Helvetica,sans-Serif" font-size="10.00">/StageApi.h</text>
</a>
</g>
</g>
<!-- Node6&#45;&gt;Node11 -->
<g id="edge13" class="edge"><title>Node6&#45;&gt;Node11</title>
<path fill="none" stroke="midnightblue" d="M825.798,-258.194C804.267,-247.261 773.842,-231.81 751.868,-220.652"/>
<polygon fill="midnightblue" stroke="midnightblue" points="824.502,-261.461 835.003,-262.869 827.671,-255.22 824.502,-261.461"/>
</g>
<!-- Node7&#45;&gt;Node8 -->
<g id="edge8" class="edge"><title>Node7&#45;&gt;Node8</title>
<path fill="none" stroke="midnightblue" d="M733.777,-118.664C719.491,-110.798 704.92,-100.328 695,-87 679.733,-66.4889 676.643,-35.1162 676.078,-19.8966"/>
<polygon fill="midnightblue" stroke="midnightblue" points="732.581,-121.985 743.072,-123.461 735.791,-115.765 732.581,-121.985"/>
</g>
<!-- Node9&#45;&gt;Node8 -->
<g id="edge10" class="edge"><title>Node9&#45;&gt;Node8</title>
<path fill="none" stroke="midnightblue" d="M627.838,-114.262C641.097,-85.8349 662.888,-39.113 671.901,-19.7885"/>
<polygon fill="midnightblue" stroke="midnightblue" points="624.594,-112.937 623.539,-123.479 630.938,-115.896 624.594,-112.937"/>
</g>
<!-- Node10&#45;&gt;Node8 -->
<g id="edge12" class="edge"><title>Node10&#45;&gt;Node8</title>
<path fill="none" stroke="midnightblue" d="M744.016,-51.0688C726.012,-40.4624 704.617,-27.8586 690.696,-19.6578"/>
<polygon fill="midnightblue" stroke="midnightblue" points="742.672,-54.3391 753.064,-56.3993 746.225,-48.3079 742.672,-54.3391"/>
</g>
<!-- Node11&#45;&gt;Node7 -->
<g id="edge14" class="edge"><title>Node11&#45;&gt;Node7</title>
<path fill="none" stroke="midnightblue" d="M742.75,-182.736C751.036,-173.119 760.539,-162.089 767.873,-153.577"/>
<polygon fill="midnightblue" stroke="midnightblue" points="740.027,-180.535 736.151,-190.396 745.33,-185.104 740.027,-180.535"/>
</g>
<!-- Node11&#45;&gt;Node9 -->
<g id="edge15" class="edge"><title>Node11&#45;&gt;Node9</title>
<path fill="none" stroke="midnightblue" d="M691.925,-185.015C675.274,-174.9 655.306,-162.77 640.172,-153.577"/>
<polygon fill="midnightblue" stroke="midnightblue" points="690.419,-188.195 700.783,-190.396 694.053,-182.213 690.419,-188.195"/>
</g>
<!-- Node12 -->
<g id="node12" class="node"><title>Node12</title>
<g id="a_node12"><a xlink:href="_storm_2_component_2_equipment_2_stage_2_basic_8h.html" target="_top" xlink:title=" ">
<polygon fill="white" stroke="black" points="381.5,-123.5 381.5,-153.5 526.5,-153.5 526.5,-123.5 381.5,-123.5"/>
<text text-anchor="start" x="389.5" y="-141.5" font-family="Helvetica,sans-Serif" font-size="10.00">Storm/Component/Equipment</text>
<text text-anchor="middle" x="454" y="-130.5" font-family="Helvetica,sans-Serif" font-size="10.00">/Stage/Basic.h</text>
</a>
</g>
</g>
<!-- Node11&#45;&gt;Node12 -->
<g id="edge16" class="edge"><title>Node11&#45;&gt;Node12</title>
<path fill="none" stroke="midnightblue" d="M655.954,-188.119C611.774,-177.483 554.784,-163.763 512.615,-153.611"/>
<polygon fill="midnightblue" stroke="midnightblue" points="655.205,-191.538 665.746,-190.476 656.843,-184.733 655.205,-191.538"/>
</g>
<!-- Node13 -->
<g id="node13" class="node"><title>Node13</title>
<g id="a_node13"><a xlink:href="_basic_cooling_8h.html" target="_top" xlink:title=" ">
<polygon fill="white" stroke="black" points="464.5,-56.5 464.5,-86.5 609.5,-86.5 609.5,-56.5 464.5,-56.5"/>
<text text-anchor="start" x="472.5" y="-74.5" font-family="Helvetica,sans-Serif" font-size="10.00">Storm/Component/Equipment</text>
<text text-anchor="middle" x="537" y="-63.5" font-family="Helvetica,sans-Serif" font-size="10.00">/Stage/BasicCooling.h</text>
</a>
</g>
</g>
<!-- Node12&#45;&gt;Node13 -->
<g id="edge17" class="edge"><title>Node12&#45;&gt;Node13</title>
<path fill="none" stroke="midnightblue" d="M479.963,-117.168C492.655,-107.228 507.612,-95.5144 519.025,-86.5765"/>
<polygon fill="midnightblue" stroke="midnightblue" points="477.725,-114.475 472.01,-123.396 482.041,-119.986 477.725,-114.475"/>
</g>
<!-- Node14 -->
<g id="node14" class="node"><title>Node14</title>
<g id="a_node14"><a xlink:href="_basic_indoor_heat_8h.html" target="_top" xlink:title=" ">
<polygon fill="white" stroke="black" points="301.5,-56.5 301.5,-86.5 446.5,-86.5 446.5,-56.5 301.5,-56.5"/>
<text text-anchor="start" x="309.5" y="-74.5" font-family="Helvetica,sans-Serif" font-size="10.00">Storm/Component/Equipment</text>
<text text-anchor="middle" x="374" y="-63.5" font-family="Helvetica,sans-Serif" font-size="10.00">/Stage/BasicIndoorHeat.h</text>
</a>
</g>
</g>
<!-- Node12&#45;&gt;Node14 -->
<g id="edge19" class="edge"><title>Node12&#45;&gt;Node14</title>
<path fill="none" stroke="midnightblue" d="M428.625,-116.883C416.468,-107.005 402.221,-95.4293 391.325,-86.5765"/>
<polygon fill="midnightblue" stroke="midnightblue" points="426.673,-119.806 436.641,-123.396 431.087,-114.374 426.673,-119.806"/>
</g>
<!-- Node13&#45;&gt;Node8 -->
<g id="edge18" class="edge"><title>Node13&#45;&gt;Node8</title>
<path fill="none" stroke="midnightblue" d="M579.35,-52.3718C604.723,-41.5105 635.825,-28.1972 655.774,-19.6578"/>
<polygon fill="midnightblue" stroke="midnightblue" points="577.757,-49.2465 569.941,-56.3993 580.512,-55.6817 577.757,-49.2465"/>
</g>
<!-- Node14&#45;&gt;Node8 -->
<g id="edge20" class="edge"><title>Node14&#45;&gt;Node8</title>
<path fill="none" stroke="midnightblue" d="M455.289,-54.4845C512.447,-43.2232 586.679,-28.5981 632.825,-19.5064"/>
<polygon fill="midnightblue" stroke="midnightblue" points="454.322,-51.1076 445.187,-56.4747 455.675,-57.9755 454.322,-51.1076"/>
</g>
<!-- Node15&#45;&gt;Node8 -->
<g id="edge23" class="edge"><title>Node15&#45;&gt;Node8</title>
<path fill="none" stroke="midnightblue" d="M929.059,-60.0456C869.582,-48.5184 775.034,-30.1939 719.904,-19.5091"/>
<polygon fill="midnightblue" stroke="midnightblue" points="928.531,-63.5084 939.014,-61.9751 929.863,-56.6363 928.531,-63.5084"/>
</g>
<!-- Node16&#45;&gt;Node8 -->
<g id="edge25" class="edge"><title>Node16&#45;&gt;Node8</title>
<path fill="none" stroke="midnightblue" d="M1069.91,-114.206C1077.28,-96.1475 1082.95,-71.6422 1069,-56 1048.2,-32.682 858.34,-19.7748 750.315,-14.2613"/>
<polygon fill="midnightblue" stroke="midnightblue" points="1066.65,-112.921 1065.75,-123.477 1073.04,-115.785 1066.65,-112.921"/>
</g>
<!-- Node17&#45;&gt;Node8 -->
<g id="edge27" class="edge"><title>Node17&#45;&gt;Node8</title>
<path fill="none" stroke="midnightblue" d="M1133.48,-60.4694C1122.99,-58.8847 1112.19,-57.332 1102,-56 978.85,-39.9052 835.087,-25.6592 750.011,-17.6991"/>
<polygon fill="midnightblue" stroke="midnightblue" points="1133,-63.9365 1143.41,-61.9923 1134.06,-57.0173 1133,-63.9365"/>
</g>
<!-- Node18&#45;&gt;Node8 -->
<g id="edge29" class="edge"><title>Node18&#45;&gt;Node8</title>
<path fill="none" stroke="midnightblue" d="M74.1646,-113.204C78.7723,-94.3203 88.1971,-69.1915 107,-56 146.597,-28.2201 456.783,-16.6387 601.77,-12.7065"/>
<polygon fill="midnightblue" stroke="midnightblue" points="70.6957,-112.688 72.0224,-123.199 77.5403,-114.155 70.6957,-112.688"/>
</g>
<!-- Node19&#45;&gt;Node8 -->
<g id="edge31" class="edge"><title>Node19&#45;&gt;Node8</title>
<path fill="none" stroke="midnightblue" d="M231.099,-60.2642C240.41,-58.7379 249.962,-57.2573 259,-56 378.542,-39.3697 518.095,-25.4101 601.634,-17.6344"/>
<polygon fill="midnightblue" stroke="midnightblue" points="230.415,-56.83 221.128,-61.9299 231.568,-63.7343 230.415,-56.83"/>
</g>
<!-- Node20&#45;&gt;Node8 -->
<g id="edge35" class="edge"><title>Node20&#45;&gt;Node8</title>
<path fill="none" stroke="midnightblue" d="M276.921,-118.93C274.99,-100.284 275.437,-72.0809 292,-56 313.762,-34.8717 496.223,-21.1458 601.609,-14.902"/>
<polygon fill="midnightblue" stroke="midnightblue" points="273.457,-119.436 278.268,-128.875 280.394,-118.496 273.457,-119.436"/>
</g>
<!-- Node20&#45;&gt;Node13 -->
<g id="edge33" class="edge"><title>Node20&#45;&gt;Node13</title>
<path fill="none" stroke="midnightblue" d="M323.58,-126.478C367.085,-115.475 434.103,-98.5246 481.412,-86.5592"/>
<polygon fill="midnightblue" stroke="midnightblue" points="322.699,-123.09 313.863,-128.936 324.415,-129.877 322.699,-123.09"/>
</g>
<!-- Node20&#45;&gt;Node14 -->
<g id="edge34" class="edge"><title>Node20&#45;&gt;Node14</title>
<path fill="none" stroke="midnightblue" d="M301.187,-122.849C316.877,-112 338.131,-97.3028 353.625,-86.589"/>
<polygon fill="midnightblue" stroke="midnightblue" points="298.912,-120.167 292.677,-128.734 302.893,-125.925 298.912,-120.167"/>
</g>
<!-- Node22 -->
<g id="node22" class="node"><title>Node22</title>
<g id="a_node22"><a xlink:href="_installer_record_8h_source.html" target="_top" xlink:title=" ">
<polygon fill="white" stroke="black" points="1494.5,-190.5 1494.5,-220.5 1613.5,-220.5 1613.5,-190.5 1494.5,-190.5"/>
<text text-anchor="start" x="1502.5" y="-208.5" font-family="Helvetica,sans-Serif" font-size="10.00">Storm/Thermostat/Main</text>
<text text-anchor="middle" x="1554" y="-197.5" font-family="Helvetica,sans-Serif" font-size="10.00">/InstallerRecord.h</text>
</a>
</g>
</g>
<!-- Node21&#45;&gt;Node22 -->
<g id="edge37" class="edge"><title>Node21&#45;&gt;Node22</title>
<path fill="none" stroke="midnightblue" d="M1306.04,-260.767C1357.65,-249.473 1438.91,-231.689 1494.23,-219.582"/>
<polygon fill="midnightblue" stroke="midnightblue" points="1305.15,-257.378 1296.13,-262.936 1306.65,-264.217 1305.15,-257.378"/>
</g>
<!-- Node23 -->
<g id="node23" class="node"><title>Node23</title>
<g id="a_node23"><a xlink:href="_run_time_record_8h_source.html" target="_top" xlink:title=" ">
<polygon fill="white" stroke="black" points="1061.5,-190.5 1061.5,-220.5 1180.5,-220.5 1180.5,-190.5 1061.5,-190.5"/>
<text text-anchor="start" x="1069.5" y="-208.5" font-family="Helvetica,sans-Serif" font-size="10.00">Storm/Thermostat/Main</text>
<text text-anchor="middle" x="1121" y="-197.5" font-family="Helvetica,sans-Serif" font-size="10.00">/RunTimeRecord.h</text>
</a>
</g>
</g>
<!-- Node21&#45;&gt;Node23 -->
<g id="edge38" class="edge"><title>Node21&#45;&gt;Node23</title>
<path fill="none" stroke="midnightblue" d="M1229.75,-258.474C1206.75,-247.485 1173.92,-231.791 1150.35,-220.528"/>
<polygon fill="midnightblue" stroke="midnightblue" points="1228.41,-261.714 1238.94,-262.869 1231.43,-255.398 1228.41,-261.714"/>
</g>
<!-- Node24 -->
<g id="node24" class="node"><title>Node24</title>
<g id="a_node24"><a xlink:href="_user_record_8h_source.html" target="_top" xlink:title=" ">
<polygon fill="white" stroke="black" points="1198.5,-190.5 1198.5,-220.5 1317.5,-220.5 1317.5,-190.5 1198.5,-190.5"/>
<text text-anchor="start" x="1206.5" y="-208.5" font-family="Helvetica,sans-Serif" font-size="10.00">Storm/Thermostat/Main</text>
<text text-anchor="middle" x="1258" y="-197.5" font-family="Helvetica,sans-Serif" font-size="10.00">/UserRecord.h</text>
</a>
</g>
</g>
<!-- Node21&#45;&gt;Node24 -->
<g id="edge39" class="edge"><title>Node21&#45;&gt;Node24</title>
<path fill="none" stroke="midnightblue" d="M1257.29,-252.411C1257.45,-242.222 1257.64,-229.901 1257.78,-220.589"/>
<polygon fill="midnightblue" stroke="midnightblue" points="1253.79,-252.681 1257.13,-262.734 1260.79,-252.789 1253.79,-252.681"/>
</g>
<!-- Node25 -->
<g id="node25" class="node"><title>Node25</title>
<g id="a_node25"><a xlink:href="_event_monitor_8h_source.html" target="_top" xlink:title=" ">
<polygon fill="white" stroke="black" points="1336,-190.5 1336,-220.5 1476,-220.5 1476,-190.5 1336,-190.5"/>
<text text-anchor="start" x="1344" y="-208.5" font-family="Helvetica,sans-Serif" font-size="10.00">Storm/Thermostat/Ui</text>
<text text-anchor="middle" x="1406" y="-197.5" font-family="Helvetica,sans-Serif" font-size="10.00">/PicoDisplay/EventMonitor.h</text>
</a>
</g>
</g>
<!-- Node21&#45;&gt;Node25 -->
<g id="edge40" class="edge"><title>Node21&#45;&gt;Node25</title>
<path fill="none" stroke="midnightblue" d="M1286.19,-258.767C1311.41,-247.766 1347.79,-231.892 1373.84,-220.528"/>
<polygon fill="midnightblue" stroke="midnightblue" points="1284.55,-255.662 1276.79,-262.869 1287.35,-262.078 1284.55,-255.662"/>
</g>
<!-- Node28&#45;&gt;Node21 -->
<g id="edge48" class="edge"><title>Node28&#45;&gt;Node21</title>
<path fill="none" stroke="midnightblue" d="M1309.32,-317.973C1295.93,-306.593 1278.02,-291.369 1267.01,-282.009"/>
<polygon fill="midnightblue" stroke="midnightblue" points="1307.08,-320.665 1316.97,-324.475 1311.62,-315.332 1307.08,-320.665"/>
</g>
<!-- Node29 -->
<g id="node29" class="node"><title>Node29</title>
<g id="a_node29"><a xlink:href="_ring_buffer_m_p_8h.html" target="_top" xlink:title=" ">
<polygon fill="white" stroke="black" points="1506.5,-263 1506.5,-282 1653.5,-282 1653.5,-263 1506.5,-263"/>
<text text-anchor="middle" x="1580" y="-270" font-family="Helvetica,sans-Serif" font-size="10.00">Cpl/Container/RingBufferMP.h</text>
</a>
</g>
</g>
<!-- Node28&#45;&gt;Node29 -->
<g id="edge44" class="edge"><title>Node28&#45;&gt;Node29</title>
<path fill="none" stroke="midnightblue" d="M1373.29,-322.114C1422.39,-310.565 1498.95,-292.561 1543.82,-282.009"/>
<polygon fill="midnightblue" stroke="midnightblue" points="1372.18,-318.779 1363.25,-324.475 1373.78,-325.593 1372.18,-318.779"/>
</g>
<!-- Node31 -->
<g id="node31" class="node"><title>Node31</title>
<g id="a_node31"><a xlink:href="_air_filter_monitor_8h.html" target="_top" xlink:title=" ">
<polygon fill="white" stroke="black" points="1356,-257.5 1356,-287.5 1488,-287.5 1488,-257.5 1356,-257.5"/>
<text text-anchor="start" x="1364" y="-275.5" font-family="Helvetica,sans-Serif" font-size="10.00">Storm/Component/AirFilter</text>
<text text-anchor="middle" x="1422" y="-264.5" font-family="Helvetica,sans-Serif" font-size="10.00">Monitor.h</text>
</a>
</g>
</g>
<!-- Node28&#45;&gt;Node31 -->
<g id="edge46" class="edge"><title>Node28&#45;&gt;Node31</title>
<path fill="none" stroke="midnightblue" d="M1349.34,-319.008C1364.49,-309.518 1384.45,-297.02 1399.61,-287.523"/>
<polygon fill="midnightblue" stroke="midnightblue" points="1347.23,-316.201 1340.61,-324.475 1350.94,-322.133 1347.23,-316.201"/>
</g>
<!-- Node30 -->
<g id="node30" class="node"><title>Node30</title>
<g id="a_node30"><a xlink:href="_indexed_entry_server_8h.html" target="_top" xlink:title=" ">
<polygon fill="white" stroke="black" points="1671.5,-190.5 1671.5,-220.5 1810.5,-220.5 1810.5,-190.5 1671.5,-190.5"/>
<text text-anchor="start" x="1679.5" y="-208.5" font-family="Helvetica,sans-Serif" font-size="10.00">Cpl/Persistent/IndexedEntry</text>
<text text-anchor="middle" x="1741" y="-197.5" font-family="Helvetica,sans-Serif" font-size="10.00">Server.h</text>
</a>
</g>
</g>
<!-- Node29&#45;&gt;Node30 -->
<g id="edge45" class="edge"><title>Node29&#45;&gt;Node30</title>
<path fill="none" stroke="midnightblue" d="M1610.82,-259.058C1638.09,-248.047 1677.86,-231.992 1706.25,-220.528"/>
<polygon fill="midnightblue" stroke="midnightblue" points="1609.34,-255.879 1601.38,-262.869 1611.96,-262.37 1609.34,-255.879"/>
</g>
<!-- Node31&#45;&gt;Node8 -->
<g id="edge47" class="edge"><title>Node31&#45;&gt;Node8</title>
<path fill="none" stroke="midnightblue" d="M1495.51,-255.251C1551.2,-242.587 1618.87,-226.295 1623,-221 1631.47,-210.135 1630.75,-201.389 1623,-190 1531.6,-55.7341 1441.34,-92.1922 1283,-56 1183.59,-33.2778 889.069,-19.2396 750.129,-13.7062"/>
<polygon fill="midnightblue" stroke="midnightblue" points="1494.6,-251.867 1485.62,-257.489 1496.15,-258.694 1494.6,-251.867"/>
</g>
<!-- Node33 -->
<g id="node33" class="node"><title>Node33</title>
<g id="a_node33"><a xlink:href="_indexed_entry_record_8h.html" target="_top" xlink:title=" ">
<polygon fill="white" stroke="black" points="1671.5,-257.5 1671.5,-287.5 1810.5,-287.5 1810.5,-257.5 1671.5,-257.5"/>
<text text-anchor="start" x="1679.5" y="-275.5" font-family="Helvetica,sans-Serif" font-size="10.00">Cpl/Persistent/IndexedEntry</text>
<text text-anchor="middle" x="1741" y="-264.5" font-family="Helvetica,sans-Serif" font-size="10.00">Record.h</text>
</a>
</g>
</g>
<!-- Node32&#45;&gt;Node33 -->
<g id="edge50" class="edge"><title>Node32&#45;&gt;Node33</title>
<path fill="none" stroke="midnightblue" d="M1500.65,-322.476C1548.38,-312.75 1619.64,-298.23 1672.18,-287.523"/>
<polygon fill="midnightblue" stroke="midnightblue" points="1499.94,-319.049 1490.84,-324.475 1501.33,-325.908 1499.94,-319.049"/>
</g>
<!-- Node33&#45;&gt;Node30 -->
<g id="edge51" class="edge"><title>Node33&#45;&gt;Node30</title>
<path fill="none" stroke="midnightblue" d="M1741,-247.108C1741,-238.154 1741,-228.323 1741,-220.577"/>
<polygon fill="midnightblue" stroke="midnightblue" points="1737.5,-247.396 1741,-257.396 1744.5,-247.396 1737.5,-247.396"/>
</g>
</g>
</svg>
