<?xml version="1.0" encoding="UTF-8" standalone="no"?>
<!DOCTYPE svg PUBLIC "-//W3C//DTD SVG 1.1//EN"
 "http://www.w3.org/Graphics/SVG/1.1/DTD/svg11.dtd">
<!-- Generated by graphviz version 2.38.0 (20140413.2041)
 -->
<!-- Title: Graphical Class Hierarchy Pages: 1 -->
<svg width="726pt" height="165pt"
 viewBox="0.00 0.00 726.00 164.50" xmlns="http://www.w3.org/2000/svg" xmlns:xlink="http://www.w3.org/1999/xlink">
<g id="graph0" class="graph" transform="scale(1 1) rotate(0) translate(4 160.5)">
<title>Graphical Class Hierarchy</title>
<polygon fill="white" stroke="none" points="-4,4 -4,-160.5 722,-160.5 722,4 -4,4"/>
<!-- Node0 -->
<g id="node1" class="node"><title>Node0</title>
<g id="a_node1"><a xlink:href="class_cpl_1_1_container_1_1_key.html" target="_top" xlink:title="This abstract class defines the interface that a contained object must support if it has comparable k...">
<polygon fill="white" stroke="black" points="0,-82.5 0,-101.5 101,-101.5 101,-82.5 0,-82.5"/>
<text text-anchor="middle" x="50.5" y="-89.5" font-family="Helvetica,sans-Serif" font-size="10.00">Cpl::Container::Key</text>
</a>
</g>
</g>
<!-- Node1 -->
<g id="node2" class="node"><title>Node1</title>
<g id="a_node2"><a xlink:href="class_cpl_1_1_container_1_1_key_plain_type.html" target="_top" xlink:title="This template class is used to generate Key classes for most of the C/C++ primitive data types.">
<polygon fill="white" stroke="black" points="139,-126 139,-156 262,-156 262,-126 139,-126"/>
<text text-anchor="start" x="147" y="-144" font-family="Helvetica,sans-Serif" font-size="10.00">Cpl::Container::KeyPlain</text>
<text text-anchor="middle" x="200.5" y="-133" font-family="Helvetica,sans-Serif" font-size="10.00">Type&lt; DATATYPE &gt;</text>
</a>
</g>
</g>
<!-- Node0&#45;&gt;Node1 -->
<g id="edge1" class="edge"><title>Node0&#45;&gt;Node1</title>
<path fill="none" stroke="midnightblue" d="M89.9203,-104.72C109.544,-111.217 133.548,-119.164 154.082,-125.963"/>
<polygon fill="midnightblue" stroke="midnightblue" points="90.9805,-101.384 80.3872,-101.564 88.7804,-108.03 90.9805,-101.384"/>
</g>
<!-- Node2 -->
<g id="node3" class="node"><title>Node2</title>
<g id="a_node3"><a xlink:href="class_cpl_1_1_container_1_1_key_string_buffer.html" target="_top" xlink:title="This class provides a &#39;Key&#39; wrapper for a array of Character of length N, i.e.">
<polygon fill="white" stroke="black" points="137,-77 137,-107 264,-107 264,-77 137,-77"/>
<text text-anchor="start" x="145" y="-95" font-family="Helvetica,sans-Serif" font-size="10.00">Cpl::Container::KeyString</text>
<text text-anchor="middle" x="200.5" y="-84" font-family="Helvetica,sans-Serif" font-size="10.00">Buffer</text>
</a>
</g>
</g>
<!-- Node0&#45;&gt;Node2 -->
<g id="edge2" class="edge"><title>Node0&#45;&gt;Node2</title>
<path fill="none" stroke="midnightblue" d="M111.285,-92C119.686,-92 128.341,-92 136.795,-92"/>
<polygon fill="midnightblue" stroke="midnightblue" points="111.194,-88.5001 101.194,-92 111.194,-95.5001 111.194,-88.5001"/>
</g>
<!-- Node4 -->
<g id="node5" class="node"><title>Node4</title>
<g id="a_node5"><a xlink:href="class_cpl_1_1_text_1_1_string.html" target="_top" xlink:title="This abstract class defines the operations that can be before on a NULL terminated string.">
<polygon fill="white" stroke="black" points="156.5,-38.5 156.5,-57.5 244.5,-57.5 244.5,-38.5 156.5,-38.5"/>
<text text-anchor="middle" x="200.5" y="-45.5" font-family="Helvetica,sans-Serif" font-size="10.00">Cpl::Text::String</text>
</a>
</g>
</g>
<!-- Node0&#45;&gt;Node4 -->
<g id="edge4" class="edge"><title>Node0&#45;&gt;Node4</title>
<path fill="none" stroke="midnightblue" d="M93.3259,-79.5653C116.842,-72.574 145.741,-63.9823 167.449,-57.5287"/>
<polygon fill="midnightblue" stroke="midnightblue" points="92.2017,-76.248 83.6138,-82.4527 94.1966,-82.9578 92.2017,-76.248"/>
</g>
<!-- Node3 -->
<g id="node4" class="node"><title>Node3</title>
<g id="a_node4"><a xlink:href="class_cpl_1_1_container_1_1_key_literal_string.html" target="_top" xlink:title="This class provides a &#39;Key&#39; wrapper for a C string literal.">
<polygon fill="white" stroke="black" points="300,-77 300,-107 428,-107 428,-77 300,-77"/>
<text text-anchor="start" x="308" y="-95" font-family="Helvetica,sans-Serif" font-size="10.00">Cpl::Container::KeyLiteral</text>
<text text-anchor="middle" x="364" y="-84" font-family="Helvetica,sans-Serif" font-size="10.00">String</text>
</a>
</g>
</g>
<!-- Node2&#45;&gt;Node3 -->
<g id="edge3" class="edge"><title>Node2&#45;&gt;Node3</title>
<path fill="none" stroke="midnightblue" d="M274.569,-92C282.969,-92 291.482,-92 299.738,-92"/>
<polygon fill="midnightblue" stroke="midnightblue" points="274.403,-88.5001 264.403,-92 274.403,-95.5001 274.403,-88.5001"/>
</g>
<!-- Node5 -->
<g id="node6" class="node"><title>Node5</title>
<g id="a_node6"><a xlink:href="class_cpl_1_1_text_1_1_string__.html" target="_top" xlink:title="This partially concrete class implements the portions of the String Api that is independent of the in...">
<polygon fill="white" stroke="black" points="317.5,-38.5 317.5,-57.5 410.5,-57.5 410.5,-38.5 317.5,-38.5"/>
<text text-anchor="middle" x="364" y="-45.5" font-family="Helvetica,sans-Serif" font-size="10.00">Cpl::Text::String_</text>
</a>
</g>
</g>
<!-- Node4&#45;&gt;Node5 -->
<g id="edge5" class="edge"><title>Node4&#45;&gt;Node5</title>
<path fill="none" stroke="midnightblue" d="M254.784,-48C275.021,-48 297.871,-48 317.341,-48"/>
<polygon fill="midnightblue" stroke="midnightblue" points="254.779,-44.5001 244.779,-48 254.779,-51.5001 254.779,-44.5001"/>
</g>
<!-- Node6 -->
<g id="node7" class="node"><title>Node6</title>
<g id="a_node7"><a xlink:href="class_cpl_1_1_text_1_1_d_string.html" target="_top" xlink:title="This concrete class implements a simple &quot;dynamic storage&quot; String Type.">
<polygon fill="white" stroke="black" points="466,-57.5 466,-76.5 561,-76.5 561,-57.5 466,-57.5"/>
<text text-anchor="middle" x="513.5" y="-64.5" font-family="Helvetica,sans-Serif" font-size="10.00">Cpl::Text::DString</text>
</a>
</g>
</g>
<!-- Node5&#45;&gt;Node6 -->
<g id="edge6" class="edge"><title>Node5&#45;&gt;Node6</title>
<path fill="none" stroke="midnightblue" d="M420.936,-55.2053C435.77,-57.1161 451.626,-59.1586 465.904,-60.9979"/>
<polygon fill="midnightblue" stroke="midnightblue" points="421.227,-51.7139 410.861,-53.9076 420.332,-58.6566 421.227,-51.7139"/>
</g>
<!-- Node7 -->
<g id="node8" class="node"><title>Node7</title>
<g id="a_node8"><a xlink:href="class_cpl_1_1_text_1_1_f_string__.html" target="_top" xlink:title="This mostly concrete class implements a &quot;fixed storage&quot; String Type.">
<polygon fill="white" stroke="black" points="464,-19.5 464,-38.5 563,-38.5 563,-19.5 464,-19.5"/>
<text text-anchor="middle" x="513.5" y="-26.5" font-family="Helvetica,sans-Serif" font-size="10.00">Cpl::Text::FString_</text>
</a>
</g>
</g>
<!-- Node5&#45;&gt;Node7 -->
<g id="edge7" class="edge"><title>Node5&#45;&gt;Node7</title>
<path fill="none" stroke="midnightblue" d="M420.95,-40.7929C435.074,-38.9735 450.125,-37.0348 463.857,-35.2659"/>
<polygon fill="midnightblue" stroke="midnightblue" points="420.332,-37.3434 410.861,-42.0924 421.227,-44.2861 420.332,-37.3434"/>
</g>
<!-- Node8 -->
<g id="node9" class="node"><title>Node8</title>
<g id="a_node9"><a xlink:href="class_cpl_1_1_text_1_1_d_f_string.html" target="_top" xlink:title="This concrete class is a mix of FString and a DString &#45; the initial memory is dynamically allocated &#45;...">
<polygon fill="white" stroke="black" points="608,-38.5 608,-57.5 709,-57.5 709,-38.5 608,-38.5"/>
<text text-anchor="middle" x="658.5" y="-45.5" font-family="Helvetica,sans-Serif" font-size="10.00">Cpl::Text::DFString</text>
</a>
</g>
</g>
<!-- Node7&#45;&gt;Node8 -->
<g id="edge8" class="edge"><title>Node7&#45;&gt;Node8</title>
<path fill="none" stroke="midnightblue" d="M573.281,-36.8101C584.793,-38.3397 596.76,-39.9297 607.935,-41.4145"/>
<polygon fill="midnightblue" stroke="midnightblue" points="573.686,-33.3333 563.313,-35.4856 572.764,-40.2723 573.686,-33.3333"/>
</g>
<!-- Node9 -->
<g id="node10" class="node"><title>Node9</title>
<g id="a_node10"><a xlink:href="class_cpl_1_1_text_1_1_f_string.html" target="_top" xlink:title="This template class represents a NULL terminated string of a specific length.">
<polygon fill="white" stroke="black" points="599,-0.5 599,-19.5 718,-19.5 718,-0.5 599,-0.5"/>
<text text-anchor="middle" x="658.5" y="-7.5" font-family="Helvetica,sans-Serif" font-size="10.00">Cpl::Text::FString&lt; S &gt;</text>
</a>
</g>
</g>
<!-- Node7&#45;&gt;Node9 -->
<g id="edge9" class="edge"><title>Node7&#45;&gt;Node9</title>
<path fill="none" stroke="midnightblue" d="M573.389,-21.1756C581.773,-20.0616 590.397,-18.9158 598.778,-17.8022"/>
<polygon fill="midnightblue" stroke="midnightblue" points="572.764,-17.7277 563.313,-22.5144 573.686,-24.6667 572.764,-17.7277"/>
</g>
</g>
</svg>
