<?xml version="1.0" encoding="UTF-8" standalone="no"?>
<!DOCTYPE svg PUBLIC "-//W3C//DTD SVG 1.1//EN"
 "http://www.w3.org/Graphics/SVG/1.1/DTD/svg11.dtd">
<!-- Generated by graphviz version 2.38.0 (20140413.2041)
 -->
<!-- Title: Graphical Class Hierarchy Pages: 1 -->
<svg width="311pt" height="88pt"
 viewBox="0.00 0.00 311.00 88.00" xmlns="http://www.w3.org/2000/svg" xmlns:xlink="http://www.w3.org/1999/xlink">
<g id="graph0" class="graph" transform="scale(1 1) rotate(0) translate(4 84)">
<title>Graphical Class Hierarchy</title>
<polygon fill="white" stroke="none" points="-4,4 -4,-84 307,-84 307,4 -4,4"/>
<!-- Node0 -->
<g id="node1" class="node"><title>Node0</title>
<g id="a_node1"><a xlink:href="class_driver_1_1_l_e_d_1_1_red_green_blue.html" target="_top" xlink:title="This abstract class defines a basic interface for a single Red&#45;Green&#45;Blue LED where the application c...">
<polygon fill="white" stroke="black" points="0,-11 0,-30 136,-30 136,-11 0,-11"/>
<text text-anchor="middle" x="68" y="-18" font-family="Helvetica,sans-Serif" font-size="10.00">Driver::LED::RedGreenBlue</text>
</a>
</g>
</g>
<!-- Node1 -->
<g id="node2" class="node"><title>Node1</title>
<g id="a_node2"><a xlink:href="class_driver_1_1_l_e_d_1_1_pimoroni_pico_1_1_red_green_blue.html" target="_top" xlink:title="This concrete class is wrapper to the pimoroni RGBLED class.">
<polygon fill="white" stroke="black" points="172,-49.5 172,-79.5 303,-79.5 303,-49.5 172,-49.5"/>
<text text-anchor="start" x="180" y="-67.5" font-family="Helvetica,sans-Serif" font-size="10.00">Driver::LED::PimoroniPico</text>
<text text-anchor="middle" x="237.5" y="-56.5" font-family="Helvetica,sans-Serif" font-size="10.00">::RedGreenBlue</text>
</a>
</g>
</g>
<!-- Node0&#45;&gt;Node1 -->
<g id="edge1" class="edge"><title>Node0&#45;&gt;Node1</title>
<path fill="none" stroke="midnightblue" d="M115.053,-32.5974C134.863,-37.8013 158.23,-43.9395 179.149,-49.4346"/>
<polygon fill="midnightblue" stroke="midnightblue" points="115.906,-29.2029 105.345,-30.0473 114.128,-35.9732 115.906,-29.2029"/>
</g>
<!-- Node2 -->
<g id="node3" class="node"><title>Node2</title>
<g id="a_node3"><a xlink:href="class_driver_1_1_l_e_d_1_1_t_pipe_1_1_red_gree_blue.html" target="_top" xlink:title="This concrete class implements the Red&#45;Green&#45;Blue LED interface by sending the LED state over the TPi...">
<polygon fill="white" stroke="black" points="188.5,-0.5 188.5,-30.5 286.5,-30.5 286.5,-0.5 188.5,-0.5"/>
<text text-anchor="start" x="196.5" y="-18.5" font-family="Helvetica,sans-Serif" font-size="10.00">Driver::LED::TPipe</text>
<text text-anchor="middle" x="237.5" y="-7.5" font-family="Helvetica,sans-Serif" font-size="10.00">::RedGreeBlue</text>
</a>
</g>
</g>
<!-- Node0&#45;&gt;Node2 -->
<g id="edge2" class="edge"><title>Node0&#45;&gt;Node2</title>
<path fill="none" stroke="midnightblue" d="M146.494,-18.1868C160.772,-17.7605 175.295,-17.327 188.389,-16.9361"/>
<polygon fill="midnightblue" stroke="midnightblue" points="146.055,-14.6982 136.164,-18.4951 146.264,-21.6951 146.055,-14.6982"/>
</g>
<!-- Node358 -->
<g id="node4" class="node"><title>Node358</title>
<g id="a_node4"><a xlink:title=" ">
<polygon fill="white" stroke="#bfbfbf" points="18.5,-55 18.5,-74 117.5,-74 117.5,-55 18.5,-55"/>
<text text-anchor="middle" x="68" y="-62" font-family="Helvetica,sans-Serif" font-size="10.00">pimoroni::RGBLED</text>
</a>
</g>
</g>
<!-- Node358&#45;&gt;Node1 -->
<g id="edge3" class="edge"><title>Node358&#45;&gt;Node1</title>
<path fill="none" stroke="midnightblue" d="M128.037,-64.5C142.25,-64.5 157.506,-64.5 171.956,-64.5"/>
<polygon fill="midnightblue" stroke="midnightblue" points="127.898,-61.0001 117.898,-64.5 127.898,-68.0001 127.898,-61.0001"/>
</g>
</g>
</svg>
