<?xml version="1.0" encoding="UTF-8" standalone="no"?>
<!DOCTYPE svg PUBLIC "-//W3C//DTD SVG 1.1//EN"
 "http://www.w3.org/Graphics/SVG/1.1/DTD/svg11.dtd">
<!-- Generated by graphviz version 2.38.0 (20140413.2041)
 -->
<!-- Title: Graphical Class Hierarchy Pages: 1 -->
<svg width="482pt" height="225pt"
 viewBox="0.00 0.00 482.00 224.50" xmlns="http://www.w3.org/2000/svg" xmlns:xlink="http://www.w3.org/1999/xlink">
<g id="graph0" class="graph" transform="scale(1 1) rotate(0) translate(4 220.5)">
<title>Graphical Class Hierarchy</title>
<polygon fill="white" stroke="none" points="-4,4 -4,-220.5 478,-220.5 478,4 -4,4"/>
<!-- Node0 -->
<g id="node1" class="node"><title>Node0</title>
<g id="a_node1"><a xlink:href="class_cpl_1_1_dm_1_1_persistent_1_1_erase_request.html" target="_top" xlink:title="This abstract class define ITC message type and payload for the application to request invalidating/c...">
<polygon fill="white" stroke="black" points="10,-170 10,-200 112,-200 112,-170 10,-170"/>
<text text-anchor="start" x="18" y="-188" font-family="Helvetica,sans-Serif" font-size="10.00">Cpl::Dm::Persistent</text>
<text text-anchor="middle" x="61" y="-177" font-family="Helvetica,sans-Serif" font-size="10.00">::EraseRequest</text>
</a>
</g>
</g>
<!-- Node1 -->
<g id="node2" class="node"><title>Node1</title>
<g id="a_node2"><a xlink:href="class_cpl_1_1_dm_1_1_persistent_1_1_record.html" target="_top" xlink:title="This mostly concrete class implements the Cpl::Persistent::Record interface where a Record instance c...">
<polygon fill="white" stroke="black" points="176,-121 176,-151 278,-151 278,-121 176,-121"/>
<text text-anchor="start" x="184" y="-139" font-family="Helvetica,sans-Serif" font-size="10.00">Cpl::Dm::Persistent</text>
<text text-anchor="middle" x="227" y="-128" font-family="Helvetica,sans-Serif" font-size="10.00">::Record</text>
</a>
</g>
</g>
<!-- Node0&#45;&gt;Node1 -->
<g id="edge1" class="edge"><title>Node0&#45;&gt;Node1</title>
<path fill="none" stroke="midnightblue" d="M121.792,-167.135C139.564,-161.825 158.842,-156.066 175.928,-150.961"/>
<polygon fill="midnightblue" stroke="midnightblue" points="120.676,-163.816 112.097,-170.032 122.68,-170.523 120.676,-163.816"/>
</g>
<!-- Node2 -->
<g id="node3" class="node"><title>Node2</title>
<g id="a_node3"><a xlink:href="class_storm_1_1_thermostat_1_1_main_1_1_installer_record.html" target="_top" xlink:title="This concrete class implements the &quot;Record&quot; class for storing Installer settings.">
<polygon fill="white" stroke="black" points="348.5,-186 348.5,-216 457.5,-216 457.5,-186 348.5,-186"/>
<text text-anchor="start" x="356.5" y="-204" font-family="Helvetica,sans-Serif" font-size="10.00">Storm::Thermostat::</text>
<text text-anchor="middle" x="403" y="-193" font-family="Helvetica,sans-Serif" font-size="10.00">Main::InstallerRecord</text>
</a>
</g>
</g>
<!-- Node1&#45;&gt;Node2 -->
<g id="edge2" class="edge"><title>Node1&#45;&gt;Node2</title>
<path fill="none" stroke="midnightblue" d="M274.535,-154.865C292.431,-161.983 313.099,-170.038 332,-177 340.077,-179.975 348.721,-183.037 357.082,-185.936"/>
<polygon fill="midnightblue" stroke="midnightblue" points="275.492,-151.478 264.907,-151.02 272.895,-157.979 275.492,-151.478"/>
</g>
<!-- Node3 -->
<g id="node4" class="node"><title>Node3</title>
<g id="a_node4"><a xlink:href="class_storm_1_1_thermostat_1_1_main_1_1_run_time_record.html" target="_top" xlink:title="This concrete class implements the &quot;Record&quot; class for storing persistent run time alerts,...">
<polygon fill="white" stroke="black" points="346.5,-137 346.5,-167 459.5,-167 459.5,-137 346.5,-137"/>
<text text-anchor="start" x="354.5" y="-155" font-family="Helvetica,sans-Serif" font-size="10.00">Storm::Thermostat::</text>
<text text-anchor="middle" x="403" y="-144" font-family="Helvetica,sans-Serif" font-size="10.00">Main::RunTimeRecord</text>
</a>
</g>
</g>
<!-- Node1&#45;&gt;Node3 -->
<g id="edge3" class="edge"><title>Node1&#45;&gt;Node3</title>
<path fill="none" stroke="midnightblue" d="M288.539,-141.567C307.301,-143.292 327.877,-145.184 346.295,-146.878"/>
<polygon fill="midnightblue" stroke="midnightblue" points="288.607,-138.058 278.328,-140.628 287.965,-145.029 288.607,-138.058"/>
</g>
<!-- Node4 -->
<g id="node5" class="node"><title>Node4</title>
<g id="a_node5"><a xlink:href="class_storm_1_1_thermostat_1_1_main_1_1_user_record.html" target="_top" xlink:title="This concrete class implements the &quot;Record&quot; class for storing user settings.">
<polygon fill="white" stroke="black" points="351,-88 351,-118 455,-118 455,-88 351,-88"/>
<text text-anchor="start" x="359" y="-106" font-family="Helvetica,sans-Serif" font-size="10.00">Storm::Thermostat::</text>
<text text-anchor="middle" x="403" y="-95" font-family="Helvetica,sans-Serif" font-size="10.00">Main::UserRecord</text>
</a>
</g>
</g>
<!-- Node1&#45;&gt;Node4 -->
<g id="edge4" class="edge"><title>Node1&#45;&gt;Node4</title>
<path fill="none" stroke="midnightblue" d="M288.161,-124.59C308.595,-120.715 331.22,-116.424 350.88,-112.695"/>
<polygon fill="midnightblue" stroke="midnightblue" points="287.501,-121.153 278.328,-126.455 288.805,-128.03 287.501,-121.153"/>
</g>
<!-- Node106 -->
<g id="node6" class="node"><title>Node106</title>
<g id="a_node6"><a xlink:href="class_cpl_1_1_dm_1_1_persistent_1_1_flush_request.html" target="_top" xlink:title="This abstract class define ITC message type and payload for the application to request flushing the R...">
<polygon fill="white" stroke="black" points="10,-121 10,-151 112,-151 112,-121 10,-121"/>
<text text-anchor="start" x="18" y="-139" font-family="Helvetica,sans-Serif" font-size="10.00">Cpl::Dm::Persistent</text>
<text text-anchor="middle" x="61" y="-128" font-family="Helvetica,sans-Serif" font-size="10.00">::FlushRequest</text>
</a>
</g>
</g>
<!-- Node106&#45;&gt;Node1 -->
<g id="edge5" class="edge"><title>Node106&#45;&gt;Node1</title>
<path fill="none" stroke="midnightblue" d="M122.286,-136C139.921,-136 159,-136 175.928,-136"/>
<polygon fill="midnightblue" stroke="midnightblue" points="122.097,-132.5 112.097,-136 122.096,-139.5 122.097,-132.5"/>
</g>
<!-- Node331 -->
<g id="node7" class="node"><title>Node331</title>
<g id="a_node7"><a xlink:href="class_cpl_1_1_persistent_1_1_payload.html" target="_top" xlink:title="This abstract class defines the interface accessing the &#39;data payload&#39; of an individual Record instan...">
<polygon fill="white" stroke="black" points="0,-82.5 0,-101.5 122,-101.5 122,-82.5 0,-82.5"/>
<text text-anchor="middle" x="61" y="-89.5" font-family="Helvetica,sans-Serif" font-size="10.00">Cpl::Persistent::Payload</text>
</a>
</g>
</g>
<!-- Node331&#45;&gt;Node1 -->
<g id="edge6" class="edge"><title>Node331&#45;&gt;Node1</title>
<path fill="none" stroke="midnightblue" d="M107.348,-104.166C128.615,-109.872 154.025,-116.69 175.863,-122.549"/>
<polygon fill="midnightblue" stroke="midnightblue" points="108.151,-100.758 97.5856,-101.547 106.337,-107.519 108.151,-100.758"/>
</g>
<!-- Node332 -->
<g id="node8" class="node"><title>Node332</title>
<g id="a_node8"><a xlink:href="class_cpl_1_1_persistent_1_1_data_record.html" target="_top" xlink:title="This mostly concrete class implements the Cpl::Persistent::DataRecord interface where a DataRecord in...">
<polygon fill="white" stroke="black" points="158,-44.5 158,-63.5 296,-63.5 296,-44.5 158,-44.5"/>
<text text-anchor="middle" x="227" y="-51.5" font-family="Helvetica,sans-Serif" font-size="10.00">Cpl::Persistent::DataRecord</text>
</a>
</g>
</g>
<!-- Node331&#45;&gt;Node332 -->
<g id="edge7" class="edge"><title>Node331&#45;&gt;Node332</title>
<path fill="none" stroke="midnightblue" d="M113.341,-80.1039C136.393,-74.7626 163.221,-68.5463 184.913,-63.5201"/>
<polygon fill="midnightblue" stroke="midnightblue" points="112.336,-76.744 103.384,-82.411 113.916,-83.5633 112.336,-76.744"/>
</g>
<!-- Node333 -->
<g id="node9" class="node"><title>Node333</title>
<g id="a_node9"><a xlink:href="class_cpl_1_1_persistent_1_1_index_record.html" target="_top" xlink:title="This concrete class extends the Cpl::Persistent::DataRecord interface to store a latest/oldest &#39;recor...">
<polygon fill="white" stroke="black" points="332,-0.5 332,-19.5 474,-19.5 474,-0.5 332,-0.5"/>
<text text-anchor="middle" x="403" y="-7.5" font-family="Helvetica,sans-Serif" font-size="10.00">Cpl::Persistent::IndexRecord</text>
</a>
</g>
</g>
<!-- Node332&#45;&gt;Node333 -->
<g id="edge8" class="edge"><title>Node332&#45;&gt;Node333</title>
<path fill="none" stroke="midnightblue" d="M275.699,-41.9383C303.605,-34.8815 338.341,-26.0976 364.318,-19.5287"/>
<polygon fill="midnightblue" stroke="midnightblue" points="274.592,-38.6078 265.755,-44.4527 276.308,-45.3942 274.592,-38.6078"/>
</g>
<!-- Node334 -->
<g id="node10" class="node"><title>Node334</title>
<g id="a_node10"><a xlink:href="class_cpl_1_1_persistent_1_1_indexed_entry_record.html" target="_top" xlink:title="This concrete class implements the Cpl::Persistent::Record interface to store a collection &#39;entries&#39;.">
<polygon fill="white" stroke="black" points="342,-39 342,-69 464,-69 464,-39 342,-39"/>
<text text-anchor="start" x="350" y="-57" font-family="Helvetica,sans-Serif" font-size="10.00">Cpl::Persistent::Indexed</text>
<text text-anchor="middle" x="403" y="-46" font-family="Helvetica,sans-Serif" font-size="10.00">EntryRecord</text>
</a>
</g>
</g>
<!-- Node332&#45;&gt;Node334 -->
<g id="edge9" class="edge"><title>Node332&#45;&gt;Node334</title>
<path fill="none" stroke="midnightblue" d="M306.593,-54C318.427,-54 330.47,-54 341.835,-54"/>
<polygon fill="midnightblue" stroke="midnightblue" points="306.27,-50.5001 296.27,-54 306.27,-57.5001 306.27,-50.5001"/>
</g>
<!-- Node347 -->
<g id="node11" class="node"><title>Node347</title>
<g id="a_node11"><a xlink:href="class_cpl_1_1_persistent_1_1_record.html" target="_top" xlink:title="This abstract class defines the public interface for a Record instance.">
<polygon fill="white" stroke="black" points="2,-44.5 2,-63.5 120,-63.5 120,-44.5 2,-44.5"/>
<text text-anchor="middle" x="61" y="-51.5" font-family="Helvetica,sans-Serif" font-size="10.00">Cpl::Persistent::Record</text>
</a>
</g>
</g>
<!-- Node347&#45;&gt;Node1 -->
<g id="edge10" class="edge"><title>Node347&#45;&gt;Node1</title>
<path fill="none" stroke="midnightblue" d="M106.958,-66.9412C112.099,-68.801 117.209,-70.828 122,-73 151.993,-86.5983 184.051,-107.018 204.52,-120.896"/>
<polygon fill="midnightblue" stroke="midnightblue" points="107.705,-63.498 97.1105,-63.5769 105.442,-70.122 107.705,-63.498"/>
</g>
<!-- Node347&#45;&gt;Node332 -->
<g id="edge11" class="edge"><title>Node347&#45;&gt;Node332</title>
<path fill="none" stroke="midnightblue" d="M130.397,-54C139.464,-54 148.759,-54 157.822,-54"/>
<polygon fill="midnightblue" stroke="midnightblue" points="130.282,-50.5001 120.282,-54 130.282,-57.5001 130.282,-50.5001"/>
</g>
</g>
</svg>
