<?xml version="1.0" encoding="UTF-8" standalone="no"?>
<!DOCTYPE svg PUBLIC "-//W3C//DTD SVG 1.1//EN"
 "http://www.w3.org/Graphics/SVG/1.1/DTD/svg11.dtd">
<!-- Generated by graphviz version 2.38.0 (20140413.2041)
 -->
<!-- Title: Cpl/Math/real.h Pages: 1 -->
<svg width="1820pt" height="408pt"
 viewBox="0.00 0.00 1820.28 408.00" xmlns="http://www.w3.org/2000/svg" xmlns:xlink="http://www.w3.org/1999/xlink">
<g id="graph0" class="graph" transform="scale(1 1) rotate(0) translate(4 404)">
<title>Cpl/Math/real.h</title>
<polygon fill="white" stroke="none" points="-4,4 -4,-404 1816.28,-404 1816.28,4 -4,4"/>
<!-- Node1 -->
<g id="node1" class="node"><title>Node1</title>
<g id="a_node1"><a xlink:title="This file contains a collection of methods comparing, manipulating, etc.">
<polygon fill="#bfbfbf" stroke="black" points="921.278,-380.5 921.278,-399.5 1004.28,-399.5 1004.28,-380.5 921.278,-380.5"/>
<text text-anchor="middle" x="962.778" y="-387.5" font-family="Helvetica,sans-Serif" font-size="10.00">Cpl/Math/real.h</text>
</a>
</g>
</g>
<!-- Node2 -->
<g id="node2" class="node"><title>Node2</title>
<g id="a_node2"><a xlink:href="_double_8h.html" target="_top" xlink:title=" ">
<polygon fill="white" stroke="black" points="849.278,-324.5 849.278,-343.5 956.278,-343.5 956.278,-324.5 849.278,-324.5"/>
<text text-anchor="middle" x="902.778" y="-331.5" font-family="Helvetica,sans-Serif" font-size="10.00">Cpl/Dm/Mp/Double.h</text>
</a>
</g>
</g>
<!-- Node1&#45;&gt;Node2 -->
<g id="edge1" class="edge"><title>Node1&#45;&gt;Node2</title>
<path fill="none" stroke="midnightblue" d="M945.597,-373.537C934.899,-363.909 921.522,-351.869 912.594,-343.834"/>
<polygon fill="midnightblue" stroke="midnightblue" points="943.364,-376.236 953.138,-380.324 948.046,-371.033 943.364,-376.236"/>
</g>
<!-- Node3 -->
<g id="node3" class="node"><title>Node3</title>
<g id="a_node3"><a xlink:href="_float_8h.html" target="_top" xlink:title=" ">
<polygon fill="white" stroke="black" points="974.778,-324.5 974.778,-343.5 1072.78,-343.5 1072.78,-324.5 974.778,-324.5"/>
<text text-anchor="middle" x="1023.78" y="-331.5" font-family="Helvetica,sans-Serif" font-size="10.00">Cpl/Dm/Mp/Float.h</text>
</a>
</g>
</g>
<!-- Node1&#45;&gt;Node3 -->
<g id="edge2" class="edge"><title>Node1&#45;&gt;Node3</title>
<path fill="none" stroke="midnightblue" d="M980.245,-373.537C991.122,-363.909 1004.72,-351.869 1013.8,-343.834"/>
<polygon fill="midnightblue" stroke="midnightblue" points="977.747,-371.075 972.579,-380.324 982.386,-376.316 977.747,-371.075"/>
</g>
<!-- Node4 -->
<g id="node4" class="node"><title>Node4</title>
<g id="a_node4"><a xlink:href="_control_8h.html" target="_top" xlink:title=" ">
<polygon fill="white" stroke="black" points="206.278,-263 206.278,-282 343.278,-282 343.278,-263 206.278,-263"/>
<text text-anchor="middle" x="274.778" y="-270" font-family="Helvetica,sans-Serif" font-size="10.00">Storm/Component/Control.h</text>
</a>
</g>
</g>
<!-- Node3&#45;&gt;Node4 -->
<g id="edge3" class="edge"><title>Node3&#45;&gt;Node4</title>
<path fill="none" stroke="midnightblue" d="M964.492,-324.068C730.377,-298.009 466.005,-282.917 343.498,-276.743"/>
<polygon fill="midnightblue" stroke="midnightblue" points="964.233,-327.561 974.561,-325.198 965.014,-320.604 964.233,-327.561"/>
</g>
<!-- Node13 -->
<g id="node13" class="node"><title>Node13</title>
<g id="a_node13"><a xlink:href="_fan_control_8h.html" target="_top" xlink:title=" ">
<polygon fill="white" stroke="black" points="784.778,-62 784.778,-81 938.778,-81 938.778,-62 784.778,-62"/>
<text text-anchor="middle" x="861.778" y="-69" font-family="Helvetica,sans-Serif" font-size="10.00">Storm/Component/FanControl.h</text>
</a>
</g>
</g>
<!-- Node3&#45;&gt;Node13 -->
<g id="edge19" class="edge"><title>Node3&#45;&gt;Node13</title>
<path fill="none" stroke="midnightblue" d="M1006.8,-317.059C976.635,-287.749 913.777,-222.044 880.778,-154 868.733,-129.162 864.101,-96.2993 862.514,-81.0054"/>
<polygon fill="midnightblue" stroke="midnightblue" points="1004.75,-319.94 1014.39,-324.332 1009.59,-314.886 1004.75,-319.94"/>
</g>
<!-- Node14 -->
<g id="node14" class="node"><title>Node14</title>
<g id="a_node14"><a xlink:href="_component_2_hvac_relay_outputs_8h.html" target="_top" xlink:title=" ">
<polygon fill="white" stroke="black" points="889.778,-123.5 889.778,-153.5 1035.78,-153.5 1035.78,-123.5 889.778,-123.5"/>
<text text-anchor="start" x="897.778" y="-141.5" font-family="Helvetica,sans-Serif" font-size="10.00">Storm/Component/HvacRelay</text>
<text text-anchor="middle" x="962.778" y="-130.5" font-family="Helvetica,sans-Serif" font-size="10.00">Outputs.h</text>
</a>
</g>
</g>
<!-- Node3&#45;&gt;Node14 -->
<g id="edge21" class="edge"><title>Node3&#45;&gt;Node14</title>
<path fill="none" stroke="midnightblue" d="M1017.98,-314.603C1005.86,-276.161 978.079,-188.038 967.233,-153.63"/>
<polygon fill="midnightblue" stroke="midnightblue" points="1014.73,-315.951 1021.08,-324.436 1021.41,-313.846 1014.73,-315.951"/>
</g>
<!-- Node15 -->
<g id="node15" class="node"><title>Node15</title>
<g id="a_node15"><a xlink:href="_idt_selection_8h.html" target="_top" xlink:title=" ">
<polygon fill="white" stroke="black" points="994.778,-62 994.778,-81 1152.78,-81 1152.78,-62 994.778,-62"/>
<text text-anchor="middle" x="1073.78" y="-69" font-family="Helvetica,sans-Serif" font-size="10.00">Storm/Component/IdtSelection.h</text>
</a>
</g>
</g>
<!-- Node3&#45;&gt;Node15 -->
<g id="edge23" class="edge"><title>Node3&#45;&gt;Node15</title>
<path fill="none" stroke="midnightblue" d="M1027.38,-314.216C1037.35,-262.275 1065.02,-118.115 1072.11,-81.1999"/>
<polygon fill="midnightblue" stroke="midnightblue" points="1023.89,-313.852 1025.44,-324.333 1030.76,-315.172 1023.89,-313.852"/>
</g>
<!-- Node16 -->
<g id="node16" class="node"><title>Node16</title>
<g id="a_node16"><a xlink:href="_component_2_operating_mode_8h.html" target="_top" xlink:title=" ">
<polygon fill="white" stroke="black" points="1084.78,-257.5 1084.78,-287.5 1224.78,-287.5 1224.78,-257.5 1084.78,-257.5"/>
<text text-anchor="start" x="1092.78" y="-275.5" font-family="Helvetica,sans-Serif" font-size="10.00">Storm/Component/Operating</text>
<text text-anchor="middle" x="1154.78" y="-264.5" font-family="Helvetica,sans-Serif" font-size="10.00">Mode.h</text>
</a>
</g>
</g>
<!-- Node3&#45;&gt;Node16 -->
<g id="edge25" class="edge"><title>Node3&#45;&gt;Node16</title>
<path fill="none" stroke="midnightblue" d="M1051.67,-320.331C1072.87,-310.704 1102.01,-297.468 1123.9,-287.523"/>
<polygon fill="midnightblue" stroke="midnightblue" points="1050.2,-317.153 1042.55,-324.475 1053.1,-323.526 1050.2,-317.153"/>
</g>
<!-- Node17 -->
<g id="node17" class="node"><title>Node17</title>
<g id="a_node17"><a xlink:href="_pi_8h.html" target="_top" xlink:title=" ">
<polygon fill="white" stroke="black" points="1242.78,-263 1242.78,-282 1358.78,-282 1358.78,-263 1242.78,-263"/>
<text text-anchor="middle" x="1300.78" y="-270" font-family="Helvetica,sans-Serif" font-size="10.00">Storm/Component/Pi.h</text>
</a>
</g>
</g>
<!-- Node3&#45;&gt;Node17 -->
<g id="edge27" class="edge"><title>Node3&#45;&gt;Node17</title>
<path fill="none" stroke="midnightblue" d="M1073.48,-322.38C1116.03,-313.279 1178.94,-299.809 1233.78,-288 1242.74,-286.071 1252.37,-283.99 1261.46,-282.024"/>
<polygon fill="midnightblue" stroke="midnightblue" points="1072.7,-318.967 1063.65,-324.481 1074.16,-325.813 1072.7,-318.967"/>
</g>
<!-- Node18 -->
<g id="node18" class="node"><title>Node18</title>
<g id="a_node18"><a xlink:href="_pi_pre_process_8h.html" target="_top" xlink:title=" ">
<polygon fill="white" stroke="black" points="509.278,-129 509.278,-148 676.278,-148 676.278,-129 509.278,-129"/>
<text text-anchor="middle" x="592.778" y="-136" font-family="Helvetica,sans-Serif" font-size="10.00">Storm/Component/PiPreProcess.h</text>
</a>
</g>
</g>
<!-- Node3&#45;&gt;Node18 -->
<g id="edge29" class="edge"><title>Node3&#45;&gt;Node18</title>
<path fill="none" stroke="midnightblue" d="M965.535,-322.349C930.616,-314.931 885.762,-303.562 847.778,-288 747.988,-247.117 639.895,-173.063 604.624,-148.031"/>
<polygon fill="midnightblue" stroke="midnightblue" points="965.068,-325.827 975.57,-324.431 966.489,-318.973 965.068,-325.827"/>
</g>
<!-- Node19 -->
<g id="node19" class="node"><title>Node19</title>
<g id="a_node19"><a xlink:href="_model_points_8h.html" target="_top" xlink:title="This file defines all of the Model Points for the Thermostat Application.">
<polygon fill="white" stroke="black" points="1377.28,-263 1377.28,-282 1538.28,-282 1538.28,-263 1377.28,-263"/>
<text text-anchor="middle" x="1457.78" y="-270" font-family="Helvetica,sans-Serif" font-size="10.00">Storm/Thermostat/ModelPoints.h</text>
</a>
</g>
</g>
<!-- Node3&#45;&gt;Node19 -->
<g id="edge33" class="edge"><title>Node3&#45;&gt;Node19</title>
<path fill="none" stroke="midnightblue" d="M1083.01,-325.793C1151.62,-317.321 1268,-302.56 1367.78,-288 1380.31,-286.172 1393.79,-284.07 1406.42,-282.045"/>
<polygon fill="midnightblue" stroke="midnightblue" points="1082.33,-322.351 1072.83,-327.048 1083.19,-329.298 1082.33,-322.351"/>
</g>
<!-- Node5 -->
<g id="node5" class="node"><title>Node5</title>
<g id="a_node5"><a xlink:href="_cooling_8h.html" target="_top" xlink:title=" ">
<polygon fill="white" stroke="black" points="20.2781,-123.5 20.2781,-153.5 165.278,-153.5 165.278,-123.5 20.2781,-123.5"/>
<text text-anchor="start" x="28.2781" y="-141.5" font-family="Helvetica,sans-Serif" font-size="10.00">Storm/Component/Equipment</text>
<text text-anchor="middle" x="92.7781" y="-130.5" font-family="Helvetica,sans-Serif" font-size="10.00">/Cooling.h</text>
</a>
</g>
</g>
<!-- Node4&#45;&gt;Node5 -->
<g id="edge4" class="edge"><title>Node4&#45;&gt;Node5</title>
<path fill="none" stroke="midnightblue" d="M223.308,-260.263C197.054,-252.562 165.878,-240.18 142.778,-221 120.556,-202.549 105.443,-171.529 98.0418,-153.55"/>
<polygon fill="midnightblue" stroke="midnightblue" points="222.529,-263.68 233.101,-262.99 224.406,-256.936 222.529,-263.68"/>
</g>
<!-- Node6 -->
<g id="node6" class="node"><title>Node6</title>
<g id="a_node6"><a xlink:href="_algorithm_8h.html" target="_top" xlink:title=" ">
<polygon fill="white" stroke="black" points="568.778,-0.5 568.778,-19.5 716.778,-19.5 716.778,-0.5 568.778,-0.5"/>
<text text-anchor="middle" x="642.778" y="-7.5" font-family="Helvetica,sans-Serif" font-size="10.00">Storm/Thermostat/Algorithm.h</text>
</a>
</g>
</g>
<!-- Node4&#45;&gt;Node6 -->
<g id="edge18" class="edge"><title>Node4&#45;&gt;Node6</title>
<path fill="none" stroke="midnightblue" d="M206.473,-261.186C111.965,-243.8 -41.4686,-202.503 10.7781,-123 71.2489,-30.9827 414.991,-14.2896 568.612,-11.4612"/>
<polygon fill="midnightblue" stroke="midnightblue" points="206.096,-264.674 216.557,-262.992 207.33,-257.784 206.096,-264.674"/>
</g>
<!-- Node7 -->
<g id="node7" class="node"><title>Node7</title>
<g id="a_node7"><a xlink:href="_indoor_heating_8h.html" target="_top" xlink:title=" ">
<polygon fill="white" stroke="black" points="183.278,-123.5 183.278,-153.5 328.278,-153.5 328.278,-123.5 183.278,-123.5"/>
<text text-anchor="start" x="191.278" y="-141.5" font-family="Helvetica,sans-Serif" font-size="10.00">Storm/Component/Equipment</text>
<text text-anchor="middle" x="255.778" y="-130.5" font-family="Helvetica,sans-Serif" font-size="10.00">/IndoorHeating.h</text>
</a>
</g>
</g>
<!-- Node4&#45;&gt;Node7 -->
<g id="edge6" class="edge"><title>Node4&#45;&gt;Node7</title>
<path fill="none" stroke="midnightblue" d="M288.786,-254.735C300.825,-238.186 314.912,-212.208 305.778,-190 299.724,-175.281 287.075,-162.573 276.015,-153.587"/>
<polygon fill="midnightblue" stroke="midnightblue" points="285.835,-252.829 282.469,-262.875 291.365,-257.12 285.835,-252.829"/>
</g>
<!-- Node8 -->
<g id="node8" class="node"><title>Node8</title>
<g id="a_node8"><a xlink:href="_off_8h.html" target="_top" xlink:title=" ">
<polygon fill="white" stroke="black" points="621.278,-56.5 621.278,-86.5 766.278,-86.5 766.278,-56.5 621.278,-56.5"/>
<text text-anchor="start" x="629.278" y="-74.5" font-family="Helvetica,sans-Serif" font-size="10.00">Storm/Component/Equipment</text>
<text text-anchor="middle" x="693.778" y="-63.5" font-family="Helvetica,sans-Serif" font-size="10.00">/Off.h</text>
</a>
</g>
</g>
<!-- Node4&#45;&gt;Node8 -->
<g id="edge8" class="edge"><title>Node4&#45;&gt;Node8</title>
<path fill="none" stroke="midnightblue" d="M342.79,-261.301C447.505,-244.136 640.763,-206.168 684.778,-154 700.659,-135.177 699.186,-104.575 696.562,-86.7103"/>
<polygon fill="midnightblue" stroke="midnightblue" points="341.944,-257.893 332.632,-262.947 343.063,-264.803 341.944,-257.893"/>
</g>
<!-- Node9 -->
<g id="node9" class="node"><title>Node9</title>
<g id="a_node9"><a xlink:href="_stage_api_8h.html" target="_top" xlink:title=" ">
<polygon fill="white" stroke="black" points="152.278,-190.5 152.278,-220.5 297.278,-220.5 297.278,-190.5 152.278,-190.5"/>
<text text-anchor="start" x="160.278" y="-208.5" font-family="Helvetica,sans-Serif" font-size="10.00">Storm/Component/Equipment</text>
<text text-anchor="middle" x="224.778" y="-197.5" font-family="Helvetica,sans-Serif" font-size="10.00">/StageApi.h</text>
</a>
</g>
</g>
<!-- Node4&#45;&gt;Node9 -->
<g id="edge10" class="edge"><title>Node4&#45;&gt;Node9</title>
<path fill="none" stroke="midnightblue" d="M261.834,-254.673C253.696,-244.094 243.318,-230.602 235.616,-220.589"/>
<polygon fill="midnightblue" stroke="midnightblue" points="259.164,-256.942 268.035,-262.734 264.712,-252.674 259.164,-256.942"/>
</g>
<!-- Node5&#45;&gt;Node6 -->
<g id="edge5" class="edge"><title>Node5&#45;&gt;Node6</title>
<path fill="none" stroke="midnightblue" d="M119.615,-117.562C147.042,-98.3172 191.62,-70.0844 234.778,-56 347.238,-19.2998 485.403,-11.274 568.652,-10.1668"/>
<polygon fill="midnightblue" stroke="midnightblue" points="117.446,-114.81 111.336,-123.466 121.51,-120.51 117.446,-114.81"/>
</g>
<!-- Node7&#45;&gt;Node6 -->
<g id="edge7" class="edge"><title>Node7&#45;&gt;Node6</title>
<path fill="none" stroke="midnightblue" d="M244.667,-114.177C237.865,-96.1029 232.859,-71.59 246.778,-56 267.774,-32.483 459.577,-19.6432 568.346,-14.197"/>
<polygon fill="midnightblue" stroke="midnightblue" points="241.454,-115.566 248.522,-123.458 247.918,-112.881 241.454,-115.566"/>
</g>
<!-- Node8&#45;&gt;Node6 -->
<g id="edge9" class="edge"><title>Node8&#45;&gt;Node6</title>
<path fill="none" stroke="midnightblue" d="M675.096,-48.7037C666.466,-38.636 656.712,-27.2567 650.199,-19.6578"/>
<polygon fill="midnightblue" stroke="midnightblue" points="672.526,-51.0845 681.692,-56.3993 677.841,-46.529 672.526,-51.0845"/>
</g>
<!-- Node9&#45;&gt;Node5 -->
<g id="edge11" class="edge"><title>Node9&#45;&gt;Node5</title>
<path fill="none" stroke="midnightblue" d="M186.911,-185.853C166.04,-175.576 140.552,-163.025 121.364,-153.577"/>
<polygon fill="midnightblue" stroke="midnightblue" points="185.619,-189.118 196.136,-190.396 188.711,-182.838 185.619,-189.118"/>
</g>
<!-- Node9&#45;&gt;Node7 -->
<g id="edge12" class="edge"><title>Node9&#45;&gt;Node7</title>
<path fill="none" stroke="midnightblue" d="M235.851,-181.283C240.267,-172.022 245.208,-161.663 249.065,-153.577"/>
<polygon fill="midnightblue" stroke="midnightblue" points="232.65,-179.863 231.505,-190.396 238.969,-182.877 232.65,-179.863"/>
</g>
<!-- Node10 -->
<g id="node10" class="node"><title>Node10</title>
<g id="a_node10"><a xlink:href="_storm_2_component_2_equipment_2_stage_2_basic_8h.html" target="_top" xlink:title=" ">
<polygon fill="white" stroke="black" points="346.278,-123.5 346.278,-153.5 491.278,-153.5 491.278,-123.5 346.278,-123.5"/>
<text text-anchor="start" x="354.278" y="-141.5" font-family="Helvetica,sans-Serif" font-size="10.00">Storm/Component/Equipment</text>
<text text-anchor="middle" x="418.778" y="-130.5" font-family="Helvetica,sans-Serif" font-size="10.00">/Stage/Basic.h</text>
</a>
</g>
</g>
<!-- Node9&#45;&gt;Node10 -->
<g id="edge13" class="edge"><title>Node9&#45;&gt;Node10</title>
<path fill="none" stroke="midnightblue" d="M276.735,-187.092C308.052,-176.599 347.421,-163.408 376.765,-153.577"/>
<polygon fill="midnightblue" stroke="midnightblue" points="275.243,-183.9 266.873,-190.396 277.467,-190.538 275.243,-183.9"/>
</g>
<!-- Node11 -->
<g id="node11" class="node"><title>Node11</title>
<g id="a_node11"><a xlink:href="_basic_cooling_8h.html" target="_top" xlink:title=" ">
<polygon fill="white" stroke="black" points="256.278,-56.5 256.278,-86.5 401.278,-86.5 401.278,-56.5 256.278,-56.5"/>
<text text-anchor="start" x="264.278" y="-74.5" font-family="Helvetica,sans-Serif" font-size="10.00">Storm/Component/Equipment</text>
<text text-anchor="middle" x="328.778" y="-63.5" font-family="Helvetica,sans-Serif" font-size="10.00">/Stage/BasicCooling.h</text>
</a>
</g>
</g>
<!-- Node10&#45;&gt;Node11 -->
<g id="edge14" class="edge"><title>Node10&#45;&gt;Node11</title>
<path fill="none" stroke="midnightblue" d="M391.018,-117.451C377.173,-107.452 360.762,-95.5995 348.269,-86.5765"/>
<polygon fill="midnightblue" stroke="midnightblue" points="389.093,-120.378 399.249,-123.396 393.192,-114.704 389.093,-120.378"/>
</g>
<!-- Node12 -->
<g id="node12" class="node"><title>Node12</title>
<g id="a_node12"><a xlink:href="_basic_indoor_heat_8h.html" target="_top" xlink:title=" ">
<polygon fill="white" stroke="black" points="419.278,-56.5 419.278,-86.5 564.278,-86.5 564.278,-56.5 419.278,-56.5"/>
<text text-anchor="start" x="427.278" y="-74.5" font-family="Helvetica,sans-Serif" font-size="10.00">Storm/Component/Equipment</text>
<text text-anchor="middle" x="491.778" y="-63.5" font-family="Helvetica,sans-Serif" font-size="10.00">/Stage/BasicIndoorHeat.h</text>
</a>
</g>
</g>
<!-- Node10&#45;&gt;Node12 -->
<g id="edge16" class="edge"><title>Node10&#45;&gt;Node12</title>
<path fill="none" stroke="midnightblue" d="M442.253,-116.598C453.276,-106.783 466.122,-95.3442 475.969,-86.5765"/>
<polygon fill="midnightblue" stroke="midnightblue" points="439.759,-114.132 434.618,-123.396 444.414,-119.36 439.759,-114.132"/>
</g>
<!-- Node11&#45;&gt;Node6 -->
<g id="edge15" class="edge"><title>Node11&#45;&gt;Node6</title>
<path fill="none" stroke="midnightblue" d="M411.736,-54.7803C471.226,-43.5075 549.112,-28.7488 597.539,-19.5724"/>
<polygon fill="midnightblue" stroke="midnightblue" points="410.779,-51.3993 401.605,-56.7 412.082,-58.2769 410.779,-51.3993"/>
</g>
<!-- Node12&#45;&gt;Node6 -->
<g id="edge17" class="edge"><title>Node12&#45;&gt;Node6</title>
<path fill="none" stroke="midnightblue" d="M537.057,-52.6583C564.752,-41.7455 598.944,-28.2724 620.806,-19.6578"/>
<polygon fill="midnightblue" stroke="midnightblue" points="535.584,-49.4769 527.563,-56.3993 538.15,-55.9895 535.584,-49.4769"/>
</g>
<!-- Node13&#45;&gt;Node6 -->
<g id="edge20" class="edge"><title>Node13&#45;&gt;Node6</title>
<path fill="none" stroke="midnightblue" d="M820.637,-59.3225C778.096,-47.7645 712.612,-29.9732 674.097,-19.5091"/>
<polygon fill="midnightblue" stroke="midnightblue" points="819.833,-62.7307 830.401,-61.9751 821.668,-55.9756 819.833,-62.7307"/>
</g>
<!-- Node14&#45;&gt;Node6 -->
<g id="edge22" class="edge"><title>Node14&#45;&gt;Node6</title>
<path fill="none" stroke="midnightblue" d="M965.225,-113.22C965.631,-94.9116 962.851,-70.5472 947.778,-56 915.715,-25.0565 796.342,-15.3284 716.792,-12.3084"/>
<polygon fill="midnightblue" stroke="midnightblue" points="961.717,-113.26 964.664,-123.437 968.707,-113.643 961.717,-113.26"/>
</g>
<!-- Node15&#45;&gt;Node6 -->
<g id="edge24" class="edge"><title>Node15&#45;&gt;Node6</title>
<path fill="none" stroke="midnightblue" d="M1010.09,-60.3769C1000.28,-58.8735 990.261,-57.3703 980.778,-56 887.035,-42.4534 778.439,-28.2619 710.175,-19.5233"/>
<polygon fill="midnightblue" stroke="midnightblue" points="1009.79,-63.8719 1020.2,-61.9381 1010.86,-56.9538 1009.79,-63.8719"/>
</g>
<!-- Node16&#45;&gt;Node6 -->
<g id="edge26" class="edge"><title>Node16&#45;&gt;Node6</title>
<path fill="none" stroke="midnightblue" d="M1164.84,-248.107C1181.98,-204.202 1210.48,-109.109 1161.78,-56 1132.34,-23.9004 853.362,-14.6294 717.039,-12.0064"/>
<polygon fill="midnightblue" stroke="midnightblue" points="1161.59,-246.808 1161.09,-257.39 1168.08,-249.433 1161.59,-246.808"/>
</g>
<!-- Node17&#45;&gt;Node6 -->
<g id="edge28" class="edge"><title>Node17&#45;&gt;Node6</title>
<path fill="none" stroke="midnightblue" d="M1282.21,-256.134C1271.87,-246.819 1259.39,-234.21 1250.78,-221 1207.73,-154.978 1249.04,-103.013 1185.78,-56 1149,-28.67 856.862,-16.9326 716.961,-12.8404"/>
<polygon fill="midnightblue" stroke="midnightblue" points="1280.08,-258.922 1289.92,-262.846 1284.67,-253.641 1280.08,-258.922"/>
</g>
<!-- Node18&#45;&gt;Node6 -->
<g id="edge32" class="edge"><title>Node18&#45;&gt;Node6</title>
<path fill="none" stroke="midnightblue" d="M595.179,-118.328C597.777,-101.39 602.807,-76.2987 611.778,-56 617.837,-42.29 628.226,-28.3618 635.291,-19.7073"/>
<polygon fill="midnightblue" stroke="midnightblue" points="591.663,-118.205 593.751,-128.592 598.596,-119.17 591.663,-118.205"/>
</g>
<!-- Node18&#45;&gt;Node11 -->
<g id="edge30" class="edge"><title>Node18&#45;&gt;Node11</title>
<path fill="none" stroke="midnightblue" d="M548.011,-126.478C503.321,-115.475 434.478,-98.5246 385.88,-86.5592"/>
<polygon fill="midnightblue" stroke="midnightblue" points="547.446,-129.943 557.993,-128.936 549.12,-123.146 547.446,-129.943"/>
</g>
<!-- Node18&#45;&gt;Node12 -->
<g id="edge31" class="edge"><title>Node18&#45;&gt;Node12</title>
<path fill="none" stroke="midnightblue" d="M570.485,-123.153C553.582,-112.275 530.473,-97.4029 513.67,-86.589"/>
<polygon fill="midnightblue" stroke="midnightblue" points="568.854,-126.265 579.157,-128.734 572.642,-120.379 568.854,-126.265"/>
</g>
<!-- Node20 -->
<g id="node20" class="node"><title>Node20</title>
<g id="a_node20"><a xlink:href="_installer_record_8h_source.html" target="_top" xlink:title=" ">
<polygon fill="white" stroke="black" points="1693.28,-190.5 1693.28,-220.5 1812.28,-220.5 1812.28,-190.5 1693.28,-190.5"/>
<text text-anchor="start" x="1701.28" y="-208.5" font-family="Helvetica,sans-Serif" font-size="10.00">Storm/Thermostat/Main</text>
<text text-anchor="middle" x="1752.78" y="-197.5" font-family="Helvetica,sans-Serif" font-size="10.00">/InstallerRecord.h</text>
</a>
</g>
</g>
<!-- Node19&#45;&gt;Node20 -->
<g id="edge34" class="edge"><title>Node19&#45;&gt;Node20</title>
<path fill="none" stroke="midnightblue" d="M1506.47,-260.77C1557.64,-249.496 1638.18,-231.749 1693.13,-219.642"/>
<polygon fill="midnightblue" stroke="midnightblue" points="1505.66,-257.366 1496.65,-262.936 1507.17,-264.202 1505.66,-257.366"/>
</g>
<!-- Node21 -->
<g id="node21" class="node"><title>Node21</title>
<g id="a_node21"><a xlink:href="_run_time_record_8h_source.html" target="_top" xlink:title=" ">
<polygon fill="white" stroke="black" points="1260.28,-190.5 1260.28,-220.5 1379.28,-220.5 1379.28,-190.5 1260.28,-190.5"/>
<text text-anchor="start" x="1268.28" y="-208.5" font-family="Helvetica,sans-Serif" font-size="10.00">Storm/Thermostat/Main</text>
<text text-anchor="middle" x="1319.78" y="-197.5" font-family="Helvetica,sans-Serif" font-size="10.00">/RunTimeRecord.h</text>
</a>
</g>
</g>
<!-- Node19&#45;&gt;Node21 -->
<g id="edge35" class="edge"><title>Node19&#45;&gt;Node21</title>
<path fill="none" stroke="midnightblue" d="M1430.12,-258.474C1406.79,-247.485 1373.47,-231.791 1349.56,-220.528"/>
<polygon fill="midnightblue" stroke="midnightblue" points="1428.91,-261.774 1439.45,-262.869 1431.9,-255.441 1428.91,-261.774"/>
</g>
<!-- Node22 -->
<g id="node22" class="node"><title>Node22</title>
<g id="a_node22"><a xlink:href="_user_record_8h_source.html" target="_top" xlink:title=" ">
<polygon fill="white" stroke="black" points="1397.28,-190.5 1397.28,-220.5 1516.28,-220.5 1516.28,-190.5 1397.28,-190.5"/>
<text text-anchor="start" x="1405.28" y="-208.5" font-family="Helvetica,sans-Serif" font-size="10.00">Storm/Thermostat/Main</text>
<text text-anchor="middle" x="1456.78" y="-197.5" font-family="Helvetica,sans-Serif" font-size="10.00">/UserRecord.h</text>
</a>
</g>
</g>
<!-- Node19&#45;&gt;Node22 -->
<g id="edge36" class="edge"><title>Node19&#45;&gt;Node22</title>
<path fill="none" stroke="midnightblue" d="M1457.48,-252.411C1457.33,-242.222 1457.14,-229.901 1456.99,-220.589"/>
<polygon fill="midnightblue" stroke="midnightblue" points="1453.99,-252.789 1457.64,-262.734 1460.99,-252.681 1453.99,-252.789"/>
</g>
<!-- Node23 -->
<g id="node23" class="node"><title>Node23</title>
<g id="a_node23"><a xlink:href="_event_monitor_8h_source.html" target="_top" xlink:title=" ">
<polygon fill="white" stroke="black" points="1534.78,-190.5 1534.78,-220.5 1674.78,-220.5 1674.78,-190.5 1534.78,-190.5"/>
<text text-anchor="start" x="1542.78" y="-208.5" font-family="Helvetica,sans-Serif" font-size="10.00">Storm/Thermostat/Ui</text>
<text text-anchor="middle" x="1604.78" y="-197.5" font-family="Helvetica,sans-Serif" font-size="10.00">/PicoDisplay/EventMonitor.h</text>
</a>
</g>
</g>
<!-- Node19&#45;&gt;Node23 -->
<g id="edge37" class="edge"><title>Node19&#45;&gt;Node23</title>
<path fill="none" stroke="midnightblue" d="M1486.57,-258.767C1511.45,-247.766 1547.35,-231.892 1573.05,-220.528"/>
<polygon fill="midnightblue" stroke="midnightblue" points="1485.03,-255.623 1477.3,-262.869 1487.86,-262.025 1485.03,-255.623"/>
</g>
</g>
</svg>
